<?xml version="1.0" encoding="UTF-8" standalone="no"?>
<!DOCTYPE svg PUBLIC "-//W3C//DTD SVG 1.1//EN"
 "http://www.w3.org/Graphics/SVG/1.1/DTD/svg11.dtd">
<!-- Generated by graphviz version 2.36.0 (20140111.2315)
 -->
<!-- Title: /home/travis/build/AliceO2Group/AliceO2/Framework/Core/src/InputSpec.cxx Pages: 1 -->
<svg width="2096pt" height="366pt"
 viewBox="0.00 0.00 2096.00 366.00" xmlns="http://www.w3.org/2000/svg" xmlns:xlink="http://www.w3.org/1999/xlink">
<g id="graph0" class="graph" transform="scale(1 1) rotate(0) translate(4 362)">
<title>/home/travis/build/AliceO2Group/AliceO2/Framework/Core/src/InputSpec.cxx</title>
<!-- Node1 -->
<g id="node1" class="node"><title>Node1</title>
<polygon fill="#bfbfbf" stroke="black" points="904.5,-316.5 904.5,-357.5 1079.5,-357.5 1079.5,-316.5 904.5,-316.5"/>
<text text-anchor="start" x="912.5" y="-345.5" font-family="Helvetica,sans-Serif" font-size="10.00">/home/travis/build</text>
<text text-anchor="start" x="912.5" y="-334.5" font-family="Helvetica,sans-Serif" font-size="10.00">/AliceO2Group/AliceO2</text>
<text text-anchor="middle" x="992" y="-323.5" font-family="Helvetica,sans-Serif" font-size="10.00">/Framework/Core/src/InputSpec.cxx</text>
</g>
<!-- Node2 -->
<g id="node2" class="node"><title>Node2</title>
<g id="a_node2"><a xlink:href="../../d5/d3f/InputSpec_8h.html" target="_top" xlink:title="Framework/InputSpec.h">
<polygon fill="none" stroke="black" points="770.5,-260.5 770.5,-279.5 891.5,-279.5 891.5,-260.5 770.5,-260.5"/>
<text text-anchor="middle" x="831" y="-267.5" font-family="Helvetica,sans-Serif" font-size="10.00">Framework/InputSpec.h</text>
</a>
</g>
</g>
<!-- Node1&#45;&gt;Node2 -->
<g id="edge1" class="edge"><title>Node1&#45;&gt;Node2</title>
<path fill="none" stroke="midnightblue" d="M943.695,-316.498C917.112,-305.766 884.921,-292.769 861.761,-283.419"/>
<polygon fill="midnightblue" stroke="midnightblue" points="863.015,-280.151 852.432,-279.652 860.394,-286.642 863.015,-280.151"/>
</g>
<!-- Node33 -->
<g id="node33" class="node"><title>Node33</title>
<polygon fill="none" stroke="#bfbfbf" points="1211,-130.5 1211,-149.5 1257,-149.5 1257,-130.5 1211,-130.5"/>
<text text-anchor="middle" x="1234" y="-137.5" font-family="Helvetica,sans-Serif" font-size="10.00">variant</text>
</g>
<!-- Node1&#45;&gt;Node33 -->
<g id="edge48" class="edge"><title>Node1&#45;&gt;Node33</title>
<path fill="none" stroke="midnightblue" d="M1016.54,-316.229C1064.99,-277.187 1172,-190.959 1215.28,-156.081"/>
<polygon fill="midnightblue" stroke="midnightblue" points="1217.69,-158.636 1223.28,-149.636 1213.3,-153.185 1217.69,-158.636"/>
</g>
<!-- Node3 -->
<g id="node3" class="node"><title>Node3</title>
<g id="a_node3"><a xlink:href="../../dc/dca/Lifetime_8h.html" target="_top" xlink:title="Framework/Lifetime.h">
<polygon fill="none" stroke="black" points="875.5,-198.5 875.5,-217.5 986.5,-217.5 986.5,-198.5 875.5,-198.5"/>
<text text-anchor="middle" x="931" y="-205.5" font-family="Helvetica,sans-Serif" font-size="10.00">Framework/Lifetime.h</text>
</a>
</g>
</g>
<!-- Node2&#45;&gt;Node3 -->
<g id="edge2" class="edge"><title>Node2&#45;&gt;Node3</title>
<path fill="none" stroke="midnightblue" d="M845.328,-260.403C861.664,-250.601 888.602,-234.439 907.912,-222.853"/>
<polygon fill="midnightblue" stroke="midnightblue" points="909.925,-225.727 916.699,-217.581 906.323,-219.724 909.925,-225.727"/>
</g>
<!-- Node4 -->
<g id="node4" class="node"><title>Node4</title>
<g id="a_node4"><a xlink:href="../../d0/d1b/ConcreteDataMatcher_8h.html" target="_top" xlink:title="Framework/ConcreteDataMatcher.h">
<polygon fill="none" stroke="black" points="271.5,-130.5 271.5,-149.5 444.5,-149.5 444.5,-130.5 271.5,-130.5"/>
<text text-anchor="middle" x="358" y="-137.5" font-family="Helvetica,sans-Serif" font-size="10.00">Framework/ConcreteDataMatcher.h</text>
</a>
</g>
</g>
<!-- Node2&#45;&gt;Node4 -->
<g id="edge3" class="edge"><title>Node2&#45;&gt;Node4</title>
<path fill="none" stroke="midnightblue" d="M770.732,-260.471C721.618,-252.872 650.707,-240.415 590,-224 515.869,-203.955 431.623,-171.209 387.9,-153.431"/>
<polygon fill="midnightblue" stroke="midnightblue" points="389.025,-150.11 378.445,-149.562 386.374,-156.589 389.025,-150.11"/>
</g>
<!-- Node12 -->
<g id="node12" class="node"><title>Node12</title>
<polygon fill="none" stroke="#bfbfbf" points="573.5,-6.5 573.5,-25.5 614.5,-25.5 614.5,-6.5 573.5,-6.5"/>
<text text-anchor="middle" x="594" y="-13.5" font-family="Helvetica,sans-Serif" font-size="10.00">string</text>
</g>
<!-- Node2&#45;&gt;Node12 -->
<g id="edge45" class="edge"><title>Node2&#45;&gt;Node12</title>
<path fill="none" stroke="midnightblue" d="M822.935,-260.244C815.244,-251.553 803.722,-237.598 796,-224 772.444,-182.517 787.029,-161.068 757,-124 737.026,-99.3449 658.894,-53.4187 618.494,-30.5972"/>
<polygon fill="midnightblue" stroke="midnightblue" points="619.987,-27.4219 609.555,-25.5769 616.56,-33.5253 619.987,-27.4219"/>
</g>
<!-- Node14 -->
<g id="node14" class="node"><title>Node14</title>
<g id="a_node14"><a xlink:href="../../d3/da3/DataDescriptorMatcher_8h.html" target="_top" xlink:title="Framework/DataDescriptor\lMatcher.h">
<polygon fill="none" stroke="black" points="599,-193 599,-223 733,-223 733,-193 599,-193"/>
<text text-anchor="start" x="607" y="-211" font-family="Helvetica,sans-Serif" font-size="10.00">Framework/DataDescriptor</text>
<text text-anchor="middle" x="666" y="-200" font-family="Helvetica,sans-Serif" font-size="10.00">Matcher.h</text>
</a>
</g>
</g>
<!-- Node2&#45;&gt;Node14 -->
<g id="edge13" class="edge"><title>Node2&#45;&gt;Node14</title>
<path fill="none" stroke="midnightblue" d="M807.36,-260.403C783.157,-251.603 744.853,-237.674 714.219,-226.534"/>
<polygon fill="midnightblue" stroke="midnightblue" points="715.164,-223.154 704.57,-223.025 712.771,-229.732 715.164,-223.154"/>
</g>
<!-- Node2&#45;&gt;Node33 -->
<g id="edge47" class="edge"><title>Node2&#45;&gt;Node33</title>
<path fill="none" stroke="midnightblue" d="M864.142,-260.499C897.381,-251.833 949.96,-237.748 995,-224 1085.6,-196.345 1108.18,-188.921 1197,-156 1199.25,-155.167 1201.56,-154.285 1203.89,-153.382"/>
<polygon fill="midnightblue" stroke="midnightblue" points="1205.34,-156.573 1213.34,-149.631 1202.76,-150.066 1205.34,-156.573"/>
</g>
<!-- Node34 -->
<g id="node34" class="node"><title>Node34</title>
<polygon fill="none" stroke="#bfbfbf" points="805,-198.5 805,-217.5 857,-217.5 857,-198.5 805,-198.5"/>
<text text-anchor="middle" x="831" y="-205.5" font-family="Helvetica,sans-Serif" font-size="10.00">ostream</text>
</g>
<!-- Node2&#45;&gt;Node34 -->
<g id="edge46" class="edge"><title>Node2&#45;&gt;Node34</title>
<path fill="none" stroke="midnightblue" d="M831,-260.403C831,-251.938 831,-238.728 831,-227.82"/>
<polygon fill="midnightblue" stroke="midnightblue" points="834.5,-227.581 831,-217.581 827.5,-227.581 834.5,-227.581"/>
</g>
<!-- Node5 -->
<g id="node5" class="node"><title>Node5</title>
<g id="a_node5"><a xlink:href="../../dc/dcd/DataHeader_8h.html" target="_top" xlink:title="Headers/DataHeader.h">
<polygon fill="none" stroke="black" points="299.5,-68.5 299.5,-87.5 416.5,-87.5 416.5,-68.5 299.5,-68.5"/>
<text text-anchor="middle" x="358" y="-75.5" font-family="Helvetica,sans-Serif" font-size="10.00">Headers/DataHeader.h</text>
</a>
</g>
</g>
<!-- Node4&#45;&gt;Node5 -->
<g id="edge4" class="edge"><title>Node4&#45;&gt;Node5</title>
<path fill="none" stroke="midnightblue" d="M358,-130.403C358,-121.938 358,-108.728 358,-97.8199"/>
<polygon fill="midnightblue" stroke="midnightblue" points="361.5,-97.5806 358,-87.5806 354.5,-97.5806 361.5,-97.5806"/>
</g>
<!-- Node6 -->
<g id="node6" class="node"><title>Node6</title>
<polygon fill="none" stroke="#bfbfbf" points="445,-6.5 445,-25.5 491,-25.5 491,-6.5 445,-6.5"/>
<text text-anchor="middle" x="468" y="-13.5" font-family="Helvetica,sans-Serif" font-size="10.00">cstdint</text>
</g>
<!-- Node5&#45;&gt;Node6 -->
<g id="edge5" class="edge"><title>Node5&#45;&gt;Node6</title>
<path fill="none" stroke="midnightblue" d="M373.76,-68.4035C391.976,-58.4678 422.173,-41.9966 443.468,-30.3812"/>
<polygon fill="midnightblue" stroke="midnightblue" points="445.166,-33.4418 452.269,-25.5806 441.814,-27.2965 445.166,-33.4418"/>
</g>
<!-- Node7 -->
<g id="node7" class="node"><title>Node7</title>
<polygon fill="none" stroke="#bfbfbf" points="0,-6.5 0,-25.5 52,-25.5 52,-6.5 0,-6.5"/>
<text text-anchor="middle" x="26" y="-13.5" font-family="Helvetica,sans-Serif" font-size="10.00">memory</text>
</g>
<!-- Node5&#45;&gt;Node7 -->
<g id="edge6" class="edge"><title>Node5&#45;&gt;Node7</title>
<path fill="none" stroke="midnightblue" d="M299.297,-72.5418C238.701,-66.915 141.873,-55.0482 61,-32 58.3496,-31.2447 55.6343,-30.3376 52.9455,-29.3482"/>
<polygon fill="midnightblue" stroke="midnightblue" points="54.0697,-26.0276 43.4867,-25.5283 51.4485,-32.5183 54.0697,-26.0276"/>
</g>
<!-- Node8 -->
<g id="node8" class="node"><title>Node8</title>
<polygon fill="none" stroke="#bfbfbf" points="70.5,-6.5 70.5,-25.5 119.5,-25.5 119.5,-6.5 70.5,-6.5"/>
<text text-anchor="middle" x="95" y="-13.5" font-family="Helvetica,sans-Serif" font-size="10.00">cassert</text>
</g>
<!-- Node5&#45;&gt;Node8 -->
<g id="edge7" class="edge"><title>Node5&#45;&gt;Node8</title>
<path fill="none" stroke="midnightblue" d="M299.229,-69.1201C252.434,-61.974 185.622,-49.8113 129,-32 126.577,-31.2377 124.095,-30.3551 121.629,-29.4071"/>
<polygon fill="midnightblue" stroke="midnightblue" points="122.938,-26.1609 112.361,-25.5439 120.245,-32.6221 122.938,-26.1609"/>
</g>
<!-- Node9 -->
<g id="node9" class="node"><title>Node9</title>
<polygon fill="none" stroke="#bfbfbf" points="509,-6.5 509,-25.5 555,-25.5 555,-6.5 509,-6.5"/>
<text text-anchor="middle" x="532" y="-13.5" font-family="Helvetica,sans-Serif" font-size="10.00">cstring</text>
</g>
<!-- Node5&#45;&gt;Node9 -->
<g id="edge8" class="edge"><title>Node5&#45;&gt;Node9</title>
<path fill="none" stroke="midnightblue" d="M388.874,-68.4882C417.915,-60.1844 462.425,-46.687 500,-32 501.843,-31.2796 503.729,-30.5027 505.619,-29.6949"/>
<polygon fill="midnightblue" stroke="midnightblue" points="507.224,-32.8108 514.909,-25.5176 504.353,-26.4265 507.224,-32.8108"/>
</g>
<!-- Node10 -->
<g id="node10" class="node"><title>Node10</title>
<polygon fill="none" stroke="#bfbfbf" points="138,-6.5 138,-25.5 194,-25.5 194,-6.5 138,-6.5"/>
<text text-anchor="middle" x="166" y="-13.5" font-family="Helvetica,sans-Serif" font-size="10.00">algorithm</text>
</g>
<!-- Node5&#45;&gt;Node10 -->
<g id="edge9" class="edge"><title>Node5&#45;&gt;Node10</title>
<path fill="none" stroke="midnightblue" d="M325.035,-68.4834C293.445,-60.0749 244.564,-46.4159 203,-32 200.593,-31.1653 198.115,-30.2611 195.636,-29.3246"/>
<polygon fill="midnightblue" stroke="midnightblue" points="196.801,-26.0223 186.214,-25.6311 194.246,-32.5394 196.801,-26.0223"/>
</g>
<!-- Node11 -->
<g id="node11" class="node"><title>Node11</title>
<polygon fill="none" stroke="#bfbfbf" points="212.5,-6.5 212.5,-25.5 271.5,-25.5 271.5,-6.5 212.5,-6.5"/>
<text text-anchor="middle" x="242" y="-13.5" font-family="Helvetica,sans-Serif" font-size="10.00">stdexcept</text>
</g>
<!-- Node5&#45;&gt;Node11 -->
<g id="edge10" class="edge"><title>Node5&#45;&gt;Node11</title>
<path fill="none" stroke="midnightblue" d="M341.38,-68.4035C322.085,-58.4232 290.041,-41.8487 267.569,-30.2253"/>
<polygon fill="midnightblue" stroke="midnightblue" points="269.079,-27.0661 258.589,-25.5806 265.863,-33.2836 269.079,-27.0661"/>
</g>
<!-- Node5&#45;&gt;Node12 -->
<g id="edge11" class="edge"><title>Node5&#45;&gt;Node12</title>
<path fill="none" stroke="midnightblue" d="M415.008,-68.471C456.962,-61.2569 514.982,-49.304 564,-32 565.853,-31.3458 567.739,-30.6034 569.617,-29.8074"/>
<polygon fill="midnightblue" stroke="midnightblue" points="571.171,-32.9445 578.75,-25.5411 568.209,-26.6023 571.171,-32.9445"/>
</g>
<!-- Node13 -->
<g id="node13" class="node"><title>Node13</title>
<g id="a_node13"><a xlink:href="../../d7/df8/Types_8h.html" target="_top" xlink:title="MemoryResources/Types.h">
<polygon fill="none" stroke="black" points="289.5,-6.5 289.5,-25.5 426.5,-25.5 426.5,-6.5 289.5,-6.5"/>
<text text-anchor="middle" x="358" y="-13.5" font-family="Helvetica,sans-Serif" font-size="10.00">MemoryResources/Types.h</text>
</a>
</g>
</g>
<!-- Node5&#45;&gt;Node13 -->
<g id="edge12" class="edge"><title>Node5&#45;&gt;Node13</title>
<path fill="none" stroke="midnightblue" d="M358,-68.4035C358,-59.9381 358,-46.7283 358,-35.8199"/>
<polygon fill="midnightblue" stroke="midnightblue" points="361.5,-35.5806 358,-25.5806 354.5,-35.5806 361.5,-35.5806"/>
</g>
<!-- Node14&#45;&gt;Node4 -->
<g id="edge14" class="edge"><title>Node14&#45;&gt;Node4</title>
<path fill="none" stroke="midnightblue" d="M600.304,-192.922C542.665,-180.571 460.098,-162.878 407.776,-151.666"/>
<polygon fill="midnightblue" stroke="midnightblue" points="408.242,-148.187 397.731,-149.514 406.776,-155.031 408.242,-148.187"/>
</g>
<!-- Node14&#45;&gt;Node5 -->
<g id="edge21" class="edge"><title>Node14&#45;&gt;Node5</title>
<path fill="none" stroke="midnightblue" d="M601.477,-192.962C569.131,-184.586 529.938,-172.358 497,-156 475.343,-145.245 473.794,-136.34 453,-124 432.151,-111.627 407.359,-99.978 388.329,-91.633"/>
<polygon fill="midnightblue" stroke="midnightblue" points="389.523,-88.3361 378.955,-87.5839 386.748,-94.7623 389.523,-88.3361"/>
</g>
<!-- Node14&#45;&gt;Node6 -->
<g id="edge40" class="edge"><title>Node14&#45;&gt;Node6</title>
<path fill="none" stroke="midnightblue" d="M598.95,-193.309C574.875,-185.645 549.007,-173.886 530,-156 494.494,-122.589 477.962,-65.1346 471.498,-35.6499"/>
<polygon fill="midnightblue" stroke="midnightblue" points="474.858,-34.61 469.435,-25.5084 467.999,-36.0054 474.858,-34.61"/>
</g>
<!-- Node14&#45;&gt;Node12 -->
<g id="edge42" class="edge"><title>Node14&#45;&gt;Node12</title>
<path fill="none" stroke="midnightblue" d="M711.208,-192.929C728.712,-185.022 746.929,-173.189 757,-156 764.19,-143.729 763.755,-136.515 757,-124 749.248,-109.638 660.675,-56.1931 617.448,-30.6992"/>
<polygon fill="midnightblue" stroke="midnightblue" points="619.109,-27.6159 608.715,-25.5653 615.562,-33.6504 619.109,-27.6159"/>
</g>
<!-- Node15 -->
<g id="node15" class="node"><title>Node15</title>
<g id="a_node15"><a xlink:href="../../d6/dc9/DataProcessingHeader_8h.html" target="_top" xlink:title="Framework/DataProcessing\lHeader.h">
<polygon fill="none" stroke="black" points="115,-125 115,-155 253,-155 253,-125 115,-125"/>
<text text-anchor="start" x="123" y="-143" font-family="Helvetica,sans-Serif" font-size="10.00">Framework/DataProcessing</text>
<text text-anchor="middle" x="184" y="-132" font-family="Helvetica,sans-Serif" font-size="10.00">Header.h</text>
</a>
</g>
</g>
<!-- Node14&#45;&gt;Node15 -->
<g id="edge15" class="edge"><title>Node14&#45;&gt;Node15</title>
<path fill="none" stroke="midnightblue" d="M598.973,-199.877C520.789,-191.267 387.43,-175.651 263.341,-156.156"/>
<polygon fill="midnightblue" stroke="midnightblue" points="263.706,-152.67 253.282,-154.563 262.611,-159.584 263.706,-152.67"/>
</g>
<!-- Node17 -->
<g id="node17" class="node"><title>Node17</title>
<g id="a_node17"><a xlink:href="../../d4/d00/Headers_2include_2Headers_2Stack_8h.html" target="_top" xlink:title="Headers/Stack.h">
<polygon fill="none" stroke="black" points="539,-130.5 539,-149.5 629,-149.5 629,-130.5 539,-130.5"/>
<text text-anchor="middle" x="584" y="-137.5" font-family="Helvetica,sans-Serif" font-size="10.00">Headers/Stack.h</text>
</a>
</g>
</g>
<!-- Node14&#45;&gt;Node17 -->
<g id="edge22" class="edge"><title>Node14&#45;&gt;Node17</title>
<path fill="none" stroke="midnightblue" d="M648.207,-192.679C634.789,-181.879 616.425,-167.098 602.773,-156.11"/>
<polygon fill="midnightblue" stroke="midnightblue" points="604.953,-153.372 594.968,-149.828 600.564,-158.825 604.953,-153.372"/>
</g>
<!-- Node25 -->
<g id="node25" class="node"><title>Node25</title>
<polygon fill="none" stroke="#bfbfbf" points="2044,-6.5 2044,-25.5 2088,-25.5 2088,-6.5 2044,-6.5"/>
<text text-anchor="middle" x="2066" y="-13.5" font-family="Helvetica,sans-Serif" font-size="10.00">vector</text>
</g>
<!-- Node14&#45;&gt;Node25 -->
<g id="edge44" class="edge"><title>Node14&#45;&gt;Node25</title>
<path fill="none" stroke="midnightblue" d="M733.134,-195.643C834.511,-178.712 1032.81,-146.443 1202,-124 1570.8,-75.0786 1675.87,-132.749 2034,-32 2036.34,-31.3411 2038.73,-30.5264 2041.08,-29.6199"/>
<polygon fill="midnightblue" stroke="midnightblue" points="2042.68,-32.7446 2050.44,-25.5416 2039.88,-26.3272 2042.68,-32.7446"/>
</g>
<!-- Node31 -->
<g id="node31" class="node"><title>Node31</title>
<polygon fill="none" stroke="#bfbfbf" points="647,-130.5 647,-149.5 685,-149.5 685,-130.5 647,-130.5"/>
<text text-anchor="middle" x="666" y="-137.5" font-family="Helvetica,sans-Serif" font-size="10.00">array</text>
</g>
<!-- Node14&#45;&gt;Node31 -->
<g id="edge39" class="edge"><title>Node14&#45;&gt;Node31</title>
<path fill="none" stroke="midnightblue" d="M666,-192.679C666,-183.101 666,-170.394 666,-159.977"/>
<polygon fill="midnightblue" stroke="midnightblue" points="669.5,-159.828 666,-149.828 662.5,-159.828 669.5,-159.828"/>
</g>
<!-- Node32 -->
<g id="node32" class="node"><title>Node32</title>
<polygon fill="none" stroke="#bfbfbf" points="703.5,-130.5 703.5,-149.5 748.5,-149.5 748.5,-130.5 703.5,-130.5"/>
<text text-anchor="middle" x="726" y="-137.5" font-family="Helvetica,sans-Serif" font-size="10.00">iosfwd</text>
</g>
<!-- Node14&#45;&gt;Node32 -->
<g id="edge41" class="edge"><title>Node14&#45;&gt;Node32</title>
<path fill="none" stroke="midnightblue" d="M679.019,-192.679C688.467,-182.286 701.265,-168.208 711.118,-157.37"/>
<polygon fill="midnightblue" stroke="midnightblue" points="713.837,-159.582 717.974,-149.828 708.658,-154.873 713.837,-159.582"/>
</g>
<!-- Node14&#45;&gt;Node33 -->
<g id="edge43" class="edge"><title>Node14&#45;&gt;Node33</title>
<path fill="none" stroke="midnightblue" d="M733.102,-198.929C753.308,-196.587 775.546,-194.098 796,-192 974.005,-173.743 1023.08,-198.073 1197,-156 1200.07,-155.258 1203.21,-154.305 1206.32,-153.241"/>
<polygon fill="midnightblue" stroke="midnightblue" points="1207.82,-156.414 1215.91,-149.578 1205.32,-149.874 1207.82,-156.414"/>
</g>
<!-- Node15&#45;&gt;Node5 -->
<g id="edge16" class="edge"><title>Node15&#45;&gt;Node5</title>
<path fill="none" stroke="midnightblue" d="M224.795,-124.933C254.896,-114.553 295.393,-100.589 323.804,-90.7916"/>
<polygon fill="midnightblue" stroke="midnightblue" points="325,-94.0815 333.313,-87.5127 322.718,-87.4639 325,-94.0815"/>
</g>
<!-- Node15&#45;&gt;Node6 -->
<g id="edge17" class="edge"><title>Node15&#45;&gt;Node6</title>
<path fill="none" stroke="midnightblue" d="M253.3,-125.022C323.226,-110.816 421.42,-90.5416 425,-88 443.314,-74.9973 455.267,-51.5099 461.816,-35.1242"/>
<polygon fill="midnightblue" stroke="midnightblue" points="465.165,-36.1567 465.351,-25.5635 458.6,-33.7287 465.165,-36.1567"/>
</g>
<!-- Node15&#45;&gt;Node7 -->
<g id="edge19" class="edge"><title>Node15&#45;&gt;Node7</title>
<path fill="none" stroke="midnightblue" d="M159.121,-124.944C142.684,-115.273 120.945,-101.738 103,-88 80.5847,-70.8392 57.038,-48.3805 41.9759,-33.361"/>
<polygon fill="midnightblue" stroke="midnightblue" points="44.0682,-30.5002 34.5421,-25.863 39.0973,-35.4287 44.0682,-30.5002"/>
</g>
<!-- Node15&#45;&gt;Node8 -->
<g id="edge20" class="edge"><title>Node15&#45;&gt;Node8</title>
<path fill="none" stroke="midnightblue" d="M182.732,-124.777C180.787,-109.559 175.935,-85.281 164,-68 153.167,-52.3149 135.923,-39.5673 121.384,-30.7398"/>
<polygon fill="midnightblue" stroke="midnightblue" points="122.727,-27.4742 112.315,-25.5134 119.232,-33.5391 122.727,-27.4742"/>
</g>
<!-- Node16 -->
<g id="node16" class="node"><title>Node16</title>
<polygon fill="none" stroke="#bfbfbf" points="112.5,-68.5 112.5,-87.5 155.5,-87.5 155.5,-68.5 112.5,-68.5"/>
<text text-anchor="middle" x="134" y="-75.5" font-family="Helvetica,sans-Serif" font-size="10.00">cstdio</text>
</g>
<!-- Node15&#45;&gt;Node16 -->
<g id="edge18" class="edge"><title>Node15&#45;&gt;Node16</title>
<path fill="none" stroke="midnightblue" d="M172.151,-124.781C164.81,-115.972 155.355,-104.626 147.694,-95.4332"/>
<polygon fill="midnightblue" stroke="midnightblue" points="150.366,-93.1721 141.275,-87.7305 144.989,-97.6534 150.366,-93.1721"/>
</g>
<!-- Node17&#45;&gt;Node5 -->
<g id="edge38" class="edge"><title>Node17&#45;&gt;Node5</title>
<path fill="none" stroke="midnightblue" d="M551.62,-130.403C511.762,-119.822 443.981,-101.827 400.112,-90.1802"/>
<polygon fill="midnightblue" stroke="midnightblue" points="400.884,-86.7638 390.32,-87.5806 399.087,-93.5295 400.884,-86.7638"/>
</g>
<!-- Node18 -->
<g id="node18" class="node"><title>Node18</title>
<g id="a_node18"><a xlink:href="../../dc/d03/MemoryResources_8h.html" target="_top" xlink:title="MemoryResources/MemoryResources.h">
<polygon fill="none" stroke="black" points="978.5,-68.5 978.5,-87.5 1171.5,-87.5 1171.5,-68.5 978.5,-68.5"/>
<text text-anchor="middle" x="1075" y="-75.5" font-family="Helvetica,sans-Serif" font-size="10.00">MemoryResources/MemoryResources.h</text>
</a>
</g>
</g>
<!-- Node17&#45;&gt;Node18 -->
<g id="edge23" class="edge"><title>Node17&#45;&gt;Node18</title>
<path fill="none" stroke="midnightblue" d="M611.261,-130.466C619.756,-128.067 629.204,-125.662 638,-124 749.67,-102.896 879.396,-91.1141 968.325,-84.9519"/>
<polygon fill="midnightblue" stroke="midnightblue" points="968.683,-88.4357 978.422,-84.2642 968.207,-81.4519 968.683,-88.4357"/>
</g>
<!-- Node18&#45;&gt;Node9 -->
<g id="edge28" class="edge"><title>Node18&#45;&gt;Node9</title>
<path fill="none" stroke="midnightblue" d="M978.384,-72.5202C852.521,-65.9886 639.621,-52.367 564,-32 561.651,-31.3672 559.261,-30.5706 556.9,-29.6759"/>
<polygon fill="midnightblue" stroke="midnightblue" points="558.102,-26.382 547.535,-25.6161 555.318,-32.8046 558.102,-26.382"/>
</g>
<!-- Node18&#45;&gt;Node12 -->
<g id="edge29" class="edge"><title>Node18&#45;&gt;Node12</title>
<path fill="none" stroke="midnightblue" d="M978.496,-71.6597C866.025,-64.6884 687.359,-51.0857 623,-32 621.084,-31.4319 619.146,-30.7359 617.229,-29.9579"/>
<polygon fill="midnightblue" stroke="midnightblue" points="618.541,-26.707 608.005,-25.5981 615.55,-33.0357 618.541,-26.707"/>
</g>
<!-- Node19 -->
<g id="node19" class="node"><title>Node19</title>
<polygon fill="none" stroke="#bfbfbf" points="962,-1 962,-31 1062,-31 1062,-1 962,-1"/>
<text text-anchor="start" x="970" y="-19" font-family="Helvetica,sans-Serif" font-size="10.00">boost/container/flat</text>
<text text-anchor="middle" x="1012" y="-8" font-family="Helvetica,sans-Serif" font-size="10.00">_map.hpp</text>
</g>
<!-- Node18&#45;&gt;Node19 -->
<g id="edge24" class="edge"><title>Node18&#45;&gt;Node19</title>
<path fill="none" stroke="midnightblue" d="M1065.97,-68.4035C1057.68,-60.5051 1045.05,-48.4768 1034.09,-38.0409"/>
<polygon fill="midnightblue" stroke="midnightblue" points="1036.5,-35.5029 1026.85,-31.1408 1031.68,-40.5719 1036.5,-35.5029"/>
</g>
<!-- Node20 -->
<g id="node20" class="node"><title>Node20</title>
<polygon fill="none" stroke="#bfbfbf" points="1080,-1 1080,-31 1196,-31 1196,-1 1080,-1"/>
<text text-anchor="start" x="1088" y="-19" font-family="Helvetica,sans-Serif" font-size="10.00">boost/container/pmr</text>
<text text-anchor="middle" x="1138" y="-8" font-family="Helvetica,sans-Serif" font-size="10.00">/memory_resource.hpp</text>
</g>
<!-- Node18&#45;&gt;Node20 -->
<g id="edge25" class="edge"><title>Node18&#45;&gt;Node20</title>
<path fill="none" stroke="midnightblue" d="M1084.03,-68.4035C1092.32,-60.5051 1104.95,-48.4768 1115.91,-38.0409"/>
<polygon fill="midnightblue" stroke="midnightblue" points="1118.32,-40.5719 1123.15,-31.1408 1113.5,-35.5029 1118.32,-40.5719"/>
</g>
<!-- Node21 -->
<g id="node21" class="node"><title>Node21</title>
<polygon fill="none" stroke="#bfbfbf" points="1214,-1 1214,-31 1370,-31 1370,-1 1214,-1"/>
<text text-anchor="start" x="1222" y="-19" font-family="Helvetica,sans-Serif" font-size="10.00">boost/container/pmr</text>
<text text-anchor="middle" x="1292" y="-8" font-family="Helvetica,sans-Serif" font-size="10.00">/monotonic_buffer_resource.hpp</text>
</g>
<!-- Node18&#45;&gt;Node21 -->
<g id="edge26" class="edge"><title>Node18&#45;&gt;Node21</title>
<path fill="none" stroke="midnightblue" d="M1106.09,-68.4035C1138.68,-59.393 1190.71,-45.0075 1231.45,-33.7432"/>
<polygon fill="midnightblue" stroke="midnightblue" points="1232.57,-37.0638 1241.28,-31.0253 1230.7,-30.3169 1232.57,-37.0638"/>
</g>
<!-- Node22 -->
<g id="node22" class="node"><title>Node22</title>
<polygon fill="none" stroke="#bfbfbf" points="1388.5,-1 1388.5,-31 1521.5,-31 1521.5,-1 1388.5,-1"/>
<text text-anchor="start" x="1396.5" y="-19" font-family="Helvetica,sans-Serif" font-size="10.00">boost/container/pmr</text>
<text text-anchor="middle" x="1455" y="-8" font-family="Helvetica,sans-Serif" font-size="10.00">/polymorphic_allocator.hpp</text>
</g>
<!-- Node18&#45;&gt;Node22 -->
<g id="edge27" class="edge"><title>Node18&#45;&gt;Node22</title>
<path fill="none" stroke="midnightblue" d="M1138.61,-68.4882C1197.98,-60.3368 1289.3,-47.278 1378.31,-32.0703"/>
<polygon fill="midnightblue" stroke="midnightblue" points="1379.04,-35.4952 1388.31,-30.3511 1377.86,-28.5964 1379.04,-35.4952"/>
</g>
<!-- Node23 -->
<g id="node23" class="node"><title>Node23</title>
<polygon fill="none" stroke="#bfbfbf" points="1540,-6.5 1540,-25.5 1602,-25.5 1602,-6.5 1540,-6.5"/>
<text text-anchor="middle" x="1571" y="-13.5" font-family="Helvetica,sans-Serif" font-size="10.00">type_traits</text>
</g>
<!-- Node18&#45;&gt;Node23 -->
<g id="edge30" class="edge"><title>Node18&#45;&gt;Node23</title>
<path fill="none" stroke="midnightblue" d="M1171.61,-68.751C1294.81,-58.0282 1496.05,-39.7585 1530,-32 1533.69,-31.1568 1537.5,-30.0718 1541.24,-28.8714"/>
<polygon fill="midnightblue" stroke="midnightblue" points="1542.58,-32.1119 1550.87,-25.5113 1540.27,-25.5031 1542.58,-32.1119"/>
</g>
<!-- Node24 -->
<g id="node24" class="node"><title>Node24</title>
<polygon fill="none" stroke="#bfbfbf" points="1620,-6.5 1620,-25.5 1660,-25.5 1660,-6.5 1620,-6.5"/>
<text text-anchor="middle" x="1640" y="-13.5" font-family="Helvetica,sans-Serif" font-size="10.00">utility</text>
</g>
<!-- Node18&#45;&gt;Node24 -->
<g id="edge31" class="edge"><title>Node18&#45;&gt;Node24</title>
<path fill="none" stroke="midnightblue" d="M1171.65,-69.1001C1324.35,-56.5873 1604.78,-33.4658 1610,-32 1611.98,-31.445 1613.98,-30.7585 1615.96,-29.9871"/>
<polygon fill="midnightblue" stroke="midnightblue" points="1617.85,-32.9725 1625.49,-25.6401 1614.94,-26.603 1617.85,-32.9725"/>
</g>
<!-- Node18&#45;&gt;Node25 -->
<g id="edge32" class="edge"><title>Node18&#45;&gt;Node25</title>
<path fill="none" stroke="midnightblue" d="M1171.55,-68.9477C1176.43,-68.6104 1181.27,-68.2919 1186,-68 1374.26,-56.3763 1850.81,-76.9041 2034,-32 2036.5,-31.3865 2039.05,-30.5705 2041.55,-29.6351"/>
<polygon fill="midnightblue" stroke="midnightblue" points="2043.05,-32.8002 2050.83,-25.6106 2040.26,-26.378 2043.05,-32.8002"/>
</g>
<!-- Node26 -->
<g id="node26" class="node"><title>Node26</title>
<polygon fill="none" stroke="#bfbfbf" points="1678.5,-6.5 1678.5,-25.5 1761.5,-25.5 1761.5,-6.5 1678.5,-6.5"/>
<text text-anchor="middle" x="1720" y="-13.5" font-family="Helvetica,sans-Serif" font-size="10.00">unordered_map</text>
</g>
<!-- Node18&#45;&gt;Node26 -->
<g id="edge33" class="edge"><title>Node18&#45;&gt;Node26</title>
<path fill="none" stroke="midnightblue" d="M1171.56,-69.133C1176.44,-68.747 1181.28,-68.3674 1186,-68 1400.61,-51.3016 1457.22,-70.5857 1669,-32 1674.2,-31.0524 1679.63,-29.7778 1684.92,-28.3701"/>
<polygon fill="midnightblue" stroke="midnightblue" points="1686.17,-31.6527 1694.83,-25.5498 1684.26,-24.9199 1686.17,-31.6527"/>
</g>
<!-- Node27 -->
<g id="node27" class="node"><title>Node27</title>
<polygon fill="none" stroke="#bfbfbf" points="1779.5,-6.5 1779.5,-25.5 1876.5,-25.5 1876.5,-6.5 1779.5,-6.5"/>
<text text-anchor="middle" x="1828" y="-13.5" font-family="Helvetica,sans-Serif" font-size="10.00">FairMQMessage.h</text>
</g>
<!-- Node18&#45;&gt;Node27 -->
<g id="edge34" class="edge"><title>Node18&#45;&gt;Node27</title>
<path fill="none" stroke="midnightblue" d="M1171.55,-69.0586C1176.44,-68.6922 1181.28,-68.3371 1186,-68 1445.39,-49.4911 1513.16,-72.7424 1770,-32 1776.34,-30.9948 1782.99,-29.6031 1789.43,-28.0694"/>
<polygon fill="midnightblue" stroke="midnightblue" points="1790.48,-31.416 1799.32,-25.5778 1788.77,-24.6283 1790.48,-31.416"/>
</g>
<!-- Node28 -->
<g id="node28" class="node"><title>Node28</title>
<polygon fill="none" stroke="#bfbfbf" points="1894.5,-6.5 1894.5,-25.5 2025.5,-25.5 2025.5,-6.5 1894.5,-6.5"/>
<text text-anchor="middle" x="1960" y="-13.5" font-family="Helvetica,sans-Serif" font-size="10.00">FairMQTransportFactory.h</text>
</g>
<!-- Node18&#45;&gt;Node28 -->
<g id="edge35" class="edge"><title>Node18&#45;&gt;Node28</title>
<path fill="none" stroke="midnightblue" d="M1171.55,-69C1176.44,-68.649 1181.27,-68.3133 1186,-68 1496.4,-47.4277 1576.33,-70.6065 1885,-32 1894.1,-30.8624 1903.74,-29.2476 1912.97,-27.4957"/>
<polygon fill="midnightblue" stroke="midnightblue" points="1913.66,-30.9285 1922.79,-25.557 1912.3,-24.0612 1913.66,-30.9285"/>
</g>
<!-- Node29 -->
<g id="node29" class="node"><title>Node29</title>
<polygon fill="none" stroke="#bfbfbf" points="632.5,-6.5 632.5,-25.5 769.5,-25.5 769.5,-6.5 632.5,-6.5"/>
<text text-anchor="middle" x="701" y="-13.5" font-family="Helvetica,sans-Serif" font-size="10.00">fairmq/MemoryResources.h</text>
</g>
<!-- Node18&#45;&gt;Node29 -->
<g id="edge36" class="edge"><title>Node18&#45;&gt;Node29</title>
<path fill="none" stroke="midnightblue" d="M1014.23,-68.4705C954.314,-59.8939 860.194,-45.9734 779,-32 770.884,-30.6033 762.31,-29.0419 753.934,-27.4688"/>
<polygon fill="midnightblue" stroke="midnightblue" points="754.335,-23.9826 743.858,-25.5543 753.029,-30.8595 754.335,-23.9826"/>
</g>
<!-- Node30 -->
<g id="node30" class="node"><title>Node30</title>
<polygon fill="none" stroke="#bfbfbf" points="788,-6.5 788,-25.5 944,-25.5 944,-6.5 788,-6.5"/>
<text text-anchor="middle" x="866" y="-13.5" font-family="Helvetica,sans-Serif" font-size="10.00">fairmq/MemoryResourceTools.h</text>
</g>
<!-- Node18&#45;&gt;Node30 -->
<g id="edge37" class="edge"><title>Node18&#45;&gt;Node30</title>
<path fill="none" stroke="midnightblue" d="M1045.06,-68.4035C1008.43,-57.8886 946.305,-40.0539 905.716,-28.4016"/>
<polygon fill="midnightblue" stroke="midnightblue" points="906.467,-24.9759 895.889,-25.5806 904.535,-31.7041 906.467,-24.9759"/>
</g>
</g>
</svg>
