<?xml version="1.0" encoding="UTF-8" standalone="no"?>
<!DOCTYPE svg PUBLIC "-//W3C//DTD SVG 1.1//EN"
 "http://www.w3.org/Graphics/SVG/1.1/DTD/svg11.dtd">
<!-- Generated by graphviz version 2.36.0 (20140111.2315)
 -->
<!-- Title: o2::framework::MessageContext::MessageRef Pages: 1 -->
<svg width="209pt" height="196pt"
 viewBox="0.00 0.00 209.00 196.00" xmlns="http://www.w3.org/2000/svg" xmlns:xlink="http://www.w3.org/1999/xlink">
<g id="graph0" class="graph" transform="scale(1 1) rotate(0) translate(4 192)">
<title>o2::framework::MessageContext::MessageRef</title>
<!-- Node1 -->
<g id="node1" class="node"><title>Node1</title>
<polygon fill="#bfbfbf" stroke="black" points="30.5,-1 30.5,-69 189.5,-69 189.5,-1 30.5,-1"/>
<text text-anchor="start" x="38.5" y="-57" font-family="Helvetica,sans-Serif" font-size="10.00">o2::framework::MessageContext</text>
<text text-anchor="middle" x="110" y="-46" font-family="Helvetica,sans-Serif" font-size="10.00">::MessageRef</text>
<polyline fill="none" stroke="black" points="30.5,-39 189.5,-39 "/>
<text text-anchor="middle" x="110" y="-27" font-family="Helvetica,sans-Serif" font-size="10.00"> </text>
<polyline fill="none" stroke="black" points="30.5,-20 189.5,-20 "/>
<text text-anchor="middle" x="110" y="-8" font-family="Helvetica,sans-Serif" font-size="10.00"> </text>
</g>
<!-- Node2 -->
<g id="node2" class="node"><title>Node2</title>
<polygon fill="none" stroke="#bfbfbf" points="-0.5,-119 -0.5,-187 110.5,-187 110.5,-119 -0.5,-119"/>
<text text-anchor="start" x="7.5" y="-175" font-family="Helvetica,sans-Serif" font-size="10.00">GLsizei const GLchar</text>
<text text-anchor="middle" x="55" y="-164" font-family="Helvetica,sans-Serif" font-size="10.00"> *const *</text>
<polyline fill="none" stroke="#bfbfbf" points="-0.5,-157 110.5,-157 "/>
<text text-anchor="middle" x="55" y="-145" font-family="Helvetica,sans-Serif" font-size="10.00"> </text>
<polyline fill="none" stroke="#bfbfbf" points="-0.5,-138 110.5,-138 "/>
<text text-anchor="middle" x="55" y="-126" font-family="Helvetica,sans-Serif" font-size="10.00"> </text>
</g>
<!-- Node2&#45;&gt;Node1 -->
<g id="edge1" class="edge"><title>Node2&#45;&gt;Node1</title>
<path fill="none" stroke="#404040" d="M70.7608,-118.759C76.4567,-106.746 82.9797,-92.9883 89.0505,-80.1844"/>
<polygon fill="none" stroke="#404040" points="89.0958,-80.0888 88.052,-72.9536 94.2369,-69.2458 95.2807,-76.381 89.0958,-80.0888"/>
<text text-anchor="middle" x="106.5" y="-91.5" font-family="Helvetica,sans-Serif" font-size="10.00"> +channel</text>
</g>
<!-- Node3 -->
<g id="node3" class="node"><title>Node3</title>
<polygon fill="none" stroke="#bfbfbf" points="129,-124.5 129,-181.5 201,-181.5 201,-124.5 129,-124.5"/>
<text text-anchor="middle" x="165" y="-169.5" font-family="Helvetica,sans-Serif" font-size="10.00">FairMQParts</text>
<polyline fill="none" stroke="#bfbfbf" points="129,-162.5 201,-162.5 "/>
<text text-anchor="middle" x="165" y="-150.5" font-family="Helvetica,sans-Serif" font-size="10.00"> </text>
<polyline fill="none" stroke="#bfbfbf" points="129,-143.5 201,-143.5 "/>
<text text-anchor="middle" x="165" y="-131.5" font-family="Helvetica,sans-Serif" font-size="10.00"> </text>
</g>
<!-- Node3&#45;&gt;Node1 -->
<g id="edge2" class="edge"><title>Node3&#45;&gt;Node1</title>
<path fill="none" stroke="#404040" d="M151.826,-124.215C145.596,-111.076 138.006,-95.0663 131.009,-80.3104"/>
<polygon fill="none" stroke="#404040" points="130.949,-80.1822 124.764,-76.4745 125.807,-69.3393 131.992,-73.0471 130.949,-80.1822"/>
<text text-anchor="middle" x="155.5" y="-91.5" font-family="Helvetica,sans-Serif" font-size="10.00"> +parts</text>
</g>
</g>
</svg>
