<?xml version="1.0" encoding="UTF-8" standalone="no"?>
<!DOCTYPE svg PUBLIC "-//W3C//DTD SVG 1.1//EN"
 "http://www.w3.org/Graphics/SVG/1.1/DTD/svg11.dtd">
<!-- Generated by graphviz version 2.36.0 (20140111.2315)
 -->
<!-- Title: /home/travis/build/AliceO2Group/AliceO2/DataFormats/MemoryResources/src/MemoryResources.cxx Pages: 1 -->
<!--zoomable 186 -->
<svg id="main" version="1.1" xmlns="http://www.w3.org/2000/svg" xmlns:xlink="http://www.w3.org/1999/xlink" xml:space="preserve" onload="init(evt)">
<style type="text/css"><![CDATA[
.edge:hover path { stroke: red; }
.edge:hover polygon { stroke: red; fill: red; }
]]></style>
<script type="text/javascript"><![CDATA[
var edges = document.getElementsByTagName('g');
if (edges && edges.length) {
  for (var i=0;i<edges.length;i++) {
    if (edges[i].id.substr(0,4)=='edge') {
      edges[i].setAttribute('class','edge');
    }
  }
}
]]></script>
        <defs>
                <circle id="rim" cx="0" cy="0" r="7"/>
                <circle id="rim2" cx="0" cy="0" r="3.5"/>
                <g id="zoomPlus">
                        <use xlink:href="#rim" fill="#404040">
                                <set attributeName="fill" to="#808080" begin="zoomplus.mouseover" end="zoomplus.mouseout"/>
                        </use>
                        <path d="M-4,0h8M0,-4v8" fill="none" stroke="white" stroke-width="1.5" pointer-events="none"/>
                </g>
                <g id="zoomMin">
                        <use xlink:href="#rim" fill="#404040">
                                <set attributeName="fill" to="#808080" begin="zoomminus.mouseover" end="zoomminus.mouseout"/>
                        </use>
                        <path d="M-4,0h8" fill="none" stroke="white" stroke-width="1.5" pointer-events="none"/>
                </g>
                <g id="dirArrow">
                        <path fill="none" stroke="white" stroke-width="1.5" d="M0,-3.0v7 M-2.5,-0.5L0,-3.0L2.5,-0.5"/>
                </g>
               <g id="resetDef">
                       <use xlink:href="#rim2" fill="#404040">
                               <set attributeName="fill" to="#808080" begin="reset.mouseover" end="reset.mouseout"/>
                       </use>
               </g>
        </defs>

<script type="text/javascript">
var viewWidth = 1587;
var viewHeight = 186;
var sectionId = 'dynsection-0';
</script>
<script xlink:href="../../svgpan.js"/>
<svg id="graph" class="graph">
<g id="viewport">
<title>/home/travis/build/AliceO2Group/AliceO2/DataFormats/MemoryResources/src/MemoryResources.cxx</title>
<!-- Node1 -->
<g id="node1" class="node"><title>Node1</title>
<polygon fill="#bfbfbf" stroke="black" points="686,-125 686,-177 848,-177 848,-125 686,-125"/>
<text text-anchor="start" x="694" y="-165" font-family="Helvetica,sans-Serif" font-size="10.00">/home/travis/build</text>
<text text-anchor="start" x="694" y="-154" font-family="Helvetica,sans-Serif" font-size="10.00">/AliceO2Group/AliceO2</text>
<text text-anchor="start" x="694" y="-143" font-family="Helvetica,sans-Serif" font-size="10.00">/DataFormats/MemoryResources</text>
<text text-anchor="middle" x="767" y="-132" font-family="Helvetica,sans-Serif" font-size="10.00">/src/MemoryResources.cxx</text>
</g>
<!-- Node2 -->
<g id="node2" class="node"><title>Node2</title>
<g id="a_node2"><a xlink:href="../../dc/d03/MemoryResources_8h.html" target="_top" xlink:title="MemoryResources/MemoryResources.h">
<polygon fill="none" stroke="black" points="670.5,-68.5 670.5,-87.5 863.5,-87.5 863.5,-68.5 670.5,-68.5"/>
<text text-anchor="middle" x="767" y="-75.5" font-family="Helvetica,sans-Serif" font-size="10.00">MemoryResources/MemoryResources.h</text>
</a>
</g>
</g>
<!-- Node1&#45;&gt;Node2 -->
<g id="edge1" class="edge"><title>Node1&#45;&gt;Node2</title>
<path fill="none" stroke="midnightblue" d="M767,-124.768C767,-115.89 767,-106.074 767,-97.8165"/>
<polygon fill="midnightblue" stroke="midnightblue" points="770.5,-97.7571 767,-87.7572 763.5,-97.7572 770.5,-97.7571"/>
</g>
<!-- Node3 -->
<g id="node3" class="node"><title>Node3</title>
<polygon fill="none" stroke="#bfbfbf" points="0,-1 0,-31 100,-31 100,-1 0,-1"/>
<text text-anchor="start" x="8" y="-19" font-family="Helvetica,sans-Serif" font-size="10.00">boost/container/flat</text>
<text text-anchor="middle" x="50" y="-8" font-family="Helvetica,sans-Serif" font-size="10.00">_map.hpp</text>
</g>
<!-- Node2&#45;&gt;Node3 -->
<g id="edge2" class="edge"><title>Node2&#45;&gt;Node3</title>
<path fill="none" stroke="midnightblue" d="M670.49,-75.8419C543.77,-73.103 314.405,-63.9531 110.1,-31.978"/>
<polygon fill="midnightblue" stroke="midnightblue" points="110.508,-28.499 100.083,-30.3886 109.411,-35.4125 110.508,-28.499"/>
</g>
<!-- Node4 -->
<g id="node4" class="node"><title>Node4</title>
<polygon fill="none" stroke="#bfbfbf" points="118,-1 118,-31 234,-31 234,-1 118,-1"/>
<text text-anchor="start" x="126" y="-19" font-family="Helvetica,sans-Serif" font-size="10.00">boost/container/pmr</text>
<text text-anchor="middle" x="176" y="-8" font-family="Helvetica,sans-Serif" font-size="10.00">/memory_resource.hpp</text>
</g>
<!-- Node2&#45;&gt;Node4 -->
<g id="edge3" class="edge"><title>Node2&#45;&gt;Node4</title>
<path fill="none" stroke="midnightblue" d="M670.44,-72.6078C567.217,-67.0258 398.654,-55.3651 244.168,-32.0428"/>
<polygon fill="midnightblue" stroke="midnightblue" points="244.428,-28.5419 234.014,-30.4897 243.37,-35.4615 244.428,-28.5419"/>
</g>
<!-- Node5 -->
<g id="node5" class="node"><title>Node5</title>
<polygon fill="none" stroke="#bfbfbf" points="252,-1 252,-31 408,-31 408,-1 252,-1"/>
<text text-anchor="start" x="260" y="-19" font-family="Helvetica,sans-Serif" font-size="10.00">boost/container/pmr</text>
<text text-anchor="middle" x="330" y="-8" font-family="Helvetica,sans-Serif" font-size="10.00">/monotonic_buffer_resource.hpp</text>
</g>
<!-- Node2&#45;&gt;Node5 -->
<g id="edge4" class="edge"><title>Node2&#45;&gt;Node5</title>
<path fill="none" stroke="midnightblue" d="M693.467,-68.475C624.841,-60.3065 519.334,-47.2079 418.305,-32.1602"/>
<polygon fill="midnightblue" stroke="midnightblue" points="418.637,-28.671 408.229,-30.6506 417.6,-35.5937 418.637,-28.671"/>
</g>
<!-- Node6 -->
<g id="node6" class="node"><title>Node6</title>
<polygon fill="none" stroke="#bfbfbf" points="426.5,-1 426.5,-31 559.5,-31 559.5,-1 426.5,-1"/>
<text text-anchor="start" x="434.5" y="-19" font-family="Helvetica,sans-Serif" font-size="10.00">boost/container/pmr</text>
<text text-anchor="middle" x="493" y="-8" font-family="Helvetica,sans-Serif" font-size="10.00">/polymorphic_allocator.hpp</text>
</g>
<!-- Node2&#45;&gt;Node6 -->
<g id="edge5" class="edge"><title>Node2&#45;&gt;Node6</title>
<path fill="none" stroke="midnightblue" d="M728.033,-68.4672C686.254,-59.3184 618.932,-44.5763 567.025,-33.2097"/>
<polygon fill="midnightblue" stroke="midnightblue" points="567.709,-29.7767 557.191,-31.0565 566.211,-36.6147 567.709,-29.7767"/>
</g>
<!-- Node7 -->
<g id="node7" class="node"><title>Node7</title>
<polygon fill="none" stroke="#bfbfbf" points="578,-6.5 578,-25.5 624,-25.5 624,-6.5 578,-6.5"/>
<text text-anchor="middle" x="601" y="-13.5" font-family="Helvetica,sans-Serif" font-size="10.00">cstring</text>
</g>
<!-- Node2&#45;&gt;Node7 -->
<g id="edge6" class="edge"><title>Node2&#45;&gt;Node7</title>
<path fill="none" stroke="midnightblue" d="M738.425,-68.4461C711.06,-60.0106 668.764,-46.3327 633,-32 631.355,-31.3409 629.675,-30.6397 627.987,-29.9142"/>
<polygon fill="midnightblue" stroke="midnightblue" points="629.002,-26.5326 618.446,-25.6184 626.128,-32.9155 629.002,-26.5326"/>
</g>
<!-- Node8 -->
<g id="node8" class="node"><title>Node8</title>
<polygon fill="none" stroke="#bfbfbf" points="642.5,-6.5 642.5,-25.5 683.5,-25.5 683.5,-6.5 642.5,-6.5"/>
<text text-anchor="middle" x="663" y="-13.5" font-family="Helvetica,sans-Serif" font-size="10.00">string</text>
</g>
<!-- Node2&#45;&gt;Node8 -->
<g id="edge7" class="edge"><title>Node2&#45;&gt;Node8</title>
<path fill="none" stroke="midnightblue" d="M752.099,-68.4035C735.032,-58.5569 706.839,-42.2915 686.738,-30.6949"/>
<polygon fill="midnightblue" stroke="midnightblue" points="688.284,-27.5462 677.873,-25.5806 684.786,-33.6095 688.284,-27.5462"/>
</g>
<!-- Node9 -->
<g id="node9" class="node"><title>Node9</title>
<polygon fill="none" stroke="#bfbfbf" points="702,-6.5 702,-25.5 764,-25.5 764,-6.5 702,-6.5"/>
<text text-anchor="middle" x="733" y="-13.5" font-family="Helvetica,sans-Serif" font-size="10.00">type_traits</text>
</g>
<!-- Node2&#45;&gt;Node9 -->
<g id="edge8" class="edge"><title>Node2&#45;&gt;Node9</title>
<path fill="none" stroke="midnightblue" d="M762.129,-68.4035C757.13,-59.5816 749.211,-45.6075 742.891,-34.4548"/>
<polygon fill="midnightblue" stroke="midnightblue" points="745.838,-32.5553 737.862,-25.5806 739.747,-36.0064 745.838,-32.5553"/>
</g>
<!-- Node10 -->
<g id="node10" class="node"><title>Node10</title>
<polygon fill="none" stroke="#bfbfbf" points="782,-6.5 782,-25.5 822,-25.5 822,-6.5 782,-6.5"/>
<text text-anchor="middle" x="802" y="-13.5" font-family="Helvetica,sans-Serif" font-size="10.00">utility</text>
</g>
<!-- Node2&#45;&gt;Node10 -->
<g id="edge9" class="edge"><title>Node2&#45;&gt;Node10</title>
<path fill="none" stroke="midnightblue" d="M772.015,-68.4035C777.161,-59.5816 785.312,-45.6075 791.818,-34.4548"/>
<polygon fill="midnightblue" stroke="midnightblue" points="794.979,-35.982 796.995,-25.5806 788.933,-32.4548 794.979,-35.982"/>
</g>
<!-- Node11 -->
<g id="node11" class="node"><title>Node11</title>
<polygon fill="none" stroke="#bfbfbf" points="840,-6.5 840,-25.5 884,-25.5 884,-6.5 840,-6.5"/>
<text text-anchor="middle" x="862" y="-13.5" font-family="Helvetica,sans-Serif" font-size="10.00">vector</text>
</g>
<!-- Node2&#45;&gt;Node11 -->
<g id="edge10" class="edge"><title>Node2&#45;&gt;Node11</title>
<path fill="none" stroke="midnightblue" d="M780.611,-68.4035C796.061,-58.646 821.49,-42.5854 839.816,-31.0109"/>
<polygon fill="midnightblue" stroke="midnightblue" points="841.828,-33.8798 848.414,-25.5806 838.09,-27.9613 841.828,-33.8798"/>
</g>
<!-- Node12 -->
<g id="node12" class="node"><title>Node12</title>
<polygon fill="none" stroke="#bfbfbf" points="902.5,-6.5 902.5,-25.5 985.5,-25.5 985.5,-6.5 902.5,-6.5"/>
<text text-anchor="middle" x="944" y="-13.5" font-family="Helvetica,sans-Serif" font-size="10.00">unordered_map</text>
</g>
<!-- Node2&#45;&gt;Node12 -->
<g id="edge11" class="edge"><title>Node2&#45;&gt;Node12</title>
<path fill="none" stroke="midnightblue" d="M792.36,-68.4035C822.984,-58.0222 874.657,-40.5062 909.046,-28.849"/>
<polygon fill="midnightblue" stroke="midnightblue" points="910.34,-32.1058 918.687,-25.5806 908.093,-25.4763 910.34,-32.1058"/>
</g>
<!-- Node13 -->
<g id="node13" class="node"><title>Node13</title>
<polygon fill="none" stroke="#bfbfbf" points="1003.5,-6.5 1003.5,-25.5 1100.5,-25.5 1100.5,-6.5 1003.5,-6.5"/>
<text text-anchor="middle" x="1052" y="-13.5" font-family="Helvetica,sans-Serif" font-size="10.00">FairMQMessage.h</text>
</g>
<!-- Node2&#45;&gt;Node13 -->
<g id="edge12" class="edge"><title>Node2&#45;&gt;Node13</title>
<path fill="none" stroke="midnightblue" d="M814.12,-68.4751C860.148,-59.9557 932.112,-46.1247 994,-32 999.387,-30.7705 1005.04,-29.4054 1010.61,-28.0138"/>
<polygon fill="midnightblue" stroke="midnightblue" points="1011.64,-31.3611 1020.47,-25.504 1009.92,-24.5771 1011.64,-31.3611"/>
</g>
<!-- Node14 -->
<g id="node14" class="node"><title>Node14</title>
<polygon fill="none" stroke="#bfbfbf" points="1118.5,-6.5 1118.5,-25.5 1249.5,-25.5 1249.5,-6.5 1118.5,-6.5"/>
<text text-anchor="middle" x="1184" y="-13.5" font-family="Helvetica,sans-Serif" font-size="10.00">FairMQTransportFactory.h</text>
</g>
<!-- Node2&#45;&gt;Node14 -->
<g id="edge13" class="edge"><title>Node2&#45;&gt;Node14</title>
<path fill="none" stroke="midnightblue" d="M842.944,-68.4768C912.391,-60.3343 1017.87,-47.0919 1109,-32 1117.1,-30.6582 1125.67,-29.0891 1134,-27.481"/>
<polygon fill="midnightblue" stroke="midnightblue" points="1134.86,-30.8781 1144,-25.5127 1133.51,-24.0099 1134.86,-30.8781"/>
</g>
<!-- Node15 -->
<g id="node15" class="node"><title>Node15</title>
<polygon fill="none" stroke="#bfbfbf" points="1267.5,-6.5 1267.5,-25.5 1404.5,-25.5 1404.5,-6.5 1267.5,-6.5"/>
<text text-anchor="middle" x="1336" y="-13.5" font-family="Helvetica,sans-Serif" font-size="10.00">fairmq/MemoryResources.h</text>
</g>
<!-- Node2&#45;&gt;Node15 -->
<g id="edge14" class="edge"><title>Node2&#45;&gt;Node15</title>
<path fill="none" stroke="midnightblue" d="M863.753,-70.9605C963.017,-64.102 1121.76,-51.2957 1258,-32 1267.02,-30.7219 1276.59,-29.104 1285.81,-27.4068"/>
<polygon fill="midnightblue" stroke="midnightblue" points="1286.47,-30.8445 1295.64,-25.5464 1285.17,-23.9666 1286.47,-30.8445"/>
</g>
<!-- Node16 -->
<g id="node16" class="node"><title>Node16</title>
<polygon fill="none" stroke="#bfbfbf" points="1423,-6.5 1423,-25.5 1579,-25.5 1579,-6.5 1423,-6.5"/>
<text text-anchor="middle" x="1501" y="-13.5" font-family="Helvetica,sans-Serif" font-size="10.00">fairmq/MemoryResourceTools.h</text>
</g>
<!-- Node2&#45;&gt;Node16 -->
<g id="edge15" class="edge"><title>Node2&#45;&gt;Node16</title>
<path fill="none" stroke="midnightblue" d="M863.594,-73.2664C990.135,-67.6902 1218.77,-55.2605 1413,-32 1423.61,-30.7292 1434.89,-29.0545 1445.71,-27.2858"/>
<polygon fill="midnightblue" stroke="midnightblue" points="1446.62,-30.6815 1455.9,-25.5714 1445.46,-23.7785 1446.62,-30.6815"/>
</g>
</g>
</svg>
        <g id="navigator" transform="translate(0 0)" fill="#404254">
                <rect fill="#f2f5e9" fill-opacity="0.5" stroke="#606060" stroke-width=".5" x="0" y="0" width="60" height="60"/>
                <use id="zoomplus" xlink:href="#zoomPlus" x="17" y="9" onmousedown="handleZoom(evt,'in')"/>
                <use id="zoomminus" xlink:href="#zoomMin" x="42" y="9" onmousedown="handleZoom(evt,'out')"/>
                <use id="reset" xlink:href="#resetDef" x="30" y="36" onmousedown="handleReset()"/>
                <g id="arrowUp" xlink:href="#dirArrow" transform="translate(30 24)" onmousedown="handlePan(0,-1)">
                  <use xlink:href="#rim" fill="#404040">
                        <set attributeName="fill" to="#808080" begin="arrowUp.mouseover" end="arrowUp.mouseout"/>
                  </use>
                  <path fill="none" stroke="white" stroke-width="1.5" d="M0,-3.0v7 M-2.5,-0.5L0,-3.0L2.5,-0.5"/>
                </g>
                <g id="arrowRight" xlink:href="#dirArrow" transform="rotate(90) translate(36 -43)" onmousedown="handlePan(1,0)">
                  <use xlink:href="#rim" fill="#404040">
                        <set attributeName="fill" to="#808080" begin="arrowRight.mouseover" end="arrowRight.mouseout"/>
                  </use>
                  <path fill="none" stroke="white" stroke-width="1.5" d="M0,-3.0v7 M-2.5,-0.5L0,-3.0L2.5,-0.5"/>
                </g>
                <g id="arrowDown" xlink:href="#dirArrow" transform="rotate(180) translate(-30 -48)" onmousedown="handlePan(0,1)">
                  <use xlink:href="#rim" fill="#404040">
                        <set attributeName="fill" to="#808080" begin="arrowDown.mouseover" end="arrowDown.mouseout"/>
                  </use>
                  <path fill="none" stroke="white" stroke-width="1.5" d="M0,-3.0v7 M-2.5,-0.5L0,-3.0L2.5,-0.5"/>
                </g>
                <g id="arrowLeft" xlink:href="#dirArrow" transform="rotate(270) translate(-36 17)" onmousedown="handlePan(-1,0)">
                  <use xlink:href="#rim" fill="#404040">
                        <set attributeName="fill" to="#808080" begin="arrowLeft.mouseover" end="arrowLeft.mouseout"/>
                  </use>
                  <path fill="none" stroke="white" stroke-width="1.5" d="M0,-3.0v7 M-2.5,-0.5L0,-3.0L2.5,-0.5"/>
                </g>
        </g>
        <svg viewBox="0 0 15 15" width="100%" height="30px" preserveAspectRatio="xMaxYMin meet">
         <g id="arrow_out" transform="scale(0.3 0.3)">
          <a xlink:href="MemoryResources_8cxx__incl_org.svg" target="_base">
           <rect id="button" ry="5" rx="5" y="6" x="6" height="38" width="38"
                fill="#f2f5e9" fill-opacity="0.5" stroke="#606060" stroke-width="1.0"/>
           <path id="arrow"
             d="M 11.500037,31.436501 C 11.940474,20.09759 22.043105,11.32322 32.158766,21.979434 L 37.068811,17.246167 C 37.068811,17.246167 37.088388,32 37.088388,32 L 22.160133,31.978069 C 22.160133,31.978069 26.997745,27.140456 26.997745,27.140456 C 18.528582,18.264221 13.291696,25.230495 11.500037,31.436501 z"
             style="fill:#404040;"/>
          </a>
         </g>
        </svg>
</svg>
