<?xml version="1.0" encoding="UTF-8" standalone="no"?>
<!DOCTYPE svg PUBLIC "-//W3C//DTD SVG 1.1//EN"
 "http://www.w3.org/Graphics/SVG/1.1/DTD/svg11.dtd">
<!-- Generated by graphviz version 2.36.0 (20140111.2315)
 -->
<!-- Title: /home/travis/build/AliceO2Group/AliceO2/Framework/Core/test/benchmark_TableBuilder.cxx Pages: 1 -->
<svg width="800pt" height="174pt"
 viewBox="0.00 0.00 800.00 174.00" xmlns="http://www.w3.org/2000/svg" xmlns:xlink="http://www.w3.org/1999/xlink">
<g id="graph0" class="graph" transform="scale(1 1) rotate(0) translate(4 170)">
<title>/home/travis/build/AliceO2Group/AliceO2/Framework/Core/test/benchmark_TableBuilder.cxx</title>
<!-- Node1 -->
<g id="node1" class="node"><title>Node1</title>
<polygon fill="#bfbfbf" stroke="black" points="495.5,-113 495.5,-165 658.5,-165 658.5,-113 495.5,-113"/>
<text text-anchor="start" x="503.5" y="-153" font-family="Helvetica,sans-Serif" font-size="10.00">/home/travis/build</text>
<text text-anchor="start" x="503.5" y="-142" font-family="Helvetica,sans-Serif" font-size="10.00">/AliceO2Group/AliceO2</text>
<text text-anchor="start" x="503.5" y="-131" font-family="Helvetica,sans-Serif" font-size="10.00">/Framework/Core/test/benchmark</text>
<text text-anchor="middle" x="577" y="-120" font-family="Helvetica,sans-Serif" font-size="10.00">_TableBuilder.cxx</text>
</g>
<!-- Node2 -->
<g id="node2" class="node"><title>Node2</title>
<g id="a_node2"><a xlink:href="../../d5/d98/TableBuilder_8h.html" target="_top" xlink:title="Framework/TableBuilder.h">
<polygon fill="none" stroke="black" points="342.5,-56.5 342.5,-75.5 473.5,-75.5 473.5,-56.5 342.5,-56.5"/>
<text text-anchor="middle" x="408" y="-63.5" font-family="Helvetica,sans-Serif" font-size="10.00">Framework/TableBuilder.h</text>
</a>
</g>
</g>
<!-- Node1&#45;&gt;Node2 -->
<g id="edge1" class="edge"><title>Node1&#45;&gt;Node2</title>
<path fill="none" stroke="midnightblue" d="M517.417,-112.968C490.551,-101.681 459.995,-88.8441 438.015,-79.6097"/>
<polygon fill="midnightblue" stroke="midnightblue" points="439.138,-76.2854 428.563,-75.6389 436.427,-82.739 439.138,-76.2854"/>
</g>
<!-- Node11 -->
<g id="node11" class="node"><title>Node11</title>
<g id="a_node11"><a xlink:href="../../dc/d03/TableConsumer_8h.html" target="_top" xlink:title="Framework/TableConsumer.h">
<polygon fill="none" stroke="black" points="504,-56.5 504,-75.5 650,-75.5 650,-56.5 504,-56.5"/>
<text text-anchor="middle" x="577" y="-63.5" font-family="Helvetica,sans-Serif" font-size="10.00">Framework/TableConsumer.h</text>
</a>
</g>
</g>
<!-- Node1&#45;&gt;Node11 -->
<g id="edge10" class="edge"><title>Node1&#45;&gt;Node11</title>
<path fill="none" stroke="midnightblue" d="M577,-112.768C577,-103.89 577,-94.0737 577,-85.8165"/>
<polygon fill="midnightblue" stroke="midnightblue" points="580.5,-85.7571 577,-75.7572 573.5,-85.7572 580.5,-85.7571"/>
</g>
<!-- Node12 -->
<g id="node12" class="node"><title>Node12</title>
<polygon fill="none" stroke="#bfbfbf" points="668,-56.5 668,-75.5 792,-75.5 792,-56.5 668,-56.5"/>
<text text-anchor="middle" x="730" y="-63.5" font-family="Helvetica,sans-Serif" font-size="10.00">benchmark/benchmark.h</text>
</g>
<!-- Node1&#45;&gt;Node12 -->
<g id="edge12" class="edge"><title>Node1&#45;&gt;Node12</title>
<path fill="none" stroke="midnightblue" d="M630.942,-112.968C655.045,-101.783 682.429,-89.0753 702.287,-79.8601"/>
<polygon fill="midnightblue" stroke="midnightblue" points="703.786,-83.0231 711.384,-75.6389 700.84,-76.6735 703.786,-83.0231"/>
</g>
<!-- Node3 -->
<g id="node3" class="node"><title>Node3</title>
<polygon fill="none" stroke="#bfbfbf" points="0,-0.5 0,-19.5 62,-19.5 62,-0.5 0,-0.5"/>
<text text-anchor="middle" x="31" y="-7.5" font-family="Helvetica,sans-Serif" font-size="10.00">arrow/stl.h</text>
</g>
<!-- Node2&#45;&gt;Node3 -->
<g id="edge2" class="edge"><title>Node2&#45;&gt;Node3</title>
<path fill="none" stroke="midnightblue" d="M342.499,-57.9941C276.594,-50.5512 171.856,-37.6529 72.3148,-20.1069"/>
<polygon fill="midnightblue" stroke="midnightblue" points="72.8485,-16.6469 62.3896,-18.3386 71.6207,-23.5384 72.8485,-16.6469"/>
</g>
<!-- Node4 -->
<g id="node4" class="node"><title>Node4</title>
<polygon fill="none" stroke="#bfbfbf" points="80,-0.5 80,-19.5 178,-19.5 178,-0.5 80,-0.5"/>
<text text-anchor="middle" x="129" y="-7.5" font-family="Helvetica,sans-Serif" font-size="10.00">arrow/type_traits.h</text>
</g>
<!-- Node2&#45;&gt;Node4 -->
<g id="edge3" class="edge"><title>Node2&#45;&gt;Node4</title>
<path fill="none" stroke="midnightblue" d="M363.792,-56.4435C314.713,-46.9444 235.49,-31.611 182.836,-21.4198"/>
<polygon fill="midnightblue" stroke="midnightblue" points="183.484,-17.9805 173.002,-19.5164 182.154,-24.853 183.484,-17.9805"/>
</g>
<!-- Node5 -->
<g id="node5" class="node"><title>Node5</title>
<polygon fill="none" stroke="#bfbfbf" points="196.5,-0.5 196.5,-19.5 269.5,-19.5 269.5,-0.5 196.5,-0.5"/>
<text text-anchor="middle" x="233" y="-7.5" font-family="Helvetica,sans-Serif" font-size="10.00">arrow/table.h</text>
</g>
<!-- Node2&#45;&gt;Node5 -->
<g id="edge4" class="edge"><title>Node2&#45;&gt;Node5</title>
<path fill="none" stroke="midnightblue" d="M380.271,-56.4435C350.574,-47.2801 303.284,-32.6876 270.331,-22.5192"/>
<polygon fill="midnightblue" stroke="midnightblue" points="271.187,-19.1206 260.6,-19.5164 269.123,-25.8094 271.187,-19.1206"/>
</g>
<!-- Node6 -->
<g id="node6" class="node"><title>Node6</title>
<polygon fill="none" stroke="#bfbfbf" points="288,-0.5 288,-19.5 368,-19.5 368,-0.5 288,-0.5"/>
<text text-anchor="middle" x="328" y="-7.5" font-family="Helvetica,sans-Serif" font-size="10.00">arrow/builder.h</text>
</g>
<!-- Node2&#45;&gt;Node6 -->
<g id="edge5" class="edge"><title>Node2&#45;&gt;Node6</title>
<path fill="none" stroke="midnightblue" d="M395.147,-56.324C382.784,-47.979 363.87,-35.2122 349.263,-25.3524"/>
<polygon fill="midnightblue" stroke="midnightblue" points="351.068,-22.3483 340.821,-19.6545 347.152,-28.1503 351.068,-22.3483"/>
</g>
<!-- Node7 -->
<g id="node7" class="node"><title>Node7</title>
<polygon fill="none" stroke="#bfbfbf" points="386,-0.5 386,-19.5 430,-19.5 430,-0.5 386,-0.5"/>
<text text-anchor="middle" x="408" y="-7.5" font-family="Helvetica,sans-Serif" font-size="10.00">vector</text>
</g>
<!-- Node2&#45;&gt;Node7 -->
<g id="edge6" class="edge"><title>Node2&#45;&gt;Node7</title>
<path fill="none" stroke="midnightblue" d="M408,-56.083C408,-49.0059 408,-38.8611 408,-29.9865"/>
<polygon fill="midnightblue" stroke="midnightblue" points="411.5,-29.751 408,-19.7511 404.5,-29.7511 411.5,-29.751"/>
</g>
<!-- Node8 -->
<g id="node8" class="node"><title>Node8</title>
<polygon fill="none" stroke="#bfbfbf" points="448.5,-0.5 448.5,-19.5 489.5,-19.5 489.5,-0.5 448.5,-0.5"/>
<text text-anchor="middle" x="469" y="-7.5" font-family="Helvetica,sans-Serif" font-size="10.00">string</text>
</g>
<!-- Node2&#45;&gt;Node8 -->
<g id="edge7" class="edge"><title>Node2&#45;&gt;Node8</title>
<path fill="none" stroke="midnightblue" d="M417.801,-56.324C426.818,-48.3414 440.406,-36.3128 451.318,-26.6529"/>
<polygon fill="midnightblue" stroke="midnightblue" points="453.853,-29.083 459.021,-19.8339 449.213,-23.8416 453.853,-29.083"/>
</g>
<!-- Node9 -->
<g id="node9" class="node"><title>Node9</title>
<polygon fill="none" stroke="#bfbfbf" points="564,-0.5 564,-19.5 616,-19.5 616,-0.5 564,-0.5"/>
<text text-anchor="middle" x="590" y="-7.5" font-family="Helvetica,sans-Serif" font-size="10.00">memory</text>
</g>
<!-- Node2&#45;&gt;Node9 -->
<g id="edge8" class="edge"><title>Node2&#45;&gt;Node9</title>
<path fill="none" stroke="midnightblue" d="M436.838,-56.4435C468.677,-46.997 519.961,-31.7807 554.309,-21.5897"/>
<polygon fill="midnightblue" stroke="midnightblue" points="555.359,-24.929 563.95,-18.729 553.368,-18.2182 555.359,-24.929"/>
</g>
<!-- Node10 -->
<g id="node10" class="node"><title>Node10</title>
<polygon fill="none" stroke="#bfbfbf" points="508,-0.5 508,-19.5 546,-19.5 546,-0.5 508,-0.5"/>
<text text-anchor="middle" x="527" y="-7.5" font-family="Helvetica,sans-Serif" font-size="10.00">tuple</text>
</g>
<!-- Node2&#45;&gt;Node10 -->
<g id="edge9" class="edge"><title>Node2&#45;&gt;Node10</title>
<path fill="none" stroke="midnightblue" d="M426.856,-56.4435C446.266,-47.6356 476.73,-33.8116 498.965,-23.722"/>
<polygon fill="midnightblue" stroke="midnightblue" points="500.572,-26.836 508.232,-19.5164 497.68,-20.4615 500.572,-26.836"/>
</g>
<!-- Node11&#45;&gt;Node9 -->
<g id="edge11" class="edge"><title>Node11&#45;&gt;Node9</title>
<path fill="none" stroke="midnightblue" d="M579.147,-56.083C580.869,-48.9272 583.347,-38.6353 585.5,-29.6911"/>
<polygon fill="midnightblue" stroke="midnightblue" points="588.955,-30.2925 587.893,-19.7511 582.15,-28.6541 588.955,-30.2925"/>
</g>
</g>
</svg>
