<?xml version="1.0" encoding="UTF-8" standalone="no"?>
<!DOCTYPE svg PUBLIC "-//W3C//DTD SVG 1.1//EN"
 "http://www.w3.org/Graphics/SVG/1.1/DTD/svg11.dtd">
<!-- Generated by graphviz version 2.36.0 (20140111.2315)
 -->
<!-- Title: /home/travis/build/AliceO2Group/AliceO2/Framework/Core/src/DataDescriptorMatcher.cxx Pages: 1 -->
<svg width="2096pt" height="322pt"
 viewBox="0.00 0.00 2096.00 322.00" xmlns="http://www.w3.org/2000/svg" xmlns:xlink="http://www.w3.org/1999/xlink">
<g id="graph0" class="graph" transform="scale(1 1) rotate(0) translate(4 318)">
<title>/home/travis/build/AliceO2Group/AliceO2/Framework/Core/src/DataDescriptorMatcher.cxx</title>
<!-- Node1 -->
<g id="node1" class="node"><title>Node1</title>
<polygon fill="#bfbfbf" stroke="black" points="482,-261 482,-313 660,-313 660,-261 482,-261"/>
<text text-anchor="start" x="490" y="-301" font-family="Helvetica,sans-Serif" font-size="10.00">/home/travis/build</text>
<text text-anchor="start" x="490" y="-290" font-family="Helvetica,sans-Serif" font-size="10.00">/AliceO2Group/AliceO2</text>
<text text-anchor="start" x="490" y="-279" font-family="Helvetica,sans-Serif" font-size="10.00">/Framework/Core/src/DataDescriptor</text>
<text text-anchor="middle" x="571" y="-268" font-family="Helvetica,sans-Serif" font-size="10.00">Matcher.cxx</text>
</g>
<!-- Node2 -->
<g id="node2" class="node"><title>Node2</title>
<g id="a_node2"><a xlink:href="../../d3/da3/DataDescriptorMatcher_8h.html" target="_top" xlink:title="Framework/DataDescriptor\lMatcher.h">
<polygon fill="none" stroke="black" points="504,-193 504,-223 638,-223 638,-193 504,-193"/>
<text text-anchor="start" x="512" y="-211" font-family="Helvetica,sans-Serif" font-size="10.00">Framework/DataDescriptor</text>
<text text-anchor="middle" x="571" y="-200" font-family="Helvetica,sans-Serif" font-size="10.00">Matcher.h</text>
</a>
</g>
</g>
<!-- Node1&#45;&gt;Node2 -->
<g id="edge1" class="edge"><title>Node1&#45;&gt;Node2</title>
<path fill="none" stroke="midnightblue" d="M571,-260.787C571,-252.029 571,-242.225 571,-233.523"/>
<polygon fill="midnightblue" stroke="midnightblue" points="574.5,-233.252 571,-223.252 567.5,-233.252 574.5,-233.252"/>
</g>
<!-- Node13 -->
<g id="node13" class="node"><title>Node13</title>
<g id="a_node13"><a xlink:href="../../d6/dc9/DataProcessingHeader_8h.html" target="_top" xlink:title="Framework/DataProcessing\lHeader.h">
<polygon fill="none" stroke="black" points="139,-125 139,-155 277,-155 277,-125 139,-125"/>
<text text-anchor="start" x="147" y="-143" font-family="Helvetica,sans-Serif" font-size="10.00">Framework/DataProcessing</text>
<text text-anchor="middle" x="208" y="-132" font-family="Helvetica,sans-Serif" font-size="10.00">Header.h</text>
</a>
</g>
</g>
<!-- Node1&#45;&gt;Node13 -->
<g id="edge42" class="edge"><title>Node1&#45;&gt;Node13</title>
<path fill="none" stroke="midnightblue" d="M508.185,-260.908C435.226,-231.765 316.705,-184.422 252.591,-158.812"/>
<polygon fill="midnightblue" stroke="midnightblue" points="253.745,-155.504 243.16,-155.045 251.149,-162.005 253.745,-155.504"/>
</g>
<!-- Node32 -->
<g id="node32" class="node"><title>Node32</title>
<polygon fill="none" stroke="#bfbfbf" points="656,-198.5 656,-217.5 710,-217.5 710,-198.5 656,-198.5"/>
<text text-anchor="middle" x="683" y="-205.5" font-family="Helvetica,sans-Serif" font-size="10.00">iostream</text>
</g>
<!-- Node1&#45;&gt;Node32 -->
<g id="edge43" class="edge"><title>Node1&#45;&gt;Node32</title>
<path fill="none" stroke="midnightblue" d="M607.673,-260.787C625.805,-248.321 647.019,-233.737 662.305,-223.228"/>
<polygon fill="midnightblue" stroke="midnightblue" points="664.295,-226.107 670.552,-217.558 660.329,-220.339 664.295,-226.107"/>
</g>
<!-- Node3 -->
<g id="node3" class="node"><title>Node3</title>
<g id="a_node3"><a xlink:href="../../d0/d1b/ConcreteDataMatcher_8h.html" target="_top" xlink:title="Framework/ConcreteDataMatcher.h">
<polygon fill="none" stroke="black" points="334.5,-130.5 334.5,-149.5 507.5,-149.5 507.5,-130.5 334.5,-130.5"/>
<text text-anchor="middle" x="421" y="-137.5" font-family="Helvetica,sans-Serif" font-size="10.00">Framework/ConcreteDataMatcher.h</text>
</a>
</g>
</g>
<!-- Node2&#45;&gt;Node3 -->
<g id="edge2" class="edge"><title>Node2&#45;&gt;Node3</title>
<path fill="none" stroke="midnightblue" d="M538.821,-192.841C512.527,-181.272 475.672,-165.055 450.215,-153.855"/>
<polygon fill="midnightblue" stroke="midnightblue" points="451.294,-150.506 440.732,-149.682 448.475,-156.913 451.294,-150.506"/>
</g>
<!-- Node4 -->
<g id="node4" class="node"><title>Node4</title>
<g id="a_node4"><a xlink:href="../../dc/dcd/DataHeader_8h.html" target="_top" xlink:title="Headers/DataHeader.h">
<polygon fill="none" stroke="black" points="247.5,-68.5 247.5,-87.5 364.5,-87.5 364.5,-68.5 247.5,-68.5"/>
<text text-anchor="middle" x="306" y="-75.5" font-family="Helvetica,sans-Serif" font-size="10.00">Headers/DataHeader.h</text>
</a>
</g>
</g>
<!-- Node2&#45;&gt;Node4 -->
<g id="edge18" class="edge"><title>Node2&#45;&gt;Node4</title>
<path fill="none" stroke="midnightblue" d="M503.766,-201.075C439.942,-194.077 350.131,-180.206 325,-156 309.381,-140.956 305.789,-115.277 305.337,-97.7444"/>
<polygon fill="midnightblue" stroke="midnightblue" points="308.838,-97.6137 305.399,-87.5926 301.838,-97.5711 308.838,-97.6137"/>
</g>
<!-- Node5 -->
<g id="node5" class="node"><title>Node5</title>
<polygon fill="none" stroke="#bfbfbf" points="0,-6.5 0,-25.5 46,-25.5 46,-6.5 0,-6.5"/>
<text text-anchor="middle" x="23" y="-13.5" font-family="Helvetica,sans-Serif" font-size="10.00">cstdint</text>
</g>
<!-- Node2&#45;&gt;Node5 -->
<g id="edge37" class="edge"><title>Node2&#45;&gt;Node5</title>
<path fill="none" stroke="midnightblue" d="M503.674,-205.55C396.367,-202.198 192.299,-191.253 130,-156 79.9934,-127.703 45.5775,-65.6153 30.9336,-34.9145"/>
<polygon fill="midnightblue" stroke="midnightblue" points="34.0969,-33.4161 26.7314,-25.8003 27.74,-36.347 34.0969,-33.4161"/>
</g>
<!-- Node11 -->
<g id="node11" class="node"><title>Node11</title>
<polygon fill="none" stroke="#bfbfbf" points="573.5,-6.5 573.5,-25.5 614.5,-25.5 614.5,-6.5 573.5,-6.5"/>
<text text-anchor="middle" x="594" y="-13.5" font-family="Helvetica,sans-Serif" font-size="10.00">string</text>
</g>
<!-- Node2&#45;&gt;Node11 -->
<g id="edge39" class="edge"><title>Node2&#45;&gt;Node11</title>
<path fill="none" stroke="midnightblue" d="M593.1,-192.868C604.966,-183.908 618.466,-171.158 625,-156 642.869,-114.545 619.482,-61.519 604.597,-34.5128"/>
<polygon fill="midnightblue" stroke="midnightblue" points="607.61,-32.7323 599.59,-25.81 601.543,-36.2232 607.61,-32.7323"/>
</g>
<!-- Node2&#45;&gt;Node13 -->
<g id="edge12" class="edge"><title>Node2&#45;&gt;Node13</title>
<path fill="none" stroke="midnightblue" d="M503.997,-194.818C442.744,-183.681 352.085,-167.197 287.255,-155.41"/>
<polygon fill="midnightblue" stroke="midnightblue" points="287.546,-151.906 277.081,-153.56 286.294,-158.793 287.546,-151.906"/>
</g>
<!-- Node15 -->
<g id="node15" class="node"><title>Node15</title>
<g id="a_node15"><a xlink:href="../../d4/d00/Headers_2include_2Headers_2Stack_8h.html" target="_top" xlink:title="Headers/Stack.h">
<polygon fill="none" stroke="black" points="526,-130.5 526,-149.5 616,-149.5 616,-130.5 526,-130.5"/>
<text text-anchor="middle" x="571" y="-137.5" font-family="Helvetica,sans-Serif" font-size="10.00">Headers/Stack.h</text>
</a>
</g>
</g>
<!-- Node2&#45;&gt;Node15 -->
<g id="edge19" class="edge"><title>Node2&#45;&gt;Node15</title>
<path fill="none" stroke="midnightblue" d="M571,-192.679C571,-183.101 571,-170.394 571,-159.977"/>
<polygon fill="midnightblue" stroke="midnightblue" points="574.5,-159.828 571,-149.828 567.5,-159.828 574.5,-159.828"/>
</g>
<!-- Node23 -->
<g id="node23" class="node"><title>Node23</title>
<polygon fill="none" stroke="#bfbfbf" points="2044,-6.5 2044,-25.5 2088,-25.5 2088,-6.5 2044,-6.5"/>
<text text-anchor="middle" x="2066" y="-13.5" font-family="Helvetica,sans-Serif" font-size="10.00">vector</text>
</g>
<!-- Node2&#45;&gt;Node23 -->
<g id="edge41" class="edge"><title>Node2&#45;&gt;Node23</title>
<path fill="none" stroke="midnightblue" d="M617.103,-192.967C680.921,-174.128 800.081,-141.06 904,-124 1401.67,-42.2983 1548.4,-164.532 2035,-32 2037.2,-31.4 2039.44,-30.6452 2041.65,-29.7952"/>
<polygon fill="midnightblue" stroke="midnightblue" points="2043.27,-32.9049 2050.98,-25.6437 2040.42,-26.5088 2043.27,-32.9049"/>
</g>
<!-- Node29 -->
<g id="node29" class="node"><title>Node29</title>
<polygon fill="none" stroke="#bfbfbf" points="913,-130.5 913,-149.5 951,-149.5 951,-130.5 913,-130.5"/>
<text text-anchor="middle" x="932" y="-137.5" font-family="Helvetica,sans-Serif" font-size="10.00">array</text>
</g>
<!-- Node2&#45;&gt;Node29 -->
<g id="edge36" class="edge"><title>Node2&#45;&gt;Node29</title>
<path fill="none" stroke="midnightblue" d="M638.101,-193.556C641.106,-193.017 644.083,-192.496 647,-192 758.537,-173.04 790.403,-187.729 899,-156 901.345,-155.315 903.737,-154.493 906.108,-153.591"/>
<polygon fill="midnightblue" stroke="midnightblue" points="907.725,-156.707 915.565,-149.581 904.992,-150.263 907.725,-156.707"/>
</g>
<!-- Node30 -->
<g id="node30" class="node"><title>Node30</title>
<polygon fill="none" stroke="#bfbfbf" points="969.5,-130.5 969.5,-149.5 1014.5,-149.5 1014.5,-130.5 969.5,-130.5"/>
<text text-anchor="middle" x="992" y="-137.5" font-family="Helvetica,sans-Serif" font-size="10.00">iosfwd</text>
</g>
<!-- Node2&#45;&gt;Node30 -->
<g id="edge38" class="edge"><title>Node2&#45;&gt;Node30</title>
<path fill="none" stroke="midnightblue" d="M638.085,-193.456C641.094,-192.944 644.077,-192.456 647,-192 785.356,-170.426 825.288,-194.216 960,-156 962.341,-155.336 964.724,-154.518 967.081,-153.609"/>
<polygon fill="midnightblue" stroke="midnightblue" points="968.674,-156.733 976.441,-149.527 965.875,-150.316 968.674,-156.733"/>
</g>
<!-- Node31 -->
<g id="node31" class="node"><title>Node31</title>
<polygon fill="none" stroke="#bfbfbf" points="1033,-130.5 1033,-149.5 1079,-149.5 1079,-130.5 1033,-130.5"/>
<text text-anchor="middle" x="1056" y="-137.5" font-family="Helvetica,sans-Serif" font-size="10.00">variant</text>
</g>
<!-- Node2&#45;&gt;Node31 -->
<g id="edge40" class="edge"><title>Node2&#45;&gt;Node31</title>
<path fill="none" stroke="midnightblue" d="M638.074,-193.386C641.087,-192.893 644.072,-192.428 647,-192 813.11,-167.717 860.812,-199.326 1023,-156 1025.5,-155.332 1028.05,-154.492 1030.57,-153.551"/>
<polygon fill="midnightblue" stroke="midnightblue" points="1032.1,-156.703 1039.95,-149.584 1029.37,-150.256 1032.1,-156.703"/>
</g>
<!-- Node3&#45;&gt;Node4 -->
<g id="edge3" class="edge"><title>Node3&#45;&gt;Node4</title>
<path fill="none" stroke="midnightblue" d="M404.523,-130.403C385.395,-120.423 353.627,-103.849 331.348,-92.2253"/>
<polygon fill="midnightblue" stroke="midnightblue" points="332.931,-89.1033 322.446,-87.5806 329.693,-95.3094 332.931,-89.1033"/>
</g>
<!-- Node4&#45;&gt;Node5 -->
<g id="edge4" class="edge"><title>Node4&#45;&gt;Node5</title>
<path fill="none" stroke="midnightblue" d="M248.575,-68.4836C186.021,-58.8915 90.1756,-43.1851 55,-32 52.8621,-31.3202 50.6822,-30.5286 48.5158,-29.671"/>
<polygon fill="midnightblue" stroke="midnightblue" points="49.8422,-26.4311 39.2776,-25.631 47.0374,-32.8446 49.8422,-26.4311"/>
</g>
<!-- Node6 -->
<g id="node6" class="node"><title>Node6</title>
<polygon fill="none" stroke="#bfbfbf" points="64,-6.5 64,-25.5 116,-25.5 116,-6.5 64,-6.5"/>
<text text-anchor="middle" x="90" y="-13.5" font-family="Helvetica,sans-Serif" font-size="10.00">memory</text>
</g>
<!-- Node4&#45;&gt;Node6 -->
<g id="edge5" class="edge"><title>Node4&#45;&gt;Node6</title>
<path fill="none" stroke="midnightblue" d="M263.387,-68.4403C226.353,-60.5211 171.499,-47.6308 125,-32 122.587,-31.189 120.109,-30.2827 117.639,-29.3281"/>
<polygon fill="midnightblue" stroke="midnightblue" points="118.892,-26.0591 108.312,-25.5063 116.238,-32.5365 118.892,-26.0591"/>
</g>
<!-- Node7 -->
<g id="node7" class="node"><title>Node7</title>
<polygon fill="none" stroke="#bfbfbf" points="134.5,-6.5 134.5,-25.5 183.5,-25.5 183.5,-6.5 134.5,-6.5"/>
<text text-anchor="middle" x="159" y="-13.5" font-family="Helvetica,sans-Serif" font-size="10.00">cassert</text>
</g>
<!-- Node4&#45;&gt;Node7 -->
<g id="edge6" class="edge"><title>Node4&#45;&gt;Node7</title>
<path fill="none" stroke="midnightblue" d="M283.817,-68.4422C260.962,-59.5602 224.35,-45.1526 193,-32 191.171,-31.2325 189.29,-30.4329 187.397,-29.6201"/>
<polygon fill="midnightblue" stroke="midnightblue" points="188.574,-26.3153 178.008,-25.5323 185.78,-32.7334 188.574,-26.3153"/>
</g>
<!-- Node8 -->
<g id="node8" class="node"><title>Node8</title>
<polygon fill="none" stroke="#bfbfbf" points="509,-6.5 509,-25.5 555,-25.5 555,-6.5 509,-6.5"/>
<text text-anchor="middle" x="532" y="-13.5" font-family="Helvetica,sans-Serif" font-size="10.00">cstring</text>
</g>
<!-- Node4&#45;&gt;Node8 -->
<g id="edge7" class="edge"><title>Node4&#45;&gt;Node8</title>
<path fill="none" stroke="midnightblue" d="M354.327,-68.4853C393.818,-60.875 450.792,-48.3967 499,-32 501.13,-31.2755 503.309,-30.4609 505.481,-29.5954"/>
<polygon fill="midnightblue" stroke="midnightblue" points="506.984,-32.7591 514.791,-25.5972 504.222,-26.327 506.984,-32.7591"/>
</g>
<!-- Node9 -->
<g id="node9" class="node"><title>Node9</title>
<polygon fill="none" stroke="#bfbfbf" points="202,-6.5 202,-25.5 258,-25.5 258,-6.5 202,-6.5"/>
<text text-anchor="middle" x="230" y="-13.5" font-family="Helvetica,sans-Serif" font-size="10.00">algorithm</text>
</g>
<!-- Node4&#45;&gt;Node9 -->
<g id="edge8" class="edge"><title>Node4&#45;&gt;Node9</title>
<path fill="none" stroke="midnightblue" d="M295.111,-68.4035C283.034,-58.8688 263.333,-43.3154 248.76,-31.8106"/>
<polygon fill="midnightblue" stroke="midnightblue" points="250.886,-29.03 240.869,-25.5806 246.549,-34.5242 250.886,-29.03"/>
</g>
<!-- Node10 -->
<g id="node10" class="node"><title>Node10</title>
<polygon fill="none" stroke="#bfbfbf" points="276.5,-6.5 276.5,-25.5 335.5,-25.5 335.5,-6.5 276.5,-6.5"/>
<text text-anchor="middle" x="306" y="-13.5" font-family="Helvetica,sans-Serif" font-size="10.00">stdexcept</text>
</g>
<!-- Node4&#45;&gt;Node10 -->
<g id="edge9" class="edge"><title>Node4&#45;&gt;Node10</title>
<path fill="none" stroke="midnightblue" d="M306,-68.4035C306,-59.9381 306,-46.7283 306,-35.8199"/>
<polygon fill="midnightblue" stroke="midnightblue" points="309.5,-35.5806 306,-25.5806 302.5,-35.5806 309.5,-35.5806"/>
</g>
<!-- Node4&#45;&gt;Node11 -->
<g id="edge10" class="edge"><title>Node4&#45;&gt;Node11</title>
<path fill="none" stroke="midnightblue" d="M364.562,-71.6932C417.638,-65.7393 497.494,-53.9041 564,-32 565.908,-31.3715 567.847,-30.6401 569.773,-29.8447"/>
<polygon fill="midnightblue" stroke="midnightblue" points="571.504,-32.9 579.104,-25.5173 568.559,-26.5497 571.504,-32.9"/>
</g>
<!-- Node12 -->
<g id="node12" class="node"><title>Node12</title>
<g id="a_node12"><a xlink:href="../../d7/df8/Types_8h.html" target="_top" xlink:title="MemoryResources/Types.h">
<polygon fill="none" stroke="black" points="353.5,-6.5 353.5,-25.5 490.5,-25.5 490.5,-6.5 353.5,-6.5"/>
<text text-anchor="middle" x="422" y="-13.5" font-family="Helvetica,sans-Serif" font-size="10.00">MemoryResources/Types.h</text>
</a>
</g>
</g>
<!-- Node4&#45;&gt;Node12 -->
<g id="edge11" class="edge"><title>Node4&#45;&gt;Node12</title>
<path fill="none" stroke="midnightblue" d="M322.62,-68.4035C341.915,-58.4232 373.959,-41.8487 396.431,-30.2253"/>
<polygon fill="midnightblue" stroke="midnightblue" points="398.137,-33.2836 405.411,-25.5806 394.921,-27.0661 398.137,-33.2836"/>
</g>
<!-- Node13&#45;&gt;Node4 -->
<g id="edge13" class="edge"><title>Node13&#45;&gt;Node4</title>
<path fill="none" stroke="midnightblue" d="M231.225,-124.781C247.028,-115.105 267.832,-102.368 283.483,-92.7861"/>
<polygon fill="midnightblue" stroke="midnightblue" points="285.325,-95.7623 292.026,-87.5557 281.67,-89.7923 285.325,-95.7623"/>
</g>
<!-- Node13&#45;&gt;Node5 -->
<g id="edge14" class="edge"><title>Node13&#45;&gt;Node5</title>
<path fill="none" stroke="midnightblue" d="M186.416,-124.766C150.893,-101.34 80.4968,-54.9168 44.8198,-31.3893"/>
<polygon fill="midnightblue" stroke="midnightblue" points="46.4118,-28.2466 36.1368,-25.6632 42.5581,-34.0904 46.4118,-28.2466"/>
</g>
<!-- Node13&#45;&gt;Node6 -->
<g id="edge16" class="edge"><title>Node13&#45;&gt;Node6</title>
<path fill="none" stroke="midnightblue" d="M194,-124.526C171.732,-101.503 128.407,-56.7085 105.33,-32.8498"/>
<polygon fill="midnightblue" stroke="midnightblue" points="107.808,-30.3775 98.3401,-25.6228 102.777,-35.2441 107.808,-30.3775"/>
</g>
<!-- Node13&#45;&gt;Node7 -->
<g id="edge17" class="edge"><title>Node13&#45;&gt;Node7</title>
<path fill="none" stroke="midnightblue" d="M197.839,-124.887C191.108,-114.975 182.532,-101.186 177,-88 169.858,-70.975 165.027,-50.4242 162.183,-35.8228"/>
<polygon fill="midnightblue" stroke="midnightblue" points="165.552,-34.7837 160.323,-25.5694 158.664,-36.0337 165.552,-34.7837"/>
</g>
<!-- Node14 -->
<g id="node14" class="node"><title>Node14</title>
<polygon fill="none" stroke="#bfbfbf" points="186.5,-68.5 186.5,-87.5 229.5,-87.5 229.5,-68.5 186.5,-68.5"/>
<text text-anchor="middle" x="208" y="-75.5" font-family="Helvetica,sans-Serif" font-size="10.00">cstdio</text>
</g>
<!-- Node13&#45;&gt;Node14 -->
<g id="edge15" class="edge"><title>Node13&#45;&gt;Node14</title>
<path fill="none" stroke="midnightblue" d="M208,-124.781C208,-116.781 208,-106.689 208,-98.0168"/>
<polygon fill="midnightblue" stroke="midnightblue" points="211.5,-97.7305 208,-87.7305 204.5,-97.7306 211.5,-97.7305"/>
</g>
<!-- Node15&#45;&gt;Node4 -->
<g id="edge35" class="edge"><title>Node15&#45;&gt;Node4</title>
<path fill="none" stroke="midnightblue" d="M540.819,-130.447C532.777,-128.256 524.078,-125.965 516,-124 462.839,-111.065 401.626,-98.1741 359.057,-89.5262"/>
<polygon fill="midnightblue" stroke="midnightblue" points="359.688,-86.083 349.193,-87.5303 358.3,-92.944 359.688,-86.083"/>
</g>
<!-- Node16 -->
<g id="node16" class="node"><title>Node16</title>
<g id="a_node16"><a xlink:href="../../dc/d03/MemoryResources_8h.html" target="_top" xlink:title="MemoryResources/MemoryResources.h">
<polygon fill="none" stroke="black" points="947.5,-68.5 947.5,-87.5 1140.5,-87.5 1140.5,-68.5 947.5,-68.5"/>
<text text-anchor="middle" x="1044" y="-75.5" font-family="Helvetica,sans-Serif" font-size="10.00">MemoryResources/MemoryResources.h</text>
</a>
</g>
</g>
<!-- Node15&#45;&gt;Node16 -->
<g id="edge20" class="edge"><title>Node15&#45;&gt;Node16</title>
<path fill="none" stroke="midnightblue" d="M616.353,-133.247C697.278,-122.982 867.387,-101.403 966.943,-88.7746"/>
<polygon fill="midnightblue" stroke="midnightblue" points="967.464,-92.2367 976.944,-87.506 966.583,-85.2923 967.464,-92.2367"/>
</g>
<!-- Node16&#45;&gt;Node8 -->
<g id="edge25" class="edge"><title>Node16&#45;&gt;Node8</title>
<path fill="none" stroke="midnightblue" d="M947.096,-77.6158C848.894,-75.9991 693.413,-67.2465 564,-32 561.652,-31.3606 559.264,-30.5594 556.904,-29.6618"/>
<polygon fill="midnightblue" stroke="midnightblue" points="558.107,-26.3681 547.54,-25.5972 555.319,-32.7894 558.107,-26.3681"/>
</g>
<!-- Node16&#45;&gt;Node11 -->
<g id="edge26" class="edge"><title>Node16&#45;&gt;Node11</title>
<path fill="none" stroke="midnightblue" d="M947.453,-76.3521C861.083,-73.5074 731.845,-63.6184 624,-32 622.03,-31.4225 620.034,-30.7197 618.056,-29.9369"/>
<polygon fill="midnightblue" stroke="midnightblue" points="619.075,-26.5535 608.526,-25.5679 616.158,-32.9168 619.075,-26.5535"/>
</g>
<!-- Node17 -->
<g id="node17" class="node"><title>Node17</title>
<polygon fill="none" stroke="#bfbfbf" points="633,-1 633,-31 733,-31 733,-1 633,-1"/>
<text text-anchor="start" x="641" y="-19" font-family="Helvetica,sans-Serif" font-size="10.00">boost/container/flat</text>
<text text-anchor="middle" x="683" y="-8" font-family="Helvetica,sans-Serif" font-size="10.00">_map.hpp</text>
</g>
<!-- Node16&#45;&gt;Node17 -->
<g id="edge21" class="edge"><title>Node16&#45;&gt;Node17</title>
<path fill="none" stroke="midnightblue" d="M972.865,-68.4631C913.783,-60.9002 827.36,-48.7494 743.126,-32.1102"/>
<polygon fill="midnightblue" stroke="midnightblue" points="743.625,-28.6407 733.133,-30.1126 742.253,-35.5049 743.625,-28.6407"/>
</g>
<!-- Node18 -->
<g id="node18" class="node"><title>Node18</title>
<polygon fill="none" stroke="#bfbfbf" points="751,-1 751,-31 867,-31 867,-1 751,-1"/>
<text text-anchor="start" x="759" y="-19" font-family="Helvetica,sans-Serif" font-size="10.00">boost/container/pmr</text>
<text text-anchor="middle" x="809" y="-8" font-family="Helvetica,sans-Serif" font-size="10.00">/memory_resource.hpp</text>
</g>
<!-- Node16&#45;&gt;Node18 -->
<g id="edge22" class="edge"><title>Node16&#45;&gt;Node18</title>
<path fill="none" stroke="midnightblue" d="M1010.33,-68.4035C974.815,-59.3358 917.98,-44.8248 873.74,-33.5292"/>
<polygon fill="midnightblue" stroke="midnightblue" points="874.488,-30.108 863.932,-31.0253 872.756,-36.8904 874.488,-30.108"/>
</g>
<!-- Node19 -->
<g id="node19" class="node"><title>Node19</title>
<polygon fill="none" stroke="#bfbfbf" points="885,-1 885,-31 1041,-31 1041,-1 885,-1"/>
<text text-anchor="start" x="893" y="-19" font-family="Helvetica,sans-Serif" font-size="10.00">boost/container/pmr</text>
<text text-anchor="middle" x="963" y="-8" font-family="Helvetica,sans-Serif" font-size="10.00">/monotonic_buffer_resource.hpp</text>
</g>
<!-- Node16&#45;&gt;Node19 -->
<g id="edge23" class="edge"><title>Node16&#45;&gt;Node19</title>
<path fill="none" stroke="midnightblue" d="M1032.39,-68.4035C1021.42,-60.2773 1004.55,-47.7794 990.192,-37.1419"/>
<polygon fill="midnightblue" stroke="midnightblue" points="992.209,-34.2807 982.09,-31.1408 988.042,-39.9056 992.209,-34.2807"/>
</g>
<!-- Node20 -->
<g id="node20" class="node"><title>Node20</title>
<polygon fill="none" stroke="#bfbfbf" points="1059.5,-1 1059.5,-31 1192.5,-31 1192.5,-1 1059.5,-1"/>
<text text-anchor="start" x="1067.5" y="-19" font-family="Helvetica,sans-Serif" font-size="10.00">boost/container/pmr</text>
<text text-anchor="middle" x="1126" y="-8" font-family="Helvetica,sans-Serif" font-size="10.00">/polymorphic_allocator.hpp</text>
</g>
<!-- Node16&#45;&gt;Node20 -->
<g id="edge24" class="edge"><title>Node16&#45;&gt;Node20</title>
<path fill="none" stroke="midnightblue" d="M1055.75,-68.4035C1066.85,-60.2773 1083.93,-47.7794 1098.47,-37.1419"/>
<polygon fill="midnightblue" stroke="midnightblue" points="1100.67,-39.8706 1106.67,-31.1408 1096.54,-34.2213 1100.67,-39.8706"/>
</g>
<!-- Node21 -->
<g id="node21" class="node"><title>Node21</title>
<polygon fill="none" stroke="#bfbfbf" points="1211,-6.5 1211,-25.5 1273,-25.5 1273,-6.5 1211,-6.5"/>
<text text-anchor="middle" x="1242" y="-13.5" font-family="Helvetica,sans-Serif" font-size="10.00">type_traits</text>
</g>
<!-- Node16&#45;&gt;Node21 -->
<g id="edge27" class="edge"><title>Node16&#45;&gt;Node21</title>
<path fill="none" stroke="midnightblue" d="M1076.38,-68.4476C1108.27,-59.8539 1158.27,-45.9209 1201,-32 1203.93,-31.0448 1206.97,-30.0142 1210,-28.9565"/>
<polygon fill="midnightblue" stroke="midnightblue" points="1211.31,-32.2067 1219.54,-25.5441 1208.95,-25.6153 1211.31,-32.2067"/>
</g>
<!-- Node22 -->
<g id="node22" class="node"><title>Node22</title>
<polygon fill="none" stroke="#bfbfbf" points="1291,-6.5 1291,-25.5 1331,-25.5 1331,-6.5 1291,-6.5"/>
<text text-anchor="middle" x="1311" y="-13.5" font-family="Helvetica,sans-Serif" font-size="10.00">utility</text>
</g>
<!-- Node16&#45;&gt;Node22 -->
<g id="edge28" class="edge"><title>Node16&#45;&gt;Node22</title>
<path fill="none" stroke="midnightblue" d="M1116.89,-68.4666C1164.45,-61.6129 1227.43,-50.088 1281,-32 1282.86,-31.3713 1284.75,-30.6476 1286.64,-29.865"/>
<polygon fill="midnightblue" stroke="midnightblue" points="1288.18,-33.0079 1295.78,-25.6268 1285.24,-26.657 1288.18,-33.0079"/>
</g>
<!-- Node16&#45;&gt;Node23 -->
<g id="edge29" class="edge"><title>Node16&#45;&gt;Node23</title>
<path fill="none" stroke="midnightblue" d="M1140.55,-68.9387C1145.43,-68.6038 1150.27,-68.2883 1155,-68 1350.36,-56.089 1845.16,-79.6198 2035,-32 2037.35,-31.4108 2039.73,-30.6327 2042.08,-29.7401"/>
<polygon fill="midnightblue" stroke="midnightblue" points="2043.62,-32.8829 2051.33,-25.6174 2040.77,-26.4883 2043.62,-32.8829"/>
</g>
<!-- Node24 -->
<g id="node24" class="node"><title>Node24</title>
<polygon fill="none" stroke="#bfbfbf" points="1349.5,-6.5 1349.5,-25.5 1432.5,-25.5 1432.5,-6.5 1349.5,-6.5"/>
<text text-anchor="middle" x="1391" y="-13.5" font-family="Helvetica,sans-Serif" font-size="10.00">unordered_map</text>
</g>
<!-- Node16&#45;&gt;Node24 -->
<g id="edge30" class="edge"><title>Node16&#45;&gt;Node24</title>
<path fill="none" stroke="midnightblue" d="M1118.72,-68.4795C1178.88,-60.9397 1265.41,-48.5601 1340,-32 1344.76,-30.943 1349.73,-29.6832 1354.62,-28.3495"/>
<polygon fill="midnightblue" stroke="midnightblue" points="1355.79,-31.6559 1364.44,-25.549 1353.87,-24.9239 1355.79,-31.6559"/>
</g>
<!-- Node25 -->
<g id="node25" class="node"><title>Node25</title>
<polygon fill="none" stroke="#bfbfbf" points="1450.5,-6.5 1450.5,-25.5 1547.5,-25.5 1547.5,-6.5 1450.5,-6.5"/>
<text text-anchor="middle" x="1499" y="-13.5" font-family="Helvetica,sans-Serif" font-size="10.00">FairMQMessage.h</text>
</g>
<!-- Node16&#45;&gt;Node25 -->
<g id="edge31" class="edge"><title>Node16&#45;&gt;Node25</title>
<path fill="none" stroke="midnightblue" d="M1132.17,-68.4618C1230.64,-58.6686 1383.71,-42.6018 1441,-32 1446.96,-30.8968 1453.22,-29.5181 1459.32,-28.0467"/>
<polygon fill="midnightblue" stroke="midnightblue" points="1460.53,-31.3511 1469.37,-25.5152 1458.82,-24.563 1460.53,-31.3511"/>
</g>
<!-- Node26 -->
<g id="node26" class="node"><title>Node26</title>
<polygon fill="none" stroke="#bfbfbf" points="1565.5,-6.5 1565.5,-25.5 1696.5,-25.5 1696.5,-6.5 1565.5,-6.5"/>
<text text-anchor="middle" x="1631" y="-13.5" font-family="Helvetica,sans-Serif" font-size="10.00">FairMQTransportFactory.h</text>
</g>
<!-- Node16&#45;&gt;Node26 -->
<g id="edge32" class="edge"><title>Node16&#45;&gt;Node26</title>
<path fill="none" stroke="midnightblue" d="M1140.65,-69.0825C1277.63,-57.7725 1516.11,-37.7236 1556,-32 1564.69,-30.7529 1573.89,-29.1494 1582.77,-27.4568"/>
<polygon fill="midnightblue" stroke="midnightblue" points="1583.46,-30.8871 1592.6,-25.5222 1582.11,-24.0188 1583.46,-30.8871"/>
</g>
<!-- Node27 -->
<g id="node27" class="node"><title>Node27</title>
<polygon fill="none" stroke="#bfbfbf" points="1714.5,-6.5 1714.5,-25.5 1851.5,-25.5 1851.5,-6.5 1714.5,-6.5"/>
<text text-anchor="middle" x="1783" y="-13.5" font-family="Helvetica,sans-Serif" font-size="10.00">fairmq/MemoryResources.h</text>
</g>
<!-- Node16&#45;&gt;Node27 -->
<g id="edge33" class="edge"><title>Node16&#45;&gt;Node27</title>
<path fill="none" stroke="midnightblue" d="M1140.55,-69.0806C1145.44,-68.7084 1150.28,-68.3461 1155,-68 1399.31,-50.1008 1462.03,-63.1913 1705,-32 1714.34,-30.8008 1724.25,-29.1739 1733.76,-27.4328"/>
<polygon fill="midnightblue" stroke="midnightblue" points="1734.7,-30.8164 1743.87,-25.5135 1733.4,-23.9392 1734.7,-30.8164"/>
</g>
<!-- Node28 -->
<g id="node28" class="node"><title>Node28</title>
<polygon fill="none" stroke="#bfbfbf" points="1870,-6.5 1870,-25.5 2026,-25.5 2026,-6.5 1870,-6.5"/>
<text text-anchor="middle" x="1948" y="-13.5" font-family="Helvetica,sans-Serif" font-size="10.00">fairmq/MemoryResourceTools.h</text>
</g>
<!-- Node16&#45;&gt;Node28 -->
<g id="edge34" class="edge"><title>Node16&#45;&gt;Node28</title>
<path fill="none" stroke="midnightblue" d="M1140.55,-68.9975C1145.43,-68.6471 1150.27,-68.3122 1155,-68 1468.06,-47.32 1548.15,-66.4188 1860,-32 1870.97,-30.7894 1882.64,-29.0918 1893.78,-27.2718"/>
<polygon fill="midnightblue" stroke="midnightblue" points="1894.55,-30.6921 1903.83,-25.5764 1893.38,-23.7897 1894.55,-30.6921"/>
</g>
</g>
</svg>
