<?xml version="1.0" encoding="UTF-8" standalone="no"?>
<!DOCTYPE svg PUBLIC "-//W3C//DTD SVG 1.1//EN"
 "http://www.w3.org/Graphics/SVG/1.1/DTD/svg11.dtd">
<!-- Generated by graphviz version 2.36.0 (20140111.2315)
 -->
<!-- Title: /home/travis/build/AliceO2Group/AliceO2/Utilities/Publishers/src/DataPublisherDevice.cxx Pages: 1 -->
<!--zoomable 422 -->
<svg id="main" version="1.1" xmlns="http://www.w3.org/2000/svg" xmlns:xlink="http://www.w3.org/1999/xlink" xml:space="preserve" onload="init(evt)">
<style type="text/css"><![CDATA[
.edge:hover path { stroke: red; }
.edge:hover polygon { stroke: red; fill: red; }
]]></style>
<script type="text/javascript"><![CDATA[
var edges = document.getElementsByTagName('g');
if (edges && edges.length) {
  for (var i=0;i<edges.length;i++) {
    if (edges[i].id.substr(0,4)=='edge') {
      edges[i].setAttribute('class','edge');
    }
  }
}
]]></script>
        <defs>
                <circle id="rim" cx="0" cy="0" r="7"/>
                <circle id="rim2" cx="0" cy="0" r="3.5"/>
                <g id="zoomPlus">
                        <use xlink:href="#rim" fill="#404040">
                                <set attributeName="fill" to="#808080" begin="zoomplus.mouseover" end="zoomplus.mouseout"/>
                        </use>
                        <path d="M-4,0h8M0,-4v8" fill="none" stroke="white" stroke-width="1.5" pointer-events="none"/>
                </g>
                <g id="zoomMin">
                        <use xlink:href="#rim" fill="#404040">
                                <set attributeName="fill" to="#808080" begin="zoomminus.mouseover" end="zoomminus.mouseout"/>
                        </use>
                        <path d="M-4,0h8" fill="none" stroke="white" stroke-width="1.5" pointer-events="none"/>
                </g>
                <g id="dirArrow">
                        <path fill="none" stroke="white" stroke-width="1.5" d="M0,-3.0v7 M-2.5,-0.5L0,-3.0L2.5,-0.5"/>
                </g>
               <g id="resetDef">
                       <use xlink:href="#rim2" fill="#404040">
                               <set attributeName="fill" to="#808080" begin="reset.mouseover" end="reset.mouseout"/>
                       </use>
               </g>
        </defs>

<script type="text/javascript">
var viewWidth = 2097;
var viewHeight = 422;
var sectionId = 'dynsection-0';
</script>
<script xlink:href="../../svgpan.js"/>
<svg id="graph" class="graph">
<g id="viewport">
<title>/home/travis/build/AliceO2Group/AliceO2/Utilities/Publishers/src/DataPublisherDevice.cxx</title>
<!-- Node1 -->
<g id="node1" class="node"><title>Node1</title>
<polygon fill="#bfbfbf" stroke="black" points="1639.5,-361 1639.5,-413 1786.5,-413 1786.5,-361 1639.5,-361"/>
<text text-anchor="start" x="1647.5" y="-401" font-family="Helvetica,sans-Serif" font-size="10.00">/home/travis/build</text>
<text text-anchor="start" x="1647.5" y="-390" font-family="Helvetica,sans-Serif" font-size="10.00">/AliceO2Group/AliceO2</text>
<text text-anchor="start" x="1647.5" y="-379" font-family="Helvetica,sans-Serif" font-size="10.00">/Utilities/Publishers</text>
<text text-anchor="middle" x="1713" y="-368" font-family="Helvetica,sans-Serif" font-size="10.00">/src/DataPublisherDevice.cxx</text>
</g>
<!-- Node2 -->
<g id="node2" class="node"><title>Node2</title>
<g id="a_node2"><a xlink:href="../../d8/d9b/DataPublisherDevice_8h.html" target="_top" xlink:title="Utility device for data publishing. ">
<polygon fill="none" stroke="black" points="1649.5,-293 1649.5,-323 1776.5,-323 1776.5,-293 1649.5,-293"/>
<text text-anchor="start" x="1657.5" y="-311" font-family="Helvetica,sans-Serif" font-size="10.00">Publishers/DataPublisher</text>
<text text-anchor="middle" x="1713" y="-300" font-family="Helvetica,sans-Serif" font-size="10.00">Device.h</text>
</a>
</g>
</g>
<!-- Node1&#45;&gt;Node2 -->
<g id="edge1" class="edge"><title>Node1&#45;&gt;Node2</title>
<path fill="none" stroke="midnightblue" d="M1713,-360.787C1713,-352.029 1713,-342.225 1713,-333.523"/>
<polygon fill="midnightblue" stroke="midnightblue" points="1716.5,-333.252 1713,-323.252 1709.5,-333.252 1716.5,-333.252"/>
</g>
<!-- Node3 -->
<g id="node3" class="node"><title>Node3</title>
<g id="a_node3"><a xlink:href="../../dc/dcd/DataHeader_8h.html" target="_top" xlink:title="Headers/DataHeader.h">
<polygon fill="none" stroke="black" points="1573.5,-68.5 1573.5,-87.5 1690.5,-87.5 1690.5,-68.5 1573.5,-68.5"/>
<text text-anchor="middle" x="1632" y="-75.5" font-family="Helvetica,sans-Serif" font-size="10.00">Headers/DataHeader.h</text>
</a>
</g>
</g>
<!-- Node1&#45;&gt;Node3 -->
<g id="edge45" class="edge"><title>Node1&#45;&gt;Node3</title>
<path fill="none" stroke="midnightblue" d="M1674.46,-360.74C1661.81,-350.691 1648.75,-338.138 1640,-324 1621.45,-294.029 1621,-282.249 1621,-247 1621,-247 1621,-247 1621,-189 1621,-156.788 1625.73,-119.532 1628.98,-97.692"/>
<polygon fill="midnightblue" stroke="midnightblue" points="1632.49,-97.9472 1630.56,-87.5287 1625.57,-96.8736 1632.49,-97.9472"/>
</g>
<!-- Node12 -->
<g id="node12" class="node"><title>Node12</title>
<g id="a_node12"><a xlink:href="../../d2/d09/HeartbeatFrame_8h.html" target="_top" xlink:title="Headers/HeartbeatFrame.h">
<polygon fill="none" stroke="black" points="1920.5,-236.5 1920.5,-255.5 2055.5,-255.5 2055.5,-236.5 1920.5,-236.5"/>
<text text-anchor="middle" x="1988" y="-243.5" font-family="Helvetica,sans-Serif" font-size="10.00">Headers/HeartbeatFrame.h</text>
</a>
</g>
</g>
<!-- Node1&#45;&gt;Node12 -->
<g id="edge46" class="edge"><title>Node1&#45;&gt;Node12</title>
<path fill="none" stroke="midnightblue" d="M1786.73,-382.494C1837.54,-376.591 1903.94,-361.563 1950,-324 1968.37,-309.02 1978.58,-282.945 1983.68,-265.335"/>
<polygon fill="midnightblue" stroke="midnightblue" points="1987.07,-266.2 1986.22,-255.64 1980.3,-264.425 1987.07,-266.2"/>
</g>
<!-- Node18 -->
<g id="node18" class="node"><title>Node18</title>
<polygon fill="none" stroke="#bfbfbf" points="973,-180.5 973,-199.5 1119,-199.5 1119,-180.5 973,-180.5"/>
<text text-anchor="middle" x="1046" y="-187.5" font-family="Helvetica,sans-Serif" font-size="10.00">options/FairMQProgOptions.h</text>
</g>
<!-- Node1&#45;&gt;Node18 -->
<g id="edge49" class="edge"><title>Node1&#45;&gt;Node18</title>
<path fill="none" stroke="midnightblue" d="M1639.39,-364.48C1498.1,-323.172 1193.28,-234.057 1085.08,-202.425"/>
<polygon fill="midnightblue" stroke="midnightblue" points="1085.81,-198.993 1075.23,-199.546 1083.85,-205.712 1085.81,-198.993"/>
</g>
<!-- Node35 -->
<g id="node35" class="node"><title>Node35</title>
<g id="a_node35"><a xlink:href="../../d2/d1b/SubframeMetadata_8h.html" target="_top" xlink:title="Headers/SubframeMetadata.h">
<polygon fill="none" stroke="black" points="1794.5,-298.5 1794.5,-317.5 1941.5,-317.5 1941.5,-298.5 1794.5,-298.5"/>
<text text-anchor="middle" x="1868" y="-305.5" font-family="Helvetica,sans-Serif" font-size="10.00">Headers/SubframeMetadata.h</text>
</a>
</g>
</g>
<!-- Node1&#45;&gt;Node35 -->
<g id="edge47" class="edge"><title>Node1&#45;&gt;Node35</title>
<path fill="none" stroke="midnightblue" d="M1763.75,-360.787C1789.78,-347.855 1820.41,-332.644 1841.7,-322.067"/>
<polygon fill="midnightblue" stroke="midnightblue" points="1843.37,-325.141 1850.77,-317.558 1840.26,-318.872 1843.37,-325.141"/>
</g>
<!-- Node2&#45;&gt;Node3 -->
<g id="edge2" class="edge"><title>Node2&#45;&gt;Node3</title>
<path fill="none" stroke="midnightblue" d="M1707.93,-292.738C1693.85,-253.11 1654.27,-141.685 1638.55,-97.4423"/>
<polygon fill="midnightblue" stroke="midnightblue" points="1641.82,-96.198 1635.18,-87.9466 1635.23,-98.5414 1641.82,-96.198"/>
</g>
<!-- Node7 -->
<g id="node7" class="node"><title>Node7</title>
<polygon fill="none" stroke="#bfbfbf" points="1471,-6.5 1471,-25.5 1517,-25.5 1517,-6.5 1471,-6.5"/>
<text text-anchor="middle" x="1494" y="-13.5" font-family="Helvetica,sans-Serif" font-size="10.00">cstring</text>
</g>
<!-- Node2&#45;&gt;Node7 -->
<g id="edge43" class="edge"><title>Node2&#45;&gt;Node7</title>
<path fill="none" stroke="midnightblue" d="M1655.65,-292.887C1606.99,-277.074 1545,-246.115 1545,-191 1545,-191 1545,-191 1545,-133 1545,-95.0786 1521.88,-55.6324 1506.77,-33.9078"/>
<polygon fill="midnightblue" stroke="midnightblue" points="1509.57,-31.8012 1500.88,-25.7384 1503.89,-35.8962 1509.57,-31.8012"/>
</g>
<!-- Node2&#45;&gt;Node12 -->
<g id="edge11" class="edge"><title>Node2&#45;&gt;Node12</title>
<path fill="none" stroke="midnightblue" d="M1776.78,-293.084C1826.2,-282.302 1893.65,-267.585 1938.91,-257.71"/>
<polygon fill="midnightblue" stroke="midnightblue" points="1939.76,-261.108 1948.78,-255.557 1938.27,-254.269 1939.76,-261.108"/>
</g>
<!-- Node15 -->
<g id="node15" class="node"><title>Node15</title>
<polygon fill="none" stroke="#bfbfbf" points="2045,-6.5 2045,-25.5 2089,-25.5 2089,-6.5 2045,-6.5"/>
<text text-anchor="middle" x="2067" y="-13.5" font-family="Helvetica,sans-Serif" font-size="10.00">vector</text>
</g>
<!-- Node2&#45;&gt;Node15 -->
<g id="edge44" class="edge"><title>Node2&#45;&gt;Node15</title>
<path fill="none" stroke="midnightblue" d="M1776.61,-293.292C1828.06,-278.026 1892,-247.658 1892,-191 1892,-191 1892,-191 1892,-133 1892,-115.188 1994.03,-56.9476 2042.27,-30.4017"/>
<polygon fill="midnightblue" stroke="midnightblue" points="2044.07,-33.4088 2051.16,-25.5365 2040.71,-27.2688 2044.07,-33.4088"/>
</g>
<!-- Node16 -->
<g id="node16" class="node"><title>Node16</title>
<g id="a_node16"><a xlink:href="../../d2/dee/O2Device_8h.html" target="_top" xlink:title="O2Device/O2Device.h">
<polygon fill="none" stroke="black" points="1314.5,-236.5 1314.5,-255.5 1429.5,-255.5 1429.5,-236.5 1314.5,-236.5"/>
<text text-anchor="middle" x="1372" y="-243.5" font-family="Helvetica,sans-Serif" font-size="10.00">O2Device/O2Device.h</text>
</a>
</g>
</g>
<!-- Node2&#45;&gt;Node16 -->
<g id="edge16" class="edge"><title>Node2&#45;&gt;Node16</title>
<path fill="none" stroke="midnightblue" d="M1649.26,-295.785C1586.57,-284.755 1491.67,-268.057 1430.76,-257.339"/>
<polygon fill="midnightblue" stroke="midnightblue" points="1431,-253.828 1420.55,-255.542 1429.79,-260.722 1431,-253.828"/>
</g>
<!-- Node4 -->
<g id="node4" class="node"><title>Node4</title>
<polygon fill="none" stroke="#bfbfbf" points="1833,-6.5 1833,-25.5 1879,-25.5 1879,-6.5 1833,-6.5"/>
<text text-anchor="middle" x="1856" y="-13.5" font-family="Helvetica,sans-Serif" font-size="10.00">cstdint</text>
</g>
<!-- Node3&#45;&gt;Node4 -->
<g id="edge3" class="edge"><title>Node3&#45;&gt;Node4</title>
<path fill="none" stroke="midnightblue" d="M1679.82,-68.4288C1718.9,-60.7856 1775.28,-48.2908 1823,-32 1825.13,-31.2731 1827.31,-30.4567 1829.48,-29.5899"/>
<polygon fill="midnightblue" stroke="midnightblue" points="1830.98,-32.7532 1838.79,-25.5893 1828.22,-26.3218 1830.98,-32.7532"/>
</g>
<!-- Node5 -->
<g id="node5" class="node"><title>Node5</title>
<polygon fill="none" stroke="#bfbfbf" points="1897,-6.5 1897,-25.5 1949,-25.5 1949,-6.5 1897,-6.5"/>
<text text-anchor="middle" x="1923" y="-13.5" font-family="Helvetica,sans-Serif" font-size="10.00">memory</text>
</g>
<!-- Node3&#45;&gt;Node5 -->
<g id="edge4" class="edge"><title>Node3&#45;&gt;Node5</title>
<path fill="none" stroke="midnightblue" d="M1690.58,-70.6107C1743.06,-63.9711 1821.72,-51.7385 1888,-32 1890.49,-31.257 1893.05,-30.3878 1895.59,-29.4486"/>
<polygon fill="midnightblue" stroke="midnightblue" points="1897.16,-32.5868 1905.13,-25.5996 1894.55,-26.0952 1897.16,-32.5868"/>
</g>
<!-- Node6 -->
<g id="node6" class="node"><title>Node6</title>
<polygon fill="none" stroke="#bfbfbf" points="1535.5,-6.5 1535.5,-25.5 1584.5,-25.5 1584.5,-6.5 1535.5,-6.5"/>
<text text-anchor="middle" x="1560" y="-13.5" font-family="Helvetica,sans-Serif" font-size="10.00">cassert</text>
</g>
<!-- Node3&#45;&gt;Node6 -->
<g id="edge5" class="edge"><title>Node3&#45;&gt;Node6</title>
<path fill="none" stroke="midnightblue" d="M1621.68,-68.4035C1610.35,-58.9579 1591.93,-43.6056 1578.16,-32.1342"/>
<polygon fill="midnightblue" stroke="midnightblue" points="1580.22,-29.2937 1570.3,-25.5806 1575.74,-34.6713 1580.22,-29.2937"/>
</g>
<!-- Node3&#45;&gt;Node7 -->
<g id="edge6" class="edge"><title>Node3&#45;&gt;Node7</title>
<path fill="none" stroke="midnightblue" d="M1611.18,-68.4295C1589.74,-59.5376 1555.39,-45.1221 1526,-32 1524.42,-31.2949 1522.8,-30.5633 1521.17,-29.8195"/>
<polygon fill="midnightblue" stroke="midnightblue" points="1522.43,-26.5471 1511.89,-25.5263 1519.49,-32.9006 1522.43,-26.5471"/>
</g>
<!-- Node8 -->
<g id="node8" class="node"><title>Node8</title>
<polygon fill="none" stroke="#bfbfbf" points="1603,-6.5 1603,-25.5 1659,-25.5 1659,-6.5 1603,-6.5"/>
<text text-anchor="middle" x="1631" y="-13.5" font-family="Helvetica,sans-Serif" font-size="10.00">algorithm</text>
</g>
<!-- Node3&#45;&gt;Node8 -->
<g id="edge7" class="edge"><title>Node3&#45;&gt;Node8</title>
<path fill="none" stroke="midnightblue" d="M1631.86,-68.4035C1631.72,-59.9381 1631.5,-46.7283 1631.31,-35.8199"/>
<polygon fill="midnightblue" stroke="midnightblue" points="1634.81,-35.5208 1631.14,-25.5806 1627.81,-35.6376 1634.81,-35.5208"/>
</g>
<!-- Node9 -->
<g id="node9" class="node"><title>Node9</title>
<polygon fill="none" stroke="#bfbfbf" points="1967.5,-6.5 1967.5,-25.5 2026.5,-25.5 2026.5,-6.5 1967.5,-6.5"/>
<text text-anchor="middle" x="1997" y="-13.5" font-family="Helvetica,sans-Serif" font-size="10.00">stdexcept</text>
</g>
<!-- Node3&#45;&gt;Node9 -->
<g id="edge8" class="edge"><title>Node3&#45;&gt;Node9</title>
<path fill="none" stroke="midnightblue" d="M1690.79,-72.9748C1756.68,-67.524 1866.3,-55.6282 1958,-32 1961.23,-31.1674 1964.56,-30.1497 1967.85,-29.0403"/>
<polygon fill="midnightblue" stroke="midnightblue" points="1969.26,-32.2518 1977.45,-25.5304 1966.85,-25.6775 1969.26,-32.2518"/>
</g>
<!-- Node10 -->
<g id="node10" class="node"><title>Node10</title>
<polygon fill="none" stroke="#bfbfbf" points="1411.5,-6.5 1411.5,-25.5 1452.5,-25.5 1452.5,-6.5 1411.5,-6.5"/>
<text text-anchor="middle" x="1432" y="-13.5" font-family="Helvetica,sans-Serif" font-size="10.00">string</text>
</g>
<!-- Node3&#45;&gt;Node10 -->
<g id="edge9" class="edge"><title>Node3&#45;&gt;Node10</title>
<path fill="none" stroke="midnightblue" d="M1590.38,-68.4907C1555.5,-60.7678 1504.7,-48.1305 1462,-32 1460.35,-31.3775 1458.67,-30.6926 1457,-29.9689"/>
<polygon fill="midnightblue" stroke="midnightblue" points="1458.15,-26.6425 1447.61,-25.5614 1455.17,-32.9791 1458.15,-26.6425"/>
</g>
<!-- Node11 -->
<g id="node11" class="node"><title>Node11</title>
<g id="a_node11"><a xlink:href="../../d7/df8/Types_8h.html" target="_top" xlink:title="MemoryResources/Types.h">
<polygon fill="none" stroke="black" points="1677.5,-6.5 1677.5,-25.5 1814.5,-25.5 1814.5,-6.5 1677.5,-6.5"/>
<text text-anchor="middle" x="1746" y="-13.5" font-family="Helvetica,sans-Serif" font-size="10.00">MemoryResources/Types.h</text>
</a>
</g>
</g>
<!-- Node3&#45;&gt;Node11 -->
<g id="edge10" class="edge"><title>Node3&#45;&gt;Node11</title>
<path fill="none" stroke="midnightblue" d="M1648.33,-68.4035C1667.21,-58.4678 1698.51,-41.9966 1720.58,-30.3812"/>
<polygon fill="midnightblue" stroke="midnightblue" points="1722.48,-33.3353 1729.7,-25.5806 1719.22,-27.1409 1722.48,-33.3353"/>
</g>
<!-- Node12&#45;&gt;Node3 -->
<g id="edge12" class="edge"><title>Node12&#45;&gt;Node3</title>
<path fill="none" stroke="midnightblue" d="M1969.36,-236.309C1910.73,-208.968 1729.79,-124.601 1659.93,-92.023"/>
<polygon fill="midnightblue" stroke="midnightblue" points="1661,-88.6591 1650.45,-87.6051 1658.04,-95.0033 1661,-88.6591"/>
</g>
<!-- Node13 -->
<g id="node13" class="node"><title>Node13</title>
<polygon fill="none" stroke="#bfbfbf" points="1923.5,-180.5 1923.5,-199.5 1982.5,-199.5 1982.5,-180.5 1923.5,-180.5"/>
<text text-anchor="middle" x="1953" y="-187.5" font-family="Helvetica,sans-Serif" font-size="10.00">functional</text>
</g>
<!-- Node12&#45;&gt;Node13 -->
<g id="edge13" class="edge"><title>Node12&#45;&gt;Node13</title>
<path fill="none" stroke="midnightblue" d="M1982.22,-236.083C1977.33,-228.534 1970.17,-217.495 1964.17,-208.23"/>
<polygon fill="midnightblue" stroke="midnightblue" points="1967.05,-206.239 1958.67,-199.751 1961.17,-210.046 1967.05,-206.239"/>
</g>
<!-- Node14 -->
<g id="node14" class="node"><title>Node14</title>
<polygon fill="none" stroke="#bfbfbf" points="2000.5,-180.5 2000.5,-199.5 2035.5,-199.5 2035.5,-180.5 2000.5,-180.5"/>
<text text-anchor="middle" x="2018" y="-187.5" font-family="Helvetica,sans-Serif" font-size="10.00">map</text>
</g>
<!-- Node12&#45;&gt;Node14 -->
<g id="edge14" class="edge"><title>Node12&#45;&gt;Node14</title>
<path fill="none" stroke="midnightblue" d="M1992.95,-236.083C1997.1,-228.613 2003.15,-217.724 2008.27,-208.52"/>
<polygon fill="midnightblue" stroke="midnightblue" points="2011.34,-210.192 2013.14,-199.751 2005.22,-206.793 2011.34,-210.192"/>
</g>
<!-- Node12&#45;&gt;Node15 -->
<g id="edge15" class="edge"><title>Node12&#45;&gt;Node15</title>
<path fill="none" stroke="midnightblue" d="M2004.42,-236.49C2017.45,-228.806 2034.94,-216.224 2044,-200 2073.88,-146.504 2071.94,-70.7276 2069.06,-35.8745"/>
<polygon fill="midnightblue" stroke="midnightblue" points="2072.52,-35.337 2068.09,-25.715 2065.55,-36.0025 2072.52,-35.337"/>
</g>
<!-- Node16&#45;&gt;Node9 -->
<g id="edge42" class="edge"><title>Node16&#45;&gt;Node9</title>
<path fill="none" stroke="midnightblue" d="M1404.87,-236.466C1436.08,-228.096 1484.17,-214.509 1525,-200 1668.03,-149.173 1697.22,-119.546 1840,-68 1891.57,-49.3807 1906.16,-49.8528 1958,-32 1960.61,-31.101 1963.31,-30.1377 1966.01,-29.1491"/>
<polygon fill="midnightblue" stroke="midnightblue" points="1967.51,-32.3216 1975.64,-25.5279 1965.05,-25.7689 1967.51,-32.3216"/>
</g>
<!-- Node17 -->
<g id="node17" class="node"><title>Node17</title>
<polygon fill="none" stroke="#bfbfbf" points="1259,-180.5 1259,-199.5 1347,-199.5 1347,-180.5 1259,-180.5"/>
<text text-anchor="middle" x="1303" y="-187.5" font-family="Helvetica,sans-Serif" font-size="10.00">FairMQDevice.h</text>
</g>
<!-- Node16&#45;&gt;Node17 -->
<g id="edge17" class="edge"><title>Node16&#45;&gt;Node17</title>
<path fill="none" stroke="midnightblue" d="M1360.91,-236.324C1350.51,-228.185 1334.74,-215.839 1322.28,-206.087"/>
<polygon fill="midnightblue" stroke="midnightblue" points="1324.32,-203.241 1314.29,-199.834 1320.01,-208.753 1324.32,-203.241"/>
</g>
<!-- Node16&#45;&gt;Node18 -->
<g id="edge18" class="edge"><title>Node16&#45;&gt;Node18</title>
<path fill="none" stroke="midnightblue" d="M1320.34,-236.444C1262.52,-226.865 1168.89,-211.356 1107.38,-201.167"/>
<polygon fill="midnightblue" stroke="midnightblue" points="1107.85,-197.698 1097.41,-199.516 1106.71,-204.604 1107.85,-197.698"/>
</g>
<!-- Node19 -->
<g id="node19" class="node"><title>Node19</title>
<g id="a_node19"><a xlink:href="../../d7/db2/Utilities_8h.html" target="_top" xlink:title="O2Device/Utilities.h">
<polygon fill="none" stroke="black" points="1137,-180.5 1137,-199.5 1241,-199.5 1241,-180.5 1137,-180.5"/>
<text text-anchor="middle" x="1189" y="-187.5" font-family="Helvetica,sans-Serif" font-size="10.00">O2Device/Utilities.h</text>
</a>
</g>
</g>
<!-- Node16&#45;&gt;Node19 -->
<g id="edge19" class="edge"><title>Node16&#45;&gt;Node19</title>
<path fill="none" stroke="midnightblue" d="M1343,-236.444C1311.82,-227.241 1262.07,-212.562 1227.59,-202.388"/>
<polygon fill="midnightblue" stroke="midnightblue" points="1228.44,-198.99 1217.86,-199.516 1226.46,-205.704 1228.44,-198.99"/>
</g>
<!-- Node34 -->
<g id="node34" class="node"><title>Node34</title>
<polygon fill="none" stroke="#bfbfbf" points="1365.5,-180.5 1365.5,-199.5 1516.5,-199.5 1516.5,-180.5 1365.5,-180.5"/>
<text text-anchor="middle" x="1441" y="-187.5" font-family="Helvetica,sans-Serif" font-size="10.00">Monitoring/MonitoringFactory.h</text>
</g>
<!-- Node16&#45;&gt;Node34 -->
<g id="edge41" class="edge"><title>Node16&#45;&gt;Node34</title>
<path fill="none" stroke="midnightblue" d="M1383.09,-236.324C1393.49,-228.185 1409.26,-215.839 1421.72,-206.087"/>
<polygon fill="midnightblue" stroke="midnightblue" points="1423.99,-208.753 1429.71,-199.834 1419.68,-203.241 1423.99,-208.753"/>
</g>
<!-- Node19&#45;&gt;Node3 -->
<g id="edge35" class="edge"><title>Node19&#45;&gt;Node3</title>
<path fill="none" stroke="midnightblue" d="M1223.39,-180.46C1302.96,-160.702 1499.68,-111.857 1587.92,-89.9448"/>
<polygon fill="midnightblue" stroke="midnightblue" points="1588.77,-93.3414 1597.63,-87.5345 1587.08,-86.5477 1588.77,-93.3414"/>
</g>
<!-- Node20 -->
<g id="node20" class="node"><title>Node20</title>
<g id="a_node20"><a xlink:href="../../dc/d03/MemoryResources_8h.html" target="_top" xlink:title="MemoryResources/MemoryResources.h">
<polygon fill="none" stroke="black" points="835.5,-68.5 835.5,-87.5 1028.5,-87.5 1028.5,-68.5 835.5,-68.5"/>
<text text-anchor="middle" x="932" y="-75.5" font-family="Helvetica,sans-Serif" font-size="10.00">MemoryResources/MemoryResources.h</text>
</a>
</g>
</g>
<!-- Node19&#45;&gt;Node20 -->
<g id="edge20" class="edge"><title>Node19&#45;&gt;Node20</title>
<path fill="none" stroke="midnightblue" d="M1183.93,-180.276C1175.22,-166.111 1156,-138.259 1132,-124 1102.82,-106.66 1067.61,-95.9949 1034.93,-89.4372"/>
<polygon fill="midnightblue" stroke="midnightblue" points="1035.36,-85.9553 1024.88,-87.5311 1034.05,-92.8328 1035.36,-85.9553"/>
</g>
<!-- Node26 -->
<g id="node26" class="node"><title>Node26</title>
<polygon fill="none" stroke="#bfbfbf" points="0,-6.5 0,-25.5 40,-25.5 40,-6.5 0,-6.5"/>
<text text-anchor="middle" x="20" y="-13.5" font-family="Helvetica,sans-Serif" font-size="10.00">utility</text>
</g>
<!-- Node19&#45;&gt;Node26 -->
<g id="edge39" class="edge"><title>Node19&#45;&gt;Node26</title>
<path fill="none" stroke="midnightblue" d="M1136.76,-181.257C1133.8,-180.829 1130.86,-180.407 1128,-180 648.785,-111.784 510.439,-178.2 49,-32 47.1358,-31.4093 45.2473,-30.7055 43.375,-29.9296"/>
<polygon fill="midnightblue" stroke="midnightblue" points="44.8703,-26.7651 34.3352,-25.6414 41.8701,-33.0896 44.8703,-26.7651"/>
</g>
<!-- Node32 -->
<g id="node32" class="node"><title>Node32</title>
<g id="a_node32"><a xlink:href="../../d4/d00/Headers_2include_2Headers_2Stack_8h.html" target="_top" xlink:title="Headers/Stack.h">
<polygon fill="none" stroke="black" points="1180,-124.5 1180,-143.5 1270,-143.5 1270,-124.5 1180,-124.5"/>
<text text-anchor="middle" x="1225" y="-131.5" font-family="Helvetica,sans-Serif" font-size="10.00">Headers/Stack.h</text>
</a>
</g>
</g>
<!-- Node19&#45;&gt;Node32 -->
<g id="edge36" class="edge"><title>Node19&#45;&gt;Node32</title>
<path fill="none" stroke="midnightblue" d="M1194.94,-180.083C1199.98,-172.534 1207.34,-161.495 1213.51,-152.23"/>
<polygon fill="midnightblue" stroke="midnightblue" points="1216.53,-154.013 1219.17,-143.751 1210.71,-150.13 1216.53,-154.013"/>
</g>
<!-- Node33 -->
<g id="node33" class="node"><title>Node33</title>
<polygon fill="none" stroke="#bfbfbf" points="1078.5,-124.5 1078.5,-143.5 1123.5,-143.5 1123.5,-124.5 1078.5,-124.5"/>
<text text-anchor="middle" x="1101" y="-131.5" font-family="Helvetica,sans-Serif" font-size="10.00">gsl/gsl</text>
</g>
<!-- Node19&#45;&gt;Node33 -->
<g id="edge40" class="edge"><title>Node19&#45;&gt;Node33</title>
<path fill="none" stroke="midnightblue" d="M1174.86,-180.324C1161.13,-171.9 1140.06,-158.971 1123.94,-149.074"/>
<polygon fill="midnightblue" stroke="midnightblue" points="1125.46,-145.902 1115.1,-143.655 1121.8,-151.868 1125.46,-145.902"/>
</g>
<!-- Node20&#45;&gt;Node7 -->
<g id="edge25" class="edge"><title>Node20&#45;&gt;Node7</title>
<path fill="none" stroke="midnightblue" d="M1028.67,-72.7248C1158.46,-66.3052 1381.91,-52.6787 1461,-32 1463.5,-31.3453 1466.05,-30.5138 1468.57,-29.5793"/>
<polygon fill="midnightblue" stroke="midnightblue" points="1470.1,-32.7326 1477.96,-25.6202 1467.38,-26.2833 1470.1,-32.7326"/>
</g>
<!-- Node20&#45;&gt;Node10 -->
<g id="edge26" class="edge"><title>Node20&#45;&gt;Node10</title>
<path fill="none" stroke="midnightblue" d="M1028.72,-71.9273C1145.37,-65.0785 1334.24,-51.4511 1402,-32 1403.97,-31.4336 1405.97,-30.7388 1407.95,-29.9617"/>
<polygon fill="midnightblue" stroke="midnightblue" points="1409.84,-32.9443 1417.48,-25.6036 1406.93,-26.5779 1409.84,-32.9443"/>
</g>
<!-- Node20&#45;&gt;Node15 -->
<g id="edge29" class="edge"><title>Node20&#45;&gt;Node15</title>
<path fill="none" stroke="midnightblue" d="M1028.53,-75.2452C1279.34,-70.3766 1938.83,-55.49 2035,-32 2037.5,-31.3886 2040.05,-30.574 2042.55,-29.6394"/>
<polygon fill="midnightblue" stroke="midnightblue" points="2044.05,-32.8048 2051.83,-25.6161 2041.26,-26.3822 2044.05,-32.8048"/>
</g>
<!-- Node21 -->
<g id="node21" class="node"><title>Node21</title>
<polygon fill="none" stroke="#bfbfbf" points="58,-1 58,-31 158,-31 158,-1 58,-1"/>
<text text-anchor="start" x="66" y="-19" font-family="Helvetica,sans-Serif" font-size="10.00">boost/container/flat</text>
<text text-anchor="middle" x="108" y="-8" font-family="Helvetica,sans-Serif" font-size="10.00">_map.hpp</text>
</g>
<!-- Node20&#45;&gt;Node21 -->
<g id="edge21" class="edge"><title>Node20&#45;&gt;Node21</title>
<path fill="none" stroke="midnightblue" d="M835.369,-77.1829C691.626,-76.1529 413.039,-69.1505 168.238,-31.9847"/>
<polygon fill="midnightblue" stroke="midnightblue" points="168.494,-28.483 158.078,-30.4217 167.43,-35.4016 168.494,-28.483"/>
</g>
<!-- Node22 -->
<g id="node22" class="node"><title>Node22</title>
<polygon fill="none" stroke="#bfbfbf" points="176,-1 176,-31 292,-31 292,-1 176,-1"/>
<text text-anchor="start" x="184" y="-19" font-family="Helvetica,sans-Serif" font-size="10.00">boost/container/pmr</text>
<text text-anchor="middle" x="234" y="-8" font-family="Helvetica,sans-Serif" font-size="10.00">/memory_resource.hpp</text>
</g>
<!-- Node20&#45;&gt;Node22 -->
<g id="edge22" class="edge"><title>Node20&#45;&gt;Node22</title>
<path fill="none" stroke="midnightblue" d="M835.305,-74.5768C713.186,-70.5112 496.549,-59.9582 302.126,-32.0152"/>
<polygon fill="midnightblue" stroke="midnightblue" points="302.406,-28.519 292.006,-30.5418 301.397,-35.446 302.406,-28.519"/>
</g>
<!-- Node23 -->
<g id="node23" class="node"><title>Node23</title>
<polygon fill="none" stroke="#bfbfbf" points="310,-1 310,-31 466,-31 466,-1 310,-1"/>
<text text-anchor="start" x="318" y="-19" font-family="Helvetica,sans-Serif" font-size="10.00">boost/container/pmr</text>
<text text-anchor="middle" x="388" y="-8" font-family="Helvetica,sans-Serif" font-size="10.00">/monotonic_buffer_resource.hpp</text>
</g>
<!-- Node20&#45;&gt;Node23 -->
<g id="edge23" class="edge"><title>Node20&#45;&gt;Node23</title>
<path fill="none" stroke="midnightblue" d="M835.475,-69.5428C745.172,-62.0953 606.306,-49.4401 476.351,-32.1236"/>
<polygon fill="midnightblue" stroke="midnightblue" points="476.59,-28.6244 466.213,-30.7607 475.658,-35.562 476.59,-28.6244"/>
</g>
<!-- Node24 -->
<g id="node24" class="node"><title>Node24</title>
<polygon fill="none" stroke="#bfbfbf" points="484.5,-1 484.5,-31 617.5,-31 617.5,-1 484.5,-1"/>
<text text-anchor="start" x="492.5" y="-19" font-family="Helvetica,sans-Serif" font-size="10.00">boost/container/pmr</text>
<text text-anchor="middle" x="551" y="-8" font-family="Helvetica,sans-Serif" font-size="10.00">/polymorphic_allocator.hpp</text>
</g>
<!-- Node20&#45;&gt;Node24 -->
<g id="edge24" class="edge"><title>Node20&#45;&gt;Node24</title>
<path fill="none" stroke="midnightblue" d="M868.183,-68.4998C808.61,-60.3567 716.991,-47.3038 627.722,-32.0746"/>
<polygon fill="midnightblue" stroke="midnightblue" points="628.142,-28.5957 617.694,-30.3529 626.958,-35.4947 628.142,-28.5957"/>
</g>
<!-- Node25 -->
<g id="node25" class="node"><title>Node25</title>
<polygon fill="none" stroke="#bfbfbf" points="636,-6.5 636,-25.5 698,-25.5 698,-6.5 636,-6.5"/>
<text text-anchor="middle" x="667" y="-13.5" font-family="Helvetica,sans-Serif" font-size="10.00">type_traits</text>
</g>
<!-- Node20&#45;&gt;Node25 -->
<g id="edge27" class="edge"><title>Node20&#45;&gt;Node25</title>
<path fill="none" stroke="midnightblue" d="M876.387,-68.4497C830.484,-60.7805 763.884,-48.2392 707,-32 703.862,-31.1042 700.621,-30.0732 697.405,-28.9799"/>
<polygon fill="midnightblue" stroke="midnightblue" points="698.556,-25.6743 687.961,-25.5864 696.189,-32.2619 698.556,-25.6743"/>
</g>
<!-- Node20&#45;&gt;Node26 -->
<g id="edge28" class="edge"><title>Node20&#45;&gt;Node26</title>
<path fill="none" stroke="midnightblue" d="M835.164,-74.3814C621.597,-68.2725 123.18,-52.062 49,-32 47.0302,-31.4673 45.0409,-30.7877 43.0765,-30.0132"/>
<polygon fill="midnightblue" stroke="midnightblue" points="44.2073,-26.6773 33.6685,-25.5891 41.2284,-33.0119 44.2073,-26.6773"/>
</g>
<!-- Node27 -->
<g id="node27" class="node"><title>Node27</title>
<polygon fill="none" stroke="#bfbfbf" points="716.5,-6.5 716.5,-25.5 799.5,-25.5 799.5,-6.5 716.5,-6.5"/>
<text text-anchor="middle" x="758" y="-13.5" font-family="Helvetica,sans-Serif" font-size="10.00">unordered_map</text>
</g>
<!-- Node20&#45;&gt;Node27 -->
<g id="edge30" class="edge"><title>Node20&#45;&gt;Node27</title>
<path fill="none" stroke="midnightblue" d="M907.07,-68.4035C876.964,-58.0222 826.168,-40.5062 792.362,-28.849"/>
<polygon fill="midnightblue" stroke="midnightblue" points="793.478,-25.5318 782.884,-25.5806 791.196,-32.1494 793.478,-25.5318"/>
</g>
<!-- Node28 -->
<g id="node28" class="node"><title>Node28</title>
<polygon fill="none" stroke="#bfbfbf" points="817.5,-6.5 817.5,-25.5 914.5,-25.5 914.5,-6.5 817.5,-6.5"/>
<text text-anchor="middle" x="866" y="-13.5" font-family="Helvetica,sans-Serif" font-size="10.00">FairMQMessage.h</text>
</g>
<!-- Node20&#45;&gt;Node28 -->
<g id="edge31" class="edge"><title>Node20&#45;&gt;Node28</title>
<path fill="none" stroke="midnightblue" d="M922.544,-68.4035C912.252,-59.047 895.584,-43.8948 883.006,-32.4599"/>
<polygon fill="midnightblue" stroke="midnightblue" points="885.192,-29.7176 875.439,-25.5806 880.484,-34.8971 885.192,-29.7176"/>
</g>
<!-- Node29 -->
<g id="node29" class="node"><title>Node29</title>
<polygon fill="none" stroke="#bfbfbf" points="932.5,-6.5 932.5,-25.5 1063.5,-25.5 1063.5,-6.5 932.5,-6.5"/>
<text text-anchor="middle" x="998" y="-13.5" font-family="Helvetica,sans-Serif" font-size="10.00">FairMQTransportFactory.h</text>
</g>
<!-- Node20&#45;&gt;Node29 -->
<g id="edge32" class="edge"><title>Node20&#45;&gt;Node29</title>
<path fill="none" stroke="midnightblue" d="M941.456,-68.4035C951.748,-59.047 968.416,-43.8948 980.994,-32.4599"/>
<polygon fill="midnightblue" stroke="midnightblue" points="983.516,-34.8971 988.561,-25.5806 978.808,-29.7176 983.516,-34.8971"/>
</g>
<!-- Node30 -->
<g id="node30" class="node"><title>Node30</title>
<polygon fill="none" stroke="#bfbfbf" points="1081.5,-6.5 1081.5,-25.5 1218.5,-25.5 1218.5,-6.5 1081.5,-6.5"/>
<text text-anchor="middle" x="1150" y="-13.5" font-family="Helvetica,sans-Serif" font-size="10.00">fairmq/MemoryResources.h</text>
</g>
<!-- Node20&#45;&gt;Node30 -->
<g id="edge33" class="edge"><title>Node20&#45;&gt;Node30</title>
<path fill="none" stroke="midnightblue" d="M963.234,-68.4035C1001.6,-57.844 1066.79,-39.9027 1109.11,-28.2538"/>
<polygon fill="midnightblue" stroke="midnightblue" points="1110.11,-31.6088 1118.82,-25.5806 1108.25,-24.8598 1110.11,-31.6088"/>
</g>
<!-- Node31 -->
<g id="node31" class="node"><title>Node31</title>
<polygon fill="none" stroke="#bfbfbf" points="1237,-6.5 1237,-25.5 1393,-25.5 1393,-6.5 1237,-6.5"/>
<text text-anchor="middle" x="1315" y="-13.5" font-family="Helvetica,sans-Serif" font-size="10.00">fairmq/MemoryResourceTools.h</text>
</g>
<!-- Node20&#45;&gt;Node31 -->
<g id="edge34" class="edge"><title>Node20&#45;&gt;Node31</title>
<path fill="none" stroke="midnightblue" d="M989.981,-68.4607C1049.5,-59.623 1144.78,-45.2767 1227,-32 1236.31,-30.4963 1246.17,-28.8599 1255.79,-27.2387"/>
<polygon fill="midnightblue" stroke="midnightblue" points="1256.42,-30.6822 1265.69,-25.561 1255.25,-23.7806 1256.42,-30.6822"/>
</g>
<!-- Node32&#45;&gt;Node3 -->
<g id="edge38" class="edge"><title>Node32&#45;&gt;Node3</title>
<path fill="none" stroke="midnightblue" d="M1270.11,-127.015C1341.14,-117.591 1479.54,-99.2282 1563.08,-88.1438"/>
<polygon fill="midnightblue" stroke="midnightblue" points="1563.79,-91.5809 1573.24,-86.796 1562.87,-84.6417 1563.79,-91.5809"/>
</g>
<!-- Node32&#45;&gt;Node20 -->
<g id="edge37" class="edge"><title>Node32&#45;&gt;Node20</title>
<path fill="none" stroke="midnightblue" d="M1179.86,-124.681C1128.33,-115.184 1043.98,-99.6377 988.222,-89.3617"/>
<polygon fill="midnightblue" stroke="midnightblue" points="988.627,-85.8774 978.158,-87.5069 987.358,-92.7615 988.627,-85.8774"/>
</g>
<!-- Node35&#45;&gt;Node15 -->
<g id="edge48" class="edge"><title>Node35&#45;&gt;Node15</title>
<path fill="none" stroke="midnightblue" d="M1866.23,-298.312C1862.46,-279.071 1854,-231.367 1854,-191 1854,-191 1854,-191 1854,-133 1854,-102.205 1854.87,-88.3348 1878,-68 1931.76,-20.7284 1967.32,-55.3244 2035,-32 2036.91,-31.3403 2038.87,-30.6014 2040.82,-29.8148"/>
<polygon fill="midnightblue" stroke="midnightblue" points="2042.59,-32.8567 2050.34,-25.6284 2039.78,-26.4485 2042.59,-32.8567"/>
</g>
</g>
</svg>
        <g id="navigator" transform="translate(0 0)" fill="#404254">
                <rect fill="#f2f5e9" fill-opacity="0.5" stroke="#606060" stroke-width=".5" x="0" y="0" width="60" height="60"/>
                <use id="zoomplus" xlink:href="#zoomPlus" x="17" y="9" onmousedown="handleZoom(evt,'in')"/>
                <use id="zoomminus" xlink:href="#zoomMin" x="42" y="9" onmousedown="handleZoom(evt,'out')"/>
                <use id="reset" xlink:href="#resetDef" x="30" y="36" onmousedown="handleReset()"/>
                <g id="arrowUp" xlink:href="#dirArrow" transform="translate(30 24)" onmousedown="handlePan(0,-1)">
                  <use xlink:href="#rim" fill="#404040">
                        <set attributeName="fill" to="#808080" begin="arrowUp.mouseover" end="arrowUp.mouseout"/>
                  </use>
                  <path fill="none" stroke="white" stroke-width="1.5" d="M0,-3.0v7 M-2.5,-0.5L0,-3.0L2.5,-0.5"/>
                </g>
                <g id="arrowRight" xlink:href="#dirArrow" transform="rotate(90) translate(36 -43)" onmousedown="handlePan(1,0)">
                  <use xlink:href="#rim" fill="#404040">
                        <set attributeName="fill" to="#808080" begin="arrowRight.mouseover" end="arrowRight.mouseout"/>
                  </use>
                  <path fill="none" stroke="white" stroke-width="1.5" d="M0,-3.0v7 M-2.5,-0.5L0,-3.0L2.5,-0.5"/>
                </g>
                <g id="arrowDown" xlink:href="#dirArrow" transform="rotate(180) translate(-30 -48)" onmousedown="handlePan(0,1)">
                  <use xlink:href="#rim" fill="#404040">
                        <set attributeName="fill" to="#808080" begin="arrowDown.mouseover" end="arrowDown.mouseout"/>
                  </use>
                  <path fill="none" stroke="white" stroke-width="1.5" d="M0,-3.0v7 M-2.5,-0.5L0,-3.0L2.5,-0.5"/>
                </g>
                <g id="arrowLeft" xlink:href="#dirArrow" transform="rotate(270) translate(-36 17)" onmousedown="handlePan(-1,0)">
                  <use xlink:href="#rim" fill="#404040">
                        <set attributeName="fill" to="#808080" begin="arrowLeft.mouseover" end="arrowLeft.mouseout"/>
                  </use>
                  <path fill="none" stroke="white" stroke-width="1.5" d="M0,-3.0v7 M-2.5,-0.5L0,-3.0L2.5,-0.5"/>
                </g>
        </g>
        <svg viewBox="0 0 15 15" width="100%" height="30px" preserveAspectRatio="xMaxYMin meet">
         <g id="arrow_out" transform="scale(0.3 0.3)">
          <a xlink:href="DataPublisherDevice_8cxx__incl_org.svg" target="_base">
           <rect id="button" ry="5" rx="5" y="6" x="6" height="38" width="38"
                fill="#f2f5e9" fill-opacity="0.5" stroke="#606060" stroke-width="1.0"/>
           <path id="arrow"
             d="M 11.500037,31.436501 C 11.940474,20.09759 22.043105,11.32322 32.158766,21.979434 L 37.068811,17.246167 C 37.068811,17.246167 37.088388,32 37.088388,32 L 22.160133,31.978069 C 22.160133,31.978069 26.997745,27.140456 26.997745,27.140456 C 18.528582,18.264221 13.291696,25.230495 11.500037,31.436501 z"
             style="fill:#404040;"/>
          </a>
         </g>
        </svg>
</svg>
