<?xml version="1.0" encoding="UTF-8" standalone="no"?>
<!DOCTYPE svg PUBLIC "-//W3C//DTD SVG 1.1//EN"
 "http://www.w3.org/Graphics/SVG/1.1/DTD/svg11.dtd">
<!-- Generated by graphviz version 2.36.0 (20140111.2315)
 -->
<!-- Title: /home/travis/build/AliceO2Group/AliceO2/Detectors/PHOS/reconstruction/src/ClustererTask.cxx Pages: 1 -->
<svg width="1891pt" height="526pt"
 viewBox="0.00 0.00 1891.00 526.00" xmlns="http://www.w3.org/2000/svg" xmlns:xlink="http://www.w3.org/1999/xlink">
<g id="graph0" class="graph" transform="scale(1 1) rotate(0) translate(4 522)">
<title>/home/travis/build/AliceO2Group/AliceO2/Detectors/PHOS/reconstruction/src/ClustererTask.cxx</title>
<!-- Node1 -->
<g id="node1" class="node"><title>Node1</title>
<polygon fill="#bfbfbf" stroke="black" points="1435,-465 1435,-517 1593,-517 1593,-465 1435,-465"/>
<text text-anchor="start" x="1443" y="-505" font-family="Helvetica,sans-Serif" font-size="10.00">/home/travis/build</text>
<text text-anchor="start" x="1443" y="-494" font-family="Helvetica,sans-Serif" font-size="10.00">/AliceO2Group/AliceO2</text>
<text text-anchor="start" x="1443" y="-483" font-family="Helvetica,sans-Serif" font-size="10.00">/Detectors/PHOS/reconstruction</text>
<text text-anchor="middle" x="1514" y="-472" font-family="Helvetica,sans-Serif" font-size="10.00">/src/ClustererTask.cxx</text>
</g>
<!-- Node2 -->
<g id="node2" class="node"><title>Node2</title>
<polygon fill="none" stroke="#bfbfbf" points="1166.5,-402.5 1166.5,-421.5 1237.5,-421.5 1237.5,-402.5 1166.5,-402.5"/>
<text text-anchor="middle" x="1202" y="-409.5" font-family="Helvetica,sans-Serif" font-size="10.00">FairLogger.h</text>
</g>
<!-- Node1&#45;&gt;Node2 -->
<g id="edge1" class="edge"><title>Node1&#45;&gt;Node2</title>
<path fill="none" stroke="midnightblue" d="M1434.94,-473.675C1381.54,-462.152 1309.63,-445.669 1247,-428 1243.38,-426.978 1239.62,-425.844 1235.88,-424.669"/>
<polygon fill="midnightblue" stroke="midnightblue" points="1236.75,-421.272 1226.16,-421.515 1234.59,-427.93 1236.75,-421.272"/>
</g>
<!-- Node3 -->
<g id="node3" class="node"><title>Node3</title>
<polygon fill="none" stroke="#bfbfbf" points="1256,-402.5 1256,-421.5 1356,-421.5 1356,-402.5 1256,-402.5"/>
<text text-anchor="middle" x="1306" y="-409.5" font-family="Helvetica,sans-Serif" font-size="10.00">FairRootManager.h</text>
</g>
<!-- Node1&#45;&gt;Node3 -->
<g id="edge2" class="edge"><title>Node1&#45;&gt;Node3</title>
<path fill="none" stroke="midnightblue" d="M1446.18,-464.894C1410.12,-451.546 1367.44,-435.745 1338.72,-425.114"/>
<polygon fill="midnightblue" stroke="midnightblue" points="1339.78,-421.772 1329.18,-421.583 1337.35,-428.337 1339.78,-421.772"/>
</g>
<!-- Node4 -->
<g id="node4" class="node"><title>Node4</title>
<g id="a_node4"><a xlink:href="../../d7/d3c/PHOS_2reconstruction_2include_2PHOSReconstruction_2ClustererTask_8h.html" target="_top" xlink:title="PHOSReconstruction\l/ClustererTask.h">
<polygon fill="none" stroke="black" points="1374.5,-397 1374.5,-427 1485.5,-427 1485.5,-397 1374.5,-397"/>
<text text-anchor="start" x="1382.5" y="-415" font-family="Helvetica,sans-Serif" font-size="10.00">PHOSReconstruction</text>
<text text-anchor="middle" x="1430" y="-404" font-family="Helvetica,sans-Serif" font-size="10.00">/ClustererTask.h</text>
</a>
</g>
</g>
<!-- Node1&#45;&gt;Node4 -->
<g id="edge3" class="edge"><title>Node1&#45;&gt;Node4</title>
<path fill="none" stroke="midnightblue" d="M1486.5,-464.787C1475.67,-454.861 1463.37,-443.592 1453.03,-434.106"/>
<polygon fill="midnightblue" stroke="midnightblue" points="1455.28,-431.429 1445.55,-427.252 1450.55,-436.589 1455.28,-431.429"/>
</g>
<!-- Node6 -->
<g id="node6" class="node"><title>Node6</title>
<g id="a_node6"><a xlink:href="../../d1/d34/PHOS_2reconstruction_2include_2PHOSReconstruction_2Clusterer_8h.html" target="_top" xlink:title="PHOSReconstruction\l/Clusterer.h">
<polygon fill="none" stroke="black" points="1382.5,-329 1382.5,-359 1493.5,-359 1493.5,-329 1382.5,-329"/>
<text text-anchor="start" x="1390.5" y="-347" font-family="Helvetica,sans-Serif" font-size="10.00">PHOSReconstruction</text>
<text text-anchor="middle" x="1438" y="-336" font-family="Helvetica,sans-Serif" font-size="10.00">/Clusterer.h</text>
</a>
</g>
</g>
<!-- Node1&#45;&gt;Node6 -->
<g id="edge7" class="edge"><title>Node1&#45;&gt;Node6</title>
<path fill="none" stroke="midnightblue" d="M1512.85,-464.958C1510.99,-445.111 1506.21,-417.274 1494,-396 1487.29,-384.3 1476.96,-373.788 1467,-365.39"/>
<polygon fill="midnightblue" stroke="midnightblue" points="1469.16,-362.635 1459.16,-359.126 1464.79,-368.104 1469.16,-362.635"/>
</g>
<!-- Node8 -->
<g id="node8" class="node"><title>Node8</title>
<g id="a_node8"><a xlink:href="../../d9/dad/Detectors_2PHOS_2reconstruction_2include_2PHOSReconstruction_2Cluster_8h.html" target="_top" xlink:title="PHOSReconstruction\l/Cluster.h">
<polygon fill="none" stroke="black" points="1580.5,-397 1580.5,-427 1691.5,-427 1691.5,-397 1580.5,-397"/>
<text text-anchor="start" x="1588.5" y="-415" font-family="Helvetica,sans-Serif" font-size="10.00">PHOSReconstruction</text>
<text text-anchor="middle" x="1636" y="-404" font-family="Helvetica,sans-Serif" font-size="10.00">/Cluster.h</text>
</a>
</g>
</g>
<!-- Node1&#45;&gt;Node8 -->
<g id="edge8" class="edge"><title>Node1&#45;&gt;Node8</title>
<path fill="none" stroke="midnightblue" d="M1553.95,-464.787C1570.56,-454.301 1589.55,-442.316 1605.07,-432.519"/>
<polygon fill="midnightblue" stroke="midnightblue" points="1607.18,-435.328 1613.77,-427.031 1603.44,-429.408 1607.18,-435.328"/>
</g>
<!-- Node9 -->
<g id="node9" class="node"><title>Node9</title>
<g id="a_node9"><a xlink:href="../../d8/de9/PHOS_2base_2include_2PHOSBase_2Digit_8h.html" target="_top" xlink:title="PHOSBase/Digit.h">
<polygon fill="none" stroke="black" points="1511.5,-334.5 1511.5,-353.5 1610.5,-353.5 1610.5,-334.5 1511.5,-334.5"/>
<text text-anchor="middle" x="1561" y="-341.5" font-family="Helvetica,sans-Serif" font-size="10.00">PHOSBase/Digit.h</text>
</a>
</g>
</g>
<!-- Node1&#45;&gt;Node9 -->
<g id="edge40" class="edge"><title>Node1&#45;&gt;Node9</title>
<path fill="none" stroke="midnightblue" d="M1522.19,-464.743C1531.58,-435.776 1546.74,-388.988 1555.06,-363.314"/>
<polygon fill="midnightblue" stroke="midnightblue" points="1558.42,-364.309 1558.17,-353.717 1551.76,-362.15 1558.42,-364.309"/>
</g>
<!-- Node32 -->
<g id="node32" class="node"><title>Node32</title>
<g id="a_node32"><a xlink:href="../../d7/d7f/PHOS_2base_2include_2PHOSBase_2Geometry_8h.html" target="_top" xlink:title="PHOSBase/Geometry.h">
<polygon fill="none" stroke="black" points="1710,-402.5 1710,-421.5 1832,-421.5 1832,-402.5 1710,-402.5"/>
<text text-anchor="middle" x="1771" y="-409.5" font-family="Helvetica,sans-Serif" font-size="10.00">PHOSBase/Geometry.h</text>
</a>
</g>
</g>
<!-- Node1&#45;&gt;Node32 -->
<g id="edge36" class="edge"><title>Node1&#45;&gt;Node32</title>
<path fill="none" stroke="midnightblue" d="M1593.21,-466.269C1639.58,-452.375 1696.05,-435.455 1732.73,-424.467"/>
<polygon fill="midnightblue" stroke="midnightblue" points="1733.95,-427.755 1742.52,-421.532 1731.94,-421.05 1733.95,-427.755"/>
</g>
<!-- Node5 -->
<g id="node5" class="node"><title>Node5</title>
<polygon fill="none" stroke="#bfbfbf" points="1301.5,-334.5 1301.5,-353.5 1364.5,-353.5 1364.5,-334.5 1301.5,-334.5"/>
<text text-anchor="middle" x="1333" y="-341.5" font-family="Helvetica,sans-Serif" font-size="10.00">FairTask.h</text>
</g>
<!-- Node4&#45;&gt;Node5 -->
<g id="edge4" class="edge"><title>Node4&#45;&gt;Node5</title>
<path fill="none" stroke="midnightblue" d="M1408.95,-396.679C1392.69,-385.611 1370.28,-370.363 1354.02,-359.3"/>
<polygon fill="midnightblue" stroke="midnightblue" points="1355.93,-356.37 1345.7,-353.638 1351.99,-362.157 1355.93,-356.37"/>
</g>
<!-- Node4&#45;&gt;Node6 -->
<g id="edge5" class="edge"><title>Node4&#45;&gt;Node6</title>
<path fill="none" stroke="midnightblue" d="M1431.74,-396.679C1432.7,-388.722 1433.93,-378.605 1435.04,-369.436"/>
<polygon fill="midnightblue" stroke="midnightblue" points="1438.54,-369.642 1436.27,-359.293 1431.59,-368.799 1438.54,-369.642"/>
</g>
<!-- Node7 -->
<g id="node7" class="node"><title>Node7</title>
<polygon fill="none" stroke="#bfbfbf" points="1601,-74.5 1601,-93.5 1657,-93.5 1657,-74.5 1601,-74.5"/>
<text text-anchor="middle" x="1629" y="-81.5" font-family="Helvetica,sans-Serif" font-size="10.00">Rtypes.h</text>
</g>
<!-- Node6&#45;&gt;Node7 -->
<g id="edge6" class="edge"><title>Node6&#45;&gt;Node7</title>
<path fill="none" stroke="midnightblue" d="M1436.24,-328.75C1433.47,-300.272 1430.99,-235.351 1459,-192 1476.68,-164.632 1559.13,-120.206 1602.37,-98.2074"/>
<polygon fill="midnightblue" stroke="midnightblue" points="1604.11,-101.248 1611.46,-93.6181 1600.96,-94.9992 1604.11,-101.248"/>
</g>
<!-- Node8&#45;&gt;Node9 -->
<g id="edge9" class="edge"><title>Node8&#45;&gt;Node9</title>
<path fill="none" stroke="midnightblue" d="M1619.73,-396.679C1607.68,-386.082 1591.29,-371.655 1578.88,-360.736"/>
<polygon fill="midnightblue" stroke="midnightblue" points="1580.85,-357.807 1571.03,-353.828 1576.23,-363.062 1580.85,-357.807"/>
</g>
<!-- Node11 -->
<g id="node11" class="node"><title>Node11</title>
<g id="a_node11"><a xlink:href="../../d7/dcd/MCCompLabel_8h.html" target="_top" xlink:title="SimulationDataFormat\l/MCCompLabel.h">
<polygon fill="none" stroke="black" points="1582,-261 1582,-291 1696,-291 1696,-261 1582,-261"/>
<text text-anchor="start" x="1590" y="-279" font-family="Helvetica,sans-Serif" font-size="10.00">SimulationDataFormat</text>
<text text-anchor="middle" x="1639" y="-268" font-family="Helvetica,sans-Serif" font-size="10.00">/MCCompLabel.h</text>
</a>
</g>
</g>
<!-- Node8&#45;&gt;Node11 -->
<g id="edge35" class="edge"><title>Node8&#45;&gt;Node11</title>
<path fill="none" stroke="midnightblue" d="M1636.32,-396.66C1636.83,-373.891 1637.83,-329.203 1638.45,-301.349"/>
<polygon fill="midnightblue" stroke="midnightblue" points="1641.96,-301.313 1638.68,-291.237 1634.96,-301.156 1641.96,-301.313"/>
</g>
<!-- Node10 -->
<g id="node10" class="node"><title>Node10</title>
<g id="a_node10"><a xlink:href="../../df/d5d/common_2include_2CommonDataFormat_2TimeStamp_8h.html" target="_top" xlink:title="CommonDataFormat/TimeStamp.h">
<polygon fill="none" stroke="black" points="1468,-198.5 1468,-217.5 1638,-217.5 1638,-198.5 1468,-198.5"/>
<text text-anchor="middle" x="1553" y="-205.5" font-family="Helvetica,sans-Serif" font-size="10.00">CommonDataFormat/TimeStamp.h</text>
</a>
</g>
</g>
<!-- Node9&#45;&gt;Node10 -->
<g id="edge10" class="edge"><title>Node9&#45;&gt;Node10</title>
<path fill="none" stroke="midnightblue" d="M1560.48,-334.208C1559.19,-312.722 1555.88,-257.167 1554.12,-227.814"/>
<polygon fill="midnightblue" stroke="midnightblue" points="1557.61,-227.424 1553.52,-217.65 1550.62,-227.841 1557.61,-227.424"/>
</g>
<!-- Node9&#45;&gt;Node11 -->
<g id="edge12" class="edge"><title>Node9&#45;&gt;Node11</title>
<path fill="none" stroke="midnightblue" d="M1571.2,-334.372C1582.14,-325.114 1599.91,-310.076 1614.52,-297.718"/>
<polygon fill="midnightblue" stroke="midnightblue" points="1616.87,-300.313 1622.24,-291.181 1612.35,-294.969 1616.87,-300.313"/>
</g>
<!-- Node12 -->
<g id="node12" class="node"><title>Node12</title>
<g id="a_node12"><a xlink:href="../../d1/def/PHOS_2base_2include_2PHOSBase_2Hit_8h.html" target="_top" xlink:title="PHOSBase/Hit.h">
<polygon fill="none" stroke="black" points="1008,-266.5 1008,-285.5 1100,-285.5 1100,-266.5 1008,-266.5"/>
<text text-anchor="middle" x="1054" y="-273.5" font-family="Helvetica,sans-Serif" font-size="10.00">PHOSBase/Hit.h</text>
</a>
</g>
</g>
<!-- Node9&#45;&gt;Node12 -->
<g id="edge14" class="edge"><title>Node9&#45;&gt;Node12</title>
<path fill="none" stroke="midnightblue" d="M1530.86,-334.498C1521.65,-332.129 1511.46,-329.733 1502,-328 1362.16,-302.386 1195.25,-287.446 1110.07,-280.927"/>
<polygon fill="midnightblue" stroke="midnightblue" points="1110.33,-277.437 1100.09,-280.174 1109.8,-284.417 1110.33,-277.437"/>
</g>
<!-- Node10&#45;&gt;Node7 -->
<g id="edge11" class="edge"><title>Node10&#45;&gt;Node7</title>
<path fill="none" stroke="midnightblue" d="M1558.47,-198.226C1570.95,-178.178 1601.77,-128.71 1618.23,-102.289"/>
<polygon fill="midnightblue" stroke="midnightblue" points="1621.27,-104.033 1623.58,-93.6944 1615.33,-100.332 1621.27,-104.033"/>
</g>
<!-- Node11&#45;&gt;Node7 -->
<g id="edge13" class="edge"><title>Node11&#45;&gt;Node7</title>
<path fill="none" stroke="midnightblue" d="M1641.84,-260.781C1643.72,-250.589 1646.02,-236.509 1647,-224 1650.38,-180.696 1640.29,-130.202 1633.88,-103.598"/>
<polygon fill="midnightblue" stroke="midnightblue" points="1637.24,-102.595 1631.4,-93.7496 1630.45,-104.301 1637.24,-102.595"/>
</g>
<!-- Node13 -->
<g id="node13" class="node"><title>Node13</title>
<g id="a_node13"><a xlink:href="../../d4/d25/BaseHits_8h.html" target="_top" xlink:title="SimulationDataFormat\l/BaseHits.h">
<polygon fill="none" stroke="black" points="997,-193 997,-223 1111,-223 1111,-193 997,-193"/>
<text text-anchor="start" x="1005" y="-211" font-family="Helvetica,sans-Serif" font-size="10.00">SimulationDataFormat</text>
<text text-anchor="middle" x="1054" y="-200" font-family="Helvetica,sans-Serif" font-size="10.00">/BaseHits.h</text>
</a>
</g>
</g>
<!-- Node12&#45;&gt;Node13 -->
<g id="edge15" class="edge"><title>Node12&#45;&gt;Node13</title>
<path fill="none" stroke="midnightblue" d="M1054,-266.372C1054,-257.971 1054,-244.811 1054,-233.213"/>
<polygon fill="midnightblue" stroke="midnightblue" points="1057.5,-233.181 1054,-223.181 1050.5,-233.181 1057.5,-233.181"/>
</g>
<!-- Node25 -->
<g id="node25" class="node"><title>Node25</title>
<g id="a_node25"><a xlink:href="../../d0/d91/ShmAllocator_8h.html" target="_top" xlink:title="CommonUtils/ShmAllocator.h">
<polygon fill="none" stroke="black" points="597,-198.5 597,-217.5 743,-217.5 743,-198.5 597,-198.5"/>
<text text-anchor="middle" x="670" y="-205.5" font-family="Helvetica,sans-Serif" font-size="10.00">CommonUtils/ShmAllocator.h</text>
</a>
</g>
</g>
<!-- Node12&#45;&gt;Node25 -->
<g id="edge28" class="edge"><title>Node12&#45;&gt;Node25</title>
<path fill="none" stroke="midnightblue" d="M1007.68,-267.039C938,-255.062 806.217,-232.412 729.507,-219.228"/>
<polygon fill="midnightblue" stroke="midnightblue" points="729.966,-215.755 719.518,-217.511 728.78,-222.654 729.966,-215.755"/>
</g>
<!-- Node14 -->
<g id="node14" class="node"><title>Node14</title>
<g id="a_node14"><a xlink:href="../../dd/d76/Cartesian3D_8h.html" target="_top" xlink:title="MathUtils/Cartesian3D.h">
<polygon fill="none" stroke="black" points="991.5,-136.5 991.5,-155.5 1116.5,-155.5 1116.5,-136.5 991.5,-136.5"/>
<text text-anchor="middle" x="1054" y="-143.5" font-family="Helvetica,sans-Serif" font-size="10.00">MathUtils/Cartesian3D.h</text>
</a>
</g>
</g>
<!-- Node13&#45;&gt;Node14 -->
<g id="edge16" class="edge"><title>Node13&#45;&gt;Node14</title>
<path fill="none" stroke="midnightblue" d="M1054,-192.781C1054,-184.781 1054,-174.689 1054,-166.017"/>
<polygon fill="midnightblue" stroke="midnightblue" points="1057.5,-165.73 1054,-155.731 1050.5,-165.731 1057.5,-165.73"/>
</g>
<!-- Node14&#45;&gt;Node7 -->
<g id="edge22" class="edge"><title>Node14&#45;&gt;Node7</title>
<path fill="none" stroke="midnightblue" d="M1116.53,-145.632C1217.64,-145.351 1422.7,-139.368 1591,-100 1594.25,-99.2407 1597.58,-98.2547 1600.86,-97.1507"/>
<polygon fill="midnightblue" stroke="midnightblue" points="1602.26,-100.366 1610.41,-93.5937 1599.81,-93.8064 1602.26,-100.366"/>
</g>
<!-- Node15 -->
<g id="node15" class="node"><title>Node15</title>
<polygon fill="none" stroke="#bfbfbf" points="1237.5,-69 1237.5,-99 1388.5,-99 1388.5,-69 1237.5,-69"/>
<text text-anchor="start" x="1245.5" y="-87" font-family="Helvetica,sans-Serif" font-size="10.00">Math/GenVector/Displacement</text>
<text text-anchor="middle" x="1313" y="-76" font-family="Helvetica,sans-Serif" font-size="10.00">Vector3D.h</text>
</g>
<!-- Node14&#45;&gt;Node15 -->
<g id="edge17" class="edge"><title>Node14&#45;&gt;Node15</title>
<path fill="none" stroke="midnightblue" d="M1090.83,-136.467C1130.16,-127.356 1193.43,-112.699 1242.42,-101.352"/>
<polygon fill="midnightblue" stroke="midnightblue" points="1243.37,-104.723 1252.32,-99.0565 1241.79,-97.9037 1243.37,-104.723"/>
</g>
<!-- Node16 -->
<g id="node16" class="node"><title>Node16</title>
<polygon fill="none" stroke="#bfbfbf" points="1407,-74.5 1407,-93.5 1583,-93.5 1583,-74.5 1407,-74.5"/>
<text text-anchor="middle" x="1495" y="-81.5" font-family="Helvetica,sans-Serif" font-size="10.00">Math/GenVector/PositionVector3D.h</text>
</g>
<!-- Node14&#45;&gt;Node16 -->
<g id="edge18" class="edge"><title>Node14&#45;&gt;Node16</title>
<path fill="none" stroke="midnightblue" d="M1116.64,-137.191C1185.45,-128.518 1299.19,-113.901 1397,-100 1407.83,-98.4611 1419.32,-96.7619 1430.48,-95.0769"/>
<polygon fill="midnightblue" stroke="midnightblue" points="1431.24,-98.5011 1440.6,-93.5383 1430.19,-91.5805 1431.24,-98.5011"/>
</g>
<!-- Node17 -->
<g id="node17" class="node"><title>Node17</title>
<polygon fill="none" stroke="#bfbfbf" points="417.5,-74.5 417.5,-93.5 566.5,-93.5 566.5,-74.5 417.5,-74.5"/>
<text text-anchor="middle" x="492" y="-81.5" font-family="Helvetica,sans-Serif" font-size="10.00">Math/GenVector/Rotation3D.h</text>
</g>
<!-- Node14&#45;&gt;Node17 -->
<g id="edge19" class="edge"><title>Node14&#45;&gt;Node17</title>
<path fill="none" stroke="midnightblue" d="M991.173,-140.752C899.608,-134.184 724.252,-120.18 576,-100 566.202,-98.6663 555.803,-97.0083 545.782,-95.2858"/>
<polygon fill="midnightblue" stroke="midnightblue" points="546.378,-91.8371 535.923,-93.5514 545.165,-98.7312 546.378,-91.8371"/>
</g>
<!-- Node18 -->
<g id="node18" class="node"><title>Node18</title>
<polygon fill="none" stroke="#bfbfbf" points="585,-74.5 585,-93.5 741,-93.5 741,-74.5 585,-74.5"/>
<text text-anchor="middle" x="663" y="-81.5" font-family="Helvetica,sans-Serif" font-size="10.00">Math/GenVector/Transform3D.h</text>
</g>
<!-- Node14&#45;&gt;Node18 -->
<g id="edge20" class="edge"><title>Node14&#45;&gt;Node18</title>
<path fill="none" stroke="midnightblue" d="M993.66,-136.499C932.273,-127.75 834.422,-113.524 750,-100 740.677,-98.5065 730.803,-96.8632 721.184,-95.2287"/>
<polygon fill="midnightblue" stroke="midnightblue" points="721.732,-91.7717 711.285,-93.5352 720.551,-98.6715 721.732,-91.7717"/>
</g>
<!-- Node19 -->
<g id="node19" class="node"><title>Node19</title>
<polygon fill="none" stroke="#bfbfbf" points="759,-74.5 759,-93.5 919,-93.5 919,-74.5 759,-74.5"/>
<text text-anchor="middle" x="839" y="-81.5" font-family="Helvetica,sans-Serif" font-size="10.00">Math/GenVector/Translation3D.h</text>
</g>
<!-- Node14&#45;&gt;Node19 -->
<g id="edge21" class="edge"><title>Node14&#45;&gt;Node19</title>
<path fill="none" stroke="midnightblue" d="M1023.2,-136.403C985.438,-125.866 921.339,-107.978 879.591,-96.3276"/>
<polygon fill="midnightblue" stroke="midnightblue" points="880.32,-92.8975 869.747,-93.5806 878.438,-99.6398 880.32,-92.8975"/>
</g>
<!-- Node20 -->
<g id="node20" class="node"><title>Node20</title>
<polygon fill="none" stroke="#bfbfbf" points="937,-74.5 937,-93.5 1013,-93.5 1013,-74.5 937,-74.5"/>
<text text-anchor="middle" x="975" y="-81.5" font-family="Helvetica,sans-Serif" font-size="10.00">TGeoMatrix.h</text>
</g>
<!-- Node14&#45;&gt;Node20 -->
<g id="edge23" class="edge"><title>Node14&#45;&gt;Node20</title>
<path fill="none" stroke="midnightblue" d="M1042.68,-136.403C1030.13,-126.869 1009.65,-111.315 994.501,-99.8106"/>
<polygon fill="midnightblue" stroke="midnightblue" points="996.378,-96.8417 986.298,-93.5806 992.144,-102.416 996.378,-96.8417"/>
</g>
<!-- Node21 -->
<g id="node21" class="node"><title>Node21</title>
<polygon fill="none" stroke="#bfbfbf" points="1031.5,-74.5 1031.5,-93.5 1076.5,-93.5 1076.5,-74.5 1031.5,-74.5"/>
<text text-anchor="middle" x="1054" y="-81.5" font-family="Helvetica,sans-Serif" font-size="10.00">iosfwd</text>
</g>
<!-- Node14&#45;&gt;Node21 -->
<g id="edge24" class="edge"><title>Node14&#45;&gt;Node21</title>
<path fill="none" stroke="midnightblue" d="M1054,-136.403C1054,-127.938 1054,-114.728 1054,-103.82"/>
<polygon fill="midnightblue" stroke="midnightblue" points="1057.5,-103.581 1054,-93.5806 1050.5,-103.581 1057.5,-103.581"/>
</g>
<!-- Node22 -->
<g id="node22" class="node"><title>Node22</title>
<g id="a_node22"><a xlink:href="../../d2/dd0/Cartesian2D_8h.html" target="_top" xlink:title="MathUtils/Cartesian2D.h">
<polygon fill="none" stroke="black" points="1094.5,-74.5 1094.5,-93.5 1219.5,-93.5 1219.5,-74.5 1094.5,-74.5"/>
<text text-anchor="middle" x="1157" y="-81.5" font-family="Helvetica,sans-Serif" font-size="10.00">MathUtils/Cartesian2D.h</text>
</a>
</g>
</g>
<!-- Node14&#45;&gt;Node22 -->
<g id="edge25" class="edge"><title>Node14&#45;&gt;Node22</title>
<path fill="none" stroke="midnightblue" d="M1068.76,-136.403C1085.66,-126.557 1113.58,-110.291 1133.49,-98.6949"/>
<polygon fill="midnightblue" stroke="midnightblue" points="1135.39,-101.638 1142.27,-93.5806 1131.87,-95.5898 1135.39,-101.638"/>
</g>
<!-- Node23 -->
<g id="node23" class="node"><title>Node23</title>
<polygon fill="none" stroke="#bfbfbf" points="990.5,-1 990.5,-31 1141.5,-31 1141.5,-1 990.5,-1"/>
<text text-anchor="start" x="998.5" y="-19" font-family="Helvetica,sans-Serif" font-size="10.00">Math/GenVector/Displacement</text>
<text text-anchor="middle" x="1066" y="-8" font-family="Helvetica,sans-Serif" font-size="10.00">Vector2D.h</text>
</g>
<!-- Node22&#45;&gt;Node23 -->
<g id="edge26" class="edge"><title>Node22&#45;&gt;Node23</title>
<path fill="none" stroke="midnightblue" d="M1145.1,-74.3717C1132.22,-65.0286 1111.22,-49.7966 1094.09,-37.375"/>
<polygon fill="midnightblue" stroke="midnightblue" points="1095.7,-34.2194 1085.55,-31.1815 1091.59,-39.8859 1095.7,-34.2194"/>
</g>
<!-- Node24 -->
<g id="node24" class="node"><title>Node24</title>
<polygon fill="none" stroke="#bfbfbf" points="1160,-6.5 1160,-25.5 1336,-25.5 1336,-6.5 1160,-6.5"/>
<text text-anchor="middle" x="1248" y="-13.5" font-family="Helvetica,sans-Serif" font-size="10.00">Math/GenVector/PositionVector2D.h</text>
</g>
<!-- Node22&#45;&gt;Node24 -->
<g id="edge27" class="edge"><title>Node22&#45;&gt;Node24</title>
<path fill="none" stroke="midnightblue" d="M1168.9,-74.3717C1183.88,-63.5015 1209.86,-44.6602 1227.94,-31.5474"/>
<polygon fill="midnightblue" stroke="midnightblue" points="1230.06,-34.3349 1236.1,-25.6305 1225.95,-28.6684 1230.06,-34.3349"/>
</g>
<!-- Node26 -->
<g id="node26" class="node"><title>Node26</title>
<g id="a_node26"><a xlink:href="../../de/d61/ShmManager_8h.html" target="_top" xlink:title="CommonUtils/ShmManager.h">
<polygon fill="none" stroke="black" points="245,-136.5 245,-155.5 391,-155.5 391,-136.5 245,-136.5"/>
<text text-anchor="middle" x="318" y="-143.5" font-family="Helvetica,sans-Serif" font-size="10.00">CommonUtils/ShmManager.h</text>
</a>
</g>
</g>
<!-- Node25&#45;&gt;Node26 -->
<g id="edge29" class="edge"><title>Node25&#45;&gt;Node26</title>
<path fill="none" stroke="midnightblue" d="M619.941,-198.467C556.211,-187.604 446.215,-168.855 378.043,-157.235"/>
<polygon fill="midnightblue" stroke="midnightblue" points="378.332,-153.734 367.887,-155.503 377.156,-160.634 378.332,-153.734"/>
</g>
<!-- Node31 -->
<g id="node31" class="node"><title>Node31</title>
<polygon fill="none" stroke="#bfbfbf" points="645.5,-136.5 645.5,-155.5 694.5,-155.5 694.5,-136.5 645.5,-136.5"/>
<text text-anchor="middle" x="670" y="-143.5" font-family="Helvetica,sans-Serif" font-size="10.00">cassert</text>
</g>
<!-- Node25&#45;&gt;Node31 -->
<g id="edge34" class="edge"><title>Node25&#45;&gt;Node31</title>
<path fill="none" stroke="midnightblue" d="M670,-198.403C670,-189.938 670,-176.728 670,-165.82"/>
<polygon fill="midnightblue" stroke="midnightblue" points="673.5,-165.581 670,-155.581 666.5,-165.581 673.5,-165.581"/>
</g>
<!-- Node27 -->
<g id="node27" class="node"><title>Node27</title>
<polygon fill="none" stroke="#bfbfbf" points="303.5,-74.5 303.5,-93.5 332.5,-93.5 332.5,-74.5 303.5,-74.5"/>
<text text-anchor="middle" x="318" y="-81.5" font-family="Helvetica,sans-Serif" font-size="10.00">list</text>
</g>
<!-- Node26&#45;&gt;Node27 -->
<g id="edge30" class="edge"><title>Node26&#45;&gt;Node27</title>
<path fill="none" stroke="midnightblue" d="M318,-136.403C318,-127.938 318,-114.728 318,-103.82"/>
<polygon fill="midnightblue" stroke="midnightblue" points="321.5,-103.581 318,-93.5806 314.5,-103.581 321.5,-103.581"/>
</g>
<!-- Node28 -->
<g id="node28" class="node"><title>Node28</title>
<polygon fill="none" stroke="#bfbfbf" points="350.5,-74.5 350.5,-93.5 399.5,-93.5 399.5,-74.5 350.5,-74.5"/>
<text text-anchor="middle" x="375" y="-81.5" font-family="Helvetica,sans-Serif" font-size="10.00">cstddef</text>
</g>
<!-- Node26&#45;&gt;Node28 -->
<g id="edge31" class="edge"><title>Node26&#45;&gt;Node28</title>
<path fill="none" stroke="midnightblue" d="M326.167,-136.403C334.886,-127.225 348.904,-112.47 359.689,-101.117"/>
<polygon fill="midnightblue" stroke="midnightblue" points="362.498,-103.241 366.848,-93.5806 357.423,-98.42 362.498,-103.241"/>
</g>
<!-- Node29 -->
<g id="node29" class="node"><title>Node29</title>
<polygon fill="none" stroke="#bfbfbf" points="0,-69 0,-99 148,-99 148,-69 0,-69"/>
<text text-anchor="start" x="8" y="-87" font-family="Helvetica,sans-Serif" font-size="10.00">boost/interprocess</text>
<text text-anchor="middle" x="74" y="-76" font-family="Helvetica,sans-Serif" font-size="10.00">/managed_external_buffer.hpp</text>
</g>
<!-- Node26&#45;&gt;Node29 -->
<g id="edge32" class="edge"><title>Node26&#45;&gt;Node29</title>
<path fill="none" stroke="midnightblue" d="M283.3,-136.467C246.404,-127.395 187.139,-112.821 141.076,-101.494"/>
<polygon fill="midnightblue" stroke="midnightblue" points="141.71,-98.0457 131.163,-99.0565 140.038,-104.843 141.71,-98.0457"/>
</g>
<!-- Node30 -->
<g id="node30" class="node"><title>Node30</title>
<polygon fill="none" stroke="#bfbfbf" points="166,-69 166,-99 286,-99 286,-69 166,-69"/>
<text text-anchor="start" x="174" y="-87" font-family="Helvetica,sans-Serif" font-size="10.00">boost/interprocess</text>
<text text-anchor="middle" x="226" y="-76" font-family="Helvetica,sans-Serif" font-size="10.00">/allocators/allocator.hpp</text>
</g>
<!-- Node26&#45;&gt;Node30 -->
<g id="edge33" class="edge"><title>Node26&#45;&gt;Node30</title>
<path fill="none" stroke="midnightblue" d="M304.819,-136.403C292.242,-128.201 272.836,-115.545 256.428,-104.844"/>
<polygon fill="midnightblue" stroke="midnightblue" points="257.971,-101.672 247.683,-99.1408 254.147,-107.535 257.971,-101.672"/>
</g>
<!-- Node33 -->
<g id="node33" class="node"><title>Node33</title>
<polygon fill="none" stroke="#bfbfbf" points="1671.5,-334.5 1671.5,-353.5 1712.5,-353.5 1712.5,-334.5 1671.5,-334.5"/>
<text text-anchor="middle" x="1692" y="-341.5" font-family="Helvetica,sans-Serif" font-size="10.00">string</text>
</g>
<!-- Node32&#45;&gt;Node33 -->
<g id="edge37" class="edge"><title>Node32&#45;&gt;Node33</title>
<path fill="none" stroke="midnightblue" d="M1760.67,-402.372C1747.9,-391.699 1725.93,-373.343 1710.28,-360.268"/>
<polygon fill="midnightblue" stroke="midnightblue" points="1712.25,-357.356 1702.33,-353.63 1707.76,-362.728 1712.25,-357.356"/>
</g>
<!-- Node34 -->
<g id="node34" class="node"><title>Node34</title>
<polygon fill="none" stroke="#bfbfbf" points="1731,-334.5 1731,-353.5 1811,-353.5 1811,-334.5 1731,-334.5"/>
<text text-anchor="middle" x="1771" y="-341.5" font-family="Helvetica,sans-Serif" font-size="10.00">RStringView.h</text>
</g>
<!-- Node32&#45;&gt;Node34 -->
<g id="edge38" class="edge"><title>Node32&#45;&gt;Node34</title>
<path fill="none" stroke="midnightblue" d="M1771,-402.372C1771,-392.643 1771,-376.528 1771,-363.85"/>
<polygon fill="midnightblue" stroke="midnightblue" points="1774.5,-363.841 1771,-353.841 1767.5,-363.841 1774.5,-363.841"/>
</g>
<!-- Node35 -->
<g id="node35" class="node"><title>Node35</title>
<polygon fill="none" stroke="#bfbfbf" points="1829.5,-334.5 1829.5,-353.5 1882.5,-353.5 1882.5,-334.5 1829.5,-334.5"/>
<text text-anchor="middle" x="1856" y="-341.5" font-family="Helvetica,sans-Serif" font-size="10.00">TMath.h</text>
</g>
<!-- Node32&#45;&gt;Node35 -->
<g id="edge39" class="edge"><title>Node32&#45;&gt;Node35</title>
<path fill="none" stroke="midnightblue" d="M1782.11,-402.372C1795.98,-391.6 1819.94,-373.002 1836.8,-359.906"/>
<polygon fill="midnightblue" stroke="midnightblue" points="1839.13,-362.528 1844.89,-353.63 1834.84,-356.999 1839.13,-362.528"/>
</g>
</g>
</svg>
