<?xml version="1.0" encoding="UTF-8" standalone="no"?>
<!DOCTYPE svg PUBLIC "-//W3C//DTD SVG 1.1//EN"
 "http://www.w3.org/Graphics/SVG/1.1/DTD/svg11.dtd">
<!-- Generated by graphviz version 2.36.0 (20140111.2315)
 -->
<!-- Title: o2::utils::TreeStream::TreeDataElement Pages: 1 -->
<svg width="202pt" height="194pt"
 viewBox="0.00 0.00 202.00 194.00" xmlns="http://www.w3.org/2000/svg" xmlns:xlink="http://www.w3.org/1999/xlink">
<g id="graph0" class="graph" transform="scale(1 1) rotate(0) translate(4 190)">
<title>o2::utils::TreeStream::TreeDataElement</title>
<!-- Node1 -->
<g id="node1" class="node"><title>Node1</title>
<polygon fill="#bfbfbf" stroke="black" points="19,-1 19,-69 127,-69 127,-1 19,-1"/>
<text text-anchor="start" x="27" y="-57" font-family="Helvetica,sans-Serif" font-size="10.00">o2::utils::TreeStream</text>
<text text-anchor="middle" x="73" y="-46" font-family="Helvetica,sans-Serif" font-size="10.00">::TreeDataElement</text>
<polyline fill="none" stroke="black" points="19,-39 127,-39 "/>
<text text-anchor="middle" x="73" y="-27" font-family="Helvetica,sans-Serif" font-size="10.00"> </text>
<polyline fill="none" stroke="black" points="19,-20 127,-20 "/>
<text text-anchor="middle" x="73" y="-8" font-family="Helvetica,sans-Serif" font-size="10.00"> </text>
</g>
<!-- Node2 -->
<g id="node2" class="node"><title>Node2</title>
<polygon fill="none" stroke="#bfbfbf" points="-0.5,-128.5 -0.5,-185.5 34.5,-185.5 34.5,-128.5 -0.5,-128.5"/>
<text text-anchor="middle" x="17" y="-173.5" font-family="Helvetica,sans-Serif" font-size="10.00">char</text>
<polyline fill="none" stroke="#bfbfbf" points="-0.5,-166.5 34.5,-166.5 "/>
<text text-anchor="middle" x="17" y="-154.5" font-family="Helvetica,sans-Serif" font-size="10.00"> </text>
<polyline fill="none" stroke="#bfbfbf" points="-0.5,-147.5 34.5,-147.5 "/>
<text text-anchor="middle" x="17" y="-135.5" font-family="Helvetica,sans-Serif" font-size="10.00"> </text>
</g>
<!-- Node2&#45;&gt;Node1 -->
<g id="edge1" class="edge"><title>Node2&#45;&gt;Node1</title>
<path fill="none" stroke="#404040" d="M23.6077,-128.174C27.0954,-115.582 31.9243,-100.708 38,-88 39.3143,-85.251 40.7598,-82.4813 42.2921,-79.7283"/>
<polygon fill="none" stroke="#404040" points="42.3844,-79.5737 42.0273,-72.3714 48.5382,-69.2717 48.8953,-76.474 42.3844,-79.5737"/>
<text text-anchor="middle" x="53.5" y="-102" font-family="Helvetica,sans-Serif" font-size="10.00"> +type</text>
<text text-anchor="middle" x="53.5" y="-91" font-family="Helvetica,sans-Serif" font-size="10.00">+name</text>
</g>
<!-- Node3 -->
<g id="node3" class="node"><title>Node3</title>
<polygon fill="none" stroke="#bfbfbf" points="52.5,-128.5 52.5,-185.5 93.5,-185.5 93.5,-128.5 52.5,-128.5"/>
<text text-anchor="middle" x="73" y="-173.5" font-family="Helvetica,sans-Serif" font-size="10.00">void *</text>
<polyline fill="none" stroke="#bfbfbf" points="52.5,-166.5 93.5,-166.5 "/>
<text text-anchor="middle" x="73" y="-154.5" font-family="Helvetica,sans-Serif" font-size="10.00"> </text>
<polyline fill="none" stroke="#bfbfbf" points="52.5,-147.5 93.5,-147.5 "/>
<text text-anchor="middle" x="73" y="-135.5" font-family="Helvetica,sans-Serif" font-size="10.00"> </text>
</g>
<!-- Node3&#45;&gt;Node1 -->
<g id="edge2" class="edge"><title>Node3&#45;&gt;Node1</title>
<path fill="none" stroke="#404040" d="M73,-128.47C73,-114.601 73,-97.4211 73,-81.647"/>
<polygon fill="none" stroke="#404040" points="73.0001,-81.3881 69,-75.3881 73,-69.3881 77,-75.388 73.0001,-81.3881"/>
<text text-anchor="middle" x="83.5" y="-96.5" font-family="Helvetica,sans-Serif" font-size="10.00"> +ptr</text>
</g>
<!-- Node4 -->
<g id="node4" class="node"><title>Node4</title>
<polygon fill="none" stroke="#bfbfbf" points="112,-128.5 112,-185.5 194,-185.5 194,-128.5 112,-128.5"/>
<text text-anchor="middle" x="153" y="-173.5" font-family="Helvetica,sans-Serif" font-size="10.00">const TClass *</text>
<polyline fill="none" stroke="#bfbfbf" points="112,-166.5 194,-166.5 "/>
<text text-anchor="middle" x="153" y="-154.5" font-family="Helvetica,sans-Serif" font-size="10.00"> </text>
<polyline fill="none" stroke="#bfbfbf" points="112,-147.5 194,-147.5 "/>
<text text-anchor="middle" x="153" y="-135.5" font-family="Helvetica,sans-Serif" font-size="10.00"> </text>
</g>
<!-- Node4&#45;&gt;Node1 -->
<g id="edge3" class="edge"><title>Node4&#45;&gt;Node1</title>
<path fill="none" stroke="#404040" d="M134.646,-128.47C125.035,-114.052 113.037,-96.0551 102.187,-79.7798"/>
<polygon fill="none" stroke="#404040" points="101.915,-79.3727 95.2587,-76.5992 95.2587,-69.3881 101.915,-72.1616 101.915,-79.3727"/>
<text text-anchor="middle" x="132" y="-96.5" font-family="Helvetica,sans-Serif" font-size="10.00"> +cls</text>
</g>
</g>
</svg>
