<?xml version="1.0" encoding="UTF-8" standalone="no"?>
<!DOCTYPE svg PUBLIC "-//W3C//DTD SVG 1.1//EN"
 "http://www.w3.org/Graphics/SVG/1.1/DTD/svg11.dtd">
<!-- Generated by graphviz version 2.36.0 (20140111.2315)
 -->
<!-- Title: o2::framework::Metric2DViewIndex Pages: 1 -->
<svg width="221pt" height="204pt"
 viewBox="0.00 0.00 221.00 204.00" xmlns="http://www.w3.org/2000/svg" xmlns:xlink="http://www.w3.org/1999/xlink">
<g id="graph0" class="graph" transform="scale(1 1) rotate(0) translate(4 200)">
<title>o2::framework::Metric2DViewIndex</title>
<!-- Node1 -->
<g id="node1" class="node"><title>Node1</title>
<polygon fill="#bfbfbf" stroke="black" points="1,-0.5 1,-79.5 147,-79.5 147,-0.5 1,-0.5"/>
<text text-anchor="start" x="9" y="-67.5" font-family="Helvetica,sans-Serif" font-size="10.00">o2::framework::Metric2DView</text>
<text text-anchor="middle" x="74" y="-56.5" font-family="Helvetica,sans-Serif" font-size="10.00">Index</text>
<polyline fill="none" stroke="black" points="1,-49.5 147,-49.5 "/>
<text text-anchor="middle" x="74" y="-37.5" font-family="Helvetica,sans-Serif" font-size="10.00"> </text>
<polyline fill="none" stroke="black" points="1,-30.5 147,-30.5 "/>
<text text-anchor="start" x="9" y="-18.5" font-family="Helvetica,sans-Serif" font-size="10.00">+ isComplete()</text>
<text text-anchor="start" x="9" y="-7.5" font-family="Helvetica,sans-Serif" font-size="10.00">+ getUpdater()</text>
</g>
<!-- Node2 -->
<g id="node2" class="node"><title>Node2</title>
<polygon fill="none" stroke="#bfbfbf" points="-0.5,-138.5 -0.5,-195.5 34.5,-195.5 34.5,-138.5 -0.5,-138.5"/>
<text text-anchor="middle" x="17" y="-183.5" font-family="Helvetica,sans-Serif" font-size="10.00">char</text>
<polyline fill="none" stroke="#bfbfbf" points="-0.5,-176.5 34.5,-176.5 "/>
<text text-anchor="middle" x="17" y="-164.5" font-family="Helvetica,sans-Serif" font-size="10.00"> </text>
<polyline fill="none" stroke="#bfbfbf" points="-0.5,-157.5 34.5,-157.5 "/>
<text text-anchor="middle" x="17" y="-145.5" font-family="Helvetica,sans-Serif" font-size="10.00"> </text>
</g>
<!-- Node2&#45;&gt;Node1 -->
<g id="edge1" class="edge"><title>Node2&#45;&gt;Node1</title>
<path fill="none" stroke="#404040" d="M22.5916,-138.498C25.6894,-125.835 30.1206,-110.812 36,-98 37.1928,-95.4007 38.4969,-92.7867 39.8807,-90.1838"/>
<polygon fill="none" stroke="#404040" points="39.9725,-90.0236 39.4848,-82.829 45.9384,-79.6116 46.4261,-86.8062 39.9725,-90.0236"/>
<text text-anchor="middle" x="53" y="-106.5" font-family="Helvetica,sans-Serif" font-size="10.00"> +prefix</text>
</g>
<!-- Node3 -->
<g id="node3" class="node"><title>Node3</title>
<polygon fill="none" stroke="#bfbfbf" points="59.5,-138.5 59.5,-195.5 88.5,-195.5 88.5,-138.5 59.5,-138.5"/>
<text text-anchor="middle" x="74" y="-183.5" font-family="Helvetica,sans-Serif" font-size="10.00">int</text>
<polyline fill="none" stroke="#bfbfbf" points="59.5,-176.5 88.5,-176.5 "/>
<text text-anchor="middle" x="74" y="-164.5" font-family="Helvetica,sans-Serif" font-size="10.00"> </text>
<polyline fill="none" stroke="#bfbfbf" points="59.5,-157.5 88.5,-157.5 "/>
<text text-anchor="middle" x="74" y="-145.5" font-family="Helvetica,sans-Serif" font-size="10.00"> </text>
</g>
<!-- Node3&#45;&gt;Node1 -->
<g id="edge2" class="edge"><title>Node3&#45;&gt;Node1</title>
<path fill="none" stroke="#404040" d="M74,-138.258C74,-124.637 74,-107.787 74,-91.9595"/>
<polygon fill="none" stroke="#404040" points="74.0001,-91.5667 70,-85.5668 74,-79.5667 78,-85.5667 74.0001,-91.5667"/>
<text text-anchor="middle" x="82.5" y="-112" font-family="Helvetica,sans-Serif" font-size="10.00"> +w</text>
<text text-anchor="middle" x="82.5" y="-101" font-family="Helvetica,sans-Serif" font-size="10.00">+h</text>
</g>
<!-- Node4 -->
<g id="node4" class="node"><title>Node4</title>
<polygon fill="none" stroke="#bfbfbf" points="106.5,-138.5 106.5,-195.5 213.5,-195.5 213.5,-138.5 106.5,-138.5"/>
<text text-anchor="middle" x="160" y="-183.5" font-family="Helvetica,sans-Serif" font-size="10.00">vector&lt; std::size_t &gt;</text>
<polyline fill="none" stroke="#bfbfbf" points="106.5,-176.5 213.5,-176.5 "/>
<text text-anchor="middle" x="160" y="-164.5" font-family="Helvetica,sans-Serif" font-size="10.00"> </text>
<polyline fill="none" stroke="#bfbfbf" points="106.5,-157.5 213.5,-157.5 "/>
<text text-anchor="middle" x="160" y="-145.5" font-family="Helvetica,sans-Serif" font-size="10.00"> </text>
</g>
<!-- Node4&#45;&gt;Node1 -->
<g id="edge3" class="edge"><title>Node4&#45;&gt;Node1</title>
<path fill="none" stroke="#404040" d="M140.914,-138.258C131.079,-123.963 118.796,-106.111 107.448,-89.6169"/>
<polygon fill="none" stroke="#404040" points="107.336,-89.4529 100.639,-86.7771 100.534,-79.5667 107.23,-82.2426 107.336,-89.4529"/>
<text text-anchor="middle" x="148.5" y="-106.5" font-family="Helvetica,sans-Serif" font-size="10.00"> +indexes</text>
</g>
</g>
</svg>
