<?xml version="1.0" encoding="UTF-8" standalone="no"?>
<!DOCTYPE svg PUBLIC "-//W3C//DTD SVG 1.1//EN"
 "http://www.w3.org/Graphics/SVG/1.1/DTD/svg11.dtd">
<!-- Generated by graphviz version 2.36.0 (20140111.2315)
 -->
<!-- Title: /home/travis/build/AliceO2Group/AliceO2/Detectors/HMPID/base/include/HMPIDBase/Hit.h Pages: 1 -->
<svg width="967pt" height="332pt"
 viewBox="0.00 0.00 967.00 332.00" xmlns="http://www.w3.org/2000/svg" xmlns:xlink="http://www.w3.org/1999/xlink">
<g id="graph0" class="graph" transform="scale(1 1) rotate(0) translate(4 328)">
<title>/home/travis/build/AliceO2Group/AliceO2/Detectors/HMPID/base/include/HMPIDBase/Hit.h</title>
<!-- Node1 -->
<g id="node1" class="node"><title>Node1</title>
<polygon fill="#bfbfbf" stroke="black" points="429.5,-271 429.5,-323 562.5,-323 562.5,-271 429.5,-271"/>
<text text-anchor="start" x="437.5" y="-311" font-family="Helvetica,sans-Serif" font-size="10.00">/home/travis/build</text>
<text text-anchor="start" x="437.5" y="-300" font-family="Helvetica,sans-Serif" font-size="10.00">/AliceO2Group/AliceO2</text>
<text text-anchor="start" x="437.5" y="-289" font-family="Helvetica,sans-Serif" font-size="10.00">/Detectors/HMPID/base</text>
<text text-anchor="middle" x="496" y="-278" font-family="Helvetica,sans-Serif" font-size="10.00">/include/HMPIDBase/Hit.h</text>
</g>
<!-- Node2 -->
<g id="node2" class="node"><title>Node2</title>
<g id="a_node2"><a xlink:href="../../d7/d09/HMPID_2base_2include_2HMPIDBase_2Digit_8h.html" target="_top" xlink:title="/home/travis/build\l/AliceO2Group/AliceO2\l/Detectors/HMPID/base\l/include/HMPIDBase/Digit.h">
<polygon fill="none" stroke="black" points="248,-181 248,-233 388,-233 388,-181 248,-181"/>
<text text-anchor="start" x="256" y="-221" font-family="Helvetica,sans-Serif" font-size="10.00">/home/travis/build</text>
<text text-anchor="start" x="256" y="-210" font-family="Helvetica,sans-Serif" font-size="10.00">/AliceO2Group/AliceO2</text>
<text text-anchor="start" x="256" y="-199" font-family="Helvetica,sans-Serif" font-size="10.00">/Detectors/HMPID/base</text>
<text text-anchor="middle" x="318" y="-188" font-family="Helvetica,sans-Serif" font-size="10.00">/include/HMPIDBase/Digit.h</text>
</a>
</g>
</g>
<!-- Node1&#45;&gt;Node2 -->
<g id="edge1" class="edge"><title>Node1&#45;&gt;Node2</title>
<path fill="none" stroke="midnightblue" d="M435.822,-266.249C414.014,-255.468 389.618,-243.407 368.707,-233.069"/>
<polygon fill="midnightblue" stroke="midnightblue" points="434.477,-269.488 444.992,-270.783 437.579,-263.213 434.477,-269.488"/>
</g>
<!-- Node8 -->
<g id="node8" class="node"><title>Node8</title>
<g id="a_node8"><a xlink:href="../../df/d79/HMPID_2simulation_2include_2HMPIDSimulation_2Detector_8h.html" target="_top" xlink:title="/home/travis/build\l/AliceO2Group/AliceO2\l/Detectors/HMPID/simulation\l/include/HMPIDSimulation/Detector.h">
<polygon fill="none" stroke="black" points="540.5,-181 540.5,-233 721.5,-233 721.5,-181 540.5,-181"/>
<text text-anchor="start" x="548.5" y="-221" font-family="Helvetica,sans-Serif" font-size="10.00">/home/travis/build</text>
<text text-anchor="start" x="548.5" y="-210" font-family="Helvetica,sans-Serif" font-size="10.00">/AliceO2Group/AliceO2</text>
<text text-anchor="start" x="548.5" y="-199" font-family="Helvetica,sans-Serif" font-size="10.00">/Detectors/HMPID/simulation</text>
<text text-anchor="middle" x="631" y="-188" font-family="Helvetica,sans-Serif" font-size="10.00">/include/HMPIDSimulation/Detector.h</text>
</a>
</g>
</g>
<!-- Node1&#45;&gt;Node8 -->
<g id="edge9" class="edge"><title>Node1&#45;&gt;Node8</title>
<path fill="none" stroke="midnightblue" d="M543.381,-265.114C559.388,-254.68 577.056,-243.163 592.309,-233.221"/>
<polygon fill="midnightblue" stroke="midnightblue" points="541.152,-262.39 534.686,-270.783 544.974,-268.254 541.152,-262.39"/>
</g>
<!-- Node3 -->
<g id="node3" class="node"><title>Node3</title>
<g id="a_node3"><a xlink:href="../../da/d5e/HMPID_2base_2src_2Digit_8cxx.html" target="_top" xlink:title="/home/travis/build\l/AliceO2Group/AliceO2\l/Detectors/HMPID/base\l/src/Digit.cxx">
<polygon fill="none" stroke="black" points="213,-91 213,-143 335,-143 335,-91 213,-91"/>
<text text-anchor="start" x="221" y="-131" font-family="Helvetica,sans-Serif" font-size="10.00">/home/travis/build</text>
<text text-anchor="start" x="221" y="-120" font-family="Helvetica,sans-Serif" font-size="10.00">/AliceO2Group/AliceO2</text>
<text text-anchor="start" x="221" y="-109" font-family="Helvetica,sans-Serif" font-size="10.00">/Detectors/HMPID/base</text>
<text text-anchor="middle" x="274" y="-98" font-family="Helvetica,sans-Serif" font-size="10.00">/src/Digit.cxx</text>
</a>
</g>
</g>
<!-- Node2&#45;&gt;Node3 -->
<g id="edge2" class="edge"><title>Node2&#45;&gt;Node3</title>
<path fill="none" stroke="midnightblue" d="M300.688,-171.376C295.968,-161.935 290.945,-151.891 286.546,-143.092"/>
<polygon fill="midnightblue" stroke="midnightblue" points="297.671,-173.168 305.273,-180.547 303.932,-170.037 297.671,-173.168"/>
</g>
<!-- Node4 -->
<g id="node4" class="node"><title>Node4</title>
<g id="a_node4"><a xlink:href="../../d7/d3d/HMPIDDigitizer_8h.html" target="_top" xlink:title="/home/travis/build\l/AliceO2Group/AliceO2\l/Detectors/HMPID/simulation\l/include/HMPIDSimulation/HMPIDDigitizer.h">
<polygon fill="none" stroke="black" points="391,-91 391,-143 603,-143 603,-91 391,-91"/>
<text text-anchor="start" x="399" y="-131" font-family="Helvetica,sans-Serif" font-size="10.00">/home/travis/build</text>
<text text-anchor="start" x="399" y="-120" font-family="Helvetica,sans-Serif" font-size="10.00">/AliceO2Group/AliceO2</text>
<text text-anchor="start" x="399" y="-109" font-family="Helvetica,sans-Serif" font-size="10.00">/Detectors/HMPID/simulation</text>
<text text-anchor="middle" x="497" y="-98" font-family="Helvetica,sans-Serif" font-size="10.00">/include/HMPIDSimulation/HMPIDDigitizer.h</text>
</a>
</g>
</g>
<!-- Node2&#45;&gt;Node4 -->
<g id="edge3" class="edge"><title>Node2&#45;&gt;Node4</title>
<path fill="none" stroke="midnightblue" d="M378.516,-176.249C400.446,-165.468 424.979,-153.407 446.008,-143.069"/>
<polygon fill="midnightblue" stroke="midnightblue" points="376.724,-173.23 369.294,-180.783 379.813,-179.512 376.724,-173.23"/>
</g>
<!-- Node5 -->
<g id="node5" class="node"><title>Node5</title>
<g id="a_node5"><a xlink:href="../../dc/d6e/HMPIDDigitizer_8cxx.html" target="_top" xlink:title="/home/travis/build\l/AliceO2Group/AliceO2\l/Detectors/HMPID/simulation\l/src/HMPIDDigitizer.cxx">
<polygon fill="none" stroke="black" points="186,-1 186,-53 332,-53 332,-1 186,-1"/>
<text text-anchor="start" x="194" y="-41" font-family="Helvetica,sans-Serif" font-size="10.00">/home/travis/build</text>
<text text-anchor="start" x="194" y="-30" font-family="Helvetica,sans-Serif" font-size="10.00">/AliceO2Group/AliceO2</text>
<text text-anchor="start" x="194" y="-19" font-family="Helvetica,sans-Serif" font-size="10.00">/Detectors/HMPID/simulation</text>
<text text-anchor="middle" x="259" y="-8" font-family="Helvetica,sans-Serif" font-size="10.00">/src/HMPIDDigitizer.cxx</text>
</a>
</g>
</g>
<!-- Node2&#45;&gt;Node5 -->
<g id="edge6" class="edge"><title>Node2&#45;&gt;Node5</title>
<path fill="none" stroke="midnightblue" d="M239.093,-177.729C225.095,-169.089 212.342,-158.033 204,-144 191.736,-123.37 195.482,-112.438 204,-90 209.26,-76.1444 219.191,-63.4016 229.182,-53.1191"/>
<polygon fill="midnightblue" stroke="midnightblue" points="237.526,-180.865 247.942,-182.802 241.007,-174.792 237.526,-180.865"/>
</g>
<!-- Node6 -->
<g id="node6" class="node"><title>Node6</title>
<g id="a_node6"><a xlink:href="../../d8/d00/HMPIDDigitizerSpec_8cxx.html" target="_top" xlink:title="/home/travis/build\l/AliceO2Group/AliceO2\l/Steer/DigitizerWorkflow\l/src/HMPIDDigitizerSpec.cxx">
<polygon fill="none" stroke="black" points="424,-1 424,-53 570,-53 570,-1 424,-1"/>
<text text-anchor="start" x="432" y="-41" font-family="Helvetica,sans-Serif" font-size="10.00">/home/travis/build</text>
<text text-anchor="start" x="432" y="-30" font-family="Helvetica,sans-Serif" font-size="10.00">/AliceO2Group/AliceO2</text>
<text text-anchor="start" x="432" y="-19" font-family="Helvetica,sans-Serif" font-size="10.00">/Steer/DigitizerWorkflow</text>
<text text-anchor="middle" x="497" y="-8" font-family="Helvetica,sans-Serif" font-size="10.00">/src/HMPIDDigitizerSpec.cxx</text>
</a>
</g>
</g>
<!-- Node2&#45;&gt;Node6 -->
<g id="edge7" class="edge"><title>Node2&#45;&gt;Node6</title>
<path fill="none" stroke="midnightblue" d="M334.18,-171.795C348.611,-142.295 369.355,-102.523 382,-90 397.149,-74.9971 416.678,-62.6526 435.328,-53.0372"/>
<polygon fill="midnightblue" stroke="midnightblue" points="330.948,-170.439 329.735,-180.964 337.247,-173.493 330.948,-170.439"/>
</g>
<!-- Node7 -->
<g id="node7" class="node"><title>Node7</title>
<g id="a_node7"><a xlink:href="../../dc/dbc/HMPIDDigitWriterSpec_8cxx.html" target="_top" xlink:title="/home/travis/build\l/AliceO2Group/AliceO2\l/Steer/DigitizerWorkflow\l/src/HMPIDDigitWriterSpec.cxx">
<polygon fill="none" stroke="black" points="-0.5,-91 -0.5,-143 156.5,-143 156.5,-91 -0.5,-91"/>
<text text-anchor="start" x="7.5" y="-131" font-family="Helvetica,sans-Serif" font-size="10.00">/home/travis/build</text>
<text text-anchor="start" x="7.5" y="-120" font-family="Helvetica,sans-Serif" font-size="10.00">/AliceO2Group/AliceO2</text>
<text text-anchor="start" x="7.5" y="-109" font-family="Helvetica,sans-Serif" font-size="10.00">/Steer/DigitizerWorkflow</text>
<text text-anchor="middle" x="78" y="-98" font-family="Helvetica,sans-Serif" font-size="10.00">/src/HMPIDDigitWriterSpec.cxx</text>
</a>
</g>
</g>
<!-- Node2&#45;&gt;Node7 -->
<g id="edge8" class="edge"><title>Node2&#45;&gt;Node7</title>
<path fill="none" stroke="midnightblue" d="M239.925,-177.372C209.818,-166.333 175.684,-153.817 146.544,-143.133"/>
<polygon fill="midnightblue" stroke="midnightblue" points="238.953,-180.744 249.547,-180.901 241.363,-174.172 238.953,-180.744"/>
</g>
<!-- Node4&#45;&gt;Node5 -->
<g id="edge4" class="edge"><title>Node4&#45;&gt;Node5</title>
<path fill="none" stroke="midnightblue" d="M419.575,-87.3724C389.719,-76.3332 355.87,-63.8175 326.973,-53.1328"/>
<polygon fill="midnightblue" stroke="midnightblue" points="418.524,-90.7152 429.117,-90.9005 420.952,-84.1496 418.524,-90.7152"/>
</g>
<!-- Node4&#45;&gt;Node6 -->
<g id="edge5" class="edge"><title>Node4&#45;&gt;Node6</title>
<path fill="none" stroke="midnightblue" d="M497,-80.4892C497,-71.3088 497,-61.616 497,-53.0921"/>
<polygon fill="midnightblue" stroke="midnightblue" points="493.5,-80.5467 497,-90.5468 500.5,-80.5468 493.5,-80.5467"/>
</g>
<!-- Node8&#45;&gt;Node4 -->
<g id="edge10" class="edge"><title>Node8&#45;&gt;Node4</title>
<path fill="none" stroke="midnightblue" d="M583.969,-175.114C568.081,-164.68 550.544,-153.163 535.405,-143.221"/>
<polygon fill="midnightblue" stroke="midnightblue" points="582.321,-178.219 592.601,-180.783 586.164,-172.368 582.321,-178.219"/>
</g>
<!-- Node8&#45;&gt;Node6 -->
<g id="edge15" class="edge"><title>Node8&#45;&gt;Node6</title>
<path fill="none" stroke="midnightblue" d="M632.677,-170.92C632.137,-146.176 627.768,-113.402 611,-90 599.781,-74.3417 583.34,-62.2269 566.416,-53.0351"/>
<polygon fill="midnightblue" stroke="midnightblue" points="629.177,-170.99 632.698,-180.982 636.177,-170.975 629.177,-170.99"/>
</g>
<!-- Node9 -->
<g id="node9" class="node"><title>Node9</title>
<g id="a_node9"><a xlink:href="../../d7/d24/HMPID_2simulation_2src_2Detector_8cxx.html" target="_top" xlink:title="/home/travis/build\l/AliceO2Group/AliceO2\l/Detectors/HMPID/simulation\l/src/Detector.cxx">
<polygon fill="none" stroke="black" points="659,-91 659,-143 805,-143 805,-91 659,-91"/>
<text text-anchor="start" x="667" y="-131" font-family="Helvetica,sans-Serif" font-size="10.00">/home/travis/build</text>
<text text-anchor="start" x="667" y="-120" font-family="Helvetica,sans-Serif" font-size="10.00">/AliceO2Group/AliceO2</text>
<text text-anchor="start" x="667" y="-109" font-family="Helvetica,sans-Serif" font-size="10.00">/Detectors/HMPID/simulation</text>
<text text-anchor="middle" x="732" y="-98" font-family="Helvetica,sans-Serif" font-size="10.00">/src/Detector.cxx</text>
</a>
</g>
</g>
<!-- Node8&#45;&gt;Node9 -->
<g id="edge11" class="edge"><title>Node8&#45;&gt;Node9</title>
<path fill="none" stroke="midnightblue" d="M667.784,-173.951C679.401,-163.829 692.065,-152.795 703.053,-143.221"/>
<polygon fill="midnightblue" stroke="midnightblue" points="665.183,-171.575 659.943,-180.783 669.781,-176.852 665.183,-171.575"/>
</g>
<!-- Node10 -->
<g id="node10" class="node"><title>Node10</title>
<g id="a_node10"><a xlink:href="../../db/d50/O2HitMerger_8h.html" target="_top" xlink:title="/home/travis/build\l/AliceO2Group/AliceO2\l/run/O2HitMerger.h">
<polygon fill="none" stroke="black" points="823,-96.5 823,-137.5 941,-137.5 941,-96.5 823,-96.5"/>
<text text-anchor="start" x="831" y="-125.5" font-family="Helvetica,sans-Serif" font-size="10.00">/home/travis/build</text>
<text text-anchor="start" x="831" y="-114.5" font-family="Helvetica,sans-Serif" font-size="10.00">/AliceO2Group/AliceO2</text>
<text text-anchor="middle" x="882" y="-103.5" font-family="Helvetica,sans-Serif" font-size="10.00">/run/O2HitMerger.h</text>
</a>
</g>
</g>
<!-- Node8&#45;&gt;Node10 -->
<g id="edge12" class="edge"><title>Node8&#45;&gt;Node10</title>
<path fill="none" stroke="midnightblue" d="M717.157,-177.571C747.818,-167.253 782.534,-155.341 814,-144 819.707,-141.943 825.665,-139.743 831.579,-137.527"/>
<polygon fill="midnightblue" stroke="midnightblue" points="715.72,-174.361 707.354,-180.862 717.948,-180.997 715.72,-174.361"/>
</g>
<!-- Node10&#45;&gt;Node10 -->
<g id="edge13" class="edge"><title>Node10&#45;&gt;Node10</title>
<path fill="none" stroke="midnightblue" d="M950.662,-129.611C955.826,-126.798 959,-122.595 959,-117 959,-108.475 951.63,-103.18 941.079,-101.115"/>
<polygon fill="midnightblue" stroke="midnightblue" points="949.41,-126.34 941.079,-132.885 951.674,-132.964 949.41,-126.34"/>
</g>
<!-- Node11 -->
<g id="node11" class="node"><title>Node11</title>
<g id="a_node11"><a xlink:href="../../d9/d16/O2HitMergerRunner_8cxx.html" target="_top" xlink:title="/home/travis/build\l/AliceO2Group/AliceO2\l/run/O2HitMergerRunner.cxx">
<polygon fill="none" stroke="black" points="811,-6.5 811,-47.5 953,-47.5 953,-6.5 811,-6.5"/>
<text text-anchor="start" x="819" y="-35.5" font-family="Helvetica,sans-Serif" font-size="10.00">/home/travis/build</text>
<text text-anchor="start" x="819" y="-24.5" font-family="Helvetica,sans-Serif" font-size="10.00">/AliceO2Group/AliceO2</text>
<text text-anchor="middle" x="882" y="-13.5" font-family="Helvetica,sans-Serif" font-size="10.00">/run/O2HitMergerRunner.cxx</text>
</a>
</g>
</g>
<!-- Node10&#45;&gt;Node11 -->
<g id="edge14" class="edge"><title>Node10&#45;&gt;Node11</title>
<path fill="none" stroke="midnightblue" d="M882,-86.3298C882,-73.6289 882,-59.1399 882,-47.7798"/>
<polygon fill="midnightblue" stroke="midnightblue" points="878.5,-86.4699 882,-96.4699 885.5,-86.47 878.5,-86.4699"/>
</g>
</g>
</svg>
