<?xml version="1.0" encoding="UTF-8" standalone="no"?>
<!DOCTYPE svg PUBLIC "-//W3C//DTD SVG 1.1//EN"
 "http://www.w3.org/Graphics/SVG/1.1/DTD/svg11.dtd">
<!-- Generated by graphviz version 2.36.0 (20140111.2315)
 -->
<!-- Title: /home/travis/build/AliceO2Group/AliceO2/DataFormats/Detectors/ITSMFT/common/include/DataFormatsITSMFT/ClusterPattern.h Pages: 1 -->
<svg width="1556pt" height="574pt"
 viewBox="0.00 0.00 1556.35 574.00" xmlns="http://www.w3.org/2000/svg" xmlns:xlink="http://www.w3.org/1999/xlink">
<g id="graph0" class="graph" transform="scale(1 1) rotate(0) translate(4 570)">
<title>/home/travis/build/AliceO2Group/AliceO2/DataFormats/Detectors/ITSMFT/common/include/DataFormatsITSMFT/ClusterPattern.h</title>
<!-- Node1 -->
<g id="node1" class="node"><title>Node1</title>
<polygon fill="#bfbfbf" stroke="black" points="926.853,-502.5 926.853,-565.5 1113.85,-565.5 1113.85,-502.5 926.853,-502.5"/>
<text text-anchor="start" x="934.853" y="-553.5" font-family="Helvetica,sans-Serif" font-size="10.00">/home/travis/build</text>
<text text-anchor="start" x="934.853" y="-542.5" font-family="Helvetica,sans-Serif" font-size="10.00">/AliceO2Group/AliceO2</text>
<text text-anchor="start" x="934.853" y="-531.5" font-family="Helvetica,sans-Serif" font-size="10.00">/DataFormats/Detectors</text>
<text text-anchor="start" x="934.853" y="-520.5" font-family="Helvetica,sans-Serif" font-size="10.00">/ITSMFT/common/include</text>
<text text-anchor="middle" x="1020.35" y="-509.5" font-family="Helvetica,sans-Serif" font-size="10.00">/DataFormatsITSMFT/ClusterPattern.h</text>
</g>
<!-- Node2 -->
<g id="node2" class="node"><title>Node2</title>
<g id="a_node2"><a xlink:href="../../d8/ddb/ClusterTopology_8h.html" target="_top" xlink:title="Definition of the ClusterTopology class. ">
<polygon fill="none" stroke="black" points="391.853,-402.5 391.853,-465.5 586.853,-465.5 586.853,-402.5 391.853,-402.5"/>
<text text-anchor="start" x="399.853" y="-453.5" font-family="Helvetica,sans-Serif" font-size="10.00">/home/travis/build</text>
<text text-anchor="start" x="399.853" y="-442.5" font-family="Helvetica,sans-Serif" font-size="10.00">/AliceO2Group/AliceO2</text>
<text text-anchor="start" x="399.853" y="-431.5" font-family="Helvetica,sans-Serif" font-size="10.00">/DataFormats/Detectors</text>
<text text-anchor="start" x="399.853" y="-420.5" font-family="Helvetica,sans-Serif" font-size="10.00">/ITSMFT/common/include</text>
<text text-anchor="middle" x="489.353" y="-409.5" font-family="Helvetica,sans-Serif" font-size="10.00">/DataFormatsITSMFT/ClusterTopology.h</text>
</a>
</g>
</g>
<!-- Node1&#45;&gt;Node2 -->
<g id="edge1" class="edge"><title>Node1&#45;&gt;Node2</title>
<path fill="none" stroke="midnightblue" d="M916.68,-513.867C821.208,-496.246 680.601,-470.296 587.066,-453.034"/>
<polygon fill="midnightblue" stroke="midnightblue" points="916.174,-517.332 926.643,-515.705 917.444,-510.448 916.174,-517.332"/>
</g>
<!-- Node22 -->
<g id="node22" class="node"><title>Node22</title>
<g id="a_node22"><a xlink:href="../../d3/d1e/dictionary__integrity__test_8C.html" target="_top" xlink:title="/home/travis/build\l/AliceO2Group/AliceO2\l/Detectors/ITSMFT/ITS\l/macros/test/dictionary\l_integrity_test.C">
<polygon fill="none" stroke="black" points="1335.35,-190.5 1335.35,-253.5 1455.35,-253.5 1455.35,-190.5 1335.35,-190.5"/>
<text text-anchor="start" x="1343.35" y="-241.5" font-family="Helvetica,sans-Serif" font-size="10.00">/home/travis/build</text>
<text text-anchor="start" x="1343.35" y="-230.5" font-family="Helvetica,sans-Serif" font-size="10.00">/AliceO2Group/AliceO2</text>
<text text-anchor="start" x="1343.35" y="-219.5" font-family="Helvetica,sans-Serif" font-size="10.00">/Detectors/ITSMFT/ITS</text>
<text text-anchor="start" x="1343.35" y="-208.5" font-family="Helvetica,sans-Serif" font-size="10.00">/macros/test/dictionary</text>
<text text-anchor="middle" x="1395.35" y="-197.5" font-family="Helvetica,sans-Serif" font-size="10.00">_integrity_test.C</text>
</a>
</g>
</g>
<!-- Node1&#45;&gt;Node22 -->
<g id="edge37" class="edge"><title>Node1&#45;&gt;Node22</title>
<path fill="none" stroke="midnightblue" d="M1124.14,-516.528C1210.83,-496.79 1329.58,-454.522 1389.35,-366 1411.74,-332.844 1408.34,-284.832 1402.74,-253.764"/>
<polygon fill="midnightblue" stroke="midnightblue" points="1123.27,-513.135 1114.26,-518.711 1124.78,-519.97 1123.27,-513.135"/>
</g>
<!-- Node23 -->
<g id="node23" class="node"><title>Node23</title>
<g id="a_node23"><a xlink:href="../../d1/d08/TopologyDictionary_8h.html" target="_top" xlink:title="Definition of the ClusterTopology class. ">
<polygon fill="none" stroke="black" points="916.353,-402.5 916.353,-465.5 1124.35,-465.5 1124.35,-402.5 916.353,-402.5"/>
<text text-anchor="start" x="924.353" y="-453.5" font-family="Helvetica,sans-Serif" font-size="10.00">/home/travis/build</text>
<text text-anchor="start" x="924.353" y="-442.5" font-family="Helvetica,sans-Serif" font-size="10.00">/AliceO2Group/AliceO2</text>
<text text-anchor="start" x="924.353" y="-431.5" font-family="Helvetica,sans-Serif" font-size="10.00">/DataFormats/Detectors</text>
<text text-anchor="start" x="924.353" y="-420.5" font-family="Helvetica,sans-Serif" font-size="10.00">/ITSMFT/common/include</text>
<text text-anchor="middle" x="1020.35" y="-409.5" font-family="Helvetica,sans-Serif" font-size="10.00">/DataFormatsITSMFT/TopologyDictionary.h</text>
</a>
</g>
</g>
<!-- Node1&#45;&gt;Node23 -->
<g id="edge30" class="edge"><title>Node1&#45;&gt;Node23</title>
<path fill="none" stroke="midnightblue" d="M1020.35,-492.099C1020.35,-483.238 1020.35,-474.015 1020.35,-465.63"/>
<polygon fill="midnightblue" stroke="midnightblue" points="1016.85,-492.261 1020.35,-502.261 1023.85,-492.261 1016.85,-492.261"/>
</g>
<!-- Node3 -->
<g id="node3" class="node"><title>Node3</title>
<g id="a_node3"><a xlink:href="../../dc/d1a/ClusterPattern_8cxx.html" target="_top" xlink:title="/home/travis/build\l/AliceO2Group/AliceO2\l/DataFormats/Detectors\l/ITSMFT/common/src/ClusterPattern.cxx">
<polygon fill="none" stroke="black" points="285.853,-302 285.853,-354 482.853,-354 482.853,-302 285.853,-302"/>
<text text-anchor="start" x="293.853" y="-342" font-family="Helvetica,sans-Serif" font-size="10.00">/home/travis/build</text>
<text text-anchor="start" x="293.853" y="-331" font-family="Helvetica,sans-Serif" font-size="10.00">/AliceO2Group/AliceO2</text>
<text text-anchor="start" x="293.853" y="-320" font-family="Helvetica,sans-Serif" font-size="10.00">/DataFormats/Detectors</text>
<text text-anchor="middle" x="384.353" y="-309" font-family="Helvetica,sans-Serif" font-size="10.00">/ITSMFT/common/src/ClusterPattern.cxx</text>
</a>
</g>
</g>
<!-- Node2&#45;&gt;Node3 -->
<g id="edge2" class="edge"><title>Node2&#45;&gt;Node3</title>
<path fill="none" stroke="midnightblue" d="M450.962,-394.975C437.239,-381.383 422.127,-366.414 409.77,-354.175"/>
<polygon fill="midnightblue" stroke="midnightblue" points="448.849,-397.809 458.417,-402.359 453.775,-392.835 448.849,-397.809"/>
</g>
<!-- Node4 -->
<g id="node4" class="node"><title>Node4</title>
<g id="a_node4"><a xlink:href="../../d8/d49/ClusterTopology_8cxx.html" target="_top" xlink:title="Implementation of the ClusterPattern class. ">
<polygon fill="none" stroke="black" points="23.3526,-302 23.3526,-354 229.353,-354 229.353,-302 23.3526,-302"/>
<text text-anchor="start" x="31.3526" y="-342" font-family="Helvetica,sans-Serif" font-size="10.00">/home/travis/build</text>
<text text-anchor="start" x="31.3526" y="-331" font-family="Helvetica,sans-Serif" font-size="10.00">/AliceO2Group/AliceO2</text>
<text text-anchor="start" x="31.3526" y="-320" font-family="Helvetica,sans-Serif" font-size="10.00">/DataFormats/Detectors</text>
<text text-anchor="middle" x="126.353" y="-309" font-family="Helvetica,sans-Serif" font-size="10.00">/ITSMFT/common/src/ClusterTopology.cxx</text>
</a>
</g>
</g>
<!-- Node2&#45;&gt;Node4 -->
<g id="edge3" class="edge"><title>Node2&#45;&gt;Node4</title>
<path fill="none" stroke="midnightblue" d="M382.145,-404.81C338.92,-393.181 288.655,-379.326 243.353,-366 230.579,-362.242 217.068,-358.114 203.943,-354.02"/>
<polygon fill="midnightblue" stroke="midnightblue" points="381.261,-408.196 391.826,-407.409 383.076,-401.435 381.261,-408.196"/>
</g>
<!-- Node5 -->
<g id="node5" class="node"><title>Node5</title>
<g id="a_node5"><a xlink:href="../../d9/d1d/BuildTopologyDictionary_8h.html" target="_top" xlink:title="Definition of the BuildTopologyDictionary class. ">
<polygon fill="none" stroke="black" points="501.353,-291 501.353,-365 687.353,-365 687.353,-291 501.353,-291"/>
<text text-anchor="start" x="509.353" y="-353" font-family="Helvetica,sans-Serif" font-size="10.00">/home/travis/build</text>
<text text-anchor="start" x="509.353" y="-342" font-family="Helvetica,sans-Serif" font-size="10.00">/AliceO2Group/AliceO2</text>
<text text-anchor="start" x="509.353" y="-331" font-family="Helvetica,sans-Serif" font-size="10.00">/Detectors/ITSMFT/common</text>
<text text-anchor="start" x="509.353" y="-320" font-family="Helvetica,sans-Serif" font-size="10.00">/reconstruction/include</text>
<text text-anchor="start" x="509.353" y="-309" font-family="Helvetica,sans-Serif" font-size="10.00">/ITSMFTReconstruction/BuildTopology</text>
<text text-anchor="middle" x="594.353" y="-298" font-family="Helvetica,sans-Serif" font-size="10.00">Dictionary.h</text>
</a>
</g>
</g>
<!-- Node2&#45;&gt;Node5 -->
<g id="edge4" class="edge"><title>Node2&#45;&gt;Node5</title>
<path fill="none" stroke="midnightblue" d="M527.63,-395.087C537.446,-385.364 547.98,-374.931 557.712,-365.292"/>
<polygon fill="midnightblue" stroke="midnightblue" points="524.93,-392.835 520.288,-402.359 529.856,-397.809 524.93,-392.835"/>
</g>
<!-- Node7 -->
<g id="node7" class="node"><title>Node7</title>
<g id="a_node7"><a xlink:href="../../d6/de5/CheckLookUp_8C.html" target="_top" xlink:title="/home/travis/build\l/AliceO2Group/AliceO2\l/Detectors/ITSMFT/ITS\l/macros/test/CheckLookUp.C">
<polygon fill="none" stroke="black" points="285.853,-196 285.853,-248 432.853,-248 432.853,-196 285.853,-196"/>
<text text-anchor="start" x="293.853" y="-236" font-family="Helvetica,sans-Serif" font-size="10.00">/home/travis/build</text>
<text text-anchor="start" x="293.853" y="-225" font-family="Helvetica,sans-Serif" font-size="10.00">/AliceO2Group/AliceO2</text>
<text text-anchor="start" x="293.853" y="-214" font-family="Helvetica,sans-Serif" font-size="10.00">/Detectors/ITSMFT/ITS</text>
<text text-anchor="middle" x="359.353" y="-203" font-family="Helvetica,sans-Serif" font-size="10.00">/macros/test/CheckLookUp.C</text>
</a>
</g>
</g>
<!-- Node2&#45;&gt;Node7 -->
<g id="edge27" class="edge"><title>Node2&#45;&gt;Node7</title>
<path fill="none" stroke="midnightblue" d="M381.747,-425.301C342.079,-416.614 300.877,-399.423 276.353,-366 256.37,-338.767 261.787,-320.476 276.353,-290 284.498,-272.957 299.329,-258.859 314.225,-248.065"/>
<polygon fill="midnightblue" stroke="midnightblue" points="381.293,-428.78 391.788,-427.332 382.68,-421.919 381.293,-428.78"/>
</g>
<!-- Node8 -->
<g id="node8" class="node"><title>Node8</title>
<g id="a_node8"><a xlink:href="../../d8/d77/CheckLUtime_8C.html" target="_top" xlink:title="Macro to measure the time necessaty for the identification of the topology IDs of the clusters genera...">
<polygon fill="none" stroke="black" points="450.853,-196 450.853,-248 595.853,-248 595.853,-196 450.853,-196"/>
<text text-anchor="start" x="458.853" y="-236" font-family="Helvetica,sans-Serif" font-size="10.00">/home/travis/build</text>
<text text-anchor="start" x="458.853" y="-225" font-family="Helvetica,sans-Serif" font-size="10.00">/AliceO2Group/AliceO2</text>
<text text-anchor="start" x="458.853" y="-214" font-family="Helvetica,sans-Serif" font-size="10.00">/Detectors/ITSMFT/ITS</text>
<text text-anchor="middle" x="523.353" y="-203" font-family="Helvetica,sans-Serif" font-size="10.00">/macros/test/CheckLUtime.C</text>
</a>
</g>
</g>
<!-- Node2&#45;&gt;Node8 -->
<g id="edge28" class="edge"><title>Node2&#45;&gt;Node8</title>
<path fill="none" stroke="midnightblue" d="M596.963,-423.587C634.258,-414.549 672.427,-397.564 695.353,-366 715.203,-338.67 714.416,-317.884 695.353,-290 694.516,-288.776 637.16,-266.574 588.914,-248.059"/>
<polygon fill="midnightblue" stroke="midnightblue" points="595.988,-420.219 586.997,-425.825 597.521,-427.049 595.988,-420.219"/>
</g>
<!-- Node9 -->
<g id="node9" class="node"><title>Node9</title>
<g id="a_node9"><a xlink:href="../../d9/db4/CheckTopologies_8C.html" target="_top" xlink:title="/home/travis/build\l/AliceO2Group/AliceO2\l/Detectors/ITSMFT/ITS\l/macros/test/CheckTopologies.C">
<polygon fill="none" stroke="black" points="20.8526,-196 20.8526,-248 181.853,-248 181.853,-196 20.8526,-196"/>
<text text-anchor="start" x="28.8526" y="-236" font-family="Helvetica,sans-Serif" font-size="10.00">/home/travis/build</text>
<text text-anchor="start" x="28.8526" y="-225" font-family="Helvetica,sans-Serif" font-size="10.00">/AliceO2Group/AliceO2</text>
<text text-anchor="start" x="28.8526" y="-214" font-family="Helvetica,sans-Serif" font-size="10.00">/Detectors/ITSMFT/ITS</text>
<text text-anchor="middle" x="101.353" y="-203" font-family="Helvetica,sans-Serif" font-size="10.00">/macros/test/CheckTopologies.C</text>
</a>
</g>
</g>
<!-- Node2&#45;&gt;Node9 -->
<g id="edge29" class="edge"><title>Node2&#45;&gt;Node9</title>
<path fill="none" stroke="midnightblue" d="M381.659,-433.511C256.452,-431.537 60.953,-419.635 14.3526,-366 -7.80122,-340.502 -0.560378,-320.307 14.3526,-290 22.7694,-272.895 37.8858,-258.929 53.1833,-248.261"/>
<polygon fill="midnightblue" stroke="midnightblue" points="381.624,-437.01 391.672,-433.65 381.722,-430.011 381.624,-437.01"/>
</g>
<!-- Node10 -->
<g id="node10" class="node"><title>Node10</title>
<g id="a_node10"><a xlink:href="../../df/ddf/LookUp_8h.html" target="_top" xlink:title="Definition of the LookUp class. ">
<polygon fill="none" stroke="black" points="742.853,-296.5 742.853,-359.5 909.853,-359.5 909.853,-296.5 742.853,-296.5"/>
<text text-anchor="start" x="750.853" y="-347.5" font-family="Helvetica,sans-Serif" font-size="10.00">/home/travis/build</text>
<text text-anchor="start" x="750.853" y="-336.5" font-family="Helvetica,sans-Serif" font-size="10.00">/AliceO2Group/AliceO2</text>
<text text-anchor="start" x="750.853" y="-325.5" font-family="Helvetica,sans-Serif" font-size="10.00">/Detectors/ITSMFT/common</text>
<text text-anchor="start" x="750.853" y="-314.5" font-family="Helvetica,sans-Serif" font-size="10.00">/reconstruction/include</text>
<text text-anchor="middle" x="826.353" y="-303.5" font-family="Helvetica,sans-Serif" font-size="10.00">/ITSMFTReconstruction/LookUp.h</text>
</a>
</g>
</g>
<!-- Node2&#45;&gt;Node10 -->
<g id="edge9" class="edge"><title>Node2&#45;&gt;Node10</title>
<path fill="none" stroke="midnightblue" d="M596.782,-405.28C638.44,-393.94 686.371,-380.164 729.353,-366 735.515,-363.969 741.863,-361.778 748.221,-359.511"/>
<polygon fill="midnightblue" stroke="midnightblue" points="595.627,-401.967 586.89,-407.96 597.457,-408.723 595.627,-401.967"/>
</g>
<!-- Node6 -->
<g id="node6" class="node"><title>Node6</title>
<g id="a_node6"><a xlink:href="../../d9/d9d/BuildTopologyDictionary_8cxx.html" target="_top" xlink:title="Implementation of the BuildTopologyDictionary class. ">
<polygon fill="none" stroke="black" points="614.353,-190.5 614.353,-253.5 776.353,-253.5 776.353,-190.5 614.353,-190.5"/>
<text text-anchor="start" x="622.353" y="-241.5" font-family="Helvetica,sans-Serif" font-size="10.00">/home/travis/build</text>
<text text-anchor="start" x="622.353" y="-230.5" font-family="Helvetica,sans-Serif" font-size="10.00">/AliceO2Group/AliceO2</text>
<text text-anchor="start" x="622.353" y="-219.5" font-family="Helvetica,sans-Serif" font-size="10.00">/Detectors/ITSMFT/common</text>
<text text-anchor="start" x="622.353" y="-208.5" font-family="Helvetica,sans-Serif" font-size="10.00">/reconstruction/src/BuildTopology</text>
<text text-anchor="middle" x="695.353" y="-197.5" font-family="Helvetica,sans-Serif" font-size="10.00">Dictionary.cxx</text>
</a>
</g>
</g>
<!-- Node5&#45;&gt;Node6 -->
<g id="edge5" class="edge"><title>Node5&#45;&gt;Node6</title>
<path fill="none" stroke="midnightblue" d="M636.391,-283.713C646.134,-273.681 656.31,-263.203 665.411,-253.831"/>
<polygon fill="midnightblue" stroke="midnightblue" points="633.85,-281.306 629.394,-290.918 638.872,-286.182 633.85,-281.306"/>
</g>
<!-- Node5&#45;&gt;Node7 -->
<g id="edge6" class="edge"><title>Node5&#45;&gt;Node7</title>
<path fill="none" stroke="midnightblue" d="M503.358,-286.73C473.931,-273.707 442.163,-259.648 415.972,-248.057"/>
<polygon fill="midnightblue" stroke="midnightblue" points="502.26,-290.071 512.821,-290.918 505.092,-283.67 502.26,-290.071"/>
</g>
<!-- Node5&#45;&gt;Node8 -->
<g id="edge7" class="edge"><title>Node5&#45;&gt;Node8</title>
<path fill="none" stroke="midnightblue" d="M563.977,-282.506C555.97,-270.778 547.609,-258.531 540.568,-248.217"/>
<polygon fill="midnightblue" stroke="midnightblue" points="561.191,-284.632 569.72,-290.918 566.972,-280.685 561.191,-284.632"/>
</g>
<!-- Node5&#45;&gt;Node9 -->
<g id="edge8" class="edge"><title>Node5&#45;&gt;Node9</title>
<path fill="none" stroke="midnightblue" d="M491.654,-290.079C491.554,-290.053 491.453,-290.026 491.353,-290 397.609,-265.525 371.832,-270.45 276.353,-254 245.49,-248.683 211.59,-242.709 181.913,-237.434"/>
<polygon fill="midnightblue" stroke="midnightblue" points="490.538,-293.402 501.108,-292.682 492.396,-286.653 490.538,-293.402"/>
</g>
<!-- Node10&#45;&gt;Node6 -->
<g id="edge22" class="edge"><title>Node10&#45;&gt;Node6</title>
<path fill="none" stroke="midnightblue" d="M779.642,-289.917C764.734,-278.081 748.406,-265.119 734.125,-253.781"/>
<polygon fill="midnightblue" stroke="midnightblue" points="777.749,-292.882 787.757,-296.359 782.101,-287.4 777.749,-292.882"/>
</g>
<!-- Node10&#45;&gt;Node7 -->
<g id="edge24" class="edge"><title>Node10&#45;&gt;Node7</title>
<path fill="none" stroke="midnightblue" d="M732.615,-298.883C720.149,-295.627 707.486,-292.561 695.353,-290 583.794,-266.451 551.794,-282.332 441.353,-254 434.866,-252.336 428.187,-250.328 421.573,-248.144"/>
<polygon fill="midnightblue" stroke="midnightblue" points="731.993,-302.339 742.556,-301.529 733.793,-295.574 731.993,-302.339"/>
</g>
<!-- Node10&#45;&gt;Node8 -->
<g id="edge25" class="edge"><title>Node10&#45;&gt;Node8</title>
<path fill="none" stroke="midnightblue" d="M738.278,-293.05C735.272,-292.005 732.291,-290.985 729.353,-290 674.942,-271.759 659.79,-272.161 605.353,-254 599.722,-252.122 593.904,-250.096 588.086,-248.012"/>
<polygon fill="midnightblue" stroke="midnightblue" points="737.339,-296.43 747.933,-296.464 739.672,-289.831 737.339,-296.43"/>
</g>
<!-- Node11 -->
<g id="node11" class="node"><title>Node11</title>
<g id="a_node11"><a xlink:href="../../d6/d04/ITSMFT_2common_2reconstruction_2include_2ITSMFTReconstruction_2Clusterer_8h.html" target="_top" xlink:title="/home/travis/build\l/AliceO2Group/AliceO2\l/Detectors/ITSMFT/common\l/reconstruction/include\l/ITSMFTReconstruction/Clusterer.h">
<polygon fill="none" stroke="black" points="965.853,-190.5 965.853,-253.5 1138.85,-253.5 1138.85,-190.5 965.853,-190.5"/>
<text text-anchor="start" x="973.853" y="-241.5" font-family="Helvetica,sans-Serif" font-size="10.00">/home/travis/build</text>
<text text-anchor="start" x="973.853" y="-230.5" font-family="Helvetica,sans-Serif" font-size="10.00">/AliceO2Group/AliceO2</text>
<text text-anchor="start" x="973.853" y="-219.5" font-family="Helvetica,sans-Serif" font-size="10.00">/Detectors/ITSMFT/common</text>
<text text-anchor="start" x="973.853" y="-208.5" font-family="Helvetica,sans-Serif" font-size="10.00">/reconstruction/include</text>
<text text-anchor="middle" x="1052.35" y="-197.5" font-family="Helvetica,sans-Serif" font-size="10.00">/ITSMFTReconstruction/Clusterer.h</text>
</a>
</g>
</g>
<!-- Node10&#45;&gt;Node11 -->
<g id="edge10" class="edge"><title>Node10&#45;&gt;Node11</title>
<path fill="none" stroke="midnightblue" d="M901.75,-292.304C929.038,-279.747 959.627,-265.67 986.073,-253.5"/>
<polygon fill="midnightblue" stroke="midnightblue" points="900.254,-289.139 892.633,-296.499 903.18,-295.498 900.254,-289.139"/>
</g>
<!-- Node21 -->
<g id="node21" class="node"><title>Node21</title>
<g id="a_node21"><a xlink:href="../../da/dd5/LookUp_8cxx.html" target="_top" xlink:title="Implementation of the LookUp class. ">
<polygon fill="none" stroke="black" points="794.853,-196 794.853,-248 947.853,-248 947.853,-196 794.853,-196"/>
<text text-anchor="start" x="802.853" y="-236" font-family="Helvetica,sans-Serif" font-size="10.00">/home/travis/build</text>
<text text-anchor="start" x="802.853" y="-225" font-family="Helvetica,sans-Serif" font-size="10.00">/AliceO2Group/AliceO2</text>
<text text-anchor="start" x="802.853" y="-214" font-family="Helvetica,sans-Serif" font-size="10.00">/Detectors/ITSMFT/common</text>
<text text-anchor="middle" x="871.353" y="-203" font-family="Helvetica,sans-Serif" font-size="10.00">/reconstruction/src/LookUp.cxx</text>
</a>
</g>
</g>
<!-- Node10&#45;&gt;Node21 -->
<g id="edge23" class="edge"><title>Node10&#45;&gt;Node21</title>
<path fill="none" stroke="midnightblue" d="M843.626,-287.079C849.284,-274.003 855.409,-259.848 860.459,-248.175"/>
<polygon fill="midnightblue" stroke="midnightblue" points="840.37,-285.791 839.611,-296.359 846.794,-288.571 840.37,-285.791"/>
</g>
<!-- Node10&#45;&gt;Node22 -->
<g id="edge26" class="edge"><title>Node10&#45;&gt;Node22</title>
<path fill="none" stroke="midnightblue" d="M906.815,-293.363C911.021,-292.117 915.216,-290.984 919.353,-290 1096.02,-247.993 1150.64,-299.848 1326.35,-254 1329.28,-253.237 1332.23,-252.362 1335.19,-251.399"/>
<polygon fill="midnightblue" stroke="midnightblue" points="905.492,-290.11 897.008,-296.456 907.598,-296.786 905.492,-290.11"/>
</g>
<!-- Node12 -->
<g id="node12" class="node"><title>Node12</title>
<g id="a_node12"><a xlink:href="../../de/d69/ITSMFT_2common_2reconstruction_2src_2Clusterer_8cxx.html" target="_top" xlink:title="/home/travis/build\l/AliceO2Group/AliceO2\l/Detectors/ITSMFT/common\l/reconstruction/src/Clusterer.cxx">
<polygon fill="none" stroke="black" points="672.853,-96 672.853,-148 831.853,-148 831.853,-96 672.853,-96"/>
<text text-anchor="start" x="680.853" y="-136" font-family="Helvetica,sans-Serif" font-size="10.00">/home/travis/build</text>
<text text-anchor="start" x="680.853" y="-125" font-family="Helvetica,sans-Serif" font-size="10.00">/AliceO2Group/AliceO2</text>
<text text-anchor="start" x="680.853" y="-114" font-family="Helvetica,sans-Serif" font-size="10.00">/Detectors/ITSMFT/common</text>
<text text-anchor="middle" x="752.353" y="-103" font-family="Helvetica,sans-Serif" font-size="10.00">/reconstruction/src/Clusterer.cxx</text>
</a>
</g>
</g>
<!-- Node11&#45;&gt;Node12 -->
<g id="edge11" class="edge"><title>Node11&#45;&gt;Node12</title>
<path fill="none" stroke="midnightblue" d="M955.926,-189.882C903.707,-173.391 889.323,-169.858 841.353,-154 835.605,-152.1 829.659,-150.101 823.693,-148.073"/>
<polygon fill="midnightblue" stroke="midnightblue" points="955.167,-193.312 965.757,-192.997 957.282,-186.639 955.167,-193.312"/>
</g>
<!-- Node13 -->
<g id="node13" class="node"><title>Node13</title>
<g id="a_node13"><a xlink:href="../../d6/d67/ITSMFT_2ITS_2reconstruction_2include_2ITSReconstruction_2ClustererTask_8h.html" target="_top" xlink:title="/home/travis/build\l/AliceO2Group/AliceO2\l/Detectors/ITSMFT/ITS\l/reconstruction/include\l/ITSReconstruction/ClustererTask.h">
<polygon fill="none" stroke="black" points="850.353,-90.5 850.353,-153.5 1024.35,-153.5 1024.35,-90.5 850.353,-90.5"/>
<text text-anchor="start" x="858.353" y="-141.5" font-family="Helvetica,sans-Serif" font-size="10.00">/home/travis/build</text>
<text text-anchor="start" x="858.353" y="-130.5" font-family="Helvetica,sans-Serif" font-size="10.00">/AliceO2Group/AliceO2</text>
<text text-anchor="start" x="858.353" y="-119.5" font-family="Helvetica,sans-Serif" font-size="10.00">/Detectors/ITSMFT/ITS</text>
<text text-anchor="start" x="858.353" y="-108.5" font-family="Helvetica,sans-Serif" font-size="10.00">/reconstruction/include</text>
<text text-anchor="middle" x="937.353" y="-97.5" font-family="Helvetica,sans-Serif" font-size="10.00">/ITSReconstruction/ClustererTask.h</text>
</a>
</g>
</g>
<!-- Node11&#45;&gt;Node13 -->
<g id="edge12" class="edge"><title>Node11&#45;&gt;Node13</title>
<path fill="none" stroke="midnightblue" d="M1008.4,-183.545C996.799,-173.659 984.418,-163.108 973.296,-153.63"/>
<polygon fill="midnightblue" stroke="midnightblue" points="1006.4,-186.439 1016.28,-190.261 1010.94,-181.111 1006.4,-186.439"/>
</g>
<!-- Node16 -->
<g id="node16" class="node"><title>Node16</title>
<g id="a_node16"><a xlink:href="../../d7/d59/run__clus__itsSA_8C.html" target="_top" xlink:title="/home/travis/build\l/AliceO2Group/AliceO2\l/macro/run_clus_itsSA.C">
<polygon fill="none" stroke="black" points="938.353,-6.5 938.353,-47.5 1064.35,-47.5 1064.35,-6.5 938.353,-6.5"/>
<text text-anchor="start" x="946.353" y="-35.5" font-family="Helvetica,sans-Serif" font-size="10.00">/home/travis/build</text>
<text text-anchor="start" x="946.353" y="-24.5" font-family="Helvetica,sans-Serif" font-size="10.00">/AliceO2Group/AliceO2</text>
<text text-anchor="middle" x="1001.35" y="-13.5" font-family="Helvetica,sans-Serif" font-size="10.00">/macro/run_clus_itsSA.C</text>
</a>
</g>
</g>
<!-- Node11&#45;&gt;Node16 -->
<g id="edge20" class="edge"><title>Node11&#45;&gt;Node16</title>
<path fill="none" stroke="midnightblue" d="M1049.96,-180.451C1047.56,-154.166 1042.8,-119.462 1033.35,-90 1028.58,-75.1202 1020.49,-59.4933 1013.64,-47.6506"/>
<polygon fill="midnightblue" stroke="midnightblue" points="1046.47,-180.767 1050.79,-190.441 1053.45,-180.184 1046.47,-180.767"/>
</g>
<!-- Node17 -->
<g id="node17" class="node"><title>Node17</title>
<g id="a_node17"><a xlink:href="../../db/d12/ITSMFT_2MFT_2reconstruction_2include_2MFTReconstruction_2ClustererTask_8h.html" target="_top" xlink:title="/home/travis/build\l/AliceO2Group/AliceO2\l/Detectors/ITSMFT/MFT\l/reconstruction/include\l/MFTReconstruction/ClustererTask.h">
<polygon fill="none" stroke="black" points="1131.85,-90.5 1131.85,-153.5 1310.85,-153.5 1310.85,-90.5 1131.85,-90.5"/>
<text text-anchor="start" x="1139.85" y="-141.5" font-family="Helvetica,sans-Serif" font-size="10.00">/home/travis/build</text>
<text text-anchor="start" x="1139.85" y="-130.5" font-family="Helvetica,sans-Serif" font-size="10.00">/AliceO2Group/AliceO2</text>
<text text-anchor="start" x="1139.85" y="-119.5" font-family="Helvetica,sans-Serif" font-size="10.00">/Detectors/ITSMFT/MFT</text>
<text text-anchor="start" x="1139.85" y="-108.5" font-family="Helvetica,sans-Serif" font-size="10.00">/reconstruction/include</text>
<text text-anchor="middle" x="1221.35" y="-97.5" font-family="Helvetica,sans-Serif" font-size="10.00">/MFTReconstruction/ClustererTask.h</text>
</a>
</g>
</g>
<!-- Node11&#45;&gt;Node17 -->
<g id="edge16" class="edge"><title>Node11&#45;&gt;Node17</title>
<path fill="none" stroke="midnightblue" d="M1114.49,-184.966C1132.24,-174.676 1151.4,-163.564 1168.53,-153.63"/>
<polygon fill="midnightblue" stroke="midnightblue" points="1112.26,-182.217 1105.36,-190.261 1115.77,-188.272 1112.26,-182.217"/>
</g>
<!-- Node20 -->
<g id="node20" class="node"><title>Node20</title>
<g id="a_node20"><a xlink:href="../../d7/d8c/run__clus__mftSA_8C.html" target="_top" xlink:title="/home/travis/build\l/AliceO2Group/AliceO2\l/macro/run_clus_mftSA.C">
<polygon fill="none" stroke="black" points="1418.35,-6.5 1418.35,-47.5 1548.35,-47.5 1548.35,-6.5 1418.35,-6.5"/>
<text text-anchor="start" x="1426.35" y="-35.5" font-family="Helvetica,sans-Serif" font-size="10.00">/home/travis/build</text>
<text text-anchor="start" x="1426.35" y="-24.5" font-family="Helvetica,sans-Serif" font-size="10.00">/AliceO2Group/AliceO2</text>
<text text-anchor="middle" x="1483.35" y="-13.5" font-family="Helvetica,sans-Serif" font-size="10.00">/macro/run_clus_mftSA.C</text>
</a>
</g>
</g>
<!-- Node11&#45;&gt;Node20 -->
<g id="edge21" class="edge"><title>Node11&#45;&gt;Node20</title>
<path fill="none" stroke="midnightblue" d="M1149.18,-189.961C1225.57,-171.305 1251.69,-185.137 1319.35,-154 1378.06,-126.981 1435.29,-75.6653 1464.1,-47.5776"/>
<polygon fill="midnightblue" stroke="midnightblue" points="1147.92,-186.671 1139.1,-192.539 1149.65,-193.453 1147.92,-186.671"/>
</g>
<!-- Node14 -->
<g id="node14" class="node"><title>Node14</title>
<g id="a_node14"><a xlink:href="../../d8/d95/ITSMFT_2ITS_2reconstruction_2src_2ClustererTask_8cxx.html" target="_top" xlink:title="/home/travis/build\l/AliceO2Group/AliceO2\l/Detectors/ITSMFT/ITS\l/reconstruction/src/ClustererTask.cxx">
<polygon fill="none" stroke="black" points="602.853,-1 602.853,-53 783.853,-53 783.853,-1 602.853,-1"/>
<text text-anchor="start" x="610.853" y="-41" font-family="Helvetica,sans-Serif" font-size="10.00">/home/travis/build</text>
<text text-anchor="start" x="610.853" y="-30" font-family="Helvetica,sans-Serif" font-size="10.00">/AliceO2Group/AliceO2</text>
<text text-anchor="start" x="610.853" y="-19" font-family="Helvetica,sans-Serif" font-size="10.00">/Detectors/ITSMFT/ITS</text>
<text text-anchor="middle" x="693.353" y="-8" font-family="Helvetica,sans-Serif" font-size="10.00">/reconstruction/src/ClustererTask.cxx</text>
</a>
</g>
</g>
<!-- Node13&#45;&gt;Node14 -->
<g id="edge13" class="edge"><title>Node13&#45;&gt;Node14</title>
<path fill="none" stroke="midnightblue" d="M847.687,-86.8243C818.314,-75.6289 786.246,-63.4061 758.989,-53.0171"/>
<polygon fill="midnightblue" stroke="midnightblue" points="846.529,-90.1284 857.12,-90.4195 849.022,-83.5874 846.529,-90.1284"/>
</g>
<!-- Node15 -->
<g id="node15" class="node"><title>Node15</title>
<g id="a_node15"><a xlink:href="../../d6/da1/run__clus__its_8C.html" target="_top" xlink:title="/home/travis/build\l/AliceO2Group/AliceO2\l/macro/run_clus_its.C">
<polygon fill="none" stroke="black" points="802.353,-6.5 802.353,-47.5 920.353,-47.5 920.353,-6.5 802.353,-6.5"/>
<text text-anchor="start" x="810.353" y="-35.5" font-family="Helvetica,sans-Serif" font-size="10.00">/home/travis/build</text>
<text text-anchor="start" x="810.353" y="-24.5" font-family="Helvetica,sans-Serif" font-size="10.00">/AliceO2Group/AliceO2</text>
<text text-anchor="middle" x="861.353" y="-13.5" font-family="Helvetica,sans-Serif" font-size="10.00">/macro/run_clus_its.C</text>
</a>
</g>
</g>
<!-- Node13&#45;&gt;Node15 -->
<g id="edge14" class="edge"><title>Node13&#45;&gt;Node15</title>
<path fill="none" stroke="midnightblue" d="M905.912,-82.5272C896.082,-70.4979 885.648,-57.7294 877.349,-47.5747"/>
<polygon fill="midnightblue" stroke="midnightblue" points="903.219,-84.762 912.257,-90.2906 908.639,-80.3325 903.219,-84.762"/>
</g>
<!-- Node13&#45;&gt;Node16 -->
<g id="edge15" class="edge"><title>Node13&#45;&gt;Node16</title>
<path fill="none" stroke="midnightblue" d="M964.302,-81.839C972.441,-70.0124 981.027,-57.536 987.882,-47.5747"/>
<polygon fill="midnightblue" stroke="midnightblue" points="961.272,-80.0685 958.486,-90.2906 967.038,-84.0369 961.272,-80.0685"/>
</g>
<!-- Node18 -->
<g id="node18" class="node"><title>Node18</title>
<g id="a_node18"><a xlink:href="../../d9/d5e/ITSMFT_2MFT_2reconstruction_2src_2ClustererTask_8cxx.html" target="_top" xlink:title="/home/travis/build\l/AliceO2Group/AliceO2\l/Detectors/ITSMFT/MFT\l/reconstruction/src/ClustererTask.cxx">
<polygon fill="none" stroke="black" points="1082.85,-1 1082.85,-53 1263.85,-53 1263.85,-1 1082.85,-1"/>
<text text-anchor="start" x="1090.85" y="-41" font-family="Helvetica,sans-Serif" font-size="10.00">/home/travis/build</text>
<text text-anchor="start" x="1090.85" y="-30" font-family="Helvetica,sans-Serif" font-size="10.00">/AliceO2Group/AliceO2</text>
<text text-anchor="start" x="1090.85" y="-19" font-family="Helvetica,sans-Serif" font-size="10.00">/Detectors/ITSMFT/MFT</text>
<text text-anchor="middle" x="1173.35" y="-8" font-family="Helvetica,sans-Serif" font-size="10.00">/reconstruction/src/ClustererTask.cxx</text>
</a>
</g>
</g>
<!-- Node17&#45;&gt;Node18 -->
<g id="edge17" class="edge"><title>Node17&#45;&gt;Node18</title>
<path fill="none" stroke="midnightblue" d="M1200.86,-81.2973C1195.93,-71.7353 1190.79,-61.7814 1186.31,-53.1001"/>
<polygon fill="midnightblue" stroke="midnightblue" points="1197.81,-83.0096 1205.5,-90.2906 1204.03,-79.7991 1197.81,-83.0096"/>
</g>
<!-- Node19 -->
<g id="node19" class="node"><title>Node19</title>
<g id="a_node19"><a xlink:href="../../d4/dfd/run__clus__mft_8C.html" target="_top" xlink:title="/home/travis/build\l/AliceO2Group/AliceO2\l/macro/run_clus_mft.C">
<polygon fill="none" stroke="black" points="1282.35,-6.5 1282.35,-47.5 1400.35,-47.5 1400.35,-6.5 1282.35,-6.5"/>
<text text-anchor="start" x="1290.35" y="-35.5" font-family="Helvetica,sans-Serif" font-size="10.00">/home/travis/build</text>
<text text-anchor="start" x="1290.35" y="-24.5" font-family="Helvetica,sans-Serif" font-size="10.00">/AliceO2Group/AliceO2</text>
<text text-anchor="middle" x="1341.35" y="-13.5" font-family="Helvetica,sans-Serif" font-size="10.00">/macro/run_clus_mft.C</text>
</a>
</g>
</g>
<!-- Node17&#45;&gt;Node19 -->
<g id="edge18" class="edge"><title>Node17&#45;&gt;Node19</title>
<path fill="none" stroke="midnightblue" d="M1269.23,-83.8986C1285.26,-71.4745 1302.49,-58.1163 1316.09,-47.5747"/>
<polygon fill="midnightblue" stroke="midnightblue" points="1266.74,-81.3984 1260.98,-90.2906 1271.03,-86.9313 1266.74,-81.3984"/>
</g>
<!-- Node17&#45;&gt;Node20 -->
<g id="edge19" class="edge"><title>Node17&#45;&gt;Node20</title>
<path fill="none" stroke="midnightblue" d="M1317.38,-86.9126C1354.64,-73.6894 1395.96,-59.0214 1428.05,-47.6292"/>
<polygon fill="midnightblue" stroke="midnightblue" points="1315.76,-83.7759 1307.5,-90.4195 1318.1,-90.3727 1315.76,-83.7759"/>
</g>
<!-- Node23&#45;&gt;Node5 -->
<g id="edge32" class="edge"><title>Node23&#45;&gt;Node5</title>
<path fill="none" stroke="midnightblue" d="M906.162,-407.192C853.465,-395.065 790.132,-380.181 733.353,-366 718.573,-362.309 702.945,-358.276 687.712,-354.274"/>
<polygon fill="midnightblue" stroke="midnightblue" points="905.684,-410.674 916.214,-409.502 907.252,-403.851 905.684,-410.674"/>
</g>
<!-- Node23&#45;&gt;Node10 -->
<g id="edge33" class="edge"><title>Node23&#45;&gt;Node10</title>
<path fill="none" stroke="midnightblue" d="M954.406,-397.647C931.295,-385.258 905.554,-371.458 883.247,-359.5"/>
<polygon fill="midnightblue" stroke="midnightblue" points="952.99,-400.859 963.457,-402.499 956.297,-394.69 952.99,-400.859"/>
</g>
<!-- Node23&#45;&gt;Node22 -->
<g id="edge36" class="edge"><title>Node23&#45;&gt;Node22</title>
<path fill="none" stroke="midnightblue" d="M1134.34,-423.209C1219.11,-413.625 1325.4,-395.989 1357.35,-366 1388.17,-337.083 1395.07,-286.283 1396.07,-253.664"/>
<polygon fill="midnightblue" stroke="midnightblue" points="1133.93,-419.732 1124.38,-424.31 1134.7,-426.69 1133.93,-419.732"/>
</g>
<!-- Node24 -->
<g id="node24" class="node"><title>Node24</title>
<g id="a_node24"><a xlink:href="../../df/d48/TopologyDictionary_8cxx.html" target="_top" xlink:title="Implementation of the TopologyDictionary class. ">
<polygon fill="none" stroke="black" points="1130.35,-302 1130.35,-354 1348.35,-354 1348.35,-302 1130.35,-302"/>
<text text-anchor="start" x="1138.35" y="-342" font-family="Helvetica,sans-Serif" font-size="10.00">/home/travis/build</text>
<text text-anchor="start" x="1138.35" y="-331" font-family="Helvetica,sans-Serif" font-size="10.00">/AliceO2Group/AliceO2</text>
<text text-anchor="start" x="1138.35" y="-320" font-family="Helvetica,sans-Serif" font-size="10.00">/DataFormats/Detectors</text>
<text text-anchor="middle" x="1239.35" y="-309" font-family="Helvetica,sans-Serif" font-size="10.00">/ITSMFT/common/src/TopologyDictionary.cxx</text>
</a>
</g>
</g>
<!-- Node23&#45;&gt;Node24 -->
<g id="edge31" class="edge"><title>Node23&#45;&gt;Node24</title>
<path fill="none" stroke="midnightblue" d="M1093.86,-398.092C1124.23,-383.669 1158.76,-367.272 1186.56,-354.072"/>
<polygon fill="midnightblue" stroke="midnightblue" points="1092.11,-395.048 1084.58,-402.499 1095.11,-401.371 1092.11,-395.048"/>
</g>
<!-- Node25 -->
<g id="node25" class="node"><title>Node25</title>
<g id="a_node25"><a xlink:href="../../d9/d45/TopologyFastSimulation_8h.html" target="_top" xlink:title="Definition of the TopologyFastSimulation class. ">
<polygon fill="none" stroke="black" points="928.353,-291 928.353,-365 1112.35,-365 1112.35,-291 928.353,-291"/>
<text text-anchor="start" x="936.353" y="-353" font-family="Helvetica,sans-Serif" font-size="10.00">/home/travis/build</text>
<text text-anchor="start" x="936.353" y="-342" font-family="Helvetica,sans-Serif" font-size="10.00">/AliceO2Group/AliceO2</text>
<text text-anchor="start" x="936.353" y="-331" font-family="Helvetica,sans-Serif" font-size="10.00">/Detectors/ITSMFT/common</text>
<text text-anchor="start" x="936.353" y="-320" font-family="Helvetica,sans-Serif" font-size="10.00">/reconstruction/include</text>
<text text-anchor="start" x="936.353" y="-309" font-family="Helvetica,sans-Serif" font-size="10.00">/ITSMFTReconstruction/TopologyFast</text>
<text text-anchor="middle" x="1020.35" y="-298" font-family="Helvetica,sans-Serif" font-size="10.00">Simulation.h</text>
</a>
</g>
</g>
<!-- Node23&#45;&gt;Node25 -->
<g id="edge34" class="edge"><title>Node23&#45;&gt;Node25</title>
<path fill="none" stroke="midnightblue" d="M1020.35,-392.209C1020.35,-383.326 1020.35,-373.986 1020.35,-365.292"/>
<polygon fill="midnightblue" stroke="midnightblue" points="1016.85,-392.359 1020.35,-402.359 1023.85,-392.359 1016.85,-392.359"/>
</g>
<!-- Node26 -->
<g id="node26" class="node"><title>Node26</title>
<g id="a_node26"><a xlink:href="../../d2/d34/TopologyFastSimulation_8cxx.html" target="_top" xlink:title="Implementation of the TopologyFastSimulation class. ">
<polygon fill="none" stroke="black" points="1157.35,-190.5 1157.35,-253.5 1317.35,-253.5 1317.35,-190.5 1157.35,-190.5"/>
<text text-anchor="start" x="1165.35" y="-241.5" font-family="Helvetica,sans-Serif" font-size="10.00">/home/travis/build</text>
<text text-anchor="start" x="1165.35" y="-230.5" font-family="Helvetica,sans-Serif" font-size="10.00">/AliceO2Group/AliceO2</text>
<text text-anchor="start" x="1165.35" y="-219.5" font-family="Helvetica,sans-Serif" font-size="10.00">/Detectors/ITSMFT/common</text>
<text text-anchor="start" x="1165.35" y="-208.5" font-family="Helvetica,sans-Serif" font-size="10.00">/reconstruction/src/TopologyFast</text>
<text text-anchor="middle" x="1237.35" y="-197.5" font-family="Helvetica,sans-Serif" font-size="10.00">Simulation.cxx</text>
</a>
</g>
</g>
<!-- Node25&#45;&gt;Node26 -->
<g id="edge35" class="edge"><title>Node25&#45;&gt;Node26</title>
<path fill="none" stroke="midnightblue" d="M1104.95,-286.455C1127.71,-275.547 1151.95,-263.932 1173.38,-253.661"/>
<polygon fill="midnightblue" stroke="midnightblue" points="1103.14,-283.44 1095.64,-290.918 1106.17,-289.752 1103.14,-283.44"/>
</g>
</g>
</svg>
