<?xml version="1.0" encoding="UTF-8" standalone="no"?>
<!DOCTYPE svg PUBLIC "-//W3C//DTD SVG 1.1//EN"
 "http://www.w3.org/Graphics/SVG/1.1/DTD/svg11.dtd">
<!-- Generated by graphviz version 2.36.0 (20140111.2315)
 -->
<!-- Title: /home/travis/build/AliceO2Group/AliceO2/Utilities/DataFlow/src/TimeframeWriterDevice.cxx Pages: 1 -->
<!--zoomable 422 -->
<svg id="main" version="1.1" xmlns="http://www.w3.org/2000/svg" xmlns:xlink="http://www.w3.org/1999/xlink" xml:space="preserve" onload="init(evt)">
<style type="text/css"><![CDATA[
.edge:hover path { stroke: red; }
.edge:hover polygon { stroke: red; fill: red; }
]]></style>
<script type="text/javascript"><![CDATA[
var edges = document.getElementsByTagName('g');
if (edges && edges.length) {
  for (var i=0;i<edges.length;i++) {
    if (edges[i].id.substr(0,4)=='edge') {
      edges[i].setAttribute('class','edge');
    }
  }
}
]]></script>
        <defs>
                <circle id="rim" cx="0" cy="0" r="7"/>
                <circle id="rim2" cx="0" cy="0" r="3.5"/>
                <g id="zoomPlus">
                        <use xlink:href="#rim" fill="#404040">
                                <set attributeName="fill" to="#808080" begin="zoomplus.mouseover" end="zoomplus.mouseout"/>
                        </use>
                        <path d="M-4,0h8M0,-4v8" fill="none" stroke="white" stroke-width="1.5" pointer-events="none"/>
                </g>
                <g id="zoomMin">
                        <use xlink:href="#rim" fill="#404040">
                                <set attributeName="fill" to="#808080" begin="zoomminus.mouseover" end="zoomminus.mouseout"/>
                        </use>
                        <path d="M-4,0h8" fill="none" stroke="white" stroke-width="1.5" pointer-events="none"/>
                </g>
                <g id="dirArrow">
                        <path fill="none" stroke="white" stroke-width="1.5" d="M0,-3.0v7 M-2.5,-0.5L0,-3.0L2.5,-0.5"/>
                </g>
               <g id="resetDef">
                       <use xlink:href="#rim2" fill="#404040">
                               <set attributeName="fill" to="#808080" begin="reset.mouseover" end="reset.mouseout"/>
                       </use>
               </g>
        </defs>

<script type="text/javascript">
var viewWidth = 2094;
var viewHeight = 422;
var sectionId = 'dynsection-0';
</script>
<script xlink:href="../../svgpan.js"/>
<svg id="graph" class="graph">
<g id="viewport">
<title>/home/travis/build/AliceO2Group/AliceO2/Utilities/DataFlow/src/TimeframeWriterDevice.cxx</title>
<!-- Node1 -->
<g id="node1" class="node"><title>Node1</title>
<polygon fill="#bfbfbf" stroke="black" points="645,-361 645,-413 787,-413 787,-361 645,-361"/>
<text text-anchor="start" x="653" y="-401" font-family="Helvetica,sans-Serif" font-size="10.00">/home/travis/build</text>
<text text-anchor="start" x="653" y="-390" font-family="Helvetica,sans-Serif" font-size="10.00">/AliceO2Group/AliceO2</text>
<text text-anchor="start" x="653" y="-379" font-family="Helvetica,sans-Serif" font-size="10.00">/Utilities/DataFlow/src</text>
<text text-anchor="middle" x="716" y="-368" font-family="Helvetica,sans-Serif" font-size="10.00">/TimeframeWriterDevice.cxx</text>
</g>
<!-- Node2 -->
<g id="node2" class="node"><title>Node2</title>
<polygon fill="none" stroke="#bfbfbf" points="62,-298.5 62,-317.5 106,-317.5 106,-298.5 62,-298.5"/>
<text text-anchor="middle" x="84" y="-305.5" font-family="Helvetica,sans-Serif" font-size="10.00">thread</text>
</g>
<!-- Node1&#45;&gt;Node2 -->
<g id="edge1" class="edge"><title>Node1&#45;&gt;Node2</title>
<path fill="none" stroke="midnightblue" d="M644.645,-385.239C531.624,-382.556 305.25,-371.149 120,-324 117.012,-323.24 113.949,-322.275 110.931,-321.203"/>
<polygon fill="midnightblue" stroke="midnightblue" points="112.181,-317.934 101.593,-317.532 109.619,-324.449 112.181,-317.934"/>
</g>
<!-- Node3 -->
<g id="node3" class="node"><title>Node3</title>
<polygon fill="none" stroke="#bfbfbf" points="122,-68.5 122,-87.5 168,-87.5 168,-68.5 122,-68.5"/>
<text text-anchor="middle" x="145" y="-75.5" font-family="Helvetica,sans-Serif" font-size="10.00">chrono</text>
</g>
<!-- Node1&#45;&gt;Node3 -->
<g id="edge2" class="edge"><title>Node1&#45;&gt;Node3</title>
<path fill="none" stroke="midnightblue" d="M644.927,-383.881C489.669,-377.321 134,-350.948 134,-247 134,-247 134,-247 134,-189 134,-156.788 138.728,-119.532 141.985,-97.692"/>
<polygon fill="midnightblue" stroke="midnightblue" points="145.487,-97.9472 143.562,-87.5287 138.57,-96.8736 145.487,-97.9472"/>
</g>
<!-- Node4 -->
<g id="node4" class="node"><title>Node4</title>
<g id="a_node4"><a xlink:href="../../dd/dcc/TimeframeWriterDevice_8h.html" target="_top" xlink:title="DataFlow/TimeframeWriter\lDevice.h">
<polygon fill="none" stroke="black" points="649,-293 649,-323 783,-323 783,-293 649,-293"/>
<text text-anchor="start" x="657" y="-311" font-family="Helvetica,sans-Serif" font-size="10.00">DataFlow/TimeframeWriter</text>
<text text-anchor="middle" x="716" y="-300" font-family="Helvetica,sans-Serif" font-size="10.00">Device.h</text>
</a>
</g>
</g>
<!-- Node1&#45;&gt;Node4 -->
<g id="edge3" class="edge"><title>Node1&#45;&gt;Node4</title>
<path fill="none" stroke="midnightblue" d="M716,-360.787C716,-352.029 716,-342.225 716,-333.523"/>
<polygon fill="midnightblue" stroke="midnightblue" points="719.5,-333.252 716,-323.252 712.5,-333.252 719.5,-333.252"/>
</g>
<!-- Node7 -->
<g id="node7" class="node"><title>Node7</title>
<polygon fill="none" stroke="#bfbfbf" points="983,-180.5 983,-199.5 1129,-199.5 1129,-180.5 983,-180.5"/>
<text text-anchor="middle" x="1056" y="-187.5" font-family="Helvetica,sans-Serif" font-size="10.00">options/FairMQProgOptions.h</text>
</g>
<!-- Node1&#45;&gt;Node7 -->
<g id="edge54" class="edge"><title>Node1&#45;&gt;Node7</title>
<path fill="none" stroke="midnightblue" d="M759.753,-360.906C832.318,-319.288 975.19,-237.347 1031.94,-204.8"/>
<polygon fill="midnightblue" stroke="midnightblue" points="1033.96,-207.675 1040.89,-199.664 1030.48,-201.603 1033.96,-207.675"/>
</g>
<!-- Node24 -->
<g id="node24" class="node"><title>Node24</title>
<g id="a_node24"><a xlink:href="../../dc/dcd/DataHeader_8h.html" target="_top" xlink:title="Headers/DataHeader.h">
<polygon fill="none" stroke="black" points="488.5,-68.5 488.5,-87.5 605.5,-87.5 605.5,-68.5 488.5,-68.5"/>
<text text-anchor="middle" x="547" y="-75.5" font-family="Helvetica,sans-Serif" font-size="10.00">Headers/DataHeader.h</text>
</a>
</g>
</g>
<!-- Node1&#45;&gt;Node24 -->
<g id="edge53" class="edge"><title>Node1&#45;&gt;Node24</title>
<path fill="none" stroke="midnightblue" d="M644.878,-367.319C588.45,-347.697 519,-310.624 519,-247 519,-247 519,-247 519,-189 519,-155.79 531.134,-118.634 539.427,-97.1196"/>
<polygon fill="midnightblue" stroke="midnightblue" points="542.751,-98.2333 543.224,-87.649 536.254,-95.6284 542.751,-98.2333"/>
</g>
<!-- Node35 -->
<g id="node35" class="node"><title>Node35</title>
<g id="a_node35"><a xlink:href="../../dd/ddb/TimeframeParser_8h.html" target="_top" xlink:title="DataFlow/TimeframeParser.h">
<polygon fill="none" stroke="black" points="1238.5,-298.5 1238.5,-317.5 1383.5,-317.5 1383.5,-298.5 1238.5,-298.5"/>
<text text-anchor="middle" x="1311" y="-305.5" font-family="Helvetica,sans-Serif" font-size="10.00">DataFlow/TimeframeParser.h</text>
</a>
</g>
</g>
<!-- Node1&#45;&gt;Node35 -->
<g id="edge40" class="edge"><title>Node1&#45;&gt;Node35</title>
<path fill="none" stroke="midnightblue" d="M787.24,-378.426C885.646,-367.709 1068.63,-346.861 1224,-324 1233.78,-322.561 1244.16,-320.895 1254.2,-319.207"/>
<polygon fill="midnightblue" stroke="midnightblue" points="1254.84,-322.65 1264.11,-317.52 1253.66,-315.749 1254.84,-322.65"/>
</g>
<!-- Node38 -->
<g id="node38" class="node"><title>Node38</title>
<g id="a_node38"><a xlink:href="../../de/dfa/TimeFrame_8h.html" target="_top" xlink:title="TimeFrame/TimeFrame.h">
<polygon fill="none" stroke="black" points="291.5,-180.5 291.5,-199.5 418.5,-199.5 418.5,-180.5 291.5,-180.5"/>
<text text-anchor="middle" x="355" y="-187.5" font-family="Helvetica,sans-Serif" font-size="10.00">TimeFrame/TimeFrame.h</text>
</a>
</g>
</g>
<!-- Node1&#45;&gt;Node38 -->
<g id="edge43" class="edge"><title>Node1&#45;&gt;Node38</title>
<path fill="none" stroke="midnightblue" d="M644.531,-373.197C602.158,-363.652 548.425,-348.04 505,-324 447.602,-292.225 393.405,-235.134 368.815,-207.236"/>
<polygon fill="midnightblue" stroke="midnightblue" points="371.362,-204.832 362.163,-199.576 366.077,-209.421 371.362,-204.832"/>
</g>
<!-- Node42 -->
<g id="node42" class="node"><title>Node42</title>
<g id="a_node42"><a xlink:href="../../d2/d1b/SubframeMetadata_8h.html" target="_top" xlink:title="Headers/SubframeMetadata.h">
<polygon fill="none" stroke="black" points="1595.5,-68.5 1595.5,-87.5 1742.5,-87.5 1742.5,-68.5 1595.5,-68.5"/>
<text text-anchor="middle" x="1669" y="-75.5" font-family="Helvetica,sans-Serif" font-size="10.00">Headers/SubframeMetadata.h</text>
</a>
</g>
</g>
<!-- Node1&#45;&gt;Node42 -->
<g id="edge51" class="edge"><title>Node1&#45;&gt;Node42</title>
<path fill="none" stroke="midnightblue" d="M787.041,-380.858C923.741,-369.002 1210,-333.811 1210,-247 1210,-247 1210,-247 1210,-189 1210,-149.806 1466.36,-107.758 1595.9,-89.0119"/>
<polygon fill="midnightblue" stroke="midnightblue" points="1596.74,-92.4276 1606.14,-87.5407 1595.74,-85.4987 1596.74,-92.4276"/>
</g>
<!-- Node43 -->
<g id="node43" class="node"><title>Node43</title>
<polygon fill="none" stroke="#bfbfbf" points="1401.5,-298.5 1401.5,-317.5 1508.5,-317.5 1508.5,-298.5 1401.5,-298.5"/>
<text text-anchor="middle" x="1455" y="-305.5" font-family="Helvetica,sans-Serif" font-size="10.00">boost/filesystem.hpp</text>
</g>
<!-- Node1&#45;&gt;Node43 -->
<g id="edge55" class="edge"><title>Node1&#45;&gt;Node43</title>
<path fill="none" stroke="midnightblue" d="M787.47,-382.793C911.275,-376.492 1173.36,-359.868 1392,-324 1398.86,-322.875 1406.08,-321.419 1413.08,-319.857"/>
<polygon fill="midnightblue" stroke="midnightblue" points="1414.18,-323.195 1423.13,-317.519 1412.6,-316.377 1414.18,-323.195"/>
</g>
<!-- Node5 -->
<g id="node5" class="node"><title>Node5</title>
<g id="a_node5"><a xlink:href="../../d2/dee/O2Device_8h.html" target="_top" xlink:title="O2Device/O2Device.h">
<polygon fill="none" stroke="black" points="709.5,-236.5 709.5,-255.5 824.5,-255.5 824.5,-236.5 709.5,-236.5"/>
<text text-anchor="middle" x="767" y="-243.5" font-family="Helvetica,sans-Serif" font-size="10.00">O2Device/O2Device.h</text>
</a>
</g>
</g>
<!-- Node4&#45;&gt;Node5 -->
<g id="edge4" class="edge"><title>Node4&#45;&gt;Node5</title>
<path fill="none" stroke="midnightblue" d="M728.086,-292.781C735.574,-283.972 745.218,-272.626 753.032,-263.433"/>
<polygon fill="midnightblue" stroke="midnightblue" points="755.769,-265.617 759.579,-255.731 750.436,-261.083 755.769,-265.617"/>
</g>
<!-- Node34 -->
<g id="node34" class="node"><title>Node34</title>
<polygon fill="none" stroke="#bfbfbf" points="641,-236.5 641,-255.5 691,-255.5 691,-236.5 641,-236.5"/>
<text text-anchor="middle" x="666" y="-243.5" font-family="Helvetica,sans-Serif" font-size="10.00">fstream</text>
</g>
<!-- Node4&#45;&gt;Node34 -->
<g id="edge39" class="edge"><title>Node4&#45;&gt;Node34</title>
<path fill="none" stroke="midnightblue" d="M704.151,-292.781C696.81,-283.972 687.355,-272.626 679.694,-263.433"/>
<polygon fill="midnightblue" stroke="midnightblue" points="682.366,-261.172 673.275,-255.731 676.989,-265.653 682.366,-261.172"/>
</g>
<!-- Node6 -->
<g id="node6" class="node"><title>Node6</title>
<polygon fill="none" stroke="#bfbfbf" points="585,-180.5 585,-199.5 673,-199.5 673,-180.5 585,-180.5"/>
<text text-anchor="middle" x="629" y="-187.5" font-family="Helvetica,sans-Serif" font-size="10.00">FairMQDevice.h</text>
</g>
<!-- Node5&#45;&gt;Node6 -->
<g id="edge5" class="edge"><title>Node5&#45;&gt;Node6</title>
<path fill="none" stroke="midnightblue" d="M745.133,-236.444C722.221,-227.478 686.025,-213.314 660.134,-203.183"/>
<polygon fill="midnightblue" stroke="midnightblue" points="661.352,-199.901 650.764,-199.516 658.801,-206.42 661.352,-199.901"/>
</g>
<!-- Node5&#45;&gt;Node7 -->
<g id="edge6" class="edge"><title>Node5&#45;&gt;Node7</title>
<path fill="none" stroke="midnightblue" d="M812.793,-236.444C863.737,-226.925 946.034,-211.547 1000.57,-201.356"/>
<polygon fill="midnightblue" stroke="midnightblue" points="1001.23,-204.794 1010.42,-199.516 999.949,-197.913 1001.23,-204.794"/>
</g>
<!-- Node8 -->
<g id="node8" class="node"><title>Node8</title>
<g id="a_node8"><a xlink:href="../../d7/db2/Utilities_8h.html" target="_top" xlink:title="O2Device/Utilities.h">
<polygon fill="none" stroke="black" points="861,-180.5 861,-199.5 965,-199.5 965,-180.5 861,-180.5"/>
<text text-anchor="middle" x="913" y="-187.5" font-family="Helvetica,sans-Serif" font-size="10.00">O2Device/Utilities.h</text>
</a>
</g>
</g>
<!-- Node5&#45;&gt;Node8 -->
<g id="edge7" class="edge"><title>Node5&#45;&gt;Node8</title>
<path fill="none" stroke="midnightblue" d="M790.134,-236.444C814.482,-227.438 853.007,-213.189 880.423,-203.049"/>
<polygon fill="midnightblue" stroke="midnightblue" points="881.809,-206.268 889.974,-199.516 879.381,-199.703 881.809,-206.268"/>
</g>
<!-- Node29 -->
<g id="node29" class="node"><title>Node29</title>
<polygon fill="none" stroke="#bfbfbf" points="66.5,-6.5 66.5,-25.5 125.5,-25.5 125.5,-6.5 66.5,-6.5"/>
<text text-anchor="middle" x="96" y="-13.5" font-family="Helvetica,sans-Serif" font-size="10.00">stdexcept</text>
</g>
<!-- Node5&#45;&gt;Node29 -->
<g id="edge38" class="edge"><title>Node5&#45;&gt;Node29</title>
<path fill="none" stroke="midnightblue" d="M709.307,-236.921C670.501,-230.171 618.81,-218.591 576,-200 520.146,-175.744 517.322,-149.447 462,-124 324.839,-60.9077 278.278,-79.5944 135,-32 132.38,-31.1295 129.676,-30.1863 126.973,-29.2113"/>
<polygon fill="midnightblue" stroke="midnightblue" points="127.92,-25.829 117.327,-25.6134 125.473,-32.3876 127.92,-25.829"/>
</g>
<!-- Node33 -->
<g id="node33" class="node"><title>Node33</title>
<polygon fill="none" stroke="#bfbfbf" points="691.5,-180.5 691.5,-199.5 842.5,-199.5 842.5,-180.5 691.5,-180.5"/>
<text text-anchor="middle" x="767" y="-187.5" font-family="Helvetica,sans-Serif" font-size="10.00">Monitoring/MonitoringFactory.h</text>
</g>
<!-- Node5&#45;&gt;Node33 -->
<g id="edge37" class="edge"><title>Node5&#45;&gt;Node33</title>
<path fill="none" stroke="midnightblue" d="M767,-236.083C767,-229.006 767,-218.861 767,-209.986"/>
<polygon fill="midnightblue" stroke="midnightblue" points="770.5,-209.751 767,-199.751 763.5,-209.751 770.5,-209.751"/>
</g>
<!-- Node9 -->
<g id="node9" class="node"><title>Node9</title>
<g id="a_node9"><a xlink:href="../../dc/d03/MemoryResources_8h.html" target="_top" xlink:title="MemoryResources/MemoryResources.h">
<polygon fill="none" stroke="black" points="950.5,-68.5 950.5,-87.5 1143.5,-87.5 1143.5,-68.5 950.5,-68.5"/>
<text text-anchor="middle" x="1047" y="-75.5" font-family="Helvetica,sans-Serif" font-size="10.00">MemoryResources/MemoryResources.h</text>
</a>
</g>
</g>
<!-- Node8&#45;&gt;Node9 -->
<g id="edge8" class="edge"><title>Node8&#45;&gt;Node9</title>
<path fill="none" stroke="midnightblue" d="M929.216,-180.415C944.338,-172.06 967.175,-158.527 985,-144 1003.22,-129.151 1021.48,-109.256 1033.41,-95.4039"/>
<polygon fill="midnightblue" stroke="midnightblue" points="1036.18,-97.5526 1039.97,-87.6589 1030.84,-93.0295 1036.18,-97.5526"/>
</g>
<!-- Node17 -->
<g id="node17" class="node"><title>Node17</title>
<polygon fill="none" stroke="#bfbfbf" points="1984,-6.5 1984,-25.5 2024,-25.5 2024,-6.5 1984,-6.5"/>
<text text-anchor="middle" x="2004" y="-13.5" font-family="Helvetica,sans-Serif" font-size="10.00">utility</text>
</g>
<!-- Node8&#45;&gt;Node17 -->
<g id="edge35" class="edge"><title>Node8&#45;&gt;Node17</title>
<path fill="none" stroke="midnightblue" d="M945.925,-180.495C998.507,-167.126 1104.81,-140.972 1196,-124 1368.59,-91.8787 1412.66,-88.5808 1587,-68 1758.55,-47.7484 1807.9,-79.4398 1974,-32 1975.97,-31.4363 1977.97,-30.7434 1979.95,-29.9676"/>
<polygon fill="midnightblue" stroke="midnightblue" points="1981.85,-32.9509 1989.49,-25.6121 1978.94,-26.5838 1981.85,-32.9509"/>
</g>
<!-- Node8&#45;&gt;Node24 -->
<g id="edge23" class="edge"><title>Node8&#45;&gt;Node24</title>
<path fill="none" stroke="midnightblue" d="M884.585,-180.46C819.378,-160.862 658.954,-112.647 585.208,-90.4834"/>
<polygon fill="midnightblue" stroke="midnightblue" points="585.981,-87.061 575.397,-87.5345 583.966,-93.7648 585.981,-87.061"/>
</g>
<!-- Node31 -->
<g id="node31" class="node"><title>Node31</title>
<g id="a_node31"><a xlink:href="../../d4/d00/Headers_2include_2Headers_2Stack_8h.html" target="_top" xlink:title="Headers/Stack.h">
<polygon fill="none" stroke="black" points="823,-124.5 823,-143.5 913,-143.5 913,-124.5 823,-124.5"/>
<text text-anchor="middle" x="868" y="-131.5" font-family="Helvetica,sans-Serif" font-size="10.00">Headers/Stack.h</text>
</a>
</g>
</g>
<!-- Node8&#45;&gt;Node31 -->
<g id="edge32" class="edge"><title>Node8&#45;&gt;Node31</title>
<path fill="none" stroke="midnightblue" d="M905.569,-180.083C899.147,-172.377 889.694,-161.033 881.878,-151.653"/>
<polygon fill="midnightblue" stroke="midnightblue" points="884.383,-149.193 875.293,-143.751 879.006,-153.674 884.383,-149.193"/>
</g>
<!-- Node32 -->
<g id="node32" class="node"><title>Node32</title>
<polygon fill="none" stroke="#bfbfbf" points="931.5,-124.5 931.5,-143.5 976.5,-143.5 976.5,-124.5 931.5,-124.5"/>
<text text-anchor="middle" x="954" y="-131.5" font-family="Helvetica,sans-Serif" font-size="10.00">gsl/gsl</text>
</g>
<!-- Node8&#45;&gt;Node32 -->
<g id="edge36" class="edge"><title>Node8&#45;&gt;Node32</title>
<path fill="none" stroke="midnightblue" d="M919.77,-180.083C925.562,-172.455 934.058,-161.264 941.138,-151.941"/>
<polygon fill="midnightblue" stroke="midnightblue" points="944.096,-153.832 947.356,-143.751 938.521,-149.599 944.096,-153.832"/>
</g>
<!-- Node10 -->
<g id="node10" class="node"><title>Node10</title>
<polygon fill="none" stroke="#bfbfbf" points="1732,-1 1732,-31 1832,-31 1832,-1 1732,-1"/>
<text text-anchor="start" x="1740" y="-19" font-family="Helvetica,sans-Serif" font-size="10.00">boost/container/flat</text>
<text text-anchor="middle" x="1782" y="-8" font-family="Helvetica,sans-Serif" font-size="10.00">_map.hpp</text>
</g>
<!-- Node9&#45;&gt;Node10 -->
<g id="edge9" class="edge"><title>Node9&#45;&gt;Node10</title>
<path fill="none" stroke="midnightblue" d="M1143.55,-69.0706C1148.44,-68.701 1153.28,-68.342 1158,-68 1405.65,-50.0714 1472.69,-70.6118 1721.84,-31.9848"/>
<polygon fill="midnightblue" stroke="midnightblue" points="1722.58,-35.4106 1731.92,-30.4047 1721.5,-28.495 1722.58,-35.4106"/>
</g>
<!-- Node11 -->
<g id="node11" class="node"><title>Node11</title>
<polygon fill="none" stroke="#bfbfbf" points="1850,-1 1850,-31 1966,-31 1966,-1 1850,-1"/>
<text text-anchor="start" x="1858" y="-19" font-family="Helvetica,sans-Serif" font-size="10.00">boost/container/pmr</text>
<text text-anchor="middle" x="1908" y="-8" font-family="Helvetica,sans-Serif" font-size="10.00">/memory_resource.hpp</text>
</g>
<!-- Node9&#45;&gt;Node11 -->
<g id="edge10" class="edge"><title>Node9&#45;&gt;Node11</title>
<path fill="none" stroke="midnightblue" d="M1143.55,-69.007C1148.44,-68.6541 1153.27,-68.3161 1158,-68 1457.89,-47.9427 1538.06,-72.7804 1839.29,-32.0826"/>
<polygon fill="midnightblue" stroke="midnightblue" points="1840.2,-35.4903 1849.64,-30.6704 1839.26,-28.5545 1840.2,-35.4903"/>
</g>
<!-- Node12 -->
<g id="node12" class="node"><title>Node12</title>
<polygon fill="none" stroke="#bfbfbf" points="712,-1 712,-31 868,-31 868,-1 712,-1"/>
<text text-anchor="start" x="720" y="-19" font-family="Helvetica,sans-Serif" font-size="10.00">boost/container/pmr</text>
<text text-anchor="middle" x="790" y="-8" font-family="Helvetica,sans-Serif" font-size="10.00">/monotonic_buffer_resource.hpp</text>
</g>
<!-- Node9&#45;&gt;Node12 -->
<g id="edge11" class="edge"><title>Node9&#45;&gt;Node12</title>
<path fill="none" stroke="midnightblue" d="M1010.45,-68.4672C971.427,-59.3565 908.643,-44.6988 860.04,-33.3517"/>
<polygon fill="midnightblue" stroke="midnightblue" points="860.743,-29.9218 850.209,-31.0565 859.151,-36.7384 860.743,-29.9218"/>
</g>
<!-- Node13 -->
<g id="node13" class="node"><title>Node13</title>
<polygon fill="none" stroke="#bfbfbf" points="886.5,-1 886.5,-31 1019.5,-31 1019.5,-1 886.5,-1"/>
<text text-anchor="start" x="894.5" y="-19" font-family="Helvetica,sans-Serif" font-size="10.00">boost/container/pmr</text>
<text text-anchor="middle" x="953" y="-8" font-family="Helvetica,sans-Serif" font-size="10.00">/polymorphic_allocator.hpp</text>
</g>
<!-- Node9&#45;&gt;Node13 -->
<g id="edge12" class="edge"><title>Node9&#45;&gt;Node13</title>
<path fill="none" stroke="midnightblue" d="M1033.53,-68.4035C1020.56,-60.1254 1000.49,-47.3106 983.624,-36.5474"/>
<polygon fill="midnightblue" stroke="midnightblue" points="985.466,-33.571 975.154,-31.1408 981.7,-39.4714 985.466,-33.571"/>
</g>
<!-- Node14 -->
<g id="node14" class="node"><title>Node14</title>
<polygon fill="none" stroke="#bfbfbf" points="648,-6.5 648,-25.5 694,-25.5 694,-6.5 648,-6.5"/>
<text text-anchor="middle" x="671" y="-13.5" font-family="Helvetica,sans-Serif" font-size="10.00">cstring</text>
</g>
<!-- Node9&#45;&gt;Node14 -->
<g id="edge13" class="edge"><title>Node9&#45;&gt;Node14</title>
<path fill="none" stroke="midnightblue" d="M950.464,-72.332C880.596,-67.0455 784.519,-55.8128 703,-32 700.714,-31.3323 698.386,-30.5222 696.081,-29.6284"/>
<polygon fill="midnightblue" stroke="midnightblue" points="697.467,-26.4146 686.901,-25.6319 694.673,-32.8328 697.467,-26.4146"/>
</g>
<!-- Node15 -->
<g id="node15" class="node"><title>Node15</title>
<polygon fill="none" stroke="#bfbfbf" points="588.5,-6.5 588.5,-25.5 629.5,-25.5 629.5,-6.5 588.5,-6.5"/>
<text text-anchor="middle" x="609" y="-13.5" font-family="Helvetica,sans-Serif" font-size="10.00">string</text>
</g>
<!-- Node9&#45;&gt;Node15 -->
<g id="edge14" class="edge"><title>Node9&#45;&gt;Node15</title>
<path fill="none" stroke="midnightblue" d="M950.314,-75.8912C866.434,-72.6897 742.555,-62.5358 639,-32 637.031,-31.4194 635.036,-30.7144 633.058,-29.9301"/>
<polygon fill="midnightblue" stroke="midnightblue" points="634.077,-26.5468 623.529,-25.5581 631.158,-32.9092 634.077,-26.5468"/>
</g>
<!-- Node16 -->
<g id="node16" class="node"><title>Node16</title>
<polygon fill="none" stroke="#bfbfbf" points="214,-6.5 214,-25.5 276,-25.5 276,-6.5 214,-6.5"/>
<text text-anchor="middle" x="245" y="-13.5" font-family="Helvetica,sans-Serif" font-size="10.00">type_traits</text>
</g>
<!-- Node9&#45;&gt;Node16 -->
<g id="edge15" class="edge"><title>Node9&#45;&gt;Node16</title>
<path fill="none" stroke="midnightblue" d="M950.243,-74.8892C774.423,-70.4556 409.213,-58.3295 285,-32 281.3,-31.2156 277.486,-30.1485 273.752,-28.9423"/>
<polygon fill="midnightblue" stroke="midnightblue" points="274.776,-25.5917 264.181,-25.5237 272.421,-32.1838 274.776,-25.5917"/>
</g>
<!-- Node9&#45;&gt;Node17 -->
<g id="edge16" class="edge"><title>Node9&#45;&gt;Node17</title>
<path fill="none" stroke="midnightblue" d="M1143.55,-68.9573C1148.43,-68.6175 1153.27,-68.2958 1158,-68 1339.16,-56.6636 1798.31,-77.5862 1974,-32 1976.2,-31.4296 1978.42,-30.6849 1980.62,-29.8322"/>
<polygon fill="midnightblue" stroke="midnightblue" points="1982.2,-32.956 1989.83,-25.6086 1979.28,-26.5922 1982.2,-32.956"/>
</g>
<!-- Node18 -->
<g id="node18" class="node"><title>Node18</title>
<polygon fill="none" stroke="#bfbfbf" points="2042,-6.5 2042,-25.5 2086,-25.5 2086,-6.5 2042,-6.5"/>
<text text-anchor="middle" x="2064" y="-13.5" font-family="Helvetica,sans-Serif" font-size="10.00">vector</text>
</g>
<!-- Node9&#45;&gt;Node18 -->
<g id="edge17" class="edge"><title>Node9&#45;&gt;Node18</title>
<path fill="none" stroke="midnightblue" d="M1143.73,-74.8C1375.28,-69.2173 1948.49,-53.4107 2033,-32 2035.35,-31.4053 2037.73,-30.6233 2040.07,-29.7283"/>
<polygon fill="midnightblue" stroke="midnightblue" points="2041.62,-32.8703 2049.33,-25.602 2038.77,-26.4767 2041.62,-32.8703"/>
</g>
<!-- Node19 -->
<g id="node19" class="node"><title>Node19</title>
<polygon fill="none" stroke="#bfbfbf" points="1037.5,-6.5 1037.5,-25.5 1120.5,-25.5 1120.5,-6.5 1037.5,-6.5"/>
<text text-anchor="middle" x="1079" y="-13.5" font-family="Helvetica,sans-Serif" font-size="10.00">unordered_map</text>
</g>
<!-- Node9&#45;&gt;Node19 -->
<g id="edge18" class="edge"><title>Node9&#45;&gt;Node19</title>
<path fill="none" stroke="midnightblue" d="M1051.58,-68.4035C1056.29,-59.5816 1063.74,-45.6075 1069.69,-34.4548"/>
<polygon fill="midnightblue" stroke="midnightblue" points="1072.81,-36.0512 1074.42,-25.5806 1066.63,-32.7571 1072.81,-36.0512"/>
</g>
<!-- Node20 -->
<g id="node20" class="node"><title>Node20</title>
<polygon fill="none" stroke="#bfbfbf" points="1138.5,-6.5 1138.5,-25.5 1235.5,-25.5 1235.5,-6.5 1138.5,-6.5"/>
<text text-anchor="middle" x="1187" y="-13.5" font-family="Helvetica,sans-Serif" font-size="10.00">FairMQMessage.h</text>
</g>
<!-- Node9&#45;&gt;Node20 -->
<g id="edge19" class="edge"><title>Node9&#45;&gt;Node20</title>
<path fill="none" stroke="midnightblue" d="M1067.06,-68.4035C1090.76,-58.245 1130.41,-41.2547 1157.58,-29.6074"/>
<polygon fill="midnightblue" stroke="midnightblue" points="1159.17,-32.7369 1166.98,-25.5806 1156.41,-26.3028 1159.17,-32.7369"/>
</g>
<!-- Node21 -->
<g id="node21" class="node"><title>Node21</title>
<polygon fill="none" stroke="#bfbfbf" points="1253.5,-6.5 1253.5,-25.5 1384.5,-25.5 1384.5,-6.5 1253.5,-6.5"/>
<text text-anchor="middle" x="1319" y="-13.5" font-family="Helvetica,sans-Serif" font-size="10.00">FairMQTransportFactory.h</text>
</g>
<!-- Node9&#45;&gt;Node21 -->
<g id="edge20" class="edge"><title>Node9&#45;&gt;Node21</title>
<path fill="none" stroke="midnightblue" d="M1085.68,-68.4672C1134.32,-57.7379 1217.84,-39.3157 1270.64,-27.6673"/>
<polygon fill="midnightblue" stroke="midnightblue" points="1271.44,-31.0754 1280.45,-25.5034 1269.93,-24.2397 1271.44,-31.0754"/>
</g>
<!-- Node22 -->
<g id="node22" class="node"><title>Node22</title>
<polygon fill="none" stroke="#bfbfbf" points="1402.5,-6.5 1402.5,-25.5 1539.5,-25.5 1539.5,-6.5 1402.5,-6.5"/>
<text text-anchor="middle" x="1471" y="-13.5" font-family="Helvetica,sans-Serif" font-size="10.00">fairmq/MemoryResources.h</text>
</g>
<!-- Node9&#45;&gt;Node22 -->
<g id="edge21" class="edge"><title>Node9&#45;&gt;Node22</title>
<path fill="none" stroke="midnightblue" d="M1122.79,-68.484C1193.01,-60.2751 1300.3,-46.9272 1393,-32 1401.42,-30.6449 1410.31,-29.0696 1418.97,-27.4596"/>
<polygon fill="midnightblue" stroke="midnightblue" points="1419.81,-30.8636 1428.98,-25.5646 1418.51,-23.9858 1419.81,-30.8636"/>
</g>
<!-- Node23 -->
<g id="node23" class="node"><title>Node23</title>
<polygon fill="none" stroke="#bfbfbf" points="1558,-6.5 1558,-25.5 1714,-25.5 1714,-6.5 1558,-6.5"/>
<text text-anchor="middle" x="1636" y="-13.5" font-family="Helvetica,sans-Serif" font-size="10.00">fairmq/MemoryResourceTools.h</text>
</g>
<!-- Node9&#45;&gt;Node23 -->
<g id="edge22" class="edge"><title>Node9&#45;&gt;Node23</title>
<path fill="none" stroke="midnightblue" d="M1143.51,-68.7473C1277.82,-57.1977 1509.08,-37.0564 1548,-32 1558.37,-30.6532 1569.38,-28.9749 1579.98,-27.2332"/>
<polygon fill="midnightblue" stroke="midnightblue" points="1580.69,-30.6617 1589.98,-25.5528 1579.53,-23.7585 1580.69,-30.6617"/>
</g>
<!-- Node24&#45;&gt;Node14 -->
<g id="edge27" class="edge"><title>Node24&#45;&gt;Node14</title>
<path fill="none" stroke="midnightblue" d="M564.766,-68.4035C585.484,-58.3787 619.952,-41.7006 643.989,-30.0699"/>
<polygon fill="midnightblue" stroke="midnightblue" points="645.79,-33.0868 653.267,-25.5806 642.741,-26.7857 645.79,-33.0868"/>
</g>
<!-- Node24&#45;&gt;Node15 -->
<g id="edge30" class="edge"><title>Node24&#45;&gt;Node15</title>
<path fill="none" stroke="midnightblue" d="M555.883,-68.4035C565.459,-59.1361 580.911,-44.1828 592.686,-32.7876"/>
<polygon fill="midnightblue" stroke="midnightblue" points="595.381,-35.05 600.133,-25.5806 590.513,-30.0197 595.381,-35.05"/>
</g>
<!-- Node25 -->
<g id="node25" class="node"><title>Node25</title>
<polygon fill="none" stroke="#bfbfbf" points="524,-6.5 524,-25.5 570,-25.5 570,-6.5 524,-6.5"/>
<text text-anchor="middle" x="547" y="-13.5" font-family="Helvetica,sans-Serif" font-size="10.00">cstdint</text>
</g>
<!-- Node24&#45;&gt;Node25 -->
<g id="edge24" class="edge"><title>Node24&#45;&gt;Node25</title>
<path fill="none" stroke="midnightblue" d="M547,-68.4035C547,-59.9381 547,-46.7283 547,-35.8199"/>
<polygon fill="midnightblue" stroke="midnightblue" points="550.5,-35.5806 547,-25.5806 543.5,-35.5806 550.5,-35.5806"/>
</g>
<!-- Node26 -->
<g id="node26" class="node"><title>Node26</title>
<polygon fill="none" stroke="#bfbfbf" points="144,-6.5 144,-25.5 196,-25.5 196,-6.5 144,-6.5"/>
<text text-anchor="middle" x="170" y="-13.5" font-family="Helvetica,sans-Serif" font-size="10.00">memory</text>
</g>
<!-- Node24&#45;&gt;Node26 -->
<g id="edge25" class="edge"><title>Node24&#45;&gt;Node26</title>
<path fill="none" stroke="midnightblue" d="M488.422,-69.7152C394.292,-57.9489 218.481,-35.7 205,-32 202.342,-31.2706 199.622,-30.381 196.93,-29.4027"/>
<polygon fill="midnightblue" stroke="midnightblue" points="198.051,-26.081 187.467,-25.5987 195.44,-32.5759 198.051,-26.081"/>
</g>
<!-- Node27 -->
<g id="node27" class="node"><title>Node27</title>
<polygon fill="none" stroke="#bfbfbf" points="-0.5,-6.5 -0.5,-25.5 48.5,-25.5 48.5,-6.5 -0.5,-6.5"/>
<text text-anchor="middle" x="24" y="-13.5" font-family="Helvetica,sans-Serif" font-size="10.00">cassert</text>
</g>
<!-- Node24&#45;&gt;Node27 -->
<g id="edge26" class="edge"><title>Node24&#45;&gt;Node27</title>
<path fill="none" stroke="midnightblue" d="M488.2,-77.8807C395.094,-77.8855 208.733,-72.2187 57,-32 54.4983,-31.3369 51.9487,-30.4997 49.4313,-29.5616"/>
<polygon fill="midnightblue" stroke="midnightblue" points="50.6237,-26.2658 40.05,-25.5971 47.8989,-32.7137 50.6237,-26.2658"/>
</g>
<!-- Node28 -->
<g id="node28" class="node"><title>Node28</title>
<polygon fill="none" stroke="#bfbfbf" points="450,-6.5 450,-25.5 506,-25.5 506,-6.5 450,-6.5"/>
<text text-anchor="middle" x="478" y="-13.5" font-family="Helvetica,sans-Serif" font-size="10.00">algorithm</text>
</g>
<!-- Node24&#45;&gt;Node28 -->
<g id="edge28" class="edge"><title>Node24&#45;&gt;Node28</title>
<path fill="none" stroke="midnightblue" d="M537.114,-68.4035C526.354,-59.047 508.929,-43.8948 495.779,-32.4599"/>
<polygon fill="midnightblue" stroke="midnightblue" points="497.71,-29.5013 487.868,-25.5806 493.117,-34.7835 497.71,-29.5013"/>
</g>
<!-- Node24&#45;&gt;Node29 -->
<g id="edge29" class="edge"><title>Node24&#45;&gt;Node29</title>
<path fill="none" stroke="midnightblue" d="M488.439,-69.692C483.556,-69.1094 478.694,-68.5386 474,-68 323.474,-50.7297 282.297,-67.4979 135,-32 131.756,-31.2182 128.418,-30.233 125.126,-29.1428"/>
<polygon fill="midnightblue" stroke="midnightblue" points="126.115,-25.7786 115.521,-25.6555 123.726,-32.3583 126.115,-25.7786"/>
</g>
<!-- Node30 -->
<g id="node30" class="node"><title>Node30</title>
<g id="a_node30"><a xlink:href="../../d7/df8/Types_8h.html" target="_top" xlink:title="MemoryResources/Types.h">
<polygon fill="none" stroke="black" points="294.5,-6.5 294.5,-25.5 431.5,-25.5 431.5,-6.5 294.5,-6.5"/>
<text text-anchor="middle" x="363" y="-13.5" font-family="Helvetica,sans-Serif" font-size="10.00">MemoryResources/Types.h</text>
</a>
</g>
</g>
<!-- Node24&#45;&gt;Node30 -->
<g id="edge31" class="edge"><title>Node24&#45;&gt;Node30</title>
<path fill="none" stroke="midnightblue" d="M520.637,-68.4035C488.665,-57.9777 434.624,-40.3557 398.878,-28.6992"/>
<polygon fill="midnightblue" stroke="midnightblue" points="399.906,-25.3533 389.314,-25.5806 397.736,-32.0084 399.906,-25.3533"/>
</g>
<!-- Node31&#45;&gt;Node9 -->
<g id="edge33" class="edge"><title>Node31&#45;&gt;Node9</title>
<path fill="none" stroke="midnightblue" d="M896.363,-124.444C926.738,-115.28 975.11,-100.688 1008.82,-90.5192"/>
<polygon fill="midnightblue" stroke="midnightblue" points="1010.21,-93.7555 1018.77,-87.5164 1008.18,-87.0538 1010.21,-93.7555"/>
</g>
<!-- Node31&#45;&gt;Node24 -->
<g id="edge34" class="edge"><title>Node31&#45;&gt;Node24</title>
<path fill="none" stroke="midnightblue" d="M822.689,-125.378C766.456,-115.918 670.351,-99.7506 607.764,-89.222"/>
<polygon fill="midnightblue" stroke="midnightblue" points="608.078,-85.7257 597.636,-87.5182 606.917,-92.6287 608.078,-85.7257"/>
</g>
<!-- Node36 -->
<g id="node36" class="node"><title>Node36</title>
<polygon fill="none" stroke="#bfbfbf" points="1336.5,-236.5 1336.5,-255.5 1381.5,-255.5 1381.5,-236.5 1336.5,-236.5"/>
<text text-anchor="middle" x="1359" y="-243.5" font-family="Helvetica,sans-Serif" font-size="10.00">iosfwd</text>
</g>
<!-- Node35&#45;&gt;Node36 -->
<g id="edge41" class="edge"><title>Node35&#45;&gt;Node36</title>
<path fill="none" stroke="midnightblue" d="M1317.88,-298.403C1325.15,-289.314 1336.8,-274.756 1345.84,-263.449"/>
<polygon fill="midnightblue" stroke="midnightblue" points="1348.62,-265.576 1352.14,-255.581 1343.16,-261.203 1348.62,-265.576"/>
</g>
<!-- Node37 -->
<g id="node37" class="node"><title>Node37</title>
<polygon fill="none" stroke="#bfbfbf" points="1259.5,-236.5 1259.5,-255.5 1318.5,-255.5 1318.5,-236.5 1259.5,-236.5"/>
<text text-anchor="middle" x="1289" y="-243.5" font-family="Helvetica,sans-Serif" font-size="10.00">functional</text>
</g>
<!-- Node35&#45;&gt;Node37 -->
<g id="edge42" class="edge"><title>Node35&#45;&gt;Node37</title>
<path fill="none" stroke="midnightblue" d="M1307.85,-298.403C1304.68,-289.76 1299.7,-276.17 1295.65,-265.134"/>
<polygon fill="midnightblue" stroke="midnightblue" points="1298.87,-263.764 1292.15,-255.581 1292.3,-266.174 1298.87,-263.764"/>
</g>
<!-- Node39 -->
<g id="node39" class="node"><title>Node39</title>
<polygon fill="none" stroke="#bfbfbf" points="373,-124.5 373,-143.5 453,-143.5 453,-124.5 373,-124.5"/>
<text text-anchor="middle" x="413" y="-131.5" font-family="Helvetica,sans-Serif" font-size="10.00">FairMQParts.h</text>
</g>
<!-- Node38&#45;&gt;Node39 -->
<g id="edge44" class="edge"><title>Node38&#45;&gt;Node39</title>
<path fill="none" stroke="midnightblue" d="M364.319,-180.324C372.893,-172.341 385.812,-160.313 396.188,-150.653"/>
<polygon fill="midnightblue" stroke="midnightblue" points="398.578,-153.21 403.512,-143.834 393.808,-148.086 398.578,-153.21"/>
</g>
<!-- Node40 -->
<g id="node40" class="node"><title>Node40</title>
<polygon fill="none" stroke="#bfbfbf" points="162.5,-124.5 162.5,-143.5 221.5,-143.5 221.5,-124.5 162.5,-124.5"/>
<text text-anchor="middle" x="192" y="-131.5" font-family="Helvetica,sans-Serif" font-size="10.00">TObject.h</text>
</g>
<!-- Node38&#45;&gt;Node40 -->
<g id="edge45" class="edge"><title>Node38&#45;&gt;Node40</title>
<path fill="none" stroke="midnightblue" d="M329.172,-180.444C301.751,-171.359 258.223,-156.939 227.568,-146.783"/>
<polygon fill="midnightblue" stroke="midnightblue" points="228.3,-143.339 217.707,-143.516 226.099,-149.984 228.3,-143.339"/>
</g>
<!-- Node41 -->
<g id="node41" class="node"><title>Node41</title>
<g id="a_node41"><a xlink:href="../../d6/d90/Headers_2include_2Headers_2TimeStamp_8h.html" target="_top" xlink:title="Headers/TimeStamp.h">
<polygon fill="none" stroke="black" points="239.5,-124.5 239.5,-143.5 354.5,-143.5 354.5,-124.5 239.5,-124.5"/>
<text text-anchor="middle" x="297" y="-131.5" font-family="Helvetica,sans-Serif" font-size="10.00">Headers/TimeStamp.h</text>
</a>
</g>
</g>
<!-- Node38&#45;&gt;Node41 -->
<g id="edge46" class="edge"><title>Node38&#45;&gt;Node41</title>
<path fill="none" stroke="midnightblue" d="M345.681,-180.324C337.107,-172.341 324.188,-160.313 313.812,-150.653"/>
<polygon fill="midnightblue" stroke="midnightblue" points="316.192,-148.086 306.488,-143.834 311.422,-153.21 316.192,-148.086"/>
</g>
<!-- Node41&#45;&gt;Node3 -->
<g id="edge48" class="edge"><title>Node41&#45;&gt;Node3</title>
<path fill="none" stroke="midnightblue" d="M272.915,-124.444C247.306,-115.345 206.631,-100.895 178.038,-90.7372"/>
<polygon fill="midnightblue" stroke="midnightblue" points="179.067,-87.3887 168.473,-87.339 176.724,-93.9848 179.067,-87.3887"/>
</g>
<!-- Node41&#45;&gt;Node16 -->
<g id="edge50" class="edge"><title>Node41&#45;&gt;Node16</title>
<path fill="none" stroke="midnightblue" d="M293.092,-124.281C284.58,-105.294 264.227,-59.892 252.918,-34.6624"/>
<polygon fill="midnightblue" stroke="midnightblue" points="256.097,-33.1982 248.812,-25.5048 249.709,-36.0616 256.097,-33.1982"/>
</g>
<!-- Node41&#45;&gt;Node24 -->
<g id="edge47" class="edge"><title>Node41&#45;&gt;Node24</title>
<path fill="none" stroke="midnightblue" d="M336.613,-124.444C380.225,-115.023 450.4,-99.8656 497.578,-89.6752"/>
<polygon fill="midnightblue" stroke="midnightblue" points="498.536,-93.0489 507.572,-87.5164 497.059,-86.2067 498.536,-93.0489"/>
</g>
<!-- Node41&#45;&gt;Node27 -->
<g id="edge49" class="edge"><title>Node41&#45;&gt;Node27</title>
<path fill="none" stroke="midnightblue" d="M283.416,-124.438C261.636,-110.992 217.256,-84.7333 177,-68 125.583,-46.6278 109.131,-51.5653 57,-32 55.0998,-31.2869 53.1547,-30.5153 51.2061,-29.7115"/>
<polygon fill="midnightblue" stroke="midnightblue" points="52.1923,-26.3236 41.6262,-25.5431 49.3993,-32.7423 52.1923,-26.3236"/>
</g>
<!-- Node42&#45;&gt;Node18 -->
<g id="edge52" class="edge"><title>Node42&#45;&gt;Node18</title>
<path fill="none" stroke="midnightblue" d="M1742.6,-74.9391C1817.16,-71.2282 1935.13,-60.8686 2033,-32 2035.19,-31.3541 2037.42,-30.567 2039.62,-29.6954"/>
<polygon fill="midnightblue" stroke="midnightblue" points="2041.26,-32.797 2048.95,-25.5078 2038.39,-26.4113 2041.26,-32.797"/>
</g>
</g>
</svg>
        <g id="navigator" transform="translate(0 0)" fill="#404254">
                <rect fill="#f2f5e9" fill-opacity="0.5" stroke="#606060" stroke-width=".5" x="0" y="0" width="60" height="60"/>
                <use id="zoomplus" xlink:href="#zoomPlus" x="17" y="9" onmousedown="handleZoom(evt,'in')"/>
                <use id="zoomminus" xlink:href="#zoomMin" x="42" y="9" onmousedown="handleZoom(evt,'out')"/>
                <use id="reset" xlink:href="#resetDef" x="30" y="36" onmousedown="handleReset()"/>
                <g id="arrowUp" xlink:href="#dirArrow" transform="translate(30 24)" onmousedown="handlePan(0,-1)">
                  <use xlink:href="#rim" fill="#404040">
                        <set attributeName="fill" to="#808080" begin="arrowUp.mouseover" end="arrowUp.mouseout"/>
                  </use>
                  <path fill="none" stroke="white" stroke-width="1.5" d="M0,-3.0v7 M-2.5,-0.5L0,-3.0L2.5,-0.5"/>
                </g>
                <g id="arrowRight" xlink:href="#dirArrow" transform="rotate(90) translate(36 -43)" onmousedown="handlePan(1,0)">
                  <use xlink:href="#rim" fill="#404040">
                        <set attributeName="fill" to="#808080" begin="arrowRight.mouseover" end="arrowRight.mouseout"/>
                  </use>
                  <path fill="none" stroke="white" stroke-width="1.5" d="M0,-3.0v7 M-2.5,-0.5L0,-3.0L2.5,-0.5"/>
                </g>
                <g id="arrowDown" xlink:href="#dirArrow" transform="rotate(180) translate(-30 -48)" onmousedown="handlePan(0,1)">
                  <use xlink:href="#rim" fill="#404040">
                        <set attributeName="fill" to="#808080" begin="arrowDown.mouseover" end="arrowDown.mouseout"/>
                  </use>
                  <path fill="none" stroke="white" stroke-width="1.5" d="M0,-3.0v7 M-2.5,-0.5L0,-3.0L2.5,-0.5"/>
                </g>
                <g id="arrowLeft" xlink:href="#dirArrow" transform="rotate(270) translate(-36 17)" onmousedown="handlePan(-1,0)">
                  <use xlink:href="#rim" fill="#404040">
                        <set attributeName="fill" to="#808080" begin="arrowLeft.mouseover" end="arrowLeft.mouseout"/>
                  </use>
                  <path fill="none" stroke="white" stroke-width="1.5" d="M0,-3.0v7 M-2.5,-0.5L0,-3.0L2.5,-0.5"/>
                </g>
        </g>
        <svg viewBox="0 0 15 15" width="100%" height="30px" preserveAspectRatio="xMaxYMin meet">
         <g id="arrow_out" transform="scale(0.3 0.3)">
          <a xlink:href="TimeframeWriterDevice_8cxx__incl_org.svg" target="_base">
           <rect id="button" ry="5" rx="5" y="6" x="6" height="38" width="38"
                fill="#f2f5e9" fill-opacity="0.5" stroke="#606060" stroke-width="1.0"/>
           <path id="arrow"
             d="M 11.500037,31.436501 C 11.940474,20.09759 22.043105,11.32322 32.158766,21.979434 L 37.068811,17.246167 C 37.068811,17.246167 37.088388,32 37.088388,32 L 22.160133,31.978069 C 22.160133,31.978069 26.997745,27.140456 26.997745,27.140456 C 18.528582,18.264221 13.291696,25.230495 11.500037,31.436501 z"
             style="fill:#404040;"/>
          </a>
         </g>
        </svg>
</svg>
