<?xml version="1.0" encoding="UTF-8" standalone="no"?>
<!DOCTYPE svg PUBLIC "-//W3C//DTD SVG 1.1//EN"
 "http://www.w3.org/Graphics/SVG/1.1/DTD/svg11.dtd">
<!-- Generated by graphviz version 2.36.0 (20140111.2315)
 -->
<!-- Title: /home/travis/build/AliceO2Group/AliceO2/Detectors/ITSMFT/ITS/tracking/include/ITStracking/TrackerTraits.h Pages: 1 -->
<svg width="1240pt" height="476pt"
 viewBox="0.00 0.00 1240.00 476.00" xmlns="http://www.w3.org/2000/svg" xmlns:xlink="http://www.w3.org/1999/xlink">
<g id="graph0" class="graph" transform="scale(1 1) rotate(0) translate(4 472)">
<title>/home/travis/build/AliceO2Group/AliceO2/Detectors/ITSMFT/ITS/tracking/include/ITStracking/TrackerTraits.h</title>
<!-- Node1 -->
<g id="node1" class="node"><title>Node1</title>
<polygon fill="#bfbfbf" stroke="black" points="767.5,-404.5 767.5,-467.5 908.5,-467.5 908.5,-404.5 767.5,-404.5"/>
<text text-anchor="start" x="775.5" y="-455.5" font-family="Helvetica,sans-Serif" font-size="10.00">/home/travis/build</text>
<text text-anchor="start" x="775.5" y="-444.5" font-family="Helvetica,sans-Serif" font-size="10.00">/AliceO2Group/AliceO2</text>
<text text-anchor="start" x="775.5" y="-433.5" font-family="Helvetica,sans-Serif" font-size="10.00">/Detectors/ITSMFT/ITS</text>
<text text-anchor="start" x="775.5" y="-422.5" font-family="Helvetica,sans-Serif" font-size="10.00">/tracking/include/ITStracking</text>
<text text-anchor="middle" x="838" y="-411.5" font-family="Helvetica,sans-Serif" font-size="10.00">/TrackerTraits.h</text>
</g>
<!-- Node2 -->
<g id="node2" class="node"><title>Node2</title>
<polygon fill="none" stroke="#bfbfbf" points="429,-0.5 429,-19.5 467,-19.5 467,-0.5 429,-0.5"/>
<text text-anchor="middle" x="448" y="-7.5" font-family="Helvetica,sans-Serif" font-size="10.00">array</text>
</g>
<!-- Node1&#45;&gt;Node2 -->
<g id="edge1" class="edge"><title>Node1&#45;&gt;Node2</title>
<path fill="none" stroke="midnightblue" d="M767.438,-433.058C609.189,-427.969 230.473,-411.501 111,-368 54.5823,-347.458 0,-351.041 0,-291 0,-291 0,-291 0,-121 0,-34.5425 318.661,-15.6761 418.476,-11.8872"/>
<polygon fill="midnightblue" stroke="midnightblue" points="418.881,-15.3752 428.75,-11.5219 418.632,-8.37957 418.881,-15.3752"/>
</g>
<!-- Node3 -->
<g id="node3" class="node"><title>Node3</title>
<polygon fill="none" stroke="#bfbfbf" points="980,-342.5 980,-361.5 1026,-361.5 1026,-342.5 980,-342.5"/>
<text text-anchor="middle" x="1003" y="-349.5" font-family="Helvetica,sans-Serif" font-size="10.00">chrono</text>
</g>
<!-- Node1&#45;&gt;Node3 -->
<g id="edge2" class="edge"><title>Node1&#45;&gt;Node3</title>
<path fill="none" stroke="midnightblue" d="M899.44,-404.466C926.017,-391.258 955.719,-376.497 976.475,-366.182"/>
<polygon fill="midnightblue" stroke="midnightblue" points="978.218,-369.225 985.615,-361.64 975.102,-362.956 978.218,-369.225"/>
</g>
<!-- Node4 -->
<g id="node4" class="node"><title>Node4</title>
<polygon fill="none" stroke="#bfbfbf" points="880,-112.5 880,-131.5 924,-131.5 924,-112.5 880,-112.5"/>
<text text-anchor="middle" x="902" y="-119.5" font-family="Helvetica,sans-Serif" font-size="10.00">cmath</text>
</g>
<!-- Node1&#45;&gt;Node4 -->
<g id="edge3" class="edge"><title>Node1&#45;&gt;Node4</title>
<path fill="none" stroke="midnightblue" d="M865.438,-404.287C887.207,-376.677 914,-333.968 914,-291 914,-291 914,-291 914,-233 914,-200.758 908.842,-163.512 905.289,-141.681"/>
<polygon fill="midnightblue" stroke="midnightblue" points="908.69,-140.798 903.569,-131.523 901.788,-141.967 908.69,-140.798"/>
</g>
<!-- Node5 -->
<g id="node5" class="node"><title>Node5</title>
<polygon fill="none" stroke="#bfbfbf" points="1044,-342.5 1044,-361.5 1094,-361.5 1094,-342.5 1044,-342.5"/>
<text text-anchor="middle" x="1069" y="-349.5" font-family="Helvetica,sans-Serif" font-size="10.00">fstream</text>
</g>
<!-- Node1&#45;&gt;Node5 -->
<g id="edge4" class="edge"><title>Node1&#45;&gt;Node5</title>
<path fill="none" stroke="midnightblue" d="M908.745,-412.605C946.505,-400.234 993.6,-384.137 1035,-368 1036.89,-367.262 1038.84,-366.478 1040.79,-365.672"/>
<polygon fill="midnightblue" stroke="midnightblue" points="1042.6,-368.702 1050.42,-361.55 1039.85,-362.267 1042.6,-368.702"/>
</g>
<!-- Node6 -->
<g id="node6" class="node"><title>Node6</title>
<polygon fill="none" stroke="#bfbfbf" points="1112,-342.5 1112,-361.5 1162,-361.5 1162,-342.5 1112,-342.5"/>
<text text-anchor="middle" x="1137" y="-349.5" font-family="Helvetica,sans-Serif" font-size="10.00">iomanip</text>
</g>
<!-- Node1&#45;&gt;Node6 -->
<g id="edge5" class="edge"><title>Node1&#45;&gt;Node6</title>
<path fill="none" stroke="midnightblue" d="M908.684,-420.522C962.616,-408.663 1038.39,-390.245 1103,-368 1105.26,-367.22 1107.59,-366.351 1109.9,-365.435"/>
<polygon fill="midnightblue" stroke="midnightblue" points="1111.37,-368.617 1119.23,-361.513 1108.65,-362.165 1111.37,-368.617"/>
</g>
<!-- Node7 -->
<g id="node7" class="node"><title>Node7</title>
<polygon fill="none" stroke="#bfbfbf" points="726.5,-280.5 726.5,-299.5 771.5,-299.5 771.5,-280.5 726.5,-280.5"/>
<text text-anchor="middle" x="749" y="-287.5" font-family="Helvetica,sans-Serif" font-size="10.00">iosfwd</text>
</g>
<!-- Node1&#45;&gt;Node7 -->
<g id="edge6" class="edge"><title>Node1&#45;&gt;Node7</title>
<path fill="none" stroke="midnightblue" d="M811.968,-404.298C803.183,-393.225 793.669,-380.397 786,-368 774.095,-348.755 763.238,-325.098 756.408,-309.124"/>
<polygon fill="midnightblue" stroke="midnightblue" points="759.621,-307.734 752.531,-299.861 753.163,-310.437 759.621,-307.734"/>
</g>
<!-- Node8 -->
<g id="node8" class="node"><title>Node8</title>
<polygon fill="none" stroke="#bfbfbf" points="1180,-342.5 1180,-361.5 1232,-361.5 1232,-342.5 1180,-342.5"/>
<text text-anchor="middle" x="1206" y="-349.5" font-family="Helvetica,sans-Serif" font-size="10.00">memory</text>
</g>
<!-- Node1&#45;&gt;Node8 -->
<g id="edge7" class="edge"><title>Node1&#45;&gt;Node8</title>
<path fill="none" stroke="midnightblue" d="M908.572,-425.134C976.71,-414.6 1082.32,-395.6 1171,-368 1173.49,-367.226 1176.03,-366.336 1178.57,-365.383"/>
<polygon fill="midnightblue" stroke="midnightblue" points="1180.15,-368.517 1188.1,-361.511 1177.52,-362.031 1180.15,-368.517"/>
</g>
<!-- Node9 -->
<g id="node9" class="node"><title>Node9</title>
<polygon fill="none" stroke="#bfbfbf" points="704,-112.5 704,-131.5 744,-131.5 744,-112.5 704,-112.5"/>
<text text-anchor="middle" x="724" y="-119.5" font-family="Helvetica,sans-Serif" font-size="10.00">utility</text>
</g>
<!-- Node1&#45;&gt;Node9 -->
<g id="edge8" class="edge"><title>Node1&#45;&gt;Node9</title>
<path fill="none" stroke="midnightblue" d="M838,-404.381C838,-375.23 838,-330.125 838,-291 838,-291 838,-291 838,-233 838,-202.775 837.734,-190.894 818,-168 801.351,-148.685 774.543,-136.998 753.808,-130.395"/>
<polygon fill="midnightblue" stroke="midnightblue" points="754.771,-127.029 744.188,-127.55 752.786,-133.742 754.771,-127.029"/>
</g>
<!-- Node10 -->
<g id="node10" class="node"><title>Node10</title>
<g id="a_node10"><a xlink:href="../../d3/d59/Configuration_8h.html" target="_top" xlink:title="ITStracking/Configuration.h">
<polygon fill="none" stroke="black" points="144,-168.5 144,-187.5 280,-187.5 280,-168.5 144,-168.5"/>
<text text-anchor="middle" x="212" y="-175.5" font-family="Helvetica,sans-Serif" font-size="10.00">ITStracking/Configuration.h</text>
</a>
</g>
</g>
<!-- Node1&#45;&gt;Node10 -->
<g id="edge9" class="edge"><title>Node1&#45;&gt;Node10</title>
<path fill="none" stroke="midnightblue" d="M767.046,-431.348C642.193,-424.049 388.876,-405.076 309,-368 246.027,-338.77 227.436,-312.113 214,-244 210.958,-228.579 210.633,-210.708 210.97,-197.611"/>
<polygon fill="midnightblue" stroke="midnightblue" points="214.471,-197.648 211.384,-187.513 207.477,-197.361 214.471,-197.648"/>
</g>
<!-- Node14 -->
<g id="node14" class="node"><title>Node14</title>
<g id="a_node14"><a xlink:href="../../df/d3d/Definitions_8h.html" target="_top" xlink:title="ITStracking/Definitions.h">
<polygon fill="none" stroke="black" points="613.5,-56.5 613.5,-75.5 738.5,-75.5 738.5,-56.5 613.5,-56.5"/>
<text text-anchor="middle" x="676" y="-63.5" font-family="Helvetica,sans-Serif" font-size="10.00">ITStracking/Definitions.h</text>
</a>
</g>
</g>
<!-- Node1&#45;&gt;Node14 -->
<g id="edge19" class="edge"><title>Node1&#45;&gt;Node14</title>
<path fill="none" stroke="midnightblue" d="M882.402,-404.406C914.411,-378.395 952,-337.872 952,-291 952,-291 952,-291 952,-177 952,-146.775 954.661,-132.002 932,-112 905.386,-88.5086 814.791,-76.895 748.91,-71.4324"/>
<polygon fill="midnightblue" stroke="midnightblue" points="748.809,-67.9133 738.563,-70.6076 748.253,-74.8912 748.809,-67.9133"/>
</g>
<!-- Node16 -->
<g id="node16" class="node"><title>Node16</title>
<g id="a_node16"><a xlink:href="../../dc/d3e/MathUtils_8h.html" target="_top" xlink:title="ITStracking/MathUtils.h">
<polygon fill="none" stroke="black" points="690,-168.5 690,-187.5 810,-187.5 810,-168.5 690,-168.5"/>
<text text-anchor="middle" x="750" y="-175.5" font-family="Helvetica,sans-Serif" font-size="10.00">ITStracking/MathUtils.h</text>
</a>
</g>
</g>
<!-- Node1&#45;&gt;Node16 -->
<g id="edge20" class="edge"><title>Node1&#45;&gt;Node16</title>
<path fill="none" stroke="midnightblue" d="M827.473,-404.375C808.967,-350.542 771.158,-240.552 756.247,-197.172"/>
<polygon fill="midnightblue" stroke="midnightblue" points="759.535,-195.972 752.974,-187.653 752.915,-198.247 759.535,-195.972"/>
</g>
<!-- Node17 -->
<g id="node17" class="node"><title>Node17</title>
<g id="a_node17"><a xlink:href="../../d3/da9/PrimaryVertexContext_8h.html" target="_top" xlink:title="ITStracking/PrimaryVertex\lContext.h">
<polygon fill="none" stroke="black" points="318,-337 318,-367 450,-367 450,-337 318,-337"/>
<text text-anchor="start" x="326" y="-355" font-family="Helvetica,sans-Serif" font-size="10.00">ITStracking/PrimaryVertex</text>
<text text-anchor="middle" x="384" y="-344" font-family="Helvetica,sans-Serif" font-size="10.00">Context.h</text>
</a>
</g>
</g>
<!-- Node1&#45;&gt;Node17 -->
<g id="edge24" class="edge"><title>Node1&#45;&gt;Node17</title>
<path fill="none" stroke="midnightblue" d="M767.062,-422.188C683.58,-407.109 545.517,-382.173 459.928,-366.714"/>
<polygon fill="midnightblue" stroke="midnightblue" points="460.478,-363.257 450.015,-364.924 459.234,-370.145 460.478,-363.257"/>
</g>
<!-- Node20 -->
<g id="node20" class="node"><title>Node20</title>
<g id="a_node20"><a xlink:href="../../db/d48/Road_8h.html" target="_top" xlink:title="ITStracking/Road.h">
<polygon fill="none" stroke="black" points="28.5,-224.5 28.5,-243.5 129.5,-243.5 129.5,-224.5 28.5,-224.5"/>
<text text-anchor="middle" x="79" y="-231.5" font-family="Helvetica,sans-Serif" font-size="10.00">ITStracking/Road.h</text>
</a>
</g>
</g>
<!-- Node1&#45;&gt;Node20 -->
<g id="edge50" class="edge"><title>Node1&#45;&gt;Node20</title>
<path fill="none" stroke="midnightblue" d="M767.262,-432.061C600.79,-424.596 194.453,-402.98 144,-368 104.858,-340.862 88.3236,-283.315 82.1772,-253.609"/>
<polygon fill="midnightblue" stroke="midnightblue" points="85.6021,-252.883 80.3047,-243.708 78.7241,-254.184 85.6021,-252.883"/>
</g>
<!-- Node10&#45;&gt;Node2 -->
<g id="edge10" class="edge"><title>Node10&#45;&gt;Node2</title>
<path fill="none" stroke="midnightblue" d="M209.12,-168.491C202.246,-146.416 187.617,-86.8889 218,-56 245.618,-27.9222 362.997,-16.5762 418.584,-12.7131"/>
<polygon fill="midnightblue" stroke="midnightblue" points="419.084,-16.1878 428.832,-12.0375 418.624,-9.20293 419.084,-16.1878"/>
</g>
<!-- Node11 -->
<g id="node11" class="node"><title>Node11</title>
<polygon fill="none" stroke="#bfbfbf" points="227.5,-56.5 227.5,-75.5 272.5,-75.5 272.5,-56.5 227.5,-56.5"/>
<text text-anchor="middle" x="250" y="-63.5" font-family="Helvetica,sans-Serif" font-size="10.00">climits</text>
</g>
<!-- Node10&#45;&gt;Node11 -->
<g id="edge11" class="edge"><title>Node10&#45;&gt;Node11</title>
<path fill="none" stroke="midnightblue" d="M210.982,-168.262C209.831,-155.468 208.94,-131.087 216,-112 219.933,-101.367 227.263,-91.1473 234.113,-83.142"/>
<polygon fill="midnightblue" stroke="midnightblue" points="236.767,-85.4259 240.915,-75.6768 231.592,-80.7113 236.767,-85.4259"/>
</g>
<!-- Node12 -->
<g id="node12" class="node"><title>Node12</title>
<polygon fill="none" stroke="#bfbfbf" points="336,-56.5 336,-75.5 380,-75.5 380,-56.5 336,-56.5"/>
<text text-anchor="middle" x="358" y="-63.5" font-family="Helvetica,sans-Serif" font-size="10.00">vector</text>
</g>
<!-- Node10&#45;&gt;Node12 -->
<g id="edge12" class="edge"><title>Node10&#45;&gt;Node12</title>
<path fill="none" stroke="midnightblue" d="M215.621,-168.259C221.692,-154.567 235.136,-127.978 254,-112 274.959,-94.2474 303.991,-82.4739 326.055,-75.438"/>
<polygon fill="midnightblue" stroke="midnightblue" points="327.092,-78.7812 335.649,-72.5342 325.064,-72.0814 327.092,-78.7812"/>
</g>
<!-- Node13 -->
<g id="node13" class="node"><title>Node13</title>
<g id="a_node13"><a xlink:href="../../d0/d86/Detectors_2ITSMFT_2ITS_2tracking_2include_2ITStracking_2Constants_8h.html" target="_top" xlink:title="ITStracking/Constants.h">
<polygon fill="none" stroke="black" points="296.5,-112.5 296.5,-131.5 419.5,-131.5 419.5,-112.5 296.5,-112.5"/>
<text text-anchor="middle" x="358" y="-119.5" font-family="Helvetica,sans-Serif" font-size="10.00">ITStracking/Constants.h</text>
</a>
</g>
</g>
<!-- Node10&#45;&gt;Node13 -->
<g id="edge13" class="edge"><title>Node10&#45;&gt;Node13</title>
<path fill="none" stroke="midnightblue" d="M235.134,-168.444C259.482,-159.438 298.007,-145.189 325.423,-135.049"/>
<polygon fill="midnightblue" stroke="midnightblue" points="326.809,-138.268 334.974,-131.516 324.381,-131.703 326.809,-138.268"/>
</g>
<!-- Node13&#45;&gt;Node11 -->
<g id="edge14" class="edge"><title>Node13&#45;&gt;Node11</title>
<path fill="none" stroke="midnightblue" d="M340.648,-112.324C323.328,-103.664 296.485,-90.2424 276.498,-80.249"/>
<polygon fill="midnightblue" stroke="midnightblue" points="277.819,-76.9962 267.309,-75.6545 274.688,-83.2572 277.819,-76.9962"/>
</g>
<!-- Node13&#45;&gt;Node12 -->
<g id="edge15" class="edge"><title>Node13&#45;&gt;Node12</title>
<path fill="none" stroke="midnightblue" d="M358,-112.083C358,-105.006 358,-94.8611 358,-85.9865"/>
<polygon fill="midnightblue" stroke="midnightblue" points="361.5,-85.751 358,-75.7511 354.5,-85.7511 361.5,-85.751"/>
</g>
<!-- Node13&#45;&gt;Node14 -->
<g id="edge16" class="edge"><title>Node13&#45;&gt;Node14</title>
<path fill="none" stroke="midnightblue" d="M408.388,-112.444C464.676,-102.885 555.752,-87.4195 615.758,-77.2298"/>
<polygon fill="midnightblue" stroke="midnightblue" points="616.575,-80.6413 625.848,-75.5164 615.403,-73.7401 616.575,-80.6413"/>
</g>
<!-- Node14&#45;&gt;Node2 -->
<g id="edge17" class="edge"><title>Node14&#45;&gt;Node2</title>
<path fill="none" stroke="midnightblue" d="M639.873,-56.4435C594.728,-45.7513 518.373,-27.6673 476.901,-17.845"/>
<polygon fill="midnightblue" stroke="midnightblue" points="477.687,-14.4343 467.149,-15.5354 476.073,-21.2459 477.687,-14.4343"/>
</g>
<!-- Node15 -->
<g id="node15" class="node"><title>Node15</title>
<polygon fill="none" stroke="#bfbfbf" points="609,-0.5 609,-19.5 743,-19.5 743,-0.5 609,-0.5"/>
<text text-anchor="middle" x="676" y="-7.5" font-family="Helvetica,sans-Serif" font-size="10.00">AliTPCCommonDefGPU.h</text>
</g>
<!-- Node14&#45;&gt;Node15 -->
<g id="edge18" class="edge"><title>Node14&#45;&gt;Node15</title>
<path fill="none" stroke="midnightblue" d="M676,-56.083C676,-49.0059 676,-38.8611 676,-29.9865"/>
<polygon fill="midnightblue" stroke="midnightblue" points="679.5,-29.751 676,-19.7511 672.5,-29.7511 679.5,-29.751"/>
</g>
<!-- Node16&#45;&gt;Node2 -->
<g id="edge21" class="edge"><title>Node16&#45;&gt;Node2</title>
<path fill="none" stroke="midnightblue" d="M754.876,-168.372C759.559,-159.552 766.308,-145.299 769,-132 775.978,-97.5347 774.499,-77.9171 747,-56 726.061,-39.3115 548.581,-20.6409 477.379,-13.7477"/>
<polygon fill="midnightblue" stroke="midnightblue" points="477.578,-10.2508 467.29,-12.7811 476.91,-17.2189 477.578,-10.2508"/>
</g>
<!-- Node16&#45;&gt;Node4 -->
<g id="edge22" class="edge"><title>Node16&#45;&gt;Node4</title>
<path fill="none" stroke="midnightblue" d="M774.085,-168.444C799.994,-159.239 841.323,-144.556 869.96,-134.383"/>
<polygon fill="midnightblue" stroke="midnightblue" points="871.263,-137.634 879.514,-130.988 868.92,-131.038 871.263,-137.634"/>
</g>
<!-- Node16&#45;&gt;Node13 -->
<g id="edge23" class="edge"><title>Node16&#45;&gt;Node13</title>
<path fill="none" stroke="midnightblue" d="M689.609,-168.681C619.664,-159.046 504.527,-143.185 429.993,-132.917"/>
<polygon fill="midnightblue" stroke="midnightblue" points="430.138,-129.404 419.754,-131.507 429.183,-136.339 430.138,-129.404"/>
</g>
<!-- Node17&#45;&gt;Node2 -->
<g id="edge26" class="edge"><title>Node17&#45;&gt;Node2</title>
<path fill="none" stroke="midnightblue" d="M325.073,-336.993C243.576,-314.031 109.213,-261.339 135,-168 150.447,-112.09 154.334,-89.0533 202,-56 236.775,-31.8857 361.23,-18.4034 418.623,-13.3435"/>
<polygon fill="midnightblue" stroke="midnightblue" points="419.177,-16.809 428.843,-12.4696 418.581,-9.83448 419.177,-16.809"/>
</g>
<!-- Node17&#45;&gt;Node7 -->
<g id="edge27" class="edge"><title>Node17&#45;&gt;Node7</title>
<path fill="none" stroke="midnightblue" d="M450.254,-342.37C516.71,-333.322 621.85,-317.94 712,-300 713.459,-299.71 714.947,-299.401 716.448,-299.079"/>
<polygon fill="midnightblue" stroke="midnightblue" points="717.393,-302.454 726.369,-296.825 715.842,-295.628 717.393,-302.454"/>
</g>
<!-- Node17&#45;&gt;Node10 -->
<g id="edge33" class="edge"><title>Node17&#45;&gt;Node10</title>
<path fill="none" stroke="midnightblue" d="M317.835,-337.48C294.736,-329.856 270.29,-318.079 253,-300 225.624,-271.376 216.491,-223.809 213.47,-197.655"/>
<polygon fill="midnightblue" stroke="midnightblue" points="216.942,-197.196 212.491,-187.581 209.975,-197.873 216.942,-197.196"/>
</g>
<!-- Node17&#45;&gt;Node12 -->
<g id="edge28" class="edge"><title>Node17&#45;&gt;Node12</title>
<path fill="none" stroke="midnightblue" d="M375.193,-336.848C354.728,-303.023 304.385,-214.18 287,-132 285.16,-123.304 282.715,-119.788 287,-112 295.482,-96.5813 311.727,-85.7037 326.539,-78.5102"/>
<polygon fill="midnightblue" stroke="midnightblue" points="328.263,-81.574 335.97,-74.3044 325.412,-75.1809 328.263,-81.574"/>
</g>
<!-- Node17&#45;&gt;Node13 -->
<g id="edge34" class="edge"><title>Node17&#45;&gt;Node13</title>
<path fill="none" stroke="midnightblue" d="M382.374,-336.738C377.874,-297.277 365.256,-186.626 360.167,-142.007"/>
<polygon fill="midnightblue" stroke="midnightblue" points="363.631,-141.486 359.02,-131.947 356.676,-142.279 363.631,-141.486"/>
</g>
<!-- Node17&#45;&gt;Node14 -->
<g id="edge35" class="edge"><title>Node17&#45;&gt;Node14</title>
<path fill="none" stroke="midnightblue" d="M447.55,-336.991C557.947,-311.162 777.297,-252.727 818,-188 849.343,-138.158 764.572,-98.0886 712.786,-79.045"/>
<polygon fill="midnightblue" stroke="midnightblue" points="713.819,-75.6974 703.225,-75.628 711.464,-82.2892 713.819,-75.6974"/>
</g>
<!-- Node18 -->
<g id="node18" class="node"><title>Node18</title>
<polygon fill="none" stroke="#bfbfbf" points="262,-280.5 262,-299.5 318,-299.5 318,-280.5 262,-280.5"/>
<text text-anchor="middle" x="290" y="-287.5" font-family="Helvetica,sans-Serif" font-size="10.00">algorithm</text>
</g>
<!-- Node17&#45;&gt;Node18 -->
<g id="edge25" class="edge"><title>Node17&#45;&gt;Node18</title>
<path fill="none" stroke="midnightblue" d="M361.723,-336.781C346.707,-327.196 326.983,-314.606 312.02,-305.056"/>
<polygon fill="midnightblue" stroke="midnightblue" points="313.716,-301.986 303.404,-299.556 309.95,-307.886 313.716,-301.986"/>
</g>
<!-- Node19 -->
<g id="node19" class="node"><title>Node19</title>
<g id="a_node19"><a xlink:href="../../d2/d56/Cell_8h.html" target="_top" xlink:title="ITStracking/Cell.h">
<polygon fill="none" stroke="black" points="552.5,-112.5 552.5,-131.5 647.5,-131.5 647.5,-112.5 552.5,-112.5"/>
<text text-anchor="middle" x="600" y="-119.5" font-family="Helvetica,sans-Serif" font-size="10.00">ITStracking/Cell.h</text>
</a>
</g>
</g>
<!-- Node17&#45;&gt;Node19 -->
<g id="edge29" class="edge"><title>Node17&#45;&gt;Node19</title>
<path fill="none" stroke="midnightblue" d="M450.041,-345.329C486.354,-339.18 530.156,-326.422 561,-300 607.964,-259.769 608.42,-229.745 605,-168 604.521,-159.358 603.529,-149.825 602.554,-141.767"/>
<polygon fill="midnightblue" stroke="midnightblue" points="605.994,-141.073 601.242,-131.603 599.052,-141.969 605.994,-141.073"/>
</g>
<!-- Node17&#45;&gt;Node20 -->
<g id="edge36" class="edge"><title>Node17&#45;&gt;Node20</title>
<path fill="none" stroke="midnightblue" d="M317.697,-339.754C277.421,-331.592 225.547,-318.675 182,-300 150.823,-286.63 118.271,-264.49 98.3117,-249.823"/>
<polygon fill="midnightblue" stroke="midnightblue" points="100.183,-246.852 90.0774,-243.668 95.9918,-252.459 100.183,-246.852"/>
</g>
<!-- Node21 -->
<g id="node21" class="node"><title>Node21</title>
<g id="a_node21"><a xlink:href="../../da/dc0/Tracklet_8h.html" target="_top" xlink:title="ITStracking/Tracklet.h">
<polygon fill="none" stroke="black" points="439.5,-280.5 439.5,-299.5 552.5,-299.5 552.5,-280.5 439.5,-280.5"/>
<text text-anchor="middle" x="496" y="-287.5" font-family="Helvetica,sans-Serif" font-size="10.00">ITStracking/Tracklet.h</text>
</a>
</g>
</g>
<!-- Node17&#45;&gt;Node21 -->
<g id="edge39" class="edge"><title>Node17&#45;&gt;Node21</title>
<path fill="none" stroke="midnightblue" d="M410.259,-336.933C428.48,-327.171 452.618,-314.24 470.64,-304.586"/>
<polygon fill="midnightblue" stroke="midnightblue" points="472.785,-307.407 479.947,-299.6 469.479,-301.237 472.785,-307.407"/>
</g>
<!-- Node19&#45;&gt;Node2 -->
<g id="edge30" class="edge"><title>Node19&#45;&gt;Node2</title>
<path fill="none" stroke="midnightblue" d="M593.176,-112.074C582.534,-98.6041 560.828,-72.8666 538,-56 519.063,-42.0086 495.12,-30.2766 476.691,-22.3029"/>
<polygon fill="midnightblue" stroke="midnightblue" points="477.925,-19.025 467.35,-18.3767 475.213,-25.4781 477.925,-19.025"/>
</g>
<!-- Node19&#45;&gt;Node12 -->
<g id="edge31" class="edge"><title>Node19&#45;&gt;Node12</title>
<path fill="none" stroke="midnightblue" d="M561.654,-112.444C514.275,-101.871 434.508,-84.0719 390.17,-74.1785"/>
<polygon fill="midnightblue" stroke="midnightblue" points="390.747,-70.7213 380.225,-71.9593 389.223,-77.5532 390.747,-70.7213"/>
</g>
<!-- Node19&#45;&gt;Node14 -->
<g id="edge32" class="edge"><title>Node19&#45;&gt;Node14</title>
<path fill="none" stroke="midnightblue" d="M612.211,-112.324C623.776,-104.107 641.375,-91.6017 655.161,-81.8069"/>
<polygon fill="midnightblue" stroke="midnightblue" points="657.443,-84.4791 663.567,-75.8339 653.388,-78.7729 657.443,-84.4791"/>
</g>
<!-- Node20&#45;&gt;Node2 -->
<g id="edge37" class="edge"><title>Node20&#45;&gt;Node2</title>
<path fill="none" stroke="midnightblue" d="M76.956,-224.459C70.6883,-195.935 54.893,-103.112 102,-56 146.089,-11.9061 343.036,-9.6296 418.471,-10.4286"/>
<polygon fill="midnightblue" stroke="midnightblue" points="418.64,-13.9311 428.686,-10.5642 418.733,-6.9317 418.64,-13.9311"/>
</g>
<!-- Node20&#45;&gt;Node13 -->
<g id="edge38" class="edge"><title>Node20&#45;&gt;Node13</title>
<path fill="none" stroke="midnightblue" d="M129.533,-229.839C173.768,-225.336 238.652,-214.425 289,-188 311.658,-176.108 332.246,-154.684 344.92,-139.693"/>
<polygon fill="midnightblue" stroke="midnightblue" points="347.808,-141.69 351.424,-131.731 342.387,-137.262 347.808,-141.69"/>
</g>
<!-- Node22 -->
<g id="node22" class="node"><title>Node22</title>
<g id="a_node22"><a xlink:href="../../da/d7f/Detectors_2ITSMFT_2ITS_2tracking_2include_2ITStracking_2Cluster_8h.html" target="_top" xlink:title="ITStracking/Cluster.h">
<polygon fill="none" stroke="black" points="468,-224.5 468,-243.5 578,-243.5 578,-224.5 468,-224.5"/>
<text text-anchor="middle" x="523" y="-231.5" font-family="Helvetica,sans-Serif" font-size="10.00">ITStracking/Cluster.h</text>
</a>
</g>
</g>
<!-- Node21&#45;&gt;Node22 -->
<g id="edge40" class="edge"><title>Node21&#45;&gt;Node22</title>
<path fill="none" stroke="midnightblue" d="M500.459,-280.083C504.154,-272.691 509.523,-261.953 514.094,-252.811"/>
<polygon fill="midnightblue" stroke="midnightblue" points="517.283,-254.261 518.624,-243.751 511.022,-251.13 517.283,-254.261"/>
</g>
<!-- Node22&#45;&gt;Node2 -->
<g id="edge41" class="edge"><title>Node22&#45;&gt;Node2</title>
<path fill="none" stroke="midnightblue" d="M491.191,-224.385C473.054,-217.661 451.836,-206.306 441,-188 425.426,-161.689 438.268,-69.4679 444.78,-29.5971"/>
<polygon fill="midnightblue" stroke="midnightblue" points="448.248,-30.0772 446.454,-19.6353 441.345,-28.9166 448.248,-30.0772"/>
</g>
<!-- Node22&#45;&gt;Node14 -->
<g id="edge42" class="edge"><title>Node22&#45;&gt;Node14</title>
<path fill="none" stroke="midnightblue" d="M544.375,-224.354C600.259,-201.653 746.83,-141.448 753,-132 767.483,-109.823 737.901,-91.1417 711.31,-79.5787"/>
<polygon fill="midnightblue" stroke="midnightblue" points="712.316,-76.2083 701.736,-75.6475 709.657,-82.6837 712.316,-76.2083"/>
</g>
<!-- Node22&#45;&gt;Node16 -->
<g id="edge43" class="edge"><title>Node22&#45;&gt;Node16</title>
<path fill="none" stroke="midnightblue" d="M558.969,-224.444C598.319,-215.083 661.487,-200.056 704.314,-189.868"/>
<polygon fill="midnightblue" stroke="midnightblue" points="705.281,-193.236 714.199,-187.516 703.661,-186.426 705.281,-193.236"/>
</g>
<!-- Node23 -->
<g id="node23" class="node"><title>Node23</title>
<g id="a_node23"><a xlink:href="../../d2/d0c/IndexTableUtils_8h.html" target="_top" xlink:title="ITStracking/IndexTableUtils.h">
<polygon fill="none" stroke="black" points="450,-168.5 450,-187.5 596,-187.5 596,-168.5 450,-168.5"/>
<text text-anchor="middle" x="523" y="-175.5" font-family="Helvetica,sans-Serif" font-size="10.00">ITStracking/IndexTableUtils.h</text>
</a>
</g>
</g>
<!-- Node22&#45;&gt;Node23 -->
<g id="edge44" class="edge"><title>Node22&#45;&gt;Node23</title>
<path fill="none" stroke="midnightblue" d="M523,-224.083C523,-217.006 523,-206.861 523,-197.986"/>
<polygon fill="midnightblue" stroke="midnightblue" points="526.5,-197.751 523,-187.751 519.5,-197.751 526.5,-197.751"/>
</g>
<!-- Node23&#45;&gt;Node2 -->
<g id="edge45" class="edge"><title>Node23&#45;&gt;Node2</title>
<path fill="none" stroke="midnightblue" d="M518.968,-168.075C507.111,-141.832 472.192,-64.5453 456.185,-29.1165"/>
<polygon fill="midnightblue" stroke="midnightblue" points="459.178,-27.2401 451.871,-19.5681 452.799,-30.1222 459.178,-27.2401"/>
</g>
<!-- Node23&#45;&gt;Node9 -->
<g id="edge46" class="edge"><title>Node23&#45;&gt;Node9</title>
<path fill="none" stroke="midnightblue" d="M554.849,-168.444C593.096,-158.168 656.754,-141.066 694.109,-131.03"/>
<polygon fill="midnightblue" stroke="midnightblue" points="695.155,-134.374 703.904,-128.399 693.339,-127.613 695.155,-134.374"/>
</g>
<!-- Node23&#45;&gt;Node12 -->
<g id="edge47" class="edge"><title>Node23&#45;&gt;Node12</title>
<path fill="none" stroke="midnightblue" d="M510.779,-168.473C492.765,-155.941 457.976,-131.884 428,-112 412.153,-101.488 394.097,-89.8897 380.292,-81.1008"/>
<polygon fill="midnightblue" stroke="midnightblue" points="381.812,-77.9197 371.494,-75.513 378.059,-83.8287 381.812,-77.9197"/>
</g>
<!-- Node23&#45;&gt;Node13 -->
<g id="edge48" class="edge"><title>Node23&#45;&gt;Node13</title>
<path fill="none" stroke="midnightblue" d="M496.855,-168.444C468.977,-159.32 424.652,-144.813 393.6,-134.651"/>
<polygon fill="midnightblue" stroke="midnightblue" points="394.615,-131.3 384.022,-131.516 392.438,-137.953 394.615,-131.3"/>
</g>
<!-- Node23&#45;&gt;Node14 -->
<g id="edge49" class="edge"><title>Node23&#45;&gt;Node14</title>
<path fill="none" stroke="midnightblue" d="M585.533,-168.455C610.367,-162.133 637.39,-151.134 656,-132 667.952,-119.712 672.78,-100.455 674.72,-86.086"/>
<polygon fill="midnightblue" stroke="midnightblue" points="678.233,-86.134 675.738,-75.837 671.267,-85.4421 678.233,-86.134"/>
</g>
</g>
</svg>
