<?xml version="1.0" encoding="UTF-8" standalone="no"?>
<!DOCTYPE svg PUBLIC "-//W3C//DTD SVG 1.1//EN"
 "http://www.w3.org/Graphics/SVG/1.1/DTD/svg11.dtd">
<!-- Generated by graphviz version 2.36.0 (20140111.2315)
 -->
<!-- Title: /home/travis/build/AliceO2Group/AliceO2/Detectors/HMPID/simulation/src/HMPIDDigitizer.cxx Pages: 1 -->
<svg width="2394pt" height="490pt"
 viewBox="0.00 0.00 2394.00 490.00" xmlns="http://www.w3.org/2000/svg" xmlns:xlink="http://www.w3.org/1999/xlink">
<g id="graph0" class="graph" transform="scale(1 1) rotate(0) translate(4 486)">
<title>/home/travis/build/AliceO2Group/AliceO2/Detectors/HMPID/simulation/src/HMPIDDigitizer.cxx</title>
<!-- Node1 -->
<g id="node1" class="node"><title>Node1</title>
<polygon fill="#bfbfbf" stroke="black" points="959,-429 959,-481 1105,-481 1105,-429 959,-429"/>
<text text-anchor="start" x="967" y="-469" font-family="Helvetica,sans-Serif" font-size="10.00">/home/travis/build</text>
<text text-anchor="start" x="967" y="-458" font-family="Helvetica,sans-Serif" font-size="10.00">/AliceO2Group/AliceO2</text>
<text text-anchor="start" x="967" y="-447" font-family="Helvetica,sans-Serif" font-size="10.00">/Detectors/HMPID/simulation</text>
<text text-anchor="middle" x="1032" y="-436" font-family="Helvetica,sans-Serif" font-size="10.00">/src/HMPIDDigitizer.cxx</text>
</g>
<!-- Node2 -->
<g id="node2" class="node"><title>Node2</title>
<g id="a_node2"><a xlink:href="../../d7/d3d/HMPIDDigitizer_8h.html" target="_top" xlink:title="HMPIDSimulation/HMPIDDigitizer.h">
<polygon fill="none" stroke="black" points="1007,-372.5 1007,-391.5 1183,-391.5 1183,-372.5 1007,-372.5"/>
<text text-anchor="middle" x="1095" y="-379.5" font-family="Helvetica,sans-Serif" font-size="10.00">HMPIDSimulation/HMPIDDigitizer.h</text>
</a>
</g>
</g>
<!-- Node1&#45;&gt;Node2 -->
<g id="edge1" class="edge"><title>Node1&#45;&gt;Node2</title>
<path fill="none" stroke="midnightblue" d="M1054.39,-428.768C1063.07,-418.982 1072.77,-408.056 1080.51,-399.335"/>
<polygon fill="midnightblue" stroke="midnightblue" points="1083.21,-401.56 1087.23,-391.757 1077.97,-396.914 1083.21,-401.56"/>
</g>
<!-- Node3 -->
<g id="node3" class="node"><title>Node3</title>
<g id="a_node3"><a xlink:href="../../d7/d09/HMPID_2base_2include_2HMPIDBase_2Digit_8h.html" target="_top" xlink:title="HMPIDBase/Digit.h">
<polygon fill="none" stroke="black" points="901,-316.5 901,-335.5 1005,-335.5 1005,-316.5 901,-316.5"/>
<text text-anchor="middle" x="953" y="-323.5" font-family="Helvetica,sans-Serif" font-size="10.00">HMPIDBase/Digit.h</text>
</a>
</g>
</g>
<!-- Node1&#45;&gt;Node3 -->
<g id="edge60" class="edge"><title>Node1&#45;&gt;Node3</title>
<path fill="none" stroke="midnightblue" d="M1016.39,-428.909C1000.8,-403.847 977.259,-365.999 963.682,-344.172"/>
<polygon fill="midnightblue" stroke="midnightblue" points="966.621,-342.27 958.367,-335.628 960.677,-345.968 966.621,-342.27"/>
</g>
<!-- Node2&#45;&gt;Node3 -->
<g id="edge2" class="edge"><title>Node2&#45;&gt;Node3</title>
<path fill="none" stroke="midnightblue" d="M1072.5,-372.444C1048.92,-363.478 1011.68,-349.314 985.036,-339.183"/>
<polygon fill="midnightblue" stroke="midnightblue" points="985.986,-335.8 975.395,-335.516 983.498,-342.342 985.986,-335.8"/>
</g>
<!-- Node32 -->
<g id="node32" class="node"><title>Node32</title>
<g id="a_node32"><a xlink:href="../../df/d79/HMPID_2simulation_2include_2HMPIDSimulation_2Detector_8h.html" target="_top" xlink:title="HMPIDSimulation/Detector.h">
<polygon fill="none" stroke="black" points="1377,-316.5 1377,-335.5 1521,-335.5 1521,-316.5 1377,-316.5"/>
<text text-anchor="middle" x="1449" y="-323.5" font-family="Helvetica,sans-Serif" font-size="10.00">HMPIDSimulation/Detector.h</text>
</a>
</g>
</g>
<!-- Node2&#45;&gt;Node32 -->
<g id="edge33" class="edge"><title>Node2&#45;&gt;Node32</title>
<path fill="none" stroke="midnightblue" d="M1151.09,-372.444C1214.14,-362.826 1316.4,-347.228 1383.18,-337.041"/>
<polygon fill="midnightblue" stroke="midnightblue" points="1383.81,-340.484 1393.17,-335.516 1382.76,-333.565 1383.81,-340.484"/>
</g>
<!-- Node33 -->
<g id="node33" class="node"><title>Node33</title>
<polygon fill="none" stroke="#bfbfbf" points="2342,-198.5 2342,-217.5 2386,-217.5 2386,-198.5 2342,-198.5"/>
<text text-anchor="middle" x="2364" y="-205.5" font-family="Helvetica,sans-Serif" font-size="10.00">vector</text>
</g>
<!-- Node2&#45;&gt;Node33 -->
<g id="edge59" class="edge"><title>Node2&#45;&gt;Node33</title>
<path fill="none" stroke="midnightblue" d="M1183.29,-378.271C1364.92,-371.397 1792.93,-348.697 2145,-280 2230.57,-263.304 2251.72,-255.534 2333,-224 2334.65,-223.361 2336.33,-222.669 2338.01,-221.946"/>
<polygon fill="midnightblue" stroke="midnightblue" points="2339.86,-224.95 2347.49,-217.599 2336.94,-218.588 2339.86,-224.95"/>
</g>
<!-- Node4 -->
<g id="node4" class="node"><title>Node4</title>
<g id="a_node4"><a xlink:href="../../df/d5d/common_2include_2CommonDataFormat_2TimeStamp_8h.html" target="_top" xlink:title="CommonDataFormat/TimeStamp.h">
<polygon fill="none" stroke="black" points="793,-260.5 793,-279.5 963,-279.5 963,-260.5 793,-260.5"/>
<text text-anchor="middle" x="878" y="-267.5" font-family="Helvetica,sans-Serif" font-size="10.00">CommonDataFormat/TimeStamp.h</text>
</a>
</g>
</g>
<!-- Node3&#45;&gt;Node4 -->
<g id="edge3" class="edge"><title>Node3&#45;&gt;Node4</title>
<path fill="none" stroke="midnightblue" d="M940.95,-316.324C929.537,-308.107 912.169,-295.602 898.565,-285.807"/>
<polygon fill="midnightblue" stroke="midnightblue" points="900.43,-282.837 890.269,-279.834 896.34,-288.517 900.43,-282.837"/>
</g>
<!-- Node6 -->
<g id="node6" class="node"><title>Node6</title>
<g id="a_node6"><a xlink:href="../../d9/dc6/HMPID_2base_2include_2HMPIDBase_2Hit_8h.html" target="_top" xlink:title="HMPIDBase/Hit.h">
<polygon fill="none" stroke="black" points="1060,-260.5 1060,-279.5 1156,-279.5 1156,-260.5 1060,-260.5"/>
<text text-anchor="middle" x="1108" y="-267.5" font-family="Helvetica,sans-Serif" font-size="10.00">HMPIDBase/Hit.h</text>
</a>
</g>
</g>
<!-- Node3&#45;&gt;Node6 -->
<g id="edge5" class="edge"><title>Node3&#45;&gt;Node6</title>
<path fill="none" stroke="midnightblue" d="M977.56,-316.444C1003.52,-307.399 1044.67,-293.064 1073.8,-282.916"/>
<polygon fill="midnightblue" stroke="midnightblue" points="1075.26,-286.112 1083.55,-279.516 1072.96,-279.501 1075.26,-286.112"/>
</g>
<!-- Node26 -->
<g id="node26" class="node"><title>Node26</title>
<g id="a_node26"><a xlink:href="../../de/d16/Param_8h.html" target="_top" xlink:title="HMPIDBase/Param.h">
<polygon fill="none" stroke="black" points="586,-260.5 586,-279.5 698,-279.5 698,-260.5 586,-260.5"/>
<text text-anchor="middle" x="642" y="-267.5" font-family="Helvetica,sans-Serif" font-size="10.00">HMPIDBase/Param.h</text>
</a>
</g>
</g>
<!-- Node3&#45;&gt;Node26 -->
<g id="edge26" class="edge"><title>Node3&#45;&gt;Node26</title>
<path fill="none" stroke="midnightblue" d="M903.721,-316.444C848.672,-306.885 759.601,-291.419 700.916,-281.23"/>
<polygon fill="midnightblue" stroke="midnightblue" points="701.5,-277.779 691.048,-279.516 700.302,-284.676 701.5,-277.779"/>
</g>
<!-- Node28 -->
<g id="node28" class="node"><title>Node28</title>
<polygon fill="none" stroke="#bfbfbf" points="429.5,-198.5 429.5,-217.5 482.5,-217.5 482.5,-198.5 429.5,-198.5"/>
<text text-anchor="middle" x="456" y="-205.5" font-family="Helvetica,sans-Serif" font-size="10.00">TMath.h</text>
</g>
<!-- Node3&#45;&gt;Node28 -->
<g id="edge32" class="edge"><title>Node3&#45;&gt;Node28</title>
<path fill="none" stroke="midnightblue" d="M900.752,-325.42C826.751,-324.538 688.058,-317.406 577,-280 538.079,-266.891 497.936,-240.249 475.065,-223.588"/>
<polygon fill="midnightblue" stroke="midnightblue" points="477.029,-220.687 466.914,-217.536 472.856,-226.307 477.029,-220.687"/>
</g>
<!-- Node5 -->
<g id="node5" class="node"><title>Node5</title>
<polygon fill="none" stroke="#bfbfbf" points="1183,-74.5 1183,-93.5 1239,-93.5 1239,-74.5 1183,-74.5"/>
<text text-anchor="middle" x="1211" y="-81.5" font-family="Helvetica,sans-Serif" font-size="10.00">Rtypes.h</text>
</g>
<!-- Node4&#45;&gt;Node5 -->
<g id="edge4" class="edge"><title>Node4&#45;&gt;Node5</title>
<path fill="none" stroke="midnightblue" d="M871.452,-260.15C861.096,-244.978 843.524,-213.556 858,-192 939.55,-70.5662 1033.91,-142.082 1174,-100 1176.65,-99.2049 1179.37,-98.2935 1182.07,-97.3214"/>
<polygon fill="midnightblue" stroke="midnightblue" points="1183.58,-100.491 1191.66,-93.634 1181.07,-93.9581 1183.58,-100.491"/>
</g>
<!-- Node7 -->
<g id="node7" class="node"><title>Node7</title>
<g id="a_node7"><a xlink:href="../../d4/d25/BaseHits_8h.html" target="_top" xlink:title="SimulationDataFormat\l/BaseHits.h">
<polygon fill="none" stroke="black" points="867,-193 867,-223 981,-223 981,-193 867,-193"/>
<text text-anchor="start" x="875" y="-211" font-family="Helvetica,sans-Serif" font-size="10.00">SimulationDataFormat</text>
<text text-anchor="middle" x="924" y="-200" font-family="Helvetica,sans-Serif" font-size="10.00">/BaseHits.h</text>
</a>
</g>
</g>
<!-- Node6&#45;&gt;Node7 -->
<g id="edge6" class="edge"><title>Node6&#45;&gt;Node7</title>
<path fill="none" stroke="midnightblue" d="M1081.64,-260.403C1054.41,-251.526 1011.19,-237.432 976.886,-226.245"/>
<polygon fill="midnightblue" stroke="midnightblue" points="977.603,-222.798 967.011,-223.025 975.433,-229.453 977.603,-222.798"/>
</g>
<!-- Node19 -->
<g id="node19" class="node"><title>Node19</title>
<g id="a_node19"><a xlink:href="../../d0/d91/ShmAllocator_8h.html" target="_top" xlink:title="CommonUtils/ShmAllocator.h">
<polygon fill="none" stroke="black" points="1075,-198.5 1075,-217.5 1221,-217.5 1221,-198.5 1075,-198.5"/>
<text text-anchor="middle" x="1148" y="-205.5" font-family="Helvetica,sans-Serif" font-size="10.00">CommonUtils/ShmAllocator.h</text>
</a>
</g>
</g>
<!-- Node6&#45;&gt;Node19 -->
<g id="edge19" class="edge"><title>Node6&#45;&gt;Node19</title>
<path fill="none" stroke="midnightblue" d="M1113.73,-260.403C1119.67,-251.493 1129.12,-237.325 1136.59,-226.118"/>
<polygon fill="midnightblue" stroke="midnightblue" points="1139.64,-227.843 1142.28,-217.581 1133.82,-223.96 1139.64,-227.843"/>
</g>
<!-- Node8 -->
<g id="node8" class="node"><title>Node8</title>
<g id="a_node8"><a xlink:href="../../dd/d76/Cartesian3D_8h.html" target="_top" xlink:title="MathUtils/Cartesian3D.h">
<polygon fill="none" stroke="black" points="585.5,-136.5 585.5,-155.5 710.5,-155.5 710.5,-136.5 585.5,-136.5"/>
<text text-anchor="middle" x="648" y="-143.5" font-family="Helvetica,sans-Serif" font-size="10.00">MathUtils/Cartesian3D.h</text>
</a>
</g>
</g>
<!-- Node7&#45;&gt;Node8 -->
<g id="edge7" class="edge"><title>Node7&#45;&gt;Node8</title>
<path fill="none" stroke="midnightblue" d="M866.813,-194.568C816.798,-183.695 744.918,-168.069 697.37,-157.733"/>
<polygon fill="midnightblue" stroke="midnightblue" points="697.83,-154.251 687.315,-155.547 696.343,-161.091 697.83,-154.251"/>
</g>
<!-- Node8&#45;&gt;Node5 -->
<g id="edge13" class="edge"><title>Node8&#45;&gt;Node5</title>
<path fill="none" stroke="midnightblue" d="M710.863,-141.983C830.716,-135.841 1087.66,-120.695 1174,-100 1177.07,-99.2644 1180.22,-98.3159 1183.32,-97.2537"/>
<polygon fill="midnightblue" stroke="midnightblue" points="1184.82,-100.428 1192.91,-93.5935 1182.32,-93.8872 1184.82,-100.428"/>
</g>
<!-- Node9 -->
<g id="node9" class="node"><title>Node9</title>
<polygon fill="none" stroke="#bfbfbf" points="300.5,-69 300.5,-99 451.5,-99 451.5,-69 300.5,-69"/>
<text text-anchor="start" x="308.5" y="-87" font-family="Helvetica,sans-Serif" font-size="10.00">Math/GenVector/Displacement</text>
<text text-anchor="middle" x="376" y="-76" font-family="Helvetica,sans-Serif" font-size="10.00">Vector3D.h</text>
</g>
<!-- Node8&#45;&gt;Node9 -->
<g id="edge8" class="edge"><title>Node8&#45;&gt;Node9</title>
<path fill="none" stroke="midnightblue" d="M609.318,-136.467C567.93,-127.337 501.29,-112.638 449.806,-101.281"/>
<polygon fill="midnightblue" stroke="midnightblue" points="450.242,-97.7929 439.723,-99.0565 448.734,-104.629 450.242,-97.7929"/>
</g>
<!-- Node10 -->
<g id="node10" class="node"><title>Node10</title>
<polygon fill="none" stroke="#bfbfbf" points="470,-74.5 470,-93.5 646,-93.5 646,-74.5 470,-74.5"/>
<text text-anchor="middle" x="558" y="-81.5" font-family="Helvetica,sans-Serif" font-size="10.00">Math/GenVector/PositionVector3D.h</text>
</g>
<!-- Node8&#45;&gt;Node10 -->
<g id="edge9" class="edge"><title>Node8&#45;&gt;Node10</title>
<path fill="none" stroke="midnightblue" d="M635.105,-136.403C620.536,-126.691 596.598,-110.732 579.255,-99.1697"/>
<polygon fill="midnightblue" stroke="midnightblue" points="581.133,-96.2155 570.871,-93.5806 577.25,-102.04 581.133,-96.2155"/>
</g>
<!-- Node11 -->
<g id="node11" class="node"><title>Node11</title>
<polygon fill="none" stroke="#bfbfbf" points="663.5,-74.5 663.5,-93.5 812.5,-93.5 812.5,-74.5 663.5,-74.5"/>
<text text-anchor="middle" x="738" y="-81.5" font-family="Helvetica,sans-Serif" font-size="10.00">Math/GenVector/Rotation3D.h</text>
</g>
<!-- Node8&#45;&gt;Node11 -->
<g id="edge10" class="edge"><title>Node8&#45;&gt;Node11</title>
<path fill="none" stroke="midnightblue" d="M660.895,-136.403C675.464,-126.691 699.402,-110.732 716.745,-99.1697"/>
<polygon fill="midnightblue" stroke="midnightblue" points="718.75,-102.04 725.129,-93.5806 714.867,-96.2155 718.75,-102.04"/>
</g>
<!-- Node12 -->
<g id="node12" class="node"><title>Node12</title>
<polygon fill="none" stroke="#bfbfbf" points="831,-74.5 831,-93.5 987,-93.5 987,-74.5 831,-74.5"/>
<text text-anchor="middle" x="909" y="-81.5" font-family="Helvetica,sans-Serif" font-size="10.00">Math/GenVector/Transform3D.h</text>
</g>
<!-- Node8&#45;&gt;Node12 -->
<g id="edge11" class="edge"><title>Node8&#45;&gt;Node12</title>
<path fill="none" stroke="midnightblue" d="M685.118,-136.467C731.596,-125.783 811.261,-107.469 861.964,-95.8129"/>
<polygon fill="midnightblue" stroke="midnightblue" points="863.049,-99.1549 872.01,-93.5034 861.48,-92.3328 863.049,-99.1549"/>
</g>
<!-- Node13 -->
<g id="node13" class="node"><title>Node13</title>
<polygon fill="none" stroke="#bfbfbf" points="1005,-74.5 1005,-93.5 1165,-93.5 1165,-74.5 1005,-74.5"/>
<text text-anchor="middle" x="1085" y="-81.5" font-family="Helvetica,sans-Serif" font-size="10.00">Math/GenVector/Translation3D.h</text>
</g>
<!-- Node8&#45;&gt;Node13 -->
<g id="edge12" class="edge"><title>Node8&#45;&gt;Node13</title>
<path fill="none" stroke="midnightblue" d="M710.651,-137.633C780.4,-129.26 896.428,-114.823 996,-100 1005.88,-98.5291 1016.36,-96.8606 1026.53,-95.1841"/>
<polygon fill="midnightblue" stroke="midnightblue" points="1027.27,-98.6091 1036.55,-93.512 1026.11,-91.7045 1027.27,-98.6091"/>
</g>
<!-- Node14 -->
<g id="node14" class="node"><title>Node14</title>
<polygon fill="none" stroke="#bfbfbf" points="0,-74.5 0,-93.5 76,-93.5 76,-74.5 0,-74.5"/>
<text text-anchor="middle" x="38" y="-81.5" font-family="Helvetica,sans-Serif" font-size="10.00">TGeoMatrix.h</text>
</g>
<!-- Node8&#45;&gt;Node14 -->
<g id="edge14" class="edge"><title>Node8&#45;&gt;Node14</title>
<path fill="none" stroke="midnightblue" d="M585.298,-144.653C480.647,-143.038 264.189,-135.27 85,-100 80.433,-99.1011 75.687,-97.9079 71.0438,-96.5858"/>
<polygon fill="midnightblue" stroke="midnightblue" points="71.7395,-93.1382 61.1527,-93.55 69.6856,-99.8302 71.7395,-93.1382"/>
</g>
<!-- Node15 -->
<g id="node15" class="node"><title>Node15</title>
<polygon fill="none" stroke="#bfbfbf" points="94.5,-74.5 94.5,-93.5 139.5,-93.5 139.5,-74.5 94.5,-74.5"/>
<text text-anchor="middle" x="117" y="-81.5" font-family="Helvetica,sans-Serif" font-size="10.00">iosfwd</text>
</g>
<!-- Node8&#45;&gt;Node15 -->
<g id="edge15" class="edge"><title>Node8&#45;&gt;Node15</title>
<path fill="none" stroke="midnightblue" d="M585.444,-142.179C470.195,-136.517 228.739,-122.363 148,-100 145.8,-99.3905 143.566,-98.6291 141.358,-97.7747"/>
<polygon fill="midnightblue" stroke="midnightblue" points="142.583,-94.4887 132.024,-93.6157 139.734,-100.883 142.583,-94.4887"/>
</g>
<!-- Node16 -->
<g id="node16" class="node"><title>Node16</title>
<g id="a_node16"><a xlink:href="../../d2/dd0/Cartesian2D_8h.html" target="_top" xlink:title="MathUtils/Cartesian2D.h">
<polygon fill="none" stroke="black" points="157.5,-74.5 157.5,-93.5 282.5,-93.5 282.5,-74.5 157.5,-74.5"/>
<text text-anchor="middle" x="220" y="-81.5" font-family="Helvetica,sans-Serif" font-size="10.00">MathUtils/Cartesian2D.h</text>
</a>
</g>
</g>
<!-- Node8&#45;&gt;Node16 -->
<g id="edge16" class="edge"><title>Node8&#45;&gt;Node16</title>
<path fill="none" stroke="midnightblue" d="M585.215,-138.677C513.732,-131.11 393.568,-117.269 291,-100 283.313,-98.7058 275.194,-97.1609 267.301,-95.5622"/>
<polygon fill="midnightblue" stroke="midnightblue" points="267.976,-92.1278 257.474,-93.5231 266.554,-98.9818 267.976,-92.1278"/>
</g>
<!-- Node17 -->
<g id="node17" class="node"><title>Node17</title>
<polygon fill="none" stroke="#bfbfbf" points="53.5,-1 53.5,-31 204.5,-31 204.5,-1 53.5,-1"/>
<text text-anchor="start" x="61.5" y="-19" font-family="Helvetica,sans-Serif" font-size="10.00">Math/GenVector/Displacement</text>
<text text-anchor="middle" x="129" y="-8" font-family="Helvetica,sans-Serif" font-size="10.00">Vector2D.h</text>
</g>
<!-- Node16&#45;&gt;Node17 -->
<g id="edge17" class="edge"><title>Node16&#45;&gt;Node17</title>
<path fill="none" stroke="midnightblue" d="M208.103,-74.3717C195.221,-65.0286 174.22,-49.7966 157.093,-37.375"/>
<polygon fill="midnightblue" stroke="midnightblue" points="158.703,-34.2194 148.553,-31.1815 154.593,-39.8859 158.703,-34.2194"/>
</g>
<!-- Node18 -->
<g id="node18" class="node"><title>Node18</title>
<polygon fill="none" stroke="#bfbfbf" points="223,-6.5 223,-25.5 399,-25.5 399,-6.5 223,-6.5"/>
<text text-anchor="middle" x="311" y="-13.5" font-family="Helvetica,sans-Serif" font-size="10.00">Math/GenVector/PositionVector2D.h</text>
</g>
<!-- Node16&#45;&gt;Node18 -->
<g id="edge18" class="edge"><title>Node16&#45;&gt;Node18</title>
<path fill="none" stroke="midnightblue" d="M231.897,-74.3717C246.884,-63.5015 272.862,-44.6602 290.942,-31.5474"/>
<polygon fill="midnightblue" stroke="midnightblue" points="293.06,-34.3349 299.1,-25.6305 288.95,-28.6684 293.06,-34.3349"/>
</g>
<!-- Node20 -->
<g id="node20" class="node"><title>Node20</title>
<g id="a_node20"><a xlink:href="../../de/d61/ShmManager_8h.html" target="_top" xlink:title="CommonUtils/ShmManager.h">
<polygon fill="none" stroke="black" points="1597,-136.5 1597,-155.5 1743,-155.5 1743,-136.5 1597,-136.5"/>
<text text-anchor="middle" x="1670" y="-143.5" font-family="Helvetica,sans-Serif" font-size="10.00">CommonUtils/ShmManager.h</text>
</a>
</g>
</g>
<!-- Node19&#45;&gt;Node20 -->
<g id="edge20" class="edge"><title>Node19&#45;&gt;Node20</title>
<path fill="none" stroke="midnightblue" d="M1190.88,-198.496C1203.45,-196.182 1217.25,-193.816 1230,-192 1353.89,-174.361 1498.36,-160.944 1587,-153.521"/>
<polygon fill="midnightblue" stroke="midnightblue" points="1587.31,-157.006 1596.99,-152.689 1586.73,-150.031 1587.31,-157.006"/>
</g>
<!-- Node25 -->
<g id="node25" class="node"><title>Node25</title>
<polygon fill="none" stroke="#bfbfbf" points="1080.5,-136.5 1080.5,-155.5 1129.5,-155.5 1129.5,-136.5 1080.5,-136.5"/>
<text text-anchor="middle" x="1105" y="-143.5" font-family="Helvetica,sans-Serif" font-size="10.00">cassert</text>
</g>
<!-- Node19&#45;&gt;Node25 -->
<g id="edge25" class="edge"><title>Node19&#45;&gt;Node25</title>
<path fill="none" stroke="midnightblue" d="M1141.84,-198.403C1135.39,-189.403 1125.1,-175.041 1117.03,-163.782"/>
<polygon fill="midnightblue" stroke="midnightblue" points="1119.82,-161.67 1111.15,-155.581 1114.13,-165.748 1119.82,-161.67"/>
</g>
<!-- Node21 -->
<g id="node21" class="node"><title>Node21</title>
<polygon fill="none" stroke="#bfbfbf" points="1823.5,-74.5 1823.5,-93.5 1852.5,-93.5 1852.5,-74.5 1823.5,-74.5"/>
<text text-anchor="middle" x="1838" y="-81.5" font-family="Helvetica,sans-Serif" font-size="10.00">list</text>
</g>
<!-- Node20&#45;&gt;Node21 -->
<g id="edge21" class="edge"><title>Node20&#45;&gt;Node21</title>
<path fill="none" stroke="midnightblue" d="M1706.15,-136.45C1735.86,-128.782 1778.66,-116.241 1814,-100 1814.98,-99.5486 1815.97,-99.0641 1816.96,-98.5554"/>
<polygon fill="midnightblue" stroke="midnightblue" points="1818.71,-101.588 1825.63,-93.5686 1815.22,-95.52 1818.71,-101.588"/>
</g>
<!-- Node22 -->
<g id="node22" class="node"><title>Node22</title>
<polygon fill="none" stroke="#bfbfbf" points="1452.5,-74.5 1452.5,-93.5 1501.5,-93.5 1501.5,-74.5 1452.5,-74.5"/>
<text text-anchor="middle" x="1477" y="-81.5" font-family="Helvetica,sans-Serif" font-size="10.00">cstddef</text>
</g>
<!-- Node20&#45;&gt;Node22 -->
<g id="edge22" class="edge"><title>Node20&#45;&gt;Node22</title>
<path fill="none" stroke="midnightblue" d="M1634.5,-136.47C1601.98,-128.299 1552.7,-115.017 1511,-100 1508.88,-99.2363 1506.7,-98.4017 1504.53,-97.5297"/>
<polygon fill="midnightblue" stroke="midnightblue" points="1505.73,-94.2396 1495.16,-93.572 1503.01,-100.688 1505.73,-94.2396"/>
</g>
<!-- Node23 -->
<g id="node23" class="node"><title>Node23</title>
<polygon fill="none" stroke="#bfbfbf" points="1520,-69 1520,-99 1668,-99 1668,-69 1520,-69"/>
<text text-anchor="start" x="1528" y="-87" font-family="Helvetica,sans-Serif" font-size="10.00">boost/interprocess</text>
<text text-anchor="middle" x="1594" y="-76" font-family="Helvetica,sans-Serif" font-size="10.00">/managed_external_buffer.hpp</text>
</g>
<!-- Node20&#45;&gt;Node23 -->
<g id="edge23" class="edge"><title>Node20&#45;&gt;Node23</title>
<path fill="none" stroke="midnightblue" d="M1659.11,-136.403C1648.91,-128.353 1633.28,-116.013 1619.89,-105.441"/>
<polygon fill="midnightblue" stroke="midnightblue" points="1621.93,-102.59 1611.91,-99.1408 1617.59,-108.084 1621.93,-102.59"/>
</g>
<!-- Node24 -->
<g id="node24" class="node"><title>Node24</title>
<polygon fill="none" stroke="#bfbfbf" points="1686,-69 1686,-99 1806,-99 1806,-69 1686,-69"/>
<text text-anchor="start" x="1694" y="-87" font-family="Helvetica,sans-Serif" font-size="10.00">boost/interprocess</text>
<text text-anchor="middle" x="1746" y="-76" font-family="Helvetica,sans-Serif" font-size="10.00">/allocators/allocator.hpp</text>
</g>
<!-- Node20&#45;&gt;Node24 -->
<g id="edge24" class="edge"><title>Node20&#45;&gt;Node24</title>
<path fill="none" stroke="midnightblue" d="M1680.89,-136.403C1691.09,-128.353 1706.72,-116.013 1720.11,-105.441"/>
<polygon fill="midnightblue" stroke="midnightblue" points="1722.41,-108.084 1728.09,-99.1408 1718.07,-102.59 1722.41,-108.084"/>
</g>
<!-- Node27 -->
<g id="node27" class="node"><title>Node27</title>
<polygon fill="none" stroke="#bfbfbf" points="583.5,-198.5 583.5,-217.5 626.5,-217.5 626.5,-198.5 583.5,-198.5"/>
<text text-anchor="middle" x="605" y="-205.5" font-family="Helvetica,sans-Serif" font-size="10.00">cstdio</text>
</g>
<!-- Node26&#45;&gt;Node27 -->
<g id="edge27" class="edge"><title>Node26&#45;&gt;Node27</title>
<path fill="none" stroke="midnightblue" d="M636.699,-260.403C631.204,-251.493 622.467,-237.325 615.556,-226.118"/>
<polygon fill="midnightblue" stroke="midnightblue" points="618.519,-224.255 610.291,-217.581 612.561,-227.929 618.519,-224.255"/>
</g>
<!-- Node26&#45;&gt;Node28 -->
<g id="edge28" class="edge"><title>Node26&#45;&gt;Node28</title>
<path fill="none" stroke="midnightblue" d="M609.542,-260.493C578.724,-252.143 531.255,-238.569 491,-224 488.879,-223.232 486.701,-222.403 484.52,-221.541"/>
<polygon fill="midnightblue" stroke="midnightblue" points="485.676,-218.232 475.097,-217.655 483.007,-224.704 485.676,-218.232"/>
</g>
<!-- Node29 -->
<g id="node29" class="node"><title>Node29</title>
<polygon fill="none" stroke="#bfbfbf" points="645,-198.5 645,-217.5 707,-217.5 707,-198.5 645,-198.5"/>
<text text-anchor="middle" x="676" y="-205.5" font-family="Helvetica,sans-Serif" font-size="10.00">TNamed.h</text>
</g>
<!-- Node26&#45;&gt;Node29 -->
<g id="edge29" class="edge"><title>Node26&#45;&gt;Node29</title>
<path fill="none" stroke="midnightblue" d="M646.871,-260.403C651.87,-251.582 659.789,-237.608 666.109,-226.455"/>
<polygon fill="midnightblue" stroke="midnightblue" points="669.253,-228.006 671.138,-217.581 663.162,-224.555 669.253,-228.006"/>
</g>
<!-- Node30 -->
<g id="node30" class="node"><title>Node30</title>
<polygon fill="none" stroke="#bfbfbf" points="725,-198.5 725,-217.5 811,-217.5 811,-198.5 725,-198.5"/>
<text text-anchor="middle" x="768" y="-205.5" font-family="Helvetica,sans-Serif" font-size="10.00">TGeoManager.h</text>
</g>
<!-- Node26&#45;&gt;Node30 -->
<g id="edge30" class="edge"><title>Node26&#45;&gt;Node30</title>
<path fill="none" stroke="midnightblue" d="M660.053,-260.403C681.198,-250.334 716.44,-233.552 740.878,-221.915"/>
<polygon fill="midnightblue" stroke="midnightblue" points="742.457,-225.04 749.981,-217.581 739.447,-218.72 742.457,-225.04"/>
</g>
<!-- Node31 -->
<g id="node31" class="node"><title>Node31</title>
<polygon fill="none" stroke="#bfbfbf" points="500.5,-198.5 500.5,-217.5 565.5,-217.5 565.5,-198.5 500.5,-198.5"/>
<text text-anchor="middle" x="533" y="-205.5" font-family="Helvetica,sans-Serif" font-size="10.00">TVector3.h</text>
</g>
<!-- Node26&#45;&gt;Node31 -->
<g id="edge31" class="edge"><title>Node26&#45;&gt;Node31</title>
<path fill="none" stroke="midnightblue" d="M626.383,-260.403C608.414,-250.512 578.679,-234.144 557.594,-222.538"/>
<polygon fill="midnightblue" stroke="midnightblue" points="559.036,-219.337 548.588,-217.581 555.661,-225.469 559.036,-219.337"/>
</g>
<!-- Node32&#45;&gt;Node6 -->
<g id="edge58" class="edge"><title>Node32&#45;&gt;Node6</title>
<path fill="none" stroke="midnightblue" d="M1394.97,-316.444C1332.58,-306.563 1230.33,-290.371 1166.22,-280.219"/>
<polygon fill="midnightblue" stroke="midnightblue" points="1166.69,-276.751 1156.27,-278.643 1165.6,-283.664 1166.69,-276.751"/>
</g>
<!-- Node32&#45;&gt;Node33 -->
<g id="edge34" class="edge"><title>Node32&#45;&gt;Node33</title>
<path fill="none" stroke="midnightblue" d="M1521.07,-324.89C1673.87,-322.907 2040.36,-308.851 2333,-224 2335.19,-223.364 2337.42,-222.584 2339.63,-221.717"/>
<polygon fill="midnightblue" stroke="midnightblue" points="2341.26,-224.821 2348.95,-217.538 2338.4,-218.433 2341.26,-224.821"/>
</g>
<!-- Node34 -->
<g id="node34" class="node"><title>Node34</title>
<g id="a_node34"><a xlink:href="../../d1/d3a/Base_2include_2DetectorsBase_2Detector_8h.html" target="_top" xlink:title="DetectorsBase/Detector.h">
<polygon fill="none" stroke="black" points="1607.5,-260.5 1607.5,-279.5 1738.5,-279.5 1738.5,-260.5 1607.5,-260.5"/>
<text text-anchor="middle" x="1673" y="-267.5" font-family="Helvetica,sans-Serif" font-size="10.00">DetectorsBase/Detector.h</text>
</a>
</g>
</g>
<!-- Node32&#45;&gt;Node34 -->
<g id="edge35" class="edge"><title>Node32&#45;&gt;Node34</title>
<path fill="none" stroke="midnightblue" d="M1484.49,-316.444C1523.32,-307.083 1585.66,-292.056 1627.92,-281.868"/>
<polygon fill="midnightblue" stroke="midnightblue" points="1628.77,-285.263 1637.67,-279.516 1627.13,-278.458 1628.77,-285.263"/>
</g>
<!-- Node34&#45;&gt;Node5 -->
<g id="edge47" class="edge"><title>Node34&#45;&gt;Node5</title>
<path fill="none" stroke="midnightblue" d="M1607.43,-269.141C1456.19,-268.782 1092.95,-263.747 1056,-224 1040.34,-207.155 1066.31,-141.057 1071,-136 1103.99,-100.456 1128.63,-117.115 1174,-100 1176.24,-99.1537 1178.56,-98.2623 1180.88,-97.3533"/>
<polygon fill="midnightblue" stroke="midnightblue" points="1182.33,-100.542 1190.33,-93.5888 1179.74,-94.0388 1182.33,-100.542"/>
</g>
<!-- Node34&#45;&gt;Node19 -->
<g id="edge54" class="edge"><title>Node34&#45;&gt;Node19</title>
<path fill="none" stroke="midnightblue" d="M1607.5,-263.989C1520.87,-256.986 1363.56,-242.968 1230,-224 1220.54,-222.656 1210.5,-221.007 1200.81,-219.299"/>
<polygon fill="midnightblue" stroke="midnightblue" points="1201.34,-215.839 1190.88,-217.509 1200.1,-222.728 1201.34,-215.839"/>
</g>
<!-- Node34&#45;&gt;Node20 -->
<g id="edge53" class="edge"><title>Node34&#45;&gt;Node20</title>
<path fill="none" stroke="midnightblue" d="M1738.53,-264.925C1808.69,-258.048 1905.12,-239.812 1867,-192 1852.5,-173.818 1800.19,-162.399 1753.12,-155.615"/>
<polygon fill="midnightblue" stroke="midnightblue" points="1753.55,-152.142 1743.17,-154.237 1752.59,-159.076 1753.55,-152.142"/>
</g>
<!-- Node34&#45;&gt;Node25 -->
<g id="edge57" class="edge"><title>Node34&#45;&gt;Node25</title>
<path fill="none" stroke="midnightblue" d="M1607.38,-269.055C1457.93,-268.495 1102.24,-263.031 1066,-224 1049.2,-205.908 1070.18,-179.208 1087.27,-162.475"/>
<polygon fill="midnightblue" stroke="midnightblue" points="1089.77,-164.932 1094.7,-155.555 1084.99,-159.81 1089.77,-164.932"/>
</g>
<!-- Node34&#45;&gt;Node33 -->
<g id="edge37" class="edge"><title>Node34&#45;&gt;Node33</title>
<path fill="none" stroke="midnightblue" d="M1738.53,-267.698C1882.45,-264.325 2222.13,-253.419 2333,-224 2335.34,-223.379 2337.72,-222.579 2340.06,-221.672"/>
<polygon fill="midnightblue" stroke="midnightblue" points="2341.61,-224.81 2349.31,-217.529 2338.75,-218.422 2341.61,-224.81"/>
</g>
<!-- Node35 -->
<g id="node35" class="node"><title>Node35</title>
<polygon fill="none" stroke="#bfbfbf" points="2057.5,-136.5 2057.5,-155.5 2092.5,-155.5 2092.5,-136.5 2057.5,-136.5"/>
<text text-anchor="middle" x="2075" y="-143.5" font-family="Helvetica,sans-Serif" font-size="10.00">map</text>
</g>
<!-- Node34&#45;&gt;Node35 -->
<g id="edge36" class="edge"><title>Node34&#45;&gt;Node35</title>
<path fill="none" stroke="midnightblue" d="M1738.86,-266.615C1850.25,-261.898 2066.07,-249.543 2089,-224 2103.49,-207.856 2094.46,-181.898 2085.61,-164.647"/>
<polygon fill="midnightblue" stroke="midnightblue" points="2088.52,-162.676 2080.6,-155.636 2082.4,-166.077 2088.52,-162.676"/>
</g>
<!-- Node36 -->
<g id="node36" class="node"><title>Node36</title>
<polygon fill="none" stroke="#bfbfbf" points="2110.5,-136.5 2110.5,-155.5 2183.5,-155.5 2183.5,-136.5 2110.5,-136.5"/>
<text text-anchor="middle" x="2147" y="-143.5" font-family="Helvetica,sans-Serif" font-size="10.00">initializer_list</text>
</g>
<!-- Node34&#45;&gt;Node36 -->
<g id="edge38" class="edge"><title>Node34&#45;&gt;Node36</title>
<path fill="none" stroke="midnightblue" d="M1738.91,-269.552C1844.99,-269.238 2047.62,-263.306 2106,-224 2126.07,-210.488 2137.06,-183.856 2142.48,-165.739"/>
<polygon fill="midnightblue" stroke="midnightblue" points="2145.89,-166.553 2145.12,-155.986 2139.13,-164.728 2145.89,-166.553"/>
</g>
<!-- Node37 -->
<g id="node37" class="node"><title>Node37</title>
<polygon fill="none" stroke="#bfbfbf" points="2175,-198.5 2175,-217.5 2227,-217.5 2227,-198.5 2175,-198.5"/>
<text text-anchor="middle" x="2201" y="-205.5" font-family="Helvetica,sans-Serif" font-size="10.00">memory</text>
</g>
<!-- Node34&#45;&gt;Node37 -->
<g id="edge39" class="edge"><title>Node34&#45;&gt;Node37</title>
<path fill="none" stroke="midnightblue" d="M1738.6,-268.472C1833.11,-266.473 2012.55,-258.032 2161,-224 2164.5,-223.197 2168.11,-222.16 2171.67,-221.007"/>
<polygon fill="midnightblue" stroke="midnightblue" points="2173.14,-224.199 2181.38,-217.546 2170.79,-217.605 2173.14,-224.199"/>
</g>
<!-- Node38 -->
<g id="node38" class="node"><title>Node38</title>
<polygon fill="none" stroke="#bfbfbf" points="2245.5,-198.5 2245.5,-217.5 2324.5,-217.5 2324.5,-198.5 2245.5,-198.5"/>
<text text-anchor="middle" x="2285" y="-205.5" font-family="Helvetica,sans-Serif" font-size="10.00">FairDetector.h</text>
</g>
<!-- Node34&#45;&gt;Node38 -->
<g id="edge40" class="edge"><title>Node34&#45;&gt;Node38</title>
<path fill="none" stroke="midnightblue" d="M1738.63,-268.36C1844.3,-266.301 2058.29,-257.884 2236,-224 2240.88,-223.07 2245.96,-221.833 2250.92,-220.466"/>
<polygon fill="midnightblue" stroke="midnightblue" points="2252.24,-223.726 2260.84,-217.536 2250.25,-217.013 2252.24,-223.726"/>
</g>
<!-- Node39 -->
<g id="node39" class="node"><title>Node39</title>
<polygon fill="none" stroke="#bfbfbf" points="1239,-198.5 1239,-217.5 1339,-217.5 1339,-198.5 1239,-198.5"/>
<text text-anchor="middle" x="1289" y="-205.5" font-family="Helvetica,sans-Serif" font-size="10.00">FairRootManager.h</text>
</g>
<!-- Node34&#45;&gt;Node39 -->
<g id="edge41" class="edge"><title>Node34&#45;&gt;Node39</title>
<path fill="none" stroke="midnightblue" d="M1607.28,-262.077C1541.38,-254.625 1437.16,-241.451 1348,-224 1342.09,-222.843 1335.88,-221.457 1329.81,-220.001"/>
<polygon fill="midnightblue" stroke="midnightblue" points="1330.33,-216.525 1319.78,-217.515 1328.64,-223.319 1330.33,-216.525"/>
</g>
<!-- Node40 -->
<g id="node40" class="node"><title>Node40</title>
<g id="a_node40"><a xlink:href="../../d0/d9a/MaterialManager_8h.html" target="_top" xlink:title="DetectorsBase/MaterialManager.h">
<polygon fill="none" stroke="black" points="1915.5,-198.5 1915.5,-217.5 2080.5,-217.5 2080.5,-198.5 1915.5,-198.5"/>
<text text-anchor="middle" x="1998" y="-205.5" font-family="Helvetica,sans-Serif" font-size="10.00">DetectorsBase/MaterialManager.h</text>
</a>
</g>
</g>
<!-- Node34&#45;&gt;Node40 -->
<g id="edge42" class="edge"><title>Node34&#45;&gt;Node40</title>
<path fill="none" stroke="midnightblue" d="M1719.22,-260.467C1777.82,-249.649 1878.79,-231.009 1941.79,-219.378"/>
<polygon fill="midnightblue" stroke="midnightblue" points="1942.74,-222.761 1951.94,-217.503 1941.47,-215.877 1942.74,-222.761"/>
</g>
<!-- Node42 -->
<g id="node42" class="node"><title>Node42</title>
<polygon fill="none" stroke="#bfbfbf" points="1357.5,-198.5 1357.5,-217.5 1410.5,-217.5 1410.5,-198.5 1357.5,-198.5"/>
<text text-anchor="middle" x="1384" y="-205.5" font-family="Helvetica,sans-Serif" font-size="10.00">cxxabi.h</text>
</g>
<!-- Node34&#45;&gt;Node42 -->
<g id="edge48" class="edge"><title>Node34&#45;&gt;Node42</title>
<path fill="none" stroke="midnightblue" d="M1607.32,-261.575C1555.46,-254.711 1481.65,-242.704 1419,-224 1416.51,-223.255 1413.95,-222.385 1411.41,-221.445"/>
<polygon fill="midnightblue" stroke="midnightblue" points="1412.46,-218.092 1401.87,-217.595 1409.84,-224.583 1412.46,-218.092"/>
</g>
<!-- Node43 -->
<g id="node43" class="node"><title>Node43</title>
<polygon fill="none" stroke="#bfbfbf" points="1428.5,-198.5 1428.5,-217.5 1479.5,-217.5 1479.5,-198.5 1428.5,-198.5"/>
<text text-anchor="middle" x="1454" y="-205.5" font-family="Helvetica,sans-Serif" font-size="10.00">typeinfo</text>
</g>
<!-- Node34&#45;&gt;Node43 -->
<g id="edge49" class="edge"><title>Node34&#45;&gt;Node43</title>
<path fill="none" stroke="midnightblue" d="M1629.3,-260.439C1591.65,-252.562 1536.1,-239.733 1489,-224 1486.59,-223.194 1484.11,-222.291 1481.64,-221.338"/>
<polygon fill="midnightblue" stroke="midnightblue" points="1482.89,-218.069 1472.31,-217.52 1480.24,-224.547 1482.89,-218.069"/>
</g>
<!-- Node44 -->
<g id="node44" class="node"><title>Node44</title>
<polygon fill="none" stroke="#bfbfbf" points="1498,-198.5 1498,-217.5 1560,-217.5 1560,-198.5 1498,-198.5"/>
<text text-anchor="middle" x="1529" y="-205.5" font-family="Helvetica,sans-Serif" font-size="10.00">type_traits</text>
</g>
<!-- Node34&#45;&gt;Node44 -->
<g id="edge50" class="edge"><title>Node34&#45;&gt;Node44</title>
<path fill="none" stroke="midnightblue" d="M1652.37,-260.403C1627.88,-250.2 1586.85,-233.105 1558.89,-221.454"/>
<polygon fill="midnightblue" stroke="midnightblue" points="1560.17,-218.196 1549.59,-217.581 1557.48,-224.658 1560.17,-218.196"/>
</g>
<!-- Node45 -->
<g id="node45" class="node"><title>Node45</title>
<polygon fill="none" stroke="#bfbfbf" points="1578.5,-198.5 1578.5,-217.5 1619.5,-217.5 1619.5,-198.5 1578.5,-198.5"/>
<text text-anchor="middle" x="1599" y="-205.5" font-family="Helvetica,sans-Serif" font-size="10.00">string</text>
</g>
<!-- Node34&#45;&gt;Node45 -->
<g id="edge51" class="edge"><title>Node34&#45;&gt;Node45</title>
<path fill="none" stroke="midnightblue" d="M1662.4,-260.403C1650.75,-250.958 1631.81,-235.606 1617.67,-224.134"/>
<polygon fill="midnightblue" stroke="midnightblue" points="1619.55,-221.16 1609.58,-217.581 1615.15,-226.597 1619.55,-221.16"/>
</g>
<!-- Node46 -->
<g id="node46" class="node"><title>Node46</title>
<polygon fill="none" stroke="#bfbfbf" points="1637.5,-198.5 1637.5,-217.5 1708.5,-217.5 1708.5,-198.5 1637.5,-198.5"/>
<text text-anchor="middle" x="1673" y="-205.5" font-family="Helvetica,sans-Serif" font-size="10.00">TMessage.h</text>
</g>
<!-- Node34&#45;&gt;Node46 -->
<g id="edge52" class="edge"><title>Node34&#45;&gt;Node46</title>
<path fill="none" stroke="midnightblue" d="M1673,-260.403C1673,-251.938 1673,-238.728 1673,-227.82"/>
<polygon fill="midnightblue" stroke="midnightblue" points="1676.5,-227.581 1673,-217.581 1669.5,-227.581 1676.5,-227.581"/>
</g>
<!-- Node47 -->
<g id="node47" class="node"><title>Node47</title>
<polygon fill="none" stroke="#bfbfbf" points="1727,-198.5 1727,-217.5 1789,-217.5 1789,-198.5 1727,-198.5"/>
<text text-anchor="middle" x="1758" y="-205.5" font-family="Helvetica,sans-Serif" font-size="10.00">sys/shm.h</text>
</g>
<!-- Node34&#45;&gt;Node47 -->
<g id="edge55" class="edge"><title>Node34&#45;&gt;Node47</title>
<path fill="none" stroke="midnightblue" d="M1685.18,-260.403C1698.81,-250.78 1721.13,-235.024 1737.47,-223.489"/>
<polygon fill="midnightblue" stroke="midnightblue" points="1739.69,-226.207 1745.84,-217.581 1735.66,-220.488 1739.69,-226.207"/>
</g>
<!-- Node48 -->
<g id="node48" class="node"><title>Node48</title>
<polygon fill="none" stroke="#bfbfbf" points="1807.5,-198.5 1807.5,-217.5 1858.5,-217.5 1858.5,-198.5 1807.5,-198.5"/>
<text text-anchor="middle" x="1833" y="-205.5" font-family="Helvetica,sans-Serif" font-size="10.00">unistd.h</text>
</g>
<!-- Node34&#45;&gt;Node48 -->
<g id="edge56" class="edge"><title>Node34&#45;&gt;Node48</title>
<path fill="none" stroke="midnightblue" d="M1697.83,-260.373C1722.95,-251.553 1762.86,-237.3 1797,-224 1799.1,-223.181 1801.27,-222.322 1803.44,-221.446"/>
<polygon fill="midnightblue" stroke="midnightblue" points="1804.96,-224.606 1812.88,-217.576 1802.3,-218.129 1804.96,-224.606"/>
</g>
<!-- Node40&#45;&gt;Node5 -->
<g id="edge43" class="edge"><title>Node40&#45;&gt;Node5</title>
<path fill="none" stroke="midnightblue" d="M1924.99,-198.475C1825.14,-186.719 1651.16,-165.866 1588,-156 1463.44,-136.544 1316.97,-107.044 1249.09,-92.9889"/>
<polygon fill="midnightblue" stroke="midnightblue" points="1249.77,-89.5562 1239.27,-90.95 1248.35,-96.41 1249.77,-89.5562"/>
</g>
<!-- Node40&#45;&gt;Node35 -->
<g id="edge44" class="edge"><title>Node40&#45;&gt;Node35</title>
<path fill="none" stroke="midnightblue" d="M2009.03,-198.403C2021.27,-188.869 2041.23,-173.315 2055.99,-161.811"/>
<polygon fill="midnightblue" stroke="midnightblue" points="2058.25,-164.488 2063.99,-155.581 2053.95,-158.966 2058.25,-164.488"/>
</g>
<!-- Node40&#45;&gt;Node36 -->
<g id="edge46" class="edge"><title>Node40&#45;&gt;Node36</title>
<path fill="none" stroke="midnightblue" d="M2019.35,-198.403C2044.69,-188.2 2087.14,-171.105 2116.07,-159.454"/>
<polygon fill="midnightblue" stroke="midnightblue" points="2117.72,-162.563 2125.69,-155.581 2115.11,-156.069 2117.72,-162.563"/>
</g>
<!-- Node41 -->
<g id="node41" class="node"><title>Node41</title>
<polygon fill="none" stroke="#bfbfbf" points="1956.5,-136.5 1956.5,-155.5 2039.5,-155.5 2039.5,-136.5 1956.5,-136.5"/>
<text text-anchor="middle" x="1998" y="-143.5" font-family="Helvetica,sans-Serif" font-size="10.00">unordered_map</text>
</g>
<!-- Node40&#45;&gt;Node41 -->
<g id="edge45" class="edge"><title>Node40&#45;&gt;Node41</title>
<path fill="none" stroke="midnightblue" d="M1998,-198.403C1998,-189.938 1998,-176.728 1998,-165.82"/>
<polygon fill="midnightblue" stroke="midnightblue" points="2001.5,-165.581 1998,-155.581 1994.5,-165.581 2001.5,-165.581"/>
</g>
</g>
</svg>
