<?xml version="1.0" encoding="UTF-8" standalone="no"?>
<!DOCTYPE svg PUBLIC "-//W3C//DTD SVG 1.1//EN"
 "http://www.w3.org/Graphics/SVG/1.1/DTD/svg11.dtd">
<!-- Generated by graphviz version 2.36.0 (20140111.2315)
 -->
<!-- Title: /home/travis/build/AliceO2Group/AliceO2/DataFormats/Detectors/TPC/include/DataFormatsTPC/TrackTPC.h Pages: 1 -->
<svg width="2352pt" height="480pt"
 viewBox="0.00 0.00 2352.10 480.00" xmlns="http://www.w3.org/2000/svg" xmlns:xlink="http://www.w3.org/1999/xlink">
<g id="graph0" class="graph" transform="scale(1 1) rotate(0) translate(4 476)">
<title>/home/travis/build/AliceO2Group/AliceO2/DataFormats/Detectors/TPC/include/DataFormatsTPC/TrackTPC.h</title>
<!-- Node1 -->
<g id="node1" class="node"><title>Node1</title>
<polygon fill="#bfbfbf" stroke="black" points="1179,-408.5 1179,-471.5 1333,-471.5 1333,-408.5 1179,-408.5"/>
<text text-anchor="start" x="1187" y="-459.5" font-family="Helvetica,sans-Serif" font-size="10.00">/home/travis/build</text>
<text text-anchor="start" x="1187" y="-448.5" font-family="Helvetica,sans-Serif" font-size="10.00">/AliceO2Group/AliceO2</text>
<text text-anchor="start" x="1187" y="-437.5" font-family="Helvetica,sans-Serif" font-size="10.00">/DataFormats/Detectors</text>
<text text-anchor="start" x="1187" y="-426.5" font-family="Helvetica,sans-Serif" font-size="10.00">/TPC/include/DataFormatsTPC</text>
<text text-anchor="middle" x="1256" y="-415.5" font-family="Helvetica,sans-Serif" font-size="10.00">/TrackTPC.h</text>
</g>
<!-- Node2 -->
<g id="node2" class="node"><title>Node2</title>
<g id="a_node2"><a xlink:href="../../d7/d8b/DataFormats_2Reconstruction_2include_2ReconstructionDataFormats_2Track_8h.html" target="_top" xlink:title="ReconstructionDataFormats\l/Track.h">
<polygon fill="none" stroke="black" points="522,-341 522,-371 662,-371 662,-341 522,-341"/>
<text text-anchor="start" x="530" y="-359" font-family="Helvetica,sans-Serif" font-size="10.00">ReconstructionDataFormats</text>
<text text-anchor="middle" x="592" y="-348" font-family="Helvetica,sans-Serif" font-size="10.00">/Track.h</text>
</a>
</g>
</g>
<!-- Node1&#45;&gt;Node2 -->
<g id="edge1" class="edge"><title>Node1&#45;&gt;Node2</title>
<path fill="none" stroke="midnightblue" d="M1178.86,-429.473C1052.09,-413.818 800.954,-382.805 672.209,-366.905"/>
<polygon fill="midnightblue" stroke="midnightblue" points="672.378,-363.4 662.024,-365.648 671.52,-370.347 672.378,-363.4"/>
</g>
<!-- Node37 -->
<g id="node37" class="node"><title>Node37</title>
<g id="a_node37"><a xlink:href="../../de/dcd/ClusterNative_8h.html" target="_top" xlink:title="Class of a TPC cluster in TPC&#45;native coordinates (row, time) ">
<polygon fill="none" stroke="black" points="1971.5,-210.5 1971.5,-229.5 2136.5,-229.5 2136.5,-210.5 1971.5,-210.5"/>
<text text-anchor="middle" x="2054" y="-217.5" font-family="Helvetica,sans-Serif" font-size="10.00">DataFormatsTPC/ClusterNative.h</text>
</a>
</g>
</g>
<!-- Node1&#45;&gt;Node37 -->
<g id="edge49" class="edge"><title>Node1&#45;&gt;Node37</title>
<path fill="none" stroke="midnightblue" d="M1333.24,-417.899C1499.47,-372.487 1886.34,-266.801 2013.03,-232.192"/>
<polygon fill="midnightblue" stroke="midnightblue" points="2014.02,-235.551 2022.74,-229.539 2012.17,-228.798 2014.02,-235.551"/>
</g>
<!-- Node42 -->
<g id="node42" class="node"><title>Node42</title>
<g id="a_node42"><a xlink:href="../../d1/d73/Defs_8h.html" target="_top" xlink:title="Common definitions for 2D coordinates. ">
<polygon fill="none" stroke="black" points="56,-210.5 56,-229.5 182,-229.5 182,-210.5 56,-210.5"/>
<text text-anchor="middle" x="119" y="-217.5" font-family="Helvetica,sans-Serif" font-size="10.00">DataFormatsTPC/Defs.h</text>
</a>
</g>
</g>
<!-- Node1&#45;&gt;Node42 -->
<g id="edge57" class="edge"><title>Node1&#45;&gt;Node42</title>
<path fill="none" stroke="midnightblue" d="M1178.84,-435.465C1043.38,-428.498 754.29,-410.231 513,-372 378.825,-350.741 336.203,-365.357 215,-304 181.61,-287.097 150.265,-256.083 132.951,-237.126"/>
<polygon fill="midnightblue" stroke="midnightblue" points="135.494,-234.719 126.225,-229.587 130.271,-239.379 135.494,-234.719"/>
</g>
<!-- Node43 -->
<g id="node43" class="node"><title>Node43</title>
<g id="a_node43"><a xlink:href="../../dc/ddf/DataFormats_2Detectors_2TPC_2include_2DataFormatsTPC_2Cluster_8h.html" target="_top" xlink:title="DataFormatsTPC/Cluster.h">
<polygon fill="none" stroke="black" points="1447.5,-210.5 1447.5,-229.5 1584.5,-229.5 1584.5,-210.5 1447.5,-210.5"/>
<text text-anchor="middle" x="1516" y="-217.5" font-family="Helvetica,sans-Serif" font-size="10.00">DataFormatsTPC/Cluster.h</text>
</a>
</g>
</g>
<!-- Node1&#45;&gt;Node43 -->
<g id="edge61" class="edge"><title>Node1&#45;&gt;Node43</title>
<path fill="none" stroke="midnightblue" d="M1292.43,-408.458C1348.91,-361.099 1455.53,-271.702 1497.94,-236.143"/>
<polygon fill="midnightblue" stroke="midnightblue" points="1500.34,-238.699 1505.75,-229.592 1495.84,-233.335 1500.34,-238.699"/>
</g>
<!-- Node3 -->
<g id="node3" class="node"><title>Node3</title>
<polygon fill="none" stroke="#bfbfbf" points="1444,-74.5 1444,-93.5 1500,-93.5 1500,-74.5 1444,-74.5"/>
<text text-anchor="middle" x="1472" y="-81.5" font-family="Helvetica,sans-Serif" font-size="10.00">Rtypes.h</text>
</g>
<!-- Node2&#45;&gt;Node3 -->
<g id="edge2" class="edge"><title>Node2&#45;&gt;Node3</title>
<path fill="none" stroke="midnightblue" d="M662.213,-352.703C750.275,-348.471 894.745,-336.634 936,-304 999.045,-254.129 938.582,-184.084 1003,-136 1073.46,-83.4086 1309.99,-112.639 1397,-100 1409.09,-98.2431 1422.19,-95.8106 1434,-93.4154"/>
<polygon fill="midnightblue" stroke="midnightblue" points="1434.91,-96.8006 1443.99,-91.338 1433.48,-89.9472 1434.91,-96.8006"/>
</g>
<!-- Node4 -->
<g id="node4" class="node"><title>Node4</title>
<polygon fill="none" stroke="#bfbfbf" points="301,-278.5 301,-297.5 357,-297.5 357,-278.5 301,-278.5"/>
<text text-anchor="middle" x="329" y="-285.5" font-family="Helvetica,sans-Serif" font-size="10.00">algorithm</text>
</g>
<!-- Node2&#45;&gt;Node4 -->
<g id="edge3" class="edge"><title>Node2&#45;&gt;Node4</title>
<path fill="none" stroke="midnightblue" d="M521.983,-342.269C476.944,-333.329 417.434,-320.111 366,-304 363.362,-303.174 360.649,-302.241 357.947,-301.255"/>
<polygon fill="midnightblue" stroke="midnightblue" points="358.958,-297.893 348.369,-297.546 356.43,-304.421 358.958,-297.893"/>
</g>
<!-- Node5 -->
<g id="node5" class="node"><title>Node5</title>
<polygon fill="none" stroke="#bfbfbf" points="1527,-6.5 1527,-25.5 1565,-25.5 1565,-6.5 1527,-6.5"/>
<text text-anchor="middle" x="1546" y="-13.5" font-family="Helvetica,sans-Serif" font-size="10.00">array</text>
</g>
<!-- Node2&#45;&gt;Node5 -->
<g id="edge4" class="edge"><title>Node2&#45;&gt;Node5</title>
<path fill="none" stroke="midnightblue" d="M662.442,-354.815C924.494,-353.208 1828,-339.105 1828,-221 1828,-221 1828,-221 1828,-151 1828,-40.1508 1648.04,-20.8916 1575.64,-17.6289"/>
<polygon fill="midnightblue" stroke="midnightblue" points="1575.51,-14.1214 1565.38,-17.2426 1575.24,-21.1164 1575.51,-14.1214"/>
</g>
<!-- Node6 -->
<g id="node6" class="node"><title>Node6</title>
<polygon fill="none" stroke="#bfbfbf" points="375.5,-278.5 375.5,-297.5 416.5,-297.5 416.5,-278.5 375.5,-278.5"/>
<text text-anchor="middle" x="396" y="-285.5" font-family="Helvetica,sans-Serif" font-size="10.00">cfloat</text>
</g>
<!-- Node2&#45;&gt;Node6 -->
<g id="edge5" class="edge"><title>Node2&#45;&gt;Node6</title>
<path fill="none" stroke="midnightblue" d="M538.142,-340.897C505.274,-331.692 462.665,-318.681 426,-304 424.402,-303.36 422.773,-302.668 421.141,-301.944"/>
<polygon fill="midnightblue" stroke="midnightblue" points="422.503,-298.716 411.967,-297.596 419.505,-305.042 422.503,-298.716"/>
</g>
<!-- Node7 -->
<g id="node7" class="node"><title>Node7</title>
<polygon fill="none" stroke="#bfbfbf" points="0,-6.5 0,-25.5 44,-25.5 44,-6.5 0,-6.5"/>
<text text-anchor="middle" x="22" y="-13.5" font-family="Helvetica,sans-Serif" font-size="10.00">cmath</text>
</g>
<!-- Node2&#45;&gt;Node7 -->
<g id="edge6" class="edge"><title>Node2&#45;&gt;Node7</title>
<path fill="none" stroke="midnightblue" d="M521.966,-353.526C367.062,-348.369 9,-325.179 9,-221 9,-221 9,-221 9,-151 9,-109.669 15.2028,-61.5005 19.0392,-35.6611"/>
<polygon fill="midnightblue" stroke="midnightblue" points="22.5025,-36.1663 20.5591,-25.7513 15.5834,-35.105 22.5025,-36.1663"/>
</g>
<!-- Node8 -->
<g id="node8" class="node"><title>Node8</title>
<polygon fill="none" stroke="#bfbfbf" points="435,-278.5 435,-297.5 481,-297.5 481,-278.5 435,-278.5"/>
<text text-anchor="middle" x="458" y="-285.5" font-family="Helvetica,sans-Serif" font-size="10.00">cstring</text>
</g>
<!-- Node2&#45;&gt;Node8 -->
<g id="edge7" class="edge"><title>Node2&#45;&gt;Node8</title>
<path fill="none" stroke="midnightblue" d="M563.254,-340.841C539.972,-329.374 507.422,-313.342 484.705,-302.153"/>
<polygon fill="midnightblue" stroke="midnightblue" points="486.144,-298.961 475.627,-297.682 483.051,-305.24 486.144,-298.961"/>
</g>
<!-- Node9 -->
<g id="node9" class="node"><title>Node9</title>
<polygon fill="none" stroke="#bfbfbf" points="257.5,-74.5 257.5,-93.5 302.5,-93.5 302.5,-74.5 257.5,-74.5"/>
<text text-anchor="middle" x="280" y="-81.5" font-family="Helvetica,sans-Serif" font-size="10.00">iosfwd</text>
</g>
<!-- Node2&#45;&gt;Node9 -->
<g id="edge8" class="edge"><title>Node2&#45;&gt;Node9</title>
<path fill="none" stroke="midnightblue" d="M521.913,-347.688C438.109,-338.246 307.169,-320.999 292,-304 241.141,-247.006 262.622,-144.855 274.299,-103.318"/>
<polygon fill="midnightblue" stroke="midnightblue" points="277.722,-104.085 277.2,-93.5027 271.009,-102.1 277.722,-104.085"/>
</g>
<!-- Node10 -->
<g id="node10" class="node"><title>Node10</title>
<polygon fill="none" stroke="#bfbfbf" points="499.5,-278.5 499.5,-297.5 582.5,-297.5 582.5,-278.5 499.5,-278.5"/>
<text text-anchor="middle" x="541" y="-285.5" font-family="Helvetica,sans-Serif" font-size="10.00">Math/SMatrix.h</text>
</g>
<!-- Node2&#45;&gt;Node10 -->
<g id="edge9" class="edge"><title>Node2&#45;&gt;Node10</title>
<path fill="none" stroke="midnightblue" d="M580.934,-340.679C573.06,-330.49 562.45,-316.759 554.145,-306.011"/>
<polygon fill="midnightblue" stroke="midnightblue" points="556.706,-303.601 547.822,-297.828 551.167,-307.881 556.706,-303.601"/>
</g>
<!-- Node11 -->
<g id="node11" class="node"><title>Node11</title>
<polygon fill="none" stroke="#bfbfbf" points="600.5,-278.5 600.5,-297.5 685.5,-297.5 685.5,-278.5 600.5,-278.5"/>
<text text-anchor="middle" x="643" y="-285.5" font-family="Helvetica,sans-Serif" font-size="10.00">Math/SVector.h</text>
</g>
<!-- Node2&#45;&gt;Node11 -->
<g id="edge10" class="edge"><title>Node2&#45;&gt;Node11</title>
<path fill="none" stroke="midnightblue" d="M603.066,-340.679C610.94,-330.49 621.55,-316.759 629.855,-306.011"/>
<polygon fill="midnightblue" stroke="midnightblue" points="632.833,-307.881 636.178,-297.828 627.294,-303.601 632.833,-307.881"/>
</g>
<!-- Node12 -->
<g id="node12" class="node"><title>Node12</title>
<g id="a_node12"><a xlink:href="../../d6/d84/MathConstants_8h.html" target="_top" xlink:title="useful math constants ">
<polygon fill="none" stroke="black" points="943.5,-6.5 943.5,-25.5 1122.5,-25.5 1122.5,-6.5 943.5,-6.5"/>
<text text-anchor="middle" x="1033" y="-13.5" font-family="Helvetica,sans-Serif" font-size="10.00">CommonConstants/MathConstants.h</text>
</a>
</g>
</g>
<!-- Node2&#45;&gt;Node12 -->
<g id="edge11" class="edge"><title>Node2&#45;&gt;Node12</title>
<path fill="none" stroke="midnightblue" d="M521.68,-347.322C433.091,-337.121 289.942,-318.679 270,-304 236.865,-279.61 229,-262.144 229,-221 229,-221 229,-221 229,-151 229,-113.157 219.186,-92.5327 248,-68 299.041,-24.5428 733.524,-17.7457 933.275,-16.9379"/>
<polygon fill="midnightblue" stroke="midnightblue" points="933.49,-20.4372 943.478,-16.901 933.465,-13.4372 933.49,-20.4372"/>
</g>
<!-- Node13 -->
<g id="node13" class="node"><title>Node13</title>
<g id="a_node13"><a xlink:href="../../dd/d76/Cartesian3D_8h.html" target="_top" xlink:title="MathUtils/Cartesian3D.h">
<polygon fill="none" stroke="black" points="679.5,-142.5 679.5,-161.5 804.5,-161.5 804.5,-142.5 679.5,-142.5"/>
<text text-anchor="middle" x="742" y="-149.5" font-family="Helvetica,sans-Serif" font-size="10.00">MathUtils/Cartesian3D.h</text>
</a>
</g>
</g>
<!-- Node2&#45;&gt;Node13 -->
<g id="edge12" class="edge"><title>Node2&#45;&gt;Node13</title>
<path fill="none" stroke="midnightblue" d="M638.313,-340.955C657.883,-332.933 679.46,-321.003 694,-304 727.29,-265.07 737.547,-202.882 740.665,-171.868"/>
<polygon fill="midnightblue" stroke="midnightblue" points="744.177,-171.884 741.544,-161.622 737.202,-171.286 744.177,-171.884"/>
</g>
<!-- Node23 -->
<g id="node23" class="node"><title>Node23</title>
<g id="a_node23"><a xlink:href="../../d9/d52/Common_2MathUtils_2include_2MathUtils_2Utils_8h.html" target="_top" xlink:title="MathUtils/Utils.h">
<polygon fill="none" stroke="black" points="1298,-74.5 1298,-93.5 1388,-93.5 1388,-74.5 1298,-74.5"/>
<text text-anchor="middle" x="1343" y="-81.5" font-family="Helvetica,sans-Serif" font-size="10.00">MathUtils/Utils.h</text>
</a>
</g>
</g>
<!-- Node2&#45;&gt;Node23 -->
<g id="edge24" class="edge"><title>Node2&#45;&gt;Node23</title>
<path fill="none" stroke="midnightblue" d="M638.73,-340.993C663.441,-332.404 693.622,-319.973 718,-304 771.102,-269.206 769.869,-242.953 820,-204 865.984,-168.269 876.781,-154.496 932,-136 1082.79,-85.4892 1131.64,-129.021 1288,-100 1293.6,-98.9615 1299.45,-97.6327 1305.17,-96.1965"/>
<polygon fill="midnightblue" stroke="midnightblue" points="1306.46,-99.477 1315.23,-93.5348 1304.66,-92.71 1306.46,-99.477"/>
</g>
<!-- Node24 -->
<g id="node24" class="node"><title>Node24</title>
<g id="a_node24"><a xlink:href="../../d4/de2/BaseCluster_8h.html" target="_top" xlink:title="ReconstructionDataFormats\l/BaseCluster.h">
<polygon fill="none" stroke="black" points="787,-273 787,-303 927,-303 927,-273 787,-273"/>
<text text-anchor="start" x="795" y="-291" font-family="Helvetica,sans-Serif" font-size="10.00">ReconstructionDataFormats</text>
<text text-anchor="middle" x="857" y="-280" font-family="Helvetica,sans-Serif" font-size="10.00">/BaseCluster.h</text>
</a>
</g>
</g>
<!-- Node2&#45;&gt;Node24 -->
<g id="edge28" class="edge"><title>Node2&#45;&gt;Node24</title>
<path fill="none" stroke="midnightblue" d="M648.524,-340.922C690.126,-330.561 746.819,-316.441 790.584,-305.541"/>
<polygon fill="midnightblue" stroke="midnightblue" points="791.705,-308.869 800.563,-303.056 790.013,-302.077 791.705,-308.869"/>
</g>
<!-- Node13&#45;&gt;Node3 -->
<g id="edge18" class="edge"><title>Node13&#45;&gt;Node3</title>
<path fill="none" stroke="midnightblue" d="M804.899,-146.01C841.904,-143.081 889.61,-139.314 932,-136 1138.65,-119.843 1191.67,-128.377 1397,-100 1409,-98.3409 1421.98,-95.9584 1433.71,-93.579"/>
<polygon fill="midnightblue" stroke="midnightblue" points="1434.57,-96.9755 1443.65,-91.5071 1433.14,-90.123 1434.57,-96.9755"/>
</g>
<!-- Node13&#45;&gt;Node9 -->
<g id="edge20" class="edge"><title>Node13&#45;&gt;Node9</title>
<path fill="none" stroke="midnightblue" d="M701.757,-142.443C689.951,-140.127 676.991,-137.774 665,-136 508.558,-112.857 463.159,-143.097 311,-100 308.803,-99.3778 306.572,-98.6075 304.366,-97.747"/>
<polygon fill="midnightblue" stroke="midnightblue" points="305.592,-94.4616 295.034,-93.578 302.737,-100.853 305.592,-94.4616"/>
</g>
<!-- Node14 -->
<g id="node14" class="node"><title>Node14</title>
<polygon fill="none" stroke="#bfbfbf" points="934.5,-69 934.5,-99 1085.5,-99 1085.5,-69 934.5,-69"/>
<text text-anchor="start" x="942.5" y="-87" font-family="Helvetica,sans-Serif" font-size="10.00">Math/GenVector/Displacement</text>
<text text-anchor="middle" x="1010" y="-76" font-family="Helvetica,sans-Serif" font-size="10.00">Vector3D.h</text>
</g>
<!-- Node13&#45;&gt;Node14 -->
<g id="edge13" class="edge"><title>Node13&#45;&gt;Node14</title>
<path fill="none" stroke="midnightblue" d="M776.762,-142.439C818.74,-132.101 890.28,-114.483 943.087,-101.478"/>
<polygon fill="midnightblue" stroke="midnightblue" points="944.178,-104.815 953.051,-99.0247 942.504,-98.0176 944.178,-104.815"/>
</g>
<!-- Node15 -->
<g id="node15" class="node"><title>Node15</title>
<polygon fill="none" stroke="#bfbfbf" points="1104,-74.5 1104,-93.5 1280,-93.5 1280,-74.5 1104,-74.5"/>
<text text-anchor="middle" x="1192" y="-81.5" font-family="Helvetica,sans-Serif" font-size="10.00">Math/GenVector/PositionVector3D.h</text>
</g>
<!-- Node13&#45;&gt;Node15 -->
<g id="edge14" class="edge"><title>Node13&#45;&gt;Node15</title>
<path fill="none" stroke="midnightblue" d="M783.475,-142.429C794.956,-140.191 807.439,-137.881 819,-136 940.665,-116.206 971.959,-117.326 1094,-100 1104.89,-98.4533 1116.46,-96.7437 1127.68,-95.049"/>
<polygon fill="midnightblue" stroke="midnightblue" points="1128.5,-98.4649 1137.86,-93.5019 1127.45,-91.5443 1128.5,-98.4649"/>
</g>
<!-- Node16 -->
<g id="node16" class="node"><title>Node16</title>
<polygon fill="none" stroke="#bfbfbf" points="320.5,-74.5 320.5,-93.5 469.5,-93.5 469.5,-74.5 320.5,-74.5"/>
<text text-anchor="middle" x="395" y="-81.5" font-family="Helvetica,sans-Serif" font-size="10.00">Math/GenVector/Rotation3D.h</text>
</g>
<!-- Node13&#45;&gt;Node16 -->
<g id="edge15" class="edge"><title>Node13&#45;&gt;Node16</title>
<path fill="none" stroke="midnightblue" d="M698.436,-142.469C687.521,-140.343 675.834,-138.078 665,-136 591.058,-121.815 505.664,-105.736 451.044,-95.4896"/>
<polygon fill="midnightblue" stroke="midnightblue" points="451.351,-91.9863 440.878,-93.5833 450.061,-98.8664 451.351,-91.9863"/>
</g>
<!-- Node17 -->
<g id="node17" class="node"><title>Node17</title>
<polygon fill="none" stroke="#bfbfbf" points="488,-74.5 488,-93.5 644,-93.5 644,-74.5 488,-74.5"/>
<text text-anchor="middle" x="566" y="-81.5" font-family="Helvetica,sans-Serif" font-size="10.00">Math/GenVector/Transform3D.h</text>
</g>
<!-- Node13&#45;&gt;Node17 -->
<g id="edge16" class="edge"><title>Node13&#45;&gt;Node17</title>
<path fill="none" stroke="midnightblue" d="M718.991,-142.372C688.206,-130.827 633.447,-110.293 598.472,-97.1772"/>
<polygon fill="midnightblue" stroke="midnightblue" points="599.328,-93.76 588.736,-93.5259 596.87,-100.314 599.328,-93.76"/>
</g>
<!-- Node18 -->
<g id="node18" class="node"><title>Node18</title>
<polygon fill="none" stroke="#bfbfbf" points="662,-74.5 662,-93.5 822,-93.5 822,-74.5 662,-74.5"/>
<text text-anchor="middle" x="742" y="-81.5" font-family="Helvetica,sans-Serif" font-size="10.00">Math/GenVector/Translation3D.h</text>
</g>
<!-- Node13&#45;&gt;Node18 -->
<g id="edge17" class="edge"><title>Node13&#45;&gt;Node18</title>
<path fill="none" stroke="midnightblue" d="M742,-142.372C742,-132.643 742,-116.528 742,-103.85"/>
<polygon fill="midnightblue" stroke="midnightblue" points="745.5,-103.841 742,-93.8411 738.5,-103.841 745.5,-103.841"/>
</g>
<!-- Node19 -->
<g id="node19" class="node"><title>Node19</title>
<polygon fill="none" stroke="#bfbfbf" points="840,-74.5 840,-93.5 916,-93.5 916,-74.5 840,-74.5"/>
<text text-anchor="middle" x="878" y="-81.5" font-family="Helvetica,sans-Serif" font-size="10.00">TGeoMatrix.h</text>
</g>
<!-- Node13&#45;&gt;Node19 -->
<g id="edge19" class="edge"><title>Node13&#45;&gt;Node19</title>
<path fill="none" stroke="midnightblue" d="M759.78,-142.372C782.993,-131.106 823.849,-111.279 850.923,-98.1403"/>
<polygon fill="midnightblue" stroke="midnightblue" points="852.748,-101.145 860.216,-93.6305 849.691,-94.8477 852.748,-101.145"/>
</g>
<!-- Node20 -->
<g id="node20" class="node"><title>Node20</title>
<g id="a_node20"><a xlink:href="../../d2/dd0/Cartesian2D_8h.html" target="_top" xlink:title="MathUtils/Cartesian2D.h">
<polygon fill="none" stroke="black" points="75.5,-74.5 75.5,-93.5 200.5,-93.5 200.5,-74.5 75.5,-74.5"/>
<text text-anchor="middle" x="138" y="-81.5" font-family="Helvetica,sans-Serif" font-size="10.00">MathUtils/Cartesian2D.h</text>
</a>
</g>
</g>
<!-- Node13&#45;&gt;Node20 -->
<g id="edge21" class="edge"><title>Node13&#45;&gt;Node20</title>
<path fill="none" stroke="midnightblue" d="M679.152,-145.175C585.234,-136.319 402.736,-118.533 248,-100 235.038,-98.4475 221.234,-96.6664 207.941,-94.8865"/>
<polygon fill="midnightblue" stroke="midnightblue" points="208.277,-91.4001 197.899,-93.5293 207.34,-98.3371 208.277,-91.4001"/>
</g>
<!-- Node21 -->
<g id="node21" class="node"><title>Node21</title>
<polygon fill="none" stroke="#bfbfbf" points="62.5,-1 62.5,-31 213.5,-31 213.5,-1 62.5,-1"/>
<text text-anchor="start" x="70.5" y="-19" font-family="Helvetica,sans-Serif" font-size="10.00">Math/GenVector/Displacement</text>
<text text-anchor="middle" x="138" y="-8" font-family="Helvetica,sans-Serif" font-size="10.00">Vector2D.h</text>
</g>
<!-- Node20&#45;&gt;Node21 -->
<g id="edge22" class="edge"><title>Node20&#45;&gt;Node21</title>
<path fill="none" stroke="midnightblue" d="M138,-74.3717C138,-65.9715 138,-52.811 138,-41.2126"/>
<polygon fill="midnightblue" stroke="midnightblue" points="141.5,-41.1814 138,-31.1815 134.5,-41.1815 141.5,-41.1814"/>
</g>
<!-- Node22 -->
<g id="node22" class="node"><title>Node22</title>
<polygon fill="none" stroke="#bfbfbf" points="232,-6.5 232,-25.5 408,-25.5 408,-6.5 232,-6.5"/>
<text text-anchor="middle" x="320" y="-13.5" font-family="Helvetica,sans-Serif" font-size="10.00">Math/GenVector/PositionVector2D.h</text>
</g>
<!-- Node20&#45;&gt;Node22 -->
<g id="edge23" class="edge"><title>Node20&#45;&gt;Node22</title>
<path fill="none" stroke="midnightblue" d="M161.793,-74.3717C193.764,-62.7779 250.74,-42.1162 286.885,-29.0087"/>
<polygon fill="midnightblue" stroke="midnightblue" points="288.282,-32.2254 296.489,-25.5259 285.895,-25.6447 288.282,-32.2254"/>
</g>
<!-- Node23&#45;&gt;Node5 -->
<g id="edge25" class="edge"><title>Node23&#45;&gt;Node5</title>
<path fill="none" stroke="midnightblue" d="M1369.54,-74.3717C1407.7,-61.9643 1477.81,-39.1716 1517.19,-26.3665"/>
<polygon fill="midnightblue" stroke="midnightblue" points="1518.31,-29.6835 1526.74,-23.263 1516.14,-23.0265 1518.31,-29.6835"/>
</g>
<!-- Node23&#45;&gt;Node7 -->
<g id="edge26" class="edge"><title>Node23&#45;&gt;Node7</title>
<path fill="none" stroke="midnightblue" d="M1316.69,-74.4637C1307.69,-71.9085 1297.5,-69.4128 1288,-68 1016.43,-27.5955 319.698,-97.2376 53,-32 50.6479,-31.4246 48.2641,-30.6559 45.9176,-29.7694"/>
<polygon fill="midnightblue" stroke="midnightblue" points="47.2176,-26.5171 36.6578,-25.6557 44.3756,-32.9142 47.2176,-26.5171"/>
</g>
<!-- Node23&#45;&gt;Node12 -->
<g id="edge27" class="edge"><title>Node23&#45;&gt;Node12</title>
<path fill="none" stroke="midnightblue" d="M1313.12,-74.4501C1305,-72.2358 1296.19,-69.9329 1288,-68 1220.65,-52.1005 1142.53,-36.9569 1090.69,-27.3641"/>
<polygon fill="midnightblue" stroke="midnightblue" points="1091.15,-23.8902 1080.68,-25.521 1089.88,-30.7744 1091.15,-23.8902"/>
</g>
<!-- Node24&#45;&gt;Node9 -->
<g id="edge33" class="edge"><title>Node24&#45;&gt;Node9</title>
<path fill="none" stroke="midnightblue" d="M809.916,-272.981C714.477,-244.106 491.921,-174.435 311,-100 309.403,-99.3431 307.773,-98.6436 306.136,-97.9194"/>
<polygon fill="midnightblue" stroke="midnightblue" points="307.432,-94.6624 296.888,-93.6271 304.485,-101.012 307.432,-94.6624"/>
</g>
<!-- Node24&#45;&gt;Node13 -->
<g id="edge48" class="edge"><title>Node24&#45;&gt;Node13</title>
<path fill="none" stroke="midnightblue" d="M844.693,-272.66C823.152,-247.559 778.75,-195.822 756.044,-169.364"/>
<polygon fill="midnightblue" stroke="midnightblue" points="758.659,-167.037 749.49,-161.728 753.347,-171.596 758.659,-167.037"/>
</g>
<!-- Node25 -->
<g id="node25" class="node"><title>Node25</title>
<polygon fill="none" stroke="#bfbfbf" points="1166.5,-210.5 1166.5,-229.5 1225.5,-229.5 1225.5,-210.5 1166.5,-210.5"/>
<text text-anchor="middle" x="1196" y="-217.5" font-family="Helvetica,sans-Serif" font-size="10.00">TObject.h</text>
</g>
<!-- Node24&#45;&gt;Node25 -->
<g id="edge29" class="edge"><title>Node24&#45;&gt;Node25</title>
<path fill="none" stroke="midnightblue" d="M927.268,-279.069C988.618,-271.197 1079.69,-257.213 1157,-236 1160.15,-235.136 1163.39,-234.113 1166.61,-233.012"/>
<polygon fill="midnightblue" stroke="midnightblue" points="1167.83,-236.292 1176.01,-229.563 1165.42,-229.72 1167.83,-236.292"/>
</g>
<!-- Node26 -->
<g id="node26" class="node"><title>Node26</title>
<polygon fill="none" stroke="#bfbfbf" points="1705.5,-74.5 1705.5,-93.5 1746.5,-93.5 1746.5,-74.5 1705.5,-74.5"/>
<text text-anchor="middle" x="1726" y="-81.5" font-family="Helvetica,sans-Serif" font-size="10.00">bitset</text>
</g>
<!-- Node24&#45;&gt;Node26 -->
<g id="edge30" class="edge"><title>Node24&#45;&gt;Node26</title>
<path fill="none" stroke="midnightblue" d="M927.289,-286.212C1086.43,-283.77 1470.01,-274.004 1593,-236 1650.1,-218.357 1674.21,-216.593 1709,-168 1722.55,-149.073 1725.84,-121.83 1726.38,-103.784"/>
<polygon fill="midnightblue" stroke="midnightblue" points="1729.88,-103.678 1726.43,-93.6631 1722.88,-103.648 1729.88,-103.678"/>
</g>
<!-- Node27 -->
<g id="node27" class="node"><title>Node27</title>
<polygon fill="none" stroke="#bfbfbf" points="829,-210.5 829,-229.5 879,-229.5 879,-210.5 829,-210.5"/>
<text text-anchor="middle" x="854" y="-217.5" font-family="Helvetica,sans-Serif" font-size="10.00">iomanip</text>
</g>
<!-- Node24&#45;&gt;Node27 -->
<g id="edge31" class="edge"><title>Node24&#45;&gt;Node27</title>
<path fill="none" stroke="midnightblue" d="M856.349,-272.679C855.914,-263.101 855.336,-250.394 854.863,-239.977"/>
<polygon fill="midnightblue" stroke="midnightblue" points="858.352,-239.659 854.401,-229.828 851.359,-239.977 858.352,-239.659"/>
</g>
<!-- Node28 -->
<g id="node28" class="node"><title>Node28</title>
<polygon fill="none" stroke="#bfbfbf" points="897.5,-210.5 897.5,-229.5 926.5,-229.5 926.5,-210.5 897.5,-210.5"/>
<text text-anchor="middle" x="912" y="-217.5" font-family="Helvetica,sans-Serif" font-size="10.00">ios</text>
</g>
<!-- Node24&#45;&gt;Node28 -->
<g id="edge32" class="edge"><title>Node24&#45;&gt;Node28</title>
<path fill="none" stroke="midnightblue" d="M868.934,-272.679C877.51,-262.388 889.097,-248.484 898.092,-237.69"/>
<polygon fill="midnightblue" stroke="midnightblue" points="900.93,-239.751 904.643,-229.828 895.552,-235.27 900.93,-239.751"/>
</g>
<!-- Node29 -->
<g id="node29" class="node"><title>Node29</title>
<g id="a_node29"><a xlink:href="../../d4/d20/DetMatrixCache_8h.html" target="_top" xlink:title="DetectorsCommonDataFormats\l/DetMatrixCache.h">
<polygon fill="none" stroke="black" points="992,-205 992,-235 1148,-235 1148,-205 992,-205"/>
<text text-anchor="start" x="1000" y="-223" font-family="Helvetica,sans-Serif" font-size="10.00">DetectorsCommonDataFormats</text>
<text text-anchor="middle" x="1070" y="-212" font-family="Helvetica,sans-Serif" font-size="10.00">/DetMatrixCache.h</text>
</a>
</g>
</g>
<!-- Node24&#45;&gt;Node29 -->
<g id="edge34" class="edge"><title>Node24&#45;&gt;Node29</title>
<path fill="none" stroke="midnightblue" d="M902.433,-272.922C935.378,-262.714 980.099,-248.857 1015.05,-238.025"/>
<polygon fill="midnightblue" stroke="midnightblue" points="1016.12,-241.359 1024.64,-235.056 1014.05,-234.673 1016.12,-241.359"/>
</g>
<!-- Node29&#45;&gt;Node5 -->
<g id="edge37" class="edge"><title>Node29&#45;&gt;Node5</title>
<path fill="none" stroke="midnightblue" d="M1044.73,-204.766C1017.86,-187.883 981.901,-159.115 1003,-136 1062.27,-71.0641 1315.87,-133.873 1397,-100 1417.38,-91.4933 1416.36,-79.8272 1435,-68 1461.36,-51.2762 1494.11,-36.9215 1517.19,-27.7415"/>
<polygon fill="midnightblue" stroke="midnightblue" points="1518.7,-30.9093 1526.74,-24.0151 1516.15,-24.3877 1518.7,-30.9093"/>
</g>
<!-- Node29&#45;&gt;Node13 -->
<g id="edge47" class="edge"><title>Node29&#45;&gt;Node13</title>
<path fill="none" stroke="midnightblue" d="M1000.04,-204.922C938.4,-192.52 849.995,-174.731 794.313,-163.526"/>
<polygon fill="midnightblue" stroke="midnightblue" points="794.805,-160.055 784.311,-161.514 793.424,-166.918 794.805,-160.055"/>
</g>
<!-- Node30 -->
<g id="node30" class="node"><title>Node30</title>
<polygon fill="none" stroke="#bfbfbf" points="1158,-142.5 1158,-161.5 1300,-161.5 1300,-142.5 1158,-142.5"/>
<text text-anchor="middle" x="1229" y="-149.5" font-family="Helvetica,sans-Serif" font-size="10.00">AliTPCCommonFairLogger.h</text>
</g>
<!-- Node29&#45;&gt;Node30 -->
<g id="edge35" class="edge"><title>Node29&#45;&gt;Node30</title>
<path fill="none" stroke="midnightblue" d="M1104.11,-204.841C1132.23,-193.169 1171.74,-176.768 1198.75,-165.558"/>
<polygon fill="midnightblue" stroke="midnightblue" points="1200.19,-168.748 1208.08,-161.682 1197.51,-162.283 1200.19,-168.748"/>
</g>
<!-- Node31 -->
<g id="node31" class="node"><title>Node31</title>
<polygon fill="none" stroke="#bfbfbf" points="1012,-142.5 1012,-161.5 1140,-161.5 1140,-142.5 1012,-142.5"/>
<text text-anchor="middle" x="1076" y="-149.5" font-family="Helvetica,sans-Serif" font-size="10.00">AliTPCCommonRtypes.h</text>
</g>
<!-- Node29&#45;&gt;Node31 -->
<g id="edge36" class="edge"><title>Node29&#45;&gt;Node31</title>
<path fill="none" stroke="midnightblue" d="M1071.3,-204.679C1072.17,-195.101 1073.33,-182.394 1074.27,-171.977"/>
<polygon fill="midnightblue" stroke="midnightblue" points="1077.78,-172.104 1075.2,-161.828 1070.81,-171.47 1077.78,-172.104"/>
</g>
<!-- Node32 -->
<g id="node32" class="node"><title>Node32</title>
<polygon fill="none" stroke="#bfbfbf" points="1756,-142.5 1756,-161.5 1800,-161.5 1800,-142.5 1756,-142.5"/>
<text text-anchor="middle" x="1778" y="-149.5" font-family="Helvetica,sans-Serif" font-size="10.00">vector</text>
</g>
<!-- Node29&#45;&gt;Node32 -->
<g id="edge38" class="edge"><title>Node29&#45;&gt;Node32</title>
<path fill="none" stroke="midnightblue" d="M1148.2,-205.117C1151.17,-204.717 1154.11,-204.343 1157,-204 1401.15,-175.073 1465.54,-202.208 1709,-168 1721.08,-166.302 1734.2,-163.657 1745.72,-161.058"/>
<polygon fill="midnightblue" stroke="midnightblue" points="1746.83,-164.393 1755.78,-158.713 1745.24,-157.576 1746.83,-164.393"/>
</g>
<!-- Node33 -->
<g id="node33" class="node"><title>Node33</title>
<g id="a_node33"><a xlink:href="../../d6/d31/DetID_8h.html" target="_top" xlink:title="DetectorsCommonDataFormats\l/DetID.h">
<polygon fill="none" stroke="black" points="1544,-137 1544,-167 1700,-167 1700,-137 1544,-137"/>
<text text-anchor="start" x="1552" y="-155" font-family="Helvetica,sans-Serif" font-size="10.00">DetectorsCommonDataFormats</text>
<text text-anchor="middle" x="1622" y="-144" font-family="Helvetica,sans-Serif" font-size="10.00">/DetID.h</text>
</a>
</g>
</g>
<!-- Node29&#45;&gt;Node33 -->
<g id="edge39" class="edge"><title>Node29&#45;&gt;Node33</title>
<path fill="none" stroke="midnightblue" d="M1148.22,-205.266C1151.18,-204.825 1154.12,-204.401 1157,-204 1307.51,-183.08 1346,-185.053 1497,-168 1508.79,-166.668 1521.21,-165.227 1533.45,-163.782"/>
<polygon fill="midnightblue" stroke="midnightblue" points="1534.15,-167.223 1543.67,-162.569 1533.33,-160.271 1534.15,-167.223"/>
</g>
<!-- Node33&#45;&gt;Node3 -->
<g id="edge40" class="edge"><title>Node33&#45;&gt;Node3</title>
<path fill="none" stroke="midnightblue" d="M1589.82,-136.841C1563.53,-125.272 1526.67,-109.055 1501.22,-97.8547"/>
<polygon fill="midnightblue" stroke="midnightblue" points="1502.29,-94.5057 1491.73,-93.6819 1499.48,-100.913 1502.29,-94.5057"/>
</g>
<!-- Node33&#45;&gt;Node5 -->
<g id="edge41" class="edge"><title>Node33&#45;&gt;Node5</title>
<path fill="none" stroke="midnightblue" d="M1635.76,-136.746C1650.58,-119.591 1670.25,-90.3108 1656,-68 1638.37,-40.4011 1601.55,-27.5118 1575.37,-21.6462"/>
<polygon fill="midnightblue" stroke="midnightblue" points="1575.73,-18.1478 1565.23,-19.6016 1574.34,-25.0096 1575.73,-18.1478"/>
</g>
<!-- Node33&#45;&gt;Node23 -->
<g id="edge46" class="edge"><title>Node33&#45;&gt;Node23</title>
<path fill="none" stroke="midnightblue" d="M1562.49,-136.922C1510.6,-124.648 1436.42,-107.099 1388.98,-95.8772"/>
<polygon fill="midnightblue" stroke="midnightblue" points="1389.53,-92.4099 1378.99,-93.5138 1387.92,-99.2219 1389.53,-92.4099"/>
</g>
<!-- Node33&#45;&gt;Node26 -->
<g id="edge42" class="edge"><title>Node33&#45;&gt;Node26</title>
<path fill="none" stroke="midnightblue" d="M1644.31,-136.841C1661.9,-125.681 1686.29,-110.198 1703.84,-99.0625"/>
<polygon fill="midnightblue" stroke="midnightblue" points="1705.75,-101.995 1712.32,-93.6819 1702,-96.085 1705.75,-101.995"/>
</g>
<!-- Node34 -->
<g id="node34" class="node"><title>Node34</title>
<polygon fill="none" stroke="#bfbfbf" points="1598.5,-74.5 1598.5,-93.5 1647.5,-93.5 1647.5,-74.5 1598.5,-74.5"/>
<text text-anchor="middle" x="1623" y="-81.5" font-family="Helvetica,sans-Serif" font-size="10.00">cassert</text>
</g>
<!-- Node33&#45;&gt;Node34 -->
<g id="edge43" class="edge"><title>Node33&#45;&gt;Node34</title>
<path fill="none" stroke="midnightblue" d="M1622.22,-136.679C1622.36,-127.101 1622.55,-114.394 1622.71,-103.977"/>
<polygon fill="midnightblue" stroke="midnightblue" points="1626.21,-103.88 1622.87,-93.8283 1619.22,-103.774 1626.21,-103.88"/>
</g>
<!-- Node35 -->
<g id="node35" class="node"><title>Node35</title>
<polygon fill="none" stroke="#bfbfbf" points="1911,-74.5 1911,-93.5 1957,-93.5 1957,-74.5 1911,-74.5"/>
<text text-anchor="middle" x="1934" y="-81.5" font-family="Helvetica,sans-Serif" font-size="10.00">cstdint</text>
</g>
<!-- Node33&#45;&gt;Node35 -->
<g id="edge44" class="edge"><title>Node33&#45;&gt;Node35</title>
<path fill="none" stroke="midnightblue" d="M1688.55,-136.922C1753.71,-123.138 1850.32,-102.701 1900.7,-92.044"/>
<polygon fill="midnightblue" stroke="midnightblue" points="1901.66,-95.4181 1910.72,-89.9243 1900.21,-88.5697 1901.66,-95.4181"/>
</g>
<!-- Node36 -->
<g id="node36" class="node"><title>Node36</title>
<polygon fill="none" stroke="#bfbfbf" points="1518,-74.5 1518,-93.5 1580,-93.5 1580,-74.5 1518,-74.5"/>
<text text-anchor="middle" x="1549" y="-81.5" font-family="Helvetica,sans-Serif" font-size="10.00">type_traits</text>
</g>
<!-- Node33&#45;&gt;Node36 -->
<g id="edge45" class="edge"><title>Node33&#45;&gt;Node36</title>
<path fill="none" stroke="midnightblue" d="M1606.16,-136.679C1594.44,-126.082 1578.48,-111.655 1566.41,-100.736"/>
<polygon fill="midnightblue" stroke="midnightblue" points="1568.53,-97.9386 1558.76,-93.8283 1563.84,-103.131 1568.53,-97.9386"/>
</g>
<!-- Node37&#45;&gt;Node32 -->
<g id="edge51" class="edge"><title>Node37&#45;&gt;Node32</title>
<path fill="none" stroke="midnightblue" d="M2018.2,-210.439C1964.03,-197.485 1862.05,-173.099 1810.13,-160.684"/>
<polygon fill="midnightblue" stroke="midnightblue" points="1810.69,-157.218 1800.15,-158.296 1809.06,-164.026 1810.69,-157.218"/>
</g>
<!-- Node37&#45;&gt;Node35 -->
<g id="edge50" class="edge"><title>Node37&#45;&gt;Node35</title>
<path fill="none" stroke="midnightblue" d="M2136.64,-219.152C2237.85,-216.569 2389.11,-202.056 2331,-136 2307.05,-108.774 2058.22,-92.0402 1967.15,-86.7892"/>
<polygon fill="midnightblue" stroke="midnightblue" points="1967.28,-83.2911 1957.1,-86.2196 1966.89,-90.2799 1967.28,-83.2911"/>
</g>
<!-- Node38 -->
<g id="node38" class="node"><title>Node38</title>
<polygon fill="none" stroke="#bfbfbf" points="2029.5,-142.5 2029.5,-161.5 2078.5,-161.5 2078.5,-142.5 2029.5,-142.5"/>
<text text-anchor="middle" x="2054" y="-149.5" font-family="Helvetica,sans-Serif" font-size="10.00">cstddef</text>
</g>
<!-- Node37&#45;&gt;Node38 -->
<g id="edge52" class="edge"><title>Node37&#45;&gt;Node38</title>
<path fill="none" stroke="midnightblue" d="M2054,-210.372C2054,-200.643 2054,-184.528 2054,-171.85"/>
<polygon fill="midnightblue" stroke="midnightblue" points="2057.5,-171.841 2054,-161.841 2050.5,-171.841 2057.5,-171.841"/>
</g>
<!-- Node39 -->
<g id="node39" class="node"><title>Node39</title>
<polygon fill="none" stroke="#bfbfbf" points="2096.5,-142.5 2096.5,-161.5 2155.5,-161.5 2155.5,-142.5 2096.5,-142.5"/>
<text text-anchor="middle" x="2126" y="-149.5" font-family="Helvetica,sans-Serif" font-size="10.00">stdexcept</text>
</g>
<!-- Node37&#45;&gt;Node39 -->
<g id="edge53" class="edge"><title>Node37&#45;&gt;Node39</title>
<path fill="none" stroke="midnightblue" d="M2063.41,-210.372C2074.88,-199.856 2094.49,-181.882 2108.71,-168.85"/>
<polygon fill="midnightblue" stroke="midnightblue" points="2111.35,-171.178 2116.36,-161.841 2106.62,-166.018 2111.35,-171.178"/>
</g>
<!-- Node40 -->
<g id="node40" class="node"><title>Node40</title>
<g id="a_node40"><a xlink:href="../../d0/dda/DataFormats_2Detectors_2TPC_2include_2DataFormatsTPC_2Constants_8h.html" target="_top" xlink:title="DataFormatsTPC/Constants.h">
<polygon fill="none" stroke="black" points="2173,-142.5 2173,-161.5 2323,-161.5 2323,-142.5 2173,-142.5"/>
<text text-anchor="middle" x="2248" y="-149.5" font-family="Helvetica,sans-Serif" font-size="10.00">DataFormatsTPC/Constants.h</text>
</a>
</g>
</g>
<!-- Node37&#45;&gt;Node40 -->
<g id="edge54" class="edge"><title>Node37&#45;&gt;Node40</title>
<path fill="none" stroke="midnightblue" d="M2079.36,-210.372C2113.59,-198.728 2174.69,-177.939 2213.19,-164.841"/>
<polygon fill="midnightblue" stroke="midnightblue" points="2214.6,-168.06 2222.94,-161.526 2212.34,-161.433 2214.6,-168.06"/>
</g>
<!-- Node41 -->
<g id="node41" class="node"><title>Node41</title>
<g id="a_node41"><a xlink:href="../../d8/dc8/ClusterGroupAttribute_8h.html" target="_top" xlink:title="Meta data for a group describing it by sector number and global padrow. ">
<polygon fill="none" stroke="black" points="1856.5,-137 1856.5,-167 2011.5,-167 2011.5,-137 1856.5,-137"/>
<text text-anchor="start" x="1864.5" y="-155" font-family="Helvetica,sans-Serif" font-size="10.00">DataFormatsTPC/ClusterGroup</text>
<text text-anchor="middle" x="1934" y="-144" font-family="Helvetica,sans-Serif" font-size="10.00">Attribute.h</text>
</a>
</g>
</g>
<!-- Node37&#45;&gt;Node41 -->
<g id="edge55" class="edge"><title>Node37&#45;&gt;Node41</title>
<path fill="none" stroke="midnightblue" d="M2038.31,-210.372C2020.7,-200.686 1991.58,-184.671 1968.58,-172.019"/>
<polygon fill="midnightblue" stroke="midnightblue" points="1970.23,-168.934 1959.78,-167.181 1966.86,-175.067 1970.23,-168.934"/>
</g>
<!-- Node41&#45;&gt;Node35 -->
<g id="edge56" class="edge"><title>Node41&#45;&gt;Node35</title>
<path fill="none" stroke="midnightblue" d="M1934,-136.679C1934,-127.101 1934,-114.394 1934,-103.977"/>
<polygon fill="midnightblue" stroke="midnightblue" points="1937.5,-103.828 1934,-93.8283 1930.5,-103.828 1937.5,-103.828"/>
</g>
<!-- Node42&#45;&gt;Node7 -->
<g id="edge58" class="edge"><title>Node42&#45;&gt;Node7</title>
<path fill="none" stroke="midnightblue" d="M114.832,-210.32C100.159,-179.764 50.6969,-76.7606 30.5984,-34.9059"/>
<polygon fill="midnightblue" stroke="midnightblue" points="33.7456,-33.3743 26.2617,-25.8748 27.4354,-36.4045 33.7456,-33.3743"/>
</g>
<!-- Node42&#45;&gt;Node13 -->
<g id="edge60" class="edge"><title>Node42&#45;&gt;Node13</title>
<path fill="none" stroke="midnightblue" d="M182.165,-212.308C298.458,-199.988 545.789,-173.786 669.037,-160.73"/>
<polygon fill="midnightblue" stroke="midnightblue" points="669.556,-164.194 679.132,-159.66 668.818,-157.233 669.556,-164.194"/>
</g>
<!-- Node42&#45;&gt;Node20 -->
<g id="edge59" class="edge"><title>Node42&#45;&gt;Node20</title>
<path fill="none" stroke="midnightblue" d="M120.247,-210.208C123.293,-188.722 131.17,-133.167 135.332,-103.814"/>
<polygon fill="midnightblue" stroke="midnightblue" points="138.835,-104.043 136.773,-93.6503 131.904,-103.06 138.835,-104.043"/>
</g>
<!-- Node43&#45;&gt;Node3 -->
<g id="edge62" class="edge"><title>Node43&#45;&gt;Node3</title>
<path fill="none" stroke="midnightblue" d="M1514.65,-210.087C1512.18,-194.679 1506.28,-162.196 1497,-136 1492.94,-124.548 1487,-112.307 1481.93,-102.688"/>
<polygon fill="midnightblue" stroke="midnightblue" points="1484.92,-100.87 1477.07,-93.757 1478.77,-104.214 1484.92,-100.87"/>
</g>
<!-- Node44 -->
<g id="node44" class="node"><title>Node44</title>
<g id="a_node44"><a xlink:href="../../df/d5d/common_2include_2CommonDataFormat_2TimeStamp_8h.html" target="_top" xlink:title="CommonDataFormat/TimeStamp.h">
<polygon fill="none" stroke="black" points="1318,-142.5 1318,-161.5 1488,-161.5 1488,-142.5 1318,-142.5"/>
<text text-anchor="middle" x="1403" y="-149.5" font-family="Helvetica,sans-Serif" font-size="10.00">CommonDataFormat/TimeStamp.h</text>
</a>
</g>
</g>
<!-- Node43&#45;&gt;Node44 -->
<g id="edge63" class="edge"><title>Node43&#45;&gt;Node44</title>
<path fill="none" stroke="midnightblue" d="M1501.23,-210.372C1482.28,-199.304 1449.18,-179.972 1426.69,-166.838"/>
<polygon fill="midnightblue" stroke="midnightblue" points="1428.18,-163.652 1417.78,-161.63 1424.65,-169.696 1428.18,-163.652"/>
</g>
<!-- Node44&#45;&gt;Node3 -->
<g id="edge64" class="edge"><title>Node44&#45;&gt;Node3</title>
<path fill="none" stroke="midnightblue" d="M1412.02,-142.372C1423.01,-131.856 1441.81,-113.882 1455.43,-100.85"/>
<polygon fill="midnightblue" stroke="midnightblue" points="1457.95,-103.283 1462.76,-93.8411 1453.11,-98.2241 1457.95,-103.283"/>
</g>
</g>
</svg>
