<?xml version="1.0" encoding="UTF-8" standalone="no"?>
<!DOCTYPE svg PUBLIC "-//W3C//DTD SVG 1.1//EN"
 "http://www.w3.org/Graphics/SVG/1.1/DTD/svg11.dtd">
<!-- Generated by graphviz version 2.36.0 (20140111.2315)
 -->
<!-- Title: o2::framework::DeviceInfo Pages: 1 -->
<svg width="803pt" height="332pt"
 viewBox="0.00 0.00 803.00 332.00" xmlns="http://www.w3.org/2000/svg" xmlns:xlink="http://www.w3.org/1999/xlink">
<g id="graph0" class="graph" transform="scale(1 1) rotate(0) translate(4 328)">
<title>o2::framework::DeviceInfo</title>
<!-- Node1 -->
<g id="node1" class="node"><title>Node1</title>
<polygon fill="#bfbfbf" stroke="black" points="427,-0.5 427,-57.5 559,-57.5 559,-0.5 427,-0.5"/>
<text text-anchor="middle" x="493" y="-45.5" font-family="Helvetica,sans-Serif" font-size="10.00">o2::framework::DeviceInfo</text>
<polyline fill="none" stroke="black" points="427,-38.5 559,-38.5 "/>
<text text-anchor="middle" x="493" y="-26.5" font-family="Helvetica,sans-Serif" font-size="10.00"> </text>
<polyline fill="none" stroke="black" points="427,-19.5 559,-19.5 "/>
<text text-anchor="middle" x="493" y="-7.5" font-family="Helvetica,sans-Serif" font-size="10.00"> </text>
</g>
<!-- Node2 -->
<g id="node2" class="node"><title>Node2</title>
<g id="a_node2"><a xlink:href="../../d6/d43/structo2_1_1framework_1_1Metric2DViewIndex.html" target="_top" xlink:title="{o2::framework::Metric2DView\lIndex\n||+ isComplete()\l+ getUpdater()\l}">
<polygon fill="none" stroke="black" points="29,-128.5 29,-207.5 175,-207.5 175,-128.5 29,-128.5"/>
<text text-anchor="start" x="37" y="-195.5" font-family="Helvetica,sans-Serif" font-size="10.00">o2::framework::Metric2DView</text>
<text text-anchor="middle" x="102" y="-184.5" font-family="Helvetica,sans-Serif" font-size="10.00">Index</text>
<polyline fill="none" stroke="black" points="29,-177.5 175,-177.5 "/>
<text text-anchor="middle" x="102" y="-165.5" font-family="Helvetica,sans-Serif" font-size="10.00"> </text>
<polyline fill="none" stroke="black" points="29,-158.5 175,-158.5 "/>
<text text-anchor="start" x="37" y="-146.5" font-family="Helvetica,sans-Serif" font-size="10.00">+ isComplete()</text>
<text text-anchor="start" x="37" y="-135.5" font-family="Helvetica,sans-Serif" font-size="10.00">+ getUpdater()</text>
</a>
</g>
</g>
<!-- Node2&#45;&gt;Node1 -->
<g id="edge1" class="edge"><title>Node2&#45;&gt;Node1</title>
<path fill="none" stroke="#404040" d="M88.3829,-128.334C84.6752,-110.366 84.583,-89.9429 97,-76 117.721,-52.7331 305.201,-39.4393 414.606,-33.5997"/>
<polygon fill="none" stroke="#404040" points="414.909,-33.5839 420.692,-29.2762 426.893,-32.9576 421.11,-37.2653 414.909,-33.5839"/>
<text text-anchor="middle" x="149.5" y="-101.5" font-family="Helvetica,sans-Serif" font-size="10.00"> +queriesViewIndex</text>
<text text-anchor="middle" x="149.5" y="-90.5" font-family="Helvetica,sans-Serif" font-size="10.00">+variablesViewIndex</text>
<text text-anchor="middle" x="149.5" y="-79.5" font-family="Helvetica,sans-Serif" font-size="10.00">+dataRelayerViewIndex</text>
</g>
<!-- Node3 -->
<g id="node3" class="node"><title>Node3</title>
<polygon fill="none" stroke="#bfbfbf" points="-0.5,-266.5 -0.5,-323.5 34.5,-323.5 34.5,-266.5 -0.5,-266.5"/>
<text text-anchor="middle" x="17" y="-311.5" font-family="Helvetica,sans-Serif" font-size="10.00">char</text>
<polyline fill="none" stroke="#bfbfbf" points="-0.5,-304.5 34.5,-304.5 "/>
<text text-anchor="middle" x="17" y="-292.5" font-family="Helvetica,sans-Serif" font-size="10.00"> </text>
<polyline fill="none" stroke="#bfbfbf" points="-0.5,-285.5 34.5,-285.5 "/>
<text text-anchor="middle" x="17" y="-273.5" font-family="Helvetica,sans-Serif" font-size="10.00"> </text>
</g>
<!-- Node3&#45;&gt;Node2 -->
<g id="edge2" class="edge"><title>Node3&#45;&gt;Node2</title>
<path fill="none" stroke="#404040" d="M34.6121,-268.1C44.4377,-253.65 57.0037,-235.171 68.6167,-218.093"/>
<polygon fill="none" stroke="#404040" points="68.9434,-217.613 69.0096,-210.402 75.6912,-207.689 75.625,-214.9 68.9434,-217.613"/>
<text text-anchor="middle" x="80" y="-234.5" font-family="Helvetica,sans-Serif" font-size="10.00"> +prefix</text>
</g>
<!-- Node4 -->
<g id="node4" class="node"><title>Node4</title>
<polygon fill="none" stroke="#bfbfbf" points="189.5,-266.5 189.5,-323.5 218.5,-323.5 218.5,-266.5 189.5,-266.5"/>
<text text-anchor="middle" x="204" y="-311.5" font-family="Helvetica,sans-Serif" font-size="10.00">int</text>
<polyline fill="none" stroke="#bfbfbf" points="189.5,-304.5 218.5,-304.5 "/>
<text text-anchor="middle" x="204" y="-292.5" font-family="Helvetica,sans-Serif" font-size="10.00"> </text>
<polyline fill="none" stroke="#bfbfbf" points="189.5,-285.5 218.5,-285.5 "/>
<text text-anchor="middle" x="204" y="-273.5" font-family="Helvetica,sans-Serif" font-size="10.00"> </text>
</g>
<!-- Node4&#45;&gt;Node1 -->
<g id="edge9" class="edge"><title>Node4&#45;&gt;Node1</title>
<path fill="none" stroke="#404040" d="M199.62,-266.446C195.537,-230.691 194.052,-168.147 225,-128 269.944,-69.6976 353.006,-46.06 414.794,-36.4883"/>
<polygon fill="none" stroke="#404040" points="414.972,-36.4628 420.342,-31.6498 426.85,-34.7554 421.48,-39.5684 414.972,-36.4628"/>
<text text-anchor="middle" x="249.5" y="-171" font-family="Helvetica,sans-Serif" font-size="10.00"> +unprinted</text>
<text text-anchor="middle" x="249.5" y="-160" font-family="Helvetica,sans-Serif" font-size="10.00">+lastError</text>
</g>
<!-- Node4&#45;&gt;Node2 -->
<g id="edge3" class="edge"><title>Node4&#45;&gt;Node2</title>
<path fill="none" stroke="#404040" d="M189.326,-274.088C179.094,-260.384 164.999,-241.864 152,-226 149.539,-222.996 146.981,-219.928 144.381,-216.85"/>
<polygon fill="none" stroke="#404040" points="144.307,-216.764 137.369,-214.8 136.512,-207.64 143.451,-209.603 144.307,-216.764"/>
<text text-anchor="middle" x="177.5" y="-240" font-family="Helvetica,sans-Serif" font-size="10.00"> +w</text>
<text text-anchor="middle" x="177.5" y="-229" font-family="Helvetica,sans-Serif" font-size="10.00">+h</text>
</g>
<!-- Node5 -->
<g id="node5" class="node"><title>Node5</title>
<polygon fill="none" stroke="#bfbfbf" points="52.5,-266.5 52.5,-323.5 159.5,-323.5 159.5,-266.5 52.5,-266.5"/>
<text text-anchor="middle" x="106" y="-311.5" font-family="Helvetica,sans-Serif" font-size="10.00">vector&lt; std::size_t &gt;</text>
<polyline fill="none" stroke="#bfbfbf" points="52.5,-304.5 159.5,-304.5 "/>
<text text-anchor="middle" x="106" y="-292.5" font-family="Helvetica,sans-Serif" font-size="10.00"> </text>
<polyline fill="none" stroke="#bfbfbf" points="52.5,-285.5 159.5,-285.5 "/>
<text text-anchor="middle" x="106" y="-273.5" font-family="Helvetica,sans-Serif" font-size="10.00"> </text>
</g>
<!-- Node5&#45;&gt;Node2 -->
<g id="edge4" class="edge"><title>Node5&#45;&gt;Node2</title>
<path fill="none" stroke="#404040" d="M105.112,-266.258C104.676,-252.637 104.137,-235.787 103.631,-219.96"/>
<polygon fill="none" stroke="#404040" points="103.618,-219.561 99.4281,-213.692 103.234,-207.567 107.424,-213.436 103.618,-219.561"/>
<text text-anchor="middle" x="126.5" y="-234.5" font-family="Helvetica,sans-Serif" font-size="10.00"> +indexes</text>
</g>
<!-- Node6 -->
<g id="node6" class="node"><title>Node6</title>
<polygon fill="none" stroke="#bfbfbf" points="283.5,-128.5 283.5,-207.5 398.5,-207.5 398.5,-128.5 283.5,-128.5"/>
<text text-anchor="start" x="291.5" y="-195.5" font-family="Helvetica,sans-Serif" font-size="10.00">vector&lt; o2::framework</text>
<text text-anchor="start" x="291.5" y="-184.5" font-family="Helvetica,sans-Serif" font-size="10.00">::LogParsingHelpers::</text>
<text text-anchor="middle" x="341" y="-173.5" font-family="Helvetica,sans-Serif" font-size="10.00">LogLevel &gt;</text>
<polyline fill="none" stroke="#bfbfbf" points="283.5,-166.5 398.5,-166.5 "/>
<text text-anchor="middle" x="341" y="-154.5" font-family="Helvetica,sans-Serif" font-size="10.00"> </text>
<polyline fill="none" stroke="#bfbfbf" points="283.5,-147.5 398.5,-147.5 "/>
<text text-anchor="middle" x="341" y="-135.5" font-family="Helvetica,sans-Serif" font-size="10.00"> </text>
</g>
<!-- Node6&#45;&gt;Node1 -->
<g id="edge5" class="edge"><title>Node6&#45;&gt;Node1</title>
<path fill="none" stroke="#404040" d="M350.316,-128.111C356.271,-110.308 365.65,-90.0895 380,-76 390.155,-66.0295 402.763,-58.1241 415.837,-51.8865"/>
<polygon fill="none" stroke="#404040" points="415.899,-51.859 419.782,-45.7829 426.885,-47.0305 423.001,-53.1066 415.899,-51.859"/>
<text text-anchor="middle" x="411" y="-90.5" font-family="Helvetica,sans-Serif" font-size="10.00"> +historyLevel</text>
</g>
<!-- Node7 -->
<g id="node7" class="node"><title>Node7</title>
<polygon fill="none" stroke="#bfbfbf" points="416,-139.5 416,-196.5 472,-196.5 472,-139.5 416,-139.5"/>
<text text-anchor="middle" x="444" y="-184.5" font-family="Helvetica,sans-Serif" font-size="10.00">LogLevel</text>
<polyline fill="none" stroke="#bfbfbf" points="416,-177.5 472,-177.5 "/>
<text text-anchor="middle" x="444" y="-165.5" font-family="Helvetica,sans-Serif" font-size="10.00"> </text>
<polyline fill="none" stroke="#bfbfbf" points="416,-158.5 472,-158.5 "/>
<text text-anchor="middle" x="444" y="-146.5" font-family="Helvetica,sans-Serif" font-size="10.00"> </text>
</g>
<!-- Node7&#45;&gt;Node1 -->
<g id="edge6" class="edge"><title>Node7&#45;&gt;Node1</title>
<path fill="none" stroke="#404040" d="M442.895,-139.257C443.135,-120.657 445.394,-96.0014 454,-76 455.213,-73.1809 456.66,-70.4042 458.27,-67.6973"/>
<polygon fill="none" stroke="#404040" points="458.366,-67.5584 458.458,-60.3479 465.15,-57.6601 465.057,-64.8706 458.366,-67.5584"/>
<text text-anchor="middle" x="487.5" y="-90.5" font-family="Helvetica,sans-Serif" font-size="10.00"> +maxLogLevel</text>
</g>
<!-- Node8 -->
<g id="node8" class="node"><title>Node8</title>
<polygon fill="none" stroke="#bfbfbf" points="490.5,-139.5 490.5,-196.5 595.5,-196.5 595.5,-139.5 490.5,-139.5"/>
<text text-anchor="middle" x="543" y="-184.5" font-family="Helvetica,sans-Serif" font-size="10.00">vector&lt; std::string &gt;</text>
<polyline fill="none" stroke="#bfbfbf" points="490.5,-177.5 595.5,-177.5 "/>
<text text-anchor="middle" x="543" y="-165.5" font-family="Helvetica,sans-Serif" font-size="10.00"> </text>
<polyline fill="none" stroke="#bfbfbf" points="490.5,-158.5 595.5,-158.5 "/>
<text text-anchor="middle" x="543" y="-146.5" font-family="Helvetica,sans-Serif" font-size="10.00"> </text>
</g>
<!-- Node8&#45;&gt;Node1 -->
<g id="edge7" class="edge"><title>Node8&#45;&gt;Node1</title>
<path fill="none" stroke="#404040" d="M538.597,-139.226C535.126,-120.834 529.445,-96.4284 521,-76 519.984,-73.543 518.849,-71.0642 517.632,-68.5988"/>
<polygon fill="none" stroke="#404040" points="517.604,-68.5452 511.234,-65.1646 511.905,-57.9847 518.274,-61.3654 517.604,-68.5452"/>
<text text-anchor="middle" x="551.5" y="-90.5" font-family="Helvetica,sans-Serif" font-size="10.00"> +history</text>
</g>
<!-- Node9 -->
<g id="node9" class="node"><title>Node9</title>
<g id="a_node9"><a xlink:href="../../dd/de2/classsize__t.html" target="_top" xlink:title="{size_t\n||}">
<polygon fill="none" stroke="black" points="613.5,-139.5 613.5,-196.5 656.5,-196.5 656.5,-139.5 613.5,-139.5"/>
<text text-anchor="middle" x="635" y="-184.5" font-family="Helvetica,sans-Serif" font-size="10.00">size_t</text>
<polyline fill="none" stroke="black" points="613.5,-177.5 656.5,-177.5 "/>
<text text-anchor="middle" x="635" y="-165.5" font-family="Helvetica,sans-Serif" font-size="10.00"> </text>
<polyline fill="none" stroke="black" points="613.5,-158.5 656.5,-158.5 "/>
<text text-anchor="middle" x="635" y="-146.5" font-family="Helvetica,sans-Serif" font-size="10.00"> </text>
</a>
</g>
</g>
<!-- Node9&#45;&gt;Node1 -->
<g id="edge8" class="edge"><title>Node9&#45;&gt;Node1</title>
<path fill="none" stroke="#404040" d="M621.379,-139.413C610.749,-119.938 594.531,-94.179 575,-76 570.559,-71.866 565.678,-67.9628 560.58,-64.3103"/>
<polygon fill="none" stroke="#404040" points="560.534,-64.2799 553.323,-64.2636 550.565,-57.6009 557.776,-57.6172 560.534,-64.2799"/>
<text text-anchor="middle" x="631" y="-96" font-family="Helvetica,sans-Serif" font-size="10.00"> +historySize</text>
<text text-anchor="middle" x="631" y="-85" font-family="Helvetica,sans-Serif" font-size="10.00">+historyPos</text>
</g>
<!-- Node10 -->
<g id="node10" class="node"><title>Node10</title>
<polygon fill="none" stroke="#bfbfbf" points="675,-139.5 675,-196.5 713,-196.5 713,-139.5 675,-139.5"/>
<text text-anchor="middle" x="694" y="-184.5" font-family="Helvetica,sans-Serif" font-size="10.00">pid_t</text>
<polyline fill="none" stroke="#bfbfbf" points="675,-177.5 713,-177.5 "/>
<text text-anchor="middle" x="694" y="-165.5" font-family="Helvetica,sans-Serif" font-size="10.00"> </text>
<polyline fill="none" stroke="#bfbfbf" points="675,-158.5 713,-158.5 "/>
<text text-anchor="middle" x="694" y="-146.5" font-family="Helvetica,sans-Serif" font-size="10.00"> </text>
</g>
<!-- Node10&#45;&gt;Node1 -->
<g id="edge10" class="edge"><title>Node10&#45;&gt;Node1</title>
<path fill="none" stroke="#404040" d="M691.791,-139.439C688.72,-119.196 681.403,-92.4604 664,-76 639.145,-52.4913 603.586,-40.7287 571.326,-34.9425"/>
<polygon fill="none" stroke="#404040" points="571.003,-34.8912 564.449,-37.8986 559.152,-33.0054 565.707,-29.998 571.003,-34.8912"/>
<text text-anchor="middle" x="696" y="-90.5" font-family="Helvetica,sans-Serif" font-size="10.00"> +pid</text>
</g>
<!-- Node11 -->
<g id="node11" class="node"><title>Node11</title>
<polygon fill="none" stroke="#bfbfbf" points="731.5,-139.5 731.5,-196.5 766.5,-196.5 766.5,-139.5 731.5,-139.5"/>
<text text-anchor="middle" x="749" y="-184.5" font-family="Helvetica,sans-Serif" font-size="10.00">bool</text>
<polyline fill="none" stroke="#bfbfbf" points="731.5,-177.5 766.5,-177.5 "/>
<text text-anchor="middle" x="749" y="-165.5" font-family="Helvetica,sans-Serif" font-size="10.00"> </text>
<polyline fill="none" stroke="#bfbfbf" points="731.5,-158.5 766.5,-158.5 "/>
<text text-anchor="middle" x="749" y="-146.5" font-family="Helvetica,sans-Serif" font-size="10.00"> </text>
</g>
<!-- Node11&#45;&gt;Node1 -->
<g id="edge11" class="edge"><title>Node11&#45;&gt;Node1</title>
<path fill="none" stroke="#404040" d="M744.547,-139.441C739.773,-118.924 730.121,-91.8325 711,-76 689.776,-58.4264 624.653,-46.1657 571.068,-38.7474"/>
<polygon fill="none" stroke="#404040" points="571.026,-38.7418 564.548,-41.909 559.133,-37.1472 565.611,-33.98 571.026,-38.7418"/>
<text text-anchor="middle" x="765" y="-96" font-family="Helvetica,sans-Serif" font-size="10.00"> +active</text>
<text text-anchor="middle" x="765" y="-85" font-family="Helvetica,sans-Serif" font-size="10.00">+readyToQuit</text>
</g>
</g>
</svg>
