<?xml version="1.0" encoding="UTF-8" standalone="no"?>
<!DOCTYPE svg PUBLIC "-//W3C//DTD SVG 1.1//EN"
 "http://www.w3.org/Graphics/SVG/1.1/DTD/svg11.dtd">
<!-- Generated by graphviz version 2.36.0 (20140111.2315)
 -->
<!-- Title: /home/travis/build/AliceO2Group/AliceO2/Detectors/ITSMFT/ITS Pages: 1 -->
<svg width="767pt" height="375pt"
 viewBox="0.00 0.00 767.26 375.00" xmlns="http://www.w3.org/2000/svg" xmlns:xlink="http://www.w3.org/1999/xlink">
<g id="graph0" class="graph" transform="scale(1 1) rotate(0) translate(4 371)">
<title>/home/travis/build/AliceO2Group/AliceO2/Detectors/ITSMFT/ITS</title>
<g id="clust1" class="cluster"><title>clusterdir_1306292b77b40360479b729ac9ee7efe</title>
<g id="a_clust1"><a xlink:href="dir_1306292b77b40360479b729ac9ee7efe.html" target="_top" xlink:title="ITSMFT">
<polygon fill="#ddddee" stroke="black" points="8,-200 8,-359 414,-359 414,-200 8,-200"/>
<text text-anchor="middle" x="211" y="-347" font-family="Helvetica,sans-Serif" font-size="10.00">ITSMFT</text>
</a>
</g>
</g>
<g id="clust2" class="cluster"><title>clusterdir_871aad07cbf94d6cd423c3d8d5bdf4e9</title>
<g id="a_clust2"><a xlink:href="dir_871aad07cbf94d6cd423c3d8d5bdf4e9.html" target="_top">
<polygon fill="#eeeeff" stroke="black" points="16,-208 16,-332 406,-332 406,-208 16,-208"/>
</a>
</g>
</g>
<!-- dir_871aad07cbf94d6cd423c3d8d5bdf4e9 -->
<g id="node1" class="node"><title>dir_871aad07cbf94d6cd423c3d8d5bdf4e9</title>
<text text-anchor="middle" x="371" y="-303.5" font-family="Helvetica,sans-Serif" font-size="10.00">ITS</text>
</g>
<!-- dir_eedff867f3c4e67d20b227cb6e0f96ab -->
<g id="node2" class="node"><title>dir_eedff867f3c4e67d20b227cb6e0f96ab</title>
<g id="a_node2"><a xlink:href="dir_eedff867f3c4e67d20b227cb6e0f96ab.html" target="_top" xlink:title="base">
<polygon fill="white" stroke="red" points="321,-252 267,-252 267,-216 321,-216 321,-252"/>
<text text-anchor="middle" x="294" y="-231.5" font-family="Helvetica,sans-Serif" font-size="10.00">base</text>
</a>
</g>
</g>
<!-- dir_4ab6b4cc6a7edbff49100e9123df213f -->
<g id="node7" class="node"><title>dir_4ab6b4cc6a7edbff49100e9123df213f</title>
<g id="a_node7"><a xlink:href="dir_4ab6b4cc6a7edbff49100e9123df213f.html" target="_top" xlink:title="Common">
<polygon fill="none" stroke="red" points="536.5,-180 481.5,-180 481.5,-144 536.5,-144 536.5,-180"/>
<text text-anchor="middle" x="509" y="-159.5" font-family="Helvetica,sans-Serif" font-size="10.00">Common</text>
</a>
</g>
</g>
<!-- dir_eedff867f3c4e67d20b227cb6e0f96ab&#45;&gt;dir_4ab6b4cc6a7edbff49100e9123df213f -->
<g id="edge1" class="edge"><title>dir_eedff867f3c4e67d20b227cb6e0f96ab&#45;&gt;dir_4ab6b4cc6a7edbff49100e9123df213f</title>
<path fill="none" stroke="black" d="M321.23,-224.134C359.388,-211.711 428.895,-189.081 471.798,-175.112"/>
<polygon fill="black" stroke="black" points="472.887,-178.439 481.312,-172.015 470.72,-171.783 472.887,-178.439"/>
<g id="a_edge1&#45;headlabel"><a xlink:href="dir_000269_000016.html" target="_top" xlink:title="2">
<text text-anchor="middle" x="470.348" y="-179.751" font-family="Helvetica,sans-Serif" font-size="10.00">2</text>
</a>
</g>
</g>
<!-- dir_37c90836491b695b472bf98d1be8336b -->
<g id="node9" class="node"><title>dir_37c90836491b695b472bf98d1be8336b</title>
<g id="a_node9"><a xlink:href="dir_37c90836491b695b472bf98d1be8336b.html" target="_top" xlink:title="Base">
<polygon fill="none" stroke="red" points="434,-36 380,-36 380,-0 434,-0 434,-36"/>
<text text-anchor="middle" x="407" y="-15.5" font-family="Helvetica,sans-Serif" font-size="10.00">Base</text>
</a>
</g>
</g>
<!-- dir_eedff867f3c4e67d20b227cb6e0f96ab&#45;&gt;dir_37c90836491b695b472bf98d1be8336b -->
<g id="edge2" class="edge"><title>dir_eedff867f3c4e67d20b227cb6e0f96ab&#45;&gt;dir_37c90836491b695b472bf98d1be8336b</title>
<path fill="none" stroke="black" d="M297.319,-215.669C301.234,-197.28 308.679,-167.67 320,-144 337.859,-106.661 366.408,-68.2462 385.896,-44.0336"/>
<polygon fill="black" stroke="black" points="388.769,-46.0479 392.378,-36.0866 383.345,-41.6231 388.769,-46.0479"/>
<g id="a_edge2&#45;headlabel"><a xlink:href="dir_000269_000157.html" target="_top" xlink:title="2">
<text text-anchor="middle" x="388.697" y="-48.128" font-family="Helvetica,sans-Serif" font-size="10.00">2</text>
</a>
</g>
</g>
<!-- dir_85bf31a2e8d306e7598ffcb73f8df6bf -->
<g id="node10" class="node"><title>dir_85bf31a2e8d306e7598ffcb73f8df6bf</title>
<g id="a_node10"><a xlink:href="dir_85bf31a2e8d306e7598ffcb73f8df6bf.html" target="_top" xlink:title="common">
<polygon fill="none" stroke="red" points="624,-252 570,-252 570,-216 624,-216 624,-252"/>
<text text-anchor="middle" x="597" y="-231.5" font-family="Helvetica,sans-Serif" font-size="10.00">common</text>
</a>
</g>
</g>
<!-- dir_eedff867f3c4e67d20b227cb6e0f96ab&#45;&gt;dir_85bf31a2e8d306e7598ffcb73f8df6bf -->
<g id="edge3" class="edge"><title>dir_eedff867f3c4e67d20b227cb6e0f96ab&#45;&gt;dir_85bf31a2e8d306e7598ffcb73f8df6bf</title>
<path fill="none" stroke="black" d="M321.267,-245.69C368.384,-264.187 467.619,-295.604 547,-270 554.874,-267.46 562.554,-263.169 569.438,-258.417"/>
<polygon fill="black" stroke="black" points="571.776,-261.039 577.688,-252.247 567.584,-255.433 571.776,-261.039"/>
<g id="a_edge3&#45;headlabel"><a xlink:href="dir_000269_000221.html" target="_top" xlink:title="2">
<text text-anchor="middle" x="570.597" y="-262.966" font-family="Helvetica,sans-Serif" font-size="10.00">2</text>
</a>
</g>
</g>
<!-- dir_2171f7ec022c5423887b07c69b2f5b48 -->
<g id="node11" class="node"><title>dir_2171f7ec022c5423887b07c69b2f5b48</title>
<g id="a_node11"><a xlink:href="dir_2171f7ec022c5423887b07c69b2f5b48.html" target="_top" xlink:title="DataFormats">
<polygon fill="none" stroke="red" points="547,-108 473,-108 473,-72 547,-72 547,-108"/>
<text text-anchor="middle" x="510" y="-87.5" font-family="Helvetica,sans-Serif" font-size="10.00">DataFormats</text>
</a>
</g>
</g>
<!-- dir_eedff867f3c4e67d20b227cb6e0f96ab&#45;&gt;dir_2171f7ec022c5423887b07c69b2f5b48 -->
<g id="edge4" class="edge"><title>dir_eedff867f3c4e67d20b227cb6e0f96ab&#45;&gt;dir_2171f7ec022c5423887b07c69b2f5b48</title>
<path fill="none" stroke="black" d="M301.613,-215.785C311.282,-195.804 329.792,-163.151 355,-144 386.707,-119.911 430.097,-106.318 462.906,-98.9455"/>
<polygon fill="black" stroke="black" points="463.673,-102.361 472.723,-96.8525 462.213,-95.5146 463.673,-102.361"/>
<g id="a_edge4&#45;headlabel"><a xlink:href="dir_000269_000054.html" target="_top" xlink:title="1">
<text text-anchor="middle" x="460.749" y="-103.387" font-family="Helvetica,sans-Serif" font-size="10.00">1</text>
</a>
</g>
</g>
<!-- dir_d1915fc52ae3a2d414030e7b83b60b4d -->
<g id="node3" class="node"><title>dir_d1915fc52ae3a2d414030e7b83b60b4d</title>
<g id="a_node3"><a xlink:href="dir_d1915fc52ae3a2d414030e7b83b60b4d.html" target="_top" xlink:title="macros">
<polygon fill="white" stroke="red" points="78,-324 24,-324 24,-288 78,-288 78,-324"/>
<text text-anchor="middle" x="51" y="-303.5" font-family="Helvetica,sans-Serif" font-size="10.00">macros</text>
</a>
</g>
</g>
<!-- dir_d1915fc52ae3a2d414030e7b83b60b4d&#45;&gt;dir_eedff867f3c4e67d20b227cb6e0f96ab -->
<g id="edge27" class="edge"><title>dir_d1915fc52ae3a2d414030e7b83b60b4d&#45;&gt;dir_eedff867f3c4e67d20b227cb6e0f96ab</title>
<path fill="none" stroke="black" d="M78.2889,-291.455C81.1979,-290.21 84.1389,-289.031 87,-288 144.911,-267.128 214.719,-251.046 256.669,-242.314"/>
<polygon fill="black" stroke="black" points="257.618,-245.692 266.71,-240.254 256.211,-238.835 257.618,-245.692"/>
<g id="a_edge27&#45;headlabel"><a xlink:href="dir_000285_000269.html" target="_top" xlink:title="6">
<text text-anchor="middle" x="254.667" y="-246.696" font-family="Helvetica,sans-Serif" font-size="10.00">6</text>
</a>
</g>
</g>
<!-- dir_d1915fc52ae3a2d414030e7b83b60b4d&#45;&gt;dir_4ab6b4cc6a7edbff49100e9123df213f -->
<g id="edge28" class="edge"><title>dir_d1915fc52ae3a2d414030e7b83b60b4d&#45;&gt;dir_4ab6b4cc6a7edbff49100e9123df213f</title>
<path fill="none" stroke="black" d="M78.1378,-290.977C81.0763,-289.825 84.0655,-288.799 87,-288 172.689,-264.682 417.009,-309.129 485,-252 502.76,-237.078 508.102,-210.521 509.395,-190.289"/>
<polygon fill="black" stroke="black" points="512.9,-190.213 509.749,-180.097 505.904,-189.97 512.9,-190.213"/>
<g id="a_edge28&#45;headlabel"><a xlink:href="dir_000285_000016.html" target="_top" xlink:title="7">
<text text-anchor="middle" x="515.613" y="-191.403" font-family="Helvetica,sans-Serif" font-size="10.00">7</text>
</a>
</g>
</g>
<!-- dir_a597e8e061b11201a1dff411feb10d0b -->
<g id="node8" class="node"><title>dir_a597e8e061b11201a1dff411feb10d0b</title>
<g id="a_node8"><a xlink:href="dir_a597e8e061b11201a1dff411feb10d0b.html" target="_top" xlink:title="TPC">
<polygon fill="none" stroke="red" points="476,-252 422,-252 422,-216 476,-216 476,-252"/>
<text text-anchor="middle" x="449" y="-231.5" font-family="Helvetica,sans-Serif" font-size="10.00">TPC</text>
</a>
</g>
</g>
<!-- dir_d1915fc52ae3a2d414030e7b83b60b4d&#45;&gt;dir_a597e8e061b11201a1dff411feb10d0b -->
<g id="edge29" class="edge"><title>dir_d1915fc52ae3a2d414030e7b83b60b4d&#45;&gt;dir_a597e8e061b11201a1dff411feb10d0b</title>
<path fill="none" stroke="black" d="M78.1552,-291.04C81.0903,-289.875 84.074,-288.829 87,-288 225.974,-248.625 270.449,-289.278 410,-252 410.723,-251.807 411.449,-251.603 412.178,-251.388"/>
<polygon fill="black" stroke="black" points="413.351,-254.686 421.671,-248.127 411.077,-248.066 413.351,-254.686"/>
<g id="a_edge29&#45;headlabel"><a xlink:href="dir_000285_000190.html" target="_top" xlink:title="1">
<text text-anchor="middle" x="410.873" y="-256.039" font-family="Helvetica,sans-Serif" font-size="10.00">1</text>
</a>
</g>
</g>
<!-- dir_d1915fc52ae3a2d414030e7b83b60b4d&#45;&gt;dir_37c90836491b695b472bf98d1be8336b -->
<g id="edge30" class="edge"><title>dir_d1915fc52ae3a2d414030e7b83b60b4d&#45;&gt;dir_37c90836491b695b472bf98d1be8336b</title>
<path fill="none" stroke="black" d="M62.5621,-287.844C91.9183,-245.488 173.659,-134.845 267,-72 298.819,-50.5767 340.485,-36.2388 370.067,-27.9375"/>
<polygon fill="black" stroke="black" points="371.252,-31.2427 379.99,-25.2513 369.423,-24.4859 371.252,-31.2427"/>
<g id="a_edge30&#45;headlabel"><a xlink:href="dir_000285_000157.html" target="_top" xlink:title="1">
<text text-anchor="middle" x="368.524" y="-32.4225" font-family="Helvetica,sans-Serif" font-size="10.00">1</text>
</a>
</g>
</g>
<!-- dir_d1915fc52ae3a2d414030e7b83b60b4d&#45;&gt;dir_85bf31a2e8d306e7598ffcb73f8df6bf -->
<g id="edge31" class="edge"><title>dir_d1915fc52ae3a2d414030e7b83b60b4d&#45;&gt;dir_85bf31a2e8d306e7598ffcb73f8df6bf</title>
<path fill="none" stroke="black" d="M78.1322,-290.956C81.0718,-289.808 84.0628,-288.788 87,-288 272.65,-238.164 327.869,-280.278 518,-252 531.687,-249.964 546.554,-246.974 559.661,-244.066"/>
<polygon fill="black" stroke="black" points="560.764,-247.405 569.738,-241.772 559.21,-240.579 560.764,-247.405"/>
<g id="a_edge31&#45;headlabel"><a xlink:href="dir_000285_000221.html" target="_top" xlink:title="15">
<text text-anchor="middle" x="557.89" y="-248.471" font-family="Helvetica,sans-Serif" font-size="10.00">15</text>
</a>
</g>
</g>
<!-- dir_d1915fc52ae3a2d414030e7b83b60b4d&#45;&gt;dir_2171f7ec022c5423887b07c69b2f5b48 -->
<g id="edge32" class="edge"><title>dir_d1915fc52ae3a2d414030e7b83b60b4d&#45;&gt;dir_2171f7ec022c5423887b07c69b2f5b48</title>
<path fill="none" stroke="black" d="M78.187,-291.148C81.1159,-289.962 84.0894,-288.882 87,-288 191.49,-256.348 231.146,-298.346 330,-252 348.122,-243.504 439.358,-158.105 484.552,-115.255"/>
<polygon fill="black" stroke="black" points="487.069,-117.693 491.911,-108.269 482.249,-112.616 487.069,-117.693"/>
<g id="a_edge32&#45;headlabel"><a xlink:href="dir_000285_000054.html" target="_top" xlink:title="28">
<text text-anchor="middle" x="486.417" y="-119.727" font-family="Helvetica,sans-Serif" font-size="10.00">28</text>
</a>
</g>
</g>
<!-- dir_5125ceb2b58f632ed0a3019fe2d5cbbc -->
<g id="node4" class="node"><title>dir_5125ceb2b58f632ed0a3019fe2d5cbbc</title>
<g id="a_node4"><a xlink:href="dir_5125ceb2b58f632ed0a3019fe2d5cbbc.html" target="_top" xlink:title="reconstruction">
<polygon fill="white" stroke="red" points="254,-324 176,-324 176,-288 254,-288 254,-324"/>
<text text-anchor="middle" x="215" y="-303.5" font-family="Helvetica,sans-Serif" font-size="10.00">reconstruction</text>
</a>
</g>
</g>
<!-- dir_5125ceb2b58f632ed0a3019fe2d5cbbc&#45;&gt;dir_eedff867f3c4e67d20b227cb6e0f96ab -->
<g id="edge19" class="edge"><title>dir_5125ceb2b58f632ed0a3019fe2d5cbbc&#45;&gt;dir_eedff867f3c4e67d20b227cb6e0f96ab</title>
<path fill="none" stroke="black" d="M234.528,-287.697C244.382,-278.965 256.486,-268.24 267.196,-258.75"/>
<polygon fill="black" stroke="black" points="269.533,-261.356 274.697,-252.104 264.891,-256.117 269.533,-261.356"/>
<g id="a_edge19&#45;headlabel"><a xlink:href="dir_000288_000269.html" target="_top" xlink:title="4">
<text text-anchor="middle" x="268.726" y="-263.365" font-family="Helvetica,sans-Serif" font-size="10.00">4</text>
</a>
</g>
</g>
<!-- dir_5125ceb2b58f632ed0a3019fe2d5cbbc&#45;&gt;dir_4ab6b4cc6a7edbff49100e9123df213f -->
<g id="edge20" class="edge"><title>dir_5125ceb2b58f632ed0a3019fe2d5cbbc&#45;&gt;dir_4ab6b4cc6a7edbff49100e9123df213f</title>
<path fill="none" stroke="black" d="M254.065,-290.291C257.064,-289.431 260.066,-288.652 263,-288 343.643,-270.078 577.486,-313.178 633,-252 648.531,-234.885 646.809,-218.532 633,-200 613.333,-173.608 575.564,-165.306 546.854,-163.032"/>
<polygon fill="black" stroke="black" points="546.922,-159.53 536.736,-162.444 546.517,-166.518 546.922,-159.53"/>
<g id="a_edge20&#45;headlabel"><a xlink:href="dir_000288_000016.html" target="_top" xlink:title="11">
<text text-anchor="middle" x="550.675" y="-154.404" font-family="Helvetica,sans-Serif" font-size="10.00">11</text>
</a>
</g>
</g>
<!-- dir_5125ceb2b58f632ed0a3019fe2d5cbbc&#45;&gt;dir_37c90836491b695b472bf98d1be8336b -->
<g id="edge21" class="edge"><title>dir_5125ceb2b58f632ed0a3019fe2d5cbbc&#45;&gt;dir_37c90836491b695b472bf98d1be8336b</title>
<path fill="none" stroke="black" d="M220.504,-287.994C234.468,-246.908 274.646,-140.584 337,-72 347.067,-60.9275 359.707,-50.5531 371.466,-41.9696"/>
<polygon fill="black" stroke="black" points="373.685,-44.687 379.824,-36.0517 369.64,-38.9742 373.685,-44.687"/>
<g id="a_edge21&#45;headlabel"><a xlink:href="dir_000288_000157.html" target="_top" xlink:title="1">
<text text-anchor="middle" x="372.392" y="-46.5814" font-family="Helvetica,sans-Serif" font-size="10.00">1</text>
</a>
</g>
</g>
<!-- dir_5125ceb2b58f632ed0a3019fe2d5cbbc&#45;&gt;dir_85bf31a2e8d306e7598ffcb73f8df6bf -->
<g id="edge22" class="edge"><title>dir_5125ceb2b58f632ed0a3019fe2d5cbbc&#45;&gt;dir_85bf31a2e8d306e7598ffcb73f8df6bf</title>
<path fill="none" stroke="black" d="M254.084,-290.375C257.079,-289.495 260.074,-288.689 263,-288 390.707,-257.921 429.129,-285.432 556,-252 557.257,-251.669 558.527,-251.307 559.802,-250.921"/>
<polygon fill="black" stroke="black" points="561.245,-254.126 569.563,-247.564 558.968,-247.507 561.245,-254.126"/>
<g id="a_edge22&#45;headlabel"><a xlink:href="dir_000288_000221.html" target="_top" xlink:title="9">
<text text-anchor="middle" x="558.769" y="-255.48" font-family="Helvetica,sans-Serif" font-size="10.00">9</text>
</a>
</g>
</g>
<!-- dir_5125ceb2b58f632ed0a3019fe2d5cbbc&#45;&gt;dir_2171f7ec022c5423887b07c69b2f5b48 -->
<g id="edge23" class="edge"><title>dir_5125ceb2b58f632ed0a3019fe2d5cbbc&#45;&gt;dir_2171f7ec022c5423887b07c69b2f5b48</title>
<path fill="none" stroke="black" d="M254.062,-290.276C257.062,-289.419 260.064,-288.645 263,-288 347.79,-269.366 587.629,-310.249 652,-252 687.889,-219.524 694.188,-183.347 666,-144 641.514,-109.821 593.716,-97.4186 557.45,-93.0537"/>
<polygon fill="black" stroke="black" points="557.387,-89.5287 547.08,-91.9828 556.668,-96.4916 557.387,-89.5287"/>
<g id="a_edge23&#45;headlabel"><a xlink:href="dir_000288_000054.html" target="_top" xlink:title="21">
<text text-anchor="middle" x="561.254" y="-84.5736" font-family="Helvetica,sans-Serif" font-size="10.00">21</text>
</a>
</g>
</g>
<!-- dir_e6f6998399f381fa585023934f76a907 -->
<g id="node5" class="node"><title>dir_e6f6998399f381fa585023934f76a907</title>
<g id="a_node5"><a xlink:href="dir_e6f6998399f381fa585023934f76a907.html" target="_top" xlink:title="simulation">
<polygon fill="white" stroke="red" points="157.25,-324 96.75,-324 96.75,-288 157.25,-288 157.25,-324"/>
<text text-anchor="middle" x="127" y="-303.5" font-family="Helvetica,sans-Serif" font-size="10.00">simulation</text>
</a>
</g>
</g>
<!-- dir_e6f6998399f381fa585023934f76a907&#45;&gt;dir_eedff867f3c4e67d20b227cb6e0f96ab -->
<g id="edge14" class="edge"><title>dir_e6f6998399f381fa585023934f76a907&#45;&gt;dir_eedff867f3c4e67d20b227cb6e0f96ab</title>
<path fill="none" stroke="black" d="M157.566,-291.985C160.751,-290.637 163.94,-289.289 167,-288 197.458,-275.173 232.081,-260.733 257.475,-250.169"/>
<polygon fill="black" stroke="black" points="258.838,-253.393 266.727,-246.321 256.15,-246.929 258.838,-253.393"/>
<g id="a_edge14&#45;headlabel"><a xlink:href="dir_000171_000269.html" target="_top" xlink:title="4">
<text text-anchor="middle" x="256.609" y="-254.894" font-family="Helvetica,sans-Serif" font-size="10.00">4</text>
</a>
</g>
</g>
<!-- dir_e6f6998399f381fa585023934f76a907&#45;&gt;dir_4ab6b4cc6a7edbff49100e9123df213f -->
<g id="edge15" class="edge"><title>dir_e6f6998399f381fa585023934f76a907&#45;&gt;dir_4ab6b4cc6a7edbff49100e9123df213f</title>
<path fill="none" stroke="black" d="M157.689,-290.879C160.792,-289.779 163.931,-288.79 167,-288 242.932,-268.446 465.461,-310.203 518,-252 533.045,-235.333 528.226,-209.106 521.181,-189.433"/>
<polygon fill="black" stroke="black" points="524.427,-188.121 517.505,-180.1 517.914,-190.687 524.427,-188.121"/>
<g id="a_edge15&#45;headlabel"><a xlink:href="dir_000171_000016.html" target="_top" xlink:title="1">
<text text-anchor="middle" x="528.386" y="-187.925" font-family="Helvetica,sans-Serif" font-size="10.00">1</text>
</a>
</g>
</g>
<!-- dir_e6f6998399f381fa585023934f76a907&#45;&gt;dir_37c90836491b695b472bf98d1be8336b -->
<g id="edge16" class="edge"><title>dir_e6f6998399f381fa585023934f76a907&#45;&gt;dir_37c90836491b695b472bf98d1be8336b</title>
<path fill="none" stroke="black" d="M136.652,-287.747C160.637,-246.115 226.766,-138.669 306,-72 325.228,-55.8209 350.212,-42.6584 370.52,-33.4975"/>
<polygon fill="black" stroke="black" points="372.016,-36.6636 379.776,-29.4501 369.211,-30.2501 372.016,-36.6636"/>
<g id="a_edge16&#45;headlabel"><a xlink:href="dir_000171_000157.html" target="_top" xlink:title="2">
<text text-anchor="middle" x="369.86" y="-38.2052" font-family="Helvetica,sans-Serif" font-size="10.00">2</text>
</a>
</g>
</g>
<!-- dir_e6f6998399f381fa585023934f76a907&#45;&gt;dir_85bf31a2e8d306e7598ffcb73f8df6bf -->
<g id="edge17" class="edge"><title>dir_e6f6998399f381fa585023934f76a907&#45;&gt;dir_85bf31a2e8d306e7598ffcb73f8df6bf</title>
<path fill="none" stroke="black" d="M157.681,-290.847C160.786,-289.753 163.927,-288.775 167,-288 335.355,-245.536 387.46,-293.722 556,-252 557.262,-251.688 558.536,-251.342 559.815,-250.97"/>
<polygon fill="black" stroke="black" points="561.23,-254.187 569.593,-247.683 558.999,-247.552 561.23,-254.187"/>
<g id="a_edge17&#45;headlabel"><a xlink:href="dir_000171_000221.html" target="_top" xlink:title="8">
<text text-anchor="middle" x="558.728" y="-255.524" font-family="Helvetica,sans-Serif" font-size="10.00">8</text>
</a>
</g>
</g>
<!-- dir_e6f6998399f381fa585023934f76a907&#45;&gt;dir_2171f7ec022c5423887b07c69b2f5b48 -->
<g id="edge18" class="edge"><title>dir_e6f6998399f381fa585023934f76a907&#45;&gt;dir_2171f7ec022c5423887b07c69b2f5b48</title>
<path fill="none" stroke="black" d="M157.669,-290.799C160.776,-289.714 163.921,-288.752 167,-288 217.45,-275.682 597.721,-290.109 633,-252 675.717,-205.856 598.796,-145.648 548.495,-113.52"/>
<polygon fill="black" stroke="black" points="550.087,-110.387 539.754,-108.046 546.371,-116.32 550.087,-110.387"/>
<g id="a_edge18&#45;headlabel"><a xlink:href="dir_000171_000054.html" target="_top" xlink:title="5">
<text text-anchor="middle" x="554.64" y="-107.389" font-family="Helvetica,sans-Serif" font-size="10.00">5</text>
</a>
</g>
</g>
<!-- dir_beaad5fa58c175f2fa05fab7e2ac7ba4 -->
<g id="node6" class="node"><title>dir_beaad5fa58c175f2fa05fab7e2ac7ba4</title>
<g id="a_node6"><a xlink:href="dir_beaad5fa58c175f2fa05fab7e2ac7ba4.html" target="_top" xlink:title="tracking">
<polygon fill="white" stroke="red" points="326,-324 272,-324 272,-288 326,-288 326,-324"/>
<text text-anchor="middle" x="299" y="-303.5" font-family="Helvetica,sans-Serif" font-size="10.00">tracking</text>
</a>
</g>
</g>
<!-- dir_beaad5fa58c175f2fa05fab7e2ac7ba4&#45;&gt;dir_eedff867f3c4e67d20b227cb6e0f96ab -->
<g id="edge24" class="edge"><title>dir_beaad5fa58c175f2fa05fab7e2ac7ba4&#45;&gt;dir_eedff867f3c4e67d20b227cb6e0f96ab</title>
<path fill="none" stroke="black" d="M297.764,-287.697C297.213,-279.983 296.551,-270.712 295.937,-262.112"/>
<polygon fill="black" stroke="black" points="299.425,-261.83 295.222,-252.104 292.443,-262.328 299.425,-261.83"/>
<g id="a_edge24&#45;headlabel"><a xlink:href="dir_000031_000269.html" target="_top" xlink:title="1">
<text text-anchor="middle" x="302.513" y="-262.713" font-family="Helvetica,sans-Serif" font-size="10.00">1</text>
</a>
</g>
</g>
<!-- dir_beaad5fa58c175f2fa05fab7e2ac7ba4&#45;&gt;dir_4ab6b4cc6a7edbff49100e9123df213f -->
<g id="edge25" class="edge"><title>dir_beaad5fa58c175f2fa05fab7e2ac7ba4&#45;&gt;dir_4ab6b4cc6a7edbff49100e9123df213f</title>
<path fill="none" stroke="black" d="M326.144,-290.998C329.081,-289.842 332.068,-288.809 335,-288 414.422,-266.086 648.643,-313.021 704,-252 719.528,-234.883 718.74,-217.8 704,-200 684.416,-176.35 597.59,-167.697 546.639,-164.622"/>
<polygon fill="black" stroke="black" points="546.833,-161.127 536.653,-164.062 546.442,-168.116 546.833,-161.127"/>
<g id="a_edge25&#45;headlabel"><a xlink:href="dir_000031_000016.html" target="_top" xlink:title="3">
<text text-anchor="middle" x="550.581" y="-155.993" font-family="Helvetica,sans-Serif" font-size="10.00">3</text>
</a>
</g>
</g>
<!-- dir_beaad5fa58c175f2fa05fab7e2ac7ba4&#45;&gt;dir_2171f7ec022c5423887b07c69b2f5b48 -->
<g id="edge26" class="edge"><title>dir_beaad5fa58c175f2fa05fab7e2ac7ba4&#45;&gt;dir_2171f7ec022c5423887b07c69b2f5b48</title>
<path fill="none" stroke="black" d="M326.14,-290.984C329.078,-289.83 332.066,-288.802 335,-288 418.528,-265.166 656.919,-307.96 723,-252 760.193,-220.504 772.383,-182.107 742,-144 719.356,-115.6 618.375,-101.21 557.347,-94.9823"/>
<polygon fill="black" stroke="black" points="557.474,-91.478 547.179,-93.9823 556.789,-98.4444 557.474,-91.478"/>
<g id="a_edge26&#45;headlabel"><a xlink:href="dir_000031_000054.html" target="_top" xlink:title="10">
<text text-anchor="middle" x="561.329" y="-86.5041" font-family="Helvetica,sans-Serif" font-size="10.00">10</text>
</a>
</g>
</g>
<!-- dir_4ab6b4cc6a7edbff49100e9123df213f&#45;&gt;dir_2171f7ec022c5423887b07c69b2f5b48 -->
<g id="edge5" class="edge"><title>dir_4ab6b4cc6a7edbff49100e9123df213f&#45;&gt;dir_2171f7ec022c5423887b07c69b2f5b48</title>
<path fill="none" stroke="black" d="M503.331,-143.697C502.646,-135.983 502.552,-126.712 503.017,-118.112"/>
<polygon fill="black" stroke="black" points="506.509,-118.363 503.861,-108.104 499.533,-117.775 506.509,-118.363"/>
<g id="a_edge5&#45;headlabel"><a xlink:href="dir_000016_000054.html" target="_top" xlink:title="3">
<text text-anchor="middle" x="509.036" y="-119.683" font-family="Helvetica,sans-Serif" font-size="10.00">3</text>
</a>
</g>
</g>
<!-- dir_a597e8e061b11201a1dff411feb10d0b&#45;&gt;dir_4ab6b4cc6a7edbff49100e9123df213f -->
<g id="edge6" class="edge"><title>dir_a597e8e061b11201a1dff411feb10d0b&#45;&gt;dir_4ab6b4cc6a7edbff49100e9123df213f</title>
<path fill="none" stroke="black" d="M463.831,-215.697C471.025,-207.305 479.797,-197.07 487.69,-187.861"/>
<polygon fill="black" stroke="black" points="490.489,-189.975 494.339,-180.104 485.174,-185.419 490.489,-189.975"/>
<g id="a_edge6&#45;headlabel"><a xlink:href="dir_000190_000016.html" target="_top" xlink:title="8">
<text text-anchor="middle" x="490.305" y="-192.052" font-family="Helvetica,sans-Serif" font-size="10.00">8</text>
</a>
</g>
</g>
<!-- dir_a597e8e061b11201a1dff411feb10d0b&#45;&gt;dir_37c90836491b695b472bf98d1be8336b -->
<g id="edge7" class="edge"><title>dir_a597e8e061b11201a1dff411feb10d0b&#45;&gt;dir_37c90836491b695b472bf98d1be8336b</title>
<path fill="none" stroke="black" d="M445.634,-215.849C438.353,-178.753 421.094,-90.8101 412.319,-46.1027"/>
<polygon fill="black" stroke="black" points="415.743,-45.3712 410.382,-36.2325 408.874,-46.7193 415.743,-45.3712"/>
<g id="a_edge7&#45;headlabel"><a xlink:href="dir_000190_000157.html" target="_top" xlink:title="1">
<text text-anchor="middle" x="419.221" y="-45.8517" font-family="Helvetica,sans-Serif" font-size="10.00">1</text>
</a>
</g>
</g>
<!-- dir_a597e8e061b11201a1dff411feb10d0b&#45;&gt;dir_2171f7ec022c5423887b07c69b2f5b48 -->
<g id="edge8" class="edge"><title>dir_a597e8e061b11201a1dff411feb10d0b&#45;&gt;dir_2171f7ec022c5423887b07c69b2f5b48</title>
<path fill="none" stroke="black" d="M451.48,-215.964C454.591,-197.566 460.912,-167.708 472,-144 476.533,-134.308 482.897,-124.55 489.123,-116.094"/>
<polygon fill="black" stroke="black" points="491.926,-118.191 495.23,-108.124 486.37,-113.933 491.926,-118.191"/>
<g id="a_edge8&#45;headlabel"><a xlink:href="dir_000190_000054.html" target="_top" xlink:title="122">
<text text-anchor="middle" x="491.994" y="-120.271" font-family="Helvetica,sans-Serif" font-size="10.00">122</text>
</a>
</g>
</g>
<!-- dir_37c90836491b695b472bf98d1be8336b&#45;&gt;dir_4ab6b4cc6a7edbff49100e9123df213f -->
<g id="edge9" class="edge"><title>dir_37c90836491b695b472bf98d1be8336b&#45;&gt;dir_4ab6b4cc6a7edbff49100e9123df213f</title>
<path fill="none" stroke="black" d="M417.061,-36.1824C427.97,-54.4471 446.216,-83.9535 464,-108 471.034,-117.511 479.277,-127.507 486.773,-136.223"/>
<polygon fill="black" stroke="black" points="484.182,-138.577 493.39,-143.817 489.459,-133.978 484.182,-138.577"/>
<g id="a_edge9&#45;headlabel"><a xlink:href="dir_000157_000016.html" target="_top" xlink:title="7">
<text text-anchor="middle" x="479.68" y="-135.232" font-family="Helvetica,sans-Serif" font-size="10.00">7</text>
</a>
</g>
</g>
<!-- dir_37c90836491b695b472bf98d1be8336b&#45;&gt;dir_2171f7ec022c5423887b07c69b2f5b48 -->
<g id="edge10" class="edge"><title>dir_37c90836491b695b472bf98d1be8336b&#45;&gt;dir_2171f7ec022c5423887b07c69b2f5b48</title>
<path fill="none" stroke="black" d="M434.309,-33.7383C449.109,-43.0024 467.251,-55.1551 482.125,-65.7045"/>
<polygon fill="black" stroke="black" points="480.293,-68.6983 490.455,-71.6966 484.381,-63.0158 480.293,-68.6983"/>
<g id="a_edge10&#45;headlabel"><a xlink:href="dir_000157_000054.html" target="_top" xlink:title="5">
<text text-anchor="middle" x="475.717" y="-66.4042" font-family="Helvetica,sans-Serif" font-size="10.00">5</text>
</a>
</g>
</g>
<!-- dir_85bf31a2e8d306e7598ffcb73f8df6bf&#45;&gt;dir_4ab6b4cc6a7edbff49100e9123df213f -->
<g id="edge11" class="edge"><title>dir_85bf31a2e8d306e7598ffcb73f8df6bf&#45;&gt;dir_4ab6b4cc6a7edbff49100e9123df213f</title>
<path fill="none" stroke="black" d="M575.755,-215.829C569.412,-210.721 562.434,-205.122 556,-200 550.541,-195.655 544.71,-191.042 539.079,-186.601"/>
<polygon fill="black" stroke="black" points="541.059,-183.705 531.037,-180.269 536.728,-189.205 541.059,-183.705"/>
<g id="a_edge11&#45;headlabel"><a xlink:href="dir_000221_000016.html" target="_top" xlink:title="4">
<text text-anchor="middle" x="545.639" y="-181.198" font-family="Helvetica,sans-Serif" font-size="10.00">4</text>
</a>
</g>
</g>
<!-- dir_85bf31a2e8d306e7598ffcb73f8df6bf&#45;&gt;dir_37c90836491b695b472bf98d1be8336b -->
<g id="edge12" class="edge"><title>dir_85bf31a2e8d306e7598ffcb73f8df6bf&#45;&gt;dir_37c90836491b695b472bf98d1be8336b</title>
<path fill="none" stroke="black" d="M597.589,-215.517C597.717,-183.025 593.309,-112.926 556,-72 527.084,-40.281 477.921,-27.5371 444.022,-22.4218"/>
<polygon fill="black" stroke="black" points="444.411,-18.9425 434.031,-21.0666 443.47,-25.879 444.411,-18.9425"/>
<g id="a_edge12&#45;headlabel"><a xlink:href="dir_000221_000157.html" target="_top" xlink:title="2">
<text text-anchor="middle" x="448.354" y="-14.112" font-family="Helvetica,sans-Serif" font-size="10.00">2</text>
</a>
</g>
</g>
<!-- dir_85bf31a2e8d306e7598ffcb73f8df6bf&#45;&gt;dir_2171f7ec022c5423887b07c69b2f5b48 -->
<g id="edge13" class="edge"><title>dir_85bf31a2e8d306e7598ffcb73f8df6bf&#45;&gt;dir_2171f7ec022c5423887b07c69b2f5b48</title>
<path fill="none" stroke="black" d="M587.307,-215.772C577.064,-197.721 560.306,-168.621 545,-144 539.383,-134.965 533.028,-125.211 527.29,-116.565"/>
<polygon fill="black" stroke="black" points="530.055,-114.403 521.59,-108.032 524.234,-118.291 530.055,-114.403"/>
<g id="a_edge13&#45;headlabel"><a xlink:href="dir_000221_000054.html" target="_top" xlink:title="21">
<text text-anchor="middle" x="534.412" y="-113.315" font-family="Helvetica,sans-Serif" font-size="10.00">21</text>
</a>
</g>
</g>
<!-- dir_2171f7ec022c5423887b07c69b2f5b48&#45;&gt;dir_4ab6b4cc6a7edbff49100e9123df213f -->
<g id="edge33" class="edge"><title>dir_2171f7ec022c5423887b07c69b2f5b48&#45;&gt;dir_4ab6b4cc6a7edbff49100e9123df213f</title>
<path fill="none" stroke="black" d="M515.651,-108.104C516.346,-115.791 516.45,-125.054 515.995,-133.665"/>
<polygon fill="black" stroke="black" points="512.501,-133.442 515.163,-143.697 519.477,-134.02 512.501,-133.442"/>
<g id="a_edge33&#45;headlabel"><a xlink:href="dir_000054_000016.html" target="_top" xlink:title="20">
<text text-anchor="middle" x="509.968" y="-127.125" font-family="Helvetica,sans-Serif" font-size="10.00">20</text>
</a>
</g>
</g>
<!-- dir_2171f7ec022c5423887b07c69b2f5b48&#45;&gt;dir_37c90836491b695b472bf98d1be8336b -->
<g id="edge34" class="edge"><title>dir_2171f7ec022c5423887b07c69b2f5b48&#45;&gt;dir_37c90836491b695b472bf98d1be8336b</title>
<path fill="none" stroke="black" d="M478.906,-71.8761C464.749,-62.8931 448.208,-51.7625 434.507,-42.0341"/>
<polygon fill="black" stroke="black" points="436.55,-39.1925 426.39,-36.1898 432.46,-44.8732 436.55,-39.1925"/>
<g id="a_edge34&#45;headlabel"><a xlink:href="dir_000054_000157.html" target="_top" xlink:title="1">
<text text-anchor="middle" x="441.126" y="-36.4887" font-family="Helvetica,sans-Serif" font-size="10.00">1</text>
</a>
</g>
</g>
</g>
</svg>
