<?xml version="1.0" encoding="UTF-8" standalone="no"?>
<!DOCTYPE svg PUBLIC "-//W3C//DTD SVG 1.1//EN"
 "http://www.w3.org/Graphics/SVG/1.1/DTD/svg11.dtd">
<!-- Generated by graphviz version 2.36.0 (20140111.2315)
 -->
<!-- Title: /home/travis/build/AliceO2Group/AliceO2/Detectors/HMPID/simulation/src Pages: 1 -->
<svg width="151pt" height="295pt"
 viewBox="0.00 0.00 151.35 295.00" xmlns="http://www.w3.org/2000/svg" xmlns:xlink="http://www.w3.org/1999/xlink">
<g id="graph0" class="graph" transform="scale(1 1) rotate(0) translate(4 291)">
<title>/home/travis/build/AliceO2Group/AliceO2/Detectors/HMPID/simulation/src</title>
<g id="clust1" class="cluster"><title>clusterdir_500f0d71cadd529ffa10e3c2241cfe90</title>
<g id="a_clust1"><a xlink:href="dir_500f0d71cadd529ffa10e3c2241cfe90.html" target="_top" xlink:title="simulation">
<polygon fill="#ddddee" stroke="black" points="53,-208 53,-279 123,-279 123,-208 53,-208"/>
<text text-anchor="middle" x="88" y="-267" font-family="Helvetica,sans-Serif" font-size="10.00">simulation</text>
</a>
</g>
</g>
<!-- dir_7dc08bbd5ba5ea4e51ff8bc5a113392a -->
<g id="node1" class="node"><title>dir_7dc08bbd5ba5ea4e51ff8bc5a113392a</title>
<g id="a_node1"><a xlink:href="dir_7dc08bbd5ba5ea4e51ff8bc5a113392a.html" target="_top" xlink:title="src">
<polygon fill="#eeeeff" stroke="black" points="115,-252 61,-252 61,-216 115,-216 115,-252"/>
<text text-anchor="middle" x="88" y="-231.5" font-family="Helvetica,sans-Serif" font-size="10.00">src</text>
</a>
</g>
</g>
<!-- dir_94519519beeff5880967868b09df99b1 -->
<g id="node2" class="node"><title>dir_94519519beeff5880967868b09df99b1</title>
<g id="a_node2"><a xlink:href="dir_94519519beeff5880967868b09df99b1.html" target="_top" xlink:title="include">
<polygon fill="none" stroke="red" points="88,-180 34,-180 34,-144 88,-144 88,-180"/>
<text text-anchor="middle" x="61" y="-159.5" font-family="Helvetica,sans-Serif" font-size="10.00">include</text>
</a>
</g>
</g>
<!-- dir_7dc08bbd5ba5ea4e51ff8bc5a113392a&#45;&gt;dir_94519519beeff5880967868b09df99b1 -->
<g id="edge4" class="edge"><title>dir_7dc08bbd5ba5ea4e51ff8bc5a113392a&#45;&gt;dir_94519519beeff5880967868b09df99b1</title>
<path fill="none" stroke="black" d="M81.3258,-215.697C78.2851,-207.813 74.6173,-198.304 71.2393,-189.546"/>
<polygon fill="black" stroke="black" points="74.4617,-188.175 67.5974,-180.104 67.9307,-190.694 74.4617,-188.175"/>
<g id="a_edge4&#45;headlabel"><a xlink:href="dir_000205_000169.html" target="_top" xlink:title="2">
<text text-anchor="middle" x="78.4043" y="-188.007" font-family="Helvetica,sans-Serif" font-size="10.00">2</text>
</a>
</g>
</g>
<!-- dir_37c90836491b695b472bf98d1be8336b -->
<g id="node3" class="node"><title>dir_37c90836491b695b472bf98d1be8336b</title>
<g id="a_node3"><a xlink:href="dir_37c90836491b695b472bf98d1be8336b.html" target="_top" xlink:title="Base">
<polygon fill="none" stroke="red" points="54,-108 0,-108 0,-72 54,-72 54,-108"/>
<text text-anchor="middle" x="27" y="-87.5" font-family="Helvetica,sans-Serif" font-size="10.00">Base</text>
</a>
</g>
</g>
<!-- dir_7dc08bbd5ba5ea4e51ff8bc5a113392a&#45;&gt;dir_37c90836491b695b472bf98d1be8336b -->
<g id="edge5" class="edge"><title>dir_7dc08bbd5ba5ea4e51ff8bc5a113392a&#45;&gt;dir_37c90836491b695b472bf98d1be8336b</title>
<path fill="none" stroke="black" d="M60.9901,-218.074C47.4948,-209.005 32.4801,-196.068 25,-180 16.0577,-160.791 17.2666,-136.632 20.3188,-118.333"/>
<polygon fill="black" stroke="black" points="23.793,-118.803 22.266,-108.318 16.9217,-117.467 23.793,-118.803"/>
<g id="a_edge5&#45;headlabel"><a xlink:href="dir_000205_000157.html" target="_top" xlink:title="1">
<text text-anchor="middle" x="25.8941" y="-120.373" font-family="Helvetica,sans-Serif" font-size="10.00">1</text>
</a>
</g>
</g>
<!-- dir_939a9b59c9e8f57b8b7a2a3b29b6e0eb -->
<g id="node4" class="node"><title>dir_939a9b59c9e8f57b8b7a2a3b29b6e0eb</title>
<g id="a_node4"><a xlink:href="dir_939a9b59c9e8f57b8b7a2a3b29b6e0eb.html" target="_top" xlink:title="base">
<polygon fill="none" stroke="red" points="126,-108 72,-108 72,-72 126,-72 126,-108"/>
<text text-anchor="middle" x="99" y="-87.5" font-family="Helvetica,sans-Serif" font-size="10.00">base</text>
</a>
</g>
</g>
<!-- dir_7dc08bbd5ba5ea4e51ff8bc5a113392a&#45;&gt;dir_939a9b59c9e8f57b8b7a2a3b29b6e0eb -->
<g id="edge6" class="edge"><title>dir_7dc08bbd5ba5ea4e51ff8bc5a113392a&#45;&gt;dir_939a9b59c9e8f57b8b7a2a3b29b6e0eb</title>
<path fill="none" stroke="black" d="M91.5552,-215.899C93.5422,-205.557 95.845,-192.078 97,-180 98.9738,-159.36 99.4281,-135.911 99.4134,-118.265"/>
<polygon fill="black" stroke="black" points="102.913,-118.084 99.3531,-108.105 95.9126,-118.126 102.913,-118.084"/>
<g id="a_edge6&#45;headlabel"><a xlink:href="dir_000205_000218.html" target="_top" xlink:title="2">
<text text-anchor="middle" x="105.773" y="-119.162" font-family="Helvetica,sans-Serif" font-size="10.00">2</text>
</a>
</g>
</g>
<!-- dir_2171f7ec022c5423887b07c69b2f5b48 -->
<g id="node5" class="node"><title>dir_2171f7ec022c5423887b07c69b2f5b48</title>
<g id="a_node5"><a xlink:href="dir_2171f7ec022c5423887b07c69b2f5b48.html" target="_top" xlink:title="DataFormats">
<polygon fill="none" stroke="red" points="100,-36 26,-36 26,-0 100,-0 100,-36"/>
<text text-anchor="middle" x="63" y="-15.5" font-family="Helvetica,sans-Serif" font-size="10.00">DataFormats</text>
</a>
</g>
</g>
<!-- dir_7dc08bbd5ba5ea4e51ff8bc5a113392a&#45;&gt;dir_2171f7ec022c5423887b07c69b2f5b48 -->
<g id="edge7" class="edge"><title>dir_7dc08bbd5ba5ea4e51ff8bc5a113392a&#45;&gt;dir_2171f7ec022c5423887b07c69b2f5b48</title>
<path fill="none" stroke="black" d="M101.076,-215.781C122.38,-185.462 159.832,-121.113 135,-72 128.861,-59.8582 118.485,-49.8174 107.492,-41.8624"/>
<polygon fill="black" stroke="black" points="109.281,-38.848 99.0266,-36.1854 105.383,-44.6618 109.281,-38.848"/>
<g id="a_edge7&#45;headlabel"><a xlink:href="dir_000205_000054.html" target="_top" xlink:title="2">
<text text-anchor="middle" x="113.848" y="-35.9917" font-family="Helvetica,sans-Serif" font-size="10.00">2</text>
</a>
</g>
</g>
<!-- dir_94519519beeff5880967868b09df99b1&#45;&gt;dir_37c90836491b695b472bf98d1be8336b -->
<g id="edge1" class="edge"><title>dir_94519519beeff5880967868b09df99b1&#45;&gt;dir_37c90836491b695b472bf98d1be8336b</title>
<path fill="none" stroke="black" d="M52.5955,-143.697C48.7252,-135.728 44.0483,-126.1 39.7569,-117.264"/>
<polygon fill="black" stroke="black" points="42.8252,-115.57 35.3078,-108.104 36.5286,-118.629 42.8252,-115.57"/>
<g id="a_edge1&#45;headlabel"><a xlink:href="dir_000169_000157.html" target="_top" xlink:title="1">
<text text-anchor="middle" x="46.9496" y="-115.063" font-family="Helvetica,sans-Serif" font-size="10.00">1</text>
</a>
</g>
</g>
<!-- dir_94519519beeff5880967868b09df99b1&#45;&gt;dir_939a9b59c9e8f57b8b7a2a3b29b6e0eb -->
<g id="edge2" class="edge"><title>dir_94519519beeff5880967868b09df99b1&#45;&gt;dir_939a9b59c9e8f57b8b7a2a3b29b6e0eb</title>
<path fill="none" stroke="black" d="M70.3933,-143.697C74.7649,-135.644 80.0573,-125.894 84.8953,-116.982"/>
<polygon fill="black" stroke="black" points="88.0198,-118.563 89.7148,-108.104 81.8678,-115.223 88.0198,-118.563"/>
<g id="a_edge2&#45;headlabel"><a xlink:href="dir_000169_000218.html" target="_top" xlink:title="2">
<text text-anchor="middle" x="88.8002" y="-120.576" font-family="Helvetica,sans-Serif" font-size="10.00">2</text>
</a>
</g>
</g>
<!-- dir_37c90836491b695b472bf98d1be8336b&#45;&gt;dir_2171f7ec022c5423887b07c69b2f5b48 -->
<g id="edge3" class="edge"><title>dir_37c90836491b695b472bf98d1be8336b&#45;&gt;dir_2171f7ec022c5423887b07c69b2f5b48</title>
<path fill="none" stroke="black" d="M29.9832,-71.6966C33.294,-63.6436 38.0975,-53.8945 43.0908,-44.9824"/>
<polygon fill="black" stroke="black" points="46.2591,-46.4991 48.3085,-36.1043 40.2242,-42.9523 46.2591,-46.4991"/>
<g id="a_edge3&#45;headlabel"><a xlink:href="dir_000157_000054.html" target="_top" xlink:title="5">
<text text-anchor="middle" x="46.8857" y="-48.5367" font-family="Helvetica,sans-Serif" font-size="10.00">5</text>
</a>
</g>
</g>
<!-- dir_939a9b59c9e8f57b8b7a2a3b29b6e0eb&#45;&gt;dir_2171f7ec022c5423887b07c69b2f5b48 -->
<g id="edge8" class="edge"><title>dir_939a9b59c9e8f57b8b7a2a3b29b6e0eb&#45;&gt;dir_2171f7ec022c5423887b07c69b2f5b48</title>
<path fill="none" stroke="black" d="M90.1011,-71.6966C86.0032,-63.7284 81.0512,-54.0995 76.5073,-45.2641"/>
<polygon fill="black" stroke="black" points="79.4826,-43.3965 71.7965,-36.1043 73.2575,-46.598 79.4826,-43.3965"/>
<g id="a_edge8&#45;headlabel"><a xlink:href="dir_000218_000054.html" target="_top" xlink:title="2">
<text text-anchor="middle" x="83.6514" y="-42.7946" font-family="Helvetica,sans-Serif" font-size="10.00">2</text>
</a>
</g>
</g>
<!-- dir_2171f7ec022c5423887b07c69b2f5b48&#45;&gt;dir_37c90836491b695b472bf98d1be8336b -->
<g id="edge9" class="edge"><title>dir_2171f7ec022c5423887b07c69b2f5b48&#45;&gt;dir_37c90836491b695b472bf98d1be8336b</title>
<path fill="none" stroke="black" d="M60.0985,-36.1043C56.8124,-44.1291 52.0229,-53.871 47.0328,-62.7967"/>
<polygon fill="black" stroke="black" points="43.8533,-61.2998 41.8146,-71.6966 49.8919,-64.8403 43.8533,-61.2998"/>
<g id="a_edge9&#45;headlabel"><a xlink:href="dir_000054_000157.html" target="_top" xlink:title="1">
<text text-anchor="middle" x="43.222" y="-54.2628" font-family="Helvetica,sans-Serif" font-size="10.00">1</text>
</a>
</g>
</g>
</g>
</svg>
