<?xml version="1.0" encoding="UTF-8" standalone="no"?>
<!DOCTYPE svg PUBLIC "-//W3C//DTD SVG 1.1//EN"
 "http://www.w3.org/Graphics/SVG/1.1/DTD/svg11.dtd">
<!-- Generated by graphviz version 2.36.0 (20140111.2315)
 -->
<!-- Title: o2::ITS::Vertexer Pages: 1 -->
<svg width="1593pt" height="612pt"
 viewBox="0.00 0.00 1593.00 612.00" xmlns="http://www.w3.org/2000/svg" xmlns:xlink="http://www.w3.org/1999/xlink">
<g id="graph0" class="graph" transform="scale(1 1) rotate(0) translate(4 608)">
<title>o2::ITS::Vertexer</title>
<!-- Node1 -->
<g id="node1" class="node"><title>Node1</title>
<polygon fill="#bfbfbf" stroke="black" points="784.5,-1 784.5,-201 879.5,-201 879.5,-1 784.5,-1"/>
<text text-anchor="middle" x="832" y="-189" font-family="Helvetica,sans-Serif" font-size="10.00">o2::ITS::Vertexer</text>
<polyline fill="none" stroke="black" points="784.5,-182 879.5,-182 "/>
<text text-anchor="middle" x="832" y="-170" font-family="Helvetica,sans-Serif" font-size="10.00"> </text>
<polyline fill="none" stroke="black" points="784.5,-163 879.5,-163 "/>
<text text-anchor="start" x="792.5" y="-151" font-family="Helvetica,sans-Serif" font-size="10.00">+ Vertexer()</text>
<text text-anchor="start" x="792.5" y="-140" font-family="Helvetica,sans-Serif" font-size="10.00">+ ~Vertexer()</text>
<text text-anchor="start" x="792.5" y="-129" font-family="Helvetica,sans-Serif" font-size="10.00">+ Vertexer()</text>
<text text-anchor="start" x="792.5" y="-118" font-family="Helvetica,sans-Serif" font-size="10.00">+ operator=()</text>
<text text-anchor="start" x="792.5" y="-107" font-family="Helvetica,sans-Serif" font-size="10.00">+ initialise()</text>
<text text-anchor="start" x="792.5" y="-96" font-family="Helvetica,sans-Serif" font-size="10.00">+ initialise()</text>
<text text-anchor="start" x="792.5" y="-85" font-family="Helvetica,sans-Serif" font-size="10.00">+ findTracklets()</text>
<text text-anchor="start" x="792.5" y="-74" font-family="Helvetica,sans-Serif" font-size="10.00">+ findVertices()</text>
<text text-anchor="start" x="792.5" y="-63" font-family="Helvetica,sans-Serif" font-size="10.00">+ setROFrame()</text>
<text text-anchor="start" x="792.5" y="-52" font-family="Helvetica,sans-Serif" font-size="10.00">+ getROFrame()</text>
<text text-anchor="start" x="792.5" y="-41" font-family="Helvetica,sans-Serif" font-size="10.00">+ getTracklets()</text>
<text text-anchor="start" x="792.5" y="-30" font-family="Helvetica,sans-Serif" font-size="10.00">+ getClusters()</text>
<text text-anchor="start" x="792.5" y="-19" font-family="Helvetica,sans-Serif" font-size="10.00">+ getVertices()</text>
<text text-anchor="start" x="792.5" y="-8" font-family="Helvetica,sans-Serif" font-size="10.00">+ selectClusters()</text>
</g>
<!-- Node2 -->
<g id="node2" class="node"><title>Node2</title>
<polygon fill="none" stroke="#bfbfbf" points="-0.5,-431 -0.5,-499 120.5,-499 120.5,-431 -0.5,-431"/>
<text text-anchor="start" x="7.5" y="-487" font-family="Helvetica,sans-Serif" font-size="10.00">vector&lt; o2::dataformats</text>
<text text-anchor="middle" x="60" y="-476" font-family="Helvetica,sans-Serif" font-size="10.00">::Vertex &gt;</text>
<polyline fill="none" stroke="#bfbfbf" points="-0.5,-469 120.5,-469 "/>
<text text-anchor="middle" x="60" y="-457" font-family="Helvetica,sans-Serif" font-size="10.00"> </text>
<polyline fill="none" stroke="#bfbfbf" points="-0.5,-450 120.5,-450 "/>
<text text-anchor="middle" x="60" y="-438" font-family="Helvetica,sans-Serif" font-size="10.00"> </text>
</g>
<!-- Node2&#45;&gt;Node1 -->
<g id="edge1" class="edge"><title>Node2&#45;&gt;Node1</title>
<path fill="none" stroke="#404040" d="M68.1917,-430.592C83.3616,-376.468 121.312,-270.582 196,-220 290.096,-156.275 632.932,-119.557 772.39,-106.973"/>
<polygon fill="none" stroke="#404040" points="772.497,-106.964 778.118,-102.447 784.449,-105.899 778.828,-110.416 772.497,-106.964"/>
<text text-anchor="middle" x="222.5" y="-261.5" font-family="Helvetica,sans-Serif" font-size="10.00"> #mVertices</text>
</g>
<!-- Node3 -->
<g id="node3" class="node"><title>Node3</title>
<polygon fill="none" stroke="#bfbfbf" points="138.5,-420 138.5,-510 297.5,-510 297.5,-420 138.5,-420"/>
<text text-anchor="start" x="146.5" y="-498" font-family="Helvetica,sans-Serif" font-size="10.00">array&lt; std::vector</text>
<text text-anchor="start" x="146.5" y="-487" font-family="Helvetica,sans-Serif" font-size="10.00">&lt; o2::ITS::Cluster &gt;</text>
<text text-anchor="start" x="146.5" y="-476" font-family="Helvetica,sans-Serif" font-size="10.00">, Constants::ITS::LayersNumber</text>
<text text-anchor="middle" x="218" y="-465" font-family="Helvetica,sans-Serif" font-size="10.00">Vertexer &gt;</text>
<polyline fill="none" stroke="#bfbfbf" points="138.5,-458 297.5,-458 "/>
<text text-anchor="middle" x="218" y="-446" font-family="Helvetica,sans-Serif" font-size="10.00"> </text>
<polyline fill="none" stroke="#bfbfbf" points="138.5,-439 297.5,-439 "/>
<text text-anchor="middle" x="218" y="-427" font-family="Helvetica,sans-Serif" font-size="10.00"> </text>
</g>
<!-- Node3&#45;&gt;Node1 -->
<g id="edge2" class="edge"><title>Node3&#45;&gt;Node1</title>
<path fill="none" stroke="#404040" d="M222.504,-419.887C230.556,-364.745 252.602,-271.377 312,-220 380.876,-160.426 651.016,-122.726 772.385,-108.464"/>
<polygon fill="none" stroke="#404040" points="772.429,-108.459 777.929,-103.795 784.35,-107.078 778.85,-111.742 772.429,-108.459"/>
<text text-anchor="middle" x="339.5" y="-261.5" font-family="Helvetica,sans-Serif" font-size="10.00"> +mClusters</text>
</g>
<!-- Node4 -->
<g id="node4" class="node"><title>Node4</title>
<polygon fill="none" stroke="#bfbfbf" points="315.5,-436.5 315.5,-493.5 366.5,-493.5 366.5,-436.5 315.5,-436.5"/>
<text text-anchor="middle" x="341" y="-481.5" font-family="Helvetica,sans-Serif" font-size="10.00">uint32_t</text>
<polyline fill="none" stroke="#bfbfbf" points="315.5,-474.5 366.5,-474.5 "/>
<text text-anchor="middle" x="341" y="-462.5" font-family="Helvetica,sans-Serif" font-size="10.00"> </text>
<polyline fill="none" stroke="#bfbfbf" points="315.5,-455.5 366.5,-455.5 "/>
<text text-anchor="middle" x="341" y="-443.5" font-family="Helvetica,sans-Serif" font-size="10.00"> </text>
</g>
<!-- Node4&#45;&gt;Node1 -->
<g id="edge3" class="edge"><title>Node4&#45;&gt;Node1</title>
<path fill="none" stroke="#404040" d="M342.309,-436.269C346.324,-384.967 362.648,-275.435 429,-220 529.383,-136.133 687.021,-111.862 772.344,-104.846"/>
<polygon fill="none" stroke="#404040" points="772.427,-104.84 778.107,-100.397 784.392,-103.931 778.712,-108.374 772.427,-104.84"/>
<text text-anchor="middle" x="459" y="-261.5" font-family="Helvetica,sans-Serif" font-size="10.00"> #mROFrame</text>
</g>
<!-- Node5 -->
<g id="node5" class="node"><title>Node5</title>
<polygon fill="none" stroke="#bfbfbf" points="385,-414.5 385,-515.5 539,-515.5 539,-414.5 385,-414.5"/>
<text text-anchor="start" x="393" y="-503.5" font-family="Helvetica,sans-Serif" font-size="10.00">array&lt; std::array&lt;</text>
<text text-anchor="start" x="393" y="-492.5" font-family="Helvetica,sans-Serif" font-size="10.00"> int, Constants::IndexTable</text>
<text text-anchor="start" x="393" y="-481.5" font-family="Helvetica,sans-Serif" font-size="10.00">::ZBins *Constants::IndexTable</text>
<text text-anchor="start" x="393" y="-470.5" font-family="Helvetica,sans-Serif" font-size="10.00">::PhiBins+1 &gt;, Constants::ITS</text>
<text text-anchor="middle" x="462" y="-459.5" font-family="Helvetica,sans-Serif" font-size="10.00">::LayersNumberVertexer &gt;</text>
<polyline fill="none" stroke="#bfbfbf" points="385,-452.5 539,-452.5 "/>
<text text-anchor="middle" x="462" y="-440.5" font-family="Helvetica,sans-Serif" font-size="10.00"> </text>
<polyline fill="none" stroke="#bfbfbf" points="385,-433.5 539,-433.5 "/>
<text text-anchor="middle" x="462" y="-421.5" font-family="Helvetica,sans-Serif" font-size="10.00"> </text>
</g>
<!-- Node5&#45;&gt;Node1 -->
<g id="edge4" class="edge"><title>Node5&#45;&gt;Node1</title>
<path fill="none" stroke="#404040" d="M465.819,-414.307C472.493,-360.123 490.805,-273.952 541,-220 602.661,-153.724 706.76,-123.78 772.303,-110.92"/>
<polygon fill="none" stroke="#404040" points="772.678,-110.85 777.84,-105.814 784.473,-108.641 779.312,-113.677 772.678,-110.85"/>
<text text-anchor="middle" x="576" y="-261.5" font-family="Helvetica,sans-Serif" font-size="10.00"> #mIndexTables</text>
</g>
<!-- Node6 -->
<g id="node6" class="node"><title>Node6</title>
<polygon fill="none" stroke="#bfbfbf" points="557.5,-431 557.5,-499 674.5,-499 674.5,-431 557.5,-431"/>
<text text-anchor="start" x="565.5" y="-487" font-family="Helvetica,sans-Serif" font-size="10.00">array&lt; float, Constants</text>
<text text-anchor="middle" x="616" y="-476" font-family="Helvetica,sans-Serif" font-size="10.00">::ITS::LayersNumber &gt;</text>
<polyline fill="none" stroke="#bfbfbf" points="557.5,-469 674.5,-469 "/>
<text text-anchor="middle" x="616" y="-457" font-family="Helvetica,sans-Serif" font-size="10.00"> </text>
<polyline fill="none" stroke="#bfbfbf" points="557.5,-450 674.5,-450 "/>
<text text-anchor="middle" x="616" y="-438" font-family="Helvetica,sans-Serif" font-size="10.00"> </text>
</g>
<!-- Node6&#45;&gt;Node1 -->
<g id="edge5" class="edge"><title>Node6&#45;&gt;Node1</title>
<path fill="none" stroke="#404040" d="M611.624,-430.668C606.822,-380.755 604.596,-285.471 646,-220 675.458,-173.418 730.698,-141.886 773.355,-123.223"/>
<polygon fill="none" stroke="#404040" points="773.41,-123.2 777.378,-117.179 784.462,-118.526 780.494,-124.547 773.41,-123.2"/>
<text text-anchor="middle" x="673.5" y="-261.5" font-family="Helvetica,sans-Serif" font-size="10.00"> #mITSRadii</text>
</g>
<!-- Node7 -->
<g id="node7" class="node"><title>Node7</title>
<g id="a_node7"><a xlink:href="../../d4/dc3/classfloat.html" target="_top" xlink:title="{float\n||}">
<polygon fill="none" stroke="black" points="692.5,-436.5 692.5,-493.5 727.5,-493.5 727.5,-436.5 692.5,-436.5"/>
<text text-anchor="middle" x="710" y="-481.5" font-family="Helvetica,sans-Serif" font-size="10.00">float</text>
<polyline fill="none" stroke="black" points="692.5,-474.5 727.5,-474.5 "/>
<text text-anchor="middle" x="710" y="-462.5" font-family="Helvetica,sans-Serif" font-size="10.00"> </text>
<polyline fill="none" stroke="black" points="692.5,-455.5 727.5,-455.5 "/>
<text text-anchor="middle" x="710" y="-443.5" font-family="Helvetica,sans-Serif" font-size="10.00"> </text>
</a>
</g>
</g>
<!-- Node7&#45;&gt;Node1 -->
<g id="edge6" class="edge"><title>Node7&#45;&gt;Node1</title>
<path fill="none" stroke="#404040" d="M705.962,-436.316C700.376,-389.617 694.169,-293.132 725,-220 736.23,-193.363 756.129,-168.805 775.745,-149.069"/>
<polygon fill="none" stroke="#404040" points="775.81,-149.006 777.317,-141.955 784.406,-140.634 782.899,-147.685 775.81,-149.006"/>
<text text-anchor="middle" x="776.5" y="-300" font-family="Helvetica,sans-Serif" font-size="10.00"> #mZBinSize</text>
<text text-anchor="middle" x="776.5" y="-289" font-family="Helvetica,sans-Serif" font-size="10.00">#mPairCut</text>
<text text-anchor="middle" x="776.5" y="-278" font-family="Helvetica,sans-Serif" font-size="10.00">#mMaxDirectorCosine3</text>
<text text-anchor="middle" x="776.5" y="-267" font-family="Helvetica,sans-Serif" font-size="10.00">#mPhiCut</text>
<text text-anchor="middle" x="776.5" y="-256" font-family="Helvetica,sans-Serif" font-size="10.00">#mDeltaRadii21</text>
<text text-anchor="middle" x="776.5" y="-245" font-family="Helvetica,sans-Serif" font-size="10.00">#mDeltaRadii10</text>
<text text-anchor="middle" x="776.5" y="-234" font-family="Helvetica,sans-Serif" font-size="10.00">#mClusterCut</text>
<text text-anchor="middle" x="776.5" y="-223" font-family="Helvetica,sans-Serif" font-size="10.00">#mZCut</text>
</g>
<!-- Node8 -->
<g id="node8" class="node"><title>Node8</title>
<g id="a_node8"><a xlink:href="../../d7/d13/classo2_1_1ITS_1_1ROframe.html" target="_top" xlink:title="{o2::ITS::ROframe\n||+ ROframe()\l+ getROFrameId()\l+ getPrimaryVertex()\l+ getPrimaryVerticesNum()\l+ addPrimaryVertex()\l+ addPrimaryReconstructedVertex()\l+ printPrimaryVertices()\l+ getTotalClusters()\l+ getClusters()\l+ getClustersOnLayer()\l+ getTrackingFrameInfoOnLayer()\l+ getClusterTrackingFrameInfo()\l+ getClusterLabels()\l+ getClusterLabels()\l+ getClusterExternalIndex()\l+ addClusterToLayer()\l+ addTrackingFrameInfoToLayer()\l+ addClusterLabelToLayer()\l+ addClusterExternalIndexTo\lLayer()\l+ clear()\l}">
<polygon fill="none" stroke="black" points="745.5,-326.5 745.5,-603.5 918.5,-603.5 918.5,-326.5 745.5,-326.5"/>
<text text-anchor="middle" x="832" y="-591.5" font-family="Helvetica,sans-Serif" font-size="10.00">o2::ITS::ROframe</text>
<polyline fill="none" stroke="black" points="745.5,-584.5 918.5,-584.5 "/>
<text text-anchor="middle" x="832" y="-572.5" font-family="Helvetica,sans-Serif" font-size="10.00"> </text>
<polyline fill="none" stroke="black" points="745.5,-565.5 918.5,-565.5 "/>
<text text-anchor="start" x="753.5" y="-553.5" font-family="Helvetica,sans-Serif" font-size="10.00">+ ROframe()</text>
<text text-anchor="start" x="753.5" y="-542.5" font-family="Helvetica,sans-Serif" font-size="10.00">+ getROFrameId()</text>
<text text-anchor="start" x="753.5" y="-531.5" font-family="Helvetica,sans-Serif" font-size="10.00">+ getPrimaryVertex()</text>
<text text-anchor="start" x="753.5" y="-520.5" font-family="Helvetica,sans-Serif" font-size="10.00">+ getPrimaryVerticesNum()</text>
<text text-anchor="start" x="753.5" y="-509.5" font-family="Helvetica,sans-Serif" font-size="10.00">+ addPrimaryVertex()</text>
<text text-anchor="start" x="753.5" y="-498.5" font-family="Helvetica,sans-Serif" font-size="10.00">+ addPrimaryReconstructedVertex()</text>
<text text-anchor="start" x="753.5" y="-487.5" font-family="Helvetica,sans-Serif" font-size="10.00">+ printPrimaryVertices()</text>
<text text-anchor="start" x="753.5" y="-476.5" font-family="Helvetica,sans-Serif" font-size="10.00">+ getTotalClusters()</text>
<text text-anchor="start" x="753.5" y="-465.5" font-family="Helvetica,sans-Serif" font-size="10.00">+ getClusters()</text>
<text text-anchor="start" x="753.5" y="-454.5" font-family="Helvetica,sans-Serif" font-size="10.00">+ getClustersOnLayer()</text>
<text text-anchor="start" x="753.5" y="-443.5" font-family="Helvetica,sans-Serif" font-size="10.00">+ getTrackingFrameInfoOnLayer()</text>
<text text-anchor="start" x="753.5" y="-432.5" font-family="Helvetica,sans-Serif" font-size="10.00">+ getClusterTrackingFrameInfo()</text>
<text text-anchor="start" x="753.5" y="-421.5" font-family="Helvetica,sans-Serif" font-size="10.00">+ getClusterLabels()</text>
<text text-anchor="start" x="753.5" y="-410.5" font-family="Helvetica,sans-Serif" font-size="10.00">+ getClusterLabels()</text>
<text text-anchor="start" x="753.5" y="-399.5" font-family="Helvetica,sans-Serif" font-size="10.00">+ getClusterExternalIndex()</text>
<text text-anchor="start" x="753.5" y="-388.5" font-family="Helvetica,sans-Serif" font-size="10.00">+ addClusterToLayer()</text>
<text text-anchor="start" x="753.5" y="-377.5" font-family="Helvetica,sans-Serif" font-size="10.00">+ addTrackingFrameInfoToLayer()</text>
<text text-anchor="start" x="753.5" y="-366.5" font-family="Helvetica,sans-Serif" font-size="10.00">+ addClusterLabelToLayer()</text>
<text text-anchor="start" x="753.5" y="-355.5" font-family="Helvetica,sans-Serif" font-size="10.00">+ addClusterExternalIndexTo</text>
<text text-anchor="start" x="753.5" y="-344.5" font-family="Helvetica,sans-Serif" font-size="10.00">Layer()</text>
<text text-anchor="start" x="753.5" y="-333.5" font-family="Helvetica,sans-Serif" font-size="10.00">+ clear()</text>
</a>
</g>
</g>
<!-- Node8&#45;&gt;Node1 -->
<g id="edge7" class="edge"><title>Node8&#45;&gt;Node1</title>
<path fill="none" stroke="#404040" d="M832,-326.369C832,-289.084 832,-249.19 832,-213.535"/>
<polygon fill="none" stroke="#404040" points="832,-213.111 828,-207.111 832,-201.111 836,-207.111 832,-213.111"/>
<text text-anchor="middle" x="853.5" y="-261.5" font-family="Helvetica,sans-Serif" font-size="10.00"> #mEvent</text>
</g>
<!-- Node9 -->
<g id="node9" class="node"><title>Node9</title>
<polygon fill="none" stroke="#bfbfbf" points="936.5,-436.5 936.5,-493.5 965.5,-493.5 965.5,-436.5 936.5,-436.5"/>
<text text-anchor="middle" x="951" y="-481.5" font-family="Helvetica,sans-Serif" font-size="10.00">int</text>
<polyline fill="none" stroke="#bfbfbf" points="936.5,-474.5 965.5,-474.5 "/>
<text text-anchor="middle" x="951" y="-462.5" font-family="Helvetica,sans-Serif" font-size="10.00"> </text>
<polyline fill="none" stroke="#bfbfbf" points="936.5,-455.5 965.5,-455.5 "/>
<text text-anchor="middle" x="951" y="-443.5" font-family="Helvetica,sans-Serif" font-size="10.00"> </text>
</g>
<!-- Node9&#45;&gt;Node1 -->
<g id="edge8" class="edge"><title>Node9&#45;&gt;Node1</title>
<path fill="none" stroke="#404040" d="M952.47,-436.489C952.72,-406.809 949.117,-359.333 927,-326 918.821,-313.673 907.687,-319.975 899,-308 875.264,-275.277 888.189,-258.544 876,-220 875.24,-217.598 874.46,-215.173 873.662,-212.732"/>
<polygon fill="none" stroke="#404040" points="873.618,-212.6 867.923,-208.177 869.815,-201.218 875.51,-205.641 873.618,-212.6"/>
<text text-anchor="middle" x="948.5" y="-278" font-family="Helvetica,sans-Serif" font-size="10.00"> #mPhiSpan</text>
<text text-anchor="start" x="899" y="-267" font-family="Helvetica,sans-Serif" font-size="10.00">#mClusterContributors</text>
<text text-anchor="middle" x="948.5" y="-256" font-family="Helvetica,sans-Serif" font-size="10.00">Cut</text>
<text text-anchor="middle" x="948.5" y="-245" font-family="Helvetica,sans-Serif" font-size="10.00">#mZSpan</text>
</g>
<!-- Node10 -->
<g id="node10" class="node"><title>Node10</title>
<polygon fill="none" stroke="#bfbfbf" points="1002.5,-436.5 1002.5,-493.5 1037.5,-493.5 1037.5,-436.5 1002.5,-436.5"/>
<text text-anchor="middle" x="1020" y="-481.5" font-family="Helvetica,sans-Serif" font-size="10.00">bool</text>
<polyline fill="none" stroke="#bfbfbf" points="1002.5,-474.5 1037.5,-474.5 "/>
<text text-anchor="middle" x="1020" y="-462.5" font-family="Helvetica,sans-Serif" font-size="10.00"> </text>
<polyline fill="none" stroke="#bfbfbf" points="1002.5,-455.5 1037.5,-455.5 "/>
<text text-anchor="middle" x="1020" y="-443.5" font-family="Helvetica,sans-Serif" font-size="10.00"> </text>
</g>
<!-- Node10&#45;&gt;Node1 -->
<g id="edge9" class="edge"><title>Node10&#45;&gt;Node1</title>
<path fill="none" stroke="#404040" d="M1020.36,-436.457C1020.64,-380.603 1018.81,-256.236 998,-220 973.876,-178.001 928.042,-147.164 890.638,-127.567"/>
<polygon fill="none" stroke="#404040" points="890.54,-127.518 883.38,-128.373 879.836,-122.093 886.997,-121.237 890.54,-127.518"/>
<text text-anchor="middle" x="1063.5" y="-267" font-family="Helvetica,sans-Serif" font-size="10.00"> #mVertexerInitialised</text>
<text text-anchor="middle" x="1063.5" y="-256" font-family="Helvetica,sans-Serif" font-size="10.00">#mTrackletsFound</text>
</g>
<!-- Node11 -->
<g id="node11" class="node"><title>Node11</title>
<polygon fill="none" stroke="#bfbfbf" points="1095,-436.5 1095,-493.5 1181,-493.5 1181,-436.5 1095,-436.5"/>
<text text-anchor="middle" x="1138" y="-481.5" font-family="Helvetica,sans-Serif" font-size="10.00">array&lt; float, 3 &gt;</text>
<polyline fill="none" stroke="#bfbfbf" points="1095,-474.5 1181,-474.5 "/>
<text text-anchor="middle" x="1138" y="-462.5" font-family="Helvetica,sans-Serif" font-size="10.00"> </text>
<polyline fill="none" stroke="#bfbfbf" points="1095,-455.5 1181,-455.5 "/>
<text text-anchor="middle" x="1138" y="-443.5" font-family="Helvetica,sans-Serif" font-size="10.00"> </text>
</g>
<!-- Node11&#45;&gt;Node1 -->
<g id="edge10" class="edge"><title>Node11&#45;&gt;Node1</title>
<path fill="none" stroke="#404040" d="M1138.86,-436.47C1140.08,-380.046 1139.86,-253.744 1115,-220 1062.25,-148.382 957.786,-119.984 891.596,-108.897"/>
<polygon fill="none" stroke="#404040" points="891.557,-108.891 885.007,-111.907 879.703,-107.022 886.253,-104.005 891.557,-108.891"/>
<text text-anchor="middle" x="1192" y="-261.5" font-family="Helvetica,sans-Serif" font-size="10.00"> #mAverageClustersRadii</text>
</g>
<!-- Node12 -->
<g id="node12" class="node"><title>Node12</title>
<polygon fill="none" stroke="#bfbfbf" points="1225,-436.5 1225,-493.5 1305,-493.5 1305,-436.5 1225,-436.5"/>
<text text-anchor="middle" x="1265" y="-481.5" font-family="Helvetica,sans-Serif" font-size="10.00">vector&lt; bool &gt;</text>
<polyline fill="none" stroke="#bfbfbf" points="1225,-474.5 1305,-474.5 "/>
<text text-anchor="middle" x="1265" y="-462.5" font-family="Helvetica,sans-Serif" font-size="10.00"> </text>
<polyline fill="none" stroke="#bfbfbf" points="1225,-455.5 1305,-455.5 "/>
<text text-anchor="middle" x="1265" y="-443.5" font-family="Helvetica,sans-Serif" font-size="10.00"> </text>
</g>
<!-- Node12&#45;&gt;Node1 -->
<g id="edge11" class="edge"><title>Node12&#45;&gt;Node1</title>
<path fill="none" stroke="#404040" d="M1267.28,-436.285C1271.36,-379.51 1277.18,-252.582 1251,-220 1205.93,-163.895 996.001,-125.958 891.466,-110.211"/>
<polygon fill="none" stroke="#404040" points="891.431,-110.206 884.909,-113.282 879.561,-108.445 886.083,-105.368 891.431,-110.206"/>
<text text-anchor="middle" x="1310.5" y="-261.5" font-family="Helvetica,sans-Serif" font-size="10.00"> #mUsedTracklets</text>
</g>
<!-- Node13 -->
<g id="node13" class="node"><title>Node13</title>
<polygon fill="none" stroke="#bfbfbf" points="1323,-431 1323,-499 1445,-499 1445,-431 1323,-431"/>
<text text-anchor="start" x="1331" y="-487" font-family="Helvetica,sans-Serif" font-size="10.00">vector&lt; o2::ITS::Cluster</text>
<text text-anchor="middle" x="1384" y="-476" font-family="Helvetica,sans-Serif" font-size="10.00">Lines &gt;</text>
<polyline fill="none" stroke="#bfbfbf" points="1323,-469 1445,-469 "/>
<text text-anchor="middle" x="1384" y="-457" font-family="Helvetica,sans-Serif" font-size="10.00"> </text>
<polyline fill="none" stroke="#bfbfbf" points="1323,-450 1445,-450 "/>
<text text-anchor="middle" x="1384" y="-438" font-family="Helvetica,sans-Serif" font-size="10.00"> </text>
</g>
<!-- Node13&#45;&gt;Node1 -->
<g id="edge12" class="edge"><title>Node13&#45;&gt;Node1</title>
<path fill="none" stroke="#404040" d="M1390.88,-430.79C1399.54,-378.846 1407.55,-278.302 1355,-220 1293.47,-151.737 1015.68,-118.575 891.869,-106.979"/>
<polygon fill="none" stroke="#404040" points="891.622,-106.957 885.282,-110.392 879.673,-105.86 886.013,-102.425 891.622,-106.957"/>
<text text-anchor="middle" x="1437.5" y="-261.5" font-family="Helvetica,sans-Serif" font-size="10.00"> #mTrackletClusters</text>
</g>
<!-- Node14 -->
<g id="node14" class="node"><title>Node14</title>
<polygon fill="none" stroke="#bfbfbf" points="1463,-436.5 1463,-493.5 1581,-493.5 1581,-436.5 1463,-436.5"/>
<text text-anchor="middle" x="1522" y="-481.5" font-family="Helvetica,sans-Serif" font-size="10.00">vector&lt; o2::ITS::Line &gt;</text>
<polyline fill="none" stroke="#bfbfbf" points="1463,-474.5 1581,-474.5 "/>
<text text-anchor="middle" x="1522" y="-462.5" font-family="Helvetica,sans-Serif" font-size="10.00"> </text>
<polyline fill="none" stroke="#bfbfbf" points="1463,-455.5 1581,-455.5 "/>
<text text-anchor="middle" x="1522" y="-443.5" font-family="Helvetica,sans-Serif" font-size="10.00"> </text>
</g>
<!-- Node14&#45;&gt;Node1 -->
<g id="edge13" class="edge"><title>Node14&#45;&gt;Node1</title>
<path fill="none" stroke="#404040" d="M1527.22,-436.16C1534.93,-385.658 1542.9,-278.75 1486,-220 1404.11,-135.442 1037.25,-110.713 891.743,-104.159"/>
<polygon fill="none" stroke="#404040" points="891.585,-104.152 885.417,-107.888 879.596,-103.631 885.764,-99.8957 891.585,-104.152"/>
<text text-anchor="middle" x="1556" y="-261.5" font-family="Helvetica,sans-Serif" font-size="10.00"> #mTracklets</text>
</g>
</g>
</svg>
