<?xml version="1.0" encoding="UTF-8" standalone="no"?>
<!DOCTYPE svg PUBLIC "-//W3C//DTD SVG 1.1//EN"
 "http://www.w3.org/Graphics/SVG/1.1/DTD/svg11.dtd">
<!-- Generated by graphviz version 2.36.0 (20140111.2315)
 -->
<!-- Title: /home/travis/build/AliceO2Group/AliceO2/Detectors/ITSMFT/common/reconstruction/include/ITSMFTReconstruction/BuildTopologyDictionary.h Pages: 1 -->
<!--zoomable 616 -->
<svg id="main" version="1.1" xmlns="http://www.w3.org/2000/svg" xmlns:xlink="http://www.w3.org/1999/xlink" xml:space="preserve" onload="init(evt)">
<style type="text/css"><![CDATA[
.edge:hover path { stroke: red; }
.edge:hover polygon { stroke: red; fill: red; }
]]></style>
<script type="text/javascript"><![CDATA[
var edges = document.getElementsByTagName('g');
if (edges && edges.length) {
  for (var i=0;i<edges.length;i++) {
    if (edges[i].id.substr(0,4)=='edge') {
      edges[i].setAttribute('class','edge');
    }
  }
}
]]></script>
        <defs>
                <circle id="rim" cx="0" cy="0" r="7"/>
                <circle id="rim2" cx="0" cy="0" r="3.5"/>
                <g id="zoomPlus">
                        <use xlink:href="#rim" fill="#404040">
                                <set attributeName="fill" to="#808080" begin="zoomplus.mouseover" end="zoomplus.mouseout"/>
                        </use>
                        <path d="M-4,0h8M0,-4v8" fill="none" stroke="white" stroke-width="1.5" pointer-events="none"/>
                </g>
                <g id="zoomMin">
                        <use xlink:href="#rim" fill="#404040">
                                <set attributeName="fill" to="#808080" begin="zoomminus.mouseover" end="zoomminus.mouseout"/>
                        </use>
                        <path d="M-4,0h8" fill="none" stroke="white" stroke-width="1.5" pointer-events="none"/>
                </g>
                <g id="dirArrow">
                        <path fill="none" stroke="white" stroke-width="1.5" d="M0,-3.0v7 M-2.5,-0.5L0,-3.0L2.5,-0.5"/>
                </g>
               <g id="resetDef">
                       <use xlink:href="#rim2" fill="#404040">
                               <set attributeName="fill" to="#808080" begin="reset.mouseover" end="reset.mouseout"/>
                       </use>
               </g>
        </defs>

<script type="text/javascript">
var viewWidth = 1726;
var viewHeight = 616;
var sectionId = 'dynsection-0';
</script>
<script xlink:href="../../svgpan.js"/>
<svg id="graph" class="graph">
<g id="viewport">
<title>/home/travis/build/AliceO2Group/AliceO2/Detectors/ITSMFT/common/reconstruction/include/ITSMFTReconstruction/BuildTopologyDictionary.h</title>
<!-- Node1 -->
<g id="node1" class="node"><title>Node1</title>
<polygon fill="#bfbfbf" stroke="black" points="607.014,-533 607.014,-607 793.014,-607 793.014,-533 607.014,-533"/>
<text text-anchor="start" x="615.014" y="-595" font-family="Helvetica,sans-Serif" font-size="10.00">/home/travis/build</text>
<text text-anchor="start" x="615.014" y="-584" font-family="Helvetica,sans-Serif" font-size="10.00">/AliceO2Group/AliceO2</text>
<text text-anchor="start" x="615.014" y="-573" font-family="Helvetica,sans-Serif" font-size="10.00">/Detectors/ITSMFT/common</text>
<text text-anchor="start" x="615.014" y="-562" font-family="Helvetica,sans-Serif" font-size="10.00">/reconstruction/include</text>
<text text-anchor="start" x="615.014" y="-551" font-family="Helvetica,sans-Serif" font-size="10.00">/ITSMFTReconstruction/BuildTopology</text>
<text text-anchor="middle" x="700.014" y="-540" font-family="Helvetica,sans-Serif" font-size="10.00">Dictionary.h</text>
</g>
<!-- Node2 -->
<g id="node2" class="node"><title>Node2</title>
<polygon fill="none" stroke="#bfbfbf" points="512.014,-470.5 512.014,-489.5 568.014,-489.5 568.014,-470.5 512.014,-470.5"/>
<text text-anchor="middle" x="540.014" y="-477.5" font-family="Helvetica,sans-Serif" font-size="10.00">algorithm</text>
</g>
<!-- Node1&#45;&gt;Node2 -->
<g id="edge1" class="edge"><title>Node1&#45;&gt;Node2</title>
<path fill="none" stroke="midnightblue" d="M634.474,-532.953C609.781,-519.372 583.187,-504.745 564.528,-494.483"/>
<polygon fill="midnightblue" stroke="midnightblue" points="565.995,-491.295 555.546,-489.543 562.622,-497.429 565.995,-491.295"/>
</g>
<!-- Node3 -->
<g id="node3" class="node"><title>Node3</title>
<polygon fill="none" stroke="#bfbfbf" points="586.514,-470.5 586.514,-489.5 621.514,-489.5 621.514,-470.5 586.514,-470.5"/>
<text text-anchor="middle" x="604.014" y="-477.5" font-family="Helvetica,sans-Serif" font-size="10.00">map</text>
</g>
<!-- Node1&#45;&gt;Node3 -->
<g id="edge2" class="edge"><title>Node1&#45;&gt;Node3</title>
<path fill="none" stroke="midnightblue" d="M660.69,-532.953C646.826,-520.244 631.962,-506.62 620.937,-496.513"/>
<polygon fill="midnightblue" stroke="midnightblue" points="623.07,-493.72 613.333,-489.543 618.34,-498.88 623.07,-493.72"/>
</g>
<!-- Node4 -->
<g id="node4" class="node"><title>Node4</title>
<g id="a_node4"><a xlink:href="../../d3/dba/SegmentationAlpide_8h.html" target="_top" xlink:title="Definition of the SegmentationAlpide class. ">
<polygon fill="none" stroke="black" points="387.514,-340.5 387.514,-359.5 560.514,-359.5 560.514,-340.5 387.514,-340.5"/>
<text text-anchor="middle" x="474.014" y="-347.5" font-family="Helvetica,sans-Serif" font-size="10.00">ITSMFTBase/SegmentationAlpide.h</text>
</a>
</g>
</g>
<!-- Node1&#45;&gt;Node4 -->
<g id="edge3" class="edge"><title>Node1&#45;&gt;Node4</title>
<path fill="none" stroke="midnightblue" d="M680.183,-532.648C667.5,-511.283 649.758,-484.527 630.014,-464 589.291,-421.662 531.004,-384.222 498.43,-364.893"/>
<polygon fill="midnightblue" stroke="midnightblue" points="499.976,-361.742 489.578,-359.711 496.44,-367.783 499.976,-361.742"/>
</g>
<!-- Node6 -->
<g id="node6" class="node"><title>Node6</title>
<g id="a_node6"><a xlink:href="../../d8/ddb/ClusterTopology_8h.html" target="_top" xlink:title="Definition of the ClusterTopology class. ">
<polygon fill="none" stroke="black" points="678.014,-465 678.014,-495 822.014,-495 822.014,-465 678.014,-465"/>
<text text-anchor="start" x="686.014" y="-483" font-family="Helvetica,sans-Serif" font-size="10.00">DataFormatsITSMFT/Cluster</text>
<text text-anchor="middle" x="750.014" y="-472" font-family="Helvetica,sans-Serif" font-size="10.00">Topology.h</text>
</a>
</g>
</g>
<!-- Node1&#45;&gt;Node6 -->
<g id="edge5" class="edge"><title>Node1&#45;&gt;Node6</title>
<path fill="none" stroke="midnightblue" d="M720.495,-532.953C726.04,-523.193 731.893,-512.893 736.911,-504.061"/>
<polygon fill="midnightblue" stroke="midnightblue" points="740.078,-505.572 741.975,-495.148 733.992,-502.113 740.078,-505.572"/>
</g>
<!-- Node37 -->
<g id="node37" class="node"><title>Node37</title>
<g id="a_node37"><a xlink:href="../../d1/d08/TopologyDictionary_8h.html" target="_top" xlink:title="Definition of the ClusterTopology class. ">
<polygon fill="none" stroke="black" points="840.014,-465 840.014,-495 992.014,-495 992.014,-465 840.014,-465"/>
<text text-anchor="start" x="848.014" y="-483" font-family="Helvetica,sans-Serif" font-size="10.00">DataFormatsITSMFT/Topology</text>
<text text-anchor="middle" x="916.014" y="-472" font-family="Helvetica,sans-Serif" font-size="10.00">Dictionary.h</text>
</a>
</g>
</g>
<!-- Node1&#45;&gt;Node37 -->
<g id="edge46" class="edge"><title>Node1&#45;&gt;Node37</title>
<path fill="none" stroke="midnightblue" d="M788.492,-532.953C817.266,-521.23 847.953,-508.729 872.011,-498.927"/>
<polygon fill="midnightblue" stroke="midnightblue" points="873.615,-502.053 881.556,-495.039 870.974,-495.57 873.615,-502.053"/>
</g>
<!-- Node41 -->
<g id="node41" class="node"><title>Node41</title>
<polygon fill="none" stroke="#bfbfbf" points="1010.01,-470.5 1010.01,-489.5 1060.01,-489.5 1060.01,-470.5 1010.01,-470.5"/>
<text text-anchor="middle" x="1035.01" y="-477.5" font-family="Helvetica,sans-Serif" font-size="10.00">TH1F.h</text>
</g>
<!-- Node1&#45;&gt;Node41 -->
<g id="edge52" class="edge"><title>Node1&#45;&gt;Node41</title>
<path fill="none" stroke="midnightblue" d="M793.107,-550.891C853.204,-538.112 932.644,-519.168 1001.01,-496 1003.28,-495.231 1005.61,-494.37 1007.93,-493.459"/>
<polygon fill="midnightblue" stroke="midnightblue" points="1009.38,-496.643 1017.25,-489.547 1006.68,-490.188 1009.38,-496.643"/>
</g>
<!-- Node5 -->
<g id="node5" class="node"><title>Node5</title>
<polygon fill="none" stroke="#bfbfbf" points="438.014,-74.5 438.014,-93.5 494.014,-93.5 494.014,-74.5 438.014,-74.5"/>
<text text-anchor="middle" x="466.014" y="-81.5" font-family="Helvetica,sans-Serif" font-size="10.00">Rtypes.h</text>
</g>
<!-- Node4&#45;&gt;Node5 -->
<g id="edge4" class="edge"><title>Node4&#45;&gt;Node5</title>
<path fill="none" stroke="midnightblue" d="M480.492,-340.467C502.125,-310.859 568.502,-210.308 532.014,-136 524.055,-119.793 508.192,-107.275 494.013,-98.6971"/>
<polygon fill="midnightblue" stroke="midnightblue" points="495.467,-95.4986 485.038,-93.63 492.025,-101.594 495.467,-95.4986"/>
</g>
<!-- Node7 -->
<g id="node7" class="node"><title>Node7</title>
<g id="a_node7"><a xlink:href="../../de/dc1/ClusterPattern_8h.html" target="_top" xlink:title="DataFormatsITSMFT/Cluster\lPattern.h">
<polygon fill="none" stroke="black" points="678.014,-397 678.014,-427 822.014,-427 822.014,-397 678.014,-397"/>
<text text-anchor="start" x="686.014" y="-415" font-family="Helvetica,sans-Serif" font-size="10.00">DataFormatsITSMFT/Cluster</text>
<text text-anchor="middle" x="750.014" y="-404" font-family="Helvetica,sans-Serif" font-size="10.00">Pattern.h</text>
</a>
</g>
</g>
<!-- Node6&#45;&gt;Node7 -->
<g id="edge6" class="edge"><title>Node6&#45;&gt;Node7</title>
<path fill="none" stroke="midnightblue" d="M750.014,-464.679C750.014,-456.722 750.014,-446.605 750.014,-437.436"/>
<polygon fill="midnightblue" stroke="midnightblue" points="753.514,-437.293 750.014,-427.293 746.514,-437.293 753.514,-437.293"/>
</g>
<!-- Node7&#45;&gt;Node5 -->
<g id="edge7" class="edge"><title>Node7&#45;&gt;Node5</title>
<path fill="none" stroke="midnightblue" d="M779.358,-396.843C793.507,-388.312 809.095,-375.98 817.014,-360 849.592,-294.26 815.477,-255.29 763.014,-204 718.517,-160.498 560.738,-123.245 503.014,-100 500.924,-99.1585 498.769,-98.2889 496.598,-97.4119"/>
<polygon fill="midnightblue" stroke="midnightblue" points="497.721,-94.0908 487.139,-93.5838 495.095,-100.58 497.721,-94.0908"/>
</g>
<!-- Node8 -->
<g id="node8" class="node"><title>Node8</title>
<polygon fill="none" stroke="#bfbfbf" points="22.0138,-6.5 22.0138,-25.5 60.0138,-25.5 60.0138,-6.5 22.0138,-6.5"/>
<text text-anchor="middle" x="41.0138" y="-13.5" font-family="Helvetica,sans-Serif" font-size="10.00">array</text>
</g>
<!-- Node7&#45;&gt;Node8 -->
<g id="edge8" class="edge"><title>Node7&#45;&gt;Node8</title>
<path fill="none" stroke="midnightblue" d="M718.514,-396.87C682.824,-381.28 622.638,-356.251 569.014,-340 361.359,-277.072 277.681,-348.286 92.0138,-236 30.2016,-198.618 18.7725,-170.497 3.01378,-100 -0.0888425,-86.1203 -1.46247,-81.4994 3.01378,-68 7.36812,-54.8682 16.5631,-42.3737 24.8171,-33.0384"/>
<polygon fill="midnightblue" stroke="midnightblue" points="27.3993,-35.4015 31.6832,-25.7113 22.2915,-30.615 27.3993,-35.4015"/>
</g>
<!-- Node9 -->
<g id="node9" class="node"><title>Node9</title>
<polygon fill="none" stroke="#bfbfbf" points="1632.51,-74.5 1632.51,-93.5 1677.51,-93.5 1677.51,-74.5 1632.51,-74.5"/>
<text text-anchor="middle" x="1655.01" y="-81.5" font-family="Helvetica,sans-Serif" font-size="10.00">iosfwd</text>
</g>
<!-- Node7&#45;&gt;Node9 -->
<g id="edge9" class="edge"><title>Node7&#45;&gt;Node9</title>
<path fill="none" stroke="midnightblue" d="M793.54,-396.93C858.437,-374.617 973.014,-329.49 973.014,-289 973.014,-289 973.014,-289 973.014,-219 973.014,-72.1548 1483.15,-144.755 1623.01,-100 1625.15,-99.3163 1627.33,-98.5219 1629.5,-97.6624"/>
<polygon fill="midnightblue" stroke="midnightblue" points="1630.98,-100.835 1638.73,-93.6188 1628.17,-94.4228 1630.98,-100.835"/>
</g>
<!-- Node10 -->
<g id="node10" class="node"><title>Node10</title>
<g id="a_node10"><a xlink:href="../../d1/d62/DataFormats_2Detectors_2ITSMFT_2common_2include_2DataFormatsITSMFT_2Cluster_8h.html" target="_top" xlink:title="DataFormatsITSMFT/Cluster.h">
<polygon fill="none" stroke="black" points="656.014,-340.5 656.014,-359.5 808.014,-359.5 808.014,-340.5 656.014,-340.5"/>
<text text-anchor="middle" x="732.014" y="-347.5" font-family="Helvetica,sans-Serif" font-size="10.00">DataFormatsITSMFT/Cluster.h</text>
</a>
</g>
</g>
<!-- Node7&#45;&gt;Node10 -->
<g id="edge10" class="edge"><title>Node7&#45;&gt;Node10</title>
<path fill="none" stroke="midnightblue" d="M745.748,-396.781C743.294,-388.601 740.184,-378.234 737.544,-369.434"/>
<polygon fill="midnightblue" stroke="midnightblue" points="740.859,-368.303 734.633,-359.731 734.154,-370.315 740.859,-368.303"/>
</g>
<!-- Node11 -->
<g id="node11" class="node"><title>Node11</title>
<g id="a_node11"><a xlink:href="../../d4/de2/BaseCluster_8h.html" target="_top" xlink:title="ReconstructionDataFormats\l/BaseCluster.h">
<polygon fill="none" stroke="black" points="643.014,-273 643.014,-303 783.014,-303 783.014,-273 643.014,-273"/>
<text text-anchor="start" x="651.014" y="-291" font-family="Helvetica,sans-Serif" font-size="10.00">ReconstructionDataFormats</text>
<text text-anchor="middle" x="713.014" y="-280" font-family="Helvetica,sans-Serif" font-size="10.00">/BaseCluster.h</text>
</a>
</g>
</g>
<!-- Node10&#45;&gt;Node11 -->
<g id="edge11" class="edge"><title>Node10&#45;&gt;Node11</title>
<path fill="none" stroke="midnightblue" d="M729.292,-340.403C727.007,-333.189 723.631,-322.528 720.545,-312.782"/>
<polygon fill="midnightblue" stroke="midnightblue" points="723.847,-311.618 717.492,-303.141 717.174,-313.731 723.847,-311.618"/>
</g>
<!-- Node11&#45;&gt;Node9 -->
<g id="edge16" class="edge"><title>Node11&#45;&gt;Node9</title>
<path fill="none" stroke="midnightblue" d="M738.685,-272.927C777.525,-251.401 853.244,-208.521 915.014,-168 935.232,-154.737 936.23,-144.098 959.014,-136 1098.25,-86.5137 1479.7,-136.022 1623.01,-100 1625.51,-99.3718 1628.05,-98.546 1630.55,-97.6043"/>
<polygon fill="midnightblue" stroke="midnightblue" points="1632.06,-100.768 1639.83,-93.5713 1629.27,-94.3477 1632.06,-100.768"/>
</g>
<!-- Node12 -->
<g id="node12" class="node"><title>Node12</title>
<polygon fill="none" stroke="#bfbfbf" points="579.514,-210.5 579.514,-229.5 638.514,-229.5 638.514,-210.5 579.514,-210.5"/>
<text text-anchor="middle" x="609.014" y="-217.5" font-family="Helvetica,sans-Serif" font-size="10.00">TObject.h</text>
</g>
<!-- Node11&#45;&gt;Node12 -->
<g id="edge12" class="edge"><title>Node11&#45;&gt;Node12</title>
<path fill="none" stroke="midnightblue" d="M690.703,-272.841C673.118,-261.681 648.719,-246.198 631.173,-235.063"/>
<polygon fill="midnightblue" stroke="midnightblue" points="633.013,-232.085 622.694,-229.682 629.262,-237.995 633.013,-232.085"/>
</g>
<!-- Node13 -->
<g id="node13" class="node"><title>Node13</title>
<polygon fill="none" stroke="#bfbfbf" points="20.5138,-74.5 20.5138,-93.5 61.5138,-93.5 61.5138,-74.5 20.5138,-74.5"/>
<text text-anchor="middle" x="41.0138" y="-81.5" font-family="Helvetica,sans-Serif" font-size="10.00">bitset</text>
</g>
<!-- Node11&#45;&gt;Node13 -->
<g id="edge13" class="edge"><title>Node11&#45;&gt;Node13</title>
<path fill="none" stroke="midnightblue" d="M642.623,-277.181C547.157,-263.818 385.347,-240.993 358.014,-236 220.964,-210.965 146.154,-270.699 52.0138,-168 36.1595,-150.704 35.9251,-122.222 37.9161,-103.536"/>
<polygon fill="midnightblue" stroke="midnightblue" points="41.3889,-103.973 39.2839,-93.5891 34.4541,-103.019 41.3889,-103.973"/>
</g>
<!-- Node14 -->
<g id="node14" class="node"><title>Node14</title>
<polygon fill="none" stroke="#bfbfbf" points="657.014,-210.5 657.014,-229.5 707.014,-229.5 707.014,-210.5 657.014,-210.5"/>
<text text-anchor="middle" x="682.014" y="-217.5" font-family="Helvetica,sans-Serif" font-size="10.00">iomanip</text>
</g>
<!-- Node11&#45;&gt;Node14 -->
<g id="edge14" class="edge"><title>Node11&#45;&gt;Node14</title>
<path fill="none" stroke="midnightblue" d="M706.287,-272.679C701.645,-262.796 695.437,-249.579 690.462,-238.986"/>
<polygon fill="midnightblue" stroke="midnightblue" points="693.58,-237.392 686.16,-229.828 687.244,-240.368 693.58,-237.392"/>
</g>
<!-- Node15 -->
<g id="node15" class="node"><title>Node15</title>
<polygon fill="none" stroke="#bfbfbf" points="725.514,-210.5 725.514,-229.5 754.514,-229.5 754.514,-210.5 725.514,-210.5"/>
<text text-anchor="middle" x="740.014" y="-217.5" font-family="Helvetica,sans-Serif" font-size="10.00">ios</text>
</g>
<!-- Node11&#45;&gt;Node15 -->
<g id="edge15" class="edge"><title>Node11&#45;&gt;Node15</title>
<path fill="none" stroke="midnightblue" d="M718.872,-272.679C722.874,-262.898 728.211,-249.852 732.521,-239.315"/>
<polygon fill="midnightblue" stroke="midnightblue" points="735.855,-240.409 736.402,-229.828 729.376,-237.759 735.855,-240.409"/>
</g>
<!-- Node16 -->
<g id="node16" class="node"><title>Node16</title>
<g id="a_node16"><a xlink:href="../../d4/d20/DetMatrixCache_8h.html" target="_top" xlink:title="DetectorsCommonDataFormats\l/DetMatrixCache.h">
<polygon fill="none" stroke="black" points="367.014,-205 367.014,-235 523.014,-235 523.014,-205 367.014,-205"/>
<text text-anchor="start" x="375.014" y="-223" font-family="Helvetica,sans-Serif" font-size="10.00">DetectorsCommonDataFormats</text>
<text text-anchor="middle" x="445.014" y="-212" font-family="Helvetica,sans-Serif" font-size="10.00">/DetMatrixCache.h</text>
</a>
</g>
</g>
<!-- Node11&#45;&gt;Node16 -->
<g id="edge17" class="edge"><title>Node11&#45;&gt;Node16</title>
<path fill="none" stroke="midnightblue" d="M655.85,-272.922C613.689,-262.539 556.2,-248.382 511.902,-237.472"/>
<polygon fill="midnightblue" stroke="midnightblue" points="512.637,-234.049 502.09,-235.056 510.963,-240.846 512.637,-234.049"/>
</g>
<!-- Node27 -->
<g id="node27" class="node"><title>Node27</title>
<g id="a_node27"><a xlink:href="../../dd/d76/Cartesian3D_8h.html" target="_top" xlink:title="MathUtils/Cartesian3D.h">
<polygon fill="none" stroke="black" points="720.514,-142.5 720.514,-161.5 845.514,-161.5 845.514,-142.5 720.514,-142.5"/>
<text text-anchor="middle" x="783.014" y="-149.5" font-family="Helvetica,sans-Serif" font-size="10.00">MathUtils/Cartesian3D.h</text>
</a>
</g>
</g>
<!-- Node11&#45;&gt;Node27 -->
<g id="edge45" class="edge"><title>Node11&#45;&gt;Node27</title>
<path fill="none" stroke="midnightblue" d="M731.259,-272.772C742.036,-263.429 755.081,-250.317 763.014,-236 774.269,-215.687 779.239,-189.148 781.401,-171.613"/>
<polygon fill="midnightblue" stroke="midnightblue" points="784.895,-171.856 782.454,-161.546 777.933,-171.128 784.895,-171.856"/>
</g>
<!-- Node16&#45;&gt;Node8 -->
<g id="edge20" class="edge"><title>Node16&#45;&gt;Node8</title>
<path fill="none" stroke="midnightblue" d="M366.589,-216.784C267.086,-212.633 102.343,-200.876 52.0138,-168 11.7984,-141.731 -1.60699,-114.347 11.0138,-68 14.3681,-55.6818 21.5361,-43.304 28.0243,-33.8277"/>
<polygon fill="midnightblue" stroke="midnightblue" points="30.8595,-35.88 33.89,-25.7279 25.19,-31.7743 30.8595,-35.88"/>
</g>
<!-- Node17 -->
<g id="node17" class="node"><title>Node17</title>
<polygon fill="none" stroke="#bfbfbf" points="235.014,-142.5 235.014,-161.5 377.014,-161.5 377.014,-142.5 235.014,-142.5"/>
<text text-anchor="middle" x="306.014" y="-149.5" font-family="Helvetica,sans-Serif" font-size="10.00">AliTPCCommonFairLogger.h</text>
</g>
<!-- Node16&#45;&gt;Node17 -->
<g id="edge18" class="edge"><title>Node16&#45;&gt;Node17</title>
<path fill="none" stroke="midnightblue" d="M415.195,-204.841C390.936,-193.323 356.978,-177.199 333.4,-166.004"/>
<polygon fill="midnightblue" stroke="midnightblue" points="334.833,-162.809 324.298,-161.682 331.831,-169.133 334.833,-162.809"/>
</g>
<!-- Node18 -->
<g id="node18" class="node"><title>Node18</title>
<polygon fill="none" stroke="#bfbfbf" points="395.014,-142.5 395.014,-161.5 523.014,-161.5 523.014,-142.5 395.014,-142.5"/>
<text text-anchor="middle" x="459.014" y="-149.5" font-family="Helvetica,sans-Serif" font-size="10.00">AliTPCCommonRtypes.h</text>
</g>
<!-- Node16&#45;&gt;Node18 -->
<g id="edge19" class="edge"><title>Node16&#45;&gt;Node18</title>
<path fill="none" stroke="midnightblue" d="M448.052,-204.679C450.105,-194.999 452.836,-182.123 455.059,-171.645"/>
<polygon fill="midnightblue" stroke="midnightblue" points="458.49,-172.337 457.141,-161.828 451.642,-170.884 458.49,-172.337"/>
</g>
<!-- Node19 -->
<g id="node19" class="node"><title>Node19</title>
<polygon fill="none" stroke="#bfbfbf" points="863.014,-142.5 863.014,-161.5 907.014,-161.5 907.014,-142.5 863.014,-142.5"/>
<text text-anchor="middle" x="885.014" y="-149.5" font-family="Helvetica,sans-Serif" font-size="10.00">vector</text>
</g>
<!-- Node16&#45;&gt;Node19 -->
<g id="edge21" class="edge"><title>Node16&#45;&gt;Node19</title>
<path fill="none" stroke="midnightblue" d="M523.427,-209.548C639.976,-195.452 846.154,-170.323 854.014,-168 856.203,-167.353 858.429,-166.565 860.633,-165.693"/>
<polygon fill="midnightblue" stroke="midnightblue" points="862.27,-168.794 869.958,-161.504 859.402,-162.409 862.27,-168.794"/>
</g>
<!-- Node20 -->
<g id="node20" class="node"><title>Node20</title>
<g id="a_node20"><a xlink:href="../../d6/d31/DetID_8h.html" target="_top" xlink:title="DetectorsCommonDataFormats\l/DetID.h">
<polygon fill="none" stroke="black" points="61.0138,-137 61.0138,-167 217.014,-167 217.014,-137 61.0138,-137"/>
<text text-anchor="start" x="69.0138" y="-155" font-family="Helvetica,sans-Serif" font-size="10.00">DetectorsCommonDataFormats</text>
<text text-anchor="middle" x="139.014" y="-144" font-family="Helvetica,sans-Serif" font-size="10.00">/DetID.h</text>
</a>
</g>
</g>
<!-- Node16&#45;&gt;Node20 -->
<g id="edge22" class="edge"><title>Node16&#45;&gt;Node20</title>
<path fill="none" stroke="midnightblue" d="M379.744,-204.922C331.201,-194.452 264.861,-180.144 214.114,-169.198"/>
<polygon fill="midnightblue" stroke="midnightblue" points="214.696,-165.743 204.183,-167.056 213.22,-172.586 214.696,-165.743"/>
</g>
<!-- Node16&#45;&gt;Node27 -->
<g id="edge33" class="edge"><title>Node16&#45;&gt;Node27</title>
<path fill="none" stroke="midnightblue" d="M517.109,-204.922C580.758,-192.494 672.104,-174.657 729.462,-163.457"/>
<polygon fill="midnightblue" stroke="midnightblue" points="730.269,-166.865 739.413,-161.514 728.928,-159.995 730.269,-166.865"/>
</g>
<!-- Node20&#45;&gt;Node5 -->
<g id="edge23" class="edge"><title>Node20&#45;&gt;Node5</title>
<path fill="none" stroke="midnightblue" d="M217.181,-137.459C301.307,-122.855 423.87,-101.477 429.014,-100 431.824,-99.193 434.713,-98.2445 437.579,-97.2233"/>
<polygon fill="midnightblue" stroke="midnightblue" points="439.003,-100.426 447.081,-93.5699 436.491,-93.8918 439.003,-100.426"/>
</g>
<!-- Node20&#45;&gt;Node8 -->
<g id="edge24" class="edge"><title>Node20&#45;&gt;Node8</title>
<path fill="none" stroke="midnightblue" d="M128.526,-136.66C110.328,-111.777 72.9851,-60.7159 53.4881,-34.0567"/>
<polygon fill="midnightblue" stroke="midnightblue" points="56.1249,-31.7331 47.3966,-25.7275 50.4747,-35.8654 56.1249,-31.7331"/>
</g>
<!-- Node20&#45;&gt;Node13 -->
<g id="edge25" class="edge"><title>Node20&#45;&gt;Node13</title>
<path fill="none" stroke="midnightblue" d="M117.749,-136.679C101.315,-125.611 78.6739,-110.363 62.2474,-99.3002"/>
<polygon fill="midnightblue" stroke="midnightblue" points="64.0892,-96.3209 53.8397,-93.6379 60.179,-102.127 64.0892,-96.3209"/>
</g>
<!-- Node21 -->
<g id="node21" class="node"><title>Node21</title>
<polygon fill="none" stroke="#bfbfbf" points="118.514,-74.5 118.514,-93.5 167.514,-93.5 167.514,-74.5 118.514,-74.5"/>
<text text-anchor="middle" x="143.014" y="-81.5" font-family="Helvetica,sans-Serif" font-size="10.00">cassert</text>
</g>
<!-- Node20&#45;&gt;Node21 -->
<g id="edge26" class="edge"><title>Node20&#45;&gt;Node21</title>
<path fill="none" stroke="midnightblue" d="M139.882,-136.679C140.462,-127.101 141.232,-114.394 141.864,-103.977"/>
<polygon fill="midnightblue" stroke="midnightblue" points="145.367,-104.022 142.479,-93.8283 138.38,-103.598 145.367,-104.022"/>
</g>
<!-- Node22 -->
<g id="node22" class="node"><title>Node22</title>
<polygon fill="none" stroke="#bfbfbf" points="186.014,-74.5 186.014,-93.5 232.014,-93.5 232.014,-74.5 186.014,-74.5"/>
<text text-anchor="middle" x="209.014" y="-81.5" font-family="Helvetica,sans-Serif" font-size="10.00">cstdint</text>
</g>
<!-- Node20&#45;&gt;Node22 -->
<g id="edge27" class="edge"><title>Node20&#45;&gt;Node22</title>
<path fill="none" stroke="midnightblue" d="M154.203,-136.679C165.441,-126.082 180.744,-111.655 192.324,-100.736"/>
<polygon fill="midnightblue" stroke="midnightblue" points="194.776,-103.235 199.65,-93.8283 189.973,-98.1419 194.776,-103.235"/>
</g>
<!-- Node23 -->
<g id="node23" class="node"><title>Node23</title>
<polygon fill="none" stroke="#bfbfbf" points="250.014,-74.5 250.014,-93.5 312.014,-93.5 312.014,-74.5 250.014,-74.5"/>
<text text-anchor="middle" x="281.014" y="-81.5" font-family="Helvetica,sans-Serif" font-size="10.00">type_traits</text>
</g>
<!-- Node20&#45;&gt;Node23 -->
<g id="edge28" class="edge"><title>Node20&#45;&gt;Node23</title>
<path fill="none" stroke="midnightblue" d="M169.476,-136.841C194.258,-125.323 228.95,-109.199 253.036,-98.0036"/>
<polygon fill="midnightblue" stroke="midnightblue" points="254.741,-101.071 262.335,-93.6819 251.791,-94.7229 254.741,-101.071"/>
</g>
<!-- Node24 -->
<g id="node24" class="node"><title>Node24</title>
<g id="a_node24"><a xlink:href="../../d9/d52/Common_2MathUtils_2include_2MathUtils_2Utils_8h.html" target="_top" xlink:title="MathUtils/Utils.h">
<polygon fill="none" stroke="black" points="330.014,-74.5 330.014,-93.5 420.014,-93.5 420.014,-74.5 330.014,-74.5"/>
<text text-anchor="middle" x="375.014" y="-81.5" font-family="Helvetica,sans-Serif" font-size="10.00">MathUtils/Utils.h</text>
</a>
</g>
</g>
<!-- Node20&#45;&gt;Node24 -->
<g id="edge29" class="edge"><title>Node20&#45;&gt;Node24</title>
<path fill="none" stroke="midnightblue" d="M189.352,-136.922C232.781,-124.777 294.679,-107.466 334.85,-96.2322"/>
<polygon fill="midnightblue" stroke="midnightblue" points="335.883,-99.5778 344.571,-93.5138 333.997,-92.8364 335.883,-99.5778"/>
</g>
<!-- Node24&#45;&gt;Node8 -->
<g id="edge30" class="edge"><title>Node24&#45;&gt;Node8</title>
<path fill="none" stroke="midnightblue" d="M345.445,-74.4372C337.244,-72.1987 328.314,-69.8868 320.014,-68 229.464,-47.4158 120.918,-29.4825 70.0288,-21.465"/>
<polygon fill="midnightblue" stroke="midnightblue" points="70.4928,-17.9951 60.072,-19.9073 69.4108,-24.911 70.4928,-17.9951"/>
</g>
<!-- Node25 -->
<g id="node25" class="node"><title>Node25</title>
<polygon fill="none" stroke="#bfbfbf" points="418.014,-6.5 418.014,-25.5 462.014,-25.5 462.014,-6.5 418.014,-6.5"/>
<text text-anchor="middle" x="440.014" y="-13.5" font-family="Helvetica,sans-Serif" font-size="10.00">cmath</text>
</g>
<!-- Node24&#45;&gt;Node25 -->
<g id="edge31" class="edge"><title>Node24&#45;&gt;Node25</title>
<path fill="none" stroke="midnightblue" d="M383.511,-74.3717C393.771,-63.9547 411.239,-46.2173 424.043,-33.2162"/>
<polygon fill="midnightblue" stroke="midnightblue" points="426.783,-35.4219 431.307,-25.8411 421.796,-30.5101 426.783,-35.4219"/>
</g>
<!-- Node26 -->
<g id="node26" class="node"><title>Node26</title>
<g id="a_node26"><a xlink:href="../../d6/d84/MathConstants_8h.html" target="_top" xlink:title="useful math constants ">
<polygon fill="none" stroke="black" points="220.514,-6.5 220.514,-25.5 399.514,-25.5 399.514,-6.5 220.514,-6.5"/>
<text text-anchor="middle" x="310.014" y="-13.5" font-family="Helvetica,sans-Serif" font-size="10.00">CommonConstants/MathConstants.h</text>
</a>
</g>
</g>
<!-- Node24&#45;&gt;Node26 -->
<g id="edge32" class="edge"><title>Node24&#45;&gt;Node26</title>
<path fill="none" stroke="midnightblue" d="M366.516,-74.3717C356.257,-63.9547 338.788,-46.2173 325.984,-33.2162"/>
<polygon fill="midnightblue" stroke="midnightblue" points="328.232,-30.5101 318.721,-25.8411 323.244,-35.4219 328.232,-30.5101"/>
</g>
<!-- Node27&#45;&gt;Node5 -->
<g id="edge39" class="edge"><title>Node27&#45;&gt;Node5</title>
<path fill="none" stroke="midnightblue" d="M739.87,-142.462C728.839,-140.316 716.993,-138.043 706.014,-136 615.93,-119.239 591.067,-125.352 503.014,-100 500.204,-99.1909 497.315,-98.2412 494.45,-97.2191"/>
<polygon fill="midnightblue" stroke="midnightblue" points="495.538,-93.8877 484.948,-93.5645 493.025,-100.421 495.538,-93.8877"/>
</g>
<!-- Node27&#45;&gt;Node9 -->
<g id="edge41" class="edge"><title>Node27&#45;&gt;Node9</title>
<path fill="none" stroke="midnightblue" d="M817.852,-142.47C829.304,-139.98 842.142,-137.522 854.014,-136 1023.7,-114.248 1456.95,-141.09 1623.01,-100 1625.52,-99.381 1628.06,-98.5614 1630.56,-97.6237"/>
<polygon fill="midnightblue" stroke="midnightblue" points="1632.06,-100.788 1639.84,-93.596 1629.27,-94.3668 1632.06,-100.788"/>
</g>
<!-- Node28 -->
<g id="node28" class="node"><title>Node28</title>
<polygon fill="none" stroke="#bfbfbf" points="512.514,-69 512.514,-99 663.514,-99 663.514,-69 512.514,-69"/>
<text text-anchor="start" x="520.514" y="-87" font-family="Helvetica,sans-Serif" font-size="10.00">Math/GenVector/Displacement</text>
<text text-anchor="middle" x="588.014" y="-76" font-family="Helvetica,sans-Serif" font-size="10.00">Vector3D.h</text>
</g>
<!-- Node27&#45;&gt;Node28 -->
<g id="edge34" class="edge"><title>Node27&#45;&gt;Node28</title>
<path fill="none" stroke="midnightblue" d="M757.521,-142.372C727.669,-132.268 677.47,-115.277 639.428,-102.402"/>
<polygon fill="midnightblue" stroke="midnightblue" points="640.138,-98.947 629.544,-99.0562 637.894,-105.578 640.138,-98.947"/>
</g>
<!-- Node29 -->
<g id="node29" class="node"><title>Node29</title>
<polygon fill="none" stroke="#bfbfbf" points="682.014,-74.5 682.014,-93.5 858.014,-93.5 858.014,-74.5 682.014,-74.5"/>
<text text-anchor="middle" x="770.014" y="-81.5" font-family="Helvetica,sans-Serif" font-size="10.00">Math/GenVector/PositionVector3D.h</text>
</g>
<!-- Node27&#45;&gt;Node29 -->
<g id="edge35" class="edge"><title>Node27&#45;&gt;Node29</title>
<path fill="none" stroke="midnightblue" d="M781.314,-142.372C779.398,-132.643 776.224,-116.528 773.727,-103.85"/>
<polygon fill="midnightblue" stroke="midnightblue" points="777.122,-102.976 771.755,-93.8411 770.254,-104.329 777.122,-102.976"/>
</g>
<!-- Node30 -->
<g id="node30" class="node"><title>Node30</title>
<polygon fill="none" stroke="#bfbfbf" points="875.514,-74.5 875.514,-93.5 1024.51,-93.5 1024.51,-74.5 875.514,-74.5"/>
<text text-anchor="middle" x="950.014" y="-81.5" font-family="Helvetica,sans-Serif" font-size="10.00">Math/GenVector/Rotation3D.h</text>
</g>
<!-- Node27&#45;&gt;Node30 -->
<g id="edge36" class="edge"><title>Node27&#45;&gt;Node30</title>
<path fill="none" stroke="midnightblue" d="M804.846,-142.372C833.931,-130.877 885.57,-110.469 918.774,-97.3465"/>
<polygon fill="midnightblue" stroke="midnightblue" points="920.427,-100.456 928.441,-93.5259 917.854,-93.9464 920.427,-100.456"/>
</g>
<!-- Node31 -->
<g id="node31" class="node"><title>Node31</title>
<polygon fill="none" stroke="#bfbfbf" points="1043.01,-74.5 1043.01,-93.5 1199.01,-93.5 1199.01,-74.5 1043.01,-74.5"/>
<text text-anchor="middle" x="1121.01" y="-81.5" font-family="Helvetica,sans-Serif" font-size="10.00">Math/GenVector/Transform3D.h</text>
</g>
<!-- Node27&#45;&gt;Node31 -->
<g id="edge37" class="edge"><title>Node27&#45;&gt;Node31</title>
<path fill="none" stroke="midnightblue" d="M822.79,-142.454C832.961,-140.308 843.886,-138.037 854.014,-136 926.6,-121.402 1010.5,-105.542 1064.58,-95.4494"/>
<polygon fill="midnightblue" stroke="midnightblue" points="1065.47,-98.8449 1074.65,-93.5719 1064.18,-91.9634 1065.47,-98.8449"/>
</g>
<!-- Node32 -->
<g id="node32" class="node"><title>Node32</title>
<polygon fill="none" stroke="#bfbfbf" points="1217.01,-74.5 1217.01,-93.5 1377.01,-93.5 1377.01,-74.5 1217.01,-74.5"/>
<text text-anchor="middle" x="1297.01" y="-81.5" font-family="Helvetica,sans-Serif" font-size="10.00">Math/GenVector/Translation3D.h</text>
</g>
<!-- Node27&#45;&gt;Node32 -->
<g id="edge38" class="edge"><title>Node27&#45;&gt;Node32</title>
<path fill="none" stroke="midnightblue" d="M819.726,-142.463C830.709,-140.121 842.811,-137.748 854.014,-136 1010.27,-111.621 1051.29,-121.153 1208.01,-100 1218.37,-98.6023 1229.37,-96.9149 1239.97,-95.1836"/>
<polygon fill="midnightblue" stroke="midnightblue" points="1240.7,-98.6115 1249.99,-93.5183 1239.55,-91.7063 1240.7,-98.6115"/>
</g>
<!-- Node33 -->
<g id="node33" class="node"><title>Node33</title>
<polygon fill="none" stroke="#bfbfbf" points="1395.01,-74.5 1395.01,-93.5 1471.01,-93.5 1471.01,-74.5 1395.01,-74.5"/>
<text text-anchor="middle" x="1433.01" y="-81.5" font-family="Helvetica,sans-Serif" font-size="10.00">TGeoMatrix.h</text>
</g>
<!-- Node27&#45;&gt;Node33 -->
<g id="edge40" class="edge"><title>Node27&#45;&gt;Node33</title>
<path fill="none" stroke="midnightblue" d="M818.597,-142.459C829.865,-140.03 842.408,-137.61 854.014,-136 1088.75,-103.426 1153.22,-144.349 1386.01,-100 1390.59,-99.1289 1395.34,-97.9517 1399.98,-96.6377"/>
<polygon fill="midnightblue" stroke="midnightblue" points="1401.34,-99.883 1409.87,-93.6079 1399.29,-93.1899 1401.34,-99.883"/>
</g>
<!-- Node34 -->
<g id="node34" class="node"><title>Node34</title>
<g id="a_node34"><a xlink:href="../../d2/dd0/Cartesian2D_8h.html" target="_top" xlink:title="MathUtils/Cartesian2D.h">
<polygon fill="none" stroke="black" points="1489.51,-74.5 1489.51,-93.5 1614.51,-93.5 1614.51,-74.5 1489.51,-74.5"/>
<text text-anchor="middle" x="1552.01" y="-81.5" font-family="Helvetica,sans-Serif" font-size="10.00">MathUtils/Cartesian2D.h</text>
</a>
</g>
</g>
<!-- Node27&#45;&gt;Node34 -->
<g id="edge42" class="edge"><title>Node27&#45;&gt;Node34</title>
<path fill="none" stroke="midnightblue" d="M818.224,-142.466C829.585,-140.007 842.276,-137.568 854.014,-136 1130.24,-99.0927 1203.73,-136.519 1480.01,-100 1488.57,-98.8695 1497.62,-97.291 1506.31,-95.5796"/>
<polygon fill="midnightblue" stroke="midnightblue" points="1507.21,-98.9684 1516.3,-93.5285 1505.8,-92.1115 1507.21,-98.9684"/>
</g>
<!-- Node35 -->
<g id="node35" class="node"><title>Node35</title>
<polygon fill="none" stroke="#bfbfbf" points="1567.51,-1 1567.51,-31 1718.51,-31 1718.51,-1 1567.51,-1"/>
<text text-anchor="start" x="1575.51" y="-19" font-family="Helvetica,sans-Serif" font-size="10.00">Math/GenVector/Displacement</text>
<text text-anchor="middle" x="1643.01" y="-8" font-family="Helvetica,sans-Serif" font-size="10.00">Vector2D.h</text>
</g>
<!-- Node34&#45;&gt;Node35 -->
<g id="edge43" class="edge"><title>Node34&#45;&gt;Node35</title>
<path fill="none" stroke="midnightblue" d="M1563.91,-74.3717C1576.79,-65.0286 1597.79,-49.7966 1614.92,-37.375"/>
<polygon fill="midnightblue" stroke="midnightblue" points="1617.42,-39.8859 1623.46,-31.1815 1613.31,-34.2194 1617.42,-39.8859"/>
</g>
<!-- Node36 -->
<g id="node36" class="node"><title>Node36</title>
<polygon fill="none" stroke="#bfbfbf" points="1373.01,-6.5 1373.01,-25.5 1549.01,-25.5 1549.01,-6.5 1373.01,-6.5"/>
<text text-anchor="middle" x="1461.01" y="-13.5" font-family="Helvetica,sans-Serif" font-size="10.00">Math/GenVector/PositionVector2D.h</text>
</g>
<!-- Node34&#45;&gt;Node36 -->
<g id="edge44" class="edge"><title>Node34&#45;&gt;Node36</title>
<path fill="none" stroke="midnightblue" d="M1540.12,-74.3717C1525.13,-63.5015 1499.15,-44.6602 1481.07,-31.5474"/>
<polygon fill="midnightblue" stroke="midnightblue" points="1483.06,-28.6684 1472.91,-25.6305 1478.95,-34.3349 1483.06,-28.6684"/>
</g>
<!-- Node37&#45;&gt;Node7 -->
<g id="edge47" class="edge"><title>Node37&#45;&gt;Node7</title>
<path fill="none" stroke="midnightblue" d="M880.403,-464.841C855.373,-454.89 821.697,-441.5 794.839,-430.822"/>
<polygon fill="midnightblue" stroke="midnightblue" points="795.866,-427.464 785.281,-427.022 793.28,-433.969 795.866,-427.464"/>
</g>
<!-- Node37&#45;&gt;Node19 -->
<g id="edge51" class="edge"><title>Node37&#45;&gt;Node19</title>
<path fill="none" stroke="midnightblue" d="M946.676,-464.826C962.108,-456.223 979.857,-443.832 991.014,-428 1011.38,-399.098 1011.01,-386.358 1011.01,-351 1011.01,-351 1011.01,-351 1011.01,-287 1011.01,-229.838 949.409,-187.099 912.351,-166.561"/>
<polygon fill="midnightblue" stroke="midnightblue" points="913.535,-163.225 903.067,-161.592 910.232,-169.396 913.535,-163.225"/>
</g>
<!-- Node38 -->
<g id="node38" class="node"><title>Node38</title>
<polygon fill="none" stroke="#bfbfbf" points="1039.01,-402.5 1039.01,-421.5 1089.01,-421.5 1089.01,-402.5 1039.01,-402.5"/>
<text text-anchor="middle" x="1064.01" y="-409.5" font-family="Helvetica,sans-Serif" font-size="10.00">fstream</text>
</g>
<!-- Node37&#45;&gt;Node38 -->
<g id="edge48" class="edge"><title>Node37&#45;&gt;Node38</title>
<path fill="none" stroke="midnightblue" d="M947.763,-464.841C973.707,-453.272 1010.07,-437.055 1035.19,-425.855"/>
<polygon fill="midnightblue" stroke="midnightblue" points="1036.84,-428.951 1044.55,-421.682 1033.99,-422.558 1036.84,-428.951"/>
</g>
<!-- Node39 -->
<g id="node39" class="node"><title>Node39</title>
<polygon fill="none" stroke="#bfbfbf" points="840.514,-402.5 840.514,-421.5 881.514,-421.5 881.514,-402.5 840.514,-402.5"/>
<text text-anchor="middle" x="861.014" y="-409.5" font-family="Helvetica,sans-Serif" font-size="10.00">string</text>
</g>
<!-- Node37&#45;&gt;Node39 -->
<g id="edge49" class="edge"><title>Node37&#45;&gt;Node39</title>
<path fill="none" stroke="midnightblue" d="M904.08,-464.679C895.504,-454.388 883.917,-440.484 874.922,-429.69"/>
<polygon fill="midnightblue" stroke="midnightblue" points="877.461,-427.27 868.371,-421.828 872.084,-431.751 877.461,-427.27"/>
</g>
<!-- Node40 -->
<g id="node40" class="node"><title>Node40</title>
<polygon fill="none" stroke="#bfbfbf" points="899.514,-402.5 899.514,-421.5 982.514,-421.5 982.514,-402.5 899.514,-402.5"/>
<text text-anchor="middle" x="941.014" y="-409.5" font-family="Helvetica,sans-Serif" font-size="10.00">unordered_map</text>
</g>
<!-- Node37&#45;&gt;Node40 -->
<g id="edge50" class="edge"><title>Node37&#45;&gt;Node40</title>
<path fill="none" stroke="midnightblue" d="M921.438,-464.679C925.143,-454.898 930.085,-441.852 934.076,-431.315"/>
<polygon fill="midnightblue" stroke="midnightblue" points="937.4,-432.42 937.67,-421.828 930.854,-429.94 937.4,-432.42"/>
</g>
</g>
</svg>
        <g id="navigator" transform="translate(0 0)" fill="#404254">
                <rect fill="#f2f5e9" fill-opacity="0.5" stroke="#606060" stroke-width=".5" x="0" y="0" width="60" height="60"/>
                <use id="zoomplus" xlink:href="#zoomPlus" x="17" y="9" onmousedown="handleZoom(evt,'in')"/>
                <use id="zoomminus" xlink:href="#zoomMin" x="42" y="9" onmousedown="handleZoom(evt,'out')"/>
                <use id="reset" xlink:href="#resetDef" x="30" y="36" onmousedown="handleReset()"/>
                <g id="arrowUp" xlink:href="#dirArrow" transform="translate(30 24)" onmousedown="handlePan(0,-1)">
                  <use xlink:href="#rim" fill="#404040">
                        <set attributeName="fill" to="#808080" begin="arrowUp.mouseover" end="arrowUp.mouseout"/>
                  </use>
                  <path fill="none" stroke="white" stroke-width="1.5" d="M0,-3.0v7 M-2.5,-0.5L0,-3.0L2.5,-0.5"/>
                </g>
                <g id="arrowRight" xlink:href="#dirArrow" transform="rotate(90) translate(36 -43)" onmousedown="handlePan(1,0)">
                  <use xlink:href="#rim" fill="#404040">
                        <set attributeName="fill" to="#808080" begin="arrowRight.mouseover" end="arrowRight.mouseout"/>
                  </use>
                  <path fill="none" stroke="white" stroke-width="1.5" d="M0,-3.0v7 M-2.5,-0.5L0,-3.0L2.5,-0.5"/>
                </g>
                <g id="arrowDown" xlink:href="#dirArrow" transform="rotate(180) translate(-30 -48)" onmousedown="handlePan(0,1)">
                  <use xlink:href="#rim" fill="#404040">
                        <set attributeName="fill" to="#808080" begin="arrowDown.mouseover" end="arrowDown.mouseout"/>
                  </use>
                  <path fill="none" stroke="white" stroke-width="1.5" d="M0,-3.0v7 M-2.5,-0.5L0,-3.0L2.5,-0.5"/>
                </g>
                <g id="arrowLeft" xlink:href="#dirArrow" transform="rotate(270) translate(-36 17)" onmousedown="handlePan(-1,0)">
                  <use xlink:href="#rim" fill="#404040">
                        <set attributeName="fill" to="#808080" begin="arrowLeft.mouseover" end="arrowLeft.mouseout"/>
                  </use>
                  <path fill="none" stroke="white" stroke-width="1.5" d="M0,-3.0v7 M-2.5,-0.5L0,-3.0L2.5,-0.5"/>
                </g>
        </g>
        <svg viewBox="0 0 15 15" width="100%" height="30px" preserveAspectRatio="xMaxYMin meet">
         <g id="arrow_out" transform="scale(0.3 0.3)">
          <a xlink:href="BuildTopologyDictionary_8h__incl_org.svg" target="_base">
           <rect id="button" ry="5" rx="5" y="6" x="6" height="38" width="38"
                fill="#f2f5e9" fill-opacity="0.5" stroke="#606060" stroke-width="1.0"/>
           <path id="arrow"
             d="M 11.500037,31.436501 C 11.940474,20.09759 22.043105,11.32322 32.158766,21.979434 L 37.068811,17.246167 C 37.068811,17.246167 37.088388,32 37.088388,32 L 22.160133,31.978069 C 22.160133,31.978069 26.997745,27.140456 26.997745,27.140456 C 18.528582,18.264221 13.291696,25.230495 11.500037,31.436501 z"
             style="fill:#404040;"/>
          </a>
         </g>
        </svg>
</svg>
