<?xml version="1.0" encoding="UTF-8" standalone="no"?>
<!DOCTYPE svg PUBLIC "-//W3C//DTD SVG 1.1//EN"
 "http://www.w3.org/Graphics/SVG/1.1/DTD/svg11.dtd">
<!-- Generated by graphviz version 2.36.0 (20140111.2315)
 -->
<!-- Title: /home/travis/build/AliceO2Group/AliceO2/Detectors/PHOS/simulation/src/Digitizer.cxx Pages: 1 -->
<svg width="1664pt" height="502pt"
 viewBox="0.00 0.00 1664.00 502.00" xmlns="http://www.w3.org/2000/svg" xmlns:xlink="http://www.w3.org/1999/xlink">
<g id="graph0" class="graph" transform="scale(1 1) rotate(0) translate(4 498)">
<title>/home/travis/build/AliceO2Group/AliceO2/Detectors/PHOS/simulation/src/Digitizer.cxx</title>
<!-- Node1 -->
<g id="node1" class="node"><title>Node1</title>
<polygon fill="#bfbfbf" stroke="black" points="1219.5,-441 1219.5,-493 1360.5,-493 1360.5,-441 1219.5,-441"/>
<text text-anchor="start" x="1227.5" y="-481" font-family="Helvetica,sans-Serif" font-size="10.00">/home/travis/build</text>
<text text-anchor="start" x="1227.5" y="-470" font-family="Helvetica,sans-Serif" font-size="10.00">/AliceO2Group/AliceO2</text>
<text text-anchor="start" x="1227.5" y="-459" font-family="Helvetica,sans-Serif" font-size="10.00">/Detectors/PHOS/simulation</text>
<text text-anchor="middle" x="1290" y="-448" font-family="Helvetica,sans-Serif" font-size="10.00">/src/Digitizer.cxx</text>
</g>
<!-- Node2 -->
<g id="node2" class="node"><title>Node2</title>
<g id="a_node2"><a xlink:href="../../d6/d4b/PHOS_2simulation_2include_2PHOSSimulation_2Digitizer_8h.html" target="_top" xlink:title="PHOSSimulation/Digitizer.h">
<polygon fill="none" stroke="black" points="1062,-384.5 1062,-403.5 1200,-403.5 1200,-384.5 1062,-384.5"/>
<text text-anchor="middle" x="1131" y="-391.5" font-family="Helvetica,sans-Serif" font-size="10.00">PHOSSimulation/Digitizer.h</text>
</a>
</g>
</g>
<!-- Node1&#45;&gt;Node2 -->
<g id="edge1" class="edge"><title>Node1&#45;&gt;Node2</title>
<path fill="none" stroke="midnightblue" d="M1233.94,-440.968C1208.78,-429.732 1180.18,-416.96 1159.52,-407.735"/>
<polygon fill="midnightblue" stroke="midnightblue" points="1160.9,-404.52 1150.35,-403.639 1158.05,-410.912 1160.9,-404.52"/>
</g>
<!-- Node6 -->
<g id="node6" class="node"><title>Node6</title>
<g id="a_node6"><a xlink:href="../../d7/dcd/MCCompLabel_8h.html" target="_top" xlink:title="SimulationDataFormat\l/MCCompLabel.h">
<polygon fill="none" stroke="black" points="1206,-261 1206,-291 1320,-291 1320,-261 1206,-261"/>
<text text-anchor="start" x="1214" y="-279" font-family="Helvetica,sans-Serif" font-size="10.00">SimulationDataFormat</text>
<text text-anchor="middle" x="1263" y="-268" font-family="Helvetica,sans-Serif" font-size="10.00">/MCCompLabel.h</text>
</a>
</g>
</g>
<!-- Node1&#45;&gt;Node6 -->
<g id="edge33" class="edge"><title>Node1&#45;&gt;Node6</title>
<path fill="none" stroke="midnightblue" d="M1284.67,-440.735C1282.42,-429.517 1279.89,-416.133 1278,-404 1272.47,-368.456 1267.93,-327.031 1265.34,-301.408"/>
<polygon fill="midnightblue" stroke="midnightblue" points="1268.8,-300.747 1264.33,-291.141 1261.83,-301.437 1268.8,-300.747"/>
</g>
<!-- Node31 -->
<g id="node31" class="node"><title>Node31</title>
<polygon fill="none" stroke="#bfbfbf" points="1287,-384.5 1287,-403.5 1355,-403.5 1355,-384.5 1287,-384.5"/>
<text text-anchor="middle" x="1321" y="-391.5" font-family="Helvetica,sans-Serif" font-size="10.00">TRandom.h</text>
</g>
<!-- Node1&#45;&gt;Node31 -->
<g id="edge34" class="edge"><title>Node1&#45;&gt;Node31</title>
<path fill="none" stroke="midnightblue" d="M1301.02,-440.768C1305.03,-431.587 1309.47,-421.403 1313.15,-412.978"/>
<polygon fill="midnightblue" stroke="midnightblue" points="1316.38,-414.322 1317.18,-403.757 1309.97,-411.521 1316.38,-414.322"/>
</g>
<!-- Node32 -->
<g id="node32" class="node"><title>Node32</title>
<polygon fill="none" stroke="#bfbfbf" points="1373.5,-384.5 1373.5,-403.5 1444.5,-403.5 1444.5,-384.5 1373.5,-384.5"/>
<text text-anchor="middle" x="1409" y="-391.5" font-family="Helvetica,sans-Serif" font-size="10.00">FairLogger.h</text>
</g>
<!-- Node1&#45;&gt;Node32 -->
<g id="edge35" class="edge"><title>Node1&#45;&gt;Node32</title>
<path fill="none" stroke="midnightblue" d="M1331.95,-440.968C1350.02,-430.19 1370.45,-417.997 1385.74,-408.879"/>
<polygon fill="midnightblue" stroke="midnightblue" points="1387.73,-411.768 1394.52,-403.639 1384.14,-405.757 1387.73,-411.768"/>
</g>
<!-- Node3 -->
<g id="node3" class="node"><title>Node3</title>
<g id="a_node3"><a xlink:href="../../d8/de9/PHOS_2base_2include_2PHOSBase_2Digit_8h.html" target="_top" xlink:title="PHOSBase/Digit.h">
<polygon fill="none" stroke="black" points="1128.5,-328.5 1128.5,-347.5 1227.5,-347.5 1227.5,-328.5 1128.5,-328.5"/>
<text text-anchor="middle" x="1178" y="-335.5" font-family="Helvetica,sans-Serif" font-size="10.00">PHOSBase/Digit.h</text>
</a>
</g>
</g>
<!-- Node2&#45;&gt;Node3 -->
<g id="edge2" class="edge"><title>Node2&#45;&gt;Node3</title>
<path fill="none" stroke="midnightblue" d="M1138.76,-384.083C1145.54,-376.298 1155.54,-364.801 1163.76,-355.367"/>
<polygon fill="midnightblue" stroke="midnightblue" points="1166.46,-357.592 1170.38,-347.751 1161.18,-352.996 1166.46,-357.592"/>
</g>
<!-- Node7 -->
<g id="node7" class="node"><title>Node7</title>
<g id="a_node7"><a xlink:href="../../d1/def/PHOS_2base_2include_2PHOSBase_2Hit_8h.html" target="_top" xlink:title="PHOSBase/Hit.h">
<polygon fill="none" stroke="black" points="1054,-266.5 1054,-285.5 1146,-285.5 1146,-266.5 1054,-266.5"/>
<text text-anchor="middle" x="1100" y="-273.5" font-family="Helvetica,sans-Serif" font-size="10.00">PHOSBase/Hit.h</text>
</a>
</g>
</g>
<!-- Node2&#45;&gt;Node7 -->
<g id="edge32" class="edge"><title>Node2&#45;&gt;Node7</title>
<path fill="none" stroke="midnightblue" d="M1128.67,-384.281C1123.64,-365.463 1111.68,-320.697 1104.9,-295.34"/>
<polygon fill="midnightblue" stroke="midnightblue" points="1108.24,-294.262 1102.27,-285.505 1101.47,-296.069 1108.24,-294.262"/>
</g>
<!-- Node27 -->
<g id="node27" class="node"><title>Node27</title>
<g id="a_node27"><a xlink:href="../../d7/d7f/PHOS_2base_2include_2PHOSBase_2Geometry_8h.html" target="_top" xlink:title="PHOSBase/Geometry.h">
<polygon fill="none" stroke="black" points="905,-328.5 905,-347.5 1027,-347.5 1027,-328.5 905,-328.5"/>
<text text-anchor="middle" x="966" y="-335.5" font-family="Helvetica,sans-Serif" font-size="10.00">PHOSBase/Geometry.h</text>
</a>
</g>
</g>
<!-- Node2&#45;&gt;Node27 -->
<g id="edge28" class="edge"><title>Node2&#45;&gt;Node27</title>
<path fill="none" stroke="midnightblue" d="M1104.86,-384.444C1076.98,-375.32 1032.65,-360.813 1001.6,-350.651"/>
<polygon fill="midnightblue" stroke="midnightblue" points="1002.62,-347.3 992.022,-347.516 1000.44,-353.953 1002.62,-347.3"/>
</g>
<!-- Node4 -->
<g id="node4" class="node"><title>Node4</title>
<g id="a_node4"><a xlink:href="../../df/d5d/common_2include_2CommonDataFormat_2TimeStamp_8h.html" target="_top" xlink:title="CommonDataFormat/TimeStamp.h">
<polygon fill="none" stroke="black" points="1316,-198.5 1316,-217.5 1486,-217.5 1486,-198.5 1316,-198.5"/>
<text text-anchor="middle" x="1401" y="-205.5" font-family="Helvetica,sans-Serif" font-size="10.00">CommonDataFormat/TimeStamp.h</text>
</a>
</g>
</g>
<!-- Node3&#45;&gt;Node4 -->
<g id="edge3" class="edge"><title>Node3&#45;&gt;Node4</title>
<path fill="none" stroke="midnightblue" d="M1177.47,-328.479C1176.98,-312.673 1178.34,-278.722 1197,-260 1215.49,-241.458 1277.3,-227.684 1328.08,-219.155"/>
<polygon fill="midnightblue" stroke="midnightblue" points="1328.78,-222.589 1338.08,-217.519 1327.64,-215.68 1328.78,-222.589"/>
</g>
<!-- Node3&#45;&gt;Node6 -->
<g id="edge5" class="edge"><title>Node3&#45;&gt;Node6</title>
<path fill="none" stroke="midnightblue" d="M1190.18,-328.403C1201.69,-320.277 1219.4,-307.779 1234.47,-297.142"/>
<polygon fill="midnightblue" stroke="midnightblue" points="1236.82,-299.767 1242.97,-291.141 1232.78,-294.048 1236.82,-299.767"/>
</g>
<!-- Node3&#45;&gt;Node7 -->
<g id="edge7" class="edge"><title>Node3&#45;&gt;Node7</title>
<path fill="none" stroke="midnightblue" d="M1166.82,-328.403C1154.43,-318.869 1134.21,-303.315 1119.25,-291.811"/>
<polygon fill="midnightblue" stroke="midnightblue" points="1121.22,-288.904 1111.15,-285.581 1116.95,-294.452 1121.22,-288.904"/>
</g>
<!-- Node5 -->
<g id="node5" class="node"><title>Node5</title>
<polygon fill="none" stroke="#bfbfbf" points="1600,-74.5 1600,-93.5 1656,-93.5 1656,-74.5 1600,-74.5"/>
<text text-anchor="middle" x="1628" y="-81.5" font-family="Helvetica,sans-Serif" font-size="10.00">Rtypes.h</text>
</g>
<!-- Node4&#45;&gt;Node5 -->
<g id="edge4" class="edge"><title>Node4&#45;&gt;Node5</title>
<path fill="none" stroke="midnightblue" d="M1416.96,-198.421C1455.95,-177.465 1556.28,-123.545 1603.16,-98.3479"/>
<polygon fill="midnightblue" stroke="midnightblue" points="1604.9,-101.386 1612.06,-93.5693 1601.59,-95.2205 1604.9,-101.386"/>
</g>
<!-- Node6&#45;&gt;Node5 -->
<g id="edge6" class="edge"><title>Node6&#45;&gt;Node5</title>
<path fill="none" stroke="midnightblue" d="M1320.19,-271.743C1369.28,-266.847 1440.53,-254.605 1495,-224 1550.18,-192.998 1596.54,-131.733 1616.91,-101.993"/>
<polygon fill="midnightblue" stroke="midnightblue" points="1619.92,-103.778 1622.58,-93.5231 1614.11,-99.881 1619.92,-103.778"/>
</g>
<!-- Node8 -->
<g id="node8" class="node"><title>Node8</title>
<g id="a_node8"><a xlink:href="../../d4/d25/BaseHits_8h.html" target="_top" xlink:title="SimulationDataFormat\l/BaseHits.h">
<polygon fill="none" stroke="black" points="1002,-193 1002,-223 1116,-223 1116,-193 1002,-193"/>
<text text-anchor="start" x="1010" y="-211" font-family="Helvetica,sans-Serif" font-size="10.00">SimulationDataFormat</text>
<text text-anchor="middle" x="1059" y="-200" font-family="Helvetica,sans-Serif" font-size="10.00">/BaseHits.h</text>
</a>
</g>
</g>
<!-- Node7&#45;&gt;Node8 -->
<g id="edge8" class="edge"><title>Node7&#45;&gt;Node8</title>
<path fill="none" stroke="midnightblue" d="M1094.64,-266.372C1089.21,-257.629 1080.57,-243.729 1073.16,-231.801"/>
<polygon fill="midnightblue" stroke="midnightblue" points="1076.06,-229.829 1067.81,-223.181 1070.11,-233.523 1076.06,-229.829"/>
</g>
<!-- Node20 -->
<g id="node20" class="node"><title>Node20</title>
<g id="a_node20"><a xlink:href="../../d0/d91/ShmAllocator_8h.html" target="_top" xlink:title="CommonUtils/ShmAllocator.h">
<polygon fill="none" stroke="black" points="569,-198.5 569,-217.5 715,-217.5 715,-198.5 569,-198.5"/>
<text text-anchor="middle" x="642" y="-205.5" font-family="Helvetica,sans-Serif" font-size="10.00">CommonUtils/ShmAllocator.h</text>
</a>
</g>
</g>
<!-- Node7&#45;&gt;Node20 -->
<g id="edge21" class="edge"><title>Node7&#45;&gt;Node20</title>
<path fill="none" stroke="midnightblue" d="M1071.11,-266.461C1062.45,-264.118 1052.89,-261.746 1044,-260 934.769,-238.545 806.988,-224.128 725.318,-216.246"/>
<polygon fill="midnightblue" stroke="midnightblue" points="725.385,-212.736 715.097,-215.27 724.72,-219.705 725.385,-212.736"/>
</g>
<!-- Node9 -->
<g id="node9" class="node"><title>Node9</title>
<g id="a_node9"><a xlink:href="../../dd/d76/Cartesian3D_8h.html" target="_top" xlink:title="MathUtils/Cartesian3D.h">
<polygon fill="none" stroke="black" points="950.5,-136.5 950.5,-155.5 1075.5,-155.5 1075.5,-136.5 950.5,-136.5"/>
<text text-anchor="middle" x="1013" y="-143.5" font-family="Helvetica,sans-Serif" font-size="10.00">MathUtils/Cartesian3D.h</text>
</a>
</g>
</g>
<!-- Node8&#45;&gt;Node9 -->
<g id="edge9" class="edge"><title>Node8&#45;&gt;Node9</title>
<path fill="none" stroke="midnightblue" d="M1048.1,-192.781C1041.41,-184.062 1032.82,-172.857 1025.82,-163.715"/>
<polygon fill="midnightblue" stroke="midnightblue" points="1028.56,-161.537 1019.69,-155.731 1023,-165.796 1028.56,-161.537"/>
</g>
<!-- Node9&#45;&gt;Node5 -->
<g id="edge15" class="edge"><title>Node9&#45;&gt;Node5</title>
<path fill="none" stroke="midnightblue" d="M1075.57,-142.555C1204.24,-137.13 1494.5,-122.74 1591,-100 1594.07,-99.2761 1597.22,-98.3352 1600.32,-97.2775"/>
<polygon fill="midnightblue" stroke="midnightblue" points="1601.82,-100.452 1609.92,-93.6226 1599.33,-93.9107 1601.82,-100.452"/>
</g>
<!-- Node10 -->
<g id="node10" class="node"><title>Node10</title>
<polygon fill="none" stroke="#bfbfbf" points="1070.5,-69 1070.5,-99 1221.5,-99 1221.5,-69 1070.5,-69"/>
<text text-anchor="start" x="1078.5" y="-87" font-family="Helvetica,sans-Serif" font-size="10.00">Math/GenVector/Displacement</text>
<text text-anchor="middle" x="1146" y="-76" font-family="Helvetica,sans-Serif" font-size="10.00">Vector3D.h</text>
</g>
<!-- Node9&#45;&gt;Node10 -->
<g id="edge10" class="edge"><title>Node9&#45;&gt;Node10</title>
<path fill="none" stroke="midnightblue" d="M1032.06,-136.403C1051.14,-127.793 1081.11,-114.274 1105.52,-103.261"/>
<polygon fill="midnightblue" stroke="midnightblue" points="1107.23,-106.328 1114.91,-99.0253 1104.36,-99.9472 1107.23,-106.328"/>
</g>
<!-- Node11 -->
<g id="node11" class="node"><title>Node11</title>
<polygon fill="none" stroke="#bfbfbf" points="1240,-74.5 1240,-93.5 1416,-93.5 1416,-74.5 1240,-74.5"/>
<text text-anchor="middle" x="1328" y="-81.5" font-family="Helvetica,sans-Serif" font-size="10.00">Math/GenVector/PositionVector3D.h</text>
</g>
<!-- Node9&#45;&gt;Node11 -->
<g id="edge11" class="edge"><title>Node9&#45;&gt;Node11</title>
<path fill="none" stroke="midnightblue" d="M1057.8,-136.467C1114.59,-125.649 1212.45,-107.009 1273.52,-95.3781"/>
<polygon fill="midnightblue" stroke="midnightblue" points="1274.19,-98.8128 1283.36,-93.5034 1272.88,-91.9364 1274.19,-98.8128"/>
</g>
<!-- Node12 -->
<g id="node12" class="node"><title>Node12</title>
<polygon fill="none" stroke="#bfbfbf" points="1433.5,-74.5 1433.5,-93.5 1582.5,-93.5 1582.5,-74.5 1433.5,-74.5"/>
<text text-anchor="middle" x="1508" y="-81.5" font-family="Helvetica,sans-Serif" font-size="10.00">Math/GenVector/Rotation3D.h</text>
</g>
<!-- Node9&#45;&gt;Node12 -->
<g id="edge12" class="edge"><title>Node9&#45;&gt;Node12</title>
<path fill="none" stroke="midnightblue" d="M1075.83,-139.453C1156.6,-132.017 1301.09,-117.683 1424,-100 1433.58,-98.6223 1443.73,-96.9712 1453.55,-95.2759"/>
<polygon fill="midnightblue" stroke="midnightblue" points="1454.38,-98.6838 1463.62,-93.5028 1453.17,-91.7898 1454.38,-98.6838"/>
</g>
<!-- Node13 -->
<g id="node13" class="node"><title>Node13</title>
<polygon fill="none" stroke="#bfbfbf" points="418,-74.5 418,-93.5 574,-93.5 574,-74.5 418,-74.5"/>
<text text-anchor="middle" x="496" y="-81.5" font-family="Helvetica,sans-Serif" font-size="10.00">Math/GenVector/Transform3D.h</text>
</g>
<!-- Node9&#45;&gt;Node13 -->
<g id="edge13" class="edge"><title>Node9&#45;&gt;Node13</title>
<path fill="none" stroke="midnightblue" d="M950.175,-139.743C866.278,-132.422 713.116,-118.005 583,-100 572.98,-98.6134 562.343,-96.9448 552.075,-95.2317"/>
<polygon fill="midnightblue" stroke="midnightblue" points="552.41,-91.7386 541.965,-93.5126 551.237,-98.6395 552.41,-91.7386"/>
</g>
<!-- Node14 -->
<g id="node14" class="node"><title>Node14</title>
<polygon fill="none" stroke="#bfbfbf" points="592,-74.5 592,-93.5 752,-93.5 752,-74.5 592,-74.5"/>
<text text-anchor="middle" x="672" y="-81.5" font-family="Helvetica,sans-Serif" font-size="10.00">Math/GenVector/Translation3D.h</text>
</g>
<!-- Node9&#45;&gt;Node14 -->
<g id="edge14" class="edge"><title>Node9&#45;&gt;Node14</title>
<path fill="none" stroke="midnightblue" d="M964.505,-136.467C902.893,-125.626 796.646,-106.932 730.574,-95.3062"/>
<polygon fill="midnightblue" stroke="midnightblue" points="730.783,-91.7893 720.328,-93.5034 729.57,-98.6834 730.783,-91.7893"/>
</g>
<!-- Node15 -->
<g id="node15" class="node"><title>Node15</title>
<polygon fill="none" stroke="#bfbfbf" points="770,-74.5 770,-93.5 846,-93.5 846,-74.5 770,-74.5"/>
<text text-anchor="middle" x="808" y="-81.5" font-family="Helvetica,sans-Serif" font-size="10.00">TGeoMatrix.h</text>
</g>
<!-- Node9&#45;&gt;Node15 -->
<g id="edge16" class="edge"><title>Node9&#45;&gt;Node15</title>
<path fill="none" stroke="midnightblue" d="M982.035,-136.491C950.119,-127.648 898.96,-113.271 855,-100 851.428,-98.9216 847.711,-97.7759 844.001,-96.617"/>
<polygon fill="midnightblue" stroke="midnightblue" points="844.894,-93.2286 834.304,-93.5557 842.786,-99.9039 844.894,-93.2286"/>
</g>
<!-- Node16 -->
<g id="node16" class="node"><title>Node16</title>
<polygon fill="none" stroke="#bfbfbf" points="864.5,-74.5 864.5,-93.5 909.5,-93.5 909.5,-74.5 864.5,-74.5"/>
<text text-anchor="middle" x="887" y="-81.5" font-family="Helvetica,sans-Serif" font-size="10.00">iosfwd</text>
</g>
<!-- Node9&#45;&gt;Node16 -->
<g id="edge17" class="edge"><title>Node9&#45;&gt;Node16</title>
<path fill="none" stroke="midnightblue" d="M994.767,-136.418C975.626,-127.396 944.666,-112.767 918,-100 916.652,-99.3545 915.271,-98.6921 913.878,-98.0221"/>
<polygon fill="midnightblue" stroke="midnightblue" points="915.22,-94.7839 904.693,-93.5922 912.179,-101.089 915.22,-94.7839"/>
</g>
<!-- Node17 -->
<g id="node17" class="node"><title>Node17</title>
<g id="a_node17"><a xlink:href="../../d2/dd0/Cartesian2D_8h.html" target="_top" xlink:title="MathUtils/Cartesian2D.h">
<polygon fill="none" stroke="black" points="927.5,-74.5 927.5,-93.5 1052.5,-93.5 1052.5,-74.5 927.5,-74.5"/>
<text text-anchor="middle" x="990" y="-81.5" font-family="Helvetica,sans-Serif" font-size="10.00">MathUtils/Cartesian2D.h</text>
</a>
</g>
</g>
<!-- Node9&#45;&gt;Node17 -->
<g id="edge18" class="edge"><title>Node9&#45;&gt;Node17</title>
<path fill="none" stroke="midnightblue" d="M1009.7,-136.403C1006.39,-127.76 1001.18,-114.17 996.951,-103.134"/>
<polygon fill="midnightblue" stroke="midnightblue" points="1000.14,-101.665 993.289,-93.5806 993.601,-104.171 1000.14,-101.665"/>
</g>
<!-- Node18 -->
<g id="node18" class="node"><title>Node18</title>
<polygon fill="none" stroke="#bfbfbf" points="823.5,-1 823.5,-31 974.5,-31 974.5,-1 823.5,-1"/>
<text text-anchor="start" x="831.5" y="-19" font-family="Helvetica,sans-Serif" font-size="10.00">Math/GenVector/Displacement</text>
<text text-anchor="middle" x="899" y="-8" font-family="Helvetica,sans-Serif" font-size="10.00">Vector2D.h</text>
</g>
<!-- Node17&#45;&gt;Node18 -->
<g id="edge19" class="edge"><title>Node17&#45;&gt;Node18</title>
<path fill="none" stroke="midnightblue" d="M978.103,-74.3717C965.221,-65.0286 944.22,-49.7966 927.093,-37.375"/>
<polygon fill="midnightblue" stroke="midnightblue" points="928.703,-34.2194 918.553,-31.1815 924.593,-39.8859 928.703,-34.2194"/>
</g>
<!-- Node19 -->
<g id="node19" class="node"><title>Node19</title>
<polygon fill="none" stroke="#bfbfbf" points="993,-6.5 993,-25.5 1169,-25.5 1169,-6.5 993,-6.5"/>
<text text-anchor="middle" x="1081" y="-13.5" font-family="Helvetica,sans-Serif" font-size="10.00">Math/GenVector/PositionVector2D.h</text>
</g>
<!-- Node17&#45;&gt;Node19 -->
<g id="edge20" class="edge"><title>Node17&#45;&gt;Node19</title>
<path fill="none" stroke="midnightblue" d="M1001.9,-74.3717C1016.88,-63.5015 1042.86,-44.6602 1060.94,-31.5474"/>
<polygon fill="midnightblue" stroke="midnightblue" points="1063.06,-34.3349 1069.1,-25.6305 1058.95,-28.6684 1063.06,-34.3349"/>
</g>
<!-- Node21 -->
<g id="node21" class="node"><title>Node21</title>
<g id="a_node21"><a xlink:href="../../de/d61/ShmManager_8h.html" target="_top" xlink:title="CommonUtils/ShmManager.h">
<polygon fill="none" stroke="black" points="115,-136.5 115,-155.5 261,-155.5 261,-136.5 115,-136.5"/>
<text text-anchor="middle" x="188" y="-143.5" font-family="Helvetica,sans-Serif" font-size="10.00">CommonUtils/ShmManager.h</text>
</a>
</g>
</g>
<!-- Node20&#45;&gt;Node21 -->
<g id="edge22" class="edge"><title>Node20&#45;&gt;Node21</title>
<path fill="none" stroke="midnightblue" d="M577.435,-198.467C494.309,-187.481 350.157,-168.43 262.483,-156.844"/>
<polygon fill="midnightblue" stroke="midnightblue" points="262.715,-153.344 252.342,-155.503 261.797,-160.283 262.715,-153.344"/>
</g>
<!-- Node26 -->
<g id="node26" class="node"><title>Node26</title>
<polygon fill="none" stroke="#bfbfbf" points="617.5,-136.5 617.5,-155.5 666.5,-155.5 666.5,-136.5 617.5,-136.5"/>
<text text-anchor="middle" x="642" y="-143.5" font-family="Helvetica,sans-Serif" font-size="10.00">cassert</text>
</g>
<!-- Node20&#45;&gt;Node26 -->
<g id="edge27" class="edge"><title>Node20&#45;&gt;Node26</title>
<path fill="none" stroke="midnightblue" d="M642,-198.403C642,-189.938 642,-176.728 642,-165.82"/>
<polygon fill="midnightblue" stroke="midnightblue" points="645.5,-165.581 642,-155.581 638.5,-165.581 645.5,-165.581"/>
</g>
<!-- Node22 -->
<g id="node22" class="node"><title>Node22</title>
<polygon fill="none" stroke="#bfbfbf" points="-0.5,-74.5 -0.5,-93.5 28.5,-93.5 28.5,-74.5 -0.5,-74.5"/>
<text text-anchor="middle" x="14" y="-81.5" font-family="Helvetica,sans-Serif" font-size="10.00">list</text>
</g>
<!-- Node21&#45;&gt;Node22 -->
<g id="edge23" class="edge"><title>Node21&#45;&gt;Node22</title>
<path fill="none" stroke="midnightblue" d="M148.073,-136.436C116.955,-128.977 73.115,-116.728 37,-100 36.1673,-99.6143 35.3298,-99.2018 34.4929,-98.7687"/>
<polygon fill="midnightblue" stroke="midnightblue" points="36.1856,-95.7035 25.797,-93.6232 32.6209,-101.728 36.1856,-95.7035"/>
</g>
<!-- Node23 -->
<g id="node23" class="node"><title>Node23</title>
<polygon fill="none" stroke="#bfbfbf" points="46.5,-74.5 46.5,-93.5 95.5,-93.5 95.5,-74.5 46.5,-74.5"/>
<text text-anchor="middle" x="71" y="-81.5" font-family="Helvetica,sans-Serif" font-size="10.00">cstddef</text>
</g>
<!-- Node21&#45;&gt;Node23 -->
<g id="edge24" class="edge"><title>Node21&#45;&gt;Node23</title>
<path fill="none" stroke="midnightblue" d="M171.237,-136.403C151.775,-126.423 119.455,-109.849 96.7893,-98.2253"/>
<polygon fill="midnightblue" stroke="midnightblue" points="98.2275,-95.0294 87.7322,-93.5806 95.0332,-101.258 98.2275,-95.0294"/>
</g>
<!-- Node24 -->
<g id="node24" class="node"><title>Node24</title>
<polygon fill="none" stroke="#bfbfbf" points="114,-69 114,-99 262,-99 262,-69 114,-69"/>
<text text-anchor="start" x="122" y="-87" font-family="Helvetica,sans-Serif" font-size="10.00">boost/interprocess</text>
<text text-anchor="middle" x="188" y="-76" font-family="Helvetica,sans-Serif" font-size="10.00">/managed_external_buffer.hpp</text>
</g>
<!-- Node21&#45;&gt;Node24 -->
<g id="edge25" class="edge"><title>Node21&#45;&gt;Node24</title>
<path fill="none" stroke="midnightblue" d="M188,-136.403C188,-129.341 188,-118.975 188,-109.399"/>
<polygon fill="midnightblue" stroke="midnightblue" points="191.5,-109.141 188,-99.1408 184.5,-109.141 191.5,-109.141"/>
</g>
<!-- Node25 -->
<g id="node25" class="node"><title>Node25</title>
<polygon fill="none" stroke="#bfbfbf" points="280,-69 280,-99 400,-99 400,-69 280,-69"/>
<text text-anchor="start" x="288" y="-87" font-family="Helvetica,sans-Serif" font-size="10.00">boost/interprocess</text>
<text text-anchor="middle" x="340" y="-76" font-family="Helvetica,sans-Serif" font-size="10.00">/allocators/allocator.hpp</text>
</g>
<!-- Node21&#45;&gt;Node25 -->
<g id="edge26" class="edge"><title>Node21&#45;&gt;Node25</title>
<path fill="none" stroke="midnightblue" d="M209.778,-136.403C231.881,-127.679 266.75,-113.914 294.846,-102.824"/>
<polygon fill="midnightblue" stroke="midnightblue" points="296.453,-105.953 304.469,-99.0253 293.883,-99.4415 296.453,-105.953"/>
</g>
<!-- Node28 -->
<g id="node28" class="node"><title>Node28</title>
<polygon fill="none" stroke="#bfbfbf" points="824.5,-266.5 824.5,-285.5 865.5,-285.5 865.5,-266.5 824.5,-266.5"/>
<text text-anchor="middle" x="845" y="-273.5" font-family="Helvetica,sans-Serif" font-size="10.00">string</text>
</g>
<!-- Node27&#45;&gt;Node28 -->
<g id="edge29" class="edge"><title>Node27&#45;&gt;Node28</title>
<path fill="none" stroke="midnightblue" d="M948.543,-328.396C930.216,-319.356 900.566,-304.713 875,-292 873.827,-291.417 872.628,-290.82 871.417,-290.217"/>
<polygon fill="midnightblue" stroke="midnightblue" points="872.638,-286.914 862.127,-285.58 869.512,-293.177 872.638,-286.914"/>
</g>
<!-- Node29 -->
<g id="node29" class="node"><title>Node29</title>
<polygon fill="none" stroke="#bfbfbf" points="884,-266.5 884,-285.5 964,-285.5 964,-266.5 884,-266.5"/>
<text text-anchor="middle" x="924" y="-273.5" font-family="Helvetica,sans-Serif" font-size="10.00">RStringView.h</text>
</g>
<!-- Node27&#45;&gt;Node29 -->
<g id="edge30" class="edge"><title>Node27&#45;&gt;Node29</title>
<path fill="none" stroke="midnightblue" d="M959.982,-328.403C953.682,-319.403 943.629,-305.041 935.748,-293.782"/>
<polygon fill="midnightblue" stroke="midnightblue" points="938.608,-291.766 930.006,-285.581 932.874,-295.78 938.608,-291.766"/>
</g>
<!-- Node30 -->
<g id="node30" class="node"><title>Node30</title>
<polygon fill="none" stroke="#bfbfbf" points="982.5,-266.5 982.5,-285.5 1035.5,-285.5 1035.5,-266.5 982.5,-266.5"/>
<text text-anchor="middle" x="1009" y="-273.5" font-family="Helvetica,sans-Serif" font-size="10.00">TMath.h</text>
</g>
<!-- Node27&#45;&gt;Node30 -->
<g id="edge31" class="edge"><title>Node27&#45;&gt;Node30</title>
<path fill="none" stroke="midnightblue" d="M972.161,-328.403C978.611,-319.403 988.904,-305.041 996.973,-293.782"/>
<polygon fill="midnightblue" stroke="midnightblue" points="999.87,-295.748 1002.85,-285.581 994.18,-291.67 999.87,-295.748"/>
</g>
</g>
</svg>
