<?xml version="1.0" encoding="UTF-8" standalone="no"?>
<!DOCTYPE svg PUBLIC "-//W3C//DTD SVG 1.1//EN"
 "http://www.w3.org/Graphics/SVG/1.1/DTD/svg11.dtd">
<!-- Generated by graphviz version 2.36.0 (20140111.2315)
 -->
<!-- Title: /home/travis/build/AliceO2Group/AliceO2/Detectors/ITSMFT/ITS/tracking/include/ITStracking/Vertexer.h Pages: 1 -->
<!--zoomable 456 -->
<svg id="main" version="1.1" xmlns="http://www.w3.org/2000/svg" xmlns:xlink="http://www.w3.org/1999/xlink" xml:space="preserve" onload="init(evt)">
<style type="text/css"><![CDATA[
.edge:hover path { stroke: red; }
.edge:hover polygon { stroke: red; fill: red; }
]]></style>
<script type="text/javascript"><![CDATA[
var edges = document.getElementsByTagName('g');
if (edges && edges.length) {
  for (var i=0;i<edges.length;i++) {
    if (edges[i].id.substr(0,4)=='edge') {
      edges[i].setAttribute('class','edge');
    }
  }
}
]]></script>
        <defs>
                <circle id="rim" cx="0" cy="0" r="7"/>
                <circle id="rim2" cx="0" cy="0" r="3.5"/>
                <g id="zoomPlus">
                        <use xlink:href="#rim" fill="#404040">
                                <set attributeName="fill" to="#808080" begin="zoomplus.mouseover" end="zoomplus.mouseout"/>
                        </use>
                        <path d="M-4,0h8M0,-4v8" fill="none" stroke="white" stroke-width="1.5" pointer-events="none"/>
                </g>
                <g id="zoomMin">
                        <use xlink:href="#rim" fill="#404040">
                                <set attributeName="fill" to="#808080" begin="zoomminus.mouseover" end="zoomminus.mouseout"/>
                        </use>
                        <path d="M-4,0h8" fill="none" stroke="white" stroke-width="1.5" pointer-events="none"/>
                </g>
                <g id="dirArrow">
                        <path fill="none" stroke="white" stroke-width="1.5" d="M0,-3.0v7 M-2.5,-0.5L0,-3.0L2.5,-0.5"/>
                </g>
               <g id="resetDef">
                       <use xlink:href="#rim2" fill="#404040">
                               <set attributeName="fill" to="#808080" begin="reset.mouseover" end="reset.mouseout"/>
                       </use>
               </g>
        </defs>

<script type="text/javascript">
var viewWidth = 2527;
var viewHeight = 456;
var sectionId = 'dynsection-0';
</script>
<script xlink:href="../../svgpan.js"/>
<svg id="graph" class="graph">
<g id="viewport">
<title>/home/travis/build/AliceO2Group/AliceO2/Detectors/ITSMFT/ITS/tracking/include/ITStracking/Vertexer.h</title>
<!-- Node1 -->
<g id="node1" class="node"><title>Node1</title>
<polygon fill="#bfbfbf" stroke="black" points="382.5,-384.5 382.5,-447.5 523.5,-447.5 523.5,-384.5 382.5,-384.5"/>
<text text-anchor="start" x="390.5" y="-435.5" font-family="Helvetica,sans-Serif" font-size="10.00">/home/travis/build</text>
<text text-anchor="start" x="390.5" y="-424.5" font-family="Helvetica,sans-Serif" font-size="10.00">/AliceO2Group/AliceO2</text>
<text text-anchor="start" x="390.5" y="-413.5" font-family="Helvetica,sans-Serif" font-size="10.00">/Detectors/ITSMFT/ITS</text>
<text text-anchor="start" x="390.5" y="-402.5" font-family="Helvetica,sans-Serif" font-size="10.00">/tracking/include/ITStracking</text>
<text text-anchor="middle" x="453" y="-391.5" font-family="Helvetica,sans-Serif" font-size="10.00">/Vertexer.h</text>
</g>
<!-- Node2 -->
<g id="node2" class="node"><title>Node2</title>
<polygon fill="none" stroke="#bfbfbf" points="177,-56.5 177,-75.5 221,-75.5 221,-56.5 177,-56.5"/>
<text text-anchor="middle" x="199" y="-63.5" font-family="Helvetica,sans-Serif" font-size="10.00">vector</text>
</g>
<!-- Node1&#45;&gt;Node2 -->
<g id="edge1" class="edge"><title>Node1&#45;&gt;Node2</title>
<path fill="none" stroke="midnightblue" d="M382.315,-409.213C295.897,-397.825 161,-364.166 161,-265 161,-265 161,-265 161,-195 161,-154.231 178.935,-109.065 190.163,-84.7866"/>
<polygon fill="midnightblue" stroke="midnightblue" points="193.335,-86.2655 194.492,-75.734 187.02,-83.2455 193.335,-86.2655"/>
</g>
<!-- Node3 -->
<g id="node3" class="node"><title>Node3</title>
<polygon fill="none" stroke="#bfbfbf" points="658,-0.5 658,-19.5 696,-19.5 696,-0.5 658,-0.5"/>
<text text-anchor="middle" x="677" y="-7.5" font-family="Helvetica,sans-Serif" font-size="10.00">array</text>
</g>
<!-- Node1&#45;&gt;Node3 -->
<g id="edge2" class="edge"><title>Node1&#45;&gt;Node3</title>
<path fill="none" stroke="midnightblue" d="M523.677,-415.128C705.085,-413.563 1173,-396.754 1173,-265 1173,-265 1173,-265 1173,-127 1173,-30.4937 812.481,-14.2266 706.169,-11.5277"/>
<polygon fill="midnightblue" stroke="midnightblue" points="706.218,-8.02801 696.14,-11.2949 706.056,-15.0261 706.218,-8.02801"/>
</g>
<!-- Node4 -->
<g id="node4" class="node"><title>Node4</title>
<polygon fill="none" stroke="#bfbfbf" points="1476,-322.5 1476,-341.5 1514,-341.5 1514,-322.5 1476,-322.5"/>
<text text-anchor="middle" x="1495" y="-329.5" font-family="Helvetica,sans-Serif" font-size="10.00">tuple</text>
</g>
<!-- Node1&#45;&gt;Node4 -->
<g id="edge3" class="edge"><title>Node1&#45;&gt;Node4</title>
<path fill="none" stroke="midnightblue" d="M523.627,-414.207C723.37,-411.353 1289.34,-398.876 1467,-348 1468.91,-347.453 1470.83,-346.764 1472.73,-345.983"/>
<polygon fill="midnightblue" stroke="midnightblue" points="1474.37,-349.078 1481.82,-341.546 1471.3,-342.787 1474.37,-349.078"/>
</g>
<!-- Node5 -->
<g id="node5" class="node"><title>Node5</title>
<g id="a_node5"><a xlink:href="../../d0/d86/Detectors_2ITSMFT_2ITS_2tracking_2include_2ITStracking_2Constants_8h.html" target="_top" xlink:title="ITStracking/Constants.h">
<polygon fill="none" stroke="black" points="399.5,-118.5 399.5,-137.5 522.5,-137.5 522.5,-118.5 399.5,-118.5"/>
<text text-anchor="middle" x="461" y="-125.5" font-family="Helvetica,sans-Serif" font-size="10.00">ITStracking/Constants.h</text>
</a>
</g>
</g>
<!-- Node1&#45;&gt;Node5 -->
<g id="edge4" class="edge"><title>Node1&#45;&gt;Node5</title>
<path fill="none" stroke="midnightblue" d="M433.98,-384.349C407.933,-338.15 367.858,-248.769 400,-180 407.314,-164.353 422.05,-151.817 435.207,-143.09"/>
<polygon fill="midnightblue" stroke="midnightblue" points="437.299,-145.911 443.952,-137.665 433.609,-139.963 437.299,-145.911"/>
</g>
<!-- Node7 -->
<g id="node7" class="node"><title>Node7</title>
<g id="a_node7"><a xlink:href="../../df/d3d/Definitions_8h.html" target="_top" xlink:title="ITStracking/Definitions.h">
<polygon fill="none" stroke="black" points="334.5,-56.5 334.5,-75.5 459.5,-75.5 459.5,-56.5 334.5,-56.5"/>
<text text-anchor="middle" x="397" y="-63.5" font-family="Helvetica,sans-Serif" font-size="10.00">ITStracking/Definitions.h</text>
</a>
</g>
</g>
<!-- Node1&#45;&gt;Node7 -->
<g id="edge10" class="edge"><title>Node1&#45;&gt;Node7</title>
<path fill="none" stroke="midnightblue" d="M382.274,-397.598C319.279,-377.367 237,-337.136 237,-265 237,-265 237,-265 237,-195 237,-152.387 252.802,-139.914 285,-112 303.261,-96.1679 327.802,-85.4675 349.257,-78.4884"/>
<polygon fill="midnightblue" stroke="midnightblue" points="350.331,-81.8198 358.864,-75.5386 348.277,-75.1281 350.331,-81.8198"/>
</g>
<!-- Node9 -->
<g id="node9" class="node"><title>Node9</title>
<g id="a_node9"><a xlink:href="../../df/d50/ClusterLines_8h.html" target="_top" xlink:title="ITStracking/ClusterLines.h">
<polygon fill="none" stroke="black" points="-0.5,-118.5 -0.5,-137.5 132.5,-137.5 132.5,-118.5 -0.5,-118.5"/>
<text text-anchor="middle" x="66" y="-125.5" font-family="Helvetica,sans-Serif" font-size="10.00">ITStracking/ClusterLines.h</text>
</a>
</g>
</g>
<!-- Node1&#45;&gt;Node9 -->
<g id="edge11" class="edge"><title>Node1&#45;&gt;Node9</title>
<path fill="none" stroke="midnightblue" d="M382.306,-407.409C303.198,-397.586 181.566,-378.075 147,-348 85.6497,-294.619 70.7112,-190.419 67.1188,-147.825"/>
<polygon fill="midnightblue" stroke="midnightblue" points="70.6024,-147.471 66.3898,-137.75 63.6207,-147.976 70.6024,-147.471"/>
</g>
<!-- Node10 -->
<g id="node10" class="node"><title>Node10</title>
<g id="a_node10"><a xlink:href="../../dc/d42/ROframe_8h.html" target="_top" xlink:title="ITStracking/ROframe.h">
<polygon fill="none" stroke="black" points="573,-322.5 573,-341.5 691,-341.5 691,-322.5 573,-322.5"/>
<text text-anchor="middle" x="632" y="-329.5" font-family="Helvetica,sans-Serif" font-size="10.00">ITStracking/ROframe.h</text>
</a>
</g>
</g>
<!-- Node1&#45;&gt;Node10 -->
<g id="edge14" class="edge"><title>Node1&#45;&gt;Node10</title>
<path fill="none" stroke="midnightblue" d="M519.653,-384.466C548.746,-371.139 581.29,-356.23 603.833,-345.903"/>
<polygon fill="midnightblue" stroke="midnightblue" points="605.506,-348.987 613.14,-341.64 602.591,-342.623 605.506,-348.987"/>
</g>
<!-- Node24 -->
<g id="node24" class="node"><title>Node24</title>
<g id="a_node24"><a xlink:href="../../d3/d6f/DataFormats_2Reconstruction_2include_2ReconstructionDataFormats_2Vertex_8h.html" target="_top" xlink:title="ReconstructionDataFormats\l/Vertex.h">
<polygon fill="none" stroke="black" points="1318,-317 1318,-347 1458,-347 1458,-317 1318,-317"/>
<text text-anchor="start" x="1326" y="-335" font-family="Helvetica,sans-Serif" font-size="10.00">ReconstructionDataFormats</text>
<text text-anchor="middle" x="1388" y="-324" font-family="Helvetica,sans-Serif" font-size="10.00">/Vertex.h</text>
</a>
</g>
</g>
<!-- Node1&#45;&gt;Node24 -->
<g id="edge42" class="edge"><title>Node1&#45;&gt;Node24</title>
<path fill="none" stroke="midnightblue" d="M523.66,-408.803C694.244,-393.843 1127.75,-355.824 1307.75,-340.038"/>
<polygon fill="midnightblue" stroke="midnightblue" points="1308.29,-343.504 1317.94,-339.144 1307.67,-336.531 1308.29,-343.504"/>
</g>
<!-- Node5&#45;&gt;Node2 -->
<g id="edge6" class="edge"><title>Node5&#45;&gt;Node2</title>
<path fill="none" stroke="midnightblue" d="M423.74,-118.467C372.145,-106.652 279.811,-85.5064 231.106,-74.3525"/>
<polygon fill="midnightblue" stroke="midnightblue" points="231.652,-70.887 221.123,-72.0663 230.089,-77.7103 231.652,-70.887"/>
</g>
<!-- Node6 -->
<g id="node6" class="node"><title>Node6</title>
<polygon fill="none" stroke="#bfbfbf" points="477.5,-56.5 477.5,-75.5 522.5,-75.5 522.5,-56.5 477.5,-56.5"/>
<text text-anchor="middle" x="500" y="-63.5" font-family="Helvetica,sans-Serif" font-size="10.00">climits</text>
</g>
<!-- Node5&#45;&gt;Node6 -->
<g id="edge5" class="edge"><title>Node5&#45;&gt;Node6</title>
<path fill="none" stroke="midnightblue" d="M466.588,-118.403C472.38,-109.493 481.589,-95.3247 488.874,-84.1177"/>
<polygon fill="midnightblue" stroke="midnightblue" points="491.907,-85.8725 494.423,-75.5806 486.038,-82.0576 491.907,-85.8725"/>
</g>
<!-- Node5&#45;&gt;Node7 -->
<g id="edge7" class="edge"><title>Node5&#45;&gt;Node7</title>
<path fill="none" stroke="midnightblue" d="M451.83,-118.403C441.85,-109.047 425.688,-93.8948 413.491,-82.4599"/>
<polygon fill="midnightblue" stroke="midnightblue" points="415.842,-79.8666 406.153,-75.5806 411.054,-84.9734 415.842,-79.8666"/>
</g>
<!-- Node7&#45;&gt;Node3 -->
<g id="edge8" class="edge"><title>Node7&#45;&gt;Node3</title>
<path fill="none" stroke="midnightblue" d="M441.367,-56.4435C499.263,-45.2779 598.956,-26.0513 648.014,-16.5902"/>
<polygon fill="midnightblue" stroke="midnightblue" points="648.802,-20.0028 657.958,-14.6723 647.476,-13.1294 648.802,-20.0028"/>
</g>
<!-- Node8 -->
<g id="node8" class="node"><title>Node8</title>
<polygon fill="none" stroke="#bfbfbf" points="330,-0.5 330,-19.5 464,-19.5 464,-0.5 330,-0.5"/>
<text text-anchor="middle" x="397" y="-7.5" font-family="Helvetica,sans-Serif" font-size="10.00">AliTPCCommonDefGPU.h</text>
</g>
<!-- Node7&#45;&gt;Node8 -->
<g id="edge9" class="edge"><title>Node7&#45;&gt;Node8</title>
<path fill="none" stroke="midnightblue" d="M397,-56.083C397,-49.0059 397,-38.8611 397,-29.9865"/>
<polygon fill="midnightblue" stroke="midnightblue" points="400.5,-29.751 397,-19.7511 393.5,-29.7511 400.5,-29.751"/>
</g>
<!-- Node9&#45;&gt;Node2 -->
<g id="edge13" class="edge"><title>Node9&#45;&gt;Node2</title>
<path fill="none" stroke="midnightblue" d="M85.0557,-118.403C107.475,-108.29 144.905,-91.4036 170.713,-79.761"/>
<polygon fill="midnightblue" stroke="midnightblue" points="172.304,-82.8832 179.98,-75.5806 169.425,-76.5025 172.304,-82.8832"/>
</g>
<!-- Node9&#45;&gt;Node3 -->
<g id="edge12" class="edge"><title>Node9&#45;&gt;Node3</title>
<path fill="none" stroke="midnightblue" d="M74.8959,-118.312C91.5494,-102.662 129.262,-70.0586 168,-56 213.158,-39.6116 546.303,-18.7398 647.76,-12.7045"/>
<polygon fill="midnightblue" stroke="midnightblue" points="648.127,-16.189 657.903,-12.1048 647.714,-9.20123 648.127,-16.189"/>
</g>
<!-- Node10&#45;&gt;Node2 -->
<g id="edge16" class="edge"><title>Node10&#45;&gt;Node2</title>
<path fill="none" stroke="midnightblue" d="M572.709,-328.087C522.725,-323.4 450.791,-311.271 396,-280 307.304,-229.379 235.535,-125.34 209.513,-84.2454"/>
<polygon fill="midnightblue" stroke="midnightblue" points="212.409,-82.2742 204.152,-75.6355 206.467,-85.9743 212.409,-82.2742"/>
</g>
<!-- Node10&#45;&gt;Node3 -->
<g id="edge15" class="edge"><title>Node10&#45;&gt;Node3</title>
<path fill="none" stroke="midnightblue" d="M691.206,-325.871C755.435,-319.29 860.516,-305.543 948,-280 982.396,-269.957 988.841,-261.581 1022,-248 1063.02,-231.201 1089.95,-248.562 1115,-212 1219.23,-59.8903 819.372,-20.7121 706.116,-12.7559"/>
<polygon fill="midnightblue" stroke="midnightblue" points="706.29,-9.25978 696.077,-12.0807 705.82,-16.244 706.29,-9.25978"/>
</g>
<!-- Node10&#45;&gt;Node5 -->
<g id="edge33" class="edge"><title>Node10&#45;&gt;Node5</title>
<path fill="none" stroke="midnightblue" d="M589.151,-322.478C535.605,-309.251 446.348,-278.081 408,-212 400.861,-199.699 402.431,-193.087 408,-180 414.295,-165.206 427.218,-152.628 438.727,-143.664"/>
<polygon fill="midnightblue" stroke="midnightblue" points="441.106,-146.261 447.119,-137.537 436.978,-140.607 441.106,-146.261"/>
</g>
<!-- Node11 -->
<g id="node11" class="node"><title>Node11</title>
<polygon fill="none" stroke="#bfbfbf" points="303,-118.5 303,-137.5 343,-137.5 343,-118.5 303,-118.5"/>
<text text-anchor="middle" x="323" y="-125.5" font-family="Helvetica,sans-Serif" font-size="10.00">utility</text>
</g>
<!-- Node10&#45;&gt;Node11 -->
<g id="edge17" class="edge"><title>Node10&#45;&gt;Node11</title>
<path fill="none" stroke="midnightblue" d="M572.576,-326.101C531.089,-320.301 476.017,-307.64 435,-280 383.688,-245.423 346.955,-179.254 331.346,-147.241"/>
<polygon fill="midnightblue" stroke="midnightblue" points="334.313,-145.33 326.871,-137.789 327.986,-148.325 334.313,-145.33"/>
</g>
<!-- Node12 -->
<g id="node12" class="node"><title>Node12</title>
<polygon fill="none" stroke="#bfbfbf" points="756.5,-186.5 756.5,-205.5 805.5,-205.5 805.5,-186.5 756.5,-186.5"/>
<text text-anchor="middle" x="781" y="-193.5" font-family="Helvetica,sans-Serif" font-size="10.00">cassert</text>
</g>
<!-- Node10&#45;&gt;Node12 -->
<g id="edge18" class="edge"><title>Node10&#45;&gt;Node12</title>
<path fill="none" stroke="midnightblue" d="M641.776,-322.208C666.619,-299.866 732.421,-240.688 763.837,-212.435"/>
<polygon fill="midnightblue" stroke="midnightblue" points="766.286,-214.94 771.381,-205.65 761.606,-209.735 766.286,-214.94"/>
</g>
<!-- Node13 -->
<g id="node13" class="node"><title>Node13</title>
<polygon fill="none" stroke="#bfbfbf" points="823.5,-186.5 823.5,-205.5 868.5,-205.5 868.5,-186.5 823.5,-186.5"/>
<text text-anchor="middle" x="846" y="-193.5" font-family="Helvetica,sans-Serif" font-size="10.00">gsl/gsl</text>
</g>
<!-- Node10&#45;&gt;Node13 -->
<g id="edge19" class="edge"><title>Node10&#45;&gt;Node13</title>
<path fill="none" stroke="midnightblue" d="M647.617,-322.46C665.532,-312.569 695.697,-295.627 721,-280 758.341,-256.939 800.671,-228.283 825.252,-211.385"/>
<polygon fill="midnightblue" stroke="midnightblue" points="827.511,-214.078 833.756,-205.52 823.537,-208.316 827.511,-214.078"/>
</g>
<!-- Node14 -->
<g id="node14" class="node"><title>Node14</title>
<g id="a_node14"><a xlink:href="../../da/d7f/Detectors_2ITSMFT_2ITS_2tracking_2include_2ITStracking_2Cluster_8h.html" target="_top" xlink:title="ITStracking/Cluster.h">
<polygon fill="none" stroke="black" points="536,-254.5 536,-273.5 646,-273.5 646,-254.5 536,-254.5"/>
<text text-anchor="middle" x="591" y="-261.5" font-family="Helvetica,sans-Serif" font-size="10.00">ITStracking/Cluster.h</text>
</a>
</g>
</g>
<!-- Node10&#45;&gt;Node14 -->
<g id="edge20" class="edge"><title>Node10&#45;&gt;Node14</title>
<path fill="none" stroke="midnightblue" d="M626.64,-322.372C620.413,-312.348 609.975,-295.546 602,-282.708"/>
<polygon fill="midnightblue" stroke="midnightblue" points="604.742,-280.489 596.492,-273.841 598.796,-284.182 604.742,-280.489"/>
</g>
<!-- Node18 -->
<g id="node18" class="node"><title>Node18</title>
<g id="a_node18"><a xlink:href="../../d7/dcd/MCCompLabel_8h.html" target="_top" xlink:title="SimulationDataFormat\l/MCCompLabel.h">
<polygon fill="none" stroke="black" points="1031,-249 1031,-279 1145,-279 1145,-249 1031,-249"/>
<text text-anchor="start" x="1039" y="-267" font-family="Helvetica,sans-Serif" font-size="10.00">SimulationDataFormat</text>
<text text-anchor="middle" x="1088" y="-256" font-family="Helvetica,sans-Serif" font-size="10.00">/MCCompLabel.h</text>
</a>
</g>
</g>
<!-- Node10&#45;&gt;Node18 -->
<g id="edge34" class="edge"><title>Node10&#45;&gt;Node18</title>
<path fill="none" stroke="midnightblue" d="M691.243,-324.578C767.023,-316.036 902.203,-299.7 1017,-280 1018.26,-279.784 1019.53,-279.562 1020.8,-279.334"/>
<polygon fill="midnightblue" stroke="midnightblue" points="1021.53,-282.76 1030.72,-277.494 1020.25,-275.877 1021.53,-282.76"/>
</g>
<!-- Node20 -->
<g id="node20" class="node"><title>Node20</title>
<g id="a_node20"><a xlink:href="../../db/d14/MCTruthContainer_8h.html" target="_top" xlink:title="Definition of a container to keep Monte Carlo truth external to simulation objects. ">
<polygon fill="none" stroke="black" points="825,-249 825,-279 939,-279 939,-249 825,-249"/>
<text text-anchor="start" x="833" y="-267" font-family="Helvetica,sans-Serif" font-size="10.00">SimulationDataFormat</text>
<text text-anchor="middle" x="882" y="-256" font-family="Helvetica,sans-Serif" font-size="10.00">/MCTruthContainer.h</text>
</a>
</g>
</g>
<!-- Node10&#45;&gt;Node20 -->
<g id="edge36" class="edge"><title>Node10&#45;&gt;Node20</title>
<path fill="none" stroke="midnightblue" d="M664.427,-322.439C703.361,-312.161 769.556,-294.685 818.732,-281.703"/>
<polygon fill="midnightblue" stroke="midnightblue" points="819.864,-285.024 828.639,-279.087 818.077,-278.256 819.864,-285.024"/>
</g>
<!-- Node14&#45;&gt;Node3 -->
<g id="edge21" class="edge"><title>Node14&#45;&gt;Node3</title>
<path fill="none" stroke="midnightblue" d="M592.564,-254.16C595.373,-238.862 601.754,-206.54 610,-180 627.508,-123.65 655.177,-59.4705 668.829,-28.951"/>
<polygon fill="midnightblue" stroke="midnightblue" points="672.113,-30.1825 673.033,-19.6277 665.732,-27.3048 672.113,-30.1825"/>
</g>
<!-- Node14&#45;&gt;Node7 -->
<g id="edge22" class="edge"><title>Node14&#45;&gt;Node7</title>
<path fill="none" stroke="midnightblue" d="M535.954,-260.276C464.205,-253.309 342.209,-228.891 294,-144 286.977,-131.633 286.212,-123.901 294,-112 304.503,-95.9494 322.126,-85.5902 339.853,-78.9182"/>
<polygon fill="midnightblue" stroke="midnightblue" points="341.328,-82.1133 349.667,-75.5781 339.073,-75.4866 341.328,-82.1133"/>
</g>
<!-- Node15 -->
<g id="node15" class="node"><title>Node15</title>
<g id="a_node15"><a xlink:href="../../dc/d3e/MathUtils_8h.html" target="_top" xlink:title="ITStracking/MathUtils.h">
<polygon fill="none" stroke="black" points="619,-186.5 619,-205.5 739,-205.5 739,-186.5 619,-186.5"/>
<text text-anchor="middle" x="679" y="-193.5" font-family="Helvetica,sans-Serif" font-size="10.00">ITStracking/MathUtils.h</text>
</a>
</g>
</g>
<!-- Node14&#45;&gt;Node15 -->
<g id="edge23" class="edge"><title>Node14&#45;&gt;Node15</title>
<path fill="none" stroke="midnightblue" d="M602.504,-254.372C616.866,-243.6 641.664,-225.002 659.125,-211.906"/>
<polygon fill="midnightblue" stroke="midnightblue" points="661.593,-214.431 667.493,-205.63 657.393,-208.83 661.593,-214.431"/>
</g>
<!-- Node17 -->
<g id="node17" class="node"><title>Node17</title>
<g id="a_node17"><a xlink:href="../../d2/d0c/IndexTableUtils_8h.html" target="_top" xlink:title="ITStracking/IndexTableUtils.h">
<polygon fill="none" stroke="black" points="417,-186.5 417,-205.5 563,-205.5 563,-186.5 417,-186.5"/>
<text text-anchor="middle" x="490" y="-193.5" font-family="Helvetica,sans-Serif" font-size="10.00">ITStracking/IndexTableUtils.h</text>
</a>
</g>
</g>
<!-- Node14&#45;&gt;Node17 -->
<g id="edge27" class="edge"><title>Node14&#45;&gt;Node17</title>
<path fill="none" stroke="midnightblue" d="M577.796,-254.372C561.01,-243.403 531.803,-224.317 511.717,-211.191"/>
<polygon fill="midnightblue" stroke="midnightblue" points="513.493,-208.171 503.207,-205.63 509.664,-214.031 513.493,-208.171"/>
</g>
<!-- Node15&#45;&gt;Node3 -->
<g id="edge24" class="edge"><title>Node15&#45;&gt;Node3</title>
<path fill="none" stroke="midnightblue" d="M685.655,-186.191C692.551,-176.464 702.885,-160.046 707,-144 717.491,-103.092 698.787,-54.6026 686.486,-28.9701"/>
<polygon fill="midnightblue" stroke="midnightblue" points="689.475,-27.1226 681.86,-19.7565 683.22,-30.2638 689.475,-27.1226"/>
</g>
<!-- Node15&#45;&gt;Node5 -->
<g id="edge26" class="edge"><title>Node15&#45;&gt;Node5</title>
<path fill="none" stroke="midnightblue" d="M650.5,-186.372C611.633,-174.604 541.911,-153.496 498.739,-140.426"/>
<polygon fill="midnightblue" stroke="midnightblue" points="499.746,-137.074 489.161,-137.526 497.718,-143.773 499.746,-137.074"/>
</g>
<!-- Node16 -->
<g id="node16" class="node"><title>Node16</title>
<polygon fill="none" stroke="#bfbfbf" points="655,-118.5 655,-137.5 699,-137.5 699,-118.5 655,-118.5"/>
<text text-anchor="middle" x="677" y="-125.5" font-family="Helvetica,sans-Serif" font-size="10.00">cmath</text>
</g>
<!-- Node15&#45;&gt;Node16 -->
<g id="edge25" class="edge"><title>Node15&#45;&gt;Node16</title>
<path fill="none" stroke="midnightblue" d="M678.739,-186.372C678.444,-176.643 677.955,-160.528 677.571,-147.85"/>
<polygon fill="midnightblue" stroke="midnightblue" points="681.069,-147.73 677.268,-137.841 674.073,-147.943 681.069,-147.73"/>
</g>
<!-- Node17&#45;&gt;Node2 -->
<g id="edge30" class="edge"><title>Node17&#45;&gt;Node2</title>
<path fill="none" stroke="midnightblue" d="M470.095,-186.481C449.365,-177.241 416.308,-161.454 390,-144 371.601,-131.794 371.451,-122.449 352,-112 313.103,-91.1042 263.295,-78.7796 231.264,-72.4563"/>
<polygon fill="midnightblue" stroke="midnightblue" points="231.6,-68.9579 221.124,-70.5382 230.299,-75.8359 231.6,-68.9579"/>
</g>
<!-- Node17&#45;&gt;Node3 -->
<g id="edge28" class="edge"><title>Node17&#45;&gt;Node3</title>
<path fill="none" stroke="midnightblue" d="M501.325,-186.25C513.506,-176.572 533.126,-160.197 548,-144 580.889,-108.187 578.219,-89.978 613,-56 625.118,-44.1614 640.621,-33.1767 653.332,-25.0241"/>
<polygon fill="midnightblue" stroke="midnightblue" points="655.373,-27.8767 662.007,-19.6165 651.67,-21.9363 655.373,-27.8767"/>
</g>
<!-- Node17&#45;&gt;Node5 -->
<g id="edge31" class="edge"><title>Node17&#45;&gt;Node5</title>
<path fill="none" stroke="midnightblue" d="M486.209,-186.372C481.848,-176.446 474.566,-159.874 468.947,-147.086"/>
<polygon fill="midnightblue" stroke="midnightblue" points="472.112,-145.588 464.885,-137.841 465.703,-148.404 472.112,-145.588"/>
</g>
<!-- Node17&#45;&gt;Node7 -->
<g id="edge32" class="edge"><title>Node17&#45;&gt;Node7</title>
<path fill="none" stroke="midnightblue" d="M500.053,-186.485C517.278,-170.859 548.921,-136.923 531,-112 521.035,-98.1416 482.332,-86.0568 449.067,-77.9102"/>
<polygon fill="midnightblue" stroke="midnightblue" points="449.493,-74.4143 438.955,-75.5108 447.877,-81.2252 449.493,-74.4143"/>
</g>
<!-- Node17&#45;&gt;Node11 -->
<g id="edge29" class="edge"><title>Node17&#45;&gt;Node11</title>
<path fill="none" stroke="midnightblue" d="M466.798,-186.498C440.149,-176.642 395.184,-159.733 357,-144 355.166,-143.244 353.282,-142.454 351.386,-141.647"/>
<polygon fill="midnightblue" stroke="midnightblue" points="352.558,-138.341 341.99,-137.576 349.774,-144.763 352.558,-138.341"/>
</g>
<!-- Node19 -->
<g id="node19" class="node"><title>Node19</title>
<polygon fill="none" stroke="#bfbfbf" points="1239,-186.5 1239,-205.5 1295,-205.5 1295,-186.5 1239,-186.5"/>
<text text-anchor="middle" x="1267" y="-193.5" font-family="Helvetica,sans-Serif" font-size="10.00">Rtypes.h</text>
</g>
<!-- Node18&#45;&gt;Node19 -->
<g id="edge35" class="edge"><title>Node18&#45;&gt;Node19</title>
<path fill="none" stroke="midnightblue" d="M1126.4,-248.841C1158.43,-237.033 1203.58,-220.384 1234,-209.168"/>
<polygon fill="midnightblue" stroke="midnightblue" points="1235.54,-212.33 1243.71,-205.587 1233.12,-205.762 1235.54,-212.33"/>
</g>
<!-- Node20&#45;&gt;Node12 -->
<g id="edge38" class="edge"><title>Node20&#45;&gt;Node12</title>
<path fill="none" stroke="midnightblue" d="M860.085,-248.679C843.147,-237.611 819.813,-222.363 802.884,-211.3"/>
<polygon fill="midnightblue" stroke="midnightblue" points="804.504,-208.178 794.219,-205.638 800.675,-214.038 804.504,-208.178"/>
</g>
<!-- Node20&#45;&gt;Node13 -->
<g id="edge40" class="edge"><title>Node20&#45;&gt;Node13</title>
<path fill="none" stroke="midnightblue" d="M874.189,-248.679C868.742,-238.694 861.44,-225.307 855.633,-214.66"/>
<polygon fill="midnightblue" stroke="midnightblue" points="858.677,-212.931 850.815,-205.828 852.531,-216.283 858.677,-212.931"/>
</g>
<!-- Node21 -->
<g id="node21" class="node"><title>Node21</title>
<polygon fill="none" stroke="#bfbfbf" points="887,-186.5 887,-205.5 949,-205.5 949,-186.5 887,-186.5"/>
<text text-anchor="middle" x="918" y="-193.5" font-family="Helvetica,sans-Serif" font-size="10.00">TNamed.h</text>
</g>
<!-- Node20&#45;&gt;Node21 -->
<g id="edge37" class="edge"><title>Node20&#45;&gt;Node21</title>
<path fill="none" stroke="midnightblue" d="M889.811,-248.679C895.258,-238.694 902.56,-225.307 908.367,-214.66"/>
<polygon fill="midnightblue" stroke="midnightblue" points="911.469,-216.283 913.185,-205.828 905.323,-212.931 911.469,-216.283"/>
</g>
<!-- Node22 -->
<g id="node22" class="node"><title>Node22</title>
<polygon fill="none" stroke="#bfbfbf" points="967.5,-186.5 967.5,-205.5 1026.5,-205.5 1026.5,-186.5 967.5,-186.5"/>
<text text-anchor="middle" x="997" y="-193.5" font-family="Helvetica,sans-Serif" font-size="10.00">stdexcept</text>
</g>
<!-- Node20&#45;&gt;Node22 -->
<g id="edge39" class="edge"><title>Node20&#45;&gt;Node22</title>
<path fill="none" stroke="midnightblue" d="M906.67,-248.841C926.294,-237.579 953.591,-221.913 973.029,-210.757"/>
<polygon fill="midnightblue" stroke="midnightblue" points="974.942,-213.695 981.872,-205.682 971.457,-207.624 974.942,-213.695"/>
</g>
<!-- Node23 -->
<g id="node23" class="node"><title>Node23</title>
<polygon fill="none" stroke="#bfbfbf" points="1045,-186.5 1045,-205.5 1107,-205.5 1107,-186.5 1045,-186.5"/>
<text text-anchor="middle" x="1076" y="-193.5" font-family="Helvetica,sans-Serif" font-size="10.00">type_traits</text>
</g>
<!-- Node20&#45;&gt;Node23 -->
<g id="edge41" class="edge"><title>Node20&#45;&gt;Node23</title>
<path fill="none" stroke="midnightblue" d="M925.31,-248.934C956.009,-238.873 998.128,-224.887 1035,-212 1037.75,-211.039 1040.6,-210.028 1043.45,-209.004"/>
<polygon fill="midnightblue" stroke="midnightblue" points="1044.85,-212.223 1053.06,-205.527 1042.46,-205.641 1044.85,-212.223"/>
</g>
<!-- Node24&#45;&gt;Node3 -->
<g id="edge57" class="edge"><title>Node24&#45;&gt;Node3</title>
<path fill="none" stroke="midnightblue" d="M1317.79,-323.956C1286.85,-317.323 1252.49,-304.544 1230,-280 1204.43,-252.1 1211,-234.843 1211,-197 1211,-197 1211,-197 1211,-127 1211,-93.6904 1213.18,-76.5911 1187,-56 1149.12,-26.2122 809.48,-14.6004 706.479,-11.7455"/>
<polygon fill="midnightblue" stroke="midnightblue" points="706.279,-8.2389 696.188,-11.4678 706.09,-15.2363 706.279,-8.2389"/>
</g>
<!-- Node25 -->
<g id="node25" class="node"><title>Node25</title>
<g id="a_node25"><a xlink:href="../../dd/d76/Cartesian3D_8h.html" target="_top" xlink:title="MathUtils/Cartesian3D.h">
<polygon fill="none" stroke="black" points="1773.5,-254.5 1773.5,-273.5 1898.5,-273.5 1898.5,-254.5 1773.5,-254.5"/>
<text text-anchor="middle" x="1836" y="-261.5" font-family="Helvetica,sans-Serif" font-size="10.00">MathUtils/Cartesian3D.h</text>
</a>
</g>
</g>
<!-- Node24&#45;&gt;Node25 -->
<g id="edge43" class="edge"><title>Node24&#45;&gt;Node25</title>
<path fill="none" stroke="midnightblue" d="M1458.18,-317.485C1461.16,-316.972 1464.11,-316.474 1467,-316 1569.4,-299.213 1688.4,-283.434 1762.96,-273.995"/>
<polygon fill="midnightblue" stroke="midnightblue" points="1763.69,-277.429 1773.18,-272.705 1762.82,-270.485 1763.69,-277.429"/>
</g>
<!-- Node32 -->
<g id="node32" class="node"><title>Node32</title>
<polygon fill="none" stroke="#bfbfbf" points="2433.5,-186.5 2433.5,-205.5 2478.5,-205.5 2478.5,-186.5 2433.5,-186.5"/>
<text text-anchor="middle" x="2456" y="-193.5" font-family="Helvetica,sans-Serif" font-size="10.00">iosfwd</text>
</g>
<!-- Node24&#45;&gt;Node32 -->
<g id="edge60" class="edge"><title>Node24&#45;&gt;Node32</title>
<path fill="none" stroke="midnightblue" d="M1458.15,-317.281C1461.13,-316.823 1464.09,-316.394 1467,-316 1890.97,-258.571 2013.37,-332.108 2424,-212 2426.29,-211.331 2428.61,-210.521 2430.92,-209.627"/>
<polygon fill="midnightblue" stroke="midnightblue" points="2432.33,-212.831 2440.1,-205.63 2429.53,-206.413 2432.33,-212.831"/>
</g>
<!-- Node36 -->
<g id="node36" class="node"><title>Node36</title>
<g id="a_node36"><a xlink:href="../../df/d5d/common_2include_2CommonDataFormat_2TimeStamp_8h.html" target="_top" xlink:title="CommonDataFormat/TimeStamp.h">
<polygon fill="none" stroke="black" points="1239,-254.5 1239,-273.5 1409,-273.5 1409,-254.5 1239,-254.5"/>
<text text-anchor="middle" x="1324" y="-261.5" font-family="Helvetica,sans-Serif" font-size="10.00">CommonDataFormat/TimeStamp.h</text>
</a>
</g>
</g>
<!-- Node24&#45;&gt;Node36 -->
<g id="edge55" class="edge"><title>Node24&#45;&gt;Node36</title>
<path fill="none" stroke="midnightblue" d="M1374.11,-316.679C1363.94,-306.184 1350.12,-291.932 1339.57,-281.052"/>
<polygon fill="midnightblue" stroke="midnightblue" points="1342.03,-278.571 1332.56,-273.828 1337.01,-283.444 1342.03,-278.571"/>
</g>
<!-- Node37 -->
<g id="node37" class="node"><title>Node37</title>
<polygon fill="none" stroke="#bfbfbf" points="1427,-254.5 1427,-273.5 1477,-273.5 1477,-254.5 1427,-254.5"/>
<text text-anchor="middle" x="1452" y="-261.5" font-family="Helvetica,sans-Serif" font-size="10.00">iomanip</text>
</g>
<!-- Node24&#45;&gt;Node37 -->
<g id="edge58" class="edge"><title>Node24&#45;&gt;Node37</title>
<path fill="none" stroke="midnightblue" d="M1401.89,-316.679C1412.06,-306.184 1425.88,-291.932 1436.43,-281.052"/>
<polygon fill="midnightblue" stroke="midnightblue" points="1438.99,-283.444 1443.44,-273.828 1433.97,-278.571 1438.99,-283.444"/>
</g>
<!-- Node38 -->
<g id="node38" class="node"><title>Node38</title>
<polygon fill="none" stroke="#bfbfbf" points="1495.5,-254.5 1495.5,-273.5 1524.5,-273.5 1524.5,-254.5 1495.5,-254.5"/>
<text text-anchor="middle" x="1510" y="-261.5" font-family="Helvetica,sans-Serif" font-size="10.00">ios</text>
</g>
<!-- Node24&#45;&gt;Node38 -->
<g id="edge59" class="edge"><title>Node24&#45;&gt;Node38</title>
<path fill="none" stroke="midnightblue" d="M1416.62,-316.853C1436.34,-306.928 1463.02,-293.134 1486,-280 1486.53,-279.695 1487.07,-279.384 1487.61,-279.069"/>
<polygon fill="midnightblue" stroke="midnightblue" points="1489.66,-281.923 1496.41,-273.755 1486.04,-275.932 1489.66,-281.923"/>
</g>
<!-- Node25&#45;&gt;Node19 -->
<g id="edge49" class="edge"><title>Node25&#45;&gt;Node19</title>
<path fill="none" stroke="midnightblue" d="M1773.35,-259.274C1652.53,-251.713 1391.53,-233.453 1304,-212 1300.93,-211.249 1297.79,-210.29 1294.69,-209.222"/>
<polygon fill="midnightblue" stroke="midnightblue" points="1295.69,-205.856 1285.1,-205.555 1293.19,-212.394 1295.69,-205.856"/>
</g>
<!-- Node26 -->
<g id="node26" class="node"><title>Node26</title>
<polygon fill="none" stroke="#bfbfbf" points="1313.5,-181 1313.5,-211 1464.5,-211 1464.5,-181 1313.5,-181"/>
<text text-anchor="start" x="1321.5" y="-199" font-family="Helvetica,sans-Serif" font-size="10.00">Math/GenVector/Displacement</text>
<text text-anchor="middle" x="1389" y="-188" font-family="Helvetica,sans-Serif" font-size="10.00">Vector3D.h</text>
</g>
<!-- Node25&#45;&gt;Node26 -->
<g id="edge44" class="edge"><title>Node25&#45;&gt;Node26</title>
<path fill="none" stroke="midnightblue" d="M1773.44,-254.858C1703.32,-245.579 1585.97,-229.601 1474.59,-212.06"/>
<polygon fill="midnightblue" stroke="midnightblue" points="1474.94,-208.573 1464.52,-210.467 1473.85,-215.487 1474.94,-208.573"/>
</g>
<!-- Node27 -->
<g id="node27" class="node"><title>Node27</title>
<polygon fill="none" stroke="#bfbfbf" points="1483,-186.5 1483,-205.5 1659,-205.5 1659,-186.5 1483,-186.5"/>
<text text-anchor="middle" x="1571" y="-193.5" font-family="Helvetica,sans-Serif" font-size="10.00">Math/GenVector/PositionVector3D.h</text>
</g>
<!-- Node25&#45;&gt;Node27 -->
<g id="edge45" class="edge"><title>Node25&#45;&gt;Node27</title>
<path fill="none" stroke="midnightblue" d="M1801.63,-254.439C1753.97,-242.57 1667.78,-221.103 1615.33,-208.041"/>
<polygon fill="midnightblue" stroke="midnightblue" points="1615.86,-204.566 1605.31,-205.546 1614.17,-211.359 1615.86,-204.566"/>
</g>
<!-- Node28 -->
<g id="node28" class="node"><title>Node28</title>
<polygon fill="none" stroke="#bfbfbf" points="1676.5,-186.5 1676.5,-205.5 1825.5,-205.5 1825.5,-186.5 1676.5,-186.5"/>
<text text-anchor="middle" x="1751" y="-193.5" font-family="Helvetica,sans-Serif" font-size="10.00">Math/GenVector/Rotation3D.h</text>
</g>
<!-- Node25&#45;&gt;Node28 -->
<g id="edge46" class="edge"><title>Node25&#45;&gt;Node28</title>
<path fill="none" stroke="midnightblue" d="M1824.89,-254.372C1811.02,-243.6 1787.06,-225.002 1770.2,-211.906"/>
<polygon fill="midnightblue" stroke="midnightblue" points="1772.16,-208.999 1762.11,-205.63 1767.87,-214.528 1772.16,-208.999"/>
</g>
<!-- Node29 -->
<g id="node29" class="node"><title>Node29</title>
<polygon fill="none" stroke="#bfbfbf" points="1844,-186.5 1844,-205.5 2000,-205.5 2000,-186.5 1844,-186.5"/>
<text text-anchor="middle" x="1922" y="-193.5" font-family="Helvetica,sans-Serif" font-size="10.00">Math/GenVector/Transform3D.h</text>
</g>
<!-- Node25&#45;&gt;Node29 -->
<g id="edge47" class="edge"><title>Node25&#45;&gt;Node29</title>
<path fill="none" stroke="midnightblue" d="M1847.24,-254.372C1861.28,-243.6 1885.51,-225.002 1902.58,-211.906"/>
<polygon fill="midnightblue" stroke="midnightblue" points="1904.95,-214.495 1910.75,-205.63 1900.69,-208.942 1904.95,-214.495"/>
</g>
<!-- Node30 -->
<g id="node30" class="node"><title>Node30</title>
<polygon fill="none" stroke="#bfbfbf" points="2018,-186.5 2018,-205.5 2178,-205.5 2178,-186.5 2018,-186.5"/>
<text text-anchor="middle" x="2098" y="-193.5" font-family="Helvetica,sans-Serif" font-size="10.00">Math/GenVector/Translation3D.h</text>
</g>
<!-- Node25&#45;&gt;Node30 -->
<g id="edge48" class="edge"><title>Node25&#45;&gt;Node30</title>
<path fill="none" stroke="midnightblue" d="M1869.98,-254.439C1917.1,-242.57 2002.32,-221.103 2054.17,-208.041"/>
<polygon fill="midnightblue" stroke="midnightblue" points="2055.23,-211.382 2064.08,-205.546 2053.52,-204.594 2055.23,-211.382"/>
</g>
<!-- Node31 -->
<g id="node31" class="node"><title>Node31</title>
<polygon fill="none" stroke="#bfbfbf" points="2196,-186.5 2196,-205.5 2272,-205.5 2272,-186.5 2196,-186.5"/>
<text text-anchor="middle" x="2234" y="-193.5" font-family="Helvetica,sans-Serif" font-size="10.00">TGeoMatrix.h</text>
</g>
<!-- Node25&#45;&gt;Node31 -->
<g id="edge50" class="edge"><title>Node25&#45;&gt;Node31</title>
<path fill="none" stroke="midnightblue" d="M1898.71,-257.037C1969.38,-249.592 2087.39,-234.966 2187,-212 2191.23,-211.026 2195.62,-209.85 2199.95,-208.591"/>
<polygon fill="midnightblue" stroke="midnightblue" points="2201.29,-211.84 2209.82,-205.557 2199.23,-205.149 2201.29,-211.84"/>
</g>
<!-- Node25&#45;&gt;Node32 -->
<g id="edge51" class="edge"><title>Node25&#45;&gt;Node32</title>
<path fill="none" stroke="midnightblue" d="M1898.77,-260.34C2029.37,-254.352 2326.28,-238.25 2424,-212 2426.35,-211.369 2428.74,-210.573 2431.1,-209.679"/>
<polygon fill="midnightblue" stroke="midnightblue" points="2432.68,-212.808 2440.47,-205.62 2429.9,-206.385 2432.68,-212.808"/>
</g>
<!-- Node33 -->
<g id="node33" class="node"><title>Node33</title>
<g id="a_node33"><a xlink:href="../../d2/dd0/Cartesian2D_8h.html" target="_top" xlink:title="MathUtils/Cartesian2D.h">
<polygon fill="none" stroke="black" points="2290.5,-186.5 2290.5,-205.5 2415.5,-205.5 2415.5,-186.5 2290.5,-186.5"/>
<text text-anchor="middle" x="2353" y="-193.5" font-family="Helvetica,sans-Serif" font-size="10.00">MathUtils/Cartesian2D.h</text>
</a>
</g>
</g>
<!-- Node25&#45;&gt;Node33 -->
<g id="edge52" class="edge"><title>Node25&#45;&gt;Node33</title>
<path fill="none" stroke="midnightblue" d="M1898.52,-257.649C1984.86,-249.848 2145.3,-233.864 2281,-212 2288.89,-210.729 2297.22,-209.183 2305.31,-207.573"/>
<polygon fill="midnightblue" stroke="midnightblue" points="2306.28,-210.947 2315.38,-205.514 2304.88,-204.089 2306.28,-210.947"/>
</g>
<!-- Node34 -->
<g id="node34" class="node"><title>Node34</title>
<polygon fill="none" stroke="#bfbfbf" points="2368.5,-113 2368.5,-143 2519.5,-143 2519.5,-113 2368.5,-113"/>
<text text-anchor="start" x="2376.5" y="-131" font-family="Helvetica,sans-Serif" font-size="10.00">Math/GenVector/Displacement</text>
<text text-anchor="middle" x="2444" y="-120" font-family="Helvetica,sans-Serif" font-size="10.00">Vector2D.h</text>
</g>
<!-- Node33&#45;&gt;Node34 -->
<g id="edge53" class="edge"><title>Node33&#45;&gt;Node34</title>
<path fill="none" stroke="midnightblue" d="M2364.9,-186.372C2377.78,-177.029 2398.78,-161.797 2415.91,-149.375"/>
<polygon fill="midnightblue" stroke="midnightblue" points="2418.41,-151.886 2424.45,-143.181 2414.3,-146.219 2418.41,-151.886"/>
</g>
<!-- Node35 -->
<g id="node35" class="node"><title>Node35</title>
<polygon fill="none" stroke="#bfbfbf" points="2174,-118.5 2174,-137.5 2350,-137.5 2350,-118.5 2174,-118.5"/>
<text text-anchor="middle" x="2262" y="-125.5" font-family="Helvetica,sans-Serif" font-size="10.00">Math/GenVector/PositionVector2D.h</text>
</g>
<!-- Node33&#45;&gt;Node35 -->
<g id="edge54" class="edge"><title>Node33&#45;&gt;Node35</title>
<path fill="none" stroke="midnightblue" d="M2341.1,-186.372C2326.12,-175.502 2300.14,-156.66 2282.06,-143.547"/>
<polygon fill="midnightblue" stroke="midnightblue" points="2284.05,-140.668 2273.9,-137.63 2279.94,-146.335 2284.05,-140.668"/>
</g>
<!-- Node36&#45;&gt;Node19 -->
<g id="edge56" class="edge"><title>Node36&#45;&gt;Node19</title>
<path fill="none" stroke="midnightblue" d="M1316.55,-254.372C1307.64,-244.053 1292.52,-226.551 1281.32,-213.585"/>
<polygon fill="midnightblue" stroke="midnightblue" points="1283.82,-211.122 1274.64,-205.841 1278.52,-215.697 1283.82,-211.122"/>
</g>
</g>
</svg>
        <g id="navigator" transform="translate(0 0)" fill="#404254">
                <rect fill="#f2f5e9" fill-opacity="0.5" stroke="#606060" stroke-width=".5" x="0" y="0" width="60" height="60"/>
                <use id="zoomplus" xlink:href="#zoomPlus" x="17" y="9" onmousedown="handleZoom(evt,'in')"/>
                <use id="zoomminus" xlink:href="#zoomMin" x="42" y="9" onmousedown="handleZoom(evt,'out')"/>
                <use id="reset" xlink:href="#resetDef" x="30" y="36" onmousedown="handleReset()"/>
                <g id="arrowUp" xlink:href="#dirArrow" transform="translate(30 24)" onmousedown="handlePan(0,-1)">
                  <use xlink:href="#rim" fill="#404040">
                        <set attributeName="fill" to="#808080" begin="arrowUp.mouseover" end="arrowUp.mouseout"/>
                  </use>
                  <path fill="none" stroke="white" stroke-width="1.5" d="M0,-3.0v7 M-2.5,-0.5L0,-3.0L2.5,-0.5"/>
                </g>
                <g id="arrowRight" xlink:href="#dirArrow" transform="rotate(90) translate(36 -43)" onmousedown="handlePan(1,0)">
                  <use xlink:href="#rim" fill="#404040">
                        <set attributeName="fill" to="#808080" begin="arrowRight.mouseover" end="arrowRight.mouseout"/>
                  </use>
                  <path fill="none" stroke="white" stroke-width="1.5" d="M0,-3.0v7 M-2.5,-0.5L0,-3.0L2.5,-0.5"/>
                </g>
                <g id="arrowDown" xlink:href="#dirArrow" transform="rotate(180) translate(-30 -48)" onmousedown="handlePan(0,1)">
                  <use xlink:href="#rim" fill="#404040">
                        <set attributeName="fill" to="#808080" begin="arrowDown.mouseover" end="arrowDown.mouseout"/>
                  </use>
                  <path fill="none" stroke="white" stroke-width="1.5" d="M0,-3.0v7 M-2.5,-0.5L0,-3.0L2.5,-0.5"/>
                </g>
                <g id="arrowLeft" xlink:href="#dirArrow" transform="rotate(270) translate(-36 17)" onmousedown="handlePan(-1,0)">
                  <use xlink:href="#rim" fill="#404040">
                        <set attributeName="fill" to="#808080" begin="arrowLeft.mouseover" end="arrowLeft.mouseout"/>
                  </use>
                  <path fill="none" stroke="white" stroke-width="1.5" d="M0,-3.0v7 M-2.5,-0.5L0,-3.0L2.5,-0.5"/>
                </g>
        </g>
        <svg viewBox="0 0 15 15" width="100%" height="30px" preserveAspectRatio="xMaxYMin meet">
         <g id="arrow_out" transform="scale(0.3 0.3)">
          <a xlink:href="Vertexer_8h__incl_org.svg" target="_base">
           <rect id="button" ry="5" rx="5" y="6" x="6" height="38" width="38"
                fill="#f2f5e9" fill-opacity="0.5" stroke="#606060" stroke-width="1.0"/>
           <path id="arrow"
             d="M 11.500037,31.436501 C 11.940474,20.09759 22.043105,11.32322 32.158766,21.979434 L 37.068811,17.246167 C 37.068811,17.246167 37.088388,32 37.088388,32 L 22.160133,31.978069 C 22.160133,31.978069 26.997745,27.140456 26.997745,27.140456 C 18.528582,18.264221 13.291696,25.230495 11.500037,31.436501 z"
             style="fill:#404040;"/>
          </a>
         </g>
        </svg>
</svg>
