<?xml version="1.0" encoding="UTF-8" standalone="no"?>
<!DOCTYPE svg PUBLIC "-//W3C//DTD SVG 1.1//EN"
 "http://www.w3.org/Graphics/SVG/1.1/DTD/svg11.dtd">
<!-- Generated by graphviz version 2.36.0 (20140111.2315)
 -->
<!-- Title: /home/travis/build/AliceO2Group/AliceO2/Detectors/EMCAL/simulation/src/DigitizerTask.cxx Pages: 1 -->
<svg width="1952pt" height="526pt"
 viewBox="0.00 0.00 1952.00 526.00" xmlns="http://www.w3.org/2000/svg" xmlns:xlink="http://www.w3.org/1999/xlink">
<g id="graph0" class="graph" transform="scale(1 1) rotate(0) translate(4 522)">
<title>/home/travis/build/AliceO2Group/AliceO2/Detectors/EMCAL/simulation/src/DigitizerTask.cxx</title>
<!-- Node1 -->
<g id="node1" class="node"><title>Node1</title>
<polygon fill="#bfbfbf" stroke="black" points="1013.5,-465 1013.5,-517 1160.5,-517 1160.5,-465 1013.5,-465"/>
<text text-anchor="start" x="1021.5" y="-505" font-family="Helvetica,sans-Serif" font-size="10.00">/home/travis/build</text>
<text text-anchor="start" x="1021.5" y="-494" font-family="Helvetica,sans-Serif" font-size="10.00">/AliceO2Group/AliceO2</text>
<text text-anchor="start" x="1021.5" y="-483" font-family="Helvetica,sans-Serif" font-size="10.00">/Detectors/EMCAL/simulation</text>
<text text-anchor="middle" x="1087" y="-472" font-family="Helvetica,sans-Serif" font-size="10.00">/src/DigitizerTask.cxx</text>
</g>
<!-- Node2 -->
<g id="node2" class="node"><title>Node2</title>
<g id="a_node2"><a xlink:href="../../d6/d0e/EMCAL_2simulation_2include_2EMCALSimulation_2DigitizerTask_8h.html" target="_top" xlink:title="EMCALSimulation/Digitizer\lTask.h">
<polygon fill="none" stroke="black" points="653,-397 653,-427 789,-427 789,-397 653,-397"/>
<text text-anchor="start" x="661" y="-415" font-family="Helvetica,sans-Serif" font-size="10.00">EMCALSimulation/Digitizer</text>
<text text-anchor="middle" x="721" y="-404" font-family="Helvetica,sans-Serif" font-size="10.00">Task.h</text>
</a>
</g>
</g>
<!-- Node1&#45;&gt;Node2 -->
<g id="edge1" class="edge"><title>Node1&#45;&gt;Node2</title>
<path fill="none" stroke="midnightblue" d="M1013.37,-474.511C950.761,-461.338 861.163,-442.488 797.689,-429.134"/>
<polygon fill="midnightblue" stroke="midnightblue" points="798.241,-425.674 787.734,-427.04 796.8,-432.524 798.241,-425.674"/>
</g>
<!-- Node4 -->
<g id="node4" class="node"><title>Node4</title>
<polygon fill="none" stroke="#bfbfbf" points="554.5,-340.5 554.5,-359.5 617.5,-359.5 617.5,-340.5 554.5,-340.5"/>
<text text-anchor="middle" x="586" y="-347.5" font-family="Helvetica,sans-Serif" font-size="10.00">FairTask.h</text>
</g>
<!-- Node1&#45;&gt;Node4 -->
<g id="edge74" class="edge"><title>Node1&#45;&gt;Node4</title>
<path fill="none" stroke="midnightblue" d="M1013.07,-486.468C903.658,-480.111 704.982,-463.905 644,-428 620.636,-414.244 603.616,-387.063 594.267,-368.957"/>
<polygon fill="midnightblue" stroke="midnightblue" points="597.41,-367.418 589.871,-359.974 591.123,-370.495 597.41,-367.418"/>
</g>
<!-- Node5 -->
<g id="node5" class="node"><title>Node5</title>
<polygon fill="none" stroke="#bfbfbf" points="609,-74.5 609,-93.5 665,-93.5 665,-74.5 609,-74.5"/>
<text text-anchor="middle" x="637" y="-81.5" font-family="Helvetica,sans-Serif" font-size="10.00">Rtypes.h</text>
</g>
<!-- Node1&#45;&gt;Node5 -->
<g id="edge75" class="edge"><title>Node1&#45;&gt;Node5</title>
<path fill="none" stroke="midnightblue" d="M1013.34,-485.012C814.366,-470.561 281,-424.927 281,-351 281,-351 281,-351 281,-219 281,-178.965 284.487,-160.693 316,-136 359.376,-102.012 523.413,-90.1995 598.748,-86.5092"/>
<polygon fill="midnightblue" stroke="midnightblue" points="598.942,-90.004 608.768,-86.0409 598.616,-83.0116 598.942,-90.004"/>
</g>
<!-- Node6 -->
<g id="node6" class="node"><title>Node6</title>
<g id="a_node6"><a xlink:href="../../d5/d8b/EMCAL_2base_2include_2EMCALBase_2Hit_8h.html" target="_top" xlink:title="EMCALBase/Hit.h">
<polygon fill="none" stroke="black" points="587,-278.5 587,-297.5 685,-297.5 685,-278.5 587,-278.5"/>
<text text-anchor="middle" x="636" y="-285.5" font-family="Helvetica,sans-Serif" font-size="10.00">EMCALBase/Hit.h</text>
</a>
</g>
</g>
<!-- Node1&#45;&gt;Node6 -->
<g id="edge70" class="edge"><title>Node1&#45;&gt;Node6</title>
<path fill="none" stroke="midnightblue" d="M1013.47,-486.491C897.453,-479.958 678.023,-463.265 609,-428 565.934,-405.997 520.553,-381.726 545,-340 555.837,-321.504 576.107,-309.209 594.77,-301.335"/>
<polygon fill="midnightblue" stroke="midnightblue" points="596.279,-304.503 604.325,-297.61 593.737,-297.981 596.279,-304.503"/>
</g>
<!-- Node26 -->
<g id="node26" class="node"><title>Node26</title>
<g id="a_node26"><a xlink:href="../../d8/d19/EMCAL_2simulation_2include_2EMCALSimulation_2Digitizer_8h.html" target="_top" xlink:title="EMCALSimulation/Digitizer.h">
<polygon fill="none" stroke="black" points="1015,-340.5 1015,-359.5 1159,-359.5 1159,-340.5 1015,-340.5"/>
<text text-anchor="middle" x="1087" y="-347.5" font-family="Helvetica,sans-Serif" font-size="10.00">EMCALSimulation/Digitizer.h</text>
</a>
</g>
</g>
<!-- Node1&#45;&gt;Node26 -->
<g id="edge71" class="edge"><title>Node1&#45;&gt;Node26</title>
<path fill="none" stroke="midnightblue" d="M1087,-464.828C1087,-437.408 1087,-394.187 1087,-369.648"/>
<polygon fill="midnightblue" stroke="midnightblue" points="1090.5,-369.532 1087,-359.532 1083.5,-369.532 1090.5,-369.532"/>
</g>
<!-- Node37 -->
<g id="node37" class="node"><title>Node37</title>
<g id="a_node37"><a xlink:href="../../dd/da8/EMCAL_2base_2include_2EMCALBase_2Geometry_8h.html" target="_top" xlink:title="EMCALBase/Geometry.h">
<polygon fill="none" stroke="black" points="1425,-278.5 1425,-297.5 1553,-297.5 1553,-278.5 1425,-278.5"/>
<text text-anchor="middle" x="1489" y="-285.5" font-family="Helvetica,sans-Serif" font-size="10.00">EMCALBase/Geometry.h</text>
</a>
</g>
</g>
<!-- Node1&#45;&gt;Node37 -->
<g id="edge68" class="edge"><title>Node1&#45;&gt;Node37</title>
<path fill="none" stroke="midnightblue" d="M1137.1,-464.95C1223.19,-421.907 1396.3,-335.352 1462.46,-302.27"/>
<polygon fill="midnightblue" stroke="midnightblue" points="1464.4,-305.214 1471.78,-297.612 1461.27,-298.953 1464.4,-305.214"/>
</g>
<!-- Node45 -->
<g id="node45" class="node"><title>Node45</title>
<g id="a_node45"><a xlink:href="../../d5/d5e/GeometryBase_8h.html" target="_top" xlink:title="EMCALBase/GeometryBase.h">
<polygon fill="none" stroke="black" points="1794,-210.5 1794,-229.5 1944,-229.5 1944,-210.5 1794,-210.5"/>
<text text-anchor="middle" x="1869" y="-217.5" font-family="Helvetica,sans-Serif" font-size="10.00">EMCALBase/GeometryBase.h</text>
</a>
</g>
</g>
<!-- Node1&#45;&gt;Node45 -->
<g id="edge69" class="edge"><title>Node1&#45;&gt;Node45</title>
<path fill="none" stroke="midnightblue" d="M1159.87,-464.935C1323.63,-408.601 1715.74,-273.722 1834.4,-232.903"/>
<polygon fill="midnightblue" stroke="midnightblue" points="1835.74,-236.141 1844.06,-229.578 1833.47,-229.522 1835.74,-236.141"/>
</g>
<!-- Node53 -->
<g id="node53" class="node"><title>Node53</title>
<polygon fill="none" stroke="#bfbfbf" points="1647.5,-402.5 1647.5,-421.5 1718.5,-421.5 1718.5,-402.5 1647.5,-402.5"/>
<text text-anchor="middle" x="1683" y="-409.5" font-family="Helvetica,sans-Serif" font-size="10.00">FairLogger.h</text>
</g>
<!-- Node1&#45;&gt;Node53 -->
<g id="edge72" class="edge"><title>Node1&#45;&gt;Node53</title>
<path fill="none" stroke="midnightblue" d="M1160.51,-485.829C1265.98,-478.902 1465.95,-462.257 1633,-428 1637.85,-427.006 1642.91,-425.752 1647.86,-424.396"/>
<polygon fill="midnightblue" stroke="midnightblue" points="1649.16,-427.665 1657.79,-421.518 1647.21,-420.942 1649.16,-427.665"/>
</g>
<!-- Node54 -->
<g id="node54" class="node"><title>Node54</title>
<polygon fill="none" stroke="#bfbfbf" points="1737,-402.5 1737,-421.5 1837,-421.5 1837,-402.5 1737,-402.5"/>
<text text-anchor="middle" x="1787" y="-409.5" font-family="Helvetica,sans-Serif" font-size="10.00">FairRootManager.h</text>
</g>
<!-- Node1&#45;&gt;Node54 -->
<g id="edge73" class="edge"><title>Node1&#45;&gt;Node54</title>
<path fill="none" stroke="midnightblue" d="M1160.9,-486.41C1280.54,-479.801 1523.76,-463.05 1727,-428 1733.39,-426.898 1740.1,-425.482 1746.63,-423.961"/>
<polygon fill="midnightblue" stroke="midnightblue" points="1747.78,-427.283 1756.66,-421.514 1746.12,-420.483 1747.78,-427.283"/>
</g>
<!-- Node3 -->
<g id="node3" class="node"><title>Node3</title>
<polygon fill="none" stroke="#bfbfbf" points="674.5,-340.5 674.5,-359.5 717.5,-359.5 717.5,-340.5 674.5,-340.5"/>
<text text-anchor="middle" x="696" y="-347.5" font-family="Helvetica,sans-Serif" font-size="10.00">cstdio</text>
</g>
<!-- Node2&#45;&gt;Node3 -->
<g id="edge2" class="edge"><title>Node2&#45;&gt;Node3</title>
<path fill="none" stroke="midnightblue" d="M715.075,-396.781C711.63,-388.512 707.252,-378.006 703.56,-369.145"/>
<polygon fill="midnightblue" stroke="midnightblue" points="706.715,-367.615 699.638,-359.731 700.253,-370.307 706.715,-367.615"/>
</g>
<!-- Node2&#45;&gt;Node4 -->
<g id="edge3" class="edge"><title>Node2&#45;&gt;Node4</title>
<path fill="none" stroke="midnightblue" d="M689.348,-396.933C666.776,-386.9 636.668,-373.519 614.775,-363.789"/>
<polygon fill="midnightblue" stroke="midnightblue" points="615.91,-360.463 605.35,-359.6 613.067,-366.86 615.91,-360.463"/>
</g>
<!-- Node2&#45;&gt;Node5 -->
<g id="edge4" class="edge"><title>Node2&#45;&gt;Node5</title>
<path fill="none" stroke="midnightblue" d="M705.188,-396.855C687.102,-381.252 656.091,-356.212 626,-340 506.192,-275.452 416.199,-347.38 338,-236 312.462,-199.625 309.337,-169.966 338,-136 370.936,-96.9705 525.604,-87.8067 598.634,-85.6573"/>
<polygon fill="midnightblue" stroke="midnightblue" points="598.889,-89.1519 608.793,-85.3884 598.703,-82.1544 598.889,-89.1519"/>
</g>
<!-- Node2&#45;&gt;Node6 -->
<g id="edge5" class="edge"><title>Node2&#45;&gt;Node6</title>
<path fill="none" stroke="midnightblue" d="M726.426,-396.866C731.282,-381.723 736.203,-357.509 726,-340 715.22,-321.501 694.962,-309.171 676.391,-301.277"/>
<polygon fill="midnightblue" stroke="midnightblue" points="677.48,-297.944 666.893,-297.543 674.919,-304.459 677.48,-297.944"/>
</g>
<!-- Node2&#45;&gt;Node26 -->
<g id="edge26" class="edge"><title>Node2&#45;&gt;Node26</title>
<path fill="none" stroke="midnightblue" d="M789.412,-399.785C856.972,-388.709 959.397,-371.918 1024.74,-361.207"/>
<polygon fill="midnightblue" stroke="midnightblue" points="1025.59,-364.613 1034.9,-359.542 1024.46,-357.706 1025.59,-364.613"/>
</g>
<!-- Node7 -->
<g id="node7" class="node"><title>Node7</title>
<g id="a_node7"><a xlink:href="../../d4/d25/BaseHits_8h.html" target="_top" xlink:title="SimulationDataFormat\l/BaseHits.h">
<polygon fill="none" stroke="black" points="673,-205 673,-235 787,-235 787,-205 673,-205"/>
<text text-anchor="start" x="681" y="-223" font-family="Helvetica,sans-Serif" font-size="10.00">SimulationDataFormat</text>
<text text-anchor="middle" x="730" y="-212" font-family="Helvetica,sans-Serif" font-size="10.00">/BaseHits.h</text>
</a>
</g>
</g>
<!-- Node6&#45;&gt;Node7 -->
<g id="edge6" class="edge"><title>Node6&#45;&gt;Node7</title>
<path fill="none" stroke="midnightblue" d="M648.289,-278.372C661.718,-268.943 683.688,-253.517 701.467,-241.034"/>
<polygon fill="midnightblue" stroke="midnightblue" points="703.629,-243.792 709.802,-235.181 699.607,-238.063 703.629,-243.792"/>
</g>
<!-- Node19 -->
<g id="node19" class="node"><title>Node19</title>
<g id="a_node19"><a xlink:href="../../d0/d91/ShmAllocator_8h.html" target="_top" xlink:title="CommonUtils/ShmAllocator.h">
<polygon fill="none" stroke="black" points="347,-210.5 347,-229.5 493,-229.5 493,-210.5 347,-210.5"/>
<text text-anchor="middle" x="420" y="-217.5" font-family="Helvetica,sans-Serif" font-size="10.00">CommonUtils/ShmAllocator.h</text>
</a>
</g>
</g>
<!-- Node6&#45;&gt;Node19 -->
<g id="edge19" class="edge"><title>Node6&#45;&gt;Node19</title>
<path fill="none" stroke="midnightblue" d="M607.762,-278.372C569.332,-266.629 500.46,-245.585 457.664,-232.508"/>
<polygon fill="midnightblue" stroke="midnightblue" points="458.489,-229.101 447.903,-229.526 456.444,-235.795 458.489,-229.101"/>
</g>
<!-- Node8 -->
<g id="node8" class="node"><title>Node8</title>
<g id="a_node8"><a xlink:href="../../dd/d76/Cartesian3D_8h.html" target="_top" xlink:title="MathUtils/Cartesian3D.h">
<polygon fill="none" stroke="black" points="1173.5,-142.5 1173.5,-161.5 1298.5,-161.5 1298.5,-142.5 1173.5,-142.5"/>
<text text-anchor="middle" x="1236" y="-149.5" font-family="Helvetica,sans-Serif" font-size="10.00">MathUtils/Cartesian3D.h</text>
</a>
</g>
</g>
<!-- Node7&#45;&gt;Node8 -->
<g id="edge7" class="edge"><title>Node7&#45;&gt;Node8</title>
<path fill="none" stroke="midnightblue" d="M787.171,-210.409C802.377,-208.219 818.799,-205.938 834,-204 978.161,-185.624 1015.33,-189.913 1159,-168 1167.52,-166.701 1176.52,-165.128 1185.26,-163.497"/>
<polygon fill="midnightblue" stroke="midnightblue" points="1186.18,-166.884 1195.35,-161.566 1184.87,-160.008 1186.18,-166.884"/>
</g>
<!-- Node8&#45;&gt;Node5 -->
<g id="edge13" class="edge"><title>Node8&#45;&gt;Node5</title>
<path fill="none" stroke="midnightblue" d="M1177.26,-142.477C1160.7,-140.214 1142.66,-137.879 1126,-136 947.309,-115.846 901.286,-123.47 723,-100 707.251,-97.9267 689.981,-95.0367 675.077,-92.3463"/>
<polygon fill="midnightblue" stroke="midnightblue" points="675.652,-88.8935 665.184,-90.5281 674.387,-95.7782 675.652,-88.8935"/>
</g>
<!-- Node9 -->
<g id="node9" class="node"><title>Node9</title>
<polygon fill="none" stroke="#bfbfbf" points="1291.5,-69 1291.5,-99 1442.5,-99 1442.5,-69 1291.5,-69"/>
<text text-anchor="start" x="1299.5" y="-87" font-family="Helvetica,sans-Serif" font-size="10.00">Math/GenVector/Displacement</text>
<text text-anchor="middle" x="1367" y="-76" font-family="Helvetica,sans-Serif" font-size="10.00">Vector3D.h</text>
</g>
<!-- Node8&#45;&gt;Node9 -->
<g id="edge8" class="edge"><title>Node8&#45;&gt;Node9</title>
<path fill="none" stroke="midnightblue" d="M1253.13,-142.372C1272.52,-132.6 1304.7,-116.387 1329.91,-103.684"/>
<polygon fill="midnightblue" stroke="midnightblue" points="1331.5,-106.807 1338.85,-99.1815 1328.35,-100.555 1331.5,-106.807"/>
</g>
<!-- Node10 -->
<g id="node10" class="node"><title>Node10</title>
<polygon fill="none" stroke="#bfbfbf" points="1461,-74.5 1461,-93.5 1637,-93.5 1637,-74.5 1461,-74.5"/>
<text text-anchor="middle" x="1549" y="-81.5" font-family="Helvetica,sans-Serif" font-size="10.00">Math/GenVector/PositionVector3D.h</text>
</g>
<!-- Node8&#45;&gt;Node10 -->
<g id="edge9" class="edge"><title>Node8&#45;&gt;Node10</title>
<path fill="none" stroke="midnightblue" d="M1276.6,-142.439C1333.48,-130.446 1436.82,-108.654 1498.56,-95.6351"/>
<polygon fill="midnightblue" stroke="midnightblue" points="1499.41,-99.0335 1508.47,-93.5455 1497.97,-92.1842 1499.41,-99.0335"/>
</g>
<!-- Node11 -->
<g id="node11" class="node"><title>Node11</title>
<polygon fill="none" stroke="#bfbfbf" points="1654.5,-74.5 1654.5,-93.5 1803.5,-93.5 1803.5,-74.5 1654.5,-74.5"/>
<text text-anchor="middle" x="1729" y="-81.5" font-family="Helvetica,sans-Serif" font-size="10.00">Math/GenVector/Rotation3D.h</text>
</g>
<!-- Node8&#45;&gt;Node11 -->
<g id="edge10" class="edge"><title>Node8&#45;&gt;Node11</title>
<path fill="none" stroke="midnightblue" d="M1298.5,-144.242C1378.85,-135.317 1522.6,-118.546 1645,-100 1654.35,-98.5834 1664.26,-96.9408 1673.87,-95.2728"/>
<polygon fill="midnightblue" stroke="midnightblue" points="1674.49,-98.7163 1683.73,-93.5339 1673.28,-91.8225 1674.49,-98.7163"/>
</g>
<!-- Node12 -->
<g id="node12" class="node"><title>Node12</title>
<polygon fill="none" stroke="#bfbfbf" points="796,-74.5 796,-93.5 952,-93.5 952,-74.5 796,-74.5"/>
<text text-anchor="middle" x="874" y="-81.5" font-family="Helvetica,sans-Serif" font-size="10.00">Math/GenVector/Transform3D.h</text>
</g>
<!-- Node8&#45;&gt;Node12 -->
<g id="edge11" class="edge"><title>Node8&#45;&gt;Node12</title>
<path fill="none" stroke="midnightblue" d="M1192.85,-142.474C1181.82,-140.328 1169.98,-138.051 1159,-136 1080.93,-121.411 990.653,-105.401 932.984,-95.2834"/>
<polygon fill="midnightblue" stroke="midnightblue" points="933.413,-91.8053 922.959,-93.5262 932.205,-98.7002 933.413,-91.8053"/>
</g>
<!-- Node13 -->
<g id="node13" class="node"><title>Node13</title>
<polygon fill="none" stroke="#bfbfbf" points="970,-74.5 970,-93.5 1130,-93.5 1130,-74.5 970,-74.5"/>
<text text-anchor="middle" x="1050" y="-81.5" font-family="Helvetica,sans-Serif" font-size="10.00">Math/GenVector/Translation3D.h</text>
</g>
<!-- Node8&#45;&gt;Node13 -->
<g id="edge12" class="edge"><title>Node8&#45;&gt;Node13</title>
<path fill="none" stroke="midnightblue" d="M1211.68,-142.372C1179.01,-130.778 1120.78,-110.116 1083.84,-97.0087"/>
<polygon fill="midnightblue" stroke="midnightblue" points="1084.62,-93.5715 1074.03,-93.5259 1082.28,-100.169 1084.62,-93.5715"/>
</g>
<!-- Node14 -->
<g id="node14" class="node"><title>Node14</title>
<polygon fill="none" stroke="#bfbfbf" points="1822,-74.5 1822,-93.5 1898,-93.5 1898,-74.5 1822,-74.5"/>
<text text-anchor="middle" x="1860" y="-81.5" font-family="Helvetica,sans-Serif" font-size="10.00">TGeoMatrix.h</text>
</g>
<!-- Node8&#45;&gt;Node14 -->
<g id="edge14" class="edge"><title>Node8&#45;&gt;Node14</title>
<path fill="none" stroke="midnightblue" d="M1298.84,-149.834C1405.39,-146.881 1627.85,-136.486 1812,-100 1816.78,-99.0529 1821.76,-97.8059 1826.62,-96.4346"/>
<polygon fill="midnightblue" stroke="midnightblue" points="1827.77,-99.7425 1836.33,-93.5018 1825.75,-93.0411 1827.77,-99.7425"/>
</g>
<!-- Node15 -->
<g id="node15" class="node"><title>Node15</title>
<polygon fill="none" stroke="#bfbfbf" points="732.5,-74.5 732.5,-93.5 777.5,-93.5 777.5,-74.5 732.5,-74.5"/>
<text text-anchor="middle" x="755" y="-81.5" font-family="Helvetica,sans-Serif" font-size="10.00">iosfwd</text>
</g>
<!-- Node8&#45;&gt;Node15 -->
<g id="edge15" class="edge"><title>Node8&#45;&gt;Node15</title>
<path fill="none" stroke="midnightblue" d="M1196.16,-142.484C1184.25,-140.142 1171.13,-137.764 1159,-136 994.624,-112.092 947.202,-143.89 787,-100 784.653,-99.3571 782.266,-98.5534 779.906,-97.6542"/>
<polygon fill="midnightblue" stroke="midnightblue" points="781.109,-94.3608 770.543,-93.5872 778.32,-100.781 781.109,-94.3608"/>
</g>
<!-- Node16 -->
<g id="node16" class="node"><title>Node16</title>
<g id="a_node16"><a xlink:href="../../d2/dd0/Cartesian2D_8h.html" target="_top" xlink:title="MathUtils/Cartesian2D.h">
<polygon fill="none" stroke="black" points="1148.5,-74.5 1148.5,-93.5 1273.5,-93.5 1273.5,-74.5 1148.5,-74.5"/>
<text text-anchor="middle" x="1211" y="-81.5" font-family="Helvetica,sans-Serif" font-size="10.00">MathUtils/Cartesian2D.h</text>
</a>
</g>
</g>
<!-- Node8&#45;&gt;Node16 -->
<g id="edge16" class="edge"><title>Node8&#45;&gt;Node16</title>
<path fill="none" stroke="midnightblue" d="M1232.73,-142.372C1229.01,-132.544 1222.82,-116.202 1218,-103.467"/>
<polygon fill="midnightblue" stroke="midnightblue" points="1221.16,-101.953 1214.35,-93.8411 1214.62,-104.433 1221.16,-101.953"/>
</g>
<!-- Node17 -->
<g id="node17" class="node"><title>Node17</title>
<polygon fill="none" stroke="#bfbfbf" points="1044.5,-1 1044.5,-31 1195.5,-31 1195.5,-1 1044.5,-1"/>
<text text-anchor="start" x="1052.5" y="-19" font-family="Helvetica,sans-Serif" font-size="10.00">Math/GenVector/Displacement</text>
<text text-anchor="middle" x="1120" y="-8" font-family="Helvetica,sans-Serif" font-size="10.00">Vector2D.h</text>
</g>
<!-- Node16&#45;&gt;Node17 -->
<g id="edge17" class="edge"><title>Node16&#45;&gt;Node17</title>
<path fill="none" stroke="midnightblue" d="M1199.1,-74.3717C1186.22,-65.0286 1165.22,-49.7966 1148.09,-37.375"/>
<polygon fill="midnightblue" stroke="midnightblue" points="1149.7,-34.2194 1139.55,-31.1815 1145.59,-39.8859 1149.7,-34.2194"/>
</g>
<!-- Node18 -->
<g id="node18" class="node"><title>Node18</title>
<polygon fill="none" stroke="#bfbfbf" points="1214,-6.5 1214,-25.5 1390,-25.5 1390,-6.5 1214,-6.5"/>
<text text-anchor="middle" x="1302" y="-13.5" font-family="Helvetica,sans-Serif" font-size="10.00">Math/GenVector/PositionVector2D.h</text>
</g>
<!-- Node16&#45;&gt;Node18 -->
<g id="edge18" class="edge"><title>Node16&#45;&gt;Node18</title>
<path fill="none" stroke="midnightblue" d="M1222.9,-74.3717C1237.88,-63.5015 1263.86,-44.6602 1281.94,-31.5474"/>
<polygon fill="midnightblue" stroke="midnightblue" points="1284.06,-34.3349 1290.1,-25.6305 1279.95,-28.6684 1284.06,-34.3349"/>
</g>
<!-- Node20 -->
<g id="node20" class="node"><title>Node20</title>
<g id="a_node20"><a xlink:href="../../de/d61/ShmManager_8h.html" target="_top" xlink:title="CommonUtils/ShmManager.h">
<polygon fill="none" stroke="black" points="107,-142.5 107,-161.5 253,-161.5 253,-142.5 107,-142.5"/>
<text text-anchor="middle" x="180" y="-149.5" font-family="Helvetica,sans-Serif" font-size="10.00">CommonUtils/ShmManager.h</text>
</a>
</g>
</g>
<!-- Node19&#45;&gt;Node20 -->
<g id="edge20" class="edge"><title>Node19&#45;&gt;Node20</title>
<path fill="none" stroke="midnightblue" d="M388.624,-210.372C345.564,-198.53 268.106,-177.229 220.651,-164.179"/>
<polygon fill="midnightblue" stroke="midnightblue" points="221.573,-160.803 211.003,-161.526 219.717,-167.552 221.573,-160.803"/>
</g>
<!-- Node25 -->
<g id="node25" class="node"><title>Node25</title>
<polygon fill="none" stroke="#bfbfbf" points="347.5,-142.5 347.5,-161.5 396.5,-161.5 396.5,-142.5 347.5,-142.5"/>
<text text-anchor="middle" x="372" y="-149.5" font-family="Helvetica,sans-Serif" font-size="10.00">cassert</text>
</g>
<!-- Node19&#45;&gt;Node25 -->
<g id="edge25" class="edge"><title>Node19&#45;&gt;Node25</title>
<path fill="none" stroke="midnightblue" d="M413.725,-210.372C406.292,-200.151 393.734,-182.884 384.332,-169.957"/>
<polygon fill="midnightblue" stroke="midnightblue" points="387.142,-167.87 378.43,-161.841 381.481,-171.987 387.142,-167.87"/>
</g>
<!-- Node21 -->
<g id="node21" class="node"><title>Node21</title>
<polygon fill="none" stroke="#bfbfbf" points="137.5,-74.5 137.5,-93.5 166.5,-93.5 166.5,-74.5 137.5,-74.5"/>
<text text-anchor="middle" x="152" y="-81.5" font-family="Helvetica,sans-Serif" font-size="10.00">list</text>
</g>
<!-- Node20&#45;&gt;Node21 -->
<g id="edge21" class="edge"><title>Node20&#45;&gt;Node21</title>
<path fill="none" stroke="midnightblue" d="M176.339,-142.372C172.129,-132.446 165.098,-115.874 159.673,-103.086"/>
<polygon fill="midnightblue" stroke="midnightblue" points="162.878,-101.68 155.751,-93.8411 156.434,-104.414 162.878,-101.68"/>
</g>
<!-- Node22 -->
<g id="node22" class="node"><title>Node22</title>
<polygon fill="none" stroke="#bfbfbf" points="184.5,-74.5 184.5,-93.5 233.5,-93.5 233.5,-74.5 184.5,-74.5"/>
<text text-anchor="middle" x="209" y="-81.5" font-family="Helvetica,sans-Serif" font-size="10.00">cstddef</text>
</g>
<!-- Node20&#45;&gt;Node22 -->
<g id="edge22" class="edge"><title>Node20&#45;&gt;Node22</title>
<path fill="none" stroke="midnightblue" d="M183.791,-142.372C188.152,-132.446 195.434,-115.874 201.053,-103.086"/>
<polygon fill="midnightblue" stroke="midnightblue" points="204.297,-104.404 205.115,-93.8411 197.888,-101.588 204.297,-104.404"/>
</g>
<!-- Node23 -->
<g id="node23" class="node"><title>Node23</title>
<polygon fill="none" stroke="#bfbfbf" points="252,-69 252,-99 400,-99 400,-69 252,-69"/>
<text text-anchor="start" x="260" y="-87" font-family="Helvetica,sans-Serif" font-size="10.00">boost/interprocess</text>
<text text-anchor="middle" x="326" y="-76" font-family="Helvetica,sans-Serif" font-size="10.00">/managed_external_buffer.hpp</text>
</g>
<!-- Node20&#45;&gt;Node23 -->
<g id="edge23" class="edge"><title>Node20&#45;&gt;Node23</title>
<path fill="none" stroke="midnightblue" d="M199.087,-142.372C220.962,-132.483 257.43,-115.997 285.675,-103.229"/>
<polygon fill="midnightblue" stroke="midnightblue" points="287.235,-106.365 294.906,-99.0562 284.352,-99.9862 287.235,-106.365"/>
</g>
<!-- Node24 -->
<g id="node24" class="node"><title>Node24</title>
<polygon fill="none" stroke="#bfbfbf" points="0,-69 0,-99 120,-99 120,-69 0,-69"/>
<text text-anchor="start" x="8" y="-87" font-family="Helvetica,sans-Serif" font-size="10.00">boost/interprocess</text>
<text text-anchor="middle" x="60" y="-76" font-family="Helvetica,sans-Serif" font-size="10.00">/allocators/allocator.hpp</text>
</g>
<!-- Node20&#45;&gt;Node24 -->
<g id="edge24" class="edge"><title>Node20&#45;&gt;Node24</title>
<path fill="none" stroke="midnightblue" d="M164.312,-142.372C146.701,-132.686 117.583,-116.671 94.5804,-104.019"/>
<polygon fill="midnightblue" stroke="midnightblue" points="96.2334,-100.934 85.7845,-99.1815 92.8599,-107.067 96.2334,-100.934"/>
</g>
<!-- Node26&#45;&gt;Node5 -->
<g id="edge31" class="edge"><title>Node26&#45;&gt;Node5</title>
<path fill="none" stroke="midnightblue" d="M1087.49,-340.388C1088.39,-316.1 1087.76,-246.088 1054,-204 1030.61,-174.846 1009.44,-188.205 978,-168 959.425,-156.064 960.05,-145.247 940,-136 851.225,-95.0549 819.377,-116.399 723,-100 707.34,-97.3353 690.087,-94.3382 675.171,-91.7275"/>
<polygon fill="midnightblue" stroke="midnightblue" points="675.72,-88.2705 665.265,-89.9907 674.511,-95.1653 675.72,-88.2705"/>
</g>
<!-- Node26&#45;&gt;Node6 -->
<g id="edge58" class="edge"><title>Node26&#45;&gt;Node6</title>
<path fill="none" stroke="midnightblue" d="M1014.76,-343.196C936.563,-336.314 808.355,-323.29 699,-304 692.305,-302.819 685.257,-301.359 678.398,-299.818"/>
<polygon fill="midnightblue" stroke="midnightblue" points="679.078,-296.383 668.545,-297.524 677.491,-303.2 679.078,-296.383"/>
</g>
<!-- Node27 -->
<g id="node27" class="node"><title>Node27</title>
<polygon fill="none" stroke="#bfbfbf" points="1115,-278.5 1115,-297.5 1167,-297.5 1167,-278.5 1115,-278.5"/>
<text text-anchor="middle" x="1141" y="-285.5" font-family="Helvetica,sans-Serif" font-size="10.00">memory</text>
</g>
<!-- Node26&#45;&gt;Node27 -->
<g id="edge27" class="edge"><title>Node26&#45;&gt;Node27</title>
<path fill="none" stroke="midnightblue" d="M1094.74,-340.403C1103,-331.225 1116.28,-316.47 1126.49,-305.117"/>
<polygon fill="midnightblue" stroke="midnightblue" points="1129.19,-307.355 1133.28,-297.581 1123.99,-302.672 1129.19,-307.355"/>
</g>
<!-- Node28 -->
<g id="node28" class="node"><title>Node28</title>
<polygon fill="none" stroke="#bfbfbf" points="1185.5,-278.5 1185.5,-297.5 1268.5,-297.5 1268.5,-278.5 1185.5,-278.5"/>
<text text-anchor="middle" x="1227" y="-285.5" font-family="Helvetica,sans-Serif" font-size="10.00">unordered_map</text>
</g>
<!-- Node26&#45;&gt;Node28 -->
<g id="edge28" class="edge"><title>Node26&#45;&gt;Node28</title>
<path fill="none" stroke="midnightblue" d="M1107.06,-340.403C1130.76,-330.245 1170.41,-313.255 1197.58,-301.607"/>
<polygon fill="midnightblue" stroke="midnightblue" points="1199.17,-304.737 1206.98,-297.581 1196.41,-298.303 1199.17,-304.737"/>
</g>
<!-- Node29 -->
<g id="node29" class="node"><title>Node29</title>
<polygon fill="none" stroke="#bfbfbf" points="1182,-210.5 1182,-229.5 1226,-229.5 1226,-210.5 1182,-210.5"/>
<text text-anchor="middle" x="1204" y="-217.5" font-family="Helvetica,sans-Serif" font-size="10.00">vector</text>
</g>
<!-- Node26&#45;&gt;Node29 -->
<g id="edge29" class="edge"><title>Node26&#45;&gt;Node29</title>
<path fill="none" stroke="midnightblue" d="M1086.91,-340.385C1087.2,-325.018 1089.83,-292.563 1106,-272 1110.83,-265.864 1149.15,-246.906 1176.41,-233.916"/>
<polygon fill="midnightblue" stroke="midnightblue" points="1177.98,-237.045 1185.52,-229.601 1174.98,-230.719 1177.98,-237.045"/>
</g>
<!-- Node30 -->
<g id="node30" class="node"><title>Node30</title>
<polygon fill="none" stroke="#bfbfbf" points="1286.5,-278.5 1286.5,-297.5 1329.5,-297.5 1329.5,-278.5 1286.5,-278.5"/>
<text text-anchor="middle" x="1308" y="-285.5" font-family="Helvetica,sans-Serif" font-size="10.00">deque</text>
</g>
<!-- Node26&#45;&gt;Node30 -->
<g id="edge30" class="edge"><title>Node26&#45;&gt;Node30</title>
<path fill="none" stroke="midnightblue" d="M1135.87,-340.475C1174.75,-332.969 1230.21,-320.637 1277,-304 1278.86,-303.339 1280.75,-302.599 1282.64,-301.812"/>
<polygon fill="midnightblue" stroke="midnightblue" points="1284.22,-304.943 1291.88,-297.624 1281.32,-298.568 1284.22,-304.943"/>
</g>
<!-- Node31 -->
<g id="node31" class="node"><title>Node31</title>
<polygon fill="none" stroke="#bfbfbf" points="1347.5,-278.5 1347.5,-297.5 1406.5,-297.5 1406.5,-278.5 1347.5,-278.5"/>
<text text-anchor="middle" x="1377" y="-285.5" font-family="Helvetica,sans-Serif" font-size="10.00">TObject.h</text>
</g>
<!-- Node26&#45;&gt;Node31 -->
<g id="edge32" class="edge"><title>Node26&#45;&gt;Node31</title>
<path fill="none" stroke="midnightblue" d="M1154.37,-340.465C1205.35,-333.156 1276.81,-321.085 1338,-304 1341.14,-303.122 1344.39,-302.089 1347.6,-300.983"/>
<polygon fill="midnightblue" stroke="midnightblue" points="1348.83,-304.262 1357,-297.527 1346.41,-297.691 1348.83,-304.262"/>
</g>
<!-- Node32 -->
<g id="node32" class="node"><title>Node32</title>
<g id="a_node32"><a xlink:href="../../dd/dc7/EMCAL_2base_2include_2EMCALBase_2Digit_8h.html" target="_top" xlink:title="EMCALBase/Digit.h">
<polygon fill="none" stroke="black" points="549.5,-210.5 549.5,-229.5 654.5,-229.5 654.5,-210.5 549.5,-210.5"/>
<text text-anchor="middle" x="602" y="-217.5" font-family="Helvetica,sans-Serif" font-size="10.00">EMCALBase/Digit.h</text>
</a>
</g>
</g>
<!-- Node26&#45;&gt;Node32 -->
<g id="edge33" class="edge"><title>Node26&#45;&gt;Node32</title>
<path fill="none" stroke="midnightblue" d="M1014.81,-344.579C926.126,-338.332 781.357,-325.253 732,-304 711.407,-295.132 711.518,-284.641 693,-272 672.111,-257.74 646.931,-243.861 628.358,-234.191"/>
<polygon fill="midnightblue" stroke="midnightblue" points="629.8,-230.997 619.306,-229.538 626.6,-237.222 629.8,-230.997"/>
</g>
<!-- Node26&#45;&gt;Node37 -->
<g id="edge42" class="edge"><title>Node26&#45;&gt;Node37</title>
<path fill="none" stroke="midnightblue" d="M1158.86,-340.477C1225.45,-332.263 1327.17,-318.912 1415,-304 1422.81,-302.673 1431.07,-301.136 1439.11,-299.563"/>
<polygon fill="midnightblue" stroke="midnightblue" points="1440.02,-302.95 1449.15,-297.563 1438.65,-296.085 1440.02,-302.95"/>
</g>
<!-- Node26&#45;&gt;Node45 -->
<g id="edge57" class="edge"><title>Node26&#45;&gt;Node45</title>
<path fill="none" stroke="midnightblue" d="M1159.38,-346.899C1273.69,-342.785 1490.39,-331.538 1562,-304 1584.24,-295.45 1583.2,-281.611 1605,-272 1614.45,-267.835 1736.94,-245.066 1811.7,-231.399"/>
<polygon fill="midnightblue" stroke="midnightblue" points="1812.71,-234.773 1821.92,-229.534 1811.45,-227.887 1812.71,-234.773"/>
</g>
<!-- Node47 -->
<g id="node47" class="node"><title>Node47</title>
<g id="a_node47"><a xlink:href="../../d2/d7a/EMCAL_2simulation_2include_2EMCALSimulation_2MCLabel_8h.html" target="_top" xlink:title="EMCALSimulation/MCLabel.h">
<polygon fill="none" stroke="black" points="741.5,-278.5 741.5,-297.5 888.5,-297.5 888.5,-278.5 741.5,-278.5"/>
<text text-anchor="middle" x="815" y="-285.5" font-family="Helvetica,sans-Serif" font-size="10.00">EMCALSimulation/MCLabel.h</text>
</a>
</g>
</g>
<!-- Node26&#45;&gt;Node47 -->
<g id="edge59" class="edge"><title>Node26&#45;&gt;Node47</title>
<path fill="none" stroke="midnightblue" d="M1048.32,-340.467C999.679,-329.738 916.164,-311.316 863.358,-299.667"/>
<polygon fill="midnightblue" stroke="midnightblue" points="864.068,-296.24 853.549,-297.503 862.56,-303.075 864.068,-296.24"/>
</g>
<!-- Node49 -->
<g id="node49" class="node"><title>Node49</title>
<g id="a_node49"><a xlink:href="../../db/d14/MCTruthContainer_8h.html" target="_top" xlink:title="Definition of a container to keep Monte Carlo truth external to simulation objects. ">
<polygon fill="none" stroke="black" points="907,-273 907,-303 1021,-303 1021,-273 907,-273"/>
<text text-anchor="start" x="915" y="-291" font-family="Helvetica,sans-Serif" font-size="10.00">SimulationDataFormat</text>
<text text-anchor="middle" x="964" y="-280" font-family="Helvetica,sans-Serif" font-size="10.00">/MCTruthContainer.h</text>
</a>
</g>
</g>
<!-- Node26&#45;&gt;Node49 -->
<g id="edge62" class="edge"><title>Node26&#45;&gt;Node49</title>
<path fill="none" stroke="midnightblue" d="M1069.38,-340.403C1051.94,-331.898 1024.68,-318.602 1002.26,-307.663"/>
<polygon fill="midnightblue" stroke="midnightblue" points="1003.51,-304.379 992.989,-303.141 1000.44,-310.671 1003.51,-304.379"/>
</g>
<!-- Node32&#45;&gt;Node5 -->
<g id="edge36" class="edge"><title>Node32&#45;&gt;Node5</title>
<path fill="none" stroke="midnightblue" d="M604.296,-210.208C609.933,-188.627 624.548,-132.675 632.187,-103.426"/>
<polygon fill="midnightblue" stroke="midnightblue" points="635.6,-104.21 634.741,-93.6503 628.827,-102.441 635.6,-104.21"/>
</g>
<!-- Node32&#45;&gt;Node15 -->
<g id="edge34" class="edge"><title>Node32&#45;&gt;Node15</title>
<path fill="none" stroke="midnightblue" d="M633.027,-210.466C642.865,-208.038 653.828,-205.616 664,-204 714.851,-195.92 1091.03,-205.796 1126,-168 1135.66,-157.56 1135.51,-146.574 1126,-136 1075.34,-79.6743 859.97,-120.358 787,-100 784.656,-99.3462 782.271,-98.5349 779.913,-97.6308"/>
<polygon fill="midnightblue" stroke="midnightblue" points="781.117,-94.3378 770.551,-93.5561 778.323,-100.756 781.117,-94.3378"/>
</g>
<!-- Node33 -->
<g id="node33" class="node"><title>Node33</title>
<polygon fill="none" stroke="#bfbfbf" points="641,-142.5 641,-161.5 685,-161.5 685,-142.5 641,-142.5"/>
<text text-anchor="middle" x="663" y="-149.5" font-family="Helvetica,sans-Serif" font-size="10.00">cmath</text>
</g>
<!-- Node32&#45;&gt;Node33 -->
<g id="edge35" class="edge"><title>Node32&#45;&gt;Node33</title>
<path fill="none" stroke="midnightblue" d="M609.975,-210.372C619.602,-199.955 635.996,-182.217 648.012,-169.216"/>
<polygon fill="midnightblue" stroke="midnightblue" points="650.612,-171.561 654.829,-161.841 645.471,-166.809 650.612,-171.561"/>
</g>
<!-- Node34 -->
<g id="node34" class="node"><title>Node34</title>
<g id="a_node34"><a xlink:href="../../df/d5d/common_2include_2CommonDataFormat_2TimeStamp_8h.html" target="_top" xlink:title="CommonDataFormat/TimeStamp.h">
<polygon fill="none" stroke="black" points="415,-142.5 415,-161.5 585,-161.5 585,-142.5 415,-142.5"/>
<text text-anchor="middle" x="500" y="-149.5" font-family="Helvetica,sans-Serif" font-size="10.00">CommonDataFormat/TimeStamp.h</text>
</a>
</g>
</g>
<!-- Node32&#45;&gt;Node34 -->
<g id="edge37" class="edge"><title>Node32&#45;&gt;Node34</title>
<path fill="none" stroke="midnightblue" d="M588.665,-210.372C571.713,-199.403 542.217,-180.317 521.932,-167.191"/>
<polygon fill="midnightblue" stroke="midnightblue" points="523.635,-164.125 513.338,-161.63 519.832,-170.002 523.635,-164.125"/>
</g>
<!-- Node35 -->
<g id="node35" class="node"><title>Node35</title>
<g id="a_node35"><a xlink:href="../../d4/d82/Detectors_2EMCAL_2base_2include_2EMCALBase_2Constants_8h.html" target="_top" xlink:title="EMCALBase/Constants.h">
<polygon fill="none" stroke="black" points="987,-142.5 987,-161.5 1117,-161.5 1117,-142.5 987,-142.5"/>
<text text-anchor="middle" x="1052" y="-149.5" font-family="Helvetica,sans-Serif" font-size="10.00">EMCALBase/Constants.h</text>
</a>
</g>
</g>
<!-- Node32&#45;&gt;Node35 -->
<g id="edge39" class="edge"><title>Node32&#45;&gt;Node35</title>
<path fill="none" stroke="midnightblue" d="M634.358,-210.475C643.863,-208.16 654.309,-205.799 664,-204 785.628,-181.423 817.361,-184.211 940,-168 952.431,-166.357 965.635,-164.599 978.453,-162.887"/>
<polygon fill="midnightblue" stroke="midnightblue" points="979.18,-166.321 988.627,-161.526 978.252,-159.383 979.18,-166.321"/>
</g>
<!-- Node36 -->
<g id="node36" class="node"><title>Node36</title>
<polygon fill="none" stroke="#bfbfbf" points="703.5,-137 703.5,-167 798.5,-167 798.5,-137 703.5,-137"/>
<text text-anchor="start" x="711.5" y="-155" font-family="Helvetica,sans-Serif" font-size="10.00">boost/serialization</text>
<text text-anchor="middle" x="751" y="-144" font-family="Helvetica,sans-Serif" font-size="10.00">/base_object.hpp</text>
</g>
<!-- Node32&#45;&gt;Node36 -->
<g id="edge41" class="edge"><title>Node32&#45;&gt;Node36</title>
<path fill="none" stroke="midnightblue" d="M621.479,-210.372C643.804,-200.483 681.021,-183.997 709.847,-171.229"/>
<polygon fill="midnightblue" stroke="midnightblue" points="711.541,-174.306 719.267,-167.056 708.706,-167.906 711.541,-174.306"/>
</g>
<!-- Node34&#45;&gt;Node5 -->
<g id="edge38" class="edge"><title>Node34&#45;&gt;Node5</title>
<path fill="none" stroke="midnightblue" d="M517.91,-142.372C541.295,-131.106 582.45,-111.279 609.724,-98.1403"/>
<polygon fill="midnightblue" stroke="midnightblue" points="611.595,-101.124 619.085,-93.6305 608.557,-94.8175 611.595,-101.124"/>
</g>
<!-- Node35&#45;&gt;Node5 -->
<g id="edge40" class="edge"><title>Node35&#45;&gt;Node5</title>
<path fill="none" stroke="midnightblue" d="M1009.01,-142.477C997.346,-140.263 984.704,-137.953 973,-136 862.273,-117.525 833.862,-117.646 723,-100 707.312,-97.5029 690.054,-94.5361 675.142,-91.9029"/>
<polygon fill="midnightblue" stroke="midnightblue" points="675.699,-88.4471 665.24,-90.143 674.474,-95.3391 675.699,-88.4471"/>
</g>
<!-- Node37&#45;&gt;Node8 -->
<g id="edge56" class="edge"><title>Node37&#45;&gt;Node8</title>
<path fill="none" stroke="midnightblue" d="M1486.22,-278.434C1480.26,-261.463 1464.58,-223.525 1438,-204 1400.57,-176.503 1349.86,-163.759 1308.62,-157.887"/>
<polygon fill="midnightblue" stroke="midnightblue" points="1308.99,-154.406 1298.62,-156.57 1308.08,-161.346 1308.99,-154.406"/>
</g>
<!-- Node37&#45;&gt;Node14 -->
<g id="edge48" class="edge"><title>Node37&#45;&gt;Node14</title>
<path fill="none" stroke="midnightblue" d="M1500.76,-278.278C1513.98,-268.359 1535.95,-251.524 1554,-236 1569.73,-222.47 1571.91,-217.101 1588,-204 1628.83,-170.761 1637.45,-158.607 1685,-136 1737.98,-110.808 1755.77,-116.751 1812,-100 1815.75,-98.8821 1819.66,-97.6956 1823.56,-96.4988"/>
<polygon fill="midnightblue" stroke="midnightblue" points="1824.61,-99.8375 1833.13,-93.5359 1822.54,-93.1508 1824.61,-99.8375"/>
</g>
<!-- Node37&#45;&gt;Node29 -->
<g id="edge46" class="edge"><title>Node37&#45;&gt;Node29</title>
<path fill="none" stroke="midnightblue" d="M1446.99,-278.449C1376.67,-264.127 1242.49,-236.765 1240,-236 1237.42,-235.206 1234.77,-234.296 1232.13,-233.324"/>
<polygon fill="midnightblue" stroke="midnightblue" points="1233.39,-230.058 1222.8,-229.638 1230.82,-236.568 1233.39,-230.058"/>
</g>
<!-- Node37&#45;&gt;Node35 -->
<g id="edge52" class="edge"><title>Node37&#45;&gt;Node35</title>
<path fill="none" stroke="midnightblue" d="M1448.27,-278.424C1390.13,-266.025 1288.63,-243.732 1273,-236 1252.9,-226.056 1253.89,-214.357 1234,-204 1196.22,-184.326 1149.97,-171.491 1113.54,-163.619"/>
<polygon fill="midnightblue" stroke="midnightblue" points="1114.05,-160.149 1103.54,-161.528 1112.62,-167.001 1114.05,-160.149"/>
</g>
<!-- Node38 -->
<g id="node38" class="node"><title>Node38</title>
<polygon fill="none" stroke="#bfbfbf" points="1486.5,-210.5 1486.5,-229.5 1545.5,-229.5 1545.5,-210.5 1486.5,-210.5"/>
<text text-anchor="middle" x="1516" y="-217.5" font-family="Helvetica,sans-Serif" font-size="10.00">exception</text>
</g>
<!-- Node37&#45;&gt;Node38 -->
<g id="edge43" class="edge"><title>Node37&#45;&gt;Node38</title>
<path fill="none" stroke="midnightblue" d="M1492.53,-278.372C1496.55,-268.544 1503.24,-252.202 1508.45,-239.467"/>
<polygon fill="midnightblue" stroke="midnightblue" points="1511.84,-240.422 1512.38,-229.841 1505.36,-237.771 1511.84,-240.422"/>
</g>
<!-- Node39 -->
<g id="node39" class="node"><title>Node39</title>
<polygon fill="none" stroke="#bfbfbf" points="1693.5,-142.5 1693.5,-161.5 1734.5,-161.5 1734.5,-142.5 1693.5,-142.5"/>
<text text-anchor="middle" x="1714" y="-149.5" font-family="Helvetica,sans-Serif" font-size="10.00">string</text>
</g>
<!-- Node37&#45;&gt;Node39 -->
<g id="edge44" class="edge"><title>Node37&#45;&gt;Node39</title>
<path fill="none" stroke="midnightblue" d="M1507.74,-278.476C1528.03,-268.992 1561.1,-252.782 1588,-236 1608.21,-223.392 1611.28,-217.36 1631,-204 1650.61,-190.715 1673.61,-176.701 1690.42,-166.732"/>
<polygon fill="midnightblue" stroke="midnightblue" points="1692.22,-169.733 1699.06,-161.64 1688.66,-163.702 1692.22,-169.733"/>
</g>
<!-- Node40 -->
<g id="node40" class="node"><title>Node40</title>
<polygon fill="none" stroke="#bfbfbf" points="1640,-210.5 1640,-229.5 1678,-229.5 1678,-210.5 1640,-210.5"/>
<text text-anchor="middle" x="1659" y="-217.5" font-family="Helvetica,sans-Serif" font-size="10.00">tuple</text>
</g>
<!-- Node37&#45;&gt;Node40 -->
<g id="edge45" class="edge"><title>Node37&#45;&gt;Node40</title>
<path fill="none" stroke="midnightblue" d="M1513.45,-278.483C1541.01,-268.747 1587.06,-252.076 1626,-236 1627.64,-235.323 1629.32,-234.613 1631.01,-233.886"/>
<polygon fill="midnightblue" stroke="midnightblue" points="1632.87,-236.889 1640.6,-229.64 1630.04,-230.488 1632.87,-236.889"/>
</g>
<!-- Node41 -->
<g id="node41" class="node"><title>Node41</title>
<polygon fill="none" stroke="#bfbfbf" points="1696,-210.5 1696,-229.5 1776,-229.5 1776,-210.5 1696,-210.5"/>
<text text-anchor="middle" x="1736" y="-217.5" font-family="Helvetica,sans-Serif" font-size="10.00">RStringView.h</text>
</g>
<!-- Node37&#45;&gt;Node41 -->
<g id="edge47" class="edge"><title>Node37&#45;&gt;Node41</title>
<path fill="none" stroke="midnightblue" d="M1524.18,-278.446C1563.87,-268.678 1630.28,-251.977 1687,-236 1690.89,-234.905 1694.94,-233.727 1698.97,-232.529"/>
<polygon fill="midnightblue" stroke="midnightblue" points="1700.29,-235.787 1708.85,-229.549 1698.27,-229.085 1700.29,-235.787"/>
</g>
<!-- Node42 -->
<g id="node42" class="node"><title>Node42</title>
<polygon fill="none" stroke="#bfbfbf" points="1102,-210.5 1102,-229.5 1164,-229.5 1164,-210.5 1102,-210.5"/>
<text text-anchor="middle" x="1133" y="-217.5" font-family="Helvetica,sans-Serif" font-size="10.00">TNamed.h</text>
</g>
<!-- Node37&#45;&gt;Node42 -->
<g id="edge49" class="edge"><title>Node37&#45;&gt;Node42</title>
<path fill="none" stroke="midnightblue" d="M1448.75,-278.442C1437.82,-276.228 1425.97,-273.927 1415,-272 1307.9,-253.192 1278.27,-263.242 1173,-236 1169.77,-235.164 1166.44,-234.158 1163.14,-233.068"/>
<polygon fill="midnightblue" stroke="midnightblue" points="1164.09,-229.69 1153.49,-229.632 1161.74,-236.284 1164.09,-229.69"/>
</g>
<!-- Node43 -->
<g id="node43" class="node"><title>Node43</title>
<polygon fill="none" stroke="#bfbfbf" points="1282,-210.5 1282,-229.5 1346,-229.5 1346,-210.5 1282,-210.5"/>
<text text-anchor="middle" x="1314" y="-217.5" font-family="Helvetica,sans-Serif" font-size="10.00">TParticle.h</text>
</g>
<!-- Node37&#45;&gt;Node43 -->
<g id="edge50" class="edge"><title>Node37&#45;&gt;Node43</title>
<path fill="none" stroke="midnightblue" d="M1466.12,-278.372C1435.51,-266.827 1381.06,-246.293 1346.29,-233.177"/>
<polygon fill="midnightblue" stroke="midnightblue" points="1347.2,-229.78 1336.61,-229.526 1344.73,-236.33 1347.2,-229.78"/>
</g>
<!-- Node44 -->
<g id="node44" class="node"><title>Node44</title>
<polygon fill="none" stroke="#bfbfbf" points="1364.5,-210.5 1364.5,-229.5 1429.5,-229.5 1429.5,-210.5 1364.5,-210.5"/>
<text text-anchor="middle" x="1397" y="-217.5" font-family="Helvetica,sans-Serif" font-size="10.00">TVector3.h</text>
</g>
<!-- Node37&#45;&gt;Node44 -->
<g id="edge51" class="edge"><title>Node37&#45;&gt;Node44</title>
<path fill="none" stroke="midnightblue" d="M1476.97,-278.372C1461.82,-267.502 1435.56,-248.66 1417.28,-235.547"/>
<polygon fill="midnightblue" stroke="midnightblue" points="1419.2,-232.616 1409.03,-229.63 1415.12,-238.303 1419.2,-232.616"/>
</g>
<!-- Node37&#45;&gt;Node45 -->
<g id="edge53" class="edge"><title>Node37&#45;&gt;Node45</title>
<path fill="none" stroke="midnightblue" d="M1532.28,-278.466C1543.57,-276.298 1555.73,-274.013 1567,-272 1663.67,-254.726 1688.22,-252.632 1785,-236 1793.7,-234.505 1802.9,-232.894 1811.89,-231.301"/>
<polygon fill="midnightblue" stroke="midnightblue" points="1812.69,-234.714 1821.93,-229.518 1811.47,-227.822 1812.69,-234.714"/>
</g>
<!-- Node45&#45;&gt;Node39 -->
<g id="edge55" class="edge"><title>Node45&#45;&gt;Node39</title>
<path fill="none" stroke="midnightblue" d="M1848.74,-210.372C1821.93,-198.958 1774.49,-178.756 1743.65,-165.625"/>
<polygon fill="midnightblue" stroke="midnightblue" points="1744.84,-162.328 1734.27,-161.63 1742.1,-168.768 1744.84,-162.328"/>
</g>
<!-- Node46 -->
<g id="node46" class="node"><title>Node46</title>
<polygon fill="none" stroke="#bfbfbf" points="1843,-142.5 1843,-161.5 1895,-161.5 1895,-142.5 1843,-142.5"/>
<text text-anchor="middle" x="1869" y="-149.5" font-family="Helvetica,sans-Serif" font-size="10.00">sstream</text>
</g>
<!-- Node45&#45;&gt;Node46 -->
<g id="edge54" class="edge"><title>Node45&#45;&gt;Node46</title>
<path fill="none" stroke="midnightblue" d="M1869,-210.372C1869,-200.643 1869,-184.528 1869,-171.85"/>
<polygon fill="midnightblue" stroke="midnightblue" points="1872.5,-171.841 1869,-161.841 1865.5,-171.841 1872.5,-171.841"/>
</g>
<!-- Node48 -->
<g id="node48" class="node"><title>Node48</title>
<g id="a_node48"><a xlink:href="../../d7/dcd/MCCompLabel_8h.html" target="_top" xlink:title="SimulationDataFormat\l/MCCompLabel.h">
<polygon fill="none" stroke="black" points="817,-137 817,-167 931,-167 931,-137 817,-137"/>
<text text-anchor="start" x="825" y="-155" font-family="Helvetica,sans-Serif" font-size="10.00">SimulationDataFormat</text>
<text text-anchor="middle" x="874" y="-144" font-family="Helvetica,sans-Serif" font-size="10.00">/MCCompLabel.h</text>
</a>
</g>
</g>
<!-- Node47&#45;&gt;Node48 -->
<g id="edge60" class="edge"><title>Node47&#45;&gt;Node48</title>
<path fill="none" stroke="midnightblue" d="M815.726,-278.349C817.299,-262.791 821.908,-229.35 834,-204 838.993,-193.533 846.449,-183.227 853.575,-174.65"/>
<polygon fill="midnightblue" stroke="midnightblue" points="856.299,-176.852 860.216,-167.007 851.015,-172.261 856.299,-176.852"/>
</g>
<!-- Node48&#45;&gt;Node5 -->
<g id="edge61" class="edge"><title>Node48&#45;&gt;Node5</title>
<path fill="none" stroke="midnightblue" d="M823.448,-136.922C778.958,-124.533 715.167,-106.768 674.926,-95.5617"/>
<polygon fill="midnightblue" stroke="midnightblue" points="675.801,-92.1723 665.229,-92.8612 673.923,-98.9157 675.801,-92.1723"/>
</g>
<!-- Node49&#45;&gt;Node25 -->
<g id="edge64" class="edge"><title>Node49&#45;&gt;Node25</title>
<path fill="none" stroke="midnightblue" d="M906.705,-273.699C903.429,-273.086 900.177,-272.514 897,-272 739.575,-246.534 686.871,-298.13 540,-236 519.665,-227.398 521.058,-215.149 502,-204 462.668,-180.99 448.196,-185.203 406,-168 404.163,-167.251 402.277,-166.466 400.379,-165.663"/>
<polygon fill="midnightblue" stroke="midnightblue" points="401.548,-162.355 390.98,-161.601 398.771,-168.781 401.548,-162.355"/>
</g>
<!-- Node49&#45;&gt;Node42 -->
<g id="edge63" class="edge"><title>Node49&#45;&gt;Node42</title>
<path fill="none" stroke="midnightblue" d="M1000.25,-272.841C1030.27,-261.118 1072.51,-244.624 1101.22,-233.411"/>
<polygon fill="midnightblue" stroke="midnightblue" points="1102.73,-236.58 1110.77,-229.682 1100.18,-230.059 1102.73,-236.58"/>
</g>
<!-- Node50 -->
<g id="node50" class="node"><title>Node50</title>
<polygon fill="none" stroke="#bfbfbf" points="923.5,-210.5 923.5,-229.5 982.5,-229.5 982.5,-210.5 923.5,-210.5"/>
<text text-anchor="middle" x="953" y="-217.5" font-family="Helvetica,sans-Serif" font-size="10.00">stdexcept</text>
</g>
<!-- Node49&#45;&gt;Node50 -->
<g id="edge65" class="edge"><title>Node49&#45;&gt;Node50</title>
<path fill="none" stroke="midnightblue" d="M961.613,-272.679C960.017,-263.101 957.899,-250.394 956.163,-239.977"/>
<polygon fill="midnightblue" stroke="midnightblue" points="959.568,-239.117 954.471,-229.828 952.663,-240.268 959.568,-239.117"/>
</g>
<!-- Node51 -->
<g id="node51" class="node"><title>Node51</title>
<polygon fill="none" stroke="#bfbfbf" points="1000.5,-210.5 1000.5,-229.5 1045.5,-229.5 1045.5,-210.5 1000.5,-210.5"/>
<text text-anchor="middle" x="1023" y="-217.5" font-family="Helvetica,sans-Serif" font-size="10.00">gsl/gsl</text>
</g>
<!-- Node49&#45;&gt;Node51 -->
<g id="edge66" class="edge"><title>Node49&#45;&gt;Node51</title>
<path fill="none" stroke="midnightblue" d="M976.802,-272.679C986.093,-262.286 998.678,-248.208 1008.37,-237.37"/>
<polygon fill="midnightblue" stroke="midnightblue" points="1011.05,-239.616 1015.11,-229.828 1005.83,-234.951 1011.05,-239.616"/>
</g>
<!-- Node52 -->
<g id="node52" class="node"><title>Node52</title>
<polygon fill="none" stroke="#bfbfbf" points="843,-210.5 843,-229.5 905,-229.5 905,-210.5 843,-210.5"/>
<text text-anchor="middle" x="874" y="-217.5" font-family="Helvetica,sans-Serif" font-size="10.00">type_traits</text>
</g>
<!-- Node49&#45;&gt;Node52 -->
<g id="edge67" class="edge"><title>Node49&#45;&gt;Node52</title>
<path fill="none" stroke="midnightblue" d="M944.471,-272.679C929.518,-261.713 908.97,-246.645 893.921,-235.609"/>
<polygon fill="midnightblue" stroke="midnightblue" points="895.913,-232.729 885.779,-229.638 891.773,-238.374 895.913,-232.729"/>
</g>
</g>
</svg>
