<?xml version="1.0" encoding="UTF-8" standalone="no"?>
<!DOCTYPE svg PUBLIC "-//W3C//DTD SVG 1.1//EN"
 "http://www.w3.org/Graphics/SVG/1.1/DTD/svg11.dtd">
<!-- Generated by graphviz version 2.36.0 (20140111.2315)
 -->
<!-- Title: /home/travis/build/AliceO2Group/AliceO2/Utilities/Publishers/include/Publishers/DataPublisherDevice.h Pages: 1 -->
<svg width="2096pt" height="364pt"
 viewBox="0.00 0.00 2096.00 364.00" xmlns="http://www.w3.org/2000/svg" xmlns:xlink="http://www.w3.org/1999/xlink">
<g id="graph0" class="graph" transform="scale(1 1) rotate(0) translate(4 360)">
<title>/home/travis/build/AliceO2Group/AliceO2/Utilities/Publishers/include/Publishers/DataPublisherDevice.h</title>
<!-- Node1 -->
<g id="node1" class="node"><title>Node1</title>
<polygon fill="#bfbfbf" stroke="black" points="215,-292.5 215,-355.5 379,-355.5 379,-292.5 215,-292.5"/>
<text text-anchor="start" x="223" y="-343.5" font-family="Helvetica,sans-Serif" font-size="10.00">/home/travis/build</text>
<text text-anchor="start" x="223" y="-332.5" font-family="Helvetica,sans-Serif" font-size="10.00">/AliceO2Group/AliceO2</text>
<text text-anchor="start" x="223" y="-321.5" font-family="Helvetica,sans-Serif" font-size="10.00">/Utilities/Publishers</text>
<text text-anchor="start" x="223" y="-310.5" font-family="Helvetica,sans-Serif" font-size="10.00">/include/Publishers/DataPublisher</text>
<text text-anchor="middle" x="297" y="-299.5" font-family="Helvetica,sans-Serif" font-size="10.00">Device.h</text>
</g>
<!-- Node2 -->
<g id="node2" class="node"><title>Node2</title>
<g id="a_node2"><a xlink:href="../../dc/dcd/DataHeader_8h.html" target="_top" xlink:title="Headers/DataHeader.h">
<polygon fill="none" stroke="black" points="401.5,-68.5 401.5,-87.5 518.5,-87.5 518.5,-68.5 401.5,-68.5"/>
<text text-anchor="middle" x="460" y="-75.5" font-family="Helvetica,sans-Serif" font-size="10.00">Headers/DataHeader.h</text>
</a>
</g>
</g>
<!-- Node1&#45;&gt;Node2 -->
<g id="edge1" class="edge"><title>Node1&#45;&gt;Node2</title>
<path fill="none" stroke="midnightblue" d="M317.33,-292.279C336.529,-263.296 366.151,-218.65 392,-180 411.782,-150.421 434.952,-116.07 448.499,-96.0127"/>
<polygon fill="midnightblue" stroke="midnightblue" points="451.462,-97.88 454.16,-87.6346 445.662,-93.9608 451.462,-97.88"/>
</g>
<!-- Node6 -->
<g id="node6" class="node"><title>Node6</title>
<polygon fill="none" stroke="#bfbfbf" points="571,-6.5 571,-25.5 617,-25.5 617,-6.5 571,-6.5"/>
<text text-anchor="middle" x="594" y="-13.5" font-family="Helvetica,sans-Serif" font-size="10.00">cstring</text>
</g>
<!-- Node1&#45;&gt;Node6 -->
<g id="edge42" class="edge"><title>Node1&#45;&gt;Node6</title>
<path fill="none" stroke="midnightblue" d="M297,-292.327C297,-265.574 297,-225.719 297,-191 297,-191 297,-191 297,-133 297,-43.9209 551.276,-35.5957 562,-32 564.127,-31.2869 566.299,-30.4714 568.46,-29.5975"/>
<polygon fill="midnightblue" stroke="midnightblue" points="569.951,-32.7652 577.689,-25.5274 567.127,-26.3605 569.951,-32.7652"/>
</g>
<!-- Node11 -->
<g id="node11" class="node"><title>Node11</title>
<g id="a_node11"><a xlink:href="../../d2/d09/HeartbeatFrame_8h.html" target="_top" xlink:title="Headers/HeartbeatFrame.h">
<polygon fill="none" stroke="black" points="133.5,-124.5 133.5,-143.5 268.5,-143.5 268.5,-124.5 133.5,-124.5"/>
<text text-anchor="middle" x="201" y="-131.5" font-family="Helvetica,sans-Serif" font-size="10.00">Headers/HeartbeatFrame.h</text>
</a>
</g>
</g>
<!-- Node1&#45;&gt;Node11 -->
<g id="edge10" class="edge"><title>Node1&#45;&gt;Node11</title>
<path fill="none" stroke="midnightblue" d="M281.362,-292.376C261.131,-252.756 226.542,-185.019 210.142,-152.903"/>
<polygon fill="midnightblue" stroke="midnightblue" points="213.163,-151.123 205.498,-143.809 206.929,-154.306 213.163,-151.123"/>
</g>
<!-- Node14 -->
<g id="node14" class="node"><title>Node14</title>
<polygon fill="none" stroke="#bfbfbf" points="0,-6.5 0,-25.5 44,-25.5 44,-6.5 0,-6.5"/>
<text text-anchor="middle" x="22" y="-13.5" font-family="Helvetica,sans-Serif" font-size="10.00">vector</text>
</g>
<!-- Node1&#45;&gt;Node14 -->
<g id="edge43" class="edge"><title>Node1&#45;&gt;Node14</title>
<path fill="none" stroke="midnightblue" d="M214.658,-316.302C136.536,-304.908 31,-274.131 31,-191 31,-191 31,-191 31,-133 31,-98.6129 27.0201,-58.6631 24.3534,-35.7555"/>
<polygon fill="midnightblue" stroke="midnightblue" points="27.8144,-35.2209 23.1399,-25.7131 20.865,-36.0608 27.8144,-35.2209"/>
</g>
<!-- Node15 -->
<g id="node15" class="node"><title>Node15</title>
<g id="a_node15"><a xlink:href="../../d2/dee/O2Device_8h.html" target="_top" xlink:title="O2Device/O2Device.h">
<polygon fill="none" stroke="black" points="488.5,-236.5 488.5,-255.5 603.5,-255.5 603.5,-236.5 488.5,-236.5"/>
<text text-anchor="middle" x="546" y="-243.5" font-family="Helvetica,sans-Serif" font-size="10.00">O2Device/O2Device.h</text>
</a>
</g>
</g>
<!-- Node1&#45;&gt;Node15 -->
<g id="edge15" class="edge"><title>Node1&#45;&gt;Node15</title>
<path fill="none" stroke="midnightblue" d="M379.222,-297.904C422.8,-284.603 474.22,-268.909 508.326,-258.499"/>
<polygon fill="midnightblue" stroke="midnightblue" points="509.353,-261.845 517.896,-255.578 507.31,-255.15 509.353,-261.845"/>
</g>
<!-- Node3 -->
<g id="node3" class="node"><title>Node3</title>
<polygon fill="none" stroke="#bfbfbf" points="437,-6.5 437,-25.5 483,-25.5 483,-6.5 437,-6.5"/>
<text text-anchor="middle" x="460" y="-13.5" font-family="Helvetica,sans-Serif" font-size="10.00">cstdint</text>
</g>
<!-- Node2&#45;&gt;Node3 -->
<g id="edge2" class="edge"><title>Node2&#45;&gt;Node3</title>
<path fill="none" stroke="midnightblue" d="M460,-68.4035C460,-59.9381 460,-46.7283 460,-35.8199"/>
<polygon fill="midnightblue" stroke="midnightblue" points="463.5,-35.5806 460,-25.5806 456.5,-35.5806 463.5,-35.5806"/>
</g>
<!-- Node4 -->
<g id="node4" class="node"><title>Node4</title>
<polygon fill="none" stroke="#bfbfbf" points="501,-6.5 501,-25.5 553,-25.5 553,-6.5 501,-6.5"/>
<text text-anchor="middle" x="527" y="-13.5" font-family="Helvetica,sans-Serif" font-size="10.00">memory</text>
</g>
<!-- Node2&#45;&gt;Node4 -->
<g id="edge3" class="edge"><title>Node2&#45;&gt;Node4</title>
<path fill="none" stroke="midnightblue" d="M469.599,-68.4035C480.048,-59.047 496.968,-43.8948 509.736,-32.4599"/>
<polygon fill="midnightblue" stroke="midnightblue" points="512.304,-34.8592 517.418,-25.5806 507.634,-29.6445 512.304,-34.8592"/>
</g>
<!-- Node5 -->
<g id="node5" class="node"><title>Node5</title>
<polygon fill="none" stroke="#bfbfbf" points="139.5,-6.5 139.5,-25.5 188.5,-25.5 188.5,-6.5 139.5,-6.5"/>
<text text-anchor="middle" x="164" y="-13.5" font-family="Helvetica,sans-Serif" font-size="10.00">cassert</text>
</g>
<!-- Node2&#45;&gt;Node5 -->
<g id="edge4" class="edge"><title>Node2&#45;&gt;Node5</title>
<path fill="none" stroke="midnightblue" d="M401.274,-68.6273C336.051,-59.0254 235.063,-43.1728 198,-32 195.568,-31.2668 193.079,-30.4043 190.61,-29.4695"/>
<polygon fill="midnightblue" stroke="midnightblue" points="191.913,-26.2212 181.335,-25.6277 189.234,-32.6883 191.913,-26.2212"/>
</g>
<!-- Node2&#45;&gt;Node6 -->
<g id="edge5" class="edge"><title>Node2&#45;&gt;Node6</title>
<path fill="none" stroke="midnightblue" d="M479.996,-68.339C500.605,-59.3749 533.635,-44.903 562,-32 563.396,-31.3649 564.825,-30.7107 566.266,-30.0474"/>
<polygon fill="midnightblue" stroke="midnightblue" points="568.162,-33.026 575.757,-25.6391 565.213,-26.6774 568.162,-33.026"/>
</g>
<!-- Node7 -->
<g id="node7" class="node"><title>Node7</title>
<polygon fill="none" stroke="#bfbfbf" points="207,-6.5 207,-25.5 263,-25.5 263,-6.5 207,-6.5"/>
<text text-anchor="middle" x="235" y="-13.5" font-family="Helvetica,sans-Serif" font-size="10.00">algorithm</text>
</g>
<!-- Node2&#45;&gt;Node7 -->
<g id="edge6" class="edge"><title>Node2&#45;&gt;Node7</title>
<path fill="none" stroke="midnightblue" d="M416.181,-68.4601C377.749,-60.5102 320.58,-47.5642 272,-32 269.428,-31.1759 266.781,-30.2551 264.143,-29.2862"/>
<polygon fill="midnightblue" stroke="midnightblue" points="265.358,-26.0034 254.769,-25.6528 262.828,-32.5303 265.358,-26.0034"/>
</g>
<!-- Node8 -->
<g id="node8" class="node"><title>Node8</title>
<polygon fill="none" stroke="#bfbfbf" points="62.5,-6.5 62.5,-25.5 121.5,-25.5 121.5,-6.5 62.5,-6.5"/>
<text text-anchor="middle" x="92" y="-13.5" font-family="Helvetica,sans-Serif" font-size="10.00">stdexcept</text>
</g>
<!-- Node2&#45;&gt;Node8 -->
<g id="edge7" class="edge"><title>Node2&#45;&gt;Node8</title>
<path fill="none" stroke="midnightblue" d="M401.405,-69.7866C313.658,-58.8665 155.628,-38.701 130,-32 126.942,-31.2005 123.797,-30.2248 120.689,-29.1585"/>
<polygon fill="midnightblue" stroke="midnightblue" points="121.624,-25.7717 111.032,-25.5484 119.173,-32.3285 121.624,-25.7717"/>
</g>
<!-- Node9 -->
<g id="node9" class="node"><title>Node9</title>
<polygon fill="none" stroke="#bfbfbf" points="635.5,-6.5 635.5,-25.5 676.5,-25.5 676.5,-6.5 635.5,-6.5"/>
<text text-anchor="middle" x="656" y="-13.5" font-family="Helvetica,sans-Serif" font-size="10.00">string</text>
</g>
<!-- Node2&#45;&gt;Node9 -->
<g id="edge8" class="edge"><title>Node2&#45;&gt;Node9</title>
<path fill="none" stroke="midnightblue" d="M500.286,-68.4492C534.35,-60.661 584.148,-47.9534 626,-32 627.646,-31.3726 629.322,-30.684 630.998,-29.9575"/>
<polygon fill="midnightblue" stroke="midnightblue" points="632.824,-32.9661 640.384,-25.543 629.845,-26.6317 632.824,-32.9661"/>
</g>
<!-- Node10 -->
<g id="node10" class="node"><title>Node10</title>
<g id="a_node10"><a xlink:href="../../d7/df8/Types_8h.html" target="_top" xlink:title="MemoryResources/Types.h">
<polygon fill="none" stroke="black" points="281.5,-6.5 281.5,-25.5 418.5,-25.5 418.5,-6.5 281.5,-6.5"/>
<text text-anchor="middle" x="350" y="-13.5" font-family="Helvetica,sans-Serif" font-size="10.00">MemoryResources/Types.h</text>
</a>
</g>
</g>
<!-- Node2&#45;&gt;Node10 -->
<g id="edge9" class="edge"><title>Node2&#45;&gt;Node10</title>
<path fill="none" stroke="midnightblue" d="M444.24,-68.4035C426.024,-58.4678 395.827,-41.9966 374.532,-30.3812"/>
<polygon fill="midnightblue" stroke="midnightblue" points="376.186,-27.2965 365.731,-25.5806 372.834,-33.4418 376.186,-27.2965"/>
</g>
<!-- Node11&#45;&gt;Node2 -->
<g id="edge11" class="edge"><title>Node11&#45;&gt;Node2</title>
<path fill="none" stroke="midnightblue" d="M242.039,-124.444C287.316,-115.004 360.227,-99.802 409.106,-89.6111"/>
<polygon fill="midnightblue" stroke="midnightblue" points="410.078,-92.9839 419.153,-87.5164 408.649,-86.1312 410.078,-92.9839"/>
</g>
<!-- Node12 -->
<g id="node12" class="node"><title>Node12</title>
<polygon fill="none" stroke="#bfbfbf" points="201.5,-68.5 201.5,-87.5 260.5,-87.5 260.5,-68.5 201.5,-68.5"/>
<text text-anchor="middle" x="231" y="-75.5" font-family="Helvetica,sans-Serif" font-size="10.00">functional</text>
</g>
<!-- Node11&#45;&gt;Node12 -->
<g id="edge12" class="edge"><title>Node11&#45;&gt;Node12</title>
<path fill="none" stroke="midnightblue" d="M205.954,-124.083C210.104,-116.613 216.153,-105.724 221.267,-96.5199"/>
<polygon fill="midnightblue" stroke="midnightblue" points="224.341,-98.1924 226.138,-87.7511 218.222,-94.7929 224.341,-98.1924"/>
</g>
<!-- Node13 -->
<g id="node13" class="node"><title>Node13</title>
<polygon fill="none" stroke="#bfbfbf" points="148.5,-68.5 148.5,-87.5 183.5,-87.5 183.5,-68.5 148.5,-68.5"/>
<text text-anchor="middle" x="166" y="-75.5" font-family="Helvetica,sans-Serif" font-size="10.00">map</text>
</g>
<!-- Node11&#45;&gt;Node13 -->
<g id="edge13" class="edge"><title>Node11&#45;&gt;Node13</title>
<path fill="none" stroke="midnightblue" d="M195.22,-124.083C190.328,-116.534 183.173,-105.495 177.167,-96.2298"/>
<polygon fill="midnightblue" stroke="midnightblue" points="180.048,-94.239 171.672,-87.7511 174.174,-98.0463 180.048,-94.239"/>
</g>
<!-- Node11&#45;&gt;Node14 -->
<g id="edge14" class="edge"><title>Node11&#45;&gt;Node14</title>
<path fill="none" stroke="midnightblue" d="M187.838,-124.47C157.321,-104.694 81.4841,-55.5484 43.8701,-31.1728"/>
<polygon fill="midnightblue" stroke="midnightblue" points="45.477,-28.0435 35.1816,-25.5423 41.6701,-33.9178 45.477,-28.0435"/>
</g>
<!-- Node15&#45;&gt;Node8 -->
<g id="edge41" class="edge"><title>Node15&#45;&gt;Node8</title>
<path fill="none" stroke="midnightblue" d="M491.399,-236.456C460.548,-229.873 422.23,-218.638 392,-200 323.742,-157.917 337.9,-109.025 269,-68 214.168,-35.3514 190.682,-51.7526 130,-32 127.372,-31.1445 124.663,-30.2019 121.96,-29.2185"/>
<polygon fill="midnightblue" stroke="midnightblue" points="122.934,-25.8445 112.343,-25.5612 120.446,-32.3873 122.934,-25.8445"/>
</g>
<!-- Node16 -->
<g id="node16" class="node"><title>Node16</title>
<polygon fill="none" stroke="#bfbfbf" points="571,-180.5 571,-199.5 659,-199.5 659,-180.5 571,-180.5"/>
<text text-anchor="middle" x="615" y="-187.5" font-family="Helvetica,sans-Serif" font-size="10.00">FairMQDevice.h</text>
</g>
<!-- Node15&#45;&gt;Node16 -->
<g id="edge16" class="edge"><title>Node15&#45;&gt;Node16</title>
<path fill="none" stroke="midnightblue" d="M557.086,-236.324C567.486,-228.185 583.261,-215.839 595.722,-206.087"/>
<polygon fill="midnightblue" stroke="midnightblue" points="597.994,-208.753 603.712,-199.834 593.68,-203.241 597.994,-208.753"/>
</g>
<!-- Node17 -->
<g id="node17" class="node"><title>Node17</title>
<polygon fill="none" stroke="#bfbfbf" points="677,-180.5 677,-199.5 823,-199.5 823,-180.5 677,-180.5"/>
<text text-anchor="middle" x="750" y="-187.5" font-family="Helvetica,sans-Serif" font-size="10.00">options/FairMQProgOptions.h</text>
</g>
<!-- Node15&#45;&gt;Node17 -->
<g id="edge17" class="edge"><title>Node15&#45;&gt;Node17</title>
<path fill="none" stroke="midnightblue" d="M578.324,-236.444C613.389,-227.162 669.498,-212.309 707.965,-202.127"/>
<polygon fill="midnightblue" stroke="midnightblue" points="709.055,-205.459 717.827,-199.516 707.264,-198.692 709.055,-205.459"/>
</g>
<!-- Node18 -->
<g id="node18" class="node"><title>Node18</title>
<g id="a_node18"><a xlink:href="../../d7/db2/Utilities_8h.html" target="_top" xlink:title="O2Device/Utilities.h">
<polygon fill="none" stroke="black" points="1017,-180.5 1017,-199.5 1121,-199.5 1121,-180.5 1017,-180.5"/>
<text text-anchor="middle" x="1069" y="-187.5" font-family="Helvetica,sans-Serif" font-size="10.00">O2Device/Utilities.h</text>
</a>
</g>
</g>
<!-- Node15&#45;&gt;Node18 -->
<g id="edge18" class="edge"><title>Node15&#45;&gt;Node18</title>
<path fill="none" stroke="midnightblue" d="M603.717,-239.041C702.855,-228.805 904.66,-207.968 1006.8,-197.422"/>
<polygon fill="midnightblue" stroke="midnightblue" points="1007.38,-200.881 1016.96,-196.373 1006.66,-193.918 1007.38,-200.881"/>
</g>
<!-- Node33 -->
<g id="node33" class="node"><title>Node33</title>
<polygon fill="none" stroke="#bfbfbf" points="401.5,-180.5 401.5,-199.5 552.5,-199.5 552.5,-180.5 401.5,-180.5"/>
<text text-anchor="middle" x="477" y="-187.5" font-family="Helvetica,sans-Serif" font-size="10.00">Monitoring/MonitoringFactory.h</text>
</g>
<!-- Node15&#45;&gt;Node33 -->
<g id="edge40" class="edge"><title>Node15&#45;&gt;Node33</title>
<path fill="none" stroke="midnightblue" d="M534.914,-236.324C524.514,-228.185 508.739,-215.839 496.278,-206.087"/>
<polygon fill="midnightblue" stroke="midnightblue" points="498.32,-203.241 488.288,-199.834 494.006,-208.753 498.32,-203.241"/>
</g>
<!-- Node18&#45;&gt;Node2 -->
<g id="edge34" class="edge"><title>Node18&#45;&gt;Node2</title>
<path fill="none" stroke="midnightblue" d="M1021.72,-180.46C911.333,-160.522 636.956,-110.963 517.31,-89.3515"/>
<polygon fill="midnightblue" stroke="midnightblue" points="517.713,-85.8678 507.25,-87.5345 516.469,-92.7564 517.713,-85.8678"/>
</g>
<!-- Node19 -->
<g id="node19" class="node"><title>Node19</title>
<g id="a_node19"><a xlink:href="../../dc/d03/MemoryResources_8h.html" target="_top" xlink:title="MemoryResources/MemoryResources.h">
<polygon fill="none" stroke="black" points="1009.5,-68.5 1009.5,-87.5 1202.5,-87.5 1202.5,-68.5 1009.5,-68.5"/>
<text text-anchor="middle" x="1106" y="-75.5" font-family="Helvetica,sans-Serif" font-size="10.00">MemoryResources/MemoryResources.h</text>
</a>
</g>
</g>
<!-- Node18&#45;&gt;Node19 -->
<g id="edge19" class="edge"><title>Node18&#45;&gt;Node19</title>
<path fill="none" stroke="midnightblue" d="M1072.7,-180.466C1076.52,-171.483 1082.55,-156.885 1087,-144 1092.34,-128.546 1097.48,-110.701 1101.07,-97.6234"/>
<polygon fill="midnightblue" stroke="midnightblue" points="1104.46,-98.4827 1103.69,-87.9164 1097.7,-96.6606 1104.46,-98.4827"/>
</g>
<!-- Node25 -->
<g id="node25" class="node"><title>Node25</title>
<polygon fill="none" stroke="#bfbfbf" points="2048,-6.5 2048,-25.5 2088,-25.5 2088,-6.5 2048,-6.5"/>
<text text-anchor="middle" x="2068" y="-13.5" font-family="Helvetica,sans-Serif" font-size="10.00">utility</text>
</g>
<!-- Node18&#45;&gt;Node25 -->
<g id="edge38" class="edge"><title>Node18&#45;&gt;Node25</title>
<path fill="none" stroke="midnightblue" d="M1088.22,-180.492C1120.95,-166.381 1189.9,-138.281 1251,-124 1594.35,-43.7438 1701.81,-135.117 2039,-32 2040.91,-31.4157 2042.85,-30.7078 2044.76,-29.9216"/>
<polygon fill="midnightblue" stroke="midnightblue" points="2046.45,-32.9957 2053.98,-25.546 2043.44,-26.6718 2046.45,-32.9957"/>
</g>
<!-- Node31 -->
<g id="node31" class="node"><title>Node31</title>
<g id="a_node31"><a xlink:href="../../d4/d00/Headers_2include_2Headers_2Stack_8h.html" target="_top" xlink:title="Headers/Stack.h">
<polygon fill="none" stroke="black" points="988,-124.5 988,-143.5 1078,-143.5 1078,-124.5 988,-124.5"/>
<text text-anchor="middle" x="1033" y="-131.5" font-family="Helvetica,sans-Serif" font-size="10.00">Headers/Stack.h</text>
</a>
</g>
</g>
<!-- Node18&#45;&gt;Node31 -->
<g id="edge35" class="edge"><title>Node18&#45;&gt;Node31</title>
<path fill="none" stroke="midnightblue" d="M1063.06,-180.083C1058.02,-172.534 1050.66,-161.495 1044.49,-152.23"/>
<polygon fill="midnightblue" stroke="midnightblue" points="1047.29,-150.13 1038.83,-143.751 1041.47,-154.013 1047.29,-150.13"/>
</g>
<!-- Node32 -->
<g id="node32" class="node"><title>Node32</title>
<polygon fill="none" stroke="#bfbfbf" points="1259.5,-124.5 1259.5,-143.5 1304.5,-143.5 1304.5,-124.5 1259.5,-124.5"/>
<text text-anchor="middle" x="1282" y="-131.5" font-family="Helvetica,sans-Serif" font-size="10.00">gsl/gsl</text>
</g>
<!-- Node18&#45;&gt;Node32 -->
<g id="edge39" class="edge"><title>Node18&#45;&gt;Node32</title>
<path fill="none" stroke="midnightblue" d="M1102.75,-180.444C1143,-170.239 1209.81,-153.302 1249.5,-143.239"/>
<polygon fill="midnightblue" stroke="midnightblue" points="1250.38,-146.627 1259.21,-140.777 1248.66,-139.842 1250.38,-146.627"/>
</g>
<!-- Node19&#45;&gt;Node6 -->
<g id="edge24" class="edge"><title>Node19&#45;&gt;Node6</title>
<path fill="none" stroke="midnightblue" d="M1009.1,-77.6158C910.894,-75.9991 755.413,-67.2465 626,-32 623.652,-31.3606 621.264,-30.5594 618.904,-29.6618"/>
<polygon fill="midnightblue" stroke="midnightblue" points="620.107,-26.3681 609.54,-25.5972 617.319,-32.7894 620.107,-26.3681"/>
</g>
<!-- Node19&#45;&gt;Node9 -->
<g id="edge25" class="edge"><title>Node19&#45;&gt;Node9</title>
<path fill="none" stroke="midnightblue" d="M1009.45,-76.3521C923.083,-73.5074 793.845,-63.6184 686,-32 684.03,-31.4225 682.034,-30.7197 680.056,-29.9369"/>
<polygon fill="midnightblue" stroke="midnightblue" points="681.075,-26.5535 670.526,-25.5679 678.158,-32.9168 681.075,-26.5535"/>
</g>
<!-- Node19&#45;&gt;Node14 -->
<g id="edge28" class="edge"><title>Node19&#45;&gt;Node14</title>
<path fill="none" stroke="midnightblue" d="M1009.44,-75.1081C766.742,-70.0354 144.104,-54.9414 53,-32 50.6519,-31.4087 48.2708,-30.6291 45.926,-29.7355"/>
<polygon fill="midnightblue" stroke="midnightblue" points="47.2277,-26.4838 36.6688,-25.6114 44.379,-32.878 47.2277,-26.4838"/>
</g>
<!-- Node20 -->
<g id="node20" class="node"><title>Node20</title>
<polygon fill="none" stroke="#bfbfbf" points="695,-1 695,-31 795,-31 795,-1 695,-1"/>
<text text-anchor="start" x="703" y="-19" font-family="Helvetica,sans-Serif" font-size="10.00">boost/container/flat</text>
<text text-anchor="middle" x="745" y="-8" font-family="Helvetica,sans-Serif" font-size="10.00">_map.hpp</text>
</g>
<!-- Node19&#45;&gt;Node20 -->
<g id="edge20" class="edge"><title>Node19&#45;&gt;Node20</title>
<path fill="none" stroke="midnightblue" d="M1034.87,-68.4631C975.783,-60.9002 889.36,-48.7494 805.126,-32.1102"/>
<polygon fill="midnightblue" stroke="midnightblue" points="805.625,-28.6407 795.133,-30.1126 804.253,-35.5049 805.625,-28.6407"/>
</g>
<!-- Node21 -->
<g id="node21" class="node"><title>Node21</title>
<polygon fill="none" stroke="#bfbfbf" points="813,-1 813,-31 929,-31 929,-1 813,-1"/>
<text text-anchor="start" x="821" y="-19" font-family="Helvetica,sans-Serif" font-size="10.00">boost/container/pmr</text>
<text text-anchor="middle" x="871" y="-8" font-family="Helvetica,sans-Serif" font-size="10.00">/memory_resource.hpp</text>
</g>
<!-- Node19&#45;&gt;Node21 -->
<g id="edge21" class="edge"><title>Node19&#45;&gt;Node21</title>
<path fill="none" stroke="midnightblue" d="M1072.33,-68.4035C1036.82,-59.3358 979.98,-44.8248 935.74,-33.5292"/>
<polygon fill="midnightblue" stroke="midnightblue" points="936.488,-30.108 925.932,-31.0253 934.756,-36.8904 936.488,-30.108"/>
</g>
<!-- Node22 -->
<g id="node22" class="node"><title>Node22</title>
<polygon fill="none" stroke="#bfbfbf" points="947,-1 947,-31 1103,-31 1103,-1 947,-1"/>
<text text-anchor="start" x="955" y="-19" font-family="Helvetica,sans-Serif" font-size="10.00">boost/container/pmr</text>
<text text-anchor="middle" x="1025" y="-8" font-family="Helvetica,sans-Serif" font-size="10.00">/monotonic_buffer_resource.hpp</text>
</g>
<!-- Node19&#45;&gt;Node22 -->
<g id="edge22" class="edge"><title>Node19&#45;&gt;Node22</title>
<path fill="none" stroke="midnightblue" d="M1094.39,-68.4035C1083.42,-60.2773 1066.55,-47.7794 1052.19,-37.1419"/>
<polygon fill="midnightblue" stroke="midnightblue" points="1054.21,-34.2807 1044.09,-31.1408 1050.04,-39.9056 1054.21,-34.2807"/>
</g>
<!-- Node23 -->
<g id="node23" class="node"><title>Node23</title>
<polygon fill="none" stroke="#bfbfbf" points="1121.5,-1 1121.5,-31 1254.5,-31 1254.5,-1 1121.5,-1"/>
<text text-anchor="start" x="1129.5" y="-19" font-family="Helvetica,sans-Serif" font-size="10.00">boost/container/pmr</text>
<text text-anchor="middle" x="1188" y="-8" font-family="Helvetica,sans-Serif" font-size="10.00">/polymorphic_allocator.hpp</text>
</g>
<!-- Node19&#45;&gt;Node23 -->
<g id="edge23" class="edge"><title>Node19&#45;&gt;Node23</title>
<path fill="none" stroke="midnightblue" d="M1117.75,-68.4035C1128.85,-60.2773 1145.93,-47.7794 1160.47,-37.1419"/>
<polygon fill="midnightblue" stroke="midnightblue" points="1162.67,-39.8706 1168.67,-31.1408 1158.54,-34.2213 1162.67,-39.8706"/>
</g>
<!-- Node24 -->
<g id="node24" class="node"><title>Node24</title>
<polygon fill="none" stroke="#bfbfbf" points="1273,-6.5 1273,-25.5 1335,-25.5 1335,-6.5 1273,-6.5"/>
<text text-anchor="middle" x="1304" y="-13.5" font-family="Helvetica,sans-Serif" font-size="10.00">type_traits</text>
</g>
<!-- Node19&#45;&gt;Node24 -->
<g id="edge26" class="edge"><title>Node19&#45;&gt;Node24</title>
<path fill="none" stroke="midnightblue" d="M1138.38,-68.4476C1170.27,-59.8539 1220.27,-45.9209 1263,-32 1265.93,-31.0448 1268.97,-30.0142 1272,-28.9565"/>
<polygon fill="midnightblue" stroke="midnightblue" points="1273.31,-32.2067 1281.54,-25.5441 1270.95,-25.6153 1273.31,-32.2067"/>
</g>
<!-- Node19&#45;&gt;Node25 -->
<g id="edge27" class="edge"><title>Node19&#45;&gt;Node25</title>
<path fill="none" stroke="midnightblue" d="M1202.55,-68.9554C1207.43,-68.6161 1212.27,-68.2951 1217,-68 1399.49,-56.6098 1862.33,-79.1034 2039,-32 2040.97,-31.4743 2042.96,-30.7998 2044.93,-30.0288"/>
<polygon fill="midnightblue" stroke="midnightblue" points="2046.77,-33.0291 2054.34,-25.6111 2043.8,-26.6927 2046.77,-33.0291"/>
</g>
<!-- Node26 -->
<g id="node26" class="node"><title>Node26</title>
<polygon fill="none" stroke="#bfbfbf" points="1353.5,-6.5 1353.5,-25.5 1436.5,-25.5 1436.5,-6.5 1353.5,-6.5"/>
<text text-anchor="middle" x="1395" y="-13.5" font-family="Helvetica,sans-Serif" font-size="10.00">unordered_map</text>
</g>
<!-- Node19&#45;&gt;Node26 -->
<g id="edge29" class="edge"><title>Node19&#45;&gt;Node26</title>
<path fill="none" stroke="midnightblue" d="M1158.54,-68.4702C1206.77,-60.2996 1280.06,-47.0184 1343,-32 1347.67,-30.8864 1352.54,-29.6203 1357.35,-28.3068"/>
<polygon fill="midnightblue" stroke="midnightblue" points="1358.38,-31.6537 1367.06,-25.5778 1356.49,-24.9149 1358.38,-31.6537"/>
</g>
<!-- Node27 -->
<g id="node27" class="node"><title>Node27</title>
<polygon fill="none" stroke="#bfbfbf" points="1454.5,-6.5 1454.5,-25.5 1551.5,-25.5 1551.5,-6.5 1454.5,-6.5"/>
<text text-anchor="middle" x="1503" y="-13.5" font-family="Helvetica,sans-Serif" font-size="10.00">FairMQMessage.h</text>
</g>
<!-- Node19&#45;&gt;Node27 -->
<g id="edge30" class="edge"><title>Node19&#45;&gt;Node27</title>
<path fill="none" stroke="midnightblue" d="M1192.15,-68.4783C1260.95,-60.9737 1359.63,-48.642 1445,-32 1450.82,-30.8654 1456.93,-29.4921 1462.9,-28.0428"/>
<polygon fill="midnightblue" stroke="midnightblue" points="1463.91,-31.3968 1472.76,-25.5605 1462.2,-24.6087 1463.91,-31.3968"/>
</g>
<!-- Node28 -->
<g id="node28" class="node"><title>Node28</title>
<polygon fill="none" stroke="#bfbfbf" points="1569.5,-6.5 1569.5,-25.5 1700.5,-25.5 1700.5,-6.5 1569.5,-6.5"/>
<text text-anchor="middle" x="1635" y="-13.5" font-family="Helvetica,sans-Serif" font-size="10.00">FairMQTransportFactory.h</text>
</g>
<!-- Node19&#45;&gt;Node28 -->
<g id="edge31" class="edge"><title>Node19&#45;&gt;Node28</title>
<path fill="none" stroke="midnightblue" d="M1202.74,-68.5401C1315.06,-58.5185 1493.41,-41.9341 1560,-32 1568.5,-30.7326 1577.49,-29.1479 1586.18,-27.4872"/>
<polygon fill="midnightblue" stroke="midnightblue" points="1587.06,-30.8805 1596.2,-25.5173 1585.71,-24.012 1587.06,-30.8805"/>
</g>
<!-- Node29 -->
<g id="node29" class="node"><title>Node29</title>
<polygon fill="none" stroke="#bfbfbf" points="1718.5,-6.5 1718.5,-25.5 1855.5,-25.5 1855.5,-6.5 1718.5,-6.5"/>
<text text-anchor="middle" x="1787" y="-13.5" font-family="Helvetica,sans-Serif" font-size="10.00">fairmq/MemoryResources.h</text>
</g>
<!-- Node19&#45;&gt;Node29 -->
<g id="edge32" class="edge"><title>Node19&#45;&gt;Node29</title>
<path fill="none" stroke="midnightblue" d="M1202.56,-69.1251C1207.44,-68.7412 1212.28,-68.3642 1217,-68 1435.6,-51.1404 1491.64,-60.7517 1709,-32 1718.24,-30.7782 1728.03,-29.1566 1737.44,-27.4312"/>
<polygon fill="midnightblue" stroke="midnightblue" points="1738.29,-30.8329 1747.47,-25.5323 1736.99,-23.9553 1738.29,-30.8329"/>
</g>
<!-- Node30 -->
<g id="node30" class="node"><title>Node30</title>
<polygon fill="none" stroke="#bfbfbf" points="1874,-6.5 1874,-25.5 2030,-25.5 2030,-6.5 1874,-6.5"/>
<text text-anchor="middle" x="1952" y="-13.5" font-family="Helvetica,sans-Serif" font-size="10.00">fairmq/MemoryResourceTools.h</text>
</g>
<!-- Node19&#45;&gt;Node30 -->
<g id="edge33" class="edge"><title>Node19&#45;&gt;Node30</title>
<path fill="none" stroke="midnightblue" d="M1202.55,-69.0239C1207.44,-68.6666 1212.27,-68.323 1217,-68 1504.33,-48.3609 1577.81,-64.2482 1864,-32 1874.97,-30.7644 1886.64,-29.0557 1897.78,-27.2327"/>
<polygon fill="midnightblue" stroke="midnightblue" points="1898.54,-30.6529 1907.82,-25.5366 1897.38,-23.7506 1898.54,-30.6529"/>
</g>
<!-- Node31&#45;&gt;Node2 -->
<g id="edge37" class="edge"><title>Node31&#45;&gt;Node2</title>
<path fill="none" stroke="midnightblue" d="M987.559,-128.718C887.506,-119.289 647.656,-96.6848 528.948,-85.4977"/>
<polygon fill="midnightblue" stroke="midnightblue" points="529.168,-82.003 518.884,-84.5493 528.511,-88.9722 529.168,-82.003"/>
</g>
<!-- Node31&#45;&gt;Node19 -->
<g id="edge36" class="edge"><title>Node31&#45;&gt;Node19</title>
<path fill="none" stroke="midnightblue" d="M1044.73,-124.324C1055.84,-116.107 1072.74,-103.602 1085.98,-93.8069"/>
<polygon fill="midnightblue" stroke="midnightblue" points="1088.1,-96.5948 1094.06,-87.8339 1083.94,-90.9671 1088.1,-96.5948"/>
</g>
</g>
</svg>
