<?xml version="1.0" encoding="UTF-8" standalone="no"?>
<!DOCTYPE svg PUBLIC "-//W3C//DTD SVG 1.1//EN"
 "http://www.w3.org/Graphics/SVG/1.1/DTD/svg11.dtd">
<!-- Generated by graphviz version 2.36.0 (20140111.2315)
 -->
<!-- Title: /home/travis/build/AliceO2Group/AliceO2/Detectors/EMCAL/simulation/src/Digitizer.cxx Pages: 1 -->
<svg width="2499pt" height="458pt"
 viewBox="0.00 0.00 2499.00 458.00" xmlns="http://www.w3.org/2000/svg" xmlns:xlink="http://www.w3.org/1999/xlink">
<g id="graph0" class="graph" transform="scale(1 1) rotate(0) translate(4 454)">
<title>/home/travis/build/AliceO2Group/AliceO2/Detectors/EMCAL/simulation/src/Digitizer.cxx</title>
<!-- Node1 -->
<g id="node1" class="node"><title>Node1</title>
<polygon fill="#bfbfbf" stroke="black" points="2045.5,-397 2045.5,-449 2192.5,-449 2192.5,-397 2045.5,-397"/>
<text text-anchor="start" x="2053.5" y="-437" font-family="Helvetica,sans-Serif" font-size="10.00">/home/travis/build</text>
<text text-anchor="start" x="2053.5" y="-426" font-family="Helvetica,sans-Serif" font-size="10.00">/AliceO2Group/AliceO2</text>
<text text-anchor="start" x="2053.5" y="-415" font-family="Helvetica,sans-Serif" font-size="10.00">/Detectors/EMCAL/simulation</text>
<text text-anchor="middle" x="2119" y="-404" font-family="Helvetica,sans-Serif" font-size="10.00">/src/Digitizer.cxx</text>
</g>
<!-- Node2 -->
<g id="node2" class="node"><title>Node2</title>
<g id="a_node2"><a xlink:href="../../d8/d19/EMCAL_2simulation_2include_2EMCALSimulation_2Digitizer_8h.html" target="_top" xlink:title="EMCALSimulation/Digitizer.h">
<polygon fill="none" stroke="black" points="1452,-340.5 1452,-359.5 1596,-359.5 1596,-340.5 1452,-340.5"/>
<text text-anchor="middle" x="1524" y="-347.5" font-family="Helvetica,sans-Serif" font-size="10.00">EMCALSimulation/Digitizer.h</text>
</a>
</g>
</g>
<!-- Node1&#45;&gt;Node2 -->
<g id="edge1" class="edge"><title>Node1&#45;&gt;Node2</title>
<path fill="none" stroke="midnightblue" d="M2045.44,-413.223C1933.77,-399.897 1722.18,-374.648 1605.8,-360.762"/>
<polygon fill="midnightblue" stroke="midnightblue" points="1605.88,-357.245 1595.53,-359.536 1605.05,-364.196 1605.88,-357.245"/>
</g>
<!-- Node9 -->
<g id="node9" class="node"><title>Node9</title>
<g id="a_node9"><a xlink:href="../../dd/dc7/EMCAL_2base_2include_2EMCALBase_2Digit_8h.html" target="_top" xlink:title="EMCALBase/Digit.h">
<polygon fill="none" stroke="black" points="1412.5,-210.5 1412.5,-229.5 1517.5,-229.5 1517.5,-210.5 1412.5,-210.5"/>
<text text-anchor="middle" x="1465" y="-217.5" font-family="Helvetica,sans-Serif" font-size="10.00">EMCALBase/Digit.h</text>
</a>
</g>
</g>
<!-- Node1&#45;&gt;Node9 -->
<g id="edge63" class="edge"><title>Node1&#45;&gt;Node9</title>
<path fill="none" stroke="midnightblue" d="M2045.18,-412.524C1953.25,-398.544 1793.29,-366.946 1670,-304 1650.03,-293.805 1650.76,-282.603 1631,-272 1595.73,-253.07 1552.4,-240.058 1518.85,-231.917"/>
<polygon fill="midnightblue" stroke="midnightblue" points="1519.31,-228.429 1508.77,-229.545 1517.7,-235.243 1519.31,-228.429"/>
</g>
<!-- Node15 -->
<g id="node15" class="node"><title>Node15</title>
<g id="a_node15"><a xlink:href="../../dd/da8/EMCAL_2base_2include_2EMCALBase_2Geometry_8h.html" target="_top" xlink:title="EMCALBase/Geometry.h">
<polygon fill="none" stroke="black" points="1679,-278.5 1679,-297.5 1807,-297.5 1807,-278.5 1679,-278.5"/>
<text text-anchor="middle" x="1743" y="-285.5" font-family="Helvetica,sans-Serif" font-size="10.00">EMCALBase/Geometry.h</text>
</a>
</g>
</g>
<!-- Node1&#45;&gt;Node15 -->
<g id="edge64" class="edge"><title>Node1&#45;&gt;Node15</title>
<path fill="none" stroke="midnightblue" d="M2048.28,-396.984C1967.27,-368.329 1837.89,-322.565 1776.91,-300.993"/>
<polygon fill="midnightblue" stroke="midnightblue" points="1777.97,-297.658 1767.38,-297.622 1775.64,-304.257 1777.97,-297.658"/>
</g>
<!-- Node24 -->
<g id="node24" class="node"><title>Node24</title>
<g id="a_node24"><a xlink:href="../../d5/d5e/GeometryBase_8h.html" target="_top" xlink:title="EMCALBase/GeometryBase.h">
<polygon fill="none" stroke="black" points="2086,-210.5 2086,-229.5 2236,-229.5 2236,-210.5 2086,-210.5"/>
<text text-anchor="middle" x="2161" y="-217.5" font-family="Helvetica,sans-Serif" font-size="10.00">EMCALBase/GeometryBase.h</text>
</a>
</g>
</g>
<!-- Node1&#45;&gt;Node24 -->
<g id="edge65" class="edge"><title>Node1&#45;&gt;Node24</title>
<path fill="none" stroke="midnightblue" d="M2121.63,-396.769C2125.08,-366.731 2132.02,-315.196 2143,-272 2145.85,-260.773 2150.14,-248.522 2153.81,-238.842"/>
<polygon fill="midnightblue" stroke="midnightblue" points="2157.08,-240.104 2157.46,-229.517 2150.56,-237.554 2157.08,-240.104"/>
</g>
<!-- Node26 -->
<g id="node26" class="node"><title>Node26</title>
<g id="a_node26"><a xlink:href="../../dd/d76/Cartesian3D_8h.html" target="_top" xlink:title="MathUtils/Cartesian3D.h">
<polygon fill="none" stroke="black" points="1024.5,-142.5 1024.5,-161.5 1149.5,-161.5 1149.5,-142.5 1024.5,-142.5"/>
<text text-anchor="middle" x="1087" y="-149.5" font-family="Helvetica,sans-Serif" font-size="10.00">MathUtils/Cartesian3D.h</text>
</a>
</g>
</g>
<!-- Node1&#45;&gt;Node26 -->
<g id="edge67" class="edge"><title>Node1&#45;&gt;Node26</title>
<path fill="none" stroke="midnightblue" d="M2045.35,-422.611C1815.43,-423.316 1114.92,-416.007 923,-304 879.557,-278.645 838.765,-243.427 870,-204 887.873,-181.44 958.233,-167.879 1014.05,-160.475"/>
<polygon fill="midnightblue" stroke="midnightblue" points="1014.82,-163.906 1024.29,-159.164 1013.93,-156.963 1014.82,-163.906"/>
</g>
<!-- Node35 -->
<g id="node35" class="node"><title>Node35</title>
<g id="a_node35"><a xlink:href="../../d5/d8b/EMCAL_2base_2include_2EMCALBase_2Hit_8h.html" target="_top" xlink:title="EMCALBase/Hit.h">
<polygon fill="none" stroke="black" points="932,-278.5 932,-297.5 1030,-297.5 1030,-278.5 932,-278.5"/>
<text text-anchor="middle" x="981" y="-285.5" font-family="Helvetica,sans-Serif" font-size="10.00">EMCALBase/Hit.h</text>
</a>
</g>
</g>
<!-- Node1&#45;&gt;Node35 -->
<g id="edge66" class="edge"><title>Node1&#45;&gt;Node35</title>
<path fill="none" stroke="midnightblue" d="M2045.32,-416.723C1920.93,-407.482 1661.46,-386.779 1443,-360 1297.73,-342.192 1127.83,-314.235 1040.12,-299.269"/>
<polygon fill="midnightblue" stroke="midnightblue" points="1040.54,-295.79 1030.09,-297.553 1039.36,-302.69 1040.54,-295.79"/>
</g>
<!-- Node45 -->
<g id="node45" class="node"><title>Node45</title>
<g id="a_node45"><a xlink:href="../../d7/dcd/MCCompLabel_8h.html" target="_top" xlink:title="SimulationDataFormat\l/MCCompLabel.h">
<polygon fill="none" stroke="black" points="2254,-205 2254,-235 2368,-235 2368,-205 2254,-205"/>
<text text-anchor="start" x="2262" y="-223" font-family="Helvetica,sans-Serif" font-size="10.00">SimulationDataFormat</text>
<text text-anchor="middle" x="2311" y="-212" font-family="Helvetica,sans-Serif" font-size="10.00">/MCCompLabel.h</text>
</a>
</g>
</g>
<!-- Node1&#45;&gt;Node45 -->
<g id="edge68" class="edge"><title>Node1&#45;&gt;Node45</title>
<path fill="none" stroke="midnightblue" d="M2134.26,-396.813C2144.98,-379.971 2160.2,-357.733 2176,-340 2210.05,-301.786 2255.81,-263.747 2284.34,-241.309"/>
<polygon fill="midnightblue" stroke="midnightblue" points="2286.53,-244.044 2292.26,-235.135 2282.22,-238.524 2286.53,-244.044"/>
</g>
<!-- Node50 -->
<g id="node50" class="node"><title>Node50</title>
<polygon fill="none" stroke="#bfbfbf" points="2185,-340.5 2185,-359.5 2253,-359.5 2253,-340.5 2185,-340.5"/>
<text text-anchor="middle" x="2219" y="-347.5" font-family="Helvetica,sans-Serif" font-size="10.00">TRandom.h</text>
</g>
<!-- Node1&#45;&gt;Node50 -->
<g id="edge69" class="edge"><title>Node1&#45;&gt;Node50</title>
<path fill="none" stroke="midnightblue" d="M2154.26,-396.968C2168.92,-386.559 2185.43,-374.831 2198.12,-365.827"/>
<polygon fill="midnightblue" stroke="midnightblue" points="2200.46,-368.453 2206.59,-359.81 2196.41,-362.745 2200.46,-368.453"/>
</g>
<!-- Node51 -->
<g id="node51" class="node"><title>Node51</title>
<polygon fill="none" stroke="#bfbfbf" points="2271.5,-340.5 2271.5,-359.5 2316.5,-359.5 2316.5,-340.5 2271.5,-340.5"/>
<text text-anchor="middle" x="2294" y="-347.5" font-family="Helvetica,sans-Serif" font-size="10.00">climits</text>
</g>
<!-- Node1&#45;&gt;Node51 -->
<g id="edge70" class="edge"><title>Node1&#45;&gt;Node51</title>
<path fill="none" stroke="midnightblue" d="M2180.7,-396.968C2208.64,-385.63 2240.44,-372.728 2263.23,-363.485"/>
<polygon fill="midnightblue" stroke="midnightblue" points="2264.76,-366.642 2272.71,-359.639 2262.12,-360.155 2264.76,-366.642"/>
</g>
<!-- Node52 -->
<g id="node52" class="node"><title>Node52</title>
<polygon fill="none" stroke="#bfbfbf" points="2334.5,-340.5 2334.5,-359.5 2401.5,-359.5 2401.5,-340.5 2334.5,-340.5"/>
<text text-anchor="middle" x="2368" y="-347.5" font-family="Helvetica,sans-Serif" font-size="10.00">forward_list</text>
</g>
<!-- Node1&#45;&gt;Node52 -->
<g id="edge71" class="edge"><title>Node1&#45;&gt;Node52</title>
<path fill="none" stroke="midnightblue" d="M2192.7,-400.986C2237.13,-388.315 2291.99,-372.673 2328.38,-362.296"/>
<polygon fill="midnightblue" stroke="midnightblue" points="2329.48,-365.624 2338.13,-359.516 2327.56,-358.892 2329.48,-365.624"/>
</g>
<!-- Node53 -->
<g id="node53" class="node"><title>Node53</title>
<polygon fill="none" stroke="#bfbfbf" points="2419.5,-340.5 2419.5,-359.5 2490.5,-359.5 2490.5,-340.5 2419.5,-340.5"/>
<text text-anchor="middle" x="2455" y="-347.5" font-family="Helvetica,sans-Serif" font-size="10.00">FairLogger.h</text>
</g>
<!-- Node1&#45;&gt;Node53 -->
<g id="edge72" class="edge"><title>Node1&#45;&gt;Node53</title>
<path fill="none" stroke="midnightblue" d="M2192.74,-406.419C2258.75,-392.469 2353.48,-372.453 2409.18,-360.682"/>
<polygon fill="midnightblue" stroke="midnightblue" points="2410.05,-364.076 2419.11,-358.584 2408.6,-357.227 2410.05,-364.076"/>
</g>
<!-- Node3 -->
<g id="node3" class="node"><title>Node3</title>
<polygon fill="none" stroke="#bfbfbf" points="1254,-278.5 1254,-297.5 1306,-297.5 1306,-278.5 1254,-278.5"/>
<text text-anchor="middle" x="1280" y="-285.5" font-family="Helvetica,sans-Serif" font-size="10.00">memory</text>
</g>
<!-- Node2&#45;&gt;Node3 -->
<g id="edge2" class="edge"><title>Node2&#45;&gt;Node3</title>
<path fill="none" stroke="midnightblue" d="M1476.11,-340.427C1434.46,-332.499 1372.68,-319.604 1320,-304 1316.87,-303.073 1313.64,-302.022 1310.42,-300.916"/>
<polygon fill="midnightblue" stroke="midnightblue" points="1311.58,-297.612 1300.98,-297.507 1309.2,-304.196 1311.58,-297.612"/>
</g>
<!-- Node4 -->
<g id="node4" class="node"><title>Node4</title>
<polygon fill="none" stroke="#bfbfbf" points="1362.5,-278.5 1362.5,-297.5 1445.5,-297.5 1445.5,-278.5 1362.5,-278.5"/>
<text text-anchor="middle" x="1404" y="-285.5" font-family="Helvetica,sans-Serif" font-size="10.00">unordered_map</text>
</g>
<!-- Node2&#45;&gt;Node4 -->
<g id="edge3" class="edge"><title>Node2&#45;&gt;Node4</title>
<path fill="none" stroke="midnightblue" d="M1506.81,-340.403C1486.76,-330.379 1453.4,-313.701 1430.14,-302.07"/>
<polygon fill="midnightblue" stroke="midnightblue" points="1431.67,-298.922 1421.16,-297.581 1428.54,-305.183 1431.67,-298.922"/>
</g>
<!-- Node5 -->
<g id="node5" class="node"><title>Node5</title>
<polygon fill="none" stroke="#bfbfbf" points="1312,-210.5 1312,-229.5 1356,-229.5 1356,-210.5 1312,-210.5"/>
<text text-anchor="middle" x="1334" y="-217.5" font-family="Helvetica,sans-Serif" font-size="10.00">vector</text>
</g>
<!-- Node2&#45;&gt;Node5 -->
<g id="edge4" class="edge"><title>Node2&#45;&gt;Node5</title>
<path fill="none" stroke="midnightblue" d="M1451.76,-346.741C1417.47,-341.911 1378.52,-330.355 1353,-304 1336.48,-286.938 1333.21,-258.603 1333.07,-239.863"/>
<polygon fill="midnightblue" stroke="midnightblue" points="1336.57,-239.696 1333.29,-229.622 1329.58,-239.542 1336.57,-239.696"/>
</g>
<!-- Node6 -->
<g id="node6" class="node"><title>Node6</title>
<polygon fill="none" stroke="#bfbfbf" points="1502.5,-278.5 1502.5,-297.5 1545.5,-297.5 1545.5,-278.5 1502.5,-278.5"/>
<text text-anchor="middle" x="1524" y="-285.5" font-family="Helvetica,sans-Serif" font-size="10.00">deque</text>
</g>
<!-- Node2&#45;&gt;Node6 -->
<g id="edge5" class="edge"><title>Node2&#45;&gt;Node6</title>
<path fill="none" stroke="midnightblue" d="M1524,-340.403C1524,-331.938 1524,-318.728 1524,-307.82"/>
<polygon fill="midnightblue" stroke="midnightblue" points="1527.5,-307.581 1524,-297.581 1520.5,-307.581 1527.5,-307.581"/>
</g>
<!-- Node7 -->
<g id="node7" class="node"><title>Node7</title>
<polygon fill="none" stroke="#bfbfbf" points="1790,-74.5 1790,-93.5 1846,-93.5 1846,-74.5 1790,-74.5"/>
<text text-anchor="middle" x="1818" y="-81.5" font-family="Helvetica,sans-Serif" font-size="10.00">Rtypes.h</text>
</g>
<!-- Node2&#45;&gt;Node7 -->
<g id="edge6" class="edge"><title>Node2&#45;&gt;Node7</title>
<path fill="none" stroke="midnightblue" d="M1596.18,-342.952C1655.94,-336.743 1742.63,-324.946 1816,-304 1850.85,-294.051 1857.1,-284.805 1891,-272 1938.73,-253.973 1970.11,-277.347 2000,-236 2046.1,-172.228 1921.16,-119.307 1855.44,-96.7347"/>
<polygon fill="midnightblue" stroke="midnightblue" points="1856.42,-93.3695 1845.82,-93.5011 1854.19,-100.005 1856.42,-93.3695"/>
</g>
<!-- Node8 -->
<g id="node8" class="node"><title>Node8</title>
<polygon fill="none" stroke="#bfbfbf" points="1563.5,-278.5 1563.5,-297.5 1622.5,-297.5 1622.5,-278.5 1563.5,-278.5"/>
<text text-anchor="middle" x="1593" y="-285.5" font-family="Helvetica,sans-Serif" font-size="10.00">TObject.h</text>
</g>
<!-- Node2&#45;&gt;Node8 -->
<g id="edge7" class="edge"><title>Node2&#45;&gt;Node8</title>
<path fill="none" stroke="midnightblue" d="M1533.89,-340.403C1544.65,-331.047 1562.07,-315.895 1575.22,-304.46"/>
<polygon fill="midnightblue" stroke="midnightblue" points="1577.88,-306.784 1583.13,-297.581 1573.29,-301.501 1577.88,-306.784"/>
</g>
<!-- Node2&#45;&gt;Node9 -->
<g id="edge8" class="edge"><title>Node2&#45;&gt;Node9</title>
<path fill="none" stroke="midnightblue" d="M1517.06,-340.487C1510.21,-331.757 1499.8,-317.572 1493,-304 1482.39,-282.807 1474.32,-256.654 1469.63,-239.436"/>
<polygon fill="midnightblue" stroke="midnightblue" points="1472.96,-238.343 1467.04,-229.554 1466.19,-240.114 1472.96,-238.343"/>
</g>
<!-- Node2&#45;&gt;Node15 -->
<g id="edge17" class="edge"><title>Node2&#45;&gt;Node15</title>
<path fill="none" stroke="midnightblue" d="M1555.38,-340.403C1593.92,-329.844 1659.41,-311.903 1701.92,-300.254"/>
<polygon fill="midnightblue" stroke="midnightblue" points="1702.96,-303.599 1711.68,-297.581 1701.11,-296.847 1702.96,-303.599"/>
</g>
<!-- Node2&#45;&gt;Node24 -->
<g id="edge43" class="edge"><title>Node2&#45;&gt;Node24</title>
<path fill="none" stroke="midnightblue" d="M1596.1,-344.552C1687.37,-338.165 1839.01,-324.821 1891,-304 1913.12,-295.144 1912.35,-281.939 1934,-272 1963.43,-258.487 2045.07,-241.89 2101.96,-231.376"/>
<polygon fill="midnightblue" stroke="midnightblue" points="2102.72,-234.796 2111.92,-229.55 2101.46,-227.91 2102.72,-234.796"/>
</g>
<!-- Node2&#45;&gt;Node35 -->
<g id="edge44" class="edge"><title>Node2&#45;&gt;Node35</title>
<path fill="none" stroke="midnightblue" d="M1451.87,-342.576C1364.63,-334.585 1213.36,-320.027 1084,-304 1069.86,-302.248 1054.65,-300.152 1040.39,-298.09"/>
<polygon fill="midnightblue" stroke="midnightblue" points="1040.59,-294.583 1030.19,-296.6 1039.58,-301.509 1040.59,-294.583"/>
</g>
<!-- Node44 -->
<g id="node44" class="node"><title>Node44</title>
<g id="a_node44"><a xlink:href="../../d2/d7a/EMCAL_2simulation_2include_2EMCALSimulation_2MCLabel_8h.html" target="_top" xlink:title="EMCALSimulation/MCLabel.h">
<polygon fill="none" stroke="black" points="1943.5,-278.5 1943.5,-297.5 2090.5,-297.5 2090.5,-278.5 1943.5,-278.5"/>
<text text-anchor="middle" x="2017" y="-285.5" font-family="Helvetica,sans-Serif" font-size="10.00">EMCALSimulation/MCLabel.h</text>
</a>
</g>
</g>
<!-- Node2&#45;&gt;Node44 -->
<g id="edge54" class="edge"><title>Node2&#45;&gt;Node44</title>
<path fill="none" stroke="midnightblue" d="M1596.22,-342.255C1677.35,-334.38 1812.88,-320.333 1929,-304 1939.01,-302.591 1949.64,-300.926 1959.92,-299.227"/>
<polygon fill="midnightblue" stroke="midnightblue" points="1960.76,-302.635 1970.04,-297.525 1959.6,-295.732 1960.76,-302.635"/>
</g>
<!-- Node46 -->
<g id="node46" class="node"><title>Node46</title>
<g id="a_node46"><a xlink:href="../../db/d14/MCTruthContainer_8h.html" target="_top" xlink:title="Definition of a container to keep Monte Carlo truth external to simulation objects. ">
<polygon fill="none" stroke="black" points="1093,-273 1093,-303 1207,-303 1207,-273 1093,-273"/>
<text text-anchor="start" x="1101" y="-291" font-family="Helvetica,sans-Serif" font-size="10.00">SimulationDataFormat</text>
<text text-anchor="middle" x="1150" y="-280" font-family="Helvetica,sans-Serif" font-size="10.00">/MCTruthContainer.h</text>
</a>
</g>
</g>
<!-- Node2&#45;&gt;Node46 -->
<g id="edge57" class="edge"><title>Node2&#45;&gt;Node46</title>
<path fill="none" stroke="midnightblue" d="M1470.81,-340.467C1404.17,-329.776 1289.91,-311.446 1217.26,-299.791"/>
<polygon fill="midnightblue" stroke="midnightblue" points="1217.73,-296.32 1207.3,-298.192 1216.62,-303.232 1217.73,-296.32"/>
</g>
<!-- Node9&#45;&gt;Node7 -->
<g id="edge11" class="edge"><title>Node9&#45;&gt;Node7</title>
<path fill="none" stroke="midnightblue" d="M1517.68,-211.752C1595.23,-200.768 1733.14,-179.928 1753,-168 1779.05,-152.352 1798.66,-122.082 1809.22,-102.743"/>
<polygon fill="midnightblue" stroke="midnightblue" points="1812.38,-104.247 1813.9,-93.7619 1806.17,-101.011 1812.38,-104.247"/>
</g>
<!-- Node10 -->
<g id="node10" class="node"><title>Node10</title>
<polygon fill="none" stroke="#bfbfbf" points="1444.5,-74.5 1444.5,-93.5 1489.5,-93.5 1489.5,-74.5 1444.5,-74.5"/>
<text text-anchor="middle" x="1467" y="-81.5" font-family="Helvetica,sans-Serif" font-size="10.00">iosfwd</text>
</g>
<!-- Node9&#45;&gt;Node10 -->
<g id="edge9" class="edge"><title>Node9&#45;&gt;Node10</title>
<path fill="none" stroke="midnightblue" d="M1417.58,-210.47C1393.27,-203.436 1365.74,-190.743 1351,-168 1343.26,-156.065 1343.17,-147.873 1351,-136 1373.36,-102.091 1397.94,-116.622 1435,-100 1436.58,-99.2922 1438.2,-98.5585 1439.83,-97.813"/>
<polygon fill="midnightblue" stroke="midnightblue" points="1441.5,-100.893 1449.11,-93.5154 1438.56,-94.5413 1441.5,-100.893"/>
</g>
<!-- Node11 -->
<g id="node11" class="node"><title>Node11</title>
<polygon fill="none" stroke="#bfbfbf" points="1360,-142.5 1360,-161.5 1404,-161.5 1404,-142.5 1360,-142.5"/>
<text text-anchor="middle" x="1382" y="-149.5" font-family="Helvetica,sans-Serif" font-size="10.00">cmath</text>
</g>
<!-- Node9&#45;&gt;Node11 -->
<g id="edge10" class="edge"><title>Node9&#45;&gt;Node11</title>
<path fill="none" stroke="midnightblue" d="M1454.15,-210.372C1440.6,-199.6 1417.21,-181.002 1400.75,-167.906"/>
<polygon fill="midnightblue" stroke="midnightblue" points="1402.86,-165.115 1392.85,-161.63 1398.5,-170.594 1402.86,-165.115"/>
</g>
<!-- Node12 -->
<g id="node12" class="node"><title>Node12</title>
<g id="a_node12"><a xlink:href="../../df/d5d/common_2include_2CommonDataFormat_2TimeStamp_8h.html" target="_top" xlink:title="CommonDataFormat/TimeStamp.h">
<polygon fill="none" stroke="black" points="1574,-142.5 1574,-161.5 1744,-161.5 1744,-142.5 1574,-142.5"/>
<text text-anchor="middle" x="1659" y="-149.5" font-family="Helvetica,sans-Serif" font-size="10.00">CommonDataFormat/TimeStamp.h</text>
</a>
</g>
</g>
<!-- Node9&#45;&gt;Node12 -->
<g id="edge12" class="edge"><title>Node9&#45;&gt;Node12</title>
<path fill="none" stroke="midnightblue" d="M1490.36,-210.372C1524.59,-198.728 1585.69,-177.939 1624.19,-164.841"/>
<polygon fill="midnightblue" stroke="midnightblue" points="1625.6,-168.06 1633.94,-161.526 1623.34,-161.433 1625.6,-168.06"/>
</g>
<!-- Node13 -->
<g id="node13" class="node"><title>Node13</title>
<g id="a_node13"><a xlink:href="../../d4/d82/Detectors_2EMCAL_2base_2include_2EMCALBase_2Constants_8h.html" target="_top" xlink:title="EMCALBase/Constants.h">
<polygon fill="none" stroke="black" points="1800,-142.5 1800,-161.5 1930,-161.5 1930,-142.5 1800,-142.5"/>
<text text-anchor="middle" x="1865" y="-149.5" font-family="Helvetica,sans-Serif" font-size="10.00">EMCALBase/Constants.h</text>
</a>
</g>
</g>
<!-- Node9&#45;&gt;Node13 -->
<g id="edge14" class="edge"><title>Node9&#45;&gt;Node13</title>
<path fill="none" stroke="midnightblue" d="M1517.62,-211.136C1581.28,-201.509 1691.64,-184.451 1786,-168 1794.12,-166.585 1802.69,-165.026 1811.07,-163.463"/>
<polygon fill="midnightblue" stroke="midnightblue" points="1811.99,-166.853 1821.17,-161.566 1810.69,-159.974 1811.99,-166.853"/>
</g>
<!-- Node14 -->
<g id="node14" class="node"><title>Node14</title>
<polygon fill="none" stroke="#bfbfbf" points="1422.5,-137 1422.5,-167 1517.5,-167 1517.5,-137 1422.5,-137"/>
<text text-anchor="start" x="1430.5" y="-155" font-family="Helvetica,sans-Serif" font-size="10.00">boost/serialization</text>
<text text-anchor="middle" x="1470" y="-144" font-family="Helvetica,sans-Serif" font-size="10.00">/base_object.hpp</text>
</g>
<!-- Node9&#45;&gt;Node14 -->
<g id="edge16" class="edge"><title>Node9&#45;&gt;Node14</title>
<path fill="none" stroke="midnightblue" d="M1465.65,-210.372C1466.29,-201.971 1467.29,-188.811 1468.17,-177.213"/>
<polygon fill="midnightblue" stroke="midnightblue" points="1471.66,-177.417 1468.93,-167.181 1464.68,-176.888 1471.66,-177.417"/>
</g>
<!-- Node12&#45;&gt;Node7 -->
<g id="edge13" class="edge"><title>Node12&#45;&gt;Node7</title>
<path fill="none" stroke="midnightblue" d="M1679.79,-142.372C1707.36,-130.927 1756.22,-110.644 1787.85,-97.5165"/>
<polygon fill="midnightblue" stroke="midnightblue" points="1789.57,-100.592 1797.46,-93.5259 1786.88,-94.1271 1789.57,-100.592"/>
</g>
<!-- Node13&#45;&gt;Node7 -->
<g id="edge15" class="edge"><title>Node13&#45;&gt;Node7</title>
<path fill="none" stroke="midnightblue" d="M1858.86,-142.372C1851.65,-132.25 1839.52,-115.215 1830.34,-102.331"/>
<polygon fill="midnightblue" stroke="midnightblue" points="1832.95,-99.9565 1824.3,-93.8411 1827.25,-104.017 1832.95,-99.9565"/>
</g>
<!-- Node15&#45;&gt;Node5 -->
<g id="edge21" class="edge"><title>Node15&#45;&gt;Node5</title>
<path fill="none" stroke="midnightblue" d="M1679.65,-278.443C1574.19,-264.184 1373.72,-237.01 1370,-236 1367.18,-235.234 1364.29,-234.301 1361.43,-233.278"/>
<polygon fill="midnightblue" stroke="midnightblue" points="1362.58,-229.968 1351.99,-229.569 1360.02,-236.483 1362.58,-229.968"/>
</g>
<!-- Node15&#45;&gt;Node13 -->
<g id="edge27" class="edge"><title>Node15&#45;&gt;Node13</title>
<path fill="none" stroke="midnightblue" d="M1699.04,-278.483C1647.21,-266.508 1571.82,-241.832 1603,-204 1603.83,-202.992 1733.6,-178.079 1810.17,-163.452"/>
<polygon fill="midnightblue" stroke="midnightblue" points="1810.98,-166.861 1820.14,-161.548 1809.66,-159.985 1810.98,-166.861"/>
</g>
<!-- Node16 -->
<g id="node16" class="node"><title>Node16</title>
<polygon fill="none" stroke="#bfbfbf" points="1612.5,-210.5 1612.5,-229.5 1671.5,-229.5 1671.5,-210.5 1612.5,-210.5"/>
<text text-anchor="middle" x="1642" y="-217.5" font-family="Helvetica,sans-Serif" font-size="10.00">exception</text>
</g>
<!-- Node15&#45;&gt;Node16 -->
<g id="edge18" class="edge"><title>Node15&#45;&gt;Node16</title>
<path fill="none" stroke="midnightblue" d="M1729.8,-278.372C1713.01,-267.403 1683.8,-248.317 1663.72,-235.191"/>
<polygon fill="midnightblue" stroke="midnightblue" points="1665.49,-232.171 1655.21,-229.63 1661.66,-238.031 1665.49,-232.171"/>
</g>
<!-- Node17 -->
<g id="node17" class="node"><title>Node17</title>
<polygon fill="none" stroke="#bfbfbf" points="2086.5,-142.5 2086.5,-161.5 2127.5,-161.5 2127.5,-142.5 2086.5,-142.5"/>
<text text-anchor="middle" x="2107" y="-149.5" font-family="Helvetica,sans-Serif" font-size="10.00">string</text>
</g>
<!-- Node15&#45;&gt;Node17 -->
<g id="edge19" class="edge"><title>Node15&#45;&gt;Node17</title>
<path fill="none" stroke="midnightblue" d="M1807.03,-282.542C1860.61,-276.911 1938.02,-264.262 2000,-236 2036.66,-219.283 2072.19,-187.748 2091.67,-168.729"/>
<polygon fill="midnightblue" stroke="midnightblue" points="2094.16,-171.191 2098.77,-161.652 2089.22,-166.233 2094.16,-171.191"/>
</g>
<!-- Node18 -->
<g id="node18" class="node"><title>Node18</title>
<polygon fill="none" stroke="#bfbfbf" points="1690,-210.5 1690,-229.5 1728,-229.5 1728,-210.5 1690,-210.5"/>
<text text-anchor="middle" x="1709" y="-217.5" font-family="Helvetica,sans-Serif" font-size="10.00">tuple</text>
</g>
<!-- Node15&#45;&gt;Node18 -->
<g id="edge20" class="edge"><title>Node15&#45;&gt;Node18</title>
<path fill="none" stroke="midnightblue" d="M1738.56,-278.372C1733.44,-268.446 1724.9,-251.874 1718.32,-239.086"/>
<polygon fill="midnightblue" stroke="midnightblue" points="1721.25,-237.128 1713.55,-229.841 1715.02,-240.334 1721.25,-237.128"/>
</g>
<!-- Node19 -->
<g id="node19" class="node"><title>Node19</title>
<polygon fill="none" stroke="#bfbfbf" points="1746,-210.5 1746,-229.5 1826,-229.5 1826,-210.5 1746,-210.5"/>
<text text-anchor="middle" x="1786" y="-217.5" font-family="Helvetica,sans-Serif" font-size="10.00">RStringView.h</text>
</g>
<!-- Node15&#45;&gt;Node19 -->
<g id="edge22" class="edge"><title>Node15&#45;&gt;Node19</title>
<path fill="none" stroke="midnightblue" d="M1748.62,-278.372C1755.22,-268.25 1766.31,-251.215 1774.71,-238.331"/>
<polygon fill="midnightblue" stroke="midnightblue" points="1777.71,-240.13 1780.24,-229.841 1771.85,-236.309 1777.71,-240.13"/>
</g>
<!-- Node20 -->
<g id="node20" class="node"><title>Node20</title>
<polygon fill="none" stroke="#bfbfbf" points="1508,-74.5 1508,-93.5 1584,-93.5 1584,-74.5 1508,-74.5"/>
<text text-anchor="middle" x="1546" y="-81.5" font-family="Helvetica,sans-Serif" font-size="10.00">TGeoMatrix.h</text>
</g>
<!-- Node15&#45;&gt;Node20 -->
<g id="edge23" class="edge"><title>Node15&#45;&gt;Node20</title>
<path fill="none" stroke="midnightblue" d="M1706.66,-278.473C1667.56,-268.661 1608.71,-251.857 1592,-236 1554.65,-200.548 1547.35,-135.777 1546.1,-103.835"/>
<polygon fill="midnightblue" stroke="midnightblue" points="1549.6,-103.586 1545.88,-93.6671 1542.6,-103.743 1549.6,-103.586"/>
</g>
<!-- Node21 -->
<g id="node21" class="node"><title>Node21</title>
<polygon fill="none" stroke="#bfbfbf" points="1232,-210.5 1232,-229.5 1294,-229.5 1294,-210.5 1232,-210.5"/>
<text text-anchor="middle" x="1263" y="-217.5" font-family="Helvetica,sans-Serif" font-size="10.00">TNamed.h</text>
</g>
<!-- Node15&#45;&gt;Node21 -->
<g id="edge24" class="edge"><title>Node15&#45;&gt;Node21</title>
<path fill="none" stroke="midnightblue" d="M1681.42,-278.484C1665.04,-276.293 1647.36,-273.993 1631,-272 1485.42,-254.265 1445.65,-270.011 1303,-236 1299.58,-235.184 1296.05,-234.155 1292.57,-233.021"/>
<polygon fill="midnightblue" stroke="midnightblue" points="1293.64,-229.685 1283.04,-229.632 1291.29,-236.28 1293.64,-229.685"/>
</g>
<!-- Node22 -->
<g id="node22" class="node"><title>Node22</title>
<polygon fill="none" stroke="#bfbfbf" points="1844,-210.5 1844,-229.5 1908,-229.5 1908,-210.5 1844,-210.5"/>
<text text-anchor="middle" x="1876" y="-217.5" font-family="Helvetica,sans-Serif" font-size="10.00">TParticle.h</text>
</g>
<!-- Node15&#45;&gt;Node22 -->
<g id="edge25" class="edge"><title>Node15&#45;&gt;Node22</title>
<path fill="none" stroke="midnightblue" d="M1760.39,-278.372C1783.09,-267.106 1823.04,-247.279 1849.52,-234.14"/>
<polygon fill="midnightblue" stroke="midnightblue" points="1851.21,-237.211 1858.61,-229.63 1848.09,-230.94 1851.21,-237.211"/>
</g>
<!-- Node23 -->
<g id="node23" class="node"><title>Node23</title>
<polygon fill="none" stroke="#bfbfbf" points="1926.5,-210.5 1926.5,-229.5 1991.5,-229.5 1991.5,-210.5 1926.5,-210.5"/>
<text text-anchor="middle" x="1959" y="-217.5" font-family="Helvetica,sans-Serif" font-size="10.00">TVector3.h</text>
</g>
<!-- Node15&#45;&gt;Node23 -->
<g id="edge26" class="edge"><title>Node15&#45;&gt;Node23</title>
<path fill="none" stroke="midnightblue" d="M1774.28,-278.42C1809.24,-268.695 1867.45,-252.095 1917,-236 1919.92,-235.05 1922.95,-234.034 1925.98,-232.994"/>
<polygon fill="midnightblue" stroke="midnightblue" points="1927.25,-236.258 1935.54,-229.651 1924.94,-229.651 1927.25,-236.258"/>
</g>
<!-- Node15&#45;&gt;Node24 -->
<g id="edge28" class="edge"><title>Node15&#45;&gt;Node24</title>
<path fill="none" stroke="midnightblue" d="M1797.22,-278.439C1874.19,-266.285 2014.9,-244.069 2096.93,-231.116"/>
<polygon fill="midnightblue" stroke="midnightblue" points="2097.55,-234.562 2106.88,-229.546 2096.45,-227.648 2097.55,-234.562"/>
</g>
<!-- Node15&#45;&gt;Node26 -->
<g id="edge31" class="edge"><title>Node15&#45;&gt;Node26</title>
<path fill="none" stroke="midnightblue" d="M1680.42,-278.489C1585.7,-265.481 1415.55,-241.573 1403,-236 1382.51,-226.898 1384.34,-213.44 1364,-204 1298.94,-173.798 1217.49,-161.463 1159.79,-156.435"/>
<polygon fill="midnightblue" stroke="midnightblue" points="1159.92,-152.934 1149.67,-155.606 1159.35,-159.91 1159.92,-152.934"/>
</g>
<!-- Node24&#45;&gt;Node17 -->
<g id="edge30" class="edge"><title>Node24&#45;&gt;Node17</title>
<path fill="none" stroke="midnightblue" d="M2153.94,-210.372C2145.5,-200.053 2131.18,-182.551 2120.57,-169.585"/>
<polygon fill="midnightblue" stroke="midnightblue" points="2123.27,-167.364 2114.23,-161.841 2117.86,-171.797 2123.27,-167.364"/>
</g>
<!-- Node25 -->
<g id="node25" class="node"><title>Node25</title>
<polygon fill="none" stroke="#bfbfbf" points="2146,-142.5 2146,-161.5 2198,-161.5 2198,-142.5 2146,-142.5"/>
<text text-anchor="middle" x="2172" y="-149.5" font-family="Helvetica,sans-Serif" font-size="10.00">sstream</text>
</g>
<!-- Node24&#45;&gt;Node25 -->
<g id="edge29" class="edge"><title>Node24&#45;&gt;Node25</title>
<path fill="none" stroke="midnightblue" d="M2162.44,-210.372C2164.06,-200.643 2166.75,-184.528 2168.86,-171.85"/>
<polygon fill="midnightblue" stroke="midnightblue" points="2172.33,-172.28 2170.53,-161.841 2165.43,-171.13 2172.33,-172.28"/>
</g>
<!-- Node26&#45;&gt;Node7 -->
<g id="edge37" class="edge"><title>Node26&#45;&gt;Node7</title>
<path fill="none" stroke="midnightblue" d="M1149.64,-145.344C1296.66,-132.07 1660.39,-99.23 1779.54,-88.4728"/>
<polygon fill="midnightblue" stroke="midnightblue" points="1780,-91.9454 1789.64,-87.5603 1779.37,-84.9738 1780,-91.9454"/>
</g>
<!-- Node26&#45;&gt;Node10 -->
<g id="edge39" class="edge"><title>Node26&#45;&gt;Node10</title>
<path fill="none" stroke="midnightblue" d="M1149.8,-147.339C1220.42,-141.956 1337.93,-129.172 1435,-100 1437.28,-99.3146 1439.61,-98.4923 1441.91,-97.5903"/>
<polygon fill="midnightblue" stroke="midnightblue" points="1443.32,-100.792 1451.08,-93.5805 1440.52,-94.3778 1443.32,-100.792"/>
</g>
<!-- Node26&#45;&gt;Node20 -->
<g id="edge38" class="edge"><title>Node26&#45;&gt;Node20</title>
<path fill="none" stroke="midnightblue" d="M1149.55,-146.747C1230.63,-140.436 1376.07,-126.392 1498,-100 1502.44,-99.0389 1507.06,-97.8489 1511.6,-96.5627"/>
<polygon fill="midnightblue" stroke="midnightblue" points="1512.74,-99.8733 1521.31,-93.6448 1510.73,-93.1691 1512.74,-99.8733"/>
</g>
<!-- Node27 -->
<g id="node27" class="node"><title>Node27</title>
<polygon fill="none" stroke="#bfbfbf" points="739.5,-69 739.5,-99 890.5,-99 890.5,-69 739.5,-69"/>
<text text-anchor="start" x="747.5" y="-87" font-family="Helvetica,sans-Serif" font-size="10.00">Math/GenVector/Displacement</text>
<text text-anchor="middle" x="815" y="-76" font-family="Helvetica,sans-Serif" font-size="10.00">Vector3D.h</text>
</g>
<!-- Node26&#45;&gt;Node27 -->
<g id="edge32" class="edge"><title>Node26&#45;&gt;Node27</title>
<path fill="none" stroke="midnightblue" d="M1051.72,-142.439C1009.03,-132.08 936.205,-114.41 882.577,-101.397"/>
<polygon fill="midnightblue" stroke="midnightblue" points="883.342,-97.9816 872.799,-99.0247 881.692,-104.784 883.342,-97.9816"/>
</g>
<!-- Node28 -->
<g id="node28" class="node"><title>Node28</title>
<polygon fill="none" stroke="#bfbfbf" points="909,-74.5 909,-93.5 1085,-93.5 1085,-74.5 909,-74.5"/>
<text text-anchor="middle" x="997" y="-81.5" font-family="Helvetica,sans-Serif" font-size="10.00">Math/GenVector/PositionVector3D.h</text>
</g>
<!-- Node26&#45;&gt;Node28 -->
<g id="edge33" class="edge"><title>Node26&#45;&gt;Node28</title>
<path fill="none" stroke="midnightblue" d="M1075.23,-142.372C1060.41,-131.502 1034.72,-112.66 1016.84,-99.5474"/>
<polygon fill="midnightblue" stroke="midnightblue" points="1018.9,-96.7217 1008.77,-93.6305 1014.76,-102.367 1018.9,-96.7217"/>
</g>
<!-- Node29 -->
<g id="node29" class="node"><title>Node29</title>
<polygon fill="none" stroke="#bfbfbf" points="1102.5,-74.5 1102.5,-93.5 1251.5,-93.5 1251.5,-74.5 1102.5,-74.5"/>
<text text-anchor="middle" x="1177" y="-81.5" font-family="Helvetica,sans-Serif" font-size="10.00">Math/GenVector/Rotation3D.h</text>
</g>
<!-- Node26&#45;&gt;Node29 -->
<g id="edge34" class="edge"><title>Node26&#45;&gt;Node29</title>
<path fill="none" stroke="midnightblue" d="M1098.77,-142.372C1113.59,-131.502 1139.28,-112.66 1157.16,-99.5474"/>
<polygon fill="midnightblue" stroke="midnightblue" points="1159.24,-102.367 1165.23,-93.6305 1155.1,-96.7217 1159.24,-102.367"/>
</g>
<!-- Node30 -->
<g id="node30" class="node"><title>Node30</title>
<polygon fill="none" stroke="#bfbfbf" points="1270,-74.5 1270,-93.5 1426,-93.5 1426,-74.5 1270,-74.5"/>
<text text-anchor="middle" x="1348" y="-81.5" font-family="Helvetica,sans-Serif" font-size="10.00">Math/GenVector/Transform3D.h</text>
</g>
<!-- Node26&#45;&gt;Node30 -->
<g id="edge35" class="edge"><title>Node26&#45;&gt;Node30</title>
<path fill="none" stroke="midnightblue" d="M1120.85,-142.439C1167.79,-130.57 1252.68,-109.103 1304.34,-96.0406"/>
<polygon fill="midnightblue" stroke="midnightblue" points="1305.37,-99.3904 1314.21,-93.5455 1303.65,-92.604 1305.37,-99.3904"/>
</g>
<!-- Node31 -->
<g id="node31" class="node"><title>Node31</title>
<polygon fill="none" stroke="#bfbfbf" points="418,-74.5 418,-93.5 578,-93.5 578,-74.5 418,-74.5"/>
<text text-anchor="middle" x="498" y="-81.5" font-family="Helvetica,sans-Serif" font-size="10.00">Math/GenVector/Translation3D.h</text>
</g>
<!-- Node26&#45;&gt;Node31 -->
<g id="edge36" class="edge"><title>Node26&#45;&gt;Node31</title>
<path fill="none" stroke="midnightblue" d="M1024.49,-145.944C929.675,-137.979 743.943,-121.207 587,-100 576.645,-98.6008 565.645,-96.9126 555.039,-95.1811"/>
<polygon fill="midnightblue" stroke="midnightblue" points="555.464,-91.7038 545.026,-93.5156 554.316,-98.6089 555.464,-91.7038"/>
</g>
<!-- Node32 -->
<g id="node32" class="node"><title>Node32</title>
<g id="a_node32"><a xlink:href="../../d2/dd0/Cartesian2D_8h.html" target="_top" xlink:title="MathUtils/Cartesian2D.h">
<polygon fill="none" stroke="black" points="596.5,-74.5 596.5,-93.5 721.5,-93.5 721.5,-74.5 596.5,-74.5"/>
<text text-anchor="middle" x="659" y="-81.5" font-family="Helvetica,sans-Serif" font-size="10.00">MathUtils/Cartesian2D.h</text>
</a>
</g>
</g>
<!-- Node26&#45;&gt;Node32 -->
<g id="edge40" class="edge"><title>Node26&#45;&gt;Node32</title>
<path fill="none" stroke="midnightblue" d="M1024.25,-143.315C952.789,-134.268 832.65,-118.155 730,-100 722.582,-98.688 714.755,-97.1705 707.116,-95.6151"/>
<polygon fill="midnightblue" stroke="midnightblue" points="707.734,-92.1688 697.231,-93.5626 706.311,-99.0226 707.734,-92.1688"/>
</g>
<!-- Node33 -->
<g id="node33" class="node"><title>Node33</title>
<polygon fill="none" stroke="#bfbfbf" points="492.5,-1 492.5,-31 643.5,-31 643.5,-1 492.5,-1"/>
<text text-anchor="start" x="500.5" y="-19" font-family="Helvetica,sans-Serif" font-size="10.00">Math/GenVector/Displacement</text>
<text text-anchor="middle" x="568" y="-8" font-family="Helvetica,sans-Serif" font-size="10.00">Vector2D.h</text>
</g>
<!-- Node32&#45;&gt;Node33 -->
<g id="edge41" class="edge"><title>Node32&#45;&gt;Node33</title>
<path fill="none" stroke="midnightblue" d="M647.103,-74.3717C634.221,-65.0286 613.22,-49.7966 596.093,-37.375"/>
<polygon fill="midnightblue" stroke="midnightblue" points="597.703,-34.2194 587.553,-31.1815 593.593,-39.8859 597.703,-34.2194"/>
</g>
<!-- Node34 -->
<g id="node34" class="node"><title>Node34</title>
<polygon fill="none" stroke="#bfbfbf" points="662,-6.5 662,-25.5 838,-25.5 838,-6.5 662,-6.5"/>
<text text-anchor="middle" x="750" y="-13.5" font-family="Helvetica,sans-Serif" font-size="10.00">Math/GenVector/PositionVector2D.h</text>
</g>
<!-- Node32&#45;&gt;Node34 -->
<g id="edge42" class="edge"><title>Node32&#45;&gt;Node34</title>
<path fill="none" stroke="midnightblue" d="M670.897,-74.3717C685.884,-63.5015 711.862,-44.6602 729.942,-31.5474"/>
<polygon fill="midnightblue" stroke="midnightblue" points="732.06,-34.3349 738.1,-25.6305 727.95,-28.6684 732.06,-34.3349"/>
</g>
<!-- Node36 -->
<g id="node36" class="node"><title>Node36</title>
<g id="a_node36"><a xlink:href="../../d4/d25/BaseHits_8h.html" target="_top" xlink:title="SimulationDataFormat\l/BaseHits.h">
<polygon fill="none" stroke="black" points="879,-205 879,-235 993,-235 993,-205 879,-205"/>
<text text-anchor="start" x="887" y="-223" font-family="Helvetica,sans-Serif" font-size="10.00">SimulationDataFormat</text>
<text text-anchor="middle" x="936" y="-212" font-family="Helvetica,sans-Serif" font-size="10.00">/BaseHits.h</text>
</a>
</g>
</g>
<!-- Node35&#45;&gt;Node36 -->
<g id="edge45" class="edge"><title>Node35&#45;&gt;Node36</title>
<path fill="none" stroke="midnightblue" d="M975.117,-278.372C969.097,-269.543 959.493,-255.456 951.307,-243.45"/>
<polygon fill="midnightblue" stroke="midnightblue" points="954.194,-241.472 945.669,-235.181 948.411,-245.415 954.194,-241.472"/>
</g>
<!-- Node37 -->
<g id="node37" class="node"><title>Node37</title>
<g id="a_node37"><a xlink:href="../../d0/d91/ShmAllocator_8h.html" target="_top" xlink:title="CommonUtils/ShmAllocator.h">
<polygon fill="none" stroke="black" points="639,-210.5 639,-229.5 785,-229.5 785,-210.5 639,-210.5"/>
<text text-anchor="middle" x="712" y="-217.5" font-family="Helvetica,sans-Serif" font-size="10.00">CommonUtils/ShmAllocator.h</text>
</a>
</g>
</g>
<!-- Node35&#45;&gt;Node37 -->
<g id="edge47" class="edge"><title>Node35&#45;&gt;Node37</title>
<path fill="none" stroke="midnightblue" d="M946.109,-278.439C897.63,-266.545 809.872,-245.013 756.666,-231.959"/>
<polygon fill="midnightblue" stroke="midnightblue" points="757.375,-228.529 746.829,-229.546 755.707,-235.328 757.375,-228.529"/>
</g>
<!-- Node36&#45;&gt;Node26 -->
<g id="edge46" class="edge"><title>Node36&#45;&gt;Node26</title>
<path fill="none" stroke="midnightblue" d="M968.393,-204.841C994.98,-193.221 1032.29,-176.912 1057.93,-165.706"/>
<polygon fill="midnightblue" stroke="midnightblue" points="1059.38,-168.894 1067.14,-161.682 1056.57,-162.48 1059.38,-168.894"/>
</g>
<!-- Node38 -->
<g id="node38" class="node"><title>Node38</title>
<g id="a_node38"><a xlink:href="../../de/d61/ShmManager_8h.html" target="_top" xlink:title="CommonUtils/ShmManager.h">
<polygon fill="none" stroke="black" points="115,-142.5 115,-161.5 261,-161.5 261,-142.5 115,-142.5"/>
<text text-anchor="middle" x="188" y="-149.5" font-family="Helvetica,sans-Serif" font-size="10.00">CommonUtils/ShmManager.h</text>
</a>
</g>
</g>
<!-- Node37&#45;&gt;Node38 -->
<g id="edge48" class="edge"><title>Node37&#45;&gt;Node38</title>
<path fill="none" stroke="midnightblue" d="M644.301,-210.473C546.974,-198.214 367.979,-175.669 265.488,-162.76"/>
<polygon fill="midnightblue" stroke="midnightblue" points="265.868,-159.28 255.509,-161.503 264.993,-166.225 265.868,-159.28"/>
</g>
<!-- Node43 -->
<g id="node43" class="node"><title>Node43</title>
<polygon fill="none" stroke="#bfbfbf" points="757.5,-142.5 757.5,-161.5 806.5,-161.5 806.5,-142.5 757.5,-142.5"/>
<text text-anchor="middle" x="782" y="-149.5" font-family="Helvetica,sans-Serif" font-size="10.00">cassert</text>
</g>
<!-- Node37&#45;&gt;Node43 -->
<g id="edge53" class="edge"><title>Node37&#45;&gt;Node43</title>
<path fill="none" stroke="midnightblue" d="M721.151,-210.372C732.304,-199.856 751.368,-181.882 765.19,-168.85"/>
<polygon fill="midnightblue" stroke="midnightblue" points="767.748,-171.248 772.623,-161.841 762.946,-166.155 767.748,-171.248"/>
</g>
<!-- Node39 -->
<g id="node39" class="node"><title>Node39</title>
<polygon fill="none" stroke="#bfbfbf" points="-0.5,-74.5 -0.5,-93.5 28.5,-93.5 28.5,-74.5 -0.5,-74.5"/>
<text text-anchor="middle" x="14" y="-81.5" font-family="Helvetica,sans-Serif" font-size="10.00">list</text>
</g>
<!-- Node38&#45;&gt;Node39 -->
<g id="edge49" class="edge"><title>Node38&#45;&gt;Node39</title>
<path fill="none" stroke="midnightblue" d="M154.955,-142.444C123.716,-133.756 75.9586,-118.906 37,-100 36.1744,-99.5993 35.3429,-99.1741 34.5111,-98.7303"/>
<polygon fill="midnightblue" stroke="midnightblue" points="36.216,-95.6717 25.8389,-93.5348 32.6185,-101.677 36.216,-95.6717"/>
</g>
<!-- Node40 -->
<g id="node40" class="node"><title>Node40</title>
<polygon fill="none" stroke="#bfbfbf" points="46.5,-74.5 46.5,-93.5 95.5,-93.5 95.5,-74.5 46.5,-74.5"/>
<text text-anchor="middle" x="71" y="-81.5" font-family="Helvetica,sans-Serif" font-size="10.00">cstddef</text>
</g>
<!-- Node38&#45;&gt;Node40 -->
<g id="edge50" class="edge"><title>Node38&#45;&gt;Node40</title>
<path fill="none" stroke="midnightblue" d="M172.704,-142.372C152.997,-131.254 118.509,-111.8 95.2198,-98.6624"/>
<polygon fill="midnightblue" stroke="midnightblue" points="96.7289,-95.4953 86.2995,-93.6305 93.2896,-101.592 96.7289,-95.4953"/>
</g>
<!-- Node41 -->
<g id="node41" class="node"><title>Node41</title>
<polygon fill="none" stroke="#bfbfbf" points="114,-69 114,-99 262,-99 262,-69 114,-69"/>
<text text-anchor="start" x="122" y="-87" font-family="Helvetica,sans-Serif" font-size="10.00">boost/interprocess</text>
<text text-anchor="middle" x="188" y="-76" font-family="Helvetica,sans-Serif" font-size="10.00">/managed_external_buffer.hpp</text>
</g>
<!-- Node38&#45;&gt;Node41 -->
<g id="edge51" class="edge"><title>Node38&#45;&gt;Node41</title>
<path fill="none" stroke="midnightblue" d="M188,-142.372C188,-133.971 188,-120.811 188,-109.213"/>
<polygon fill="midnightblue" stroke="midnightblue" points="191.5,-109.181 188,-99.1815 184.5,-109.181 191.5,-109.181"/>
</g>
<!-- Node42 -->
<g id="node42" class="node"><title>Node42</title>
<polygon fill="none" stroke="#bfbfbf" points="280,-69 280,-99 400,-99 400,-69 280,-69"/>
<text text-anchor="start" x="288" y="-87" font-family="Helvetica,sans-Serif" font-size="10.00">boost/interprocess</text>
<text text-anchor="middle" x="340" y="-76" font-family="Helvetica,sans-Serif" font-size="10.00">/allocators/allocator.hpp</text>
</g>
<!-- Node38&#45;&gt;Node42 -->
<g id="edge52" class="edge"><title>Node38&#45;&gt;Node42</title>
<path fill="none" stroke="midnightblue" d="M207.871,-142.372C230.744,-132.44 268.943,-115.854 298.401,-103.063"/>
<polygon fill="midnightblue" stroke="midnightblue" points="299.849,-106.25 307.628,-99.0562 297.061,-99.8287 299.849,-106.25"/>
</g>
<!-- Node44&#45;&gt;Node45 -->
<g id="edge55" class="edge"><title>Node44&#45;&gt;Node45</title>
<path fill="none" stroke="midnightblue" d="M2055.13,-278.439C2102.87,-267.724 2185.44,-249.186 2243.86,-236.072"/>
<polygon fill="midnightblue" stroke="midnightblue" points="2244.75,-239.459 2253.74,-233.853 2243.22,-232.629 2244.75,-239.459"/>
</g>
<!-- Node45&#45;&gt;Node7 -->
<g id="edge56" class="edge"><title>Node45&#45;&gt;Node7</title>
<path fill="none" stroke="midnightblue" d="M2298.15,-204.736C2279.94,-185.55 2244.63,-151.997 2207,-136 2144.19,-109.3 1941.36,-93.1506 1856.2,-87.3943"/>
<polygon fill="midnightblue" stroke="midnightblue" points="1856.39,-83.8992 1846.18,-86.7283 1855.92,-90.8838 1856.39,-83.8992"/>
</g>
<!-- Node46&#45;&gt;Node21 -->
<g id="edge58" class="edge"><title>Node46&#45;&gt;Node21</title>
<path fill="none" stroke="midnightblue" d="M1174.24,-272.841C1193.52,-261.579 1220.35,-245.913 1239.45,-234.757"/>
<polygon fill="midnightblue" stroke="midnightblue" points="1241.27,-237.748 1248.14,-229.682 1237.74,-231.703 1241.27,-237.748"/>
</g>
<!-- Node46&#45;&gt;Node43 -->
<g id="edge59" class="edge"><title>Node46&#45;&gt;Node43</title>
<path fill="none" stroke="midnightblue" d="M1092.68,-278.346C1016.61,-266.586 889.567,-245.894 870,-236 838.308,-219.975 810.087,-188.905 794.58,-169.659"/>
<polygon fill="midnightblue" stroke="midnightblue" points="797.304,-167.46 788.383,-161.744 791.793,-171.775 797.304,-167.46"/>
</g>
<!-- Node47 -->
<g id="node47" class="node"><title>Node47</title>
<polygon fill="none" stroke="#bfbfbf" points="1091.5,-210.5 1091.5,-229.5 1150.5,-229.5 1150.5,-210.5 1091.5,-210.5"/>
<text text-anchor="middle" x="1121" y="-217.5" font-family="Helvetica,sans-Serif" font-size="10.00">stdexcept</text>
</g>
<!-- Node46&#45;&gt;Node47 -->
<g id="edge60" class="edge"><title>Node46&#45;&gt;Node47</title>
<path fill="none" stroke="midnightblue" d="M1143.71,-272.679C1139.36,-262.796 1133.56,-249.579 1128.9,-238.986"/>
<polygon fill="midnightblue" stroke="midnightblue" points="1132.11,-237.576 1124.88,-229.828 1125.7,-240.391 1132.11,-237.576"/>
</g>
<!-- Node48 -->
<g id="node48" class="node"><title>Node48</title>
<polygon fill="none" stroke="#bfbfbf" points="1168.5,-210.5 1168.5,-229.5 1213.5,-229.5 1213.5,-210.5 1168.5,-210.5"/>
<text text-anchor="middle" x="1191" y="-217.5" font-family="Helvetica,sans-Serif" font-size="10.00">gsl/gsl</text>
</g>
<!-- Node46&#45;&gt;Node48 -->
<g id="edge61" class="edge"><title>Node46&#45;&gt;Node48</title>
<path fill="none" stroke="midnightblue" d="M1158.9,-272.679C1165.16,-262.592 1173.59,-249.033 1180.23,-238.335"/>
<polygon fill="midnightblue" stroke="midnightblue" points="1183.21,-240.17 1185.52,-229.828 1177.27,-236.476 1183.21,-240.17"/>
</g>
<!-- Node49 -->
<g id="node49" class="node"><title>Node49</title>
<polygon fill="none" stroke="#bfbfbf" points="1011,-210.5 1011,-229.5 1073,-229.5 1073,-210.5 1011,-210.5"/>
<text text-anchor="middle" x="1042" y="-217.5" font-family="Helvetica,sans-Serif" font-size="10.00">type_traits</text>
</g>
<!-- Node46&#45;&gt;Node49 -->
<g id="edge62" class="edge"><title>Node46&#45;&gt;Node49</title>
<path fill="none" stroke="midnightblue" d="M1126.83,-272.841C1108.57,-261.681 1083.23,-246.198 1065.01,-235.063"/>
<polygon fill="midnightblue" stroke="midnightblue" points="1066.56,-231.91 1056.21,-229.682 1062.91,-237.883 1066.56,-231.91"/>
</g>
</g>
</svg>
