<?xml version="1.0" encoding="UTF-8" standalone="no"?>
<!DOCTYPE svg PUBLIC "-//W3C//DTD SVG 1.1//EN"
 "http://www.w3.org/Graphics/SVG/1.1/DTD/svg11.dtd">
<!-- Generated by graphviz version 2.36.0 (20140111.2315)
 -->
<!-- Title: /home/travis/build/AliceO2Group/AliceO2/Detectors/ITSMFT/common/base/include/ITSMFTBase/SegmentationAlpide.h Pages: 1 -->
<svg width="4065pt" height="374pt"
 viewBox="0.00 0.00 4065.00 374.00" xmlns="http://www.w3.org/2000/svg" xmlns:xlink="http://www.w3.org/1999/xlink">
<g id="graph0" class="graph" transform="scale(1 1) rotate(0) translate(4 370)">
<title>/home/travis/build/AliceO2Group/AliceO2/Detectors/ITSMFT/common/base/include/ITSMFTBase/SegmentationAlpide.h</title>
<!-- Node1 -->
<g id="node1" class="node"><title>Node1</title>
<polygon fill="#bfbfbf" stroke="black" points="2200,-302.5 2200,-365.5 2342,-365.5 2342,-302.5 2200,-302.5"/>
<text text-anchor="start" x="2208" y="-353.5" font-family="Helvetica,sans-Serif" font-size="10.00">/home/travis/build</text>
<text text-anchor="start" x="2208" y="-342.5" font-family="Helvetica,sans-Serif" font-size="10.00">/AliceO2Group/AliceO2</text>
<text text-anchor="start" x="2208" y="-331.5" font-family="Helvetica,sans-Serif" font-size="10.00">/Detectors/ITSMFT/common</text>
<text text-anchor="start" x="2208" y="-320.5" font-family="Helvetica,sans-Serif" font-size="10.00">/base/include/ITSMFTBase</text>
<text text-anchor="middle" x="2271" y="-309.5" font-family="Helvetica,sans-Serif" font-size="10.00">/SegmentationAlpide.h</text>
</g>
<!-- Node2 -->
<g id="node2" class="node"><title>Node2</title>
<g id="a_node2"><a xlink:href="../../dd/d25/SegmentationAlpide_8cxx.html" target="_top" xlink:title="Implementation of the SegmentationAlpide class. ">
<polygon fill="none" stroke="black" points="227,-202 227,-254 393,-254 393,-202 227,-202"/>
<text text-anchor="start" x="235" y="-242" font-family="Helvetica,sans-Serif" font-size="10.00">/home/travis/build</text>
<text text-anchor="start" x="235" y="-231" font-family="Helvetica,sans-Serif" font-size="10.00">/AliceO2Group/AliceO2</text>
<text text-anchor="start" x="235" y="-220" font-family="Helvetica,sans-Serif" font-size="10.00">/Detectors/ITSMFT/common</text>
<text text-anchor="middle" x="310" y="-209" font-family="Helvetica,sans-Serif" font-size="10.00">/base/src/SegmentationAlpide.cxx</text>
</a>
</g>
</g>
<!-- Node1&#45;&gt;Node2 -->
<g id="edge1" class="edge"><title>Node1&#45;&gt;Node2</title>
<path fill="none" stroke="midnightblue" d="M2189.68,-331.74C1853.06,-326.298 578.188,-303.388 402,-266 389.201,-263.284 375.893,-258.92 363.507,-254.125"/>
<polygon fill="midnightblue" stroke="midnightblue" points="2189.78,-335.242 2199.83,-331.903 2189.89,-328.243 2189.78,-335.242"/>
</g>
<!-- Node3 -->
<g id="node3" class="node"><title>Node3</title>
<g id="a_node3"><a xlink:href="../../d9/d1d/BuildTopologyDictionary_8h.html" target="_top" xlink:title="Definition of the BuildTopologyDictionary class. ">
<polygon fill="none" stroke="black" points="411,-191 411,-265 597,-265 597,-191 411,-191"/>
<text text-anchor="start" x="419" y="-253" font-family="Helvetica,sans-Serif" font-size="10.00">/home/travis/build</text>
<text text-anchor="start" x="419" y="-242" font-family="Helvetica,sans-Serif" font-size="10.00">/AliceO2Group/AliceO2</text>
<text text-anchor="start" x="419" y="-231" font-family="Helvetica,sans-Serif" font-size="10.00">/Detectors/ITSMFT/common</text>
<text text-anchor="start" x="419" y="-220" font-family="Helvetica,sans-Serif" font-size="10.00">/reconstruction/include</text>
<text text-anchor="start" x="419" y="-209" font-family="Helvetica,sans-Serif" font-size="10.00">/ITSMFTReconstruction/BuildTopology</text>
<text text-anchor="middle" x="504" y="-198" font-family="Helvetica,sans-Serif" font-size="10.00">Dictionary.h</text>
</a>
</g>
</g>
<!-- Node1&#45;&gt;Node3 -->
<g id="edge2" class="edge"><title>Node1&#45;&gt;Node3</title>
<path fill="none" stroke="midnightblue" d="M2189.84,-331.738C1966.07,-327.74 1321.53,-312.723 788,-266 724.103,-260.404 652.488,-251.053 597.159,-243.152"/>
<polygon fill="midnightblue" stroke="midnightblue" points="2189.8,-335.238 2199.86,-331.915 2189.92,-328.239 2189.8,-335.238"/>
</g>
<!-- Node8 -->
<g id="node8" class="node"><title>Node8</title>
<g id="a_node8"><a xlink:href="../../d6/d04/ITSMFT_2common_2reconstruction_2include_2ITSMFTReconstruction_2Clusterer_8h.html" target="_top" xlink:title="/home/travis/build\l/AliceO2Group/AliceO2\l/Detectors/ITSMFT/common\l/reconstruction/include\l/ITSMFTReconstruction/Clusterer.h">
<polygon fill="none" stroke="black" points="848.5,-196.5 848.5,-259.5 1021.5,-259.5 1021.5,-196.5 848.5,-196.5"/>
<text text-anchor="start" x="856.5" y="-247.5" font-family="Helvetica,sans-Serif" font-size="10.00">/home/travis/build</text>
<text text-anchor="start" x="856.5" y="-236.5" font-family="Helvetica,sans-Serif" font-size="10.00">/AliceO2Group/AliceO2</text>
<text text-anchor="start" x="856.5" y="-225.5" font-family="Helvetica,sans-Serif" font-size="10.00">/Detectors/ITSMFT/common</text>
<text text-anchor="start" x="856.5" y="-214.5" font-family="Helvetica,sans-Serif" font-size="10.00">/reconstruction/include</text>
<text text-anchor="middle" x="935" y="-203.5" font-family="Helvetica,sans-Serif" font-size="10.00">/ITSMFTReconstruction/Clusterer.h</text>
</a>
</g>
</g>
<!-- Node1&#45;&gt;Node8 -->
<g id="edge7" class="edge"><title>Node1&#45;&gt;Node8</title>
<path fill="none" stroke="midnightblue" d="M2189.62,-331.923C1950.55,-328.236 1253.25,-313.585 1031,-266 1023.14,-264.317 1015.08,-262.083 1007.13,-259.543"/>
<polygon fill="midnightblue" stroke="midnightblue" points="2189.58,-335.423 2199.64,-332.075 2189.69,-328.424 2189.58,-335.423"/>
</g>
<!-- Node9 -->
<g id="node9" class="node"><title>Node9</title>
<g id="a_node9"><a xlink:href="../../de/d69/ITSMFT_2common_2reconstruction_2src_2Clusterer_8cxx.html" target="_top" xlink:title="/home/travis/build\l/AliceO2Group/AliceO2\l/Detectors/ITSMFT/common\l/reconstruction/src/Clusterer.cxx">
<polygon fill="none" stroke="black" points="687.5,-96 687.5,-148 846.5,-148 846.5,-96 687.5,-96"/>
<text text-anchor="start" x="695.5" y="-136" font-family="Helvetica,sans-Serif" font-size="10.00">/home/travis/build</text>
<text text-anchor="start" x="695.5" y="-125" font-family="Helvetica,sans-Serif" font-size="10.00">/AliceO2Group/AliceO2</text>
<text text-anchor="start" x="695.5" y="-114" font-family="Helvetica,sans-Serif" font-size="10.00">/Detectors/ITSMFT/common</text>
<text text-anchor="middle" x="767" y="-103" font-family="Helvetica,sans-Serif" font-size="10.00">/reconstruction/src/Clusterer.cxx</text>
</a>
</g>
</g>
<!-- Node1&#45;&gt;Node9 -->
<g id="edge19" class="edge"><title>Node1&#45;&gt;Node9</title>
<path fill="none" stroke="midnightblue" d="M2189.63,-331.453C1894.68,-325.553 895.904,-302.921 839,-266 797.845,-239.297 779.214,-181.441 771.611,-148.081"/>
<polygon fill="midnightblue" stroke="midnightblue" points="2189.76,-334.956 2199.82,-331.656 2189.9,-327.957 2189.76,-334.956"/>
</g>
<!-- Node18 -->
<g id="node18" class="node"><title>Node18</title>
<g id="a_node18"><a xlink:href="../../d3/d38/PixelData_8cxx.html" target="_top" xlink:title="Implementation for transient data of single pixel and set of pixels from current chip. ">
<polygon fill="none" stroke="black" points="1040,-202 1040,-254 1202,-254 1202,-202 1040,-202"/>
<text text-anchor="start" x="1048" y="-242" font-family="Helvetica,sans-Serif" font-size="10.00">/home/travis/build</text>
<text text-anchor="start" x="1048" y="-231" font-family="Helvetica,sans-Serif" font-size="10.00">/AliceO2Group/AliceO2</text>
<text text-anchor="start" x="1048" y="-220" font-family="Helvetica,sans-Serif" font-size="10.00">/Detectors/ITSMFT/common</text>
<text text-anchor="middle" x="1121" y="-209" font-family="Helvetica,sans-Serif" font-size="10.00">/reconstruction/src/PixelData.cxx</text>
</a>
</g>
</g>
<!-- Node1&#45;&gt;Node18 -->
<g id="edge20" class="edge"><title>Node1&#45;&gt;Node18</title>
<path fill="none" stroke="midnightblue" d="M2189.46,-331.234C1974.79,-326.045 1397.75,-308.452 1212,-266 1199.53,-263.15 1186.56,-258.795 1174.44,-254.06"/>
<polygon fill="midnightblue" stroke="midnightblue" points="2189.63,-334.739 2199.71,-331.479 2189.8,-327.741 2189.63,-334.739"/>
</g>
<!-- Node19 -->
<g id="node19" class="node"><title>Node19</title>
<g id="a_node19"><a xlink:href="../../d5/d6b/AlpideChip_8cxx.html" target="_top" xlink:title="Creates an ALPIDE chip in simulation. ">
<polygon fill="none" stroke="black" points="1220.5,-202 1220.5,-254 1369.5,-254 1369.5,-202 1220.5,-202"/>
<text text-anchor="start" x="1228.5" y="-242" font-family="Helvetica,sans-Serif" font-size="10.00">/home/travis/build</text>
<text text-anchor="start" x="1228.5" y="-231" font-family="Helvetica,sans-Serif" font-size="10.00">/AliceO2Group/AliceO2</text>
<text text-anchor="start" x="1228.5" y="-220" font-family="Helvetica,sans-Serif" font-size="10.00">/Detectors/ITSMFT/common</text>
<text text-anchor="middle" x="1295" y="-209" font-family="Helvetica,sans-Serif" font-size="10.00">/simulation/src/AlpideChip.cxx</text>
</a>
</g>
</g>
<!-- Node1&#45;&gt;Node19 -->
<g id="edge21" class="edge"><title>Node1&#45;&gt;Node19</title>
<path fill="none" stroke="midnightblue" d="M2189.77,-330.419C1999.86,-323.816 1531.38,-304.088 1379,-266 1367.56,-263.14 1355.71,-258.842 1344.65,-254.177"/>
<polygon fill="midnightblue" stroke="midnightblue" points="2189.86,-333.924 2199.97,-330.77 2190.1,-326.928 2189.86,-333.924"/>
</g>
<!-- Node20 -->
<g id="node20" class="node"><title>Node20</title>
<g id="a_node20"><a xlink:href="../../d8/d8c/ChipDigitsContainer_8cxx.html" target="_top" xlink:title="/home/travis/build\l/AliceO2Group/AliceO2\l/Detectors/ITSMFT/common\l/simulation/src/ChipDigitsContainer.cxx">
<polygon fill="none" stroke="black" points="1388,-202 1388,-254 1578,-254 1578,-202 1388,-202"/>
<text text-anchor="start" x="1396" y="-242" font-family="Helvetica,sans-Serif" font-size="10.00">/home/travis/build</text>
<text text-anchor="start" x="1396" y="-231" font-family="Helvetica,sans-Serif" font-size="10.00">/AliceO2Group/AliceO2</text>
<text text-anchor="start" x="1396" y="-220" font-family="Helvetica,sans-Serif" font-size="10.00">/Detectors/ITSMFT/common</text>
<text text-anchor="middle" x="1483" y="-209" font-family="Helvetica,sans-Serif" font-size="10.00">/simulation/src/ChipDigitsContainer.cxx</text>
</a>
</g>
</g>
<!-- Node1&#45;&gt;Node20 -->
<g id="edge22" class="edge"><title>Node1&#45;&gt;Node20</title>
<path fill="none" stroke="midnightblue" d="M2189.49,-331.423C2060.24,-327.495 1801,-313.793 1587,-266 1573.35,-262.951 1559.02,-258.632 1545.52,-254.016"/>
<polygon fill="midnightblue" stroke="midnightblue" points="2189.6,-334.927 2199.7,-331.721 2189.8,-327.93 2189.6,-334.927"/>
</g>
<!-- Node21 -->
<g id="node21" class="node"><title>Node21</title>
<g id="a_node21"><a xlink:href="../../dc/dbf/ITSMFT_2common_2simulation_2src_2Digitizer_8cxx.html" target="_top" xlink:title="/home/travis/build\l/AliceO2Group/AliceO2\l/Detectors/ITSMFT/common\l/simulation/src/Digitizer.cxx">
<polygon fill="none" stroke="black" points="1596,-202 1596,-254 1738,-254 1738,-202 1596,-202"/>
<text text-anchor="start" x="1604" y="-242" font-family="Helvetica,sans-Serif" font-size="10.00">/home/travis/build</text>
<text text-anchor="start" x="1604" y="-231" font-family="Helvetica,sans-Serif" font-size="10.00">/AliceO2Group/AliceO2</text>
<text text-anchor="start" x="1604" y="-220" font-family="Helvetica,sans-Serif" font-size="10.00">/Detectors/ITSMFT/common</text>
<text text-anchor="middle" x="1667" y="-209" font-family="Helvetica,sans-Serif" font-size="10.00">/simulation/src/Digitizer.cxx</text>
</a>
</g>
</g>
<!-- Node1&#45;&gt;Node21 -->
<g id="edge23" class="edge"><title>Node1&#45;&gt;Node21</title>
<path fill="none" stroke="midnightblue" d="M2189.54,-330.274C2085.15,-325.047 1899.47,-309.873 1747,-266 1736.41,-262.953 1725.45,-258.693 1715.17,-254.144"/>
<polygon fill="midnightblue" stroke="midnightblue" points="2189.53,-333.777 2199.69,-330.763 2189.87,-326.786 2189.53,-333.777"/>
</g>
<!-- Node22 -->
<g id="node22" class="node"><title>Node22</title>
<g id="a_node22"><a xlink:href="../../db/df2/ITS_2base_2src_2GeometryTGeo_8cxx.html" target="_top" xlink:title="/home/travis/build\l/AliceO2Group/AliceO2\l/Detectors/ITSMFT/ITS\l/base/src/GeometryTGeo.cxx">
<polygon fill="none" stroke="black" points="1756,-202 1756,-254 1902,-254 1902,-202 1756,-202"/>
<text text-anchor="start" x="1764" y="-242" font-family="Helvetica,sans-Serif" font-size="10.00">/home/travis/build</text>
<text text-anchor="start" x="1764" y="-231" font-family="Helvetica,sans-Serif" font-size="10.00">/AliceO2Group/AliceO2</text>
<text text-anchor="start" x="1764" y="-220" font-family="Helvetica,sans-Serif" font-size="10.00">/Detectors/ITSMFT/ITS</text>
<text text-anchor="middle" x="1829" y="-209" font-family="Helvetica,sans-Serif" font-size="10.00">/base/src/GeometryTGeo.cxx</text>
</a>
</g>
</g>
<!-- Node1&#45;&gt;Node22 -->
<g id="edge24" class="edge"><title>Node1&#45;&gt;Node22</title>
<path fill="none" stroke="midnightblue" d="M2189.85,-323.396C2116.21,-313.384 2005.23,-295.035 1912,-266 1901.46,-262.716 1890.47,-258.462 1880.08,-254.013"/>
<polygon fill="midnightblue" stroke="midnightblue" points="2189.61,-326.895 2199.98,-324.753 2190.54,-319.957 2189.61,-326.895"/>
</g>
<!-- Node23 -->
<g id="node23" class="node"><title>Node23</title>
<g id="a_node23"><a xlink:href="../../de/d5b/CheckClusterShape_8C.html" target="_top" xlink:title="/home/travis/build\l/AliceO2Group/AliceO2\l/Detectors/ITSMFT/ITS\l/macros/test/CheckClusterShape.C">
<polygon fill="none" stroke="black" points="1920.5,-202 1920.5,-254 2093.5,-254 2093.5,-202 1920.5,-202"/>
<text text-anchor="start" x="1928.5" y="-242" font-family="Helvetica,sans-Serif" font-size="10.00">/home/travis/build</text>
<text text-anchor="start" x="1928.5" y="-231" font-family="Helvetica,sans-Serif" font-size="10.00">/AliceO2Group/AliceO2</text>
<text text-anchor="start" x="1928.5" y="-220" font-family="Helvetica,sans-Serif" font-size="10.00">/Detectors/ITSMFT/ITS</text>
<text text-anchor="middle" x="2007" y="-209" font-family="Helvetica,sans-Serif" font-size="10.00">/macros/test/CheckClusterShape.C</text>
</a>
</g>
</g>
<!-- Node1&#45;&gt;Node23 -->
<g id="edge25" class="edge"><title>Node1&#45;&gt;Node23</title>
<path fill="none" stroke="midnightblue" d="M2190.29,-301.204C2151.84,-286.057 2106.51,-268.202 2070.55,-254.037"/>
<polygon fill="midnightblue" stroke="midnightblue" points="2189.32,-304.584 2199.91,-304.993 2191.88,-298.071 2189.32,-304.584"/>
</g>
<!-- Node24 -->
<g id="node24" class="node"><title>Node24</title>
<g id="a_node24"><a xlink:href="../../d9/dd0/CheckDigits_8C.html" target="_top" xlink:title="Simple macro to check ITSU clusters. ">
<polygon fill="none" stroke="black" points="2111.5,-202 2111.5,-254 2250.5,-254 2250.5,-202 2111.5,-202"/>
<text text-anchor="start" x="2119.5" y="-242" font-family="Helvetica,sans-Serif" font-size="10.00">/home/travis/build</text>
<text text-anchor="start" x="2119.5" y="-231" font-family="Helvetica,sans-Serif" font-size="10.00">/AliceO2Group/AliceO2</text>
<text text-anchor="start" x="2119.5" y="-220" font-family="Helvetica,sans-Serif" font-size="10.00">/Detectors/ITSMFT/ITS</text>
<text text-anchor="middle" x="2181" y="-209" font-family="Helvetica,sans-Serif" font-size="10.00">/macros/test/CheckDigits.C</text>
</a>
</g>
</g>
<!-- Node1&#45;&gt;Node24 -->
<g id="edge26" class="edge"><title>Node1&#45;&gt;Node24</title>
<path fill="none" stroke="midnightblue" d="M2237.77,-294.597C2226.09,-281.106 2213.28,-266.301 2202.79,-254.175"/>
<polygon fill="midnightblue" stroke="midnightblue" points="2235.29,-297.088 2244.48,-302.359 2240.59,-292.507 2235.29,-297.088"/>
</g>
<!-- Node25 -->
<g id="node25" class="node"><title>Node25</title>
<g id="a_node25"><a xlink:href="../../d5/d89/TrivialClusterer_8cxx.html" target="_top" xlink:title="Implementation of the ITS cluster finder. ">
<polygon fill="none" stroke="black" points="2268.5,-202 2268.5,-254 2453.5,-254 2453.5,-202 2268.5,-202"/>
<text text-anchor="start" x="2276.5" y="-242" font-family="Helvetica,sans-Serif" font-size="10.00">/home/travis/build</text>
<text text-anchor="start" x="2276.5" y="-231" font-family="Helvetica,sans-Serif" font-size="10.00">/AliceO2Group/AliceO2</text>
<text text-anchor="start" x="2276.5" y="-220" font-family="Helvetica,sans-Serif" font-size="10.00">/Detectors/ITSMFT/ITS</text>
<text text-anchor="middle" x="2361" y="-209" font-family="Helvetica,sans-Serif" font-size="10.00">/reconstruction/src/TrivialClusterer.cxx</text>
</a>
</g>
</g>
<!-- Node1&#45;&gt;Node25 -->
<g id="edge27" class="edge"><title>Node1&#45;&gt;Node25</title>
<path fill="none" stroke="midnightblue" d="M2304.23,-294.597C2315.91,-281.106 2328.72,-266.301 2339.21,-254.175"/>
<polygon fill="midnightblue" stroke="midnightblue" points="2301.41,-292.507 2297.52,-302.359 2306.71,-297.088 2301.41,-292.507"/>
</g>
<!-- Node26 -->
<g id="node26" class="node"><title>Node26</title>
<g id="a_node26"><a xlink:href="../../d9/d0d/ITSMFT_2ITS_2simulation_2src_2Detector_8cxx.html" target="_top" xlink:title="/home/travis/build\l/AliceO2Group/AliceO2\l/Detectors/ITSMFT/ITS\l/simulation/src/Detector.cxx">
<polygon fill="none" stroke="black" points="2472,-202 2472,-254 2612,-254 2612,-202 2472,-202"/>
<text text-anchor="start" x="2480" y="-242" font-family="Helvetica,sans-Serif" font-size="10.00">/home/travis/build</text>
<text text-anchor="start" x="2480" y="-231" font-family="Helvetica,sans-Serif" font-size="10.00">/AliceO2Group/AliceO2</text>
<text text-anchor="start" x="2480" y="-220" font-family="Helvetica,sans-Serif" font-size="10.00">/Detectors/ITSMFT/ITS</text>
<text text-anchor="middle" x="2542" y="-209" font-family="Helvetica,sans-Serif" font-size="10.00">/simulation/src/Detector.cxx</text>
</a>
</g>
</g>
<!-- Node1&#45;&gt;Node26 -->
<g id="edge28" class="edge"><title>Node1&#45;&gt;Node26</title>
<path fill="none" stroke="midnightblue" d="M2351.85,-306.556C2386.11,-294.859 2426.28,-280.486 2462,-266 2471.08,-262.319 2480.61,-258.167 2489.82,-254.008"/>
<polygon fill="midnightblue" stroke="midnightblue" points="2350.7,-303.251 2342.36,-309.782 2352.95,-309.879 2350.7,-303.251"/>
</g>
<!-- Node27 -->
<g id="node27" class="node"><title>Node27</title>
<g id="a_node27"><a xlink:href="../../d5/d24/ChipSegmentation_8cxx.html" target="_top" xlink:title="Description of the virtual segmentation of the chips. ">
<polygon fill="none" stroke="black" points="2630.5,-202 2630.5,-254 2789.5,-254 2789.5,-202 2630.5,-202"/>
<text text-anchor="start" x="2638.5" y="-242" font-family="Helvetica,sans-Serif" font-size="10.00">/home/travis/build</text>
<text text-anchor="start" x="2638.5" y="-231" font-family="Helvetica,sans-Serif" font-size="10.00">/AliceO2Group/AliceO2</text>
<text text-anchor="start" x="2638.5" y="-220" font-family="Helvetica,sans-Serif" font-size="10.00">/Detectors/ITSMFT/MFT</text>
<text text-anchor="middle" x="2710" y="-209" font-family="Helvetica,sans-Serif" font-size="10.00">/base/src/ChipSegmentation.cxx</text>
</a>
</g>
</g>
<!-- Node1&#45;&gt;Node27 -->
<g id="edge29" class="edge"><title>Node1&#45;&gt;Node27</title>
<path fill="none" stroke="midnightblue" d="M2352.39,-322.25C2424.06,-311.647 2530.78,-293.078 2621,-266 2632.06,-262.681 2643.62,-258.463 2654.61,-254.072"/>
<polygon fill="midnightblue" stroke="midnightblue" points="2351.47,-318.848 2342.08,-323.757 2352.48,-325.774 2351.47,-318.848"/>
</g>
<!-- Node28 -->
<g id="node28" class="node"><title>Node28</title>
<g id="a_node28"><a xlink:href="../../d7/d93/Flex_8cxx.html" target="_top" xlink:title="Flex class for ALICE MFT upgrade. ">
<polygon fill="none" stroke="black" points="2807.5,-202 2807.5,-254 2932.5,-254 2932.5,-202 2807.5,-202"/>
<text text-anchor="start" x="2815.5" y="-242" font-family="Helvetica,sans-Serif" font-size="10.00">/home/travis/build</text>
<text text-anchor="start" x="2815.5" y="-231" font-family="Helvetica,sans-Serif" font-size="10.00">/AliceO2Group/AliceO2</text>
<text text-anchor="start" x="2815.5" y="-220" font-family="Helvetica,sans-Serif" font-size="10.00">/Detectors/ITSMFT/MFT</text>
<text text-anchor="middle" x="2870" y="-209" font-family="Helvetica,sans-Serif" font-size="10.00">/base/src/Flex.cxx</text>
</a>
</g>
</g>
<!-- Node1&#45;&gt;Node28 -->
<g id="edge30" class="edge"><title>Node1&#45;&gt;Node28</title>
<path fill="none" stroke="midnightblue" d="M2352.35,-331.369C2457.48,-327.306 2645.18,-313.369 2798,-266 2807.8,-262.962 2817.86,-258.649 2827.25,-254.033"/>
<polygon fill="midnightblue" stroke="midnightblue" points="2351.99,-327.88 2342.12,-331.743 2352.24,-334.875 2351.99,-327.88"/>
</g>
<!-- Node29 -->
<g id="node29" class="node"><title>Node29</title>
<g id="a_node29"><a xlink:href="../../df/d07/MFT_2base_2src_2GeometryTGeo_8cxx.html" target="_top" xlink:title="/home/travis/build\l/AliceO2Group/AliceO2\l/Detectors/ITSMFT/MFT\l/base/src/GeometryTGeo.cxx">
<polygon fill="none" stroke="black" points="2951,-202 2951,-254 3097,-254 3097,-202 2951,-202"/>
<text text-anchor="start" x="2959" y="-242" font-family="Helvetica,sans-Serif" font-size="10.00">/home/travis/build</text>
<text text-anchor="start" x="2959" y="-231" font-family="Helvetica,sans-Serif" font-size="10.00">/AliceO2Group/AliceO2</text>
<text text-anchor="start" x="2959" y="-220" font-family="Helvetica,sans-Serif" font-size="10.00">/Detectors/ITSMFT/MFT</text>
<text text-anchor="middle" x="3024" y="-209" font-family="Helvetica,sans-Serif" font-size="10.00">/base/src/GeometryTGeo.cxx</text>
</a>
</g>
</g>
<!-- Node1&#45;&gt;Node29 -->
<g id="edge31" class="edge"><title>Node1&#45;&gt;Node29</title>
<path fill="none" stroke="midnightblue" d="M2352.33,-333.161C2479.92,-331.577 2733.91,-320.98 2941,-266 2952.13,-263.045 2963.66,-258.766 2974.46,-254.16"/>
<polygon fill="midnightblue" stroke="midnightblue" points="2352.21,-329.662 2342.25,-333.271 2352.29,-336.662 2352.21,-329.662"/>
</g>
<!-- Node30 -->
<g id="node30" class="node"><title>Node30</title>
<g id="a_node30"><a xlink:href="../../d1/d8f/HalfDiskSegmentation_8cxx.html" target="_top" xlink:title="Class for the description of the structure of a half&#45;disk. ">
<polygon fill="none" stroke="black" points="3115.5,-202 3115.5,-254 3292.5,-254 3292.5,-202 3115.5,-202"/>
<text text-anchor="start" x="3123.5" y="-242" font-family="Helvetica,sans-Serif" font-size="10.00">/home/travis/build</text>
<text text-anchor="start" x="3123.5" y="-231" font-family="Helvetica,sans-Serif" font-size="10.00">/AliceO2Group/AliceO2</text>
<text text-anchor="start" x="3123.5" y="-220" font-family="Helvetica,sans-Serif" font-size="10.00">/Detectors/ITSMFT/MFT</text>
<text text-anchor="middle" x="3204" y="-209" font-family="Helvetica,sans-Serif" font-size="10.00">/base/src/HalfDiskSegmentation.cxx</text>
</a>
</g>
</g>
<!-- Node1&#45;&gt;Node30 -->
<g id="edge32" class="edge"><title>Node1&#45;&gt;Node30</title>
<path fill="none" stroke="midnightblue" d="M2352.19,-333.987C2502.75,-334.17 2834.63,-326.837 3106,-266 3119.13,-263.056 3132.86,-258.722 3145.74,-254.049"/>
<polygon fill="midnightblue" stroke="midnightblue" points="2352.11,-330.487 2342.1,-333.963 2352.09,-337.487 2352.11,-330.487"/>
</g>
<!-- Node31 -->
<g id="node31" class="node"><title>Node31</title>
<g id="a_node31"><a xlink:href="../../dc/d80/Ladder_8cxx.html" target="_top" xlink:title="Ladder builder. ">
<polygon fill="none" stroke="black" points="3310.5,-202 3310.5,-254 3435.5,-254 3435.5,-202 3310.5,-202"/>
<text text-anchor="start" x="3318.5" y="-242" font-family="Helvetica,sans-Serif" font-size="10.00">/home/travis/build</text>
<text text-anchor="start" x="3318.5" y="-231" font-family="Helvetica,sans-Serif" font-size="10.00">/AliceO2Group/AliceO2</text>
<text text-anchor="start" x="3318.5" y="-220" font-family="Helvetica,sans-Serif" font-size="10.00">/Detectors/ITSMFT/MFT</text>
<text text-anchor="middle" x="3373" y="-209" font-family="Helvetica,sans-Serif" font-size="10.00">/base/src/Ladder.cxx</text>
</a>
</g>
</g>
<!-- Node1&#45;&gt;Node31 -->
<g id="edge33" class="edge"><title>Node1&#45;&gt;Node31</title>
<path fill="none" stroke="midnightblue" d="M2352.41,-331.973C2563.22,-328.635 3122.89,-315.26 3301,-266 3311.16,-263.19 3321.55,-258.851 3331.15,-254.12"/>
<polygon fill="midnightblue" stroke="midnightblue" points="2352.28,-328.475 2342.33,-332.13 2352.39,-335.474 2352.28,-328.475"/>
</g>
<!-- Node32 -->
<g id="node32" class="node"><title>Node32</title>
<g id="a_node32"><a xlink:href="../../d7/d4c/HitAnalysis_8cxx.html" target="_top" xlink:title="/home/travis/build\l/AliceO2Group/AliceO2\l/Detectors/ITSMFT/test\l/HitAnalysis/src/HitAnalysis.cxx">
<polygon fill="none" stroke="black" points="3453,-202 3453,-254 3611,-254 3611,-202 3453,-202"/>
<text text-anchor="start" x="3461" y="-242" font-family="Helvetica,sans-Serif" font-size="10.00">/home/travis/build</text>
<text text-anchor="start" x="3461" y="-231" font-family="Helvetica,sans-Serif" font-size="10.00">/AliceO2Group/AliceO2</text>
<text text-anchor="start" x="3461" y="-220" font-family="Helvetica,sans-Serif" font-size="10.00">/Detectors/ITSMFT/test</text>
<text text-anchor="middle" x="3532" y="-209" font-family="Helvetica,sans-Serif" font-size="10.00">/HitAnalysis/src/HitAnalysis.cxx</text>
</a>
</g>
</g>
<!-- Node1&#45;&gt;Node32 -->
<g id="edge34" class="edge"><title>Node1&#45;&gt;Node32</title>
<path fill="none" stroke="midnightblue" d="M2352.34,-331.944C2582.62,-328.384 3235.81,-314.205 3444,-266 3456.11,-263.196 3468.68,-258.859 3480.39,-254.129"/>
<polygon fill="midnightblue" stroke="midnightblue" points="2351.97,-328.449 2342.03,-332.1 2352.08,-335.448 2351.97,-328.449"/>
</g>
<!-- Node33 -->
<g id="node33" class="node"><title>Node33</title>
<g id="a_node33"><a xlink:href="../../d1/d88/CheckDigits__mft_8C.html" target="_top" xlink:title="Simple macro to check MFT digits. ">
<polygon fill="none" stroke="black" points="3629,-207.5 3629,-248.5 3763,-248.5 3763,-207.5 3629,-207.5"/>
<text text-anchor="start" x="3637" y="-236.5" font-family="Helvetica,sans-Serif" font-size="10.00">/home/travis/build</text>
<text text-anchor="start" x="3637" y="-225.5" font-family="Helvetica,sans-Serif" font-size="10.00">/AliceO2Group/AliceO2</text>
<text text-anchor="middle" x="3696" y="-214.5" font-family="Helvetica,sans-Serif" font-size="10.00">/macro/CheckDigits_mft.C</text>
</a>
</g>
</g>
<!-- Node1&#45;&gt;Node33 -->
<g id="edge35" class="edge"><title>Node1&#45;&gt;Node33</title>
<path fill="none" stroke="midnightblue" d="M2352.56,-333.165C2606.01,-333.015 3377.36,-327.392 3619,-266 3633.95,-262.202 3649.46,-255.383 3662.61,-248.625"/>
<polygon fill="midnightblue" stroke="midnightblue" points="2352.32,-329.665 2342.32,-333.168 2352.32,-336.665 2352.32,-329.665"/>
</g>
<!-- Node34 -->
<g id="node34" class="node"><title>Node34</title>
<g id="a_node34"><a xlink:href="../../d9/d71/run__sim_8C.html" target="_top" xlink:title="/home/travis/build\l/AliceO2Group/AliceO2\l/macro/run_sim.C">
<polygon fill="none" stroke="black" points="3781,-207.5 3781,-248.5 3899,-248.5 3899,-207.5 3781,-207.5"/>
<text text-anchor="start" x="3789" y="-236.5" font-family="Helvetica,sans-Serif" font-size="10.00">/home/travis/build</text>
<text text-anchor="start" x="3789" y="-225.5" font-family="Helvetica,sans-Serif" font-size="10.00">/AliceO2Group/AliceO2</text>
<text text-anchor="middle" x="3840" y="-214.5" font-family="Helvetica,sans-Serif" font-size="10.00">/macro/run_sim.C</text>
</a>
</g>
</g>
<!-- Node1&#45;&gt;Node34 -->
<g id="edge36" class="edge"><title>Node1&#45;&gt;Node34</title>
<path fill="none" stroke="midnightblue" d="M2352.18,-331.513C2644.77,-325.861 3635.17,-304.083 3772,-266 3785.47,-262.252 3799.21,-255.443 3810.79,-248.678"/>
<polygon fill="midnightblue" stroke="midnightblue" points="2352,-328.016 2342.07,-331.707 2352.13,-335.015 2352,-328.016"/>
</g>
<!-- Node35 -->
<g id="node35" class="node"><title>Node35</title>
<g id="a_node35"><a xlink:href="../../d5/dd2/run__sim__its__ALP3_8C.html" target="_top" xlink:title="/home/travis/build\l/AliceO2Group/AliceO2\l/macro/run_sim_its_ALP3.C">
<polygon fill="none" stroke="black" points="3917,-207.5 3917,-248.5 4057,-248.5 4057,-207.5 3917,-207.5"/>
<text text-anchor="start" x="3925" y="-236.5" font-family="Helvetica,sans-Serif" font-size="10.00">/home/travis/build</text>
<text text-anchor="start" x="3925" y="-225.5" font-family="Helvetica,sans-Serif" font-size="10.00">/AliceO2Group/AliceO2</text>
<text text-anchor="middle" x="3987" y="-214.5" font-family="Helvetica,sans-Serif" font-size="10.00">/macro/run_sim_its_ALP3.C</text>
</a>
</g>
</g>
<!-- Node1&#45;&gt;Node35 -->
<g id="edge37" class="edge"><title>Node1&#45;&gt;Node35</title>
<path fill="none" stroke="midnightblue" d="M2352.59,-331.551C2662.45,-325.789 3756.45,-303 3908,-266 3923.3,-262.264 3939.21,-255.457 3952.7,-248.691"/>
<polygon fill="midnightblue" stroke="midnightblue" points="2352.27,-328.056 2342.34,-331.741 2352.4,-335.055 2352.27,-328.056"/>
</g>
<!-- Node4 -->
<g id="node4" class="node"><title>Node4</title>
<g id="a_node4"><a xlink:href="../../d9/d9d/BuildTopologyDictionary_8cxx.html" target="_top" xlink:title="Implementation of the BuildTopologyDictionary class. ">
<polygon fill="none" stroke="black" points="0,-90.5 0,-153.5 162,-153.5 162,-90.5 0,-90.5"/>
<text text-anchor="start" x="8" y="-141.5" font-family="Helvetica,sans-Serif" font-size="10.00">/home/travis/build</text>
<text text-anchor="start" x="8" y="-130.5" font-family="Helvetica,sans-Serif" font-size="10.00">/AliceO2Group/AliceO2</text>
<text text-anchor="start" x="8" y="-119.5" font-family="Helvetica,sans-Serif" font-size="10.00">/Detectors/ITSMFT/common</text>
<text text-anchor="start" x="8" y="-108.5" font-family="Helvetica,sans-Serif" font-size="10.00">/reconstruction/src/BuildTopology</text>
<text text-anchor="middle" x="81" y="-97.5" font-family="Helvetica,sans-Serif" font-size="10.00">Dictionary.cxx</text>
</a>
</g>
</g>
<!-- Node3&#45;&gt;Node4 -->
<g id="edge3" class="edge"><title>Node3&#45;&gt;Node4</title>
<path fill="none" stroke="midnightblue" d="M401.115,-189.944C299.506,-165.026 268.796,-178.26 171,-154 168.113,-153.284 165.187,-152.515 162.241,-151.705"/>
<polygon fill="midnightblue" stroke="midnightblue" points="400.291,-193.346 410.843,-192.392 401.999,-186.557 400.291,-193.346"/>
</g>
<!-- Node5 -->
<g id="node5" class="node"><title>Node5</title>
<g id="a_node5"><a xlink:href="../../d6/de5/CheckLookUp_8C.html" target="_top" xlink:title="/home/travis/build\l/AliceO2Group/AliceO2\l/Detectors/ITSMFT/ITS\l/macros/test/CheckLookUp.C">
<polygon fill="none" stroke="black" points="180.5,-96 180.5,-148 327.5,-148 327.5,-96 180.5,-96"/>
<text text-anchor="start" x="188.5" y="-136" font-family="Helvetica,sans-Serif" font-size="10.00">/home/travis/build</text>
<text text-anchor="start" x="188.5" y="-125" font-family="Helvetica,sans-Serif" font-size="10.00">/AliceO2Group/AliceO2</text>
<text text-anchor="start" x="188.5" y="-114" font-family="Helvetica,sans-Serif" font-size="10.00">/Detectors/ITSMFT/ITS</text>
<text text-anchor="middle" x="254" y="-103" font-family="Helvetica,sans-Serif" font-size="10.00">/macros/test/CheckLookUp.C</text>
</a>
</g>
</g>
<!-- Node3&#45;&gt;Node5 -->
<g id="edge4" class="edge"><title>Node3&#45;&gt;Node5</title>
<path fill="none" stroke="midnightblue" d="M408.01,-187.068C376.477,-173.951 342.337,-159.748 314.233,-148.057"/>
<polygon fill="midnightblue" stroke="midnightblue" points="406.686,-190.308 417.264,-190.918 409.375,-183.845 406.686,-190.308"/>
</g>
<!-- Node6 -->
<g id="node6" class="node"><title>Node6</title>
<g id="a_node6"><a xlink:href="../../d8/d77/CheckLUtime_8C.html" target="_top" xlink:title="Macro to measure the time necessaty for the identification of the topology IDs of the clusters genera...">
<polygon fill="none" stroke="black" points="345.5,-96 345.5,-148 490.5,-148 490.5,-96 345.5,-96"/>
<text text-anchor="start" x="353.5" y="-136" font-family="Helvetica,sans-Serif" font-size="10.00">/home/travis/build</text>
<text text-anchor="start" x="353.5" y="-125" font-family="Helvetica,sans-Serif" font-size="10.00">/AliceO2Group/AliceO2</text>
<text text-anchor="start" x="353.5" y="-114" font-family="Helvetica,sans-Serif" font-size="10.00">/Detectors/ITSMFT/ITS</text>
<text text-anchor="middle" x="418" y="-103" font-family="Helvetica,sans-Serif" font-size="10.00">/macros/test/CheckLUtime.C</text>
</a>
</g>
</g>
<!-- Node3&#45;&gt;Node6 -->
<g id="edge5" class="edge"><title>Node3&#45;&gt;Node6</title>
<path fill="none" stroke="midnightblue" d="M467.771,-183.188C457.903,-171.255 447.547,-158.731 438.852,-148.217"/>
<polygon fill="midnightblue" stroke="midnightblue" points="465.093,-185.442 474.163,-190.918 470.487,-180.981 465.093,-185.442"/>
</g>
<!-- Node7 -->
<g id="node7" class="node"><title>Node7</title>
<g id="a_node7"><a xlink:href="../../d9/db4/CheckTopologies_8C.html" target="_top" xlink:title="/home/travis/build\l/AliceO2Group/AliceO2\l/Detectors/ITSMFT/ITS\l/macros/test/CheckTopologies.C">
<polygon fill="none" stroke="black" points="508.5,-96 508.5,-148 669.5,-148 669.5,-96 508.5,-96"/>
<text text-anchor="start" x="516.5" y="-136" font-family="Helvetica,sans-Serif" font-size="10.00">/home/travis/build</text>
<text text-anchor="start" x="516.5" y="-125" font-family="Helvetica,sans-Serif" font-size="10.00">/AliceO2Group/AliceO2</text>
<text text-anchor="start" x="516.5" y="-114" font-family="Helvetica,sans-Serif" font-size="10.00">/Detectors/ITSMFT/ITS</text>
<text text-anchor="middle" x="589" y="-103" font-family="Helvetica,sans-Serif" font-size="10.00">/macros/test/CheckTopologies.C</text>
</a>
</g>
</g>
<!-- Node3&#45;&gt;Node7 -->
<g id="edge6" class="edge"><title>Node3&#45;&gt;Node7</title>
<path fill="none" stroke="midnightblue" d="M540.087,-182.847C549.756,-171.016 559.879,-158.631 568.39,-148.217"/>
<polygon fill="midnightblue" stroke="midnightblue" points="537.109,-180.96 533.49,-190.918 542.529,-185.39 537.109,-180.96"/>
</g>
<!-- Node8&#45;&gt;Node9 -->
<g id="edge8" class="edge"><title>Node8&#45;&gt;Node9</title>
<path fill="none" stroke="midnightblue" d="M876.878,-191.02C853.966,-176.836 828.209,-160.891 807.394,-148.006"/>
<polygon fill="midnightblue" stroke="midnightblue" points="875.158,-194.071 885.503,-196.359 878.843,-188.12 875.158,-194.071"/>
</g>
<!-- Node10 -->
<g id="node10" class="node"><title>Node10</title>
<g id="a_node10"><a xlink:href="../../d6/d67/ITSMFT_2ITS_2reconstruction_2include_2ITSReconstruction_2ClustererTask_8h.html" target="_top" xlink:title="/home/travis/build\l/AliceO2Group/AliceO2\l/Detectors/ITSMFT/ITS\l/reconstruction/include\l/ITSReconstruction/ClustererTask.h">
<polygon fill="none" stroke="black" points="865,-90.5 865,-153.5 1039,-153.5 1039,-90.5 865,-90.5"/>
<text text-anchor="start" x="873" y="-141.5" font-family="Helvetica,sans-Serif" font-size="10.00">/home/travis/build</text>
<text text-anchor="start" x="873" y="-130.5" font-family="Helvetica,sans-Serif" font-size="10.00">/AliceO2Group/AliceO2</text>
<text text-anchor="start" x="873" y="-119.5" font-family="Helvetica,sans-Serif" font-size="10.00">/Detectors/ITSMFT/ITS</text>
<text text-anchor="start" x="873" y="-108.5" font-family="Helvetica,sans-Serif" font-size="10.00">/reconstruction/include</text>
<text text-anchor="middle" x="952" y="-97.5" font-family="Helvetica,sans-Serif" font-size="10.00">/ITSReconstruction/ClustererTask.h</text>
</a>
</g>
</g>
<!-- Node8&#45;&gt;Node10 -->
<g id="edge9" class="edge"><title>Node8&#45;&gt;Node10</title>
<path fill="none" stroke="midnightblue" d="M941.658,-186.268C943.425,-175.458 945.304,-163.964 946.968,-153.781"/>
<polygon fill="midnightblue" stroke="midnightblue" points="938.168,-185.925 940.009,-196.359 945.076,-187.055 938.168,-185.925"/>
</g>
<!-- Node13 -->
<g id="node13" class="node"><title>Node13</title>
<g id="a_node13"><a xlink:href="../../d7/d59/run__clus__itsSA_8C.html" target="_top" xlink:title="/home/travis/build\l/AliceO2Group/AliceO2\l/macro/run_clus_itsSA.C">
<polygon fill="none" stroke="black" points="919,-6.5 919,-47.5 1045,-47.5 1045,-6.5 919,-6.5"/>
<text text-anchor="start" x="927" y="-35.5" font-family="Helvetica,sans-Serif" font-size="10.00">/home/travis/build</text>
<text text-anchor="start" x="927" y="-24.5" font-family="Helvetica,sans-Serif" font-size="10.00">/AliceO2Group/AliceO2</text>
<text text-anchor="middle" x="982" y="-13.5" font-family="Helvetica,sans-Serif" font-size="10.00">/macro/run_clus_itsSA.C</text>
</a>
</g>
</g>
<!-- Node8&#45;&gt;Node13 -->
<g id="edge17" class="edge"><title>Node8&#45;&gt;Node13</title>
<path fill="none" stroke="midnightblue" d="M1014.43,-190.466C1027.91,-180.597 1040.09,-168.524 1048,-154 1061.6,-129.019 1059.29,-116.106 1048,-90 1040.57,-72.8298 1025.79,-58.2256 1012.09,-47.5119"/>
<polygon fill="midnightblue" stroke="midnightblue" points="1012.16,-187.781 1005.9,-196.327 1016.12,-193.552 1012.16,-187.781"/>
</g>
<!-- Node14 -->
<g id="node14" class="node"><title>Node14</title>
<g id="a_node14"><a xlink:href="../../db/d12/ITSMFT_2MFT_2reconstruction_2include_2MFTReconstruction_2ClustererTask_8h.html" target="_top" xlink:title="/home/travis/build\l/AliceO2Group/AliceO2\l/Detectors/ITSMFT/MFT\l/reconstruction/include\l/MFTReconstruction/ClustererTask.h">
<polygon fill="none" stroke="black" points="1135.5,-90.5 1135.5,-153.5 1314.5,-153.5 1314.5,-90.5 1135.5,-90.5"/>
<text text-anchor="start" x="1143.5" y="-141.5" font-family="Helvetica,sans-Serif" font-size="10.00">/home/travis/build</text>
<text text-anchor="start" x="1143.5" y="-130.5" font-family="Helvetica,sans-Serif" font-size="10.00">/AliceO2Group/AliceO2</text>
<text text-anchor="start" x="1143.5" y="-119.5" font-family="Helvetica,sans-Serif" font-size="10.00">/Detectors/ITSMFT/MFT</text>
<text text-anchor="start" x="1143.5" y="-108.5" font-family="Helvetica,sans-Serif" font-size="10.00">/reconstruction/include</text>
<text text-anchor="middle" x="1225" y="-97.5" font-family="Helvetica,sans-Serif" font-size="10.00">/MFTReconstruction/ClustererTask.h</text>
</a>
</g>
</g>
<!-- Node8&#45;&gt;Node14 -->
<g id="edge13" class="edge"><title>Node8&#45;&gt;Node14</title>
<path fill="none" stroke="midnightblue" d="M1022.88,-192.989C1025.61,-191.975 1028.33,-190.977 1031,-190 1064.97,-177.591 1102.5,-164.49 1135.43,-153.196"/>
<polygon fill="midnightblue" stroke="midnightblue" points="1021.65,-189.712 1013.5,-196.485 1024.09,-196.27 1021.65,-189.712"/>
</g>
<!-- Node17 -->
<g id="node17" class="node"><title>Node17</title>
<g id="a_node17"><a xlink:href="../../d7/d8c/run__clus__mftSA_8C.html" target="_top" xlink:title="/home/travis/build\l/AliceO2Group/AliceO2\l/macro/run_clus_mftSA.C">
<polygon fill="none" stroke="black" points="1399,-6.5 1399,-47.5 1529,-47.5 1529,-6.5 1399,-6.5"/>
<text text-anchor="start" x="1407" y="-35.5" font-family="Helvetica,sans-Serif" font-size="10.00">/home/travis/build</text>
<text text-anchor="start" x="1407" y="-24.5" font-family="Helvetica,sans-Serif" font-size="10.00">/AliceO2Group/AliceO2</text>
<text text-anchor="middle" x="1464" y="-13.5" font-family="Helvetica,sans-Serif" font-size="10.00">/macro/run_clus_mftSA.C</text>
</a>
</g>
</g>
<!-- Node8&#45;&gt;Node17 -->
<g id="edge18" class="edge"><title>Node8&#45;&gt;Node17</title>
<path fill="none" stroke="midnightblue" d="M1018.58,-193.42C1022.75,-192.175 1026.91,-191.025 1031,-190 1157.85,-158.249 1203.92,-208.031 1323,-154 1377.11,-129.447 1425.19,-76.6269 1448.72,-47.7851"/>
<polygon fill="midnightblue" stroke="midnightblue" points="1017.33,-190.143 1008.84,-196.48 1019.43,-196.822 1017.33,-190.143"/>
</g>
<!-- Node11 -->
<g id="node11" class="node"><title>Node11</title>
<g id="a_node11"><a xlink:href="../../d8/d95/ITSMFT_2ITS_2reconstruction_2src_2ClustererTask_8cxx.html" target="_top" xlink:title="/home/travis/build\l/AliceO2Group/AliceO2\l/Detectors/ITSMFT/ITS\l/reconstruction/src/ClustererTask.cxx">
<polygon fill="none" stroke="black" points="583.5,-1 583.5,-53 764.5,-53 764.5,-1 583.5,-1"/>
<text text-anchor="start" x="591.5" y="-41" font-family="Helvetica,sans-Serif" font-size="10.00">/home/travis/build</text>
<text text-anchor="start" x="591.5" y="-30" font-family="Helvetica,sans-Serif" font-size="10.00">/AliceO2Group/AliceO2</text>
<text text-anchor="start" x="591.5" y="-19" font-family="Helvetica,sans-Serif" font-size="10.00">/Detectors/ITSMFT/ITS</text>
<text text-anchor="middle" x="674" y="-8" font-family="Helvetica,sans-Serif" font-size="10.00">/reconstruction/src/ClustererTask.cxx</text>
</a>
</g>
</g>
<!-- Node10&#45;&gt;Node11 -->
<g id="edge10" class="edge"><title>Node10&#45;&gt;Node11</title>
<path fill="none" stroke="midnightblue" d="M855.117,-88.5896C820.389,-76.9717 781.786,-64.0579 749.172,-53.1475"/>
<polygon fill="midnightblue" stroke="midnightblue" points="854.208,-91.976 864.802,-91.8294 856.429,-85.3376 854.208,-91.976"/>
</g>
<!-- Node12 -->
<g id="node12" class="node"><title>Node12</title>
<g id="a_node12"><a xlink:href="../../d6/da1/run__clus__its_8C.html" target="_top" xlink:title="/home/travis/build\l/AliceO2Group/AliceO2\l/macro/run_clus_its.C">
<polygon fill="none" stroke="black" points="783,-6.5 783,-47.5 901,-47.5 901,-6.5 783,-6.5"/>
<text text-anchor="start" x="791" y="-35.5" font-family="Helvetica,sans-Serif" font-size="10.00">/home/travis/build</text>
<text text-anchor="start" x="791" y="-24.5" font-family="Helvetica,sans-Serif" font-size="10.00">/AliceO2Group/AliceO2</text>
<text text-anchor="middle" x="842" y="-13.5" font-family="Helvetica,sans-Serif" font-size="10.00">/macro/run_clus_its.C</text>
</a>
</g>
</g>
<!-- Node10&#45;&gt;Node12 -->
<g id="edge11" class="edge"><title>Node10&#45;&gt;Node12</title>
<path fill="none" stroke="midnightblue" d="M907.712,-83.5564C893.132,-71.2296 877.507,-58.0196 865.153,-47.5747"/>
<polygon fill="midnightblue" stroke="midnightblue" points="905.781,-86.507 915.677,-90.2906 910.3,-81.1615 905.781,-86.507"/>
</g>
<!-- Node10&#45;&gt;Node13 -->
<g id="edge12" class="edge"><title>Node10&#45;&gt;Node13</title>
<path fill="none" stroke="midnightblue" d="M965.078,-80.4584C968.759,-69.0472 972.597,-57.1492 975.686,-47.5747"/>
<polygon fill="midnightblue" stroke="midnightblue" points="961.645,-79.699 961.906,-90.2906 968.307,-81.848 961.645,-79.699"/>
</g>
<!-- Node15 -->
<g id="node15" class="node"><title>Node15</title>
<g id="a_node15"><a xlink:href="../../d9/d5e/ITSMFT_2MFT_2reconstruction_2src_2ClustererTask_8cxx.html" target="_top" xlink:title="/home/travis/build\l/AliceO2Group/AliceO2\l/Detectors/ITSMFT/MFT\l/reconstruction/src/ClustererTask.cxx">
<polygon fill="none" stroke="black" points="1063.5,-1 1063.5,-53 1244.5,-53 1244.5,-1 1063.5,-1"/>
<text text-anchor="start" x="1071.5" y="-41" font-family="Helvetica,sans-Serif" font-size="10.00">/home/travis/build</text>
<text text-anchor="start" x="1071.5" y="-30" font-family="Helvetica,sans-Serif" font-size="10.00">/AliceO2Group/AliceO2</text>
<text text-anchor="start" x="1071.5" y="-19" font-family="Helvetica,sans-Serif" font-size="10.00">/Detectors/ITSMFT/MFT</text>
<text text-anchor="middle" x="1154" y="-8" font-family="Helvetica,sans-Serif" font-size="10.00">/reconstruction/src/ClustererTask.cxx</text>
</a>
</g>
</g>
<!-- Node14&#45;&gt;Node15 -->
<g id="edge14" class="edge"><title>Node14&#45;&gt;Node15</title>
<path fill="none" stroke="midnightblue" d="M1195.37,-82.1833C1187.86,-72.3522 1180,-62.0498 1173.16,-53.1001"/>
<polygon fill="midnightblue" stroke="midnightblue" points="1192.71,-84.466 1201.56,-90.2906 1198.27,-80.2183 1192.71,-84.466"/>
</g>
<!-- Node16 -->
<g id="node16" class="node"><title>Node16</title>
<g id="a_node16"><a xlink:href="../../d4/dfd/run__clus__mft_8C.html" target="_top" xlink:title="/home/travis/build\l/AliceO2Group/AliceO2\l/macro/run_clus_mft.C">
<polygon fill="none" stroke="black" points="1263,-6.5 1263,-47.5 1381,-47.5 1381,-6.5 1263,-6.5"/>
<text text-anchor="start" x="1271" y="-35.5" font-family="Helvetica,sans-Serif" font-size="10.00">/home/travis/build</text>
<text text-anchor="start" x="1271" y="-24.5" font-family="Helvetica,sans-Serif" font-size="10.00">/AliceO2Group/AliceO2</text>
<text text-anchor="middle" x="1322" y="-13.5" font-family="Helvetica,sans-Serif" font-size="10.00">/macro/run_clus_mft.C</text>
</a>
</g>
</g>
<!-- Node14&#45;&gt;Node16 -->
<g id="edge15" class="edge"><title>Node14&#45;&gt;Node16</title>
<path fill="none" stroke="midnightblue" d="M1264.41,-83.2138C1277.17,-70.9852 1290.79,-57.9229 1301.58,-47.5747"/>
<polygon fill="midnightblue" stroke="midnightblue" points="1261.83,-80.8435 1257.03,-90.2906 1266.67,-85.8963 1261.83,-80.8435"/>
</g>
<!-- Node14&#45;&gt;Node17 -->
<g id="edge16" class="edge"><title>Node14&#45;&gt;Node17</title>
<path fill="none" stroke="midnightblue" d="M1313.04,-86.7437C1346.9,-73.5647 1384.4,-58.9729 1413.55,-47.6292"/>
<polygon fill="midnightblue" stroke="midnightblue" points="1311.64,-83.5313 1303.59,-90.4195 1314.18,-90.0549 1311.64,-83.5313"/>
</g>
</g>
</svg>
