<?xml version="1.0" encoding="UTF-8" standalone="no"?>
<!DOCTYPE svg PUBLIC "-//W3C//DTD SVG 1.1//EN"
 "http://www.w3.org/Graphics/SVG/1.1/DTD/svg11.dtd">
<!-- Generated by graphviz version 2.36.0 (20140111.2315)
 -->
<!-- Title: /home/travis/build/AliceO2Group/AliceO2/Detectors/PHOS/reconstruction/include/PHOSReconstruction/Cluster.h Pages: 1 -->
<svg width="1665pt" height="456pt"
 viewBox="0.00 0.00 1665.00 456.00" xmlns="http://www.w3.org/2000/svg" xmlns:xlink="http://www.w3.org/1999/xlink">
<g id="graph0" class="graph" transform="scale(1 1) rotate(0) translate(4 452)">
<title>/home/travis/build/AliceO2Group/AliceO2/Detectors/PHOS/reconstruction/include/PHOSReconstruction/Cluster.h</title>
<!-- Node1 -->
<g id="node1" class="node"><title>Node1</title>
<polygon fill="#bfbfbf" stroke="black" points="1478,-384.5 1478,-447.5 1636,-447.5 1636,-384.5 1478,-384.5"/>
<text text-anchor="start" x="1486" y="-435.5" font-family="Helvetica,sans-Serif" font-size="10.00">/home/travis/build</text>
<text text-anchor="start" x="1486" y="-424.5" font-family="Helvetica,sans-Serif" font-size="10.00">/AliceO2Group/AliceO2</text>
<text text-anchor="start" x="1486" y="-413.5" font-family="Helvetica,sans-Serif" font-size="10.00">/Detectors/PHOS/reconstruction</text>
<text text-anchor="start" x="1486" y="-402.5" font-family="Helvetica,sans-Serif" font-size="10.00">/include/PHOSReconstruction</text>
<text text-anchor="middle" x="1557" y="-391.5" font-family="Helvetica,sans-Serif" font-size="10.00">/Cluster.h</text>
</g>
<!-- Node2 -->
<g id="node2" class="node"><title>Node2</title>
<g id="a_node2"><a xlink:href="../../d8/de9/PHOS_2base_2include_2PHOSBase_2Digit_8h.html" target="_top" xlink:title="PHOSBase/Digit.h">
<polygon fill="none" stroke="black" points="1467.5,-328.5 1467.5,-347.5 1566.5,-347.5 1566.5,-328.5 1467.5,-328.5"/>
<text text-anchor="middle" x="1517" y="-335.5" font-family="Helvetica,sans-Serif" font-size="10.00">PHOSBase/Digit.h</text>
</a>
</g>
</g>
<!-- Node1&#45;&gt;Node2 -->
<g id="edge1" class="edge"><title>Node1&#45;&gt;Node2</title>
<path fill="none" stroke="midnightblue" d="M1540.73,-384.088C1535.81,-374.739 1530.58,-364.796 1526.28,-356.633"/>
<polygon fill="midnightblue" stroke="midnightblue" points="1529.34,-354.937 1521.59,-347.718 1523.15,-358.197 1529.34,-354.937"/>
</g>
<!-- Node5 -->
<g id="node5" class="node"><title>Node5</title>
<g id="a_node5"><a xlink:href="../../d7/dcd/MCCompLabel_8h.html" target="_top" xlink:title="SimulationDataFormat\l/MCCompLabel.h">
<polygon fill="none" stroke="black" points="1543,-261 1543,-291 1657,-291 1657,-261 1543,-261"/>
<text text-anchor="start" x="1551" y="-279" font-family="Helvetica,sans-Serif" font-size="10.00">SimulationDataFormat</text>
<text text-anchor="middle" x="1600" y="-268" font-family="Helvetica,sans-Serif" font-size="10.00">/MCCompLabel.h</text>
</a>
</g>
</g>
<!-- Node1&#45;&gt;Node5 -->
<g id="edge27" class="edge"><title>Node1&#45;&gt;Node5</title>
<path fill="none" stroke="midnightblue" d="M1566.54,-384.373C1574.4,-359.171 1585.37,-323.953 1592.58,-300.822"/>
<polygon fill="midnightblue" stroke="midnightblue" points="1595.97,-301.712 1595.6,-291.124 1589.28,-299.63 1595.97,-301.712"/>
</g>
<!-- Node3 -->
<g id="node3" class="node"><title>Node3</title>
<g id="a_node3"><a xlink:href="../../df/d5d/common_2include_2CommonDataFormat_2TimeStamp_8h.html" target="_top" xlink:title="CommonDataFormat/TimeStamp.h">
<polygon fill="none" stroke="black" points="1430,-198.5 1430,-217.5 1600,-217.5 1600,-198.5 1430,-198.5"/>
<text text-anchor="middle" x="1515" y="-205.5" font-family="Helvetica,sans-Serif" font-size="10.00">CommonDataFormat/TimeStamp.h</text>
</a>
</g>
</g>
<!-- Node2&#45;&gt;Node3 -->
<g id="edge2" class="edge"><title>Node2&#45;&gt;Node3</title>
<path fill="none" stroke="midnightblue" d="M1516.86,-328.202C1516.54,-307.551 1515.73,-255.606 1515.29,-227.594"/>
<polygon fill="midnightblue" stroke="midnightblue" points="1518.79,-227.466 1515.13,-217.522 1511.79,-227.576 1518.79,-227.466"/>
</g>
<!-- Node2&#45;&gt;Node5 -->
<g id="edge4" class="edge"><title>Node2&#45;&gt;Node5</title>
<path fill="none" stroke="midnightblue" d="M1528.89,-328.403C1540.13,-320.277 1557.42,-307.779 1572.14,-297.142"/>
<polygon fill="midnightblue" stroke="midnightblue" points="1574.38,-299.836 1580.44,-291.141 1570.28,-294.163 1574.38,-299.836"/>
</g>
<!-- Node6 -->
<g id="node6" class="node"><title>Node6</title>
<g id="a_node6"><a xlink:href="../../d1/def/PHOS_2base_2include_2PHOSBase_2Hit_8h.html" target="_top" xlink:title="PHOSBase/Hit.h">
<polygon fill="none" stroke="black" points="944,-266.5 944,-285.5 1036,-285.5 1036,-266.5 944,-266.5"/>
<text text-anchor="middle" x="990" y="-273.5" font-family="Helvetica,sans-Serif" font-size="10.00">PHOSBase/Hit.h</text>
</a>
</g>
</g>
<!-- Node2&#45;&gt;Node6 -->
<g id="edge6" class="edge"><title>Node2&#45;&gt;Node6</title>
<path fill="none" stroke="midnightblue" d="M1467.42,-331.355C1368.98,-320.147 1149.44,-295.153 1045.98,-283.374"/>
<polygon fill="midnightblue" stroke="midnightblue" points="1046.37,-279.896 1036.04,-282.242 1045.58,-286.851 1046.37,-279.896"/>
</g>
<!-- Node4 -->
<g id="node4" class="node"><title>Node4</title>
<polygon fill="none" stroke="#bfbfbf" points="1600,-74.5 1600,-93.5 1656,-93.5 1656,-74.5 1600,-74.5"/>
<text text-anchor="middle" x="1628" y="-81.5" font-family="Helvetica,sans-Serif" font-size="10.00">Rtypes.h</text>
</g>
<!-- Node3&#45;&gt;Node4 -->
<g id="edge3" class="edge"><title>Node3&#45;&gt;Node4</title>
<path fill="none" stroke="midnightblue" d="M1523.13,-198.226C1541.94,-177.914 1588.72,-127.404 1612.94,-101.258"/>
<polygon fill="midnightblue" stroke="midnightblue" points="1615.72,-103.409 1619.95,-93.6944 1610.58,-98.6526 1615.72,-103.409"/>
</g>
<!-- Node5&#45;&gt;Node4 -->
<g id="edge5" class="edge"><title>Node5&#45;&gt;Node4</title>
<path fill="none" stroke="midnightblue" d="M1602.67,-260.736C1604.54,-250.523 1607.05,-236.436 1609,-224 1615.69,-181.239 1622.25,-130.866 1625.63,-104.054"/>
<polygon fill="midnightblue" stroke="midnightblue" points="1629.15,-104.157 1626.92,-93.7992 1622.2,-103.287 1629.15,-104.157"/>
</g>
<!-- Node7 -->
<g id="node7" class="node"><title>Node7</title>
<g id="a_node7"><a xlink:href="../../d4/d25/BaseHits_8h.html" target="_top" xlink:title="SimulationDataFormat\l/BaseHits.h">
<polygon fill="none" stroke="black" points="933,-193 933,-223 1047,-223 1047,-193 933,-193"/>
<text text-anchor="start" x="941" y="-211" font-family="Helvetica,sans-Serif" font-size="10.00">SimulationDataFormat</text>
<text text-anchor="middle" x="990" y="-200" font-family="Helvetica,sans-Serif" font-size="10.00">/BaseHits.h</text>
</a>
</g>
</g>
<!-- Node6&#45;&gt;Node7 -->
<g id="edge7" class="edge"><title>Node6&#45;&gt;Node7</title>
<path fill="none" stroke="midnightblue" d="M990,-266.372C990,-257.971 990,-244.811 990,-233.213"/>
<polygon fill="midnightblue" stroke="midnightblue" points="993.5,-233.181 990,-223.181 986.5,-233.181 993.5,-233.181"/>
</g>
<!-- Node19 -->
<g id="node19" class="node"><title>Node19</title>
<g id="a_node19"><a xlink:href="../../d0/d91/ShmAllocator_8h.html" target="_top" xlink:title="CommonUtils/ShmAllocator.h">
<polygon fill="none" stroke="black" points="500,-198.5 500,-217.5 646,-217.5 646,-198.5 500,-198.5"/>
<text text-anchor="middle" x="573" y="-205.5" font-family="Helvetica,sans-Serif" font-size="10.00">CommonUtils/ShmAllocator.h</text>
</a>
</g>
</g>
<!-- Node6&#45;&gt;Node19 -->
<g id="edge20" class="edge"><title>Node6&#45;&gt;Node19</title>
<path fill="none" stroke="midnightblue" d="M943.78,-267.685C869.099,-255.865 721.723,-232.539 636.996,-219.129"/>
<polygon fill="midnightblue" stroke="midnightblue" points="637.407,-215.65 626.983,-217.544 636.313,-222.564 637.407,-215.65"/>
</g>
<!-- Node8 -->
<g id="node8" class="node"><title>Node8</title>
<g id="a_node8"><a xlink:href="../../dd/d76/Cartesian3D_8h.html" target="_top" xlink:title="MathUtils/Cartesian3D.h">
<polygon fill="none" stroke="black" points="927.5,-136.5 927.5,-155.5 1052.5,-155.5 1052.5,-136.5 927.5,-136.5"/>
<text text-anchor="middle" x="990" y="-143.5" font-family="Helvetica,sans-Serif" font-size="10.00">MathUtils/Cartesian3D.h</text>
</a>
</g>
</g>
<!-- Node7&#45;&gt;Node8 -->
<g id="edge8" class="edge"><title>Node7&#45;&gt;Node8</title>
<path fill="none" stroke="midnightblue" d="M990,-192.781C990,-184.781 990,-174.689 990,-166.017"/>
<polygon fill="midnightblue" stroke="midnightblue" points="993.5,-165.73 990,-155.731 986.5,-165.731 993.5,-165.73"/>
</g>
<!-- Node8&#45;&gt;Node4 -->
<g id="edge14" class="edge"><title>Node8&#45;&gt;Node4</title>
<path fill="none" stroke="midnightblue" d="M1052.54,-142.772C1185.01,-137.653 1490.01,-123.64 1591,-100 1594.07,-99.2807 1597.22,-98.3427 1600.33,-97.2867"/>
<polygon fill="midnightblue" stroke="midnightblue" points="1601.82,-100.462 1609.92,-93.6339 1599.33,-93.9199 1601.82,-100.462"/>
</g>
<!-- Node9 -->
<g id="node9" class="node"><title>Node9</title>
<polygon fill="none" stroke="#bfbfbf" points="1070.5,-69 1070.5,-99 1221.5,-99 1221.5,-69 1070.5,-69"/>
<text text-anchor="start" x="1078.5" y="-87" font-family="Helvetica,sans-Serif" font-size="10.00">Math/GenVector/Displacement</text>
<text text-anchor="middle" x="1146" y="-76" font-family="Helvetica,sans-Serif" font-size="10.00">Vector3D.h</text>
</g>
<!-- Node8&#45;&gt;Node9 -->
<g id="edge9" class="edge"><title>Node8&#45;&gt;Node9</title>
<path fill="none" stroke="midnightblue" d="M1012.35,-136.403C1035.13,-127.641 1071.14,-113.794 1100.03,-102.679"/>
<polygon fill="midnightblue" stroke="midnightblue" points="1101.46,-105.882 1109.53,-99.0253 1098.94,-99.3485 1101.46,-105.882"/>
</g>
<!-- Node10 -->
<g id="node10" class="node"><title>Node10</title>
<polygon fill="none" stroke="#bfbfbf" points="1240,-74.5 1240,-93.5 1416,-93.5 1416,-74.5 1240,-74.5"/>
<text text-anchor="middle" x="1328" y="-81.5" font-family="Helvetica,sans-Serif" font-size="10.00">Math/GenVector/PositionVector3D.h</text>
</g>
<!-- Node8&#45;&gt;Node10 -->
<g id="edge10" class="edge"><title>Node8&#45;&gt;Node10</title>
<path fill="none" stroke="midnightblue" d="M1038.07,-136.467C1099.14,-125.626 1204.45,-106.932 1269.94,-95.3062"/>
<polygon fill="midnightblue" stroke="midnightblue" points="1270.86,-98.6974 1280.1,-93.5034 1269.64,-91.8052 1270.86,-98.6974"/>
</g>
<!-- Node11 -->
<g id="node11" class="node"><title>Node11</title>
<polygon fill="none" stroke="#bfbfbf" points="1433.5,-74.5 1433.5,-93.5 1582.5,-93.5 1582.5,-74.5 1433.5,-74.5"/>
<text text-anchor="middle" x="1508" y="-81.5" font-family="Helvetica,sans-Serif" font-size="10.00">Math/GenVector/Rotation3D.h</text>
</g>
<!-- Node8&#45;&gt;Node11 -->
<g id="edge11" class="edge"><title>Node8&#45;&gt;Node11</title>
<path fill="none" stroke="midnightblue" d="M1052.7,-139.953C1137.24,-132.817 1292.36,-118.553 1424,-100 1433.58,-98.6497 1443.74,-97.0121 1453.56,-95.3216"/>
<polygon fill="midnightblue" stroke="midnightblue" points="1454.39,-98.7297 1463.63,-93.5507 1453.18,-91.8355 1454.39,-98.7297"/>
</g>
<!-- Node12 -->
<g id="node12" class="node"><title>Node12</title>
<polygon fill="none" stroke="#bfbfbf" points="418,-74.5 418,-93.5 574,-93.5 574,-74.5 418,-74.5"/>
<text text-anchor="middle" x="496" y="-81.5" font-family="Helvetica,sans-Serif" font-size="10.00">Math/GenVector/Transform3D.h</text>
</g>
<!-- Node8&#45;&gt;Node12 -->
<g id="edge12" class="edge"><title>Node8&#45;&gt;Node12</title>
<path fill="none" stroke="midnightblue" d="M927.449,-139.272C847.419,-131.671 704.6,-117.189 583,-100 573.098,-98.6002 562.591,-96.9395 552.432,-95.2419"/>
<polygon fill="midnightblue" stroke="midnightblue" points="552.869,-91.766 542.423,-93.5401 551.695,-98.6669 552.869,-91.766"/>
</g>
<!-- Node13 -->
<g id="node13" class="node"><title>Node13</title>
<polygon fill="none" stroke="#bfbfbf" points="592,-74.5 592,-93.5 752,-93.5 752,-74.5 592,-74.5"/>
<text text-anchor="middle" x="672" y="-81.5" font-family="Helvetica,sans-Serif" font-size="10.00">Math/GenVector/Translation3D.h</text>
</g>
<!-- Node8&#45;&gt;Node13 -->
<g id="edge13" class="edge"><title>Node8&#45;&gt;Node13</title>
<path fill="none" stroke="midnightblue" d="M944.776,-136.467C887.438,-125.649 788.646,-107.009 727.004,-95.3781"/>
<polygon fill="midnightblue" stroke="midnightblue" points="727.544,-91.9182 717.068,-93.5034 726.246,-98.7969 727.544,-91.9182"/>
</g>
<!-- Node14 -->
<g id="node14" class="node"><title>Node14</title>
<polygon fill="none" stroke="#bfbfbf" points="770,-74.5 770,-93.5 846,-93.5 846,-74.5 770,-74.5"/>
<text text-anchor="middle" x="808" y="-81.5" font-family="Helvetica,sans-Serif" font-size="10.00">TGeoMatrix.h</text>
</g>
<!-- Node8&#45;&gt;Node14 -->
<g id="edge15" class="edge"><title>Node8&#45;&gt;Node14</title>
<path fill="none" stroke="midnightblue" d="M963.924,-136.403C932.434,-126.022 879.302,-108.506 843.942,-96.849"/>
<polygon fill="midnightblue" stroke="midnightblue" points="844.621,-93.3876 834.028,-93.5806 842.429,-100.036 844.621,-93.3876"/>
</g>
<!-- Node15 -->
<g id="node15" class="node"><title>Node15</title>
<polygon fill="none" stroke="#bfbfbf" points="864.5,-74.5 864.5,-93.5 909.5,-93.5 909.5,-74.5 864.5,-74.5"/>
<text text-anchor="middle" x="887" y="-81.5" font-family="Helvetica,sans-Serif" font-size="10.00">iosfwd</text>
</g>
<!-- Node8&#45;&gt;Node15 -->
<g id="edge16" class="edge"><title>Node8&#45;&gt;Node15</title>
<path fill="none" stroke="midnightblue" d="M975.243,-136.403C958.339,-126.557 930.417,-110.291 910.51,-98.6949"/>
<polygon fill="midnightblue" stroke="midnightblue" points="912.133,-95.5898 901.73,-93.5806 908.609,-101.638 912.133,-95.5898"/>
</g>
<!-- Node16 -->
<g id="node16" class="node"><title>Node16</title>
<g id="a_node16"><a xlink:href="../../d2/dd0/Cartesian2D_8h.html" target="_top" xlink:title="MathUtils/Cartesian2D.h">
<polygon fill="none" stroke="black" points="927.5,-74.5 927.5,-93.5 1052.5,-93.5 1052.5,-74.5 927.5,-74.5"/>
<text text-anchor="middle" x="990" y="-81.5" font-family="Helvetica,sans-Serif" font-size="10.00">MathUtils/Cartesian2D.h</text>
</a>
</g>
</g>
<!-- Node8&#45;&gt;Node16 -->
<g id="edge17" class="edge"><title>Node8&#45;&gt;Node16</title>
<path fill="none" stroke="midnightblue" d="M990,-136.403C990,-127.938 990,-114.728 990,-103.82"/>
<polygon fill="midnightblue" stroke="midnightblue" points="993.5,-103.581 990,-93.5806 986.5,-103.581 993.5,-103.581"/>
</g>
<!-- Node17 -->
<g id="node17" class="node"><title>Node17</title>
<polygon fill="none" stroke="#bfbfbf" points="823.5,-1 823.5,-31 974.5,-31 974.5,-1 823.5,-1"/>
<text text-anchor="start" x="831.5" y="-19" font-family="Helvetica,sans-Serif" font-size="10.00">Math/GenVector/Displacement</text>
<text text-anchor="middle" x="899" y="-8" font-family="Helvetica,sans-Serif" font-size="10.00">Vector2D.h</text>
</g>
<!-- Node16&#45;&gt;Node17 -->
<g id="edge18" class="edge"><title>Node16&#45;&gt;Node17</title>
<path fill="none" stroke="midnightblue" d="M978.103,-74.3717C965.221,-65.0286 944.22,-49.7966 927.093,-37.375"/>
<polygon fill="midnightblue" stroke="midnightblue" points="928.703,-34.2194 918.553,-31.1815 924.593,-39.8859 928.703,-34.2194"/>
</g>
<!-- Node18 -->
<g id="node18" class="node"><title>Node18</title>
<polygon fill="none" stroke="#bfbfbf" points="993,-6.5 993,-25.5 1169,-25.5 1169,-6.5 993,-6.5"/>
<text text-anchor="middle" x="1081" y="-13.5" font-family="Helvetica,sans-Serif" font-size="10.00">Math/GenVector/PositionVector2D.h</text>
</g>
<!-- Node16&#45;&gt;Node18 -->
<g id="edge19" class="edge"><title>Node16&#45;&gt;Node18</title>
<path fill="none" stroke="midnightblue" d="M1001.9,-74.3717C1016.88,-63.5015 1042.86,-44.6602 1060.94,-31.5474"/>
<polygon fill="midnightblue" stroke="midnightblue" points="1063.06,-34.3349 1069.1,-25.6305 1058.95,-28.6684 1063.06,-34.3349"/>
</g>
<!-- Node20 -->
<g id="node20" class="node"><title>Node20</title>
<g id="a_node20"><a xlink:href="../../de/d61/ShmManager_8h.html" target="_top" xlink:title="CommonUtils/ShmManager.h">
<polygon fill="none" stroke="black" points="115,-136.5 115,-155.5 261,-155.5 261,-136.5 115,-136.5"/>
<text text-anchor="middle" x="188" y="-143.5" font-family="Helvetica,sans-Serif" font-size="10.00">CommonUtils/ShmManager.h</text>
</a>
</g>
</g>
<!-- Node19&#45;&gt;Node20 -->
<g id="edge21" class="edge"><title>Node19&#45;&gt;Node20</title>
<path fill="none" stroke="midnightblue" d="M518.248,-198.467C448.257,-187.559 327.246,-168.701 252.755,-157.092"/>
<polygon fill="midnightblue" stroke="midnightblue" points="252.983,-153.585 242.563,-155.503 251.905,-160.502 252.983,-153.585"/>
</g>
<!-- Node25 -->
<g id="node25" class="node"><title>Node25</title>
<polygon fill="none" stroke="#bfbfbf" points="548.5,-136.5 548.5,-155.5 597.5,-155.5 597.5,-136.5 548.5,-136.5"/>
<text text-anchor="middle" x="573" y="-143.5" font-family="Helvetica,sans-Serif" font-size="10.00">cassert</text>
</g>
<!-- Node19&#45;&gt;Node25 -->
<g id="edge26" class="edge"><title>Node19&#45;&gt;Node25</title>
<path fill="none" stroke="midnightblue" d="M573,-198.403C573,-189.938 573,-176.728 573,-165.82"/>
<polygon fill="midnightblue" stroke="midnightblue" points="576.5,-165.581 573,-155.581 569.5,-165.581 576.5,-165.581"/>
</g>
<!-- Node21 -->
<g id="node21" class="node"><title>Node21</title>
<polygon fill="none" stroke="#bfbfbf" points="-0.5,-74.5 -0.5,-93.5 28.5,-93.5 28.5,-74.5 -0.5,-74.5"/>
<text text-anchor="middle" x="14" y="-81.5" font-family="Helvetica,sans-Serif" font-size="10.00">list</text>
</g>
<!-- Node20&#45;&gt;Node21 -->
<g id="edge22" class="edge"><title>Node20&#45;&gt;Node21</title>
<path fill="none" stroke="midnightblue" d="M148.073,-136.436C116.955,-128.977 73.115,-116.728 37,-100 36.1673,-99.6143 35.3298,-99.2018 34.4929,-98.7687"/>
<polygon fill="midnightblue" stroke="midnightblue" points="36.1856,-95.7035 25.797,-93.6232 32.6209,-101.728 36.1856,-95.7035"/>
</g>
<!-- Node22 -->
<g id="node22" class="node"><title>Node22</title>
<polygon fill="none" stroke="#bfbfbf" points="46.5,-74.5 46.5,-93.5 95.5,-93.5 95.5,-74.5 46.5,-74.5"/>
<text text-anchor="middle" x="71" y="-81.5" font-family="Helvetica,sans-Serif" font-size="10.00">cstddef</text>
</g>
<!-- Node20&#45;&gt;Node22 -->
<g id="edge23" class="edge"><title>Node20&#45;&gt;Node22</title>
<path fill="none" stroke="midnightblue" d="M171.237,-136.403C151.775,-126.423 119.455,-109.849 96.7893,-98.2253"/>
<polygon fill="midnightblue" stroke="midnightblue" points="98.2275,-95.0294 87.7322,-93.5806 95.0332,-101.258 98.2275,-95.0294"/>
</g>
<!-- Node23 -->
<g id="node23" class="node"><title>Node23</title>
<polygon fill="none" stroke="#bfbfbf" points="114,-69 114,-99 262,-99 262,-69 114,-69"/>
<text text-anchor="start" x="122" y="-87" font-family="Helvetica,sans-Serif" font-size="10.00">boost/interprocess</text>
<text text-anchor="middle" x="188" y="-76" font-family="Helvetica,sans-Serif" font-size="10.00">/managed_external_buffer.hpp</text>
</g>
<!-- Node20&#45;&gt;Node23 -->
<g id="edge24" class="edge"><title>Node20&#45;&gt;Node23</title>
<path fill="none" stroke="midnightblue" d="M188,-136.403C188,-129.341 188,-118.975 188,-109.399"/>
<polygon fill="midnightblue" stroke="midnightblue" points="191.5,-109.141 188,-99.1408 184.5,-109.141 191.5,-109.141"/>
</g>
<!-- Node24 -->
<g id="node24" class="node"><title>Node24</title>
<polygon fill="none" stroke="#bfbfbf" points="280,-69 280,-99 400,-99 400,-69 280,-69"/>
<text text-anchor="start" x="288" y="-87" font-family="Helvetica,sans-Serif" font-size="10.00">boost/interprocess</text>
<text text-anchor="middle" x="340" y="-76" font-family="Helvetica,sans-Serif" font-size="10.00">/allocators/allocator.hpp</text>
</g>
<!-- Node20&#45;&gt;Node24 -->
<g id="edge25" class="edge"><title>Node20&#45;&gt;Node24</title>
<path fill="none" stroke="midnightblue" d="M209.778,-136.403C231.881,-127.679 266.75,-113.914 294.846,-102.824"/>
<polygon fill="midnightblue" stroke="midnightblue" points="296.453,-105.953 304.469,-99.0253 293.883,-99.4415 296.453,-105.953"/>
</g>
</g>
</svg>
