<?xml version="1.0" encoding="UTF-8" standalone="no"?>
<!DOCTYPE svg PUBLIC "-//W3C//DTD SVG 1.1//EN"
 "http://www.w3.org/Graphics/SVG/1.1/DTD/svg11.dtd">
<!-- Generated by graphviz version 2.36.0 (20140111.2315)
 -->
<!-- Title: /home/travis/build/AliceO2Group/AliceO2/Detectors/ITSMFT/ITS/tracking/include/ITStracking/PrimaryVertexContext.h Pages: 1 -->
<svg width="1079pt" height="408pt"
 viewBox="0.00 0.00 1079.00 408.00" xmlns="http://www.w3.org/2000/svg" xmlns:xlink="http://www.w3.org/1999/xlink">
<g id="graph0" class="graph" transform="scale(1 1) rotate(0) translate(4 404)">
<title>/home/travis/build/AliceO2Group/AliceO2/Detectors/ITSMFT/ITS/tracking/include/ITStracking/PrimaryVertexContext.h</title>
<!-- Node1 -->
<g id="node1" class="node"><title>Node1</title>
<polygon fill="#bfbfbf" stroke="black" points="458.5,-336.5 458.5,-399.5 599.5,-399.5 599.5,-336.5 458.5,-336.5"/>
<text text-anchor="start" x="466.5" y="-387.5" font-family="Helvetica,sans-Serif" font-size="10.00">/home/travis/build</text>
<text text-anchor="start" x="466.5" y="-376.5" font-family="Helvetica,sans-Serif" font-size="10.00">/AliceO2Group/AliceO2</text>
<text text-anchor="start" x="466.5" y="-365.5" font-family="Helvetica,sans-Serif" font-size="10.00">/Detectors/ITSMFT/ITS</text>
<text text-anchor="start" x="466.5" y="-354.5" font-family="Helvetica,sans-Serif" font-size="10.00">/tracking/include/ITStracking</text>
<text text-anchor="middle" x="529" y="-343.5" font-family="Helvetica,sans-Serif" font-size="10.00">/PrimaryVertexContext.h</text>
</g>
<!-- Node2 -->
<g id="node2" class="node"><title>Node2</title>
<polygon fill="none" stroke="#bfbfbf" points="0,-280.5 0,-299.5 56,-299.5 56,-280.5 0,-280.5"/>
<text text-anchor="middle" x="28" y="-287.5" font-family="Helvetica,sans-Serif" font-size="10.00">algorithm</text>
</g>
<!-- Node1&#45;&gt;Node2 -->
<g id="edge1" class="edge"><title>Node1&#45;&gt;Node2</title>
<path fill="none" stroke="midnightblue" d="M458.388,-358.168C368.063,-346.532 206.92,-324.635 70,-300 68.7615,-299.777 67.5038,-299.545 66.2347,-299.305"/>
<polygon fill="midnightblue" stroke="midnightblue" points="66.9063,-295.87 56.4161,-297.355 65.5431,-302.736 66.9063,-295.87"/>
</g>
<!-- Node3 -->
<g id="node3" class="node"><title>Node3</title>
<polygon fill="none" stroke="#bfbfbf" points="318,-0.5 318,-19.5 356,-19.5 356,-0.5 318,-0.5"/>
<text text-anchor="middle" x="337" y="-7.5" font-family="Helvetica,sans-Serif" font-size="10.00">array</text>
</g>
<!-- Node1&#45;&gt;Node3 -->
<g id="edge2" class="edge"><title>Node1&#45;&gt;Node3</title>
<path fill="none" stroke="midnightblue" d="M458.488,-360.779C333.01,-347.745 84,-312.159 84,-235 84,-235 84,-235 84,-121 84,-24.3622 241.16,-11.7248 307.748,-10.7074"/>
<polygon fill="midnightblue" stroke="midnightblue" points="308.01,-14.2057 317.984,-10.6331 307.959,-7.2059 308.01,-14.2057"/>
</g>
<!-- Node4 -->
<g id="node4" class="node"><title>Node4</title>
<polygon fill="none" stroke="#bfbfbf" points="1026.5,-280.5 1026.5,-299.5 1071.5,-299.5 1071.5,-280.5 1026.5,-280.5"/>
<text text-anchor="middle" x="1049" y="-287.5" font-family="Helvetica,sans-Serif" font-size="10.00">iosfwd</text>
</g>
<!-- Node1&#45;&gt;Node4 -->
<g id="edge3" class="edge"><title>Node1&#45;&gt;Node4</title>
<path fill="none" stroke="midnightblue" d="M599.755,-359.448C694.199,-348.851 866.467,-327.721 1012,-300 1013.46,-299.722 1014.95,-299.423 1016.45,-299.109"/>
<polygon fill="midnightblue" stroke="midnightblue" points="1017.39,-302.487 1026.38,-296.884 1015.86,-295.656 1017.39,-302.487"/>
</g>
<!-- Node5 -->
<g id="node5" class="node"><title>Node5</title>
<polygon fill="none" stroke="#bfbfbf" points="664,-56.5 664,-75.5 708,-75.5 708,-56.5 664,-56.5"/>
<text text-anchor="middle" x="686" y="-63.5" font-family="Helvetica,sans-Serif" font-size="10.00">vector</text>
</g>
<!-- Node1&#45;&gt;Node5 -->
<g id="edge4" class="edge"><title>Node1&#45;&gt;Node5</title>
<path fill="none" stroke="midnightblue" d="M593.924,-336.433C648.171,-306.918 721.822,-256.603 755,-188 761.696,-174.154 763.831,-134.5 751,-112 743.176,-98.2805 729.253,-87.8027 716.294,-80.4242"/>
<polygon fill="midnightblue" stroke="midnightblue" points="717.609,-77.1608 707.13,-75.5973 714.347,-83.3543 717.609,-77.1608"/>
</g>
<!-- Node6 -->
<g id="node6" class="node"><title>Node6</title>
<g id="a_node6"><a xlink:href="../../d2/d56/Cell_8h.html" target="_top" xlink:title="ITStracking/Cell.h">
<polygon fill="none" stroke="black" points="798.5,-112.5 798.5,-131.5 893.5,-131.5 893.5,-112.5 798.5,-112.5"/>
<text text-anchor="middle" x="846" y="-119.5" font-family="Helvetica,sans-Serif" font-size="10.00">ITStracking/Cell.h</text>
</a>
</g>
</g>
<!-- Node1&#45;&gt;Node6 -->
<g id="edge5" class="edge"><title>Node1&#45;&gt;Node6</title>
<path fill="none" stroke="midnightblue" d="M599.601,-366.552C657.276,-362.433 737.282,-347.594 788,-300 833.746,-257.071 843.467,-177.556 845.492,-141.561"/>
<polygon fill="midnightblue" stroke="midnightblue" points="848.991,-141.643 845.915,-131.505 841.997,-141.349 848.991,-141.643"/>
</g>
<!-- Node7 -->
<g id="node7" class="node"><title>Node7</title>
<g id="a_node7"><a xlink:href="../../df/d3d/Definitions_8h.html" target="_top" xlink:title="ITStracking/Definitions.h">
<polygon fill="none" stroke="black" points="821.5,-56.5 821.5,-75.5 946.5,-75.5 946.5,-56.5 821.5,-56.5"/>
<text text-anchor="middle" x="884" y="-63.5" font-family="Helvetica,sans-Serif" font-size="10.00">ITStracking/Definitions.h</text>
</a>
</g>
</g>
<!-- Node1&#45;&gt;Node7 -->
<g id="edge20" class="edge"><title>Node1&#45;&gt;Node7</title>
<path fill="none" stroke="midnightblue" d="M599.722,-361.827C730.741,-350.288 998,-316.732 998,-235 998,-235 998,-235 998,-177 998,-130.115 947.448,-96.8944 913.671,-79.9302"/>
<polygon fill="midnightblue" stroke="midnightblue" points="915.172,-76.7687 904.645,-75.5787 912.132,-83.0742 915.172,-76.7687"/>
</g>
<!-- Node9 -->
<g id="node9" class="node"><title>Node9</title>
<g id="a_node9"><a xlink:href="../../d3/d59/Configuration_8h.html" target="_top" xlink:title="ITStracking/Configuration.h">
<polygon fill="none" stroke="black" points="270,-168.5 270,-187.5 406,-187.5 406,-168.5 270,-168.5"/>
<text text-anchor="middle" x="338" y="-175.5" font-family="Helvetica,sans-Serif" font-size="10.00">ITStracking/Configuration.h</text>
</a>
</g>
</g>
<!-- Node1&#45;&gt;Node9 -->
<g id="edge11" class="edge"><title>Node1&#45;&gt;Node9</title>
<path fill="none" stroke="midnightblue" d="M470.055,-336.492C453.169,-326.206 435.441,-313.792 421,-300 387.97,-268.454 360.493,-221.742 346.993,-196.582"/>
<polygon fill="midnightblue" stroke="midnightblue" points="349.976,-194.735 342.231,-187.506 343.778,-197.988 349.976,-194.735"/>
</g>
<!-- Node11 -->
<g id="node11" class="node"><title>Node11</title>
<g id="a_node11"><a xlink:href="../../d0/d86/Detectors_2ITSMFT_2ITS_2tracking_2include_2ITStracking_2Constants_8h.html" target="_top" xlink:title="ITStracking/Constants.h">
<polygon fill="none" stroke="black" points="484.5,-112.5 484.5,-131.5 607.5,-131.5 607.5,-112.5 484.5,-112.5"/>
<text text-anchor="middle" x="546" y="-119.5" font-family="Helvetica,sans-Serif" font-size="10.00">ITStracking/Constants.h</text>
</a>
</g>
</g>
<!-- Node1&#45;&gt;Node11 -->
<g id="edge19" class="edge"><title>Node1&#45;&gt;Node11</title>
<path fill="none" stroke="midnightblue" d="M541.958,-336.197C546.024,-325.007 549.976,-312.131 552,-300 561.51,-243.008 553.825,-174.31 549.065,-141.803"/>
<polygon fill="midnightblue" stroke="midnightblue" points="552.467,-140.901 547.481,-131.553 545.549,-141.97 552.467,-140.901"/>
</g>
<!-- Node12 -->
<g id="node12" class="node"><title>Node12</title>
<g id="a_node12"><a xlink:href="../../db/d48/Road_8h.html" target="_top" xlink:title="ITStracking/Road.h">
<polygon fill="none" stroke="black" points="112.5,-168.5 112.5,-187.5 213.5,-187.5 213.5,-168.5 112.5,-168.5"/>
<text text-anchor="middle" x="163" y="-175.5" font-family="Helvetica,sans-Serif" font-size="10.00">ITStracking/Road.h</text>
</a>
</g>
</g>
<!-- Node1&#45;&gt;Node12 -->
<g id="edge21" class="edge"><title>Node1&#45;&gt;Node12</title>
<path fill="none" stroke="midnightblue" d="M469.381,-336.376C388.384,-294.771 247.027,-222.161 188.995,-192.353"/>
<polygon fill="midnightblue" stroke="midnightblue" points="190.282,-189.079 179.788,-187.623 187.083,-195.306 190.282,-189.079"/>
</g>
<!-- Node13 -->
<g id="node13" class="node"><title>Node13</title>
<g id="a_node13"><a xlink:href="../../da/dc0/Tracklet_8h.html" target="_top" xlink:title="ITStracking/Tracklet.h">
<polygon fill="none" stroke="black" points="430.5,-280.5 430.5,-299.5 543.5,-299.5 543.5,-280.5 430.5,-280.5"/>
<text text-anchor="middle" x="487" y="-287.5" font-family="Helvetica,sans-Serif" font-size="10.00">ITStracking/Tracklet.h</text>
</a>
</g>
</g>
<!-- Node1&#45;&gt;Node13 -->
<g id="edge24" class="edge"><title>Node1&#45;&gt;Node13</title>
<path fill="none" stroke="midnightblue" d="M511.917,-336.088C506.75,-326.739 501.256,-316.796 496.745,-308.633"/>
<polygon fill="midnightblue" stroke="midnightblue" points="499.718,-306.778 491.818,-299.718 493.591,-310.164 499.718,-306.778"/>
</g>
<!-- Node6&#45;&gt;Node3 -->
<g id="edge6" class="edge"><title>Node6&#45;&gt;Node3</title>
<path fill="none" stroke="midnightblue" d="M832.61,-112.329C809.734,-97.9789 761.204,-69.5344 716,-56 589.989,-18.2712 431.507,-11.9965 366.686,-11.0809"/>
<polygon fill="midnightblue" stroke="midnightblue" points="366.438,-7.57813 356.401,-10.9707 366.363,-14.5777 366.438,-7.57813"/>
</g>
<!-- Node6&#45;&gt;Node5 -->
<g id="edge7" class="edge"><title>Node6&#45;&gt;Node5</title>
<path fill="none" stroke="midnightblue" d="M820.648,-112.444C792.781,-103.038 747.968,-87.9142 717.775,-77.7242"/>
<polygon fill="midnightblue" stroke="midnightblue" points="718.736,-74.3546 708.142,-74.473 716.498,-80.9871 718.736,-74.3546"/>
</g>
<!-- Node6&#45;&gt;Node7 -->
<g id="edge8" class="edge"><title>Node6&#45;&gt;Node7</title>
<path fill="none" stroke="midnightblue" d="M852.275,-112.083C857.642,-104.455 865.518,-93.2645 872.079,-83.9408"/>
<polygon fill="midnightblue" stroke="midnightblue" points="874.949,-85.9434 877.842,-75.7511 869.225,-81.9149 874.949,-85.9434"/>
</g>
<!-- Node7&#45;&gt;Node3 -->
<g id="edge9" class="edge"><title>Node7&#45;&gt;Node3</title>
<path fill="none" stroke="midnightblue" d="M821.067,-58.363C813.299,-57.5588 805.468,-56.7552 798,-56 635.145,-39.5303 439.817,-20.8016 366.615,-13.8187"/>
<polygon fill="midnightblue" stroke="midnightblue" points="366.615,-10.303 356.328,-12.8381 365.951,-17.2714 366.615,-10.303"/>
</g>
<!-- Node8 -->
<g id="node8" class="node"><title>Node8</title>
<polygon fill="none" stroke="#bfbfbf" points="817,-0.5 817,-19.5 951,-19.5 951,-0.5 817,-0.5"/>
<text text-anchor="middle" x="884" y="-7.5" font-family="Helvetica,sans-Serif" font-size="10.00">AliTPCCommonDefGPU.h</text>
</g>
<!-- Node7&#45;&gt;Node8 -->
<g id="edge10" class="edge"><title>Node7&#45;&gt;Node8</title>
<path fill="none" stroke="midnightblue" d="M884,-56.083C884,-49.0059 884,-38.8611 884,-29.9865"/>
<polygon fill="midnightblue" stroke="midnightblue" points="887.5,-29.751 884,-19.7511 880.5,-29.7511 887.5,-29.751"/>
</g>
<!-- Node9&#45;&gt;Node3 -->
<g id="edge12" class="edge"><title>Node9&#45;&gt;Node3</title>
<path fill="none" stroke="midnightblue" d="M332.241,-168.418C319.623,-148.508 291.687,-97.6923 305,-56 308.341,-45.538 315.1,-35.4277 321.549,-27.4496"/>
<polygon fill="midnightblue" stroke="midnightblue" points="324.348,-29.5641 328.249,-19.7136 319.056,-24.9815 324.348,-29.5641"/>
</g>
<!-- Node9&#45;&gt;Node5 -->
<g id="edge14" class="edge"><title>Node9&#45;&gt;Node5</title>
<path fill="none" stroke="midnightblue" d="M345.248,-168.132C357.541,-153.758 383.987,-125.614 413,-112 493.756,-74.1069 601.009,-67.51 653.82,-66.7442"/>
<polygon fill="midnightblue" stroke="midnightblue" points="653.963,-70.2433 663.933,-66.6607 653.905,-63.2435 653.963,-70.2433"/>
</g>
<!-- Node10 -->
<g id="node10" class="node"><title>Node10</title>
<polygon fill="none" stroke="#bfbfbf" points="314.5,-56.5 314.5,-75.5 359.5,-75.5 359.5,-56.5 314.5,-56.5"/>
<text text-anchor="middle" x="337" y="-63.5" font-family="Helvetica,sans-Serif" font-size="10.00">climits</text>
</g>
<!-- Node9&#45;&gt;Node10 -->
<g id="edge13" class="edge"><title>Node9&#45;&gt;Node10</title>
<path fill="none" stroke="midnightblue" d="M337.922,-168.368C337.76,-150.617 337.388,-109.666 337.169,-85.5974"/>
<polygon fill="midnightblue" stroke="midnightblue" points="340.669,-85.5592 337.078,-75.5914 333.669,-85.6229 340.669,-85.5592"/>
</g>
<!-- Node9&#45;&gt;Node11 -->
<g id="edge15" class="edge"><title>Node9&#45;&gt;Node11</title>
<path fill="none" stroke="midnightblue" d="M370.958,-168.444C406.787,-159.142 464.163,-144.246 503.391,-134.062"/>
<polygon fill="midnightblue" stroke="midnightblue" points="504.396,-137.417 513.196,-131.516 502.637,-130.642 504.396,-137.417"/>
</g>
<!-- Node11&#45;&gt;Node5 -->
<g id="edge17" class="edge"><title>Node11&#45;&gt;Node5</title>
<path fill="none" stroke="midnightblue" d="M568.183,-112.444C591.428,-103.478 628.149,-89.314 654.415,-79.1827"/>
<polygon fill="midnightblue" stroke="midnightblue" points="655.85,-82.3807 663.92,-75.5164 653.331,-75.8497 655.85,-82.3807"/>
</g>
<!-- Node11&#45;&gt;Node7 -->
<g id="edge18" class="edge"><title>Node11&#45;&gt;Node7</title>
<path fill="none" stroke="midnightblue" d="M599.557,-112.444C659.633,-102.846 756.99,-87.2916 820.758,-77.1037"/>
<polygon fill="midnightblue" stroke="midnightblue" points="821.371,-80.5503 830.693,-75.5164 820.266,-73.638 821.371,-80.5503"/>
</g>
<!-- Node11&#45;&gt;Node10 -->
<g id="edge16" class="edge"><title>Node11&#45;&gt;Node10</title>
<path fill="none" stroke="midnightblue" d="M512.883,-112.444C473.578,-102.288 408.463,-85.4642 369.452,-75.3846"/>
<polygon fill="midnightblue" stroke="midnightblue" points="370.213,-71.9665 359.655,-72.8536 368.462,-78.7439 370.213,-71.9665"/>
</g>
<!-- Node12&#45;&gt;Node3 -->
<g id="edge22" class="edge"><title>Node12&#45;&gt;Node3</title>
<path fill="none" stroke="midnightblue" d="M165.392,-168.408C171.866,-146.648 191.726,-88.7699 228,-56 250.761,-35.4375 284.216,-23.5299 308.051,-17.1898"/>
<polygon fill="midnightblue" stroke="midnightblue" points="309.075,-20.5417 317.935,-14.7309 307.385,-13.7488 309.075,-20.5417"/>
</g>
<!-- Node12&#45;&gt;Node11 -->
<g id="edge23" class="edge"><title>Node12&#45;&gt;Node11</title>
<path fill="none" stroke="midnightblue" d="M213.859,-169.829C281.045,-160.357 399.703,-143.627 475.507,-132.939"/>
<polygon fill="midnightblue" stroke="midnightblue" points="476.036,-136.399 485.45,-131.537 475.059,-129.468 476.036,-136.399"/>
</g>
<!-- Node14 -->
<g id="node14" class="node"><title>Node14</title>
<g id="a_node14"><a xlink:href="../../da/d7f/Detectors_2ITSMFT_2ITS_2tracking_2include_2ITStracking_2Cluster_8h.html" target="_top" xlink:title="ITStracking/Cluster.h">
<polygon fill="none" stroke="black" points="432,-224.5 432,-243.5 542,-243.5 542,-224.5 432,-224.5"/>
<text text-anchor="middle" x="487" y="-231.5" font-family="Helvetica,sans-Serif" font-size="10.00">ITStracking/Cluster.h</text>
</a>
</g>
</g>
<!-- Node13&#45;&gt;Node14 -->
<g id="edge25" class="edge"><title>Node13&#45;&gt;Node14</title>
<path fill="none" stroke="midnightblue" d="M487,-280.083C487,-273.006 487,-262.861 487,-253.986"/>
<polygon fill="midnightblue" stroke="midnightblue" points="490.5,-253.751 487,-243.751 483.5,-253.751 490.5,-253.751"/>
</g>
<!-- Node14&#45;&gt;Node3 -->
<g id="edge26" class="edge"><title>Node14&#45;&gt;Node3</title>
<path fill="none" stroke="midnightblue" d="M431.998,-229.85C372.177,-225.14 282.221,-213.863 261,-188 219.17,-137.02 286.875,-59.5582 320.188,-26.6594"/>
<polygon fill="midnightblue" stroke="midnightblue" points="322.695,-29.1042 327.463,-19.6428 317.836,-24.0658 322.695,-29.1042"/>
</g>
<!-- Node14&#45;&gt;Node7 -->
<g id="edge27" class="edge"><title>Node14&#45;&gt;Node7</title>
<path fill="none" stroke="midnightblue" d="M542.153,-228.846C648.345,-219.53 874.577,-192.832 918,-132 929.133,-116.403 915.433,-96.6854 902.246,-83.0792"/>
<polygon fill="midnightblue" stroke="midnightblue" points="904.365,-80.2618 894.732,-75.8516 899.512,-85.3066 904.365,-80.2618"/>
</g>
<!-- Node15 -->
<g id="node15" class="node"><title>Node15</title>
<g id="a_node15"><a xlink:href="../../dc/d3e/MathUtils_8h.html" target="_top" xlink:title="ITStracking/MathUtils.h">
<polygon fill="none" stroke="black" points="424,-168.5 424,-187.5 544,-187.5 544,-168.5 424,-168.5"/>
<text text-anchor="middle" x="484" y="-175.5" font-family="Helvetica,sans-Serif" font-size="10.00">ITStracking/MathUtils.h</text>
</a>
</g>
</g>
<!-- Node14&#45;&gt;Node15 -->
<g id="edge28" class="edge"><title>Node14&#45;&gt;Node15</title>
<path fill="none" stroke="midnightblue" d="M486.505,-224.083C486.111,-217.006 485.548,-206.861 485.055,-197.986"/>
<polygon fill="midnightblue" stroke="midnightblue" points="488.536,-197.542 484.486,-187.751 481.546,-197.93 488.536,-197.542"/>
</g>
<!-- Node17 -->
<g id="node17" class="node"><title>Node17</title>
<g id="a_node17"><a xlink:href="../../d2/d0c/IndexTableUtils_8h.html" target="_top" xlink:title="ITStracking/IndexTableUtils.h">
<polygon fill="none" stroke="black" points="600,-168.5 600,-187.5 746,-187.5 746,-168.5 600,-168.5"/>
<text text-anchor="middle" x="673" y="-175.5" font-family="Helvetica,sans-Serif" font-size="10.00">ITStracking/IndexTableUtils.h</text>
</a>
</g>
</g>
<!-- Node14&#45;&gt;Node17 -->
<g id="edge32" class="edge"><title>Node14&#45;&gt;Node17</title>
<path fill="none" stroke="midnightblue" d="M516.472,-224.444C548.171,-215.241 598.732,-200.562 633.775,-190.388"/>
<polygon fill="midnightblue" stroke="midnightblue" points="635.038,-193.666 643.666,-187.516 633.086,-186.943 635.038,-193.666"/>
</g>
<!-- Node15&#45;&gt;Node3 -->
<g id="edge29" class="edge"><title>Node15&#45;&gt;Node3</title>
<path fill="none" stroke="midnightblue" d="M465.709,-168.482C450.289,-160.631 428.344,-147.816 413,-132 385.667,-103.825 389.147,-89.0717 368,-56 361.92,-46.4914 354.796,-36.102 348.911,-27.704"/>
<polygon fill="midnightblue" stroke="midnightblue" points="351.75,-25.6559 343.121,-19.5088 346.033,-29.6955 351.75,-25.6559"/>
</g>
<!-- Node15&#45;&gt;Node11 -->
<g id="edge31" class="edge"><title>Node15&#45;&gt;Node11</title>
<path fill="none" stroke="midnightblue" d="M493.961,-168.324C503.127,-160.341 516.937,-148.313 528.028,-138.653"/>
<polygon fill="midnightblue" stroke="midnightblue" points="530.615,-141.041 535.857,-131.834 526.018,-135.762 530.615,-141.041"/>
</g>
<!-- Node16 -->
<g id="node16" class="node"><title>Node16</title>
<polygon fill="none" stroke="#bfbfbf" points="422,-112.5 422,-131.5 466,-131.5 466,-112.5 422,-112.5"/>
<text text-anchor="middle" x="444" y="-119.5" font-family="Helvetica,sans-Serif" font-size="10.00">cmath</text>
</g>
<!-- Node15&#45;&gt;Node16 -->
<g id="edge30" class="edge"><title>Node15&#45;&gt;Node16</title>
<path fill="none" stroke="midnightblue" d="M477.395,-168.083C471.745,-160.455 463.455,-149.264 456.549,-139.941"/>
<polygon fill="midnightblue" stroke="midnightblue" points="459.247,-137.703 450.482,-131.751 453.622,-141.87 459.247,-137.703"/>
</g>
<!-- Node17&#45;&gt;Node3 -->
<g id="edge33" class="edge"><title>Node17&#45;&gt;Node3</title>
<path fill="none" stroke="midnightblue" d="M667.422,-168.163C658.275,-154.339 638.807,-127.573 616,-112 534.808,-56.56 419.61,-27.6477 366.235,-16.5226"/>
<polygon fill="midnightblue" stroke="midnightblue" points="366.611,-13.0278 356.116,-14.4737 365.222,-19.8886 366.611,-13.0278"/>
</g>
<!-- Node17&#45;&gt;Node5 -->
<g id="edge35" class="edge"><title>Node17&#45;&gt;Node5</title>
<path fill="none" stroke="midnightblue" d="M674.02,-168.368C676.118,-150.617 680.958,-109.666 683.802,-85.5974"/>
<polygon fill="midnightblue" stroke="midnightblue" points="687.287,-85.9331 684.985,-75.5914 680.335,-85.1115 687.287,-85.9331"/>
</g>
<!-- Node17&#45;&gt;Node7 -->
<g id="edge37" class="edge"><title>Node17&#45;&gt;Node7</title>
<path fill="none" stroke="midnightblue" d="M746.282,-172.502C805.627,-167.149 882.47,-155.742 902,-132 913.228,-118.351 904.959,-98.201 896.28,-83.9608"/>
<polygon fill="midnightblue" stroke="midnightblue" points="899.166,-81.9794 890.719,-75.5842 893.334,-85.8512 899.166,-81.9794"/>
</g>
<!-- Node17&#45;&gt;Node11 -->
<g id="edge36" class="edge"><title>Node17&#45;&gt;Node11</title>
<path fill="none" stroke="midnightblue" d="M652.876,-168.444C631.976,-159.557 599.065,-145.563 575.284,-135.451"/>
<polygon fill="midnightblue" stroke="midnightblue" points="576.602,-132.208 566.029,-131.516 573.862,-138.65 576.602,-132.208"/>
</g>
<!-- Node18 -->
<g id="node18" class="node"><title>Node18</title>
<polygon fill="none" stroke="#bfbfbf" points="702,-112.5 702,-131.5 742,-131.5 742,-112.5 702,-112.5"/>
<text text-anchor="middle" x="722" y="-119.5" font-family="Helvetica,sans-Serif" font-size="10.00">utility</text>
</g>
<!-- Node17&#45;&gt;Node18 -->
<g id="edge34" class="edge"><title>Node17&#45;&gt;Node18</title>
<path fill="none" stroke="midnightblue" d="M681.091,-168.083C688.155,-160.298 698.588,-148.801 707.149,-139.367"/>
<polygon fill="midnightblue" stroke="midnightblue" points="709.931,-141.509 714.059,-131.751 704.747,-136.805 709.931,-141.509"/>
</g>
</g>
</svg>
