<?xml version="1.0" encoding="UTF-8" standalone="no"?>
<!DOCTYPE svg PUBLIC "-//W3C//DTD SVG 1.1//EN"
 "http://www.w3.org/Graphics/SVG/1.1/DTD/svg11.dtd">
<!-- Generated by graphviz version 2.36.0 (20140111.2315)
 -->
<!-- Title: /home/travis/build/AliceO2Group/AliceO2/Detectors/ITSMFT/ITS/tracking/include/ITStracking/MathUtils.h Pages: 1 -->
<svg width="1524pt" height="662pt"
 viewBox="0.00 0.00 1524.00 662.00" xmlns="http://www.w3.org/2000/svg" xmlns:xlink="http://www.w3.org/1999/xlink">
<g id="graph0" class="graph" transform="scale(1 1) rotate(0) translate(4 658)">
<title>/home/travis/build/AliceO2Group/AliceO2/Detectors/ITSMFT/ITS/tracking/include/ITStracking/MathUtils.h</title>
<!-- Node1 -->
<g id="node1" class="node"><title>Node1</title>
<polygon fill="#bfbfbf" stroke="black" points="1050.5,-590.5 1050.5,-653.5 1191.5,-653.5 1191.5,-590.5 1050.5,-590.5"/>
<text text-anchor="start" x="1058.5" y="-641.5" font-family="Helvetica,sans-Serif" font-size="10.00">/home/travis/build</text>
<text text-anchor="start" x="1058.5" y="-630.5" font-family="Helvetica,sans-Serif" font-size="10.00">/AliceO2Group/AliceO2</text>
<text text-anchor="start" x="1058.5" y="-619.5" font-family="Helvetica,sans-Serif" font-size="10.00">/Detectors/ITSMFT/ITS</text>
<text text-anchor="start" x="1058.5" y="-608.5" font-family="Helvetica,sans-Serif" font-size="10.00">/tracking/include/ITStracking</text>
<text text-anchor="middle" x="1121" y="-597.5" font-family="Helvetica,sans-Serif" font-size="10.00">/MathUtils.h</text>
</g>
<!-- Node2 -->
<g id="node2" class="node"><title>Node2</title>
<g id="a_node2"><a xlink:href="../../da/d7f/Detectors_2ITSMFT_2ITS_2tracking_2include_2ITStracking_2Cluster_8h.html" target="_top" xlink:title="/home/travis/build\l/AliceO2Group/AliceO2\l/Detectors/ITSMFT/ITS\l/tracking/include/ITStracking\l/Cluster.h">
<polygon fill="none" stroke="black" points="845.5,-490.5 845.5,-553.5 986.5,-553.5 986.5,-490.5 845.5,-490.5"/>
<text text-anchor="start" x="853.5" y="-541.5" font-family="Helvetica,sans-Serif" font-size="10.00">/home/travis/build</text>
<text text-anchor="start" x="853.5" y="-530.5" font-family="Helvetica,sans-Serif" font-size="10.00">/AliceO2Group/AliceO2</text>
<text text-anchor="start" x="853.5" y="-519.5" font-family="Helvetica,sans-Serif" font-size="10.00">/Detectors/ITSMFT/ITS</text>
<text text-anchor="start" x="853.5" y="-508.5" font-family="Helvetica,sans-Serif" font-size="10.00">/tracking/include/ITStracking</text>
<text text-anchor="middle" x="916" y="-497.5" font-family="Helvetica,sans-Serif" font-size="10.00">/Cluster.h</text>
</a>
</g>
</g>
<!-- Node1&#45;&gt;Node2 -->
<g id="edge1" class="edge"><title>Node1&#45;&gt;Node2</title>
<path fill="none" stroke="midnightblue" d="M1047.92,-586.065C1025.7,-575.44 1001.46,-563.852 979.887,-553.541"/>
<polygon fill="midnightblue" stroke="midnightblue" points="1046.45,-589.24 1056.98,-590.395 1049.47,-582.925 1046.45,-589.24"/>
</g>
<!-- Node11 -->
<g id="node11" class="node"><title>Node11</title>
<g id="a_node11"><a xlink:href="../../d7/da0/ITSMFT_2ITS_2tracking_2include_2ITStracking_2Tracker_8h.html" target="_top" xlink:title="/home/travis/build\l/AliceO2Group/AliceO2\l/Detectors/ITSMFT/ITS\l/tracking/include/ITStracking\l/Tracker.h">
<polygon fill="none" stroke="black" points="599.5,-190.5 599.5,-253.5 740.5,-253.5 740.5,-190.5 599.5,-190.5"/>
<text text-anchor="start" x="607.5" y="-241.5" font-family="Helvetica,sans-Serif" font-size="10.00">/home/travis/build</text>
<text text-anchor="start" x="607.5" y="-230.5" font-family="Helvetica,sans-Serif" font-size="10.00">/AliceO2Group/AliceO2</text>
<text text-anchor="start" x="607.5" y="-219.5" font-family="Helvetica,sans-Serif" font-size="10.00">/Detectors/ITSMFT/ITS</text>
<text text-anchor="start" x="607.5" y="-208.5" font-family="Helvetica,sans-Serif" font-size="10.00">/tracking/include/ITStracking</text>
<text text-anchor="middle" x="670" y="-197.5" font-family="Helvetica,sans-Serif" font-size="10.00">/Tracker.h</text>
</a>
</g>
</g>
<!-- Node1&#45;&gt;Node11 -->
<g id="edge39" class="edge"><title>Node1&#45;&gt;Node11</title>
<path fill="none" stroke="midnightblue" d="M1040.16,-619.959C978.333,-615.24 894.097,-599.878 836,-554 735.852,-474.914 691.207,-319.466 676.204,-253.625"/>
<polygon fill="midnightblue" stroke="midnightblue" points="1040.06,-623.46 1050.27,-620.652 1040.54,-616.476 1040.06,-623.46"/>
</g>
<!-- Node18 -->
<g id="node18" class="node"><title>Node18</title>
<g id="a_node18"><a xlink:href="../../d2/dee/TrackerTraits_8h.html" target="_top" xlink:title="/home/travis/build\l/AliceO2Group/AliceO2\l/Detectors/ITSMFT/ITS\l/tracking/include/ITStracking\l/TrackerTraits.h">
<polygon fill="none" stroke="black" points="1281.5,-190.5 1281.5,-253.5 1422.5,-253.5 1422.5,-190.5 1281.5,-190.5"/>
<text text-anchor="start" x="1289.5" y="-241.5" font-family="Helvetica,sans-Serif" font-size="10.00">/home/travis/build</text>
<text text-anchor="start" x="1289.5" y="-230.5" font-family="Helvetica,sans-Serif" font-size="10.00">/AliceO2Group/AliceO2</text>
<text text-anchor="start" x="1289.5" y="-219.5" font-family="Helvetica,sans-Serif" font-size="10.00">/Detectors/ITSMFT/ITS</text>
<text text-anchor="start" x="1289.5" y="-208.5" font-family="Helvetica,sans-Serif" font-size="10.00">/tracking/include/ITStracking</text>
<text text-anchor="middle" x="1352" y="-197.5" font-family="Helvetica,sans-Serif" font-size="10.00">/TrackerTraits.h</text>
</a>
</g>
</g>
<!-- Node1&#45;&gt;Node18 -->
<g id="edge40" class="edge"><title>Node1&#45;&gt;Node18</title>
<path fill="none" stroke="midnightblue" d="M1143.8,-581.722C1189.77,-502.515 1292.73,-325.112 1334.2,-253.674"/>
<polygon fill="midnightblue" stroke="midnightblue" points="1140.74,-580.025 1138.74,-590.43 1146.79,-583.539 1140.74,-580.025"/>
</g>
<!-- Node20 -->
<g id="node20" class="node"><title>Node20</title>
<g id="a_node20"><a xlink:href="../../de/dbc/TrackerTraitsCPU_8h.html" target="_top" xlink:title="/home/travis/build\l/AliceO2Group/AliceO2\l/Detectors/ITSMFT/ITS\l/tracking/include/ITStracking\l/TrackerTraitsCPU.h">
<polygon fill="none" stroke="black" points="1300.5,-90.5 1300.5,-153.5 1441.5,-153.5 1441.5,-90.5 1300.5,-90.5"/>
<text text-anchor="start" x="1308.5" y="-141.5" font-family="Helvetica,sans-Serif" font-size="10.00">/home/travis/build</text>
<text text-anchor="start" x="1308.5" y="-130.5" font-family="Helvetica,sans-Serif" font-size="10.00">/AliceO2Group/AliceO2</text>
<text text-anchor="start" x="1308.5" y="-119.5" font-family="Helvetica,sans-Serif" font-size="10.00">/Detectors/ITSMFT/ITS</text>
<text text-anchor="start" x="1308.5" y="-108.5" font-family="Helvetica,sans-Serif" font-size="10.00">/tracking/include/ITStracking</text>
<text text-anchor="middle" x="1371" y="-97.5" font-family="Helvetica,sans-Serif" font-size="10.00">/TrackerTraitsCPU.h</text>
</a>
</g>
</g>
<!-- Node1&#45;&gt;Node20 -->
<g id="edge41" class="edge"><title>Node1&#45;&gt;Node20</title>
<path fill="none" stroke="midnightblue" d="M1201.66,-608.694C1299.35,-588.683 1451,-538.947 1451,-423 1451,-423 1451,-423 1451,-321 1451,-262.103 1456.14,-243.264 1431,-190 1424.74,-176.726 1414.98,-164.167 1405.15,-153.587"/>
<polygon fill="midnightblue" stroke="midnightblue" points="1200.92,-605.273 1191.79,-610.652 1202.28,-612.139 1200.92,-605.273"/>
</g>
<!-- Node23 -->
<g id="node23" class="node"><title>Node23</title>
<g id="a_node23"><a xlink:href="../../d5/d70/Detectors_2ITSMFT_2ITS_2tracking_2src_2Cluster_8cxx.html" target="_top" xlink:title="/home/travis/build\l/AliceO2Group/AliceO2\l/Detectors/ITSMFT/ITS\l/tracking/src/Cluster.cxx">
<polygon fill="none" stroke="black" points="1059,-396 1059,-448 1183,-448 1183,-396 1059,-396"/>
<text text-anchor="start" x="1067" y="-436" font-family="Helvetica,sans-Serif" font-size="10.00">/home/travis/build</text>
<text text-anchor="start" x="1067" y="-425" font-family="Helvetica,sans-Serif" font-size="10.00">/AliceO2Group/AliceO2</text>
<text text-anchor="start" x="1067" y="-414" font-family="Helvetica,sans-Serif" font-size="10.00">/Detectors/ITSMFT/ITS</text>
<text text-anchor="middle" x="1121" y="-403" font-family="Helvetica,sans-Serif" font-size="10.00">/tracking/src/Cluster.cxx</text>
</a>
</g>
</g>
<!-- Node1&#45;&gt;Node23 -->
<g id="edge42" class="edge"><title>Node1&#45;&gt;Node23</title>
<path fill="none" stroke="midnightblue" d="M1121,-580.355C1121,-540.668 1121,-481.523 1121,-448.196"/>
<polygon fill="midnightblue" stroke="midnightblue" points="1117.5,-580.496 1121,-590.496 1124.5,-580.496 1117.5,-580.496"/>
</g>
<!-- Node3 -->
<g id="node3" class="node"><title>Node3</title>
<g id="a_node3"><a xlink:href="../../d1/d40/DeviceStoreNV_8h.html" target="_top" xlink:title="/home/travis/build\l/AliceO2Group/AliceO2\l/Detectors/ITSMFT/ITS\l/tracking/cuda/include\l/ITStrackingCUDA/DeviceStoreNV.h">
<polygon fill="none" stroke="black" points="762.5,-290.5 762.5,-353.5 941.5,-353.5 941.5,-290.5 762.5,-290.5"/>
<text text-anchor="start" x="770.5" y="-341.5" font-family="Helvetica,sans-Serif" font-size="10.00">/home/travis/build</text>
<text text-anchor="start" x="770.5" y="-330.5" font-family="Helvetica,sans-Serif" font-size="10.00">/AliceO2Group/AliceO2</text>
<text text-anchor="start" x="770.5" y="-319.5" font-family="Helvetica,sans-Serif" font-size="10.00">/Detectors/ITSMFT/ITS</text>
<text text-anchor="start" x="770.5" y="-308.5" font-family="Helvetica,sans-Serif" font-size="10.00">/tracking/cuda/include</text>
<text text-anchor="middle" x="852" y="-297.5" font-family="Helvetica,sans-Serif" font-size="10.00">/ITStrackingCUDA/DeviceStoreNV.h</text>
</a>
</g>
</g>
<!-- Node2&#45;&gt;Node3 -->
<g id="edge2" class="edge"><title>Node2&#45;&gt;Node3</title>
<path fill="none" stroke="midnightblue" d="M899.664,-480.6C896.323,-471.879 892.934,-462.673 890,-454 878.502,-420.016 867.304,-380.376 860.079,-353.677"/>
<polygon fill="midnightblue" stroke="midnightblue" points="896.505,-482.133 903.39,-490.186 903.029,-479.597 896.505,-482.133"/>
</g>
<!-- Node5 -->
<g id="node5" class="node"><title>Node5</title>
<g id="a_node5"><a xlink:href="../../dc/d42/ROframe_8h.html" target="_top" xlink:title="/home/travis/build\l/AliceO2Group/AliceO2\l/Detectors/ITSMFT/ITS\l/tracking/include/ITStracking\l/ROframe.h">
<polygon fill="none" stroke="black" points="322.5,-290.5 322.5,-353.5 463.5,-353.5 463.5,-290.5 322.5,-290.5"/>
<text text-anchor="start" x="330.5" y="-341.5" font-family="Helvetica,sans-Serif" font-size="10.00">/home/travis/build</text>
<text text-anchor="start" x="330.5" y="-330.5" font-family="Helvetica,sans-Serif" font-size="10.00">/AliceO2Group/AliceO2</text>
<text text-anchor="start" x="330.5" y="-319.5" font-family="Helvetica,sans-Serif" font-size="10.00">/Detectors/ITSMFT/ITS</text>
<text text-anchor="start" x="330.5" y="-308.5" font-family="Helvetica,sans-Serif" font-size="10.00">/tracking/include/ITStracking</text>
<text text-anchor="middle" x="393" y="-297.5" font-family="Helvetica,sans-Serif" font-size="10.00">/ROframe.h</text>
</a>
</g>
</g>
<!-- Node2&#45;&gt;Node5 -->
<g id="edge4" class="edge"><title>Node2&#45;&gt;Node5</title>
<path fill="none" stroke="midnightblue" d="M835.86,-490.66C734.225,-452.183 560.572,-386.44 463.668,-349.754"/>
<polygon fill="midnightblue" stroke="midnightblue" points="834.874,-494.029 845.466,-494.297 837.353,-487.483 834.874,-494.029"/>
</g>
<!-- Node14 -->
<g id="node14" class="node"><title>Node14</title>
<g id="a_node14"><a xlink:href="../../da/d5d/Vertexer_8cxx.html" target="_top" xlink:title="/home/travis/build\l/AliceO2Group/AliceO2\l/Detectors/ITSMFT/ITS\l/tracking/src/Vertexer.cxx">
<polygon fill="none" stroke="black" points="-0.5,-96 -0.5,-148 128.5,-148 128.5,-96 -0.5,-96"/>
<text text-anchor="start" x="7.5" y="-136" font-family="Helvetica,sans-Serif" font-size="10.00">/home/travis/build</text>
<text text-anchor="start" x="7.5" y="-125" font-family="Helvetica,sans-Serif" font-size="10.00">/AliceO2Group/AliceO2</text>
<text text-anchor="start" x="7.5" y="-114" font-family="Helvetica,sans-Serif" font-size="10.00">/Detectors/ITSMFT/ITS</text>
<text text-anchor="middle" x="64" y="-103" font-family="Helvetica,sans-Serif" font-size="10.00">/tracking/src/Vertexer.cxx</text>
</a>
</g>
</g>
<!-- Node2&#45;&gt;Node14 -->
<g id="edge38" class="edge"><title>Node2&#45;&gt;Node14</title>
<path fill="none" stroke="midnightblue" d="M835.339,-509.228C765.441,-498.075 661.99,-479.271 574,-454 336.802,-385.877 195.317,-457.701 56,-254 34.5189,-222.592 44.4683,-176.414 53.9826,-148.102"/>
<polygon fill="midnightblue" stroke="midnightblue" points="834.978,-512.715 845.402,-510.818 836.071,-505.8 834.978,-512.715"/>
</g>
<!-- Node16 -->
<g id="node16" class="node"><title>Node16</title>
<g id="a_node16"><a xlink:href="../../da/dc0/Tracklet_8h.html" target="_top" xlink:title="/home/travis/build\l/AliceO2Group/AliceO2\l/Detectors/ITSMFT/ITS\l/tracking/include/ITStracking\l/Tracklet.h">
<polygon fill="none" stroke="black" points="899.5,-390.5 899.5,-453.5 1040.5,-453.5 1040.5,-390.5 899.5,-390.5"/>
<text text-anchor="start" x="907.5" y="-441.5" font-family="Helvetica,sans-Serif" font-size="10.00">/home/travis/build</text>
<text text-anchor="start" x="907.5" y="-430.5" font-family="Helvetica,sans-Serif" font-size="10.00">/AliceO2Group/AliceO2</text>
<text text-anchor="start" x="907.5" y="-419.5" font-family="Helvetica,sans-Serif" font-size="10.00">/Detectors/ITSMFT/ITS</text>
<text text-anchor="start" x="907.5" y="-408.5" font-family="Helvetica,sans-Serif" font-size="10.00">/tracking/include/ITStracking</text>
<text text-anchor="middle" x="970" y="-397.5" font-family="Helvetica,sans-Serif" font-size="10.00">/Tracklet.h</text>
</a>
</g>
</g>
<!-- Node2&#45;&gt;Node16 -->
<g id="edge21" class="edge"><title>Node2&#45;&gt;Node16</title>
<path fill="none" stroke="midnightblue" d="M937.902,-481.252C942.977,-472.042 948.301,-462.379 953.122,-453.63"/>
<polygon fill="midnightblue" stroke="midnightblue" points="934.698,-479.814 932.938,-490.261 940.829,-483.192 934.698,-479.814"/>
</g>
<!-- Node2&#45;&gt;Node23 -->
<g id="edge37" class="edge"><title>Node2&#45;&gt;Node23</title>
<path fill="none" stroke="midnightblue" d="M989.157,-486.027C1015.35,-473.504 1044.34,-459.646 1068.45,-448.121"/>
<polygon fill="midnightblue" stroke="midnightblue" points="987.533,-482.925 980.02,-490.395 990.552,-489.24 987.533,-482.925"/>
</g>
<!-- Node4 -->
<g id="node4" class="node"><title>Node4</title>
<g id="a_node4"><a xlink:href="../../d8/d1b/PrimaryVertexContextNV_8h.html" target="_top" xlink:title="/home/travis/build\l/AliceO2Group/AliceO2\l/Detectors/ITSMFT/ITS\l/tracking/cuda/include\l/ITStrackingCUDA/PrimaryVertexContextNV.h">
<polygon fill="none" stroke="black" points="758.5,-190.5 758.5,-253.5 979.5,-253.5 979.5,-190.5 758.5,-190.5"/>
<text text-anchor="start" x="766.5" y="-241.5" font-family="Helvetica,sans-Serif" font-size="10.00">/home/travis/build</text>
<text text-anchor="start" x="766.5" y="-230.5" font-family="Helvetica,sans-Serif" font-size="10.00">/AliceO2Group/AliceO2</text>
<text text-anchor="start" x="766.5" y="-219.5" font-family="Helvetica,sans-Serif" font-size="10.00">/Detectors/ITSMFT/ITS</text>
<text text-anchor="start" x="766.5" y="-208.5" font-family="Helvetica,sans-Serif" font-size="10.00">/tracking/cuda/include</text>
<text text-anchor="middle" x="869" y="-197.5" font-family="Helvetica,sans-Serif" font-size="10.00">/ITStrackingCUDA/PrimaryVertexContextNV.h</text>
</a>
</g>
</g>
<!-- Node3&#45;&gt;Node4 -->
<g id="edge3" class="edge"><title>Node3&#45;&gt;Node4</title>
<path fill="none" stroke="midnightblue" d="M859.045,-280.387C860.597,-271.439 862.216,-262.106 863.687,-253.63"/>
<polygon fill="midnightblue" stroke="midnightblue" points="855.593,-279.81 857.332,-290.261 862.49,-281.006 855.593,-279.81"/>
</g>
<!-- Node6 -->
<g id="node6" class="node"><title>Node6</title>
<g id="a_node6"><a xlink:href="../../d7/dba/IOUtils_8h.html" target="_top" xlink:title="/home/travis/build\l/AliceO2Group/AliceO2\l/Detectors/ITSMFT/ITS\l/tracking/include/ITStracking\l/IOUtils.h">
<polygon fill="none" stroke="black" points="401.5,-190.5 401.5,-253.5 542.5,-253.5 542.5,-190.5 401.5,-190.5"/>
<text text-anchor="start" x="409.5" y="-241.5" font-family="Helvetica,sans-Serif" font-size="10.00">/home/travis/build</text>
<text text-anchor="start" x="409.5" y="-230.5" font-family="Helvetica,sans-Serif" font-size="10.00">/AliceO2Group/AliceO2</text>
<text text-anchor="start" x="409.5" y="-219.5" font-family="Helvetica,sans-Serif" font-size="10.00">/Detectors/ITSMFT/ITS</text>
<text text-anchor="start" x="409.5" y="-208.5" font-family="Helvetica,sans-Serif" font-size="10.00">/tracking/include/ITStracking</text>
<text text-anchor="middle" x="472" y="-197.5" font-family="Helvetica,sans-Serif" font-size="10.00">/IOUtils.h</text>
</a>
</g>
</g>
<!-- Node5&#45;&gt;Node6 -->
<g id="edge5" class="edge"><title>Node5&#45;&gt;Node6</title>
<path fill="none" stroke="midnightblue" d="M424.115,-282.401C431.816,-272.849 439.962,-262.744 447.309,-253.63"/>
<polygon fill="midnightblue" stroke="midnightblue" points="421.33,-280.279 417.779,-290.261 426.78,-284.672 421.33,-280.279"/>
</g>
<!-- Node9 -->
<g id="node9" class="node"><title>Node9</title>
<g id="a_node9"><a xlink:href="../../d6/db2/run__trac__ca__its_8C.html" target="_top" xlink:title="/home/travis/build\l/AliceO2Group/AliceO2\l/macro/run_trac_ca_its.C">
<polygon fill="none" stroke="black" points="606.5,-101.5 606.5,-142.5 733.5,-142.5 733.5,-101.5 606.5,-101.5"/>
<text text-anchor="start" x="614.5" y="-130.5" font-family="Helvetica,sans-Serif" font-size="10.00">/home/travis/build</text>
<text text-anchor="start" x="614.5" y="-119.5" font-family="Helvetica,sans-Serif" font-size="10.00">/AliceO2Group/AliceO2</text>
<text text-anchor="middle" x="670" y="-108.5" font-family="Helvetica,sans-Serif" font-size="10.00">/macro/run_trac_ca_its.C</text>
</a>
</g>
</g>
<!-- Node5&#45;&gt;Node9 -->
<g id="edge20" class="edge"><title>Node5&#45;&gt;Node9</title>
<path fill="none" stroke="midnightblue" d="M473.037,-289.566C508.677,-275.108 544.195,-259.877 551,-254 576.211,-232.23 568.276,-215.251 590,-190 605.359,-172.146 625.749,-155.148 642.1,-142.74"/>
<polygon fill="midnightblue" stroke="midnightblue" points="471.463,-286.427 463.5,-293.416 474.083,-292.918 471.463,-286.427"/>
</g>
<!-- Node5&#45;&gt;Node11 -->
<g id="edge10" class="edge"><title>Node5&#45;&gt;Node11</title>
<path fill="none" stroke="midnightblue" d="M473.656,-291.528C475.115,-291.013 476.564,-290.503 478,-290 525.35,-273.403 537.65,-270.597 585,-254 589.595,-252.389 594.324,-250.714 599.087,-249.014"/>
<polygon fill="midnightblue" stroke="midnightblue" points="472.166,-288.342 463.913,-294.986 474.508,-294.939 472.166,-288.342"/>
</g>
<!-- Node13 -->
<g id="node13" class="node"><title>Node13</title>
<g id="a_node13"><a xlink:href="../../de/d9b/Vertexer_8h.html" target="_top" xlink:title="/home/travis/build\l/AliceO2Group/AliceO2\l/Detectors/ITSMFT/ITS\l/tracking/include/ITStracking\l/Vertexer.h">
<polygon fill="none" stroke="black" points="242.5,-190.5 242.5,-253.5 383.5,-253.5 383.5,-190.5 242.5,-190.5"/>
<text text-anchor="start" x="250.5" y="-241.5" font-family="Helvetica,sans-Serif" font-size="10.00">/home/travis/build</text>
<text text-anchor="start" x="250.5" y="-230.5" font-family="Helvetica,sans-Serif" font-size="10.00">/AliceO2Group/AliceO2</text>
<text text-anchor="start" x="250.5" y="-219.5" font-family="Helvetica,sans-Serif" font-size="10.00">/Detectors/ITSMFT/ITS</text>
<text text-anchor="start" x="250.5" y="-208.5" font-family="Helvetica,sans-Serif" font-size="10.00">/tracking/include/ITStracking</text>
<text text-anchor="middle" x="313" y="-197.5" font-family="Helvetica,sans-Serif" font-size="10.00">/Vertexer.h</text>
</a>
</g>
</g>
<!-- Node5&#45;&gt;Node13 -->
<g id="edge14" class="edge"><title>Node5&#45;&gt;Node13</title>
<path fill="none" stroke="midnightblue" d="M361.491,-282.401C353.693,-272.849 345.444,-262.744 338.004,-253.63"/>
<polygon fill="midnightblue" stroke="midnightblue" points="358.872,-284.728 367.907,-290.261 364.295,-280.301 358.872,-284.728"/>
</g>
<!-- Node5&#45;&gt;Node14 -->
<g id="edge19" class="edge"><title>Node5&#45;&gt;Node14</title>
<path fill="none" stroke="midnightblue" d="M312.154,-313.89C230.965,-305.003 113.627,-286.81 83,-254 56.4201,-225.525 56.7084,-177.328 59.9379,-148.009"/>
<polygon fill="midnightblue" stroke="midnightblue" points="312.049,-317.399 322.364,-314.98 312.792,-310.438 312.049,-317.399"/>
</g>
<!-- Node15 -->
<g id="node15" class="node"><title>Node15</title>
<g id="a_node15"><a xlink:href="../../d4/d27/ROframe_8cxx.html" target="_top" xlink:title="/home/travis/build\l/AliceO2Group/AliceO2\l/Detectors/ITSMFT/ITS\l/tracking/src/ROframe.cxx">
<polygon fill="none" stroke="black" points="92,-196 92,-248 224,-248 224,-196 92,-196"/>
<text text-anchor="start" x="100" y="-236" font-family="Helvetica,sans-Serif" font-size="10.00">/home/travis/build</text>
<text text-anchor="start" x="100" y="-225" font-family="Helvetica,sans-Serif" font-size="10.00">/AliceO2Group/AliceO2</text>
<text text-anchor="start" x="100" y="-214" font-family="Helvetica,sans-Serif" font-size="10.00">/Detectors/ITSMFT/ITS</text>
<text text-anchor="middle" x="158" y="-203" font-family="Helvetica,sans-Serif" font-size="10.00">/tracking/src/ROframe.cxx</text>
</a>
</g>
</g>
<!-- Node5&#45;&gt;Node15 -->
<g id="edge18" class="edge"><title>Node5&#45;&gt;Node15</title>
<path fill="none" stroke="midnightblue" d="M312.991,-287.634C281.936,-274.684 246.978,-260.106 218.132,-248.076"/>
<polygon fill="midnightblue" stroke="midnightblue" points="311.915,-290.978 322.492,-291.597 314.61,-284.517 311.915,-290.978"/>
</g>
<!-- Node7 -->
<g id="node7" class="node"><title>Node7</title>
<g id="a_node7"><a xlink:href="../../d5/d1a/IOUtils_8cxx.html" target="_top" xlink:title="/home/travis/build\l/AliceO2Group/AliceO2\l/Detectors/ITSMFT/ITS\l/tracking/src/IOUtils.cxx">
<polygon fill="none" stroke="black" points="328.5,-96 328.5,-148 451.5,-148 451.5,-96 328.5,-96"/>
<text text-anchor="start" x="336.5" y="-136" font-family="Helvetica,sans-Serif" font-size="10.00">/home/travis/build</text>
<text text-anchor="start" x="336.5" y="-125" font-family="Helvetica,sans-Serif" font-size="10.00">/AliceO2Group/AliceO2</text>
<text text-anchor="start" x="336.5" y="-114" font-family="Helvetica,sans-Serif" font-size="10.00">/Detectors/ITSMFT/ITS</text>
<text text-anchor="middle" x="390" y="-103" font-family="Helvetica,sans-Serif" font-size="10.00">/tracking/src/IOUtils.cxx</text>
</a>
</g>
</g>
<!-- Node6&#45;&gt;Node7 -->
<g id="edge6" class="edge"><title>Node6&#45;&gt;Node7</title>
<path fill="none" stroke="midnightblue" d="M439.721,-182.423C430.051,-170.866 419.702,-158.497 410.963,-148.054"/>
<polygon fill="midnightblue" stroke="midnightblue" points="437.178,-184.838 446.28,-190.261 442.547,-180.346 437.178,-184.838"/>
</g>
<!-- Node8 -->
<g id="node8" class="node"><title>Node8</title>
<g id="a_node8"><a xlink:href="../../dc/d97/run__rec__ca_8C.html" target="_top" xlink:title="/home/travis/build\l/AliceO2Group/AliceO2\l/macro/run_rec_ca.C">
<polygon fill="none" stroke="black" points="470,-101.5 470,-142.5 588,-142.5 588,-101.5 470,-101.5"/>
<text text-anchor="start" x="478" y="-130.5" font-family="Helvetica,sans-Serif" font-size="10.00">/home/travis/build</text>
<text text-anchor="start" x="478" y="-119.5" font-family="Helvetica,sans-Serif" font-size="10.00">/AliceO2Group/AliceO2</text>
<text text-anchor="middle" x="529" y="-108.5" font-family="Helvetica,sans-Serif" font-size="10.00">/macro/run_rec_ca.C</text>
</a>
</g>
</g>
<!-- Node6&#45;&gt;Node8 -->
<g id="edge7" class="edge"><title>Node6&#45;&gt;Node8</title>
<path fill="none" stroke="midnightblue" d="M494.908,-181.615C502.729,-168.168 511.134,-153.717 517.642,-142.527"/>
<polygon fill="midnightblue" stroke="midnightblue" points="491.881,-179.857 489.879,-190.261 497.932,-183.377 491.881,-179.857"/>
</g>
<!-- Node6&#45;&gt;Node9 -->
<g id="edge8" class="edge"><title>Node6&#45;&gt;Node9</title>
<path fill="none" stroke="midnightblue" d="M542.848,-185.934C572.311,-171.351 605.401,-154.973 630.438,-142.581"/>
<polygon fill="midnightblue" stroke="midnightblue" points="541.244,-182.823 533.834,-190.395 544.349,-189.096 541.244,-182.823"/>
</g>
<!-- Node10 -->
<g id="node10" class="node"><title>Node10</title>
<g id="a_node10"><a xlink:href="../../d4/da9/run__vert__ca__its_8C.html" target="_top" xlink:title="/home/travis/build\l/AliceO2Group/AliceO2\l/macro/run_vert_ca_its.C">
<polygon fill="none" stroke="black" points="183.5,-101.5 183.5,-142.5 310.5,-142.5 310.5,-101.5 183.5,-101.5"/>
<text text-anchor="start" x="191.5" y="-130.5" font-family="Helvetica,sans-Serif" font-size="10.00">/home/travis/build</text>
<text text-anchor="start" x="191.5" y="-119.5" font-family="Helvetica,sans-Serif" font-size="10.00">/AliceO2Group/AliceO2</text>
<text text-anchor="middle" x="247" y="-108.5" font-family="Helvetica,sans-Serif" font-size="10.00">/macro/run_vert_ca_its.C</text>
</a>
</g>
</g>
<!-- Node6&#45;&gt;Node10 -->
<g id="edge9" class="edge"><title>Node6&#45;&gt;Node10</title>
<path fill="none" stroke="midnightblue" d="M392.356,-186.311C358.66,-171.634 320.653,-155.08 291.957,-142.581"/>
<polygon fill="midnightblue" stroke="midnightblue" points="391.168,-189.611 401.734,-190.395 393.964,-183.193 391.168,-189.611"/>
</g>
<!-- Node11&#45;&gt;Node8 -->
<g id="edge12" class="edge"><title>Node11&#45;&gt;Node8</title>
<path fill="none" stroke="midnightblue" d="M617.454,-184.479C596.981,-170.249 574.344,-154.516 557.096,-142.527"/>
<polygon fill="midnightblue" stroke="midnightblue" points="615.565,-187.428 625.774,-190.261 619.56,-181.68 615.565,-187.428"/>
</g>
<!-- Node11&#45;&gt;Node9 -->
<g id="edge13" class="edge"><title>Node11&#45;&gt;Node9</title>
<path fill="none" stroke="midnightblue" d="M670,-180.074C670,-167.072 670,-153.29 670,-142.527"/>
<polygon fill="midnightblue" stroke="midnightblue" points="666.5,-180.261 670,-190.261 673.5,-180.261 666.5,-180.261"/>
</g>
<!-- Node12 -->
<g id="node12" class="node"><title>Node12</title>
<g id="a_node12"><a xlink:href="../../d7/dd9/ITSMFT_2ITS_2tracking_2src_2Tracker_8cxx.html" target="_top" xlink:title="/home/travis/build\l/AliceO2Group/AliceO2\l/Detectors/ITSMFT/ITS\l/tracking/src/Tracker.cxx">
<polygon fill="none" stroke="black" points="975.5,-1 975.5,-53 1100.5,-53 1100.5,-1 975.5,-1"/>
<text text-anchor="start" x="983.5" y="-41" font-family="Helvetica,sans-Serif" font-size="10.00">/home/travis/build</text>
<text text-anchor="start" x="983.5" y="-30" font-family="Helvetica,sans-Serif" font-size="10.00">/AliceO2Group/AliceO2</text>
<text text-anchor="start" x="983.5" y="-19" font-family="Helvetica,sans-Serif" font-size="10.00">/Detectors/ITSMFT/ITS</text>
<text text-anchor="middle" x="1038" y="-8" font-family="Helvetica,sans-Serif" font-size="10.00">/tracking/src/Tracker.cxx</text>
</a>
</g>
</g>
<!-- Node11&#45;&gt;Node12 -->
<g id="edge11" class="edge"><title>Node11&#45;&gt;Node12</title>
<path fill="none" stroke="midnightblue" d="M737.47,-185.615C810.701,-147.208 925.78,-86.8545 990.213,-53.0625"/>
<polygon fill="midnightblue" stroke="midnightblue" points="735.541,-182.674 728.311,-190.419 738.792,-188.874 735.541,-182.674"/>
</g>
<!-- Node13&#45;&gt;Node8 -->
<g id="edge16" class="edge"><title>Node13&#45;&gt;Node8</title>
<path fill="none" stroke="midnightblue" d="M389.873,-186.122C422.118,-171.493 458.411,-155.027 485.842,-142.581"/>
<polygon fill="midnightblue" stroke="midnightblue" points="388.116,-183.076 380.455,-190.395 391.008,-189.451 388.116,-183.076"/>
</g>
<!-- Node13&#45;&gt;Node10 -->
<g id="edge17" class="edge"><title>Node13&#45;&gt;Node10</title>
<path fill="none" stroke="midnightblue" d="M286.475,-181.615C277.419,-168.168 267.687,-153.717 260.151,-142.527"/>
<polygon fill="midnightblue" stroke="midnightblue" points="283.809,-183.922 292.298,-190.261 289.615,-180.012 283.809,-183.922"/>
</g>
<!-- Node13&#45;&gt;Node14 -->
<g id="edge15" class="edge"><title>Node13&#45;&gt;Node14</title>
<path fill="none" stroke="midnightblue" d="M232.853,-189.456C198.8,-176.054 159.655,-160.647 127.634,-148.045"/>
<polygon fill="midnightblue" stroke="midnightblue" points="231.726,-192.774 242.313,-193.179 234.289,-186.26 231.726,-192.774"/>
</g>
<!-- Node16&#45;&gt;Node3 -->
<g id="edge22" class="edge"><title>Node16&#45;&gt;Node3</title>
<path fill="none" stroke="midnightblue" d="M925.244,-383.83C913.242,-373.862 900.403,-363.199 888.881,-353.63"/>
<polygon fill="midnightblue" stroke="midnightblue" points="923.059,-386.565 932.988,-390.261 927.531,-381.18 923.059,-386.565"/>
</g>
<!-- Node16&#45;&gt;Node4 -->
<g id="edge23" class="edge"><title>Node16&#45;&gt;Node4</title>
<path fill="none" stroke="midnightblue" d="M971.124,-380.075C970.165,-352.925 965.522,-317.389 950,-290 942.081,-276.028 930.036,-263.745 917.636,-253.64"/>
<polygon fill="midnightblue" stroke="midnightblue" points="967.631,-380.475 971.328,-390.404 974.629,-380.337 967.631,-380.475"/>
</g>
<!-- Node16&#45;&gt;Node12 -->
<g id="edge35" class="edge"><title>Node16&#45;&gt;Node12</title>
<path fill="none" stroke="midnightblue" d="M977.066,-380.161C991.124,-298.915 1022.23,-119.161 1033.67,-53.0405"/>
<polygon fill="midnightblue" stroke="midnightblue" points="973.536,-380.039 975.279,-390.489 980.433,-381.232 973.536,-380.039"/>
</g>
<!-- Node17 -->
<g id="node17" class="node"><title>Node17</title>
<g id="a_node17"><a xlink:href="../../d3/da9/PrimaryVertexContext_8h.html" target="_top" xlink:title="/home/travis/build\l/AliceO2Group/AliceO2\l/Detectors/ITSMFT/ITS\l/tracking/include/ITStracking\l/PrimaryVertexContext.h">
<polygon fill="none" stroke="black" points="1036.5,-290.5 1036.5,-353.5 1177.5,-353.5 1177.5,-290.5 1036.5,-290.5"/>
<text text-anchor="start" x="1044.5" y="-341.5" font-family="Helvetica,sans-Serif" font-size="10.00">/home/travis/build</text>
<text text-anchor="start" x="1044.5" y="-330.5" font-family="Helvetica,sans-Serif" font-size="10.00">/AliceO2Group/AliceO2</text>
<text text-anchor="start" x="1044.5" y="-319.5" font-family="Helvetica,sans-Serif" font-size="10.00">/Detectors/ITSMFT/ITS</text>
<text text-anchor="start" x="1044.5" y="-308.5" font-family="Helvetica,sans-Serif" font-size="10.00">/tracking/include/ITStracking</text>
<text text-anchor="middle" x="1107" y="-297.5" font-family="Helvetica,sans-Serif" font-size="10.00">/PrimaryVertexContext.h</text>
</a>
</g>
</g>
<!-- Node16&#45;&gt;Node17 -->
<g id="edge24" class="edge"><title>Node16&#45;&gt;Node17</title>
<path fill="none" stroke="midnightblue" d="M1021.17,-384.398C1035.33,-374.268 1050.55,-363.382 1064.18,-353.63"/>
<polygon fill="midnightblue" stroke="midnightblue" points="1019.07,-381.596 1012.97,-390.261 1023.14,-387.29 1019.07,-381.596"/>
</g>
<!-- Node21 -->
<g id="node21" class="node"><title>Node21</title>
<g id="a_node21"><a xlink:href="../../d0/d20/TrackerTraitsCPU_8cxx.html" target="_top" xlink:title="/home/travis/build\l/AliceO2Group/AliceO2\l/Detectors/ITSMFT/ITS\l/tracking/src/TrackerTraitsCPU.cxx">
<polygon fill="none" stroke="black" points="1344,-1 1344,-53 1516,-53 1516,-1 1344,-1"/>
<text text-anchor="start" x="1352" y="-41" font-family="Helvetica,sans-Serif" font-size="10.00">/home/travis/build</text>
<text text-anchor="start" x="1352" y="-30" font-family="Helvetica,sans-Serif" font-size="10.00">/AliceO2Group/AliceO2</text>
<text text-anchor="start" x="1352" y="-19" font-family="Helvetica,sans-Serif" font-size="10.00">/Detectors/ITSMFT/ITS</text>
<text text-anchor="middle" x="1430" y="-8" font-family="Helvetica,sans-Serif" font-size="10.00">/tracking/src/TrackerTraitsCPU.cxx</text>
</a>
</g>
</g>
<!-- Node16&#45;&gt;Node21 -->
<g id="edge36" class="edge"><title>Node16&#45;&gt;Node21</title>
<path fill="none" stroke="midnightblue" d="M1049.71,-390.095C1049.81,-390.063 1049.9,-390.032 1050,-390 1220.99,-334.428 1317.17,-393.18 1431,-254 1477.45,-197.2 1461.4,-162.485 1450,-90 1448.05,-77.5983 1444.03,-64.295 1440.1,-53.2035"/>
<polygon fill="midnightblue" stroke="midnightblue" points="1048.88,-386.681 1040.52,-393.186 1051.11,-393.316 1048.88,-386.681"/>
</g>
<!-- Node17&#45;&gt;Node4 -->
<g id="edge25" class="edge"><title>Node17&#45;&gt;Node4</title>
<path fill="none" stroke="midnightblue" d="M1026.81,-287.982C999.784,-276.852 969.757,-264.488 943.211,-253.558"/>
<polygon fill="midnightblue" stroke="midnightblue" points="1025.66,-291.291 1036.24,-291.862 1028.32,-284.818 1025.66,-291.291"/>
</g>
<!-- Node17&#45;&gt;Node11 -->
<g id="edge26" class="edge"><title>Node17&#45;&gt;Node11</title>
<path fill="none" stroke="midnightblue" d="M1026.35,-304.791C1001.85,-299.943 974.837,-294.676 950,-290 860.812,-273.209 836.33,-278.695 749,-254 746.306,-253.238 743.577,-252.419 740.833,-251.554"/>
<polygon fill="midnightblue" stroke="midnightblue" points="1025.83,-308.256 1036.32,-306.768 1027.19,-301.39 1025.83,-308.256"/>
</g>
<!-- Node17&#45;&gt;Node18 -->
<g id="edge27" class="edge"><title>Node17&#45;&gt;Node18</title>
<path fill="none" stroke="midnightblue" d="M1186.83,-289.069C1217.22,-276.913 1251.61,-263.156 1281.11,-251.354"/>
<polygon fill="midnightblue" stroke="midnightblue" points="1185.52,-285.822 1177.54,-292.786 1188.12,-292.322 1185.52,-285.822"/>
</g>
<!-- Node17&#45;&gt;Node20 -->
<g id="edge33" class="edge"><title>Node17&#45;&gt;Node20</title>
<path fill="none" stroke="midnightblue" d="M1076.61,-281.989C1058.48,-253.671 1042.87,-215.932 1065,-190 1098.01,-151.315 1241.9,-167.262 1291,-154 1294.02,-153.184 1297.08,-152.294 1300.16,-151.346"/>
<polygon fill="midnightblue" stroke="midnightblue" points="1073.81,-284.093 1082.29,-290.451 1079.63,-280.196 1073.81,-284.093"/>
</g>
<!-- Node22 -->
<g id="node22" class="node"><title>Node22</title>
<g id="a_node22"><a xlink:href="../../d9/d29/PrimaryVertexContext_8cxx.html" target="_top" xlink:title="/home/travis/build\l/AliceO2Group/AliceO2\l/Detectors/ITSMFT/ITS\l/tracking/src/PrimaryVertexContext.cxx">
<polygon fill="none" stroke="black" points="1074.5,-196 1074.5,-248 1263.5,-248 1263.5,-196 1074.5,-196"/>
<text text-anchor="start" x="1082.5" y="-236" font-family="Helvetica,sans-Serif" font-size="10.00">/home/travis/build</text>
<text text-anchor="start" x="1082.5" y="-225" font-family="Helvetica,sans-Serif" font-size="10.00">/AliceO2Group/AliceO2</text>
<text text-anchor="start" x="1082.5" y="-214" font-family="Helvetica,sans-Serif" font-size="10.00">/Detectors/ITSMFT/ITS</text>
<text text-anchor="middle" x="1169" y="-203" font-family="Helvetica,sans-Serif" font-size="10.00">/tracking/src/PrimaryVertexContext.cxx</text>
</a>
</g>
</g>
<!-- Node17&#45;&gt;Node22 -->
<g id="edge34" class="edge"><title>Node17&#45;&gt;Node22</title>
<path fill="none" stroke="midnightblue" d="M1131.83,-281.755C1139.02,-270.391 1146.67,-258.297 1153.15,-248.054"/>
<polygon fill="midnightblue" stroke="midnightblue" points="1128.84,-279.939 1126.45,-290.261 1134.75,-283.682 1128.84,-279.939"/>
</g>
<!-- Node18&#45;&gt;Node12 -->
<g id="edge32" class="edge"><title>Node18&#45;&gt;Node12</title>
<path fill="none" stroke="midnightblue" d="M1271.04,-190.073C1190.18,-169.986 1152.06,-203.833 1091,-154 1060.02,-128.717 1046.86,-82.1296 1041.48,-53.2364"/>
<polygon fill="midnightblue" stroke="midnightblue" points="1270.55,-193.567 1281.12,-192.8 1272.38,-186.81 1270.55,-193.567"/>
</g>
<!-- Node19 -->
<g id="node19" class="node"><title>Node19</title>
<g id="a_node19"><a xlink:href="../../db/db2/TrackerTraitsNV_8h.html" target="_top" xlink:title="/home/travis/build\l/AliceO2Group/AliceO2\l/Detectors/ITSMFT/ITS\l/tracking/cuda/include\l/ITStrackingCUDA/TrackerTraitsNV.h">
<polygon fill="none" stroke="black" points="1100,-90.5 1100,-153.5 1282,-153.5 1282,-90.5 1100,-90.5"/>
<text text-anchor="start" x="1108" y="-141.5" font-family="Helvetica,sans-Serif" font-size="10.00">/home/travis/build</text>
<text text-anchor="start" x="1108" y="-130.5" font-family="Helvetica,sans-Serif" font-size="10.00">/AliceO2Group/AliceO2</text>
<text text-anchor="start" x="1108" y="-119.5" font-family="Helvetica,sans-Serif" font-size="10.00">/Detectors/ITSMFT/ITS</text>
<text text-anchor="start" x="1108" y="-108.5" font-family="Helvetica,sans-Serif" font-size="10.00">/tracking/cuda/include</text>
<text text-anchor="middle" x="1191" y="-97.5" font-family="Helvetica,sans-Serif" font-size="10.00">/ITStrackingCUDA/TrackerTraitsNV.h</text>
</a>
</g>
</g>
<!-- Node18&#45;&gt;Node19 -->
<g id="edge28" class="edge"><title>Node18&#45;&gt;Node19</title>
<path fill="none" stroke="midnightblue" d="M1292.8,-184.966C1275.9,-174.676 1257.64,-163.564 1241.32,-153.63"/>
<polygon fill="midnightblue" stroke="midnightblue" points="1291.14,-188.051 1301.5,-190.261 1294.78,-182.072 1291.14,-188.051"/>
</g>
<!-- Node18&#45;&gt;Node20 -->
<g id="edge29" class="edge"><title>Node18&#45;&gt;Node20</title>
<path fill="none" stroke="midnightblue" d="M1359.87,-180.387C1361.61,-171.439 1363.42,-162.106 1365.06,-153.63"/>
<polygon fill="midnightblue" stroke="midnightblue" points="1356.43,-179.778 1357.96,-190.261 1363.3,-181.11 1356.43,-179.778"/>
</g>
<!-- Node20&#45;&gt;Node12 -->
<g id="edge30" class="edge"><title>Node20&#45;&gt;Node12</title>
<path fill="none" stroke="midnightblue" d="M1290.22,-89.8866C1220.38,-68.298 1150.01,-51.7543 1100.74,-41.0049"/>
<polygon fill="midnightblue" stroke="midnightblue" points="1289.48,-93.3221 1300.07,-92.9662 1291.57,-86.6411 1289.48,-93.3221"/>
</g>
<!-- Node20&#45;&gt;Node21 -->
<g id="edge31" class="edge"><title>Node20&#45;&gt;Node21</title>
<path fill="none" stroke="midnightblue" d="M1396,-81.5929C1402.12,-71.9407 1408.51,-61.8709 1414.08,-53.1001"/>
<polygon fill="midnightblue" stroke="midnightblue" points="1392.88,-79.9715 1390.48,-90.2906 1398.79,-83.7214 1392.88,-79.9715"/>
</g>
</g>
</svg>
