<?xml version="1.0" encoding="UTF-8" standalone="no"?>
<!DOCTYPE svg PUBLIC "-//W3C//DTD SVG 1.1//EN"
 "http://www.w3.org/Graphics/SVG/1.1/DTD/svg11.dtd">
<!-- Generated by graphviz version 2.36.0 (20140111.2315)
 -->
<!-- Title: /home/travis/build/AliceO2Group/AliceO2/Common/Field/include/Field/MagneticField.h Pages: 1 -->
<svg width="5061pt" height="230pt"
 viewBox="0.00 0.00 5061.00 230.00" xmlns="http://www.w3.org/2000/svg" xmlns:xlink="http://www.w3.org/1999/xlink">
<g id="graph0" class="graph" transform="scale(1 1) rotate(0) translate(4 226)">
<title>/home/travis/build/AliceO2Group/AliceO2/Common/Field/include/Field/MagneticField.h</title>
<!-- Node1 -->
<g id="node1" class="node"><title>Node1</title>
<polygon fill="#bfbfbf" stroke="black" points="2607,-169 2607,-221 2725,-221 2725,-169 2607,-169"/>
<text text-anchor="start" x="2615" y="-209" font-family="Helvetica,sans-Serif" font-size="10.00">/home/travis/build</text>
<text text-anchor="start" x="2615" y="-198" font-family="Helvetica,sans-Serif" font-size="10.00">/AliceO2Group/AliceO2</text>
<text text-anchor="start" x="2615" y="-187" font-family="Helvetica,sans-Serif" font-size="10.00">/Common/Field/include</text>
<text text-anchor="middle" x="2666" y="-176" font-family="Helvetica,sans-Serif" font-size="10.00">/Field/MagneticField.h</text>
</g>
<!-- Node2 -->
<g id="node2" class="node"><title>Node2</title>
<g id="a_node2"><a xlink:href="../../da/d34/MagFieldFact_8h.html" target="_top" xlink:title="Definition of the MagFieldFact: factory for ALIDE mag. field from MagFieldParam. ">
<polygon fill="none" stroke="black" points="0,-79 0,-131 118,-131 118,-79 0,-79"/>
<text text-anchor="start" x="8" y="-119" font-family="Helvetica,sans-Serif" font-size="10.00">/home/travis/build</text>
<text text-anchor="start" x="8" y="-108" font-family="Helvetica,sans-Serif" font-size="10.00">/AliceO2Group/AliceO2</text>
<text text-anchor="start" x="8" y="-97" font-family="Helvetica,sans-Serif" font-size="10.00">/Common/Field/include</text>
<text text-anchor="middle" x="59" y="-86" font-family="Helvetica,sans-Serif" font-size="10.00">/Field/MagFieldFact.h</text>
</a>
</g>
</g>
<!-- Node1&#45;&gt;Node2 -->
<g id="edge1" class="edge"><title>Node1&#45;&gt;Node2</title>
<path fill="none" stroke="midnightblue" d="M2596.77,-193.616C2215.49,-191.325 379.956,-177.969 132,-132 127.502,-131.166 122.912,-130.095 118.332,-128.865"/>
<polygon fill="midnightblue" stroke="midnightblue" points="2596.81,-197.116 2606.83,-193.676 2596.85,-190.116 2596.81,-197.116"/>
</g>
<!-- Node3 -->
<g id="node3" class="node"><title>Node3</title>
<g id="a_node3"><a xlink:href="../../d0/dec/MagFieldFact_8cxx.html" target="_top" xlink:title="/home/travis/build\l/AliceO2Group/AliceO2\l/Common/Field/src/MagFieldFact.cxx">
<polygon fill="none" stroke="black" points="11.5,-0.5 11.5,-41.5 192.5,-41.5 192.5,-0.5 11.5,-0.5"/>
<text text-anchor="start" x="19.5" y="-29.5" font-family="Helvetica,sans-Serif" font-size="10.00">/home/travis/build</text>
<text text-anchor="start" x="19.5" y="-18.5" font-family="Helvetica,sans-Serif" font-size="10.00">/AliceO2Group/AliceO2</text>
<text text-anchor="middle" x="102" y="-7.5" font-family="Helvetica,sans-Serif" font-size="10.00">/Common/Field/src/MagFieldFact.cxx</text>
</a>
</g>
</g>
<!-- Node1&#45;&gt;Node3 -->
<g id="edge3" class="edge"><title>Node1&#45;&gt;Node3</title>
<path fill="none" stroke="midnightblue" d="M2596.65,-194.192C2203.87,-195.038 272.202,-195.929 165,-132 147.799,-121.743 123.214,-70.4724 110.437,-41.6889"/>
<polygon fill="midnightblue" stroke="midnightblue" points="2596.74,-197.691 2606.73,-194.169 2596.72,-190.692 2596.74,-197.691"/>
</g>
<!-- Node4 -->
<g id="node4" class="node"><title>Node4</title>
<g id="a_node4"><a xlink:href="../../df/d54/MagFieldParam_8cxx.html" target="_top" xlink:title="Implementation of the MagFieldParam class. ">
<polygon fill="none" stroke="black" points="174,-84.5 174,-125.5 364,-125.5 364,-84.5 174,-84.5"/>
<text text-anchor="start" x="182" y="-113.5" font-family="Helvetica,sans-Serif" font-size="10.00">/home/travis/build</text>
<text text-anchor="start" x="182" y="-102.5" font-family="Helvetica,sans-Serif" font-size="10.00">/AliceO2Group/AliceO2</text>
<text text-anchor="middle" x="269" y="-91.5" font-family="Helvetica,sans-Serif" font-size="10.00">/Common/Field/src/MagFieldParam.cxx</text>
</a>
</g>
</g>
<!-- Node1&#45;&gt;Node4 -->
<g id="edge4" class="edge"><title>Node1&#45;&gt;Node4</title>
<path fill="none" stroke="midnightblue" d="M2596.88,-194.16C2263.41,-194.619 818.672,-192.99 373,-132 361.66,-130.448 349.766,-128.141 338.239,-125.532"/>
<polygon fill="midnightblue" stroke="midnightblue" points="2596.89,-197.66 2606.88,-194.145 2596.88,-190.66 2596.89,-197.66"/>
</g>
<!-- Node5 -->
<g id="node5" class="node"><title>Node5</title>
<g id="a_node5"><a xlink:href="../../d2/d78/MagneticField_8cxx.html" target="_top" xlink:title="/home/travis/build\l/AliceO2Group/AliceO2\l/Common/Field/src/MagneticField.cxx">
<polygon fill="none" stroke="black" points="382,-84.5 382,-125.5 564,-125.5 564,-84.5 382,-84.5"/>
<text text-anchor="start" x="390" y="-113.5" font-family="Helvetica,sans-Serif" font-size="10.00">/home/travis/build</text>
<text text-anchor="start" x="390" y="-102.5" font-family="Helvetica,sans-Serif" font-size="10.00">/AliceO2Group/AliceO2</text>
<text text-anchor="middle" x="473" y="-91.5" font-family="Helvetica,sans-Serif" font-size="10.00">/Common/Field/src/MagneticField.cxx</text>
</a>
</g>
</g>
<!-- Node1&#45;&gt;Node5 -->
<g id="edge5" class="edge"><title>Node1&#45;&gt;Node5</title>
<path fill="none" stroke="midnightblue" d="M2596.35,-194.037C2280.02,-193.885 976.642,-189.702 573,-132 562.079,-130.439 550.634,-128.127 539.547,-125.516"/>
<polygon fill="midnightblue" stroke="midnightblue" points="2596.74,-197.537 2606.74,-194.041 2596.74,-190.538 2596.74,-197.537"/>
</g>
<!-- Node6 -->
<g id="node6" class="node"><title>Node6</title>
<g id="a_node6"><a xlink:href="../../d6/dda/testMagneticField_8cxx.html" target="_top" xlink:title="/home/travis/build\l/AliceO2Group/AliceO2\l/Common/Field/test/testMagnetic\lField.cxx">
<polygon fill="none" stroke="black" points="582,-79 582,-131 744,-131 744,-79 582,-79"/>
<text text-anchor="start" x="590" y="-119" font-family="Helvetica,sans-Serif" font-size="10.00">/home/travis/build</text>
<text text-anchor="start" x="590" y="-108" font-family="Helvetica,sans-Serif" font-size="10.00">/AliceO2Group/AliceO2</text>
<text text-anchor="start" x="590" y="-97" font-family="Helvetica,sans-Serif" font-size="10.00">/Common/Field/test/testMagnetic</text>
<text text-anchor="middle" x="663" y="-86" font-family="Helvetica,sans-Serif" font-size="10.00">Field.cxx</text>
</a>
</g>
</g>
<!-- Node1&#45;&gt;Node6 -->
<g id="edge6" class="edge"><title>Node1&#45;&gt;Node6</title>
<path fill="none" stroke="midnightblue" d="M2596.5,-194.059C2297.43,-193.958 1118.73,-189.826 753,-132 750.108,-131.543 747.179,-131.021 744.23,-130.447"/>
<polygon fill="midnightblue" stroke="midnightblue" points="2596.77,-197.559 2606.77,-194.061 2596.77,-190.559 2596.77,-197.559"/>
</g>
<!-- Node7 -->
<g id="node7" class="node"><title>Node7</title>
<g id="a_node7"><a xlink:href="../../d3/dee/Base_2src_2Detector_8cxx.html" target="_top" xlink:title="/home/travis/build\l/AliceO2Group/AliceO2\l/Detectors/Base/src/Detector.cxx">
<polygon fill="none" stroke="black" points="762,-84.5 762,-125.5 926,-125.5 926,-84.5 762,-84.5"/>
<text text-anchor="start" x="770" y="-113.5" font-family="Helvetica,sans-Serif" font-size="10.00">/home/travis/build</text>
<text text-anchor="start" x="770" y="-102.5" font-family="Helvetica,sans-Serif" font-size="10.00">/AliceO2Group/AliceO2</text>
<text text-anchor="middle" x="844" y="-91.5" font-family="Helvetica,sans-Serif" font-size="10.00">/Detectors/Base/src/Detector.cxx</text>
</a>
</g>
</g>
<!-- Node1&#45;&gt;Node7 -->
<g id="edge7" class="edge"><title>Node1&#45;&gt;Node7</title>
<path fill="none" stroke="midnightblue" d="M2596.73,-193.757C2316.13,-192.428 1263.41,-184.005 935,-132 925.101,-130.432 914.752,-128.136 904.73,-125.546"/>
<polygon fill="midnightblue" stroke="midnightblue" points="2596.76,-197.257 2606.77,-193.803 2596.79,-190.257 2596.76,-197.257"/>
</g>
<!-- Node8 -->
<g id="node8" class="node"><title>Node8</title>
<g id="a_node8"><a xlink:href="../../d8/dee/Propagator_8cxx.html" target="_top" xlink:title="/home/travis/build\l/AliceO2Group/AliceO2\l/Detectors/Base/src/Propagator.cxx">
<polygon fill="none" stroke="black" points="944.5,-84.5 944.5,-125.5 1117.5,-125.5 1117.5,-84.5 944.5,-84.5"/>
<text text-anchor="start" x="952.5" y="-113.5" font-family="Helvetica,sans-Serif" font-size="10.00">/home/travis/build</text>
<text text-anchor="start" x="952.5" y="-102.5" font-family="Helvetica,sans-Serif" font-size="10.00">/AliceO2Group/AliceO2</text>
<text text-anchor="middle" x="1031" y="-91.5" font-family="Helvetica,sans-Serif" font-size="10.00">/Detectors/Base/src/Propagator.cxx</text>
</a>
</g>
</g>
<!-- Node1&#45;&gt;Node8 -->
<g id="edge8" class="edge"><title>Node1&#45;&gt;Node8</title>
<path fill="none" stroke="midnightblue" d="M2596.81,-193.272C2336.52,-190.214 1416.35,-176.434 1127,-132 1116.67,-130.414 1105.87,-128.126 1095.38,-125.556"/>
<polygon fill="midnightblue" stroke="midnightblue" points="2596.84,-196.773 2606.88,-193.389 2596.92,-189.773 2596.84,-196.773"/>
</g>
<!-- Node9 -->
<g id="node9" class="node"><title>Node9</title>
<g id="a_node9"><a xlink:href="../../d3/d85/Detectors_2EMCAL_2testsimulation_2run__sim__emcal_8C.html" target="_top" xlink:title="/home/travis/build\l/AliceO2Group/AliceO2\l/Detectors/EMCAL/testsimulation\l/run_sim_emcal.C">
<polygon fill="none" stroke="black" points="1136,-79 1136,-131 1300,-131 1300,-79 1136,-79"/>
<text text-anchor="start" x="1144" y="-119" font-family="Helvetica,sans-Serif" font-size="10.00">/home/travis/build</text>
<text text-anchor="start" x="1144" y="-108" font-family="Helvetica,sans-Serif" font-size="10.00">/AliceO2Group/AliceO2</text>
<text text-anchor="start" x="1144" y="-97" font-family="Helvetica,sans-Serif" font-size="10.00">/Detectors/EMCAL/testsimulation</text>
<text text-anchor="middle" x="1218" y="-86" font-family="Helvetica,sans-Serif" font-size="10.00">/run_sim_emcal.C</text>
</a>
</g>
</g>
<!-- Node1&#45;&gt;Node9 -->
<g id="edge9" class="edge"><title>Node1&#45;&gt;Node9</title>
<path fill="none" stroke="midnightblue" d="M2596.68,-192.962C2356.5,-189.033 1560.82,-173.151 1309,-132 1306.08,-131.523 1303.12,-130.985 1300.15,-130.396"/>
<polygon fill="midnightblue" stroke="midnightblue" points="2596.63,-196.461 2606.69,-193.124 2596.75,-189.462 2596.63,-196.461"/>
</g>
<!-- Node10 -->
<g id="node10" class="node"><title>Node10</title>
<g id="a_node10"><a xlink:href="../../db/d6a/MatchTOF_8cxx.html" target="_top" xlink:title="/home/travis/build\l/AliceO2Group/AliceO2\l/Detectors/GlobalTracking\l/src/MatchTOF.cxx">
<polygon fill="none" stroke="black" points="1318.5,-79 1318.5,-131 1449.5,-131 1449.5,-79 1318.5,-79"/>
<text text-anchor="start" x="1326.5" y="-119" font-family="Helvetica,sans-Serif" font-size="10.00">/home/travis/build</text>
<text text-anchor="start" x="1326.5" y="-108" font-family="Helvetica,sans-Serif" font-size="10.00">/AliceO2Group/AliceO2</text>
<text text-anchor="start" x="1326.5" y="-97" font-family="Helvetica,sans-Serif" font-size="10.00">/Detectors/GlobalTracking</text>
<text text-anchor="middle" x="1384" y="-86" font-family="Helvetica,sans-Serif" font-size="10.00">/src/MatchTOF.cxx</text>
</a>
</g>
</g>
<!-- Node1&#45;&gt;Node10 -->
<g id="edge10" class="edge"><title>Node1&#45;&gt;Node10</title>
<path fill="none" stroke="midnightblue" d="M2596.47,-193.042C2373.54,-189.562 1678.31,-175.417 1458,-132 1455.33,-131.473 1452.62,-130.87 1449.9,-130.206"/>
<polygon fill="midnightblue" stroke="midnightblue" points="2596.68,-196.546 2606.73,-193.2 2596.78,-189.547 2596.68,-196.546"/>
</g>
<!-- Node11 -->
<g id="node11" class="node"><title>Node11</title>
<g id="a_node11"><a xlink:href="../../dc/d59/MatchTPCITS_8cxx.html" target="_top" xlink:title="/home/travis/build\l/AliceO2Group/AliceO2\l/Detectors/GlobalTracking\l/src/MatchTPCITS.cxx">
<polygon fill="none" stroke="black" points="1467.5,-79 1467.5,-131 1598.5,-131 1598.5,-79 1467.5,-79"/>
<text text-anchor="start" x="1475.5" y="-119" font-family="Helvetica,sans-Serif" font-size="10.00">/home/travis/build</text>
<text text-anchor="start" x="1475.5" y="-108" font-family="Helvetica,sans-Serif" font-size="10.00">/AliceO2Group/AliceO2</text>
<text text-anchor="start" x="1475.5" y="-97" font-family="Helvetica,sans-Serif" font-size="10.00">/Detectors/GlobalTracking</text>
<text text-anchor="middle" x="1533" y="-86" font-family="Helvetica,sans-Serif" font-size="10.00">/src/MatchTPCITS.cxx</text>
</a>
</g>
</g>
<!-- Node1&#45;&gt;Node11 -->
<g id="edge11" class="edge"><title>Node1&#45;&gt;Node11</title>
<path fill="none" stroke="midnightblue" d="M2596.59,-192.421C2392.74,-187.389 1798.24,-169.796 1608,-132 1604.89,-131.382 1601.74,-130.666 1598.57,-129.873"/>
<polygon fill="midnightblue" stroke="midnightblue" points="2596.78,-195.926 2606.86,-192.672 2596.95,-188.929 2596.78,-195.926"/>
</g>
<!-- Node12 -->
<g id="node12" class="node"><title>Node12</title>
<g id="a_node12"><a xlink:href="../../d7/dca/CookedTracker_8cxx.html" target="_top" xlink:title="Implementation of the &quot;Cooked Matrix&quot; ITS tracker. ">
<polygon fill="none" stroke="black" points="1617,-79 1617,-131 1803,-131 1803,-79 1617,-79"/>
<text text-anchor="start" x="1625" y="-119" font-family="Helvetica,sans-Serif" font-size="10.00">/home/travis/build</text>
<text text-anchor="start" x="1625" y="-108" font-family="Helvetica,sans-Serif" font-size="10.00">/AliceO2Group/AliceO2</text>
<text text-anchor="start" x="1625" y="-97" font-family="Helvetica,sans-Serif" font-size="10.00">/Detectors/ITSMFT/ITS</text>
<text text-anchor="middle" x="1710" y="-86" font-family="Helvetica,sans-Serif" font-size="10.00">/reconstruction/src/CookedTracker.cxx</text>
</a>
</g>
</g>
<!-- Node1&#45;&gt;Node12 -->
<g id="edge12" class="edge"><title>Node1&#45;&gt;Node12</title>
<path fill="none" stroke="midnightblue" d="M2596.66,-193.116C2450.6,-190.346 2100.91,-178.93 1812,-132 1809.11,-131.531 1806.19,-131.019 1803.24,-130.472"/>
<polygon fill="midnightblue" stroke="midnightblue" points="2596.76,-196.618 2606.82,-193.301 2596.89,-189.62 2596.76,-196.618"/>
</g>
<!-- Node13 -->
<g id="node13" class="node"><title>Node13</title>
<g id="a_node13"><a xlink:href="../../d0/d6b/ITSMFT_2MFT_2simulation_2src_2Detector_8cxx.html" target="_top" xlink:title="/home/travis/build\l/AliceO2Group/AliceO2\l/Detectors/ITSMFT/MFT\l/simulation/src/Detector.cxx">
<polygon fill="none" stroke="black" points="1821,-79 1821,-131 1961,-131 1961,-79 1821,-79"/>
<text text-anchor="start" x="1829" y="-119" font-family="Helvetica,sans-Serif" font-size="10.00">/home/travis/build</text>
<text text-anchor="start" x="1829" y="-108" font-family="Helvetica,sans-Serif" font-size="10.00">/AliceO2Group/AliceO2</text>
<text text-anchor="start" x="1829" y="-97" font-family="Helvetica,sans-Serif" font-size="10.00">/Detectors/ITSMFT/MFT</text>
<text text-anchor="middle" x="1891" y="-86" font-family="Helvetica,sans-Serif" font-size="10.00">/simulation/src/Detector.cxx</text>
</a>
</g>
</g>
<!-- Node1&#45;&gt;Node13 -->
<g id="edge13" class="edge"><title>Node1&#45;&gt;Node13</title>
<path fill="none" stroke="midnightblue" d="M2596.39,-193.053C2470.23,-190.178 2195.92,-178.597 1970,-132 1967.17,-131.417 1964.3,-130.766 1961.42,-130.061"/>
<polygon fill="midnightblue" stroke="midnightblue" points="2596.6,-196.558 2606.67,-193.275 2596.75,-189.56 2596.6,-196.558"/>
</g>
<!-- Node14 -->
<g id="node14" class="node"><title>Node14</title>
<g id="a_node14"><a xlink:href="../../de/da5/FrameStructure_8cxx.html" target="_top" xlink:title="/home/travis/build\l/AliceO2Group/AliceO2\l/Detectors/Passive/src\l/FrameStructure.cxx">
<polygon fill="none" stroke="black" points="1979,-79 1979,-131 2097,-131 2097,-79 1979,-79"/>
<text text-anchor="start" x="1987" y="-119" font-family="Helvetica,sans-Serif" font-size="10.00">/home/travis/build</text>
<text text-anchor="start" x="1987" y="-108" font-family="Helvetica,sans-Serif" font-size="10.00">/AliceO2Group/AliceO2</text>
<text text-anchor="start" x="1987" y="-97" font-family="Helvetica,sans-Serif" font-size="10.00">/Detectors/Passive/src</text>
<text text-anchor="middle" x="2038" y="-86" font-family="Helvetica,sans-Serif" font-size="10.00">/FrameStructure.cxx</text>
</a>
</g>
</g>
<!-- Node1&#45;&gt;Node14 -->
<g id="edge14" class="edge"><title>Node1&#45;&gt;Node14</title>
<path fill="none" stroke="midnightblue" d="M2596.69,-191.989C2489.92,-187.63 2279.37,-174.01 2106,-132 2103.05,-131.286 2100.06,-130.477 2097.06,-129.597"/>
<polygon fill="midnightblue" stroke="midnightblue" points="2596.57,-195.487 2606.7,-192.383 2596.84,-188.492 2596.57,-195.487"/>
</g>
<!-- Node15 -->
<g id="node15" class="node"><title>Node15</title>
<g id="a_node15"><a xlink:href="../../d5/d3a/run__sim__phos_8C.html" target="_top" xlink:title="/home/travis/build\l/AliceO2Group/AliceO2\l/Detectors/PHOS/testsimulation\l/run_sim_phos.C">
<polygon fill="none" stroke="black" points="2115,-79 2115,-131 2273,-131 2273,-79 2115,-79"/>
<text text-anchor="start" x="2123" y="-119" font-family="Helvetica,sans-Serif" font-size="10.00">/home/travis/build</text>
<text text-anchor="start" x="2123" y="-108" font-family="Helvetica,sans-Serif" font-size="10.00">/AliceO2Group/AliceO2</text>
<text text-anchor="start" x="2123" y="-97" font-family="Helvetica,sans-Serif" font-size="10.00">/Detectors/PHOS/testsimulation</text>
<text text-anchor="middle" x="2194" y="-86" font-family="Helvetica,sans-Serif" font-size="10.00">/run_sim_phos.C</text>
</a>
</g>
</g>
<!-- Node1&#45;&gt;Node15 -->
<g id="edge15" class="edge"><title>Node1&#45;&gt;Node15</title>
<path fill="none" stroke="midnightblue" d="M2596.58,-185.496C2519.27,-175.401 2390.86,-156.765 2282,-132 2279.05,-131.329 2276.05,-130.614 2273.03,-129.865"/>
<polygon fill="midnightblue" stroke="midnightblue" points="2596.31,-188.99 2606.67,-186.804 2597.21,-182.048 2596.31,-188.99"/>
</g>
<!-- Node16 -->
<g id="node16" class="node"><title>Node16</title>
<g id="a_node16"><a xlink:href="../../da/d8e/SpaceCharge_8cxx.html" target="_top" xlink:title="Implementation of the interface for the ALICE TPC space&#45;charge distortions calculations. ">
<polygon fill="none" stroke="black" points="2291.5,-79 2291.5,-131 2424.5,-131 2424.5,-79 2291.5,-79"/>
<text text-anchor="start" x="2299.5" y="-119" font-family="Helvetica,sans-Serif" font-size="10.00">/home/travis/build</text>
<text text-anchor="start" x="2299.5" y="-108" font-family="Helvetica,sans-Serif" font-size="10.00">/AliceO2Group/AliceO2</text>
<text text-anchor="start" x="2299.5" y="-97" font-family="Helvetica,sans-Serif" font-size="10.00">/Detectors/TPC/simulation</text>
<text text-anchor="middle" x="2358" y="-86" font-family="Helvetica,sans-Serif" font-size="10.00">/src/SpaceCharge.cxx</text>
</a>
</g>
</g>
<!-- Node1&#45;&gt;Node16 -->
<g id="edge16" class="edge"><title>Node1&#45;&gt;Node16</title>
<path fill="none" stroke="midnightblue" d="M2596.79,-177.006C2550.24,-165.229 2487.63,-148.713 2433,-132 2430.23,-131.153 2427.41,-130.271 2424.57,-129.364"/>
<polygon fill="midnightblue" stroke="midnightblue" points="2596.21,-180.471 2606.77,-179.52 2597.93,-173.683 2596.21,-180.471"/>
</g>
<!-- Node17 -->
<g id="node17" class="node"><title>Node17</title>
<g id="a_node17"><a xlink:href="../../dd/d2b/o2__sim__its__ALP3_8cxx.html" target="_top" xlink:title="/home/travis/build\l/AliceO2Group/AliceO2\l/Framework/TestWorkflows\l/src/o2_sim_its_ALP3.cxx">
<polygon fill="none" stroke="black" points="2442.5,-79 2442.5,-131 2579.5,-131 2579.5,-79 2442.5,-79"/>
<text text-anchor="start" x="2450.5" y="-119" font-family="Helvetica,sans-Serif" font-size="10.00">/home/travis/build</text>
<text text-anchor="start" x="2450.5" y="-108" font-family="Helvetica,sans-Serif" font-size="10.00">/AliceO2Group/AliceO2</text>
<text text-anchor="start" x="2450.5" y="-97" font-family="Helvetica,sans-Serif" font-size="10.00">/Framework/TestWorkflows</text>
<text text-anchor="middle" x="2511" y="-86" font-family="Helvetica,sans-Serif" font-size="10.00">/src/o2_sim_its_ALP3.cxx</text>
</a>
</g>
</g>
<!-- Node1&#45;&gt;Node17 -->
<g id="edge17" class="edge"><title>Node1&#45;&gt;Node17</title>
<path fill="none" stroke="midnightblue" d="M2612.83,-163.815C2594.04,-153.145 2573.12,-141.268 2555.16,-131.069"/>
<polygon fill="midnightblue" stroke="midnightblue" points="2611.16,-166.889 2621.58,-168.783 2614.62,-160.802 2611.16,-166.889"/>
</g>
<!-- Node18 -->
<g id="node18" class="node"><title>Node18</title>
<g id="a_node18"><a xlink:href="../../d7/d11/o2__sim__tpc_8cxx.html" target="_top" xlink:title="/home/travis/build\l/AliceO2Group/AliceO2\l/Framework/TestWorkflows\l/src/o2_sim_tpc.cxx">
<polygon fill="none" stroke="black" points="2597.5,-79 2597.5,-131 2734.5,-131 2734.5,-79 2597.5,-79"/>
<text text-anchor="start" x="2605.5" y="-119" font-family="Helvetica,sans-Serif" font-size="10.00">/home/travis/build</text>
<text text-anchor="start" x="2605.5" y="-108" font-family="Helvetica,sans-Serif" font-size="10.00">/AliceO2Group/AliceO2</text>
<text text-anchor="start" x="2605.5" y="-97" font-family="Helvetica,sans-Serif" font-size="10.00">/Framework/TestWorkflows</text>
<text text-anchor="middle" x="2666" y="-86" font-family="Helvetica,sans-Serif" font-size="10.00">/src/o2_sim_tpc.cxx</text>
</a>
</g>
</g>
<!-- Node1&#45;&gt;Node18 -->
<g id="edge18" class="edge"><title>Node1&#45;&gt;Node18</title>
<path fill="none" stroke="midnightblue" d="M2666,-158.489C2666,-149.309 2666,-139.616 2666,-131.092"/>
<polygon fill="midnightblue" stroke="midnightblue" points="2662.5,-158.547 2666,-168.547 2669.5,-158.547 2662.5,-158.547"/>
</g>
<!-- Node19 -->
<g id="node19" class="node"><title>Node19</title>
<g id="a_node19"><a xlink:href="../../d0/d17/initSimGeomAndField_8C.html" target="_top" xlink:title="/home/travis/build\l/AliceO2Group/AliceO2\l/macro/initSimGeomAndField.C">
<polygon fill="none" stroke="black" points="2752.5,-84.5 2752.5,-125.5 2907.5,-125.5 2907.5,-84.5 2752.5,-84.5"/>
<text text-anchor="start" x="2760.5" y="-113.5" font-family="Helvetica,sans-Serif" font-size="10.00">/home/travis/build</text>
<text text-anchor="start" x="2760.5" y="-102.5" font-family="Helvetica,sans-Serif" font-size="10.00">/AliceO2Group/AliceO2</text>
<text text-anchor="middle" x="2830" y="-91.5" font-family="Helvetica,sans-Serif" font-size="10.00">/macro/initSimGeomAndField.C</text>
</a>
</g>
</g>
<!-- Node1&#45;&gt;Node19 -->
<g id="edge19" class="edge"><title>Node1&#45;&gt;Node19</title>
<path fill="none" stroke="midnightblue" d="M2721.88,-164.017C2745.51,-151.335 2772.38,-136.918 2793.42,-125.628"/>
<polygon fill="midnightblue" stroke="midnightblue" points="2720.15,-160.97 2713,-168.783 2723.46,-167.139 2720.15,-160.97"/>
</g>
<!-- Node20 -->
<g id="node20" class="node"><title>Node20</title>
<g id="a_node20"><a xlink:href="../../d3/db7/run__digi__tpc_8C.html" target="_top" xlink:title="/home/travis/build\l/AliceO2Group/AliceO2\l/macro/run_digi_tpc.C">
<polygon fill="none" stroke="black" points="2926,-84.5 2926,-125.5 3044,-125.5 3044,-84.5 2926,-84.5"/>
<text text-anchor="start" x="2934" y="-113.5" font-family="Helvetica,sans-Serif" font-size="10.00">/home/travis/build</text>
<text text-anchor="start" x="2934" y="-102.5" font-family="Helvetica,sans-Serif" font-size="10.00">/AliceO2Group/AliceO2</text>
<text text-anchor="middle" x="2985" y="-91.5" font-family="Helvetica,sans-Serif" font-size="10.00">/macro/run_digi_tpc.C</text>
</a>
</g>
</g>
<!-- Node1&#45;&gt;Node20 -->
<g id="edge20" class="edge"><title>Node1&#45;&gt;Node20</title>
<path fill="none" stroke="midnightblue" d="M2734.97,-179.186C2785.51,-167.777 2855.56,-150.812 2916,-132 2922.23,-130.06 2928.72,-127.861 2935.12,-125.583"/>
<polygon fill="midnightblue" stroke="midnightblue" points="2734.12,-175.789 2725.13,-181.393 2735.66,-182.619 2734.12,-175.789"/>
</g>
<!-- Node22 -->
<g id="node22" class="node"><title>Node22</title>
<g id="a_node22"><a xlink:href="../../dd/d7c/run__match__tof_8C.html" target="_top" xlink:title="/home/travis/build\l/AliceO2Group/AliceO2\l/macro/run_match_tof.C">
<polygon fill="none" stroke="black" points="3062,-84.5 3062,-125.5 3184,-125.5 3184,-84.5 3062,-84.5"/>
<text text-anchor="start" x="3070" y="-113.5" font-family="Helvetica,sans-Serif" font-size="10.00">/home/travis/build</text>
<text text-anchor="start" x="3070" y="-102.5" font-family="Helvetica,sans-Serif" font-size="10.00">/AliceO2Group/AliceO2</text>
<text text-anchor="middle" x="3123" y="-91.5" font-family="Helvetica,sans-Serif" font-size="10.00">/macro/run_match_tof.C</text>
</a>
</g>
</g>
<!-- Node1&#45;&gt;Node22 -->
<g id="edge22" class="edge"><title>Node1&#45;&gt;Node22</title>
<path fill="none" stroke="midnightblue" d="M2735.3,-187.062C2813.4,-178.285 2943.73,-160.745 3053,-132 3059.9,-130.186 3067.06,-127.951 3074.06,-125.56"/>
<polygon fill="midnightblue" stroke="midnightblue" points="2734.65,-183.612 2725.1,-188.191 2735.42,-190.569 2734.65,-183.612"/>
</g>
<!-- Node23 -->
<g id="node23" class="node"><title>Node23</title>
<g id="a_node23"><a xlink:href="../../d9/d84/run__match__TPCITS_8C.html" target="_top" xlink:title="/home/travis/build\l/AliceO2Group/AliceO2\l/macro/run_match_TPCITS.C">
<polygon fill="none" stroke="black" points="3202.5,-84.5 3202.5,-125.5 3349.5,-125.5 3349.5,-84.5 3202.5,-84.5"/>
<text text-anchor="start" x="3210.5" y="-113.5" font-family="Helvetica,sans-Serif" font-size="10.00">/home/travis/build</text>
<text text-anchor="start" x="3210.5" y="-102.5" font-family="Helvetica,sans-Serif" font-size="10.00">/AliceO2Group/AliceO2</text>
<text text-anchor="middle" x="3276" y="-91.5" font-family="Helvetica,sans-Serif" font-size="10.00">/macro/run_match_TPCITS.C</text>
</a>
</g>
</g>
<!-- Node1&#45;&gt;Node23 -->
<g id="edge23" class="edge"><title>Node1&#45;&gt;Node23</title>
<path fill="none" stroke="midnightblue" d="M2735.18,-189.986C2836.55,-183.177 3030.99,-166.589 3193,-132 3201.27,-130.234 3209.89,-127.997 3218.32,-125.579"/>
<polygon fill="midnightblue" stroke="midnightblue" points="2734.82,-186.502 2725.07,-190.653 2735.28,-193.487 2734.82,-186.502"/>
</g>
<!-- Node24 -->
<g id="node24" class="node"><title>Node24</title>
<g id="a_node24"><a xlink:href="../../dc/d97/run__rec__ca_8C.html" target="_top" xlink:title="/home/travis/build\l/AliceO2Group/AliceO2\l/macro/run_rec_ca.C">
<polygon fill="none" stroke="black" points="3368,-84.5 3368,-125.5 3486,-125.5 3486,-84.5 3368,-84.5"/>
<text text-anchor="start" x="3376" y="-113.5" font-family="Helvetica,sans-Serif" font-size="10.00">/home/travis/build</text>
<text text-anchor="start" x="3376" y="-102.5" font-family="Helvetica,sans-Serif" font-size="10.00">/AliceO2Group/AliceO2</text>
<text text-anchor="middle" x="3427" y="-91.5" font-family="Helvetica,sans-Serif" font-size="10.00">/macro/run_rec_ca.C</text>
</a>
</g>
</g>
<!-- Node1&#45;&gt;Node24 -->
<g id="edge24" class="edge"><title>Node1&#45;&gt;Node24</title>
<path fill="none" stroke="midnightblue" d="M2735.42,-193.955C2861.18,-192.516 3134.41,-183.141 3358,-132 3365.36,-130.316 3373,-128.027 3380.39,-125.502"/>
<polygon fill="midnightblue" stroke="midnightblue" points="2735.13,-190.457 2725.16,-194.058 2735.2,-197.457 2735.13,-190.457"/>
</g>
<!-- Node25 -->
<g id="node25" class="node"><title>Node25</title>
<g id="a_node25"><a xlink:href="../../d9/d71/run__sim_8C.html" target="_top" xlink:title="/home/travis/build\l/AliceO2Group/AliceO2\l/macro/run_sim.C">
<polygon fill="none" stroke="black" points="3504,-84.5 3504,-125.5 3622,-125.5 3622,-84.5 3504,-84.5"/>
<text text-anchor="start" x="3512" y="-113.5" font-family="Helvetica,sans-Serif" font-size="10.00">/home/travis/build</text>
<text text-anchor="start" x="3512" y="-102.5" font-family="Helvetica,sans-Serif" font-size="10.00">/AliceO2Group/AliceO2</text>
<text text-anchor="middle" x="3563" y="-91.5" font-family="Helvetica,sans-Serif" font-size="10.00">/macro/run_sim.C</text>
</a>
</g>
</g>
<!-- Node1&#45;&gt;Node25 -->
<g id="edge25" class="edge"><title>Node1&#45;&gt;Node25</title>
<path fill="none" stroke="midnightblue" d="M2735.49,-191.398C2907.74,-184.531 3350.93,-164.205 3495,-132 3502.28,-130.373 3509.81,-128.115 3517.1,-125.603"/>
<polygon fill="midnightblue" stroke="midnightblue" points="2735.13,-187.909 2725.27,-191.802 2735.4,-194.904 2735.13,-187.909"/>
</g>
<!-- Node26 -->
<g id="node26" class="node"><title>Node26</title>
<g id="a_node26"><a xlink:href="../../db/df3/macro_2run__sim__emcal_8C.html" target="_top" xlink:title="/home/travis/build\l/AliceO2Group/AliceO2\l/macro/run_sim_emcal.C">
<polygon fill="none" stroke="black" points="3640,-84.5 3640,-125.5 3766,-125.5 3766,-84.5 3640,-84.5"/>
<text text-anchor="start" x="3648" y="-113.5" font-family="Helvetica,sans-Serif" font-size="10.00">/home/travis/build</text>
<text text-anchor="start" x="3648" y="-102.5" font-family="Helvetica,sans-Serif" font-size="10.00">/AliceO2Group/AliceO2</text>
<text text-anchor="middle" x="3703" y="-91.5" font-family="Helvetica,sans-Serif" font-size="10.00">/macro/run_sim_emcal.C</text>
</a>
</g>
</g>
<!-- Node1&#45;&gt;Node26 -->
<g id="edge26" class="edge"><title>Node1&#45;&gt;Node26</title>
<path fill="none" stroke="midnightblue" d="M2735.54,-192.078C2927.11,-186.377 3459.63,-167.694 3631,-132 3638.81,-130.374 3646.91,-128.082 3654.74,-125.525"/>
<polygon fill="midnightblue" stroke="midnightblue" points="2735.21,-188.586 2725.31,-192.379 2735.41,-195.583 2735.21,-188.586"/>
</g>
<!-- Node27 -->
<g id="node27" class="node"><title>Node27</title>
<g id="a_node27"><a xlink:href="../../d5/dd2/run__sim__its__ALP3_8C.html" target="_top" xlink:title="/home/travis/build\l/AliceO2Group/AliceO2\l/macro/run_sim_its_ALP3.C">
<polygon fill="none" stroke="black" points="3784,-84.5 3784,-125.5 3924,-125.5 3924,-84.5 3784,-84.5"/>
<text text-anchor="start" x="3792" y="-113.5" font-family="Helvetica,sans-Serif" font-size="10.00">/home/travis/build</text>
<text text-anchor="start" x="3792" y="-102.5" font-family="Helvetica,sans-Serif" font-size="10.00">/AliceO2Group/AliceO2</text>
<text text-anchor="middle" x="3854" y="-91.5" font-family="Helvetica,sans-Serif" font-size="10.00">/macro/run_sim_its_ALP3.C</text>
</a>
</g>
</g>
<!-- Node1&#45;&gt;Node27 -->
<g id="edge27" class="edge"><title>Node1&#45;&gt;Node27</title>
<path fill="none" stroke="midnightblue" d="M2735.45,-192.496C2945.88,-187.562 3574.23,-169.967 3775,-132 3783.51,-130.39 3792.37,-128.107 3800.95,-125.554"/>
<polygon fill="midnightblue" stroke="midnightblue" points="2735.07,-189.003 2725.16,-192.735 2735.24,-196.001 2735.07,-189.003"/>
</g>
<!-- Node28 -->
<g id="node28" class="node"><title>Node28</title>
<g id="a_node28"><a xlink:href="../../d4/d5f/run__sim__mft_8C.html" target="_top" xlink:title="/home/travis/build\l/AliceO2Group/AliceO2\l/macro/run_sim_mft.C">
<polygon fill="none" stroke="black" points="3942,-84.5 3942,-125.5 4060,-125.5 4060,-84.5 3942,-84.5"/>
<text text-anchor="start" x="3950" y="-113.5" font-family="Helvetica,sans-Serif" font-size="10.00">/home/travis/build</text>
<text text-anchor="start" x="3950" y="-102.5" font-family="Helvetica,sans-Serif" font-size="10.00">/AliceO2Group/AliceO2</text>
<text text-anchor="middle" x="4001" y="-91.5" font-family="Helvetica,sans-Serif" font-size="10.00">/macro/run_sim_mft.C</text>
</a>
</g>
</g>
<!-- Node1&#45;&gt;Node28 -->
<g id="edge28" class="edge"><title>Node1&#45;&gt;Node28</title>
<path fill="none" stroke="midnightblue" d="M2735.43,-193.482C2965.49,-191.315 3701.37,-180.656 3933,-132 3940.55,-130.415 3948.36,-128.109 3955.88,-125.516"/>
<polygon fill="midnightblue" stroke="midnightblue" points="2735.15,-189.984 2725.18,-193.576 2735.22,-196.984 2735.15,-189.984"/>
</g>
<!-- Node29 -->
<g id="node29" class="node"><title>Node29</title>
<g id="a_node29"><a xlink:href="../../d3/dcc/run__sim__pythia8hi_8C.html" target="_top" xlink:title="/home/travis/build\l/AliceO2Group/AliceO2\l/macro/run_sim_pythia8hi.C">
<polygon fill="none" stroke="black" points="4078.5,-84.5 4078.5,-125.5 4217.5,-125.5 4217.5,-84.5 4078.5,-84.5"/>
<text text-anchor="start" x="4086.5" y="-113.5" font-family="Helvetica,sans-Serif" font-size="10.00">/home/travis/build</text>
<text text-anchor="start" x="4086.5" y="-102.5" font-family="Helvetica,sans-Serif" font-size="10.00">/AliceO2Group/AliceO2</text>
<text text-anchor="middle" x="4148" y="-91.5" font-family="Helvetica,sans-Serif" font-size="10.00">/macro/run_sim_pythia8hi.C</text>
</a>
</g>
</g>
<!-- Node1&#45;&gt;Node29 -->
<g id="edge29" class="edge"><title>Node1&#45;&gt;Node29</title>
<path fill="none" stroke="midnightblue" d="M2735.62,-193.438C2981.57,-191.063 3808.78,-179.637 4069,-132 4077.66,-130.414 4086.68,-128.108 4095.4,-125.514"/>
<polygon fill="midnightblue" stroke="midnightblue" points="2735.35,-189.941 2725.38,-193.535 2735.42,-196.94 2735.35,-189.941"/>
</g>
<!-- Node30 -->
<g id="node30" class="node"><title>Node30</title>
<g id="a_node30"><a xlink:href="../../dc/d6a/run__sim__tof_8C.html" target="_top" xlink:title="/home/travis/build\l/AliceO2Group/AliceO2\l/macro/run_sim_tof.C">
<polygon fill="none" stroke="black" points="4236,-84.5 4236,-125.5 4354,-125.5 4354,-84.5 4236,-84.5"/>
<text text-anchor="start" x="4244" y="-113.5" font-family="Helvetica,sans-Serif" font-size="10.00">/home/travis/build</text>
<text text-anchor="start" x="4244" y="-102.5" font-family="Helvetica,sans-Serif" font-size="10.00">/AliceO2Group/AliceO2</text>
<text text-anchor="middle" x="4295" y="-91.5" font-family="Helvetica,sans-Serif" font-size="10.00">/macro/run_sim_tof.C</text>
</a>
</g>
</g>
<!-- Node1&#45;&gt;Node30 -->
<g id="edge30" class="edge"><title>Node1&#45;&gt;Node30</title>
<path fill="none" stroke="midnightblue" d="M2735.4,-194.184C2998.59,-194.427 3934.86,-191.029 4226,-132 4233.65,-130.448 4241.58,-128.16 4249.21,-125.574"/>
<polygon fill="midnightblue" stroke="midnightblue" points="2735.22,-190.684 2725.22,-194.173 2735.21,-197.684 2735.22,-190.684"/>
</g>
<!-- Node31 -->
<g id="node31" class="node"><title>Node31</title>
<g id="a_node31"><a xlink:href="../../d7/d08/run__sim__tpc_8C.html" target="_top" xlink:title="/home/travis/build\l/AliceO2Group/AliceO2\l/macro/run_sim_tpc.C">
<polygon fill="none" stroke="black" points="4372,-84.5 4372,-125.5 4490,-125.5 4490,-84.5 4372,-84.5"/>
<text text-anchor="start" x="4380" y="-113.5" font-family="Helvetica,sans-Serif" font-size="10.00">/home/travis/build</text>
<text text-anchor="start" x="4380" y="-102.5" font-family="Helvetica,sans-Serif" font-size="10.00">/AliceO2Group/AliceO2</text>
<text text-anchor="middle" x="4431" y="-91.5" font-family="Helvetica,sans-Serif" font-size="10.00">/macro/run_sim_tpc.C</text>
</a>
</g>
</g>
<!-- Node1&#45;&gt;Node31 -->
<g id="edge31" class="edge"><title>Node1&#45;&gt;Node31</title>
<path fill="none" stroke="midnightblue" d="M2735.39,-194.489C3013.02,-195.98 4044.09,-196.932 4363,-132 4370.55,-130.462 4378.37,-128.18 4385.89,-125.597"/>
<polygon fill="midnightblue" stroke="midnightblue" points="2735.08,-190.987 2725.06,-194.432 2735.04,-197.987 2735.08,-190.987"/>
</g>
<!-- Node32 -->
<g id="node32" class="node"><title>Node32</title>
<g id="a_node32"><a xlink:href="../../d6/db2/run__trac__ca__its_8C.html" target="_top" xlink:title="/home/travis/build\l/AliceO2Group/AliceO2\l/macro/run_trac_ca_its.C">
<polygon fill="none" stroke="black" points="4508.5,-84.5 4508.5,-125.5 4635.5,-125.5 4635.5,-84.5 4508.5,-84.5"/>
<text text-anchor="start" x="4516.5" y="-113.5" font-family="Helvetica,sans-Serif" font-size="10.00">/home/travis/build</text>
<text text-anchor="start" x="4516.5" y="-102.5" font-family="Helvetica,sans-Serif" font-size="10.00">/AliceO2Group/AliceO2</text>
<text text-anchor="middle" x="4572" y="-91.5" font-family="Helvetica,sans-Serif" font-size="10.00">/macro/run_trac_ca_its.C</text>
</a>
</g>
</g>
<!-- Node1&#45;&gt;Node32 -->
<g id="edge33" class="edge"><title>Node1&#45;&gt;Node32</title>
<path fill="none" stroke="midnightblue" d="M2735.69,-192.912C3049.51,-187.84 4323.67,-165.353 4499,-132 4507.06,-130.466 4515.43,-128.187 4523.49,-125.605"/>
<polygon fill="midnightblue" stroke="midnightblue" points="2735.32,-189.417 2725.38,-193.078 2735.43,-196.416 2735.32,-189.417"/>
</g>
<!-- Node33 -->
<g id="node33" class="node"><title>Node33</title>
<g id="a_node33"><a xlink:href="../../dd/d4e/run__trac__its_8C.html" target="_top" xlink:title="/home/travis/build\l/AliceO2Group/AliceO2\l/macro/run_trac_its.C">
<polygon fill="none" stroke="black" points="4654,-84.5 4654,-125.5 4772,-125.5 4772,-84.5 4654,-84.5"/>
<text text-anchor="start" x="4662" y="-113.5" font-family="Helvetica,sans-Serif" font-size="10.00">/home/travis/build</text>
<text text-anchor="start" x="4662" y="-102.5" font-family="Helvetica,sans-Serif" font-size="10.00">/AliceO2Group/AliceO2</text>
<text text-anchor="middle" x="4713" y="-91.5" font-family="Helvetica,sans-Serif" font-size="10.00">/macro/run_trac_its.C</text>
</a>
</g>
</g>
<!-- Node1&#45;&gt;Node33 -->
<g id="edge34" class="edge"><title>Node1&#45;&gt;Node33</title>
<path fill="none" stroke="midnightblue" d="M2735.5,-193.174C3064.11,-189.086 4454.02,-169.689 4644,-132 4651.79,-130.456 4659.85,-128.134 4667.59,-125.503"/>
<polygon fill="midnightblue" stroke="midnightblue" points="2735.13,-189.678 2725.17,-193.302 2735.21,-196.678 2735.13,-189.678"/>
</g>
<!-- Node34 -->
<g id="node34" class="node"><title>Node34</title>
<g id="a_node34"><a xlink:href="../../d6/d3f/run__trac__mft_8C.html" target="_top" xlink:title="/home/travis/build\l/AliceO2Group/AliceO2\l/macro/run_trac_mft.C">
<polygon fill="none" stroke="black" points="4790,-84.5 4790,-125.5 4908,-125.5 4908,-84.5 4790,-84.5"/>
<text text-anchor="start" x="4798" y="-113.5" font-family="Helvetica,sans-Serif" font-size="10.00">/home/travis/build</text>
<text text-anchor="start" x="4798" y="-102.5" font-family="Helvetica,sans-Serif" font-size="10.00">/AliceO2Group/AliceO2</text>
<text text-anchor="middle" x="4849" y="-91.5" font-family="Helvetica,sans-Serif" font-size="10.00">/macro/run_trac_mft.C</text>
</a>
</g>
</g>
<!-- Node1&#45;&gt;Node34 -->
<g id="edge35" class="edge"><title>Node1&#45;&gt;Node34</title>
<path fill="none" stroke="midnightblue" d="M2735.28,-193.348C3077.23,-189.942 4576.95,-172.78 4781,-132 4788.68,-130.464 4796.64,-128.147 4804.27,-125.518"/>
<polygon fill="midnightblue" stroke="midnightblue" points="2735.23,-189.848 2725.26,-193.447 2735.29,-196.847 2735.23,-189.848"/>
</g>
<!-- Node35 -->
<g id="node35" class="node"><title>Node35</title>
<g id="a_node35"><a xlink:href="../../d4/da9/run__vert__ca__its_8C.html" target="_top" xlink:title="/home/travis/build\l/AliceO2Group/AliceO2\l/macro/run_vert_ca_its.C">
<polygon fill="none" stroke="black" points="4926.5,-84.5 4926.5,-125.5 5053.5,-125.5 5053.5,-84.5 4926.5,-84.5"/>
<text text-anchor="start" x="4934.5" y="-113.5" font-family="Helvetica,sans-Serif" font-size="10.00">/home/travis/build</text>
<text text-anchor="start" x="4934.5" y="-102.5" font-family="Helvetica,sans-Serif" font-size="10.00">/AliceO2Group/AliceO2</text>
<text text-anchor="middle" x="4990" y="-91.5" font-family="Helvetica,sans-Serif" font-size="10.00">/macro/run_vert_ca_its.C</text>
</a>
</g>
</g>
<!-- Node1&#45;&gt;Node35 -->
<g id="edge36" class="edge"><title>Node1&#45;&gt;Node35</title>
<path fill="none" stroke="midnightblue" d="M2735.33,-193.386C3090.55,-190.064 4698.43,-172.868 4917,-132 4925.2,-130.467 4933.71,-128.151 4941.9,-125.522"/>
<polygon fill="midnightblue" stroke="midnightblue" points="2735.15,-189.887 2725.19,-193.48 2735.22,-196.887 2735.15,-189.887"/>
</g>
<!-- Node2&#45;&gt;Node3 -->
<g id="edge2" class="edge"><title>Node2&#45;&gt;Node3</title>
<path fill="none" stroke="midnightblue" d="M76.8533,-69.9541C81.9023,-60.3259 87.2276,-50.1706 91.6714,-41.6965"/>
<polygon fill="midnightblue" stroke="midnightblue" points="73.6795,-68.4701 72.1351,-78.9517 79.8789,-71.721 73.6795,-68.4701"/>
</g>
<!-- Node21 -->
<g id="node21" class="node"><title>Node21</title>
<g id="a_node21"><a xlink:href="../../d3/d56/runTPC_8cxx.html" target="_top" xlink:title="/home/travis/build\l/AliceO2Group/AliceO2\l/run/runTPC.cxx">
<polygon fill="none" stroke="black" points="3649,-0.5 3649,-41.5 3767,-41.5 3767,-0.5 3649,-0.5"/>
<text text-anchor="start" x="3657" y="-29.5" font-family="Helvetica,sans-Serif" font-size="10.00">/home/travis/build</text>
<text text-anchor="start" x="3657" y="-18.5" font-family="Helvetica,sans-Serif" font-size="10.00">/AliceO2Group/AliceO2</text>
<text text-anchor="middle" x="3708" y="-7.5" font-family="Helvetica,sans-Serif" font-size="10.00">/run/runTPC.cxx</text>
</a>
</g>
</g>
<!-- Node20&#45;&gt;Node21 -->
<g id="edge21" class="edge"><title>Node20&#45;&gt;Node21</title>
<path fill="none" stroke="midnightblue" d="M3040.58,-81.3266C3044.74,-80.0677 3048.91,-78.9368 3053,-78 3268.54,-28.6123 3533.01,-21.9045 3648.88,-21.5626"/>
<polygon fill="midnightblue" stroke="midnightblue" points="3039.35,-78.0464 3030.92,-84.4653 3041.51,-84.7038 3039.35,-78.0464"/>
</g>
<!-- Node31&#45;&gt;Node21 -->
<g id="edge32" class="edge"><title>Node31&#45;&gt;Node21</title>
<path fill="none" stroke="midnightblue" d="M4375.42,-81.3266C4371.26,-80.0677 4367.09,-78.9368 4363,-78 4147.46,-28.6123 3882.99,-21.9045 3767.12,-21.5626"/>
<polygon fill="midnightblue" stroke="midnightblue" points="4374.49,-84.7038 4385.08,-84.4653 4376.65,-78.0464 4374.49,-84.7038"/>
</g>
</g>
</svg>
