<?xml version="1.0" encoding="UTF-8" standalone="no"?>
<!DOCTYPE svg PUBLIC "-//W3C//DTD SVG 1.1//EN"
 "http://www.w3.org/Graphics/SVG/1.1/DTD/svg11.dtd">
<!-- Generated by graphviz version 2.36.0 (20140111.2315)
 -->
<!-- Title: /home/travis/build/AliceO2Group/AliceO2/Algorithm/test/headerstack.cxx Pages: 1 -->
<svg width="2095pt" height="242pt"
 viewBox="0.00 0.00 2095.00 242.00" xmlns="http://www.w3.org/2000/svg" xmlns:xlink="http://www.w3.org/1999/xlink">
<g id="graph0" class="graph" transform="scale(1 1) rotate(0) translate(4 238)">
<title>/home/travis/build/AliceO2Group/AliceO2/Algorithm/test/headerstack.cxx</title>
<!-- Node1 -->
<g id="node1" class="node"><title>Node1</title>
<polygon fill="#bfbfbf" stroke="black" points="279.5,-192.5 279.5,-233.5 434.5,-233.5 434.5,-192.5 279.5,-192.5"/>
<text text-anchor="start" x="287.5" y="-221.5" font-family="Helvetica,sans-Serif" font-size="10.00">/home/travis/build</text>
<text text-anchor="start" x="287.5" y="-210.5" font-family="Helvetica,sans-Serif" font-size="10.00">/AliceO2Group/AliceO2</text>
<text text-anchor="middle" x="357" y="-199.5" font-family="Helvetica,sans-Serif" font-size="10.00">/Algorithm/test/headerstack.cxx</text>
</g>
<!-- Node2 -->
<g id="node2" class="node"><title>Node2</title>
<polygon fill="none" stroke="#bfbfbf" points="30.5,-130.5 30.5,-149.5 149.5,-149.5 149.5,-130.5 30.5,-130.5"/>
<text text-anchor="middle" x="90" y="-137.5" font-family="Helvetica,sans-Serif" font-size="10.00">boost/test/unit_test.hpp</text>
</g>
<!-- Node1&#45;&gt;Node2 -->
<g id="edge1" class="edge"><title>Node1&#45;&gt;Node2</title>
<path fill="none" stroke="midnightblue" d="M283.334,-192.411C234.526,-179.432 172.265,-162.876 131.783,-152.111"/>
<polygon fill="midnightblue" stroke="midnightblue" points="132.545,-148.692 121.982,-149.504 130.746,-155.457 132.545,-148.692"/>
</g>
<!-- Node3 -->
<g id="node3" class="node"><title>Node3</title>
<polygon fill="none" stroke="#bfbfbf" points="168,-130.5 168,-149.5 222,-149.5 222,-130.5 168,-130.5"/>
<text text-anchor="middle" x="195" y="-137.5" font-family="Helvetica,sans-Serif" font-size="10.00">iostream</text>
</g>
<!-- Node1&#45;&gt;Node3 -->
<g id="edge2" class="edge"><title>Node1&#45;&gt;Node3</title>
<path fill="none" stroke="midnightblue" d="M312.304,-192.411C284.153,-180.073 248.625,-164.502 224.085,-153.747"/>
<polygon fill="midnightblue" stroke="midnightblue" points="225.179,-150.405 214.615,-149.597 222.369,-156.817 225.179,-150.405"/>
</g>
<!-- Node4 -->
<g id="node4" class="node"><title>Node4</title>
<polygon fill="none" stroke="#bfbfbf" points="240,-130.5 240,-149.5 290,-149.5 290,-130.5 240,-130.5"/>
<text text-anchor="middle" x="265" y="-137.5" font-family="Helvetica,sans-Serif" font-size="10.00">iomanip</text>
</g>
<!-- Node1&#45;&gt;Node4 -->
<g id="edge3" class="edge"><title>Node1&#45;&gt;Node4</title>
<path fill="none" stroke="midnightblue" d="M331.373,-192.223C316.544,-180.778 298.175,-166.603 284.524,-156.067"/>
<polygon fill="midnightblue" stroke="midnightblue" points="286.373,-153.074 276.318,-149.735 282.097,-158.615 286.373,-153.074"/>
</g>
<!-- Node5 -->
<g id="node5" class="node"><title>Node5</title>
<polygon fill="none" stroke="#bfbfbf" points="568,-6.5 568,-25.5 614,-25.5 614,-6.5 568,-6.5"/>
<text text-anchor="middle" x="591" y="-13.5" font-family="Helvetica,sans-Serif" font-size="10.00">cstring</text>
</g>
<!-- Node1&#45;&gt;Node5 -->
<g id="edge4" class="edge"><title>Node1&#45;&gt;Node5</title>
<path fill="none" stroke="midnightblue" d="M434.562,-204.276C496.764,-196.29 576.887,-181.346 597,-156 624.692,-121.103 609.368,-64.34 598.636,-35.332"/>
<polygon fill="midnightblue" stroke="midnightblue" points="601.759,-33.7072 594.847,-25.6768 595.242,-36.2643 601.759,-33.7072"/>
</g>
<!-- Node6 -->
<g id="node6" class="node"><title>Node6</title>
<g id="a_node6"><a xlink:href="../../dc/dcd/DataHeader_8h.html" target="_top" xlink:title="Headers/DataHeader.h">
<polygon fill="none" stroke="black" points="338.5,-68.5 338.5,-87.5 455.5,-87.5 455.5,-68.5 338.5,-68.5"/>
<text text-anchor="middle" x="397" y="-75.5" font-family="Helvetica,sans-Serif" font-size="10.00">Headers/DataHeader.h</text>
</a>
</g>
</g>
<!-- Node1&#45;&gt;Node6 -->
<g id="edge5" class="edge"><title>Node1&#45;&gt;Node6</title>
<path fill="none" stroke="midnightblue" d="M345.616,-192.21C336.605,-173.75 327.184,-145.852 338,-124 344.603,-110.659 357.265,-100.194 369.171,-92.7262"/>
<polygon fill="midnightblue" stroke="midnightblue" points="371.118,-95.6435 378.016,-87.6018 367.609,-89.5866 371.118,-95.6435"/>
</g>
<!-- Node14 -->
<g id="node14" class="node"><title>Node14</title>
<g id="a_node14"><a xlink:href="../../d6/d2e/NameHeader_8h.html" target="_top" xlink:title="Headers/NameHeader.h">
<polygon fill="none" stroke="black" points="466,-130.5 466,-149.5 588,-149.5 588,-130.5 466,-130.5"/>
<text text-anchor="middle" x="527" y="-137.5" font-family="Helvetica,sans-Serif" font-size="10.00">Headers/NameHeader.h</text>
</a>
</g>
</g>
<!-- Node1&#45;&gt;Node14 -->
<g id="edge14" class="edge"><title>Node1&#45;&gt;Node14</title>
<path fill="none" stroke="midnightblue" d="M403.903,-192.411C433.707,-179.963 471.39,-164.225 497.163,-153.461"/>
<polygon fill="midnightblue" stroke="midnightblue" points="498.537,-156.68 506.416,-149.597 495.84,-150.221 498.537,-156.68"/>
</g>
<!-- Node15 -->
<g id="node15" class="node"><title>Node15</title>
<g id="a_node15"><a xlink:href="../../d4/d00/Headers_2include_2Headers_2Stack_8h.html" target="_top" xlink:title="Headers/Stack.h">
<polygon fill="none" stroke="black" points="644,-130.5 644,-149.5 734,-149.5 734,-130.5 644,-130.5"/>
<text text-anchor="middle" x="689" y="-137.5" font-family="Helvetica,sans-Serif" font-size="10.00">Headers/Stack.h</text>
</a>
</g>
</g>
<!-- Node1&#45;&gt;Node15 -->
<g id="edge17" class="edge"><title>Node1&#45;&gt;Node15</title>
<path fill="none" stroke="midnightblue" d="M434.579,-197.087C489.332,-186.318 564.335,-171.073 630,-156 635.408,-154.759 641.079,-153.395 646.678,-152.013"/>
<polygon fill="midnightblue" stroke="midnightblue" points="647.757,-155.351 656.606,-149.525 646.055,-148.561 647.757,-155.351"/>
</g>
<!-- Node29 -->
<g id="node29" class="node"><title>Node29</title>
<g id="a_node29"><a xlink:href="../../d5/d11/HeaderStack_8h.html" target="_top" xlink:title="Utilities for the O2 header stack. ">
<polygon fill="none" stroke="black" points="346.5,-125 346.5,-155 447.5,-155 447.5,-125 346.5,-125"/>
<text text-anchor="start" x="354.5" y="-143" font-family="Helvetica,sans-Serif" font-size="10.00">../include/Algorithm</text>
<text text-anchor="middle" x="397" y="-132" font-family="Helvetica,sans-Serif" font-size="10.00">/HeaderStack.h</text>
</a>
</g>
</g>
<!-- Node1&#45;&gt;Node29 -->
<g id="edge34" class="edge"><title>Node1&#45;&gt;Node29</title>
<path fill="none" stroke="midnightblue" d="M368.142,-192.223C373.083,-183.452 378.928,-173.077 384.062,-163.966"/>
<polygon fill="midnightblue" stroke="midnightblue" points="387.226,-165.479 389.085,-155.049 381.127,-162.043 387.226,-165.479"/>
</g>
<!-- Node6&#45;&gt;Node5 -->
<g id="edge9" class="edge"><title>Node6&#45;&gt;Node5</title>
<path fill="none" stroke="midnightblue" d="M433.633,-68.4732C466.599,-60.3979 516.145,-47.2588 558,-32 559.907,-31.3048 561.857,-30.5468 563.809,-29.7527"/>
<polygon fill="midnightblue" stroke="midnightblue" points="565.608,-32.7882 573.397,-25.6066 562.829,-26.3632 565.608,-32.7882"/>
</g>
<!-- Node7 -->
<g id="node7" class="node"><title>Node7</title>
<polygon fill="none" stroke="#bfbfbf" points="307,-6.5 307,-25.5 353,-25.5 353,-6.5 307,-6.5"/>
<text text-anchor="middle" x="330" y="-13.5" font-family="Helvetica,sans-Serif" font-size="10.00">cstdint</text>
</g>
<!-- Node6&#45;&gt;Node7 -->
<g id="edge6" class="edge"><title>Node6&#45;&gt;Node7</title>
<path fill="none" stroke="midnightblue" d="M387.401,-68.4035C376.952,-59.047 360.032,-43.8948 347.264,-32.4599"/>
<polygon fill="midnightblue" stroke="midnightblue" points="349.366,-29.6445 339.582,-25.5806 344.696,-34.8592 349.366,-29.6445"/>
</g>
<!-- Node8 -->
<g id="node8" class="node"><title>Node8</title>
<polygon fill="none" stroke="#bfbfbf" points="371,-6.5 371,-25.5 423,-25.5 423,-6.5 371,-6.5"/>
<text text-anchor="middle" x="397" y="-13.5" font-family="Helvetica,sans-Serif" font-size="10.00">memory</text>
</g>
<!-- Node6&#45;&gt;Node8 -->
<g id="edge7" class="edge"><title>Node6&#45;&gt;Node8</title>
<path fill="none" stroke="midnightblue" d="M397,-68.4035C397,-59.9381 397,-46.7283 397,-35.8199"/>
<polygon fill="midnightblue" stroke="midnightblue" points="400.5,-35.5806 397,-25.5806 393.5,-35.5806 400.5,-35.5806"/>
</g>
<!-- Node9 -->
<g id="node9" class="node"><title>Node9</title>
<polygon fill="none" stroke="#bfbfbf" points="441.5,-6.5 441.5,-25.5 490.5,-25.5 490.5,-6.5 441.5,-6.5"/>
<text text-anchor="middle" x="466" y="-13.5" font-family="Helvetica,sans-Serif" font-size="10.00">cassert</text>
</g>
<!-- Node6&#45;&gt;Node9 -->
<g id="edge8" class="edge"><title>Node6&#45;&gt;Node9</title>
<path fill="none" stroke="midnightblue" d="M406.886,-68.4035C417.646,-59.047 435.071,-43.8948 448.221,-32.4599"/>
<polygon fill="midnightblue" stroke="midnightblue" points="450.883,-34.7835 456.132,-25.5806 446.29,-29.5013 450.883,-34.7835"/>
</g>
<!-- Node10 -->
<g id="node10" class="node"><title>Node10</title>
<polygon fill="none" stroke="#bfbfbf" points="0,-6.5 0,-25.5 56,-25.5 56,-6.5 0,-6.5"/>
<text text-anchor="middle" x="28" y="-13.5" font-family="Helvetica,sans-Serif" font-size="10.00">algorithm</text>
</g>
<!-- Node6&#45;&gt;Node10 -->
<g id="edge10" class="edge"><title>Node6&#45;&gt;Node10</title>
<path fill="none" stroke="midnightblue" d="M338.256,-73.4951C271.218,-68.4747 158.733,-56.929 65,-32 62.015,-31.2061 58.948,-30.2341 55.9181,-29.17"/>
<polygon fill="midnightblue" stroke="midnightblue" points="57.1016,-25.8754 46.5114,-25.5627 54.5952,-32.4113 57.1016,-25.8754"/>
</g>
<!-- Node11 -->
<g id="node11" class="node"><title>Node11</title>
<polygon fill="none" stroke="#bfbfbf" points="74.5,-6.5 74.5,-25.5 133.5,-25.5 133.5,-6.5 74.5,-6.5"/>
<text text-anchor="middle" x="104" y="-13.5" font-family="Helvetica,sans-Serif" font-size="10.00">stdexcept</text>
</g>
<!-- Node6&#45;&gt;Node11 -->
<g id="edge11" class="edge"><title>Node6&#45;&gt;Node11</title>
<path fill="none" stroke="midnightblue" d="M338.267,-70.0544C286.092,-63.0793 208.082,-50.6677 142,-32 139.025,-31.1595 135.96,-30.1702 132.924,-29.1073"/>
<polygon fill="midnightblue" stroke="midnightblue" points="134.056,-25.7935 123.464,-25.5528 131.594,-32.3463 134.056,-25.7935"/>
</g>
<!-- Node12 -->
<g id="node12" class="node"><title>Node12</title>
<polygon fill="none" stroke="#bfbfbf" points="508.5,-6.5 508.5,-25.5 549.5,-25.5 549.5,-6.5 508.5,-6.5"/>
<text text-anchor="middle" x="529" y="-13.5" font-family="Helvetica,sans-Serif" font-size="10.00">string</text>
</g>
<!-- Node6&#45;&gt;Node12 -->
<g id="edge12" class="edge"><title>Node6&#45;&gt;Node12</title>
<path fill="none" stroke="midnightblue" d="M417.064,-68.4869C437.727,-59.6406 470.801,-45.2609 499,-32 500.35,-31.365 501.731,-30.7068 503.122,-30.0365"/>
<polygon fill="midnightblue" stroke="midnightblue" points="504.818,-33.103 512.251,-25.5528 501.732,-26.82 504.818,-33.103"/>
</g>
<!-- Node13 -->
<g id="node13" class="node"><title>Node13</title>
<g id="a_node13"><a xlink:href="../../d7/df8/Types_8h.html" target="_top" xlink:title="MemoryResources/Types.h">
<polygon fill="none" stroke="black" points="151.5,-6.5 151.5,-25.5 288.5,-25.5 288.5,-6.5 151.5,-6.5"/>
<text text-anchor="middle" x="220" y="-13.5" font-family="Helvetica,sans-Serif" font-size="10.00">MemoryResources/Types.h</text>
</a>
</g>
</g>
<!-- Node6&#45;&gt;Node13 -->
<g id="edge13" class="edge"><title>Node6&#45;&gt;Node13</title>
<path fill="none" stroke="midnightblue" d="M371.64,-68.4035C341.016,-58.0222 289.343,-40.5062 254.954,-28.849"/>
<polygon fill="midnightblue" stroke="midnightblue" points="255.907,-25.4763 245.313,-25.5806 253.66,-32.1058 255.907,-25.4763"/>
</g>
<!-- Node14&#45;&gt;Node6 -->
<g id="edge16" class="edge"><title>Node14&#45;&gt;Node6</title>
<path fill="none" stroke="midnightblue" d="M508.374,-130.403C486.557,-120.334 450.196,-103.552 424.983,-91.9151"/>
<polygon fill="midnightblue" stroke="midnightblue" points="426.138,-88.5934 415.591,-87.5806 423.204,-94.9491 426.138,-88.5934"/>
</g>
<!-- Node14&#45;&gt;Node12 -->
<g id="edge15" class="edge"><title>Node14&#45;&gt;Node12</title>
<path fill="none" stroke="midnightblue" d="M527.144,-130.226C527.467,-110.53 528.255,-62.4371 528.693,-35.7004"/>
<polygon fill="midnightblue" stroke="midnightblue" points="532.193,-35.7505 528.857,-25.6944 525.194,-35.6357 532.193,-35.7505"/>
</g>
<!-- Node15&#45;&gt;Node6 -->
<g id="edge33" class="edge"><title>Node15&#45;&gt;Node6</title>
<path fill="none" stroke="midnightblue" d="M647.474,-130.467C595.041,-119.693 504.857,-101.162 448.209,-89.5223"/>
<polygon fill="midnightblue" stroke="midnightblue" points="448.883,-86.0878 438.383,-87.5034 447.474,-92.9446 448.883,-86.0878"/>
</g>
<!-- Node16 -->
<g id="node16" class="node"><title>Node16</title>
<g id="a_node16"><a xlink:href="../../dc/d03/MemoryResources_8h.html" target="_top" xlink:title="MemoryResources/MemoryResources.h">
<polygon fill="none" stroke="black" points="1179.5,-68.5 1179.5,-87.5 1372.5,-87.5 1372.5,-68.5 1179.5,-68.5"/>
<text text-anchor="middle" x="1276" y="-75.5" font-family="Helvetica,sans-Serif" font-size="10.00">MemoryResources/MemoryResources.h</text>
</a>
</g>
</g>
<!-- Node15&#45;&gt;Node16 -->
<g id="edge18" class="edge"><title>Node15&#45;&gt;Node16</title>
<path fill="none" stroke="midnightblue" d="M734.086,-134.392C829.688,-124.62 1054.45,-101.645 1182.46,-88.5608"/>
<polygon fill="midnightblue" stroke="midnightblue" points="1183.05,-92.0188 1192.65,-87.52 1182.34,-85.055 1183.05,-92.0188"/>
</g>
<!-- Node16&#45;&gt;Node5 -->
<g id="edge23" class="edge"><title>Node16&#45;&gt;Node5</title>
<path fill="none" stroke="midnightblue" d="M1179.36,-74.5509C1024.13,-69.9073 726.299,-57.8781 624,-32 621.346,-31.3286 618.641,-30.4523 615.979,-29.4601"/>
<polygon fill="midnightblue" stroke="midnightblue" points="617.267,-26.2046 606.695,-25.5176 614.531,-32.6478 617.267,-26.2046"/>
</g>
<!-- Node16&#45;&gt;Node12 -->
<g id="edge24" class="edge"><title>Node16&#45;&gt;Node12</title>
<path fill="none" stroke="midnightblue" d="M1179.42,-75.6973C1011.61,-72.642 673.183,-62.7622 559,-32 556.807,-31.4092 554.586,-30.6503 552.397,-29.7882"/>
<polygon fill="midnightblue" stroke="midnightblue" points="553.73,-26.5491 543.182,-25.5498 550.805,-32.9085 553.73,-26.5491"/>
</g>
<!-- Node17 -->
<g id="node17" class="node"><title>Node17</title>
<polygon fill="none" stroke="#bfbfbf" points="1226,-1 1226,-31 1326,-31 1326,-1 1226,-1"/>
<text text-anchor="start" x="1234" y="-19" font-family="Helvetica,sans-Serif" font-size="10.00">boost/container/flat</text>
<text text-anchor="middle" x="1276" y="-8" font-family="Helvetica,sans-Serif" font-size="10.00">_map.hpp</text>
</g>
<!-- Node16&#45;&gt;Node17 -->
<g id="edge19" class="edge"><title>Node16&#45;&gt;Node17</title>
<path fill="none" stroke="midnightblue" d="M1276,-68.4035C1276,-61.3405 1276,-50.975 1276,-41.399"/>
<polygon fill="midnightblue" stroke="midnightblue" points="1279.5,-41.1408 1276,-31.1408 1272.5,-41.1408 1279.5,-41.1408"/>
</g>
<!-- Node18 -->
<g id="node18" class="node"><title>Node18</title>
<polygon fill="none" stroke="#bfbfbf" points="1344,-1 1344,-31 1460,-31 1460,-1 1344,-1"/>
<text text-anchor="start" x="1352" y="-19" font-family="Helvetica,sans-Serif" font-size="10.00">boost/container/pmr</text>
<text text-anchor="middle" x="1402" y="-8" font-family="Helvetica,sans-Serif" font-size="10.00">/memory_resource.hpp</text>
</g>
<!-- Node16&#45;&gt;Node18 -->
<g id="edge20" class="edge"><title>Node16&#45;&gt;Node18</title>
<path fill="none" stroke="midnightblue" d="M1294.05,-68.4035C1311.99,-59.8596 1340.09,-46.483 1363.11,-35.5171"/>
<polygon fill="midnightblue" stroke="midnightblue" points="1364.78,-38.6002 1372.3,-31.1408 1361.77,-32.2802 1364.78,-38.6002"/>
</g>
<!-- Node19 -->
<g id="node19" class="node"><title>Node19</title>
<polygon fill="none" stroke="#bfbfbf" points="1478,-1 1478,-31 1634,-31 1634,-1 1478,-1"/>
<text text-anchor="start" x="1486" y="-19" font-family="Helvetica,sans-Serif" font-size="10.00">boost/container/pmr</text>
<text text-anchor="middle" x="1556" y="-8" font-family="Helvetica,sans-Serif" font-size="10.00">/monotonic_buffer_resource.hpp</text>
</g>
<!-- Node16&#45;&gt;Node19 -->
<g id="edge21" class="edge"><title>Node16&#45;&gt;Node19</title>
<path fill="none" stroke="midnightblue" d="M1315.82,-68.4672C1358.51,-59.3184 1427.31,-44.5763 1480.35,-33.2097"/>
<polygon fill="midnightblue" stroke="midnightblue" points="1481.36,-36.5742 1490.4,-31.0565 1479.89,-29.7296 1481.36,-36.5742"/>
</g>
<!-- Node20 -->
<g id="node20" class="node"><title>Node20</title>
<polygon fill="none" stroke="#bfbfbf" points="1652.5,-1 1652.5,-31 1785.5,-31 1785.5,-1 1652.5,-1"/>
<text text-anchor="start" x="1660.5" y="-19" font-family="Helvetica,sans-Serif" font-size="10.00">boost/container/pmr</text>
<text text-anchor="middle" x="1719" y="-8" font-family="Helvetica,sans-Serif" font-size="10.00">/polymorphic_allocator.hpp</text>
</g>
<!-- Node16&#45;&gt;Node20 -->
<g id="edge22" class="edge"><title>Node16&#45;&gt;Node20</title>
<path fill="none" stroke="midnightblue" d="M1359.69,-68.4941C1431.91,-60.75 1539.21,-48.2798 1642.35,-32.03"/>
<polygon fill="midnightblue" stroke="midnightblue" points="1642.99,-35.4722 1652.32,-30.4457 1641.9,-28.559 1642.99,-35.4722"/>
</g>
<!-- Node21 -->
<g id="node21" class="node"><title>Node21</title>
<polygon fill="none" stroke="#bfbfbf" points="1804,-6.5 1804,-25.5 1866,-25.5 1866,-6.5 1804,-6.5"/>
<text text-anchor="middle" x="1835" y="-13.5" font-family="Helvetica,sans-Serif" font-size="10.00">type_traits</text>
</g>
<!-- Node16&#45;&gt;Node21 -->
<g id="edge25" class="edge"><title>Node16&#45;&gt;Node21</title>
<path fill="none" stroke="midnightblue" d="M1372.62,-76.1861C1477.54,-73.5528 1649.48,-64.118 1794,-32 1797.69,-31.1788 1801.51,-30.1073 1805.25,-28.9142"/>
<polygon fill="midnightblue" stroke="midnightblue" points="1806.59,-32.1559 1814.88,-25.561 1804.28,-25.5455 1806.59,-32.1559"/>
</g>
<!-- Node22 -->
<g id="node22" class="node"><title>Node22</title>
<polygon fill="none" stroke="#bfbfbf" points="1884,-6.5 1884,-25.5 1924,-25.5 1924,-6.5 1884,-6.5"/>
<text text-anchor="middle" x="1904" y="-13.5" font-family="Helvetica,sans-Serif" font-size="10.00">utility</text>
</g>
<!-- Node16&#45;&gt;Node22 -->
<g id="edge26" class="edge"><title>Node16&#45;&gt;Node22</title>
<path fill="none" stroke="midnightblue" d="M1372.63,-74.2642C1517.14,-69.4044 1782.36,-57.3007 1874,-32 1876.19,-31.3956 1878.41,-30.6272 1880.6,-29.7589"/>
<polygon fill="midnightblue" stroke="midnightblue" points="1882.19,-32.8769 1889.81,-25.5105 1879.26,-26.5204 1882.19,-32.8769"/>
</g>
<!-- Node23 -->
<g id="node23" class="node"><title>Node23</title>
<polygon fill="none" stroke="#bfbfbf" points="1942,-6.5 1942,-25.5 1986,-25.5 1986,-6.5 1942,-6.5"/>
<text text-anchor="middle" x="1964" y="-13.5" font-family="Helvetica,sans-Serif" font-size="10.00">vector</text>
</g>
<!-- Node16&#45;&gt;Node23 -->
<g id="edge27" class="edge"><title>Node16&#45;&gt;Node23</title>
<path fill="none" stroke="midnightblue" d="M1372.51,-74.8918C1528.76,-70.7229 1830.03,-59.3406 1933,-32 1935.34,-31.3786 1937.72,-30.5784 1940.06,-29.6715"/>
<polygon fill="midnightblue" stroke="midnightblue" points="1941.61,-32.8096 1949.31,-25.5278 1938.75,-26.421 1941.61,-32.8096"/>
</g>
<!-- Node24 -->
<g id="node24" class="node"><title>Node24</title>
<polygon fill="none" stroke="#bfbfbf" points="2004.5,-6.5 2004.5,-25.5 2087.5,-25.5 2087.5,-6.5 2004.5,-6.5"/>
<text text-anchor="middle" x="2046" y="-13.5" font-family="Helvetica,sans-Serif" font-size="10.00">unordered_map</text>
</g>
<!-- Node16&#45;&gt;Node24 -->
<g id="edge28" class="edge"><title>Node16&#45;&gt;Node24</title>
<path fill="none" stroke="midnightblue" d="M1372.59,-77.6012C1511.19,-76.9623 1774.03,-70.1479 1994,-32 1999.5,-31.0467 2005.24,-29.7288 2010.82,-28.2665"/>
<polygon fill="midnightblue" stroke="midnightblue" points="2011.92,-31.5942 2020.6,-25.5264 2010.03,-24.8537 2011.92,-31.5942"/>
</g>
<!-- Node25 -->
<g id="node25" class="node"><title>Node25</title>
<polygon fill="none" stroke="#bfbfbf" points="632.5,-6.5 632.5,-25.5 729.5,-25.5 729.5,-6.5 632.5,-6.5"/>
<text text-anchor="middle" x="681" y="-13.5" font-family="Helvetica,sans-Serif" font-size="10.00">FairMQMessage.h</text>
</g>
<!-- Node16&#45;&gt;Node25 -->
<g id="edge29" class="edge"><title>Node16&#45;&gt;Node25</title>
<path fill="none" stroke="midnightblue" d="M1179.35,-73.831C1071.36,-69.1492 891.646,-57.9419 739,-32 732.742,-30.9365 726.171,-29.5275 719.793,-27.9982"/>
<polygon fill="midnightblue" stroke="midnightblue" points="720.552,-24.5803 710,-25.5285 718.841,-31.3677 720.552,-24.5803"/>
</g>
<!-- Node26 -->
<g id="node26" class="node"><title>Node26</title>
<polygon fill="none" stroke="#bfbfbf" points="747.5,-6.5 747.5,-25.5 878.5,-25.5 878.5,-6.5 747.5,-6.5"/>
<text text-anchor="middle" x="813" y="-13.5" font-family="Helvetica,sans-Serif" font-size="10.00">FairMQTransportFactory.h</text>
</g>
<!-- Node16&#45;&gt;Node26 -->
<g id="edge30" class="edge"><title>Node16&#45;&gt;Node26</title>
<path fill="none" stroke="midnightblue" d="M1183.99,-68.4725C1105.19,-60.6577 988.812,-47.8999 888,-32 879.704,-30.6915 870.929,-29.114 862.418,-27.4802"/>
<polygon fill="midnightblue" stroke="midnightblue" points="863.08,-24.0435 852.593,-25.5491 861.73,-30.9121 863.08,-24.0435"/>
</g>
<!-- Node27 -->
<g id="node27" class="node"><title>Node27</title>
<polygon fill="none" stroke="#bfbfbf" points="896.5,-6.5 896.5,-25.5 1033.5,-25.5 1033.5,-6.5 896.5,-6.5"/>
<text text-anchor="middle" x="965" y="-13.5" font-family="Helvetica,sans-Serif" font-size="10.00">fairmq/MemoryResources.h</text>
</g>
<!-- Node16&#45;&gt;Node27 -->
<g id="edge31" class="edge"><title>Node16&#45;&gt;Node27</title>
<path fill="none" stroke="midnightblue" d="M1231.77,-68.4672C1175.81,-57.671 1079.48,-39.0856 1019.17,-27.4501"/>
<polygon fill="midnightblue" stroke="midnightblue" points="1019.56,-23.9612 1009.08,-25.5034 1018.23,-30.8344 1019.56,-23.9612"/>
</g>
<!-- Node28 -->
<g id="node28" class="node"><title>Node28</title>
<polygon fill="none" stroke="#bfbfbf" points="1052,-6.5 1052,-25.5 1208,-25.5 1208,-6.5 1052,-6.5"/>
<text text-anchor="middle" x="1130" y="-13.5" font-family="Helvetica,sans-Serif" font-size="10.00">fairmq/MemoryResourceTools.h</text>
</g>
<!-- Node16&#45;&gt;Node28 -->
<g id="edge32" class="edge"><title>Node16&#45;&gt;Node28</title>
<path fill="none" stroke="midnightblue" d="M1255.08,-68.4035C1230.25,-58.2004 1188.66,-41.1055 1160.31,-29.4544"/>
<polygon fill="midnightblue" stroke="midnightblue" points="1161.46,-26.1445 1150.88,-25.5806 1158.8,-32.6191 1161.46,-26.1445"/>
</g>
<!-- Node29&#45;&gt;Node6 -->
<g id="edge35" class="edge"><title>Node29&#45;&gt;Node6</title>
<path fill="none" stroke="midnightblue" d="M397,-124.781C397,-116.781 397,-106.689 397,-98.0168"/>
<polygon fill="midnightblue" stroke="midnightblue" points="400.5,-97.7305 397,-87.7305 393.5,-97.7306 400.5,-97.7305"/>
</g>
</g>
</svg>
