<?xml version="1.0" encoding="UTF-8" standalone="no"?>
<!DOCTYPE svg PUBLIC "-//W3C//DTD SVG 1.1//EN"
 "http://www.w3.org/Graphics/SVG/1.1/DTD/svg11.dtd">
<!-- Generated by graphviz version 2.36.0 (20140111.2315)
 -->
<!-- Title: o2::framework::gui::MultiplotData Pages: 1 -->
<svg width="267pt" height="194pt"
 viewBox="0.00 0.00 267.00 194.00" xmlns="http://www.w3.org/2000/svg" xmlns:xlink="http://www.w3.org/1999/xlink">
<g id="graph0" class="graph" transform="scale(1 1) rotate(0) translate(4 190)">
<title>o2::framework::gui::MultiplotData</title>
<!-- Node1 -->
<g id="node1" class="node"><title>Node1</title>
<polygon fill="#bfbfbf" stroke="black" points="105,-1 105,-69 203,-69 203,-1 105,-1"/>
<text text-anchor="start" x="113" y="-57" font-family="Helvetica,sans-Serif" font-size="10.00">o2::framework::gui</text>
<text text-anchor="middle" x="154" y="-46" font-family="Helvetica,sans-Serif" font-size="10.00">::MultiplotData</text>
<polyline fill="none" stroke="black" points="105,-39 203,-39 "/>
<text text-anchor="middle" x="154" y="-27" font-family="Helvetica,sans-Serif" font-size="10.00"> </text>
<polyline fill="none" stroke="black" points="105,-20 203,-20 "/>
<text text-anchor="middle" x="154" y="-8" font-family="Helvetica,sans-Serif" font-size="10.00"> </text>
</g>
<!-- Node2 -->
<g id="node2" class="node"><title>Node2</title>
<polygon fill="none" stroke="#bfbfbf" points="-0.5,-128.5 -0.5,-185.5 64.5,-185.5 64.5,-128.5 -0.5,-128.5"/>
<text text-anchor="middle" x="32" y="-173.5" font-family="Helvetica,sans-Serif" font-size="10.00">MetricType</text>
<polyline fill="none" stroke="#bfbfbf" points="-0.5,-166.5 64.5,-166.5 "/>
<text text-anchor="middle" x="32" y="-154.5" font-family="Helvetica,sans-Serif" font-size="10.00"> </text>
<polyline fill="none" stroke="#bfbfbf" points="-0.5,-147.5 64.5,-147.5 "/>
<text text-anchor="middle" x="32" y="-135.5" font-family="Helvetica,sans-Serif" font-size="10.00"> </text>
</g>
<!-- Node2&#45;&gt;Node1 -->
<g id="edge1" class="edge"><title>Node2&#45;&gt;Node1</title>
<path fill="none" stroke="#404040" d="M60.1858,-128.195C72.6827,-115.874 87.5686,-101.207 101,-88 104.368,-84.6884 107.857,-81.2595 111.365,-77.8148"/>
<polygon fill="none" stroke="#404040" points="111.498,-77.6842 112.977,-70.6264 120.06,-69.2771 118.581,-76.335 111.498,-77.6842"/>
<text text-anchor="middle" x="115" y="-96.5" font-family="Helvetica,sans-Serif" font-size="10.00"> +type</text>
</g>
<!-- Node3 -->
<g id="node3" class="node"><title>Node3</title>
<polygon fill="none" stroke="#bfbfbf" points="83,-128.5 83,-185.5 151,-185.5 151,-128.5 83,-128.5"/>
<text text-anchor="middle" x="117" y="-173.5" font-family="Helvetica,sans-Serif" font-size="10.00">const void *</text>
<polyline fill="none" stroke="#bfbfbf" points="83,-166.5 151,-166.5 "/>
<text text-anchor="middle" x="117" y="-154.5" font-family="Helvetica,sans-Serif" font-size="10.00"> </text>
<polyline fill="none" stroke="#bfbfbf" points="83,-147.5 151,-147.5 "/>
<text text-anchor="middle" x="117" y="-135.5" font-family="Helvetica,sans-Serif" font-size="10.00"> </text>
</g>
<!-- Node3&#45;&gt;Node1 -->
<g id="edge2" class="edge"><title>Node3&#45;&gt;Node1</title>
<path fill="none" stroke="#404040" d="M125.489,-128.47C129.807,-114.464 135.167,-97.0806 140.07,-81.1789"/>
<polygon fill="none" stroke="#404040" points="140.17,-80.8554 138.115,-73.9431 143.705,-69.3881 145.76,-76.3003 140.17,-80.8554"/>
<text text-anchor="middle" x="146" y="-102" font-family="Helvetica,sans-Serif" font-size="10.00"> +X</text>
<text text-anchor="middle" x="146" y="-91" font-family="Helvetica,sans-Serif" font-size="10.00">+Y</text>
</g>
<!-- Node4 -->
<g id="node4" class="node"><title>Node4</title>
<g id="a_node4"><a xlink:href="../../dd/de2/classsize__t.html" target="_top" xlink:title="{size_t\n||}">
<polygon fill="none" stroke="black" points="169.5,-128.5 169.5,-185.5 212.5,-185.5 212.5,-128.5 169.5,-128.5"/>
<text text-anchor="middle" x="191" y="-173.5" font-family="Helvetica,sans-Serif" font-size="10.00">size_t</text>
<polyline fill="none" stroke="black" points="169.5,-166.5 212.5,-166.5 "/>
<text text-anchor="middle" x="191" y="-154.5" font-family="Helvetica,sans-Serif" font-size="10.00"> </text>
<polyline fill="none" stroke="black" points="169.5,-147.5 212.5,-147.5 "/>
<text text-anchor="middle" x="191" y="-135.5" font-family="Helvetica,sans-Serif" font-size="10.00"> </text>
</a>
</g>
</g>
<!-- Node4&#45;&gt;Node1 -->
<g id="edge3" class="edge"><title>Node4&#45;&gt;Node1</title>
<path fill="none" stroke="#404040" d="M182.511,-128.47C178.193,-114.464 172.833,-97.0806 167.93,-81.1789"/>
<polygon fill="none" stroke="#404040" points="167.83,-80.8554 162.24,-76.3003 164.295,-69.3881 169.885,-73.9431 167.83,-80.8554"/>
<text text-anchor="middle" x="189" y="-102" font-family="Helvetica,sans-Serif" font-size="10.00"> +first</text>
<text text-anchor="middle" x="189" y="-91" font-family="Helvetica,sans-Serif" font-size="10.00">+size</text>
</g>
<!-- Node5 -->
<g id="node5" class="node"><title>Node5</title>
<polygon fill="none" stroke="#bfbfbf" points="230.5,-128.5 230.5,-185.5 259.5,-185.5 259.5,-128.5 230.5,-128.5"/>
<text text-anchor="middle" x="245" y="-173.5" font-family="Helvetica,sans-Serif" font-size="10.00">int</text>
<polyline fill="none" stroke="#bfbfbf" points="230.5,-166.5 259.5,-166.5 "/>
<text text-anchor="middle" x="245" y="-154.5" font-family="Helvetica,sans-Serif" font-size="10.00"> </text>
<polyline fill="none" stroke="#bfbfbf" points="230.5,-147.5 259.5,-147.5 "/>
<text text-anchor="middle" x="245" y="-135.5" font-family="Helvetica,sans-Serif" font-size="10.00"> </text>
</g>
<!-- Node5&#45;&gt;Node1 -->
<g id="edge4" class="edge"><title>Node5&#45;&gt;Node1</title>
<path fill="none" stroke="#404040" d="M231.372,-128.482C224.499,-115.676 215.592,-100.538 206,-88 203.48,-84.7061 200.762,-81.4108 197.937,-78.1676"/>
<polygon fill="none" stroke="#404040" points="197.854,-78.0766 190.856,-76.3383 189.769,-69.2096 196.767,-70.9479 197.854,-78.0766"/>
<text text-anchor="middle" x="235" y="-96.5" font-family="Helvetica,sans-Serif" font-size="10.00"> +mod</text>
</g>
</g>
</svg>
