<?xml version="1.0" encoding="UTF-8" standalone="no"?>
<!DOCTYPE svg PUBLIC "-//W3C//DTD SVG 1.1//EN"
 "http://www.w3.org/Graphics/SVG/1.1/DTD/svg11.dtd">
<!-- Generated by graphviz version 2.36.0 (20140111.2315)
 -->
<!-- Title: o2::framework::OutputRef Pages: 1 -->
<svg width="234pt" height="316pt"
 viewBox="0.00 0.00 234.00 316.00" xmlns="http://www.w3.org/2000/svg" xmlns:xlink="http://www.w3.org/1999/xlink">
<g id="graph0" class="graph" transform="scale(1 1) rotate(0) translate(4 312)">
<title>o2::framework::OutputRef</title>
<!-- Node1 -->
<g id="node1" class="node"><title>Node1</title>
<polygon fill="#bfbfbf" stroke="black" points="31,-0.5 31,-79.5 161,-79.5 161,-0.5 31,-0.5"/>
<text text-anchor="middle" x="96" y="-67.5" font-family="Helvetica,sans-Serif" font-size="10.00">o2::framework::OutputRef</text>
<polyline fill="none" stroke="black" points="31,-60.5 161,-60.5 "/>
<text text-anchor="middle" x="96" y="-48.5" font-family="Helvetica,sans-Serif" font-size="10.00"> </text>
<polyline fill="none" stroke="black" points="31,-41.5 161,-41.5 "/>
<text text-anchor="start" x="39" y="-29.5" font-family="Helvetica,sans-Serif" font-size="10.00">+ OutputRef()</text>
<text text-anchor="start" x="39" y="-18.5" font-family="Helvetica,sans-Serif" font-size="10.00">+ OutputRef()</text>
<text text-anchor="start" x="39" y="-7.5" font-family="Helvetica,sans-Serif" font-size="10.00">+ OutputRef()</text>
</g>
<!-- Node2 -->
<g id="node2" class="node"><title>Node2</title>
<polygon fill="none" stroke="#bfbfbf" points="-0.5,-189.5 -0.5,-246.5 50.5,-246.5 50.5,-189.5 -0.5,-189.5"/>
<text text-anchor="middle" x="25" y="-234.5" font-family="Helvetica,sans-Serif" font-size="10.00">uint64_t</text>
<polyline fill="none" stroke="#bfbfbf" points="-0.5,-227.5 50.5,-227.5 "/>
<text text-anchor="middle" x="25" y="-215.5" font-family="Helvetica,sans-Serif" font-size="10.00"> </text>
<polyline fill="none" stroke="#bfbfbf" points="-0.5,-208.5 50.5,-208.5 "/>
<text text-anchor="middle" x="25" y="-196.5" font-family="Helvetica,sans-Serif" font-size="10.00"> </text>
</g>
<!-- Node2&#45;&gt;Node1 -->
<g id="edge1" class="edge"><title>Node2&#45;&gt;Node1</title>
<path fill="none" stroke="#404040" d="M24.9856,-189.204C25.9813,-164.194 30.0165,-127.026 44,-98 45.348,-95.2018 46.8785,-92.4429 48.5472,-89.739"/>
<polygon fill="none" stroke="#404040" points="48.7315,-89.4737 48.8682,-82.2638 55.576,-79.617 55.4393,-86.8269 48.7315,-89.4737"/>
<text text-anchor="middle" x="68" y="-101.5" font-family="Helvetica,sans-Serif" font-size="10.00"> +subSpec</text>
</g>
<!-- Node3 -->
<g id="node3" class="node"><title>Node3</title>
<polygon fill="none" stroke="#bfbfbf" points="78.5,-189.5 78.5,-246.5 113.5,-246.5 113.5,-189.5 78.5,-189.5"/>
<text text-anchor="middle" x="96" y="-234.5" font-family="Helvetica,sans-Serif" font-size="10.00">char</text>
<polyline fill="none" stroke="#bfbfbf" points="78.5,-227.5 113.5,-227.5 "/>
<text text-anchor="middle" x="96" y="-215.5" font-family="Helvetica,sans-Serif" font-size="10.00"> </text>
<polyline fill="none" stroke="#bfbfbf" points="78.5,-208.5 113.5,-208.5 "/>
<text text-anchor="middle" x="96" y="-196.5" font-family="Helvetica,sans-Serif" font-size="10.00"> </text>
</g>
<!-- Node3&#45;&gt;Node1 -->
<g id="edge2" class="edge"><title>Node3&#45;&gt;Node1</title>
<path fill="none" stroke="#404040" d="M96,-189.112C96,-163.014 96,-123.403 96,-91.7093"/>
<polygon fill="none" stroke="#404040" points="96.0001,-91.5568 92,-85.5568 96,-79.5568 100,-85.5568 96.0001,-91.5568"/>
<text text-anchor="middle" x="111" y="-101.5" font-family="Helvetica,sans-Serif" font-size="10.00"> +label</text>
</g>
<!-- Node4 -->
<g id="node4" class="node"><title>Node4</title>
<g id="a_node4"><a xlink:href="../../d0/d66/structo2_1_1header_1_1Stack.html" target="_top" xlink:title="a move&#45;only header stack with serialized headers This is the flat buffer where all the headers in a m...">
<polygon fill="none" stroke="black" points="132,-129 132,-307 226,-307 226,-129 132,-129"/>
<text text-anchor="middle" x="179" y="-295" font-family="Helvetica,sans-Serif" font-size="10.00">o2::header::Stack</text>
<polyline fill="none" stroke="black" points="132,-288 226,-288 "/>
<text text-anchor="middle" x="179" y="-276" font-family="Helvetica,sans-Serif" font-size="10.00"> </text>
<polyline fill="none" stroke="black" points="132,-269 226,-269 "/>
<text text-anchor="start" x="140" y="-257" font-family="Helvetica,sans-Serif" font-size="10.00">+ Stack()</text>
<text text-anchor="start" x="140" y="-246" font-family="Helvetica,sans-Serif" font-size="10.00">+ Stack()</text>
<text text-anchor="start" x="140" y="-235" font-family="Helvetica,sans-Serif" font-size="10.00">+ Stack()</text>
<text text-anchor="start" x="140" y="-224" font-family="Helvetica,sans-Serif" font-size="10.00">+ operator=()</text>
<text text-anchor="start" x="140" y="-213" font-family="Helvetica,sans-Serif" font-size="10.00">+ operator=()</text>
<text text-anchor="start" x="140" y="-202" font-family="Helvetica,sans-Serif" font-size="10.00">+ data()</text>
<text text-anchor="start" x="140" y="-191" font-family="Helvetica,sans-Serif" font-size="10.00">+ size()</text>
<text text-anchor="start" x="140" y="-180" font-family="Helvetica,sans-Serif" font-size="10.00">+ get_allocator()</text>
<text text-anchor="start" x="140" y="-169" font-family="Helvetica,sans-Serif" font-size="10.00">+ getFreefnHint()</text>
<text text-anchor="start" x="140" y="-158" font-family="Helvetica,sans-Serif" font-size="10.00">+ Stack()</text>
<text text-anchor="start" x="140" y="-147" font-family="Helvetica,sans-Serif" font-size="10.00">+ Stack()</text>
<text text-anchor="start" x="140" y="-136" font-family="Helvetica,sans-Serif" font-size="10.00">+ getFreefn()</text>
</a>
</g>
</g>
<!-- Node4&#45;&gt;Node1 -->
<g id="edge3" class="edge"><title>Node4&#45;&gt;Node1</title>
<path fill="none" stroke="#404040" d="M144.453,-128.931C139.82,-118.403 134.952,-107.889 130,-98 128.716,-95.4355 127.36,-92.8308 125.959,-90.218"/>
<polygon fill="none" stroke="#404040" points="125.838,-90.0015 119.427,-86.7011 120.007,-79.5134 126.419,-82.8137 125.838,-90.0015"/>
<text text-anchor="middle" x="167" y="-101.5" font-family="Helvetica,sans-Serif" font-size="10.00"> +headerStack</text>
</g>
</g>
</svg>
