<?xml version="1.0" encoding="UTF-8" standalone="no"?>
<!DOCTYPE svg PUBLIC "-//W3C//DTD SVG 1.1//EN"
 "http://www.w3.org/Graphics/SVG/1.1/DTD/svg11.dtd">
<!-- Generated by graphviz version 2.36.0 (20140111.2315)
 -->
<!-- Title: o2::Devices::EPNReceiverDevice Pages: 1 -->
<!--zoomable 272 -->
<svg id="main" version="1.1" xmlns="http://www.w3.org/2000/svg" xmlns:xlink="http://www.w3.org/1999/xlink" xml:space="preserve" onload="init(evt)">
<style type="text/css"><![CDATA[
.edge:hover path { stroke: red; }
.edge:hover polygon { stroke: red; fill: red; }
]]></style>
<script type="text/javascript"><![CDATA[
var edges = document.getElementsByTagName('g');
if (edges && edges.length) {
  for (var i=0;i<edges.length;i++) {
    if (edges[i].id.substr(0,4)=='edge') {
      edges[i].setAttribute('class','edge');
    }
  }
}
]]></script>
        <defs>
                <circle id="rim" cx="0" cy="0" r="7"/>
                <circle id="rim2" cx="0" cy="0" r="3.5"/>
                <g id="zoomPlus">
                        <use xlink:href="#rim" fill="#404040">
                                <set attributeName="fill" to="#808080" begin="zoomplus.mouseover" end="zoomplus.mouseout"/>
                        </use>
                        <path d="M-4,0h8M0,-4v8" fill="none" stroke="white" stroke-width="1.5" pointer-events="none"/>
                </g>
                <g id="zoomMin">
                        <use xlink:href="#rim" fill="#404040">
                                <set attributeName="fill" to="#808080" begin="zoomminus.mouseover" end="zoomminus.mouseout"/>
                        </use>
                        <path d="M-4,0h8" fill="none" stroke="white" stroke-width="1.5" pointer-events="none"/>
                </g>
                <g id="dirArrow">
                        <path fill="none" stroke="white" stroke-width="1.5" d="M0,-3.0v7 M-2.5,-0.5L0,-3.0L2.5,-0.5"/>
                </g>
               <g id="resetDef">
                       <use xlink:href="#rim2" fill="#404040">
                               <set attributeName="fill" to="#808080" begin="reset.mouseover" end="reset.mouseout"/>
                       </use>
               </g>
        </defs>

<script type="text/javascript">
var viewWidth = 600;
var viewHeight = 272;
var sectionId = 'dynsection-1';
</script>
<script xlink:href="../../svgpan.js"/>
<svg id="graph" class="graph">
<g id="viewport">
<title>o2::Devices::EPNReceiverDevice</title>
<!-- Node1 -->
<g id="node1" class="node"><title>Node1</title>
<polygon fill="#bfbfbf" stroke="black" points="197.5,-0.5 197.5,-123.5 362.5,-123.5 362.5,-0.5 197.5,-0.5"/>
<text text-anchor="start" x="205.5" y="-111.5" font-family="Helvetica,sans-Serif" font-size="10.00">o2::Devices::EPNReceiver</text>
<text text-anchor="middle" x="280" y="-100.5" font-family="Helvetica,sans-Serif" font-size="10.00">Device</text>
<polyline fill="none" stroke="black" points="197.5,-93.5 362.5,-93.5 "/>
<text text-anchor="middle" x="280" y="-81.5" font-family="Helvetica,sans-Serif" font-size="10.00"> </text>
<polyline fill="none" stroke="black" points="197.5,-74.5 362.5,-74.5 "/>
<text text-anchor="start" x="205.5" y="-62.5" font-family="Helvetica,sans-Serif" font-size="10.00">+ EPNReceiverDevice()</text>
<text text-anchor="start" x="205.5" y="-51.5" font-family="Helvetica,sans-Serif" font-size="10.00">+ ~EPNReceiverDevice()</text>
<text text-anchor="start" x="205.5" y="-40.5" font-family="Helvetica,sans-Serif" font-size="10.00">+ InitTask()</text>
<text text-anchor="start" x="205.5" y="-29.5" font-family="Helvetica,sans-Serif" font-size="10.00">+ PrintBuffer()</text>
<text text-anchor="start" x="205.5" y="-18.5" font-family="Helvetica,sans-Serif" font-size="10.00">+ DiscardIncompleteTimeframes()</text>
<text text-anchor="start" x="205.5" y="-7.5" font-family="Helvetica,sans-Serif" font-size="10.00"># Run()</text>
</g>
<!-- Node2 -->
<g id="node2" class="node"><title>Node2</title>
<g id="a_node2"><a xlink:href="../../db/dfe/classFairMQDevice.html" target="_top" xlink:title="{FairMQDevice\n||}">
<polygon fill="none" stroke="black" points="0,-200.5 0,-257.5 80,-257.5 80,-200.5 0,-200.5"/>
<text text-anchor="middle" x="40" y="-245.5" font-family="Helvetica,sans-Serif" font-size="10.00">FairMQDevice</text>
<polyline fill="none" stroke="black" points="0,-238.5 80,-238.5 "/>
<text text-anchor="middle" x="40" y="-226.5" font-family="Helvetica,sans-Serif" font-size="10.00"> </text>
<polyline fill="none" stroke="black" points="0,-219.5 80,-219.5 "/>
<text text-anchor="middle" x="40" y="-207.5" font-family="Helvetica,sans-Serif" font-size="10.00"> </text>
</a>
</g>
</g>
<!-- Node2&#45;&gt;Node1 -->
<g id="edge1" class="edge"><title>Node2&#45;&gt;Node1</title>
<path fill="none" stroke="midnightblue" d="M88.1584,-194.581C88.4398,-194.386 88.7203,-194.193 89,-194 124.415,-169.569 163.592,-142.675 197.2,-119.645"/>
<polygon fill="none" stroke="midnightblue" points="86.0703,-191.769 79.8334,-200.334 90.0499,-197.528 86.0703,-191.769"/>
</g>
<!-- Node3 -->
<g id="node3" class="node"><title>Node3</title>
<polygon fill="none" stroke="#bfbfbf" points="98.5,-195 98.5,-263 235.5,-263 235.5,-195 98.5,-195"/>
<text text-anchor="start" x="106.5" y="-251" font-family="Helvetica,sans-Serif" font-size="10.00">unordered_map&lt; uint16</text>
<text text-anchor="middle" x="167" y="-240" font-family="Helvetica,sans-Serif" font-size="10.00">_t, o2::Devices::TFBuffer &gt;</text>
<polyline fill="none" stroke="#bfbfbf" points="98.5,-233 235.5,-233 "/>
<text text-anchor="middle" x="167" y="-221" font-family="Helvetica,sans-Serif" font-size="10.00"> </text>
<polyline fill="none" stroke="#bfbfbf" points="98.5,-214 235.5,-214 "/>
<text text-anchor="middle" x="167" y="-202" font-family="Helvetica,sans-Serif" font-size="10.00"> </text>
</g>
<!-- Node3&#45;&gt;Node1 -->
<g id="edge2" class="edge"><title>Node3&#45;&gt;Node1</title>
<path fill="none" stroke="#404040" d="M169.281,-194.678C171.645,-177.903 176.414,-157.824 186,-142 187.812,-139.009 189.778,-136.076 191.871,-133.208"/>
<polygon fill="none" stroke="#404040" points="191.96,-133.095 192.567,-125.909 199.434,-123.706 198.827,-130.892 191.96,-133.095"/>
<text text-anchor="middle" x="231" y="-156.5" font-family="Helvetica,sans-Serif" font-size="10.00"> #mTimeframeBuffer</text>
</g>
<!-- Node4 -->
<g id="node4" class="node"><title>Node4</title>
<polygon fill="none" stroke="#bfbfbf" points="262.5,-200.5 262.5,-257.5 297.5,-257.5 297.5,-200.5 262.5,-200.5"/>
<text text-anchor="middle" x="280" y="-245.5" font-family="Helvetica,sans-Serif" font-size="10.00">char</text>
<polyline fill="none" stroke="#bfbfbf" points="262.5,-238.5 297.5,-238.5 "/>
<text text-anchor="middle" x="280" y="-226.5" font-family="Helvetica,sans-Serif" font-size="10.00"> </text>
<polyline fill="none" stroke="#bfbfbf" points="262.5,-219.5 297.5,-219.5 "/>
<text text-anchor="middle" x="280" y="-207.5" font-family="Helvetica,sans-Serif" font-size="10.00"> </text>
</g>
<!-- Node4&#45;&gt;Node1 -->
<g id="edge3" class="edge"><title>Node4&#45;&gt;Node1</title>
<path fill="none" stroke="#404040" d="M280,-200.383C280,-182.652 280,-158.732 280,-135.822"/>
<polygon fill="none" stroke="#404040" points="280,-135.609 276,-129.609 280,-123.609 284,-129.609 280,-135.609"/>
<text text-anchor="middle" x="328.5" y="-167.5" font-family="Helvetica,sans-Serif" font-size="10.00"> #mAckChannelName</text>
<text text-anchor="middle" x="328.5" y="-156.5" font-family="Helvetica,sans-Serif" font-size="10.00">#mOutChannelName</text>
<text text-anchor="middle" x="328.5" y="-145.5" font-family="Helvetica,sans-Serif" font-size="10.00">#mInChannelName</text>
</g>
<!-- Node5 -->
<g id="node5" class="node"><title>Node5</title>
<polygon fill="none" stroke="#bfbfbf" points="385.5,-200.5 385.5,-257.5 414.5,-257.5 414.5,-200.5 385.5,-200.5"/>
<text text-anchor="middle" x="400" y="-245.5" font-family="Helvetica,sans-Serif" font-size="10.00">int</text>
<polyline fill="none" stroke="#bfbfbf" points="385.5,-238.5 414.5,-238.5 "/>
<text text-anchor="middle" x="400" y="-226.5" font-family="Helvetica,sans-Serif" font-size="10.00"> </text>
<polyline fill="none" stroke="#bfbfbf" points="385.5,-219.5 414.5,-219.5 "/>
<text text-anchor="middle" x="400" y="-207.5" font-family="Helvetica,sans-Serif" font-size="10.00"> </text>
</g>
<!-- Node5&#45;&gt;Node1 -->
<g id="edge4" class="edge"><title>Node5&#45;&gt;Node1</title>
<path fill="none" stroke="#404040" d="M397.442,-200.253C394.754,-182.459 389.252,-159.5 378,-142 375.745,-138.493 373.282,-135.07 370.655,-131.738"/>
<polygon fill="none" stroke="#404040" points="370.64,-131.721 363.703,-129.754 362.85,-122.594 369.788,-124.561 370.64,-131.721"/>
<text text-anchor="middle" x="443" y="-167.5" font-family="Helvetica,sans-Serif" font-size="10.00"> #mBufferTimeoutInMs</text>
<text text-anchor="middle" x="443" y="-156.5" font-family="Helvetica,sans-Serif" font-size="10.00">#mNumFLPs</text>
<text text-anchor="middle" x="443" y="-145.5" font-family="Helvetica,sans-Serif" font-size="10.00">#mTestMode</text>
</g>
<!-- Node6 -->
<g id="node6" class="node"><title>Node6</title>
<polygon fill="none" stroke="#bfbfbf" points="457.5,-200.5 457.5,-257.5 588.5,-257.5 588.5,-200.5 457.5,-200.5"/>
<text text-anchor="middle" x="523" y="-245.5" font-family="Helvetica,sans-Serif" font-size="10.00">unordered_set&lt; uint16_t &gt;</text>
<polyline fill="none" stroke="#bfbfbf" points="457.5,-238.5 588.5,-238.5 "/>
<text text-anchor="middle" x="523" y="-226.5" font-family="Helvetica,sans-Serif" font-size="10.00"> </text>
<polyline fill="none" stroke="#bfbfbf" points="457.5,-219.5 588.5,-219.5 "/>
<text text-anchor="middle" x="523" y="-207.5" font-family="Helvetica,sans-Serif" font-size="10.00"> </text>
</g>
<!-- Node6&#45;&gt;Node1 -->
<g id="edge5" class="edge"><title>Node6&#45;&gt;Node1</title>
<path fill="none" stroke="#404040" d="M521.008,-200.399C518.284,-181.751 511.899,-157.751 497,-142 464.891,-108.056 417.044,-88.6446 374.443,-77.5695"/>
<polygon fill="none" stroke="#404040" points="374.238,-77.5194 367.458,-79.9754 362.583,-74.6616 369.363,-72.2056 374.238,-77.5194"/>
<text text-anchor="middle" x="554" y="-156.5" font-family="Helvetica,sans-Serif" font-size="10.00"> #mDiscardedSet</text>
</g>
</g>
</svg>
        <g id="navigator" transform="translate(0 0)" fill="#404254">
                <rect fill="#f2f5e9" fill-opacity="0.5" stroke="#606060" stroke-width=".5" x="0" y="0" width="60" height="60"/>
                <use id="zoomplus" xlink:href="#zoomPlus" x="17" y="9" onmousedown="handleZoom(evt,'in')"/>
                <use id="zoomminus" xlink:href="#zoomMin" x="42" y="9" onmousedown="handleZoom(evt,'out')"/>
                <use id="reset" xlink:href="#resetDef" x="30" y="36" onmousedown="handleReset()"/>
                <g id="arrowUp" xlink:href="#dirArrow" transform="translate(30 24)" onmousedown="handlePan(0,-1)">
                  <use xlink:href="#rim" fill="#404040">
                        <set attributeName="fill" to="#808080" begin="arrowUp.mouseover" end="arrowUp.mouseout"/>
                  </use>
                  <path fill="none" stroke="white" stroke-width="1.5" d="M0,-3.0v7 M-2.5,-0.5L0,-3.0L2.5,-0.5"/>
                </g>
                <g id="arrowRight" xlink:href="#dirArrow" transform="rotate(90) translate(36 -43)" onmousedown="handlePan(1,0)">
                  <use xlink:href="#rim" fill="#404040">
                        <set attributeName="fill" to="#808080" begin="arrowRight.mouseover" end="arrowRight.mouseout"/>
                  </use>
                  <path fill="none" stroke="white" stroke-width="1.5" d="M0,-3.0v7 M-2.5,-0.5L0,-3.0L2.5,-0.5"/>
                </g>
                <g id="arrowDown" xlink:href="#dirArrow" transform="rotate(180) translate(-30 -48)" onmousedown="handlePan(0,1)">
                  <use xlink:href="#rim" fill="#404040">
                        <set attributeName="fill" to="#808080" begin="arrowDown.mouseover" end="arrowDown.mouseout"/>
                  </use>
                  <path fill="none" stroke="white" stroke-width="1.5" d="M0,-3.0v7 M-2.5,-0.5L0,-3.0L2.5,-0.5"/>
                </g>
                <g id="arrowLeft" xlink:href="#dirArrow" transform="rotate(270) translate(-36 17)" onmousedown="handlePan(-1,0)">
                  <use xlink:href="#rim" fill="#404040">
                        <set attributeName="fill" to="#808080" begin="arrowLeft.mouseover" end="arrowLeft.mouseout"/>
                  </use>
                  <path fill="none" stroke="white" stroke-width="1.5" d="M0,-3.0v7 M-2.5,-0.5L0,-3.0L2.5,-0.5"/>
                </g>
        </g>
        <svg viewBox="0 0 15 15" width="100%" height="30px" preserveAspectRatio="xMaxYMin meet">
         <g id="arrow_out" transform="scale(0.3 0.3)">
          <a xlink:href="classo2_1_1Devices_1_1EPNReceiverDevice__coll__graph_org.svg" target="_base">
           <rect id="button" ry="5" rx="5" y="6" x="6" height="38" width="38"
                fill="#f2f5e9" fill-opacity="0.5" stroke="#606060" stroke-width="1.0"/>
           <path id="arrow"
             d="M 11.500037,31.436501 C 11.940474,20.09759 22.043105,11.32322 32.158766,21.979434 L 37.068811,17.246167 C 37.068811,17.246167 37.088388,32 37.088388,32 L 22.160133,31.978069 C 22.160133,31.978069 26.997745,27.140456 26.997745,27.140456 C 18.528582,18.264221 13.291696,25.230495 11.500037,31.436501 z"
             style="fill:#404040;"/>
          </a>
         </g>
        </svg>
</svg>
