<?xml version="1.0" encoding="UTF-8" standalone="no"?>
<!DOCTYPE svg PUBLIC "-//W3C//DTD SVG 1.1//EN"
 "http://www.w3.org/Graphics/SVG/1.1/DTD/svg11.dtd">
<!-- Generated by graphviz version 2.36.0 (20140111.2315)
 -->
<!-- Title: /home/travis/build/AliceO2Group/AliceO2/Detectors/TRD/base/include/TRDBase/TRDSimParam.h Pages: 1 -->
<svg width="727pt" height="422pt"
 viewBox="0.00 0.00 727.00 422.00" xmlns="http://www.w3.org/2000/svg" xmlns:xlink="http://www.w3.org/1999/xlink">
<g id="graph0" class="graph" transform="scale(1 1) rotate(0) translate(4 418)">
<title>/home/travis/build/AliceO2Group/AliceO2/Detectors/TRD/base/include/TRDBase/TRDSimParam.h</title>
<!-- Node1 -->
<g id="node1" class="node"><title>Node1</title>
<polygon fill="#bfbfbf" stroke="black" points="528,-361 528,-413 672,-413 672,-361 528,-361"/>
<text text-anchor="start" x="536" y="-401" font-family="Helvetica,sans-Serif" font-size="10.00">/home/travis/build</text>
<text text-anchor="start" x="536" y="-390" font-family="Helvetica,sans-Serif" font-size="10.00">/AliceO2Group/AliceO2</text>
<text text-anchor="start" x="536" y="-379" font-family="Helvetica,sans-Serif" font-size="10.00">/Detectors/TRD/base/include</text>
<text text-anchor="middle" x="600" y="-368" font-family="Helvetica,sans-Serif" font-size="10.00">/TRDBase/TRDSimParam.h</text>
</g>
<!-- Node2 -->
<g id="node2" class="node"><title>Node2</title>
<g id="a_node2"><a xlink:href="../../da/d32/TRDCommonParam_8h.html" target="_top" xlink:title="/home/travis/build\l/AliceO2Group/AliceO2\l/Detectors/TRD/base/include\l/TRDBase/TRDCommonParam.h">
<polygon fill="none" stroke="black" points="463,-271 463,-323 627,-323 627,-271 463,-271"/>
<text text-anchor="start" x="471" y="-311" font-family="Helvetica,sans-Serif" font-size="10.00">/home/travis/build</text>
<text text-anchor="start" x="471" y="-300" font-family="Helvetica,sans-Serif" font-size="10.00">/AliceO2Group/AliceO2</text>
<text text-anchor="start" x="471" y="-289" font-family="Helvetica,sans-Serif" font-size="10.00">/Detectors/TRD/base/include</text>
<text text-anchor="middle" x="545" y="-278" font-family="Helvetica,sans-Serif" font-size="10.00">/TRDBase/TRDCommonParam.h</text>
</a>
</g>
</g>
<!-- Node1&#45;&gt;Node2 -->
<g id="edge1" class="edge"><title>Node1&#45;&gt;Node2</title>
<path fill="none" stroke="midnightblue" d="M578.728,-351.965C572.722,-342.354 566.296,-332.074 560.683,-323.092"/>
<polygon fill="midnightblue" stroke="midnightblue" points="575.824,-353.922 584.092,-360.547 581.76,-350.212 575.824,-353.922"/>
</g>
<!-- Node11 -->
<g id="node11" class="node"><title>Node11</title>
<g id="a_node11"><a xlink:href="../../d9/dbe/TRDSimParam_8cxx.html" target="_top" xlink:title="/home/travis/build\l/AliceO2Group/AliceO2\l/Detectors/TRD/base/src\l/TRDSimParam.cxx">
<polygon fill="none" stroke="black" points="591.5,-181 591.5,-233 718.5,-233 718.5,-181 591.5,-181"/>
<text text-anchor="start" x="599.5" y="-221" font-family="Helvetica,sans-Serif" font-size="10.00">/home/travis/build</text>
<text text-anchor="start" x="599.5" y="-210" font-family="Helvetica,sans-Serif" font-size="10.00">/AliceO2Group/AliceO2</text>
<text text-anchor="start" x="599.5" y="-199" font-family="Helvetica,sans-Serif" font-size="10.00">/Detectors/TRD/base/src</text>
<text text-anchor="middle" x="655" y="-188" font-family="Helvetica,sans-Serif" font-size="10.00">/TRDSimParam.cxx</text>
</a>
</g>
</g>
<!-- Node1&#45;&gt;Node11 -->
<g id="edge14" class="edge"><title>Node1&#45;&gt;Node11</title>
<path fill="none" stroke="midnightblue" d="M622.718,-351.965C627.757,-343.158 632.602,-333.479 636,-324 646.812,-293.84 651.508,-257.044 653.524,-233.095"/>
<polygon fill="midnightblue" stroke="midnightblue" points="619.575,-350.402 617.45,-360.781 625.584,-353.993 619.575,-350.402"/>
</g>
<!-- Node3 -->
<g id="node3" class="node"><title>Node3</title>
<g id="a_node3"><a xlink:href="../../d8/dad/TRDGeometryBase_8h.html" target="_top" xlink:title="/home/travis/build\l/AliceO2Group/AliceO2\l/Detectors/TRD/base/include\l/TRDBase/TRDGeometryBase.h">
<polygon fill="none" stroke="black" points="301.5,-181 301.5,-233 462.5,-233 462.5,-181 301.5,-181"/>
<text text-anchor="start" x="309.5" y="-221" font-family="Helvetica,sans-Serif" font-size="10.00">/home/travis/build</text>
<text text-anchor="start" x="309.5" y="-210" font-family="Helvetica,sans-Serif" font-size="10.00">/AliceO2Group/AliceO2</text>
<text text-anchor="start" x="309.5" y="-199" font-family="Helvetica,sans-Serif" font-size="10.00">/Detectors/TRD/base/include</text>
<text text-anchor="middle" x="382" y="-188" font-family="Helvetica,sans-Serif" font-size="10.00">/TRDBase/TRDGeometryBase.h</text>
</a>
</g>
</g>
<!-- Node2&#45;&gt;Node3 -->
<g id="edge2" class="edge"><title>Node2&#45;&gt;Node3</title>
<path fill="none" stroke="midnightblue" d="M489.358,-265.96C469.525,-255.253 447.412,-243.315 428.434,-233.069"/>
<polygon fill="midnightblue" stroke="midnightblue" points="487.828,-269.112 498.291,-270.783 491.154,-262.952 487.828,-269.112"/>
</g>
<!-- Node5 -->
<g id="node5" class="node"><title>Node5</title>
<g id="a_node5"><a xlink:href="../../d8/dd6/TRDCommonParam_8cxx.html" target="_top" xlink:title="/home/travis/build\l/AliceO2Group/AliceO2\l/Detectors/TRD/base/src\l/TRDCommonParam.cxx">
<polygon fill="none" stroke="black" points="0,-1 0,-53 128,-53 128,-1 0,-1"/>
<text text-anchor="start" x="8" y="-41" font-family="Helvetica,sans-Serif" font-size="10.00">/home/travis/build</text>
<text text-anchor="start" x="8" y="-30" font-family="Helvetica,sans-Serif" font-size="10.00">/AliceO2Group/AliceO2</text>
<text text-anchor="start" x="8" y="-19" font-family="Helvetica,sans-Serif" font-size="10.00">/Detectors/TRD/base/src</text>
<text text-anchor="middle" x="64" y="-8" font-family="Helvetica,sans-Serif" font-size="10.00">/TRDCommonParam.cxx</text>
</a>
</g>
</g>
<!-- Node2&#45;&gt;Node5 -->
<g id="edge11" class="edge"><title>Node2&#45;&gt;Node5</title>
<path fill="none" stroke="midnightblue" d="M452.732,-280.689C325.617,-257.432 107.259,-208.949 63,-144 44.8542,-117.372 49.7812,-78.7161 56.0283,-53.4692"/>
<polygon fill="midnightblue" stroke="midnightblue" points="452.389,-284.184 462.853,-282.523 453.637,-277.296 452.389,-284.184"/>
</g>
<!-- Node8 -->
<g id="node8" class="node"><title>Node8</title>
<g id="a_node8"><a xlink:href="../../da/d16/TRD_2simulation_2src_2Detector_8cxx.html" target="_top" xlink:title="/home/travis/build\l/AliceO2Group/AliceO2\l/Detectors/TRD/simulation\l/src/Detector.cxx">
<polygon fill="none" stroke="black" points="496,-1 496,-53 630,-53 630,-1 496,-1"/>
<text text-anchor="start" x="504" y="-41" font-family="Helvetica,sans-Serif" font-size="10.00">/home/travis/build</text>
<text text-anchor="start" x="504" y="-30" font-family="Helvetica,sans-Serif" font-size="10.00">/AliceO2Group/AliceO2</text>
<text text-anchor="start" x="504" y="-19" font-family="Helvetica,sans-Serif" font-size="10.00">/Detectors/TRD/simulation</text>
<text text-anchor="middle" x="563" y="-8" font-family="Helvetica,sans-Serif" font-size="10.00">/src/Detector.cxx</text>
</a>
</g>
</g>
<!-- Node2&#45;&gt;Node8 -->
<g id="edge13" class="edge"><title>Node2&#45;&gt;Node8</title>
<path fill="none" stroke="midnightblue" d="M547.385,-260.49C551.074,-205.561 558.075,-101.328 561.298,-53.341"/>
<polygon fill="midnightblue" stroke="midnightblue" points="543.871,-260.575 546.693,-270.787 550.856,-261.044 543.871,-260.575"/>
</g>
<!-- Node2&#45;&gt;Node11 -->
<g id="edge12" class="edge"><title>Node2&#45;&gt;Node11</title>
<path fill="none" stroke="midnightblue" d="M584.333,-264.534C597.182,-254.254 611.276,-242.979 623.474,-233.221"/>
<polygon fill="midnightblue" stroke="midnightblue" points="582.144,-261.803 576.522,-270.783 586.517,-267.269 582.144,-261.803"/>
</g>
<!-- Node4 -->
<g id="node4" class="node"><title>Node4</title>
<g id="a_node4"><a xlink:href="../../dd/d07/TRDGeometry_8h.html" target="_top" xlink:title="/home/travis/build\l/AliceO2Group/AliceO2\l/Detectors/TRD/base/include\l/TRDBase/TRDGeometry.h">
<polygon fill="none" stroke="black" points="391,-91 391,-143 535,-143 535,-91 391,-91"/>
<text text-anchor="start" x="399" y="-131" font-family="Helvetica,sans-Serif" font-size="10.00">/home/travis/build</text>
<text text-anchor="start" x="399" y="-120" font-family="Helvetica,sans-Serif" font-size="10.00">/AliceO2Group/AliceO2</text>
<text text-anchor="start" x="399" y="-109" font-family="Helvetica,sans-Serif" font-size="10.00">/Detectors/TRD/base/include</text>
<text text-anchor="middle" x="463" y="-98" font-family="Helvetica,sans-Serif" font-size="10.00">/TRDBase/TRDGeometry.h</text>
</a>
</g>
</g>
<!-- Node3&#45;&gt;Node4 -->
<g id="edge3" class="edge"><title>Node3&#45;&gt;Node4</title>
<path fill="none" stroke="midnightblue" d="M412.247,-173.139C421.399,-163.196 431.299,-152.441 439.904,-143.092"/>
<polygon fill="midnightblue" stroke="midnightblue" points="409.626,-170.819 405.429,-180.547 414.776,-175.559 409.626,-170.819"/>
</g>
<!-- Node9 -->
<g id="node9" class="node"><title>Node9</title>
<g id="a_node9"><a xlink:href="../../d3/d35/TRDGeometryFlat_8h.html" target="_top" xlink:title="/home/travis/build\l/AliceO2Group/AliceO2\l/Detectors/TRD/base/include\l/TRDBase/TRDGeometryFlat.h">
<polygon fill="none" stroke="black" points="72.5,-91 72.5,-143 227.5,-143 227.5,-91 72.5,-91"/>
<text text-anchor="start" x="80.5" y="-131" font-family="Helvetica,sans-Serif" font-size="10.00">/home/travis/build</text>
<text text-anchor="start" x="80.5" y="-120" font-family="Helvetica,sans-Serif" font-size="10.00">/AliceO2Group/AliceO2</text>
<text text-anchor="start" x="80.5" y="-109" font-family="Helvetica,sans-Serif" font-size="10.00">/Detectors/TRD/base/include</text>
<text text-anchor="middle" x="150" y="-98" font-family="Helvetica,sans-Serif" font-size="10.00">/TRDBase/TRDGeometryFlat.h</text>
</a>
</g>
</g>
<!-- Node3&#45;&gt;Node9 -->
<g id="edge8" class="edge"><title>Node3&#45;&gt;Node9</title>
<path fill="none" stroke="midnightblue" d="M306.149,-177.229C277.138,-166.225 244.306,-153.771 216.259,-143.133"/>
<polygon fill="midnightblue" stroke="midnightblue" points="305.237,-180.626 315.829,-180.901 307.72,-174.081 305.237,-180.626"/>
</g>
<!-- Node10 -->
<g id="node10" class="node"><title>Node10</title>
<g id="a_node10"><a xlink:href="../../dd/dd7/TRDGeometryBase_8cxx.html" target="_top" xlink:title="/home/travis/build\l/AliceO2Group/AliceO2\l/Detectors/TRD/base/src\l/TRDGeometryBase.cxx">
<polygon fill="none" stroke="black" points="245.5,-91 245.5,-143 372.5,-143 372.5,-91 245.5,-91"/>
<text text-anchor="start" x="253.5" y="-131" font-family="Helvetica,sans-Serif" font-size="10.00">/home/travis/build</text>
<text text-anchor="start" x="253.5" y="-120" font-family="Helvetica,sans-Serif" font-size="10.00">/AliceO2Group/AliceO2</text>
<text text-anchor="start" x="253.5" y="-109" font-family="Helvetica,sans-Serif" font-size="10.00">/Detectors/TRD/base/src</text>
<text text-anchor="middle" x="309" y="-98" font-family="Helvetica,sans-Serif" font-size="10.00">/TRDGeometryBase.cxx</text>
</a>
</g>
</g>
<!-- Node3&#45;&gt;Node10 -->
<g id="edge10" class="edge"><title>Node3&#45;&gt;Node10</title>
<path fill="none" stroke="midnightblue" d="M354.497,-172.846C346.317,-162.985 337.494,-152.349 329.815,-143.092"/>
<polygon fill="midnightblue" stroke="midnightblue" points="351.807,-175.085 360.885,-180.547 357.195,-170.616 351.807,-175.085"/>
</g>
<!-- Node4&#45;&gt;Node5 -->
<g id="edge4" class="edge"><title>Node4&#45;&gt;Node5</title>
<path fill="none" stroke="midnightblue" d="M381.299,-90.0735C381.199,-90.049 381.1,-90.0245 381,-90 291.156,-67.9716 266.644,-72.4659 176,-54 160.45,-50.8322 143.757,-47.1244 128.13,-43.5176"/>
<polygon fill="midnightblue" stroke="midnightblue" points="380.154,-93.3924 390.711,-92.5042 381.904,-86.6148 380.154,-93.3924"/>
</g>
<!-- Node6 -->
<g id="node6" class="node"><title>Node6</title>
<g id="a_node6"><a xlink:href="../../d2/d10/TRDGeometry_8cxx.html" target="_top" xlink:title="/home/travis/build\l/AliceO2Group/AliceO2\l/Detectors/TRD/base/src\l/TRDGeometry.cxx">
<polygon fill="none" stroke="black" points="350.5,-1 350.5,-53 477.5,-53 477.5,-1 350.5,-1"/>
<text text-anchor="start" x="358.5" y="-41" font-family="Helvetica,sans-Serif" font-size="10.00">/home/travis/build</text>
<text text-anchor="start" x="358.5" y="-30" font-family="Helvetica,sans-Serif" font-size="10.00">/AliceO2Group/AliceO2</text>
<text text-anchor="start" x="358.5" y="-19" font-family="Helvetica,sans-Serif" font-size="10.00">/Detectors/TRD/base/src</text>
<text text-anchor="middle" x="414" y="-8" font-family="Helvetica,sans-Serif" font-size="10.00">/TRDGeometry.cxx</text>
</a>
</g>
</g>
<!-- Node4&#45;&gt;Node6 -->
<g id="edge5" class="edge"><title>Node4&#45;&gt;Node6</title>
<path fill="none" stroke="midnightblue" d="M443.885,-81.6708C438.581,-72.1448 432.922,-61.9826 427.972,-53.0921"/>
<polygon fill="midnightblue" stroke="midnightblue" points="440.904,-83.5126 448.827,-90.5468 447.02,-80.1071 440.904,-83.5126"/>
</g>
<!-- Node7 -->
<g id="node7" class="node"><title>Node7</title>
<g id="a_node7"><a xlink:href="../../d1/d84/TRDGeometryFlat_8cxx.html" target="_top" xlink:title="/home/travis/build\l/AliceO2Group/AliceO2\l/Detectors/TRD/base/src\l/TRDGeometryFlat.cxx">
<polygon fill="none" stroke="black" points="185.5,-1 185.5,-53 312.5,-53 312.5,-1 185.5,-1"/>
<text text-anchor="start" x="193.5" y="-41" font-family="Helvetica,sans-Serif" font-size="10.00">/home/travis/build</text>
<text text-anchor="start" x="193.5" y="-30" font-family="Helvetica,sans-Serif" font-size="10.00">/AliceO2Group/AliceO2</text>
<text text-anchor="start" x="193.5" y="-19" font-family="Helvetica,sans-Serif" font-size="10.00">/Detectors/TRD/base/src</text>
<text text-anchor="middle" x="249" y="-8" font-family="Helvetica,sans-Serif" font-size="10.00">/TRDGeometryFlat.cxx</text>
</a>
</g>
</g>
<!-- Node4&#45;&gt;Node7 -->
<g id="edge6" class="edge"><title>Node4&#45;&gt;Node7</title>
<path fill="none" stroke="midnightblue" d="M392.685,-87.0854C366.011,-76.1167 335.877,-63.725 310.118,-53.1328"/>
<polygon fill="midnightblue" stroke="midnightblue" points="391.383,-90.3343 401.963,-90.9005 394.045,-83.8603 391.383,-90.3343"/>
</g>
<!-- Node4&#45;&gt;Node8 -->
<g id="edge7" class="edge"><title>Node4&#45;&gt;Node8</title>
<path fill="none" stroke="midnightblue" d="M499.42,-83.9506C510.921,-73.8293 523.46,-62.795 534.34,-53.221"/>
<polygon fill="midnightblue" stroke="midnightblue" points="496.851,-81.5489 491.656,-90.7827 501.475,-86.8039 496.851,-81.5489"/>
</g>
<!-- Node9&#45;&gt;Node7 -->
<g id="edge9" class="edge"><title>Node9&#45;&gt;Node7</title>
<path fill="none" stroke="midnightblue" d="M186.056,-83.9506C197.442,-73.8293 209.856,-62.795 220.626,-53.221"/>
<polygon fill="midnightblue" stroke="midnightblue" points="183.518,-81.5231 178.369,-90.7827 188.169,-86.755 183.518,-81.5231"/>
</g>
</g>
</svg>
