<?xml version="1.0" encoding="UTF-8" standalone="no"?>
<!DOCTYPE svg PUBLIC "-//W3C//DTD SVG 1.1//EN"
 "http://www.w3.org/Graphics/SVG/1.1/DTD/svg11.dtd">
<!-- Generated by graphviz version 2.36.0 (20140111.2315)
 -->
<!-- Title: o2::steer::O2MCApplication Pages: 1 -->
<svg width="755pt" height="400pt"
 viewBox="0.00 0.00 755.00 400.00" xmlns="http://www.w3.org/2000/svg" xmlns:xlink="http://www.w3.org/1999/xlink">
<g id="graph0" class="graph" transform="scale(1 1) rotate(0) translate(4 396)">
<title>o2::steer::O2MCApplication</title>
<!-- Node1 -->
<g id="node1" class="node"><title>Node1</title>
<polygon fill="#bfbfbf" stroke="black" points="232.5,-1 232.5,-157 369.5,-157 369.5,-1 232.5,-1"/>
<text text-anchor="middle" x="301" y="-145" font-family="Helvetica,sans-Serif" font-size="10.00">o2::steer::O2MCApplication</text>
<polyline fill="none" stroke="black" points="232.5,-138 369.5,-138 "/>
<text text-anchor="middle" x="301" y="-126" font-family="Helvetica,sans-Serif" font-size="10.00"> </text>
<polyline fill="none" stroke="black" points="232.5,-119 369.5,-119 "/>
<text text-anchor="start" x="240.5" y="-107" font-family="Helvetica,sans-Serif" font-size="10.00">+ ~O2MCApplication()</text>
<text text-anchor="start" x="240.5" y="-96" font-family="Helvetica,sans-Serif" font-size="10.00">+ SendData()</text>
<text text-anchor="start" x="240.5" y="-85" font-family="Helvetica,sans-Serif" font-size="10.00">+ initLate()</text>
<text text-anchor="start" x="240.5" y="-74" font-family="Helvetica,sans-Serif" font-size="10.00">+ FinishEvent()</text>
<text text-anchor="start" x="240.5" y="-63" font-family="Helvetica,sans-Serif" font-size="10.00">+ FinishRun()</text>
<text text-anchor="start" x="240.5" y="-52" font-family="Helvetica,sans-Serif" font-size="10.00">+ attachSubEventInfo()</text>
<text text-anchor="start" x="240.5" y="-41" font-family="Helvetica,sans-Serif" font-size="10.00">+ GeneratePrimaries()</text>
<text text-anchor="start" x="240.5" y="-30" font-family="Helvetica,sans-Serif" font-size="10.00">+ setPrimaries()</text>
<text text-anchor="start" x="240.5" y="-19" font-family="Helvetica,sans-Serif" font-size="10.00">+ setSimDataChannel()</text>
<text text-anchor="start" x="240.5" y="-8" font-family="Helvetica,sans-Serif" font-size="10.00">+ setSubEventInfo()</text>
</g>
<!-- Node2 -->
<g id="node2" class="node"><title>Node2</title>
<g id="a_node2"><a xlink:href="../../d8/def/classFairMCApplication.html" target="_top" xlink:title="{FairMCApplication\n||}">
<polygon fill="none" stroke="black" points="-0.5,-206.5 -0.5,-263.5 96.5,-263.5 96.5,-206.5 -0.5,-206.5"/>
<text text-anchor="middle" x="48" y="-251.5" font-family="Helvetica,sans-Serif" font-size="10.00">FairMCApplication</text>
<polyline fill="none" stroke="black" points="-0.5,-244.5 96.5,-244.5 "/>
<text text-anchor="middle" x="48" y="-232.5" font-family="Helvetica,sans-Serif" font-size="10.00"> </text>
<polyline fill="none" stroke="black" points="-0.5,-225.5 96.5,-225.5 "/>
<text text-anchor="middle" x="48" y="-213.5" font-family="Helvetica,sans-Serif" font-size="10.00"> </text>
</a>
</g>
</g>
<!-- Node2&#45;&gt;Node1 -->
<g id="edge1" class="edge"><title>Node2&#45;&gt;Node1</title>
<path fill="none" stroke="midnightblue" d="M102.117,-201.059C140.171,-177.896 191.394,-146.716 232.326,-121.802"/>
<polygon fill="none" stroke="midnightblue" points="99.9535,-198.279 93.2313,-206.468 103.593,-204.258 99.9535,-198.279"/>
</g>
<!-- Node3 -->
<g id="node3" class="node"><title>Node3</title>
<polygon fill="none" stroke="#bfbfbf" points="115,-206.5 115,-263.5 207,-263.5 207,-206.5 115,-206.5"/>
<text text-anchor="middle" x="161" y="-251.5" font-family="Helvetica,sans-Serif" font-size="10.00">FairMQChannel *</text>
<polyline fill="none" stroke="#bfbfbf" points="115,-244.5 207,-244.5 "/>
<text text-anchor="middle" x="161" y="-232.5" font-family="Helvetica,sans-Serif" font-size="10.00"> </text>
<polyline fill="none" stroke="#bfbfbf" points="115,-225.5 207,-225.5 "/>
<text text-anchor="middle" x="161" y="-213.5" font-family="Helvetica,sans-Serif" font-size="10.00"> </text>
</g>
<!-- Node3&#45;&gt;Node1 -->
<g id="edge2" class="edge"><title>Node3&#45;&gt;Node1</title>
<path fill="none" stroke="#404040" d="M180.849,-206.248C188.162,-196.459 196.693,-185.525 205,-176 211.046,-169.068 217.479,-162.019 224.041,-155.049"/>
<polygon fill="none" stroke="#404040" points="224.122,-154.963 225.367,-147.86 232.402,-146.278 231.157,-153.381 224.122,-154.963"/>
<text text-anchor="middle" x="251" y="-179.5" font-family="Helvetica,sans-Serif" font-size="10.00"> +mSimDataChannel</text>
</g>
<!-- Node4 -->
<g id="node4" class="node"><title>Node4</title>
<polygon fill="none" stroke="#bfbfbf" points="225.5,-206.5 225.5,-263.5 376.5,-263.5 376.5,-206.5 225.5,-206.5"/>
<text text-anchor="middle" x="301" y="-251.5" font-family="Helvetica,sans-Serif" font-size="10.00">vector&lt; o2::Base::Detector * &gt;</text>
<polyline fill="none" stroke="#bfbfbf" points="225.5,-244.5 376.5,-244.5 "/>
<text text-anchor="middle" x="301" y="-232.5" font-family="Helvetica,sans-Serif" font-size="10.00"> </text>
<polyline fill="none" stroke="#bfbfbf" points="225.5,-225.5 376.5,-225.5 "/>
<text text-anchor="middle" x="301" y="-213.5" font-family="Helvetica,sans-Serif" font-size="10.00"> </text>
</g>
<!-- Node4&#45;&gt;Node1 -->
<g id="edge3" class="edge"><title>Node4&#45;&gt;Node1</title>
<path fill="none" stroke="#404040" d="M301,-206.468C301,-195.804 301,-182.944 301,-169.564"/>
<polygon fill="none" stroke="#404040" points="301,-169.178 297,-163.178 301,-157.178 305,-163.178 301,-169.178"/>
<text text-anchor="middle" x="351.5" y="-179.5" font-family="Helvetica,sans-Serif" font-size="10.00"> +mActiveO2Detectors</text>
</g>
<!-- Node5 -->
<g id="node5" class="node"><title>Node5</title>
<polygon fill="none" stroke="#bfbfbf" points="394.5,-206.5 394.5,-263.5 495.5,-263.5 495.5,-206.5 394.5,-206.5"/>
<text text-anchor="middle" x="445" y="-251.5" font-family="Helvetica,sans-Serif" font-size="10.00">vector&lt; TParticle &gt;</text>
<polyline fill="none" stroke="#bfbfbf" points="394.5,-244.5 495.5,-244.5 "/>
<text text-anchor="middle" x="445" y="-232.5" font-family="Helvetica,sans-Serif" font-size="10.00"> </text>
<polyline fill="none" stroke="#bfbfbf" points="394.5,-225.5 495.5,-225.5 "/>
<text text-anchor="middle" x="445" y="-213.5" font-family="Helvetica,sans-Serif" font-size="10.00"> </text>
</g>
<!-- Node5&#45;&gt;Node1 -->
<g id="edge4" class="edge"><title>Node5&#45;&gt;Node1</title>
<path fill="none" stroke="#404040" d="M428.41,-206.466C421.91,-196.49 414.078,-185.378 406,-176 397.546,-166.185 388.149,-156.363 378.55,-146.948"/>
<polygon fill="none" stroke="#404040" points="378.345,-146.75 371.248,-145.471 369.699,-138.428 376.796,-139.707 378.345,-146.75"/>
<text text-anchor="middle" x="445.5" y="-179.5" font-family="Helvetica,sans-Serif" font-size="10.00"> +mPrimaries</text>
</g>
<!-- Node6 -->
<g id="node6" class="node"><title>Node6</title>
<g id="a_node6"><a xlink:href="../../d8/dff/structo2_1_1Data_1_1SubEventInfo.html" target="_top" xlink:title="{o2::Data::SubEventInfo\n||+ ClassDefNV()\l}">
<polygon fill="none" stroke="black" points="513.5,-206.5 513.5,-263.5 632.5,-263.5 632.5,-206.5 513.5,-206.5"/>
<text text-anchor="middle" x="573" y="-251.5" font-family="Helvetica,sans-Serif" font-size="10.00">o2::Data::SubEventInfo</text>
<polyline fill="none" stroke="black" points="513.5,-244.5 632.5,-244.5 "/>
<text text-anchor="middle" x="573" y="-232.5" font-family="Helvetica,sans-Serif" font-size="10.00"> </text>
<polyline fill="none" stroke="black" points="513.5,-225.5 632.5,-225.5 "/>
<text text-anchor="start" x="521.5" y="-213.5" font-family="Helvetica,sans-Serif" font-size="10.00">+ ClassDefNV()</text>
</a>
</g>
</g>
<!-- Node6&#45;&gt;Node1 -->
<g id="edge5" class="edge"><title>Node6&#45;&gt;Node1</title>
<path fill="none" stroke="#404040" d="M529.323,-206.32C513.581,-196.538 495.606,-185.59 479,-176 447.043,-157.544 411.321,-138.06 380.314,-121.504"/>
<polygon fill="none" stroke="#404040" points="380.149,-121.416 372.973,-122.127 369.556,-115.776 376.732,-115.065 380.149,-121.416"/>
<text text-anchor="middle" x="536.5" y="-179.5" font-family="Helvetica,sans-Serif" font-size="10.00"> +mSubEventInfo</text>
</g>
<!-- Node7 -->
<g id="node7" class="node"><title>Node7</title>
<polygon fill="none" stroke="#bfbfbf" points="448.5,-334.5 448.5,-391.5 499.5,-391.5 499.5,-334.5 448.5,-334.5"/>
<text text-anchor="middle" x="474" y="-379.5" font-family="Helvetica,sans-Serif" font-size="10.00">uint32_t</text>
<polyline fill="none" stroke="#bfbfbf" points="448.5,-372.5 499.5,-372.5 "/>
<text text-anchor="middle" x="474" y="-360.5" font-family="Helvetica,sans-Serif" font-size="10.00"> </text>
<polyline fill="none" stroke="#bfbfbf" points="448.5,-353.5 499.5,-353.5 "/>
<text text-anchor="middle" x="474" y="-341.5" font-family="Helvetica,sans-Serif" font-size="10.00"> </text>
</g>
<!-- Node7&#45;&gt;Node6 -->
<g id="edge6" class="edge"><title>Node7&#45;&gt;Node6</title>
<path fill="none" stroke="#404040" d="M476.017,-334.139C478.423,-317.602 483.656,-297.005 495,-282 497.903,-278.159 501.229,-274.579 504.833,-271.253"/>
<polygon fill="none" stroke="#404040" points="505.007,-271.11 507.11,-264.212 514.286,-263.5 512.183,-270.398 505.007,-271.11"/>
<text text-anchor="middle" x="515.5" y="-307.5" font-family="Helvetica,sans-Serif" font-size="10.00"> +index</text>
<text text-anchor="middle" x="515.5" y="-296.5" font-family="Helvetica,sans-Serif" font-size="10.00">+eventID</text>
<text text-anchor="middle" x="515.5" y="-285.5" font-family="Helvetica,sans-Serif" font-size="10.00">+seed</text>
</g>
<!-- Node8 -->
<g id="node8" class="node"><title>Node8</title>
<polygon fill="none" stroke="#bfbfbf" points="517.5,-334.5 517.5,-391.5 568.5,-391.5 568.5,-334.5 517.5,-334.5"/>
<text text-anchor="middle" x="543" y="-379.5" font-family="Helvetica,sans-Serif" font-size="10.00">uint16_t</text>
<polyline fill="none" stroke="#bfbfbf" points="517.5,-372.5 568.5,-372.5 "/>
<text text-anchor="middle" x="543" y="-360.5" font-family="Helvetica,sans-Serif" font-size="10.00"> </text>
<polyline fill="none" stroke="#bfbfbf" points="517.5,-353.5 568.5,-353.5 "/>
<text text-anchor="middle" x="543" y="-341.5" font-family="Helvetica,sans-Serif" font-size="10.00"> </text>
</g>
<!-- Node8&#45;&gt;Node6 -->
<g id="edge7" class="edge"><title>Node8&#45;&gt;Node6</title>
<path fill="none" stroke="#404040" d="M540.748,-334.438C540.275,-318.765 541.052,-298.944 546,-282 546.71,-279.569 547.576,-277.133 548.557,-274.721"/>
<polygon fill="none" stroke="#404040" points="548.647,-274.532 547.631,-267.393 553.83,-263.709 554.846,-270.848 548.647,-274.532"/>
<text text-anchor="middle" x="563" y="-302" font-family="Helvetica,sans-Serif" font-size="10.00"> +part</text>
<text text-anchor="middle" x="563" y="-291" font-family="Helvetica,sans-Serif" font-size="10.00">+nparts</text>
</g>
<!-- Node9 -->
<g id="node9" class="node"><title>Node9</title>
<g id="a_node9"><a xlink:href="../../d4/dc3/classfloat.html" target="_top" xlink:title="{float\n||}">
<polygon fill="none" stroke="black" points="586.5,-334.5 586.5,-391.5 621.5,-391.5 621.5,-334.5 586.5,-334.5"/>
<text text-anchor="middle" x="604" y="-379.5" font-family="Helvetica,sans-Serif" font-size="10.00">float</text>
<polyline fill="none" stroke="black" points="586.5,-372.5 621.5,-372.5 "/>
<text text-anchor="middle" x="604" y="-360.5" font-family="Helvetica,sans-Serif" font-size="10.00"> </text>
<polyline fill="none" stroke="black" points="586.5,-353.5 621.5,-353.5 "/>
<text text-anchor="middle" x="604" y="-341.5" font-family="Helvetica,sans-Serif" font-size="10.00"> </text>
</a>
</g>
</g>
<!-- Node9&#45;&gt;Node6 -->
<g id="edge8" class="edge"><title>Node9&#45;&gt;Node6</title>
<path fill="none" stroke="#404040" d="M597.197,-334.349C592.937,-317.033 587.381,-294.451 582.667,-275.293"/>
<polygon fill="none" stroke="#404040" points="582.654,-275.239 577.337,-270.369 579.787,-263.587 585.105,-268.457 582.654,-275.239"/>
<text text-anchor="middle" x="618" y="-296.5" font-family="Helvetica,sans-Serif" font-size="10.00"> +eventtime</text>
</g>
<!-- Node10 -->
<g id="node10" class="node"><title>Node10</title>
<polygon fill="none" stroke="#bfbfbf" points="654,-334.5 654,-391.5 700,-391.5 700,-334.5 654,-334.5"/>
<text text-anchor="middle" x="677" y="-379.5" font-family="Helvetica,sans-Serif" font-size="10.00">int32_t</text>
<polyline fill="none" stroke="#bfbfbf" points="654,-372.5 700,-372.5 "/>
<text text-anchor="middle" x="677" y="-360.5" font-family="Helvetica,sans-Serif" font-size="10.00"> </text>
<polyline fill="none" stroke="#bfbfbf" points="654,-353.5 700,-353.5 "/>
<text text-anchor="middle" x="677" y="-341.5" font-family="Helvetica,sans-Serif" font-size="10.00"> </text>
</g>
<!-- Node10&#45;&gt;Node6 -->
<g id="edge9" class="edge"><title>Node10&#45;&gt;Node6</title>
<path fill="none" stroke="#404040" d="M671.759,-334.133C667.539,-317.594 660.232,-296.997 648,-282 644.938,-278.245 641.483,-274.715 637.78,-271.411"/>
<polygon fill="none" stroke="#404040" points="637.498,-271.185 630.316,-270.543 628.146,-263.666 635.328,-264.308 637.498,-271.185"/>
<text text-anchor="middle" x="706" y="-307.5" font-family="Helvetica,sans-Serif" font-size="10.00"> +runID</text>
<text text-anchor="middle" x="706" y="-296.5" font-family="Helvetica,sans-Serif" font-size="10.00">+maxEvents</text>
<text text-anchor="middle" x="706" y="-285.5" font-family="Helvetica,sans-Serif" font-size="10.00">+npersistenttracks</text>
</g>
</g>
</svg>
