<?xml version="1.0" encoding="UTF-8" standalone="no"?>
<!DOCTYPE svg PUBLIC "-//W3C//DTD SVG 1.1//EN"
 "http://www.w3.org/Graphics/SVG/1.1/DTD/svg11.dtd">
<!-- Generated by graphviz version 2.36.0 (20140111.2315)
 -->
<!-- Title: o2::DataFlow::StreamingState Pages: 1 -->
<svg width="1388pt" height="1222pt"
 viewBox="0.00 0.00 1388.36 1222.00" xmlns="http://www.w3.org/2000/svg" xmlns:xlink="http://www.w3.org/1999/xlink">
<g id="graph0" class="graph" transform="scale(1 1) rotate(0) translate(4 1218)">
<title>o2::DataFlow::StreamingState</title>
<!-- Node1 -->
<g id="node1" class="node"><title>Node1</title>
<polygon fill="#bfbfbf" stroke="black" points="686.857,-0.5 686.857,-57.5 835.857,-57.5 835.857,-0.5 686.857,-0.5"/>
<text text-anchor="middle" x="761.357" y="-45.5" font-family="Helvetica,sans-Serif" font-size="10.00">o2::DataFlow::StreamingState</text>
<polyline fill="none" stroke="black" points="686.857,-38.5 835.857,-38.5 "/>
<text text-anchor="middle" x="761.357" y="-26.5" font-family="Helvetica,sans-Serif" font-size="10.00"> </text>
<polyline fill="none" stroke="black" points="686.857,-19.5 835.857,-19.5 "/>
<text text-anchor="start" x="694.857" y="-7.5" font-family="Helvetica,sans-Serif" font-size="10.00">+ StreamingState()</text>
</g>
<!-- Node2 -->
<g id="node2" class="node"><title>Node2</title>
<polygon fill="none" stroke="#bfbfbf" points="594.857,-166.5 594.857,-223.5 667.857,-223.5 667.857,-166.5 594.857,-166.5"/>
<text text-anchor="middle" x="631.357" y="-211.5" font-family="Helvetica,sans-Serif" font-size="10.00">ParsingState</text>
<polyline fill="none" stroke="#bfbfbf" points="594.857,-204.5 667.857,-204.5 "/>
<text text-anchor="middle" x="631.357" y="-192.5" font-family="Helvetica,sans-Serif" font-size="10.00"> </text>
<polyline fill="none" stroke="#bfbfbf" points="594.857,-185.5 667.857,-185.5 "/>
<text text-anchor="middle" x="631.357" y="-173.5" font-family="Helvetica,sans-Serif" font-size="10.00"> </text>
</g>
<!-- Node2&#45;&gt;Node1 -->
<g id="edge1" class="edge"><title>Node2&#45;&gt;Node1</title>
<path fill="none" stroke="#404040" d="M632.109,-166.154C634.199,-140.113 641.026,-101.512 662.357,-76 666.431,-71.1269 671.135,-66.7414 676.235,-62.7992"/>
<polygon fill="none" stroke="#404040" points="676.584,-62.5589 679.257,-55.8615 686.468,-55.7531 683.794,-62.4505 676.584,-62.5589"/>
<text text-anchor="middle" x="677.857" y="-84.5" font-family="Helvetica,sans-Serif" font-size="10.00"> +state</text>
</g>
<!-- Node3 -->
<g id="node3" class="node"><title>Node3</title>
<polygon fill="none" stroke="#bfbfbf" points="685.857,-166.5 685.857,-223.5 720.857,-223.5 720.857,-166.5 685.857,-166.5"/>
<text text-anchor="middle" x="703.357" y="-211.5" font-family="Helvetica,sans-Serif" font-size="10.00">bool</text>
<polyline fill="none" stroke="#bfbfbf" points="685.857,-204.5 720.857,-204.5 "/>
<text text-anchor="middle" x="703.357" y="-192.5" font-family="Helvetica,sans-Serif" font-size="10.00"> </text>
<polyline fill="none" stroke="#bfbfbf" points="685.857,-185.5 720.857,-185.5 "/>
<text text-anchor="middle" x="703.357" y="-173.5" font-family="Helvetica,sans-Serif" font-size="10.00"> </text>
</g>
<!-- Node3&#45;&gt;Node1 -->
<g id="edge2" class="edge"><title>Node3&#45;&gt;Node1</title>
<path fill="none" stroke="#404040" d="M697.169,-166.258C693.056,-141.338 690.63,-104.407 704.357,-76 705.913,-72.7798 707.815,-69.7119 709.968,-66.8018"/>
<polygon fill="none" stroke="#404040" points="710.2,-66.5382 711.155,-59.3906 718.12,-57.523 717.165,-64.6707 710.2,-66.5382"/>
<text text-anchor="middle" x="751.357" y="-90" font-family="Helvetica,sans-Serif" font-size="10.00"> +hasDataHeader</text>
<text text-anchor="middle" x="751.357" y="-79" font-family="Helvetica,sans-Serif" font-size="10.00">+hasConcreteHeader</text>
</g>
<!-- Node4 -->
<g id="node4" class="node"><title>Node4</title>
<polygon fill="none" stroke="#bfbfbf" points="799.857,-166.5 799.857,-223.5 840.857,-223.5 840.857,-166.5 799.857,-166.5"/>
<text text-anchor="middle" x="820.357" y="-211.5" font-family="Helvetica,sans-Serif" font-size="10.00">void *</text>
<polyline fill="none" stroke="#bfbfbf" points="799.857,-204.5 840.857,-204.5 "/>
<text text-anchor="middle" x="820.357" y="-192.5" font-family="Helvetica,sans-Serif" font-size="10.00"> </text>
<polyline fill="none" stroke="#bfbfbf" points="799.857,-185.5 840.857,-185.5 "/>
<text text-anchor="middle" x="820.357" y="-173.5" font-family="Helvetica,sans-Serif" font-size="10.00"> </text>
</g>
<!-- Node4&#45;&gt;Node1 -->
<g id="edge3" class="edge"><title>Node4&#45;&gt;Node1</title>
<path fill="none" stroke="#404040" d="M819.005,-166.134C816.93,-141.461 811.673,-104.97 798.357,-76 797.083,-73.2296 795.606,-70.4819 793.99,-67.789"/>
<polygon fill="none" stroke="#404040" points="793.92,-67.6857 787.247,-64.9532 787.202,-57.7422 793.876,-60.4748 793.92,-67.6857"/>
<text text-anchor="middle" x="840.857" y="-90" font-family="Helvetica,sans-Serif" font-size="10.00"> +headerBuffer</text>
<text text-anchor="middle" x="840.857" y="-79" font-family="Helvetica,sans-Serif" font-size="10.00">+payloadBuffer</text>
</g>
<!-- Node5 -->
<g id="node5" class="node"><title>Node5</title>
<g id="a_node5"><a xlink:href="../../db/d87/structo2_1_1header_1_1DataHeader.html" target="_top" xlink:title="the main header struct ">
<polygon fill="none" stroke="black" points="858.857,-117 858.857,-273 979.857,-273 979.857,-117 858.857,-117"/>
<text text-anchor="middle" x="919.357" y="-261" font-family="Helvetica,sans-Serif" font-size="10.00">o2::header::DataHeader</text>
<polyline fill="none" stroke="black" points="858.857,-254 979.857,-254 "/>
<text text-anchor="middle" x="919.357" y="-242" font-family="Helvetica,sans-Serif" font-size="10.00"> </text>
<polyline fill="none" stroke="black" points="858.857,-235 979.857,-235 "/>
<text text-anchor="start" x="866.857" y="-223" font-family="Helvetica,sans-Serif" font-size="10.00">+ DataHeader()</text>
<text text-anchor="start" x="866.857" y="-212" font-family="Helvetica,sans-Serif" font-size="10.00">+ DataHeader()</text>
<text text-anchor="start" x="866.857" y="-201" font-family="Helvetica,sans-Serif" font-size="10.00">+ DataHeader()</text>
<text text-anchor="start" x="866.857" y="-190" font-family="Helvetica,sans-Serif" font-size="10.00">+ operator=()</text>
<text text-anchor="start" x="866.857" y="-179" font-family="Helvetica,sans-Serif" font-size="10.00">+ operator==()</text>
<text text-anchor="start" x="866.857" y="-168" font-family="Helvetica,sans-Serif" font-size="10.00">+ operator==()</text>
<text text-anchor="start" x="866.857" y="-157" font-family="Helvetica,sans-Serif" font-size="10.00">+ operator==()</text>
<text text-anchor="start" x="866.857" y="-146" font-family="Helvetica,sans-Serif" font-size="10.00">+ operator==()</text>
<text text-anchor="start" x="866.857" y="-135" font-family="Helvetica,sans-Serif" font-size="10.00">+ print()</text>
<text text-anchor="start" x="866.857" y="-124" font-family="Helvetica,sans-Serif" font-size="10.00">+ Get()</text>
</a>
</g>
</g>
<!-- Node5&#45;&gt;Node1 -->
<g id="edge4" class="edge"><title>Node5&#45;&gt;Node1</title>
<path fill="none" stroke="#404040" d="M903.27,-116.816C897.371,-101.919 889.324,-87.4175 878.357,-76 869.534,-66.8153 858.654,-59.4277 847.114,-53.4952"/>
<polygon fill="none" stroke="#404040" points="846.761,-53.3299 839.631,-54.4086 835.893,-48.242 843.023,-47.1633 846.761,-53.3299"/>
<text text-anchor="middle" x="904.357" y="-84.5" font-family="Helvetica,sans-Serif" font-size="10.00"> +dh</text>
</g>
<!-- Node6 -->
<g id="node6" class="node"><title>Node6</title>
<g id="a_node6"><a xlink:href="../../d8/dbd/structo2_1_1header_1_1BaseHeader.html" target="_top" xlink:title="the base header struct Every header type must begin (i.e. derive) with this. Don&#39;t use this struct di...">
<polygon fill="none" stroke="black" points="686.357,-332.5 686.357,-477.5 808.357,-477.5 808.357,-332.5 686.357,-332.5"/>
<text text-anchor="middle" x="747.357" y="-465.5" font-family="Helvetica,sans-Serif" font-size="10.00">o2::header::BaseHeader</text>
<polyline fill="none" stroke="black" points="686.357,-458.5 808.357,-458.5 "/>
<text text-anchor="middle" x="747.357" y="-446.5" font-family="Helvetica,sans-Serif" font-size="10.00"> </text>
<polyline fill="none" stroke="black" points="686.357,-439.5 808.357,-439.5 "/>
<text text-anchor="start" x="694.357" y="-427.5" font-family="Helvetica,sans-Serif" font-size="10.00">+ BaseHeader()</text>
<text text-anchor="start" x="694.357" y="-416.5" font-family="Helvetica,sans-Serif" font-size="10.00">+ BaseHeader()</text>
<text text-anchor="start" x="694.357" y="-405.5" font-family="Helvetica,sans-Serif" font-size="10.00">+ BaseHeader()</text>
<text text-anchor="start" x="694.357" y="-394.5" font-family="Helvetica,sans-Serif" font-size="10.00">+ size()</text>
<text text-anchor="start" x="694.357" y="-383.5" font-family="Helvetica,sans-Serif" font-size="10.00">+ data()</text>
<text text-anchor="start" x="694.357" y="-372.5" font-family="Helvetica,sans-Serif" font-size="10.00">+ next()</text>
<text text-anchor="start" x="694.357" y="-361.5" font-family="Helvetica,sans-Serif" font-size="10.00">+ next()</text>
<text text-anchor="start" x="694.357" y="-350.5" font-family="Helvetica,sans-Serif" font-size="10.00">+ get()</text>
<text text-anchor="start" x="694.357" y="-339.5" font-family="Helvetica,sans-Serif" font-size="10.00">+ get()</text>
</a>
</g>
</g>
<!-- Node6&#45;&gt;Node5 -->
<g id="edge5" class="edge"><title>Node6&#45;&gt;Node5</title>
<path fill="none" stroke="midnightblue" d="M813.321,-324.229C828.204,-306.231 843.935,-287.207 858.593,-269.482"/>
<polygon fill="none" stroke="midnightblue" points="810.225,-322.481 806.549,-332.418 815.619,-326.942 810.225,-322.481"/>
</g>
<!-- Node7 -->
<g id="node7" class="node"><title>Node7</title>
<g id="a_node7"><a xlink:href="../../d9/db3/structo2_1_1header_1_1Descriptor.html" target="_top" xlink:title="{o2::header::Descriptor\l\&lt; gSizeHeaderDescriptionString \&gt;\n||+ Descriptor()\l+ Descriptor()\l+ Descriptor()\l+ Descriptor()\l+ operator=()\l+ operator ItgType()\l+ runtimeInit()\l+ operator==()\l+ operator==()\l+ operator\&lt;()\l+ operator!=()\l+ operator!=()\l+ as()\l+ print()\l}">
<polygon fill="none" stroke="black" points="401.357,-602.5 401.357,-813.5 567.357,-813.5 567.357,-602.5 401.357,-602.5"/>
<text text-anchor="start" x="409.357" y="-801.5" font-family="Helvetica,sans-Serif" font-size="10.00">o2::header::Descriptor</text>
<text text-anchor="middle" x="484.357" y="-790.5" font-family="Helvetica,sans-Serif" font-size="10.00">&lt; gSizeHeaderDescriptionString &gt;</text>
<polyline fill="none" stroke="black" points="401.357,-783.5 567.357,-783.5 "/>
<text text-anchor="middle" x="484.357" y="-771.5" font-family="Helvetica,sans-Serif" font-size="10.00"> </text>
<polyline fill="none" stroke="black" points="401.357,-764.5 567.357,-764.5 "/>
<text text-anchor="start" x="409.357" y="-752.5" font-family="Helvetica,sans-Serif" font-size="10.00">+ Descriptor()</text>
<text text-anchor="start" x="409.357" y="-741.5" font-family="Helvetica,sans-Serif" font-size="10.00">+ Descriptor()</text>
<text text-anchor="start" x="409.357" y="-730.5" font-family="Helvetica,sans-Serif" font-size="10.00">+ Descriptor()</text>
<text text-anchor="start" x="409.357" y="-719.5" font-family="Helvetica,sans-Serif" font-size="10.00">+ Descriptor()</text>
<text text-anchor="start" x="409.357" y="-708.5" font-family="Helvetica,sans-Serif" font-size="10.00">+ operator=()</text>
<text text-anchor="start" x="409.357" y="-697.5" font-family="Helvetica,sans-Serif" font-size="10.00">+ operator ItgType()</text>
<text text-anchor="start" x="409.357" y="-686.5" font-family="Helvetica,sans-Serif" font-size="10.00">+ runtimeInit()</text>
<text text-anchor="start" x="409.357" y="-675.5" font-family="Helvetica,sans-Serif" font-size="10.00">+ operator==()</text>
<text text-anchor="start" x="409.357" y="-664.5" font-family="Helvetica,sans-Serif" font-size="10.00">+ operator==()</text>
<text text-anchor="start" x="409.357" y="-653.5" font-family="Helvetica,sans-Serif" font-size="10.00">+ operator&lt;()</text>
<text text-anchor="start" x="409.357" y="-642.5" font-family="Helvetica,sans-Serif" font-size="10.00">+ operator!=()</text>
<text text-anchor="start" x="409.357" y="-631.5" font-family="Helvetica,sans-Serif" font-size="10.00">+ operator!=()</text>
<text text-anchor="start" x="409.357" y="-620.5" font-family="Helvetica,sans-Serif" font-size="10.00">+ as()</text>
<text text-anchor="start" x="409.357" y="-609.5" font-family="Helvetica,sans-Serif" font-size="10.00">+ print()</text>
</a>
</g>
</g>
<!-- Node7&#45;&gt;Node6 -->
<g id="edge6" class="edge"><title>Node7&#45;&gt;Node6</title>
<path fill="none" stroke="#404040" d="M488.663,-602.454C494.886,-565.368 507.518,-525.548 532.357,-496 568.002,-453.596 627.007,-430.807 674.195,-418.78"/>
<polygon fill="none" stroke="#404040" points="674.251,-418.767 679.144,-413.47 685.916,-415.949 681.022,-421.246 674.251,-418.767"/>
<text text-anchor="middle" x="560.857" y="-537.5" font-family="Helvetica,sans-Serif" font-size="10.00"> +description</text>
</g>
<!-- Node8 -->
<g id="node8" class="node"><title>Node8</title>
<polygon fill="none" stroke="#bfbfbf" points="141.357,-1155.5 141.357,-1212.5 179.357,-1212.5 179.357,-1155.5 141.357,-1155.5"/>
<text text-anchor="middle" x="160.357" y="-1200.5" font-family="Helvetica,sans-Serif" font-size="10.00">Type</text>
<polyline fill="none" stroke="#bfbfbf" points="141.357,-1193.5 179.357,-1193.5 "/>
<text text-anchor="middle" x="160.357" y="-1181.5" font-family="Helvetica,sans-Serif" font-size="10.00"> </text>
<polyline fill="none" stroke="#bfbfbf" points="141.357,-1174.5 179.357,-1174.5 "/>
<text text-anchor="middle" x="160.357" y="-1162.5" font-family="Helvetica,sans-Serif" font-size="10.00"> </text>
</g>
<!-- Node8&#45;&gt;Node7 -->
<g id="edge7" class="edge"><title>Node8&#45;&gt;Node7</title>
<path fill="none" stroke="#404040" d="M156.103,-1155.23C148.766,-1098.88 138.435,-968.275 182.357,-872 220.976,-787.348 299.915,-852.99 390.167,-814.173"/>
<polygon fill="none" stroke="#404040" points="390.394,-814.065 394.09,-807.874 401.227,-808.905 397.531,-815.096 390.394,-814.065"/>
<text text-anchor="middle" x="192.357" y="-975.5" font-family="Helvetica,sans-Serif" font-size="10.00"> +itg</text>
</g>
<!-- Node12 -->
<g id="node12" class="node"><title>Node12</title>
<g id="a_node12"><a xlink:href="../../d9/db3/structo2_1_1header_1_1Descriptor.html" target="_top" xlink:title="{o2::header::Descriptor\l\&lt; N, PrinterPolicy \&gt;\n||+ Descriptor()\l+ Descriptor()\l+ Descriptor()\l+ operator=()\l+ operator ItgType()\l+ Descriptor()\l+ runtimeInit()\l+ operator==()\l+ operator\&lt;()\l+ operator!=()\l+ operator==()\l+ operator!=()\l+ as()\l+ print()\l}">
<polygon fill="none" stroke="black" points="285.857,-872.5 285.857,-1083.5 398.857,-1083.5 398.857,-872.5 285.857,-872.5"/>
<text text-anchor="start" x="293.857" y="-1071.5" font-family="Helvetica,sans-Serif" font-size="10.00">o2::header::Descriptor</text>
<text text-anchor="middle" x="342.357" y="-1060.5" font-family="Helvetica,sans-Serif" font-size="10.00">&lt; N, PrinterPolicy &gt;</text>
<polyline fill="none" stroke="black" points="285.857,-1053.5 398.857,-1053.5 "/>
<text text-anchor="middle" x="342.357" y="-1041.5" font-family="Helvetica,sans-Serif" font-size="10.00"> </text>
<polyline fill="none" stroke="black" points="285.857,-1034.5 398.857,-1034.5 "/>
<text text-anchor="start" x="293.857" y="-1022.5" font-family="Helvetica,sans-Serif" font-size="10.00">+ Descriptor()</text>
<text text-anchor="start" x="293.857" y="-1011.5" font-family="Helvetica,sans-Serif" font-size="10.00">+ Descriptor()</text>
<text text-anchor="start" x="293.857" y="-1000.5" font-family="Helvetica,sans-Serif" font-size="10.00">+ Descriptor()</text>
<text text-anchor="start" x="293.857" y="-989.5" font-family="Helvetica,sans-Serif" font-size="10.00">+ operator=()</text>
<text text-anchor="start" x="293.857" y="-978.5" font-family="Helvetica,sans-Serif" font-size="10.00">+ operator ItgType()</text>
<text text-anchor="start" x="293.857" y="-967.5" font-family="Helvetica,sans-Serif" font-size="10.00">+ Descriptor()</text>
<text text-anchor="start" x="293.857" y="-956.5" font-family="Helvetica,sans-Serif" font-size="10.00">+ runtimeInit()</text>
<text text-anchor="start" x="293.857" y="-945.5" font-family="Helvetica,sans-Serif" font-size="10.00">+ operator==()</text>
<text text-anchor="start" x="293.857" y="-934.5" font-family="Helvetica,sans-Serif" font-size="10.00">+ operator&lt;()</text>
<text text-anchor="start" x="293.857" y="-923.5" font-family="Helvetica,sans-Serif" font-size="10.00">+ operator!=()</text>
<text text-anchor="start" x="293.857" y="-912.5" font-family="Helvetica,sans-Serif" font-size="10.00">+ operator==()</text>
<text text-anchor="start" x="293.857" y="-901.5" font-family="Helvetica,sans-Serif" font-size="10.00">+ operator!=()</text>
<text text-anchor="start" x="293.857" y="-890.5" font-family="Helvetica,sans-Serif" font-size="10.00">+ as()</text>
<text text-anchor="start" x="293.857" y="-879.5" font-family="Helvetica,sans-Serif" font-size="10.00">+ print()</text>
</a>
</g>
</g>
<!-- Node8&#45;&gt;Node12 -->
<g id="edge12" class="edge"><title>Node8&#45;&gt;Node12</title>
<path fill="none" stroke="#404040" d="M179.616,-1165.48C183.808,-1161.69 188.225,-1157.7 192.357,-1154 209.825,-1138.35 255.888,-1101.63 271.357,-1084 273.636,-1081.4 275.902,-1078.73 278.149,-1076"/>
<polygon fill="none" stroke="#404040" points="278.225,-1075.9 278.836,-1068.72 285.704,-1066.52 285.092,-1073.7 278.225,-1075.9"/>
<text text-anchor="middle" x="263.357" y="-1116.5" font-family="Helvetica,sans-Serif" font-size="10.00"> +itg</text>
</g>
<!-- Node14 -->
<g id="node14" class="node"><title>Node14</title>
<g id="a_node14"><a xlink:href="../../d9/db3/structo2_1_1header_1_1Descriptor.html" target="_top" xlink:title="{o2::header::Descriptor\l\&lt; gSizeSerializationMethodString \&gt;\n||+ Descriptor()\l+ Descriptor()\l+ Descriptor()\l+ Descriptor()\l+ operator=()\l+ operator ItgType()\l+ runtimeInit()\l+ operator==()\l+ operator==()\l+ operator\&lt;()\l+ operator!=()\l+ operator!=()\l+ as()\l+ print()\l}">
<polygon fill="none" stroke="black" points="213.357,-602.5 213.357,-813.5 383.357,-813.5 383.357,-602.5 213.357,-602.5"/>
<text text-anchor="start" x="221.357" y="-801.5" font-family="Helvetica,sans-Serif" font-size="10.00">o2::header::Descriptor</text>
<text text-anchor="middle" x="298.357" y="-790.5" font-family="Helvetica,sans-Serif" font-size="10.00">&lt; gSizeSerializationMethodString &gt;</text>
<polyline fill="none" stroke="black" points="213.357,-783.5 383.357,-783.5 "/>
<text text-anchor="middle" x="298.357" y="-771.5" font-family="Helvetica,sans-Serif" font-size="10.00"> </text>
<polyline fill="none" stroke="black" points="213.357,-764.5 383.357,-764.5 "/>
<text text-anchor="start" x="221.357" y="-752.5" font-family="Helvetica,sans-Serif" font-size="10.00">+ Descriptor()</text>
<text text-anchor="start" x="221.357" y="-741.5" font-family="Helvetica,sans-Serif" font-size="10.00">+ Descriptor()</text>
<text text-anchor="start" x="221.357" y="-730.5" font-family="Helvetica,sans-Serif" font-size="10.00">+ Descriptor()</text>
<text text-anchor="start" x="221.357" y="-719.5" font-family="Helvetica,sans-Serif" font-size="10.00">+ Descriptor()</text>
<text text-anchor="start" x="221.357" y="-708.5" font-family="Helvetica,sans-Serif" font-size="10.00">+ operator=()</text>
<text text-anchor="start" x="221.357" y="-697.5" font-family="Helvetica,sans-Serif" font-size="10.00">+ operator ItgType()</text>
<text text-anchor="start" x="221.357" y="-686.5" font-family="Helvetica,sans-Serif" font-size="10.00">+ runtimeInit()</text>
<text text-anchor="start" x="221.357" y="-675.5" font-family="Helvetica,sans-Serif" font-size="10.00">+ operator==()</text>
<text text-anchor="start" x="221.357" y="-664.5" font-family="Helvetica,sans-Serif" font-size="10.00">+ operator==()</text>
<text text-anchor="start" x="221.357" y="-653.5" font-family="Helvetica,sans-Serif" font-size="10.00">+ operator&lt;()</text>
<text text-anchor="start" x="221.357" y="-642.5" font-family="Helvetica,sans-Serif" font-size="10.00">+ operator!=()</text>
<text text-anchor="start" x="221.357" y="-631.5" font-family="Helvetica,sans-Serif" font-size="10.00">+ operator!=()</text>
<text text-anchor="start" x="221.357" y="-620.5" font-family="Helvetica,sans-Serif" font-size="10.00">+ as()</text>
<text text-anchor="start" x="221.357" y="-609.5" font-family="Helvetica,sans-Serif" font-size="10.00">+ print()</text>
</a>
</g>
</g>
<!-- Node8&#45;&gt;Node14 -->
<g id="edge21" class="edge"><title>Node8&#45;&gt;Node14</title>
<path fill="none" stroke="#404040" d="M140.949,-1174.99C110.978,-1161.4 54.5724,-1130.67 32.3567,-1084 -8.13736,-998.923 -13.0263,-954.572 32.3567,-872 68.0283,-807.097 141.483,-765.024 202.182,-739.909"/>
<polygon fill="none" stroke="#404040" points="202.222,-739.893 206.296,-733.943 213.355,-735.415 209.281,-741.365 202.222,-739.893"/>
<text text-anchor="middle" x="42.3567" y="-975.5" font-family="Helvetica,sans-Serif" font-size="10.00"> +itg</text>
</g>
<!-- Node9 -->
<g id="node9" class="node"><title>Node9</title>
<polygon fill="none" stroke="#bfbfbf" points="460.857,-1155.5 460.857,-1212.5 495.857,-1212.5 495.857,-1155.5 460.857,-1155.5"/>
<text text-anchor="middle" x="478.357" y="-1200.5" font-family="Helvetica,sans-Serif" font-size="10.00">char</text>
<polyline fill="none" stroke="#bfbfbf" points="460.857,-1193.5 495.857,-1193.5 "/>
<text text-anchor="middle" x="478.357" y="-1181.5" font-family="Helvetica,sans-Serif" font-size="10.00"> </text>
<polyline fill="none" stroke="#bfbfbf" points="460.857,-1174.5 495.857,-1174.5 "/>
<text text-anchor="middle" x="478.357" y="-1162.5" font-family="Helvetica,sans-Serif" font-size="10.00"> </text>
</g>
<!-- Node9&#45;&gt;Node6 -->
<g id="edge18" class="edge"><title>Node9&#45;&gt;Node6</title>
<path fill="none" stroke="#404040" d="M495.877,-1169C517.302,-1152.16 554.967,-1123.5 589.357,-1102 603.855,-1092.94 612.567,-1097.26 623.357,-1084 696.942,-993.547 637.039,-932.39 696.357,-832 702.112,-822.26 709.609,-824.269 714.357,-814 740.112,-758.291 746.135,-592.017 747.329,-489.74"/>
<polygon fill="none" stroke="#404040" points="747.33,-489.596 743.391,-483.556 747.451,-477.596 751.39,-483.636 747.33,-489.596"/>
<text text-anchor="middle" x="726.857" y="-840.5" font-family="Helvetica,sans-Serif" font-size="10.00"> +magicString</text>
</g>
<!-- Node9&#45;&gt;Node7 -->
<g id="edge8" class="edge"><title>Node9&#45;&gt;Node7</title>
<path fill="none" stroke="#404040" d="M483.045,-1155.48C492.377,-1101.15 514.203,-976.369 535.357,-872 538.906,-854.49 543.085,-849.473 539.357,-832 538.892,-829.821 538.385,-827.635 537.841,-825.443"/>
<polygon fill="none" stroke="#404040" points="537.793,-825.267 532.337,-820.552 534.592,-813.702 540.047,-818.418 537.793,-825.267"/>
<text text-anchor="middle" x="545.857" y="-975.5" font-family="Helvetica,sans-Serif" font-size="10.00"> +str</text>
</g>
<!-- Node9&#45;&gt;Node12 -->
<g id="edge13" class="edge"><title>Node9&#45;&gt;Node12</title>
<path fill="none" stroke="#404040" d="M460.808,-1176.49C443.25,-1169.15 416.582,-1155.61 400.357,-1136 390.246,-1123.78 381.81,-1109.63 374.794,-1094.93"/>
<polygon fill="none" stroke="#404040" points="374.624,-1094.56 368.515,-1090.72 369.702,-1083.61 375.811,-1087.44 374.624,-1094.56"/>
<text text-anchor="middle" x="410.857" y="-1116.5" font-family="Helvetica,sans-Serif" font-size="10.00"> +str</text>
</g>
<!-- Node9&#45;&gt;Node14 -->
<g id="edge22" class="edge"><title>Node9&#45;&gt;Node14</title>
<path fill="none" stroke="#404040" d="M475.465,-1155.33C468.922,-1099.71 450.101,-971.176 407.357,-872 400.46,-855.997 391.963,-839.877 382.782,-824.327"/>
<polygon fill="none" stroke="#404040" points="382.54,-823.927 376.012,-820.865 376.328,-813.66 382.856,-816.723 382.54,-823.927"/>
<text text-anchor="middle" x="475.857" y="-975.5" font-family="Helvetica,sans-Serif" font-size="10.00"> +str</text>
</g>
<!-- Node10 -->
<g id="node10" class="node"><title>Node10</title>
<polygon fill="none" stroke="#bfbfbf" points="201.857,-1155.5 201.857,-1212.5 230.857,-1212.5 230.857,-1155.5 201.857,-1155.5"/>
<text text-anchor="middle" x="216.357" y="-1200.5" font-family="Helvetica,sans-Serif" font-size="10.00">int</text>
<polyline fill="none" stroke="#bfbfbf" points="201.857,-1193.5 230.857,-1193.5 "/>
<text text-anchor="middle" x="216.357" y="-1181.5" font-family="Helvetica,sans-Serif" font-size="10.00"> </text>
<polyline fill="none" stroke="#bfbfbf" points="201.857,-1174.5 230.857,-1174.5 "/>
<text text-anchor="middle" x="216.357" y="-1162.5" font-family="Helvetica,sans-Serif" font-size="10.00"> </text>
</g>
<!-- Node10&#45;&gt;Node7 -->
<g id="edge9" class="edge"><title>Node10&#45;&gt;Node7</title>
<path fill="none" stroke="#404040" d="M213.401,-1155.24C206.023,-1079.22 190.828,-870.769 241.357,-832 292.045,-793.108 328.405,-839.817 390.21,-814.077"/>
<polygon fill="none" stroke="#404040" points="390.362,-814.005 394.063,-807.816 401.2,-808.852 397.499,-815.041 390.362,-814.005"/>
<text text-anchor="middle" x="243.857" y="-986.5" font-family="Helvetica,sans-Serif" font-size="10.00"> +arraySize</text>
<text text-anchor="middle" x="243.857" y="-975.5" font-family="Helvetica,sans-Serif" font-size="10.00">+size</text>
<text text-anchor="middle" x="243.857" y="-964.5" font-family="Helvetica,sans-Serif" font-size="10.00">+bitcount</text>
</g>
<!-- Node10&#45;&gt;Node12 -->
<g id="edge14" class="edge"><title>Node10&#45;&gt;Node12</title>
<path fill="none" stroke="#404040" d="M230.945,-1175.05C244.791,-1166.87 265.363,-1152.93 278.357,-1136 287.925,-1123.53 296.286,-1109.44 303.527,-1094.94"/>
<polygon fill="none" stroke="#404040" points="303.679,-1094.62 302.653,-1087.48 308.848,-1083.79 309.874,-1090.92 303.679,-1094.62"/>
<text text-anchor="middle" x="323.857" y="-1127.5" font-family="Helvetica,sans-Serif" font-size="10.00"> +arraySize</text>
<text text-anchor="middle" x="323.857" y="-1116.5" font-family="Helvetica,sans-Serif" font-size="10.00">+size</text>
<text text-anchor="middle" x="323.857" y="-1105.5" font-family="Helvetica,sans-Serif" font-size="10.00">+bitcount</text>
</g>
<!-- Node10&#45;&gt;Node14 -->
<g id="edge23" class="edge"><title>Node10&#45;&gt;Node14</title>
<path fill="none" stroke="#404040" d="M201.78,-1166.78C197.607,-1162.45 192.943,-1157.9 188.357,-1154 146.743,-1118.63 112.692,-1132.38 87.3567,-1084 43.649,-1000.53 45.8209,-956.573 87.3567,-872 111.679,-822.476 159.094,-783.733 202.825,-756.468"/>
<polygon fill="none" stroke="#404040" points="203.001,-756.361 206.053,-749.827 213.258,-750.132 210.206,-756.665 203.001,-756.361"/>
<text text-anchor="middle" x="112.857" y="-986.5" font-family="Helvetica,sans-Serif" font-size="10.00"> +arraySize</text>
<text text-anchor="middle" x="112.857" y="-975.5" font-family="Helvetica,sans-Serif" font-size="10.00">+size</text>
<text text-anchor="middle" x="112.857" y="-964.5" font-family="Helvetica,sans-Serif" font-size="10.00">+bitcount</text>
</g>
<!-- Node11 -->
<g id="node11" class="node"><title>Node11</title>
<polygon fill="none" stroke="#bfbfbf" points="692.857,-1155 692.857,-1213 721.857,-1213 721.857,-1155 692.857,-1155"/>
<polyline fill="none" stroke="#bfbfbf" points="692.857,-1193 721.857,-1193 "/>
<text text-anchor="middle" x="707.357" y="-1181" font-family="Helvetica,sans-Serif" font-size="10.00"> </text>
<polyline fill="none" stroke="#bfbfbf" points="692.857,-1174 721.857,-1174 "/>
<text text-anchor="middle" x="707.357" y="-1162" font-family="Helvetica,sans-Serif" font-size="10.00"> </text>
</g>
<!-- Node11&#45;&gt;Node6 -->
<g id="edge17" class="edge"><title>Node11&#45;&gt;Node6</title>
<path fill="none" stroke="#404040" d="M722.06,-1155.76C731.659,-1136.37 743.313,-1109.36 748.357,-1084 770.46,-972.861 758.75,-645.389 751.586,-489.854"/>
<polygon fill="none" stroke="#404040" points="751.574,-489.591 747.298,-483.784 751.015,-477.604 755.29,-483.411 751.574,-489.591"/>
<text text-anchor="middle" x="776.857" y="-840.5" font-family="Helvetica,sans-Serif" font-size="10.00"> +@16</text>
</g>
<!-- Node11&#45;&gt;Node6 -->
<g id="edge19" class="edge"><title>Node11&#45;&gt;Node6</title>
<path fill="none" stroke="#404040" d="M722.118,-1170.77C731.894,-1161.99 744.344,-1149.37 752.357,-1136 764.854,-1115.14 764.136,-1107.75 769.357,-1084 825.472,-828.762 809.008,-754.153 768.357,-496 768.016,-493.836 767.652,-491.646 767.267,-489.44"/>
<polygon fill="none" stroke="#404040" points="767.248,-489.333 762.213,-484.17 765.043,-477.537 770.077,-482.7 767.248,-489.333"/>
<text text-anchor="middle" x="820.857" y="-840.5" font-family="Helvetica,sans-Serif" font-size="10.00"> +@18</text>
</g>
<!-- Node11&#45;&gt;Node7 -->
<g id="edge10" class="edge"><title>Node11&#45;&gt;Node7</title>
<path fill="none" stroke="#404040" d="M708.747,-1154.84C712.371,-1075.78 720.434,-855.978 699.357,-832 664.332,-792.155 628.211,-838.882 581.357,-814 580.179,-813.374 579.007,-812.729 577.843,-812.064"/>
<polygon fill="none" stroke="#404040" points="577.718,-811.986 570.51,-812.182 567.557,-805.603 574.765,-805.407 577.718,-811.986"/>
<text text-anchor="middle" x="728.857" y="-975.5" font-family="Helvetica,sans-Serif" font-size="10.00"> +@14</text>
</g>
<!-- Node11&#45;&gt;Node12 -->
<g id="edge15" class="edge"><title>Node11&#45;&gt;Node12</title>
<path fill="none" stroke="#404040" d="M692.664,-1181.4C646.882,-1175.77 504.431,-1153.31 413.357,-1084 411.671,-1082.72 410.012,-1081.38 408.38,-1080"/>
<polygon fill="none" stroke="#404040" points="408.136,-1079.78 401.015,-1078.64 399.327,-1071.63 406.447,-1072.77 408.136,-1079.78"/>
<text text-anchor="middle" x="517.857" y="-1116.5" font-family="Helvetica,sans-Serif" font-size="10.00"> +@14</text>
</g>
<!-- Node11&#45;&gt;Node14 -->
<g id="edge24" class="edge"><title>Node11&#45;&gt;Node14</title>
<path fill="none" stroke="#404040" d="M697.953,-1154.93C671.963,-1079.09 597.319,-872.999 540.357,-832 489.623,-795.483 455.183,-839.118 394.606,-814.122"/>
<polygon fill="none" stroke="#404040" points="394.258,-813.958 387.126,-815.02 383.402,-808.845 390.535,-807.783 394.258,-813.958"/>
<text text-anchor="middle" x="686.857" y="-975.5" font-family="Helvetica,sans-Serif" font-size="10.00"> +@14</text>
</g>
<!-- Node12&#45;&gt;Node5 -->
<g id="edge32" class="edge"><title>Node12&#45;&gt;Node5</title>
<path fill="none" stroke="#404040" d="M285.833,-884.904C281.827,-880.357 277.662,-876.018 273.357,-872 261.427,-860.866 254.164,-864.112 241.357,-854 222.35,-838.993 213.187,-836.55 204.357,-814 152.792,-682.318 158.73,-625.585 215.357,-496 254.197,-407.117 274.674,-379.304 359.357,-332 451.851,-280.333 489.166,-304.634 594.357,-292 647.454,-285.623 781.347,-297.422 847.009,-273.72"/>
<polygon fill="none" stroke="#404040" points="847.395,-273.557 851.355,-267.531 858.441,-268.869 854.48,-274.895 847.395,-273.557"/>
<text text-anchor="middle" x="263.857" y="-543" font-family="Helvetica,sans-Serif" font-size="10.00"> +sHeaderType</text>
<text text-anchor="middle" x="263.857" y="-532" font-family="Helvetica,sans-Serif" font-size="10.00">+sSerializationMethod</text>
</g>
<!-- Node12&#45;&gt;Node6 -->
<g id="edge26" class="edge"><title>Node12&#45;&gt;Node6</title>
<path fill="none" stroke="#404040" d="M398.977,-875.125C400.406,-874.037 401.865,-872.993 403.357,-872 454.469,-837.957 486.007,-882.593 540.357,-854 561.524,-842.864 565.697,-835.411 576.357,-814 619.127,-728.09 581.018,-690.822 617.357,-602 633.751,-561.928 658.866,-521.426 682.666,-487.725"/>
<polygon fill="none" stroke="#404040" points="682.679,-487.707 682.921,-480.5 689.666,-477.951 689.425,-485.158 682.679,-487.707"/>
<text text-anchor="middle" x="665.857" y="-711" font-family="Helvetica,sans-Serif" font-size="10.00"> +sHeaderType</text>
<text text-anchor="middle" x="665.857" y="-700" font-family="Helvetica,sans-Serif" font-size="10.00">+sSerializationMethod</text>
</g>
<!-- Node12&#45;&gt;Node7 -->
<g id="edge11" class="edge"><title>Node12&#45;&gt;Node7</title>
<path fill="none" stroke="orange" d="M402.674,-863.162C411.371,-846.748 420.287,-829.92 428.884,-813.694"/>
<polygon fill="orange" stroke="orange" points="399.457,-861.758 397.868,-872.233 405.642,-865.035 399.457,-861.758"/>
<text text-anchor="start" x="418.357" y="-846" font-family="Helvetica,sans-Serif" font-size="10.00"> &lt; gSizeHeaderDescription</text>
<text text-anchor="middle" x="477.357" y="-835" font-family="Helvetica,sans-Serif" font-size="10.00">String &gt;</text>
</g>
<!-- Node12&#45;&gt;Node14 -->
<g id="edge25" class="edge"><title>Node12&#45;&gt;Node14</title>
<path fill="none" stroke="orange" d="M279.335,-881.316C276.703,-878.124 274.04,-875.009 271.357,-872 263.174,-862.826 255.493,-865.168 250.357,-854 244.484,-841.232 243.101,-827.535 244.599,-813.842"/>
<polygon fill="orange" stroke="orange" points="276.821,-883.776 285.806,-889.391 282.284,-879.399 276.821,-883.776"/>
<text text-anchor="start" x="250.357" y="-846" font-family="Helvetica,sans-Serif" font-size="10.00"> &lt; gSizeSerializationMethod</text>
<text text-anchor="middle" x="311.857" y="-835" font-family="Helvetica,sans-Serif" font-size="10.00">String &gt;</text>
</g>
<!-- Node13 -->
<g id="node13" class="node"><title>Node13</title>
<polygon fill="none" stroke="#bfbfbf" points="862.857,-679.5 862.857,-736.5 913.857,-736.5 913.857,-679.5 862.857,-679.5"/>
<text text-anchor="middle" x="888.357" y="-724.5" font-family="Helvetica,sans-Serif" font-size="10.00">uint32_t</text>
<polyline fill="none" stroke="#bfbfbf" points="862.857,-717.5 913.857,-717.5 "/>
<text text-anchor="middle" x="888.357" y="-705.5" font-family="Helvetica,sans-Serif" font-size="10.00"> </text>
<polyline fill="none" stroke="#bfbfbf" points="862.857,-698.5 913.857,-698.5 "/>
<text text-anchor="middle" x="888.357" y="-686.5" font-family="Helvetica,sans-Serif" font-size="10.00"> </text>
</g>
<!-- Node13&#45;&gt;Node5 -->
<g id="edge27" class="edge"><title>Node13&#45;&gt;Node5</title>
<path fill="none" stroke="#404040" d="M893.011,-679.246C896.986,-654.376 902.501,-616.859 905.357,-584 914.235,-481.854 917.506,-364.109 918.698,-285.365"/>
<polygon fill="none" stroke="#404040" points="918.702,-285.07 914.787,-279.014 918.872,-273.071 922.786,-279.127 918.702,-285.07"/>
<text text-anchor="middle" x="941.857" y="-408" font-family="Helvetica,sans-Serif" font-size="10.00"> +reserved</text>
<text text-anchor="middle" x="941.857" y="-397" font-family="Helvetica,sans-Serif" font-size="10.00">+sVersion</text>
</g>
<!-- Node13&#45;&gt;Node6 -->
<g id="edge16" class="edge"><title>Node13&#45;&gt;Node6</title>
<path fill="none" stroke="#404040" d="M872.049,-679.464C858.129,-655.046 838.357,-618.072 825.357,-584 810.946,-546.231 818.177,-533.201 802.357,-496 801.309,-493.536 800.201,-491.059 799.043,-488.58"/>
<polygon fill="none" stroke="#404040" points="798.995,-488.481 792.753,-484.871 793.684,-477.721 799.926,-481.331 798.995,-488.481"/>
<text text-anchor="middle" x="865.357" y="-576" font-family="Helvetica,sans-Serif" font-size="10.00"> +headerVersion</text>
<text text-anchor="middle" x="865.357" y="-565" font-family="Helvetica,sans-Serif" font-size="10.00">+headerSize</text>
<text text-anchor="middle" x="865.357" y="-554" font-family="Helvetica,sans-Serif" font-size="10.00">+sMagicString</text>
<text text-anchor="middle" x="865.357" y="-543" font-family="Helvetica,sans-Serif" font-size="10.00">+flagsNextHeader</text>
<text text-anchor="middle" x="865.357" y="-532" font-family="Helvetica,sans-Serif" font-size="10.00">+magicStringInt</text>
<text text-anchor="middle" x="865.357" y="-521" font-family="Helvetica,sans-Serif" font-size="10.00">+flagsUnused</text>
<text text-anchor="middle" x="865.357" y="-510" font-family="Helvetica,sans-Serif" font-size="10.00">+flags</text>
<text text-anchor="middle" x="865.357" y="-499" font-family="Helvetica,sans-Serif" font-size="10.00">+sVersion</text>
</g>
<!-- Node14&#45;&gt;Node5 -->
<g id="edge31" class="edge"><title>Node14&#45;&gt;Node5</title>
<path fill="none" stroke="#404040" d="M311.191,-602.246C318.954,-566.577 331.402,-527.734 351.357,-496 412,-399.557 445.395,-380.762 548.357,-332 667.998,-275.339 727.371,-337.371 847.945,-273.949"/>
<polygon fill="none" stroke="#404040" points="848.126,-273.849 851.462,-267.457 858.647,-268.077 855.31,-274.47 848.126,-273.849"/>
<text text-anchor="middle" x="612.857" y="-402.5" font-family="Helvetica,sans-Serif" font-size="10.00"> +payloadSerializationMethod</text>
</g>
<!-- Node14&#45;&gt;Node6 -->
<g id="edge20" class="edge"><title>Node14&#45;&gt;Node6</title>
<path fill="none" stroke="#404040" d="M342.76,-602.332C363.686,-563.999 392.132,-523.355 428.357,-496 500.701,-441.368 604.813,-419.893 674.197,-411.455"/>
<polygon fill="none" stroke="#404040" points="674.382,-411.434 679.889,-406.778 686.304,-410.071 680.797,-414.727 674.382,-411.434"/>
<text text-anchor="middle" x="458.857" y="-537.5" font-family="Helvetica,sans-Serif" font-size="10.00"> +serialization</text>
</g>
<!-- Node15 -->
<g id="node15" class="node"><title>Node15</title>
<polygon fill="none" stroke="#bfbfbf" points="984.857,-376.5 984.857,-433.5 1035.86,-433.5 1035.86,-376.5 984.857,-376.5"/>
<text text-anchor="middle" x="1010.36" y="-421.5" font-family="Helvetica,sans-Serif" font-size="10.00">uint64_t</text>
<polyline fill="none" stroke="#bfbfbf" points="984.857,-414.5 1035.86,-414.5 "/>
<text text-anchor="middle" x="1010.36" y="-402.5" font-family="Helvetica,sans-Serif" font-size="10.00"> </text>
<polyline fill="none" stroke="#bfbfbf" points="984.857,-395.5 1035.86,-395.5 "/>
<text text-anchor="middle" x="1010.36" y="-383.5" font-family="Helvetica,sans-Serif" font-size="10.00"> </text>
</g>
<!-- Node15&#45;&gt;Node5 -->
<g id="edge28" class="edge"><title>Node15&#45;&gt;Node5</title>
<path fill="none" stroke="#404040" d="M998.273,-376.379C987.935,-352.749 972.467,-317.396 957.958,-284.232"/>
<polygon fill="none" stroke="#404040" points="957.893,-284.083 951.823,-280.189 953.083,-273.089 959.153,-276.983 957.893,-284.083"/>
<text text-anchor="middle" x="1009.86" y="-306" font-family="Helvetica,sans-Serif" font-size="10.00"> +payloadSize</text>
<text text-anchor="middle" x="1009.86" y="-295" font-family="Helvetica,sans-Serif" font-size="10.00">+subSpecification</text>
</g>
<!-- Node16 -->
<g id="node16" class="node"><title>Node16</title>
<polygon fill="none" stroke="#bfbfbf" points="1054.36,-371 1054.36,-439 1196.36,-439 1196.36,-371 1054.36,-371"/>
<text text-anchor="start" x="1062.36" y="-427" font-family="Helvetica,sans-Serif" font-size="10.00">Descriptor&lt; gSizeDataOrigin</text>
<text text-anchor="middle" x="1125.36" y="-416" font-family="Helvetica,sans-Serif" font-size="10.00">String, printDataOrigin &gt;</text>
<polyline fill="none" stroke="#bfbfbf" points="1054.36,-409 1196.36,-409 "/>
<text text-anchor="middle" x="1125.36" y="-397" font-family="Helvetica,sans-Serif" font-size="10.00"> </text>
<polyline fill="none" stroke="#bfbfbf" points="1054.36,-390 1196.36,-390 "/>
<text text-anchor="middle" x="1125.36" y="-378" font-family="Helvetica,sans-Serif" font-size="10.00"> </text>
</g>
<!-- Node16&#45;&gt;Node5 -->
<g id="edge29" class="edge"><title>Node16&#45;&gt;Node5</title>
<path fill="none" stroke="#404040" d="M1108.42,-370.801C1095.38,-347.197 1075.82,-315.619 1053.36,-292 1034.8,-272.485 1011.78,-254.346 990.087,-239.208"/>
<polygon fill="none" stroke="#404040" points="989.81,-239.019 982.599,-238.936 979.902,-232.248 987.113,-232.331 989.81,-239.019"/>
<text text-anchor="middle" x="1097.36" y="-300.5" font-family="Helvetica,sans-Serif" font-size="10.00"> +dataOrigin</text>
</g>
<!-- Node17 -->
<g id="node17" class="node"><title>Node17</title>
<polygon fill="none" stroke="#bfbfbf" points="1214.36,-371 1214.36,-439 1380.36,-439 1380.36,-371 1214.36,-371"/>
<text text-anchor="start" x="1222.36" y="-427" font-family="Helvetica,sans-Serif" font-size="10.00">Descriptor&lt; gSizeDataDescription</text>
<text text-anchor="middle" x="1297.36" y="-416" font-family="Helvetica,sans-Serif" font-size="10.00">String, printDataDescription &gt;</text>
<polyline fill="none" stroke="#bfbfbf" points="1214.36,-409 1380.36,-409 "/>
<text text-anchor="middle" x="1297.36" y="-397" font-family="Helvetica,sans-Serif" font-size="10.00"> </text>
<polyline fill="none" stroke="#bfbfbf" points="1214.36,-390 1380.36,-390 "/>
<text text-anchor="middle" x="1297.36" y="-378" font-family="Helvetica,sans-Serif" font-size="10.00"> </text>
</g>
<!-- Node17&#45;&gt;Node5 -->
<g id="edge30" class="edge"><title>Node17&#45;&gt;Node5</title>
<path fill="none" stroke="#404040" d="M1258.24,-370.789C1242.32,-357.973 1223.44,-343.63 1205.36,-332 1136.39,-287.643 1050.72,-248.811 991.206,-224.121"/>
<polygon fill="none" stroke="#404040" points="991.134,-224.092 984.064,-225.508 980.037,-219.526 987.108,-218.11 991.134,-224.092"/>
<text text-anchor="middle" x="1208.36" y="-300.5" font-family="Helvetica,sans-Serif" font-size="10.00"> +dataDescription</text>
</g>
</g>
</svg>
