<?xml version="1.0" encoding="UTF-8" standalone="no"?>
<!DOCTYPE svg PUBLIC "-//W3C//DTD SVG 1.1//EN"
 "http://www.w3.org/Graphics/SVG/1.1/DTD/svg11.dtd">
<!-- Generated by graphviz version 2.36.0 (20140111.2315)
 -->
<!-- Title: o2::memory_resource::OwningMessageSpectatorAllocator&lt; T &gt; Pages: 1 -->
<svg width="547pt" height="566pt"
 viewBox="0.00 0.00 547.00 566.00" xmlns="http://www.w3.org/2000/svg" xmlns:xlink="http://www.w3.org/1999/xlink">
<g id="graph0" class="graph" transform="scale(1 1) rotate(0) translate(4 562)">
<title>o2::memory_resource::OwningMessageSpectatorAllocator&lt; T &gt;</title>
<!-- Node1 -->
<g id="node1" class="node"><title>Node1</title>
<polygon fill="#bfbfbf" stroke="black" points="205,-1 205,-201 405,-201 405,-1 205,-1"/>
<text text-anchor="start" x="213" y="-189" font-family="Helvetica,sans-Serif" font-size="10.00">o2::memory_resource</text>
<text text-anchor="middle" x="305" y="-178" font-family="Helvetica,sans-Serif" font-size="10.00">::OwningMessageSpectatorAllocator&lt; T &gt;</text>
<polyline fill="none" stroke="black" points="205,-171 405,-171 "/>
<text text-anchor="middle" x="305" y="-159" font-family="Helvetica,sans-Serif" font-size="10.00"> </text>
<polyline fill="none" stroke="black" points="205,-152 405,-152 "/>
<text text-anchor="start" x="213" y="-140" font-family="Helvetica,sans-Serif" font-size="10.00">+ OwningMessageSpectatorAllocator()</text>
<text text-anchor="start" x="213" y="-129" font-family="Helvetica,sans-Serif" font-size="10.00">+ OwningMessageSpectatorAllocator()</text>
<text text-anchor="start" x="213" y="-118" font-family="Helvetica,sans-Serif" font-size="10.00">+ OwningMessageSpectatorAllocator()</text>
<text text-anchor="start" x="213" y="-107" font-family="Helvetica,sans-Serif" font-size="10.00">+ OwningMessageSpectatorAllocator()</text>
<text text-anchor="start" x="213" y="-96" font-family="Helvetica,sans-Serif" font-size="10.00">+ OwningMessageSpectatorAllocator()</text>
<text text-anchor="start" x="213" y="-85" font-family="Helvetica,sans-Serif" font-size="10.00">+ operator=()</text>
<text text-anchor="start" x="213" y="-74" font-family="Helvetica,sans-Serif" font-size="10.00">+ select_on_container</text>
<text text-anchor="start" x="213" y="-63" font-family="Helvetica,sans-Serif" font-size="10.00">_copy_construction()</text>
<text text-anchor="start" x="213" y="-52" font-family="Helvetica,sans-Serif" font-size="10.00">+ resource()</text>
<text text-anchor="start" x="213" y="-41" font-family="Helvetica,sans-Serif" font-size="10.00">+ construct()</text>
<text text-anchor="start" x="213" y="-30" font-family="Helvetica,sans-Serif" font-size="10.00">+ destroy()</text>
<text text-anchor="start" x="213" y="-19" font-family="Helvetica,sans-Serif" font-size="10.00">+ allocate()</text>
<text text-anchor="start" x="213" y="-8" font-family="Helvetica,sans-Serif" font-size="10.00">+ deallocate()</text>
</g>
<!-- Node2 -->
<g id="node2" class="node"><title>Node2</title>
<g id="a_node2"><a xlink:href="../../da/d3c/classo2_1_1memory__resource_1_1MessageResource.html" target="_top" xlink:title="{o2::memory_resource\l::MessageResource\n||+ MessageResource()\l+ MessageResource()\l+ MessageResource()\l+ operator=()\l+ operator=()\l+ MessageResource()\l+ getMessage()\l+ setMessage()\l+ getTransportFactory()\l+ getNumberOfMessages()\l# do_allocate()\l# do_deallocate()\l# do_is_equal()\l}">
<polygon fill="none" stroke="black" points="237.5,-251 237.5,-451 372.5,-451 372.5,-251 237.5,-251"/>
<text text-anchor="start" x="245.5" y="-439" font-family="Helvetica,sans-Serif" font-size="10.00">o2::memory_resource</text>
<text text-anchor="middle" x="305" y="-428" font-family="Helvetica,sans-Serif" font-size="10.00">::MessageResource</text>
<polyline fill="none" stroke="black" points="237.5,-421 372.5,-421 "/>
<text text-anchor="middle" x="305" y="-409" font-family="Helvetica,sans-Serif" font-size="10.00"> </text>
<polyline fill="none" stroke="black" points="237.5,-402 372.5,-402 "/>
<text text-anchor="start" x="245.5" y="-390" font-family="Helvetica,sans-Serif" font-size="10.00">+ MessageResource()</text>
<text text-anchor="start" x="245.5" y="-379" font-family="Helvetica,sans-Serif" font-size="10.00">+ MessageResource()</text>
<text text-anchor="start" x="245.5" y="-368" font-family="Helvetica,sans-Serif" font-size="10.00">+ MessageResource()</text>
<text text-anchor="start" x="245.5" y="-357" font-family="Helvetica,sans-Serif" font-size="10.00">+ operator=()</text>
<text text-anchor="start" x="245.5" y="-346" font-family="Helvetica,sans-Serif" font-size="10.00">+ operator=()</text>
<text text-anchor="start" x="245.5" y="-335" font-family="Helvetica,sans-Serif" font-size="10.00">+ MessageResource()</text>
<text text-anchor="start" x="245.5" y="-324" font-family="Helvetica,sans-Serif" font-size="10.00">+ getMessage()</text>
<text text-anchor="start" x="245.5" y="-313" font-family="Helvetica,sans-Serif" font-size="10.00">+ setMessage()</text>
<text text-anchor="start" x="245.5" y="-302" font-family="Helvetica,sans-Serif" font-size="10.00">+ getTransportFactory()</text>
<text text-anchor="start" x="245.5" y="-291" font-family="Helvetica,sans-Serif" font-size="10.00">+ getNumberOfMessages()</text>
<text text-anchor="start" x="245.5" y="-280" font-family="Helvetica,sans-Serif" font-size="10.00"># do_allocate()</text>
<text text-anchor="start" x="245.5" y="-269" font-family="Helvetica,sans-Serif" font-size="10.00"># do_deallocate()</text>
<text text-anchor="start" x="245.5" y="-258" font-family="Helvetica,sans-Serif" font-size="10.00"># do_is_equal()</text>
</a>
</g>
</g>
<!-- Node2&#45;&gt;Node1 -->
<g id="edge1" class="edge"><title>Node2&#45;&gt;Node1</title>
<path fill="none" stroke="#404040" d="M305,-250.915C305,-238.671 305,-226.089 305,-213.674"/>
<polygon fill="none" stroke="#404040" points="305,-213.333 301,-207.333 305,-201.333 309,-207.333 305,-213.333"/>
<text text-anchor="middle" x="335" y="-223.5" font-family="Helvetica,sans-Serif" font-size="10.00"> +mResource</text>
</g>
<!-- Node3 -->
<g id="node3" class="node"><title>Node3</title>
<g id="a_node3"><a xlink:href="../../d0/d9f/classFairMQMemoryResource.html" target="_top" xlink:title="{FairMQMemoryResource\n||}">
<polygon fill="none" stroke="black" points="0,-500.5 0,-557.5 126,-557.5 126,-500.5 0,-500.5"/>
<text text-anchor="middle" x="63" y="-545.5" font-family="Helvetica,sans-Serif" font-size="10.00">FairMQMemoryResource</text>
<polyline fill="none" stroke="black" points="0,-538.5 126,-538.5 "/>
<text text-anchor="middle" x="63" y="-526.5" font-family="Helvetica,sans-Serif" font-size="10.00"> </text>
<polyline fill="none" stroke="black" points="0,-519.5 126,-519.5 "/>
<text text-anchor="middle" x="63" y="-507.5" font-family="Helvetica,sans-Serif" font-size="10.00"> </text>
</a>
</g>
</g>
<!-- Node3&#45;&gt;Node2 -->
<g id="edge2" class="edge"><title>Node3&#45;&gt;Node2</title>
<path fill="none" stroke="midnightblue" d="M109.507,-494.177C145.773,-467.801 196.655,-430.796 237.417,-401.151"/>
<polygon fill="none" stroke="midnightblue" points="107.107,-491.594 101.079,-500.306 111.225,-497.255 107.107,-491.594"/>
</g>
<!-- Node4 -->
<g id="node4" class="node"><title>Node4</title>
<polygon fill="none" stroke="#bfbfbf" points="144.5,-500.5 144.5,-557.5 277.5,-557.5 277.5,-500.5 144.5,-500.5"/>
<text text-anchor="middle" x="211" y="-545.5" font-family="Helvetica,sans-Serif" font-size="10.00">FairMQMemoryResource *</text>
<polyline fill="none" stroke="#bfbfbf" points="144.5,-538.5 277.5,-538.5 "/>
<text text-anchor="middle" x="211" y="-526.5" font-family="Helvetica,sans-Serif" font-size="10.00"> </text>
<polyline fill="none" stroke="#bfbfbf" points="144.5,-519.5 277.5,-519.5 "/>
<text text-anchor="middle" x="211" y="-507.5" font-family="Helvetica,sans-Serif" font-size="10.00"> </text>
</g>
<!-- Node4&#45;&gt;Node2 -->
<g id="edge3" class="edge"><title>Node4&#45;&gt;Node2</title>
<path fill="none" stroke="#404040" d="M225.234,-500.21C230.184,-490.618 235.799,-479.818 241,-470 242.432,-467.297 243.885,-464.561 245.354,-461.803"/>
<polygon fill="none" stroke="#404040" points="245.431,-461.659 244.728,-454.482 251.083,-451.073 251.785,-458.25 245.431,-461.659"/>
<text text-anchor="middle" x="271" y="-473.5" font-family="Helvetica,sans-Serif" font-size="10.00"> #mUpstream</text>
</g>
<!-- Node5 -->
<g id="node5" class="node"><title>Node5</title>
<g id="a_node5"><a xlink:href="../../dd/de2/classsize__t.html" target="_top" xlink:title="{size_t\n||}">
<polygon fill="none" stroke="black" points="295.5,-500.5 295.5,-557.5 338.5,-557.5 338.5,-500.5 295.5,-500.5"/>
<text text-anchor="middle" x="317" y="-545.5" font-family="Helvetica,sans-Serif" font-size="10.00">size_t</text>
<polyline fill="none" stroke="black" points="295.5,-538.5 338.5,-538.5 "/>
<text text-anchor="middle" x="317" y="-526.5" font-family="Helvetica,sans-Serif" font-size="10.00"> </text>
<polyline fill="none" stroke="black" points="295.5,-519.5 338.5,-519.5 "/>
<text text-anchor="middle" x="317" y="-507.5" font-family="Helvetica,sans-Serif" font-size="10.00"> </text>
</a>
</g>
</g>
<!-- Node5&#45;&gt;Node2 -->
<g id="edge4" class="edge"><title>Node5&#45;&gt;Node2</title>
<path fill="none" stroke="#404040" d="M309.34,-500.455C307.964,-494.42 306.735,-488.032 306,-482 305.26,-475.925 304.666,-469.677 304.194,-463.363"/>
<polygon fill="none" stroke="#404040" points="304.18,-463.143 299.815,-457.403 303.433,-451.166 307.799,-456.905 304.18,-463.143"/>
<text text-anchor="middle" x="344" y="-473.5" font-family="Helvetica,sans-Serif" font-size="10.00"> #mMessageSize</text>
</g>
<!-- Node6 -->
<g id="node6" class="node"><title>Node6</title>
<polygon fill="none" stroke="#bfbfbf" points="386.5,-500.5 386.5,-557.5 421.5,-557.5 421.5,-500.5 386.5,-500.5"/>
<text text-anchor="middle" x="404" y="-545.5" font-family="Helvetica,sans-Serif" font-size="10.00">bool</text>
<polyline fill="none" stroke="#bfbfbf" points="386.5,-538.5 421.5,-538.5 "/>
<text text-anchor="middle" x="404" y="-526.5" font-family="Helvetica,sans-Serif" font-size="10.00"> </text>
<polyline fill="none" stroke="#bfbfbf" points="386.5,-519.5 421.5,-519.5 "/>
<text text-anchor="middle" x="404" y="-507.5" font-family="Helvetica,sans-Serif" font-size="10.00"> </text>
</g>
<!-- Node6&#45;&gt;Node2 -->
<g id="edge5" class="edge"><title>Node6&#45;&gt;Node2</title>
<path fill="none" stroke="#404040" d="M394.885,-500.331C391.305,-490.55 386.881,-479.6 382,-470 380.618,-467.281 379.187,-464.547 377.717,-461.806"/>
<polygon fill="none" stroke="#404040" points="377.668,-461.717 371.265,-458.401 371.864,-451.214 378.267,-454.531 377.668,-461.717"/>
<text text-anchor="middle" x="417.5" y="-473.5" font-family="Helvetica,sans-Serif" font-size="10.00"> #initialImport</text>
</g>
<!-- Node7 -->
<g id="node7" class="node"><title>Node7</title>
<polygon fill="none" stroke="#bfbfbf" points="465.5,-500.5 465.5,-557.5 506.5,-557.5 506.5,-500.5 465.5,-500.5"/>
<text text-anchor="middle" x="486" y="-545.5" font-family="Helvetica,sans-Serif" font-size="10.00">void *</text>
<polyline fill="none" stroke="#bfbfbf" points="465.5,-538.5 506.5,-538.5 "/>
<text text-anchor="middle" x="486" y="-526.5" font-family="Helvetica,sans-Serif" font-size="10.00"> </text>
<polyline fill="none" stroke="#bfbfbf" points="465.5,-519.5 506.5,-519.5 "/>
<text text-anchor="middle" x="486" y="-507.5" font-family="Helvetica,sans-Serif" font-size="10.00"> </text>
</g>
<!-- Node7&#45;&gt;Node2 -->
<g id="edge6" class="edge"><title>Node7&#45;&gt;Node2</title>
<path fill="none" stroke="#404040" d="M471.968,-500.396C466.181,-490.303 458.96,-479.131 451,-470 430.859,-446.897 405.814,-424.844 382.184,-406.187"/>
<polygon fill="none" stroke="#404040" points="381.991,-406.037 374.799,-405.515 372.515,-398.675 379.707,-399.198 381.991,-406.037"/>
<text text-anchor="middle" x="500" y="-473.5" font-family="Helvetica,sans-Serif" font-size="10.00"> #mMessageData</text>
</g>
</g>
</svg>
