<?xml version="1.0" encoding="UTF-8" standalone="no"?>
<!DOCTYPE svg PUBLIC "-//W3C//DTD SVG 1.1//EN"
 "http://www.w3.org/Graphics/SVG/1.1/DTD/svg11.dtd">
<!-- Generated by graphviz version 2.36.0 (20140111.2315)
 -->
<!-- Title: o2::TPC::Detector Pages: 1 -->
<!--zoomable 1384 -->
<svg id="main" version="1.1" xmlns="http://www.w3.org/2000/svg" xmlns:xlink="http://www.w3.org/1999/xlink" xml:space="preserve" onload="init(evt)">
<style type="text/css"><![CDATA[
.edge:hover path { stroke: red; }
.edge:hover polygon { stroke: red; fill: red; }
]]></style>
<script type="text/javascript"><![CDATA[
var edges = document.getElementsByTagName('g');
if (edges && edges.length) {
  for (var i=0;i<edges.length;i++) {
    if (edges[i].id.substr(0,4)=='edge') {
      edges[i].setAttribute('class','edge');
    }
  }
}
]]></script>
        <defs>
                <circle id="rim" cx="0" cy="0" r="7"/>
                <circle id="rim2" cx="0" cy="0" r="3.5"/>
                <g id="zoomPlus">
                        <use xlink:href="#rim" fill="#404040">
                                <set attributeName="fill" to="#808080" begin="zoomplus.mouseover" end="zoomplus.mouseout"/>
                        </use>
                        <path d="M-4,0h8M0,-4v8" fill="none" stroke="white" stroke-width="1.5" pointer-events="none"/>
                </g>
                <g id="zoomMin">
                        <use xlink:href="#rim" fill="#404040">
                                <set attributeName="fill" to="#808080" begin="zoomminus.mouseover" end="zoomminus.mouseout"/>
                        </use>
                        <path d="M-4,0h8" fill="none" stroke="white" stroke-width="1.5" pointer-events="none"/>
                </g>
                <g id="dirArrow">
                        <path fill="none" stroke="white" stroke-width="1.5" d="M0,-3.0v7 M-2.5,-0.5L0,-3.0L2.5,-0.5"/>
                </g>
               <g id="resetDef">
                       <use xlink:href="#rim2" fill="#404040">
                               <set attributeName="fill" to="#808080" begin="reset.mouseover" end="reset.mouseout"/>
                       </use>
               </g>
        </defs>

<script type="text/javascript">
var viewWidth = 659;
var viewHeight = 1384;
var sectionId = 'dynsection-1';
</script>
<script xlink:href="../../svgpan.js"/>
<svg id="graph" class="graph">
<g id="viewport">
<title>o2::TPC::Detector</title>
<!-- Node1 -->
<g id="node1" class="node"><title>Node1</title>
<polygon fill="#bfbfbf" stroke="black" points="228.697,-1 228.697,-289 363.697,-289 363.697,-1 228.697,-1"/>
<text text-anchor="middle" x="296.197" y="-277" font-family="Helvetica,sans-Serif" font-size="10.00">o2::TPC::Detector</text>
<polyline fill="none" stroke="black" points="228.697,-270 363.697,-270 "/>
<text text-anchor="middle" x="296.197" y="-258" font-family="Helvetica,sans-Serif" font-size="10.00"> </text>
<polyline fill="none" stroke="black" points="228.697,-251 363.697,-251 "/>
<text text-anchor="start" x="236.697" y="-239" font-family="Helvetica,sans-Serif" font-size="10.00">+ Detector()</text>
<text text-anchor="start" x="236.697" y="-228" font-family="Helvetica,sans-Serif" font-size="10.00">+ Detector()</text>
<text text-anchor="start" x="236.697" y="-217" font-family="Helvetica,sans-Serif" font-size="10.00">+ ~Detector()</text>
<text text-anchor="start" x="236.697" y="-206" font-family="Helvetica,sans-Serif" font-size="10.00">+ InitializeO2Detector()</text>
<text text-anchor="start" x="236.697" y="-195" font-family="Helvetica,sans-Serif" font-size="10.00">+ ProcessHits()</text>
<text text-anchor="start" x="236.697" y="-184" font-family="Helvetica,sans-Serif" font-size="10.00">+ Register()</text>
<text text-anchor="start" x="236.697" y="-173" font-family="Helvetica,sans-Serif" font-size="10.00">+ getHits()</text>
<text text-anchor="start" x="236.697" y="-162" font-family="Helvetica,sans-Serif" font-size="10.00">+ getHitBranchNames()</text>
<text text-anchor="start" x="236.697" y="-151" font-family="Helvetica,sans-Serif" font-size="10.00">+ Reset()</text>
<text text-anchor="start" x="236.697" y="-140" font-family="Helvetica,sans-Serif" font-size="10.00">+ ConstructGeometry()</text>
<text text-anchor="start" x="236.697" y="-129" font-family="Helvetica,sans-Serif" font-size="10.00">+ addHit()</text>
<text text-anchor="start" x="236.697" y="-118" font-family="Helvetica,sans-Serif" font-size="10.00">+ BetheBlochAleph()</text>
<text text-anchor="start" x="236.697" y="-107" font-family="Helvetica,sans-Serif" font-size="10.00">+ Gamma()</text>
<text text-anchor="start" x="236.697" y="-96" font-family="Helvetica,sans-Serif" font-size="10.00">+ SetSpecialPhysicsCuts()</text>
<text text-anchor="start" x="236.697" y="-85" font-family="Helvetica,sans-Serif" font-size="10.00">+ EndOfEvent()</text>
<text text-anchor="start" x="236.697" y="-74" font-family="Helvetica,sans-Serif" font-size="10.00">+ FinishPrimary()</text>
<text text-anchor="start" x="236.697" y="-63" font-family="Helvetica,sans-Serif" font-size="10.00">+ FinishRun()</text>
<text text-anchor="start" x="236.697" y="-52" font-family="Helvetica,sans-Serif" font-size="10.00">+ BeginPrimary()</text>
<text text-anchor="start" x="236.697" y="-41" font-family="Helvetica,sans-Serif" font-size="10.00">+ PostTrack()</text>
<text text-anchor="start" x="236.697" y="-30" font-family="Helvetica,sans-Serif" font-size="10.00">+ PreTrack()</text>
<text text-anchor="start" x="236.697" y="-19" font-family="Helvetica,sans-Serif" font-size="10.00">+ SetGeoFileName()</text>
<text text-anchor="start" x="236.697" y="-8" font-family="Helvetica,sans-Serif" font-size="10.00">+ GetGeoFileName()</text>
</g>
<!-- Node2 -->
<g id="node2" class="node"><title>Node2</title>
<g id="a_node2"><a xlink:href="../../d4/d8a/classo2_1_1Base_1_1DetImpl.html" target="_top" xlink:title="{o2::Base::DetImpl\&lt;\l Detector \&gt;\n||+ getHitBranchNames()\l+ updateHitTrackIndices()\l+ attachHits()\l+ mergeAndAdjustHits()\l+ mergeHitEntries()\l+ fillHitBranch()\l+ CloneModule()\l+ freeHitBuffers()\l+ setHits()\l+ createHitBuffers()\l+ initializeLate()\l+ BeginEvent()\l+ ~DetImpl()\l# ClassDefOverride()\l}">
<polygon fill="none" stroke="black" points="231.197,-328.5 231.197,-539.5 361.197,-539.5 361.197,-328.5 231.197,-328.5"/>
<text text-anchor="start" x="239.197" y="-527.5" font-family="Helvetica,sans-Serif" font-size="10.00">o2::Base::DetImpl&lt;</text>
<text text-anchor="middle" x="296.197" y="-516.5" font-family="Helvetica,sans-Serif" font-size="10.00"> Detector &gt;</text>
<polyline fill="none" stroke="black" points="231.197,-509.5 361.197,-509.5 "/>
<text text-anchor="middle" x="296.197" y="-497.5" font-family="Helvetica,sans-Serif" font-size="10.00"> </text>
<polyline fill="none" stroke="black" points="231.197,-490.5 361.197,-490.5 "/>
<text text-anchor="start" x="239.197" y="-478.5" font-family="Helvetica,sans-Serif" font-size="10.00">+ getHitBranchNames()</text>
<text text-anchor="start" x="239.197" y="-467.5" font-family="Helvetica,sans-Serif" font-size="10.00">+ updateHitTrackIndices()</text>
<text text-anchor="start" x="239.197" y="-456.5" font-family="Helvetica,sans-Serif" font-size="10.00">+ attachHits()</text>
<text text-anchor="start" x="239.197" y="-445.5" font-family="Helvetica,sans-Serif" font-size="10.00">+ mergeAndAdjustHits()</text>
<text text-anchor="start" x="239.197" y="-434.5" font-family="Helvetica,sans-Serif" font-size="10.00">+ mergeHitEntries()</text>
<text text-anchor="start" x="239.197" y="-423.5" font-family="Helvetica,sans-Serif" font-size="10.00">+ fillHitBranch()</text>
<text text-anchor="start" x="239.197" y="-412.5" font-family="Helvetica,sans-Serif" font-size="10.00">+ CloneModule()</text>
<text text-anchor="start" x="239.197" y="-401.5" font-family="Helvetica,sans-Serif" font-size="10.00">+ freeHitBuffers()</text>
<text text-anchor="start" x="239.197" y="-390.5" font-family="Helvetica,sans-Serif" font-size="10.00">+ setHits()</text>
<text text-anchor="start" x="239.197" y="-379.5" font-family="Helvetica,sans-Serif" font-size="10.00">+ createHitBuffers()</text>
<text text-anchor="start" x="239.197" y="-368.5" font-family="Helvetica,sans-Serif" font-size="10.00">+ initializeLate()</text>
<text text-anchor="start" x="239.197" y="-357.5" font-family="Helvetica,sans-Serif" font-size="10.00">+ BeginEvent()</text>
<text text-anchor="start" x="239.197" y="-346.5" font-family="Helvetica,sans-Serif" font-size="10.00">+ ~DetImpl()</text>
<text text-anchor="start" x="239.197" y="-335.5" font-family="Helvetica,sans-Serif" font-size="10.00"># ClassDefOverride()</text>
</a>
</g>
</g>
<!-- Node2&#45;&gt;Node1 -->
<g id="edge1" class="edge"><title>Node2&#45;&gt;Node1</title>
<path fill="none" stroke="midnightblue" d="M296.197,-318.004C296.197,-308.568 296.197,-298.96 296.197,-289.353"/>
<polygon fill="none" stroke="midnightblue" points="292.697,-318.168 296.197,-328.168 299.697,-318.168 292.697,-318.168"/>
</g>
<!-- Node3 -->
<g id="node3" class="node"><title>Node3</title>
<g id="a_node3"><a xlink:href="../../d7/d02/classo2_1_1Base_1_1Detector.html" target="_top" xlink:title="{o2::Base::Detector\n||+ Detector()\l+ Detector()\l+ ~Detector()\l+ Material()\l+ Mixture()\l+ Medium()\l+ SpecialCuts()\l+ SpecialCut()\l+ SpecialProcesses()\l+ SpecialProcess()\l+ Matrix()\l+ addAlignableVolumes()\l+ defineWrapperVolume()\l+ setNumberOfWrapperVolumes()\l+ defineLayer()\l+ defineLayerTurbo()\l+ getMaterialID()\l+ getMediumID()\l+ getMediumIDMappingAsVector()\l+ addNameTo()\l+ getHitBranchNames()\l+ updateHitTrackIndices()\l+ attachHits()\l+ fillHitBranch()\l+ mergeHitEntries()\l+ InitializeO2Detector()\l+ Initialize()\l+ initializeLate()\l+ GetCollection()\l+ setDensityFactor()\l+ getDensityFactor()\l+ initFieldTrackingParams()\l# Detector()\l# operator=()\l}">
<polygon fill="none" stroke="black" points="391.697,-859 391.697,-1279 558.697,-1279 558.697,-859 391.697,-859"/>
<text text-anchor="middle" x="475.197" y="-1267" font-family="Helvetica,sans-Serif" font-size="10.00">o2::Base::Detector</text>
<polyline fill="none" stroke="black" points="391.697,-1260 558.697,-1260 "/>
<text text-anchor="middle" x="475.197" y="-1248" font-family="Helvetica,sans-Serif" font-size="10.00"> </text>
<polyline fill="none" stroke="black" points="391.697,-1241 558.697,-1241 "/>
<text text-anchor="start" x="399.697" y="-1229" font-family="Helvetica,sans-Serif" font-size="10.00">+ Detector()</text>
<text text-anchor="start" x="399.697" y="-1218" font-family="Helvetica,sans-Serif" font-size="10.00">+ Detector()</text>
<text text-anchor="start" x="399.697" y="-1207" font-family="Helvetica,sans-Serif" font-size="10.00">+ ~Detector()</text>
<text text-anchor="start" x="399.697" y="-1196" font-family="Helvetica,sans-Serif" font-size="10.00">+ Material()</text>
<text text-anchor="start" x="399.697" y="-1185" font-family="Helvetica,sans-Serif" font-size="10.00">+ Mixture()</text>
<text text-anchor="start" x="399.697" y="-1174" font-family="Helvetica,sans-Serif" font-size="10.00">+ Medium()</text>
<text text-anchor="start" x="399.697" y="-1163" font-family="Helvetica,sans-Serif" font-size="10.00">+ SpecialCuts()</text>
<text text-anchor="start" x="399.697" y="-1152" font-family="Helvetica,sans-Serif" font-size="10.00">+ SpecialCut()</text>
<text text-anchor="start" x="399.697" y="-1141" font-family="Helvetica,sans-Serif" font-size="10.00">+ SpecialProcesses()</text>
<text text-anchor="start" x="399.697" y="-1130" font-family="Helvetica,sans-Serif" font-size="10.00">+ SpecialProcess()</text>
<text text-anchor="start" x="399.697" y="-1119" font-family="Helvetica,sans-Serif" font-size="10.00">+ Matrix()</text>
<text text-anchor="start" x="399.697" y="-1108" font-family="Helvetica,sans-Serif" font-size="10.00">+ addAlignableVolumes()</text>
<text text-anchor="start" x="399.697" y="-1097" font-family="Helvetica,sans-Serif" font-size="10.00">+ defineWrapperVolume()</text>
<text text-anchor="start" x="399.697" y="-1086" font-family="Helvetica,sans-Serif" font-size="10.00">+ setNumberOfWrapperVolumes()</text>
<text text-anchor="start" x="399.697" y="-1075" font-family="Helvetica,sans-Serif" font-size="10.00">+ defineLayer()</text>
<text text-anchor="start" x="399.697" y="-1064" font-family="Helvetica,sans-Serif" font-size="10.00">+ defineLayerTurbo()</text>
<text text-anchor="start" x="399.697" y="-1053" font-family="Helvetica,sans-Serif" font-size="10.00">+ getMaterialID()</text>
<text text-anchor="start" x="399.697" y="-1042" font-family="Helvetica,sans-Serif" font-size="10.00">+ getMediumID()</text>
<text text-anchor="start" x="399.697" y="-1031" font-family="Helvetica,sans-Serif" font-size="10.00">+ getMediumIDMappingAsVector()</text>
<text text-anchor="start" x="399.697" y="-1020" font-family="Helvetica,sans-Serif" font-size="10.00">+ addNameTo()</text>
<text text-anchor="start" x="399.697" y="-1009" font-family="Helvetica,sans-Serif" font-size="10.00">+ getHitBranchNames()</text>
<text text-anchor="start" x="399.697" y="-998" font-family="Helvetica,sans-Serif" font-size="10.00">+ updateHitTrackIndices()</text>
<text text-anchor="start" x="399.697" y="-987" font-family="Helvetica,sans-Serif" font-size="10.00">+ attachHits()</text>
<text text-anchor="start" x="399.697" y="-976" font-family="Helvetica,sans-Serif" font-size="10.00">+ fillHitBranch()</text>
<text text-anchor="start" x="399.697" y="-965" font-family="Helvetica,sans-Serif" font-size="10.00">+ mergeHitEntries()</text>
<text text-anchor="start" x="399.697" y="-954" font-family="Helvetica,sans-Serif" font-size="10.00">+ InitializeO2Detector()</text>
<text text-anchor="start" x="399.697" y="-943" font-family="Helvetica,sans-Serif" font-size="10.00">+ Initialize()</text>
<text text-anchor="start" x="399.697" y="-932" font-family="Helvetica,sans-Serif" font-size="10.00">+ initializeLate()</text>
<text text-anchor="start" x="399.697" y="-921" font-family="Helvetica,sans-Serif" font-size="10.00">+ GetCollection()</text>
<text text-anchor="start" x="399.697" y="-910" font-family="Helvetica,sans-Serif" font-size="10.00">+ setDensityFactor()</text>
<text text-anchor="start" x="399.697" y="-899" font-family="Helvetica,sans-Serif" font-size="10.00">+ getDensityFactor()</text>
<text text-anchor="start" x="399.697" y="-888" font-family="Helvetica,sans-Serif" font-size="10.00">+ initFieldTrackingParams()</text>
<text text-anchor="start" x="399.697" y="-877" font-family="Helvetica,sans-Serif" font-size="10.00"># Detector()</text>
<text text-anchor="start" x="399.697" y="-866" font-family="Helvetica,sans-Serif" font-size="10.00"># operator=()</text>
</a>
</g>
</g>
<!-- Node3&#45;&gt;Node2 -->
<g id="edge2" class="edge"><title>Node3&#45;&gt;Node2</title>
<path fill="none" stroke="midnightblue" d="M542.456,-848.463C541.851,-838.175 540.479,-827.981 538.197,-818 512.893,-707.352 489.291,-683.013 427.197,-588 407.97,-558.582 383.65,-528.682 361.199,-503.211"/>
<polygon fill="none" stroke="midnightblue" points="538.969,-848.905 542.811,-858.778 545.965,-848.664 538.969,-848.905"/>
</g>
<!-- Node9 -->
<g id="node9" class="node"><title>Node9</title>
<g id="a_node9"><a xlink:href="../../d4/d8a/classo2_1_1Base_1_1DetImpl.html" target="_top" xlink:title="{o2::Base::DetImpl\&lt;\l Det \&gt;\n||+ getHitBranchNames()\l+ updateHitTrackIndices()\l+ attachHits()\l+ mergeAndAdjustHits()\l+ mergeHitEntries()\l+ fillHitBranch()\l+ CloneModule()\l+ freeHitBuffers()\l+ setHits()\l+ createHitBuffers()\l+ initializeLate()\l+ BeginEvent()\l+ ~DetImpl()\l# ClassDefOverride()\l}">
<polygon fill="none" stroke="black" points="288.197,-588.5 288.197,-799.5 418.197,-799.5 418.197,-588.5 288.197,-588.5"/>
<text text-anchor="start" x="296.197" y="-787.5" font-family="Helvetica,sans-Serif" font-size="10.00">o2::Base::DetImpl&lt;</text>
<text text-anchor="middle" x="353.197" y="-776.5" font-family="Helvetica,sans-Serif" font-size="10.00"> Det &gt;</text>
<polyline fill="none" stroke="black" points="288.197,-769.5 418.197,-769.5 "/>
<text text-anchor="middle" x="353.197" y="-757.5" font-family="Helvetica,sans-Serif" font-size="10.00"> </text>
<polyline fill="none" stroke="black" points="288.197,-750.5 418.197,-750.5 "/>
<text text-anchor="start" x="296.197" y="-738.5" font-family="Helvetica,sans-Serif" font-size="10.00">+ getHitBranchNames()</text>
<text text-anchor="start" x="296.197" y="-727.5" font-family="Helvetica,sans-Serif" font-size="10.00">+ updateHitTrackIndices()</text>
<text text-anchor="start" x="296.197" y="-716.5" font-family="Helvetica,sans-Serif" font-size="10.00">+ attachHits()</text>
<text text-anchor="start" x="296.197" y="-705.5" font-family="Helvetica,sans-Serif" font-size="10.00">+ mergeAndAdjustHits()</text>
<text text-anchor="start" x="296.197" y="-694.5" font-family="Helvetica,sans-Serif" font-size="10.00">+ mergeHitEntries()</text>
<text text-anchor="start" x="296.197" y="-683.5" font-family="Helvetica,sans-Serif" font-size="10.00">+ fillHitBranch()</text>
<text text-anchor="start" x="296.197" y="-672.5" font-family="Helvetica,sans-Serif" font-size="10.00">+ CloneModule()</text>
<text text-anchor="start" x="296.197" y="-661.5" font-family="Helvetica,sans-Serif" font-size="10.00">+ freeHitBuffers()</text>
<text text-anchor="start" x="296.197" y="-650.5" font-family="Helvetica,sans-Serif" font-size="10.00">+ setHits()</text>
<text text-anchor="start" x="296.197" y="-639.5" font-family="Helvetica,sans-Serif" font-size="10.00">+ createHitBuffers()</text>
<text text-anchor="start" x="296.197" y="-628.5" font-family="Helvetica,sans-Serif" font-size="10.00">+ initializeLate()</text>
<text text-anchor="start" x="296.197" y="-617.5" font-family="Helvetica,sans-Serif" font-size="10.00">+ BeginEvent()</text>
<text text-anchor="start" x="296.197" y="-606.5" font-family="Helvetica,sans-Serif" font-size="10.00">+ ~DetImpl()</text>
<text text-anchor="start" x="296.197" y="-595.5" font-family="Helvetica,sans-Serif" font-size="10.00"># ClassDefOverride()</text>
</a>
</g>
</g>
<!-- Node3&#45;&gt;Node9 -->
<g id="edge9" class="edge"><title>Node3&#45;&gt;Node9</title>
<path fill="none" stroke="midnightblue" d="M424.809,-849.152C421.428,-838.555 417.89,-828.122 414.197,-818 411.991,-811.954 409.571,-805.815 407.009,-799.671"/>
<polygon fill="none" stroke="midnightblue" points="421.541,-850.428 427.869,-858.925 428.221,-848.336 421.541,-850.428"/>
</g>
<!-- Node4 -->
<g id="node4" class="node"><title>Node4</title>
<g id="a_node4"><a xlink:href="../../d6/d0c/classFairDetector.html" target="_top" xlink:title="{FairDetector\n||}">
<polygon fill="none" stroke="black" points="439.697,-1318.5 439.697,-1375.5 510.697,-1375.5 510.697,-1318.5 439.697,-1318.5"/>
<text text-anchor="middle" x="475.197" y="-1363.5" font-family="Helvetica,sans-Serif" font-size="10.00">FairDetector</text>
<polyline fill="none" stroke="black" points="439.697,-1356.5 510.697,-1356.5 "/>
<text text-anchor="middle" x="475.197" y="-1344.5" font-family="Helvetica,sans-Serif" font-size="10.00"> </text>
<polyline fill="none" stroke="black" points="439.697,-1337.5 510.697,-1337.5 "/>
<text text-anchor="middle" x="475.197" y="-1325.5" font-family="Helvetica,sans-Serif" font-size="10.00"> </text>
</a>
</g>
</g>
<!-- Node4&#45;&gt;Node3 -->
<g id="edge3" class="edge"><title>Node4&#45;&gt;Node3</title>
<path fill="none" stroke="midnightblue" d="M475.197,-1308C475.197,-1299.4 475.197,-1289.67 475.197,-1279.19"/>
<polygon fill="none" stroke="midnightblue" points="471.697,-1308.27 475.197,-1318.27 478.697,-1308.27 471.697,-1308.27"/>
</g>
<!-- Node5 -->
<g id="node5" class="node"><title>Node5</title>
<polygon fill="none" stroke="#bfbfbf" points="1.19656,-1040.5 1.19656,-1097.5 101.197,-1097.5 101.197,-1040.5 1.19656,-1040.5"/>
<text text-anchor="middle" x="51.1966" y="-1085.5" font-family="Helvetica,sans-Serif" font-size="10.00">static constexpr int</text>
<polyline fill="none" stroke="#bfbfbf" points="1.19656,-1078.5 101.197,-1078.5 "/>
<text text-anchor="middle" x="51.1966" y="-1066.5" font-family="Helvetica,sans-Serif" font-size="10.00"> </text>
<polyline fill="none" stroke="#bfbfbf" points="1.19656,-1059.5 101.197,-1059.5 "/>
<text text-anchor="middle" x="51.1966" y="-1047.5" font-family="Helvetica,sans-Serif" font-size="10.00"> </text>
</g>
<!-- Node5&#45;&gt;Node2 -->
<g id="edge4" class="edge"><title>Node5&#45;&gt;Node2</title>
<path fill="none" stroke="#404040" d="M41.953,-1040.48C17.7408,-963.159 -39.9887,-739.689 45.1966,-588 82.1526,-522.192 160.177,-481.357 219.486,-458.604"/>
<polygon fill="none" stroke="#404040" points="219.834,-458.475 224.063,-452.634 231.081,-454.292 226.851,-460.132 219.834,-458.475"/>
<text text-anchor="middle" x="85.1966" y="-691.5" font-family="Helvetica,sans-Serif" font-size="10.00"> #NHITBUFFERS</text>
</g>
<!-- Node5&#45;&gt;Node9 -->
<g id="edge10" class="edge"><title>Node5&#45;&gt;Node9</title>
<path fill="none" stroke="#404040" d="M59.3318,-1040.44C72.6969,-998.228 102.277,-916.345 146.197,-858 162.693,-836.085 168.58,-830.101 193.197,-818 227.851,-800.964 245.888,-821.15 278.197,-800 278.302,-799.931 278.407,-799.862 278.513,-799.792"/>
<polygon fill="none" stroke="#404040" points="278.348,-799.913 280.802,-793.132 288.005,-792.789 285.551,-799.57 278.348,-799.913"/>
<text text-anchor="middle" x="233.197" y="-826.5" font-family="Helvetica,sans-Serif" font-size="10.00"> #NHITBUFFERS</text>
</g>
<!-- Node6 -->
<g id="node6" class="node"><title>Node6</title>
<g id="a_node6"><a xlink:href="../../d9/db1/classbool_01_5.html" target="_top" xlink:title="{bool *\n||}">
<polygon fill="none" stroke="black" points="228.697,-665.5 228.697,-722.5 269.697,-722.5 269.697,-665.5 228.697,-665.5"/>
<text text-anchor="middle" x="249.197" y="-710.5" font-family="Helvetica,sans-Serif" font-size="10.00">bool *</text>
<polyline fill="none" stroke="black" points="228.697,-703.5 269.697,-703.5 "/>
<text text-anchor="middle" x="249.197" y="-691.5" font-family="Helvetica,sans-Serif" font-size="10.00"> </text>
<polyline fill="none" stroke="black" points="228.697,-684.5 269.697,-684.5 "/>
<text text-anchor="middle" x="249.197" y="-672.5" font-family="Helvetica,sans-Serif" font-size="10.00"> </text>
</a>
</g>
</g>
<!-- Node6&#45;&gt;Node2 -->
<g id="edge5" class="edge"><title>Node6&#45;&gt;Node2</title>
<path fill="none" stroke="#404040" d="M250.128,-665.387C251.41,-637.956 254.39,-594.788 261.197,-558 261.596,-555.842 262.016,-553.668 262.456,-551.482"/>
<polygon fill="none" stroke="#404040" points="262.466,-551.432 259.81,-544.728 264.976,-539.698 267.633,-546.402 262.466,-551.432"/>
<text text-anchor="middle" x="291.197" y="-561.5" font-family="Helvetica,sans-Serif" font-size="10.00"> #mShmBusy</text>
</g>
<!-- Node7 -->
<g id="node7" class="node"><title>Node7</title>
<polygon fill="none" stroke="#bfbfbf" points="581.697,-1040.5 581.697,-1097.5 610.697,-1097.5 610.697,-1040.5 581.697,-1040.5"/>
<text text-anchor="middle" x="596.197" y="-1085.5" font-family="Helvetica,sans-Serif" font-size="10.00">int</text>
<polyline fill="none" stroke="#bfbfbf" points="581.697,-1078.5 610.697,-1078.5 "/>
<text text-anchor="middle" x="596.197" y="-1066.5" font-family="Helvetica,sans-Serif" font-size="10.00"> </text>
<polyline fill="none" stroke="#bfbfbf" points="581.697,-1059.5 610.697,-1059.5 "/>
<text text-anchor="middle" x="596.197" y="-1047.5" font-family="Helvetica,sans-Serif" font-size="10.00"> </text>
</g>
<!-- Node7&#45;&gt;Node2 -->
<g id="edge6" class="edge"><title>Node7&#45;&gt;Node2</title>
<path fill="none" stroke="#404040" d="M597.139,-1040.38C598.474,-962.311 593.035,-736.104 494.197,-588 463.23,-541.599 413.511,-503.252 371.643,-476.554"/>
<polygon fill="none" stroke="#404040" points="371.637,-476.55 364.429,-476.761 361.462,-470.189 368.67,-469.978 371.637,-476.55"/>
<text text-anchor="middle" x="613.197" y="-697" font-family="Helvetica,sans-Serif" font-size="10.00"> #mCurrentBuffer</text>
<text text-anchor="middle" x="613.197" y="-686" font-family="Helvetica,sans-Serif" font-size="10.00">#mInitialized</text>
</g>
<!-- Node7&#45;&gt;Node9 -->
<g id="edge11" class="edge"><title>Node7&#45;&gt;Node9</title>
<path fill="none" stroke="#404040" d="M600.935,-1040.46C606.843,-996.41 611.369,-909.814 567.197,-858 549.411,-837.137 531.932,-853.72 508.197,-840 479.073,-823.166 451.01,-799.899 426.954,-776.929"/>
<polygon fill="none" stroke="#404040" points="426.882,-776.858 419.791,-775.542 418.279,-768.492 425.369,-769.807 426.882,-776.858"/>
<text text-anchor="middle" x="546.197" y="-832" font-family="Helvetica,sans-Serif" font-size="10.00"> #mCurrentBuffer</text>
<text text-anchor="middle" x="546.197" y="-821" font-family="Helvetica,sans-Serif" font-size="10.00">#mInitialized</text>
</g>
<!-- Node8 -->
<g id="node8" class="node"><title>Node8</title>
<polygon fill="none" stroke="#bfbfbf" points="155.197,-1040.5 155.197,-1097.5 241.197,-1097.5 241.197,-1040.5 155.197,-1040.5"/>
<text text-anchor="middle" x="198.197" y="-1085.5" font-family="Helvetica,sans-Serif" font-size="10.00">vector&lt; void * &gt;</text>
<polyline fill="none" stroke="#bfbfbf" points="155.197,-1078.5 241.197,-1078.5 "/>
<text text-anchor="middle" x="198.197" y="-1066.5" font-family="Helvetica,sans-Serif" font-size="10.00"> </text>
<polyline fill="none" stroke="#bfbfbf" points="155.197,-1059.5 241.197,-1059.5 "/>
<text text-anchor="middle" x="198.197" y="-1047.5" font-family="Helvetica,sans-Serif" font-size="10.00"> </text>
</g>
<!-- Node8&#45;&gt;Node2 -->
<g id="edge7" class="edge"><title>Node8&#45;&gt;Node2</title>
<path fill="none" stroke="#404040" d="M187.351,-1040.26C159.518,-964.628 92.0443,-749.716 155.197,-588 169.127,-552.329 195.701,-519.963 222.057,-494.282"/>
<polygon fill="none" stroke="#404040" points="222.26,-494.09 223.862,-487.059 230.968,-485.834 229.366,-492.865 222.26,-494.09"/>
<text text-anchor="middle" x="187.197" y="-691.5" font-family="Helvetica,sans-Serif" font-size="10.00"> #mCachedPtr</text>
</g>
<!-- Node8&#45;&gt;Node9 -->
<g id="edge12" class="edge"><title>Node8&#45;&gt;Node9</title>
<path fill="none" stroke="#404040" d="M206.114,-1040.41C219.887,-993.696 250.158,-896.47 285.197,-818 286.288,-815.556 287.41,-813.096 288.56,-810.625"/>
<polygon fill="none" stroke="#404040" points="288.585,-810.573 287.56,-803.435 293.754,-799.743 294.779,-806.881 288.585,-810.573"/>
<text text-anchor="middle" x="317.197" y="-826.5" font-family="Helvetica,sans-Serif" font-size="10.00"> #mCachedPtr</text>
</g>
<!-- Node9&#45;&gt;Node2 -->
<g id="edge8" class="edge"><title>Node9&#45;&gt;Node2</title>
<path fill="none" stroke="orange" d="M327.92,-578.589C325.062,-565.653 322.16,-552.519 319.331,-539.715"/>
<polygon fill="orange" stroke="orange" points="324.52,-579.424 330.095,-588.433 331.355,-577.914 324.52,-579.424"/>
<text text-anchor="middle" x="354.697" y="-561.5" font-family="Helvetica,sans-Serif" font-size="10.00"> &lt; Detector &gt;</text>
</g>
<!-- Node10 -->
<g id="node10" class="node"><title>Node10</title>
<polygon fill="none" stroke="#bfbfbf" points="335.697,-1040.5 335.697,-1097.5 370.697,-1097.5 370.697,-1040.5 335.697,-1040.5"/>
<text text-anchor="middle" x="353.197" y="-1085.5" font-family="Helvetica,sans-Serif" font-size="10.00">bool</text>
<polyline fill="none" stroke="#bfbfbf" points="335.697,-1078.5 370.697,-1078.5 "/>
<text text-anchor="middle" x="353.197" y="-1066.5" font-family="Helvetica,sans-Serif" font-size="10.00"> </text>
<polyline fill="none" stroke="#bfbfbf" points="335.697,-1059.5 370.697,-1059.5 "/>
<text text-anchor="middle" x="353.197" y="-1047.5" font-family="Helvetica,sans-Serif" font-size="10.00"> </text>
</g>
<!-- Node10&#45;&gt;Node9 -->
<g id="edge13" class="edge"><title>Node10&#45;&gt;Node9</title>
<path fill="none" stroke="#404040" d="M353.197,-1040.27C353.197,-992.493 353.197,-892.062 353.197,-811.772"/>
<polygon fill="none" stroke="#404040" points="353.197,-811.576 349.197,-805.576 353.197,-799.576 357.197,-805.576 353.197,-811.576"/>
<text text-anchor="middle" x="383.197" y="-826.5" font-family="Helvetica,sans-Serif" font-size="10.00"> #mShmBusy</text>
</g>
</g>
</svg>
        <g id="navigator" transform="translate(0 0)" fill="#404254">
                <rect fill="#f2f5e9" fill-opacity="0.5" stroke="#606060" stroke-width=".5" x="0" y="0" width="60" height="60"/>
                <use id="zoomplus" xlink:href="#zoomPlus" x="17" y="9" onmousedown="handleZoom(evt,'in')"/>
                <use id="zoomminus" xlink:href="#zoomMin" x="42" y="9" onmousedown="handleZoom(evt,'out')"/>
                <use id="reset" xlink:href="#resetDef" x="30" y="36" onmousedown="handleReset()"/>
                <g id="arrowUp" xlink:href="#dirArrow" transform="translate(30 24)" onmousedown="handlePan(0,-1)">
                  <use xlink:href="#rim" fill="#404040">
                        <set attributeName="fill" to="#808080" begin="arrowUp.mouseover" end="arrowUp.mouseout"/>
                  </use>
                  <path fill="none" stroke="white" stroke-width="1.5" d="M0,-3.0v7 M-2.5,-0.5L0,-3.0L2.5,-0.5"/>
                </g>
                <g id="arrowRight" xlink:href="#dirArrow" transform="rotate(90) translate(36 -43)" onmousedown="handlePan(1,0)">
                  <use xlink:href="#rim" fill="#404040">
                        <set attributeName="fill" to="#808080" begin="arrowRight.mouseover" end="arrowRight.mouseout"/>
                  </use>
                  <path fill="none" stroke="white" stroke-width="1.5" d="M0,-3.0v7 M-2.5,-0.5L0,-3.0L2.5,-0.5"/>
                </g>
                <g id="arrowDown" xlink:href="#dirArrow" transform="rotate(180) translate(-30 -48)" onmousedown="handlePan(0,1)">
                  <use xlink:href="#rim" fill="#404040">
                        <set attributeName="fill" to="#808080" begin="arrowDown.mouseover" end="arrowDown.mouseout"/>
                  </use>
                  <path fill="none" stroke="white" stroke-width="1.5" d="M0,-3.0v7 M-2.5,-0.5L0,-3.0L2.5,-0.5"/>
                </g>
                <g id="arrowLeft" xlink:href="#dirArrow" transform="rotate(270) translate(-36 17)" onmousedown="handlePan(-1,0)">
                  <use xlink:href="#rim" fill="#404040">
                        <set attributeName="fill" to="#808080" begin="arrowLeft.mouseover" end="arrowLeft.mouseout"/>
                  </use>
                  <path fill="none" stroke="white" stroke-width="1.5" d="M0,-3.0v7 M-2.5,-0.5L0,-3.0L2.5,-0.5"/>
                </g>
        </g>
        <svg viewBox="0 0 15 15" width="100%" height="30px" preserveAspectRatio="xMaxYMin meet">
         <g id="arrow_out" transform="scale(0.3 0.3)">
          <a xlink:href="classo2_1_1TPC_1_1Detector__coll__graph_org.svg" target="_base">
           <rect id="button" ry="5" rx="5" y="6" x="6" height="38" width="38"
                fill="#f2f5e9" fill-opacity="0.5" stroke="#606060" stroke-width="1.0"/>
           <path id="arrow"
             d="M 11.500037,31.436501 C 11.940474,20.09759 22.043105,11.32322 32.158766,21.979434 L 37.068811,17.246167 C 37.068811,17.246167 37.088388,32 37.088388,32 L 22.160133,31.978069 C 22.160133,31.978069 26.997745,27.140456 26.997745,27.140456 C 18.528582,18.264221 13.291696,25.230495 11.500037,31.436501 z"
             style="fill:#404040;"/>
          </a>
         </g>
        </svg>
</svg>
