<?xml version="1.0" encoding="UTF-8" standalone="no"?>
<!DOCTYPE svg PUBLIC "-//W3C//DTD SVG 1.1//EN"
 "http://www.w3.org/Graphics/SVG/1.1/DTD/svg11.dtd">
<!-- Generated by graphviz version 2.36.0 (20140111.2315)
 -->
<!-- Title: o2::framework::DataProcessingHeader Pages: 1 -->
<svg width="1012pt" height="1084pt"
 viewBox="0.00 0.00 1011.52 1084.00" xmlns="http://www.w3.org/2000/svg" xmlns:xlink="http://www.w3.org/1999/xlink">
<g id="graph0" class="graph" transform="scale(1 1) rotate(0) translate(4 1080)">
<title>o2::framework::DataProcessingHeader</title>
<!-- Node1 -->
<g id="node1" class="node"><title>Node1</title>
<polygon fill="#bfbfbf" stroke="black" points="761.015,-0.5 761.015,-123.5 916.015,-123.5 916.015,-0.5 761.015,-0.5"/>
<text text-anchor="start" x="769.015" y="-111.5" font-family="Helvetica,sans-Serif" font-size="10.00">o2::framework::DataProcessing</text>
<text text-anchor="middle" x="838.515" y="-100.5" font-family="Helvetica,sans-Serif" font-size="10.00">Header</text>
<polyline fill="none" stroke="black" points="761.015,-93.5 916.015,-93.5 "/>
<text text-anchor="middle" x="838.515" y="-81.5" font-family="Helvetica,sans-Serif" font-size="10.00"> </text>
<polyline fill="none" stroke="black" points="761.015,-74.5 916.015,-74.5 "/>
<text text-anchor="start" x="769.015" y="-62.5" font-family="Helvetica,sans-Serif" font-size="10.00">+ DataProcessingHeader()</text>
<text text-anchor="start" x="769.015" y="-51.5" font-family="Helvetica,sans-Serif" font-size="10.00">+ DataProcessingHeader()</text>
<text text-anchor="start" x="769.015" y="-40.5" font-family="Helvetica,sans-Serif" font-size="10.00">+ DataProcessingHeader()</text>
<text text-anchor="start" x="769.015" y="-29.5" font-family="Helvetica,sans-Serif" font-size="10.00">+ DataProcessingHeader()</text>
<text text-anchor="start" x="769.015" y="-18.5" font-family="Helvetica,sans-Serif" font-size="10.00">+ getCreationTime()</text>
<text text-anchor="start" x="769.015" y="-7.5" font-family="Helvetica,sans-Serif" font-size="10.00">+ Get()</text>
</g>
<!-- Node2 -->
<g id="node2" class="node"><title>Node2</title>
<g id="a_node2"><a xlink:href="../../d8/dbd/structo2_1_1header_1_1BaseHeader.html" target="_top" xlink:title="the base header struct Every header type must begin (i.e. derive) with this. Don&#39;t use this struct di...">
<polygon fill="none" stroke="black" points="636.515,-194.5 636.515,-339.5 758.515,-339.5 758.515,-194.5 636.515,-194.5"/>
<text text-anchor="middle" x="697.515" y="-327.5" font-family="Helvetica,sans-Serif" font-size="10.00">o2::header::BaseHeader</text>
<polyline fill="none" stroke="black" points="636.515,-320.5 758.515,-320.5 "/>
<text text-anchor="middle" x="697.515" y="-308.5" font-family="Helvetica,sans-Serif" font-size="10.00"> </text>
<polyline fill="none" stroke="black" points="636.515,-301.5 758.515,-301.5 "/>
<text text-anchor="start" x="644.515" y="-289.5" font-family="Helvetica,sans-Serif" font-size="10.00">+ BaseHeader()</text>
<text text-anchor="start" x="644.515" y="-278.5" font-family="Helvetica,sans-Serif" font-size="10.00">+ BaseHeader()</text>
<text text-anchor="start" x="644.515" y="-267.5" font-family="Helvetica,sans-Serif" font-size="10.00">+ BaseHeader()</text>
<text text-anchor="start" x="644.515" y="-256.5" font-family="Helvetica,sans-Serif" font-size="10.00">+ size()</text>
<text text-anchor="start" x="644.515" y="-245.5" font-family="Helvetica,sans-Serif" font-size="10.00">+ data()</text>
<text text-anchor="start" x="644.515" y="-234.5" font-family="Helvetica,sans-Serif" font-size="10.00">+ next()</text>
<text text-anchor="start" x="644.515" y="-223.5" font-family="Helvetica,sans-Serif" font-size="10.00">+ next()</text>
<text text-anchor="start" x="644.515" y="-212.5" font-family="Helvetica,sans-Serif" font-size="10.00">+ get()</text>
<text text-anchor="start" x="644.515" y="-201.5" font-family="Helvetica,sans-Serif" font-size="10.00">+ get()</text>
</a>
</g>
</g>
<!-- Node2&#45;&gt;Node1 -->
<g id="edge1" class="edge"><title>Node2&#45;&gt;Node1</title>
<path fill="none" stroke="midnightblue" d="M752.944,-186.198C767.436,-165.334 782.819,-143.187 796.486,-123.51"/>
<polygon fill="none" stroke="midnightblue" points="750.057,-184.22 747.226,-194.43 755.806,-188.213 750.057,-184.22"/>
</g>
<!-- Node3 -->
<g id="node3" class="node"><title>Node3</title>
<g id="a_node3"><a xlink:href="../../d9/db3/structo2_1_1header_1_1Descriptor.html" target="_top" xlink:title="{o2::header::Descriptor\l\&lt; gSizeHeaderDescriptionString \&gt;\n||+ Descriptor()\l+ Descriptor()\l+ Descriptor()\l+ Descriptor()\l+ operator=()\l+ operator ItgType()\l+ runtimeInit()\l+ operator==()\l+ operator==()\l+ operator\&lt;()\l+ operator!=()\l+ operator!=()\l+ as()\l+ print()\l}">
<polygon fill="none" stroke="black" points="287.515,-464.5 287.515,-675.5 453.515,-675.5 453.515,-464.5 287.515,-464.5"/>
<text text-anchor="start" x="295.515" y="-663.5" font-family="Helvetica,sans-Serif" font-size="10.00">o2::header::Descriptor</text>
<text text-anchor="middle" x="370.515" y="-652.5" font-family="Helvetica,sans-Serif" font-size="10.00">&lt; gSizeHeaderDescriptionString &gt;</text>
<polyline fill="none" stroke="black" points="287.515,-645.5 453.515,-645.5 "/>
<text text-anchor="middle" x="370.515" y="-633.5" font-family="Helvetica,sans-Serif" font-size="10.00"> </text>
<polyline fill="none" stroke="black" points="287.515,-626.5 453.515,-626.5 "/>
<text text-anchor="start" x="295.515" y="-614.5" font-family="Helvetica,sans-Serif" font-size="10.00">+ Descriptor()</text>
<text text-anchor="start" x="295.515" y="-603.5" font-family="Helvetica,sans-Serif" font-size="10.00">+ Descriptor()</text>
<text text-anchor="start" x="295.515" y="-592.5" font-family="Helvetica,sans-Serif" font-size="10.00">+ Descriptor()</text>
<text text-anchor="start" x="295.515" y="-581.5" font-family="Helvetica,sans-Serif" font-size="10.00">+ Descriptor()</text>
<text text-anchor="start" x="295.515" y="-570.5" font-family="Helvetica,sans-Serif" font-size="10.00">+ operator=()</text>
<text text-anchor="start" x="295.515" y="-559.5" font-family="Helvetica,sans-Serif" font-size="10.00">+ operator ItgType()</text>
<text text-anchor="start" x="295.515" y="-548.5" font-family="Helvetica,sans-Serif" font-size="10.00">+ runtimeInit()</text>
<text text-anchor="start" x="295.515" y="-537.5" font-family="Helvetica,sans-Serif" font-size="10.00">+ operator==()</text>
<text text-anchor="start" x="295.515" y="-526.5" font-family="Helvetica,sans-Serif" font-size="10.00">+ operator==()</text>
<text text-anchor="start" x="295.515" y="-515.5" font-family="Helvetica,sans-Serif" font-size="10.00">+ operator&lt;()</text>
<text text-anchor="start" x="295.515" y="-504.5" font-family="Helvetica,sans-Serif" font-size="10.00">+ operator!=()</text>
<text text-anchor="start" x="295.515" y="-493.5" font-family="Helvetica,sans-Serif" font-size="10.00">+ operator!=()</text>
<text text-anchor="start" x="295.515" y="-482.5" font-family="Helvetica,sans-Serif" font-size="10.00">+ as()</text>
<text text-anchor="start" x="295.515" y="-471.5" font-family="Helvetica,sans-Serif" font-size="10.00">+ print()</text>
</a>
</g>
</g>
<!-- Node3&#45;&gt;Node2 -->
<g id="edge2" class="edge"><title>Node3&#45;&gt;Node2</title>
<path fill="none" stroke="#404040" d="M420.519,-464.278C442.089,-427.171 470.105,-387.384 503.515,-358 538.533,-327.202 585.888,-304.961 625.046,-290.293"/>
<polygon fill="none" stroke="#404040" points="625.105,-290.271 629.376,-284.461 636.382,-286.169 632.111,-291.979 625.105,-290.271"/>
<text text-anchor="middle" x="532.015" y="-399.5" font-family="Helvetica,sans-Serif" font-size="10.00"> +description</text>
</g>
<!-- Node4 -->
<g id="node4" class="node"><title>Node4</title>
<polygon fill="none" stroke="#bfbfbf" points="279.515,-1017.5 279.515,-1074.5 317.515,-1074.5 317.515,-1017.5 279.515,-1017.5"/>
<text text-anchor="middle" x="298.515" y="-1062.5" font-family="Helvetica,sans-Serif" font-size="10.00">Type</text>
<polyline fill="none" stroke="#bfbfbf" points="279.515,-1055.5 317.515,-1055.5 "/>
<text text-anchor="middle" x="298.515" y="-1043.5" font-family="Helvetica,sans-Serif" font-size="10.00"> </text>
<polyline fill="none" stroke="#bfbfbf" points="279.515,-1036.5 317.515,-1036.5 "/>
<text text-anchor="middle" x="298.515" y="-1024.5" font-family="Helvetica,sans-Serif" font-size="10.00"> </text>
</g>
<!-- Node4&#45;&gt;Node3 -->
<g id="edge3" class="edge"><title>Node4&#45;&gt;Node3</title>
<path fill="none" stroke="#404040" d="M279.391,-1040.86C241.774,-1031.55 159.079,-1004.98 127.515,-946 83.0557,-862.927 74.9655,-812.207 127.515,-734 146.986,-705.023 244.543,-695.477 273.515,-676 274.847,-675.104 276.174,-674.187 277.495,-673.249"/>
<polygon fill="none" stroke="#404040" points="277.92,-672.928 280.297,-666.12 287.496,-665.695 285.119,-672.504 277.92,-672.928"/>
<text text-anchor="middle" x="137.515" y="-837.5" font-family="Helvetica,sans-Serif" font-size="10.00"> +itg</text>
</g>
<!-- Node8 -->
<g id="node8" class="node"><title>Node8</title>
<g id="a_node8"><a xlink:href="../../d9/db3/structo2_1_1header_1_1Descriptor.html" target="_top" xlink:title="{o2::header::Descriptor\l\&lt; N, PrinterPolicy \&gt;\n||+ Descriptor()\l+ Descriptor()\l+ Descriptor()\l+ operator=()\l+ operator ItgType()\l+ Descriptor()\l+ runtimeInit()\l+ operator==()\l+ operator\&lt;()\l+ operator!=()\l+ operator==()\l+ operator!=()\l+ as()\l+ print()\l}">
<polygon fill="none" stroke="black" points="239.015,-734.5 239.015,-945.5 352.015,-945.5 352.015,-734.5 239.015,-734.5"/>
<text text-anchor="start" x="247.015" y="-933.5" font-family="Helvetica,sans-Serif" font-size="10.00">o2::header::Descriptor</text>
<text text-anchor="middle" x="295.515" y="-922.5" font-family="Helvetica,sans-Serif" font-size="10.00">&lt; N, PrinterPolicy &gt;</text>
<polyline fill="none" stroke="black" points="239.015,-915.5 352.015,-915.5 "/>
<text text-anchor="middle" x="295.515" y="-903.5" font-family="Helvetica,sans-Serif" font-size="10.00"> </text>
<polyline fill="none" stroke="black" points="239.015,-896.5 352.015,-896.5 "/>
<text text-anchor="start" x="247.015" y="-884.5" font-family="Helvetica,sans-Serif" font-size="10.00">+ Descriptor()</text>
<text text-anchor="start" x="247.015" y="-873.5" font-family="Helvetica,sans-Serif" font-size="10.00">+ Descriptor()</text>
<text text-anchor="start" x="247.015" y="-862.5" font-family="Helvetica,sans-Serif" font-size="10.00">+ Descriptor()</text>
<text text-anchor="start" x="247.015" y="-851.5" font-family="Helvetica,sans-Serif" font-size="10.00">+ operator=()</text>
<text text-anchor="start" x="247.015" y="-840.5" font-family="Helvetica,sans-Serif" font-size="10.00">+ operator ItgType()</text>
<text text-anchor="start" x="247.015" y="-829.5" font-family="Helvetica,sans-Serif" font-size="10.00">+ Descriptor()</text>
<text text-anchor="start" x="247.015" y="-818.5" font-family="Helvetica,sans-Serif" font-size="10.00">+ runtimeInit()</text>
<text text-anchor="start" x="247.015" y="-807.5" font-family="Helvetica,sans-Serif" font-size="10.00">+ operator==()</text>
<text text-anchor="start" x="247.015" y="-796.5" font-family="Helvetica,sans-Serif" font-size="10.00">+ operator&lt;()</text>
<text text-anchor="start" x="247.015" y="-785.5" font-family="Helvetica,sans-Serif" font-size="10.00">+ operator!=()</text>
<text text-anchor="start" x="247.015" y="-774.5" font-family="Helvetica,sans-Serif" font-size="10.00">+ operator==()</text>
<text text-anchor="start" x="247.015" y="-763.5" font-family="Helvetica,sans-Serif" font-size="10.00">+ operator!=()</text>
<text text-anchor="start" x="247.015" y="-752.5" font-family="Helvetica,sans-Serif" font-size="10.00">+ as()</text>
<text text-anchor="start" x="247.015" y="-741.5" font-family="Helvetica,sans-Serif" font-size="10.00">+ print()</text>
</a>
</g>
</g>
<!-- Node4&#45;&gt;Node8 -->
<g id="edge8" class="edge"><title>Node4&#45;&gt;Node8</title>
<path fill="none" stroke="#404040" d="M298.111,-1017.49C297.876,-1001.54 297.563,-980.248 297.236,-957.984"/>
<polygon fill="none" stroke="#404040" points="297.235,-957.91 293.147,-951.969 297.058,-945.911 301.146,-951.851 297.235,-957.91"/>
<text text-anchor="middle" x="308.515" y="-978.5" font-family="Helvetica,sans-Serif" font-size="10.00"> +itg</text>
</g>
<!-- Node10 -->
<g id="node10" class="node"><title>Node10</title>
<g id="a_node10"><a xlink:href="../../d9/db3/structo2_1_1header_1_1Descriptor.html" target="_top" xlink:title="{o2::header::Descriptor\l\&lt; gSizeSerializationMethodString \&gt;\n||+ Descriptor()\l+ Descriptor()\l+ Descriptor()\l+ Descriptor()\l+ operator=()\l+ operator ItgType()\l+ runtimeInit()\l+ operator==()\l+ operator==()\l+ operator\&lt;()\l+ operator!=()\l+ operator!=()\l+ as()\l+ print()\l}">
<polygon fill="none" stroke="black" points="471.515,-464.5 471.515,-675.5 641.515,-675.5 641.515,-464.5 471.515,-464.5"/>
<text text-anchor="start" x="479.515" y="-663.5" font-family="Helvetica,sans-Serif" font-size="10.00">o2::header::Descriptor</text>
<text text-anchor="middle" x="556.515" y="-652.5" font-family="Helvetica,sans-Serif" font-size="10.00">&lt; gSizeSerializationMethodString &gt;</text>
<polyline fill="none" stroke="black" points="471.515,-645.5 641.515,-645.5 "/>
<text text-anchor="middle" x="556.515" y="-633.5" font-family="Helvetica,sans-Serif" font-size="10.00"> </text>
<polyline fill="none" stroke="black" points="471.515,-626.5 641.515,-626.5 "/>
<text text-anchor="start" x="479.515" y="-614.5" font-family="Helvetica,sans-Serif" font-size="10.00">+ Descriptor()</text>
<text text-anchor="start" x="479.515" y="-603.5" font-family="Helvetica,sans-Serif" font-size="10.00">+ Descriptor()</text>
<text text-anchor="start" x="479.515" y="-592.5" font-family="Helvetica,sans-Serif" font-size="10.00">+ Descriptor()</text>
<text text-anchor="start" x="479.515" y="-581.5" font-family="Helvetica,sans-Serif" font-size="10.00">+ Descriptor()</text>
<text text-anchor="start" x="479.515" y="-570.5" font-family="Helvetica,sans-Serif" font-size="10.00">+ operator=()</text>
<text text-anchor="start" x="479.515" y="-559.5" font-family="Helvetica,sans-Serif" font-size="10.00">+ operator ItgType()</text>
<text text-anchor="start" x="479.515" y="-548.5" font-family="Helvetica,sans-Serif" font-size="10.00">+ runtimeInit()</text>
<text text-anchor="start" x="479.515" y="-537.5" font-family="Helvetica,sans-Serif" font-size="10.00">+ operator==()</text>
<text text-anchor="start" x="479.515" y="-526.5" font-family="Helvetica,sans-Serif" font-size="10.00">+ operator==()</text>
<text text-anchor="start" x="479.515" y="-515.5" font-family="Helvetica,sans-Serif" font-size="10.00">+ operator&lt;()</text>
<text text-anchor="start" x="479.515" y="-504.5" font-family="Helvetica,sans-Serif" font-size="10.00">+ operator!=()</text>
<text text-anchor="start" x="479.515" y="-493.5" font-family="Helvetica,sans-Serif" font-size="10.00">+ operator!=()</text>
<text text-anchor="start" x="479.515" y="-482.5" font-family="Helvetica,sans-Serif" font-size="10.00">+ as()</text>
<text text-anchor="start" x="479.515" y="-471.5" font-family="Helvetica,sans-Serif" font-size="10.00">+ print()</text>
</a>
</g>
</g>
<!-- Node4&#45;&gt;Node10 -->
<g id="edge17" class="edge"><title>Node4&#45;&gt;Node10</title>
<path fill="none" stroke="#404040" d="M317.568,-1034.26C332.758,-1025.34 354.268,-1011.91 371.515,-998 371.615,-997.92 423.456,-946.113 423.515,-946 467.606,-861.122 394.108,-802.835 460.515,-734 487.326,-706.209 520.084,-745.059 545.515,-716 552.841,-707.629 557.971,-697.844 561.444,-687.38"/>
<polygon fill="none" stroke="#404040" points="561.445,-687.374 559.156,-680.536 564.587,-675.793 566.877,-682.631 561.445,-687.374"/>
<text text-anchor="middle" x="470.515" y="-837.5" font-family="Helvetica,sans-Serif" font-size="10.00"> +itg</text>
</g>
<!-- Node5 -->
<g id="node5" class="node"><title>Node5</title>
<polygon fill="none" stroke="#bfbfbf" points="438.015,-1017.5 438.015,-1074.5 473.015,-1074.5 473.015,-1017.5 438.015,-1017.5"/>
<text text-anchor="middle" x="455.515" y="-1062.5" font-family="Helvetica,sans-Serif" font-size="10.00">char</text>
<polyline fill="none" stroke="#bfbfbf" points="438.015,-1055.5 473.015,-1055.5 "/>
<text text-anchor="middle" x="455.515" y="-1043.5" font-family="Helvetica,sans-Serif" font-size="10.00"> </text>
<polyline fill="none" stroke="#bfbfbf" points="438.015,-1036.5 473.015,-1036.5 "/>
<text text-anchor="middle" x="455.515" y="-1024.5" font-family="Helvetica,sans-Serif" font-size="10.00"> </text>
</g>
<!-- Node5&#45;&gt;Node2 -->
<g id="edge14" class="edge"><title>Node5&#45;&gt;Node2</title>
<path fill="none" stroke="#404040" d="M473.066,-1038.67C504.779,-1026.24 571.316,-995.492 603.515,-946 635.419,-896.962 673.861,-522.184 689.905,-351.821"/>
<polygon fill="none" stroke="#404040" points="689.924,-351.617 686.501,-345.27 691.044,-339.669 694.466,-346.016 689.924,-351.617"/>
<text text-anchor="middle" x="684.015" y="-702.5" font-family="Helvetica,sans-Serif" font-size="10.00"> +magicString</text>
</g>
<!-- Node5&#45;&gt;Node3 -->
<g id="edge4" class="edge"><title>Node5&#45;&gt;Node3</title>
<path fill="none" stroke="#404040" d="M437.832,-1020.38C425.188,-1001.17 409.261,-973.251 402.515,-946 381.543,-861.285 373.744,-762.89 371.081,-688.149"/>
<polygon fill="none" stroke="#404040" points="371.073,-687.887 366.88,-682.02 370.683,-675.893 374.876,-681.76 371.073,-687.887"/>
<text text-anchor="middle" x="413.015" y="-837.5" font-family="Helvetica,sans-Serif" font-size="10.00"> +str</text>
</g>
<!-- Node5&#45;&gt;Node8 -->
<g id="edge9" class="edge"><title>Node5&#45;&gt;Node8</title>
<path fill="none" stroke="#404040" d="M437.987,-1038.19C420.354,-1030.6 393.296,-1016.88 375.515,-998 363.842,-985.606 353.463,-971.18 344.368,-956.191"/>
<polygon fill="none" stroke="#404040" points="344.32,-956.11 337.842,-952.941 338.276,-945.743 344.753,-948.912 344.32,-956.11"/>
<text text-anchor="middle" x="386.015" y="-978.5" font-family="Helvetica,sans-Serif" font-size="10.00"> +str</text>
</g>
<!-- Node5&#45;&gt;Node10 -->
<g id="edge18" class="edge"><title>Node5&#45;&gt;Node10</title>
<path fill="none" stroke="#404040" d="M473.229,-1023.77C478.712,-1016.1 484.182,-1007.08 487.515,-998 528.164,-887.232 441.315,-825.74 515.515,-734 531.69,-714.002 555.419,-736.824 570.515,-716 576.703,-707.464 580.505,-697.863 582.533,-687.77"/>
<polygon fill="none" stroke="#404040" points="582.552,-687.625 579.379,-681.15 584.135,-675.73 587.309,-682.206 582.552,-687.625"/>
<text text-anchor="middle" x="526.015" y="-837.5" font-family="Helvetica,sans-Serif" font-size="10.00"> +str</text>
</g>
<!-- Node6 -->
<g id="node6" class="node"><title>Node6</title>
<polygon fill="none" stroke="#bfbfbf" points="152.015,-1017.5 152.015,-1074.5 181.015,-1074.5 181.015,-1017.5 152.015,-1017.5"/>
<text text-anchor="middle" x="166.515" y="-1062.5" font-family="Helvetica,sans-Serif" font-size="10.00">int</text>
<polyline fill="none" stroke="#bfbfbf" points="152.015,-1055.5 181.015,-1055.5 "/>
<text text-anchor="middle" x="166.515" y="-1043.5" font-family="Helvetica,sans-Serif" font-size="10.00"> </text>
<polyline fill="none" stroke="#bfbfbf" points="152.015,-1036.5 181.015,-1036.5 "/>
<text text-anchor="middle" x="166.515" y="-1024.5" font-family="Helvetica,sans-Serif" font-size="10.00"> </text>
</g>
<!-- Node6&#45;&gt;Node3 -->
<g id="edge5" class="edge"><title>Node6&#45;&gt;Node3</title>
<path fill="none" stroke="#404040" d="M151.632,-1039.07C123.006,-1026.74 60.9469,-995.315 36.5152,-946 -5.31257,-861.571 -17.9756,-810.867 36.5152,-734 67.5682,-690.195 98.3768,-706.836 150.515,-694 204.162,-680.793 224.642,-701.765 273.515,-676 274.695,-675.378 275.868,-674.736 277.035,-674.074"/>
<polygon fill="none" stroke="#404040" points="277.157,-673.998 280.126,-667.426 287.334,-667.639 284.365,-674.211 277.157,-673.998"/>
<text text-anchor="middle" x="62.0152" y="-848.5" font-family="Helvetica,sans-Serif" font-size="10.00"> +arraySize</text>
<text text-anchor="middle" x="62.0152" y="-837.5" font-family="Helvetica,sans-Serif" font-size="10.00">+size</text>
<text text-anchor="middle" x="62.0152" y="-826.5" font-family="Helvetica,sans-Serif" font-size="10.00">+bitcount</text>
</g>
<!-- Node6&#45;&gt;Node8 -->
<g id="edge10" class="edge"><title>Node6&#45;&gt;Node8</title>
<path fill="none" stroke="#404040" d="M181.062,-1022C193.79,-1001.87 213.205,-971.165 232.45,-940.732"/>
<polygon fill="none" stroke="#404040" points="232.546,-940.579 232.372,-933.37 238.96,-930.437 239.134,-937.646 232.546,-940.579"/>
<text text-anchor="middle" x="242.015" y="-989.5" font-family="Helvetica,sans-Serif" font-size="10.00"> +arraySize</text>
<text text-anchor="middle" x="242.015" y="-978.5" font-family="Helvetica,sans-Serif" font-size="10.00">+size</text>
<text text-anchor="middle" x="242.015" y="-967.5" font-family="Helvetica,sans-Serif" font-size="10.00">+bitcount</text>
</g>
<!-- Node6&#45;&gt;Node10 -->
<g id="edge19" class="edge"><title>Node6&#45;&gt;Node10</title>
<path fill="none" stroke="#404040" d="M160.559,-1017.46C149.793,-960.957 132.247,-829.264 178.515,-734 233.093,-621.625 340.236,-726.243 459.994,-676.357"/>
<polygon fill="none" stroke="#404040" points="460.329,-676.204 464.127,-670.074 471.246,-671.222 467.448,-677.352 460.329,-676.204"/>
<text text-anchor="middle" x="204.015" y="-848.5" font-family="Helvetica,sans-Serif" font-size="10.00"> +arraySize</text>
<text text-anchor="middle" x="204.015" y="-837.5" font-family="Helvetica,sans-Serif" font-size="10.00">+size</text>
<text text-anchor="middle" x="204.015" y="-826.5" font-family="Helvetica,sans-Serif" font-size="10.00">+bitcount</text>
</g>
<!-- Node7 -->
<g id="node7" class="node"><title>Node7</title>
<polygon fill="none" stroke="#bfbfbf" points="653.015,-1017 653.015,-1075 682.015,-1075 682.015,-1017 653.015,-1017"/>
<polyline fill="none" stroke="#bfbfbf" points="653.015,-1055 682.015,-1055 "/>
<text text-anchor="middle" x="667.515" y="-1043" font-family="Helvetica,sans-Serif" font-size="10.00"> </text>
<polyline fill="none" stroke="#bfbfbf" points="653.015,-1036 682.015,-1036 "/>
<text text-anchor="middle" x="667.515" y="-1024" font-family="Helvetica,sans-Serif" font-size="10.00"> </text>
</g>
<!-- Node7&#45;&gt;Node2 -->
<g id="edge13" class="edge"><title>Node7&#45;&gt;Node2</title>
<path fill="none" stroke="#404040" d="M682.068,-1020.79C692.864,-1001.35 706.68,-972.94 712.515,-946 736.51,-835.226 715.927,-507.57 704.248,-351.922"/>
<polygon fill="none" stroke="#404040" points="704.226,-351.628 699.784,-345.947 703.319,-339.662 707.761,-345.343 704.226,-351.628"/>
<text text-anchor="middle" x="739.015" y="-702.5" font-family="Helvetica,sans-Serif" font-size="10.00"> +@16</text>
</g>
<!-- Node7&#45;&gt;Node2 -->
<g id="edge15" class="edge"><title>Node7&#45;&gt;Node2</title>
<path fill="none" stroke="#404040" d="M682.394,-1033.71C692.962,-1024.99 706.775,-1012.07 715.515,-998 728.347,-977.347 727.345,-969.759 732.515,-946 788.091,-690.606 771.58,-614.725 722.515,-358 722.128,-355.974 721.718,-353.927 721.287,-351.867"/>
<polygon fill="none" stroke="#404040" points="721.244,-351.675 716.032,-346.692 718.627,-339.964 723.839,-344.947 721.244,-351.675"/>
<text text-anchor="middle" x="783.015" y="-702.5" font-family="Helvetica,sans-Serif" font-size="10.00"> +@18</text>
</g>
<!-- Node7&#45;&gt;Node3 -->
<g id="edge6" class="edge"><title>Node7&#45;&gt;Node3</title>
<path fill="none" stroke="#404040" d="M659.148,-1016.94C636.314,-942.067 571.245,-740.094 520.515,-694 502.958,-678.047 488.944,-687.59 464.52,-676.022"/>
<polygon fill="none" stroke="#404040" points="464.224,-675.853 457.03,-676.361 453.795,-669.916 460.988,-669.409 464.224,-675.853"/>
<text text-anchor="middle" x="651.015" y="-837.5" font-family="Helvetica,sans-Serif" font-size="10.00"> +@14</text>
</g>
<!-- Node7&#45;&gt;Node8 -->
<g id="edge11" class="edge"><title>Node7&#45;&gt;Node8</title>
<path fill="none" stroke="#404040" d="M652.764,-1040.76C595.601,-1024.24 390.656,-964.238 366.515,-946 364.825,-944.723 363.162,-943.394 361.526,-942.018"/>
<polygon fill="none" stroke="#404040" points="361.283,-941.795 354.16,-940.675 352.454,-933.668 359.577,-934.789 361.283,-941.795"/>
<text text-anchor="middle" x="518.015" y="-978.5" font-family="Helvetica,sans-Serif" font-size="10.00"> +@14</text>
</g>
<!-- Node7&#45;&gt;Node10 -->
<g id="edge20" class="edge"><title>Node7&#45;&gt;Node10</title>
<path fill="none" stroke="#404040" d="M669.115,-1016.79C673.613,-936.047 685.647,-708.805 679.515,-694 672.5,-677.063 661.896,-661.243 649.799,-646.962"/>
<polygon fill="none" stroke="#404040" points="649.63,-646.772 642.654,-644.945 641.657,-637.803 648.633,-639.63 649.63,-646.772"/>
<text text-anchor="middle" x="697.015" y="-837.5" font-family="Helvetica,sans-Serif" font-size="10.00"> +@14</text>
</g>
<!-- Node8&#45;&gt;Node1 -->
<g id="edge25" class="edge"><title>Node8&#45;&gt;Node1</title>
<path fill="none" stroke="#404040" d="M238.706,-738.731C237.013,-737.096 235.283,-735.516 233.515,-734 217.165,-719.976 206.709,-727.531 188.515,-716 166.469,-702.027 156.813,-699.53 145.515,-676 84.2515,-548.411 49.9467,-475.725 128.515,-358 269.155,-147.268 591.543,-86.8553 748.862,-69.7025"/>
<polygon fill="none" stroke="#404040" points="748.881,-69.7006 754.43,-65.0962 760.815,-68.4481 755.265,-73.0525 748.881,-69.7006"/>
<text text-anchor="middle" x="162.515" y="-399.5" font-family="Helvetica,sans-Serif" font-size="10.00"> +sHeaderType</text>
</g>
<!-- Node8&#45;&gt;Node2 -->
<g id="edge22" class="edge"><title>Node8&#45;&gt;Node2</title>
<path fill="none" stroke="#404040" d="M238.932,-741.584C237.136,-739.009 235.329,-736.476 233.515,-734 213.058,-706.069 193.888,-708.335 181.515,-676 147.843,-588 129.551,-542.598 181.515,-464 231.996,-387.645 494.479,-316.102 624.446,-284.708"/>
<polygon fill="none" stroke="#404040" points="624.551,-284.683 629.453,-279.395 636.22,-281.887 631.318,-287.175 624.551,-284.683"/>
<text text-anchor="middle" x="230.015" y="-573" font-family="Helvetica,sans-Serif" font-size="10.00"> +sHeaderType</text>
<text text-anchor="middle" x="230.015" y="-562" font-family="Helvetica,sans-Serif" font-size="10.00">+sSerializationMethod</text>
</g>
<!-- Node8&#45;&gt;Node3 -->
<g id="edge7" class="edge"><title>Node8&#45;&gt;Node3</title>
<path fill="none" stroke="orange" d="M234.98,-733.655C228.627,-716.713 226.179,-702.092 231.515,-694 242.695,-677.045 256.927,-687.716 273.515,-676 278.177,-672.707 282.785,-669.158 287.31,-665.426"/>
<polygon fill="orange" stroke="orange" points="231.882,-735.33 238.886,-743.28 238.368,-732.697 231.882,-735.33"/>
<text text-anchor="start" x="231.515" y="-708" font-family="Helvetica,sans-Serif" font-size="10.00"> &lt; gSizeHeaderDescription</text>
<text text-anchor="middle" x="290.515" y="-697" font-family="Helvetica,sans-Serif" font-size="10.00">String &gt;</text>
</g>
<!-- Node8&#45;&gt;Node10 -->
<g id="edge21" class="edge"><title>Node8&#45;&gt;Node10</title>
<path fill="none" stroke="orange" d="M358.79,-742.333C361.327,-739.465 363.904,-736.679 366.515,-734 387.863,-712.096 395.996,-709.239 422.515,-694 439.418,-684.287 446.783,-687.513 462.515,-676 465.477,-673.833 468.414,-671.559 471.32,-669.198"/>
<polygon fill="orange" stroke="orange" points="355.998,-740.213 352.175,-750.094 361.326,-744.753 355.998,-740.213"/>
<text text-anchor="start" x="422.515" y="-708" font-family="Helvetica,sans-Serif" font-size="10.00"> &lt; gSizeSerializationMethod</text>
<text text-anchor="middle" x="484.015" y="-697" font-family="Helvetica,sans-Serif" font-size="10.00">String &gt;</text>
</g>
<!-- Node9 -->
<g id="node9" class="node"><title>Node9</title>
<polygon fill="none" stroke="#bfbfbf" points="830.015,-541.5 830.015,-598.5 881.015,-598.5 881.015,-541.5 830.015,-541.5"/>
<text text-anchor="middle" x="855.515" y="-586.5" font-family="Helvetica,sans-Serif" font-size="10.00">uint32_t</text>
<polyline fill="none" stroke="#bfbfbf" points="830.015,-579.5 881.015,-579.5 "/>
<text text-anchor="middle" x="855.515" y="-567.5" font-family="Helvetica,sans-Serif" font-size="10.00"> </text>
<polyline fill="none" stroke="#bfbfbf" points="830.015,-560.5 881.015,-560.5 "/>
<text text-anchor="middle" x="855.515" y="-548.5" font-family="Helvetica,sans-Serif" font-size="10.00"> </text>
</g>
<!-- Node9&#45;&gt;Node1 -->
<g id="edge23" class="edge"><title>Node9&#45;&gt;Node1</title>
<path fill="none" stroke="#404040" d="M860.167,-541.256C864.087,-516.391 869.386,-478.878 871.515,-446 878.527,-337.739 863.329,-212.541 851.299,-135.565"/>
<polygon fill="none" stroke="#404040" points="851.286,-135.486 846.393,-130.19 849.399,-123.635 854.293,-128.932 851.286,-135.486"/>
<text text-anchor="middle" x="896.515" y="-264.5" font-family="Helvetica,sans-Serif" font-size="10.00"> +sVersion</text>
</g>
<!-- Node9&#45;&gt;Node2 -->
<g id="edge12" class="edge"><title>Node9&#45;&gt;Node2</title>
<path fill="none" stroke="#404040" d="M838.922,-541.499C824.765,-517.104 804.668,-480.143 791.515,-446 776.983,-408.277 786.526,-394.191 768.515,-358 767.225,-355.407 765.851,-352.817 764.409,-350.24"/>
<polygon fill="none" stroke="#404040" points="764.283,-350.03 757.771,-346.934 758.124,-339.732 764.636,-342.828 764.283,-350.03"/>
<text text-anchor="middle" x="831.515" y="-438" font-family="Helvetica,sans-Serif" font-size="10.00"> +headerVersion</text>
<text text-anchor="middle" x="831.515" y="-427" font-family="Helvetica,sans-Serif" font-size="10.00">+headerSize</text>
<text text-anchor="middle" x="831.515" y="-416" font-family="Helvetica,sans-Serif" font-size="10.00">+sMagicString</text>
<text text-anchor="middle" x="831.515" y="-405" font-family="Helvetica,sans-Serif" font-size="10.00">+flagsNextHeader</text>
<text text-anchor="middle" x="831.515" y="-394" font-family="Helvetica,sans-Serif" font-size="10.00">+magicStringInt</text>
<text text-anchor="middle" x="831.515" y="-383" font-family="Helvetica,sans-Serif" font-size="10.00">+flagsUnused</text>
<text text-anchor="middle" x="831.515" y="-372" font-family="Helvetica,sans-Serif" font-size="10.00">+flags</text>
<text text-anchor="middle" x="831.515" y="-361" font-family="Helvetica,sans-Serif" font-size="10.00">+sVersion</text>
</g>
<!-- Node10&#45;&gt;Node2 -->
<g id="edge16" class="edge"><title>Node10&#45;&gt;Node2</title>
<path fill="none" stroke="#404040" d="M561.368,-464.437C566.554,-428.881 576.352,-390.062 594.515,-358 602.898,-343.203 614.651,-329.641 627.234,-317.782"/>
<polygon fill="none" stroke="#404040" points="627.578,-317.472 629.369,-310.487 636.506,-309.454 634.715,-316.439 627.578,-317.472"/>
<text text-anchor="middle" x="625.015" y="-399.5" font-family="Helvetica,sans-Serif" font-size="10.00"> +serialization</text>
</g>
<!-- Node11 -->
<g id="node11" class="node"><title>Node11</title>
<polygon fill="none" stroke="#bfbfbf" points="952.015,-238.5 952.015,-295.5 1003.02,-295.5 1003.02,-238.5 952.015,-238.5"/>
<text text-anchor="middle" x="977.515" y="-283.5" font-family="Helvetica,sans-Serif" font-size="10.00">uint64_t</text>
<polyline fill="none" stroke="#bfbfbf" points="952.015,-276.5 1003.02,-276.5 "/>
<text text-anchor="middle" x="977.515" y="-264.5" font-family="Helvetica,sans-Serif" font-size="10.00"> </text>
<polyline fill="none" stroke="#bfbfbf" points="952.015,-257.5 1003.02,-257.5 "/>
<text text-anchor="middle" x="977.515" y="-245.5" font-family="Helvetica,sans-Serif" font-size="10.00"> </text>
</g>
<!-- Node11&#45;&gt;Node1 -->
<g id="edge24" class="edge"><title>Node11&#45;&gt;Node1</title>
<path fill="none" stroke="#404040" d="M963.103,-238.181C955.817,-224.622 946.608,-208.214 937.515,-194 924.505,-173.662 909.268,-152.443 894.702,-133.153"/>
<polygon fill="none" stroke="#404040" points="894.661,-133.1 887.844,-130.75 887.39,-123.554 894.208,-125.903 894.661,-133.1"/>
<text text-anchor="middle" x="949.515" y="-167.5" font-family="Helvetica,sans-Serif" font-size="10.00"> +duration</text>
<text text-anchor="middle" x="949.515" y="-156.5" font-family="Helvetica,sans-Serif" font-size="10.00">+startTime</text>
<text text-anchor="middle" x="949.515" y="-145.5" font-family="Helvetica,sans-Serif" font-size="10.00">+creation</text>
</g>
</g>
</svg>
