<?xml version="1.0" encoding="UTF-8" standalone="no"?>
<!DOCTYPE svg PUBLIC "-//W3C//DTD SVG 1.1//EN"
 "http://www.w3.org/Graphics/SVG/1.1/DTD/svg11.dtd">
<!-- Generated by graphviz version 2.36.0 (20140111.2315)
 -->
<!-- Title: o2::framework::data_matcher::ContextElement Pages: 1 -->
<svg width="168pt" height="196pt"
 viewBox="0.00 0.00 168.00 196.00" xmlns="http://www.w3.org/2000/svg" xmlns:xlink="http://www.w3.org/1999/xlink">
<g id="graph0" class="graph" transform="scale(1 1) rotate(0) translate(4 192)">
<title>o2::framework::data_matcher::ContextElement</title>
<!-- Node1 -->
<g id="node1" class="node"><title>Node1</title>
<polygon fill="#bfbfbf" stroke="black" points="0,-1 0,-69 134,-69 134,-1 0,-1"/>
<text text-anchor="start" x="8" y="-57" font-family="Helvetica,sans-Serif" font-size="10.00">o2::framework::data</text>
<text text-anchor="middle" x="67" y="-46" font-family="Helvetica,sans-Serif" font-size="10.00">_matcher::ContextElement</text>
<polyline fill="none" stroke="black" points="0,-39 134,-39 "/>
<text text-anchor="middle" x="67" y="-27" font-family="Helvetica,sans-Serif" font-size="10.00"> </text>
<polyline fill="none" stroke="black" points="0,-20 134,-20 "/>
<text text-anchor="middle" x="67" y="-8" font-family="Helvetica,sans-Serif" font-size="10.00"> </text>
</g>
<!-- Node2 -->
<g id="node2" class="node"><title>Node2</title>
<polygon fill="none" stroke="#bfbfbf" points="6.5,-124.5 6.5,-181.5 41.5,-181.5 41.5,-124.5 6.5,-124.5"/>
<text text-anchor="middle" x="24" y="-169.5" font-family="Helvetica,sans-Serif" font-size="10.00">char</text>
<polyline fill="none" stroke="#bfbfbf" points="6.5,-162.5 41.5,-162.5 "/>
<text text-anchor="middle" x="24" y="-150.5" font-family="Helvetica,sans-Serif" font-size="10.00"> </text>
<polyline fill="none" stroke="#bfbfbf" points="6.5,-143.5 41.5,-143.5 "/>
<text text-anchor="middle" x="24" y="-131.5" font-family="Helvetica,sans-Serif" font-size="10.00"> </text>
</g>
<!-- Node2&#45;&gt;Node1 -->
<g id="edge1" class="edge"><title>Node2&#45;&gt;Node1</title>
<path fill="none" stroke="#404040" d="M34.2996,-124.215C39.1224,-111.205 44.9885,-95.3799 50.4136,-80.7448"/>
<polygon fill="none" stroke="#404040" points="50.4705,-80.5911 48.8054,-73.5749 54.6415,-69.3393 56.3066,-76.3555 50.4705,-80.5911"/>
<text text-anchor="middle" x="62" y="-91.5" font-family="Helvetica,sans-Serif" font-size="10.00"> +label</text>
</g>
<!-- Node3 -->
<g id="node3" class="node"><title>Node3</title>
<polygon fill="none" stroke="#bfbfbf" points="59.5,-119 59.5,-187 160.5,-187 160.5,-119 59.5,-119"/>
<text text-anchor="start" x="67.5" y="-175" font-family="Helvetica,sans-Serif" font-size="10.00">variant&lt; uint64_t,</text>
<text text-anchor="middle" x="110" y="-164" font-family="Helvetica,sans-Serif" font-size="10.00"> std::string, None &gt;</text>
<polyline fill="none" stroke="#bfbfbf" points="59.5,-157 160.5,-157 "/>
<text text-anchor="middle" x="110" y="-145" font-family="Helvetica,sans-Serif" font-size="10.00"> </text>
<polyline fill="none" stroke="#bfbfbf" points="59.5,-138 160.5,-138 "/>
<text text-anchor="middle" x="110" y="-126" font-family="Helvetica,sans-Serif" font-size="10.00"> </text>
</g>
<!-- Node3&#45;&gt;Node1 -->
<g id="edge2" class="edge"><title>Node3&#45;&gt;Node1</title>
<path fill="none" stroke="#404040" d="M97.6779,-118.759C93.2698,-106.867 88.2279,-93.266 83.5226,-80.5727"/>
<polygon fill="none" stroke="#404040" points="83.4949,-80.4976 77.6588,-76.262 79.3239,-69.2458 85.16,-73.4814 83.4949,-80.4976"/>
<text text-anchor="middle" x="105.5" y="-91.5" font-family="Helvetica,sans-Serif" font-size="10.00"> +value</text>
</g>
</g>
</svg>
