<?xml version="1.0" encoding="UTF-8" standalone="no"?>
<!DOCTYPE svg PUBLIC "-//W3C//DTD SVG 1.1//EN"
 "http://www.w3.org/Graphics/SVG/1.1/DTD/svg11.dtd">
<!-- Generated by graphviz version 2.36.0 (20140111.2315)
 -->
<!-- Title: o2::conf::SimConfigData Pages: 1 -->
<svg width="478pt" height="304pt"
 viewBox="0.00 0.00 478.00 304.00" xmlns="http://www.w3.org/2000/svg" xmlns:xlink="http://www.w3.org/1999/xlink">
<g id="graph0" class="graph" transform="scale(1 1) rotate(0) translate(4 300)">
<title>o2::conf::SimConfigData</title>
<!-- Node1 -->
<g id="node1" class="node"><title>Node1</title>
<polygon fill="#bfbfbf" stroke="black" points="153.5,-0.5 153.5,-79.5 278.5,-79.5 278.5,-0.5 153.5,-0.5"/>
<text text-anchor="middle" x="216" y="-67.5" font-family="Helvetica,sans-Serif" font-size="10.00">o2::conf::SimConfigData</text>
<polyline fill="none" stroke="black" points="153.5,-60.5 278.5,-60.5 "/>
<text text-anchor="start" x="161.5" y="-48.5" font-family="Helvetica,sans-Serif" font-size="10.00">+ mExtKinFileName</text>
<text text-anchor="start" x="161.5" y="-37.5" font-family="Helvetica,sans-Serif" font-size="10.00">+ mExtGenFuncName</text>
<text text-anchor="start" x="161.5" y="-26.5" font-family="Helvetica,sans-Serif" font-size="10.00">+ mSimWorkers</text>
<polyline fill="none" stroke="black" points="153.5,-19.5 278.5,-19.5 "/>
<text text-anchor="start" x="161.5" y="-7.5" font-family="Helvetica,sans-Serif" font-size="10.00">+ ClassDefNV()</text>
</g>
<!-- Node2 -->
<g id="node2" class="node"><title>Node2</title>
<g id="a_node2"><a xlink:href="../../d4/dc3/classfloat.html" target="_top" xlink:title="{float\n||}">
<polygon fill="none" stroke="black" points="-0.5,-238.5 -0.5,-295.5 34.5,-295.5 34.5,-238.5 -0.5,-238.5"/>
<text text-anchor="middle" x="17" y="-283.5" font-family="Helvetica,sans-Serif" font-size="10.00">float</text>
<polyline fill="none" stroke="black" points="-0.5,-276.5 34.5,-276.5 "/>
<text text-anchor="middle" x="17" y="-264.5" font-family="Helvetica,sans-Serif" font-size="10.00"> </text>
<polyline fill="none" stroke="black" points="-0.5,-257.5 34.5,-257.5 "/>
<text text-anchor="middle" x="17" y="-245.5" font-family="Helvetica,sans-Serif" font-size="10.00"> </text>
</a>
</g>
</g>
<!-- Node2&#45;&gt;Node1 -->
<g id="edge1" class="edge"><title>Node2&#45;&gt;Node1</title>
<path fill="none" stroke="#404040" d="M15.1688,-238.258C14.3042,-201.648 18.3737,-137.262 53,-98 75.4185,-72.5803 109.826,-58.4957 141.262,-50.6921"/>
<polygon fill="none" stroke="#404040" points="141.43,-50.6539 146.396,-45.4253 153.133,-47.9983 148.167,-53.227 141.43,-50.6539"/>
<text text-anchor="middle" x="74.5" y="-156.5" font-family="Helvetica,sans-Serif" font-size="10.00"> +mBMax</text>
</g>
<!-- Node3 -->
<g id="node3" class="node"><title>Node3</title>
<polygon fill="none" stroke="#bfbfbf" points="52.5,-238.5 52.5,-295.5 157.5,-295.5 157.5,-238.5 52.5,-238.5"/>
<text text-anchor="middle" x="105" y="-283.5" font-family="Helvetica,sans-Serif" font-size="10.00">vector&lt; std::string &gt;</text>
<polyline fill="none" stroke="#bfbfbf" points="52.5,-276.5 157.5,-276.5 "/>
<text text-anchor="middle" x="105" y="-264.5" font-family="Helvetica,sans-Serif" font-size="10.00"> </text>
<polyline fill="none" stroke="#bfbfbf" points="52.5,-257.5 157.5,-257.5 "/>
<text text-anchor="middle" x="105" y="-245.5" font-family="Helvetica,sans-Serif" font-size="10.00"> </text>
</g>
<!-- Node3&#45;&gt;Node1 -->
<g id="edge2" class="edge"><title>Node3&#45;&gt;Node1</title>
<path fill="none" stroke="#404040" d="M101.161,-238.309C97.716,-202.9 96.7603,-141.029 124,-98 129.216,-89.7608 136.098,-82.5196 143.756,-76.2104"/>
<polygon fill="none" stroke="#404040" points="143.817,-76.1647 146.223,-69.3666 153.423,-68.9723 151.018,-75.7704 143.817,-76.1647"/>
<text text-anchor="middle" x="168" y="-156.5" font-family="Helvetica,sans-Serif" font-size="10.00"> +mActiveDetectors</text>
</g>
<!-- Node4 -->
<g id="node4" class="node"><title>Node4</title>
<polygon fill="none" stroke="#bfbfbf" points="201.5,-238.5 201.5,-295.5 230.5,-295.5 230.5,-238.5 201.5,-238.5"/>
<text text-anchor="middle" x="216" y="-283.5" font-family="Helvetica,sans-Serif" font-size="10.00">int</text>
<polyline fill="none" stroke="#bfbfbf" points="201.5,-276.5 230.5,-276.5 "/>
<text text-anchor="middle" x="216" y="-264.5" font-family="Helvetica,sans-Serif" font-size="10.00"> </text>
<polyline fill="none" stroke="#bfbfbf" points="201.5,-257.5 230.5,-257.5 "/>
<text text-anchor="middle" x="216" y="-245.5" font-family="Helvetica,sans-Serif" font-size="10.00"> </text>
</g>
<!-- Node4&#45;&gt;Node1 -->
<g id="edge3" class="edge"><title>Node4&#45;&gt;Node1</title>
<path fill="none" stroke="#404040" d="M216,-238.411C216,-202.049 216,-137.393 216,-92.0089"/>
<polygon fill="none" stroke="#404040" points="216,-91.7589 212,-85.7589 216,-79.7589 220,-85.7589 216,-91.7589"/>
<text text-anchor="middle" x="264.5" y="-211.5" font-family="Helvetica,sans-Serif" font-size="10.00"> +mOutputPrefix</text>
<text text-anchor="middle" x="264.5" y="-200.5" font-family="Helvetica,sans-Serif" font-size="10.00">+mMCEngine</text>
<text text-anchor="middle" x="264.5" y="-189.5" font-family="Helvetica,sans-Serif" font-size="10.00">+mStartSeed</text>
<text text-anchor="middle" x="264.5" y="-178.5" font-family="Helvetica,sans-Serif" font-size="10.00">+mInternalChunkSize</text>
<text text-anchor="middle" x="264.5" y="-167.5" font-family="Helvetica,sans-Serif" font-size="10.00">+mKeyValueTokens</text>
<text text-anchor="middle" x="264.5" y="-156.5" font-family="Helvetica,sans-Serif" font-size="10.00">+mLogSeverity</text>
<text text-anchor="middle" x="264.5" y="-145.5" font-family="Helvetica,sans-Serif" font-size="10.00">+mGenerator</text>
<text text-anchor="middle" x="264.5" y="-134.5" font-family="Helvetica,sans-Serif" font-size="10.00">+mExtGenFileName</text>
<text text-anchor="middle" x="264.5" y="-123.5" font-family="Helvetica,sans-Serif" font-size="10.00">+mPrimaryChunkSize</text>
<text text-anchor="middle" x="264.5" y="-112.5" font-family="Helvetica,sans-Serif" font-size="10.00">+mLogVerbosity</text>
<text text-anchor="middle" x="264.5" y="-101.5" font-family="Helvetica,sans-Serif" font-size="10.00">...</text>
</g>
<!-- Node5 -->
<g id="node5" class="node"><title>Node5</title>
<polygon fill="none" stroke="#bfbfbf" points="318.5,-238.5 318.5,-295.5 353.5,-295.5 353.5,-238.5 318.5,-238.5"/>
<text text-anchor="middle" x="336" y="-283.5" font-family="Helvetica,sans-Serif" font-size="10.00">bool</text>
<polyline fill="none" stroke="#bfbfbf" points="318.5,-276.5 353.5,-276.5 "/>
<text text-anchor="middle" x="336" y="-264.5" font-family="Helvetica,sans-Serif" font-size="10.00"> </text>
<polyline fill="none" stroke="#bfbfbf" points="318.5,-257.5 353.5,-257.5 "/>
<text text-anchor="middle" x="336" y="-245.5" font-family="Helvetica,sans-Serif" font-size="10.00"> </text>
</g>
<!-- Node5&#45;&gt;Node1 -->
<g id="edge4" class="edge"><title>Node5&#45;&gt;Node1</title>
<path fill="none" stroke="#404040" d="M335.291,-238.275C333.745,-196.628 328.91,-120.408 314,-98 307.417,-88.1066 298.489,-79.7093 288.687,-72.6528"/>
<polygon fill="none" stroke="#404040" points="288.668,-72.6406 281.457,-72.679 278.648,-66.0374 285.859,-65.999 288.668,-72.6406"/>
<text text-anchor="middle" x="355" y="-156.5" font-family="Helvetica,sans-Serif" font-size="10.00"> +mIsMT</text>
</g>
<!-- Node6 -->
<g id="node6" class="node"><title>Node6</title>
<polygon fill="none" stroke="#bfbfbf" points="372,-238.5 372,-295.5 428,-295.5 428,-238.5 372,-238.5"/>
<text text-anchor="middle" x="400" y="-283.5" font-family="Helvetica,sans-Serif" font-size="10.00">unsigned</text>
<polyline fill="none" stroke="#bfbfbf" points="372,-276.5 428,-276.5 "/>
<text text-anchor="middle" x="400" y="-264.5" font-family="Helvetica,sans-Serif" font-size="10.00"> </text>
<polyline fill="none" stroke="#bfbfbf" points="372,-257.5 428,-257.5 "/>
<text text-anchor="middle" x="400" y="-245.5" font-family="Helvetica,sans-Serif" font-size="10.00"> </text>
</g>
<!-- Node6&#45;&gt;Node1 -->
<g id="edge5" class="edge"><title>Node6&#45;&gt;Node1</title>
<path fill="none" stroke="#404040" d="M404.524,-238.195C408.798,-201.809 410.422,-137.984 378,-98 356.603,-71.6127 322.16,-57.4229 290.523,-49.8"/>
<polygon fill="none" stroke="#404040" points="290.292,-49.7496 283.577,-52.3767 278.569,-47.1883 285.284,-44.5611 290.292,-49.7496"/>
<text text-anchor="middle" x="438" y="-162" font-family="Helvetica,sans-Serif" font-size="10.00"> +mStartEvent</text>
<text text-anchor="middle" x="438" y="-151" font-family="Helvetica,sans-Serif" font-size="10.00">+mNEvents</text>
</g>
</g>
</svg>
