<?xml version="1.0" encoding="UTF-8" standalone="no"?>
<!DOCTYPE svg PUBLIC "-//W3C//DTD SVG 1.1//EN"
 "http://www.w3.org/Graphics/SVG/1.1/DTD/svg11.dtd">
<!-- Generated by graphviz version 2.36.0 (20140111.2315)
 -->
<!-- Title: /home/travis/build/AliceO2Group/AliceO2/DataFormats/Reconstruction/include/ReconstructionDataFormats/Vertex.h Pages: 1 -->
<!--zoomable 262 -->
<svg id="main" version="1.1" xmlns="http://www.w3.org/2000/svg" xmlns:xlink="http://www.w3.org/1999/xlink" xml:space="preserve" onload="init(evt)">
<style type="text/css"><![CDATA[
.edge:hover path { stroke: red; }
.edge:hover polygon { stroke: red; fill: red; }
]]></style>
<script type="text/javascript"><![CDATA[
var edges = document.getElementsByTagName('g');
if (edges && edges.length) {
  for (var i=0;i<edges.length;i++) {
    if (edges[i].id.substr(0,4)=='edge') {
      edges[i].setAttribute('class','edge');
    }
  }
}
]]></script>
        <defs>
                <circle id="rim" cx="0" cy="0" r="7"/>
                <circle id="rim2" cx="0" cy="0" r="3.5"/>
                <g id="zoomPlus">
                        <use xlink:href="#rim" fill="#404040">
                                <set attributeName="fill" to="#808080" begin="zoomplus.mouseover" end="zoomplus.mouseout"/>
                        </use>
                        <path d="M-4,0h8M0,-4v8" fill="none" stroke="white" stroke-width="1.5" pointer-events="none"/>
                </g>
                <g id="zoomMin">
                        <use xlink:href="#rim" fill="#404040">
                                <set attributeName="fill" to="#808080" begin="zoomminus.mouseover" end="zoomminus.mouseout"/>
                        </use>
                        <path d="M-4,0h8" fill="none" stroke="white" stroke-width="1.5" pointer-events="none"/>
                </g>
                <g id="dirArrow">
                        <path fill="none" stroke="white" stroke-width="1.5" d="M0,-3.0v7 M-2.5,-0.5L0,-3.0L2.5,-0.5"/>
                </g>
               <g id="resetDef">
                       <use xlink:href="#rim2" fill="#404040">
                               <set attributeName="fill" to="#808080" begin="reset.mouseover" end="reset.mouseout"/>
                       </use>
               </g>
        </defs>

<script type="text/javascript">
var viewWidth = 611;
var viewHeight = 262;
var sectionId = 'dynsection-1';
</script>
<script xlink:href="../../svgpan.js"/>
<svg id="graph" class="graph">
<g id="viewport">
<title>/home/travis/build/AliceO2Group/AliceO2/DataFormats/Reconstruction/include/ReconstructionDataFormats/Vertex.h</title>
<!-- Node1 -->
<g id="node1" class="node"><title>Node1</title>
<polygon fill="#bfbfbf" stroke="black" points="149,-190.5 149,-253.5 325,-253.5 325,-190.5 149,-190.5"/>
<text text-anchor="start" x="157" y="-241.5" font-family="Helvetica,sans-Serif" font-size="10.00">/home/travis/build</text>
<text text-anchor="start" x="157" y="-230.5" font-family="Helvetica,sans-Serif" font-size="10.00">/AliceO2Group/AliceO2</text>
<text text-anchor="start" x="157" y="-219.5" font-family="Helvetica,sans-Serif" font-size="10.00">/DataFormats/Reconstruction</text>
<text text-anchor="start" x="157" y="-208.5" font-family="Helvetica,sans-Serif" font-size="10.00">/include/ReconstructionDataFormats</text>
<text text-anchor="middle" x="237" y="-197.5" font-family="Helvetica,sans-Serif" font-size="10.00">/Vertex.h</text>
</g>
<!-- Node2 -->
<g id="node2" class="node"><title>Node2</title>
<g id="a_node2"><a xlink:href="../../de/d6a/DataFormats_2Reconstruction_2src_2Vertex_8cxx.html" target="_top" xlink:title="/home/travis/build\l/AliceO2Group/AliceO2\l/DataFormats/Reconstruction\l/src/Vertex.cxx">
<polygon fill="none" stroke="black" points="0,-96 0,-148 146,-148 146,-96 0,-96"/>
<text text-anchor="start" x="8" y="-136" font-family="Helvetica,sans-Serif" font-size="10.00">/home/travis/build</text>
<text text-anchor="start" x="8" y="-125" font-family="Helvetica,sans-Serif" font-size="10.00">/AliceO2Group/AliceO2</text>
<text text-anchor="start" x="8" y="-114" font-family="Helvetica,sans-Serif" font-size="10.00">/DataFormats/Reconstruction</text>
<text text-anchor="middle" x="73" y="-103" font-family="Helvetica,sans-Serif" font-size="10.00">/src/Vertex.cxx</text>
</a>
</g>
</g>
<!-- Node1&#45;&gt;Node2 -->
<g id="edge1" class="edge"><title>Node1&#45;&gt;Node2</title>
<path fill="none" stroke="midnightblue" d="M176.88,-185.075C156.305,-172.78 133.748,-159.301 114.926,-148.054"/>
<polygon fill="midnightblue" stroke="midnightblue" points="175.18,-188.136 185.559,-190.261 178.771,-182.127 175.18,-188.136"/>
</g>
<!-- Node3 -->
<g id="node3" class="node"><title>Node3</title>
<g id="a_node3"><a xlink:href="../../db/d23/testVertex_8cxx.html" target="_top" xlink:title="/home/travis/build\l/AliceO2Group/AliceO2\l/DataFormats/Reconstruction\l/test/testVertex.cxx">
<polygon fill="none" stroke="black" points="164,-96 164,-148 310,-148 310,-96 164,-96"/>
<text text-anchor="start" x="172" y="-136" font-family="Helvetica,sans-Serif" font-size="10.00">/home/travis/build</text>
<text text-anchor="start" x="172" y="-125" font-family="Helvetica,sans-Serif" font-size="10.00">/AliceO2Group/AliceO2</text>
<text text-anchor="start" x="172" y="-114" font-family="Helvetica,sans-Serif" font-size="10.00">/DataFormats/Reconstruction</text>
<text text-anchor="middle" x="237" y="-103" font-family="Helvetica,sans-Serif" font-size="10.00">/test/testVertex.cxx</text>
</a>
</g>
</g>
<!-- Node1&#45;&gt;Node3 -->
<g id="edge2" class="edge"><title>Node1&#45;&gt;Node3</title>
<path fill="none" stroke="midnightblue" d="M237,-180.079C237,-169.21 237,-157.794 237,-148.054"/>
<polygon fill="midnightblue" stroke="midnightblue" points="233.5,-180.261 237,-190.261 240.5,-180.261 233.5,-180.261"/>
</g>
<!-- Node4 -->
<g id="node4" class="node"><title>Node4</title>
<g id="a_node4"><a xlink:href="../../de/d9b/Vertexer_8h.html" target="_top" xlink:title="/home/travis/build\l/AliceO2Group/AliceO2\l/Detectors/ITSMFT/ITS\l/tracking/include/ITStracking\l/Vertexer.h">
<polygon fill="none" stroke="black" points="328.5,-90.5 328.5,-153.5 469.5,-153.5 469.5,-90.5 328.5,-90.5"/>
<text text-anchor="start" x="336.5" y="-141.5" font-family="Helvetica,sans-Serif" font-size="10.00">/home/travis/build</text>
<text text-anchor="start" x="336.5" y="-130.5" font-family="Helvetica,sans-Serif" font-size="10.00">/AliceO2Group/AliceO2</text>
<text text-anchor="start" x="336.5" y="-119.5" font-family="Helvetica,sans-Serif" font-size="10.00">/Detectors/ITSMFT/ITS</text>
<text text-anchor="start" x="336.5" y="-108.5" font-family="Helvetica,sans-Serif" font-size="10.00">/tracking/include/ITStracking</text>
<text text-anchor="middle" x="399" y="-97.5" font-family="Helvetica,sans-Serif" font-size="10.00">/Vertexer.h</text>
</a>
</g>
</g>
<!-- Node1&#45;&gt;Node4 -->
<g id="edge3" class="edge"><title>Node1&#45;&gt;Node4</title>
<path fill="none" stroke="midnightblue" d="M296.567,-184.966C313.577,-174.676 331.945,-163.564 348.367,-153.63"/>
<polygon fill="midnightblue" stroke="midnightblue" points="294.558,-182.09 287.813,-190.261 298.181,-188.08 294.558,-182.09"/>
</g>
<!-- Node5 -->
<g id="node5" class="node"><title>Node5</title>
<g id="a_node5"><a xlink:href="../../da/d5d/Vertexer_8cxx.html" target="_top" xlink:title="/home/travis/build\l/AliceO2Group/AliceO2\l/Detectors/ITSMFT/ITS\l/tracking/src/Vertexer.cxx">
<polygon fill="none" stroke="black" points="192.5,-1 192.5,-53 321.5,-53 321.5,-1 192.5,-1"/>
<text text-anchor="start" x="200.5" y="-41" font-family="Helvetica,sans-Serif" font-size="10.00">/home/travis/build</text>
<text text-anchor="start" x="200.5" y="-30" font-family="Helvetica,sans-Serif" font-size="10.00">/AliceO2Group/AliceO2</text>
<text text-anchor="start" x="200.5" y="-19" font-family="Helvetica,sans-Serif" font-size="10.00">/Detectors/ITSMFT/ITS</text>
<text text-anchor="middle" x="257" y="-8" font-family="Helvetica,sans-Serif" font-size="10.00">/tracking/src/Vertexer.cxx</text>
</a>
</g>
</g>
<!-- Node4&#45;&gt;Node5 -->
<g id="edge4" class="edge"><title>Node4&#45;&gt;Node5</title>
<path fill="none" stroke="midnightblue" d="M343.319,-84.5328C327.251,-74.0092 310.083,-62.7658 295.325,-53.1001"/>
<polygon fill="midnightblue" stroke="midnightblue" points="341.827,-87.7396 352.11,-90.2906 345.662,-81.8837 341.827,-87.7396"/>
</g>
<!-- Node6 -->
<g id="node6" class="node"><title>Node6</title>
<g id="a_node6"><a xlink:href="../../dc/d97/run__rec__ca_8C.html" target="_top" xlink:title="/home/travis/build\l/AliceO2Group/AliceO2\l/macro/run_rec_ca.C">
<polygon fill="none" stroke="black" points="340,-6.5 340,-47.5 458,-47.5 458,-6.5 340,-6.5"/>
<text text-anchor="start" x="348" y="-35.5" font-family="Helvetica,sans-Serif" font-size="10.00">/home/travis/build</text>
<text text-anchor="start" x="348" y="-24.5" font-family="Helvetica,sans-Serif" font-size="10.00">/AliceO2Group/AliceO2</text>
<text text-anchor="middle" x="399" y="-13.5" font-family="Helvetica,sans-Serif" font-size="10.00">/macro/run_rec_ca.C</text>
</a>
</g>
</g>
<!-- Node4&#45;&gt;Node6 -->
<g id="edge5" class="edge"><title>Node4&#45;&gt;Node6</title>
<path fill="none" stroke="midnightblue" d="M399,-80.1125C399,-68.807 399,-57.0525 399,-47.5747"/>
<polygon fill="midnightblue" stroke="midnightblue" points="395.5,-80.2905 399,-90.2906 402.5,-80.2906 395.5,-80.2905"/>
</g>
<!-- Node7 -->
<g id="node7" class="node"><title>Node7</title>
<g id="a_node7"><a xlink:href="../../d4/da9/run__vert__ca__its_8C.html" target="_top" xlink:title="/home/travis/build\l/AliceO2Group/AliceO2\l/macro/run_vert_ca_its.C">
<polygon fill="none" stroke="black" points="476.5,-6.5 476.5,-47.5 603.5,-47.5 603.5,-6.5 476.5,-6.5"/>
<text text-anchor="start" x="484.5" y="-35.5" font-family="Helvetica,sans-Serif" font-size="10.00">/home/travis/build</text>
<text text-anchor="start" x="484.5" y="-24.5" font-family="Helvetica,sans-Serif" font-size="10.00">/AliceO2Group/AliceO2</text>
<text text-anchor="middle" x="540" y="-13.5" font-family="Helvetica,sans-Serif" font-size="10.00">/macro/run_vert_ca_its.C</text>
</a>
</g>
</g>
<!-- Node4&#45;&gt;Node7 -->
<g id="edge6" class="edge"><title>Node4&#45;&gt;Node7</title>
<path fill="none" stroke="midnightblue" d="M453.957,-84.7519C473.156,-72.0887 493.973,-58.3581 510.322,-47.5747"/>
<polygon fill="midnightblue" stroke="midnightblue" points="451.98,-81.8629 445.559,-90.2906 455.834,-87.7063 451.98,-81.8629"/>
</g>
</g>
</svg>
        <g id="navigator" transform="translate(0 0)" fill="#404254">
                <rect fill="#f2f5e9" fill-opacity="0.5" stroke="#606060" stroke-width=".5" x="0" y="0" width="60" height="60"/>
                <use id="zoomplus" xlink:href="#zoomPlus" x="17" y="9" onmousedown="handleZoom(evt,'in')"/>
                <use id="zoomminus" xlink:href="#zoomMin" x="42" y="9" onmousedown="handleZoom(evt,'out')"/>
                <use id="reset" xlink:href="#resetDef" x="30" y="36" onmousedown="handleReset()"/>
                <g id="arrowUp" xlink:href="#dirArrow" transform="translate(30 24)" onmousedown="handlePan(0,-1)">
                  <use xlink:href="#rim" fill="#404040">
                        <set attributeName="fill" to="#808080" begin="arrowUp.mouseover" end="arrowUp.mouseout"/>
                  </use>
                  <path fill="none" stroke="white" stroke-width="1.5" d="M0,-3.0v7 M-2.5,-0.5L0,-3.0L2.5,-0.5"/>
                </g>
                <g id="arrowRight" xlink:href="#dirArrow" transform="rotate(90) translate(36 -43)" onmousedown="handlePan(1,0)">
                  <use xlink:href="#rim" fill="#404040">
                        <set attributeName="fill" to="#808080" begin="arrowRight.mouseover" end="arrowRight.mouseout"/>
                  </use>
                  <path fill="none" stroke="white" stroke-width="1.5" d="M0,-3.0v7 M-2.5,-0.5L0,-3.0L2.5,-0.5"/>
                </g>
                <g id="arrowDown" xlink:href="#dirArrow" transform="rotate(180) translate(-30 -48)" onmousedown="handlePan(0,1)">
                  <use xlink:href="#rim" fill="#404040">
                        <set attributeName="fill" to="#808080" begin="arrowDown.mouseover" end="arrowDown.mouseout"/>
                  </use>
                  <path fill="none" stroke="white" stroke-width="1.5" d="M0,-3.0v7 M-2.5,-0.5L0,-3.0L2.5,-0.5"/>
                </g>
                <g id="arrowLeft" xlink:href="#dirArrow" transform="rotate(270) translate(-36 17)" onmousedown="handlePan(-1,0)">
                  <use xlink:href="#rim" fill="#404040">
                        <set attributeName="fill" to="#808080" begin="arrowLeft.mouseover" end="arrowLeft.mouseout"/>
                  </use>
                  <path fill="none" stroke="white" stroke-width="1.5" d="M0,-3.0v7 M-2.5,-0.5L0,-3.0L2.5,-0.5"/>
                </g>
        </g>
        <svg viewBox="0 0 15 15" width="100%" height="30px" preserveAspectRatio="xMaxYMin meet">
         <g id="arrow_out" transform="scale(0.3 0.3)">
          <a xlink:href="DataFormats_2Reconstruction_2include_2ReconstructionDataFormats_2Vertex_8h__dep__incl_org.svg" target="_base">
           <rect id="button" ry="5" rx="5" y="6" x="6" height="38" width="38"
                fill="#f2f5e9" fill-opacity="0.5" stroke="#606060" stroke-width="1.0"/>
           <path id="arrow"
             d="M 11.500037,31.436501 C 11.940474,20.09759 22.043105,11.32322 32.158766,21.979434 L 37.068811,17.246167 C 37.068811,17.246167 37.088388,32 37.088388,32 L 22.160133,31.978069 C 22.160133,31.978069 26.997745,27.140456 26.997745,27.140456 C 18.528582,18.264221 13.291696,25.230495 11.500037,31.436501 z"
             style="fill:#404040;"/>
          </a>
         </g>
        </svg>
</svg>
