<?xml version="1.0" encoding="UTF-8" standalone="no"?>
<!DOCTYPE svg PUBLIC "-//W3C//DTD SVG 1.1//EN"
 "http://www.w3.org/Graphics/SVG/1.1/DTD/svg11.dtd">
<!-- Generated by graphviz version 2.36.0 (20140111.2315)
 -->
<!-- Title: /home/travis/build/AliceO2Group/AliceO2/Framework/Core/src/DataSamplingPolicy.cxx Pages: 1 -->
<svg width="2111pt" height="446pt"
 viewBox="0.00 0.00 2111.00 446.00" xmlns="http://www.w3.org/2000/svg" xmlns:xlink="http://www.w3.org/1999/xlink">
<g id="graph0" class="graph" transform="scale(1 1) rotate(0) translate(4 442)">
<title>/home/travis/build/AliceO2Group/AliceO2/Framework/Core/src/DataSamplingPolicy.cxx</title>
<!-- Node1 -->
<g id="node1" class="node"><title>Node1</title>
<polygon fill="#bfbfbf" stroke="black" points="1511.5,-385 1511.5,-437 1684.5,-437 1684.5,-385 1511.5,-385"/>
<text text-anchor="start" x="1519.5" y="-425" font-family="Helvetica,sans-Serif" font-size="10.00">/home/travis/build</text>
<text text-anchor="start" x="1519.5" y="-414" font-family="Helvetica,sans-Serif" font-size="10.00">/AliceO2Group/AliceO2</text>
<text text-anchor="start" x="1519.5" y="-403" font-family="Helvetica,sans-Serif" font-size="10.00">/Framework/Core/src/DataSampling</text>
<text text-anchor="middle" x="1598" y="-392" font-family="Helvetica,sans-Serif" font-size="10.00">Policy.cxx</text>
</g>
<!-- Node2 -->
<g id="node2" class="node"><title>Node2</title>
<g id="a_node2"><a xlink:href="../../d2/d1b/DataSamplingPolicy_8h.html" target="_top" xlink:title="A declaration of O2 Data Sampling Policy. ">
<polygon fill="none" stroke="black" points="1515.5,-322.5 1515.5,-341.5 1680.5,-341.5 1680.5,-322.5 1515.5,-322.5"/>
<text text-anchor="middle" x="1598" y="-329.5" font-family="Helvetica,sans-Serif" font-size="10.00">Framework/DataSamplingPolicy.h</text>
</a>
</g>
</g>
<!-- Node1&#45;&gt;Node2 -->
<g id="edge1" class="edge"><title>Node1&#45;&gt;Node2</title>
<path fill="none" stroke="midnightblue" d="M1598,-384.787C1598,-374.069 1598,-361.785 1598,-351.871"/>
<polygon fill="midnightblue" stroke="midnightblue" points="1601.5,-351.558 1598,-341.558 1594.5,-351.558 1601.5,-351.558"/>
</g>
<!-- Node41 -->
<g id="node41" class="node"><title>Node41</title>
<g id="a_node41"><a xlink:href="../../de/dca/DataSamplingConditionFactory_8h.html" target="_top" xlink:title="A definition of DataSamplingConditionFactory. ">
<polygon fill="none" stroke="black" points="1801.5,-317 1801.5,-347 1972.5,-347 1972.5,-317 1801.5,-317"/>
<text text-anchor="start" x="1809.5" y="-335" font-family="Helvetica,sans-Serif" font-size="10.00">Framework/DataSamplingCondition</text>
<text text-anchor="middle" x="1887" y="-324" font-family="Helvetica,sans-Serif" font-size="10.00">Factory.h</text>
</a>
</g>
</g>
<!-- Node1&#45;&gt;Node41 -->
<g id="edge61" class="edge"><title>Node1&#45;&gt;Node41</title>
<path fill="none" stroke="midnightblue" d="M1684.71,-386.897C1729.71,-374.907 1783.67,-360.53 1824.54,-349.642"/>
<polygon fill="midnightblue" stroke="midnightblue" points="1825.61,-352.98 1834.37,-347.023 1823.8,-346.216 1825.61,-352.98"/>
</g>
<!-- Node42 -->
<g id="node42" class="node"><title>Node42</title>
<g id="a_node42"><a xlink:href="../../d6/d68/DataSpecUtils_8h.html" target="_top" xlink:title="Framework/DataSpecUtils.h">
<polygon fill="none" stroke="black" points="1306,-322.5 1306,-341.5 1446,-341.5 1446,-322.5 1306,-322.5"/>
<text text-anchor="middle" x="1376" y="-329.5" font-family="Helvetica,sans-Serif" font-size="10.00">Framework/DataSpecUtils.h</text>
</a>
</g>
</g>
<!-- Node1&#45;&gt;Node42 -->
<g id="edge63" class="edge"><title>Node1&#45;&gt;Node42</title>
<path fill="none" stroke="midnightblue" d="M1525.62,-384.894C1486.96,-371.488 1441.18,-355.607 1410.53,-344.975"/>
<polygon fill="midnightblue" stroke="midnightblue" points="1411.34,-341.553 1400.74,-341.583 1409.05,-348.166 1411.34,-341.553"/>
</g>
<!-- Node3 -->
<g id="node3" class="node"><title>Node3</title>
<g id="a_node3"><a xlink:href="../../dc/dcd/DataHeader_8h.html" target="_top" xlink:title="Headers/DataHeader.h">
<polygon fill="none" stroke="black" points="1617.5,-68.5 1617.5,-87.5 1734.5,-87.5 1734.5,-68.5 1617.5,-68.5"/>
<text text-anchor="middle" x="1676" y="-75.5" font-family="Helvetica,sans-Serif" font-size="10.00">Headers/DataHeader.h</text>
</a>
</g>
</g>
<!-- Node2&#45;&gt;Node3 -->
<g id="edge2" class="edge"><title>Node2&#45;&gt;Node3</title>
<path fill="none" stroke="midnightblue" d="M1623.83,-322.365C1677.73,-302.761 1801.24,-249.217 1850,-156 1874.06,-109.997 1803,-91.4571 1744.55,-83.9986"/>
<polygon fill="midnightblue" stroke="midnightblue" points="1744.89,-80.515 1734.55,-82.8122 1744.07,-87.4662 1744.89,-80.515"/>
</g>
<!-- Node12 -->
<g id="node12" class="node"><title>Node12</title>
<g id="a_node12"><a xlink:href="../../d5/d3f/InputSpec_8h.html" target="_top" xlink:title="Framework/InputSpec.h">
<polygon fill="none" stroke="black" points="1463.5,-260.5 1463.5,-279.5 1584.5,-279.5 1584.5,-260.5 1463.5,-260.5"/>
<text text-anchor="middle" x="1524" y="-267.5" font-family="Helvetica,sans-Serif" font-size="10.00">Framework/InputSpec.h</text>
</a>
</g>
</g>
<!-- Node2&#45;&gt;Node12 -->
<g id="edge11" class="edge"><title>Node2&#45;&gt;Node12</title>
<path fill="none" stroke="midnightblue" d="M1587.4,-322.403C1575.75,-312.958 1556.81,-297.606 1542.67,-286.134"/>
<polygon fill="midnightblue" stroke="midnightblue" points="1544.55,-283.16 1534.58,-279.581 1540.15,-288.597 1544.55,-283.16"/>
</g>
<!-- Node36 -->
<g id="node36" class="node"><title>Node36</title>
<g id="a_node36"><a xlink:href="../../d3/ddf/Output_8h.html" target="_top" xlink:title="Framework/Output.h">
<polygon fill="none" stroke="black" points="1188,-260.5 1188,-279.5 1294,-279.5 1294,-260.5 1188,-260.5"/>
<text text-anchor="middle" x="1241" y="-267.5" font-family="Helvetica,sans-Serif" font-size="10.00">Framework/Output.h</text>
</a>
</g>
</g>
<!-- Node2&#45;&gt;Node36 -->
<g id="edge50" class="edge"><title>Node2&#45;&gt;Node36</title>
<path fill="none" stroke="midnightblue" d="M1547.23,-322.467C1482.46,-311.582 1370.58,-292.778 1301.47,-281.163"/>
<polygon fill="midnightblue" stroke="midnightblue" points="1302.04,-277.709 1291.6,-279.503 1300.88,-284.612 1302.04,-277.709"/>
</g>
<!-- Node37 -->
<g id="node37" class="node"><title>Node37</title>
<g id="a_node37"><a xlink:href="../../db/d2d/OutputSpec_8h.html" target="_top" xlink:title="Framework/OutputSpec.h">
<polygon fill="none" stroke="black" points="1312,-260.5 1312,-279.5 1440,-279.5 1440,-260.5 1312,-260.5"/>
<text text-anchor="middle" x="1376" y="-267.5" font-family="Helvetica,sans-Serif" font-size="10.00">Framework/OutputSpec.h</text>
</a>
</g>
</g>
<!-- Node2&#45;&gt;Node37 -->
<g id="edge54" class="edge"><title>Node2&#45;&gt;Node37</title>
<path fill="none" stroke="midnightblue" d="M1566.19,-322.403C1527.12,-311.844 1460.74,-293.903 1417.64,-282.254"/>
<polygon fill="midnightblue" stroke="midnightblue" points="1418.32,-278.811 1407.75,-279.581 1416.49,-285.569 1418.32,-278.811"/>
</g>
<!-- Node38 -->
<g id="node38" class="node"><title>Node38</title>
<g id="a_node38"><a xlink:href="../../dd/dcf/DataSamplingCondition_8h.html" target="_top" xlink:title="A standarised data sampling condition, to decide if given data sample should be passed forward...">
<polygon fill="none" stroke="black" points="1892.5,-260.5 1892.5,-279.5 2071.5,-279.5 2071.5,-260.5 1892.5,-260.5"/>
<text text-anchor="middle" x="1982" y="-267.5" font-family="Helvetica,sans-Serif" font-size="10.00">Framework/DataSamplingCondition.h</text>
</a>
</g>
</g>
<!-- Node2&#45;&gt;Node38 -->
<g id="edge57" class="edge"><title>Node2&#45;&gt;Node38</title>
<path fill="none" stroke="midnightblue" d="M1652.61,-322.467C1722.42,-311.559 1843.12,-292.701 1917.41,-281.092"/>
<polygon fill="midnightblue" stroke="midnightblue" points="1918.24,-284.505 1927.58,-279.503 1917.16,-277.589 1918.24,-284.505"/>
</g>
<!-- Node40 -->
<g id="node40" class="node"><title>Node40</title>
<polygon fill="none" stroke="#bfbfbf" points="1854.5,-193 1854.5,-223 1955.5,-223 1955.5,-193 1854.5,-193"/>
<text text-anchor="start" x="1862.5" y="-211" font-family="Helvetica,sans-Serif" font-size="10.00">boost/property_tree</text>
<text text-anchor="middle" x="1905" y="-200" font-family="Helvetica,sans-Serif" font-size="10.00">/ptree.hpp</text>
</g>
<!-- Node2&#45;&gt;Node40 -->
<g id="edge60" class="edge"><title>Node2&#45;&gt;Node40</title>
<path fill="none" stroke="midnightblue" d="M1680.65,-326.238C1729.64,-320.435 1791.43,-307.72 1840,-280 1860.7,-268.188 1878.5,-247.507 1890.22,-231.501"/>
<polygon fill="midnightblue" stroke="midnightblue" points="1893.19,-233.368 1896.08,-223.176 1887.46,-229.338 1893.19,-233.368"/>
</g>
<!-- Node4 -->
<g id="node4" class="node"><title>Node4</title>
<polygon fill="none" stroke="#bfbfbf" points="1904,-6.5 1904,-25.5 1950,-25.5 1950,-6.5 1904,-6.5"/>
<text text-anchor="middle" x="1927" y="-13.5" font-family="Helvetica,sans-Serif" font-size="10.00">cstdint</text>
</g>
<!-- Node3&#45;&gt;Node4 -->
<g id="edge3" class="edge"><title>Node3&#45;&gt;Node4</title>
<path fill="none" stroke="midnightblue" d="M1734.75,-68.5238C1779.16,-61.2446 1841.27,-49.1861 1894,-32 1896.27,-31.2595 1898.6,-30.4087 1900.91,-29.4966"/>
<polygon fill="midnightblue" stroke="midnightblue" points="1902.35,-32.6857 1910.16,-25.5276 1899.59,-26.2523 1902.35,-32.6857"/>
</g>
<!-- Node5 -->
<g id="node5" class="node"><title>Node5</title>
<polygon fill="none" stroke="#bfbfbf" points="1978,-6.5 1978,-25.5 2030,-25.5 2030,-6.5 1978,-6.5"/>
<text text-anchor="middle" x="2004" y="-13.5" font-family="Helvetica,sans-Serif" font-size="10.00">memory</text>
</g>
<!-- Node3&#45;&gt;Node5 -->
<g id="edge4" class="edge"><title>Node3&#45;&gt;Node5</title>
<path fill="none" stroke="midnightblue" d="M1734.55,-70.5369C1792.17,-63.511 1882.4,-50.722 1959,-32 1962.94,-31.0376 1967.02,-29.8909 1971.06,-28.6662"/>
<polygon fill="midnightblue" stroke="midnightblue" points="1972.4,-31.9098 1980.86,-25.522 1970.27,-25.2445 1972.4,-31.9098"/>
</g>
<!-- Node6 -->
<g id="node6" class="node"><title>Node6</title>
<polygon fill="none" stroke="#bfbfbf" points="2053.5,-6.5 2053.5,-25.5 2102.5,-25.5 2102.5,-6.5 2053.5,-6.5"/>
<text text-anchor="middle" x="2078" y="-13.5" font-family="Helvetica,sans-Serif" font-size="10.00">cassert</text>
</g>
<!-- Node3&#45;&gt;Node6 -->
<g id="edge5" class="edge"><title>Node3&#45;&gt;Node6</title>
<path fill="none" stroke="midnightblue" d="M1734.64,-74.1316C1807.08,-69.587 1933.66,-58.3663 2039,-32 2042.24,-31.1898 2045.57,-30.1864 2048.86,-29.0854"/>
<polygon fill="midnightblue" stroke="midnightblue" points="2050.26,-32.2987 2058.46,-25.5855 2047.87,-25.722 2050.26,-32.2987"/>
</g>
<!-- Node7 -->
<g id="node7" class="node"><title>Node7</title>
<polygon fill="none" stroke="#bfbfbf" points="1533,-6.5 1533,-25.5 1579,-25.5 1579,-6.5 1533,-6.5"/>
<text text-anchor="middle" x="1556" y="-13.5" font-family="Helvetica,sans-Serif" font-size="10.00">cstring</text>
</g>
<!-- Node3&#45;&gt;Node7 -->
<g id="edge6" class="edge"><title>Node3&#45;&gt;Node7</title>
<path fill="none" stroke="midnightblue" d="M1658.81,-68.4035C1638.76,-58.3787 1605.4,-41.7006 1582.14,-30.0699"/>
<polygon fill="midnightblue" stroke="midnightblue" points="1583.67,-26.9223 1573.16,-25.5806 1580.54,-33.1833 1583.67,-26.9223"/>
</g>
<!-- Node8 -->
<g id="node8" class="node"><title>Node8</title>
<polygon fill="none" stroke="#bfbfbf" points="1597,-6.5 1597,-25.5 1653,-25.5 1653,-6.5 1597,-6.5"/>
<text text-anchor="middle" x="1625" y="-13.5" font-family="Helvetica,sans-Serif" font-size="10.00">algorithm</text>
</g>
<!-- Node3&#45;&gt;Node8 -->
<g id="edge7" class="edge"><title>Node3&#45;&gt;Node8</title>
<path fill="none" stroke="midnightblue" d="M1668.69,-68.4035C1660.97,-59.3143 1648.59,-44.7559 1638.98,-33.4489"/>
<polygon fill="midnightblue" stroke="midnightblue" points="1641.44,-30.9332 1632.29,-25.5806 1636.1,-35.4668 1641.44,-30.9332"/>
</g>
<!-- Node9 -->
<g id="node9" class="node"><title>Node9</title>
<polygon fill="none" stroke="#bfbfbf" points="1671.5,-6.5 1671.5,-25.5 1730.5,-25.5 1730.5,-6.5 1671.5,-6.5"/>
<text text-anchor="middle" x="1701" y="-13.5" font-family="Helvetica,sans-Serif" font-size="10.00">stdexcept</text>
</g>
<!-- Node3&#45;&gt;Node9 -->
<g id="edge8" class="edge"><title>Node3&#45;&gt;Node9</title>
<path fill="none" stroke="midnightblue" d="M1679.58,-68.4035C1683.18,-59.7599 1688.85,-46.17 1693.44,-35.1341"/>
<polygon fill="midnightblue" stroke="midnightblue" points="1696.81,-36.1575 1697.42,-25.5806 1690.35,-33.4652 1696.81,-36.1575"/>
</g>
<!-- Node10 -->
<g id="node10" class="node"><title>Node10</title>
<polygon fill="none" stroke="#bfbfbf" points="1473.5,-6.5 1473.5,-25.5 1514.5,-25.5 1514.5,-6.5 1473.5,-6.5"/>
<text text-anchor="middle" x="1494" y="-13.5" font-family="Helvetica,sans-Serif" font-size="10.00">string</text>
</g>
<!-- Node3&#45;&gt;Node10 -->
<g id="edge9" class="edge"><title>Node3&#45;&gt;Node10</title>
<path fill="none" stroke="midnightblue" d="M1640.7,-68.4333C1609.51,-60.4221 1563.04,-47.4012 1524,-32 1522.4,-31.3683 1520.77,-30.6825 1519.13,-29.9634"/>
<polygon fill="midnightblue" stroke="midnightblue" points="1520.49,-26.7342 1509.95,-25.6278 1517.5,-33.0636 1520.49,-26.7342"/>
</g>
<!-- Node11 -->
<g id="node11" class="node"><title>Node11</title>
<g id="a_node11"><a xlink:href="../../d7/df8/Types_8h.html" target="_top" xlink:title="MemoryResources/Types.h">
<polygon fill="none" stroke="black" points="1748.5,-6.5 1748.5,-25.5 1885.5,-25.5 1885.5,-6.5 1748.5,-6.5"/>
<text text-anchor="middle" x="1817" y="-13.5" font-family="Helvetica,sans-Serif" font-size="10.00">MemoryResources/Types.h</text>
</a>
</g>
</g>
<!-- Node3&#45;&gt;Node11 -->
<g id="edge10" class="edge"><title>Node3&#45;&gt;Node11</title>
<path fill="none" stroke="midnightblue" d="M1696.2,-68.4035C1720.07,-58.245 1760,-41.2547 1787.37,-29.6074"/>
<polygon fill="midnightblue" stroke="midnightblue" points="1789,-32.7167 1796.84,-25.5806 1786.26,-26.2757 1789,-32.7167"/>
</g>
<!-- Node12&#45;&gt;Node10 -->
<g id="edge47" class="edge"><title>Node12&#45;&gt;Node10</title>
<path fill="none" stroke="midnightblue" d="M1509.44,-260.371C1495.33,-251.774 1473.53,-237.887 1456,-224 1439.73,-211.116 1438.59,-204.461 1422,-192 1396.83,-173.096 1376.61,-183.338 1361,-156 1353.95,-143.649 1354.86,-136.827 1361,-124 1372.87,-99.2193 1437.32,-54.1989 1471.96,-31.261"/>
<polygon fill="midnightblue" stroke="midnightblue" points="1474.03,-34.0859 1480.47,-25.6708 1470.19,-28.2349 1474.03,-34.0859"/>
</g>
<!-- Node13 -->
<g id="node13" class="node"><title>Node13</title>
<g id="a_node13"><a xlink:href="../../dc/dca/Lifetime_8h.html" target="_top" xlink:title="Framework/Lifetime.h">
<polygon fill="none" stroke="black" points="1302.5,-198.5 1302.5,-217.5 1413.5,-217.5 1413.5,-198.5 1302.5,-198.5"/>
<text text-anchor="middle" x="1358" y="-205.5" font-family="Helvetica,sans-Serif" font-size="10.00">Framework/Lifetime.h</text>
</a>
</g>
</g>
<!-- Node12&#45;&gt;Node13 -->
<g id="edge12" class="edge"><title>Node12&#45;&gt;Node13</title>
<path fill="none" stroke="midnightblue" d="M1500.22,-260.403C1471.62,-250.067 1423.45,-232.656 1391.2,-220.999"/>
<polygon fill="midnightblue" stroke="midnightblue" points="1392.33,-217.688 1381.74,-217.581 1389.95,-224.271 1392.33,-217.688"/>
</g>
<!-- Node14 -->
<g id="node14" class="node"><title>Node14</title>
<g id="a_node14"><a xlink:href="../../d0/d1b/ConcreteDataMatcher_8h.html" target="_top" xlink:title="Framework/ConcreteDataMatcher.h">
<polygon fill="none" stroke="black" points="1668.5,-130.5 1668.5,-149.5 1841.5,-149.5 1841.5,-130.5 1668.5,-130.5"/>
<text text-anchor="middle" x="1755" y="-137.5" font-family="Helvetica,sans-Serif" font-size="10.00">Framework/ConcreteDataMatcher.h</text>
</a>
</g>
</g>
<!-- Node12&#45;&gt;Node14 -->
<g id="edge13" class="edge"><title>Node12&#45;&gt;Node14</title>
<path fill="none" stroke="midnightblue" d="M1584.56,-261.365C1634.59,-253.958 1700.6,-241.3 1721,-224 1740.27,-207.661 1748.77,-178.694 1752.41,-159.668"/>
<polygon fill="midnightblue" stroke="midnightblue" points="1755.91,-159.982 1754.07,-149.547 1749,-158.848 1755.91,-159.982"/>
</g>
<!-- Node15 -->
<g id="node15" class="node"><title>Node15</title>
<g id="a_node15"><a xlink:href="../../d3/da3/DataDescriptorMatcher_8h.html" target="_top" xlink:title="Framework/DataDescriptor\lMatcher.h">
<polygon fill="none" stroke="black" points="1578,-193 1578,-223 1712,-223 1712,-193 1578,-193"/>
<text text-anchor="start" x="1586" y="-211" font-family="Helvetica,sans-Serif" font-size="10.00">Framework/DataDescriptor</text>
<text text-anchor="middle" x="1645" y="-200" font-family="Helvetica,sans-Serif" font-size="10.00">Matcher.h</text>
</a>
</g>
</g>
<!-- Node12&#45;&gt;Node15 -->
<g id="edge15" class="edge"><title>Node12&#45;&gt;Node15</title>
<path fill="none" stroke="midnightblue" d="M1541.34,-260.403C1558.49,-251.898 1585.3,-238.602 1607.36,-227.663"/>
<polygon fill="midnightblue" stroke="midnightblue" points="1609.08,-230.719 1616.48,-223.141 1605.97,-224.448 1609.08,-230.719"/>
</g>
<!-- Node34 -->
<g id="node34" class="node"><title>Node34</title>
<polygon fill="none" stroke="#bfbfbf" points="1370,-130.5 1370,-149.5 1416,-149.5 1416,-130.5 1370,-130.5"/>
<text text-anchor="middle" x="1393" y="-137.5" font-family="Helvetica,sans-Serif" font-size="10.00">variant</text>
</g>
<!-- Node12&#45;&gt;Node34 -->
<g id="edge49" class="edge"><title>Node12&#45;&gt;Node34</title>
<path fill="none" stroke="midnightblue" d="M1517.28,-260.497C1505.54,-245.849 1480.21,-215.195 1456,-192 1442.46,-179.028 1425.95,-165.743 1413.22,-155.985"/>
<polygon fill="midnightblue" stroke="midnightblue" points="1415.19,-153.084 1405.1,-149.84 1410.97,-158.666 1415.19,-153.084"/>
</g>
<!-- Node35 -->
<g id="node35" class="node"><title>Node35</title>
<polygon fill="none" stroke="#bfbfbf" points="1508,-198.5 1508,-217.5 1560,-217.5 1560,-198.5 1508,-198.5"/>
<text text-anchor="middle" x="1534" y="-205.5" font-family="Helvetica,sans-Serif" font-size="10.00">ostream</text>
</g>
<!-- Node12&#45;&gt;Node35 -->
<g id="edge48" class="edge"><title>Node12&#45;&gt;Node35</title>
<path fill="none" stroke="midnightblue" d="M1525.43,-260.403C1526.86,-251.849 1529.09,-238.45 1530.92,-227.476"/>
<polygon fill="midnightblue" stroke="midnightblue" points="1534.38,-228.02 1532.57,-217.581 1527.47,-226.869 1534.38,-228.02"/>
</g>
<!-- Node14&#45;&gt;Node3 -->
<g id="edge14" class="edge"><title>Node14&#45;&gt;Node3</title>
<path fill="none" stroke="midnightblue" d="M1743.68,-130.403C1731.13,-120.869 1710.65,-105.315 1695.5,-93.8106"/>
<polygon fill="midnightblue" stroke="midnightblue" points="1697.38,-90.8417 1687.3,-87.5806 1693.14,-96.4162 1697.38,-90.8417"/>
</g>
<!-- Node15&#45;&gt;Node3 -->
<g id="edge23" class="edge"><title>Node15&#45;&gt;Node3</title>
<path fill="none" stroke="midnightblue" d="M1646.55,-192.721C1648.56,-176.038 1652.59,-147.699 1659,-124 1661.43,-115.031 1664.95,-105.359 1668.17,-97.2892"/>
<polygon fill="midnightblue" stroke="midnightblue" points="1671.51,-98.3752 1672.09,-87.7966 1665.04,-95.7003 1671.51,-98.3752"/>
</g>
<!-- Node15&#45;&gt;Node4 -->
<g id="edge42" class="edge"><title>Node15&#45;&gt;Node4</title>
<path fill="none" stroke="midnightblue" d="M1712.29,-203.844C1755.45,-198.763 1810.57,-186.247 1850,-156 1890.74,-124.744 1912.95,-65.4533 1922.03,-35.4212"/>
<polygon fill="midnightblue" stroke="midnightblue" points="1925.4,-36.364 1924.79,-25.7866 1918.67,-34.4343 1925.4,-36.364"/>
</g>
<!-- Node15&#45;&gt;Node10 -->
<g id="edge44" class="edge"><title>Node15&#45;&gt;Node10</title>
<path fill="none" stroke="midnightblue" d="M1585.29,-193C1550.57,-183.554 1511.62,-170.249 1501,-156 1474.49,-120.422 1482.41,-64.3679 1489.01,-35.5169"/>
<polygon fill="midnightblue" stroke="midnightblue" points="1492.46,-36.1264 1491.48,-25.5772 1485.67,-34.4361 1492.46,-36.1264"/>
</g>
<!-- Node15&#45;&gt;Node14 -->
<g id="edge16" class="edge"><title>Node15&#45;&gt;Node14</title>
<path fill="none" stroke="midnightblue" d="M1668.6,-192.841C1687.28,-181.63 1713.24,-166.056 1731.82,-154.91"/>
<polygon fill="midnightblue" stroke="midnightblue" points="1733.76,-157.828 1740.53,-149.682 1730.15,-151.826 1733.76,-157.828"/>
</g>
<!-- Node16 -->
<g id="node16" class="node"><title>Node16</title>
<g id="a_node16"><a xlink:href="../../d6/dc9/DataProcessingHeader_8h.html" target="_top" xlink:title="Framework/DataProcessing\lHeader.h">
<polygon fill="none" stroke="black" points="1937,-125 1937,-155 2075,-155 2075,-125 1937,-125"/>
<text text-anchor="start" x="1945" y="-143" font-family="Helvetica,sans-Serif" font-size="10.00">Framework/DataProcessing</text>
<text text-anchor="middle" x="2006" y="-132" font-family="Helvetica,sans-Serif" font-size="10.00">Header.h</text>
</a>
</g>
</g>
<!-- Node15&#45;&gt;Node16 -->
<g id="edge17" class="edge"><title>Node15&#45;&gt;Node16</title>
<path fill="none" stroke="midnightblue" d="M1712.06,-194.741C1772.83,-183.629 1862.46,-167.243 1926.75,-155.488"/>
<polygon fill="midnightblue" stroke="midnightblue" points="1927.64,-158.885 1936.85,-153.643 1926.38,-151.999 1927.64,-158.885"/>
</g>
<!-- Node18 -->
<g id="node18" class="node"><title>Node18</title>
<g id="a_node18"><a xlink:href="../../d4/d00/Headers_2include_2Headers_2Stack_8h.html" target="_top" xlink:title="Headers/Stack.h">
<polygon fill="none" stroke="black" points="1118,-130.5 1118,-149.5 1208,-149.5 1208,-130.5 1118,-130.5"/>
<text text-anchor="middle" x="1163" y="-137.5" font-family="Helvetica,sans-Serif" font-size="10.00">Headers/Stack.h</text>
</a>
</g>
</g>
<!-- Node15&#45;&gt;Node18 -->
<g id="edge24" class="edge"><title>Node15&#45;&gt;Node18</title>
<path fill="none" stroke="midnightblue" d="M1577.91,-193.494C1574.9,-192.972 1571.92,-192.471 1569,-192 1444.16,-171.864 1296.63,-155.072 1218.33,-146.71"/>
<polygon fill="midnightblue" stroke="midnightblue" points="1218.52,-143.211 1208.21,-145.635 1217.78,-150.172 1218.52,-143.211"/>
</g>
<!-- Node26 -->
<g id="node26" class="node"><title>Node26</title>
<polygon fill="none" stroke="#bfbfbf" points="1411,-6.5 1411,-25.5 1455,-25.5 1455,-6.5 1411,-6.5"/>
<text text-anchor="middle" x="1433" y="-13.5" font-family="Helvetica,sans-Serif" font-size="10.00">vector</text>
</g>
<!-- Node15&#45;&gt;Node26 -->
<g id="edge46" class="edge"><title>Node15&#45;&gt;Node26</title>
<path fill="none" stroke="midnightblue" d="M1580.69,-192.937C1541.95,-183.315 1497.41,-169.838 1483,-156 1448.87,-123.222 1437.97,-65.4879 1434.54,-35.7978"/>
<polygon fill="midnightblue" stroke="midnightblue" points="1437.99,-35.189 1433.53,-25.5808 1431.03,-35.8761 1437.99,-35.189"/>
</g>
<!-- Node32 -->
<g id="node32" class="node"><title>Node32</title>
<polygon fill="none" stroke="#bfbfbf" points="1574,-130.5 1574,-149.5 1612,-149.5 1612,-130.5 1574,-130.5"/>
<text text-anchor="middle" x="1593" y="-137.5" font-family="Helvetica,sans-Serif" font-size="10.00">array</text>
</g>
<!-- Node15&#45;&gt;Node32 -->
<g id="edge41" class="edge"><title>Node15&#45;&gt;Node32</title>
<path fill="none" stroke="midnightblue" d="M1633.72,-192.679C1625.61,-182.388 1614.65,-168.484 1606.15,-157.69"/>
<polygon fill="midnightblue" stroke="midnightblue" points="1608.89,-155.517 1599.96,-149.828 1603.4,-159.849 1608.89,-155.517"/>
</g>
<!-- Node33 -->
<g id="node33" class="node"><title>Node33</title>
<polygon fill="none" stroke="#bfbfbf" points="1510.5,-130.5 1510.5,-149.5 1555.5,-149.5 1555.5,-130.5 1510.5,-130.5"/>
<text text-anchor="middle" x="1533" y="-137.5" font-family="Helvetica,sans-Serif" font-size="10.00">iosfwd</text>
</g>
<!-- Node15&#45;&gt;Node33 -->
<g id="edge43" class="edge"><title>Node15&#45;&gt;Node33</title>
<path fill="none" stroke="midnightblue" d="M1620.97,-192.841C1601.95,-181.63 1575.52,-166.056 1556.6,-154.91"/>
<polygon fill="midnightblue" stroke="midnightblue" points="1558.13,-151.743 1547.73,-149.682 1554.57,-157.774 1558.13,-151.743"/>
</g>
<!-- Node15&#45;&gt;Node34 -->
<g id="edge45" class="edge"><title>Node15&#45;&gt;Node34</title>
<path fill="none" stroke="midnightblue" d="M1577.94,-193.842C1535.16,-184.776 1478.79,-171.576 1430,-156 1427.37,-155.159 1424.66,-154.217 1421.96,-153.224"/>
<polygon fill="midnightblue" stroke="midnightblue" points="1422.97,-149.863 1412.38,-149.504 1420.44,-156.388 1422.97,-149.863"/>
</g>
<!-- Node16&#45;&gt;Node3 -->
<g id="edge18" class="edge"><title>Node16&#45;&gt;Node3</title>
<path fill="none" stroke="midnightblue" d="M1936.82,-126.422C1876.2,-115.4 1789.18,-99.5774 1732.62,-89.2941"/>
<polygon fill="midnightblue" stroke="midnightblue" points="1733.24,-85.8494 1722.77,-87.504 1731.98,-92.7365 1733.24,-85.8494"/>
</g>
<!-- Node16&#45;&gt;Node4 -->
<g id="edge19" class="edge"><title>Node16&#45;&gt;Node4</title>
<path fill="none" stroke="midnightblue" d="M2004.74,-124.934C2002.84,-109.851 1998.18,-85.6868 1987,-68 1977.56,-53.0728 1962.37,-40.2236 1949.63,-31.1565"/>
<polygon fill="midnightblue" stroke="midnightblue" points="1951.55,-28.227 1941.31,-25.5045 1947.62,-34.018 1951.55,-28.227"/>
</g>
<!-- Node16&#45;&gt;Node5 -->
<g id="edge21" class="edge"><title>Node16&#45;&gt;Node5</title>
<path fill="none" stroke="midnightblue" d="M2012.11,-124.929C2017.56,-110.657 2024.23,-87.8973 2021,-68 2019.2,-56.8887 2015.32,-44.927 2011.72,-35.3825"/>
<polygon fill="midnightblue" stroke="midnightblue" points="2014.86,-33.801 2007.91,-25.8077 2008.36,-36.3929 2014.86,-33.801"/>
</g>
<!-- Node16&#45;&gt;Node6 -->
<g id="edge22" class="edge"><title>Node16&#45;&gt;Node6</title>
<path fill="none" stroke="midnightblue" d="M2014.54,-124.526C2027.83,-102.003 2053.42,-58.6458 2067.71,-34.435"/>
<polygon fill="midnightblue" stroke="midnightblue" points="2070.84,-36.0138 2072.91,-25.6228 2064.81,-32.456 2070.84,-36.0138"/>
</g>
<!-- Node17 -->
<g id="node17" class="node"><title>Node17</title>
<polygon fill="none" stroke="#bfbfbf" points="1935.5,-68.5 1935.5,-87.5 1978.5,-87.5 1978.5,-68.5 1935.5,-68.5"/>
<text text-anchor="middle" x="1957" y="-75.5" font-family="Helvetica,sans-Serif" font-size="10.00">cstdio</text>
</g>
<!-- Node16&#45;&gt;Node17 -->
<g id="edge20" class="edge"><title>Node16&#45;&gt;Node17</title>
<path fill="none" stroke="midnightblue" d="M1994.39,-124.781C1987.27,-116.062 1978.12,-104.857 1970.65,-95.7153"/>
<polygon fill="midnightblue" stroke="midnightblue" points="1973.17,-93.262 1964.13,-87.7305 1967.74,-97.6898 1973.17,-93.262"/>
</g>
<!-- Node18&#45;&gt;Node3 -->
<g id="edge40" class="edge"><title>Node18&#45;&gt;Node3</title>
<path fill="none" stroke="midnightblue" d="M1192.83,-130.49C1202.11,-128.093 1212.42,-125.682 1222,-124 1357.4,-100.217 1517.88,-87.9983 1607.2,-82.5952"/>
<polygon fill="midnightblue" stroke="midnightblue" points="1607.43,-86.0878 1617.21,-82.0006 1607.02,-79.1001 1607.43,-86.0878"/>
</g>
<!-- Node19 -->
<g id="node19" class="node"><title>Node19</title>
<g id="a_node19"><a xlink:href="../../dc/d03/MemoryResources_8h.html" target="_top" xlink:title="MemoryResources/MemoryResources.h">
<polygon fill="none" stroke="black" points="835.5,-68.5 835.5,-87.5 1028.5,-87.5 1028.5,-68.5 835.5,-68.5"/>
<text text-anchor="middle" x="932" y="-75.5" font-family="Helvetica,sans-Serif" font-size="10.00">MemoryResources/MemoryResources.h</text>
</a>
</g>
</g>
<!-- Node18&#45;&gt;Node19 -->
<g id="edge25" class="edge"><title>Node18&#45;&gt;Node19</title>
<path fill="none" stroke="midnightblue" d="M1129.9,-130.403C1089.08,-119.799 1019.59,-101.751 974.761,-90.1067"/>
<polygon fill="midnightblue" stroke="midnightblue" points="975.594,-86.7071 965.035,-87.5806 973.834,-93.4822 975.594,-86.7071"/>
</g>
<!-- Node19&#45;&gt;Node7 -->
<g id="edge30" class="edge"><title>Node19&#45;&gt;Node7</title>
<path fill="none" stroke="midnightblue" d="M1028.57,-73.7421C1171.5,-68.2243 1432.24,-55.3019 1523,-32 1525.51,-31.3564 1528.06,-30.5325 1530.58,-29.6028"/>
<polygon fill="midnightblue" stroke="midnightblue" points="1532.11,-32.7576 1539.96,-25.6507 1529.39,-26.3063 1532.11,-32.7576"/>
</g>
<!-- Node19&#45;&gt;Node10 -->
<g id="edge31" class="edge"><title>Node19&#45;&gt;Node10</title>
<path fill="none" stroke="midnightblue" d="M1028.55,-73.0384C1158.84,-66.9675 1383.76,-53.7267 1463,-32 1465.2,-31.3963 1467.44,-30.6389 1469.65,-29.7871"/>
<polygon fill="midnightblue" stroke="midnightblue" points="1471.27,-32.8962 1478.98,-25.6327 1468.42,-26.5009 1471.27,-32.8962"/>
</g>
<!-- Node20 -->
<g id="node20" class="node"><title>Node20</title>
<polygon fill="none" stroke="#bfbfbf" points="174,-1 174,-31 274,-31 274,-1 174,-1"/>
<text text-anchor="start" x="182" y="-19" font-family="Helvetica,sans-Serif" font-size="10.00">boost/container/flat</text>
<text text-anchor="middle" x="224" y="-8" font-family="Helvetica,sans-Serif" font-size="10.00">_map.hpp</text>
</g>
<!-- Node19&#45;&gt;Node20 -->
<g id="edge26" class="edge"><title>Node19&#45;&gt;Node20</title>
<path fill="none" stroke="midnightblue" d="M835.444,-75.7088C710.235,-72.8241 485.089,-63.5172 284.235,-32.0005"/>
<polygon fill="midnightblue" stroke="midnightblue" points="284.51,-28.5003 274.084,-30.3853 283.41,-35.4133 284.51,-28.5003"/>
</g>
<!-- Node21 -->
<g id="node21" class="node"><title>Node21</title>
<polygon fill="none" stroke="#bfbfbf" points="292,-1 292,-31 408,-31 408,-1 292,-1"/>
<text text-anchor="start" x="300" y="-19" font-family="Helvetica,sans-Serif" font-size="10.00">boost/container/pmr</text>
<text text-anchor="middle" x="350" y="-8" font-family="Helvetica,sans-Serif" font-size="10.00">/memory_resource.hpp</text>
</g>
<!-- Node19&#45;&gt;Node21 -->
<g id="edge27" class="edge"><title>Node19&#45;&gt;Node21</title>
<path fill="none" stroke="midnightblue" d="M835.198,-72.3929C733.575,-66.6791 569.045,-54.9496 417.947,-32.0115"/>
<polygon fill="midnightblue" stroke="midnightblue" points="418.43,-28.5448 408.015,-30.4844 417.367,-35.4635 418.43,-28.5448"/>
</g>
<!-- Node22 -->
<g id="node22" class="node"><title>Node22</title>
<polygon fill="none" stroke="#bfbfbf" points="426,-1 426,-31 582,-31 582,-1 426,-1"/>
<text text-anchor="start" x="434" y="-19" font-family="Helvetica,sans-Serif" font-size="10.00">boost/container/pmr</text>
<text text-anchor="middle" x="504" y="-8" font-family="Helvetica,sans-Serif" font-size="10.00">/monotonic_buffer_resource.hpp</text>
</g>
<!-- Node19&#45;&gt;Node22 -->
<g id="edge28" class="edge"><title>Node19&#45;&gt;Node22</title>
<path fill="none" stroke="midnightblue" d="M861.023,-68.4633C794.259,-60.2441 691.247,-47.0777 592.399,-32.1792"/>
<polygon fill="midnightblue" stroke="midnightblue" points="592.642,-28.6763 582.231,-30.6382 591.594,-35.5972 592.642,-28.6763"/>
</g>
<!-- Node23 -->
<g id="node23" class="node"><title>Node23</title>
<polygon fill="none" stroke="#bfbfbf" points="600.5,-1 600.5,-31 733.5,-31 733.5,-1 600.5,-1"/>
<text text-anchor="start" x="608.5" y="-19" font-family="Helvetica,sans-Serif" font-size="10.00">boost/container/pmr</text>
<text text-anchor="middle" x="667" y="-8" font-family="Helvetica,sans-Serif" font-size="10.00">/polymorphic_allocator.hpp</text>
</g>
<!-- Node19&#45;&gt;Node23 -->
<g id="edge29" class="edge"><title>Node19&#45;&gt;Node23</title>
<path fill="none" stroke="midnightblue" d="M894.313,-68.4672C853.99,-59.3375 789.066,-44.6375 738.906,-33.2807"/>
<polygon fill="midnightblue" stroke="midnightblue" points="739.609,-29.8513 729.083,-31.0565 738.063,-36.6785 739.609,-29.8513"/>
</g>
<!-- Node24 -->
<g id="node24" class="node"><title>Node24</title>
<polygon fill="none" stroke="#bfbfbf" points="752,-6.5 752,-25.5 814,-25.5 814,-6.5 752,-6.5"/>
<text text-anchor="middle" x="783" y="-13.5" font-family="Helvetica,sans-Serif" font-size="10.00">type_traits</text>
</g>
<!-- Node19&#45;&gt;Node24 -->
<g id="edge32" class="edge"><title>Node19&#45;&gt;Node24</title>
<path fill="none" stroke="midnightblue" d="M910.652,-68.4035C885.314,-58.2004 842.862,-41.1055 813.929,-29.4544"/>
<polygon fill="midnightblue" stroke="midnightblue" points="814.892,-26.0694 804.308,-25.5806 812.277,-32.5627 814.892,-26.0694"/>
</g>
<!-- Node25 -->
<g id="node25" class="node"><title>Node25</title>
<polygon fill="none" stroke="#bfbfbf" points="832,-6.5 832,-25.5 872,-25.5 872,-6.5 832,-6.5"/>
<text text-anchor="middle" x="852" y="-13.5" font-family="Helvetica,sans-Serif" font-size="10.00">utility</text>
</g>
<!-- Node19&#45;&gt;Node25 -->
<g id="edge33" class="edge"><title>Node19&#45;&gt;Node25</title>
<path fill="none" stroke="midnightblue" d="M920.538,-68.4035C907.825,-58.8688 887.087,-43.3154 871.747,-31.8106"/>
<polygon fill="midnightblue" stroke="midnightblue" points="873.541,-28.7806 863.441,-25.5806 869.341,-34.3806 873.541,-28.7806"/>
</g>
<!-- Node19&#45;&gt;Node26 -->
<g id="edge34" class="edge"><title>Node19&#45;&gt;Node26</title>
<path fill="none" stroke="midnightblue" d="M1028.94,-77.2934C1125.01,-75.3626 1275.55,-66.3139 1401,-32 1403.35,-31.358 1405.73,-30.555 1408.09,-29.6563"/>
<polygon fill="midnightblue" stroke="midnightblue" points="1409.68,-32.7835 1417.46,-25.5899 1406.89,-26.3628 1409.68,-32.7835"/>
</g>
<!-- Node27 -->
<g id="node27" class="node"><title>Node27</title>
<polygon fill="none" stroke="#bfbfbf" points="890.5,-6.5 890.5,-25.5 973.5,-25.5 973.5,-6.5 890.5,-6.5"/>
<text text-anchor="middle" x="932" y="-13.5" font-family="Helvetica,sans-Serif" font-size="10.00">unordered_map</text>
</g>
<!-- Node19&#45;&gt;Node27 -->
<g id="edge35" class="edge"><title>Node19&#45;&gt;Node27</title>
<path fill="none" stroke="midnightblue" d="M932,-68.4035C932,-59.9381 932,-46.7283 932,-35.8199"/>
<polygon fill="midnightblue" stroke="midnightblue" points="935.5,-35.5806 932,-25.5806 928.5,-35.5806 935.5,-35.5806"/>
</g>
<!-- Node28 -->
<g id="node28" class="node"><title>Node28</title>
<polygon fill="none" stroke="#bfbfbf" points="991.5,-6.5 991.5,-25.5 1088.5,-25.5 1088.5,-6.5 991.5,-6.5"/>
<text text-anchor="middle" x="1040" y="-13.5" font-family="Helvetica,sans-Serif" font-size="10.00">FairMQMessage.h</text>
</g>
<!-- Node19&#45;&gt;Node28 -->
<g id="edge36" class="edge"><title>Node19&#45;&gt;Node28</title>
<path fill="none" stroke="midnightblue" d="M947.474,-68.4035C965.278,-58.5123 994.741,-42.1442 1015.63,-30.5378"/>
<polygon fill="midnightblue" stroke="midnightblue" points="1017.51,-33.4966 1024.55,-25.5806 1014.11,-27.3775 1017.51,-33.4966"/>
</g>
<!-- Node29 -->
<g id="node29" class="node"><title>Node29</title>
<polygon fill="none" stroke="#bfbfbf" points="1106.5,-6.5 1106.5,-25.5 1237.5,-25.5 1237.5,-6.5 1106.5,-6.5"/>
<text text-anchor="middle" x="1172" y="-13.5" font-family="Helvetica,sans-Serif" font-size="10.00">FairMQTransportFactory.h</text>
</g>
<!-- Node19&#45;&gt;Node29 -->
<g id="edge37" class="edge"><title>Node19&#45;&gt;Node29</title>
<path fill="none" stroke="midnightblue" d="M966.131,-68.4672C1008.69,-57.8272 1081.51,-39.6215 1128.16,-27.9593"/>
<polygon fill="midnightblue" stroke="midnightblue" points="1129.13,-31.3243 1137.99,-25.5034 1127.44,-24.5333 1129.13,-31.3243"/>
</g>
<!-- Node30 -->
<g id="node30" class="node"><title>Node30</title>
<polygon fill="none" stroke="#bfbfbf" points="1255.5,-6.5 1255.5,-25.5 1392.5,-25.5 1392.5,-6.5 1255.5,-6.5"/>
<text text-anchor="middle" x="1324" y="-13.5" font-family="Helvetica,sans-Serif" font-size="10.00">fairmq/MemoryResources.h</text>
</g>
<!-- Node19&#45;&gt;Node30 -->
<g id="edge38" class="edge"><title>Node19&#45;&gt;Node30</title>
<path fill="none" stroke="midnightblue" d="M997.997,-68.4721C1061.63,-60.0295 1160.59,-46.3236 1246,-32 1254.31,-30.6065 1263.09,-29.0239 1271.66,-27.4217"/>
<polygon fill="midnightblue" stroke="midnightblue" points="1272.39,-30.8451 1281.56,-25.542 1271.08,-23.9678 1272.39,-30.8451"/>
</g>
<!-- Node31 -->
<g id="node31" class="node"><title>Node31</title>
<polygon fill="none" stroke="#bfbfbf" points="0,-6.5 0,-25.5 156,-25.5 156,-6.5 0,-6.5"/>
<text text-anchor="middle" x="78" y="-13.5" font-family="Helvetica,sans-Serif" font-size="10.00">fairmq/MemoryResourceTools.h</text>
</g>
<!-- Node19&#45;&gt;Node31 -->
<g id="edge39" class="edge"><title>Node19&#45;&gt;Node31</title>
<path fill="none" stroke="midnightblue" d="M835.44,-74.806C689.739,-70.7118 405.179,-59.6625 165,-32 154.158,-30.7513 142.617,-29.0368 131.605,-27.2123"/>
<polygon fill="midnightblue" stroke="midnightblue" points="132.121,-23.7499 121.675,-25.5159 130.942,-30.65 132.121,-23.7499"/>
</g>
<!-- Node36&#45;&gt;Node3 -->
<g id="edge51" class="edge"><title>Node36&#45;&gt;Node3</title>
<path fill="none" stroke="midnightblue" d="M1241.98,-260.336C1245.37,-234.646 1259.14,-158.538 1306,-124 1352.38,-89.8144 1513.26,-81.4142 1606.91,-79.4677"/>
<polygon fill="midnightblue" stroke="midnightblue" points="1607.22,-82.9626 1617.15,-79.275 1607.09,-75.9639 1607.22,-82.9626"/>
</g>
<!-- Node36&#45;&gt;Node13 -->
<g id="edge52" class="edge"><title>Node36&#45;&gt;Node13</title>
<path fill="none" stroke="midnightblue" d="M1257.76,-260.403C1277.22,-250.423 1309.55,-233.849 1332.21,-222.225"/>
<polygon fill="midnightblue" stroke="midnightblue" points="1333.97,-225.258 1341.27,-217.581 1330.77,-219.029 1333.97,-225.258"/>
</g>
<!-- Node36&#45;&gt;Node18 -->
<g id="edge53" class="edge"><title>Node36&#45;&gt;Node18</title>
<path fill="none" stroke="midnightblue" d="M1235.64,-260.202C1222.83,-239.184 1190.27,-185.75 1173.43,-158.123"/>
<polygon fill="midnightblue" stroke="midnightblue" points="1176.39,-156.241 1168.19,-149.522 1170.41,-159.883 1176.39,-156.241"/>
</g>
<!-- Node37&#45;&gt;Node3 -->
<g id="edge55" class="edge"><title>Node37&#45;&gt;Node3</title>
<path fill="none" stroke="midnightblue" d="M1343.82,-260.488C1325.46,-253.801 1303.98,-242.45 1293,-224 1265.51,-177.818 1312.93,-148.036 1361,-124 1402.91,-103.046 1527.59,-90.1028 1606.94,-83.7546"/>
<polygon fill="midnightblue" stroke="midnightblue" points="1607.65,-87.21 1617.35,-82.9393 1607.1,-80.2314 1607.65,-87.21"/>
</g>
<!-- Node37&#45;&gt;Node13 -->
<g id="edge56" class="edge"><title>Node37&#45;&gt;Node13</title>
<path fill="none" stroke="midnightblue" d="M1373.42,-260.403C1370.85,-251.849 1366.83,-238.45 1363.54,-227.476"/>
<polygon fill="midnightblue" stroke="midnightblue" points="1366.8,-226.153 1360.57,-217.581 1360.1,-228.165 1366.8,-226.153"/>
</g>
<!-- Node39 -->
<g id="node39" class="node"><title>Node39</title>
<g id="a_node39"><a xlink:href="../../d5/dfb/DataRef_8h.html" target="_top" xlink:title="Framework/DataRef.h">
<polygon fill="none" stroke="black" points="1973.5,-198.5 1973.5,-217.5 2086.5,-217.5 2086.5,-198.5 1973.5,-198.5"/>
<text text-anchor="middle" x="2030" y="-205.5" font-family="Helvetica,sans-Serif" font-size="10.00">Framework/DataRef.h</text>
</a>
</g>
</g>
<!-- Node38&#45;&gt;Node39 -->
<g id="edge58" class="edge"><title>Node38&#45;&gt;Node39</title>
<path fill="none" stroke="midnightblue" d="M1988.88,-260.403C1996.15,-251.314 2007.8,-236.756 2016.84,-225.449"/>
<polygon fill="midnightblue" stroke="midnightblue" points="2019.62,-227.576 2023.14,-217.581 2014.16,-223.203 2019.62,-227.576"/>
</g>
<!-- Node38&#45;&gt;Node40 -->
<g id="edge59" class="edge"><title>Node38&#45;&gt;Node40</title>
<path fill="none" stroke="midnightblue" d="M1970.97,-260.403C1960.64,-252.353 1944.8,-240.013 1931.23,-229.441"/>
<polygon fill="midnightblue" stroke="midnightblue" points="1933.19,-226.527 1923.15,-223.141 1928.88,-232.048 1933.19,-226.527"/>
</g>
<!-- Node41&#45;&gt;Node38 -->
<g id="edge62" class="edge"><title>Node41&#45;&gt;Node38</title>
<path fill="none" stroke="midnightblue" d="M1909.51,-316.781C1924.69,-307.196 1944.62,-294.606 1959.75,-285.056"/>
<polygon fill="midnightblue" stroke="midnightblue" points="1961.87,-287.855 1968.45,-279.556 1958.13,-281.936 1961.87,-287.855"/>
</g>
<!-- Node42&#45;&gt;Node3 -->
<g id="edge66" class="edge"><title>Node42&#45;&gt;Node3</title>
<path fill="none" stroke="midnightblue" d="M1305.81,-326.366C1265.27,-320.597 1215.28,-307.873 1179,-280 1118.74,-233.702 1057.43,-179.821 1109,-124 1142.19,-88.0738 1463.6,-80.8027 1607.24,-79.3513"/>
<polygon fill="midnightblue" stroke="midnightblue" points="1607.31,-82.851 1617.27,-79.2566 1607.24,-75.8513 1607.31,-82.851"/>
</g>
<!-- Node42&#45;&gt;Node12 -->
<g id="edge65" class="edge"><title>Node42&#45;&gt;Node12</title>
<path fill="none" stroke="midnightblue" d="M1397.2,-322.403C1422.37,-312.2 1464.54,-295.105 1493.28,-283.454"/>
<polygon fill="midnightblue" stroke="midnightblue" points="1494.88,-286.581 1502.83,-279.581 1492.25,-280.094 1494.88,-286.581"/>
</g>
<!-- Node42&#45;&gt;Node36 -->
<g id="edge67" class="edge"><title>Node42&#45;&gt;Node36</title>
<path fill="none" stroke="midnightblue" d="M1356.66,-322.403C1333.9,-312.29 1295.91,-295.404 1269.71,-283.761"/>
<polygon fill="midnightblue" stroke="midnightblue" points="1270.87,-280.444 1260.31,-279.581 1268.02,-286.84 1270.87,-280.444"/>
</g>
<!-- Node42&#45;&gt;Node37 -->
<g id="edge64" class="edge"><title>Node42&#45;&gt;Node37</title>
<path fill="none" stroke="midnightblue" d="M1376,-322.403C1376,-313.938 1376,-300.728 1376,-289.82"/>
<polygon fill="midnightblue" stroke="midnightblue" points="1379.5,-289.581 1376,-279.581 1372.5,-289.581 1379.5,-289.581"/>
</g>
</g>
</svg>
