<?xml version="1.0" encoding="UTF-8" standalone="no"?>
<!DOCTYPE svg PUBLIC "-//W3C//DTD SVG 1.1//EN"
 "http://www.w3.org/Graphics/SVG/1.1/DTD/svg11.dtd">
<!-- Generated by graphviz version 2.36.0 (20140111.2315)
 -->
<!-- Title: /home/travis/build/AliceO2Group/AliceO2/Framework/Core/include/Framework/Output.h Pages: 1 -->
<!--zoomable 242 -->
<svg id="main" version="1.1" xmlns="http://www.w3.org/2000/svg" xmlns:xlink="http://www.w3.org/1999/xlink" xml:space="preserve" onload="init(evt)">
<style type="text/css"><![CDATA[
.edge:hover path { stroke: red; }
.edge:hover polygon { stroke: red; fill: red; }
]]></style>
<script type="text/javascript"><![CDATA[
var edges = document.getElementsByTagName('g');
if (edges && edges.length) {
  for (var i=0;i<edges.length;i++) {
    if (edges[i].id.substr(0,4)=='edge') {
      edges[i].setAttribute('class','edge');
    }
  }
}
]]></script>
        <defs>
                <circle id="rim" cx="0" cy="0" r="7"/>
                <circle id="rim2" cx="0" cy="0" r="3.5"/>
                <g id="zoomPlus">
                        <use xlink:href="#rim" fill="#404040">
                                <set attributeName="fill" to="#808080" begin="zoomplus.mouseover" end="zoomplus.mouseout"/>
                        </use>
                        <path d="M-4,0h8M0,-4v8" fill="none" stroke="white" stroke-width="1.5" pointer-events="none"/>
                </g>
                <g id="zoomMin">
                        <use xlink:href="#rim" fill="#404040">
                                <set attributeName="fill" to="#808080" begin="zoomminus.mouseover" end="zoomminus.mouseout"/>
                        </use>
                        <path d="M-4,0h8" fill="none" stroke="white" stroke-width="1.5" pointer-events="none"/>
                </g>
                <g id="dirArrow">
                        <path fill="none" stroke="white" stroke-width="1.5" d="M0,-3.0v7 M-2.5,-0.5L0,-3.0L2.5,-0.5"/>
                </g>
               <g id="resetDef">
                       <use xlink:href="#rim2" fill="#404040">
                               <set attributeName="fill" to="#808080" begin="reset.mouseover" end="reset.mouseout"/>
                       </use>
               </g>
        </defs>

<script type="text/javascript">
var viewWidth = 2096;
var viewHeight = 242;
var sectionId = 'dynsection-0';
</script>
<script xlink:href="../../svgpan.js"/>
<svg id="graph" class="graph">
<g id="viewport">
<title>/home/travis/build/AliceO2Group/AliceO2/Framework/Core/include/Framework/Output.h</title>
<!-- Node1 -->
<g id="node1" class="node"><title>Node1</title>
<polygon fill="#bfbfbf" stroke="black" points="316,-181 316,-233 442,-233 442,-181 316,-181"/>
<text text-anchor="start" x="324" y="-221" font-family="Helvetica,sans-Serif" font-size="10.00">/home/travis/build</text>
<text text-anchor="start" x="324" y="-210" font-family="Helvetica,sans-Serif" font-size="10.00">/AliceO2Group/AliceO2</text>
<text text-anchor="start" x="324" y="-199" font-family="Helvetica,sans-Serif" font-size="10.00">/Framework/Core/include</text>
<text text-anchor="middle" x="379" y="-188" font-family="Helvetica,sans-Serif" font-size="10.00">/Framework/Output.h</text>
</g>
<!-- Node2 -->
<g id="node2" class="node"><title>Node2</title>
<g id="a_node2"><a xlink:href="../../dc/dcd/DataHeader_8h.html" target="_top" xlink:title="Headers/DataHeader.h">
<polygon fill="none" stroke="black" points="247.5,-68.5 247.5,-87.5 364.5,-87.5 364.5,-68.5 247.5,-68.5"/>
<text text-anchor="middle" x="306" y="-75.5" font-family="Helvetica,sans-Serif" font-size="10.00">Headers/DataHeader.h</text>
</a>
</g>
</g>
<!-- Node1&#45;&gt;Node2 -->
<g id="edge1" class="edge"><title>Node1&#45;&gt;Node2</title>
<path fill="none" stroke="midnightblue" d="M352.585,-180.759C342.766,-170.186 332.26,-157.275 325,-144 317.067,-129.494 312.116,-111.311 309.265,-97.8683"/>
<polygon fill="midnightblue" stroke="midnightblue" points="312.669,-97.0353 307.345,-87.8756 305.795,-98.3565 312.669,-97.0353"/>
</g>
<!-- Node11 -->
<g id="node11" class="node"><title>Node11</title>
<g id="a_node11"><a xlink:href="../../dc/dca/Lifetime_8h.html" target="_top" xlink:title="Framework/Lifetime.h">
<polygon fill="none" stroke="black" points="442.5,-124.5 442.5,-143.5 553.5,-143.5 553.5,-124.5 442.5,-124.5"/>
<text text-anchor="middle" x="498" y="-131.5" font-family="Helvetica,sans-Serif" font-size="10.00">Framework/Lifetime.h</text>
</a>
</g>
</g>
<!-- Node1&#45;&gt;Node11 -->
<g id="edge10" class="edge"><title>Node1&#45;&gt;Node11</title>
<path fill="none" stroke="midnightblue" d="M420.955,-180.968C439.02,-170.19 459.455,-157.997 474.738,-148.879"/>
<polygon fill="midnightblue" stroke="midnightblue" points="476.726,-151.768 483.521,-143.639 473.14,-145.757 476.726,-151.768"/>
</g>
<!-- Node12 -->
<g id="node12" class="node"><title>Node12</title>
<g id="a_node12"><a xlink:href="../../d4/d00/Headers_2include_2Headers_2Stack_8h.html" target="_top" xlink:title="Headers/Stack.h">
<polygon fill="none" stroke="black" points="334,-124.5 334,-143.5 424,-143.5 424,-124.5 334,-124.5"/>
<text text-anchor="middle" x="379" y="-131.5" font-family="Helvetica,sans-Serif" font-size="10.00">Headers/Stack.h</text>
</a>
</g>
</g>
<!-- Node1&#45;&gt;Node12 -->
<g id="edge11" class="edge"><title>Node1&#45;&gt;Node12</title>
<path fill="none" stroke="midnightblue" d="M379,-180.768C379,-171.89 379,-162.074 379,-153.816"/>
<polygon fill="midnightblue" stroke="midnightblue" points="382.5,-153.757 379,-143.757 375.5,-153.757 382.5,-153.757"/>
</g>
<!-- Node3 -->
<g id="node3" class="node"><title>Node3</title>
<polygon fill="none" stroke="#bfbfbf" points="0,-6.5 0,-25.5 46,-25.5 46,-6.5 0,-6.5"/>
<text text-anchor="middle" x="23" y="-13.5" font-family="Helvetica,sans-Serif" font-size="10.00">cstdint</text>
</g>
<!-- Node2&#45;&gt;Node3 -->
<g id="edge2" class="edge"><title>Node2&#45;&gt;Node3</title>
<path fill="none" stroke="midnightblue" d="M247.388,-70.8817C195.843,-64.4718 119.234,-52.4249 55,-32 52.8621,-31.3202 50.6822,-30.5286 48.5158,-29.671"/>
<polygon fill="midnightblue" stroke="midnightblue" points="49.8422,-26.4311 39.2776,-25.631 47.0374,-32.8446 49.8422,-26.4311"/>
</g>
<!-- Node4 -->
<g id="node4" class="node"><title>Node4</title>
<polygon fill="none" stroke="#bfbfbf" points="64,-6.5 64,-25.5 116,-25.5 116,-6.5 64,-6.5"/>
<text text-anchor="middle" x="90" y="-13.5" font-family="Helvetica,sans-Serif" font-size="10.00">memory</text>
</g>
<!-- Node2&#45;&gt;Node4 -->
<g id="edge3" class="edge"><title>Node2&#45;&gt;Node4</title>
<path fill="none" stroke="midnightblue" d="M263.387,-68.4403C226.353,-60.5211 171.499,-47.6308 125,-32 122.587,-31.189 120.109,-30.2827 117.639,-29.3281"/>
<polygon fill="midnightblue" stroke="midnightblue" points="118.892,-26.0591 108.312,-25.5063 116.238,-32.5365 118.892,-26.0591"/>
</g>
<!-- Node5 -->
<g id="node5" class="node"><title>Node5</title>
<polygon fill="none" stroke="#bfbfbf" points="134.5,-6.5 134.5,-25.5 183.5,-25.5 183.5,-6.5 134.5,-6.5"/>
<text text-anchor="middle" x="159" y="-13.5" font-family="Helvetica,sans-Serif" font-size="10.00">cassert</text>
</g>
<!-- Node2&#45;&gt;Node5 -->
<g id="edge4" class="edge"><title>Node2&#45;&gt;Node5</title>
<path fill="none" stroke="midnightblue" d="M283.817,-68.4422C260.962,-59.5602 224.35,-45.1526 193,-32 191.171,-31.2325 189.29,-30.4329 187.397,-29.6201"/>
<polygon fill="midnightblue" stroke="midnightblue" points="188.574,-26.3153 178.008,-25.5323 185.78,-32.7334 188.574,-26.3153"/>
</g>
<!-- Node6 -->
<g id="node6" class="node"><title>Node6</title>
<polygon fill="none" stroke="#bfbfbf" points="509,-6.5 509,-25.5 555,-25.5 555,-6.5 509,-6.5"/>
<text text-anchor="middle" x="532" y="-13.5" font-family="Helvetica,sans-Serif" font-size="10.00">cstring</text>
</g>
<!-- Node2&#45;&gt;Node6 -->
<g id="edge5" class="edge"><title>Node2&#45;&gt;Node6</title>
<path fill="none" stroke="midnightblue" d="M354.327,-68.4853C393.818,-60.875 450.792,-48.3967 499,-32 501.13,-31.2755 503.309,-30.4609 505.481,-29.5954"/>
<polygon fill="midnightblue" stroke="midnightblue" points="506.984,-32.7591 514.791,-25.5972 504.222,-26.327 506.984,-32.7591"/>
</g>
<!-- Node7 -->
<g id="node7" class="node"><title>Node7</title>
<polygon fill="none" stroke="#bfbfbf" points="202,-6.5 202,-25.5 258,-25.5 258,-6.5 202,-6.5"/>
<text text-anchor="middle" x="230" y="-13.5" font-family="Helvetica,sans-Serif" font-size="10.00">algorithm</text>
</g>
<!-- Node2&#45;&gt;Node7 -->
<g id="edge6" class="edge"><title>Node2&#45;&gt;Node7</title>
<path fill="none" stroke="midnightblue" d="M295.111,-68.4035C283.034,-58.8688 263.333,-43.3154 248.76,-31.8106"/>
<polygon fill="midnightblue" stroke="midnightblue" points="250.886,-29.03 240.869,-25.5806 246.549,-34.5242 250.886,-29.03"/>
</g>
<!-- Node8 -->
<g id="node8" class="node"><title>Node8</title>
<polygon fill="none" stroke="#bfbfbf" points="276.5,-6.5 276.5,-25.5 335.5,-25.5 335.5,-6.5 276.5,-6.5"/>
<text text-anchor="middle" x="306" y="-13.5" font-family="Helvetica,sans-Serif" font-size="10.00">stdexcept</text>
</g>
<!-- Node2&#45;&gt;Node8 -->
<g id="edge7" class="edge"><title>Node2&#45;&gt;Node8</title>
<path fill="none" stroke="midnightblue" d="M306,-68.4035C306,-59.9381 306,-46.7283 306,-35.8199"/>
<polygon fill="midnightblue" stroke="midnightblue" points="309.5,-35.5806 306,-25.5806 302.5,-35.5806 309.5,-35.5806"/>
</g>
<!-- Node9 -->
<g id="node9" class="node"><title>Node9</title>
<polygon fill="none" stroke="#bfbfbf" points="573.5,-6.5 573.5,-25.5 614.5,-25.5 614.5,-6.5 573.5,-6.5"/>
<text text-anchor="middle" x="594" y="-13.5" font-family="Helvetica,sans-Serif" font-size="10.00">string</text>
</g>
<!-- Node2&#45;&gt;Node9 -->
<g id="edge8" class="edge"><title>Node2&#45;&gt;Node9</title>
<path fill="none" stroke="midnightblue" d="M364.562,-71.6932C417.638,-65.7393 497.494,-53.9041 564,-32 565.908,-31.3715 567.847,-30.6401 569.773,-29.8447"/>
<polygon fill="midnightblue" stroke="midnightblue" points="571.504,-32.9 579.104,-25.5173 568.559,-26.5497 571.504,-32.9"/>
</g>
<!-- Node10 -->
<g id="node10" class="node"><title>Node10</title>
<g id="a_node10"><a xlink:href="../../d7/df8/Types_8h.html" target="_top" xlink:title="MemoryResources/Types.h">
<polygon fill="none" stroke="black" points="353.5,-6.5 353.5,-25.5 490.5,-25.5 490.5,-6.5 353.5,-6.5"/>
<text text-anchor="middle" x="422" y="-13.5" font-family="Helvetica,sans-Serif" font-size="10.00">MemoryResources/Types.h</text>
</a>
</g>
</g>
<!-- Node2&#45;&gt;Node10 -->
<g id="edge9" class="edge"><title>Node2&#45;&gt;Node10</title>
<path fill="none" stroke="midnightblue" d="M322.62,-68.4035C341.915,-58.4232 373.959,-41.8487 396.431,-30.2253"/>
<polygon fill="midnightblue" stroke="midnightblue" points="398.137,-33.2836 405.411,-25.5806 394.921,-27.0661 398.137,-33.2836"/>
</g>
<!-- Node12&#45;&gt;Node2 -->
<g id="edge27" class="edge"><title>Node12&#45;&gt;Node2</title>
<path fill="none" stroke="midnightblue" d="M367.271,-124.324C356.163,-116.107 339.258,-103.602 326.017,-93.8069"/>
<polygon fill="midnightblue" stroke="midnightblue" points="328.063,-90.9671 317.942,-87.8339 323.9,-96.5948 328.063,-90.9671"/>
</g>
<!-- Node13 -->
<g id="node13" class="node"><title>Node13</title>
<g id="a_node13"><a xlink:href="../../dc/d03/MemoryResources_8h.html" target="_top" xlink:title="MemoryResources/MemoryResources.h">
<polygon fill="none" stroke="black" points="1145.5,-68.5 1145.5,-87.5 1338.5,-87.5 1338.5,-68.5 1145.5,-68.5"/>
<text text-anchor="middle" x="1242" y="-75.5" font-family="Helvetica,sans-Serif" font-size="10.00">MemoryResources/MemoryResources.h</text>
</a>
</g>
</g>
<!-- Node12&#45;&gt;Node13 -->
<g id="edge12" class="edge"><title>Node12&#45;&gt;Node13</title>
<path fill="none" stroke="midnightblue" d="M424.268,-125.2C427.556,-124.754 430.826,-124.347 434,-124 684.183,-96.6425 979.867,-85.5376 1134.88,-81.3354"/>
<polygon fill="midnightblue" stroke="midnightblue" points="1135.43,-84.8219 1145.33,-81.0565 1135.25,-77.8244 1135.43,-84.8219"/>
</g>
<!-- Node13&#45;&gt;Node6 -->
<g id="edge17" class="edge"><title>Node13&#45;&gt;Node6</title>
<path fill="none" stroke="midnightblue" d="M1145.21,-74.8379C985.065,-70.545 672.022,-58.9287 565,-32 562.345,-31.332 559.64,-30.4579 556.978,-29.4671"/>
<polygon fill="midnightblue" stroke="midnightblue" points="558.265,-26.2115 547.693,-25.5263 555.53,-32.6551 558.265,-26.2115"/>
</g>
<!-- Node13&#45;&gt;Node9 -->
<g id="edge18" class="edge"><title>Node13&#45;&gt;Node9</title>
<path fill="none" stroke="midnightblue" d="M1145.49,-74.5465C996.94,-69.9978 719.432,-58.2235 624,-32 621.81,-31.3983 619.591,-30.6317 617.403,-29.7646"/>
<polygon fill="midnightblue" stroke="midnightblue" points="618.738,-26.526 608.191,-25.5181 615.807,-32.8831 618.738,-26.526"/>
</g>
<!-- Node14 -->
<g id="node14" class="node"><title>Node14</title>
<polygon fill="none" stroke="#bfbfbf" points="633,-1 633,-31 733,-31 733,-1 633,-1"/>
<text text-anchor="start" x="641" y="-19" font-family="Helvetica,sans-Serif" font-size="10.00">boost/container/flat</text>
<text text-anchor="middle" x="683" y="-8" font-family="Helvetica,sans-Serif" font-size="10.00">_map.hpp</text>
</g>
<!-- Node13&#45;&gt;Node14 -->
<g id="edge13" class="edge"><title>Node13&#45;&gt;Node14</title>
<path fill="none" stroke="midnightblue" d="M1145.09,-72.855C1046.2,-67.5823 888.248,-56.2841 743.081,-32.008"/>
<polygon fill="midnightblue" stroke="midnightblue" points="743.54,-28.536 733.096,-30.314 742.369,-35.4373 743.54,-28.536"/>
</g>
<!-- Node15 -->
<g id="node15" class="node"><title>Node15</title>
<polygon fill="none" stroke="#bfbfbf" points="751,-1 751,-31 867,-31 867,-1 751,-1"/>
<text text-anchor="start" x="759" y="-19" font-family="Helvetica,sans-Serif" font-size="10.00">boost/container/pmr</text>
<text text-anchor="middle" x="809" y="-8" font-family="Helvetica,sans-Serif" font-size="10.00">/memory_resource.hpp</text>
</g>
<!-- Node13&#45;&gt;Node15 -->
<g id="edge14" class="edge"><title>Node13&#45;&gt;Node15</title>
<path fill="none" stroke="midnightblue" d="M1152.52,-68.4704C1080.59,-61.0416 976.785,-49.0371 876.99,-32.0696"/>
<polygon fill="midnightblue" stroke="midnightblue" points="877.484,-28.6032 867.035,-30.358 876.298,-35.502 877.484,-28.6032"/>
</g>
<!-- Node16 -->
<g id="node16" class="node"><title>Node16</title>
<polygon fill="none" stroke="#bfbfbf" points="885,-1 885,-31 1041,-31 1041,-1 885,-1"/>
<text text-anchor="start" x="893" y="-19" font-family="Helvetica,sans-Serif" font-size="10.00">boost/container/pmr</text>
<text text-anchor="middle" x="963" y="-8" font-family="Helvetica,sans-Serif" font-size="10.00">/monotonic_buffer_resource.hpp</text>
</g>
<!-- Node13&#45;&gt;Node16 -->
<g id="edge15" class="edge"><title>Node13&#45;&gt;Node16</title>
<path fill="none" stroke="midnightblue" d="M1202.32,-68.4672C1159.78,-59.3184 1091.23,-44.5763 1038.38,-33.2097"/>
<polygon fill="midnightblue" stroke="midnightblue" points="1038.88,-29.7373 1028.36,-31.0565 1037.4,-36.5808 1038.88,-29.7373"/>
</g>
<!-- Node17 -->
<g id="node17" class="node"><title>Node17</title>
<polygon fill="none" stroke="#bfbfbf" points="1059.5,-1 1059.5,-31 1192.5,-31 1192.5,-1 1059.5,-1"/>
<text text-anchor="start" x="1067.5" y="-19" font-family="Helvetica,sans-Serif" font-size="10.00">boost/container/pmr</text>
<text text-anchor="middle" x="1126" y="-8" font-family="Helvetica,sans-Serif" font-size="10.00">/polymorphic_allocator.hpp</text>
</g>
<!-- Node13&#45;&gt;Node17 -->
<g id="edge16" class="edge"><title>Node13&#45;&gt;Node17</title>
<path fill="none" stroke="midnightblue" d="M1225.38,-68.4035C1209.01,-59.9355 1183.46,-46.7204 1162.37,-35.8101"/>
<polygon fill="midnightblue" stroke="midnightblue" points="1163.83,-32.6263 1153.34,-31.1408 1160.61,-38.8439 1163.83,-32.6263"/>
</g>
<!-- Node18 -->
<g id="node18" class="node"><title>Node18</title>
<polygon fill="none" stroke="#bfbfbf" points="1211,-6.5 1211,-25.5 1273,-25.5 1273,-6.5 1211,-6.5"/>
<text text-anchor="middle" x="1242" y="-13.5" font-family="Helvetica,sans-Serif" font-size="10.00">type_traits</text>
</g>
<!-- Node13&#45;&gt;Node18 -->
<g id="edge19" class="edge"><title>Node13&#45;&gt;Node18</title>
<path fill="none" stroke="midnightblue" d="M1242,-68.4035C1242,-59.9381 1242,-46.7283 1242,-35.8199"/>
<polygon fill="midnightblue" stroke="midnightblue" points="1245.5,-35.5806 1242,-25.5806 1238.5,-35.5806 1245.5,-35.5806"/>
</g>
<!-- Node19 -->
<g id="node19" class="node"><title>Node19</title>
<polygon fill="none" stroke="#bfbfbf" points="1291,-6.5 1291,-25.5 1331,-25.5 1331,-6.5 1291,-6.5"/>
<text text-anchor="middle" x="1311" y="-13.5" font-family="Helvetica,sans-Serif" font-size="10.00">utility</text>
</g>
<!-- Node13&#45;&gt;Node19 -->
<g id="edge20" class="edge"><title>Node13&#45;&gt;Node19</title>
<path fill="none" stroke="midnightblue" d="M1251.89,-68.4035C1262.65,-59.047 1280.07,-43.8948 1293.22,-32.4599"/>
<polygon fill="midnightblue" stroke="midnightblue" points="1295.88,-34.7835 1301.13,-25.5806 1291.29,-29.5013 1295.88,-34.7835"/>
</g>
<!-- Node20 -->
<g id="node20" class="node"><title>Node20</title>
<polygon fill="none" stroke="#bfbfbf" points="1349,-6.5 1349,-25.5 1393,-25.5 1393,-6.5 1349,-6.5"/>
<text text-anchor="middle" x="1371" y="-13.5" font-family="Helvetica,sans-Serif" font-size="10.00">vector</text>
</g>
<!-- Node13&#45;&gt;Node20 -->
<g id="edge21" class="edge"><title>Node13&#45;&gt;Node20</title>
<path fill="none" stroke="midnightblue" d="M1260.84,-68.4855C1280.61,-59.5187 1312.57,-44.9339 1340,-32 1341.35,-31.3626 1342.74,-30.7066 1344.13,-30.0418"/>
<polygon fill="midnightblue" stroke="midnightblue" points="1345.82,-33.1117 1353.32,-25.6287 1342.79,-26.8012 1345.82,-33.1117"/>
</g>
<!-- Node21 -->
<g id="node21" class="node"><title>Node21</title>
<polygon fill="none" stroke="#bfbfbf" points="1411.5,-6.5 1411.5,-25.5 1494.5,-25.5 1494.5,-6.5 1411.5,-6.5"/>
<text text-anchor="middle" x="1453" y="-13.5" font-family="Helvetica,sans-Serif" font-size="10.00">unordered_map</text>
</g>
<!-- Node13&#45;&gt;Node21 -->
<g id="edge22" class="edge"><title>Node13&#45;&gt;Node21</title>
<path fill="none" stroke="midnightblue" d="M1272.49,-68.4187C1304.51,-59.3974 1356.31,-44.7687 1401,-32 1405.12,-30.8238 1409.41,-29.5912 1413.7,-28.3594"/>
<polygon fill="midnightblue" stroke="midnightblue" points="1414.94,-31.6442 1423.58,-25.5139 1413,-24.9175 1414.94,-31.6442"/>
</g>
<!-- Node22 -->
<g id="node22" class="node"><title>Node22</title>
<polygon fill="none" stroke="#bfbfbf" points="1512.5,-6.5 1512.5,-25.5 1609.5,-25.5 1609.5,-6.5 1512.5,-6.5"/>
<text text-anchor="middle" x="1561" y="-13.5" font-family="Helvetica,sans-Serif" font-size="10.00">FairMQMessage.h</text>
</g>
<!-- Node13&#45;&gt;Node22 -->
<g id="edge23" class="edge"><title>Node13&#45;&gt;Node22</title>
<path fill="none" stroke="midnightblue" d="M1299.54,-68.4736C1352.6,-60.2816 1433.44,-46.9657 1503,-32 1508.47,-30.8242 1514.19,-29.4809 1519.83,-28.0923"/>
<polygon fill="midnightblue" stroke="midnightblue" points="1520.97,-31.4144 1529.81,-25.5701 1519.25,-24.6279 1520.97,-31.4144"/>
</g>
<!-- Node23 -->
<g id="node23" class="node"><title>Node23</title>
<polygon fill="none" stroke="#bfbfbf" points="1627.5,-6.5 1627.5,-25.5 1758.5,-25.5 1758.5,-6.5 1627.5,-6.5"/>
<text text-anchor="middle" x="1693" y="-13.5" font-family="Helvetica,sans-Serif" font-size="10.00">FairMQTransportFactory.h</text>
</g>
<!-- Node13&#45;&gt;Node23 -->
<g id="edge24" class="edge"><title>Node13&#45;&gt;Node23</title>
<path fill="none" stroke="midnightblue" d="M1329.64,-68.4733C1406.02,-60.575 1519.64,-47.6967 1618,-32 1626.29,-30.6764 1635.07,-29.0912 1643.58,-27.4544"/>
<polygon fill="midnightblue" stroke="midnightblue" points="1644.27,-30.8862 1653.4,-25.5219 1642.92,-24.0178 1644.27,-30.8862"/>
</g>
<!-- Node24 -->
<g id="node24" class="node"><title>Node24</title>
<polygon fill="none" stroke="#bfbfbf" points="1776.5,-6.5 1776.5,-25.5 1913.5,-25.5 1913.5,-6.5 1776.5,-6.5"/>
<text text-anchor="middle" x="1845" y="-13.5" font-family="Helvetica,sans-Serif" font-size="10.00">fairmq/MemoryResources.h</text>
</g>
<!-- Node13&#45;&gt;Node24 -->
<g id="edge25" class="edge"><title>Node13&#45;&gt;Node24</title>
<path fill="none" stroke="midnightblue" d="M1338.62,-71.753C1444.2,-65.3132 1618.17,-52.6319 1767,-32 1776.13,-30.7346 1785.81,-29.1077 1795.12,-27.3942"/>
<polygon fill="midnightblue" stroke="midnightblue" points="1795.88,-30.8138 1805.05,-25.514 1794.58,-23.9361 1795.88,-30.8138"/>
</g>
<!-- Node25 -->
<g id="node25" class="node"><title>Node25</title>
<polygon fill="none" stroke="#bfbfbf" points="1932,-6.5 1932,-25.5 2088,-25.5 2088,-6.5 1932,-6.5"/>
<text text-anchor="middle" x="2010" y="-13.5" font-family="Helvetica,sans-Serif" font-size="10.00">fairmq/MemoryResourceTools.h</text>
</g>
<!-- Node13&#45;&gt;Node25 -->
<g id="edge26" class="edge"><title>Node13&#45;&gt;Node25</title>
<path fill="none" stroke="midnightblue" d="M1338.57,-73.7341C1470.65,-68.5551 1714.91,-56.4366 1922,-32 1932.84,-30.7207 1944.38,-29.0099 1955.41,-27.2017"/>
<polygon fill="midnightblue" stroke="midnightblue" points="1956.08,-30.6377 1965.36,-25.5235 1954.92,-23.7351 1956.08,-30.6377"/>
</g>
</g>
</svg>
        <g id="navigator" transform="translate(0 0)" fill="#404254">
                <rect fill="#f2f5e9" fill-opacity="0.5" stroke="#606060" stroke-width=".5" x="0" y="0" width="60" height="60"/>
                <use id="zoomplus" xlink:href="#zoomPlus" x="17" y="9" onmousedown="handleZoom(evt,'in')"/>
                <use id="zoomminus" xlink:href="#zoomMin" x="42" y="9" onmousedown="handleZoom(evt,'out')"/>
                <use id="reset" xlink:href="#resetDef" x="30" y="36" onmousedown="handleReset()"/>
                <g id="arrowUp" xlink:href="#dirArrow" transform="translate(30 24)" onmousedown="handlePan(0,-1)">
                  <use xlink:href="#rim" fill="#404040">
                        <set attributeName="fill" to="#808080" begin="arrowUp.mouseover" end="arrowUp.mouseout"/>
                  </use>
                  <path fill="none" stroke="white" stroke-width="1.5" d="M0,-3.0v7 M-2.5,-0.5L0,-3.0L2.5,-0.5"/>
                </g>
                <g id="arrowRight" xlink:href="#dirArrow" transform="rotate(90) translate(36 -43)" onmousedown="handlePan(1,0)">
                  <use xlink:href="#rim" fill="#404040">
                        <set attributeName="fill" to="#808080" begin="arrowRight.mouseover" end="arrowRight.mouseout"/>
                  </use>
                  <path fill="none" stroke="white" stroke-width="1.5" d="M0,-3.0v7 M-2.5,-0.5L0,-3.0L2.5,-0.5"/>
                </g>
                <g id="arrowDown" xlink:href="#dirArrow" transform="rotate(180) translate(-30 -48)" onmousedown="handlePan(0,1)">
                  <use xlink:href="#rim" fill="#404040">
                        <set attributeName="fill" to="#808080" begin="arrowDown.mouseover" end="arrowDown.mouseout"/>
                  </use>
                  <path fill="none" stroke="white" stroke-width="1.5" d="M0,-3.0v7 M-2.5,-0.5L0,-3.0L2.5,-0.5"/>
                </g>
                <g id="arrowLeft" xlink:href="#dirArrow" transform="rotate(270) translate(-36 17)" onmousedown="handlePan(-1,0)">
                  <use xlink:href="#rim" fill="#404040">
                        <set attributeName="fill" to="#808080" begin="arrowLeft.mouseover" end="arrowLeft.mouseout"/>
                  </use>
                  <path fill="none" stroke="white" stroke-width="1.5" d="M0,-3.0v7 M-2.5,-0.5L0,-3.0L2.5,-0.5"/>
                </g>
        </g>
        <svg viewBox="0 0 15 15" width="100%" height="30px" preserveAspectRatio="xMaxYMin meet">
         <g id="arrow_out" transform="scale(0.3 0.3)">
          <a xlink:href="Output_8h__incl_org.svg" target="_base">
           <rect id="button" ry="5" rx="5" y="6" x="6" height="38" width="38"
                fill="#f2f5e9" fill-opacity="0.5" stroke="#606060" stroke-width="1.0"/>
           <path id="arrow"
             d="M 11.500037,31.436501 C 11.940474,20.09759 22.043105,11.32322 32.158766,21.979434 L 37.068811,17.246167 C 37.068811,17.246167 37.088388,32 37.088388,32 L 22.160133,31.978069 C 22.160133,31.978069 26.997745,27.140456 26.997745,27.140456 C 18.528582,18.264221 13.291696,25.230495 11.500037,31.436501 z"
             style="fill:#404040;"/>
          </a>
         </g>
        </svg>
</svg>
