<?xml version="1.0" encoding="UTF-8" standalone="no"?>
<!DOCTYPE svg PUBLIC "-//W3C//DTD SVG 1.1//EN"
 "http://www.w3.org/Graphics/SVG/1.1/DTD/svg11.dtd">
<!-- Generated by graphviz version 2.36.0 (20140111.2315)
 -->
<!-- Title: /home/travis/build/AliceO2Group/AliceO2/Detectors/ITSMFT/ITS/tracking/include/ITStracking/ROframe.h Pages: 1 -->
<svg width="887pt" height="262pt"
 viewBox="0.00 0.00 887.00 262.00" xmlns="http://www.w3.org/2000/svg" xmlns:xlink="http://www.w3.org/1999/xlink">
<g id="graph0" class="graph" transform="scale(1 1) rotate(0) translate(4 258)">
<title>/home/travis/build/AliceO2Group/AliceO2/Detectors/ITSMFT/ITS/tracking/include/ITStracking/ROframe.h</title>
<!-- Node1 -->
<g id="node1" class="node"><title>Node1</title>
<polygon fill="#bfbfbf" stroke="black" points="469.5,-190.5 469.5,-253.5 610.5,-253.5 610.5,-190.5 469.5,-190.5"/>
<text text-anchor="start" x="477.5" y="-241.5" font-family="Helvetica,sans-Serif" font-size="10.00">/home/travis/build</text>
<text text-anchor="start" x="477.5" y="-230.5" font-family="Helvetica,sans-Serif" font-size="10.00">/AliceO2Group/AliceO2</text>
<text text-anchor="start" x="477.5" y="-219.5" font-family="Helvetica,sans-Serif" font-size="10.00">/Detectors/ITSMFT/ITS</text>
<text text-anchor="start" x="477.5" y="-208.5" font-family="Helvetica,sans-Serif" font-size="10.00">/tracking/include/ITStracking</text>
<text text-anchor="middle" x="540" y="-197.5" font-family="Helvetica,sans-Serif" font-size="10.00">/ROframe.h</text>
</g>
<!-- Node2 -->
<g id="node2" class="node"><title>Node2</title>
<g id="a_node2"><a xlink:href="../../d7/dba/IOUtils_8h.html" target="_top" xlink:title="/home/travis/build\l/AliceO2Group/AliceO2\l/Detectors/ITSMFT/ITS\l/tracking/include/ITStracking\l/IOUtils.h">
<polygon fill="none" stroke="black" points="390.5,-90.5 390.5,-153.5 531.5,-153.5 531.5,-90.5 390.5,-90.5"/>
<text text-anchor="start" x="398.5" y="-141.5" font-family="Helvetica,sans-Serif" font-size="10.00">/home/travis/build</text>
<text text-anchor="start" x="398.5" y="-130.5" font-family="Helvetica,sans-Serif" font-size="10.00">/AliceO2Group/AliceO2</text>
<text text-anchor="start" x="398.5" y="-119.5" font-family="Helvetica,sans-Serif" font-size="10.00">/Detectors/ITSMFT/ITS</text>
<text text-anchor="start" x="398.5" y="-108.5" font-family="Helvetica,sans-Serif" font-size="10.00">/tracking/include/ITStracking</text>
<text text-anchor="middle" x="461" y="-97.5" font-family="Helvetica,sans-Serif" font-size="10.00">/IOUtils.h</text>
</a>
</g>
</g>
<!-- Node1&#45;&gt;Node2 -->
<g id="edge1" class="edge"><title>Node1&#45;&gt;Node2</title>
<path fill="none" stroke="midnightblue" d="M508.885,-182.401C501.184,-172.849 493.038,-162.744 485.691,-153.63"/>
<polygon fill="midnightblue" stroke="midnightblue" points="506.22,-184.672 515.221,-190.261 511.67,-180.279 506.22,-184.672"/>
</g>
<!-- Node5 -->
<g id="node5" class="node"><title>Node5</title>
<g id="a_node5"><a xlink:href="../../d6/db2/run__trac__ca__its_8C.html" target="_top" xlink:title="/home/travis/build\l/AliceO2Group/AliceO2\l/macro/run_trac_ca_its.C">
<polygon fill="none" stroke="black" points="142.5,-6.5 142.5,-47.5 269.5,-47.5 269.5,-6.5 142.5,-6.5"/>
<text text-anchor="start" x="150.5" y="-35.5" font-family="Helvetica,sans-Serif" font-size="10.00">/home/travis/build</text>
<text text-anchor="start" x="150.5" y="-24.5" font-family="Helvetica,sans-Serif" font-size="10.00">/AliceO2Group/AliceO2</text>
<text text-anchor="middle" x="206" y="-13.5" font-family="Helvetica,sans-Serif" font-size="10.00">/macro/run_trac_ca_its.C</text>
</a>
</g>
</g>
<!-- Node1&#45;&gt;Node5 -->
<g id="edge16" class="edge"><title>Node1&#45;&gt;Node5</title>
<path fill="none" stroke="midnightblue" d="M460.085,-191.527C434.245,-180.899 405.86,-168.03 381,-154 338.883,-130.231 332.248,-118.256 293,-90 273.282,-75.8041 250.962,-59.9018 233.867,-47.7567"/>
<polygon fill="midnightblue" stroke="midnightblue" points="458.897,-194.822 469.479,-195.339 461.529,-188.336 458.897,-194.822"/>
</g>
<!-- Node7 -->
<g id="node7" class="node"><title>Node7</title>
<g id="a_node7"><a xlink:href="../../d7/da0/ITSMFT_2ITS_2tracking_2include_2ITStracking_2Tracker_8h.html" target="_top" xlink:title="/home/travis/build\l/AliceO2Group/AliceO2\l/Detectors/ITSMFT/ITS\l/tracking/include/ITStracking\l/Tracker.h">
<polygon fill="none" stroke="black" points="143.5,-90.5 143.5,-153.5 284.5,-153.5 284.5,-90.5 143.5,-90.5"/>
<text text-anchor="start" x="151.5" y="-141.5" font-family="Helvetica,sans-Serif" font-size="10.00">/home/travis/build</text>
<text text-anchor="start" x="151.5" y="-130.5" font-family="Helvetica,sans-Serif" font-size="10.00">/AliceO2Group/AliceO2</text>
<text text-anchor="start" x="151.5" y="-119.5" font-family="Helvetica,sans-Serif" font-size="10.00">/Detectors/ITSMFT/ITS</text>
<text text-anchor="start" x="151.5" y="-108.5" font-family="Helvetica,sans-Serif" font-size="10.00">/tracking/include/ITStracking</text>
<text text-anchor="middle" x="214" y="-97.5" font-family="Helvetica,sans-Serif" font-size="10.00">/Tracker.h</text>
</a>
</g>
</g>
<!-- Node1&#45;&gt;Node7 -->
<g id="edge6" class="edge"><title>Node1&#45;&gt;Node7</title>
<path fill="none" stroke="midnightblue" d="M459.446,-197.191C416.534,-184.462 362.867,-168.472 315,-154 305.168,-151.027 294.804,-147.872 284.612,-144.756"/>
<polygon fill="midnightblue" stroke="midnightblue" points="458.688,-200.617 469.27,-200.104 460.678,-193.905 458.688,-200.617"/>
</g>
<!-- Node9 -->
<g id="node9" class="node"><title>Node9</title>
<g id="a_node9"><a xlink:href="../../de/d9b/Vertexer_8h.html" target="_top" xlink:title="/home/travis/build\l/AliceO2Group/AliceO2\l/Detectors/ITSMFT/ITS\l/tracking/include/ITStracking\l/Vertexer.h">
<polygon fill="none" stroke="black" points="549.5,-90.5 549.5,-153.5 690.5,-153.5 690.5,-90.5 549.5,-90.5"/>
<text text-anchor="start" x="557.5" y="-141.5" font-family="Helvetica,sans-Serif" font-size="10.00">/home/travis/build</text>
<text text-anchor="start" x="557.5" y="-130.5" font-family="Helvetica,sans-Serif" font-size="10.00">/AliceO2Group/AliceO2</text>
<text text-anchor="start" x="557.5" y="-119.5" font-family="Helvetica,sans-Serif" font-size="10.00">/Detectors/ITSMFT/ITS</text>
<text text-anchor="start" x="557.5" y="-108.5" font-family="Helvetica,sans-Serif" font-size="10.00">/tracking/include/ITStracking</text>
<text text-anchor="middle" x="620" y="-97.5" font-family="Helvetica,sans-Serif" font-size="10.00">/Vertexer.h</text>
</a>
</g>
</g>
<!-- Node1&#45;&gt;Node9 -->
<g id="edge10" class="edge"><title>Node1&#45;&gt;Node9</title>
<path fill="none" stroke="midnightblue" d="M571.509,-182.401C579.307,-172.849 587.556,-162.744 594.996,-153.63"/>
<polygon fill="midnightblue" stroke="midnightblue" points="568.705,-180.301 565.093,-190.261 574.128,-184.728 568.705,-180.301"/>
</g>
<!-- Node10 -->
<g id="node10" class="node"><title>Node10</title>
<g id="a_node10"><a xlink:href="../../da/d5d/Vertexer_8cxx.html" target="_top" xlink:title="/home/travis/build\l/AliceO2Group/AliceO2\l/Detectors/ITSMFT/ITS\l/tracking/src/Vertexer.cxx">
<polygon fill="none" stroke="black" points="710.5,-1 710.5,-53 839.5,-53 839.5,-1 710.5,-1"/>
<text text-anchor="start" x="718.5" y="-41" font-family="Helvetica,sans-Serif" font-size="10.00">/home/travis/build</text>
<text text-anchor="start" x="718.5" y="-30" font-family="Helvetica,sans-Serif" font-size="10.00">/AliceO2Group/AliceO2</text>
<text text-anchor="start" x="718.5" y="-19" font-family="Helvetica,sans-Serif" font-size="10.00">/Detectors/ITSMFT/ITS</text>
<text text-anchor="middle" x="775" y="-8" font-family="Helvetica,sans-Serif" font-size="10.00">/tracking/src/Vertexer.cxx</text>
</a>
</g>
</g>
<!-- Node1&#45;&gt;Node10 -->
<g id="edge15" class="edge"><title>Node1&#45;&gt;Node10</title>
<path fill="none" stroke="midnightblue" d="M620.15,-198.44C647.286,-188.039 676.409,-173.552 699,-154 700.099,-153.049 738.048,-89.7658 759.896,-53.2596"/>
<polygon fill="midnightblue" stroke="midnightblue" points="618.816,-195.202 610.648,-201.95 621.242,-201.768 618.816,-195.202"/>
</g>
<!-- Node11 -->
<g id="node11" class="node"><title>Node11</title>
<g id="a_node11"><a xlink:href="../../d4/d27/ROframe_8cxx.html" target="_top" xlink:title="/home/travis/build\l/AliceO2Group/AliceO2\l/Detectors/ITSMFT/ITS\l/tracking/src/ROframe.cxx">
<polygon fill="none" stroke="black" points="747,-96 747,-148 879,-148 879,-96 747,-96"/>
<text text-anchor="start" x="755" y="-136" font-family="Helvetica,sans-Serif" font-size="10.00">/home/travis/build</text>
<text text-anchor="start" x="755" y="-125" font-family="Helvetica,sans-Serif" font-size="10.00">/AliceO2Group/AliceO2</text>
<text text-anchor="start" x="755" y="-114" font-family="Helvetica,sans-Serif" font-size="10.00">/Detectors/ITSMFT/ITS</text>
<text text-anchor="middle" x="813" y="-103" font-family="Helvetica,sans-Serif" font-size="10.00">/tracking/src/ROframe.cxx</text>
</a>
</g>
</g>
<!-- Node1&#45;&gt;Node11 -->
<g id="edge14" class="edge"><title>Node1&#45;&gt;Node11</title>
<path fill="none" stroke="midnightblue" d="M620.417,-193.797C655.145,-181.866 696.175,-167.522 733,-154 738.173,-152.1 743.523,-150.102 748.889,-148.074"/>
<polygon fill="midnightblue" stroke="midnightblue" points="619.122,-190.542 610.798,-197.096 621.392,-197.163 619.122,-190.542"/>
</g>
<!-- Node3 -->
<g id="node3" class="node"><title>Node3</title>
<g id="a_node3"><a xlink:href="../../d5/d1a/IOUtils_8cxx.html" target="_top" xlink:title="/home/travis/build\l/AliceO2Group/AliceO2\l/Detectors/ITSMFT/ITS\l/tracking/src/IOUtils.cxx">
<polygon fill="none" stroke="black" points="424.5,-1 424.5,-53 547.5,-53 547.5,-1 424.5,-1"/>
<text text-anchor="start" x="432.5" y="-41" font-family="Helvetica,sans-Serif" font-size="10.00">/home/travis/build</text>
<text text-anchor="start" x="432.5" y="-30" font-family="Helvetica,sans-Serif" font-size="10.00">/AliceO2Group/AliceO2</text>
<text text-anchor="start" x="432.5" y="-19" font-family="Helvetica,sans-Serif" font-size="10.00">/Detectors/ITSMFT/ITS</text>
<text text-anchor="middle" x="486" y="-8" font-family="Helvetica,sans-Serif" font-size="10.00">/tracking/src/IOUtils.cxx</text>
</a>
</g>
</g>
<!-- Node2&#45;&gt;Node3 -->
<g id="edge2" class="edge"><title>Node2&#45;&gt;Node3</title>
<path fill="none" stroke="midnightblue" d="M471.912,-80.409C474.408,-71.1208 476.991,-61.5129 479.253,-53.1001"/>
<polygon fill="midnightblue" stroke="midnightblue" points="468.471,-79.7248 469.255,-90.2906 475.231,-81.542 468.471,-79.7248"/>
</g>
<!-- Node4 -->
<g id="node4" class="node"><title>Node4</title>
<g id="a_node4"><a xlink:href="../../dc/d97/run__rec__ca_8C.html" target="_top" xlink:title="/home/travis/build\l/AliceO2Group/AliceO2\l/macro/run_rec_ca.C">
<polygon fill="none" stroke="black" points="288,-6.5 288,-47.5 406,-47.5 406,-6.5 288,-6.5"/>
<text text-anchor="start" x="296" y="-35.5" font-family="Helvetica,sans-Serif" font-size="10.00">/home/travis/build</text>
<text text-anchor="start" x="296" y="-24.5" font-family="Helvetica,sans-Serif" font-size="10.00">/AliceO2Group/AliceO2</text>
<text text-anchor="middle" x="347" y="-13.5" font-family="Helvetica,sans-Serif" font-size="10.00">/macro/run_rec_ca.C</text>
</a>
</g>
</g>
<!-- Node2&#45;&gt;Node4 -->
<g id="edge3" class="edge"><title>Node2&#45;&gt;Node4</title>
<path fill="none" stroke="midnightblue" d="M415.521,-83.8986C400.291,-71.4745 383.917,-58.1163 370.995,-47.5747"/>
<polygon fill="midnightblue" stroke="midnightblue" points="413.395,-86.6813 423.356,-90.2906 417.82,-81.2572 413.395,-86.6813"/>
</g>
<!-- Node2&#45;&gt;Node5 -->
<g id="edge4" class="edge"><title>Node2&#45;&gt;Node5</title>
<path fill="none" stroke="midnightblue" d="M380.462,-91.6275C341.109,-77.2752 294.818,-60.3924 259.811,-47.6252"/>
<polygon fill="midnightblue" stroke="midnightblue" points="379.713,-95.0796 390.307,-95.2178 382.111,-88.5033 379.713,-95.0796"/>
</g>
<!-- Node6 -->
<g id="node6" class="node"><title>Node6</title>
<g id="a_node6"><a xlink:href="../../d4/da9/run__vert__ca__its_8C.html" target="_top" xlink:title="/home/travis/build\l/AliceO2Group/AliceO2\l/macro/run_vert_ca_its.C">
<polygon fill="none" stroke="black" points="565.5,-6.5 565.5,-47.5 692.5,-47.5 692.5,-6.5 565.5,-6.5"/>
<text text-anchor="start" x="573.5" y="-35.5" font-family="Helvetica,sans-Serif" font-size="10.00">/home/travis/build</text>
<text text-anchor="start" x="573.5" y="-24.5" font-family="Helvetica,sans-Serif" font-size="10.00">/AliceO2Group/AliceO2</text>
<text text-anchor="middle" x="629" y="-13.5" font-family="Helvetica,sans-Serif" font-size="10.00">/macro/run_vert_ca_its.C</text>
</a>
</g>
</g>
<!-- Node2&#45;&gt;Node6 -->
<g id="edge5" class="edge"><title>Node2&#45;&gt;Node6</title>
<path fill="none" stroke="midnightblue" d="M525.251,-85.4323C548.464,-72.5823 573.81,-58.5515 593.639,-47.5747"/>
<polygon fill="midnightblue" stroke="midnightblue" points="523.529,-82.3852 516.475,-90.2906 526.919,-88.5095 523.529,-82.3852"/>
</g>
<!-- Node7&#45;&gt;Node4 -->
<g id="edge8" class="edge"><title>Node7&#45;&gt;Node4</title>
<path fill="none" stroke="midnightblue" d="M266.57,-84.2403C284.476,-71.7198 303.792,-58.213 319.006,-47.5747"/>
<polygon fill="midnightblue" stroke="midnightblue" points="264.107,-81.6917 257.918,-90.2906 268.119,-87.4284 264.107,-81.6917"/>
</g>
<!-- Node7&#45;&gt;Node5 -->
<g id="edge9" class="edge"><title>Node7&#45;&gt;Node5</title>
<path fill="none" stroke="midnightblue" d="M210.483,-80.1125C209.51,-68.807 208.499,-57.0525 207.684,-47.5747"/>
<polygon fill="midnightblue" stroke="midnightblue" points="207.014,-80.6274 211.358,-90.2906 213.988,-80.0274 207.014,-80.6274"/>
</g>
<!-- Node8 -->
<g id="node8" class="node"><title>Node8</title>
<g id="a_node8"><a xlink:href="../../d7/dd9/ITSMFT_2ITS_2tracking_2src_2Tracker_8cxx.html" target="_top" xlink:title="/home/travis/build\l/AliceO2Group/AliceO2\l/Detectors/ITSMFT/ITS\l/tracking/src/Tracker.cxx">
<polygon fill="none" stroke="black" points="-0.5,-1 -0.5,-53 124.5,-53 124.5,-1 -0.5,-1"/>
<text text-anchor="start" x="7.5" y="-41" font-family="Helvetica,sans-Serif" font-size="10.00">/home/travis/build</text>
<text text-anchor="start" x="7.5" y="-30" font-family="Helvetica,sans-Serif" font-size="10.00">/AliceO2Group/AliceO2</text>
<text text-anchor="start" x="7.5" y="-19" font-family="Helvetica,sans-Serif" font-size="10.00">/Detectors/ITSMFT/ITS</text>
<text text-anchor="middle" x="62" y="-8" font-family="Helvetica,sans-Serif" font-size="10.00">/tracking/src/Tracker.cxx</text>
</a>
</g>
</g>
<!-- Node7&#45;&gt;Node8 -->
<g id="edge7" class="edge"><title>Node7&#45;&gt;Node8</title>
<path fill="none" stroke="midnightblue" d="M154.875,-84.8249C137.538,-74.2176 118.968,-62.8553 103.024,-53.1001"/>
<polygon fill="midnightblue" stroke="midnightblue" points="153.452,-88.057 163.808,-90.2906 157.105,-82.086 153.452,-88.057"/>
</g>
<!-- Node9&#45;&gt;Node4 -->
<g id="edge12" class="edge"><title>Node9&#45;&gt;Node4</title>
<path fill="none" stroke="midnightblue" d="M540.291,-90.0983C540.194,-90.0655 540.097,-90.0327 540,-90 485.214,-71.537 469.828,-72.3402 415,-54 409.007,-51.9953 402.761,-49.7818 396.589,-47.5176"/>
<polygon fill="midnightblue" stroke="midnightblue" points="538.86,-93.3064 549.455,-93.2706 541.15,-86.6916 538.86,-93.3064"/>
</g>
<!-- Node9&#45;&gt;Node6 -->
<g id="edge13" class="edge"><title>Node9&#45;&gt;Node6</title>
<path fill="none" stroke="midnightblue" d="M623.957,-80.1125C625.051,-68.807 626.188,-57.0525 627.106,-47.5747"/>
<polygon fill="midnightblue" stroke="midnightblue" points="620.451,-79.9999 622.972,-90.2906 627.419,-80.6742 620.451,-79.9999"/>
</g>
<!-- Node9&#45;&gt;Node10 -->
<g id="edge11" class="edge"><title>Node9&#45;&gt;Node10</title>
<path fill="none" stroke="midnightblue" d="M679.806,-85.1167C697.623,-74.4262 716.759,-62.9448 733.166,-53.1001"/>
<polygon fill="midnightblue" stroke="midnightblue" points="677.957,-82.1443 671.182,-90.2906 681.558,-88.1468 677.957,-82.1443"/>
</g>
</g>
</svg>
