<?xml version="1.0" encoding="UTF-8" standalone="no"?>
<!DOCTYPE svg PUBLIC "-//W3C//DTD SVG 1.1//EN"
 "http://www.w3.org/Graphics/SVG/1.1/DTD/svg11.dtd">
<!-- Generated by graphviz version 2.36.0 (20140111.2315)
 -->
<!-- Title: /home/travis/build/AliceO2Group/AliceO2/Detectors/ITSMFT/ITS/reconstruction/src/TrivialClusterer.cxx Pages: 1 -->
<svg width="2205pt" height="470pt"
 viewBox="0.00 0.00 2205.00 470.00" xmlns="http://www.w3.org/2000/svg" xmlns:xlink="http://www.w3.org/1999/xlink">
<g id="graph0" class="graph" transform="scale(1 1) rotate(0) translate(4 466)">
<title>/home/travis/build/AliceO2Group/AliceO2/Detectors/ITSMFT/ITS/reconstruction/src/TrivialClusterer.cxx</title>
<!-- Node1 -->
<g id="node1" class="node"><title>Node1</title>
<polygon fill="#bfbfbf" stroke="black" points="1670.5,-409 1670.5,-461 1855.5,-461 1855.5,-409 1670.5,-409"/>
<text text-anchor="start" x="1678.5" y="-449" font-family="Helvetica,sans-Serif" font-size="10.00">/home/travis/build</text>
<text text-anchor="start" x="1678.5" y="-438" font-family="Helvetica,sans-Serif" font-size="10.00">/AliceO2Group/AliceO2</text>
<text text-anchor="start" x="1678.5" y="-427" font-family="Helvetica,sans-Serif" font-size="10.00">/Detectors/ITSMFT/ITS</text>
<text text-anchor="middle" x="1763" y="-416" font-family="Helvetica,sans-Serif" font-size="10.00">/reconstruction/src/TrivialClusterer.cxx</text>
</g>
<!-- Node2 -->
<g id="node2" class="node"><title>Node2</title>
<g id="a_node2"><a xlink:href="../../dd/d76/Cartesian3D_8h.html" target="_top" xlink:title="MathUtils/Cartesian3D.h">
<polygon fill="none" stroke="black" points="820.5,-142.5 820.5,-161.5 945.5,-161.5 945.5,-142.5 820.5,-142.5"/>
<text text-anchor="middle" x="883" y="-149.5" font-family="Helvetica,sans-Serif" font-size="10.00">MathUtils/Cartesian3D.h</text>
</a>
</g>
</g>
<!-- Node1&#45;&gt;Node2 -->
<g id="edge1" class="edge"><title>Node1&#45;&gt;Node2</title>
<path fill="none" stroke="midnightblue" d="M1670.28,-432.107C1546.06,-427.944 1319.45,-414.622 1131,-372 999.559,-342.272 917.669,-357.798 860,-236 849.837,-214.535 861.138,-187.756 871.181,-170.519"/>
<polygon fill="midnightblue" stroke="midnightblue" points="874.435,-171.918 876.778,-161.586 868.503,-168.202 874.435,-171.918"/>
</g>
<!-- Node14 -->
<g id="node14" class="node"><title>Node14</title>
<g id="a_node14"><a xlink:href="../../d0/d06/ITSMFT_2common_2base_2include_2ITSMFTBase_2Digit_8h.html" target="_top" xlink:title="ITSMFTBase/Digit.h">
<polygon fill="none" stroke="black" points="1751.5,-346.5 1751.5,-365.5 1858.5,-365.5 1858.5,-346.5 1751.5,-346.5"/>
<text text-anchor="middle" x="1805" y="-353.5" font-family="Helvetica,sans-Serif" font-size="10.00">ITSMFTBase/Digit.h</text>
</a>
</g>
</g>
<!-- Node1&#45;&gt;Node14 -->
<g id="edge13" class="edge"><title>Node1&#45;&gt;Node14</title>
<path fill="none" stroke="midnightblue" d="M1776.75,-408.787C1782.85,-397.603 1789.88,-384.713 1795.4,-374.591"/>
<polygon fill="midnightblue" stroke="midnightblue" points="1798.62,-376.013 1800.33,-365.558 1792.47,-372.661 1798.62,-376.013"/>
</g>
<!-- Node16 -->
<g id="node16" class="node"><title>Node16</title>
<g id="a_node16"><a xlink:href="../../d3/dba/SegmentationAlpide_8h.html" target="_top" xlink:title="Definition of the SegmentationAlpide class. ">
<polygon fill="none" stroke="black" points="1896.5,-278.5 1896.5,-297.5 2069.5,-297.5 2069.5,-278.5 1896.5,-278.5"/>
<text text-anchor="middle" x="1983" y="-285.5" font-family="Helvetica,sans-Serif" font-size="10.00">ITSMFTBase/SegmentationAlpide.h</text>
</a>
</g>
</g>
<!-- Node1&#45;&gt;Node16 -->
<g id="edge16" class="edge"><title>Node1&#45;&gt;Node16</title>
<path fill="none" stroke="midnightblue" d="M1807.02,-408.856C1825.73,-397.886 1847.65,-384.659 1867,-372 1901.76,-349.261 1940.77,-320.687 1963.54,-303.687"/>
<polygon fill="midnightblue" stroke="midnightblue" points="1965.79,-306.368 1971.7,-297.57 1961.6,-300.767 1965.79,-306.368"/>
</g>
<!-- Node17 -->
<g id="node17" class="node"><title>Node17</title>
<g id="a_node17"><a xlink:href="../../d1/d76/TrivialClusterer_8h.html" target="_top" xlink:title="Definition of the ITS cluster finder. ">
<polygon fill="none" stroke="black" points="1504,-341 1504,-371 1632,-371 1632,-341 1504,-341"/>
<text text-anchor="start" x="1512" y="-359" font-family="Helvetica,sans-Serif" font-size="10.00">ITSReconstruction/Trivial</text>
<text text-anchor="middle" x="1568" y="-348" font-family="Helvetica,sans-Serif" font-size="10.00">Clusterer.h</text>
</a>
</g>
</g>
<!-- Node1&#45;&gt;Node17 -->
<g id="edge18" class="edge"><title>Node1&#45;&gt;Node17</title>
<path fill="none" stroke="midnightblue" d="M1699.42,-408.894C1671.23,-397.764 1638.73,-384.928 1613.1,-374.807"/>
<polygon fill="midnightblue" stroke="midnightblue" points="1614.22,-371.488 1603.63,-371.07 1611.65,-377.998 1614.22,-371.488"/>
</g>
<!-- Node34 -->
<g id="node34" class="node"><title>Node34</title>
<g id="a_node34"><a xlink:href="../../d1/d62/DataFormats_2Detectors_2ITSMFT_2common_2include_2DataFormatsITSMFT_2Cluster_8h.html" target="_top" xlink:title="DataFormatsITSMFT/Cluster.h">
<polygon fill="none" stroke="black" points="1140,-346.5 1140,-365.5 1292,-365.5 1292,-346.5 1140,-346.5"/>
<text text-anchor="middle" x="1216" y="-353.5" font-family="Helvetica,sans-Serif" font-size="10.00">DataFormatsITSMFT/Cluster.h</text>
</a>
</g>
</g>
<!-- Node1&#45;&gt;Node34 -->
<g id="edge40" class="edge"><title>Node1&#45;&gt;Node34</title>
<path fill="none" stroke="midnightblue" d="M1670.21,-420.938C1561.73,-405.667 1384.59,-380.732 1286.66,-366.947"/>
<polygon fill="midnightblue" stroke="midnightblue" points="1286.96,-363.454 1276.57,-365.526 1285.98,-370.386 1286.96,-363.454"/>
</g>
<!-- Node39 -->
<g id="node39" class="node"><title>Node39</title>
<g id="a_node39"><a xlink:href="../../d7/dcd/MCCompLabel_8h.html" target="_top" xlink:title="SimulationDataFormat\l/MCCompLabel.h">
<polygon fill="none" stroke="black" points="1663,-273 1663,-303 1777,-303 1777,-273 1663,-273"/>
<text text-anchor="start" x="1671" y="-291" font-family="Helvetica,sans-Serif" font-size="10.00">SimulationDataFormat</text>
<text text-anchor="middle" x="1720" y="-280" font-family="Helvetica,sans-Serif" font-size="10.00">/MCCompLabel.h</text>
</a>
</g>
</g>
<!-- Node1&#45;&gt;Node39 -->
<g id="edge49" class="edge"><title>Node1&#45;&gt;Node39</title>
<path fill="none" stroke="midnightblue" d="M1754.59,-408.736C1750.92,-397.518 1746.64,-384.134 1743,-372 1737.08,-352.261 1730.87,-329.721 1726.4,-313.116"/>
<polygon fill="midnightblue" stroke="midnightblue" points="1729.7,-311.904 1723.73,-303.15 1722.93,-313.715 1729.7,-311.904"/>
</g>
<!-- Node40 -->
<g id="node40" class="node"><title>Node40</title>
<g id="a_node40"><a xlink:href="../../db/d14/MCTruthContainer_8h.html" target="_top" xlink:title="Definition of a container to keep Monte Carlo truth external to simulation objects. ">
<polygon fill="none" stroke="black" points="1936,-137 1936,-167 2050,-167 2050,-137 1936,-137"/>
<text text-anchor="start" x="1944" y="-155" font-family="Helvetica,sans-Serif" font-size="10.00">SimulationDataFormat</text>
<text text-anchor="middle" x="1993" y="-144" font-family="Helvetica,sans-Serif" font-size="10.00">/MCTruthContainer.h</text>
</a>
</g>
</g>
<!-- Node1&#45;&gt;Node40 -->
<g id="edge51" class="edge"><title>Node1&#45;&gt;Node40</title>
<path fill="none" stroke="midnightblue" d="M1855.65,-423.389C1929.65,-409.497 2028.81,-377.509 2078,-304 2107.89,-259.326 2054.65,-203.455 2019.76,-173.779"/>
<polygon fill="midnightblue" stroke="midnightblue" points="2021.71,-170.849 2011.78,-167.166 2017.25,-176.24 2021.71,-170.849"/>
</g>
<!-- Node44 -->
<g id="node44" class="node"><title>Node44</title>
<polygon fill="none" stroke="#bfbfbf" points="2126.5,-346.5 2126.5,-365.5 2197.5,-365.5 2197.5,-346.5 2126.5,-346.5"/>
<text text-anchor="middle" x="2162" y="-353.5" font-family="Helvetica,sans-Serif" font-size="10.00">FairLogger.h</text>
</g>
<!-- Node1&#45;&gt;Node44 -->
<g id="edge57" class="edge"><title>Node1&#45;&gt;Node44</title>
<path fill="none" stroke="midnightblue" d="M1855.82,-420.506C1926.49,-409.51 2025.94,-392.48 2112,-372 2116.49,-370.933 2121.16,-369.697 2125.78,-368.402"/>
<polygon fill="midnightblue" stroke="midnightblue" points="2127.06,-371.673 2135.69,-365.516 2125.11,-364.952 2127.06,-371.673"/>
</g>
<!-- Node3 -->
<g id="node3" class="node"><title>Node3</title>
<polygon fill="none" stroke="#bfbfbf" points="1014.5,-69 1014.5,-99 1165.5,-99 1165.5,-69 1014.5,-69"/>
<text text-anchor="start" x="1022.5" y="-87" font-family="Helvetica,sans-Serif" font-size="10.00">Math/GenVector/Displacement</text>
<text text-anchor="middle" x="1090" y="-76" font-family="Helvetica,sans-Serif" font-size="10.00">Vector3D.h</text>
</g>
<!-- Node2&#45;&gt;Node3 -->
<g id="edge2" class="edge"><title>Node2&#45;&gt;Node3</title>
<path fill="none" stroke="midnightblue" d="M910.062,-142.372C941.953,-132.203 995.72,-115.06 1036.19,-102.156"/>
<polygon fill="midnightblue" stroke="midnightblue" points="1037.45,-105.429 1045.91,-99.0562 1035.32,-98.7594 1037.45,-105.429"/>
</g>
<!-- Node4 -->
<g id="node4" class="node"><title>Node4</title>
<polygon fill="none" stroke="#bfbfbf" points="63,-74.5 63,-93.5 239,-93.5 239,-74.5 63,-74.5"/>
<text text-anchor="middle" x="151" y="-81.5" font-family="Helvetica,sans-Serif" font-size="10.00">Math/GenVector/PositionVector3D.h</text>
</g>
<!-- Node2&#45;&gt;Node4 -->
<g id="edge3" class="edge"><title>Node2&#45;&gt;Node4</title>
<path fill="none" stroke="midnightblue" d="M844.381,-142.472C832.159,-140.044 818.562,-137.621 806,-136 559.089,-104.133 494.464,-127.245 247,-100 235.079,-98.6876 222.376,-96.9473 210.244,-95.1179"/>
<polygon fill="midnightblue" stroke="midnightblue" points="210.634,-91.6368 200.217,-93.5678 209.565,-98.5546 210.634,-91.6368"/>
</g>
<!-- Node5 -->
<g id="node5" class="node"><title>Node5</title>
<polygon fill="none" stroke="#bfbfbf" points="256.5,-74.5 256.5,-93.5 405.5,-93.5 405.5,-74.5 256.5,-74.5"/>
<text text-anchor="middle" x="331" y="-81.5" font-family="Helvetica,sans-Serif" font-size="10.00">Math/GenVector/Rotation3D.h</text>
</g>
<!-- Node2&#45;&gt;Node5 -->
<g id="edge4" class="edge"><title>Node2&#45;&gt;Node5</title>
<path fill="none" stroke="midnightblue" d="M843.165,-142.448C831.253,-140.105 818.134,-137.736 806,-136 633.246,-111.284 587.942,-123.36 415,-100 405.201,-98.6764 394.801,-97.0232 384.779,-95.3023"/>
<polygon fill="midnightblue" stroke="midnightblue" points="385.376,-91.8536 374.921,-93.5686 384.163,-98.7478 385.376,-91.8536"/>
</g>
<!-- Node6 -->
<g id="node6" class="node"><title>Node6</title>
<polygon fill="none" stroke="#bfbfbf" points="424,-74.5 424,-93.5 580,-93.5 580,-74.5 424,-74.5"/>
<text text-anchor="middle" x="502" y="-81.5" font-family="Helvetica,sans-Serif" font-size="10.00">Math/GenVector/Transform3D.h</text>
</g>
<!-- Node2&#45;&gt;Node6 -->
<g id="edge5" class="edge"><title>Node2&#45;&gt;Node6</title>
<path fill="none" stroke="midnightblue" d="M840.275,-142.456C829.13,-140.288 817.125,-138.006 806,-136 709.789,-118.652 685.393,-116.305 589,-100 580.011,-98.4794 570.501,-96.8556 561.199,-95.2586"/>
<polygon fill="midnightblue" stroke="midnightblue" points="561.67,-91.7882 551.222,-93.5424 560.484,-98.6869 561.67,-91.7882"/>
</g>
<!-- Node7 -->
<g id="node7" class="node"><title>Node7</title>
<polygon fill="none" stroke="#bfbfbf" points="598,-74.5 598,-93.5 758,-93.5 758,-74.5 598,-74.5"/>
<text text-anchor="middle" x="678" y="-81.5" font-family="Helvetica,sans-Serif" font-size="10.00">Math/GenVector/Translation3D.h</text>
</g>
<!-- Node2&#45;&gt;Node7 -->
<g id="edge6" class="edge"><title>Node2&#45;&gt;Node7</title>
<path fill="none" stroke="midnightblue" d="M856.2,-142.372C819.804,-130.654 754.638,-109.674 714.003,-96.5912"/>
<polygon fill="midnightblue" stroke="midnightblue" points="715.073,-93.259 704.482,-93.5259 712.928,-99.9221 715.073,-93.259"/>
</g>
<!-- Node8 -->
<g id="node8" class="node"><title>Node8</title>
<polygon fill="none" stroke="#bfbfbf" points="1701,-74.5 1701,-93.5 1757,-93.5 1757,-74.5 1701,-74.5"/>
<text text-anchor="middle" x="1729" y="-81.5" font-family="Helvetica,sans-Serif" font-size="10.00">Rtypes.h</text>
</g>
<!-- Node2&#45;&gt;Node8 -->
<g id="edge7" class="edge"><title>Node2&#45;&gt;Node8</title>
<path fill="none" stroke="midnightblue" d="M945.552,-146.12C1110.99,-133.214 1556.51,-98.4567 1690.42,-88.01"/>
<polygon fill="midnightblue" stroke="midnightblue" points="1690.9,-91.4829 1700.6,-87.2156 1690.36,-84.5041 1690.9,-91.4829"/>
</g>
<!-- Node9 -->
<g id="node9" class="node"><title>Node9</title>
<polygon fill="none" stroke="#bfbfbf" points="920,-74.5 920,-93.5 996,-93.5 996,-74.5 920,-74.5"/>
<text text-anchor="middle" x="958" y="-81.5" font-family="Helvetica,sans-Serif" font-size="10.00">TGeoMatrix.h</text>
</g>
<!-- Node2&#45;&gt;Node9 -->
<g id="edge8" class="edge"><title>Node2&#45;&gt;Node9</title>
<path fill="none" stroke="midnightblue" d="M892.805,-142.372C904.866,-131.758 925.562,-113.545 940.403,-100.485"/>
<polygon fill="midnightblue" stroke="midnightblue" points="942.758,-103.075 947.953,-93.8411 938.134,-97.8199 942.758,-103.075"/>
</g>
<!-- Node10 -->
<g id="node10" class="node"><title>Node10</title>
<polygon fill="none" stroke="#bfbfbf" points="-0.5,-74.5 -0.5,-93.5 44.5,-93.5 44.5,-74.5 -0.5,-74.5"/>
<text text-anchor="middle" x="22" y="-81.5" font-family="Helvetica,sans-Serif" font-size="10.00">iosfwd</text>
</g>
<!-- Node2&#45;&gt;Node10 -->
<g id="edge9" class="edge"><title>Node2&#45;&gt;Node10</title>
<path fill="none" stroke="midnightblue" d="M844.79,-142.425C832.468,-139.964 818.71,-137.534 806,-136 639.903,-115.953 216.384,-140.27 54,-100 51.4988,-99.3797 48.957,-98.5592 46.4552,-97.6209"/>
<polygon fill="midnightblue" stroke="midnightblue" points="47.7421,-94.364 37.1754,-93.5925 44.9546,-100.785 47.7421,-94.364"/>
</g>
<!-- Node11 -->
<g id="node11" class="node"><title>Node11</title>
<g id="a_node11"><a xlink:href="../../d2/dd0/Cartesian2D_8h.html" target="_top" xlink:title="MathUtils/Cartesian2D.h">
<polygon fill="none" stroke="black" points="776.5,-74.5 776.5,-93.5 901.5,-93.5 901.5,-74.5 776.5,-74.5"/>
<text text-anchor="middle" x="839" y="-81.5" font-family="Helvetica,sans-Serif" font-size="10.00">MathUtils/Cartesian2D.h</text>
</a>
</g>
</g>
<!-- Node2&#45;&gt;Node11 -->
<g id="edge10" class="edge"><title>Node2&#45;&gt;Node11</title>
<path fill="none" stroke="midnightblue" d="M877.248,-142.372C870.5,-132.25 859.144,-115.215 850.554,-102.331"/>
<polygon fill="midnightblue" stroke="midnightblue" points="853.353,-100.22 844.894,-93.8411 847.529,-104.103 853.353,-100.22"/>
</g>
<!-- Node12 -->
<g id="node12" class="node"><title>Node12</title>
<polygon fill="none" stroke="#bfbfbf" points="672.5,-1 672.5,-31 823.5,-31 823.5,-1 672.5,-1"/>
<text text-anchor="start" x="680.5" y="-19" font-family="Helvetica,sans-Serif" font-size="10.00">Math/GenVector/Displacement</text>
<text text-anchor="middle" x="748" y="-8" font-family="Helvetica,sans-Serif" font-size="10.00">Vector2D.h</text>
</g>
<!-- Node11&#45;&gt;Node12 -->
<g id="edge11" class="edge"><title>Node11&#45;&gt;Node12</title>
<path fill="none" stroke="midnightblue" d="M827.103,-74.3717C814.221,-65.0286 793.22,-49.7966 776.093,-37.375"/>
<polygon fill="midnightblue" stroke="midnightblue" points="777.703,-34.2194 767.553,-31.1815 773.593,-39.8859 777.703,-34.2194"/>
</g>
<!-- Node13 -->
<g id="node13" class="node"><title>Node13</title>
<polygon fill="none" stroke="#bfbfbf" points="842,-6.5 842,-25.5 1018,-25.5 1018,-6.5 842,-6.5"/>
<text text-anchor="middle" x="930" y="-13.5" font-family="Helvetica,sans-Serif" font-size="10.00">Math/GenVector/PositionVector2D.h</text>
</g>
<!-- Node11&#45;&gt;Node13 -->
<g id="edge12" class="edge"><title>Node11&#45;&gt;Node13</title>
<path fill="none" stroke="midnightblue" d="M850.897,-74.3717C865.884,-63.5015 891.862,-44.6602 909.942,-31.5474"/>
<polygon fill="midnightblue" stroke="midnightblue" points="912.06,-34.3349 918.1,-25.6305 907.95,-28.6684 912.06,-34.3349"/>
</g>
<!-- Node14&#45;&gt;Node8 -->
<g id="edge14" class="edge"><title>Node14&#45;&gt;Node8</title>
<path fill="none" stroke="midnightblue" d="M1804.01,-346.396C1800.4,-316.508 1786.53,-214.717 1757,-136 1752.58,-124.226 1745.84,-111.842 1740.08,-102.226"/>
<polygon fill="midnightblue" stroke="midnightblue" points="1743.01,-100.312 1734.76,-93.6572 1737.06,-104.001 1743.01,-100.312"/>
</g>
<!-- Node15 -->
<g id="node15" class="node"><title>Node15</title>
<polygon fill="none" stroke="#bfbfbf" points="1833.5,-278.5 1833.5,-297.5 1878.5,-297.5 1878.5,-278.5 1833.5,-278.5"/>
<text text-anchor="middle" x="1856" y="-285.5" font-family="Helvetica,sans-Serif" font-size="10.00">climits</text>
</g>
<!-- Node14&#45;&gt;Node15 -->
<g id="edge15" class="edge"><title>Node14&#45;&gt;Node15</title>
<path fill="none" stroke="midnightblue" d="M1811.67,-346.372C1819.56,-336.151 1832.91,-318.884 1842.9,-305.957"/>
<polygon fill="midnightblue" stroke="midnightblue" points="1845.82,-307.894 1849.17,-297.841 1840.28,-303.614 1845.82,-307.894"/>
</g>
<!-- Node16&#45;&gt;Node8 -->
<g id="edge17" class="edge"><title>Node16&#45;&gt;Node8</title>
<path fill="none" stroke="midnightblue" d="M1975.06,-278.418C1952.31,-254.139 1884.37,-183.645 1819,-136 1798.98,-121.407 1774.4,-107.731 1755.99,-98.2227"/>
<polygon fill="midnightblue" stroke="midnightblue" points="1757.48,-95.0553 1746.98,-93.6472 1754.31,-101.296 1757.48,-95.0553"/>
</g>
<!-- Node17&#45;&gt;Node8 -->
<g id="edge19" class="edge"><title>Node17&#45;&gt;Node8</title>
<path fill="none" stroke="midnightblue" d="M1527.03,-340.879C1510.27,-332.842 1492.58,-320.922 1483,-304 1460.01,-263.393 1478.04,-232.491 1515,-204 1584.8,-150.191 1646.37,-228.981 1710,-168 1727.23,-151.49 1730.28,-122.802 1730.19,-103.857"/>
<polygon fill="midnightblue" stroke="midnightblue" points="1733.68,-103.628 1729.84,-93.7553 1726.69,-103.871 1733.68,-103.628"/>
</g>
<!-- Node18 -->
<g id="node18" class="node"><title>Node18</title>
<g id="a_node18"><a xlink:href="../../d0/d2d/common_2base_2include_2ITSMFTBase_2GeometryTGeo_8h.html" target="_top" xlink:title="ITSMFTBase/GeometryTGeo.h">
<polygon fill="none" stroke="black" points="1491.5,-278.5 1491.5,-297.5 1644.5,-297.5 1644.5,-278.5 1491.5,-278.5"/>
<text text-anchor="middle" x="1568" y="-285.5" font-family="Helvetica,sans-Serif" font-size="10.00">ITSMFTBase/GeometryTGeo.h</text>
</a>
</g>
</g>
<!-- Node17&#45;&gt;Node18 -->
<g id="edge20" class="edge"><title>Node17&#45;&gt;Node18</title>
<path fill="none" stroke="midnightblue" d="M1568,-340.679C1568,-331.101 1568,-318.394 1568,-307.977"/>
<polygon fill="midnightblue" stroke="midnightblue" points="1571.5,-307.828 1568,-297.828 1564.5,-307.828 1571.5,-307.828"/>
</g>
<!-- Node19 -->
<g id="node19" class="node"><title>Node19</title>
<polygon fill="none" stroke="#bfbfbf" points="1523.5,-210.5 1523.5,-229.5 1592.5,-229.5 1592.5,-210.5 1523.5,-210.5"/>
<text text-anchor="middle" x="1558" y="-217.5" font-family="Helvetica,sans-Serif" font-size="10.00">TObjArray.h</text>
</g>
<!-- Node18&#45;&gt;Node19 -->
<g id="edge21" class="edge"><title>Node18&#45;&gt;Node19</title>
<path fill="none" stroke="midnightblue" d="M1566.69,-278.372C1565.22,-268.643 1562.78,-252.528 1560.86,-239.85"/>
<polygon fill="midnightblue" stroke="midnightblue" points="1564.3,-239.204 1559.34,-229.841 1557.38,-240.253 1564.3,-239.204"/>
</g>
<!-- Node20 -->
<g id="node20" class="node"><title>Node20</title>
<polygon fill="none" stroke="#bfbfbf" points="1610.5,-210.5 1610.5,-229.5 1651.5,-229.5 1651.5,-210.5 1610.5,-210.5"/>
<text text-anchor="middle" x="1631" y="-217.5" font-family="Helvetica,sans-Serif" font-size="10.00">string</text>
</g>
<!-- Node18&#45;&gt;Node20 -->
<g id="edge22" class="edge"><title>Node18&#45;&gt;Node20</title>
<path fill="none" stroke="midnightblue" d="M1576.24,-278.372C1586.18,-267.955 1603.11,-250.217 1615.52,-237.216"/>
<polygon fill="midnightblue" stroke="midnightblue" points="1618.19,-239.491 1622.56,-229.841 1613.12,-234.658 1618.19,-239.491"/>
</g>
<!-- Node21 -->
<g id="node21" class="node"><title>Node21</title>
<g id="a_node21"><a xlink:href="../../d4/d20/DetMatrixCache_8h.html" target="_top" xlink:title="DetectorsCommonDataFormats\l/DetMatrixCache.h">
<polygon fill="none" stroke="black" points="1189,-205 1189,-235 1345,-235 1345,-205 1189,-205"/>
<text text-anchor="start" x="1197" y="-223" font-family="Helvetica,sans-Serif" font-size="10.00">DetectorsCommonDataFormats</text>
<text text-anchor="middle" x="1267" y="-212" font-family="Helvetica,sans-Serif" font-size="10.00">/DetMatrixCache.h</text>
</a>
</g>
</g>
<!-- Node18&#45;&gt;Node21 -->
<g id="edge23" class="edge"><title>Node18&#45;&gt;Node21</title>
<path fill="none" stroke="midnightblue" d="M1528.96,-278.439C1481.52,-268.037 1400.46,-250.263 1341.04,-237.236"/>
<polygon fill="midnightblue" stroke="midnightblue" points="1341.48,-233.748 1330.96,-235.025 1339.98,-240.585 1341.48,-233.748"/>
</g>
<!-- Node21&#45;&gt;Node2 -->
<g id="edge39" class="edge"><title>Node21&#45;&gt;Node2</title>
<path fill="none" stroke="midnightblue" d="M1188.83,-205.564C1115.93,-193.035 1008.77,-174.616 942.566,-163.238"/>
<polygon fill="midnightblue" stroke="midnightblue" points="943.153,-159.788 932.704,-161.543 941.967,-166.686 943.153,-159.788"/>
</g>
<!-- Node22 -->
<g id="node22" class="node"><title>Node22</title>
<polygon fill="none" stroke="#bfbfbf" points="1413,-142.5 1413,-161.5 1555,-161.5 1555,-142.5 1413,-142.5"/>
<text text-anchor="middle" x="1484" y="-149.5" font-family="Helvetica,sans-Serif" font-size="10.00">AliTPCCommonFairLogger.h</text>
</g>
<!-- Node21&#45;&gt;Node22 -->
<g id="edge24" class="edge"><title>Node21&#45;&gt;Node22</title>
<path fill="none" stroke="midnightblue" d="M1313.29,-204.922C1352.88,-192.88 1409.17,-175.76 1446.13,-164.519"/>
<polygon fill="midnightblue" stroke="midnightblue" points="1447.46,-167.772 1456.01,-161.514 1445.42,-161.075 1447.46,-167.772"/>
</g>
<!-- Node23 -->
<g id="node23" class="node"><title>Node23</title>
<polygon fill="none" stroke="#bfbfbf" points="1573,-142.5 1573,-161.5 1701,-161.5 1701,-142.5 1573,-142.5"/>
<text text-anchor="middle" x="1637" y="-149.5" font-family="Helvetica,sans-Serif" font-size="10.00">AliTPCCommonRtypes.h</text>
</g>
<!-- Node21&#45;&gt;Node23 -->
<g id="edge25" class="edge"><title>Node21&#45;&gt;Node23</title>
<path fill="none" stroke="midnightblue" d="M1345.29,-206.272C1405.25,-196.35 1489.97,-181.959 1564,-168 1571.34,-166.617 1579.08,-165.095 1586.66,-163.567"/>
<polygon fill="midnightblue" stroke="midnightblue" points="1587.4,-166.989 1596.5,-161.566 1586.01,-160.129 1587.4,-166.989"/>
</g>
<!-- Node24 -->
<g id="node24" class="node"><title>Node24</title>
<polygon fill="none" stroke="#bfbfbf" points="1273,-6.5 1273,-25.5 1311,-25.5 1311,-6.5 1273,-6.5"/>
<text text-anchor="middle" x="1292" y="-13.5" font-family="Helvetica,sans-Serif" font-size="10.00">array</text>
</g>
<!-- Node21&#45;&gt;Node24 -->
<g id="edge26" class="edge"><title>Node21&#45;&gt;Node24</title>
<path fill="none" stroke="midnightblue" d="M1215.59,-204.903C1197.3,-197.138 1178.62,-185.415 1168,-168 1160.6,-155.857 1163.83,-149.598 1168,-136 1178.69,-101.114 1188,-93.5976 1214,-68 1229.32,-52.9136 1249.76,-39.745 1265.87,-30.5696"/>
<polygon fill="midnightblue" stroke="midnightblue" points="1267.73,-33.544 1274.79,-25.6443 1264.34,-27.417 1267.73,-33.544"/>
</g>
<!-- Node25 -->
<g id="node25" class="node"><title>Node25</title>
<polygon fill="none" stroke="#bfbfbf" points="1177,-142.5 1177,-161.5 1221,-161.5 1221,-142.5 1177,-142.5"/>
<text text-anchor="middle" x="1199" y="-149.5" font-family="Helvetica,sans-Serif" font-size="10.00">vector</text>
</g>
<!-- Node21&#45;&gt;Node25 -->
<g id="edge27" class="edge"><title>Node21&#45;&gt;Node25</title>
<path fill="none" stroke="midnightblue" d="M1252.25,-204.679C1241.43,-194.184 1226.75,-179.932 1215.54,-169.052"/>
<polygon fill="midnightblue" stroke="midnightblue" points="1217.71,-166.282 1208.1,-161.828 1212.83,-171.305 1217.71,-166.282"/>
</g>
<!-- Node26 -->
<g id="node26" class="node"><title>Node26</title>
<g id="a_node26"><a xlink:href="../../d6/d31/DetID_8h.html" target="_top" xlink:title="DetectorsCommonDataFormats\l/DetID.h">
<polygon fill="none" stroke="black" points="1239,-137 1239,-167 1395,-167 1395,-137 1239,-137"/>
<text text-anchor="start" x="1247" y="-155" font-family="Helvetica,sans-Serif" font-size="10.00">DetectorsCommonDataFormats</text>
<text text-anchor="middle" x="1317" y="-144" font-family="Helvetica,sans-Serif" font-size="10.00">/DetID.h</text>
</a>
</g>
</g>
<!-- Node21&#45;&gt;Node26 -->
<g id="edge28" class="edge"><title>Node21&#45;&gt;Node26</title>
<path fill="none" stroke="midnightblue" d="M1277.85,-204.679C1284.34,-196.117 1292.72,-185.053 1300.06,-175.36"/>
<polygon fill="midnightblue" stroke="midnightblue" points="1302.92,-177.378 1306.17,-167.293 1297.34,-173.15 1302.92,-177.378"/>
</g>
<!-- Node26&#45;&gt;Node8 -->
<g id="edge29" class="edge"><title>Node26&#45;&gt;Node8</title>
<path fill="none" stroke="midnightblue" d="M1395.25,-137.452C1398.2,-136.959 1401.13,-136.473 1404,-136 1507.62,-118.939 1630.04,-100.077 1690.81,-90.8022"/>
<polygon fill="midnightblue" stroke="midnightblue" points="1691.36,-94.2584 1700.72,-89.291 1690.31,-87.3383 1691.36,-94.2584"/>
</g>
<!-- Node26&#45;&gt;Node24 -->
<g id="edge30" class="edge"><title>Node26&#45;&gt;Node24</title>
<path fill="none" stroke="midnightblue" d="M1314.32,-136.66C1309.78,-112.32 1300.57,-62.9332 1295.51,-35.8373"/>
<polygon fill="midnightblue" stroke="midnightblue" points="1298.9,-34.916 1293.63,-25.7275 1292.02,-36.1998 1298.9,-34.916"/>
</g>
<!-- Node27 -->
<g id="node27" class="node"><title>Node27</title>
<polygon fill="none" stroke="#bfbfbf" points="1222.5,-74.5 1222.5,-93.5 1263.5,-93.5 1263.5,-74.5 1222.5,-74.5"/>
<text text-anchor="middle" x="1243" y="-81.5" font-family="Helvetica,sans-Serif" font-size="10.00">bitset</text>
</g>
<!-- Node26&#45;&gt;Node27 -->
<g id="edge31" class="edge"><title>Node26&#45;&gt;Node27</title>
<path fill="none" stroke="midnightblue" d="M1300.94,-136.679C1289.06,-126.082 1272.89,-111.655 1260.64,-100.736"/>
<polygon fill="midnightblue" stroke="midnightblue" points="1262.69,-97.8724 1252.9,-93.8283 1258.03,-103.097 1262.69,-97.8724"/>
</g>
<!-- Node28 -->
<g id="node28" class="node"><title>Node28</title>
<polygon fill="none" stroke="#bfbfbf" points="1775.5,-74.5 1775.5,-93.5 1824.5,-93.5 1824.5,-74.5 1775.5,-74.5"/>
<text text-anchor="middle" x="1800" y="-81.5" font-family="Helvetica,sans-Serif" font-size="10.00">cassert</text>
</g>
<!-- Node26&#45;&gt;Node28 -->
<g id="edge32" class="edge"><title>Node26&#45;&gt;Node28</title>
<path fill="none" stroke="midnightblue" d="M1395.21,-137.244C1398.18,-136.809 1401.11,-136.392 1404,-136 1563.77,-114.288 1608.86,-140.226 1765,-100 1767.82,-99.2733 1770.71,-98.3524 1773.55,-97.3256"/>
<polygon fill="midnightblue" stroke="midnightblue" points="1774.95,-100.536 1782.92,-93.5555 1772.34,-94.0425 1774.95,-100.536"/>
</g>
<!-- Node29 -->
<g id="node29" class="node"><title>Node29</title>
<polygon fill="none" stroke="#bfbfbf" points="1320,-74.5 1320,-93.5 1366,-93.5 1366,-74.5 1320,-74.5"/>
<text text-anchor="middle" x="1343" y="-81.5" font-family="Helvetica,sans-Serif" font-size="10.00">cstdint</text>
</g>
<!-- Node26&#45;&gt;Node29 -->
<g id="edge33" class="edge"><title>Node26&#45;&gt;Node29</title>
<path fill="none" stroke="midnightblue" d="M1322.64,-136.679C1326.49,-126.898 1331.63,-113.852 1335.79,-103.315"/>
<polygon fill="midnightblue" stroke="midnightblue" points="1339.11,-104.415 1339.52,-93.8283 1332.6,-101.85 1339.11,-104.415"/>
</g>
<!-- Node30 -->
<g id="node30" class="node"><title>Node30</title>
<polygon fill="none" stroke="#bfbfbf" points="1843,-74.5 1843,-93.5 1905,-93.5 1905,-74.5 1843,-74.5"/>
<text text-anchor="middle" x="1874" y="-81.5" font-family="Helvetica,sans-Serif" font-size="10.00">type_traits</text>
</g>
<!-- Node26&#45;&gt;Node30 -->
<g id="edge34" class="edge"><title>Node26&#45;&gt;Node30</title>
<path fill="none" stroke="midnightblue" d="M1395.21,-137.186C1398.17,-136.767 1401.11,-136.37 1404,-136 1593.79,-111.722 1646.16,-141.237 1833,-100 1836.7,-99.1843 1840.51,-98.116 1844.26,-96.9248"/>
<polygon fill="midnightblue" stroke="midnightblue" points="1845.59,-100.167 1853.88,-93.5733 1843.29,-93.5559 1845.59,-100.167"/>
</g>
<!-- Node31 -->
<g id="node31" class="node"><title>Node31</title>
<g id="a_node31"><a xlink:href="../../d9/d52/Common_2MathUtils_2include_2MathUtils_2Utils_8h.html" target="_top" xlink:title="MathUtils/Utils.h">
<polygon fill="none" stroke="black" points="1384,-74.5 1384,-93.5 1474,-93.5 1474,-74.5 1384,-74.5"/>
<text text-anchor="middle" x="1429" y="-81.5" font-family="Helvetica,sans-Serif" font-size="10.00">MathUtils/Utils.h</text>
</a>
</g>
</g>
<!-- Node26&#45;&gt;Node31 -->
<g id="edge35" class="edge"><title>Node26&#45;&gt;Node31</title>
<path fill="none" stroke="midnightblue" d="M1341.03,-136.841C1360.05,-125.63 1386.48,-110.056 1405.4,-98.9096"/>
<polygon fill="midnightblue" stroke="midnightblue" points="1407.43,-101.774 1414.27,-93.6819 1403.87,-95.7435 1407.43,-101.774"/>
</g>
<!-- Node31&#45;&gt;Node24 -->
<g id="edge36" class="edge"><title>Node31&#45;&gt;Node24</title>
<path fill="none" stroke="midnightblue" d="M1411.09,-74.3717C1387.71,-63.1063 1346.55,-43.2794 1319.28,-30.1403"/>
<polygon fill="midnightblue" stroke="midnightblue" points="1320.44,-26.8175 1309.91,-25.6305 1317.4,-33.1238 1320.44,-26.8175"/>
</g>
<!-- Node32 -->
<g id="node32" class="node"><title>Node32</title>
<polygon fill="none" stroke="#bfbfbf" points="1532,-6.5 1532,-25.5 1576,-25.5 1576,-6.5 1532,-6.5"/>
<text text-anchor="middle" x="1554" y="-13.5" font-family="Helvetica,sans-Serif" font-size="10.00">cmath</text>
</g>
<!-- Node31&#45;&gt;Node32 -->
<g id="edge37" class="edge"><title>Node31&#45;&gt;Node32</title>
<path fill="none" stroke="midnightblue" d="M1445.34,-74.3717C1466.58,-63.1557 1503.9,-43.4532 1528.78,-30.3136"/>
<polygon fill="midnightblue" stroke="midnightblue" points="1530.45,-33.3947 1537.65,-25.6305 1527.18,-27.2046 1530.45,-33.3947"/>
</g>
<!-- Node33 -->
<g id="node33" class="node"><title>Node33</title>
<g id="a_node33"><a xlink:href="../../d6/d84/MathConstants_8h.html" target="_top" xlink:title="useful math constants ">
<polygon fill="none" stroke="black" points="1334.5,-6.5 1334.5,-25.5 1513.5,-25.5 1513.5,-6.5 1334.5,-6.5"/>
<text text-anchor="middle" x="1424" y="-13.5" font-family="Helvetica,sans-Serif" font-size="10.00">CommonConstants/MathConstants.h</text>
</a>
</g>
</g>
<!-- Node31&#45;&gt;Node33 -->
<g id="edge38" class="edge"><title>Node31&#45;&gt;Node33</title>
<path fill="none" stroke="midnightblue" d="M1428.35,-74.3717C1427.61,-64.6426 1426.39,-48.528 1425.43,-35.8504"/>
<polygon fill="midnightblue" stroke="midnightblue" points="1428.92,-35.5481 1424.67,-25.8411 1421.94,-36.077 1428.92,-35.5481"/>
</g>
<!-- Node35 -->
<g id="node35" class="node"><title>Node35</title>
<g id="a_node35"><a xlink:href="../../d4/de2/BaseCluster_8h.html" target="_top" xlink:title="ReconstructionDataFormats\l/BaseCluster.h">
<polygon fill="none" stroke="black" points="952,-273 952,-303 1092,-303 1092,-273 952,-273"/>
<text text-anchor="start" x="960" y="-291" font-family="Helvetica,sans-Serif" font-size="10.00">ReconstructionDataFormats</text>
<text text-anchor="middle" x="1022" y="-280" font-family="Helvetica,sans-Serif" font-size="10.00">/BaseCluster.h</text>
</a>
</g>
</g>
<!-- Node34&#45;&gt;Node35 -->
<g id="edge41" class="edge"><title>Node34&#45;&gt;Node35</title>
<path fill="none" stroke="midnightblue" d="M1190.64,-346.372C1160.94,-336.268 1111,-319.277 1073.15,-306.402"/>
<polygon fill="midnightblue" stroke="midnightblue" points="1073.91,-302.964 1063.32,-303.056 1071.66,-309.591 1073.91,-302.964"/>
</g>
<!-- Node35&#45;&gt;Node2 -->
<g id="edge48" class="edge"><title>Node35&#45;&gt;Node2</title>
<path fill="none" stroke="midnightblue" d="M996.519,-272.826C980.986,-263.503 961.257,-250.393 946,-236 924.794,-215.994 905.32,-188.284 893.802,-170.498"/>
<polygon fill="midnightblue" stroke="midnightblue" points="896.569,-168.325 888.261,-161.75 890.655,-172.07 896.569,-168.325"/>
</g>
<!-- Node35&#45;&gt;Node10 -->
<g id="edge46" class="edge"><title>Node35&#45;&gt;Node10</title>
<path fill="none" stroke="midnightblue" d="M951.856,-279.486C790.297,-260.885 380.747,-206.32 54,-100 51.8668,-99.3059 49.6901,-98.504 47.526,-97.6394"/>
<polygon fill="midnightblue" stroke="midnightblue" points="48.8554,-94.4007 38.2919,-93.5864 46.042,-100.81 48.8554,-94.4007"/>
</g>
<!-- Node35&#45;&gt;Node21 -->
<g id="edge47" class="edge"><title>Node35&#45;&gt;Node21</title>
<path fill="none" stroke="midnightblue" d="M1074.26,-272.922C1112.56,-262.605 1164.69,-248.56 1205.09,-237.679"/>
<polygon fill="midnightblue" stroke="midnightblue" points="1206.08,-241.037 1214.82,-235.056 1204.26,-234.278 1206.08,-241.037"/>
</g>
<!-- Node35&#45;&gt;Node27 -->
<g id="edge43" class="edge"><title>Node35&#45;&gt;Node27</title>
<path fill="none" stroke="midnightblue" d="M1044.74,-272.9C1059.11,-263.415 1077.61,-250.102 1092,-236 1131.87,-196.928 1127.5,-174.42 1168,-136 1183.23,-121.551 1202.94,-108.319 1218.33,-98.9556"/>
<polygon fill="midnightblue" stroke="midnightblue" points="1220.46,-101.761 1227.28,-93.649 1216.89,-95.7401 1220.46,-101.761"/>
</g>
<!-- Node36 -->
<g id="node36" class="node"><title>Node36</title>
<polygon fill="none" stroke="#bfbfbf" points="955.5,-210.5 955.5,-229.5 1014.5,-229.5 1014.5,-210.5 955.5,-210.5"/>
<text text-anchor="middle" x="985" y="-217.5" font-family="Helvetica,sans-Serif" font-size="10.00">TObject.h</text>
</g>
<!-- Node35&#45;&gt;Node36 -->
<g id="edge42" class="edge"><title>Node35&#45;&gt;Node36</title>
<path fill="none" stroke="midnightblue" d="M1013.97,-272.679C1008.37,-262.694 1000.87,-249.307 994.9,-238.66"/>
<polygon fill="midnightblue" stroke="midnightblue" points="997.892,-236.84 989.949,-229.828 991.786,-240.263 997.892,-236.84"/>
</g>
<!-- Node37 -->
<g id="node37" class="node"><title>Node37</title>
<polygon fill="none" stroke="#bfbfbf" points="1033,-210.5 1033,-229.5 1083,-229.5 1083,-210.5 1033,-210.5"/>
<text text-anchor="middle" x="1058" y="-217.5" font-family="Helvetica,sans-Serif" font-size="10.00">iomanip</text>
</g>
<!-- Node35&#45;&gt;Node37 -->
<g id="edge44" class="edge"><title>Node35&#45;&gt;Node37</title>
<path fill="none" stroke="midnightblue" d="M1029.81,-272.679C1035.26,-262.694 1042.56,-249.307 1048.37,-238.66"/>
<polygon fill="midnightblue" stroke="midnightblue" points="1051.47,-240.283 1053.18,-229.828 1045.32,-236.931 1051.47,-240.283"/>
</g>
<!-- Node38 -->
<g id="node38" class="node"><title>Node38</title>
<polygon fill="none" stroke="#bfbfbf" points="869.5,-210.5 869.5,-229.5 898.5,-229.5 898.5,-210.5 869.5,-210.5"/>
<text text-anchor="middle" x="884" y="-217.5" font-family="Helvetica,sans-Serif" font-size="10.00">ios</text>
</g>
<!-- Node35&#45;&gt;Node38 -->
<g id="edge45" class="edge"><title>Node35&#45;&gt;Node38</title>
<path fill="none" stroke="midnightblue" d="M990.835,-272.817C968.95,-262.76 939.054,-248.827 913,-236 911.246,-235.136 909.437,-234.233 907.622,-233.316"/>
<polygon fill="midnightblue" stroke="midnightblue" points="909.192,-230.188 898.696,-228.745 906.001,-236.418 909.192,-230.188"/>
</g>
<!-- Node39&#45;&gt;Node8 -->
<g id="edge50" class="edge"><title>Node39&#45;&gt;Node8</title>
<path fill="none" stroke="midnightblue" d="M1724.87,-272.867C1733.46,-246.166 1749.8,-186.458 1743,-136 1741.5,-124.893 1738.25,-112.783 1735.26,-103.152"/>
<polygon fill="midnightblue" stroke="midnightblue" points="1738.54,-101.927 1732.1,-93.5168 1731.89,-104.11 1738.54,-101.927"/>
</g>
<!-- Node40&#45;&gt;Node28 -->
<g id="edge53" class="edge"><title>Node40&#45;&gt;Node28</title>
<path fill="none" stroke="midnightblue" d="M1944.54,-136.902C1912.8,-127.317 1870.59,-113.894 1834,-100 1832.1,-99.2785 1830.15,-98.5074 1828.2,-97.7099"/>
<polygon fill="midnightblue" stroke="midnightblue" points="1829.13,-94.3031 1818.56,-93.6093 1826.39,-100.744 1829.13,-94.3031"/>
</g>
<!-- Node40&#45;&gt;Node30 -->
<g id="edge56" class="edge"><title>Node40&#45;&gt;Node30</title>
<path fill="none" stroke="midnightblue" d="M1967.47,-136.841C1947.07,-125.528 1918.66,-109.771 1898.53,-98.6053"/>
<polygon fill="midnightblue" stroke="midnightblue" points="1900.1,-95.4714 1889.65,-93.6819 1896.7,-101.593 1900.1,-95.4714"/>
</g>
<!-- Node41 -->
<g id="node41" class="node"><title>Node41</title>
<polygon fill="none" stroke="#bfbfbf" points="1923,-74.5 1923,-93.5 1985,-93.5 1985,-74.5 1923,-74.5"/>
<text text-anchor="middle" x="1954" y="-81.5" font-family="Helvetica,sans-Serif" font-size="10.00">TNamed.h</text>
</g>
<!-- Node40&#45;&gt;Node41 -->
<g id="edge52" class="edge"><title>Node40&#45;&gt;Node41</title>
<path fill="none" stroke="midnightblue" d="M1984.54,-136.679C1978.64,-126.694 1970.73,-113.307 1964.44,-102.66"/>
<polygon fill="midnightblue" stroke="midnightblue" points="1967.32,-100.657 1959.22,-93.8283 1961.29,-104.218 1967.32,-100.657"/>
</g>
<!-- Node42 -->
<g id="node42" class="node"><title>Node42</title>
<polygon fill="none" stroke="#bfbfbf" points="2003.5,-74.5 2003.5,-93.5 2062.5,-93.5 2062.5,-74.5 2003.5,-74.5"/>
<text text-anchor="middle" x="2033" y="-81.5" font-family="Helvetica,sans-Serif" font-size="10.00">stdexcept</text>
</g>
<!-- Node40&#45;&gt;Node42 -->
<g id="edge54" class="edge"><title>Node40&#45;&gt;Node42</title>
<path fill="none" stroke="midnightblue" d="M2001.68,-136.679C2007.73,-126.694 2015.84,-113.307 2022.3,-102.66"/>
<polygon fill="midnightblue" stroke="midnightblue" points="2025.46,-104.194 2027.65,-93.8283 2019.47,-100.566 2025.46,-104.194"/>
</g>
<!-- Node43 -->
<g id="node43" class="node"><title>Node43</title>
<polygon fill="none" stroke="#bfbfbf" points="2080.5,-74.5 2080.5,-93.5 2125.5,-93.5 2125.5,-74.5 2080.5,-74.5"/>
<text text-anchor="middle" x="2103" y="-81.5" font-family="Helvetica,sans-Serif" font-size="10.00">gsl/gsl</text>
</g>
<!-- Node40&#45;&gt;Node43 -->
<g id="edge55" class="edge"><title>Node40&#45;&gt;Node43</title>
<path fill="none" stroke="midnightblue" d="M2016.6,-136.841C2035.28,-125.63 2061.24,-110.056 2079.82,-98.9096"/>
<polygon fill="midnightblue" stroke="midnightblue" points="2081.76,-101.828 2088.53,-93.6819 2078.15,-95.8257 2081.76,-101.828"/>
</g>
</g>
</svg>
