<?xml version="1.0" encoding="UTF-8" standalone="no"?>
<!DOCTYPE svg PUBLIC "-//W3C//DTD SVG 1.1//EN"
 "http://www.w3.org/Graphics/SVG/1.1/DTD/svg11.dtd">
<!-- Generated by graphviz version 2.36.0 (20140111.2315)
 -->
<!-- Title: /home/travis/build/AliceO2Group/AliceO2/Utilities/DataFlow/src/FakeTimeframeGeneratorDevice.cxx Pages: 1 -->
<!--zoomable 422 -->
<svg id="main" version="1.1" xmlns="http://www.w3.org/2000/svg" xmlns:xlink="http://www.w3.org/1999/xlink" xml:space="preserve" onload="init(evt)">
<style type="text/css"><![CDATA[
.edge:hover path { stroke: red; }
.edge:hover polygon { stroke: red; fill: red; }
]]></style>
<script type="text/javascript"><![CDATA[
var edges = document.getElementsByTagName('g');
if (edges && edges.length) {
  for (var i=0;i<edges.length;i++) {
    if (edges[i].id.substr(0,4)=='edge') {
      edges[i].setAttribute('class','edge');
    }
  }
}
]]></script>
        <defs>
                <circle id="rim" cx="0" cy="0" r="7"/>
                <circle id="rim2" cx="0" cy="0" r="3.5"/>
                <g id="zoomPlus">
                        <use xlink:href="#rim" fill="#404040">
                                <set attributeName="fill" to="#808080" begin="zoomplus.mouseover" end="zoomplus.mouseout"/>
                        </use>
                        <path d="M-4,0h8M0,-4v8" fill="none" stroke="white" stroke-width="1.5" pointer-events="none"/>
                </g>
                <g id="zoomMin">
                        <use xlink:href="#rim" fill="#404040">
                                <set attributeName="fill" to="#808080" begin="zoomminus.mouseover" end="zoomminus.mouseout"/>
                        </use>
                        <path d="M-4,0h8" fill="none" stroke="white" stroke-width="1.5" pointer-events="none"/>
                </g>
                <g id="dirArrow">
                        <path fill="none" stroke="white" stroke-width="1.5" d="M0,-3.0v7 M-2.5,-0.5L0,-3.0L2.5,-0.5"/>
                </g>
               <g id="resetDef">
                       <use xlink:href="#rim2" fill="#404040">
                               <set attributeName="fill" to="#808080" begin="reset.mouseover" end="reset.mouseout"/>
                       </use>
               </g>
        </defs>

<script type="text/javascript">
var viewWidth = 2227;
var viewHeight = 422;
var sectionId = 'dynsection-0';
</script>
<script xlink:href="../../svgpan.js"/>
<svg id="graph" class="graph">
<g id="viewport">
<title>/home/travis/build/AliceO2Group/AliceO2/Utilities/DataFlow/src/FakeTimeframeGeneratorDevice.cxx</title>
<!-- Node1 -->
<g id="node1" class="node"><title>Node1</title>
<polygon fill="#bfbfbf" stroke="black" points="447,-361 447,-413 627,-413 627,-361 447,-361"/>
<text text-anchor="start" x="455" y="-401" font-family="Helvetica,sans-Serif" font-size="10.00">/home/travis/build</text>
<text text-anchor="start" x="455" y="-390" font-family="Helvetica,sans-Serif" font-size="10.00">/AliceO2Group/AliceO2</text>
<text text-anchor="start" x="455" y="-379" font-family="Helvetica,sans-Serif" font-size="10.00">/Utilities/DataFlow/src</text>
<text text-anchor="middle" x="537" y="-368" font-family="Helvetica,sans-Serif" font-size="10.00">/FakeTimeframeGeneratorDevice.cxx</text>
</g>
<!-- Node2 -->
<g id="node2" class="node"><title>Node2</title>
<polygon fill="none" stroke="#bfbfbf" points="762,-6.5 762,-25.5 808,-25.5 808,-6.5 762,-6.5"/>
<text text-anchor="middle" x="785" y="-13.5" font-family="Helvetica,sans-Serif" font-size="10.00">cstring</text>
</g>
<!-- Node1&#45;&gt;Node2 -->
<g id="edge1" class="edge"><title>Node1&#45;&gt;Node2</title>
<path fill="none" stroke="midnightblue" d="M565.65,-360.878C591.668,-335.147 626,-292.561 626,-247 626,-247 626,-247 626,-133 626,-100.701 712.713,-52.8445 758.066,-30.0234"/>
<polygon fill="midnightblue" stroke="midnightblue" points="759.673,-33.1333 767.07,-25.5482 756.557,-26.8648 759.673,-33.1333"/>
</g>
<!-- Node3 -->
<g id="node3" class="node"><title>Node3</title>
<g id="a_node3"><a xlink:href="../../d4/d98/FakeTimeframeGeneratorDevice_8h.html" target="_top" xlink:title="DataFlow/FakeTimeframeGenerator\lDevice.h">
<polygon fill="none" stroke="black" points="756.5,-293 756.5,-323 929.5,-323 929.5,-293 756.5,-293"/>
<text text-anchor="start" x="764.5" y="-311" font-family="Helvetica,sans-Serif" font-size="10.00">DataFlow/FakeTimeframeGenerator</text>
<text text-anchor="middle" x="843" y="-300" font-family="Helvetica,sans-Serif" font-size="10.00">Device.h</text>
</a>
</g>
</g>
<!-- Node1&#45;&gt;Node3 -->
<g id="edge2" class="edge"><title>Node1&#45;&gt;Node3</title>
<path fill="none" stroke="midnightblue" d="M627.155,-363.314C675.24,-351.214 733.348,-336.592 777.155,-325.569"/>
<polygon fill="midnightblue" stroke="midnightblue" points="778.276,-328.896 787.12,-323.061 776.568,-322.108 778.276,-328.896"/>
</g>
<!-- Node6 -->
<g id="node6" class="node"><title>Node6</title>
<polygon fill="none" stroke="#bfbfbf" points="1090,-180.5 1090,-199.5 1236,-199.5 1236,-180.5 1090,-180.5"/>
<text text-anchor="middle" x="1163" y="-187.5" font-family="Helvetica,sans-Serif" font-size="10.00">options/FairMQProgOptions.h</text>
</g>
<!-- Node1&#45;&gt;Node6 -->
<g id="edge49" class="edge"><title>Node1&#45;&gt;Node6</title>
<path fill="none" stroke="midnightblue" d="M627.396,-381.812C710.28,-375.707 835.359,-360.727 938,-324 1020.67,-294.42 1106.9,-233.577 1144.09,-205.627"/>
<polygon fill="midnightblue" stroke="midnightblue" points="1146.22,-208.408 1152.06,-199.572 1141.98,-202.834 1146.22,-208.408"/>
</g>
<!-- Node16 -->
<g id="node16" class="node"><title>Node16</title>
<polygon fill="none" stroke="#bfbfbf" points="132,-6.5 132,-25.5 176,-25.5 176,-6.5 132,-6.5"/>
<text text-anchor="middle" x="154" y="-13.5" font-family="Helvetica,sans-Serif" font-size="10.00">vector</text>
</g>
<!-- Node1&#45;&gt;Node16 -->
<g id="edge50" class="edge"><title>Node1&#45;&gt;Node16</title>
<path fill="none" stroke="midnightblue" d="M446.586,-369.815C339.364,-347.99 175,-305.064 175,-247 175,-247 175,-247 175,-133 175,-97.9995 165.628,-57.9952 159.406,-35.2919"/>
<polygon fill="midnightblue" stroke="midnightblue" points="162.762,-34.2953 156.66,-25.6341 156.029,-36.2102 162.762,-34.2953"/>
</g>
<!-- Node22 -->
<g id="node22" class="node"><title>Node22</title>
<g id="a_node22"><a xlink:href="../../dc/dcd/DataHeader_8h.html" target="_top" xlink:title="Headers/DataHeader.h">
<polygon fill="none" stroke="black" points="480.5,-68.5 480.5,-87.5 597.5,-87.5 597.5,-68.5 480.5,-68.5"/>
<text text-anchor="middle" x="539" y="-75.5" font-family="Helvetica,sans-Serif" font-size="10.00">Headers/DataHeader.h</text>
</a>
</g>
</g>
<!-- Node1&#45;&gt;Node22 -->
<g id="edge48" class="edge"><title>Node1&#45;&gt;Node22</title>
<path fill="none" stroke="midnightblue" d="M544.66,-360.647C552.33,-332.985 563,-287.263 563,-247 563,-247 563,-247 563,-189 563,-156.059 552.599,-118.818 545.491,-97.2139"/>
<polygon fill="midnightblue" stroke="midnightblue" points="548.785,-96.0282 542.237,-87.6992 542.162,-98.2937 548.785,-96.0282"/>
</g>
<!-- Node32 -->
<g id="node32" class="node"><title>Node32</title>
<g id="a_node32"><a xlink:href="../../dd/d1a/FakeTimeframeBuilder_8h.html" target="_top" xlink:title="DataFlow/FakeTimeframeBuilder.h">
<polygon fill="none" stroke="black" points="203,-124.5 203,-143.5 371,-143.5 371,-124.5 203,-124.5"/>
<text text-anchor="middle" x="287" y="-131.5" font-family="Helvetica,sans-Serif" font-size="10.00">DataFlow/FakeTimeframeBuilder.h</text>
</a>
</g>
</g>
<!-- Node1&#45;&gt;Node32 -->
<g id="edge38" class="edge"><title>Node1&#45;&gt;Node32</title>
<path fill="none" stroke="midnightblue" d="M511.653,-360.551C460.34,-309.034 345.452,-193.686 303.089,-151.153"/>
<polygon fill="midnightblue" stroke="midnightblue" points="305.375,-148.489 295.838,-143.873 300.415,-153.428 305.375,-148.489"/>
</g>
<!-- Node34 -->
<g id="node34" class="node"><title>Node34</title>
<g id="a_node34"><a xlink:href="../../dd/ddb/TimeframeParser_8h.html" target="_top" xlink:title="DataFlow/TimeframeParser.h">
<polygon fill="none" stroke="black" points="389.5,-124.5 389.5,-143.5 534.5,-143.5 534.5,-124.5 389.5,-124.5"/>
<text text-anchor="middle" x="462" y="-131.5" font-family="Helvetica,sans-Serif" font-size="10.00">DataFlow/TimeframeParser.h</text>
</a>
</g>
</g>
<!-- Node1&#45;&gt;Node34 -->
<g id="edge43" class="edge"><title>Node1&#45;&gt;Node34</title>
<path fill="none" stroke="midnightblue" d="M529.396,-360.551C514.29,-309.998 480.819,-197.98 467.563,-153.616"/>
<polygon fill="midnightblue" stroke="midnightblue" points="470.868,-152.453 464.651,-143.873 464.161,-154.457 470.868,-152.453"/>
</g>
<!-- Node36 -->
<g id="node36" class="node"><title>Node36</title>
<g id="a_node36"><a xlink:href="../../d2/d1b/SubframeMetadata_8h.html" target="_top" xlink:title="Headers/SubframeMetadata.h">
<polygon fill="none" stroke="black" points="-0.5,-236.5 -0.5,-255.5 146.5,-255.5 146.5,-236.5 -0.5,-236.5"/>
<text text-anchor="middle" x="73" y="-243.5" font-family="Helvetica,sans-Serif" font-size="10.00">Headers/SubframeMetadata.h</text>
</a>
</g>
</g>
<!-- Node1&#45;&gt;Node36 -->
<g id="edge46" class="edge"><title>Node1&#45;&gt;Node36</title>
<path fill="none" stroke="midnightblue" d="M446.668,-384.895C367.82,-380.788 252.085,-367.006 161,-324 130.711,-309.699 102.909,-281.845 86.9713,-263.85"/>
<polygon fill="midnightblue" stroke="midnightblue" points="89.3163,-261.209 80.1414,-255.911 84.0096,-265.774 89.3163,-261.209"/>
</g>
<!-- Node4 -->
<g id="node4" class="node"><title>Node4</title>
<g id="a_node4"><a xlink:href="../../d2/dee/O2Device_8h.html" target="_top" xlink:title="O2Device/O2Device.h">
<polygon fill="none" stroke="black" points="816.5,-236.5 816.5,-255.5 931.5,-255.5 931.5,-236.5 816.5,-236.5"/>
<text text-anchor="middle" x="874" y="-243.5" font-family="Helvetica,sans-Serif" font-size="10.00">O2Device/O2Device.h</text>
</a>
</g>
</g>
<!-- Node3&#45;&gt;Node4 -->
<g id="edge3" class="edge"><title>Node3&#45;&gt;Node4</title>
<path fill="none" stroke="midnightblue" d="M850.347,-292.781C854.665,-284.422 860.165,-273.777 864.774,-264.856"/>
<polygon fill="midnightblue" stroke="midnightblue" points="868.008,-266.221 869.489,-255.731 861.789,-263.008 868.008,-266.221"/>
</g>
<!-- Node5 -->
<g id="node5" class="node"><title>Node5</title>
<polygon fill="none" stroke="#bfbfbf" points="984,-180.5 984,-199.5 1072,-199.5 1072,-180.5 984,-180.5"/>
<text text-anchor="middle" x="1028" y="-187.5" font-family="Helvetica,sans-Serif" font-size="10.00">FairMQDevice.h</text>
</g>
<!-- Node4&#45;&gt;Node5 -->
<g id="edge4" class="edge"><title>Node4&#45;&gt;Node5</title>
<path fill="none" stroke="midnightblue" d="M898.402,-236.444C924.197,-227.399 965.077,-213.064 994.018,-202.916"/>
<polygon fill="midnightblue" stroke="midnightblue" points="995.434,-206.128 1003.71,-199.516 993.118,-199.523 995.434,-206.128"/>
</g>
<!-- Node4&#45;&gt;Node6 -->
<g id="edge5" class="edge"><title>Node4&#45;&gt;Node6</title>
<path fill="none" stroke="midnightblue" d="M919.793,-236.444C970.737,-226.925 1053.03,-211.547 1107.57,-201.356"/>
<polygon fill="midnightblue" stroke="midnightblue" points="1108.23,-204.794 1117.42,-199.516 1106.95,-197.913 1108.23,-204.794"/>
</g>
<!-- Node7 -->
<g id="node7" class="node"><title>Node7</title>
<g id="a_node7"><a xlink:href="../../d7/db2/Utilities_8h.html" target="_top" xlink:title="O2Device/Utilities.h">
<polygon fill="none" stroke="black" points="862,-180.5 862,-199.5 966,-199.5 966,-180.5 862,-180.5"/>
<text text-anchor="middle" x="914" y="-187.5" font-family="Helvetica,sans-Serif" font-size="10.00">O2Device/Utilities.h</text>
</a>
</g>
</g>
<!-- Node4&#45;&gt;Node7 -->
<g id="edge6" class="edge"><title>Node4&#45;&gt;Node7</title>
<path fill="none" stroke="midnightblue" d="M880.605,-236.083C886.255,-228.455 894.545,-217.264 901.451,-207.941"/>
<polygon fill="midnightblue" stroke="midnightblue" points="904.378,-209.87 907.518,-199.751 898.753,-205.703 904.378,-209.87"/>
</g>
<!-- Node27 -->
<g id="node27" class="node"><title>Node27</title>
<polygon fill="none" stroke="#bfbfbf" points="625.5,-6.5 625.5,-25.5 684.5,-25.5 684.5,-6.5 625.5,-6.5"/>
<text text-anchor="middle" x="655" y="-13.5" font-family="Helvetica,sans-Serif" font-size="10.00">stdexcept</text>
</g>
<!-- Node4&#45;&gt;Node27 -->
<g id="edge37" class="edge"><title>Node4&#45;&gt;Node27</title>
<path fill="none" stroke="midnightblue" d="M865.925,-236.097C854.474,-223.508 832.817,-199.829 814,-180 762.264,-125.479 699.675,-62.0355 670.889,-32.9944"/>
<polygon fill="midnightblue" stroke="midnightblue" points="673.231,-30.3857 663.704,-25.7516 668.262,-35.3158 673.231,-30.3857"/>
</g>
<!-- Node31 -->
<g id="node31" class="node"><title>Node31</title>
<polygon fill="none" stroke="#bfbfbf" points="654.5,-180.5 654.5,-199.5 805.5,-199.5 805.5,-180.5 654.5,-180.5"/>
<text text-anchor="middle" x="730" y="-187.5" font-family="Helvetica,sans-Serif" font-size="10.00">Monitoring/MonitoringFactory.h</text>
</g>
<!-- Node4&#45;&gt;Node31 -->
<g id="edge36" class="edge"><title>Node4&#45;&gt;Node31</title>
<path fill="none" stroke="midnightblue" d="M851.183,-236.444C827.168,-227.438 789.171,-213.189 762.131,-203.049"/>
<polygon fill="midnightblue" stroke="midnightblue" points="763.303,-199.751 752.71,-199.516 760.845,-206.305 763.303,-199.751"/>
</g>
<!-- Node8 -->
<g id="node8" class="node"><title>Node8</title>
<g id="a_node8"><a xlink:href="../../dc/d03/MemoryResources_8h.html" target="_top" xlink:title="MemoryResources/MemoryResources.h">
<polygon fill="none" stroke="black" points="1140.5,-68.5 1140.5,-87.5 1333.5,-87.5 1333.5,-68.5 1140.5,-68.5"/>
<text text-anchor="middle" x="1237" y="-75.5" font-family="Helvetica,sans-Serif" font-size="10.00">MemoryResources/MemoryResources.h</text>
</a>
</g>
</g>
<!-- Node7&#45;&gt;Node8 -->
<g id="edge7" class="edge"><title>Node7&#45;&gt;Node8</title>
<path fill="none" stroke="midnightblue" d="M943.933,-180.476C973.949,-171.792 1021.41,-157.694 1062,-144 1112.73,-126.884 1170.86,-104.792 1205.71,-91.2725"/>
<polygon fill="midnightblue" stroke="midnightblue" points="1207.27,-94.4206 1215.33,-87.5326 1204.74,-87.897 1207.27,-94.4206"/>
</g>
<!-- Node15 -->
<g id="node15" class="node"><title>Node15</title>
<polygon fill="none" stroke="#bfbfbf" points="2179,-6.5 2179,-25.5 2219,-25.5 2219,-6.5 2179,-6.5"/>
<text text-anchor="middle" x="2199" y="-13.5" font-family="Helvetica,sans-Serif" font-size="10.00">utility</text>
</g>
<!-- Node7&#45;&gt;Node15 -->
<g id="edge34" class="edge"><title>Node7&#45;&gt;Node15</title>
<path fill="none" stroke="midnightblue" d="M966.232,-181.212C969.197,-180.795 972.136,-180.389 975,-180 1505.31,-108.049 1658.78,-190.298 2170,-32 2171.91,-31.409 2173.84,-30.6963 2175.76,-29.9067"/>
<polygon fill="midnightblue" stroke="midnightblue" points="2177.44,-32.9793 2184.97,-25.5246 2174.44,-26.6574 2177.44,-32.9793"/>
</g>
<!-- Node7&#45;&gt;Node22 -->
<g id="edge22" class="edge"><title>Node7&#45;&gt;Node22</title>
<path fill="none" stroke="midnightblue" d="M884.886,-180.46C818.076,-160.862 653.707,-112.647 578.148,-90.4834"/>
<polygon fill="midnightblue" stroke="midnightblue" points="578.676,-86.9909 568.095,-87.5345 576.706,-93.7078 578.676,-86.9909"/>
</g>
<!-- Node29 -->
<g id="node29" class="node"><title>Node29</title>
<g id="a_node29"><a xlink:href="../../d4/d00/Headers_2include_2Headers_2Stack_8h.html" target="_top" xlink:title="Headers/Stack.h">
<polygon fill="none" stroke="black" points="900,-124.5 900,-143.5 990,-143.5 990,-124.5 900,-124.5"/>
<text text-anchor="middle" x="945" y="-131.5" font-family="Helvetica,sans-Serif" font-size="10.00">Headers/Stack.h</text>
</a>
</g>
</g>
<!-- Node7&#45;&gt;Node29 -->
<g id="edge31" class="edge"><title>Node7&#45;&gt;Node29</title>
<path fill="none" stroke="midnightblue" d="M919.119,-180.083C923.408,-172.613 929.658,-161.724 934.942,-152.52"/>
<polygon fill="midnightblue" stroke="midnightblue" points="938.033,-154.166 939.976,-143.751 931.962,-150.681 938.033,-154.166"/>
</g>
<!-- Node30 -->
<g id="node30" class="node"><title>Node30</title>
<polygon fill="none" stroke="#bfbfbf" points="1008.5,-124.5 1008.5,-143.5 1053.5,-143.5 1053.5,-124.5 1008.5,-124.5"/>
<text text-anchor="middle" x="1031" y="-131.5" font-family="Helvetica,sans-Serif" font-size="10.00">gsl/gsl</text>
</g>
<!-- Node7&#45;&gt;Node30 -->
<g id="edge35" class="edge"><title>Node7&#45;&gt;Node30</title>
<path fill="none" stroke="midnightblue" d="M932.539,-180.444C951.623,-171.636 981.575,-157.812 1003.44,-147.722"/>
<polygon fill="midnightblue" stroke="midnightblue" points="1004.93,-150.885 1012.55,-143.516 1002,-144.529 1004.93,-150.885"/>
</g>
<!-- Node8&#45;&gt;Node2 -->
<g id="edge12" class="edge"><title>Node8&#45;&gt;Node2</title>
<path fill="none" stroke="midnightblue" d="M1140.22,-75.6752C1053.98,-72.3766 925.06,-62.2017 817,-32 814.657,-31.3451 812.271,-30.5331 809.914,-29.6284"/>
<polygon fill="midnightblue" stroke="midnightblue" points="811.118,-26.3355 800.552,-25.5529 808.324,-32.7537 811.118,-26.3355"/>
</g>
<!-- Node9 -->
<g id="node9" class="node"><title>Node9</title>
<polygon fill="none" stroke="#bfbfbf" points="826,-1 826,-31 926,-31 926,-1 826,-1"/>
<text text-anchor="start" x="834" y="-19" font-family="Helvetica,sans-Serif" font-size="10.00">boost/container/flat</text>
<text text-anchor="middle" x="876" y="-8" font-family="Helvetica,sans-Serif" font-size="10.00">_map.hpp</text>
</g>
<!-- Node8&#45;&gt;Node9 -->
<g id="edge8" class="edge"><title>Node8&#45;&gt;Node9</title>
<path fill="none" stroke="midnightblue" d="M1165.87,-68.4631C1106.78,-60.9002 1020.36,-48.7494 936.126,-32.1102"/>
<polygon fill="midnightblue" stroke="midnightblue" points="936.625,-28.6407 926.133,-30.1126 935.253,-35.5049 936.625,-28.6407"/>
</g>
<!-- Node10 -->
<g id="node10" class="node"><title>Node10</title>
<polygon fill="none" stroke="#bfbfbf" points="944,-1 944,-31 1060,-31 1060,-1 944,-1"/>
<text text-anchor="start" x="952" y="-19" font-family="Helvetica,sans-Serif" font-size="10.00">boost/container/pmr</text>
<text text-anchor="middle" x="1002" y="-8" font-family="Helvetica,sans-Serif" font-size="10.00">/memory_resource.hpp</text>
</g>
<!-- Node8&#45;&gt;Node10 -->
<g id="edge9" class="edge"><title>Node8&#45;&gt;Node10</title>
<path fill="none" stroke="midnightblue" d="M1203.33,-68.4035C1167.82,-59.3358 1110.98,-44.8248 1066.74,-33.5292"/>
<polygon fill="midnightblue" stroke="midnightblue" points="1067.49,-30.108 1056.93,-31.0253 1065.76,-36.8904 1067.49,-30.108"/>
</g>
<!-- Node11 -->
<g id="node11" class="node"><title>Node11</title>
<polygon fill="none" stroke="#bfbfbf" points="1078,-1 1078,-31 1234,-31 1234,-1 1078,-1"/>
<text text-anchor="start" x="1086" y="-19" font-family="Helvetica,sans-Serif" font-size="10.00">boost/container/pmr</text>
<text text-anchor="middle" x="1156" y="-8" font-family="Helvetica,sans-Serif" font-size="10.00">/monotonic_buffer_resource.hpp</text>
</g>
<!-- Node8&#45;&gt;Node11 -->
<g id="edge10" class="edge"><title>Node8&#45;&gt;Node11</title>
<path fill="none" stroke="midnightblue" d="M1225.39,-68.4035C1214.42,-60.2773 1197.55,-47.7794 1183.19,-37.1419"/>
<polygon fill="midnightblue" stroke="midnightblue" points="1185.21,-34.2807 1175.09,-31.1408 1181.04,-39.9056 1185.21,-34.2807"/>
</g>
<!-- Node12 -->
<g id="node12" class="node"><title>Node12</title>
<polygon fill="none" stroke="#bfbfbf" points="1252.5,-1 1252.5,-31 1385.5,-31 1385.5,-1 1252.5,-1"/>
<text text-anchor="start" x="1260.5" y="-19" font-family="Helvetica,sans-Serif" font-size="10.00">boost/container/pmr</text>
<text text-anchor="middle" x="1319" y="-8" font-family="Helvetica,sans-Serif" font-size="10.00">/polymorphic_allocator.hpp</text>
</g>
<!-- Node8&#45;&gt;Node12 -->
<g id="edge11" class="edge"><title>Node8&#45;&gt;Node12</title>
<path fill="none" stroke="midnightblue" d="M1248.75,-68.4035C1259.85,-60.2773 1276.93,-47.7794 1291.47,-37.1419"/>
<polygon fill="midnightblue" stroke="midnightblue" points="1293.67,-39.8706 1299.67,-31.1408 1289.54,-34.2213 1293.67,-39.8706"/>
</g>
<!-- Node13 -->
<g id="node13" class="node"><title>Node13</title>
<polygon fill="none" stroke="#bfbfbf" points="702.5,-6.5 702.5,-25.5 743.5,-25.5 743.5,-6.5 702.5,-6.5"/>
<text text-anchor="middle" x="723" y="-13.5" font-family="Helvetica,sans-Serif" font-size="10.00">string</text>
</g>
<!-- Node8&#45;&gt;Node13 -->
<g id="edge13" class="edge"><title>Node8&#45;&gt;Node13</title>
<path fill="none" stroke="midnightblue" d="M1140.27,-72.2409C1020.4,-65.6073 823.343,-52.0889 753,-32 751.026,-31.4363 749.027,-30.7435 747.047,-29.9678"/>
<polygon fill="midnightblue" stroke="midnightblue" points="748.063,-26.5839 737.513,-25.6122 745.154,-32.951 748.063,-26.5839"/>
</g>
<!-- Node14 -->
<g id="node14" class="node"><title>Node14</title>
<polygon fill="none" stroke="#bfbfbf" points="1404,-6.5 1404,-25.5 1466,-25.5 1466,-6.5 1404,-6.5"/>
<text text-anchor="middle" x="1435" y="-13.5" font-family="Helvetica,sans-Serif" font-size="10.00">type_traits</text>
</g>
<!-- Node8&#45;&gt;Node14 -->
<g id="edge14" class="edge"><title>Node8&#45;&gt;Node14</title>
<path fill="none" stroke="midnightblue" d="M1269.38,-68.4476C1301.27,-59.8539 1351.27,-45.9209 1394,-32 1396.93,-31.0448 1399.97,-30.0142 1403,-28.9565"/>
<polygon fill="midnightblue" stroke="midnightblue" points="1404.31,-32.2067 1412.54,-25.5441 1401.95,-25.6153 1404.31,-32.2067"/>
</g>
<!-- Node8&#45;&gt;Node15 -->
<g id="edge15" class="edge"><title>Node8&#45;&gt;Node15</title>
<path fill="none" stroke="midnightblue" d="M1333.88,-74.6669C1556.39,-68.9728 2090.97,-53.2595 2170,-32 2171.97,-31.4699 2173.96,-30.7923 2175.93,-30.0191"/>
<polygon fill="midnightblue" stroke="midnightblue" points="2177.77,-33.0185 2185.33,-25.5975 2174.79,-26.6832 2177.77,-33.0185"/>
</g>
<!-- Node8&#45;&gt;Node16 -->
<g id="edge16" class="edge"><title>Node8&#45;&gt;Node16</title>
<path fill="none" stroke="midnightblue" d="M1140.09,-75.0965C897.307,-70.0092 275.962,-54.9075 185,-32 182.652,-31.4087 180.271,-30.629 177.926,-29.7354"/>
<polygon fill="midnightblue" stroke="midnightblue" points="179.228,-26.4837 168.669,-25.6113 176.379,-32.8779 179.228,-26.4837"/>
</g>
<!-- Node17 -->
<g id="node17" class="node"><title>Node17</title>
<polygon fill="none" stroke="#bfbfbf" points="1484.5,-6.5 1484.5,-25.5 1567.5,-25.5 1567.5,-6.5 1484.5,-6.5"/>
<text text-anchor="middle" x="1526" y="-13.5" font-family="Helvetica,sans-Serif" font-size="10.00">unordered_map</text>
</g>
<!-- Node8&#45;&gt;Node17 -->
<g id="edge17" class="edge"><title>Node8&#45;&gt;Node17</title>
<path fill="none" stroke="midnightblue" d="M1289.54,-68.4702C1337.77,-60.2996 1411.06,-47.0184 1474,-32 1478.67,-30.8864 1483.54,-29.6203 1488.35,-28.3068"/>
<polygon fill="midnightblue" stroke="midnightblue" points="1489.38,-31.6537 1498.06,-25.5778 1487.49,-24.9149 1489.38,-31.6537"/>
</g>
<!-- Node18 -->
<g id="node18" class="node"><title>Node18</title>
<polygon fill="none" stroke="#bfbfbf" points="1585.5,-6.5 1585.5,-25.5 1682.5,-25.5 1682.5,-6.5 1585.5,-6.5"/>
<text text-anchor="middle" x="1634" y="-13.5" font-family="Helvetica,sans-Serif" font-size="10.00">FairMQMessage.h</text>
</g>
<!-- Node8&#45;&gt;Node18 -->
<g id="edge18" class="edge"><title>Node8&#45;&gt;Node18</title>
<path fill="none" stroke="midnightblue" d="M1323.15,-68.4783C1391.95,-60.9737 1490.63,-48.642 1576,-32 1581.82,-30.8654 1587.93,-29.4921 1593.9,-28.0428"/>
<polygon fill="midnightblue" stroke="midnightblue" points="1594.91,-31.3968 1603.76,-25.5605 1593.2,-24.6087 1594.91,-31.3968"/>
</g>
<!-- Node19 -->
<g id="node19" class="node"><title>Node19</title>
<polygon fill="none" stroke="#bfbfbf" points="1700.5,-6.5 1700.5,-25.5 1831.5,-25.5 1831.5,-6.5 1700.5,-6.5"/>
<text text-anchor="middle" x="1766" y="-13.5" font-family="Helvetica,sans-Serif" font-size="10.00">FairMQTransportFactory.h</text>
</g>
<!-- Node8&#45;&gt;Node19 -->
<g id="edge19" class="edge"><title>Node8&#45;&gt;Node19</title>
<path fill="none" stroke="midnightblue" d="M1333.88,-70.1797C1426.03,-63.0355 1568.4,-50.2905 1691,-32 1699.5,-30.7326 1708.49,-29.1479 1717.18,-27.4872"/>
<polygon fill="midnightblue" stroke="midnightblue" points="1718.06,-30.8805 1727.2,-25.5173 1716.71,-24.012 1718.06,-30.8805"/>
</g>
<!-- Node20 -->
<g id="node20" class="node"><title>Node20</title>
<polygon fill="none" stroke="#bfbfbf" points="1849.5,-6.5 1849.5,-25.5 1986.5,-25.5 1986.5,-6.5 1849.5,-6.5"/>
<text text-anchor="middle" x="1918" y="-13.5" font-family="Helvetica,sans-Serif" font-size="10.00">fairmq/MemoryResources.h</text>
</g>
<!-- Node8&#45;&gt;Node20 -->
<g id="edge20" class="edge"><title>Node8&#45;&gt;Node20</title>
<path fill="none" stroke="midnightblue" d="M1333.7,-73.2277C1453.09,-67.7785 1662.18,-55.6522 1840,-32 1849.24,-30.7716 1859.03,-29.1468 1868.44,-27.4204"/>
<polygon fill="midnightblue" stroke="midnightblue" points="1869.29,-30.822 1878.46,-25.5211 1867.99,-23.9444 1869.29,-30.822"/>
</g>
<!-- Node21 -->
<g id="node21" class="node"><title>Node21</title>
<polygon fill="none" stroke="#bfbfbf" points="2005,-6.5 2005,-25.5 2161,-25.5 2161,-6.5 2005,-6.5"/>
<text text-anchor="middle" x="2083" y="-13.5" font-family="Helvetica,sans-Serif" font-size="10.00">fairmq/MemoryResourceTools.h</text>
</g>
<!-- Node8&#45;&gt;Node21 -->
<g id="edge21" class="edge"><title>Node8&#45;&gt;Node21</title>
<path fill="none" stroke="midnightblue" d="M1333.62,-74.6512C1477.95,-70.377 1758.27,-59.1205 1995,-32 2005.96,-30.744 2017.64,-29.0263 2028.77,-27.2009"/>
<polygon fill="midnightblue" stroke="midnightblue" points="2029.54,-30.621 2038.82,-25.5043 2028.38,-23.7188 2029.54,-30.621"/>
</g>
<!-- Node22&#45;&gt;Node2 -->
<g id="edge26" class="edge"><title>Node22&#45;&gt;Node2</title>
<path fill="none" stroke="midnightblue" d="M595.944,-68.451C639.362,-61.1018 700.293,-48.9869 752,-32 754.27,-31.2542 756.593,-30.3997 758.902,-29.4851"/>
<polygon fill="midnightblue" stroke="midnightblue" points="760.348,-32.6734 768.156,-25.5118 757.586,-26.2413 760.348,-32.6734"/>
</g>
<!-- Node22&#45;&gt;Node13 -->
<g id="edge29" class="edge"><title>Node22&#45;&gt;Node13</title>
<path fill="none" stroke="midnightblue" d="M574.773,-68.4904C606.378,-60.5163 653.458,-47.5177 693,-32 694.602,-31.3711 696.235,-30.6875 697.869,-29.9701"/>
<polygon fill="midnightblue" stroke="midnightblue" points="699.499,-33.0711 707.049,-25.6387 696.512,-26.7404 699.499,-33.0711"/>
</g>
<!-- Node23 -->
<g id="node23" class="node"><title>Node23</title>
<polygon fill="none" stroke="#bfbfbf" points="264,-6.5 264,-25.5 310,-25.5 310,-6.5 264,-6.5"/>
<text text-anchor="middle" x="287" y="-13.5" font-family="Helvetica,sans-Serif" font-size="10.00">cstdint</text>
</g>
<!-- Node22&#45;&gt;Node23 -->
<g id="edge23" class="edge"><title>Node22&#45;&gt;Node23</title>
<path fill="none" stroke="midnightblue" d="M480.117,-68.8386C435.236,-61.6925 372.288,-49.662 319,-32 316.871,-31.2942 314.697,-30.4841 312.534,-29.6137"/>
<polygon fill="midnightblue" stroke="midnightblue" points="313.866,-26.376 303.304,-25.5503 311.046,-32.7827 313.866,-26.376"/>
</g>
<!-- Node24 -->
<g id="node24" class="node"><title>Node24</title>
<polygon fill="none" stroke="#bfbfbf" points="194,-6.5 194,-25.5 246,-25.5 246,-6.5 194,-6.5"/>
<text text-anchor="middle" x="220" y="-13.5" font-family="Helvetica,sans-Serif" font-size="10.00">memory</text>
</g>
<!-- Node22&#45;&gt;Node24 -->
<g id="edge24" class="edge"><title>Node22&#45;&gt;Node24</title>
<path fill="none" stroke="midnightblue" d="M480.294,-68.4913C403.503,-57.2389 276.193,-38.1176 255,-32 252.352,-31.2357 249.639,-30.3225 246.951,-29.3293"/>
<polygon fill="midnightblue" stroke="midnightblue" points="248.076,-26.0091 237.494,-25.5039 245.452,-32.4984 248.076,-26.0091"/>
</g>
<!-- Node25 -->
<g id="node25" class="node"><title>Node25</title>
<polygon fill="none" stroke="#bfbfbf" points="328.5,-6.5 328.5,-25.5 377.5,-25.5 377.5,-6.5 328.5,-6.5"/>
<text text-anchor="middle" x="353" y="-13.5" font-family="Helvetica,sans-Serif" font-size="10.00">cassert</text>
</g>
<!-- Node22&#45;&gt;Node25 -->
<g id="edge25" class="edge"><title>Node22&#45;&gt;Node25</title>
<path fill="none" stroke="midnightblue" d="M505.691,-68.455C474.627,-60.1774 427.176,-46.7412 387,-32 384.884,-31.2236 382.712,-30.3797 380.539,-29.5012"/>
<polygon fill="midnightblue" stroke="midnightblue" points="381.749,-26.2125 371.176,-25.5305 379.016,-32.6569 381.749,-26.2125"/>
</g>
<!-- Node26 -->
<g id="node26" class="node"><title>Node26</title>
<polygon fill="none" stroke="#bfbfbf" points="396,-6.5 396,-25.5 452,-25.5 452,-6.5 396,-6.5"/>
<text text-anchor="middle" x="424" y="-13.5" font-family="Helvetica,sans-Serif" font-size="10.00">algorithm</text>
</g>
<!-- Node22&#45;&gt;Node26 -->
<g id="edge27" class="edge"><title>Node22&#45;&gt;Node26</title>
<path fill="none" stroke="midnightblue" d="M522.523,-68.4035C503.395,-58.4232 471.627,-41.8487 449.348,-30.2253"/>
<polygon fill="midnightblue" stroke="midnightblue" points="450.931,-27.1033 440.446,-25.5806 447.693,-33.3094 450.931,-27.1033"/>
</g>
<!-- Node22&#45;&gt;Node27 -->
<g id="edge28" class="edge"><title>Node22&#45;&gt;Node27</title>
<path fill="none" stroke="midnightblue" d="M555.62,-68.4035C574.915,-58.4232 606.959,-41.8487 629.431,-30.2253"/>
<polygon fill="midnightblue" stroke="midnightblue" points="631.137,-33.2836 638.411,-25.5806 627.921,-27.0661 631.137,-33.2836"/>
</g>
<!-- Node28 -->
<g id="node28" class="node"><title>Node28</title>
<g id="a_node28"><a xlink:href="../../d7/df8/Types_8h.html" target="_top" xlink:title="MemoryResources/Types.h">
<polygon fill="none" stroke="black" points="470.5,-6.5 470.5,-25.5 607.5,-25.5 607.5,-6.5 470.5,-6.5"/>
<text text-anchor="middle" x="539" y="-13.5" font-family="Helvetica,sans-Serif" font-size="10.00">MemoryResources/Types.h</text>
</a>
</g>
</g>
<!-- Node22&#45;&gt;Node28 -->
<g id="edge30" class="edge"><title>Node22&#45;&gt;Node28</title>
<path fill="none" stroke="midnightblue" d="M539,-68.4035C539,-59.9381 539,-46.7283 539,-35.8199"/>
<polygon fill="midnightblue" stroke="midnightblue" points="542.5,-35.5806 539,-25.5806 535.5,-35.5806 542.5,-35.5806"/>
</g>
<!-- Node29&#45;&gt;Node8 -->
<g id="edge32" class="edge"><title>Node29&#45;&gt;Node8</title>
<path fill="none" stroke="midnightblue" d="M990.305,-124.622C1041.58,-115.14 1125.16,-99.6834 1180.61,-89.4282"/>
<polygon fill="midnightblue" stroke="midnightblue" points="1181.43,-92.8367 1190.62,-87.5765 1180.15,-85.9534 1181.43,-92.8367"/>
</g>
<!-- Node29&#45;&gt;Node22 -->
<g id="edge33" class="edge"><title>Node29&#45;&gt;Node22</title>
<path fill="none" stroke="midnightblue" d="M899.917,-126.017C895.22,-125.321 890.514,-124.637 886,-124 789.539,-110.39 677.765,-96.173 607.714,-87.4501"/>
<polygon fill="midnightblue" stroke="midnightblue" points="608.043,-83.9642 597.688,-86.2037 607.18,-90.9108 608.043,-83.9642"/>
</g>
<!-- Node32&#45;&gt;Node16 -->
<g id="edge40" class="edge"><title>Node32&#45;&gt;Node16</title>
<path fill="none" stroke="midnightblue" d="M277.003,-124.281C254.557,-104.704 199.91,-57.0414 171.62,-32.3676"/>
<polygon fill="midnightblue" stroke="midnightblue" points="173.588,-29.4401 163.751,-25.5048 168.987,-34.7155 173.588,-29.4401"/>
</g>
<!-- Node32&#45;&gt;Node22 -->
<g id="edge39" class="edge"><title>Node32&#45;&gt;Node22</title>
<path fill="none" stroke="midnightblue" d="M326.93,-124.444C370.891,-115.023 441.627,-99.8656 489.183,-89.6752"/>
<polygon fill="midnightblue" stroke="midnightblue" points="490.212,-93.0341 499.257,-87.5164 488.745,-86.1895 490.212,-93.0341"/>
</g>
<!-- Node32&#45;&gt;Node24 -->
<g id="edge41" class="edge"><title>Node32&#45;&gt;Node24</title>
<path fill="none" stroke="midnightblue" d="M281.964,-124.281C270.949,-105.21 244.54,-59.4879 230.008,-34.3272"/>
<polygon fill="midnightblue" stroke="midnightblue" points="232.945,-32.4136 224.912,-25.5048 226.883,-35.9147 232.945,-32.4136"/>
</g>
<!-- Node33 -->
<g id="node33" class="node"><title>Node33</title>
<polygon fill="none" stroke="#bfbfbf" points="312.5,-68.5 312.5,-87.5 371.5,-87.5 371.5,-68.5 312.5,-68.5"/>
<text text-anchor="middle" x="342" y="-75.5" font-family="Helvetica,sans-Serif" font-size="10.00">functional</text>
</g>
<!-- Node32&#45;&gt;Node33 -->
<g id="edge42" class="edge"><title>Node32&#45;&gt;Node33</title>
<path fill="none" stroke="midnightblue" d="M296.082,-124.083C304.171,-116.141 316.195,-104.335 325.91,-94.7973"/>
<polygon fill="midnightblue" stroke="midnightblue" points="328.403,-97.2545 333.087,-87.7511 323.499,-92.2595 328.403,-97.2545"/>
</g>
<!-- Node34&#45;&gt;Node33 -->
<g id="edge45" class="edge"><title>Node34&#45;&gt;Node33</title>
<path fill="none" stroke="midnightblue" d="M442.986,-124.444C423.412,-115.636 392.692,-101.812 370.271,-91.722"/>
<polygon fill="midnightblue" stroke="midnightblue" points="371.481,-88.4284 360.925,-87.5164 368.608,-94.8119 371.481,-88.4284"/>
</g>
<!-- Node35 -->
<g id="node35" class="node"><title>Node35</title>
<polygon fill="none" stroke="#bfbfbf" points="417.5,-68.5 417.5,-87.5 462.5,-87.5 462.5,-68.5 417.5,-68.5"/>
<text text-anchor="middle" x="440" y="-75.5" font-family="Helvetica,sans-Serif" font-size="10.00">iosfwd</text>
</g>
<!-- Node34&#45;&gt;Node35 -->
<g id="edge44" class="edge"><title>Node34&#45;&gt;Node35</title>
<path fill="none" stroke="midnightblue" d="M458.367,-124.083C455.388,-116.77 451.074,-106.181 447.375,-97.1034"/>
<polygon fill="midnightblue" stroke="midnightblue" points="450.58,-95.6914 443.565,-87.7511 444.097,-98.3326 450.58,-95.6914"/>
</g>
<!-- Node36&#45;&gt;Node16 -->
<g id="edge47" class="edge"><title>Node36&#45;&gt;Node16</title>
<path fill="none" stroke="midnightblue" d="M76.0764,-236.341C87.9547,-202.905 130.985,-81.784 147.492,-35.3199"/>
<polygon fill="midnightblue" stroke="midnightblue" points="150.871,-36.2628 150.921,-25.6681 144.275,-33.9194 150.871,-36.2628"/>
</g>
</g>
</svg>
        <g id="navigator" transform="translate(0 0)" fill="#404254">
                <rect fill="#f2f5e9" fill-opacity="0.5" stroke="#606060" stroke-width=".5" x="0" y="0" width="60" height="60"/>
                <use id="zoomplus" xlink:href="#zoomPlus" x="17" y="9" onmousedown="handleZoom(evt,'in')"/>
                <use id="zoomminus" xlink:href="#zoomMin" x="42" y="9" onmousedown="handleZoom(evt,'out')"/>
                <use id="reset" xlink:href="#resetDef" x="30" y="36" onmousedown="handleReset()"/>
                <g id="arrowUp" xlink:href="#dirArrow" transform="translate(30 24)" onmousedown="handlePan(0,-1)">
                  <use xlink:href="#rim" fill="#404040">
                        <set attributeName="fill" to="#808080" begin="arrowUp.mouseover" end="arrowUp.mouseout"/>
                  </use>
                  <path fill="none" stroke="white" stroke-width="1.5" d="M0,-3.0v7 M-2.5,-0.5L0,-3.0L2.5,-0.5"/>
                </g>
                <g id="arrowRight" xlink:href="#dirArrow" transform="rotate(90) translate(36 -43)" onmousedown="handlePan(1,0)">
                  <use xlink:href="#rim" fill="#404040">
                        <set attributeName="fill" to="#808080" begin="arrowRight.mouseover" end="arrowRight.mouseout"/>
                  </use>
                  <path fill="none" stroke="white" stroke-width="1.5" d="M0,-3.0v7 M-2.5,-0.5L0,-3.0L2.5,-0.5"/>
                </g>
                <g id="arrowDown" xlink:href="#dirArrow" transform="rotate(180) translate(-30 -48)" onmousedown="handlePan(0,1)">
                  <use xlink:href="#rim" fill="#404040">
                        <set attributeName="fill" to="#808080" begin="arrowDown.mouseover" end="arrowDown.mouseout"/>
                  </use>
                  <path fill="none" stroke="white" stroke-width="1.5" d="M0,-3.0v7 M-2.5,-0.5L0,-3.0L2.5,-0.5"/>
                </g>
                <g id="arrowLeft" xlink:href="#dirArrow" transform="rotate(270) translate(-36 17)" onmousedown="handlePan(-1,0)">
                  <use xlink:href="#rim" fill="#404040">
                        <set attributeName="fill" to="#808080" begin="arrowLeft.mouseover" end="arrowLeft.mouseout"/>
                  </use>
                  <path fill="none" stroke="white" stroke-width="1.5" d="M0,-3.0v7 M-2.5,-0.5L0,-3.0L2.5,-0.5"/>
                </g>
        </g>
        <svg viewBox="0 0 15 15" width="100%" height="30px" preserveAspectRatio="xMaxYMin meet">
         <g id="arrow_out" transform="scale(0.3 0.3)">
          <a xlink:href="FakeTimeframeGeneratorDevice_8cxx__incl_org.svg" target="_base">
           <rect id="button" ry="5" rx="5" y="6" x="6" height="38" width="38"
                fill="#f2f5e9" fill-opacity="0.5" stroke="#606060" stroke-width="1.0"/>
           <path id="arrow"
             d="M 11.500037,31.436501 C 11.940474,20.09759 22.043105,11.32322 32.158766,21.979434 L 37.068811,17.246167 C 37.068811,17.246167 37.088388,32 37.088388,32 L 22.160133,31.978069 C 22.160133,31.978069 26.997745,27.140456 26.997745,27.140456 C 18.528582,18.264221 13.291696,25.230495 11.500037,31.436501 z"
             style="fill:#404040;"/>
          </a>
         </g>
        </svg>
</svg>
