<?xml version="1.0" encoding="UTF-8" standalone="no"?>
<!DOCTYPE svg PUBLIC "-//W3C//DTD SVG 1.1//EN"
 "http://www.w3.org/Graphics/SVG/1.1/DTD/svg11.dtd">
<!-- Generated by graphviz version 2.36.0 (20140111.2315)
 -->
<!-- Title: /home/travis/build/AliceO2Group/AliceO2/macro/CheckClusters_mft.C Pages: 1 -->
<svg width="2510pt" height="446pt"
 viewBox="0.00 0.00 2510.00 446.00" xmlns="http://www.w3.org/2000/svg" xmlns:xlink="http://www.w3.org/1999/xlink">
<g id="graph0" class="graph" transform="scale(1 1) rotate(0) translate(4 442)">
<title>/home/travis/build/AliceO2Group/AliceO2/macro/CheckClusters_mft.C</title>
<!-- Node1 -->
<g id="node1" class="node"><title>Node1</title>
<polygon fill="#bfbfbf" stroke="black" points="813.5,-396.5 813.5,-437.5 958.5,-437.5 958.5,-396.5 813.5,-396.5"/>
<text text-anchor="start" x="821.5" y="-425.5" font-family="Helvetica,sans-Serif" font-size="10.00">/home/travis/build</text>
<text text-anchor="start" x="821.5" y="-414.5" font-family="Helvetica,sans-Serif" font-size="10.00">/AliceO2Group/AliceO2</text>
<text text-anchor="middle" x="886" y="-403.5" font-family="Helvetica,sans-Serif" font-size="10.00">/macro/CheckClusters_mft.C</text>
</g>
<!-- Node2 -->
<g id="node2" class="node"><title>Node2</title>
<polygon fill="none" stroke="#bfbfbf" points="439.5,-340.5 439.5,-359.5 504.5,-359.5 504.5,-340.5 439.5,-340.5"/>
<text text-anchor="middle" x="472" y="-347.5" font-family="Helvetica,sans-Serif" font-size="10.00">TCanvas.h</text>
</g>
<!-- Node1&#45;&gt;Node2 -->
<g id="edge1" class="edge"><title>Node1&#45;&gt;Node2</title>
<path fill="none" stroke="midnightblue" d="M813.423,-406.424C740.487,-396.494 624.64,-379.889 514.478,-359.987"/>
<polygon fill="midnightblue" stroke="midnightblue" points="514.985,-356.521 504.52,-358.176 513.732,-363.409 514.985,-356.521"/>
</g>
<!-- Node3 -->
<g id="node3" class="node"><title>Node3</title>
<polygon fill="none" stroke="#bfbfbf" points="522.5,-340.5 522.5,-359.5 569.5,-359.5 569.5,-340.5 522.5,-340.5"/>
<text text-anchor="middle" x="546" y="-347.5" font-family="Helvetica,sans-Serif" font-size="10.00">TFile.h</text>
</g>
<!-- Node1&#45;&gt;Node3 -->
<g id="edge2" class="edge"><title>Node1&#45;&gt;Node3</title>
<path fill="none" stroke="midnightblue" d="M813.38,-404.559C753.263,-394.674 665.454,-379.284 579.643,-359.983"/>
<polygon fill="midnightblue" stroke="midnightblue" points="580.258,-356.534 569.732,-357.734 578.709,-363.36 580.258,-356.534"/>
</g>
<!-- Node4 -->
<g id="node4" class="node"><title>Node4</title>
<polygon fill="none" stroke="#bfbfbf" points="588,-340.5 588,-359.5 638,-359.5 638,-340.5 588,-340.5"/>
<text text-anchor="middle" x="613" y="-347.5" font-family="Helvetica,sans-Serif" font-size="10.00">TH2F.h</text>
</g>
<!-- Node1&#45;&gt;Node4 -->
<g id="edge3" class="edge"><title>Node1&#45;&gt;Node4</title>
<path fill="none" stroke="midnightblue" d="M813.256,-399.293C766.085,-388.358 703.334,-373.623 648,-360 647.901,-359.976 647.802,-359.951 647.703,-359.927"/>
<polygon fill="midnightblue" stroke="midnightblue" points="648.77,-356.586 638.219,-357.551 647.069,-363.376 648.77,-356.586"/>
</g>
<!-- Node5 -->
<g id="node5" class="node"><title>Node5</title>
<polygon fill="none" stroke="#bfbfbf" points="656.5,-340.5 656.5,-359.5 715.5,-359.5 715.5,-340.5 656.5,-340.5"/>
<text text-anchor="middle" x="686" y="-347.5" font-family="Helvetica,sans-Serif" font-size="10.00">TNtuple.h</text>
</g>
<!-- Node1&#45;&gt;Node5 -->
<g id="edge4" class="edge"><title>Node1&#45;&gt;Node5</title>
<path fill="none" stroke="midnightblue" d="M825.993,-396.498C792.131,-385.493 750.943,-372.106 722.039,-362.713"/>
<polygon fill="midnightblue" stroke="midnightblue" points="722.952,-359.329 712.36,-359.567 720.789,-365.987 722.952,-359.329"/>
</g>
<!-- Node6 -->
<g id="node6" class="node"><title>Node6</title>
<polygon fill="none" stroke="#bfbfbf" points="734,-340.5 734,-359.5 790,-359.5 790,-340.5 734,-340.5"/>
<text text-anchor="middle" x="762" y="-347.5" font-family="Helvetica,sans-Serif" font-size="10.00">TString.h</text>
</g>
<!-- Node1&#45;&gt;Node6 -->
<g id="edge5" class="edge"><title>Node1&#45;&gt;Node6</title>
<path fill="none" stroke="midnightblue" d="M848.796,-396.498C829.053,-386.149 805.294,-373.695 787.629,-364.435"/>
<polygon fill="midnightblue" stroke="midnightblue" points="788.988,-361.195 778.506,-359.652 785.738,-367.395 788.988,-361.195"/>
</g>
<!-- Node7 -->
<g id="node7" class="node"><title>Node7</title>
<polygon fill="none" stroke="#bfbfbf" points="808,-340.5 808,-359.5 858,-359.5 858,-340.5 808,-340.5"/>
<text text-anchor="middle" x="833" y="-347.5" font-family="Helvetica,sans-Serif" font-size="10.00">TTree.h</text>
</g>
<!-- Node1&#45;&gt;Node7 -->
<g id="edge6" class="edge"><title>Node1&#45;&gt;Node7</title>
<path fill="none" stroke="midnightblue" d="M870.098,-396.498C862.597,-387.299 853.74,-376.436 846.562,-367.632"/>
<polygon fill="midnightblue" stroke="midnightblue" points="849.087,-365.191 840.055,-359.652 843.662,-369.614 849.087,-365.191"/>
</g>
<!-- Node8 -->
<g id="node8" class="node"><title>Node8</title>
<g id="a_node8"><a xlink:href="../../d1/d62/DataFormats_2Detectors_2ITSMFT_2common_2include_2DataFormatsITSMFT_2Cluster_8h.html" target="_top" xlink:title="DataFormatsITSMFT/Cluster.h">
<polygon fill="none" stroke="black" points="914,-340.5 914,-359.5 1066,-359.5 1066,-340.5 914,-340.5"/>
<text text-anchor="middle" x="990" y="-347.5" font-family="Helvetica,sans-Serif" font-size="10.00">DataFormatsITSMFT/Cluster.h</text>
</a>
</g>
</g>
<!-- Node1&#45;&gt;Node8 -->
<g id="edge7" class="edge"><title>Node1&#45;&gt;Node8</title>
<path fill="none" stroke="midnightblue" d="M917.203,-396.498C933.302,-386.436 952.584,-374.385 967.258,-365.214"/>
<polygon fill="midnightblue" stroke="midnightblue" points="969.531,-367.921 976.156,-359.652 965.821,-361.985 969.531,-367.921"/>
</g>
<!-- Node25 -->
<g id="node25" class="node"><title>Node25</title>
<g id="a_node25"><a xlink:href="../../d9/d52/Common_2MathUtils_2include_2MathUtils_2Utils_8h.html" target="_top" xlink:title="MathUtils/Utils.h">
<polygon fill="none" stroke="black" points="167,-74.5 167,-93.5 257,-93.5 257,-74.5 167,-74.5"/>
<text text-anchor="middle" x="212" y="-81.5" font-family="Helvetica,sans-Serif" font-size="10.00">MathUtils/Utils.h</text>
</a>
</g>
</g>
<!-- Node1&#45;&gt;Node25 -->
<g id="edge58" class="edge"><title>Node1&#45;&gt;Node25</title>
<path fill="none" stroke="midnightblue" d="M886.433,-396.447C885.72,-379.262 881.863,-354.757 867,-340 797.389,-270.885 527.83,-275.41 438,-236 353.589,-198.968 266.411,-130.532 229.836,-100.179"/>
<polygon fill="midnightblue" stroke="midnightblue" points="231.955,-97.3887 222.043,-93.649 227.46,-102.754 231.955,-97.3887"/>
</g>
<!-- Node28 -->
<g id="node28" class="node"><title>Node28</title>
<g id="a_node28"><a xlink:href="../../dd/d76/Cartesian3D_8h.html" target="_top" xlink:title="MathUtils/Cartesian3D.h">
<polygon fill="none" stroke="black" points="1074.5,-142.5 1074.5,-161.5 1199.5,-161.5 1199.5,-142.5 1074.5,-142.5"/>
<text text-anchor="middle" x="1137" y="-149.5" font-family="Helvetica,sans-Serif" font-size="10.00">MathUtils/Cartesian3D.h</text>
</a>
</g>
</g>
<!-- Node1&#45;&gt;Node28 -->
<g id="edge57" class="edge"><title>Node1&#45;&gt;Node28</title>
<path fill="none" stroke="midnightblue" d="M958.626,-410.973C997.835,-404.598 1044.34,-390.566 1075,-360 1127.71,-307.445 1135.96,-212.009 1137,-171.733"/>
<polygon fill="midnightblue" stroke="midnightblue" points="1140.5,-171.557 1137.14,-161.512 1133.5,-171.465 1140.5,-171.557"/>
</g>
<!-- Node38 -->
<g id="node38" class="node"><title>Node38</title>
<g id="a_node38"><a xlink:href="../../d0/dae/ITSMFT_2common_2simulation_2include_2ITSMFTSimulation_2Hit_8h.html" target="_top" xlink:title="ITSMFTSimulation/Hit.h">
<polygon fill="none" stroke="black" points="1473,-278.5 1473,-297.5 1595,-297.5 1595,-278.5 1473,-278.5"/>
<text text-anchor="middle" x="1534" y="-285.5" font-family="Helvetica,sans-Serif" font-size="10.00">ITSMFTSimulation/Hit.h</text>
</a>
</g>
</g>
<!-- Node1&#45;&gt;Node38 -->
<g id="edge43" class="edge"><title>Node1&#45;&gt;Node38</title>
<path fill="none" stroke="midnightblue" d="M958.754,-408.559C1038.2,-399.761 1168.94,-383.31 1280,-360 1358.86,-343.449 1449.33,-316.101 1498.18,-300.622"/>
<polygon fill="midnightblue" stroke="midnightblue" points="1499.49,-303.879 1507.95,-297.508 1497.36,-297.21 1499.49,-303.879"/>
</g>
<!-- Node47 -->
<g id="node47" class="node"><title>Node47</title>
<polygon fill="none" stroke="#bfbfbf" points="1966.5,-340.5 1966.5,-359.5 2103.5,-359.5 2103.5,-340.5 1966.5,-340.5"/>
<text text-anchor="middle" x="2035" y="-347.5" font-family="Helvetica,sans-Serif" font-size="10.00">MFTBase/GeometryTGeo.h</text>
</g>
<!-- Node1&#45;&gt;Node47 -->
<g id="edge56" class="edge"><title>Node1&#45;&gt;Node47</title>
<path fill="none" stroke="midnightblue" d="M958.794,-413.571C1131.42,-407.505 1579.08,-389.991 1952,-360 1953.3,-359.895 1954.61,-359.787 1955.93,-359.675"/>
<polygon fill="midnightblue" stroke="midnightblue" points="1956.54,-363.135 1966.19,-358.759 1955.91,-356.163 1956.54,-363.135"/>
</g>
<!-- Node48 -->
<g id="node48" class="node"><title>Node48</title>
<g id="a_node48"><a xlink:href="../../d7/dcd/MCCompLabel_8h.html" target="_top" xlink:title="SimulationDataFormat\l/MCCompLabel.h">
<polygon fill="none" stroke="black" points="1619,-273 1619,-303 1733,-303 1733,-273 1619,-273"/>
<text text-anchor="start" x="1627" y="-291" font-family="Helvetica,sans-Serif" font-size="10.00">SimulationDataFormat</text>
<text text-anchor="middle" x="1676" y="-280" font-family="Helvetica,sans-Serif" font-size="10.00">/MCCompLabel.h</text>
</a>
</g>
</g>
<!-- Node1&#45;&gt;Node48 -->
<g id="edge59" class="edge"><title>Node1&#45;&gt;Node48</title>
<path fill="none" stroke="midnightblue" d="M958.868,-408.619C1047.38,-399.245 1201.11,-381.657 1332,-360 1453.77,-339.852 1483.14,-329.031 1604,-304 1605.48,-303.692 1606.99,-303.381 1608.5,-303.067"/>
<polygon fill="midnightblue" stroke="midnightblue" points="1609.54,-306.425 1618.62,-300.966 1608.12,-299.571 1609.54,-306.425"/>
</g>
<!-- Node49 -->
<g id="node49" class="node"><title>Node49</title>
<g id="a_node49"><a xlink:href="../../db/d14/MCTruthContainer_8h.html" target="_top" xlink:title="Definition of a container to keep Monte Carlo truth external to simulation objects. ">
<polygon fill="none" stroke="black" points="2236,-137 2236,-167 2350,-167 2350,-137 2236,-137"/>
<text text-anchor="start" x="2244" y="-155" font-family="Helvetica,sans-Serif" font-size="10.00">SimulationDataFormat</text>
<text text-anchor="middle" x="2293" y="-144" font-family="Helvetica,sans-Serif" font-size="10.00">/MCTruthContainer.h</text>
</a>
</g>
</g>
<!-- Node1&#45;&gt;Node49 -->
<g id="edge61" class="edge"><title>Node1&#45;&gt;Node49</title>
<path fill="none" stroke="midnightblue" d="M958.64,-409.265C1058.01,-399.775 1241.84,-381.236 1398,-360 1551.49,-339.127 1590.65,-336.961 1742,-304 1925.88,-263.955 2139.86,-200.324 2238.32,-170.065"/>
<polygon fill="midnightblue" stroke="midnightblue" points="2239.52,-173.357 2248.05,-167.068 2237.46,-166.668 2239.52,-173.357"/>
</g>
<!-- Node9 -->
<g id="node9" class="node"><title>Node9</title>
<g id="a_node9"><a xlink:href="../../d4/de2/BaseCluster_8h.html" target="_top" xlink:title="ReconstructionDataFormats\l/BaseCluster.h">
<polygon fill="none" stroke="black" points="808,-273 808,-303 948,-303 948,-273 808,-273"/>
<text text-anchor="start" x="816" y="-291" font-family="Helvetica,sans-Serif" font-size="10.00">ReconstructionDataFormats</text>
<text text-anchor="middle" x="878" y="-280" font-family="Helvetica,sans-Serif" font-size="10.00">/BaseCluster.h</text>
</a>
</g>
</g>
<!-- Node8&#45;&gt;Node9 -->
<g id="edge8" class="edge"><title>Node8&#45;&gt;Node9</title>
<path fill="none" stroke="midnightblue" d="M973.953,-340.403C958.217,-331.974 933.699,-318.839 913.386,-307.957"/>
<polygon fill="midnightblue" stroke="midnightblue" points="914.864,-304.778 904.396,-303.141 911.558,-310.948 914.864,-304.778"/>
</g>
<!-- Node10 -->
<g id="node10" class="node"><title>Node10</title>
<polygon fill="none" stroke="#bfbfbf" points="662.5,-210.5 662.5,-229.5 721.5,-229.5 721.5,-210.5 662.5,-210.5"/>
<text text-anchor="middle" x="692" y="-217.5" font-family="Helvetica,sans-Serif" font-size="10.00">TObject.h</text>
</g>
<!-- Node9&#45;&gt;Node10 -->
<g id="edge9" class="edge"><title>Node9&#45;&gt;Node10</title>
<path fill="none" stroke="midnightblue" d="M836.367,-272.968C806.862,-262.923 766.391,-248.941 731,-236 728.468,-235.074 725.85,-234.101 723.224,-233.114"/>
<polygon fill="midnightblue" stroke="midnightblue" points="724.407,-229.82 713.816,-229.538 721.92,-236.363 724.407,-229.82"/>
</g>
<!-- Node11 -->
<g id="node11" class="node"><title>Node11</title>
<polygon fill="none" stroke="#bfbfbf" points="313.5,-74.5 313.5,-93.5 354.5,-93.5 354.5,-74.5 313.5,-74.5"/>
<text text-anchor="middle" x="334" y="-81.5" font-family="Helvetica,sans-Serif" font-size="10.00">bitset</text>
</g>
<!-- Node9&#45;&gt;Node11 -->
<g id="edge10" class="edge"><title>Node9&#45;&gt;Node11</title>
<path fill="none" stroke="midnightblue" d="M807.841,-274.923C763.158,-266.281 704.408,-253.149 654,-236 517.32,-189.501 486.643,-167.461 359,-100 358.178,-99.5654 357.345,-99.1159 356.507,-98.6559"/>
<polygon fill="midnightblue" stroke="midnightblue" points="358.013,-95.4843 347.601,-93.5244 354.518,-101.55 358.013,-95.4843"/>
</g>
<!-- Node12 -->
<g id="node12" class="node"><title>Node12</title>
<polygon fill="none" stroke="#bfbfbf" points="914,-210.5 914,-229.5 964,-229.5 964,-210.5 914,-210.5"/>
<text text-anchor="middle" x="939" y="-217.5" font-family="Helvetica,sans-Serif" font-size="10.00">iomanip</text>
</g>
<!-- Node9&#45;&gt;Node12 -->
<g id="edge11" class="edge"><title>Node9&#45;&gt;Node12</title>
<path fill="none" stroke="midnightblue" d="M891.236,-272.679C900.841,-262.286 913.853,-248.208 923.87,-237.37"/>
<polygon fill="midnightblue" stroke="midnightblue" points="926.623,-239.548 930.841,-229.828 921.483,-234.796 926.623,-239.548"/>
</g>
<!-- Node13 -->
<g id="node13" class="node"><title>Node13</title>
<polygon fill="none" stroke="#bfbfbf" points="446.5,-210.5 446.5,-229.5 475.5,-229.5 475.5,-210.5 446.5,-210.5"/>
<text text-anchor="middle" x="461" y="-217.5" font-family="Helvetica,sans-Serif" font-size="10.00">ios</text>
</g>
<!-- Node9&#45;&gt;Node13 -->
<g id="edge12" class="edge"><title>Node9&#45;&gt;Node13</title>
<path fill="none" stroke="midnightblue" d="M807.753,-285.04C728.806,-281.183 597.609,-269.762 490,-236 488.094,-235.402 486.162,-234.684 484.249,-233.891"/>
<polygon fill="midnightblue" stroke="midnightblue" points="485.567,-230.642 475.034,-229.502 482.557,-236.962 485.567,-230.642"/>
</g>
<!-- Node14 -->
<g id="node14" class="node"><title>Node14</title>
<polygon fill="none" stroke="#bfbfbf" points="1596.5,-74.5 1596.5,-93.5 1641.5,-93.5 1641.5,-74.5 1596.5,-74.5"/>
<text text-anchor="middle" x="1619" y="-81.5" font-family="Helvetica,sans-Serif" font-size="10.00">iosfwd</text>
</g>
<!-- Node9&#45;&gt;Node14 -->
<g id="edge13" class="edge"><title>Node9&#45;&gt;Node14</title>
<path fill="none" stroke="midnightblue" d="M947.709,-272.996C1076.27,-246.213 1358.44,-182.941 1587,-100 1588.9,-99.3093 1590.85,-98.5474 1592.79,-97.7442"/>
<polygon fill="midnightblue" stroke="midnightblue" points="1594.58,-100.778 1602.3,-93.5216 1591.74,-94.3806 1594.58,-100.778"/>
</g>
<!-- Node15 -->
<g id="node15" class="node"><title>Node15</title>
<g id="a_node15"><a xlink:href="../../d4/d20/DetMatrixCache_8h.html" target="_top" xlink:title="DetectorsCommonDataFormats\l/DetMatrixCache.h">
<polygon fill="none" stroke="black" points="740,-205 740,-235 896,-235 896,-205 740,-205"/>
<text text-anchor="start" x="748" y="-223" font-family="Helvetica,sans-Serif" font-size="10.00">DetectorsCommonDataFormats</text>
<text text-anchor="middle" x="818" y="-212" font-family="Helvetica,sans-Serif" font-size="10.00">/DetMatrixCache.h</text>
</a>
</g>
</g>
<!-- Node9&#45;&gt;Node15 -->
<g id="edge14" class="edge"><title>Node9&#45;&gt;Node15</title>
<path fill="none" stroke="midnightblue" d="M864.981,-272.679C857.04,-263.944 846.732,-252.605 837.795,-242.775"/>
<polygon fill="midnightblue" stroke="midnightblue" points="840.31,-240.338 830.994,-235.293 835.131,-245.047 840.31,-240.338"/>
</g>
<!-- Node9&#45;&gt;Node28 -->
<g id="edge42" class="edge"><title>Node9&#45;&gt;Node28</title>
<path fill="none" stroke="midnightblue" d="M905.228,-272.913C955.515,-246.896 1062.29,-191.653 1111.36,-166.265"/>
<polygon fill="midnightblue" stroke="midnightblue" points="1113.1,-169.307 1120.37,-161.603 1109.88,-163.09 1113.1,-169.307"/>
</g>
<!-- Node16 -->
<g id="node16" class="node"><title>Node16</title>
<polygon fill="none" stroke="#bfbfbf" points="594,-142.5 594,-161.5 736,-161.5 736,-142.5 594,-142.5"/>
<text text-anchor="middle" x="665" y="-149.5" font-family="Helvetica,sans-Serif" font-size="10.00">AliTPCCommonFairLogger.h</text>
</g>
<!-- Node15&#45;&gt;Node16 -->
<g id="edge15" class="edge"><title>Node15&#45;&gt;Node16</title>
<path fill="none" stroke="midnightblue" d="M785.178,-204.841C758.239,-193.221 720.432,-176.912 694.455,-165.706"/>
<polygon fill="midnightblue" stroke="midnightblue" points="695.695,-162.429 685.126,-161.682 692.922,-168.857 695.695,-162.429"/>
</g>
<!-- Node17 -->
<g id="node17" class="node"><title>Node17</title>
<polygon fill="none" stroke="#bfbfbf" points="754,-142.5 754,-161.5 882,-161.5 882,-142.5 754,-142.5"/>
<text text-anchor="middle" x="818" y="-149.5" font-family="Helvetica,sans-Serif" font-size="10.00">AliTPCCommonRtypes.h</text>
</g>
<!-- Node15&#45;&gt;Node17 -->
<g id="edge16" class="edge"><title>Node15&#45;&gt;Node17</title>
<path fill="none" stroke="midnightblue" d="M818,-204.679C818,-195.101 818,-182.394 818,-171.977"/>
<polygon fill="midnightblue" stroke="midnightblue" points="821.5,-171.828 818,-161.828 814.5,-171.828 821.5,-171.828"/>
</g>
<!-- Node18 -->
<g id="node18" class="node"><title>Node18</title>
<polygon fill="none" stroke="#bfbfbf" points="266,-6.5 266,-25.5 304,-25.5 304,-6.5 266,-6.5"/>
<text text-anchor="middle" x="285" y="-13.5" font-family="Helvetica,sans-Serif" font-size="10.00">array</text>
</g>
<!-- Node15&#45;&gt;Node18 -->
<g id="edge17" class="edge"><title>Node15&#45;&gt;Node18</title>
<path fill="none" stroke="midnightblue" d="M739.652,-205.583C654.067,-190.908 528.313,-169.282 523,-168 424.339,-144.193 374.363,-174.092 305,-100 288.726,-82.6162 285.001,-54.3629 284.484,-35.7291"/>
<polygon fill="midnightblue" stroke="midnightblue" points="287.984,-35.5563 284.493,-25.5531 280.984,-35.55 287.984,-35.5563"/>
</g>
<!-- Node19 -->
<g id="node19" class="node"><title>Node19</title>
<polygon fill="none" stroke="#bfbfbf" points="532,-142.5 532,-161.5 576,-161.5 576,-142.5 532,-142.5"/>
<text text-anchor="middle" x="554" y="-149.5" font-family="Helvetica,sans-Serif" font-size="10.00">vector</text>
</g>
<!-- Node15&#45;&gt;Node19 -->
<g id="edge18" class="edge"><title>Node15&#45;&gt;Node19</title>
<path fill="none" stroke="midnightblue" d="M744.906,-204.948C688.054,-193.656 614.105,-178.069 585,-168 583.093,-167.34 581.15,-166.594 579.214,-165.795"/>
<polygon fill="midnightblue" stroke="midnightblue" points="580.338,-162.462 569.785,-161.523 577.449,-168.838 580.338,-162.462"/>
</g>
<!-- Node20 -->
<g id="node20" class="node"><title>Node20</title>
<g id="a_node20"><a xlink:href="../../d6/d31/DetID_8h.html" target="_top" xlink:title="DetectorsCommonDataFormats\l/DetID.h">
<polygon fill="none" stroke="black" points="900,-137 900,-167 1056,-167 1056,-137 900,-137"/>
<text text-anchor="start" x="908" y="-155" font-family="Helvetica,sans-Serif" font-size="10.00">DetectorsCommonDataFormats</text>
<text text-anchor="middle" x="978" y="-144" font-family="Helvetica,sans-Serif" font-size="10.00">/DetID.h</text>
</a>
</g>
</g>
<!-- Node15&#45;&gt;Node20 -->
<g id="edge19" class="edge"><title>Node15&#45;&gt;Node20</title>
<path fill="none" stroke="midnightblue" d="M852.324,-204.841C876.343,-194.933 908.624,-181.618 934.454,-170.963"/>
<polygon fill="midnightblue" stroke="midnightblue" points="936.098,-174.071 944.008,-167.022 933.429,-167.6 936.098,-174.071"/>
</g>
<!-- Node15&#45;&gt;Node28 -->
<g id="edge30" class="edge"><title>Node15&#45;&gt;Node28</title>
<path fill="none" stroke="midnightblue" d="M886.153,-204.962C935.757,-194.736 1004.55,-180.538 1065,-168 1071.8,-166.589 1078.97,-165.1 1086.03,-163.63"/>
<polygon fill="midnightblue" stroke="midnightblue" points="1087.18,-166.966 1096.26,-161.501 1085.76,-160.112 1087.18,-166.966"/>
</g>
<!-- Node20&#45;&gt;Node11 -->
<g id="edge22" class="edge"><title>Node20&#45;&gt;Node11</title>
<path fill="none" stroke="midnightblue" d="M899.801,-137.13C896.833,-136.727 893.891,-136.348 891,-136 660.116,-108.208 595.057,-154.572 369,-100 366.108,-99.3019 363.152,-98.3857 360.242,-97.3497"/>
<polygon fill="midnightblue" stroke="midnightblue" points="361.28,-93.9946 350.696,-93.5086 358.667,-100.489 361.28,-93.9946"/>
</g>
<!-- Node20&#45;&gt;Node18 -->
<g id="edge21" class="edge"><title>Node20&#45;&gt;Node18</title>
<path fill="none" stroke="midnightblue" d="M899.799,-137.148C896.831,-136.739 893.89,-136.355 891,-136 782.851,-122.728 503.176,-140.447 402,-100 381.181,-91.6771 381.076,-81.2655 363,-68 344.9,-54.7167 323.504,-40.849 307.704,-30.9334"/>
<polygon fill="midnightblue" stroke="midnightblue" points="309.454,-27.9 299.114,-25.5862 305.754,-33.8425 309.454,-27.9"/>
</g>
<!-- Node21 -->
<g id="node21" class="node"><title>Node21</title>
<polygon fill="none" stroke="#bfbfbf" points="1660,-74.5 1660,-93.5 1716,-93.5 1716,-74.5 1660,-74.5"/>
<text text-anchor="middle" x="1688" y="-81.5" font-family="Helvetica,sans-Serif" font-size="10.00">Rtypes.h</text>
</g>
<!-- Node20&#45;&gt;Node21 -->
<g id="edge20" class="edge"><title>Node20&#45;&gt;Node21</title>
<path fill="none" stroke="midnightblue" d="M1056.15,-137.232C1059.47,-136.788 1062.77,-136.374 1066,-136 1324.32,-106.109 1396.15,-156.436 1650,-100 1653.43,-99.2381 1656.95,-98.21 1660.4,-97.0471"/>
<polygon fill="midnightblue" stroke="midnightblue" points="1661.68,-100.308 1669.81,-93.5222 1659.22,-93.7526 1661.68,-100.308"/>
</g>
<!-- Node22 -->
<g id="node22" class="node"><title>Node22</title>
<polygon fill="none" stroke="#bfbfbf" points="2232.5,-74.5 2232.5,-93.5 2281.5,-93.5 2281.5,-74.5 2232.5,-74.5"/>
<text text-anchor="middle" x="2257" y="-81.5" font-family="Helvetica,sans-Serif" font-size="10.00">cassert</text>
</g>
<!-- Node20&#45;&gt;Node22 -->
<g id="edge23" class="edge"><title>Node20&#45;&gt;Node22</title>
<path fill="none" stroke="midnightblue" d="M1056.13,-137.107C1059.46,-136.697 1062.76,-136.325 1066,-136 1321.95,-110.327 1972.15,-156.964 2223,-100 2225.83,-99.3571 2228.72,-98.4767 2231.55,-97.4622"/>
<polygon fill="midnightblue" stroke="midnightblue" points="2232.92,-100.685 2240.84,-93.6466 2230.26,-94.211 2232.92,-100.685"/>
</g>
<!-- Node23 -->
<g id="node23" class="node"><title>Node23</title>
<polygon fill="none" stroke="#bfbfbf" points="411,-74.5 411,-93.5 457,-93.5 457,-74.5 411,-74.5"/>
<text text-anchor="middle" x="434" y="-81.5" font-family="Helvetica,sans-Serif" font-size="10.00">cstdint</text>
</g>
<!-- Node20&#45;&gt;Node23 -->
<g id="edge24" class="edge"><title>Node20&#45;&gt;Node23</title>
<path fill="none" stroke="midnightblue" d="M899.793,-137.189C896.827,-136.769 893.888,-136.371 891,-136 703.418,-111.911 649.975,-147.827 467,-100 464.496,-99.3455 461.945,-98.5142 459.426,-97.5797"/>
<polygon fill="midnightblue" stroke="midnightblue" points="460.618,-94.2837 450.044,-93.6208 457.897,-100.733 460.618,-94.2837"/>
</g>
<!-- Node24 -->
<g id="node24" class="node"><title>Node24</title>
<polygon fill="none" stroke="#bfbfbf" points="1918,-74.5 1918,-93.5 1980,-93.5 1980,-74.5 1918,-74.5"/>
<text text-anchor="middle" x="1949" y="-81.5" font-family="Helvetica,sans-Serif" font-size="10.00">type_traits</text>
</g>
<!-- Node20&#45;&gt;Node24 -->
<g id="edge25" class="edge"><title>Node20&#45;&gt;Node24</title>
<path fill="none" stroke="midnightblue" d="M1056.14,-137.155C1059.47,-136.732 1062.76,-136.344 1066,-136 1438.91,-96.4148 1541.52,-174.769 1909,-100 1912.71,-99.2458 1916.52,-98.1969 1920.26,-97.0004"/>
<polygon fill="midnightblue" stroke="midnightblue" points="1921.59,-100.243 1929.83,-93.5903 1919.24,-93.6494 1921.59,-100.243"/>
</g>
<!-- Node20&#45;&gt;Node25 -->
<g id="edge26" class="edge"><title>Node20&#45;&gt;Node25</title>
<path fill="none" stroke="midnightblue" d="M899.804,-137.103C896.835,-136.707 893.893,-136.337 891,-136 631.82,-105.787 564.34,-128.81 305,-100 292.809,-98.6457 279.779,-96.7975 267.448,-94.861"/>
<polygon fill="midnightblue" stroke="midnightblue" points="267.718,-91.3594 257.288,-93.2225 266.603,-98.2701 267.718,-91.3594"/>
</g>
<!-- Node25&#45;&gt;Node18 -->
<g id="edge27" class="edge"><title>Node25&#45;&gt;Node18</title>
<path fill="none" stroke="midnightblue" d="M221.543,-74.3717C233.174,-63.8564 253.055,-45.8819 267.469,-32.8496"/>
<polygon fill="midnightblue" stroke="midnightblue" points="270.151,-35.1438 275.221,-25.8411 265.456,-29.9514 270.151,-35.1438"/>
</g>
<!-- Node26 -->
<g id="node26" class="node"><title>Node26</title>
<polygon fill="none" stroke="#bfbfbf" points="197,-6.5 197,-25.5 241,-25.5 241,-6.5 197,-6.5"/>
<text text-anchor="middle" x="219" y="-13.5" font-family="Helvetica,sans-Serif" font-size="10.00">cmath</text>
</g>
<!-- Node25&#45;&gt;Node26 -->
<g id="edge28" class="edge"><title>Node25&#45;&gt;Node26</title>
<path fill="none" stroke="midnightblue" d="M212.915,-74.3717C213.947,-64.6426 215.656,-48.528 217.001,-35.8504"/>
<polygon fill="midnightblue" stroke="midnightblue" points="220.488,-36.1545 218.062,-25.8411 213.527,-35.4162 220.488,-36.1545"/>
</g>
<!-- Node27 -->
<g id="node27" class="node"><title>Node27</title>
<g id="a_node27"><a xlink:href="../../d6/d84/MathConstants_8h.html" target="_top" xlink:title="useful math constants ">
<polygon fill="none" stroke="black" points="-0.5,-6.5 -0.5,-25.5 178.5,-25.5 178.5,-6.5 -0.5,-6.5"/>
<text text-anchor="middle" x="89" y="-13.5" font-family="Helvetica,sans-Serif" font-size="10.00">CommonConstants/MathConstants.h</text>
</a>
</g>
</g>
<!-- Node25&#45;&gt;Node27 -->
<g id="edge29" class="edge"><title>Node25&#45;&gt;Node27</title>
<path fill="none" stroke="midnightblue" d="M195.92,-74.3717C175.109,-63.2051 138.622,-43.6266 114.136,-30.4876"/>
<polygon fill="midnightblue" stroke="midnightblue" points="115.551,-27.2746 105.084,-25.6305 112.241,-33.4428 115.551,-27.2746"/>
</g>
<!-- Node28&#45;&gt;Node14 -->
<g id="edge38" class="edge"><title>Node28&#45;&gt;Node14</title>
<path fill="none" stroke="midnightblue" d="M1176.84,-142.482C1188.75,-140.14 1201.87,-137.763 1214,-136 1378.82,-112.049 1426.37,-143.986 1587,-100 1589.35,-99.3574 1591.73,-98.5539 1594.09,-97.6549"/>
<polygon fill="midnightblue" stroke="midnightblue" points="1595.68,-100.782 1603.46,-93.5881 1592.89,-94.3614 1595.68,-100.782"/>
</g>
<!-- Node28&#45;&gt;Node21 -->
<g id="edge36" class="edge"><title>Node28&#45;&gt;Node21</title>
<path fill="none" stroke="midnightblue" d="M1199.52,-150.325C1297.07,-148.04 1490.81,-138.539 1650,-100 1653.24,-99.2156 1656.57,-98.2137 1659.85,-97.1005"/>
<polygon fill="midnightblue" stroke="midnightblue" points="1661.25,-100.314 1669.39,-93.5334 1658.8,-93.7568 1661.25,-100.314"/>
</g>
<!-- Node29 -->
<g id="node29" class="node"><title>Node29</title>
<polygon fill="none" stroke="#bfbfbf" points="475.5,-69 475.5,-99 626.5,-99 626.5,-69 475.5,-69"/>
<text text-anchor="start" x="483.5" y="-87" font-family="Helvetica,sans-Serif" font-size="10.00">Math/GenVector/Displacement</text>
<text text-anchor="middle" x="551" y="-76" font-family="Helvetica,sans-Serif" font-size="10.00">Vector3D.h</text>
</g>
<!-- Node28&#45;&gt;Node29 -->
<g id="edge31" class="edge"><title>Node28&#45;&gt;Node29</title>
<path fill="none" stroke="midnightblue" d="M1100.15,-142.425C1088.92,-140.053 1076.5,-137.674 1065,-136 878.895,-108.908 827.489,-124.11 637.01,-100.046"/>
<polygon fill="midnightblue" stroke="midnightblue" points="637.311,-96.5564 626.947,-98.7552 636.421,-103.5 637.311,-96.5564"/>
</g>
<!-- Node30 -->
<g id="node30" class="node"><title>Node30</title>
<polygon fill="none" stroke="#bfbfbf" points="645,-74.5 645,-93.5 821,-93.5 821,-74.5 645,-74.5"/>
<text text-anchor="middle" x="733" y="-81.5" font-family="Helvetica,sans-Serif" font-size="10.00">Math/GenVector/PositionVector3D.h</text>
</g>
<!-- Node28&#45;&gt;Node30 -->
<g id="edge32" class="edge"><title>Node28&#45;&gt;Node30</title>
<path fill="none" stroke="midnightblue" d="M1097.84,-142.445C1087.21,-140.231 1075.68,-137.929 1065,-136 961.02,-117.218 934.433,-116.074 830,-100 819.662,-98.4088 808.705,-96.7183 798.019,-95.0675"/>
<polygon fill="midnightblue" stroke="midnightblue" points="798.305,-91.5701 787.887,-93.5016 797.236,-98.488 798.305,-91.5701"/>
</g>
<!-- Node31 -->
<g id="node31" class="node"><title>Node31</title>
<polygon fill="none" stroke="#bfbfbf" points="1191.5,-74.5 1191.5,-93.5 1340.5,-93.5 1340.5,-74.5 1191.5,-74.5"/>
<text text-anchor="middle" x="1266" y="-81.5" font-family="Helvetica,sans-Serif" font-size="10.00">Math/GenVector/Rotation3D.h</text>
</g>
<!-- Node28&#45;&gt;Node31 -->
<g id="edge33" class="edge"><title>Node28&#45;&gt;Node31</title>
<path fill="none" stroke="midnightblue" d="M1153.86,-142.372C1175.79,-131.156 1214.3,-111.453 1239.98,-98.3136"/>
<polygon fill="midnightblue" stroke="midnightblue" points="1241.82,-101.301 1249.13,-93.6305 1238.63,-95.0694 1241.82,-101.301"/>
</g>
<!-- Node32 -->
<g id="node32" class="node"><title>Node32</title>
<polygon fill="none" stroke="#bfbfbf" points="839,-74.5 839,-93.5 995,-93.5 995,-74.5 839,-74.5"/>
<text text-anchor="middle" x="917" y="-81.5" font-family="Helvetica,sans-Serif" font-size="10.00">Math/GenVector/Transform3D.h</text>
</g>
<!-- Node28&#45;&gt;Node32 -->
<g id="edge34" class="edge"><title>Node28&#45;&gt;Node32</title>
<path fill="none" stroke="midnightblue" d="M1108.24,-142.372C1069.01,-130.604 998.654,-109.496 955.086,-96.4257"/>
<polygon fill="midnightblue" stroke="midnightblue" points="956.004,-93.047 945.42,-93.5259 953.992,-99.7518 956.004,-93.047"/>
</g>
<!-- Node33 -->
<g id="node33" class="node"><title>Node33</title>
<polygon fill="none" stroke="#bfbfbf" points="1013,-74.5 1013,-93.5 1173,-93.5 1173,-74.5 1013,-74.5"/>
<text text-anchor="middle" x="1093" y="-81.5" font-family="Helvetica,sans-Serif" font-size="10.00">Math/GenVector/Translation3D.h</text>
</g>
<!-- Node28&#45;&gt;Node33 -->
<g id="edge35" class="edge"><title>Node28&#45;&gt;Node33</title>
<path fill="none" stroke="midnightblue" d="M1131.25,-142.372C1124.5,-132.25 1113.14,-115.215 1104.55,-102.331"/>
<polygon fill="midnightblue" stroke="midnightblue" points="1107.35,-100.22 1098.89,-93.8411 1101.53,-104.103 1107.35,-100.22"/>
</g>
<!-- Node34 -->
<g id="node34" class="node"><title>Node34</title>
<polygon fill="none" stroke="#bfbfbf" points="1359,-74.5 1359,-93.5 1435,-93.5 1435,-74.5 1359,-74.5"/>
<text text-anchor="middle" x="1397" y="-81.5" font-family="Helvetica,sans-Serif" font-size="10.00">TGeoMatrix.h</text>
</g>
<!-- Node28&#45;&gt;Node34 -->
<g id="edge37" class="edge"><title>Node28&#45;&gt;Node34</title>
<path fill="none" stroke="midnightblue" d="M1175.88,-142.465C1218.56,-132.91 1288.98,-116.579 1349,-100 1352.87,-98.9322 1356.89,-97.7647 1360.89,-96.5675"/>
<polygon fill="midnightblue" stroke="midnightblue" points="1362.15,-99.8433 1370.69,-93.5707 1360.1,-93.1496 1362.15,-99.8433"/>
</g>
<!-- Node35 -->
<g id="node35" class="node"><title>Node35</title>
<g id="a_node35"><a xlink:href="../../d2/dd0/Cartesian2D_8h.html" target="_top" xlink:title="MathUtils/Cartesian2D.h">
<polygon fill="none" stroke="black" points="1453.5,-74.5 1453.5,-93.5 1578.5,-93.5 1578.5,-74.5 1453.5,-74.5"/>
<text text-anchor="middle" x="1516" y="-81.5" font-family="Helvetica,sans-Serif" font-size="10.00">MathUtils/Cartesian2D.h</text>
</a>
</g>
</g>
<!-- Node28&#45;&gt;Node35 -->
<g id="edge39" class="edge"><title>Node28&#45;&gt;Node35</title>
<path fill="none" stroke="midnightblue" d="M1179.31,-142.465C1190.57,-140.274 1202.73,-137.979 1214,-136 1315.91,-118.105 1342.21,-118.557 1444,-100 1451.42,-98.6465 1459.26,-97.1185 1466.92,-95.5687"/>
<polygon fill="midnightblue" stroke="midnightblue" points="1467.74,-98.9721 1476.83,-93.5316 1466.33,-92.1153 1467.74,-98.9721"/>
</g>
<!-- Node36 -->
<g id="node36" class="node"><title>Node36</title>
<polygon fill="none" stroke="#bfbfbf" points="1531.5,-1 1531.5,-31 1682.5,-31 1682.5,-1 1531.5,-1"/>
<text text-anchor="start" x="1539.5" y="-19" font-family="Helvetica,sans-Serif" font-size="10.00">Math/GenVector/Displacement</text>
<text text-anchor="middle" x="1607" y="-8" font-family="Helvetica,sans-Serif" font-size="10.00">Vector2D.h</text>
</g>
<!-- Node35&#45;&gt;Node36 -->
<g id="edge40" class="edge"><title>Node35&#45;&gt;Node36</title>
<path fill="none" stroke="midnightblue" d="M1527.9,-74.3717C1540.78,-65.0286 1561.78,-49.7966 1578.91,-37.375"/>
<polygon fill="midnightblue" stroke="midnightblue" points="1581.41,-39.8859 1587.45,-31.1815 1577.3,-34.2194 1581.41,-39.8859"/>
</g>
<!-- Node37 -->
<g id="node37" class="node"><title>Node37</title>
<polygon fill="none" stroke="#bfbfbf" points="1337,-6.5 1337,-25.5 1513,-25.5 1513,-6.5 1337,-6.5"/>
<text text-anchor="middle" x="1425" y="-13.5" font-family="Helvetica,sans-Serif" font-size="10.00">Math/GenVector/PositionVector2D.h</text>
</g>
<!-- Node35&#45;&gt;Node37 -->
<g id="edge41" class="edge"><title>Node35&#45;&gt;Node37</title>
<path fill="none" stroke="midnightblue" d="M1504.1,-74.3717C1489.12,-63.5015 1463.14,-44.6602 1445.06,-31.5474"/>
<polygon fill="midnightblue" stroke="midnightblue" points="1447.05,-28.6684 1436.9,-25.6305 1442.94,-34.3349 1447.05,-28.6684"/>
</g>
<!-- Node38&#45;&gt;Node14 -->
<g id="edge48" class="edge"><title>Node38&#45;&gt;Node14</title>
<path fill="none" stroke="midnightblue" d="M1534.4,-278.49C1535.35,-263.156 1538.41,-230.058 1548,-204 1562.45,-164.709 1590.07,-123.846 1606.27,-101.705"/>
<polygon fill="midnightblue" stroke="midnightblue" points="1609.08,-103.784 1612.25,-93.673 1603.47,-99.6023 1609.08,-103.784"/>
</g>
<!-- Node38&#45;&gt;Node21 -->
<g id="edge46" class="edge"><title>Node38&#45;&gt;Node21</title>
<path fill="none" stroke="midnightblue" d="M1561.39,-278.434C1582.69,-270.505 1611.61,-256.773 1630,-236 1664.66,-196.845 1679.59,-134.759 1685.15,-103.818"/>
<polygon fill="midnightblue" stroke="midnightblue" points="1688.66,-104.035 1686.84,-93.597 1681.75,-102.89 1688.66,-104.035"/>
</g>
<!-- Node39 -->
<g id="node39" class="node"><title>Node39</title>
<g id="a_node39"><a xlink:href="../../d4/d25/BaseHits_8h.html" target="_top" xlink:title="SimulationDataFormat\l/BaseHits.h">
<polygon fill="none" stroke="black" points="1362,-205 1362,-235 1476,-235 1476,-205 1362,-205"/>
<text text-anchor="start" x="1370" y="-223" font-family="Helvetica,sans-Serif" font-size="10.00">SimulationDataFormat</text>
<text text-anchor="middle" x="1419" y="-212" font-family="Helvetica,sans-Serif" font-size="10.00">/BaseHits.h</text>
</a>
</g>
</g>
<!-- Node38&#45;&gt;Node39 -->
<g id="edge44" class="edge"><title>Node38&#45;&gt;Node39</title>
<path fill="none" stroke="midnightblue" d="M1518.97,-278.372C1502.16,-268.729 1474.43,-252.812 1452.43,-240.187"/>
<polygon fill="midnightblue" stroke="midnightblue" points="1454.13,-237.124 1443.71,-235.181 1450.64,-243.195 1454.13,-237.124"/>
</g>
<!-- Node40 -->
<g id="node40" class="node"><title>Node40</title>
<polygon fill="none" stroke="#bfbfbf" points="1556.5,-210.5 1556.5,-229.5 1621.5,-229.5 1621.5,-210.5 1556.5,-210.5"/>
<text text-anchor="middle" x="1589" y="-217.5" font-family="Helvetica,sans-Serif" font-size="10.00">TVector3.h</text>
</g>
<!-- Node38&#45;&gt;Node40 -->
<g id="edge47" class="edge"><title>Node38&#45;&gt;Node40</title>
<path fill="none" stroke="midnightblue" d="M1541.19,-278.372C1549.79,-268.053 1564.37,-250.551 1575.18,-237.585"/>
<polygon fill="midnightblue" stroke="midnightblue" points="1577.92,-239.764 1581.63,-229.841 1572.54,-235.283 1577.92,-239.764"/>
</g>
<!-- Node41 -->
<g id="node41" class="node"><title>Node41</title>
<g id="a_node41"><a xlink:href="../../d0/d91/ShmAllocator_8h.html" target="_top" xlink:title="CommonUtils/ShmAllocator.h">
<polygon fill="none" stroke="black" points="1764,-210.5 1764,-229.5 1910,-229.5 1910,-210.5 1764,-210.5"/>
<text text-anchor="middle" x="1837" y="-217.5" font-family="Helvetica,sans-Serif" font-size="10.00">CommonUtils/ShmAllocator.h</text>
</a>
</g>
</g>
<!-- Node38&#45;&gt;Node41 -->
<g id="edge49" class="edge"><title>Node38&#45;&gt;Node41</title>
<path fill="none" stroke="midnightblue" d="M1573.3,-278.439C1628.25,-266.471 1727.99,-244.744 1787.8,-231.716"/>
<polygon fill="midnightblue" stroke="midnightblue" points="1788.74,-235.094 1797.77,-229.546 1787.25,-228.254 1788.74,-235.094"/>
</g>
<!-- Node39&#45;&gt;Node28 -->
<g id="edge45" class="edge"><title>Node39&#45;&gt;Node28</title>
<path fill="none" stroke="midnightblue" d="M1361.93,-205.644C1309.34,-193.336 1232.27,-175.296 1183.37,-163.854"/>
<polygon fill="midnightblue" stroke="midnightblue" points="1183.92,-160.387 1173.39,-161.516 1182.33,-167.203 1183.92,-160.387"/>
</g>
<!-- Node41&#45;&gt;Node22 -->
<g id="edge55" class="edge"><title>Node41&#45;&gt;Node22</title>
<path fill="none" stroke="midnightblue" d="M1869.2,-210.444C1935.97,-192.4 2094.07,-148.129 2223,-100 2224.9,-99.2893 2226.85,-98.5263 2228.81,-97.7348"/>
<polygon fill="midnightblue" stroke="midnightblue" points="2230.61,-100.772 2238.46,-93.6482 2227.88,-94.3269 2230.61,-100.772"/>
</g>
<!-- Node42 -->
<g id="node42" class="node"><title>Node42</title>
<g id="a_node42"><a xlink:href="../../de/d61/ShmManager_8h.html" target="_top" xlink:title="CommonUtils/ShmManager.h">
<polygon fill="none" stroke="black" points="1813,-142.5 1813,-161.5 1959,-161.5 1959,-142.5 1813,-142.5"/>
<text text-anchor="middle" x="1886" y="-149.5" font-family="Helvetica,sans-Serif" font-size="10.00">CommonUtils/ShmManager.h</text>
</a>
</g>
</g>
<!-- Node41&#45;&gt;Node42 -->
<g id="edge50" class="edge"><title>Node41&#45;&gt;Node42</title>
<path fill="none" stroke="midnightblue" d="M1843.41,-210.372C1850.99,-200.151 1863.81,-182.884 1873.41,-169.957"/>
<polygon fill="midnightblue" stroke="midnightblue" points="1876.29,-171.957 1879.44,-161.841 1870.66,-167.784 1876.29,-171.957"/>
</g>
<!-- Node43 -->
<g id="node43" class="node"><title>Node43</title>
<polygon fill="none" stroke="#bfbfbf" points="1871.5,-74.5 1871.5,-93.5 1900.5,-93.5 1900.5,-74.5 1871.5,-74.5"/>
<text text-anchor="middle" x="1886" y="-81.5" font-family="Helvetica,sans-Serif" font-size="10.00">list</text>
</g>
<!-- Node42&#45;&gt;Node43 -->
<g id="edge51" class="edge"><title>Node42&#45;&gt;Node43</title>
<path fill="none" stroke="midnightblue" d="M1886,-142.372C1886,-132.643 1886,-116.528 1886,-103.85"/>
<polygon fill="midnightblue" stroke="midnightblue" points="1889.5,-103.841 1886,-93.8411 1882.5,-103.841 1889.5,-103.841"/>
</g>
<!-- Node44 -->
<g id="node44" class="node"><title>Node44</title>
<polygon fill="none" stroke="#bfbfbf" points="1998.5,-74.5 1998.5,-93.5 2047.5,-93.5 2047.5,-74.5 1998.5,-74.5"/>
<text text-anchor="middle" x="2023" y="-81.5" font-family="Helvetica,sans-Serif" font-size="10.00">cstddef</text>
</g>
<!-- Node42&#45;&gt;Node44 -->
<g id="edge52" class="edge"><title>Node42&#45;&gt;Node44</title>
<path fill="none" stroke="midnightblue" d="M1903.91,-142.372C1927.29,-131.106 1968.45,-111.279 1995.72,-98.1403"/>
<polygon fill="midnightblue" stroke="midnightblue" points="1997.6,-101.124 2005.09,-93.6305 1994.56,-94.8175 1997.6,-101.124"/>
</g>
<!-- Node45 -->
<g id="node45" class="node"><title>Node45</title>
<polygon fill="none" stroke="#bfbfbf" points="2066,-69 2066,-99 2214,-99 2214,-69 2066,-69"/>
<text text-anchor="start" x="2074" y="-87" font-family="Helvetica,sans-Serif" font-size="10.00">boost/interprocess</text>
<text text-anchor="middle" x="2140" y="-76" font-family="Helvetica,sans-Serif" font-size="10.00">/managed_external_buffer.hpp</text>
</g>
<!-- Node42&#45;&gt;Node45 -->
<g id="edge53" class="edge"><title>Node42&#45;&gt;Node45</title>
<path fill="none" stroke="midnightblue" d="M1918.95,-142.439C1958.59,-132.139 2026.04,-114.612 2076.03,-101.621"/>
<polygon fill="midnightblue" stroke="midnightblue" points="2076.99,-104.99 2085.79,-99.0873 2075.23,-98.2148 2076.99,-104.99"/>
</g>
<!-- Node46 -->
<g id="node46" class="node"><title>Node46</title>
<polygon fill="none" stroke="#bfbfbf" points="1734,-69 1734,-99 1854,-99 1854,-69 1734,-69"/>
<text text-anchor="start" x="1742" y="-87" font-family="Helvetica,sans-Serif" font-size="10.00">boost/interprocess</text>
<text text-anchor="middle" x="1794" y="-76" font-family="Helvetica,sans-Serif" font-size="10.00">/allocators/allocator.hpp</text>
</g>
<!-- Node42&#45;&gt;Node46 -->
<g id="edge54" class="edge"><title>Node42&#45;&gt;Node46</title>
<path fill="none" stroke="midnightblue" d="M1873.97,-142.372C1860.83,-132.943 1839.33,-117.517 1821.93,-105.034"/>
<polygon fill="midnightblue" stroke="midnightblue" points="1823.93,-102.167 1813.77,-99.1815 1819.85,-107.854 1823.93,-102.167"/>
</g>
<!-- Node48&#45;&gt;Node21 -->
<g id="edge60" class="edge"><title>Node48&#45;&gt;Node21</title>
<path fill="none" stroke="midnightblue" d="M1676.84,-272.796C1678.96,-237.159 1684.5,-143.952 1686.88,-103.823"/>
<polygon fill="midnightblue" stroke="midnightblue" points="1690.39,-103.787 1687.49,-93.5969 1683.4,-103.372 1690.39,-103.787"/>
</g>
<!-- Node49&#45;&gt;Node22 -->
<g id="edge63" class="edge"><title>Node49&#45;&gt;Node22</title>
<path fill="none" stroke="midnightblue" d="M2285.19,-136.679C2279.74,-126.694 2272.44,-113.307 2266.63,-102.66"/>
<polygon fill="midnightblue" stroke="midnightblue" points="2269.68,-100.931 2261.82,-93.8283 2263.53,-104.283 2269.68,-100.931"/>
</g>
<!-- Node49&#45;&gt;Node24 -->
<g id="edge66" class="edge"><title>Node49&#45;&gt;Node24</title>
<path fill="none" stroke="midnightblue" d="M2235.93,-144.577C2174.52,-136.93 2074.31,-122.316 1990,-100 1986.6,-99.1 1983.08,-98.0335 1979.61,-96.8902"/>
<polygon fill="midnightblue" stroke="midnightblue" points="1980.64,-93.542 1970.04,-93.5401 1978.32,-100.149 1980.64,-93.542"/>
</g>
<!-- Node50 -->
<g id="node50" class="node"><title>Node50</title>
<polygon fill="none" stroke="#bfbfbf" points="2440,-74.5 2440,-93.5 2502,-93.5 2502,-74.5 2440,-74.5"/>
<text text-anchor="middle" x="2471" y="-81.5" font-family="Helvetica,sans-Serif" font-size="10.00">TNamed.h</text>
</g>
<!-- Node49&#45;&gt;Node50 -->
<g id="edge62" class="edge"><title>Node49&#45;&gt;Node50</title>
<path fill="none" stroke="midnightblue" d="M2331.19,-136.841C2363.03,-125.033 2407.93,-108.384 2438.18,-97.1676"/>
<polygon fill="midnightblue" stroke="midnightblue" points="2439.68,-100.345 2447.84,-93.5868 2437.25,-93.7818 2439.68,-100.345"/>
</g>
<!-- Node51 -->
<g id="node51" class="node"><title>Node51</title>
<polygon fill="none" stroke="#bfbfbf" points="2299.5,-74.5 2299.5,-93.5 2358.5,-93.5 2358.5,-74.5 2299.5,-74.5"/>
<text text-anchor="middle" x="2329" y="-81.5" font-family="Helvetica,sans-Serif" font-size="10.00">stdexcept</text>
</g>
<!-- Node49&#45;&gt;Node51 -->
<g id="edge64" class="edge"><title>Node49&#45;&gt;Node51</title>
<path fill="none" stroke="midnightblue" d="M2300.81,-136.679C2306.26,-126.694 2313.56,-113.307 2319.37,-102.66"/>
<polygon fill="midnightblue" stroke="midnightblue" points="2322.47,-104.283 2324.18,-93.8283 2316.32,-100.931 2322.47,-104.283"/>
</g>
<!-- Node52 -->
<g id="node52" class="node"><title>Node52</title>
<polygon fill="none" stroke="#bfbfbf" points="2376.5,-74.5 2376.5,-93.5 2421.5,-93.5 2421.5,-74.5 2376.5,-74.5"/>
<text text-anchor="middle" x="2399" y="-81.5" font-family="Helvetica,sans-Serif" font-size="10.00">gsl/gsl</text>
</g>
<!-- Node49&#45;&gt;Node52 -->
<g id="edge65" class="edge"><title>Node49&#45;&gt;Node52</title>
<path fill="none" stroke="midnightblue" d="M2315.74,-136.841C2333.66,-125.681 2358.53,-110.198 2376.41,-99.0625"/>
<polygon fill="midnightblue" stroke="midnightblue" points="2378.42,-101.939 2385.06,-93.6819 2374.72,-95.9964 2378.42,-101.939"/>
</g>
</g>
</svg>
