<?xml version="1.0" encoding="UTF-8" standalone="no"?>
<!DOCTYPE svg PUBLIC "-//W3C//DTD SVG 1.1//EN"
 "http://www.w3.org/Graphics/SVG/1.1/DTD/svg11.dtd">
<!-- Generated by graphviz version 2.36.0 (20140111.2315)
 -->
<!-- Title: o2::header::DataHeader Pages: 1 -->
<!--zoomable 1106 -->
<svg id="main" version="1.1" xmlns="http://www.w3.org/2000/svg" xmlns:xlink="http://www.w3.org/1999/xlink" xml:space="preserve" onload="init(evt)">
<style type="text/css"><![CDATA[
.edge:hover path { stroke: red; }
.edge:hover polygon { stroke: red; fill: red; }
]]></style>
<script type="text/javascript"><![CDATA[
var edges = document.getElementsByTagName('g');
if (edges && edges.length) {
  for (var i=0;i<edges.length;i++) {
    if (edges[i].id.substr(0,4)=='edge') {
      edges[i].setAttribute('class','edge');
    }
  }
}
]]></script>
        <defs>
                <circle id="rim" cx="0" cy="0" r="7"/>
                <circle id="rim2" cx="0" cy="0" r="3.5"/>
                <g id="zoomPlus">
                        <use xlink:href="#rim" fill="#404040">
                                <set attributeName="fill" to="#808080" begin="zoomplus.mouseover" end="zoomplus.mouseout"/>
                        </use>
                        <path d="M-4,0h8M0,-4v8" fill="none" stroke="white" stroke-width="1.5" pointer-events="none"/>
                </g>
                <g id="zoomMin">
                        <use xlink:href="#rim" fill="#404040">
                                <set attributeName="fill" to="#808080" begin="zoomminus.mouseover" end="zoomminus.mouseout"/>
                        </use>
                        <path d="M-4,0h8" fill="none" stroke="white" stroke-width="1.5" pointer-events="none"/>
                </g>
                <g id="dirArrow">
                        <path fill="none" stroke="white" stroke-width="1.5" d="M0,-3.0v7 M-2.5,-0.5L0,-3.0L2.5,-0.5"/>
                </g>
               <g id="resetDef">
                       <use xlink:href="#rim2" fill="#404040">
                               <set attributeName="fill" to="#808080" begin="reset.mouseover" end="reset.mouseout"/>
                       </use>
               </g>
        </defs>

<script type="text/javascript">
var viewWidth = 1388;
var viewHeight = 1106;
var sectionId = 'dynsection-1';
</script>
<script xlink:href="../../svgpan.js"/>
<svg id="graph" class="graph">
<g id="viewport">
<title>o2::header::DataHeader</title>
<!-- Node1 -->
<g id="node1" class="node"><title>Node1</title>
<polygon fill="#bfbfbf" stroke="black" points="858.857,-1 858.857,-157 979.857,-157 979.857,-1 858.857,-1"/>
<text text-anchor="middle" x="919.357" y="-145" font-family="Helvetica,sans-Serif" font-size="10.00">o2::header::DataHeader</text>
<polyline fill="none" stroke="black" points="858.857,-138 979.857,-138 "/>
<text text-anchor="middle" x="919.357" y="-126" font-family="Helvetica,sans-Serif" font-size="10.00"> </text>
<polyline fill="none" stroke="black" points="858.857,-119 979.857,-119 "/>
<text text-anchor="start" x="866.857" y="-107" font-family="Helvetica,sans-Serif" font-size="10.00">+ DataHeader()</text>
<text text-anchor="start" x="866.857" y="-96" font-family="Helvetica,sans-Serif" font-size="10.00">+ DataHeader()</text>
<text text-anchor="start" x="866.857" y="-85" font-family="Helvetica,sans-Serif" font-size="10.00">+ DataHeader()</text>
<text text-anchor="start" x="866.857" y="-74" font-family="Helvetica,sans-Serif" font-size="10.00">+ operator=()</text>
<text text-anchor="start" x="866.857" y="-63" font-family="Helvetica,sans-Serif" font-size="10.00">+ operator==()</text>
<text text-anchor="start" x="866.857" y="-52" font-family="Helvetica,sans-Serif" font-size="10.00">+ operator==()</text>
<text text-anchor="start" x="866.857" y="-41" font-family="Helvetica,sans-Serif" font-size="10.00">+ operator==()</text>
<text text-anchor="start" x="866.857" y="-30" font-family="Helvetica,sans-Serif" font-size="10.00">+ operator==()</text>
<text text-anchor="start" x="866.857" y="-19" font-family="Helvetica,sans-Serif" font-size="10.00">+ print()</text>
<text text-anchor="start" x="866.857" y="-8" font-family="Helvetica,sans-Serif" font-size="10.00">+ Get()</text>
</g>
<!-- Node2 -->
<g id="node2" class="node"><title>Node2</title>
<g id="a_node2"><a xlink:href="../../d8/dbd/structo2_1_1header_1_1BaseHeader.html" target="_top" xlink:title="the base header struct Every header type must begin (i.e. derive) with this. Don&#39;t use this struct di...">
<polygon fill="none" stroke="black" points="686.357,-216.5 686.357,-361.5 808.357,-361.5 808.357,-216.5 686.357,-216.5"/>
<text text-anchor="middle" x="747.357" y="-349.5" font-family="Helvetica,sans-Serif" font-size="10.00">o2::header::BaseHeader</text>
<polyline fill="none" stroke="black" points="686.357,-342.5 808.357,-342.5 "/>
<text text-anchor="middle" x="747.357" y="-330.5" font-family="Helvetica,sans-Serif" font-size="10.00"> </text>
<polyline fill="none" stroke="black" points="686.357,-323.5 808.357,-323.5 "/>
<text text-anchor="start" x="694.357" y="-311.5" font-family="Helvetica,sans-Serif" font-size="10.00">+ BaseHeader()</text>
<text text-anchor="start" x="694.357" y="-300.5" font-family="Helvetica,sans-Serif" font-size="10.00">+ BaseHeader()</text>
<text text-anchor="start" x="694.357" y="-289.5" font-family="Helvetica,sans-Serif" font-size="10.00">+ BaseHeader()</text>
<text text-anchor="start" x="694.357" y="-278.5" font-family="Helvetica,sans-Serif" font-size="10.00">+ size()</text>
<text text-anchor="start" x="694.357" y="-267.5" font-family="Helvetica,sans-Serif" font-size="10.00">+ data()</text>
<text text-anchor="start" x="694.357" y="-256.5" font-family="Helvetica,sans-Serif" font-size="10.00">+ next()</text>
<text text-anchor="start" x="694.357" y="-245.5" font-family="Helvetica,sans-Serif" font-size="10.00">+ next()</text>
<text text-anchor="start" x="694.357" y="-234.5" font-family="Helvetica,sans-Serif" font-size="10.00">+ get()</text>
<text text-anchor="start" x="694.357" y="-223.5" font-family="Helvetica,sans-Serif" font-size="10.00">+ get()</text>
</a>
</g>
</g>
<!-- Node2&#45;&gt;Node1 -->
<g id="edge1" class="edge"><title>Node2&#45;&gt;Node1</title>
<path fill="none" stroke="midnightblue" d="M813.321,-208.229C828.204,-190.231 843.935,-171.207 858.593,-153.482"/>
<polygon fill="none" stroke="midnightblue" points="810.225,-206.481 806.549,-216.418 815.619,-210.942 810.225,-206.481"/>
</g>
<!-- Node3 -->
<g id="node3" class="node"><title>Node3</title>
<g id="a_node3"><a xlink:href="../../d9/db3/structo2_1_1header_1_1Descriptor.html" target="_top" xlink:title="{o2::header::Descriptor\l\&lt; gSizeHeaderDescriptionString \&gt;\n||+ Descriptor()\l+ Descriptor()\l+ Descriptor()\l+ Descriptor()\l+ operator=()\l+ operator ItgType()\l+ runtimeInit()\l+ operator==()\l+ operator==()\l+ operator\&lt;()\l+ operator!=()\l+ operator!=()\l+ as()\l+ print()\l}">
<polygon fill="none" stroke="black" points="401.357,-486.5 401.357,-697.5 567.357,-697.5 567.357,-486.5 401.357,-486.5"/>
<text text-anchor="start" x="409.357" y="-685.5" font-family="Helvetica,sans-Serif" font-size="10.00">o2::header::Descriptor</text>
<text text-anchor="middle" x="484.357" y="-674.5" font-family="Helvetica,sans-Serif" font-size="10.00">&lt; gSizeHeaderDescriptionString &gt;</text>
<polyline fill="none" stroke="black" points="401.357,-667.5 567.357,-667.5 "/>
<text text-anchor="middle" x="484.357" y="-655.5" font-family="Helvetica,sans-Serif" font-size="10.00"> </text>
<polyline fill="none" stroke="black" points="401.357,-648.5 567.357,-648.5 "/>
<text text-anchor="start" x="409.357" y="-636.5" font-family="Helvetica,sans-Serif" font-size="10.00">+ Descriptor()</text>
<text text-anchor="start" x="409.357" y="-625.5" font-family="Helvetica,sans-Serif" font-size="10.00">+ Descriptor()</text>
<text text-anchor="start" x="409.357" y="-614.5" font-family="Helvetica,sans-Serif" font-size="10.00">+ Descriptor()</text>
<text text-anchor="start" x="409.357" y="-603.5" font-family="Helvetica,sans-Serif" font-size="10.00">+ Descriptor()</text>
<text text-anchor="start" x="409.357" y="-592.5" font-family="Helvetica,sans-Serif" font-size="10.00">+ operator=()</text>
<text text-anchor="start" x="409.357" y="-581.5" font-family="Helvetica,sans-Serif" font-size="10.00">+ operator ItgType()</text>
<text text-anchor="start" x="409.357" y="-570.5" font-family="Helvetica,sans-Serif" font-size="10.00">+ runtimeInit()</text>
<text text-anchor="start" x="409.357" y="-559.5" font-family="Helvetica,sans-Serif" font-size="10.00">+ operator==()</text>
<text text-anchor="start" x="409.357" y="-548.5" font-family="Helvetica,sans-Serif" font-size="10.00">+ operator==()</text>
<text text-anchor="start" x="409.357" y="-537.5" font-family="Helvetica,sans-Serif" font-size="10.00">+ operator&lt;()</text>
<text text-anchor="start" x="409.357" y="-526.5" font-family="Helvetica,sans-Serif" font-size="10.00">+ operator!=()</text>
<text text-anchor="start" x="409.357" y="-515.5" font-family="Helvetica,sans-Serif" font-size="10.00">+ operator!=()</text>
<text text-anchor="start" x="409.357" y="-504.5" font-family="Helvetica,sans-Serif" font-size="10.00">+ as()</text>
<text text-anchor="start" x="409.357" y="-493.5" font-family="Helvetica,sans-Serif" font-size="10.00">+ print()</text>
</a>
</g>
</g>
<!-- Node3&#45;&gt;Node2 -->
<g id="edge2" class="edge"><title>Node3&#45;&gt;Node2</title>
<path fill="none" stroke="#404040" d="M488.663,-486.454C494.886,-449.368 507.518,-409.548 532.357,-380 568.002,-337.596 627.007,-314.807 674.195,-302.78"/>
<polygon fill="none" stroke="#404040" points="674.251,-302.767 679.144,-297.47 685.916,-299.949 681.022,-305.246 674.251,-302.767"/>
<text text-anchor="middle" x="560.857" y="-421.5" font-family="Helvetica,sans-Serif" font-size="10.00"> +description</text>
</g>
<!-- Node4 -->
<g id="node4" class="node"><title>Node4</title>
<polygon fill="none" stroke="#bfbfbf" points="141.357,-1039.5 141.357,-1096.5 179.357,-1096.5 179.357,-1039.5 141.357,-1039.5"/>
<text text-anchor="middle" x="160.357" y="-1084.5" font-family="Helvetica,sans-Serif" font-size="10.00">Type</text>
<polyline fill="none" stroke="#bfbfbf" points="141.357,-1077.5 179.357,-1077.5 "/>
<text text-anchor="middle" x="160.357" y="-1065.5" font-family="Helvetica,sans-Serif" font-size="10.00"> </text>
<polyline fill="none" stroke="#bfbfbf" points="141.357,-1058.5 179.357,-1058.5 "/>
<text text-anchor="middle" x="160.357" y="-1046.5" font-family="Helvetica,sans-Serif" font-size="10.00"> </text>
</g>
<!-- Node4&#45;&gt;Node3 -->
<g id="edge3" class="edge"><title>Node4&#45;&gt;Node3</title>
<path fill="none" stroke="#404040" d="M156.103,-1039.23C148.766,-982.878 138.435,-852.275 182.357,-756 220.976,-671.348 299.915,-736.99 390.167,-698.173"/>
<polygon fill="none" stroke="#404040" points="390.394,-698.065 394.09,-691.874 401.227,-692.905 397.531,-699.096 390.394,-698.065"/>
<text text-anchor="middle" x="192.357" y="-859.5" font-family="Helvetica,sans-Serif" font-size="10.00"> +itg</text>
</g>
<!-- Node8 -->
<g id="node8" class="node"><title>Node8</title>
<g id="a_node8"><a xlink:href="../../d9/db3/structo2_1_1header_1_1Descriptor.html" target="_top" xlink:title="{o2::header::Descriptor\l\&lt; N, PrinterPolicy \&gt;\n||+ Descriptor()\l+ Descriptor()\l+ Descriptor()\l+ operator=()\l+ operator ItgType()\l+ Descriptor()\l+ runtimeInit()\l+ operator==()\l+ operator\&lt;()\l+ operator!=()\l+ operator==()\l+ operator!=()\l+ as()\l+ print()\l}">
<polygon fill="none" stroke="black" points="285.857,-756.5 285.857,-967.5 398.857,-967.5 398.857,-756.5 285.857,-756.5"/>
<text text-anchor="start" x="293.857" y="-955.5" font-family="Helvetica,sans-Serif" font-size="10.00">o2::header::Descriptor</text>
<text text-anchor="middle" x="342.357" y="-944.5" font-family="Helvetica,sans-Serif" font-size="10.00">&lt; N, PrinterPolicy &gt;</text>
<polyline fill="none" stroke="black" points="285.857,-937.5 398.857,-937.5 "/>
<text text-anchor="middle" x="342.357" y="-925.5" font-family="Helvetica,sans-Serif" font-size="10.00"> </text>
<polyline fill="none" stroke="black" points="285.857,-918.5 398.857,-918.5 "/>
<text text-anchor="start" x="293.857" y="-906.5" font-family="Helvetica,sans-Serif" font-size="10.00">+ Descriptor()</text>
<text text-anchor="start" x="293.857" y="-895.5" font-family="Helvetica,sans-Serif" font-size="10.00">+ Descriptor()</text>
<text text-anchor="start" x="293.857" y="-884.5" font-family="Helvetica,sans-Serif" font-size="10.00">+ Descriptor()</text>
<text text-anchor="start" x="293.857" y="-873.5" font-family="Helvetica,sans-Serif" font-size="10.00">+ operator=()</text>
<text text-anchor="start" x="293.857" y="-862.5" font-family="Helvetica,sans-Serif" font-size="10.00">+ operator ItgType()</text>
<text text-anchor="start" x="293.857" y="-851.5" font-family="Helvetica,sans-Serif" font-size="10.00">+ Descriptor()</text>
<text text-anchor="start" x="293.857" y="-840.5" font-family="Helvetica,sans-Serif" font-size="10.00">+ runtimeInit()</text>
<text text-anchor="start" x="293.857" y="-829.5" font-family="Helvetica,sans-Serif" font-size="10.00">+ operator==()</text>
<text text-anchor="start" x="293.857" y="-818.5" font-family="Helvetica,sans-Serif" font-size="10.00">+ operator&lt;()</text>
<text text-anchor="start" x="293.857" y="-807.5" font-family="Helvetica,sans-Serif" font-size="10.00">+ operator!=()</text>
<text text-anchor="start" x="293.857" y="-796.5" font-family="Helvetica,sans-Serif" font-size="10.00">+ operator==()</text>
<text text-anchor="start" x="293.857" y="-785.5" font-family="Helvetica,sans-Serif" font-size="10.00">+ operator!=()</text>
<text text-anchor="start" x="293.857" y="-774.5" font-family="Helvetica,sans-Serif" font-size="10.00">+ as()</text>
<text text-anchor="start" x="293.857" y="-763.5" font-family="Helvetica,sans-Serif" font-size="10.00">+ print()</text>
</a>
</g>
</g>
<!-- Node4&#45;&gt;Node8 -->
<g id="edge8" class="edge"><title>Node4&#45;&gt;Node8</title>
<path fill="none" stroke="#404040" d="M179.616,-1049.48C183.808,-1045.69 188.225,-1041.7 192.357,-1038 209.825,-1022.35 255.888,-985.632 271.357,-968 273.636,-965.402 275.902,-962.728 278.149,-959.997"/>
<polygon fill="none" stroke="#404040" points="278.225,-959.903 278.836,-952.717 285.704,-950.518 285.092,-957.703 278.225,-959.903"/>
<text text-anchor="middle" x="263.357" y="-1000.5" font-family="Helvetica,sans-Serif" font-size="10.00"> +itg</text>
</g>
<!-- Node10 -->
<g id="node10" class="node"><title>Node10</title>
<g id="a_node10"><a xlink:href="../../d9/db3/structo2_1_1header_1_1Descriptor.html" target="_top" xlink:title="{o2::header::Descriptor\l\&lt; gSizeSerializationMethodString \&gt;\n||+ Descriptor()\l+ Descriptor()\l+ Descriptor()\l+ Descriptor()\l+ operator=()\l+ operator ItgType()\l+ runtimeInit()\l+ operator==()\l+ operator==()\l+ operator\&lt;()\l+ operator!=()\l+ operator!=()\l+ as()\l+ print()\l}">
<polygon fill="none" stroke="black" points="213.357,-486.5 213.357,-697.5 383.357,-697.5 383.357,-486.5 213.357,-486.5"/>
<text text-anchor="start" x="221.357" y="-685.5" font-family="Helvetica,sans-Serif" font-size="10.00">o2::header::Descriptor</text>
<text text-anchor="middle" x="298.357" y="-674.5" font-family="Helvetica,sans-Serif" font-size="10.00">&lt; gSizeSerializationMethodString &gt;</text>
<polyline fill="none" stroke="black" points="213.357,-667.5 383.357,-667.5 "/>
<text text-anchor="middle" x="298.357" y="-655.5" font-family="Helvetica,sans-Serif" font-size="10.00"> </text>
<polyline fill="none" stroke="black" points="213.357,-648.5 383.357,-648.5 "/>
<text text-anchor="start" x="221.357" y="-636.5" font-family="Helvetica,sans-Serif" font-size="10.00">+ Descriptor()</text>
<text text-anchor="start" x="221.357" y="-625.5" font-family="Helvetica,sans-Serif" font-size="10.00">+ Descriptor()</text>
<text text-anchor="start" x="221.357" y="-614.5" font-family="Helvetica,sans-Serif" font-size="10.00">+ Descriptor()</text>
<text text-anchor="start" x="221.357" y="-603.5" font-family="Helvetica,sans-Serif" font-size="10.00">+ Descriptor()</text>
<text text-anchor="start" x="221.357" y="-592.5" font-family="Helvetica,sans-Serif" font-size="10.00">+ operator=()</text>
<text text-anchor="start" x="221.357" y="-581.5" font-family="Helvetica,sans-Serif" font-size="10.00">+ operator ItgType()</text>
<text text-anchor="start" x="221.357" y="-570.5" font-family="Helvetica,sans-Serif" font-size="10.00">+ runtimeInit()</text>
<text text-anchor="start" x="221.357" y="-559.5" font-family="Helvetica,sans-Serif" font-size="10.00">+ operator==()</text>
<text text-anchor="start" x="221.357" y="-548.5" font-family="Helvetica,sans-Serif" font-size="10.00">+ operator==()</text>
<text text-anchor="start" x="221.357" y="-537.5" font-family="Helvetica,sans-Serif" font-size="10.00">+ operator&lt;()</text>
<text text-anchor="start" x="221.357" y="-526.5" font-family="Helvetica,sans-Serif" font-size="10.00">+ operator!=()</text>
<text text-anchor="start" x="221.357" y="-515.5" font-family="Helvetica,sans-Serif" font-size="10.00">+ operator!=()</text>
<text text-anchor="start" x="221.357" y="-504.5" font-family="Helvetica,sans-Serif" font-size="10.00">+ as()</text>
<text text-anchor="start" x="221.357" y="-493.5" font-family="Helvetica,sans-Serif" font-size="10.00">+ print()</text>
</a>
</g>
</g>
<!-- Node4&#45;&gt;Node10 -->
<g id="edge17" class="edge"><title>Node4&#45;&gt;Node10</title>
<path fill="none" stroke="#404040" d="M140.949,-1058.99C110.978,-1045.4 54.5724,-1014.67 32.3567,-968 -8.13736,-882.923 -13.0263,-838.572 32.3567,-756 68.0283,-691.097 141.483,-649.024 202.182,-623.909"/>
<polygon fill="none" stroke="#404040" points="202.222,-623.893 206.296,-617.943 213.355,-619.415 209.281,-625.365 202.222,-623.893"/>
<text text-anchor="middle" x="42.3567" y="-859.5" font-family="Helvetica,sans-Serif" font-size="10.00"> +itg</text>
</g>
<!-- Node5 -->
<g id="node5" class="node"><title>Node5</title>
<polygon fill="none" stroke="#bfbfbf" points="460.857,-1039.5 460.857,-1096.5 495.857,-1096.5 495.857,-1039.5 460.857,-1039.5"/>
<text text-anchor="middle" x="478.357" y="-1084.5" font-family="Helvetica,sans-Serif" font-size="10.00">char</text>
<polyline fill="none" stroke="#bfbfbf" points="460.857,-1077.5 495.857,-1077.5 "/>
<text text-anchor="middle" x="478.357" y="-1065.5" font-family="Helvetica,sans-Serif" font-size="10.00"> </text>
<polyline fill="none" stroke="#bfbfbf" points="460.857,-1058.5 495.857,-1058.5 "/>
<text text-anchor="middle" x="478.357" y="-1046.5" font-family="Helvetica,sans-Serif" font-size="10.00"> </text>
</g>
<!-- Node5&#45;&gt;Node2 -->
<g id="edge14" class="edge"><title>Node5&#45;&gt;Node2</title>
<path fill="none" stroke="#404040" d="M495.877,-1053C517.302,-1036.16 554.967,-1007.5 589.357,-986 603.855,-976.937 612.567,-981.263 623.357,-968 696.942,-877.547 637.039,-816.39 696.357,-716 702.112,-706.26 709.609,-708.269 714.357,-698 740.112,-642.291 746.135,-476.017 747.329,-373.74"/>
<polygon fill="none" stroke="#404040" points="747.33,-373.596 743.391,-367.556 747.451,-361.596 751.39,-367.636 747.33,-373.596"/>
<text text-anchor="middle" x="726.857" y="-724.5" font-family="Helvetica,sans-Serif" font-size="10.00"> +magicString</text>
</g>
<!-- Node5&#45;&gt;Node3 -->
<g id="edge4" class="edge"><title>Node5&#45;&gt;Node3</title>
<path fill="none" stroke="#404040" d="M483.045,-1039.48C492.377,-985.155 514.203,-860.369 535.357,-756 538.906,-738.49 543.085,-733.473 539.357,-716 538.892,-713.821 538.385,-711.635 537.841,-709.443"/>
<polygon fill="none" stroke="#404040" points="537.793,-709.267 532.337,-704.552 534.592,-697.702 540.047,-702.418 537.793,-709.267"/>
<text text-anchor="middle" x="545.857" y="-859.5" font-family="Helvetica,sans-Serif" font-size="10.00"> +str</text>
</g>
<!-- Node5&#45;&gt;Node8 -->
<g id="edge9" class="edge"><title>Node5&#45;&gt;Node8</title>
<path fill="none" stroke="#404040" d="M460.808,-1060.49C443.25,-1053.15 416.582,-1039.61 400.357,-1020 390.246,-1007.78 381.81,-993.632 374.794,-978.935"/>
<polygon fill="none" stroke="#404040" points="374.624,-978.556 368.515,-974.725 369.702,-967.612 375.811,-971.444 374.624,-978.556"/>
<text text-anchor="middle" x="410.857" y="-1000.5" font-family="Helvetica,sans-Serif" font-size="10.00"> +str</text>
</g>
<!-- Node5&#45;&gt;Node10 -->
<g id="edge18" class="edge"><title>Node5&#45;&gt;Node10</title>
<path fill="none" stroke="#404040" d="M475.465,-1039.33C468.922,-983.711 450.101,-855.176 407.357,-756 400.46,-739.997 391.963,-723.877 382.782,-708.327"/>
<polygon fill="none" stroke="#404040" points="382.54,-707.927 376.012,-704.865 376.328,-697.66 382.856,-700.723 382.54,-707.927"/>
<text text-anchor="middle" x="475.857" y="-859.5" font-family="Helvetica,sans-Serif" font-size="10.00"> +str</text>
</g>
<!-- Node6 -->
<g id="node6" class="node"><title>Node6</title>
<polygon fill="none" stroke="#bfbfbf" points="201.857,-1039.5 201.857,-1096.5 230.857,-1096.5 230.857,-1039.5 201.857,-1039.5"/>
<text text-anchor="middle" x="216.357" y="-1084.5" font-family="Helvetica,sans-Serif" font-size="10.00">int</text>
<polyline fill="none" stroke="#bfbfbf" points="201.857,-1077.5 230.857,-1077.5 "/>
<text text-anchor="middle" x="216.357" y="-1065.5" font-family="Helvetica,sans-Serif" font-size="10.00"> </text>
<polyline fill="none" stroke="#bfbfbf" points="201.857,-1058.5 230.857,-1058.5 "/>
<text text-anchor="middle" x="216.357" y="-1046.5" font-family="Helvetica,sans-Serif" font-size="10.00"> </text>
</g>
<!-- Node6&#45;&gt;Node3 -->
<g id="edge5" class="edge"><title>Node6&#45;&gt;Node3</title>
<path fill="none" stroke="#404040" d="M213.401,-1039.24C206.023,-963.217 190.828,-754.769 241.357,-716 292.045,-677.108 328.405,-723.817 390.21,-698.077"/>
<polygon fill="none" stroke="#404040" points="390.362,-698.005 394.063,-691.816 401.2,-692.852 397.499,-699.041 390.362,-698.005"/>
<text text-anchor="middle" x="243.857" y="-870.5" font-family="Helvetica,sans-Serif" font-size="10.00"> +arraySize</text>
<text text-anchor="middle" x="243.857" y="-859.5" font-family="Helvetica,sans-Serif" font-size="10.00">+size</text>
<text text-anchor="middle" x="243.857" y="-848.5" font-family="Helvetica,sans-Serif" font-size="10.00">+bitcount</text>
</g>
<!-- Node6&#45;&gt;Node8 -->
<g id="edge10" class="edge"><title>Node6&#45;&gt;Node8</title>
<path fill="none" stroke="#404040" d="M230.945,-1059.05C244.791,-1050.87 265.363,-1036.93 278.357,-1020 287.925,-1007.53 296.286,-993.438 303.527,-978.935"/>
<polygon fill="none" stroke="#404040" points="303.679,-978.616 302.653,-971.478 308.848,-967.786 309.874,-974.923 303.679,-978.616"/>
<text text-anchor="middle" x="323.857" y="-1011.5" font-family="Helvetica,sans-Serif" font-size="10.00"> +arraySize</text>
<text text-anchor="middle" x="323.857" y="-1000.5" font-family="Helvetica,sans-Serif" font-size="10.00">+size</text>
<text text-anchor="middle" x="323.857" y="-989.5" font-family="Helvetica,sans-Serif" font-size="10.00">+bitcount</text>
</g>
<!-- Node6&#45;&gt;Node10 -->
<g id="edge19" class="edge"><title>Node6&#45;&gt;Node10</title>
<path fill="none" stroke="#404040" d="M201.78,-1050.78C197.607,-1046.45 192.943,-1041.9 188.357,-1038 146.743,-1002.63 112.692,-1016.38 87.3567,-968 43.649,-884.529 45.8209,-840.573 87.3567,-756 111.679,-706.476 159.094,-667.733 202.825,-640.468"/>
<polygon fill="none" stroke="#404040" points="203.001,-640.361 206.053,-633.827 213.258,-634.132 210.206,-640.665 203.001,-640.361"/>
<text text-anchor="middle" x="112.857" y="-870.5" font-family="Helvetica,sans-Serif" font-size="10.00"> +arraySize</text>
<text text-anchor="middle" x="112.857" y="-859.5" font-family="Helvetica,sans-Serif" font-size="10.00">+size</text>
<text text-anchor="middle" x="112.857" y="-848.5" font-family="Helvetica,sans-Serif" font-size="10.00">+bitcount</text>
</g>
<!-- Node7 -->
<g id="node7" class="node"><title>Node7</title>
<polygon fill="none" stroke="#bfbfbf" points="692.857,-1039 692.857,-1097 721.857,-1097 721.857,-1039 692.857,-1039"/>
<polyline fill="none" stroke="#bfbfbf" points="692.857,-1077 721.857,-1077 "/>
<text text-anchor="middle" x="707.357" y="-1065" font-family="Helvetica,sans-Serif" font-size="10.00"> </text>
<polyline fill="none" stroke="#bfbfbf" points="692.857,-1058 721.857,-1058 "/>
<text text-anchor="middle" x="707.357" y="-1046" font-family="Helvetica,sans-Serif" font-size="10.00"> </text>
</g>
<!-- Node7&#45;&gt;Node2 -->
<g id="edge13" class="edge"><title>Node7&#45;&gt;Node2</title>
<path fill="none" stroke="#404040" d="M722.06,-1039.76C731.659,-1020.37 743.313,-993.362 748.357,-968 770.46,-856.861 758.75,-529.389 751.586,-373.854"/>
<polygon fill="none" stroke="#404040" points="751.574,-373.591 747.298,-367.784 751.015,-361.604 755.29,-367.411 751.574,-373.591"/>
<text text-anchor="middle" x="776.857" y="-724.5" font-family="Helvetica,sans-Serif" font-size="10.00"> +@16</text>
</g>
<!-- Node7&#45;&gt;Node2 -->
<g id="edge15" class="edge"><title>Node7&#45;&gt;Node2</title>
<path fill="none" stroke="#404040" d="M722.118,-1054.77C731.894,-1045.99 744.344,-1033.37 752.357,-1020 764.854,-999.143 764.136,-991.748 769.357,-968 825.472,-712.762 809.008,-638.153 768.357,-380 768.016,-377.836 767.652,-375.646 767.267,-373.44"/>
<polygon fill="none" stroke="#404040" points="767.248,-373.333 762.213,-368.17 765.043,-361.537 770.077,-366.7 767.248,-373.333"/>
<text text-anchor="middle" x="820.857" y="-724.5" font-family="Helvetica,sans-Serif" font-size="10.00"> +@18</text>
</g>
<!-- Node7&#45;&gt;Node3 -->
<g id="edge6" class="edge"><title>Node7&#45;&gt;Node3</title>
<path fill="none" stroke="#404040" d="M708.747,-1038.84C712.371,-959.78 720.434,-739.978 699.357,-716 664.332,-676.155 628.211,-722.882 581.357,-698 580.179,-697.374 579.007,-696.729 577.843,-696.064"/>
<polygon fill="none" stroke="#404040" points="577.718,-695.986 570.51,-696.182 567.557,-689.603 574.765,-689.407 577.718,-695.986"/>
<text text-anchor="middle" x="728.857" y="-859.5" font-family="Helvetica,sans-Serif" font-size="10.00"> +@14</text>
</g>
<!-- Node7&#45;&gt;Node8 -->
<g id="edge11" class="edge"><title>Node7&#45;&gt;Node8</title>
<path fill="none" stroke="#404040" d="M692.664,-1065.4C646.882,-1059.77 504.431,-1037.31 413.357,-968 411.671,-966.717 410.012,-965.383 408.38,-964.002"/>
<polygon fill="none" stroke="#404040" points="408.136,-963.776 401.015,-962.638 399.327,-955.627 406.447,-956.765 408.136,-963.776"/>
<text text-anchor="middle" x="517.857" y="-1000.5" font-family="Helvetica,sans-Serif" font-size="10.00"> +@14</text>
</g>
<!-- Node7&#45;&gt;Node10 -->
<g id="edge20" class="edge"><title>Node7&#45;&gt;Node10</title>
<path fill="none" stroke="#404040" d="M697.953,-1038.93C671.963,-963.09 597.319,-756.999 540.357,-716 489.623,-679.483 455.183,-723.118 394.606,-698.122"/>
<polygon fill="none" stroke="#404040" points="394.258,-697.958 387.126,-699.02 383.402,-692.845 390.535,-691.783 394.258,-697.958"/>
<text text-anchor="middle" x="686.857" y="-859.5" font-family="Helvetica,sans-Serif" font-size="10.00"> +@14</text>
</g>
<!-- Node8&#45;&gt;Node1 -->
<g id="edge28" class="edge"><title>Node8&#45;&gt;Node1</title>
<path fill="none" stroke="#404040" d="M285.833,-768.904C281.827,-764.357 277.662,-760.018 273.357,-756 261.427,-744.866 254.164,-748.112 241.357,-738 222.35,-722.993 213.187,-720.55 204.357,-698 152.792,-566.318 157.633,-509.101 215.357,-380 323.331,-138.511 689.211,-91.19 846.501,-82.0838"/>
<polygon fill="none" stroke="#404040" points="846.828,-82.0664 852.606,-77.7514 858.811,-81.425 853.034,-85.74 846.828,-82.0664"/>
<text text-anchor="middle" x="263.857" y="-427" font-family="Helvetica,sans-Serif" font-size="10.00"> +sHeaderType</text>
<text text-anchor="middle" x="263.857" y="-416" font-family="Helvetica,sans-Serif" font-size="10.00">+sSerializationMethod</text>
</g>
<!-- Node8&#45;&gt;Node2 -->
<g id="edge22" class="edge"><title>Node8&#45;&gt;Node2</title>
<path fill="none" stroke="#404040" d="M398.977,-759.125C400.406,-758.037 401.865,-756.993 403.357,-756 454.469,-721.957 486.007,-766.593 540.357,-738 561.524,-726.864 565.697,-719.411 576.357,-698 619.127,-612.09 581.018,-574.822 617.357,-486 633.751,-445.928 658.866,-405.426 682.666,-371.725"/>
<polygon fill="none" stroke="#404040" points="682.679,-371.707 682.921,-364.5 689.666,-361.951 689.425,-369.158 682.679,-371.707"/>
<text text-anchor="middle" x="665.857" y="-595" font-family="Helvetica,sans-Serif" font-size="10.00"> +sHeaderType</text>
<text text-anchor="middle" x="665.857" y="-584" font-family="Helvetica,sans-Serif" font-size="10.00">+sSerializationMethod</text>
</g>
<!-- Node8&#45;&gt;Node3 -->
<g id="edge7" class="edge"><title>Node8&#45;&gt;Node3</title>
<path fill="none" stroke="orange" d="M402.674,-747.162C411.371,-730.748 420.287,-713.92 428.884,-697.694"/>
<polygon fill="orange" stroke="orange" points="399.457,-745.758 397.868,-756.233 405.642,-749.035 399.457,-745.758"/>
<text text-anchor="start" x="418.357" y="-730" font-family="Helvetica,sans-Serif" font-size="10.00"> &lt; gSizeHeaderDescription</text>
<text text-anchor="middle" x="477.357" y="-719" font-family="Helvetica,sans-Serif" font-size="10.00">String &gt;</text>
</g>
<!-- Node8&#45;&gt;Node10 -->
<g id="edge21" class="edge"><title>Node8&#45;&gt;Node10</title>
<path fill="none" stroke="orange" d="M279.335,-765.316C276.703,-762.124 274.04,-759.009 271.357,-756 263.174,-746.826 255.493,-749.168 250.357,-738 244.484,-725.232 243.101,-711.535 244.599,-697.842"/>
<polygon fill="orange" stroke="orange" points="276.821,-767.776 285.806,-773.391 282.284,-763.399 276.821,-767.776"/>
<text text-anchor="start" x="250.357" y="-730" font-family="Helvetica,sans-Serif" font-size="10.00"> &lt; gSizeSerializationMethod</text>
<text text-anchor="middle" x="311.857" y="-719" font-family="Helvetica,sans-Serif" font-size="10.00">String &gt;</text>
</g>
<!-- Node9 -->
<g id="node9" class="node"><title>Node9</title>
<polygon fill="none" stroke="#bfbfbf" points="866.857,-563.5 866.857,-620.5 917.857,-620.5 917.857,-563.5 866.857,-563.5"/>
<text text-anchor="middle" x="892.357" y="-608.5" font-family="Helvetica,sans-Serif" font-size="10.00">uint32_t</text>
<polyline fill="none" stroke="#bfbfbf" points="866.857,-601.5 917.857,-601.5 "/>
<text text-anchor="middle" x="892.357" y="-589.5" font-family="Helvetica,sans-Serif" font-size="10.00"> </text>
<polyline fill="none" stroke="#bfbfbf" points="866.857,-582.5 917.857,-582.5 "/>
<text text-anchor="middle" x="892.357" y="-570.5" font-family="Helvetica,sans-Serif" font-size="10.00"> </text>
</g>
<!-- Node9&#45;&gt;Node1 -->
<g id="edge23" class="edge"><title>Node9&#45;&gt;Node1</title>
<path fill="none" stroke="#404040" d="M895.85,-563.204C898.846,-538.306 903.036,-500.772 905.357,-468 912.598,-365.725 916.177,-248.004 917.889,-169.302"/>
<polygon fill="none" stroke="#404040" points="917.895,-169.011 914.022,-162.928 918.148,-157.014 922.02,-163.097 917.895,-169.011"/>
<text text-anchor="middle" x="940.857" y="-292" font-family="Helvetica,sans-Serif" font-size="10.00"> +reserved</text>
<text text-anchor="middle" x="940.857" y="-281" font-family="Helvetica,sans-Serif" font-size="10.00">+sVersion</text>
</g>
<!-- Node9&#45;&gt;Node2 -->
<g id="edge12" class="edge"><title>Node9&#45;&gt;Node2</title>
<path fill="none" stroke="#404040" d="M874.614,-563.126C859.761,-538.796 838.881,-502.137 825.357,-468 810.467,-430.417 818.177,-417.201 802.357,-380 801.309,-377.536 800.201,-375.059 799.043,-372.58"/>
<polygon fill="none" stroke="#404040" points="798.995,-372.481 792.753,-368.871 793.684,-361.721 799.926,-365.331 798.995,-372.481"/>
<text text-anchor="middle" x="865.357" y="-460" font-family="Helvetica,sans-Serif" font-size="10.00"> +headerVersion</text>
<text text-anchor="middle" x="865.357" y="-449" font-family="Helvetica,sans-Serif" font-size="10.00">+headerSize</text>
<text text-anchor="middle" x="865.357" y="-438" font-family="Helvetica,sans-Serif" font-size="10.00">+sMagicString</text>
<text text-anchor="middle" x="865.357" y="-427" font-family="Helvetica,sans-Serif" font-size="10.00">+flagsNextHeader</text>
<text text-anchor="middle" x="865.357" y="-416" font-family="Helvetica,sans-Serif" font-size="10.00">+magicStringInt</text>
<text text-anchor="middle" x="865.357" y="-405" font-family="Helvetica,sans-Serif" font-size="10.00">+flagsUnused</text>
<text text-anchor="middle" x="865.357" y="-394" font-family="Helvetica,sans-Serif" font-size="10.00">+flags</text>
<text text-anchor="middle" x="865.357" y="-383" font-family="Helvetica,sans-Serif" font-size="10.00">+sVersion</text>
</g>
<!-- Node10&#45;&gt;Node1 -->
<g id="edge27" class="edge"><title>Node10&#45;&gt;Node1</title>
<path fill="none" stroke="#404040" d="M311.191,-486.246C318.954,-450.577 331.402,-411.734 351.357,-380 463.785,-201.201 720.738,-122.761 846.84,-94.0469"/>
<polygon fill="none" stroke="#404040" points="846.913,-94.0307 851.9,-88.8219 858.626,-91.4216 853.639,-96.6305 846.913,-94.0307"/>
<text text-anchor="middle" x="589.857" y="-286.5" font-family="Helvetica,sans-Serif" font-size="10.00"> +payloadSerializationMethod</text>
</g>
<!-- Node10&#45;&gt;Node2 -->
<g id="edge16" class="edge"><title>Node10&#45;&gt;Node2</title>
<path fill="none" stroke="#404040" d="M342.76,-486.332C363.686,-447.999 392.132,-407.355 428.357,-380 500.701,-325.368 604.813,-303.893 674.197,-295.455"/>
<polygon fill="none" stroke="#404040" points="674.382,-295.434 679.889,-290.778 686.304,-294.071 680.797,-298.727 674.382,-295.434"/>
<text text-anchor="middle" x="458.857" y="-421.5" font-family="Helvetica,sans-Serif" font-size="10.00"> +serialization</text>
</g>
<!-- Node11 -->
<g id="node11" class="node"><title>Node11</title>
<polygon fill="none" stroke="#bfbfbf" points="984.857,-260.5 984.857,-317.5 1035.86,-317.5 1035.86,-260.5 984.857,-260.5"/>
<text text-anchor="middle" x="1010.36" y="-305.5" font-family="Helvetica,sans-Serif" font-size="10.00">uint64_t</text>
<polyline fill="none" stroke="#bfbfbf" points="984.857,-298.5 1035.86,-298.5 "/>
<text text-anchor="middle" x="1010.36" y="-286.5" font-family="Helvetica,sans-Serif" font-size="10.00"> </text>
<polyline fill="none" stroke="#bfbfbf" points="984.857,-279.5 1035.86,-279.5 "/>
<text text-anchor="middle" x="1010.36" y="-267.5" font-family="Helvetica,sans-Serif" font-size="10.00"> </text>
</g>
<!-- Node11&#45;&gt;Node1 -->
<g id="edge24" class="edge"><title>Node11&#45;&gt;Node1</title>
<path fill="none" stroke="#404040" d="M998.273,-260.379C987.935,-236.749 972.467,-201.396 957.958,-168.232"/>
<polygon fill="none" stroke="#404040" points="957.893,-168.083 951.823,-164.189 953.083,-157.089 959.153,-160.983 957.893,-168.083"/>
<text text-anchor="middle" x="1009.86" y="-190" font-family="Helvetica,sans-Serif" font-size="10.00"> +payloadSize</text>
<text text-anchor="middle" x="1009.86" y="-179" font-family="Helvetica,sans-Serif" font-size="10.00">+subSpecification</text>
</g>
<!-- Node12 -->
<g id="node12" class="node"><title>Node12</title>
<polygon fill="none" stroke="#bfbfbf" points="1054.36,-255 1054.36,-323 1196.36,-323 1196.36,-255 1054.36,-255"/>
<text text-anchor="start" x="1062.36" y="-311" font-family="Helvetica,sans-Serif" font-size="10.00">Descriptor&lt; gSizeDataOrigin</text>
<text text-anchor="middle" x="1125.36" y="-300" font-family="Helvetica,sans-Serif" font-size="10.00">String, printDataOrigin &gt;</text>
<polyline fill="none" stroke="#bfbfbf" points="1054.36,-293 1196.36,-293 "/>
<text text-anchor="middle" x="1125.36" y="-281" font-family="Helvetica,sans-Serif" font-size="10.00"> </text>
<polyline fill="none" stroke="#bfbfbf" points="1054.36,-274 1196.36,-274 "/>
<text text-anchor="middle" x="1125.36" y="-262" font-family="Helvetica,sans-Serif" font-size="10.00"> </text>
</g>
<!-- Node12&#45;&gt;Node1 -->
<g id="edge25" class="edge"><title>Node12&#45;&gt;Node1</title>
<path fill="none" stroke="#404040" d="M1108.42,-254.801C1095.38,-231.197 1075.82,-199.619 1053.36,-176 1034.8,-156.485 1011.78,-138.346 990.087,-123.208"/>
<polygon fill="none" stroke="#404040" points="989.81,-123.019 982.599,-122.936 979.902,-116.248 987.113,-116.331 989.81,-123.019"/>
<text text-anchor="middle" x="1097.36" y="-184.5" font-family="Helvetica,sans-Serif" font-size="10.00"> +dataOrigin</text>
</g>
<!-- Node13 -->
<g id="node13" class="node"><title>Node13</title>
<polygon fill="none" stroke="#bfbfbf" points="1214.36,-255 1214.36,-323 1380.36,-323 1380.36,-255 1214.36,-255"/>
<text text-anchor="start" x="1222.36" y="-311" font-family="Helvetica,sans-Serif" font-size="10.00">Descriptor&lt; gSizeDataDescription</text>
<text text-anchor="middle" x="1297.36" y="-300" font-family="Helvetica,sans-Serif" font-size="10.00">String, printDataDescription &gt;</text>
<polyline fill="none" stroke="#bfbfbf" points="1214.36,-293 1380.36,-293 "/>
<text text-anchor="middle" x="1297.36" y="-281" font-family="Helvetica,sans-Serif" font-size="10.00"> </text>
<polyline fill="none" stroke="#bfbfbf" points="1214.36,-274 1380.36,-274 "/>
<text text-anchor="middle" x="1297.36" y="-262" font-family="Helvetica,sans-Serif" font-size="10.00"> </text>
</g>
<!-- Node13&#45;&gt;Node1 -->
<g id="edge26" class="edge"><title>Node13&#45;&gt;Node1</title>
<path fill="none" stroke="#404040" d="M1258.24,-254.789C1242.32,-241.973 1223.44,-227.63 1205.36,-216 1136.39,-171.643 1050.72,-132.811 991.206,-108.121"/>
<polygon fill="none" stroke="#404040" points="991.134,-108.092 984.064,-109.508 980.037,-103.526 987.108,-102.11 991.134,-108.092"/>
<text text-anchor="middle" x="1208.36" y="-184.5" font-family="Helvetica,sans-Serif" font-size="10.00"> +dataDescription</text>
</g>
</g>
</svg>
        <g id="navigator" transform="translate(0 0)" fill="#404254">
                <rect fill="#f2f5e9" fill-opacity="0.5" stroke="#606060" stroke-width=".5" x="0" y="0" width="60" height="60"/>
                <use id="zoomplus" xlink:href="#zoomPlus" x="17" y="9" onmousedown="handleZoom(evt,'in')"/>
                <use id="zoomminus" xlink:href="#zoomMin" x="42" y="9" onmousedown="handleZoom(evt,'out')"/>
                <use id="reset" xlink:href="#resetDef" x="30" y="36" onmousedown="handleReset()"/>
                <g id="arrowUp" xlink:href="#dirArrow" transform="translate(30 24)" onmousedown="handlePan(0,-1)">
                  <use xlink:href="#rim" fill="#404040">
                        <set attributeName="fill" to="#808080" begin="arrowUp.mouseover" end="arrowUp.mouseout"/>
                  </use>
                  <path fill="none" stroke="white" stroke-width="1.5" d="M0,-3.0v7 M-2.5,-0.5L0,-3.0L2.5,-0.5"/>
                </g>
                <g id="arrowRight" xlink:href="#dirArrow" transform="rotate(90) translate(36 -43)" onmousedown="handlePan(1,0)">
                  <use xlink:href="#rim" fill="#404040">
                        <set attributeName="fill" to="#808080" begin="arrowRight.mouseover" end="arrowRight.mouseout"/>
                  </use>
                  <path fill="none" stroke="white" stroke-width="1.5" d="M0,-3.0v7 M-2.5,-0.5L0,-3.0L2.5,-0.5"/>
                </g>
                <g id="arrowDown" xlink:href="#dirArrow" transform="rotate(180) translate(-30 -48)" onmousedown="handlePan(0,1)">
                  <use xlink:href="#rim" fill="#404040">
                        <set attributeName="fill" to="#808080" begin="arrowDown.mouseover" end="arrowDown.mouseout"/>
                  </use>
                  <path fill="none" stroke="white" stroke-width="1.5" d="M0,-3.0v7 M-2.5,-0.5L0,-3.0L2.5,-0.5"/>
                </g>
                <g id="arrowLeft" xlink:href="#dirArrow" transform="rotate(270) translate(-36 17)" onmousedown="handlePan(-1,0)">
                  <use xlink:href="#rim" fill="#404040">
                        <set attributeName="fill" to="#808080" begin="arrowLeft.mouseover" end="arrowLeft.mouseout"/>
                  </use>
                  <path fill="none" stroke="white" stroke-width="1.5" d="M0,-3.0v7 M-2.5,-0.5L0,-3.0L2.5,-0.5"/>
                </g>
        </g>
        <svg viewBox="0 0 15 15" width="100%" height="30px" preserveAspectRatio="xMaxYMin meet">
         <g id="arrow_out" transform="scale(0.3 0.3)">
          <a xlink:href="structo2_1_1header_1_1DataHeader__coll__graph_org.svg" target="_base">
           <rect id="button" ry="5" rx="5" y="6" x="6" height="38" width="38"
                fill="#f2f5e9" fill-opacity="0.5" stroke="#606060" stroke-width="1.0"/>
           <path id="arrow"
             d="M 11.500037,31.436501 C 11.940474,20.09759 22.043105,11.32322 32.158766,21.979434 L 37.068811,17.246167 C 37.068811,17.246167 37.088388,32 37.088388,32 L 22.160133,31.978069 C 22.160133,31.978069 26.997745,27.140456 26.997745,27.140456 C 18.528582,18.264221 13.291696,25.230495 11.500037,31.436501 z"
             style="fill:#404040;"/>
          </a>
         </g>
        </svg>
</svg>
