<?xml version="1.0" encoding="UTF-8" standalone="no"?>
<!DOCTYPE svg PUBLIC "-//W3C//DTD SVG 1.1//EN"
 "http://www.w3.org/Graphics/SVG/1.1/DTD/svg11.dtd">
<!-- Generated by graphviz version 2.36.0 (20140111.2315)
 -->
<!-- Title: /home/travis/build/AliceO2Group/AliceO2/Detectors/EMCAL/simulation/include/EMCALSimulation/DigitizerTask.h Pages: 1 -->
<!--zoomable 446 -->
<svg id="main" version="1.1" xmlns="http://www.w3.org/2000/svg" xmlns:xlink="http://www.w3.org/1999/xlink" xml:space="preserve" onload="init(evt)">
<style type="text/css"><![CDATA[
.edge:hover path { stroke: red; }
.edge:hover polygon { stroke: red; fill: red; }
]]></style>
<script type="text/javascript"><![CDATA[
var edges = document.getElementsByTagName('g');
if (edges && edges.length) {
  for (var i=0;i<edges.length;i++) {
    if (edges[i].id.substr(0,4)=='edge') {
      edges[i].setAttribute('class','edge');
    }
  }
}
]]></script>
        <defs>
                <circle id="rim" cx="0" cy="0" r="7"/>
                <circle id="rim2" cx="0" cy="0" r="3.5"/>
                <g id="zoomPlus">
                        <use xlink:href="#rim" fill="#404040">
                                <set attributeName="fill" to="#808080" begin="zoomplus.mouseover" end="zoomplus.mouseout"/>
                        </use>
                        <path d="M-4,0h8M0,-4v8" fill="none" stroke="white" stroke-width="1.5" pointer-events="none"/>
                </g>
                <g id="zoomMin">
                        <use xlink:href="#rim" fill="#404040">
                                <set attributeName="fill" to="#808080" begin="zoomminus.mouseover" end="zoomminus.mouseout"/>
                        </use>
                        <path d="M-4,0h8" fill="none" stroke="white" stroke-width="1.5" pointer-events="none"/>
                </g>
                <g id="dirArrow">
                        <path fill="none" stroke="white" stroke-width="1.5" d="M0,-3.0v7 M-2.5,-0.5L0,-3.0L2.5,-0.5"/>
                </g>
               <g id="resetDef">
                       <use xlink:href="#rim2" fill="#404040">
                               <set attributeName="fill" to="#808080" begin="reset.mouseover" end="reset.mouseout"/>
                       </use>
               </g>
        </defs>

<script type="text/javascript">
var viewWidth = 2468;
var viewHeight = 446;
var sectionId = 'dynsection-0';
</script>
<script xlink:href="../../svgpan.js"/>
<svg id="graph" class="graph">
<g id="viewport">
<title>/home/travis/build/AliceO2Group/AliceO2/Detectors/EMCAL/simulation/include/EMCALSimulation/DigitizerTask.h</title>
<!-- Node1 -->
<g id="node1" class="node"><title>Node1</title>
<polygon fill="#bfbfbf" stroke="black" points="1454.5,-385 1454.5,-437 1657.5,-437 1657.5,-385 1454.5,-385"/>
<text text-anchor="start" x="1462.5" y="-425" font-family="Helvetica,sans-Serif" font-size="10.00">/home/travis/build</text>
<text text-anchor="start" x="1462.5" y="-414" font-family="Helvetica,sans-Serif" font-size="10.00">/AliceO2Group/AliceO2</text>
<text text-anchor="start" x="1462.5" y="-403" font-family="Helvetica,sans-Serif" font-size="10.00">/Detectors/EMCAL/simulation</text>
<text text-anchor="middle" x="1556" y="-392" font-family="Helvetica,sans-Serif" font-size="10.00">/include/EMCALSimulation/DigitizerTask.h</text>
</g>
<!-- Node2 -->
<g id="node2" class="node"><title>Node2</title>
<polygon fill="none" stroke="#bfbfbf" points="1403.5,-328.5 1403.5,-347.5 1446.5,-347.5 1446.5,-328.5 1403.5,-328.5"/>
<text text-anchor="middle" x="1425" y="-335.5" font-family="Helvetica,sans-Serif" font-size="10.00">cstdio</text>
</g>
<!-- Node1&#45;&gt;Node2 -->
<g id="edge1" class="edge"><title>Node1&#45;&gt;Node2</title>
<path fill="none" stroke="midnightblue" d="M1509.81,-384.968C1489.74,-374.088 1467.01,-361.767 1450.13,-352.622"/>
<polygon fill="midnightblue" stroke="midnightblue" points="1451.4,-349.327 1440.94,-347.639 1448.06,-355.481 1451.4,-349.327"/>
</g>
<!-- Node3 -->
<g id="node3" class="node"><title>Node3</title>
<polygon fill="none" stroke="#bfbfbf" points="1464.5,-328.5 1464.5,-347.5 1527.5,-347.5 1527.5,-328.5 1464.5,-328.5"/>
<text text-anchor="middle" x="1496" y="-335.5" font-family="Helvetica,sans-Serif" font-size="10.00">FairTask.h</text>
</g>
<!-- Node1&#45;&gt;Node3 -->
<g id="edge2" class="edge"><title>Node1&#45;&gt;Node3</title>
<path fill="none" stroke="midnightblue" d="M1534.68,-384.768C1526.49,-375.083 1517.36,-364.281 1510.03,-355.605"/>
<polygon fill="midnightblue" stroke="midnightblue" points="1512.53,-353.136 1503.4,-347.757 1507.18,-357.654 1512.53,-353.136"/>
</g>
<!-- Node4 -->
<g id="node4" class="node"><title>Node4</title>
<polygon fill="none" stroke="#bfbfbf" points="1990,-74.5 1990,-93.5 2046,-93.5 2046,-74.5 1990,-74.5"/>
<text text-anchor="middle" x="2018" y="-81.5" font-family="Helvetica,sans-Serif" font-size="10.00">Rtypes.h</text>
</g>
<!-- Node1&#45;&gt;Node4 -->
<g id="edge3" class="edge"><title>Node1&#45;&gt;Node4</title>
<path fill="none" stroke="midnightblue" d="M1657.72,-406.168C1893.61,-395.927 2458,-363.059 2458,-283 2458,-283 2458,-283 2458,-219 2458,-181.055 2466.34,-161.236 2438,-136 2382.08,-86.1984 2148.81,-83.3749 2056.17,-84.2888"/>
<polygon fill="midnightblue" stroke="midnightblue" points="2056.06,-80.7897 2046.1,-84.4086 2056.14,-87.7892 2056.06,-80.7897"/>
</g>
<!-- Node5 -->
<g id="node5" class="node"><title>Node5</title>
<g id="a_node5"><a xlink:href="../../d5/d8b/EMCAL_2base_2include_2EMCALBase_2Hit_8h.html" target="_top" xlink:title="EMCALBase/Hit.h">
<polygon fill="none" stroke="black" points="1010,-272.5 1010,-291.5 1108,-291.5 1108,-272.5 1010,-272.5"/>
<text text-anchor="middle" x="1059" y="-279.5" font-family="Helvetica,sans-Serif" font-size="10.00">EMCALBase/Hit.h</text>
</a>
</g>
</g>
<!-- Node1&#45;&gt;Node5 -->
<g id="edge4" class="edge"><title>Node1&#45;&gt;Node5</title>
<path fill="none" stroke="midnightblue" d="M1557.06,-384.947C1556.37,-366.341 1552.09,-341.877 1536,-328 1502.96,-299.506 1188.42,-296.271 1145,-292 1136.32,-291.146 1127.14,-290.216 1118.15,-289.288"/>
<polygon fill="midnightblue" stroke="midnightblue" points="1118.41,-285.797 1108.11,-288.246 1117.69,-292.759 1118.41,-285.797"/>
</g>
<!-- Node25 -->
<g id="node25" class="node"><title>Node25</title>
<g id="a_node25"><a xlink:href="../../d8/d19/EMCAL_2simulation_2include_2EMCALSimulation_2Digitizer_8h.html" target="_top" xlink:title="EMCALSimulation/Digitizer.h">
<polygon fill="none" stroke="black" points="1584,-328.5 1584,-347.5 1728,-347.5 1728,-328.5 1584,-328.5"/>
<text text-anchor="middle" x="1656" y="-335.5" font-family="Helvetica,sans-Serif" font-size="10.00">EMCALSimulation/Digitizer.h</text>
</a>
</g>
</g>
<!-- Node1&#45;&gt;Node25 -->
<g id="edge25" class="edge"><title>Node1&#45;&gt;Node25</title>
<path fill="none" stroke="midnightblue" d="M1591.26,-384.968C1605.92,-374.559 1622.43,-362.831 1635.12,-353.827"/>
<polygon fill="midnightblue" stroke="midnightblue" points="1637.46,-356.453 1643.59,-347.81 1633.41,-350.745 1637.46,-356.453"/>
</g>
<!-- Node6 -->
<g id="node6" class="node"><title>Node6</title>
<g id="a_node6"><a xlink:href="../../d4/d25/BaseHits_8h.html" target="_top" xlink:title="SimulationDataFormat\l/BaseHits.h">
<polygon fill="none" stroke="black" points="990,-205 990,-235 1104,-235 1104,-205 990,-205"/>
<text text-anchor="start" x="998" y="-223" font-family="Helvetica,sans-Serif" font-size="10.00">SimulationDataFormat</text>
<text text-anchor="middle" x="1047" y="-212" font-family="Helvetica,sans-Serif" font-size="10.00">/BaseHits.h</text>
</a>
</g>
</g>
<!-- Node5&#45;&gt;Node6 -->
<g id="edge5" class="edge"><title>Node5&#45;&gt;Node6</title>
<path fill="none" stroke="midnightblue" d="M1057.28,-272.403C1055.85,-265.265 1053.75,-254.752 1051.82,-245.09"/>
<polygon fill="midnightblue" stroke="midnightblue" points="1055.22,-244.26 1049.83,-235.141 1048.36,-245.633 1055.22,-244.26"/>
</g>
<!-- Node18 -->
<g id="node18" class="node"><title>Node18</title>
<g id="a_node18"><a xlink:href="../../d0/d91/ShmAllocator_8h.html" target="_top" xlink:title="CommonUtils/ShmAllocator.h">
<polygon fill="none" stroke="black" points="523,-210.5 523,-229.5 669,-229.5 669,-210.5 523,-210.5"/>
<text text-anchor="middle" x="596" y="-217.5" font-family="Helvetica,sans-Serif" font-size="10.00">CommonUtils/ShmAllocator.h</text>
</a>
</g>
</g>
<!-- Node5&#45;&gt;Node18 -->
<g id="edge18" class="edge"><title>Node5&#45;&gt;Node18</title>
<path fill="none" stroke="midnightblue" d="M1009.72,-274.646C942.292,-265.946 817.477,-249.828 711,-236 698.112,-234.326 684.412,-232.543 671.129,-230.812"/>
<polygon fill="midnightblue" stroke="midnightblue" points="671.442,-227.323 661.074,-229.501 670.537,-234.264 671.442,-227.323"/>
</g>
<!-- Node7 -->
<g id="node7" class="node"><title>Node7</title>
<g id="a_node7"><a xlink:href="../../dd/d76/Cartesian3D_8h.html" target="_top" xlink:title="MathUtils/Cartesian3D.h">
<polygon fill="none" stroke="black" points="938.5,-142.5 938.5,-161.5 1063.5,-161.5 1063.5,-142.5 938.5,-142.5"/>
<text text-anchor="middle" x="1001" y="-149.5" font-family="Helvetica,sans-Serif" font-size="10.00">MathUtils/Cartesian3D.h</text>
</a>
</g>
</g>
<!-- Node6&#45;&gt;Node7 -->
<g id="edge6" class="edge"><title>Node6&#45;&gt;Node7</title>
<path fill="none" stroke="midnightblue" d="M1037.02,-204.679C1029.99,-194.592 1020.54,-181.033 1013.08,-170.335"/>
<polygon fill="midnightblue" stroke="midnightblue" points="1015.74,-168.031 1007.15,-161.828 1010,-172.034 1015.74,-168.031"/>
</g>
<!-- Node7&#45;&gt;Node4 -->
<g id="edge12" class="edge"><title>Node7&#45;&gt;Node4</title>
<path fill="none" stroke="midnightblue" d="M1036.21,-142.435C1047.57,-139.974 1060.26,-137.542 1072,-136 1371.63,-96.6482 1449.25,-116.475 1751,-100 1832.54,-95.5482 1928.07,-90.1331 1979.87,-87.1798"/>
<polygon fill="midnightblue" stroke="midnightblue" points="1980.16,-90.6695 1989.94,-86.6056 1979.76,-83.6809 1980.16,-90.6695"/>
</g>
<!-- Node8 -->
<g id="node8" class="node"><title>Node8</title>
<polygon fill="none" stroke="#bfbfbf" points="1081.5,-69 1081.5,-99 1232.5,-99 1232.5,-69 1081.5,-69"/>
<text text-anchor="start" x="1089.5" y="-87" font-family="Helvetica,sans-Serif" font-size="10.00">Math/GenVector/Displacement</text>
<text text-anchor="middle" x="1157" y="-76" font-family="Helvetica,sans-Serif" font-size="10.00">Vector3D.h</text>
</g>
<!-- Node7&#45;&gt;Node8 -->
<g id="edge7" class="edge"><title>Node7&#45;&gt;Node8</title>
<path fill="none" stroke="midnightblue" d="M1021.39,-142.372C1044.87,-132.44 1084.07,-115.854 1114.31,-103.063"/>
<polygon fill="midnightblue" stroke="midnightblue" points="1115.93,-106.176 1123.78,-99.0562 1113.2,-99.7293 1115.93,-106.176"/>
</g>
<!-- Node9 -->
<g id="node9" class="node"><title>Node9</title>
<polygon fill="none" stroke="#bfbfbf" points="1251,-74.5 1251,-93.5 1427,-93.5 1427,-74.5 1251,-74.5"/>
<text text-anchor="middle" x="1339" y="-81.5" font-family="Helvetica,sans-Serif" font-size="10.00">Math/GenVector/PositionVector3D.h</text>
</g>
<!-- Node7&#45;&gt;Node9 -->
<g id="edge8" class="edge"><title>Node7&#45;&gt;Node9</title>
<path fill="none" stroke="midnightblue" d="M1040.78,-142.454C1050.95,-140.308 1061.87,-138.037 1072,-136 1144.59,-121.402 1228.48,-105.542 1282.57,-95.4494"/>
<polygon fill="midnightblue" stroke="midnightblue" points="1283.45,-98.8449 1292.64,-93.5719 1282.17,-91.9634 1283.45,-98.8449"/>
</g>
<!-- Node10 -->
<g id="node10" class="node"><title>Node10</title>
<polygon fill="none" stroke="#bfbfbf" points="418.5,-74.5 418.5,-93.5 567.5,-93.5 567.5,-74.5 418.5,-74.5"/>
<text text-anchor="middle" x="493" y="-81.5" font-family="Helvetica,sans-Serif" font-size="10.00">Math/GenVector/Rotation3D.h</text>
</g>
<!-- Node7&#45;&gt;Node10 -->
<g id="edge9" class="edge"><title>Node7&#45;&gt;Node10</title>
<path fill="none" stroke="midnightblue" d="M963.765,-142.477C952.626,-140.135 940.356,-137.759 929,-136 773.592,-111.931 732.737,-121.838 577,-100 567.418,-98.6564 557.258,-97.0221 547.438,-95.3328"/>
<polygon fill="midnightblue" stroke="midnightblue" points="547.822,-91.8466 537.367,-93.5623 546.61,-98.7409 547.822,-91.8466"/>
</g>
<!-- Node11 -->
<g id="node11" class="node"><title>Node11</title>
<polygon fill="none" stroke="#bfbfbf" points="586,-74.5 586,-93.5 742,-93.5 742,-74.5 586,-74.5"/>
<text text-anchor="middle" x="664" y="-81.5" font-family="Helvetica,sans-Serif" font-size="10.00">Math/GenVector/Transform3D.h</text>
</g>
<!-- Node7&#45;&gt;Node11 -->
<g id="edge10" class="edge"><title>Node7&#45;&gt;Node11</title>
<path fill="none" stroke="midnightblue" d="M960.657,-142.482C950.343,-140.335 939.266,-138.057 929,-136 856.713,-121.515 773.167,-105.568 719.516,-95.4289"/>
<polygon fill="midnightblue" stroke="midnightblue" points="720.002,-91.9589 709.526,-93.5429 718.703,-98.8374 720.002,-91.9589"/>
</g>
<!-- Node12 -->
<g id="node12" class="node"><title>Node12</title>
<polygon fill="none" stroke="#bfbfbf" points="760,-74.5 760,-93.5 920,-93.5 920,-74.5 760,-74.5"/>
<text text-anchor="middle" x="840" y="-81.5" font-family="Helvetica,sans-Serif" font-size="10.00">Math/GenVector/Translation3D.h</text>
</g>
<!-- Node7&#45;&gt;Node12 -->
<g id="edge11" class="edge"><title>Node7&#45;&gt;Node12</title>
<path fill="none" stroke="midnightblue" d="M979.952,-142.372C951.912,-130.877 902.128,-110.469 870.118,-97.3465"/>
<polygon fill="midnightblue" stroke="midnightblue" points="871.378,-94.0805 860.798,-93.5259 868.723,-100.557 871.378,-94.0805"/>
</g>
<!-- Node13 -->
<g id="node13" class="node"><title>Node13</title>
<polygon fill="none" stroke="#bfbfbf" points="1445,-74.5 1445,-93.5 1521,-93.5 1521,-74.5 1445,-74.5"/>
<text text-anchor="middle" x="1483" y="-81.5" font-family="Helvetica,sans-Serif" font-size="10.00">TGeoMatrix.h</text>
</g>
<!-- Node7&#45;&gt;Node13 -->
<g id="edge13" class="edge"><title>Node7&#45;&gt;Node13</title>
<path fill="none" stroke="midnightblue" d="M1037.71,-142.446C1048.69,-140.103 1060.79,-137.734 1072,-136 1232.22,-111.207 1276.13,-132.347 1435,-100 1439.55,-99.0735 1444.28,-97.8845 1448.92,-96.5821"/>
<polygon fill="midnightblue" stroke="midnightblue" points="1450.26,-99.8347 1458.83,-93.6075 1448.25,-93.1303 1450.26,-99.8347"/>
</g>
<!-- Node14 -->
<g id="node14" class="node"><title>Node14</title>
<polygon fill="none" stroke="#bfbfbf" points="1626.5,-74.5 1626.5,-93.5 1671.5,-93.5 1671.5,-74.5 1626.5,-74.5"/>
<text text-anchor="middle" x="1649" y="-81.5" font-family="Helvetica,sans-Serif" font-size="10.00">iosfwd</text>
</g>
<!-- Node7&#45;&gt;Node14 -->
<g id="edge14" class="edge"><title>Node7&#45;&gt;Node14</title>
<path fill="none" stroke="midnightblue" d="M1036.58,-142.448C1047.85,-140.019 1060.39,-137.601 1072,-136 1312.47,-102.827 1381.93,-160.562 1617,-100 1619.5,-99.3571 1622.03,-98.5214 1624.53,-97.5735"/>
<polygon fill="midnightblue" stroke="midnightblue" points="1626.04,-100.735 1633.81,-93.5318 1623.24,-94.3174 1626.04,-100.735"/>
</g>
<!-- Node15 -->
<g id="node15" class="node"><title>Node15</title>
<g id="a_node15"><a xlink:href="../../d2/dd0/Cartesian2D_8h.html" target="_top" xlink:title="MathUtils/Cartesian2D.h">
<polygon fill="none" stroke="black" points="938.5,-74.5 938.5,-93.5 1063.5,-93.5 1063.5,-74.5 938.5,-74.5"/>
<text text-anchor="middle" x="1001" y="-81.5" font-family="Helvetica,sans-Serif" font-size="10.00">MathUtils/Cartesian2D.h</text>
</a>
</g>
</g>
<!-- Node7&#45;&gt;Node15 -->
<g id="edge15" class="edge"><title>Node7&#45;&gt;Node15</title>
<path fill="none" stroke="midnightblue" d="M1001,-142.372C1001,-132.643 1001,-116.528 1001,-103.85"/>
<polygon fill="midnightblue" stroke="midnightblue" points="1004.5,-103.841 1001,-93.8411 997.5,-103.841 1004.5,-103.841"/>
</g>
<!-- Node16 -->
<g id="node16" class="node"><title>Node16</title>
<polygon fill="none" stroke="#bfbfbf" points="834.5,-1 834.5,-31 985.5,-31 985.5,-1 834.5,-1"/>
<text text-anchor="start" x="842.5" y="-19" font-family="Helvetica,sans-Serif" font-size="10.00">Math/GenVector/Displacement</text>
<text text-anchor="middle" x="910" y="-8" font-family="Helvetica,sans-Serif" font-size="10.00">Vector2D.h</text>
</g>
<!-- Node15&#45;&gt;Node16 -->
<g id="edge16" class="edge"><title>Node15&#45;&gt;Node16</title>
<path fill="none" stroke="midnightblue" d="M989.103,-74.3717C976.221,-65.0286 955.22,-49.7966 938.093,-37.375"/>
<polygon fill="midnightblue" stroke="midnightblue" points="939.703,-34.2194 929.553,-31.1815 935.593,-39.8859 939.703,-34.2194"/>
</g>
<!-- Node17 -->
<g id="node17" class="node"><title>Node17</title>
<polygon fill="none" stroke="#bfbfbf" points="1004,-6.5 1004,-25.5 1180,-25.5 1180,-6.5 1004,-6.5"/>
<text text-anchor="middle" x="1092" y="-13.5" font-family="Helvetica,sans-Serif" font-size="10.00">Math/GenVector/PositionVector2D.h</text>
</g>
<!-- Node15&#45;&gt;Node17 -->
<g id="edge17" class="edge"><title>Node15&#45;&gt;Node17</title>
<path fill="none" stroke="midnightblue" d="M1012.9,-74.3717C1027.88,-63.5015 1053.86,-44.6602 1071.94,-31.5474"/>
<polygon fill="midnightblue" stroke="midnightblue" points="1074.06,-34.3349 1080.1,-25.6305 1069.95,-28.6684 1074.06,-34.3349"/>
</g>
<!-- Node19 -->
<g id="node19" class="node"><title>Node19</title>
<g id="a_node19"><a xlink:href="../../de/d61/ShmManager_8h.html" target="_top" xlink:title="CommonUtils/ShmManager.h">
<polygon fill="none" stroke="black" points="136,-142.5 136,-161.5 282,-161.5 282,-142.5 136,-142.5"/>
<text text-anchor="middle" x="209" y="-149.5" font-family="Helvetica,sans-Serif" font-size="10.00">CommonUtils/ShmManager.h</text>
</a>
</g>
</g>
<!-- Node18&#45;&gt;Node19 -->
<g id="edge19" class="edge"><title>Node18&#45;&gt;Node19</title>
<path fill="none" stroke="midnightblue" d="M545.803,-210.439C474.754,-198.322 345.06,-176.204 269.016,-163.235"/>
<polygon fill="midnightblue" stroke="midnightblue" points="269.554,-159.777 259.108,-161.546 268.377,-166.677 269.554,-159.777"/>
</g>
<!-- Node24 -->
<g id="node24" class="node"><title>Node24</title>
<polygon fill="none" stroke="#bfbfbf" points="571.5,-142.5 571.5,-161.5 620.5,-161.5 620.5,-142.5 571.5,-142.5"/>
<text text-anchor="middle" x="596" y="-149.5" font-family="Helvetica,sans-Serif" font-size="10.00">cassert</text>
</g>
<!-- Node18&#45;&gt;Node24 -->
<g id="edge24" class="edge"><title>Node18&#45;&gt;Node24</title>
<path fill="none" stroke="midnightblue" d="M596,-210.372C596,-200.643 596,-184.528 596,-171.85"/>
<polygon fill="midnightblue" stroke="midnightblue" points="599.5,-171.841 596,-161.841 592.5,-171.841 599.5,-171.841"/>
</g>
<!-- Node20 -->
<g id="node20" class="node"><title>Node20</title>
<polygon fill="none" stroke="#bfbfbf" points="137.5,-74.5 137.5,-93.5 166.5,-93.5 166.5,-74.5 137.5,-74.5"/>
<text text-anchor="middle" x="152" y="-81.5" font-family="Helvetica,sans-Serif" font-size="10.00">list</text>
</g>
<!-- Node19&#45;&gt;Node20 -->
<g id="edge20" class="edge"><title>Node19&#45;&gt;Node20</title>
<path fill="none" stroke="midnightblue" d="M201.548,-142.372C192.637,-132.053 177.522,-114.551 166.324,-101.585"/>
<polygon fill="midnightblue" stroke="midnightblue" points="168.821,-99.1217 159.636,-93.8411 163.523,-103.697 168.821,-99.1217"/>
</g>
<!-- Node21 -->
<g id="node21" class="node"><title>Node21</title>
<polygon fill="none" stroke="#bfbfbf" points="184.5,-74.5 184.5,-93.5 233.5,-93.5 233.5,-74.5 184.5,-74.5"/>
<text text-anchor="middle" x="209" y="-81.5" font-family="Helvetica,sans-Serif" font-size="10.00">cstddef</text>
</g>
<!-- Node19&#45;&gt;Node21 -->
<g id="edge21" class="edge"><title>Node19&#45;&gt;Node21</title>
<path fill="none" stroke="midnightblue" d="M209,-142.372C209,-132.643 209,-116.528 209,-103.85"/>
<polygon fill="midnightblue" stroke="midnightblue" points="212.5,-103.841 209,-93.8411 205.5,-103.841 212.5,-103.841"/>
</g>
<!-- Node22 -->
<g id="node22" class="node"><title>Node22</title>
<polygon fill="none" stroke="#bfbfbf" points="252,-69 252,-99 400,-99 400,-69 252,-69"/>
<text text-anchor="start" x="260" y="-87" font-family="Helvetica,sans-Serif" font-size="10.00">boost/interprocess</text>
<text text-anchor="middle" x="326" y="-76" font-family="Helvetica,sans-Serif" font-size="10.00">/managed_external_buffer.hpp</text>
</g>
<!-- Node19&#45;&gt;Node22 -->
<g id="edge22" class="edge"><title>Node19&#45;&gt;Node22</title>
<path fill="none" stroke="midnightblue" d="M224.296,-142.372C241.39,-132.729 269.605,-116.812 291.986,-104.187"/>
<polygon fill="midnightblue" stroke="midnightblue" points="293.87,-107.143 300.86,-99.1815 290.431,-101.046 293.87,-107.143"/>
</g>
<!-- Node23 -->
<g id="node23" class="node"><title>Node23</title>
<polygon fill="none" stroke="#bfbfbf" points="0,-69 0,-99 120,-99 120,-69 0,-69"/>
<text text-anchor="start" x="8" y="-87" font-family="Helvetica,sans-Serif" font-size="10.00">boost/interprocess</text>
<text text-anchor="middle" x="60" y="-76" font-family="Helvetica,sans-Serif" font-size="10.00">/allocators/allocator.hpp</text>
</g>
<!-- Node19&#45;&gt;Node23 -->
<g id="edge23" class="edge"><title>Node19&#45;&gt;Node23</title>
<path fill="none" stroke="midnightblue" d="M189.521,-142.372C167.196,-132.483 129.979,-115.997 101.153,-103.229"/>
<polygon fill="midnightblue" stroke="midnightblue" points="102.294,-99.9062 91.733,-99.0562 99.4587,-106.306 102.294,-99.9062"/>
</g>
<!-- Node25&#45;&gt;Node4 -->
<g id="edge30" class="edge"><title>Node25&#45;&gt;Node4</title>
<path fill="none" stroke="midnightblue" d="M1728.17,-337.082C1814.94,-335.562 1953.39,-327.441 1989,-292 2040.26,-240.993 2029.29,-143.975 2021.91,-103.478"/>
<polygon fill="midnightblue" stroke="midnightblue" points="2025.34,-102.779 2019.98,-93.6403 2018.47,-104.127 2025.34,-102.779"/>
</g>
<!-- Node25&#45;&gt;Node5 -->
<g id="edge57" class="edge"><title>Node25&#45;&gt;Node5</title>
<path fill="none" stroke="midnightblue" d="M1583.75,-329.334C1579.1,-328.873 1574.48,-328.424 1570,-328 1381.28,-310.134 1333.72,-309.866 1145,-292 1136.31,-291.178 1127.14,-290.265 1118.14,-289.345"/>
<polygon fill="midnightblue" stroke="midnightblue" points="1118.41,-285.854 1108.1,-288.308 1117.69,-292.816 1118.41,-285.854"/>
</g>
<!-- Node26 -->
<g id="node26" class="node"><title>Node26</title>
<polygon fill="none" stroke="#bfbfbf" points="1689,-272.5 1689,-291.5 1741,-291.5 1741,-272.5 1689,-272.5"/>
<text text-anchor="middle" x="1715" y="-279.5" font-family="Helvetica,sans-Serif" font-size="10.00">memory</text>
</g>
<!-- Node25&#45;&gt;Node26 -->
<g id="edge26" class="edge"><title>Node25&#45;&gt;Node26</title>
<path fill="none" stroke="midnightblue" d="M1665.48,-328.324C1674.2,-320.341 1687.34,-308.313 1697.9,-298.653"/>
<polygon fill="midnightblue" stroke="midnightblue" points="1700.33,-301.167 1705.35,-291.834 1695.61,-296.004 1700.33,-301.167"/>
</g>
<!-- Node27 -->
<g id="node27" class="node"><title>Node27</title>
<polygon fill="none" stroke="#bfbfbf" points="1759.5,-272.5 1759.5,-291.5 1842.5,-291.5 1842.5,-272.5 1759.5,-272.5"/>
<text text-anchor="middle" x="1801" y="-279.5" font-family="Helvetica,sans-Serif" font-size="10.00">unordered_map</text>
</g>
<!-- Node25&#45;&gt;Node27 -->
<g id="edge27" class="edge"><title>Node25&#45;&gt;Node27</title>
<path fill="none" stroke="midnightblue" d="M1678.98,-328.444C1703.16,-319.438 1741.42,-305.189 1768.65,-295.049"/>
<polygon fill="midnightblue" stroke="midnightblue" points="1769.98,-298.286 1778.13,-291.516 1767.54,-291.727 1769.98,-298.286"/>
</g>
<!-- Node28 -->
<g id="node28" class="node"><title>Node28</title>
<polygon fill="none" stroke="#bfbfbf" points="1081,-142.5 1081,-161.5 1125,-161.5 1125,-142.5 1081,-142.5"/>
<text text-anchor="middle" x="1103" y="-149.5" font-family="Helvetica,sans-Serif" font-size="10.00">vector</text>
</g>
<!-- Node25&#45;&gt;Node28 -->
<g id="edge28" class="edge"><title>Node25&#45;&gt;Node28</title>
<path fill="none" stroke="midnightblue" d="M1603.32,-328.423C1560.23,-320.777 1497.99,-308.28 1445,-292 1324.25,-254.901 1186.71,-192.533 1129.81,-165.798"/>
<polygon fill="midnightblue" stroke="midnightblue" points="1131.3,-162.631 1120.76,-161.527 1128.31,-168.961 1131.3,-162.631"/>
</g>
<!-- Node29 -->
<g id="node29" class="node"><title>Node29</title>
<polygon fill="none" stroke="#bfbfbf" points="1860.5,-272.5 1860.5,-291.5 1903.5,-291.5 1903.5,-272.5 1860.5,-272.5"/>
<text text-anchor="middle" x="1882" y="-279.5" font-family="Helvetica,sans-Serif" font-size="10.00">deque</text>
</g>
<!-- Node25&#45;&gt;Node29 -->
<g id="edge29" class="edge"><title>Node25&#45;&gt;Node29</title>
<path fill="none" stroke="midnightblue" d="M1696.12,-328.427C1733.57,-320.272 1791.23,-307.33 1850.46,-292.026"/>
<polygon fill="midnightblue" stroke="midnightblue" points="1851.57,-295.354 1860.36,-289.449 1849.8,-288.58 1851.57,-295.354"/>
</g>
<!-- Node30 -->
<g id="node30" class="node"><title>Node30</title>
<polygon fill="none" stroke="#bfbfbf" points="1921.5,-272.5 1921.5,-291.5 1980.5,-291.5 1980.5,-272.5 1921.5,-272.5"/>
<text text-anchor="middle" x="1951" y="-279.5" font-family="Helvetica,sans-Serif" font-size="10.00">TObject.h</text>
</g>
<!-- Node25&#45;&gt;Node30 -->
<g id="edge31" class="edge"><title>Node25&#45;&gt;Node30</title>
<path fill="none" stroke="midnightblue" d="M1709.6,-328.424C1759.27,-320.286 1835.45,-307.322 1911.05,-292.105"/>
<polygon fill="midnightblue" stroke="midnightblue" points="1912.12,-295.459 1921.22,-290.042 1910.73,-288.598 1912.12,-295.459"/>
</g>
<!-- Node31 -->
<g id="node31" class="node"><title>Node31</title>
<g id="a_node31"><a xlink:href="../../dd/dc7/EMCAL_2base_2include_2EMCALBase_2Digit_8h.html" target="_top" xlink:title="EMCALBase/Digit.h">
<polygon fill="none" stroke="black" points="2046.5,-210.5 2046.5,-229.5 2151.5,-229.5 2151.5,-210.5 2046.5,-210.5"/>
<text text-anchor="middle" x="2099" y="-217.5" font-family="Helvetica,sans-Serif" font-size="10.00">EMCALBase/Digit.h</text>
</a>
</g>
</g>
<!-- Node25&#45;&gt;Node31 -->
<g id="edge32" class="edge"><title>Node25&#45;&gt;Node31</title>
<path fill="none" stroke="midnightblue" d="M1728.07,-334.19C1821.99,-329.54 1980.33,-318.033 2032,-292 2056.26,-279.774 2076.41,-255.017 2088.09,-238.219"/>
<polygon fill="midnightblue" stroke="midnightblue" points="2091.04,-240.098 2093.67,-229.835 2085.21,-236.217 2091.04,-240.098"/>
</g>
<!-- Node36 -->
<g id="node36" class="node"><title>Node36</title>
<g id="a_node36"><a xlink:href="../../dd/da8/EMCAL_2base_2include_2EMCALBase_2Geometry_8h.html" target="_top" xlink:title="EMCALBase/Geometry.h">
<polygon fill="none" stroke="black" points="1330,-210.5 1330,-229.5 1458,-229.5 1458,-210.5 1330,-210.5"/>
<text text-anchor="middle" x="1394" y="-217.5" font-family="Helvetica,sans-Serif" font-size="10.00">EMCALBase/Geometry.h</text>
</a>
</g>
</g>
<!-- Node25&#45;&gt;Node36 -->
<g id="edge41" class="edge"><title>Node25&#45;&gt;Node36</title>
<path fill="none" stroke="midnightblue" d="M1597.4,-328.476C1562.3,-321.803 1517.53,-310.47 1481,-292 1452.89,-277.789 1425.61,-253.237 1409.31,-237.056"/>
<polygon fill="midnightblue" stroke="midnightblue" points="1411.74,-234.538 1402.23,-229.867 1406.75,-239.449 1411.74,-234.538"/>
</g>
<!-- Node44 -->
<g id="node44" class="node"><title>Node44</title>
<g id="a_node44"><a xlink:href="../../d5/d5e/GeometryBase_8h.html" target="_top" xlink:title="EMCALBase/GeometryBase.h">
<polygon fill="none" stroke="black" points="1616,-142.5 1616,-161.5 1766,-161.5 1766,-142.5 1616,-142.5"/>
<text text-anchor="middle" x="1691" y="-149.5" font-family="Helvetica,sans-Serif" font-size="10.00">EMCALBase/GeometryBase.h</text>
</a>
</g>
</g>
<!-- Node25&#45;&gt;Node44 -->
<g id="edge56" class="edge"><title>Node25&#45;&gt;Node44</title>
<path fill="none" stroke="midnightblue" d="M1583.55,-329.415C1540.51,-321.411 1497.43,-305.092 1515,-272 1544.61,-216.239 1613.3,-181.845 1655.58,-165.173"/>
<polygon fill="midnightblue" stroke="midnightblue" points="1656.86,-168.433 1664.95,-161.598 1654.36,-161.893 1656.86,-168.433"/>
</g>
<!-- Node46 -->
<g id="node46" class="node"><title>Node46</title>
<g id="a_node46"><a xlink:href="../../d2/d7a/EMCAL_2simulation_2include_2EMCALSimulation_2MCLabel_8h.html" target="_top" xlink:title="EMCALSimulation/MCLabel.h">
<polygon fill="none" stroke="black" points="1523.5,-272.5 1523.5,-291.5 1670.5,-291.5 1670.5,-272.5 1523.5,-272.5"/>
<text text-anchor="middle" x="1597" y="-279.5" font-family="Helvetica,sans-Serif" font-size="10.00">EMCALSimulation/MCLabel.h</text>
</a>
</g>
</g>
<!-- Node25&#45;&gt;Node46 -->
<g id="edge58" class="edge"><title>Node25&#45;&gt;Node46</title>
<path fill="none" stroke="midnightblue" d="M1646.52,-328.324C1637.8,-320.341 1624.66,-308.313 1614.1,-298.653"/>
<polygon fill="midnightblue" stroke="midnightblue" points="1616.39,-296.004 1606.65,-291.834 1611.67,-301.167 1616.39,-296.004"/>
</g>
<!-- Node48 -->
<g id="node48" class="node"><title>Node48</title>
<g id="a_node48"><a xlink:href="../../db/d14/MCTruthContainer_8h.html" target="_top" xlink:title="Definition of a container to keep Monte Carlo truth external to simulation objects. ">
<polygon fill="none" stroke="black" points="720,-205 720,-235 834,-235 834,-205 720,-205"/>
<text text-anchor="start" x="728" y="-223" font-family="Helvetica,sans-Serif" font-size="10.00">SimulationDataFormat</text>
<text text-anchor="middle" x="777" y="-212" font-family="Helvetica,sans-Serif" font-size="10.00">/MCTruthContainer.h</text>
</a>
</g>
</g>
<!-- Node25&#45;&gt;Node48 -->
<g id="edge61" class="edge"><title>Node25&#45;&gt;Node48</title>
<path fill="none" stroke="midnightblue" d="M1583.63,-330.223C1458.64,-318.479 1213.81,-295.281 1195,-292 1159.32,-285.779 1151.51,-279.147 1116,-272 1022.49,-253.177 913.191,-237.933 844.528,-229.164"/>
<polygon fill="midnightblue" stroke="midnightblue" points="844.643,-225.651 834.282,-227.866 843.762,-232.595 844.643,-225.651"/>
</g>
<!-- Node31&#45;&gt;Node4 -->
<g id="edge35" class="edge"><title>Node31&#45;&gt;Node4</title>
<path fill="none" stroke="midnightblue" d="M2093.69,-210.208C2080.47,-188.342 2045.92,-131.19 2028.45,-102.28"/>
<polygon fill="midnightblue" stroke="midnightblue" points="2031.4,-100.398 2023.23,-93.6503 2025.41,-104.019 2031.4,-100.398"/>
</g>
<!-- Node31&#45;&gt;Node14 -->
<g id="edge33" class="edge"><title>Node31&#45;&gt;Node14</title>
<path fill="none" stroke="midnightblue" d="M2084.52,-210.362C2055.16,-193.261 1986.05,-155.101 1923,-136 1818.93,-104.472 1785.1,-131.407 1681,-100 1678.72,-99.3122 1676.4,-98.4881 1674.09,-97.585"/>
<polygon fill="midnightblue" stroke="midnightblue" points="1675.48,-94.3727 1664.92,-93.5733 1672.68,-100.786 1675.48,-94.3727"/>
</g>
<!-- Node32 -->
<g id="node32" class="node"><title>Node32</title>
<polygon fill="none" stroke="#bfbfbf" points="2272,-142.5 2272,-161.5 2316,-161.5 2316,-142.5 2272,-142.5"/>
<text text-anchor="middle" x="2294" y="-149.5" font-family="Helvetica,sans-Serif" font-size="10.00">cmath</text>
</g>
<!-- Node31&#45;&gt;Node32 -->
<g id="edge34" class="edge"><title>Node31&#45;&gt;Node32</title>
<path fill="none" stroke="midnightblue" d="M2131.55,-210.427C2165,-201.257 2218.35,-185.631 2263,-168 2264.64,-167.351 2266.32,-166.652 2268,-165.922"/>
<polygon fill="midnightblue" stroke="midnightblue" points="2269.85,-168.924 2277.47,-161.561 2266.92,-162.566 2269.85,-168.924"/>
</g>
<!-- Node33 -->
<g id="node33" class="node"><title>Node33</title>
<g id="a_node33"><a xlink:href="../../df/d5d/common_2include_2CommonDataFormat_2TimeStamp_8h.html" target="_top" xlink:title="CommonDataFormat/TimeStamp.h">
<polygon fill="none" stroke="black" points="2084,-142.5 2084,-161.5 2254,-161.5 2254,-142.5 2084,-142.5"/>
<text text-anchor="middle" x="2169" y="-149.5" font-family="Helvetica,sans-Serif" font-size="10.00">CommonDataFormat/TimeStamp.h</text>
</a>
</g>
</g>
<!-- Node31&#45;&gt;Node33 -->
<g id="edge36" class="edge"><title>Node31&#45;&gt;Node33</title>
<path fill="none" stroke="midnightblue" d="M2108.15,-210.372C2119.3,-199.856 2138.37,-181.882 2152.19,-168.85"/>
<polygon fill="midnightblue" stroke="midnightblue" points="2154.75,-171.248 2159.62,-161.841 2149.95,-166.155 2154.75,-171.248"/>
</g>
<!-- Node34 -->
<g id="node34" class="node"><title>Node34</title>
<g id="a_node34"><a xlink:href="../../d4/d82/Detectors_2EMCAL_2base_2include_2EMCALBase_2Constants_8h.html" target="_top" xlink:title="EMCALBase/Constants.h">
<polygon fill="none" stroke="black" points="1784,-142.5 1784,-161.5 1914,-161.5 1914,-142.5 1784,-142.5"/>
<text text-anchor="middle" x="1849" y="-149.5" font-family="Helvetica,sans-Serif" font-size="10.00">EMCALBase/Constants.h</text>
</a>
</g>
</g>
<!-- Node31&#45;&gt;Node34 -->
<g id="edge38" class="edge"><title>Node31&#45;&gt;Node34</title>
<path fill="none" stroke="midnightblue" d="M2066.57,-210.439C2021.71,-198.594 1940.64,-177.192 1891.13,-164.122"/>
<polygon fill="midnightblue" stroke="midnightblue" points="1891.93,-160.714 1881.37,-161.546 1890.14,-167.482 1891.93,-160.714"/>
</g>
<!-- Node35 -->
<g id="node35" class="node"><title>Node35</title>
<polygon fill="none" stroke="#bfbfbf" points="2334.5,-137 2334.5,-167 2429.5,-167 2429.5,-137 2334.5,-137"/>
<text text-anchor="start" x="2342.5" y="-155" font-family="Helvetica,sans-Serif" font-size="10.00">boost/serialization</text>
<text text-anchor="middle" x="2382" y="-144" font-family="Helvetica,sans-Serif" font-size="10.00">/base_object.hpp</text>
</g>
<!-- Node31&#45;&gt;Node35 -->
<g id="edge40" class="edge"><title>Node31&#45;&gt;Node35</title>
<path fill="none" stroke="midnightblue" d="M2138.51,-210.423C2183.51,-200.566 2259.19,-183.722 2324,-168 2324.1,-167.975 2324.21,-167.949 2324.31,-167.924"/>
<polygon fill="midnightblue" stroke="midnightblue" points="2325.37,-171.269 2334.24,-165.475 2323.69,-164.473 2325.37,-171.269"/>
</g>
<!-- Node33&#45;&gt;Node4 -->
<g id="edge37" class="edge"><title>Node33&#45;&gt;Node4</title>
<path fill="none" stroke="midnightblue" d="M2149.26,-142.372C2123.26,-131.007 2077.33,-110.931 2047.28,-97.7961"/>
<polygon fill="midnightblue" stroke="midnightblue" points="2048.31,-94.4285 2037.75,-93.6305 2045.51,-100.843 2048.31,-94.4285"/>
</g>
<!-- Node34&#45;&gt;Node4 -->
<g id="edge39" class="edge"><title>Node34&#45;&gt;Node4</title>
<path fill="none" stroke="midnightblue" d="M1871.09,-142.372C1900.65,-130.827 1953.24,-110.293 1986.82,-97.1772"/>
<polygon fill="midnightblue" stroke="midnightblue" points="1988.13,-100.424 1996.17,-93.5259 1985.58,-93.9035 1988.13,-100.424"/>
</g>
<!-- Node36&#45;&gt;Node7 -->
<g id="edge55" class="edge"><title>Node36&#45;&gt;Node7</title>
<path fill="none" stroke="midnightblue" d="M1334.2,-210.463C1269.43,-200.999 1163.14,-184.834 1072,-168 1064.76,-166.663 1057.13,-165.154 1049.65,-163.623"/>
<polygon fill="midnightblue" stroke="midnightblue" points="1050.12,-160.145 1039.62,-161.534 1048.7,-166.998 1050.12,-160.145"/>
</g>
<!-- Node36&#45;&gt;Node13 -->
<g id="edge47" class="edge"><title>Node36&#45;&gt;Node13</title>
<path fill="none" stroke="midnightblue" d="M1329.95,-215.845C1248.57,-209.549 1124.12,-190.88 1172,-136 1210.78,-91.5496 1377.43,-112.842 1435,-100 1439.43,-99.011 1444.05,-97.8044 1448.59,-96.5095"/>
<polygon fill="midnightblue" stroke="midnightblue" points="1449.73,-99.8191 1458.3,-93.5839 1447.72,-93.1164 1449.73,-99.8191"/>
</g>
<!-- Node36&#45;&gt;Node28 -->
<g id="edge45" class="edge"><title>Node36&#45;&gt;Node28</title>
<path fill="none" stroke="midnightblue" d="M1334.18,-210.461C1281.97,-202.202 1204.53,-187.991 1139,-168 1136.42,-167.212 1133.77,-166.306 1131.13,-165.337"/>
<polygon fill="midnightblue" stroke="midnightblue" points="1132.39,-162.07 1121.8,-161.655 1129.82,-168.582 1132.39,-162.07"/>
</g>
<!-- Node36&#45;&gt;Node34 -->
<g id="edge51" class="edge"><title>Node36&#45;&gt;Node34</title>
<path fill="none" stroke="midnightblue" d="M1458.06,-211.671C1533.75,-202.719 1663.37,-186.467 1774,-168 1782.01,-166.663 1790.47,-165.109 1798.71,-163.518"/>
<polygon fill="midnightblue" stroke="midnightblue" points="1799.47,-166.936 1808.61,-161.571 1798.12,-160.068 1799.47,-166.936"/>
</g>
<!-- Node37 -->
<g id="node37" class="node"><title>Node37</title>
<polygon fill="none" stroke="#bfbfbf" points="1444.5,-142.5 1444.5,-161.5 1503.5,-161.5 1503.5,-142.5 1444.5,-142.5"/>
<text text-anchor="middle" x="1474" y="-149.5" font-family="Helvetica,sans-Serif" font-size="10.00">exception</text>
</g>
<!-- Node36&#45;&gt;Node37 -->
<g id="edge42" class="edge"><title>Node36&#45;&gt;Node37</title>
<path fill="none" stroke="midnightblue" d="M1404.46,-210.372C1417.39,-199.699 1439.65,-181.343 1455.49,-168.268"/>
<polygon fill="midnightblue" stroke="midnightblue" points="1458.05,-170.694 1463.54,-161.63 1453.6,-165.295 1458.05,-170.694"/>
</g>
<!-- Node38 -->
<g id="node38" class="node"><title>Node38</title>
<polygon fill="none" stroke="#bfbfbf" points="1567.5,-74.5 1567.5,-93.5 1608.5,-93.5 1608.5,-74.5 1567.5,-74.5"/>
<text text-anchor="middle" x="1588" y="-81.5" font-family="Helvetica,sans-Serif" font-size="10.00">string</text>
</g>
<!-- Node36&#45;&gt;Node38 -->
<g id="edge43" class="edge"><title>Node36&#45;&gt;Node38</title>
<path fill="none" stroke="midnightblue" d="M1442.9,-210.466C1488.41,-201.544 1551.74,-186.303 1569,-168 1585.29,-150.723 1588.62,-122.442 1588.84,-103.773"/>
<polygon fill="midnightblue" stroke="midnightblue" points="1592.33,-103.513 1588.66,-93.5758 1585.33,-103.635 1592.33,-103.513"/>
</g>
<!-- Node39 -->
<g id="node39" class="node"><title>Node39</title>
<polygon fill="none" stroke="#bfbfbf" points="1522,-142.5 1522,-161.5 1560,-161.5 1560,-142.5 1522,-142.5"/>
<text text-anchor="middle" x="1541" y="-149.5" font-family="Helvetica,sans-Serif" font-size="10.00">tuple</text>
</g>
<!-- Node36&#45;&gt;Node39 -->
<g id="edge44" class="edge"><title>Node36&#45;&gt;Node39</title>
<path fill="none" stroke="midnightblue" d="M1415.09,-210.406C1438.85,-200.602 1478.52,-183.869 1512,-168 1513.18,-167.44 1514.39,-166.859 1515.6,-166.266"/>
<polygon fill="midnightblue" stroke="midnightblue" points="1517.48,-169.234 1524.84,-161.61 1514.34,-162.983 1517.48,-169.234"/>
</g>
<!-- Node40 -->
<g id="node40" class="node"><title>Node40</title>
<polygon fill="none" stroke="#bfbfbf" points="1181,-142.5 1181,-161.5 1261,-161.5 1261,-142.5 1181,-142.5"/>
<text text-anchor="middle" x="1221" y="-149.5" font-family="Helvetica,sans-Serif" font-size="10.00">RStringView.h</text>
</g>
<!-- Node36&#45;&gt;Node40 -->
<g id="edge46" class="edge"><title>Node36&#45;&gt;Node40</title>
<path fill="none" stroke="midnightblue" d="M1371.38,-210.372C1341.12,-198.827 1287.3,-178.293 1252.92,-165.177"/>
<polygon fill="midnightblue" stroke="midnightblue" points="1253.94,-161.82 1243.35,-161.526 1251.44,-168.36 1253.94,-161.82"/>
</g>
<!-- Node41 -->
<g id="node41" class="node"><title>Node41</title>
<polygon fill="none" stroke="#bfbfbf" points="859,-142.5 859,-161.5 921,-161.5 921,-142.5 859,-142.5"/>
<text text-anchor="middle" x="890" y="-149.5" font-family="Helvetica,sans-Serif" font-size="10.00">TNamed.h</text>
</g>
<!-- Node36&#45;&gt;Node41 -->
<g id="edge48" class="edge"><title>Node36&#45;&gt;Node41</title>
<path fill="none" stroke="midnightblue" d="M1329.72,-216.985C1239.35,-213.017 1070.12,-201.418 930,-168 926.578,-167.184 923.05,-166.155 919.574,-165.02"/>
<polygon fill="midnightblue" stroke="midnightblue" points="920.638,-161.684 910.043,-161.632 918.293,-168.28 920.638,-161.684"/>
</g>
<!-- Node42 -->
<g id="node42" class="node"><title>Node42</title>
<polygon fill="none" stroke="#bfbfbf" points="1279,-142.5 1279,-161.5 1343,-161.5 1343,-142.5 1279,-142.5"/>
<text text-anchor="middle" x="1311" y="-149.5" font-family="Helvetica,sans-Serif" font-size="10.00">TParticle.h</text>
</g>
<!-- Node36&#45;&gt;Node42 -->
<g id="edge49" class="edge"><title>Node36&#45;&gt;Node42</title>
<path fill="none" stroke="midnightblue" d="M1383.15,-210.372C1369.6,-199.6 1346.21,-181.002 1329.75,-167.906"/>
<polygon fill="midnightblue" stroke="midnightblue" points="1331.86,-165.115 1321.85,-161.63 1327.5,-170.594 1331.86,-165.115"/>
</g>
<!-- Node43 -->
<g id="node43" class="node"><title>Node43</title>
<polygon fill="none" stroke="#bfbfbf" points="1361.5,-142.5 1361.5,-161.5 1426.5,-161.5 1426.5,-142.5 1361.5,-142.5"/>
<text text-anchor="middle" x="1394" y="-149.5" font-family="Helvetica,sans-Serif" font-size="10.00">TVector3.h</text>
</g>
<!-- Node36&#45;&gt;Node43 -->
<g id="edge50" class="edge"><title>Node36&#45;&gt;Node43</title>
<path fill="none" stroke="midnightblue" d="M1394,-210.372C1394,-200.643 1394,-184.528 1394,-171.85"/>
<polygon fill="midnightblue" stroke="midnightblue" points="1397.5,-171.841 1394,-161.841 1390.5,-171.841 1397.5,-171.841"/>
</g>
<!-- Node36&#45;&gt;Node44 -->
<g id="edge52" class="edge"><title>Node36&#45;&gt;Node44</title>
<path fill="none" stroke="midnightblue" d="M1432.52,-210.439C1486.38,-198.471 1584.15,-176.744 1642.78,-163.716"/>
<polygon fill="midnightblue" stroke="midnightblue" points="1643.54,-167.132 1652.55,-161.546 1642.02,-160.298 1643.54,-167.132"/>
</g>
<!-- Node44&#45;&gt;Node38 -->
<g id="edge54" class="edge"><title>Node44&#45;&gt;Node38</title>
<path fill="none" stroke="midnightblue" d="M1677.53,-142.372C1660.42,-131.403 1630.63,-112.317 1610.15,-99.1912"/>
<polygon fill="midnightblue" stroke="midnightblue" points="1611.78,-96.0788 1601.47,-93.6305 1608,-101.973 1611.78,-96.0788"/>
</g>
<!-- Node45 -->
<g id="node45" class="node"><title>Node45</title>
<polygon fill="none" stroke="#bfbfbf" points="1690,-74.5 1690,-93.5 1742,-93.5 1742,-74.5 1690,-74.5"/>
<text text-anchor="middle" x="1716" y="-81.5" font-family="Helvetica,sans-Serif" font-size="10.00">sstream</text>
</g>
<!-- Node44&#45;&gt;Node45 -->
<g id="edge53" class="edge"><title>Node44&#45;&gt;Node45</title>
<path fill="none" stroke="midnightblue" d="M1694.27,-142.372C1697.99,-132.544 1704.18,-116.202 1709,-103.467"/>
<polygon fill="midnightblue" stroke="midnightblue" points="1712.38,-104.433 1712.65,-93.8411 1705.84,-101.953 1712.38,-104.433"/>
</g>
<!-- Node47 -->
<g id="node47" class="node"><title>Node47</title>
<g id="a_node47"><a xlink:href="../../d7/dcd/MCCompLabel_8h.html" target="_top" xlink:title="SimulationDataFormat\l/MCCompLabel.h">
<polygon fill="none" stroke="black" points="1708,-205 1708,-235 1822,-235 1822,-205 1708,-205"/>
<text text-anchor="start" x="1716" y="-223" font-family="Helvetica,sans-Serif" font-size="10.00">SimulationDataFormat</text>
<text text-anchor="middle" x="1765" y="-212" font-family="Helvetica,sans-Serif" font-size="10.00">/MCCompLabel.h</text>
</a>
</g>
</g>
<!-- Node46&#45;&gt;Node47 -->
<g id="edge59" class="edge"><title>Node46&#45;&gt;Node47</title>
<path fill="none" stroke="midnightblue" d="M1621.07,-272.403C1645.82,-263.564 1685.05,-249.553 1716.31,-238.39"/>
<polygon fill="midnightblue" stroke="midnightblue" points="1717.49,-241.685 1725.73,-235.025 1715.13,-235.093 1717.49,-241.685"/>
</g>
<!-- Node47&#45;&gt;Node4 -->
<g id="edge60" class="edge"><title>Node47&#45;&gt;Node4</title>
<path fill="none" stroke="midnightblue" d="M1822.15,-206.548C1853.24,-198.326 1891.65,-185.751 1923,-168 1955.21,-149.766 1986.29,-119.437 2003.7,-100.927"/>
<polygon fill="midnightblue" stroke="midnightblue" points="2006.28,-103.288 2010.49,-93.5635 2001.14,-98.5429 2006.28,-103.288"/>
</g>
<!-- Node48&#45;&gt;Node24 -->
<g id="edge63" class="edge"><title>Node48&#45;&gt;Node24</title>
<path fill="none" stroke="midnightblue" d="M733.565,-204.966C704.118,-195.199 664.44,-181.545 630,-168 628.109,-167.256 626.168,-166.468 624.219,-165.658"/>
<polygon fill="midnightblue" stroke="midnightblue" points="625.16,-162.254 614.59,-161.529 622.401,-168.687 625.16,-162.254"/>
</g>
<!-- Node48&#45;&gt;Node41 -->
<g id="edge62" class="edge"><title>Node48&#45;&gt;Node41</title>
<path fill="none" stroke="midnightblue" d="M801.241,-204.841C820.524,-193.579 847.346,-177.913 866.446,-166.757"/>
<polygon fill="midnightblue" stroke="midnightblue" points="868.266,-169.748 875.136,-161.682 864.735,-163.703 868.266,-169.748"/>
</g>
<!-- Node49 -->
<g id="node49" class="node"><title>Node49</title>
<polygon fill="none" stroke="#bfbfbf" points="638.5,-142.5 638.5,-161.5 697.5,-161.5 697.5,-142.5 638.5,-142.5"/>
<text text-anchor="middle" x="668" y="-149.5" font-family="Helvetica,sans-Serif" font-size="10.00">stdexcept</text>
</g>
<!-- Node48&#45;&gt;Node49 -->
<g id="edge64" class="edge"><title>Node48&#45;&gt;Node49</title>
<path fill="none" stroke="midnightblue" d="M753.617,-204.841C735.101,-193.63 709.38,-178.056 690.972,-166.91"/>
<polygon fill="midnightblue" stroke="midnightblue" points="692.705,-163.868 682.338,-161.682 689.08,-169.855 692.705,-163.868"/>
</g>
<!-- Node50 -->
<g id="node50" class="node"><title>Node50</title>
<polygon fill="none" stroke="#bfbfbf" points="715.5,-142.5 715.5,-161.5 760.5,-161.5 760.5,-142.5 715.5,-142.5"/>
<text text-anchor="middle" x="738" y="-149.5" font-family="Helvetica,sans-Serif" font-size="10.00">gsl/gsl</text>
</g>
<!-- Node48&#45;&gt;Node50 -->
<g id="edge65" class="edge"><title>Node48&#45;&gt;Node50</title>
<path fill="none" stroke="midnightblue" d="M768.538,-204.679C762.637,-194.694 754.727,-181.307 748.435,-170.66"/>
<polygon fill="midnightblue" stroke="midnightblue" points="751.317,-168.657 743.217,-161.828 745.291,-172.218 751.317,-168.657"/>
</g>
<!-- Node51 -->
<g id="node51" class="node"><title>Node51</title>
<polygon fill="none" stroke="#bfbfbf" points="779,-142.5 779,-161.5 841,-161.5 841,-142.5 779,-142.5"/>
<text text-anchor="middle" x="810" y="-149.5" font-family="Helvetica,sans-Serif" font-size="10.00">type_traits</text>
</g>
<!-- Node48&#45;&gt;Node51 -->
<g id="edge66" class="edge"><title>Node48&#45;&gt;Node51</title>
<path fill="none" stroke="midnightblue" d="M784.161,-204.679C789.102,-194.796 795.71,-181.579 801.007,-170.986"/>
<polygon fill="midnightblue" stroke="midnightblue" points="804.244,-172.338 805.586,-161.828 797.983,-169.207 804.244,-172.338"/>
</g>
</g>
</svg>
        <g id="navigator" transform="translate(0 0)" fill="#404254">
                <rect fill="#f2f5e9" fill-opacity="0.5" stroke="#606060" stroke-width=".5" x="0" y="0" width="60" height="60"/>
                <use id="zoomplus" xlink:href="#zoomPlus" x="17" y="9" onmousedown="handleZoom(evt,'in')"/>
                <use id="zoomminus" xlink:href="#zoomMin" x="42" y="9" onmousedown="handleZoom(evt,'out')"/>
                <use id="reset" xlink:href="#resetDef" x="30" y="36" onmousedown="handleReset()"/>
                <g id="arrowUp" xlink:href="#dirArrow" transform="translate(30 24)" onmousedown="handlePan(0,-1)">
                  <use xlink:href="#rim" fill="#404040">
                        <set attributeName="fill" to="#808080" begin="arrowUp.mouseover" end="arrowUp.mouseout"/>
                  </use>
                  <path fill="none" stroke="white" stroke-width="1.5" d="M0,-3.0v7 M-2.5,-0.5L0,-3.0L2.5,-0.5"/>
                </g>
                <g id="arrowRight" xlink:href="#dirArrow" transform="rotate(90) translate(36 -43)" onmousedown="handlePan(1,0)">
                  <use xlink:href="#rim" fill="#404040">
                        <set attributeName="fill" to="#808080" begin="arrowRight.mouseover" end="arrowRight.mouseout"/>
                  </use>
                  <path fill="none" stroke="white" stroke-width="1.5" d="M0,-3.0v7 M-2.5,-0.5L0,-3.0L2.5,-0.5"/>
                </g>
                <g id="arrowDown" xlink:href="#dirArrow" transform="rotate(180) translate(-30 -48)" onmousedown="handlePan(0,1)">
                  <use xlink:href="#rim" fill="#404040">
                        <set attributeName="fill" to="#808080" begin="arrowDown.mouseover" end="arrowDown.mouseout"/>
                  </use>
                  <path fill="none" stroke="white" stroke-width="1.5" d="M0,-3.0v7 M-2.5,-0.5L0,-3.0L2.5,-0.5"/>
                </g>
                <g id="arrowLeft" xlink:href="#dirArrow" transform="rotate(270) translate(-36 17)" onmousedown="handlePan(-1,0)">
                  <use xlink:href="#rim" fill="#404040">
                        <set attributeName="fill" to="#808080" begin="arrowLeft.mouseover" end="arrowLeft.mouseout"/>
                  </use>
                  <path fill="none" stroke="white" stroke-width="1.5" d="M0,-3.0v7 M-2.5,-0.5L0,-3.0L2.5,-0.5"/>
                </g>
        </g>
        <svg viewBox="0 0 15 15" width="100%" height="30px" preserveAspectRatio="xMaxYMin meet">
         <g id="arrow_out" transform="scale(0.3 0.3)">
          <a xlink:href="EMCAL_2simulation_2include_2EMCALSimulation_2DigitizerTask_8h__incl_org.svg" target="_base">
           <rect id="button" ry="5" rx="5" y="6" x="6" height="38" width="38"
                fill="#f2f5e9" fill-opacity="0.5" stroke="#606060" stroke-width="1.0"/>
           <path id="arrow"
             d="M 11.500037,31.436501 C 11.940474,20.09759 22.043105,11.32322 32.158766,21.979434 L 37.068811,17.246167 C 37.068811,17.246167 37.088388,32 37.088388,32 L 22.160133,31.978069 C 22.160133,31.978069 26.997745,27.140456 26.997745,27.140456 C 18.528582,18.264221 13.291696,25.230495 11.500037,31.436501 z"
             style="fill:#404040;"/>
          </a>
         </g>
        </svg>
</svg>
