<?xml version="1.0" encoding="UTF-8" standalone="no"?>
<!DOCTYPE svg PUBLIC "-//W3C//DTD SVG 1.1//EN"
 "http://www.w3.org/Graphics/SVG/1.1/DTD/svg11.dtd">
<!-- Generated by graphviz version 2.36.0 (20140111.2315)
 -->
<!-- Title: /home/travis/build/AliceO2Group/AliceO2/Detectors/TRD/simulation/include/TRDSimulation/Detector.h Pages: 1 -->
<svg width="543pt" height="242pt"
 viewBox="0.00 0.00 543.00 242.00" xmlns="http://www.w3.org/2000/svg" xmlns:xlink="http://www.w3.org/1999/xlink">
<g id="graph0" class="graph" transform="scale(1 1) rotate(0) translate(4 238)">
<title>/home/travis/build/AliceO2Group/AliceO2/Detectors/TRD/simulation/include/TRDSimulation/Detector.h</title>
<!-- Node1 -->
<g id="node1" class="node"><title>Node1</title>
<polygon fill="#bfbfbf" stroke="black" points="181.5,-181 181.5,-233 350.5,-233 350.5,-181 181.5,-181"/>
<text text-anchor="start" x="189.5" y="-221" font-family="Helvetica,sans-Serif" font-size="10.00">/home/travis/build</text>
<text text-anchor="start" x="189.5" y="-210" font-family="Helvetica,sans-Serif" font-size="10.00">/AliceO2Group/AliceO2</text>
<text text-anchor="start" x="189.5" y="-199" font-family="Helvetica,sans-Serif" font-size="10.00">/Detectors/TRD/simulation</text>
<text text-anchor="middle" x="266" y="-188" font-family="Helvetica,sans-Serif" font-size="10.00">/include/TRDSimulation/Detector.h</text>
</g>
<!-- Node2 -->
<g id="node2" class="node"><title>Node2</title>
<g id="a_node2"><a xlink:href="../../d4/dae/TRD_2simulation_2include_2TRDSimulation_2Digitizer_8h.html" target="_top" xlink:title="/home/travis/build\l/AliceO2Group/AliceO2\l/Detectors/TRD/simulation\l/include/TRDSimulation/Digitizer.h">
<polygon fill="none" stroke="black" points="24.5,-91 24.5,-143 191.5,-143 191.5,-91 24.5,-91"/>
<text text-anchor="start" x="32.5" y="-131" font-family="Helvetica,sans-Serif" font-size="10.00">/home/travis/build</text>
<text text-anchor="start" x="32.5" y="-120" font-family="Helvetica,sans-Serif" font-size="10.00">/AliceO2Group/AliceO2</text>
<text text-anchor="start" x="32.5" y="-109" font-family="Helvetica,sans-Serif" font-size="10.00">/Detectors/TRD/simulation</text>
<text text-anchor="middle" x="108" y="-98" font-family="Helvetica,sans-Serif" font-size="10.00">/include/TRDSimulation/Digitizer.h</text>
</a>
</g>
</g>
<!-- Node1&#45;&gt;Node2 -->
<g id="edge1" class="edge"><title>Node1&#45;&gt;Node2</title>
<path fill="none" stroke="midnightblue" d="M211.805,-175.815C192.647,-165.145 171.323,-153.268 153.01,-143.069"/>
<polygon fill="midnightblue" stroke="midnightblue" points="210.284,-178.975 220.724,-180.783 213.69,-172.859 210.284,-178.975"/>
</g>
<!-- Node4 -->
<g id="node4" class="node"><title>Node4</title>
<g id="a_node4"><a xlink:href="../../d6/df2/TRDDigitizerSpec_8cxx.html" target="_top" xlink:title="/home/travis/build\l/AliceO2Group/AliceO2\l/Steer/DigitizerWorkflow\l/src/TRDDigitizerSpec.cxx">
<polygon fill="none" stroke="black" points="152,-1 152,-53 286,-53 286,-1 152,-1"/>
<text text-anchor="start" x="160" y="-41" font-family="Helvetica,sans-Serif" font-size="10.00">/home/travis/build</text>
<text text-anchor="start" x="160" y="-30" font-family="Helvetica,sans-Serif" font-size="10.00">/AliceO2Group/AliceO2</text>
<text text-anchor="start" x="160" y="-19" font-family="Helvetica,sans-Serif" font-size="10.00">/Steer/DigitizerWorkflow</text>
<text text-anchor="middle" x="219" y="-8" font-family="Helvetica,sans-Serif" font-size="10.00">/src/TRDDigitizerSpec.cxx</text>
</a>
</g>
</g>
<!-- Node1&#45;&gt;Node4 -->
<g id="edge8" class="edge"><title>Node1&#45;&gt;Node4</title>
<path fill="none" stroke="midnightblue" d="M248.588,-171.7C244.633,-162.85 240.783,-153.216 238,-144 228.797,-113.524 223.755,-77.1154 221.22,-53.3215"/>
<polygon fill="midnightblue" stroke="midnightblue" points="245.491,-173.341 252.875,-180.939 251.841,-170.395 245.491,-173.341"/>
</g>
<!-- Node5 -->
<g id="node5" class="node"><title>Node5</title>
<g id="a_node5"><a xlink:href="../../da/d16/TRD_2simulation_2src_2Detector_8cxx.html" target="_top" xlink:title="/home/travis/build\l/AliceO2Group/AliceO2\l/Detectors/TRD/simulation\l/src/Detector.cxx">
<polygon fill="none" stroke="black" points="247,-91 247,-143 381,-143 381,-91 247,-91"/>
<text text-anchor="start" x="255" y="-131" font-family="Helvetica,sans-Serif" font-size="10.00">/home/travis/build</text>
<text text-anchor="start" x="255" y="-120" font-family="Helvetica,sans-Serif" font-size="10.00">/AliceO2Group/AliceO2</text>
<text text-anchor="start" x="255" y="-109" font-family="Helvetica,sans-Serif" font-size="10.00">/Detectors/TRD/simulation</text>
<text text-anchor="middle" x="314" y="-98" font-family="Helvetica,sans-Serif" font-size="10.00">/src/Detector.cxx</text>
</a>
</g>
</g>
<!-- Node1&#45;&gt;Node5 -->
<g id="edge4" class="edge"><title>Node1&#45;&gt;Node5</title>
<path fill="none" stroke="midnightblue" d="M284.725,-171.671C289.921,-162.145 295.464,-151.983 300.313,-143.092"/>
<polygon fill="midnightblue" stroke="midnightblue" points="281.6,-170.092 279.884,-180.547 287.745,-173.444 281.6,-170.092"/>
</g>
<!-- Node6 -->
<g id="node6" class="node"><title>Node6</title>
<g id="a_node6"><a xlink:href="../../db/d50/O2HitMerger_8h.html" target="_top" xlink:title="/home/travis/build\l/AliceO2Group/AliceO2\l/run/O2HitMerger.h">
<polygon fill="none" stroke="black" points="399,-96.5 399,-137.5 517,-137.5 517,-96.5 399,-96.5"/>
<text text-anchor="start" x="407" y="-125.5" font-family="Helvetica,sans-Serif" font-size="10.00">/home/travis/build</text>
<text text-anchor="start" x="407" y="-114.5" font-family="Helvetica,sans-Serif" font-size="10.00">/AliceO2Group/AliceO2</text>
<text text-anchor="middle" x="458" y="-103.5" font-family="Helvetica,sans-Serif" font-size="10.00">/run/O2HitMerger.h</text>
</a>
</g>
</g>
<!-- Node1&#45;&gt;Node6 -->
<g id="edge5" class="edge"><title>Node1&#45;&gt;Node6</title>
<path fill="none" stroke="midnightblue" d="M330.104,-176.619C358.162,-163.759 390.32,-149.02 415.371,-137.538"/>
<polygon fill="midnightblue" stroke="midnightblue" points="328.395,-173.552 320.763,-180.901 331.312,-179.916 328.395,-173.552"/>
</g>
<!-- Node3 -->
<g id="node3" class="node"><title>Node3</title>
<g id="a_node3"><a xlink:href="../../d7/d40/TRD_2simulation_2src_2Digitizer_8cxx.html" target="_top" xlink:title="/home/travis/build\l/AliceO2Group/AliceO2\l/Detectors/TRD/simulation\l/src/Digitizer.cxx">
<polygon fill="none" stroke="black" points="0,-1 0,-53 134,-53 134,-1 0,-1"/>
<text text-anchor="start" x="8" y="-41" font-family="Helvetica,sans-Serif" font-size="10.00">/home/travis/build</text>
<text text-anchor="start" x="8" y="-30" font-family="Helvetica,sans-Serif" font-size="10.00">/AliceO2Group/AliceO2</text>
<text text-anchor="start" x="8" y="-19" font-family="Helvetica,sans-Serif" font-size="10.00">/Detectors/TRD/simulation</text>
<text text-anchor="middle" x="67" y="-8" font-family="Helvetica,sans-Serif" font-size="10.00">/src/Digitizer.cxx</text>
</a>
</g>
</g>
<!-- Node2&#45;&gt;Node3 -->
<g id="edge2" class="edge"><title>Node2&#45;&gt;Node3</title>
<path fill="none" stroke="midnightblue" d="M91.8684,-81.376C87.4699,-71.9354 82.7901,-61.8909 78.6907,-53.0921"/>
<polygon fill="midnightblue" stroke="midnightblue" points="88.7453,-82.9604 96.1411,-90.5468 95.0904,-80.0041 88.7453,-82.9604"/>
</g>
<!-- Node2&#45;&gt;Node4 -->
<g id="edge3" class="edge"><title>Node2&#45;&gt;Node4</title>
<path fill="none" stroke="midnightblue" d="M147.691,-84.5335C160.657,-74.2542 174.879,-62.9791 187.187,-53.221"/>
<polygon fill="midnightblue" stroke="midnightblue" points="145.47,-81.8276 139.808,-90.7827 149.819,-87.3129 145.47,-81.8276"/>
</g>
<!-- Node6&#45;&gt;Node6 -->
<g id="edge6" class="edge"><title>Node6&#45;&gt;Node6</title>
<path fill="none" stroke="midnightblue" d="M526.662,-129.611C531.826,-126.798 535,-122.595 535,-117 535,-108.475 527.63,-103.18 517.079,-101.115"/>
<polygon fill="midnightblue" stroke="midnightblue" points="525.41,-126.34 517.079,-132.885 527.674,-132.964 525.41,-126.34"/>
</g>
<!-- Node7 -->
<g id="node7" class="node"><title>Node7</title>
<g id="a_node7"><a xlink:href="../../d9/d16/O2HitMergerRunner_8cxx.html" target="_top" xlink:title="/home/travis/build\l/AliceO2Group/AliceO2\l/run/O2HitMergerRunner.cxx">
<polygon fill="none" stroke="black" points="387,-6.5 387,-47.5 529,-47.5 529,-6.5 387,-6.5"/>
<text text-anchor="start" x="395" y="-35.5" font-family="Helvetica,sans-Serif" font-size="10.00">/home/travis/build</text>
<text text-anchor="start" x="395" y="-24.5" font-family="Helvetica,sans-Serif" font-size="10.00">/AliceO2Group/AliceO2</text>
<text text-anchor="middle" x="458" y="-13.5" font-family="Helvetica,sans-Serif" font-size="10.00">/run/O2HitMergerRunner.cxx</text>
</a>
</g>
</g>
<!-- Node6&#45;&gt;Node7 -->
<g id="edge7" class="edge"><title>Node6&#45;&gt;Node7</title>
<path fill="none" stroke="midnightblue" d="M458,-86.3298C458,-73.6289 458,-59.1399 458,-47.7798"/>
<polygon fill="midnightblue" stroke="midnightblue" points="454.5,-86.4699 458,-96.4699 461.5,-86.47 454.5,-86.4699"/>
</g>
</g>
</svg>
