<?xml version="1.0" encoding="UTF-8" standalone="no"?>
<!DOCTYPE svg PUBLIC "-//W3C//DTD SVG 1.1//EN"
 "http://www.w3.org/Graphics/SVG/1.1/DTD/svg11.dtd">
<!-- Generated by graphviz version 2.36.0 (20140111.2315)
 -->
<!-- Title: /home/travis/build/AliceO2Group/AliceO2/Framework/Core/include/Framework/InputSpec.h Pages: 1 -->
<svg width="2155pt" height="322pt"
 viewBox="0.00 0.00 2155.00 322.00" xmlns="http://www.w3.org/2000/svg" xmlns:xlink="http://www.w3.org/1999/xlink">
<g id="graph0" class="graph" transform="scale(1 1) rotate(0) translate(4 318)">
<title>/home/travis/build/AliceO2Group/AliceO2/Framework/Core/include/Framework/InputSpec.h</title>
<!-- Node1 -->
<g id="node1" class="node"><title>Node1</title>
<polygon fill="#bfbfbf" stroke="black" points="576,-261 576,-313 702,-313 702,-261 576,-261"/>
<text text-anchor="start" x="584" y="-301" font-family="Helvetica,sans-Serif" font-size="10.00">/home/travis/build</text>
<text text-anchor="start" x="584" y="-290" font-family="Helvetica,sans-Serif" font-size="10.00">/AliceO2Group/AliceO2</text>
<text text-anchor="start" x="584" y="-279" font-family="Helvetica,sans-Serif" font-size="10.00">/Framework/Core/include</text>
<text text-anchor="middle" x="639" y="-268" font-family="Helvetica,sans-Serif" font-size="10.00">/Framework/InputSpec.h</text>
</g>
<!-- Node2 -->
<g id="node2" class="node"><title>Node2</title>
<g id="a_node2"><a xlink:href="../../dc/dca/Lifetime_8h.html" target="_top" xlink:title="Framework/Lifetime.h">
<polygon fill="none" stroke="black" points="335.5,-198.5 335.5,-217.5 446.5,-217.5 446.5,-198.5 335.5,-198.5"/>
<text text-anchor="middle" x="391" y="-205.5" font-family="Helvetica,sans-Serif" font-size="10.00">Framework/Lifetime.h</text>
</a>
</g>
</g>
<!-- Node1&#45;&gt;Node2 -->
<g id="edge1" class="edge"><title>Node1&#45;&gt;Node2</title>
<path fill="none" stroke="midnightblue" d="M575.777,-266.37C529.143,-251.891 467.271,-232.681 428.29,-220.578"/>
<polygon fill="midnightblue" stroke="midnightblue" points="429.003,-217.135 418.415,-217.512 426.928,-223.82 429.003,-217.135"/>
</g>
<!-- Node3 -->
<g id="node3" class="node"><title>Node3</title>
<g id="a_node3"><a xlink:href="../../d0/d1b/ConcreteDataMatcher_8h.html" target="_top" xlink:title="Framework/ConcreteDataMatcher.h">
<polygon fill="none" stroke="black" points="156.5,-130.5 156.5,-149.5 329.5,-149.5 329.5,-130.5 156.5,-130.5"/>
<text text-anchor="middle" x="243" y="-137.5" font-family="Helvetica,sans-Serif" font-size="10.00">Framework/ConcreteDataMatcher.h</text>
</a>
</g>
</g>
<!-- Node1&#45;&gt;Node3 -->
<g id="edge2" class="edge"><title>Node1&#45;&gt;Node3</title>
<path fill="none" stroke="midnightblue" d="M575.71,-263.467C549.583,-253.025 519.51,-239.486 494,-224 474.834,-212.365 475.075,-201.986 455,-192 427.935,-178.537 352.13,-162.023 298.932,-151.504"/>
<polygon fill="midnightblue" stroke="midnightblue" points="299.433,-148.036 288.947,-149.548 298.087,-154.905 299.433,-148.036"/>
</g>
<!-- Node11 -->
<g id="node11" class="node"><title>Node11</title>
<polygon fill="none" stroke="#bfbfbf" points="568.5,-6.5 568.5,-25.5 609.5,-25.5 609.5,-6.5 568.5,-6.5"/>
<text text-anchor="middle" x="589" y="-13.5" font-family="Helvetica,sans-Serif" font-size="10.00">string</text>
</g>
<!-- Node1&#45;&gt;Node11 -->
<g id="edge44" class="edge"><title>Node1&#45;&gt;Node11</title>
<path fill="none" stroke="midnightblue" d="M690.22,-260.763C743.511,-230.879 815.048,-178.275 783,-124 778.19,-115.854 666.178,-57.0248 614.59,-30.2312"/>
<polygon fill="midnightblue" stroke="midnightblue" points="616.188,-27.1176 605.7,-25.6206 612.965,-33.3316 616.188,-27.1176"/>
</g>
<!-- Node13 -->
<g id="node13" class="node"><title>Node13</title>
<g id="a_node13"><a xlink:href="../../d3/da3/DataDescriptorMatcher_8h.html" target="_top" xlink:title="Framework/DataDescriptor\lMatcher.h">
<polygon fill="none" stroke="black" points="503,-193 503,-223 637,-223 637,-193 503,-193"/>
<text text-anchor="start" x="511" y="-211" font-family="Helvetica,sans-Serif" font-size="10.00">Framework/DataDescriptor</text>
<text text-anchor="middle" x="570" y="-200" font-family="Helvetica,sans-Serif" font-size="10.00">Matcher.h</text>
</a>
</g>
</g>
<!-- Node1&#45;&gt;Node13 -->
<g id="edge12" class="edge"><title>Node1&#45;&gt;Node13</title>
<path fill="none" stroke="midnightblue" d="M616.407,-260.787C607.774,-251.153 598.007,-240.254 589.668,-230.948"/>
<polygon fill="midnightblue" stroke="midnightblue" points="592.052,-228.364 582.771,-223.252 586.838,-233.035 592.052,-228.364"/>
</g>
<!-- Node32 -->
<g id="node32" class="node"><title>Node32</title>
<polygon fill="none" stroke="#bfbfbf" points="728,-130.5 728,-149.5 774,-149.5 774,-130.5 728,-130.5"/>
<text text-anchor="middle" x="751" y="-137.5" font-family="Helvetica,sans-Serif" font-size="10.00">variant</text>
</g>
<!-- Node1&#45;&gt;Node32 -->
<g id="edge46" class="edge"><title>Node1&#45;&gt;Node32</title>
<path fill="none" stroke="midnightblue" d="M658.509,-260.743C681.283,-231.259 718.318,-183.311 737.901,-157.959"/>
<polygon fill="midnightblue" stroke="midnightblue" points="740.924,-159.77 744.267,-149.717 735.384,-155.491 740.924,-159.77"/>
</g>
<!-- Node33 -->
<g id="node33" class="node"><title>Node33</title>
<polygon fill="none" stroke="#bfbfbf" points="830,-198.5 830,-217.5 882,-217.5 882,-198.5 830,-198.5"/>
<text text-anchor="middle" x="856" y="-205.5" font-family="Helvetica,sans-Serif" font-size="10.00">ostream</text>
</g>
<!-- Node1&#45;&gt;Node33 -->
<g id="edge45" class="edge"><title>Node1&#45;&gt;Node33</title>
<path fill="none" stroke="midnightblue" d="M702.196,-264.239C736.019,-252.498 778.35,-237.652 816,-224 818.528,-223.084 821.141,-222.126 823.766,-221.157"/>
<polygon fill="midnightblue" stroke="midnightblue" points="825.034,-224.42 833.187,-217.653 822.594,-217.859 825.034,-224.42"/>
</g>
<!-- Node4 -->
<g id="node4" class="node"><title>Node4</title>
<g id="a_node4"><a xlink:href="../../dc/dcd/DataHeader_8h.html" target="_top" xlink:title="Headers/DataHeader.h">
<polygon fill="none" stroke="black" points="386.5,-68.5 386.5,-87.5 503.5,-87.5 503.5,-68.5 386.5,-68.5"/>
<text text-anchor="middle" x="445" y="-75.5" font-family="Helvetica,sans-Serif" font-size="10.00">Headers/DataHeader.h</text>
</a>
</g>
</g>
<!-- Node3&#45;&gt;Node4 -->
<g id="edge3" class="edge"><title>Node3&#45;&gt;Node4</title>
<path fill="none" stroke="midnightblue" d="M271.942,-130.403C307.267,-119.911 367.131,-102.129 406.365,-90.4758"/>
<polygon fill="midnightblue" stroke="midnightblue" points="407.523,-93.7831 416.112,-87.5806 405.529,-87.0729 407.523,-93.7831"/>
</g>
<!-- Node5 -->
<g id="node5" class="node"><title>Node5</title>
<polygon fill="none" stroke="#bfbfbf" points="197,-6.5 197,-25.5 243,-25.5 243,-6.5 197,-6.5"/>
<text text-anchor="middle" x="220" y="-13.5" font-family="Helvetica,sans-Serif" font-size="10.00">cstdint</text>
</g>
<!-- Node4&#45;&gt;Node5 -->
<g id="edge4" class="edge"><title>Node4&#45;&gt;Node5</title>
<path fill="none" stroke="midnightblue" d="M395.818,-68.4827C356.33,-60.9447 299.786,-48.5659 252,-32 250.087,-31.3368 248.135,-30.5953 246.187,-29.8068"/>
<polygon fill="midnightblue" stroke="midnightblue" points="247.227,-26.4408 236.665,-25.6163 244.408,-32.8478 247.227,-26.4408"/>
</g>
<!-- Node6 -->
<g id="node6" class="node"><title>Node6</title>
<polygon fill="none" stroke="#bfbfbf" points="44,-6.5 44,-25.5 96,-25.5 96,-6.5 44,-6.5"/>
<text text-anchor="middle" x="70" y="-13.5" font-family="Helvetica,sans-Serif" font-size="10.00">memory</text>
</g>
<!-- Node4&#45;&gt;Node6 -->
<g id="edge5" class="edge"><title>Node4&#45;&gt;Node6</title>
<path fill="none" stroke="midnightblue" d="M386.402,-71.6289C320.957,-64.9965 212.111,-52.0686 120,-32 115.268,-30.969 110.333,-29.7149 105.486,-28.3757"/>
<polygon fill="midnightblue" stroke="midnightblue" points="106.332,-24.9769 95.7529,-25.5515 104.381,-31.6996 106.332,-24.9769"/>
</g>
<!-- Node7 -->
<g id="node7" class="node"><title>Node7</title>
<polygon fill="none" stroke="#bfbfbf" points="129.5,-6.5 129.5,-25.5 178.5,-25.5 178.5,-6.5 129.5,-6.5"/>
<text text-anchor="middle" x="154" y="-13.5" font-family="Helvetica,sans-Serif" font-size="10.00">cassert</text>
</g>
<!-- Node4&#45;&gt;Node7 -->
<g id="edge6" class="edge"><title>Node4&#45;&gt;Node7</title>
<path fill="none" stroke="midnightblue" d="M386.392,-70.8383C333.683,-64.3359 254.539,-52.1765 188,-32 185.569,-31.2628 183.081,-30.3976 180.612,-29.4611"/>
<polygon fill="midnightblue" stroke="midnightblue" points="181.917,-26.213 171.339,-25.6163 179.236,-32.6793 181.917,-26.213"/>
</g>
<!-- Node8 -->
<g id="node8" class="node"><title>Node8</title>
<polygon fill="none" stroke="#bfbfbf" points="628,-6.5 628,-25.5 674,-25.5 674,-6.5 628,-6.5"/>
<text text-anchor="middle" x="651" y="-13.5" font-family="Helvetica,sans-Serif" font-size="10.00">cstring</text>
</g>
<!-- Node4&#45;&gt;Node8 -->
<g id="edge7" class="edge"><title>Node4&#45;&gt;Node8</title>
<path fill="none" stroke="midnightblue" d="M485.793,-68.4769C521.231,-60.5809 573.683,-47.7039 618,-32 620.121,-31.2485 622.293,-30.4144 624.46,-29.5354"/>
<polygon fill="midnightblue" stroke="midnightblue" points="625.973,-32.6943 633.762,-25.5113 623.194,-26.2697 625.973,-32.6943"/>
</g>
<!-- Node9 -->
<g id="node9" class="node"><title>Node9</title>
<polygon fill="none" stroke="#bfbfbf" points="417,-6.5 417,-25.5 473,-25.5 473,-6.5 417,-6.5"/>
<text text-anchor="middle" x="445" y="-13.5" font-family="Helvetica,sans-Serif" font-size="10.00">algorithm</text>
</g>
<!-- Node4&#45;&gt;Node9 -->
<g id="edge8" class="edge"><title>Node4&#45;&gt;Node9</title>
<path fill="none" stroke="midnightblue" d="M445,-68.4035C445,-59.9381 445,-46.7283 445,-35.8199"/>
<polygon fill="midnightblue" stroke="midnightblue" points="448.5,-35.5806 445,-25.5806 441.5,-35.5806 448.5,-35.5806"/>
</g>
<!-- Node10 -->
<g id="node10" class="node"><title>Node10</title>
<polygon fill="none" stroke="#bfbfbf" points="491.5,-6.5 491.5,-25.5 550.5,-25.5 550.5,-6.5 491.5,-6.5"/>
<text text-anchor="middle" x="521" y="-13.5" font-family="Helvetica,sans-Serif" font-size="10.00">stdexcept</text>
</g>
<!-- Node4&#45;&gt;Node10 -->
<g id="edge9" class="edge"><title>Node4&#45;&gt;Node10</title>
<path fill="none" stroke="midnightblue" d="M455.889,-68.4035C467.966,-58.8688 487.667,-43.3154 502.24,-31.8106"/>
<polygon fill="midnightblue" stroke="midnightblue" points="504.451,-34.5242 510.131,-25.5806 500.114,-29.03 504.451,-34.5242"/>
</g>
<!-- Node4&#45;&gt;Node11 -->
<g id="edge10" class="edge"><title>Node4&#45;&gt;Node11</title>
<path fill="none" stroke="midnightblue" d="M468.391,-68.4532C491.612,-59.8087 528.106,-45.7892 559,-32 560.396,-31.377 561.821,-30.724 563.254,-30.0538"/>
<polygon fill="midnightblue" stroke="midnightblue" points="565.147,-33.026 572.619,-25.515 562.094,-26.7268 565.147,-33.026"/>
</g>
<!-- Node12 -->
<g id="node12" class="node"><title>Node12</title>
<g id="a_node12"><a xlink:href="../../d7/df8/Types_8h.html" target="_top" xlink:title="MemoryResources/Types.h">
<polygon fill="none" stroke="black" points="261.5,-6.5 261.5,-25.5 398.5,-25.5 398.5,-6.5 261.5,-6.5"/>
<text text-anchor="middle" x="330" y="-13.5" font-family="Helvetica,sans-Serif" font-size="10.00">MemoryResources/Types.h</text>
</a>
</g>
</g>
<!-- Node4&#45;&gt;Node12 -->
<g id="edge11" class="edge"><title>Node4&#45;&gt;Node12</title>
<path fill="none" stroke="midnightblue" d="M428.523,-68.4035C409.395,-58.4232 377.627,-41.8487 355.348,-30.2253"/>
<polygon fill="midnightblue" stroke="midnightblue" points="356.931,-27.1033 346.446,-25.5806 353.693,-33.3094 356.931,-27.1033"/>
</g>
<!-- Node13&#45;&gt;Node3 -->
<g id="edge13" class="edge"><title>Node13&#45;&gt;Node3</title>
<path fill="none" stroke="midnightblue" d="M502.642,-193.405C441.215,-181.007 351.708,-162.941 295.454,-151.587"/>
<polygon fill="midnightblue" stroke="midnightblue" points="295.846,-148.096 285.351,-149.548 294.461,-154.957 295.846,-148.096"/>
</g>
<!-- Node13&#45;&gt;Node4 -->
<g id="edge20" class="edge"><title>Node13&#45;&gt;Node4</title>
<path fill="none" stroke="midnightblue" d="M533.07,-192.937C514.878,-184.494 493.742,-172.214 479,-156 463.678,-139.148 454.41,-114.275 449.504,-97.3933"/>
<polygon fill="midnightblue" stroke="midnightblue" points="452.855,-96.3749 446.89,-87.6186 446.092,-98.1834 452.855,-96.3749"/>
</g>
<!-- Node13&#45;&gt;Node5 -->
<g id="edge39" class="edge"><title>Node13&#45;&gt;Node5</title>
<path fill="none" stroke="midnightblue" d="M503.644,-192.908C456.911,-182.339 398.923,-167.736 377,-156 368.91,-151.669 276.146,-67.9115 237.127,-32.5464"/>
<polygon fill="midnightblue" stroke="midnightblue" points="239.425,-29.9056 229.667,-25.7804 234.723,-35.0909 239.425,-29.9056"/>
</g>
<!-- Node13&#45;&gt;Node11 -->
<g id="edge41" class="edge"><title>Node13&#45;&gt;Node11</title>
<path fill="none" stroke="midnightblue" d="M576.133,-192.576C580.074,-182.526 584.845,-168.698 587,-156 594.209,-113.509 592.334,-62.6628 590.54,-35.7929"/>
<polygon fill="midnightblue" stroke="midnightblue" points="594.01,-35.2573 589.779,-25.5441 587.029,-35.776 594.01,-35.2573"/>
</g>
<!-- Node14 -->
<g id="node14" class="node"><title>Node14</title>
<g id="a_node14"><a xlink:href="../../d6/dc9/DataProcessingHeader_8h.html" target="_top" xlink:title="Framework/DataProcessing\lHeader.h">
<polygon fill="none" stroke="black" points="0,-125 0,-155 138,-155 138,-125 0,-125"/>
<text text-anchor="start" x="8" y="-143" font-family="Helvetica,sans-Serif" font-size="10.00">Framework/DataProcessing</text>
<text text-anchor="middle" x="69" y="-132" font-family="Helvetica,sans-Serif" font-size="10.00">Header.h</text>
</a>
</g>
</g>
<!-- Node13&#45;&gt;Node14 -->
<g id="edge14" class="edge"><title>Node13&#45;&gt;Node14</title>
<path fill="none" stroke="midnightblue" d="M502.824,-198.085C487.136,-196.045 470.486,-193.915 455,-192 321.427,-175.483 284.904,-176.947 148.289,-156.134"/>
<polygon fill="midnightblue" stroke="midnightblue" points="148.692,-152.655 138.276,-154.597 147.629,-159.574 148.692,-152.655"/>
</g>
<!-- Node16 -->
<g id="node16" class="node"><title>Node16</title>
<g id="a_node16"><a xlink:href="../../d4/d00/Headers_2include_2Headers_2Stack_8h.html" target="_top" xlink:title="Headers/Stack.h">
<polygon fill="none" stroke="black" points="488,-130.5 488,-149.5 578,-149.5 578,-130.5 488,-130.5"/>
<text text-anchor="middle" x="533" y="-137.5" font-family="Helvetica,sans-Serif" font-size="10.00">Headers/Stack.h</text>
</a>
</g>
</g>
<!-- Node13&#45;&gt;Node16 -->
<g id="edge21" class="edge"><title>Node13&#45;&gt;Node16</title>
<path fill="none" stroke="midnightblue" d="M561.972,-192.679C556.374,-182.694 548.869,-169.307 542.9,-158.66"/>
<polygon fill="midnightblue" stroke="midnightblue" points="545.892,-156.84 537.949,-149.828 539.786,-160.263 545.892,-156.84"/>
</g>
<!-- Node24 -->
<g id="node24" class="node"><title>Node24</title>
<polygon fill="none" stroke="#bfbfbf" points="692,-6.5 692,-25.5 736,-25.5 736,-6.5 692,-6.5"/>
<text text-anchor="middle" x="714" y="-13.5" font-family="Helvetica,sans-Serif" font-size="10.00">vector</text>
</g>
<!-- Node13&#45;&gt;Node24 -->
<g id="edge43" class="edge"><title>Node13&#45;&gt;Node24</title>
<path fill="none" stroke="midnightblue" d="M580.823,-192.719C606.872,-158.349 672.973,-71.1333 701.058,-34.0766"/>
<polygon fill="midnightblue" stroke="midnightblue" points="704.081,-35.8826 707.331,-25.7988 698.502,-31.6544 704.081,-35.8826"/>
</g>
<!-- Node30 -->
<g id="node30" class="node"><title>Node30</title>
<polygon fill="none" stroke="#bfbfbf" points="672,-130.5 672,-149.5 710,-149.5 710,-130.5 672,-130.5"/>
<text text-anchor="middle" x="691" y="-137.5" font-family="Helvetica,sans-Serif" font-size="10.00">array</text>
</g>
<!-- Node13&#45;&gt;Node30 -->
<g id="edge38" class="edge"><title>Node13&#45;&gt;Node30</title>
<path fill="none" stroke="midnightblue" d="M595.958,-192.841C616.699,-181.528 645.587,-165.771 666.057,-154.605"/>
<polygon fill="midnightblue" stroke="midnightblue" points="667.98,-157.543 675.083,-149.682 664.628,-151.398 667.98,-157.543"/>
</g>
<!-- Node31 -->
<g id="node31" class="node"><title>Node31</title>
<polygon fill="none" stroke="#bfbfbf" points="386.5,-130.5 386.5,-149.5 431.5,-149.5 431.5,-130.5 386.5,-130.5"/>
<text text-anchor="middle" x="409" y="-137.5" font-family="Helvetica,sans-Serif" font-size="10.00">iosfwd</text>
</g>
<!-- Node13&#45;&gt;Node31 -->
<g id="edge40" class="edge"><title>Node13&#45;&gt;Node31</title>
<path fill="none" stroke="midnightblue" d="M535.461,-192.841C506.989,-181.169 466.98,-164.768 439.635,-153.558"/>
<polygon fill="midnightblue" stroke="midnightblue" points="440.759,-150.237 430.179,-149.682 438.104,-156.713 440.759,-150.237"/>
</g>
<!-- Node13&#45;&gt;Node32 -->
<g id="edge42" class="edge"><title>Node13&#45;&gt;Node32</title>
<path fill="none" stroke="midnightblue" d="M615.129,-192.965C644.921,-183.356 684.651,-169.881 719,-156 720.643,-155.336 722.322,-154.631 724.008,-153.903"/>
<polygon fill="midnightblue" stroke="midnightblue" points="725.87,-156.903 733.546,-149.6 722.992,-150.522 725.87,-156.903"/>
</g>
<!-- Node14&#45;&gt;Node4 -->
<g id="edge15" class="edge"><title>Node14&#45;&gt;Node4</title>
<path fill="none" stroke="midnightblue" d="M138.296,-125.524C141.235,-125 144.146,-124.49 147,-124 225.364,-110.554 315.696,-97.215 376.176,-88.5938"/>
<polygon fill="midnightblue" stroke="midnightblue" points="376.957,-92.0181 386.365,-87.1458 375.972,-85.0877 376.957,-92.0181"/>
</g>
<!-- Node14&#45;&gt;Node5 -->
<g id="edge16" class="edge"><title>Node14&#45;&gt;Node5</title>
<path fill="none" stroke="midnightblue" d="M96.3213,-124.875C113.373,-115.476 135.356,-102.268 153,-88 173.49,-71.4298 193.806,-48.7968 206.601,-33.5782"/>
<polygon fill="midnightblue" stroke="midnightblue" points="209.54,-35.5155 213.209,-25.5763 204.143,-31.0579 209.54,-35.5155"/>
</g>
<!-- Node14&#45;&gt;Node6 -->
<g id="edge18" class="edge"><title>Node14&#45;&gt;Node6</title>
<path fill="none" stroke="midnightblue" d="M69.1186,-124.526C69.3,-102.403 69.6461,-60.1808 69.8464,-35.7442"/>
<polygon fill="midnightblue" stroke="midnightblue" points="73.3471,-35.6512 69.9293,-25.6228 66.3474,-35.5938 73.3471,-35.6512"/>
</g>
<!-- Node14&#45;&gt;Node7 -->
<g id="edge19" class="edge"><title>Node14&#45;&gt;Node7</title>
<path fill="none" stroke="midnightblue" d="M93.8385,-124.942C107.535,-116.006 123.785,-103.256 134,-88 144.561,-72.2283 149.597,-50.9192 151.966,-35.7717"/>
<polygon fill="midnightblue" stroke="midnightblue" points="155.472,-35.9538 153.304,-25.5831 148.531,-35.0419 155.472,-35.9538"/>
</g>
<!-- Node15 -->
<g id="node15" class="node"><title>Node15</title>
<polygon fill="none" stroke="#bfbfbf" points="82.5,-68.5 82.5,-87.5 125.5,-87.5 125.5,-68.5 82.5,-68.5"/>
<text text-anchor="middle" x="104" y="-75.5" font-family="Helvetica,sans-Serif" font-size="10.00">cstdio</text>
</g>
<!-- Node14&#45;&gt;Node15 -->
<g id="edge17" class="edge"><title>Node14&#45;&gt;Node15</title>
<path fill="none" stroke="midnightblue" d="M77.2945,-124.781C82.2231,-116.332 88.5136,-105.548 93.7512,-96.5693"/>
<polygon fill="midnightblue" stroke="midnightblue" points="96.8917,-98.1319 98.9072,-87.7305 90.8452,-94.6048 96.8917,-98.1319"/>
</g>
<!-- Node16&#45;&gt;Node4 -->
<g id="edge37" class="edge"><title>Node16&#45;&gt;Node4</title>
<path fill="none" stroke="midnightblue" d="M520.392,-130.403C506.277,-120.78 483.169,-105.024 466.251,-93.4891"/>
<polygon fill="midnightblue" stroke="midnightblue" points="467.819,-90.3222 457.585,-87.5806 463.875,-96.1058 467.819,-90.3222"/>
</g>
<!-- Node17 -->
<g id="node17" class="node"><title>Node17</title>
<g id="a_node17"><a xlink:href="../../dc/d03/MemoryResources_8h.html" target="_top" xlink:title="MemoryResources/MemoryResources.h">
<polygon fill="none" stroke="black" points="1186.5,-68.5 1186.5,-87.5 1379.5,-87.5 1379.5,-68.5 1186.5,-68.5"/>
<text text-anchor="middle" x="1283" y="-75.5" font-family="Helvetica,sans-Serif" font-size="10.00">MemoryResources/MemoryResources.h</text>
</a>
</g>
</g>
<!-- Node16&#45;&gt;Node17 -->
<g id="edge22" class="edge"><title>Node16&#45;&gt;Node17</title>
<path fill="none" stroke="midnightblue" d="M578.073,-133.323C603.068,-130.295 634.725,-126.656 663,-124 842.759,-107.113 1052.35,-93.0797 1176.02,-85.3819"/>
<polygon fill="midnightblue" stroke="midnightblue" points="1176.48,-88.8602 1186.24,-84.7477 1176.04,-81.8736 1176.48,-88.8602"/>
</g>
<!-- Node17&#45;&gt;Node8 -->
<g id="edge27" class="edge"><title>Node17&#45;&gt;Node8</title>
<path fill="none" stroke="midnightblue" d="M1186.42,-74.0055C1041.6,-68.795 775.324,-56.2243 683,-32 680.507,-31.346 677.971,-30.5028 675.473,-29.5502"/>
<polygon fill="midnightblue" stroke="midnightblue" points="676.764,-26.2946 666.198,-25.5021 673.963,-32.7101 676.764,-26.2946"/>
</g>
<!-- Node17&#45;&gt;Node11 -->
<g id="edge28" class="edge"><title>Node17&#45;&gt;Node11</title>
<path fill="none" stroke="midnightblue" d="M1186.38,-75.121C1028.67,-71.2715 723.103,-60.3252 619,-32 616.809,-31.4038 614.589,-30.6411 612.4,-29.7765"/>
<polygon fill="midnightblue" stroke="midnightblue" points="613.734,-26.5376 603.187,-25.534 610.806,-32.8958 613.734,-26.5376"/>
</g>
<!-- Node18 -->
<g id="node18" class="node"><title>Node18</title>
<polygon fill="none" stroke="#bfbfbf" points="1233,-1 1233,-31 1333,-31 1333,-1 1233,-1"/>
<text text-anchor="start" x="1241" y="-19" font-family="Helvetica,sans-Serif" font-size="10.00">boost/container/flat</text>
<text text-anchor="middle" x="1283" y="-8" font-family="Helvetica,sans-Serif" font-size="10.00">_map.hpp</text>
</g>
<!-- Node17&#45;&gt;Node18 -->
<g id="edge23" class="edge"><title>Node17&#45;&gt;Node18</title>
<path fill="none" stroke="midnightblue" d="M1283,-68.4035C1283,-61.3405 1283,-50.975 1283,-41.399"/>
<polygon fill="midnightblue" stroke="midnightblue" points="1286.5,-41.1408 1283,-31.1408 1279.5,-41.1408 1286.5,-41.1408"/>
</g>
<!-- Node19 -->
<g id="node19" class="node"><title>Node19</title>
<polygon fill="none" stroke="#bfbfbf" points="1351,-1 1351,-31 1467,-31 1467,-1 1351,-1"/>
<text text-anchor="start" x="1359" y="-19" font-family="Helvetica,sans-Serif" font-size="10.00">boost/container/pmr</text>
<text text-anchor="middle" x="1409" y="-8" font-family="Helvetica,sans-Serif" font-size="10.00">/memory_resource.hpp</text>
</g>
<!-- Node17&#45;&gt;Node19 -->
<g id="edge24" class="edge"><title>Node17&#45;&gt;Node19</title>
<path fill="none" stroke="midnightblue" d="M1301.05,-68.4035C1318.99,-59.8596 1347.09,-46.483 1370.11,-35.5171"/>
<polygon fill="midnightblue" stroke="midnightblue" points="1371.78,-38.6002 1379.3,-31.1408 1368.77,-32.2802 1371.78,-38.6002"/>
</g>
<!-- Node20 -->
<g id="node20" class="node"><title>Node20</title>
<polygon fill="none" stroke="#bfbfbf" points="1485,-1 1485,-31 1641,-31 1641,-1 1485,-1"/>
<text text-anchor="start" x="1493" y="-19" font-family="Helvetica,sans-Serif" font-size="10.00">boost/container/pmr</text>
<text text-anchor="middle" x="1563" y="-8" font-family="Helvetica,sans-Serif" font-size="10.00">/monotonic_buffer_resource.hpp</text>
</g>
<!-- Node17&#45;&gt;Node20 -->
<g id="edge25" class="edge"><title>Node17&#45;&gt;Node20</title>
<path fill="none" stroke="midnightblue" d="M1322.82,-68.4672C1365.51,-59.3184 1434.31,-44.5763 1487.35,-33.2097"/>
<polygon fill="midnightblue" stroke="midnightblue" points="1488.36,-36.5742 1497.4,-31.0565 1486.89,-29.7296 1488.36,-36.5742"/>
</g>
<!-- Node21 -->
<g id="node21" class="node"><title>Node21</title>
<polygon fill="none" stroke="#bfbfbf" points="1659.5,-1 1659.5,-31 1792.5,-31 1792.5,-1 1659.5,-1"/>
<text text-anchor="start" x="1667.5" y="-19" font-family="Helvetica,sans-Serif" font-size="10.00">boost/container/pmr</text>
<text text-anchor="middle" x="1726" y="-8" font-family="Helvetica,sans-Serif" font-size="10.00">/polymorphic_allocator.hpp</text>
</g>
<!-- Node17&#45;&gt;Node21 -->
<g id="edge26" class="edge"><title>Node17&#45;&gt;Node21</title>
<path fill="none" stroke="midnightblue" d="M1366.69,-68.4941C1438.91,-60.75 1546.21,-48.2798 1649.35,-32.03"/>
<polygon fill="midnightblue" stroke="midnightblue" points="1649.99,-35.4722 1659.32,-30.4457 1648.9,-28.559 1649.99,-35.4722"/>
</g>
<!-- Node22 -->
<g id="node22" class="node"><title>Node22</title>
<polygon fill="none" stroke="#bfbfbf" points="1811,-6.5 1811,-25.5 1873,-25.5 1873,-6.5 1811,-6.5"/>
<text text-anchor="middle" x="1842" y="-13.5" font-family="Helvetica,sans-Serif" font-size="10.00">type_traits</text>
</g>
<!-- Node17&#45;&gt;Node22 -->
<g id="edge29" class="edge"><title>Node17&#45;&gt;Node22</title>
<path fill="none" stroke="midnightblue" d="M1379.62,-76.1861C1484.54,-73.5528 1656.48,-64.118 1801,-32 1804.69,-31.1788 1808.51,-30.1073 1812.25,-28.9142"/>
<polygon fill="midnightblue" stroke="midnightblue" points="1813.59,-32.1559 1821.88,-25.561 1811.28,-25.5455 1813.59,-32.1559"/>
</g>
<!-- Node23 -->
<g id="node23" class="node"><title>Node23</title>
<polygon fill="none" stroke="#bfbfbf" points="1891,-6.5 1891,-25.5 1931,-25.5 1931,-6.5 1891,-6.5"/>
<text text-anchor="middle" x="1911" y="-13.5" font-family="Helvetica,sans-Serif" font-size="10.00">utility</text>
</g>
<!-- Node17&#45;&gt;Node23 -->
<g id="edge30" class="edge"><title>Node17&#45;&gt;Node23</title>
<path fill="none" stroke="midnightblue" d="M1379.63,-74.2642C1524.14,-69.4044 1789.36,-57.3007 1881,-32 1883.19,-31.3956 1885.41,-30.6272 1887.6,-29.7589"/>
<polygon fill="midnightblue" stroke="midnightblue" points="1889.19,-32.8769 1896.81,-25.5105 1886.26,-26.5204 1889.19,-32.8769"/>
</g>
<!-- Node17&#45;&gt;Node24 -->
<g id="edge31" class="edge"><title>Node17&#45;&gt;Node24</title>
<path fill="none" stroke="midnightblue" d="M1186.23,-72.9964C1054.64,-66.8474 826.445,-53.4838 746,-32 743.649,-31.3722 741.259,-30.579 738.898,-29.6866"/>
<polygon fill="midnightblue" stroke="midnightblue" points="740.098,-26.3925 729.531,-25.6302 737.316,-32.816 740.098,-26.3925"/>
</g>
<!-- Node25 -->
<g id="node25" class="node"><title>Node25</title>
<polygon fill="none" stroke="#bfbfbf" points="1949.5,-6.5 1949.5,-25.5 2032.5,-25.5 2032.5,-6.5 1949.5,-6.5"/>
<text text-anchor="middle" x="1991" y="-13.5" font-family="Helvetica,sans-Serif" font-size="10.00">unordered_map</text>
</g>
<!-- Node17&#45;&gt;Node25 -->
<g id="edge32" class="edge"><title>Node17&#45;&gt;Node25</title>
<path fill="none" stroke="midnightblue" d="M1379.55,-76.9292C1508.36,-75.3492 1743.06,-67.2721 1940,-32 1945.26,-31.0581 1950.75,-29.7751 1956.09,-28.3535"/>
<polygon fill="midnightblue" stroke="midnightblue" points="1957.44,-31.6091 1966.1,-25.5021 1955.52,-24.8771 1957.44,-31.6091"/>
</g>
<!-- Node26 -->
<g id="node26" class="node"><title>Node26</title>
<polygon fill="none" stroke="#bfbfbf" points="2050.5,-6.5 2050.5,-25.5 2147.5,-25.5 2147.5,-6.5 2050.5,-6.5"/>
<text text-anchor="middle" x="2099" y="-13.5" font-family="Helvetica,sans-Serif" font-size="10.00">FairMQMessage.h</text>
</g>
<!-- Node17&#45;&gt;Node26 -->
<g id="edge33" class="edge"><title>Node17&#45;&gt;Node26</title>
<path fill="none" stroke="midnightblue" d="M1379.67,-77.2311C1524.36,-76.2332 1805.46,-69.0907 2041,-32 2047.41,-30.9914 2054.13,-29.5844 2060.64,-28.0329"/>
<polygon fill="midnightblue" stroke="midnightblue" points="2061.78,-31.3557 2070.62,-25.5124 2060.06,-24.569 2061.78,-31.3557"/>
</g>
<!-- Node27 -->
<g id="node27" class="node"><title>Node27</title>
<polygon fill="none" stroke="#bfbfbf" points="754.5,-6.5 754.5,-25.5 885.5,-25.5 885.5,-6.5 754.5,-6.5"/>
<text text-anchor="middle" x="820" y="-13.5" font-family="Helvetica,sans-Serif" font-size="10.00">FairMQTransportFactory.h</text>
</g>
<!-- Node17&#45;&gt;Node27 -->
<g id="edge34" class="edge"><title>Node17&#45;&gt;Node27</title>
<path fill="none" stroke="midnightblue" d="M1190.99,-68.4725C1112.19,-60.6577 995.812,-47.8999 895,-32 886.704,-30.6915 877.929,-29.114 869.418,-27.4802"/>
<polygon fill="midnightblue" stroke="midnightblue" points="870.08,-24.0435 859.593,-25.5491 868.73,-30.9121 870.08,-24.0435"/>
</g>
<!-- Node28 -->
<g id="node28" class="node"><title>Node28</title>
<polygon fill="none" stroke="#bfbfbf" points="903.5,-6.5 903.5,-25.5 1040.5,-25.5 1040.5,-6.5 903.5,-6.5"/>
<text text-anchor="middle" x="972" y="-13.5" font-family="Helvetica,sans-Serif" font-size="10.00">fairmq/MemoryResources.h</text>
</g>
<!-- Node17&#45;&gt;Node28 -->
<g id="edge35" class="edge"><title>Node17&#45;&gt;Node28</title>
<path fill="none" stroke="midnightblue" d="M1238.77,-68.4672C1182.81,-57.671 1086.48,-39.0856 1026.17,-27.4501"/>
<polygon fill="midnightblue" stroke="midnightblue" points="1026.56,-23.9612 1016.08,-25.5034 1025.23,-30.8344 1026.56,-23.9612"/>
</g>
<!-- Node29 -->
<g id="node29" class="node"><title>Node29</title>
<polygon fill="none" stroke="#bfbfbf" points="1059,-6.5 1059,-25.5 1215,-25.5 1215,-6.5 1059,-6.5"/>
<text text-anchor="middle" x="1137" y="-13.5" font-family="Helvetica,sans-Serif" font-size="10.00">fairmq/MemoryResourceTools.h</text>
</g>
<!-- Node17&#45;&gt;Node29 -->
<g id="edge36" class="edge"><title>Node17&#45;&gt;Node29</title>
<path fill="none" stroke="midnightblue" d="M1262.08,-68.4035C1237.25,-58.2004 1195.66,-41.1055 1167.31,-29.4544"/>
<polygon fill="midnightblue" stroke="midnightblue" points="1168.46,-26.1445 1157.88,-25.5806 1165.8,-32.6191 1168.46,-26.1445"/>
</g>
</g>
</svg>
