<?xml version="1.0" encoding="UTF-8" standalone="no"?>
<!DOCTYPE svg PUBLIC "-//W3C//DTD SVG 1.1//EN"
 "http://www.w3.org/Graphics/SVG/1.1/DTD/svg11.dtd">
<!-- Generated by graphviz version 2.36.0 (20140111.2315)
 -->
<!-- Title: /home/travis/build/AliceO2Group/AliceO2/Detectors/TPC/base/src/ParameterGEM.cxx Pages: 1 -->
<svg width="283pt" height="174pt"
 viewBox="0.00 0.00 283.00 174.00" xmlns="http://www.w3.org/2000/svg" xmlns:xlink="http://www.w3.org/1999/xlink">
<g id="graph0" class="graph" transform="scale(1 1) rotate(0) translate(4 170)">
<title>/home/travis/build/AliceO2Group/AliceO2/Detectors/TPC/base/src/ParameterGEM.cxx</title>
<!-- Node1 -->
<g id="node1" class="node"><title>Node1</title>
<polygon fill="#bfbfbf" stroke="black" points="79,-113 79,-165 205,-165 205,-113 79,-113"/>
<text text-anchor="start" x="87" y="-153" font-family="Helvetica,sans-Serif" font-size="10.00">/home/travis/build</text>
<text text-anchor="start" x="87" y="-142" font-family="Helvetica,sans-Serif" font-size="10.00">/AliceO2Group/AliceO2</text>
<text text-anchor="start" x="87" y="-131" font-family="Helvetica,sans-Serif" font-size="10.00">/Detectors/TPC/base/src</text>
<text text-anchor="middle" x="142" y="-120" font-family="Helvetica,sans-Serif" font-size="10.00">/ParameterGEM.cxx</text>
</g>
<!-- Node2 -->
<g id="node2" class="node"><title>Node2</title>
<g id="a_node2"><a xlink:href="../../de/d2b/ParameterGEM_8h.html" target="_top" xlink:title="Definition of the parameter class for the GEM stack. ">
<polygon fill="none" stroke="black" points="0,-56.5 0,-75.5 138,-75.5 138,-56.5 0,-56.5"/>
<text text-anchor="middle" x="69" y="-63.5" font-family="Helvetica,sans-Serif" font-size="10.00">TPCBase/ParameterGEM.h</text>
</a>
</g>
</g>
<!-- Node1&#45;&gt;Node2 -->
<g id="edge1" class="edge"><title>Node1&#45;&gt;Node2</title>
<path fill="none" stroke="midnightblue" d="M116.057,-112.768C105.788,-102.78 94.2982,-91.6051 85.243,-82.798"/>
<polygon fill="midnightblue" stroke="midnightblue" points="87.6127,-80.2204 78.0038,-75.7572 82.7322,-85.2384 87.6127,-80.2204"/>
</g>
<!-- Node4 -->
<g id="node4" class="node"><title>Node4</title>
<g id="a_node4"><a xlink:href="../../d4/da2/ModelGEM_8h.html" target="_top" xlink:title="Definition for the model calculations + simulations of the GEM efficiencies. ">
<polygon fill="none" stroke="black" points="156.5,-56.5 156.5,-75.5 275.5,-75.5 275.5,-56.5 156.5,-56.5"/>
<text text-anchor="middle" x="216" y="-63.5" font-family="Helvetica,sans-Serif" font-size="10.00">TPCBase/ModelGEM.h</text>
</a>
</g>
</g>
<!-- Node1&#45;&gt;Node4 -->
<g id="edge3" class="edge"><title>Node1&#45;&gt;Node4</title>
<path fill="none" stroke="midnightblue" d="M168.298,-112.768C178.708,-102.78 190.355,-91.6051 199.535,-82.798"/>
<polygon fill="midnightblue" stroke="midnightblue" points="202.08,-85.206 206.873,-75.7572 197.234,-80.1549 202.08,-85.206"/>
</g>
<!-- Node3 -->
<g id="node3" class="node"><title>Node3</title>
<polygon fill="none" stroke="#bfbfbf" points="123,-0.5 123,-19.5 161,-19.5 161,-0.5 123,-0.5"/>
<text text-anchor="middle" x="142" y="-7.5" font-family="Helvetica,sans-Serif" font-size="10.00">array</text>
</g>
<!-- Node2&#45;&gt;Node3 -->
<g id="edge2" class="edge"><title>Node2&#45;&gt;Node3</title>
<path fill="none" stroke="midnightblue" d="M80.7287,-56.324C91.8374,-48.1066 108.742,-35.6017 121.983,-25.8069"/>
<polygon fill="midnightblue" stroke="midnightblue" points="124.1,-28.5948 130.058,-19.8339 119.937,-22.9671 124.1,-28.5948"/>
</g>
<!-- Node4&#45;&gt;Node3 -->
<g id="edge4" class="edge"><title>Node4&#45;&gt;Node3</title>
<path fill="none" stroke="midnightblue" d="M204.111,-56.324C192.85,-48.1066 175.713,-35.6017 162.291,-25.8069"/>
<polygon fill="midnightblue" stroke="midnightblue" points="164.247,-22.9014 154.106,-19.8339 160.12,-28.5559 164.247,-22.9014"/>
</g>
</g>
</svg>
