<?xml version="1.0" encoding="UTF-8" standalone="no"?>
<!DOCTYPE svg PUBLIC "-//W3C//DTD SVG 1.1//EN"
 "http://www.w3.org/Graphics/SVG/1.1/DTD/svg11.dtd">
<!-- Generated by graphviz version 2.36.0 (20140111.2315)
 -->
<!-- Title: /home/travis/build/AliceO2Group/AliceO2/Framework/Core/include/Framework/DataDescriptorMatcher.h Pages: 1 -->
<svg width="2095pt" height="254pt"
 viewBox="0.00 0.00 2095.00 254.00" xmlns="http://www.w3.org/2000/svg" xmlns:xlink="http://www.w3.org/1999/xlink">
<g id="graph0" class="graph" transform="scale(1 1) rotate(0) translate(4 250)">
<title>/home/travis/build/AliceO2Group/AliceO2/Framework/Core/include/Framework/DataDescriptorMatcher.h</title>
<!-- Node1 -->
<g id="node1" class="node"><title>Node1</title>
<polygon fill="#bfbfbf" stroke="black" points="516.5,-193 516.5,-245 697.5,-245 697.5,-193 516.5,-193"/>
<text text-anchor="start" x="524.5" y="-233" font-family="Helvetica,sans-Serif" font-size="10.00">/home/travis/build</text>
<text text-anchor="start" x="524.5" y="-222" font-family="Helvetica,sans-Serif" font-size="10.00">/AliceO2Group/AliceO2</text>
<text text-anchor="start" x="524.5" y="-211" font-family="Helvetica,sans-Serif" font-size="10.00">/Framework/Core/include</text>
<text text-anchor="middle" x="607" y="-200" font-family="Helvetica,sans-Serif" font-size="10.00">/Framework/DataDescriptorMatcher.h</text>
</g>
<!-- Node2 -->
<g id="node2" class="node"><title>Node2</title>
<g id="a_node2"><a xlink:href="../../d0/d1b/ConcreteDataMatcher_8h.html" target="_top" xlink:title="Framework/ConcreteDataMatcher.h">
<polygon fill="none" stroke="black" points="334.5,-130.5 334.5,-149.5 507.5,-149.5 507.5,-130.5 334.5,-130.5"/>
<text text-anchor="middle" x="421" y="-137.5" font-family="Helvetica,sans-Serif" font-size="10.00">Framework/ConcreteDataMatcher.h</text>
</a>
</g>
</g>
<!-- Node1&#45;&gt;Node2 -->
<g id="edge1" class="edge"><title>Node1&#45;&gt;Node2</title>
<path fill="none" stroke="midnightblue" d="M546.354,-192.894C514.534,-179.721 476.94,-164.158 451.279,-153.535"/>
<polygon fill="midnightblue" stroke="midnightblue" points="452.31,-150.174 441.732,-149.583 449.633,-156.642 452.31,-150.174"/>
</g>
<!-- Node3 -->
<g id="node3" class="node"><title>Node3</title>
<g id="a_node3"><a xlink:href="../../dc/dcd/DataHeader_8h.html" target="_top" xlink:title="Headers/DataHeader.h">
<polygon fill="none" stroke="black" points="247.5,-68.5 247.5,-87.5 364.5,-87.5 364.5,-68.5 247.5,-68.5"/>
<text text-anchor="middle" x="306" y="-75.5" font-family="Helvetica,sans-Serif" font-size="10.00">Headers/DataHeader.h</text>
</a>
</g>
</g>
<!-- Node1&#45;&gt;Node3 -->
<g id="edge17" class="edge"><title>Node1&#45;&gt;Node3</title>
<path fill="none" stroke="midnightblue" d="M516.199,-208.458C444.418,-199.074 351.966,-182.287 325,-156 309.471,-140.862 305.858,-115.206 305.377,-97.7029"/>
<polygon fill="midnightblue" stroke="midnightblue" points="308.878,-97.5857 305.419,-87.5712 301.878,-97.5565 308.878,-97.5857"/>
</g>
<!-- Node4 -->
<g id="node4" class="node"><title>Node4</title>
<polygon fill="none" stroke="#bfbfbf" points="0,-6.5 0,-25.5 46,-25.5 46,-6.5 0,-6.5"/>
<text text-anchor="middle" x="23" y="-13.5" font-family="Helvetica,sans-Serif" font-size="10.00">cstdint</text>
</g>
<!-- Node1&#45;&gt;Node4 -->
<g id="edge36" class="edge"><title>Node1&#45;&gt;Node4</title>
<path fill="none" stroke="midnightblue" d="M516.461,-215.867C390.261,-211.397 169.366,-197.69 102,-156 57.6451,-128.55 35.8396,-66.4992 27.3788,-35.438"/>
<polygon fill="midnightblue" stroke="midnightblue" points="30.7115,-34.3426 24.8484,-25.5179 23.9287,-36.0728 30.7115,-34.3426"/>
</g>
<!-- Node10 -->
<g id="node10" class="node"><title>Node10</title>
<polygon fill="none" stroke="#bfbfbf" points="508.5,-6.5 508.5,-25.5 549.5,-25.5 549.5,-6.5 508.5,-6.5"/>
<text text-anchor="middle" x="529" y="-13.5" font-family="Helvetica,sans-Serif" font-size="10.00">string</text>
</g>
<!-- Node1&#45;&gt;Node10 -->
<g id="edge38" class="edge"><title>Node1&#45;&gt;Node10</title>
<path fill="none" stroke="midnightblue" d="M619.076,-192.999C626.695,-173.669 633.614,-146.501 625,-124 609.887,-84.5257 572.754,-50.4499 549.35,-31.9067"/>
<polygon fill="midnightblue" stroke="midnightblue" points="551.188,-28.9046 541.128,-25.5815 546.92,-34.4529 551.188,-28.9046"/>
</g>
<!-- Node12 -->
<g id="node12" class="node"><title>Node12</title>
<g id="a_node12"><a xlink:href="../../d6/dc9/DataProcessingHeader_8h.html" target="_top" xlink:title="Framework/DataProcessing\lHeader.h">
<polygon fill="none" stroke="black" points="111,-125 111,-155 249,-155 249,-125 111,-125"/>
<text text-anchor="start" x="119" y="-143" font-family="Helvetica,sans-Serif" font-size="10.00">Framework/DataProcessing</text>
<text text-anchor="middle" x="180" y="-132" font-family="Helvetica,sans-Serif" font-size="10.00">Header.h</text>
</a>
</g>
</g>
<!-- Node1&#45;&gt;Node12 -->
<g id="edge11" class="edge"><title>Node1&#45;&gt;Node12</title>
<path fill="none" stroke="midnightblue" d="M516.444,-201.67C440.105,-187.904 331.954,-168.401 259.058,-155.256"/>
<polygon fill="midnightblue" stroke="midnightblue" points="259.475,-151.775 249.013,-153.445 258.233,-158.664 259.475,-151.775"/>
</g>
<!-- Node14 -->
<g id="node14" class="node"><title>Node14</title>
<g id="a_node14"><a xlink:href="../../d4/d00/Headers_2include_2Headers_2Stack_8h.html" target="_top" xlink:title="Headers/Stack.h">
<polygon fill="none" stroke="black" points="526,-130.5 526,-149.5 616,-149.5 616,-130.5 526,-130.5"/>
<text text-anchor="middle" x="571" y="-137.5" font-family="Helvetica,sans-Serif" font-size="10.00">Headers/Stack.h</text>
</a>
</g>
</g>
<!-- Node1&#45;&gt;Node14 -->
<g id="edge18" class="edge"><title>Node1&#45;&gt;Node14</title>
<path fill="none" stroke="midnightblue" d="M595.212,-192.787C590.038,-181.719 584.082,-168.982 579.373,-158.909"/>
<polygon fill="midnightblue" stroke="midnightblue" points="582.407,-157.134 575.001,-149.558 576.066,-160.099 582.407,-157.134"/>
</g>
<!-- Node22 -->
<g id="node22" class="node"><title>Node22</title>
<polygon fill="none" stroke="#bfbfbf" points="2043,-6.5 2043,-25.5 2087,-25.5 2087,-6.5 2043,-6.5"/>
<text text-anchor="middle" x="2065" y="-13.5" font-family="Helvetica,sans-Serif" font-size="10.00">vector</text>
</g>
<!-- Node1&#45;&gt;Node22 -->
<g id="edge40" class="edge"><title>Node1&#45;&gt;Node22</title>
<path fill="none" stroke="midnightblue" d="M673.698,-192.928C734.988,-170.997 828.818,-140.19 913,-124 1403.47,-29.674 1550.35,-160.471 2033,-32 2035.35,-31.3741 2037.74,-30.5822 2040.1,-29.6907"/>
<polygon fill="midnightblue" stroke="midnightblue" points="2041.68,-32.8205 2049.47,-25.6358 2038.9,-26.3965 2041.68,-32.8205"/>
</g>
<!-- Node28 -->
<g id="node28" class="node"><title>Node28</title>
<polygon fill="none" stroke="#bfbfbf" points="922,-130.5 922,-149.5 960,-149.5 960,-130.5 922,-130.5"/>
<text text-anchor="middle" x="941" y="-137.5" font-family="Helvetica,sans-Serif" font-size="10.00">array</text>
</g>
<!-- Node1&#45;&gt;Node28 -->
<g id="edge35" class="edge"><title>Node1&#45;&gt;Node28</title>
<path fill="none" stroke="midnightblue" d="M697.597,-204.772C758.072,-194.625 838.879,-178.514 908,-156 910.272,-155.26 912.596,-154.409 914.906,-153.498"/>
<polygon fill="midnightblue" stroke="midnightblue" points="916.35,-156.687 924.161,-149.529 913.591,-150.253 916.35,-156.687"/>
</g>
<!-- Node29 -->
<g id="node29" class="node"><title>Node29</title>
<polygon fill="none" stroke="#bfbfbf" points="978.5,-130.5 978.5,-149.5 1023.5,-149.5 1023.5,-130.5 978.5,-130.5"/>
<text text-anchor="middle" x="1001" y="-137.5" font-family="Helvetica,sans-Serif" font-size="10.00">iosfwd</text>
</g>
<!-- Node1&#45;&gt;Node29 -->
<g id="edge37" class="edge"><title>Node1&#45;&gt;Node29</title>
<path fill="none" stroke="midnightblue" d="M697.847,-209.288C772.037,-200.555 878.958,-184.246 969,-156 971.272,-155.287 973.591,-154.446 975.89,-153.531"/>
<polygon fill="midnightblue" stroke="midnightblue" points="977.313,-156.729 985.059,-149.5 974.496,-150.321 977.313,-156.729"/>
</g>
<!-- Node30 -->
<g id="node30" class="node"><title>Node30</title>
<polygon fill="none" stroke="#bfbfbf" points="1042,-130.5 1042,-149.5 1088,-149.5 1088,-130.5 1042,-130.5"/>
<text text-anchor="middle" x="1065" y="-137.5" font-family="Helvetica,sans-Serif" font-size="10.00">variant</text>
</g>
<!-- Node1&#45;&gt;Node30 -->
<g id="edge39" class="edge"><title>Node1&#45;&gt;Node30</title>
<path fill="none" stroke="midnightblue" d="M697.709,-212.195C784.85,-204.891 919.5,-189.051 1032,-156 1034.34,-155.312 1036.73,-154.487 1039.11,-153.584"/>
<polygon fill="midnightblue" stroke="midnightblue" points="1040.72,-156.699 1048.56,-149.571 1037.99,-150.255 1040.72,-156.699"/>
</g>
<!-- Node2&#45;&gt;Node3 -->
<g id="edge2" class="edge"><title>Node2&#45;&gt;Node3</title>
<path fill="none" stroke="midnightblue" d="M404.523,-130.403C385.395,-120.423 353.627,-103.849 331.348,-92.2253"/>
<polygon fill="midnightblue" stroke="midnightblue" points="332.931,-89.1033 322.446,-87.5806 329.693,-95.3094 332.931,-89.1033"/>
</g>
<!-- Node3&#45;&gt;Node4 -->
<g id="edge3" class="edge"><title>Node3&#45;&gt;Node4</title>
<path fill="none" stroke="midnightblue" d="M247.388,-70.8817C195.843,-64.4718 119.234,-52.4249 55,-32 52.8621,-31.3202 50.6822,-30.5286 48.5158,-29.671"/>
<polygon fill="midnightblue" stroke="midnightblue" points="49.8422,-26.4311 39.2776,-25.631 47.0374,-32.8446 49.8422,-26.4311"/>
</g>
<!-- Node5 -->
<g id="node5" class="node"><title>Node5</title>
<polygon fill="none" stroke="#bfbfbf" points="64,-6.5 64,-25.5 116,-25.5 116,-6.5 64,-6.5"/>
<text text-anchor="middle" x="90" y="-13.5" font-family="Helvetica,sans-Serif" font-size="10.00">memory</text>
</g>
<!-- Node3&#45;&gt;Node5 -->
<g id="edge4" class="edge"><title>Node3&#45;&gt;Node5</title>
<path fill="none" stroke="midnightblue" d="M263.387,-68.4403C226.353,-60.5211 171.499,-47.6308 125,-32 122.587,-31.189 120.109,-30.2827 117.639,-29.3281"/>
<polygon fill="midnightblue" stroke="midnightblue" points="118.892,-26.0591 108.312,-25.5063 116.238,-32.5365 118.892,-26.0591"/>
</g>
<!-- Node6 -->
<g id="node6" class="node"><title>Node6</title>
<polygon fill="none" stroke="#bfbfbf" points="134.5,-6.5 134.5,-25.5 183.5,-25.5 183.5,-6.5 134.5,-6.5"/>
<text text-anchor="middle" x="159" y="-13.5" font-family="Helvetica,sans-Serif" font-size="10.00">cassert</text>
</g>
<!-- Node3&#45;&gt;Node6 -->
<g id="edge5" class="edge"><title>Node3&#45;&gt;Node6</title>
<path fill="none" stroke="midnightblue" d="M283.817,-68.4422C260.962,-59.5602 224.35,-45.1526 193,-32 191.171,-31.2325 189.29,-30.4329 187.397,-29.6201"/>
<polygon fill="midnightblue" stroke="midnightblue" points="188.574,-26.3153 178.008,-25.5323 185.78,-32.7334 188.574,-26.3153"/>
</g>
<!-- Node7 -->
<g id="node7" class="node"><title>Node7</title>
<polygon fill="none" stroke="#bfbfbf" points="568,-6.5 568,-25.5 614,-25.5 614,-6.5 568,-6.5"/>
<text text-anchor="middle" x="591" y="-13.5" font-family="Helvetica,sans-Serif" font-size="10.00">cstring</text>
</g>
<!-- Node3&#45;&gt;Node7 -->
<g id="edge6" class="edge"><title>Node3&#45;&gt;Node7</title>
<path fill="none" stroke="midnightblue" d="M364.533,-70.7554C416.248,-64.2511 493.286,-52.1366 558,-32 560.282,-31.2901 562.612,-30.4607 564.927,-29.5631"/>
<polygon fill="midnightblue" stroke="midnightblue" points="566.361,-32.7569 574.19,-25.619 563.618,-26.3165 566.361,-32.7569"/>
</g>
<!-- Node8 -->
<g id="node8" class="node"><title>Node8</title>
<polygon fill="none" stroke="#bfbfbf" points="202,-6.5 202,-25.5 258,-25.5 258,-6.5 202,-6.5"/>
<text text-anchor="middle" x="230" y="-13.5" font-family="Helvetica,sans-Serif" font-size="10.00">algorithm</text>
</g>
<!-- Node3&#45;&gt;Node8 -->
<g id="edge7" class="edge"><title>Node3&#45;&gt;Node8</title>
<path fill="none" stroke="midnightblue" d="M295.111,-68.4035C283.034,-58.8688 263.333,-43.3154 248.76,-31.8106"/>
<polygon fill="midnightblue" stroke="midnightblue" points="250.886,-29.03 240.869,-25.5806 246.549,-34.5242 250.886,-29.03"/>
</g>
<!-- Node9 -->
<g id="node9" class="node"><title>Node9</title>
<polygon fill="none" stroke="#bfbfbf" points="276.5,-6.5 276.5,-25.5 335.5,-25.5 335.5,-6.5 276.5,-6.5"/>
<text text-anchor="middle" x="306" y="-13.5" font-family="Helvetica,sans-Serif" font-size="10.00">stdexcept</text>
</g>
<!-- Node3&#45;&gt;Node9 -->
<g id="edge8" class="edge"><title>Node3&#45;&gt;Node9</title>
<path fill="none" stroke="midnightblue" d="M306,-68.4035C306,-59.9381 306,-46.7283 306,-35.8199"/>
<polygon fill="midnightblue" stroke="midnightblue" points="309.5,-35.5806 306,-25.5806 302.5,-35.5806 309.5,-35.5806"/>
</g>
<!-- Node3&#45;&gt;Node10 -->
<g id="edge9" class="edge"><title>Node3&#45;&gt;Node10</title>
<path fill="none" stroke="midnightblue" d="M357.331,-68.4315C396.773,-61.0391 452.236,-48.8774 499,-32 500.657,-31.402 502.341,-30.7359 504.023,-30.0261"/>
<polygon fill="midnightblue" stroke="midnightblue" points="505.834,-33.0442 513.425,-25.6537 502.882,-26.697 505.834,-33.0442"/>
</g>
<!-- Node11 -->
<g id="node11" class="node"><title>Node11</title>
<g id="a_node11"><a xlink:href="../../d7/df8/Types_8h.html" target="_top" xlink:title="MemoryResources/Types.h">
<polygon fill="none" stroke="black" points="353.5,-6.5 353.5,-25.5 490.5,-25.5 490.5,-6.5 353.5,-6.5"/>
<text text-anchor="middle" x="422" y="-13.5" font-family="Helvetica,sans-Serif" font-size="10.00">MemoryResources/Types.h</text>
</a>
</g>
</g>
<!-- Node3&#45;&gt;Node11 -->
<g id="edge10" class="edge"><title>Node3&#45;&gt;Node11</title>
<path fill="none" stroke="midnightblue" d="M322.62,-68.4035C341.915,-58.4232 373.959,-41.8487 396.431,-30.2253"/>
<polygon fill="midnightblue" stroke="midnightblue" points="398.137,-33.2836 405.411,-25.5806 394.921,-27.0661 398.137,-33.2836"/>
</g>
<!-- Node12&#45;&gt;Node3 -->
<g id="edge12" class="edge"><title>Node12&#45;&gt;Node3</title>
<path fill="none" stroke="midnightblue" d="M209.541,-124.933C230.514,-114.946 258.457,-101.64 278.867,-91.9205"/>
<polygon fill="midnightblue" stroke="midnightblue" points="280.416,-95.0594 287.94,-87.6 277.407,-88.7394 280.416,-95.0594"/>
</g>
<!-- Node12&#45;&gt;Node4 -->
<g id="edge13" class="edge"><title>Node12&#45;&gt;Node4</title>
<path fill="none" stroke="midnightblue" d="M143.564,-124.891C123.57,-116.094 99.0477,-103.497 80,-88 61.1133,-72.6338 44.3189,-50.0551 33.9364,-34.5061"/>
<polygon fill="midnightblue" stroke="midnightblue" points="36.7118,-32.3527 28.3391,-25.8604 30.8357,-36.1569 36.7118,-32.3527"/>
</g>
<!-- Node12&#45;&gt;Node5 -->
<g id="edge15" class="edge"><title>Node12&#45;&gt;Node5</title>
<path fill="none" stroke="midnightblue" d="M173.747,-124.956C166.809,-110.105 154.761,-86.3341 141,-68 131.273,-55.0403 118.348,-42.151 107.944,-32.5724"/>
<polygon fill="midnightblue" stroke="midnightblue" points="110.028,-29.74 100.25,-25.6623 105.351,-34.9481 110.028,-29.74"/>
</g>
<!-- Node12&#45;&gt;Node6 -->
<g id="edge16" class="edge"><title>Node12&#45;&gt;Node6</title>
<path fill="none" stroke="midnightblue" d="M179.975,-125C179.725,-110.59 178.702,-87.5472 175,-68 172.892,-56.8708 169.157,-44.76 165.826,-35.1338"/>
<polygon fill="midnightblue" stroke="midnightblue" points="169.036,-33.7197 162.344,-25.506 162.453,-36.1003 169.036,-33.7197"/>
</g>
<!-- Node13 -->
<g id="node13" class="node"><title>Node13</title>
<polygon fill="none" stroke="#bfbfbf" points="89.5,-68.5 89.5,-87.5 132.5,-87.5 132.5,-68.5 89.5,-68.5"/>
<text text-anchor="middle" x="111" y="-75.5" font-family="Helvetica,sans-Serif" font-size="10.00">cstdio</text>
</g>
<!-- Node12&#45;&gt;Node13 -->
<g id="edge14" class="edge"><title>Node12&#45;&gt;Node13</title>
<path fill="none" stroke="midnightblue" d="M163.648,-124.781C153.105,-115.613 139.4,-103.696 128.616,-94.3186"/>
<polygon fill="midnightblue" stroke="midnightblue" points="130.883,-91.6512 121.04,-87.7305 126.29,-96.9335 130.883,-91.6512"/>
</g>
<!-- Node14&#45;&gt;Node3 -->
<g id="edge34" class="edge"><title>Node14&#45;&gt;Node3</title>
<path fill="none" stroke="midnightblue" d="M540.819,-130.447C532.777,-128.256 524.078,-125.965 516,-124 462.839,-111.065 401.626,-98.1741 359.057,-89.5262"/>
<polygon fill="midnightblue" stroke="midnightblue" points="359.688,-86.083 349.193,-87.5303 358.3,-92.944 359.688,-86.083"/>
</g>
<!-- Node15 -->
<g id="node15" class="node"><title>Node15</title>
<g id="a_node15"><a xlink:href="../../dc/d03/MemoryResources_8h.html" target="_top" xlink:title="MemoryResources/MemoryResources.h">
<polygon fill="none" stroke="black" points="962.5,-68.5 962.5,-87.5 1155.5,-87.5 1155.5,-68.5 962.5,-68.5"/>
<text text-anchor="middle" x="1059" y="-75.5" font-family="Helvetica,sans-Serif" font-size="10.00">MemoryResources/MemoryResources.h</text>
</a>
</g>
</g>
<!-- Node14&#45;&gt;Node15 -->
<g id="edge19" class="edge"><title>Node14&#45;&gt;Node15</title>
<path fill="none" stroke="midnightblue" d="M616.035,-133.463C698.812,-123.285 876.119,-101.485 979.551,-88.7683"/>
<polygon fill="midnightblue" stroke="midnightblue" points="980.134,-92.2231 989.632,-87.5288 979.28,-85.2754 980.134,-92.2231"/>
</g>
<!-- Node15&#45;&gt;Node7 -->
<g id="edge24" class="edge"><title>Node15&#45;&gt;Node7</title>
<path fill="none" stroke="midnightblue" d="M962.46,-76.2499C872.956,-73.406 736.841,-63.579 623,-32 620.655,-31.3496 618.269,-30.5408 615.911,-29.6382"/>
<polygon fill="midnightblue" stroke="midnightblue" points="617.115,-26.3451 606.548,-25.5659 614.322,-32.7642 617.115,-26.3451"/>
</g>
<!-- Node15&#45;&gt;Node10 -->
<g id="edge25" class="edge"><title>Node15&#45;&gt;Node10</title>
<path fill="none" stroke="midnightblue" d="M962.275,-72.5791C838.779,-66.1932 632.309,-52.8187 559,-32 557.025,-31.4392 555.026,-30.7485 553.046,-29.9742"/>
<polygon fill="midnightblue" stroke="midnightblue" points="554.061,-26.5903 543.51,-25.6216 551.154,-32.9582 554.061,-26.5903"/>
</g>
<!-- Node16 -->
<g id="node16" class="node"><title>Node16</title>
<polygon fill="none" stroke="#bfbfbf" points="806,-1 806,-31 906,-31 906,-1 806,-1"/>
<text text-anchor="start" x="814" y="-19" font-family="Helvetica,sans-Serif" font-size="10.00">boost/container/flat</text>
<text text-anchor="middle" x="856" y="-8" font-family="Helvetica,sans-Serif" font-size="10.00">_map.hpp</text>
</g>
<!-- Node15&#45;&gt;Node16 -->
<g id="edge20" class="edge"><title>Node15&#45;&gt;Node16</title>
<path fill="none" stroke="midnightblue" d="M1029.92,-68.4035C999.623,-59.4501 951.375,-45.1897 913.374,-33.9579"/>
<polygon fill="midnightblue" stroke="midnightblue" points="914.034,-30.5034 903.452,-31.0253 912.05,-37.2163 914.034,-30.5034"/>
</g>
<!-- Node17 -->
<g id="node17" class="node"><title>Node17</title>
<polygon fill="none" stroke="#bfbfbf" points="924,-1 924,-31 1040,-31 1040,-1 924,-1"/>
<text text-anchor="start" x="932" y="-19" font-family="Helvetica,sans-Serif" font-size="10.00">boost/container/pmr</text>
<text text-anchor="middle" x="982" y="-8" font-family="Helvetica,sans-Serif" font-size="10.00">/memory_resource.hpp</text>
</g>
<!-- Node15&#45;&gt;Node17 -->
<g id="edge21" class="edge"><title>Node15&#45;&gt;Node17</title>
<path fill="none" stroke="midnightblue" d="M1047.97,-68.4035C1037.64,-60.3532 1021.8,-48.0126 1008.23,-37.4406"/>
<polygon fill="midnightblue" stroke="midnightblue" points="1010.19,-34.5265 1000.15,-31.1408 1005.88,-40.0482 1010.19,-34.5265"/>
</g>
<!-- Node18 -->
<g id="node18" class="node"><title>Node18</title>
<polygon fill="none" stroke="#bfbfbf" points="1058,-1 1058,-31 1214,-31 1214,-1 1058,-1"/>
<text text-anchor="start" x="1066" y="-19" font-family="Helvetica,sans-Serif" font-size="10.00">boost/container/pmr</text>
<text text-anchor="middle" x="1136" y="-8" font-family="Helvetica,sans-Serif" font-size="10.00">/monotonic_buffer_resource.hpp</text>
</g>
<!-- Node15&#45;&gt;Node18 -->
<g id="edge22" class="edge"><title>Node15&#45;&gt;Node18</title>
<path fill="none" stroke="midnightblue" d="M1070.03,-68.4035C1080.36,-60.3532 1096.2,-48.0126 1109.77,-37.4406"/>
<polygon fill="midnightblue" stroke="midnightblue" points="1112.12,-40.0482 1117.85,-31.1408 1107.81,-34.5265 1112.12,-40.0482"/>
</g>
<!-- Node19 -->
<g id="node19" class="node"><title>Node19</title>
<polygon fill="none" stroke="#bfbfbf" points="1232.5,-1 1232.5,-31 1365.5,-31 1365.5,-1 1232.5,-1"/>
<text text-anchor="start" x="1240.5" y="-19" font-family="Helvetica,sans-Serif" font-size="10.00">boost/container/pmr</text>
<text text-anchor="middle" x="1299" y="-8" font-family="Helvetica,sans-Serif" font-size="10.00">/polymorphic_allocator.hpp</text>
</g>
<!-- Node15&#45;&gt;Node19 -->
<g id="edge23" class="edge"><title>Node15&#45;&gt;Node19</title>
<path fill="none" stroke="midnightblue" d="M1093.13,-68.4672C1129.42,-59.3945 1187.72,-44.8211 1233.02,-33.494"/>
<polygon fill="midnightblue" stroke="midnightblue" points="1233.92,-36.8775 1242.77,-31.0565 1232.22,-30.0865 1233.92,-36.8775"/>
</g>
<!-- Node20 -->
<g id="node20" class="node"><title>Node20</title>
<polygon fill="none" stroke="#bfbfbf" points="1384,-6.5 1384,-25.5 1446,-25.5 1446,-6.5 1384,-6.5"/>
<text text-anchor="middle" x="1415" y="-13.5" font-family="Helvetica,sans-Serif" font-size="10.00">type_traits</text>
</g>
<!-- Node15&#45;&gt;Node20 -->
<g id="edge26" class="edge"><title>Node15&#45;&gt;Node20</title>
<path fill="none" stroke="midnightblue" d="M1155.47,-68.4932C1218.34,-61.6612 1301.81,-50.1506 1374,-32 1377.41,-31.1424 1380.93,-30.1028 1384.41,-28.9753"/>
<polygon fill="midnightblue" stroke="midnightblue" points="1385.69,-32.2366 1393.98,-25.6436 1383.39,-25.6257 1385.69,-32.2366"/>
</g>
<!-- Node21 -->
<g id="node21" class="node"><title>Node21</title>
<polygon fill="none" stroke="#bfbfbf" points="1464,-6.5 1464,-25.5 1504,-25.5 1504,-6.5 1464,-6.5"/>
<text text-anchor="middle" x="1484" y="-13.5" font-family="Helvetica,sans-Serif" font-size="10.00">utility</text>
</g>
<!-- Node15&#45;&gt;Node21 -->
<g id="edge27" class="edge"><title>Node15&#45;&gt;Node21</title>
<path fill="none" stroke="midnightblue" d="M1148.55,-68.4639C1256.04,-57.9572 1425.47,-40.4697 1454,-32 1455.97,-31.4159 1457.96,-30.7083 1459.94,-29.9222"/>
<polygon fill="midnightblue" stroke="midnightblue" points="1461.84,-32.9005 1469.47,-25.5468 1458.92,-26.5391 1461.84,-32.9005"/>
</g>
<!-- Node15&#45;&gt;Node22 -->
<g id="edge28" class="edge"><title>Node15&#45;&gt;Node22</title>
<path fill="none" stroke="midnightblue" d="M1155.55,-68.9434C1160.43,-68.6072 1165.27,-68.2902 1170,-68 1361.58,-56.2417 1846.56,-77.6283 2033,-32 2035.5,-31.3874 2038.05,-30.5721 2040.55,-29.637"/>
<polygon fill="midnightblue" stroke="midnightblue" points="2042.05,-32.8022 2049.83,-25.6131 2039.26,-26.3799 2042.05,-32.8022"/>
</g>
<!-- Node23 -->
<g id="node23" class="node"><title>Node23</title>
<polygon fill="none" stroke="#bfbfbf" points="1522.5,-6.5 1522.5,-25.5 1605.5,-25.5 1605.5,-6.5 1522.5,-6.5"/>
<text text-anchor="middle" x="1564" y="-13.5" font-family="Helvetica,sans-Serif" font-size="10.00">unordered_map</text>
</g>
<!-- Node15&#45;&gt;Node23 -->
<g id="edge29" class="edge"><title>Node15&#45;&gt;Node23</title>
<path fill="none" stroke="midnightblue" d="M1154.54,-68.4919C1277.32,-57.4083 1478.82,-38.66 1513,-32 1518.13,-30.9998 1523.49,-29.7073 1528.73,-28.3009"/>
<polygon fill="midnightblue" stroke="midnightblue" points="1529.89,-31.6094 1538.55,-25.5031 1527.97,-24.8774 1529.89,-31.6094"/>
</g>
<!-- Node24 -->
<g id="node24" class="node"><title>Node24</title>
<polygon fill="none" stroke="#bfbfbf" points="1623.5,-6.5 1623.5,-25.5 1720.5,-25.5 1720.5,-6.5 1623.5,-6.5"/>
<text text-anchor="middle" x="1672" y="-13.5" font-family="Helvetica,sans-Serif" font-size="10.00">FairMQMessage.h</text>
</g>
<!-- Node15&#45;&gt;Node24 -->
<g id="edge30" class="edge"><title>Node15&#45;&gt;Node24</title>
<path fill="none" stroke="midnightblue" d="M1155.67,-69.1616C1314.68,-56.2688 1614,-32 1614,-32 1620.26,-30.9449 1626.83,-29.5404 1633.21,-28.0129"/>
<polygon fill="midnightblue" stroke="midnightblue" points="1634.16,-31.3825 1643,-25.5441 1632.45,-24.5949 1634.16,-31.3825"/>
</g>
<!-- Node25 -->
<g id="node25" class="node"><title>Node25</title>
<polygon fill="none" stroke="#bfbfbf" points="1738.5,-6.5 1738.5,-25.5 1869.5,-25.5 1869.5,-6.5 1738.5,-6.5"/>
<text text-anchor="middle" x="1804" y="-13.5" font-family="Helvetica,sans-Serif" font-size="10.00">FairMQTransportFactory.h</text>
</g>
<!-- Node15&#45;&gt;Node25 -->
<g id="edge31" class="edge"><title>Node15&#45;&gt;Node25</title>
<path fill="none" stroke="midnightblue" d="M1155.55,-69.0745C1160.44,-68.7039 1165.28,-68.3436 1170,-68 1418.3,-49.9395 1482.17,-64.4843 1729,-32 1737.9,-30.8293 1747.32,-29.2315 1756.38,-27.5138"/>
<polygon fill="midnightblue" stroke="midnightblue" points="1757.26,-30.9071 1766.39,-25.5398 1755.91,-24.0392 1757.26,-30.9071"/>
</g>
<!-- Node26 -->
<g id="node26" class="node"><title>Node26</title>
<polygon fill="none" stroke="#bfbfbf" points="1887.5,-6.5 1887.5,-25.5 2024.5,-25.5 2024.5,-6.5 1887.5,-6.5"/>
<text text-anchor="middle" x="1956" y="-13.5" font-family="Helvetica,sans-Serif" font-size="10.00">fairmq/MemoryResources.h</text>
</g>
<!-- Node15&#45;&gt;Node26 -->
<g id="edge32" class="edge"><title>Node15&#45;&gt;Node26</title>
<path fill="none" stroke="midnightblue" d="M1155.55,-68.9962C1160.43,-68.6462 1165.27,-68.3117 1170,-68 1484.39,-47.2662 1565.21,-69.842 1878,-32 1887.55,-30.8445 1897.69,-29.2048 1907.39,-27.4306"/>
<polygon fill="midnightblue" stroke="midnightblue" points="1908.12,-30.8544 1917.29,-25.5477 1906.81,-23.9776 1908.12,-30.8544"/>
</g>
<!-- Node27 -->
<g id="node27" class="node"><title>Node27</title>
<polygon fill="none" stroke="#bfbfbf" points="632,-6.5 632,-25.5 788,-25.5 788,-6.5 632,-6.5"/>
<text text-anchor="middle" x="710" y="-13.5" font-family="Helvetica,sans-Serif" font-size="10.00">fairmq/MemoryResourceTools.h</text>
</g>
<!-- Node15&#45;&gt;Node27 -->
<g id="edge33" class="edge"><title>Node15&#45;&gt;Node27</title>
<path fill="none" stroke="midnightblue" d="M1009.26,-68.4664C956.557,-59.4225 870.911,-44.7189 797,-32 788.126,-30.4729 778.743,-28.8567 769.552,-27.2727"/>
<polygon fill="midnightblue" stroke="midnightblue" points="770.136,-23.822 759.687,-25.5724 768.947,-30.7202 770.136,-23.822"/>
</g>
</g>
</svg>
