<?xml version="1.0" encoding="UTF-8" standalone="no"?>
<!DOCTYPE svg PUBLIC "-//W3C//DTD SVG 1.1//EN"
 "http://www.w3.org/Graphics/SVG/1.1/DTD/svg11.dtd">
<!-- Generated by graphviz version 2.36.0 (20140111.2315)
 -->
<!-- Title: pcg_extras::uint_x4&lt; UInt, UIntX2 &gt; Pages: 1 -->
<svg width="224pt" height="450pt"
 viewBox="0.00 0.00 224.00 450.00" xmlns="http://www.w3.org/2000/svg" xmlns:xlink="http://www.w3.org/1999/xlink">
<g id="graph0" class="graph" transform="scale(1 1) rotate(0) translate(4 446)">
<title>pcg_extras::uint_x4&lt; UInt, UIntX2 &gt;</title>
<!-- Node1 -->
<g id="node1" class="node"><title>Node1</title>
<polygon fill="#bfbfbf" stroke="black" points="60.5,-1 60.5,-289 193.5,-289 193.5,-1 60.5,-1"/>
<text text-anchor="start" x="68.5" y="-277" font-family="Helvetica,sans-Serif" font-size="10.00">pcg_extras::uint_x4</text>
<text text-anchor="middle" x="127" y="-266" font-family="Helvetica,sans-Serif" font-size="10.00">&lt; UInt, UIntX2 &gt;</text>
<polyline fill="none" stroke="black" points="60.5,-259 193.5,-259 "/>
<text text-anchor="middle" x="127" y="-247" font-family="Helvetica,sans-Serif" font-size="10.00"> </text>
<polyline fill="none" stroke="black" points="60.5,-240 193.5,-240 "/>
<text text-anchor="start" x="68.5" y="-228" font-family="Helvetica,sans-Serif" font-size="10.00">+ uint_x4()</text>
<text text-anchor="start" x="68.5" y="-217" font-family="Helvetica,sans-Serif" font-size="10.00">+ uint_x4()</text>
<text text-anchor="start" x="68.5" y="-206" font-family="Helvetica,sans-Serif" font-size="10.00">+ uint_x4()</text>
<text text-anchor="start" x="68.5" y="-195" font-family="Helvetica,sans-Serif" font-size="10.00">+ uint_x4()</text>
<text text-anchor="start" x="68.5" y="-184" font-family="Helvetica,sans-Serif" font-size="10.00">+ operator uint64_t()</text>
<text text-anchor="start" x="68.5" y="-173" font-family="Helvetica,sans-Serif" font-size="10.00">+ operator uint32_t()</text>
<text text-anchor="start" x="68.5" y="-162" font-family="Helvetica,sans-Serif" font-size="10.00">+ operator int()</text>
<text text-anchor="start" x="68.5" y="-151" font-family="Helvetica,sans-Serif" font-size="10.00">+ operator uint16_t()</text>
<text text-anchor="start" x="68.5" y="-140" font-family="Helvetica,sans-Serif" font-size="10.00">+ operator uint8_t()</text>
<text text-anchor="start" x="68.5" y="-129" font-family="Helvetica,sans-Serif" font-size="10.00">+ operator uint_missing_t()</text>
<text text-anchor="start" x="68.5" y="-118" font-family="Helvetica,sans-Serif" font-size="10.00">+ operator bool()</text>
<text text-anchor="start" x="68.5" y="-107" font-family="Helvetica,sans-Serif" font-size="10.00">+ operator*=()</text>
<text text-anchor="start" x="68.5" y="-96" font-family="Helvetica,sans-Serif" font-size="10.00">+ operator/=()</text>
<text text-anchor="start" x="68.5" y="-85" font-family="Helvetica,sans-Serif" font-size="10.00">+ operator%=()</text>
<text text-anchor="start" x="68.5" y="-74" font-family="Helvetica,sans-Serif" font-size="10.00">+ operator+=()</text>
<text text-anchor="start" x="68.5" y="-63" font-family="Helvetica,sans-Serif" font-size="10.00">+ operator&#45;=()</text>
<text text-anchor="start" x="68.5" y="-52" font-family="Helvetica,sans-Serif" font-size="10.00">+ operator&amp;=()</text>
<text text-anchor="start" x="68.5" y="-41" font-family="Helvetica,sans-Serif" font-size="10.00">+ operator|=()</text>
<text text-anchor="start" x="68.5" y="-30" font-family="Helvetica,sans-Serif" font-size="10.00">+ operator^=()</text>
<text text-anchor="start" x="68.5" y="-19" font-family="Helvetica,sans-Serif" font-size="10.00">+ operator&gt;&gt;=()</text>
<text text-anchor="start" x="68.5" y="-8" font-family="Helvetica,sans-Serif" font-size="10.00">+ operator&lt;&lt;=()</text>
</g>
<!-- Node2 -->
<g id="node2" class="node"><title>Node2</title>
<polygon fill="none" stroke="#bfbfbf" points="-0.5,-383.5 -0.5,-440.5 46.5,-440.5 46.5,-383.5 -0.5,-383.5"/>
<text text-anchor="middle" x="23" y="-428.5" font-family="Helvetica,sans-Serif" font-size="10.00">UIntX2</text>
<polyline fill="none" stroke="#bfbfbf" points="-0.5,-421.5 46.5,-421.5 "/>
<text text-anchor="middle" x="23" y="-409.5" font-family="Helvetica,sans-Serif" font-size="10.00"> </text>
<polyline fill="none" stroke="#bfbfbf" points="-0.5,-402.5 46.5,-402.5 "/>
<text text-anchor="middle" x="23" y="-390.5" font-family="Helvetica,sans-Serif" font-size="10.00"> </text>
</g>
<!-- Node2&#45;&gt;Node1 -->
<g id="edge1" class="edge"><title>Node2&#45;&gt;Node1</title>
<path fill="none" stroke="#404040" d="M32.1716,-383.291C39.1902,-362.461 49.2846,-333.286 59,-308 59.9188,-305.609 60.8505,-303.2 61.7932,-300.778"/>
<polygon fill="none" stroke="#404040" points="61.8928,-300.524 60.3627,-293.477 66.2791,-289.354 67.8091,-296.401 61.8928,-300.524"/>
<text text-anchor="middle" x="70" y="-344.5" font-family="Helvetica,sans-Serif" font-size="10.00"> +da</text>
<text text-anchor="middle" x="70" y="-333.5" font-family="Helvetica,sans-Serif" font-size="10.00">+v01</text>
<text text-anchor="middle" x="70" y="-322.5" font-family="Helvetica,sans-Serif" font-size="10.00">+v23</text>
</g>
<!-- Node3 -->
<g id="node3" class="node"><title>Node3</title>
<polygon fill="none" stroke="#bfbfbf" points="64.5,-383.5 64.5,-440.5 99.5,-440.5 99.5,-383.5 64.5,-383.5"/>
<text text-anchor="middle" x="82" y="-428.5" font-family="Helvetica,sans-Serif" font-size="10.00">UInt</text>
<polyline fill="none" stroke="#bfbfbf" points="64.5,-421.5 99.5,-421.5 "/>
<text text-anchor="middle" x="82" y="-409.5" font-family="Helvetica,sans-Serif" font-size="10.00"> </text>
<polyline fill="none" stroke="#bfbfbf" points="64.5,-402.5 99.5,-402.5 "/>
<text text-anchor="middle" x="82" y="-390.5" font-family="Helvetica,sans-Serif" font-size="10.00"> </text>
</g>
<!-- Node3&#45;&gt;Node1 -->
<g id="edge2" class="edge"><title>Node3&#45;&gt;Node1</title>
<path fill="none" stroke="#404040" d="M83.0445,-383.332C84.0971,-362.524 86.1411,-333.356 90,-308 90.3354,-305.796 90.6842,-303.578 91.0454,-301.348"/>
<polygon fill="none" stroke="#404040" points="91.0775,-301.159 88.1394,-294.573 93.0882,-289.328 96.0263,-295.914 91.0775,-301.159"/>
<text text-anchor="middle" x="101" y="-355.5" font-family="Helvetica,sans-Serif" font-size="10.00"> +wa</text>
<text text-anchor="middle" x="101" y="-344.5" font-family="Helvetica,sans-Serif" font-size="10.00">+v0</text>
<text text-anchor="middle" x="101" y="-333.5" font-family="Helvetica,sans-Serif" font-size="10.00">+v1</text>
<text text-anchor="middle" x="101" y="-322.5" font-family="Helvetica,sans-Serif" font-size="10.00">+v2</text>
<text text-anchor="middle" x="101" y="-311.5" font-family="Helvetica,sans-Serif" font-size="10.00">+v3</text>
</g>
<!-- Node4 -->
<g id="node4" class="node"><title>Node4</title>
<polygon fill="none" stroke="#bfbfbf" points="152.5,-383 152.5,-441 181.5,-441 181.5,-383 152.5,-383"/>
<polyline fill="none" stroke="#bfbfbf" points="152.5,-421 181.5,-421 "/>
<text text-anchor="middle" x="167" y="-409" font-family="Helvetica,sans-Serif" font-size="10.00"> </text>
<polyline fill="none" stroke="#bfbfbf" points="152.5,-402 181.5,-402 "/>
<text text-anchor="middle" x="167" y="-390" font-family="Helvetica,sans-Serif" font-size="10.00"> </text>
</g>
<!-- Node4&#45;&gt;Node1 -->
<g id="edge3" class="edge"><title>Node4&#45;&gt;Node1</title>
<path fill="none" stroke="#404040" d="M152.177,-398.249C143.311,-389.605 132.853,-377.353 128,-364 120.834,-344.283 116.724,-322.884 114.683,-301.456"/>
<polygon fill="none" stroke="#404040" points="114.661,-301.17 110.209,-295.497 113.734,-289.206 118.185,-294.879 114.661,-301.17"/>
<text text-anchor="middle" x="136.5" y="-333.5" font-family="Helvetica,sans-Serif" font-size="10.00"> +w</text>
</g>
<!-- Node4&#45;&gt;Node1 -->
<g id="edge4" class="edge"><title>Node4&#45;&gt;Node1</title>
<path fill="none" stroke="#404040" d="M162.719,-382.64C159.619,-362.099 155.156,-332.536 150.431,-301.228"/>
<polygon fill="none" stroke="#404040" points="150.4,-301.024 145.549,-295.689 148.609,-289.159 153.46,-294.494 150.4,-301.024"/>
<text text-anchor="middle" x="166.5" y="-333.5" font-family="Helvetica,sans-Serif" font-size="10.00"> +d</text>
</g>
<!-- Node4&#45;&gt;Node1 -->
<g id="edge5" class="edge"><title>Node4&#45;&gt;Node1</title>
<path fill="none" stroke="#404040" d="M174.695,-382.852C176.07,-376.687 177.289,-370.16 178,-364 180.855,-339.275 181.781,-332.6 178,-308 177.662,-305.801 177.3,-303.59 176.914,-301.371"/>
<polygon fill="none" stroke="#404040" points="176.887,-301.226 171.838,-296.078 174.649,-289.437 179.698,-294.585 176.887,-301.226"/>
<text text-anchor="middle" x="198" y="-333.5" font-family="Helvetica,sans-Serif" font-size="10.00"> +@114</text>
</g>
</g>
</svg>
