<?xml version="1.0" encoding="UTF-8" standalone="no"?>
<!DOCTYPE svg PUBLIC "-//W3C//DTD SVG 1.1//EN"
 "http://www.w3.org/Graphics/SVG/1.1/DTD/svg11.dtd">
<!-- Generated by graphviz version 2.36.0 (20140111.2315)
 -->
<!-- Title: /home/travis/build/AliceO2Group/AliceO2/Detectors/TPC/reconstruction/include/TPCReconstruction/TPCCATracking.h Pages: 1 -->
<svg width="2365pt" height="536pt"
 viewBox="0.00 0.00 2365.27 536.00" xmlns="http://www.w3.org/2000/svg" xmlns:xlink="http://www.w3.org/1999/xlink">
<g id="graph0" class="graph" transform="scale(1 1) rotate(0) translate(4 532)">
<title>/home/travis/build/AliceO2Group/AliceO2/Detectors/TPC/reconstruction/include/TPCReconstruction/TPCCATracking.h</title>
<!-- Node1 -->
<g id="node1" class="node"><title>Node1</title>
<polygon fill="#bfbfbf" stroke="black" points="428.27,-464.5 428.27,-527.5 578.27,-527.5 578.27,-464.5 428.27,-464.5"/>
<text text-anchor="start" x="436.27" y="-515.5" font-family="Helvetica,sans-Serif" font-size="10.00">/home/travis/build</text>
<text text-anchor="start" x="436.27" y="-504.5" font-family="Helvetica,sans-Serif" font-size="10.00">/AliceO2Group/AliceO2</text>
<text text-anchor="start" x="436.27" y="-493.5" font-family="Helvetica,sans-Serif" font-size="10.00">/Detectors/TPC/reconstruction</text>
<text text-anchor="start" x="436.27" y="-482.5" font-family="Helvetica,sans-Serif" font-size="10.00">/include/TPCReconstruction</text>
<text text-anchor="middle" x="503.27" y="-471.5" font-family="Helvetica,sans-Serif" font-size="10.00">/TPCCATracking.h</text>
</g>
<!-- Node2 -->
<g id="node2" class="node"><title>Node2</title>
<polygon fill="none" stroke="#bfbfbf" points="366.27,-408.5 366.27,-427.5 418.27,-427.5 418.27,-408.5 366.27,-408.5"/>
<text text-anchor="middle" x="392.27" y="-415.5" font-family="Helvetica,sans-Serif" font-size="10.00">memory</text>
</g>
<!-- Node1&#45;&gt;Node2 -->
<g id="edge1" class="edge"><title>Node1&#45;&gt;Node2</title>
<path fill="none" stroke="midnightblue" d="M458.442,-464.307C442.948,-453.699 426.302,-442.301 413.581,-433.591"/>
<polygon fill="midnightblue" stroke="midnightblue" points="415.313,-430.535 405.084,-427.774 411.358,-436.311 415.313,-430.535"/>
</g>
<!-- Node3 -->
<g id="node3" class="node"><title>Node3</title>
<polygon fill="none" stroke="#bfbfbf" points="500.27,-142.5 500.27,-161.5 544.27,-161.5 544.27,-142.5 500.27,-142.5"/>
<text text-anchor="middle" x="522.27" y="-149.5" font-family="Helvetica,sans-Serif" font-size="10.00">vector</text>
</g>
<!-- Node1&#45;&gt;Node3 -->
<g id="edge2" class="edge"><title>Node1&#45;&gt;Node3</title>
<path fill="none" stroke="midnightblue" d="M504.973,-464.349C508.816,-395.163 518.074,-228.526 521.21,-172.072"/>
<polygon fill="midnightblue" stroke="midnightblue" points="524.722,-171.951 521.782,-161.772 517.733,-171.562 524.722,-171.951"/>
</g>
<!-- Node4 -->
<g id="node4" class="node"><title>Node4</title>
<g id="a_node4"><a xlink:href="../../dc/ddf/DataFormats_2Detectors_2TPC_2include_2DataFormatsTPC_2Cluster_8h.html" target="_top" xlink:title="DataFormatsTPC/Cluster.h">
<polygon fill="none" stroke="black" points="572.77,-346.5 572.77,-365.5 709.77,-365.5 709.77,-346.5 572.77,-346.5"/>
<text text-anchor="middle" x="641.27" y="-353.5" font-family="Helvetica,sans-Serif" font-size="10.00">DataFormatsTPC/Cluster.h</text>
</a>
</g>
</g>
<!-- Node1&#45;&gt;Node4 -->
<g id="edge3" class="edge"><title>Node1&#45;&gt;Node4</title>
<path fill="none" stroke="midnightblue" d="M518.93,-464.473C529.084,-446.626 543.522,-424.448 560.27,-408 575.929,-392.621 596.991,-379.536 613.713,-370.471"/>
<polygon fill="midnightblue" stroke="midnightblue" points="615.751,-373.354 622.983,-365.611 612.501,-367.154 615.751,-373.354"/>
</g>
<!-- Node7 -->
<g id="node7" class="node"><title>Node7</title>
<g id="a_node7"><a xlink:href="../../de/dcd/ClusterNative_8h.html" target="_top" xlink:title="Class of a TPC cluster in TPC&#45;native coordinates (row, time) ">
<polygon fill="none" stroke="black" points="263.77,-210.5 263.77,-229.5 428.77,-229.5 428.77,-210.5 263.77,-210.5"/>
<text text-anchor="middle" x="346.27" y="-217.5" font-family="Helvetica,sans-Serif" font-size="10.00">DataFormatsTPC/ClusterNative.h</text>
</a>
</g>
</g>
<!-- Node1&#45;&gt;Node7 -->
<g id="edge7" class="edge"><title>Node1&#45;&gt;Node7</title>
<path fill="none" stroke="midnightblue" d="M485.717,-464.366C452.767,-406.862 382.617,-284.435 356.419,-238.712"/>
<polygon fill="midnightblue" stroke="midnightblue" points="359.402,-236.878 351.393,-229.942 353.328,-240.359 359.402,-236.878"/>
</g>
<!-- Node13 -->
<g id="node13" class="node"><title>Node13</title>
<g id="a_node13"><a xlink:href="../../d5/dc9/TrackTPC_8h.html" target="_top" xlink:title="DataFormatsTPC/TrackTPC.h">
<polygon fill="none" stroke="black" points="569.27,-408.5 569.27,-427.5 719.27,-427.5 719.27,-408.5 569.27,-408.5"/>
<text text-anchor="middle" x="644.27" y="-415.5" font-family="Helvetica,sans-Serif" font-size="10.00">DataFormatsTPC/TrackTPC.h</text>
</a>
</g>
</g>
<!-- Node1&#45;&gt;Node13 -->
<g id="edge15" class="edge"><title>Node1&#45;&gt;Node13</title>
<path fill="none" stroke="midnightblue" d="M560.213,-464.307C580.787,-453.218 602.96,-441.266 619.365,-432.424"/>
<polygon fill="midnightblue" stroke="midnightblue" points="621.16,-435.432 628.302,-427.607 617.839,-429.271 621.16,-435.432"/>
</g>
<!-- Node5 -->
<g id="node5" class="node"><title>Node5</title>
<polygon fill="none" stroke="#bfbfbf" points="600.27,-74.5 600.27,-93.5 656.27,-93.5 656.27,-74.5 600.27,-74.5"/>
<text text-anchor="middle" x="628.27" y="-81.5" font-family="Helvetica,sans-Serif" font-size="10.00">Rtypes.h</text>
</g>
<!-- Node4&#45;&gt;Node5 -->
<g id="edge4" class="edge"><title>Node4&#45;&gt;Node5</title>
<path fill="none" stroke="midnightblue" d="M640.118,-346.361C637.567,-326.775 631.493,-277.469 629.27,-236 626.716,-188.373 627.287,-132.176 627.831,-103.645"/>
<polygon fill="midnightblue" stroke="midnightblue" points="631.333,-103.595 628.046,-93.5227 624.335,-103.446 631.333,-103.595"/>
</g>
<!-- Node6 -->
<g id="node6" class="node"><title>Node6</title>
<g id="a_node6"><a xlink:href="../../df/d5d/common_2include_2CommonDataFormat_2TimeStamp_8h.html" target="_top" xlink:title="CommonDataFormat/TimeStamp.h">
<polygon fill="none" stroke="black" points="638.27,-210.5 638.27,-229.5 808.27,-229.5 808.27,-210.5 638.27,-210.5"/>
<text text-anchor="middle" x="723.27" y="-217.5" font-family="Helvetica,sans-Serif" font-size="10.00">CommonDataFormat/TimeStamp.h</text>
</a>
</g>
</g>
<!-- Node4&#45;&gt;Node6 -->
<g id="edge5" class="edge"><title>Node4&#45;&gt;Node6</title>
<path fill="none" stroke="midnightblue" d="M646.65,-346.208C660.031,-324.342 695.004,-267.19 712.695,-238.28"/>
<polygon fill="midnightblue" stroke="midnightblue" points="715.742,-240.007 717.976,-229.65 709.771,-236.353 715.742,-240.007"/>
</g>
<!-- Node6&#45;&gt;Node5 -->
<g id="edge6" class="edge"><title>Node6&#45;&gt;Node5</title>
<path fill="none" stroke="midnightblue" d="M712.973,-210.373C701.972,-200.801 684.475,-184.515 672.27,-168 657.018,-147.362 643.893,-120.739 636.042,-103.284"/>
<polygon fill="midnightblue" stroke="midnightblue" points="639.079,-101.494 631.863,-93.7365 632.666,-104.301 639.079,-101.494"/>
</g>
<!-- Node7&#45;&gt;Node3 -->
<g id="edge9" class="edge"><title>Node7&#45;&gt;Node3</title>
<path fill="none" stroke="midnightblue" d="M372.839,-210.459C401.958,-200.897 449.907,-184.561 490.27,-168 491.909,-167.327 493.585,-166.616 495.27,-165.882"/>
<polygon fill="midnightblue" stroke="midnightblue" points="497.137,-168.879 504.802,-161.565 494.249,-162.503 497.137,-168.879"/>
</g>
<!-- Node8 -->
<g id="node8" class="node"><title>Node8</title>
<polygon fill="none" stroke="#bfbfbf" points="70.2698,-74.5 70.2698,-93.5 116.27,-93.5 116.27,-74.5 70.2698,-74.5"/>
<text text-anchor="middle" x="93.2698" y="-81.5" font-family="Helvetica,sans-Serif" font-size="10.00">cstdint</text>
</g>
<!-- Node7&#45;&gt;Node8 -->
<g id="edge8" class="edge"><title>Node7&#45;&gt;Node8</title>
<path fill="none" stroke="midnightblue" d="M263.756,-218.499C173.975,-215.992 38.8417,-205.822 6.26983,-168 -3.01098,-157.223 -0.800496,-148.34 6.26983,-136 17.8853,-115.727 41.0332,-102.731 60.5331,-94.9344"/>
<polygon fill="midnightblue" stroke="midnightblue" points="61.8684,-98.1723 70.0311,-91.418 59.4379,-91.6078 61.8684,-98.1723"/>
</g>
<!-- Node9 -->
<g id="node9" class="node"><title>Node9</title>
<polygon fill="none" stroke="#bfbfbf" points="188.77,-142.5 188.77,-161.5 237.77,-161.5 237.77,-142.5 188.77,-142.5"/>
<text text-anchor="middle" x="213.27" y="-149.5" font-family="Helvetica,sans-Serif" font-size="10.00">cstddef</text>
</g>
<!-- Node7&#45;&gt;Node9 -->
<g id="edge10" class="edge"><title>Node7&#45;&gt;Node9</title>
<path fill="none" stroke="midnightblue" d="M328.882,-210.372C306.181,-199.106 266.227,-179.279 239.75,-166.14"/>
<polygon fill="midnightblue" stroke="midnightblue" points="241.175,-162.94 230.662,-161.63 238.063,-169.211 241.175,-162.94"/>
</g>
<!-- Node10 -->
<g id="node10" class="node"><title>Node10</title>
<polygon fill="none" stroke="#bfbfbf" points="255.77,-142.5 255.77,-161.5 314.77,-161.5 314.77,-142.5 255.77,-142.5"/>
<text text-anchor="middle" x="285.27" y="-149.5" font-family="Helvetica,sans-Serif" font-size="10.00">stdexcept</text>
</g>
<!-- Node7&#45;&gt;Node10 -->
<g id="edge11" class="edge"><title>Node7&#45;&gt;Node10</title>
<path fill="none" stroke="midnightblue" d="M338.295,-210.372C328.667,-199.955 312.274,-182.217 300.258,-169.216"/>
<polygon fill="midnightblue" stroke="midnightblue" points="302.799,-166.809 293.441,-161.841 297.658,-171.561 302.799,-166.809"/>
</g>
<!-- Node11 -->
<g id="node11" class="node"><title>Node11</title>
<g id="a_node11"><a xlink:href="../../d0/dda/DataFormats_2Detectors_2TPC_2include_2DataFormatsTPC_2Constants_8h.html" target="_top" xlink:title="DataFormatsTPC/Constants.h">
<polygon fill="none" stroke="black" points="332.27,-142.5 332.27,-161.5 482.27,-161.5 482.27,-142.5 332.27,-142.5"/>
<text text-anchor="middle" x="407.27" y="-149.5" font-family="Helvetica,sans-Serif" font-size="10.00">DataFormatsTPC/Constants.h</text>
</a>
</g>
</g>
<!-- Node7&#45;&gt;Node11 -->
<g id="edge12" class="edge"><title>Node7&#45;&gt;Node11</title>
<path fill="none" stroke="midnightblue" d="M354.245,-210.372C363.872,-199.955 380.266,-182.217 392.282,-169.216"/>
<polygon fill="midnightblue" stroke="midnightblue" points="394.881,-171.561 399.098,-161.841 389.741,-166.809 394.881,-171.561"/>
</g>
<!-- Node12 -->
<g id="node12" class="node"><title>Node12</title>
<g id="a_node12"><a xlink:href="../../d8/dc8/ClusterGroupAttribute_8h.html" target="_top" xlink:title="Meta data for a group describing it by sector number and global padrow. ">
<polygon fill="none" stroke="black" points="15.7698,-137 15.7698,-167 170.77,-167 170.77,-137 15.7698,-137"/>
<text text-anchor="start" x="23.7698" y="-155" font-family="Helvetica,sans-Serif" font-size="10.00">DataFormatsTPC/ClusterGroup</text>
<text text-anchor="middle" x="93.2698" y="-144" font-family="Helvetica,sans-Serif" font-size="10.00">Attribute.h</text>
</a>
</g>
</g>
<!-- Node7&#45;&gt;Node12 -->
<g id="edge13" class="edge"><title>Node7&#45;&gt;Node12</title>
<path fill="none" stroke="midnightblue" d="M313.454,-210.439C273.97,-200.139 206.783,-182.612 156.986,-169.621"/>
<polygon fill="midnightblue" stroke="midnightblue" points="157.831,-166.225 147.271,-167.087 156.064,-172.998 157.831,-166.225"/>
</g>
<!-- Node12&#45;&gt;Node8 -->
<g id="edge14" class="edge"><title>Node12&#45;&gt;Node8</title>
<path fill="none" stroke="midnightblue" d="M93.2698,-136.679C93.2698,-127.101 93.2698,-114.394 93.2698,-103.977"/>
<polygon fill="midnightblue" stroke="midnightblue" points="96.7699,-103.828 93.2698,-93.8283 89.7699,-103.828 96.7699,-103.828"/>
</g>
<!-- Node13&#45;&gt;Node4 -->
<g id="edge69" class="edge"><title>Node13&#45;&gt;Node4</title>
<path fill="none" stroke="midnightblue" d="M643.84,-408.403C643.417,-399.938 642.756,-386.728 642.211,-375.82"/>
<polygon fill="midnightblue" stroke="midnightblue" points="645.694,-375.393 641.699,-365.581 638.703,-375.743 645.694,-375.393"/>
</g>
<!-- Node13&#45;&gt;Node7 -->
<g id="edge64" class="edge"><title>Node13&#45;&gt;Node7</title>
<path fill="none" stroke="midnightblue" d="M625.741,-408.456C608.758,-400.229 583.287,-386.868 563.27,-372 512.05,-333.955 513.086,-307.796 460.27,-272 435.771,-255.396 404.987,-241.999 381.585,-233.109"/>
<polygon fill="midnightblue" stroke="midnightblue" points="382.641,-229.768 372.048,-229.58 380.212,-236.333 382.641,-229.768"/>
</g>
<!-- Node14 -->
<g id="node14" class="node"><title>Node14</title>
<g id="a_node14"><a xlink:href="../../d7/d8b/DataFormats_2Reconstruction_2include_2ReconstructionDataFormats_2Track_8h.html" target="_top" xlink:title="ReconstructionDataFormats\l/Track.h">
<polygon fill="none" stroke="black" points="1665.27,-341 1665.27,-371 1805.27,-371 1805.27,-341 1665.27,-341"/>
<text text-anchor="start" x="1673.27" y="-359" font-family="Helvetica,sans-Serif" font-size="10.00">ReconstructionDataFormats</text>
<text text-anchor="middle" x="1735.27" y="-348" font-family="Helvetica,sans-Serif" font-size="10.00">/Track.h</text>
</a>
</g>
</g>
<!-- Node13&#45;&gt;Node14 -->
<g id="edge16" class="edge"><title>Node13&#45;&gt;Node14</title>
<path fill="none" stroke="midnightblue" d="M719.689,-412.852C917.837,-401.955 1451.84,-372.587 1655.17,-361.405"/>
<polygon fill="midnightblue" stroke="midnightblue" points="1655.39,-364.899 1665.18,-360.855 1655,-357.909 1655.39,-364.899"/>
</g>
<!-- Node46 -->
<g id="node46" class="node"><title>Node46</title>
<g id="a_node46"><a xlink:href="../../d1/d73/Defs_8h.html" target="_top" xlink:title="Common definitions for 2D coordinates. ">
<polygon fill="none" stroke="black" points="2141.27,-210.5 2141.27,-229.5 2267.27,-229.5 2267.27,-210.5 2141.27,-210.5"/>
<text text-anchor="middle" x="2204.27" y="-217.5" font-family="Helvetica,sans-Serif" font-size="10.00">DataFormatsTPC/Defs.h</text>
</a>
</g>
</g>
<!-- Node13&#45;&gt;Node46 -->
<g id="edge65" class="edge"><title>Node13&#45;&gt;Node46</title>
<path fill="none" stroke="midnightblue" d="M719.473,-415.617C942.994,-411.269 1600.98,-396.673 1814.27,-372 1971.68,-353.79 2038.77,-400.756 2164.27,-304 2184.92,-288.079 2195.49,-258.781 2200.44,-239.597"/>
<polygon fill="midnightblue" stroke="midnightblue" points="2203.9,-240.179 2202.75,-229.648 2197.08,-238.601 2203.9,-240.179"/>
</g>
<!-- Node14&#45;&gt;Node5 -->
<g id="edge17" class="edge"><title>Node14&#45;&gt;Node5</title>
<path fill="none" stroke="midnightblue" d="M1665.22,-347.942C1581.68,-339.191 1437.93,-323.075 1315.27,-304 1155.24,-279.114 1115.12,-272.234 957.27,-236 929.003,-229.512 730.096,-182.991 705.27,-168 697.665,-163.408 662.396,-123.904 642.331,-101.091"/>
<polygon fill="midnightblue" stroke="midnightblue" points="644.931,-98.7471 635.706,-93.5366 639.669,-103.363 644.931,-98.7471"/>
</g>
<!-- Node15 -->
<g id="node15" class="node"><title>Node15</title>
<polygon fill="none" stroke="#bfbfbf" points="1975.27,-278.5 1975.27,-297.5 2031.27,-297.5 2031.27,-278.5 1975.27,-278.5"/>
<text text-anchor="middle" x="2003.27" y="-285.5" font-family="Helvetica,sans-Serif" font-size="10.00">algorithm</text>
</g>
<!-- Node14&#45;&gt;Node15 -->
<g id="edge18" class="edge"><title>Node14&#45;&gt;Node15</title>
<path fill="none" stroke="midnightblue" d="M1805.31,-341.476C1850.23,-332.243 1909.6,-318.996 1961.27,-304 1964.47,-303.072 1967.78,-302.032 1971.07,-300.945"/>
<polygon fill="midnightblue" stroke="midnightblue" points="1972.45,-304.17 1980.76,-297.603 1970.17,-297.552 1972.45,-304.17"/>
</g>
<!-- Node16 -->
<g id="node16" class="node"><title>Node16</title>
<polygon fill="none" stroke="#bfbfbf" points="758.27,-6.5 758.27,-25.5 796.27,-25.5 796.27,-6.5 758.27,-6.5"/>
<text text-anchor="middle" x="777.27" y="-13.5" font-family="Helvetica,sans-Serif" font-size="10.00">array</text>
</g>
<!-- Node14&#45;&gt;Node16 -->
<g id="edge19" class="edge"><title>Node14&#45;&gt;Node16</title>
<path fill="none" stroke="midnightblue" d="M1665.27,-352.075C1434.42,-341.805 707.457,-304.277 629.27,-236 571.608,-185.647 544.844,-128.869 591.27,-68 610.243,-43.1247 700.623,-27.3907 748.054,-20.7068"/>
<polygon fill="midnightblue" stroke="midnightblue" points="748.594,-24.1656 758.029,-19.3456 747.647,-17.2299 748.594,-24.1656"/>
</g>
<!-- Node17 -->
<g id="node17" class="node"><title>Node17</title>
<polygon fill="none" stroke="#bfbfbf" points="2049.77,-278.5 2049.77,-297.5 2090.77,-297.5 2090.77,-278.5 2049.77,-278.5"/>
<text text-anchor="middle" x="2070.27" y="-285.5" font-family="Helvetica,sans-Serif" font-size="10.00">cfloat</text>
</g>
<!-- Node14&#45;&gt;Node17 -->
<g id="edge20" class="edge"><title>Node14&#45;&gt;Node17</title>
<path fill="none" stroke="midnightblue" d="M1805.42,-348.947C1867.91,-342.218 1961.26,-328.856 2039.27,-304 2041.4,-303.322 2043.57,-302.522 2045.72,-301.65"/>
<polygon fill="midnightblue" stroke="midnightblue" points="2047.18,-304.829 2054.86,-297.525 2044.3,-298.449 2047.18,-304.829"/>
</g>
<!-- Node18 -->
<g id="node18" class="node"><title>Node18</title>
<polygon fill="none" stroke="#bfbfbf" points="2313.27,-6.5 2313.27,-25.5 2357.27,-25.5 2357.27,-6.5 2313.27,-6.5"/>
<text text-anchor="middle" x="2335.27" y="-13.5" font-family="Helvetica,sans-Serif" font-size="10.00">cmath</text>
</g>
<!-- Node14&#45;&gt;Node18 -->
<g id="edge21" class="edge"><title>Node14&#45;&gt;Node18</title>
<path fill="none" stroke="midnightblue" d="M1805.39,-354.01C1963.93,-349.877 2336.27,-328.704 2336.27,-221 2336.27,-221 2336.27,-221 2336.27,-151 2336.27,-110.045 2335.8,-62.0518 2335.5,-36.066"/>
<polygon fill="midnightblue" stroke="midnightblue" points="2339,-35.7378 2335.38,-25.7796 2332,-35.8201 2339,-35.7378"/>
</g>
<!-- Node19 -->
<g id="node19" class="node"><title>Node19</title>
<polygon fill="none" stroke="#bfbfbf" points="2109.27,-278.5 2109.27,-297.5 2155.27,-297.5 2155.27,-278.5 2109.27,-278.5"/>
<text text-anchor="middle" x="2132.27" y="-285.5" font-family="Helvetica,sans-Serif" font-size="10.00">cstring</text>
</g>
<!-- Node14&#45;&gt;Node19 -->
<g id="edge22" class="edge"><title>Node14&#45;&gt;Node19</title>
<path fill="none" stroke="midnightblue" d="M1805.28,-351.169C1879.5,-345.733 1999.54,-332.991 2099.27,-304 2101.62,-303.318 2104.01,-302.498 2106.38,-301.598"/>
<polygon fill="midnightblue" stroke="midnightblue" points="2108,-304.715 2115.84,-297.591 2105.26,-298.269 2108,-304.715"/>
</g>
<!-- Node20 -->
<g id="node20" class="node"><title>Node20</title>
<polygon fill="none" stroke="#bfbfbf" points="2042.77,-74.5 2042.77,-93.5 2087.77,-93.5 2087.77,-74.5 2042.77,-74.5"/>
<text text-anchor="middle" x="2065.27" y="-81.5" font-family="Helvetica,sans-Serif" font-size="10.00">iosfwd</text>
</g>
<!-- Node14&#45;&gt;Node20 -->
<g id="edge23" class="edge"><title>Node14&#45;&gt;Node20</title>
<path fill="none" stroke="midnightblue" d="M1752.55,-340.864C1809.06,-294.627 1988.12,-148.121 2046.6,-100.277"/>
<polygon fill="midnightblue" stroke="midnightblue" points="2049.09,-102.757 2054.62,-93.7155 2044.66,-97.3391 2049.09,-102.757"/>
</g>
<!-- Node21 -->
<g id="node21" class="node"><title>Node21</title>
<polygon fill="none" stroke="#bfbfbf" points="1482.77,-278.5 1482.77,-297.5 1565.77,-297.5 1565.77,-278.5 1482.77,-278.5"/>
<text text-anchor="middle" x="1524.27" y="-285.5" font-family="Helvetica,sans-Serif" font-size="10.00">Math/SMatrix.h</text>
</g>
<!-- Node14&#45;&gt;Node21 -->
<g id="edge24" class="edge"><title>Node14&#45;&gt;Node21</title>
<path fill="none" stroke="midnightblue" d="M1690.26,-340.922C1651.76,-328.88 1597.03,-311.76 1561.1,-300.519"/>
<polygon fill="midnightblue" stroke="midnightblue" points="1562.08,-297.159 1551.49,-297.514 1559.99,-303.84 1562.08,-297.159"/>
</g>
<!-- Node22 -->
<g id="node22" class="node"><title>Node22</title>
<polygon fill="none" stroke="#bfbfbf" points="1583.77,-278.5 1583.77,-297.5 1668.77,-297.5 1668.77,-278.5 1583.77,-278.5"/>
<text text-anchor="middle" x="1626.27" y="-285.5" font-family="Helvetica,sans-Serif" font-size="10.00">Math/SVector.h</text>
</g>
<!-- Node14&#45;&gt;Node22 -->
<g id="edge25" class="edge"><title>Node14&#45;&gt;Node22</title>
<path fill="none" stroke="midnightblue" d="M1711.89,-340.841C1693.37,-329.63 1667.65,-314.056 1649.24,-302.91"/>
<polygon fill="midnightblue" stroke="midnightblue" points="1650.98,-299.868 1640.61,-297.682 1647.35,-305.855 1650.98,-299.868"/>
</g>
<!-- Node23 -->
<g id="node23" class="node"><title>Node23</title>
<g id="a_node23"><a xlink:href="../../d6/d84/MathConstants_8h.html" target="_top" xlink:title="useful math constants ">
<polygon fill="none" stroke="black" points="1332.77,-6.5 1332.77,-25.5 1511.77,-25.5 1511.77,-6.5 1332.77,-6.5"/>
<text text-anchor="middle" x="1422.27" y="-13.5" font-family="Helvetica,sans-Serif" font-size="10.00">CommonConstants/MathConstants.h</text>
</a>
</g>
</g>
<!-- Node14&#45;&gt;Node23 -->
<g id="edge26" class="edge"><title>Node14&#45;&gt;Node23</title>
<path fill="none" stroke="midnightblue" d="M1781.83,-340.979C1902.64,-302.445 2209.09,-189.682 2096.27,-68 2058.09,-26.8224 1700.21,-18.7099 1522.05,-17.2376"/>
<polygon fill="midnightblue" stroke="midnightblue" points="1521.9,-13.7365 1511.88,-17.1591 1521.85,-20.7363 1521.9,-13.7365"/>
</g>
<!-- Node24 -->
<g id="node24" class="node"><title>Node24</title>
<g id="a_node24"><a xlink:href="../../dd/d76/Cartesian3D_8h.html" target="_top" xlink:title="MathUtils/Cartesian3D.h">
<polygon fill="none" stroke="black" points="1704.77,-142.5 1704.77,-161.5 1829.77,-161.5 1829.77,-142.5 1704.77,-142.5"/>
<text text-anchor="middle" x="1767.27" y="-149.5" font-family="Helvetica,sans-Serif" font-size="10.00">MathUtils/Cartesian3D.h</text>
</a>
</g>
</g>
<!-- Node14&#45;&gt;Node24 -->
<g id="edge27" class="edge"><title>Node14&#45;&gt;Node24</title>
<path fill="none" stroke="midnightblue" d="M1737.52,-340.796C1743.18,-305.083 1757.99,-211.552 1764.33,-171.565"/>
<polygon fill="midnightblue" stroke="midnightblue" points="1767.8,-172.021 1765.91,-161.597 1760.89,-170.926 1767.8,-172.021"/>
</g>
<!-- Node34 -->
<g id="node34" class="node"><title>Node34</title>
<g id="a_node34"><a xlink:href="../../d9/d52/Common_2MathUtils_2include_2MathUtils_2Utils_8h.html" target="_top" xlink:title="MathUtils/Utils.h">
<polygon fill="none" stroke="black" points="958.27,-74.5 958.27,-93.5 1048.27,-93.5 1048.27,-74.5 958.27,-74.5"/>
<text text-anchor="middle" x="1003.27" y="-81.5" font-family="Helvetica,sans-Serif" font-size="10.00">MathUtils/Utils.h</text>
</a>
</g>
</g>
<!-- Node14&#45;&gt;Node34 -->
<g id="edge39" class="edge"><title>Node14&#45;&gt;Node34</title>
<path fill="none" stroke="midnightblue" d="M1728.92,-340.869C1719.96,-322.456 1701.89,-290.441 1677.27,-272 1517.85,-152.609 1443.78,-183.141 1250.27,-136 1165.49,-115.348 1142.28,-119.695 1057.27,-100 1052.3,-98.849 1047.11,-97.5407 1041.98,-96.1877"/>
<polygon fill="midnightblue" stroke="midnightblue" points="1042.87,-92.8009 1032.3,-93.5602 1041.03,-99.5567 1042.87,-92.8009"/>
</g>
<!-- Node35 -->
<g id="node35" class="node"><title>Node35</title>
<g id="a_node35"><a xlink:href="../../d4/de2/BaseCluster_8h.html" target="_top" xlink:title="ReconstructionDataFormats\l/BaseCluster.h">
<polygon fill="none" stroke="black" points="1324.27,-273 1324.27,-303 1464.27,-303 1464.27,-273 1324.27,-273"/>
<text text-anchor="start" x="1332.27" y="-291" font-family="Helvetica,sans-Serif" font-size="10.00">ReconstructionDataFormats</text>
<text text-anchor="middle" x="1394.27" y="-280" font-family="Helvetica,sans-Serif" font-size="10.00">/BaseCluster.h</text>
</a>
</g>
</g>
<!-- Node14&#45;&gt;Node35 -->
<g id="edge43" class="edge"><title>Node14&#45;&gt;Node35</title>
<path fill="none" stroke="midnightblue" d="M1665.03,-341.405C1609.55,-330.668 1532.11,-315.679 1474.26,-304.481"/>
<polygon fill="midnightblue" stroke="midnightblue" points="1474.9,-301.042 1464.42,-302.578 1473.57,-307.914 1474.9,-301.042"/>
</g>
<!-- Node24&#45;&gt;Node5 -->
<g id="edge33" class="edge"><title>Node24&#45;&gt;Node5</title>
<path fill="none" stroke="midnightblue" d="M1704.6,-149.204C1507.2,-143.357 899.821,-123.858 704.27,-100 691.983,-98.5009 678.707,-96.1409 666.742,-93.7327"/>
<polygon fill="midnightblue" stroke="midnightblue" points="667.125,-90.2376 656.622,-91.6245 665.698,-97.0905 667.125,-90.2376"/>
</g>
<!-- Node24&#45;&gt;Node20 -->
<g id="edge35" class="edge"><title>Node24&#45;&gt;Node20</title>
<path fill="none" stroke="midnightblue" d="M1812.49,-142.478C1887.02,-128.411 2028.01,-101.706 2033.27,-100 2035.4,-99.3074 2037.58,-98.5066 2039.74,-97.6427"/>
<polygon fill="midnightblue" stroke="midnightblue" points="2041.23,-100.814 2048.98,-93.5911 2038.42,-94.4038 2041.23,-100.814"/>
</g>
<!-- Node25 -->
<g id="node25" class="node"><title>Node25</title>
<polygon fill="none" stroke="#bfbfbf" points="1512.77,-69 1512.77,-99 1663.77,-99 1663.77,-69 1512.77,-69"/>
<text text-anchor="start" x="1520.77" y="-87" font-family="Helvetica,sans-Serif" font-size="10.00">Math/GenVector/Displacement</text>
<text text-anchor="middle" x="1588.27" y="-76" font-family="Helvetica,sans-Serif" font-size="10.00">Vector3D.h</text>
</g>
<!-- Node24&#45;&gt;Node25 -->
<g id="edge28" class="edge"><title>Node24&#45;&gt;Node25</title>
<path fill="none" stroke="midnightblue" d="M1743.87,-142.372C1716.58,-132.311 1670.78,-115.422 1635.91,-102.566"/>
<polygon fill="midnightblue" stroke="midnightblue" points="1636.99,-99.2319 1626.39,-99.0562 1634.56,-105.8 1636.99,-99.2319"/>
</g>
<!-- Node26 -->
<g id="node26" class="node"><title>Node26</title>
<polygon fill="none" stroke="#bfbfbf" points="1682.27,-74.5 1682.27,-93.5 1858.27,-93.5 1858.27,-74.5 1682.27,-74.5"/>
<text text-anchor="middle" x="1770.27" y="-81.5" font-family="Helvetica,sans-Serif" font-size="10.00">Math/GenVector/PositionVector3D.h</text>
</g>
<!-- Node24&#45;&gt;Node26 -->
<g id="edge29" class="edge"><title>Node24&#45;&gt;Node26</title>
<path fill="none" stroke="midnightblue" d="M1767.66,-142.372C1768.1,-132.643 1768.84,-116.528 1769.41,-103.85"/>
<polygon fill="midnightblue" stroke="midnightblue" points="1772.91,-103.99 1769.87,-93.8411 1765.92,-103.672 1772.91,-103.99"/>
</g>
<!-- Node27 -->
<g id="node27" class="node"><title>Node27</title>
<polygon fill="none" stroke="#bfbfbf" points="1875.77,-74.5 1875.77,-93.5 2024.77,-93.5 2024.77,-74.5 1875.77,-74.5"/>
<text text-anchor="middle" x="1950.27" y="-81.5" font-family="Helvetica,sans-Serif" font-size="10.00">Math/GenVector/Rotation3D.h</text>
</g>
<!-- Node24&#45;&gt;Node27 -->
<g id="edge30" class="edge"><title>Node24&#45;&gt;Node27</title>
<path fill="none" stroke="midnightblue" d="M1791.19,-142.372C1823.34,-130.778 1880.63,-110.116 1916.97,-97.0087"/>
<polygon fill="midnightblue" stroke="midnightblue" points="1918.41,-100.211 1926.63,-93.5259 1916.04,-93.6262 1918.41,-100.211"/>
</g>
<!-- Node28 -->
<g id="node28" class="node"><title>Node28</title>
<polygon fill="none" stroke="#bfbfbf" points="1066.27,-74.5 1066.27,-93.5 1222.27,-93.5 1222.27,-74.5 1066.27,-74.5"/>
<text text-anchor="middle" x="1144.27" y="-81.5" font-family="Helvetica,sans-Serif" font-size="10.00">Math/GenVector/Transform3D.h</text>
</g>
<!-- Node24&#45;&gt;Node28 -->
<g id="edge31" class="edge"><title>Node24&#45;&gt;Node28</title>
<path fill="none" stroke="midnightblue" d="M1727.85,-142.423C1715.83,-140.051 1702.55,-137.672 1690.27,-136 1487.51,-108.392 1434.31,-125.411 1231.27,-100 1220.78,-98.6874 1209.63,-96.9936 1198.94,-95.219"/>
<polygon fill="midnightblue" stroke="midnightblue" points="1199.3,-91.7313 1188.86,-93.5028 1198.13,-98.632 1199.3,-91.7313"/>
</g>
<!-- Node29 -->
<g id="node29" class="node"><title>Node29</title>
<polygon fill="none" stroke="#bfbfbf" points="1240.27,-74.5 1240.27,-93.5 1400.27,-93.5 1400.27,-74.5 1240.27,-74.5"/>
<text text-anchor="middle" x="1320.27" y="-81.5" font-family="Helvetica,sans-Serif" font-size="10.00">Math/GenVector/Translation3D.h</text>
</g>
<!-- Node24&#45;&gt;Node29 -->
<g id="edge32" class="edge"><title>Node24&#45;&gt;Node29</title>
<path fill="none" stroke="midnightblue" d="M1726.2,-142.486C1714.61,-140.223 1701.97,-137.887 1690.27,-136 1565.97,-115.952 1533.82,-118.466 1409.27,-100 1399.39,-98.5349 1388.91,-96.8694 1378.74,-95.194"/>
<polygon fill="midnightblue" stroke="midnightblue" points="1379.15,-91.7143 1368.71,-93.5224 1378,-98.619 1379.15,-91.7143"/>
</g>
<!-- Node30 -->
<g id="node30" class="node"><title>Node30</title>
<polygon fill="none" stroke="#bfbfbf" points="1418.27,-74.5 1418.27,-93.5 1494.27,-93.5 1494.27,-74.5 1418.27,-74.5"/>
<text text-anchor="middle" x="1456.27" y="-81.5" font-family="Helvetica,sans-Serif" font-size="10.00">TGeoMatrix.h</text>
</g>
<!-- Node24&#45;&gt;Node30 -->
<g id="edge34" class="edge"><title>Node24&#45;&gt;Node30</title>
<path fill="none" stroke="midnightblue" d="M1723.29,-142.424C1712.5,-140.321 1700.97,-138.077 1690.27,-136 1607.61,-119.95 1585.91,-120.59 1504.27,-100 1500.13,-98.9552 1495.81,-97.7617 1491.55,-96.5146"/>
<polygon fill="midnightblue" stroke="midnightblue" points="1492.36,-93.1046 1481.78,-93.5519 1490.33,-99.8033 1492.36,-93.1046"/>
</g>
<!-- Node31 -->
<g id="node31" class="node"><title>Node31</title>
<g id="a_node31"><a xlink:href="../../d2/dd0/Cartesian2D_8h.html" target="_top" xlink:title="MathUtils/Cartesian2D.h">
<polygon fill="none" stroke="black" points="2144.77,-74.5 2144.77,-93.5 2269.77,-93.5 2269.77,-74.5 2144.77,-74.5"/>
<text text-anchor="middle" x="2207.27" y="-81.5" font-family="Helvetica,sans-Serif" font-size="10.00">MathUtils/Cartesian2D.h</text>
</a>
</g>
</g>
<!-- Node24&#45;&gt;Node31 -->
<g id="edge36" class="edge"><title>Node24&#45;&gt;Node31</title>
<path fill="none" stroke="midnightblue" d="M1824.34,-142.439C1905.53,-130.26 2054.08,-107.978 2140.35,-95.0375"/>
<polygon fill="midnightblue" stroke="midnightblue" points="2140.93,-98.4903 2150.3,-93.5455 2139.89,-91.5677 2140.93,-98.4903"/>
</g>
<!-- Node32 -->
<g id="node32" class="node"><title>Node32</title>
<polygon fill="none" stroke="#bfbfbf" points="1949.77,-1 1949.77,-31 2100.77,-31 2100.77,-1 1949.77,-1"/>
<text text-anchor="start" x="1957.77" y="-19" font-family="Helvetica,sans-Serif" font-size="10.00">Math/GenVector/Displacement</text>
<text text-anchor="middle" x="2025.27" y="-8" font-family="Helvetica,sans-Serif" font-size="10.00">Vector2D.h</text>
</g>
<!-- Node31&#45;&gt;Node32 -->
<g id="edge37" class="edge"><title>Node31&#45;&gt;Node32</title>
<path fill="none" stroke="midnightblue" d="M2183.48,-74.3717C2155.73,-64.3109 2109.16,-47.4219 2073.71,-34.5662"/>
<polygon fill="midnightblue" stroke="midnightblue" points="2074.63,-31.1751 2064.03,-31.0562 2072.24,-37.7558 2074.63,-31.1751"/>
</g>
<!-- Node33 -->
<g id="node33" class="node"><title>Node33</title>
<polygon fill="none" stroke="#bfbfbf" points="2119.27,-6.5 2119.27,-25.5 2295.27,-25.5 2295.27,-6.5 2119.27,-6.5"/>
<text text-anchor="middle" x="2207.27" y="-13.5" font-family="Helvetica,sans-Serif" font-size="10.00">Math/GenVector/PositionVector2D.h</text>
</g>
<!-- Node31&#45;&gt;Node33 -->
<g id="edge38" class="edge"><title>Node31&#45;&gt;Node33</title>
<path fill="none" stroke="midnightblue" d="M2207.27,-74.3717C2207.27,-64.6426 2207.27,-48.528 2207.27,-35.8504"/>
<polygon fill="midnightblue" stroke="midnightblue" points="2210.77,-35.8411 2207.27,-25.8411 2203.77,-35.8412 2210.77,-35.8411"/>
</g>
<!-- Node34&#45;&gt;Node16 -->
<g id="edge40" class="edge"><title>Node34&#45;&gt;Node16</title>
<path fill="none" stroke="midnightblue" d="M973.724,-74.3717C930.192,-61.6588 849.326,-38.043 806.168,-25.4392"/>
<polygon fill="midnightblue" stroke="midnightblue" points="807.134,-22.0752 796.554,-22.6316 805.172,-28.7946 807.134,-22.0752"/>
</g>
<!-- Node34&#45;&gt;Node18 -->
<g id="edge41" class="edge"><title>Node34&#45;&gt;Node18</title>
<path fill="none" stroke="midnightblue" d="M1029.09,-74.46C1037.92,-71.9046 1047.94,-69.4096 1057.27,-68 1331.17,-26.6281 2033.79,-96.1242 2303.27,-32 2305.78,-31.4035 2308.32,-30.5989 2310.83,-29.6707"/>
<polygon fill="midnightblue" stroke="midnightblue" points="2312.32,-32.8379 2320.11,-25.656 2309.54,-26.413 2312.32,-32.8379"/>
</g>
<!-- Node34&#45;&gt;Node23 -->
<g id="edge42" class="edge"><title>Node34&#45;&gt;Node23</title>
<path fill="none" stroke="midnightblue" d="M1031.4,-74.4276C1039.68,-72.1117 1048.79,-69.7619 1057.27,-68 1148.51,-49.0395 1254.08,-35.1454 1328.14,-26.6901"/>
<polygon fill="midnightblue" stroke="midnightblue" points="1328.83,-30.1343 1338.37,-25.5332 1328.04,-23.1785 1328.83,-30.1343"/>
</g>
<!-- Node35&#45;&gt;Node20 -->
<g id="edge48" class="edge"><title>Node35&#45;&gt;Node20</title>
<path fill="none" stroke="midnightblue" d="M1450.82,-272.933C1490.92,-262.873 1545.97,-248.886 1594.27,-236 1703.04,-206.979 1735.72,-214.434 1838.27,-168 1861.96,-157.272 1863.42,-146.371 1887.27,-136 1948.56,-109.351 1970.26,-122.291 2033.27,-100 2035.18,-99.3247 2037.13,-98.5742 2039.07,-97.7792"/>
<polygon fill="midnightblue" stroke="midnightblue" points="2040.86,-100.817 2048.59,-93.5745 2038.03,-94.4143 2040.86,-100.817"/>
</g>
<!-- Node35&#45;&gt;Node24 -->
<g id="edge63" class="edge"><title>Node35&#45;&gt;Node24</title>
<path fill="none" stroke="midnightblue" d="M1433.48,-272.913C1507.11,-246.462 1664.82,-189.803 1733.81,-165.021"/>
<polygon fill="midnightblue" stroke="midnightblue" points="1735.09,-168.278 1743.32,-161.603 1732.73,-161.69 1735.09,-168.278"/>
</g>
<!-- Node36 -->
<g id="node36" class="node"><title>Node36</title>
<polygon fill="none" stroke="#bfbfbf" points="1291.77,-210.5 1291.77,-229.5 1350.77,-229.5 1350.77,-210.5 1291.77,-210.5"/>
<text text-anchor="middle" x="1321.27" y="-217.5" font-family="Helvetica,sans-Serif" font-size="10.00">TObject.h</text>
</g>
<!-- Node35&#45;&gt;Node36 -->
<g id="edge44" class="edge"><title>Node35&#45;&gt;Node36</title>
<path fill="none" stroke="midnightblue" d="M1378.43,-272.679C1366.71,-262.082 1350.75,-247.655 1338.68,-236.736"/>
<polygon fill="midnightblue" stroke="midnightblue" points="1340.8,-233.939 1331.03,-229.828 1336.1,-239.131 1340.8,-233.939"/>
</g>
<!-- Node37 -->
<g id="node37" class="node"><title>Node37</title>
<polygon fill="none" stroke="#bfbfbf" points="898.77,-74.5 898.77,-93.5 939.77,-93.5 939.77,-74.5 898.77,-74.5"/>
<text text-anchor="middle" x="919.27" y="-81.5" font-family="Helvetica,sans-Serif" font-size="10.00">bitset</text>
</g>
<!-- Node35&#45;&gt;Node37 -->
<g id="edge45" class="edge"><title>Node35&#45;&gt;Node37</title>
<path fill="none" stroke="midnightblue" d="M1348.25,-272.97C1326.74,-264.736 1301.83,-252.628 1283.27,-236 1244.67,-201.415 1266.61,-164.426 1223.27,-136 1120.57,-68.6372 1066.71,-135.962 949.27,-100 947.349,-99.4118 945.401,-98.7097 943.468,-97.9351"/>
<polygon fill="midnightblue" stroke="midnightblue" points="944.673,-94.6373 934.124,-93.6494 941.755,-101 944.673,-94.6373"/>
</g>
<!-- Node38 -->
<g id="node38" class="node"><title>Node38</title>
<polygon fill="none" stroke="#bfbfbf" points="1369.27,-210.5 1369.27,-229.5 1419.27,-229.5 1419.27,-210.5 1369.27,-210.5"/>
<text text-anchor="middle" x="1394.27" y="-217.5" font-family="Helvetica,sans-Serif" font-size="10.00">iomanip</text>
</g>
<!-- Node35&#45;&gt;Node38 -->
<g id="edge46" class="edge"><title>Node35&#45;&gt;Node38</title>
<path fill="none" stroke="midnightblue" d="M1394.27,-272.679C1394.27,-263.101 1394.27,-250.394 1394.27,-239.977"/>
<polygon fill="midnightblue" stroke="midnightblue" points="1397.77,-239.828 1394.27,-229.828 1390.77,-239.828 1397.77,-239.828"/>
</g>
<!-- Node39 -->
<g id="node39" class="node"><title>Node39</title>
<polygon fill="none" stroke="#bfbfbf" points="1437.77,-210.5 1437.77,-229.5 1466.77,-229.5 1466.77,-210.5 1437.77,-210.5"/>
<text text-anchor="middle" x="1452.27" y="-217.5" font-family="Helvetica,sans-Serif" font-size="10.00">ios</text>
</g>
<!-- Node35&#45;&gt;Node39 -->
<g id="edge47" class="edge"><title>Node35&#45;&gt;Node39</title>
<path fill="none" stroke="midnightblue" d="M1406.85,-272.679C1415.99,-262.286 1428.36,-248.208 1437.88,-237.37"/>
<polygon fill="midnightblue" stroke="midnightblue" points="1440.54,-239.65 1444.51,-229.828 1435.28,-235.03 1440.54,-239.65"/>
</g>
<!-- Node40 -->
<g id="node40" class="node"><title>Node40</title>
<g id="a_node40"><a xlink:href="../../d4/d20/DetMatrixCache_8h.html" target="_top" xlink:title="DetectorsCommonDataFormats\l/DetMatrixCache.h">
<polygon fill="none" stroke="black" points="966.27,-205 966.27,-235 1122.27,-235 1122.27,-205 966.27,-205"/>
<text text-anchor="start" x="974.27" y="-223" font-family="Helvetica,sans-Serif" font-size="10.00">DetectorsCommonDataFormats</text>
<text text-anchor="middle" x="1044.27" y="-212" font-family="Helvetica,sans-Serif" font-size="10.00">/DetMatrixCache.h</text>
</a>
</g>
</g>
<!-- Node35&#45;&gt;Node40 -->
<g id="edge49" class="edge"><title>Node35&#45;&gt;Node40</title>
<path fill="none" stroke="midnightblue" d="M1323.86,-273.723C1267.63,-263.119 1188.64,-248.223 1128.95,-236.969"/>
<polygon fill="midnightblue" stroke="midnightblue" points="1129.27,-233.467 1118.8,-235.053 1127.97,-240.346 1129.27,-233.467"/>
</g>
<!-- Node40&#45;&gt;Node3 -->
<g id="edge53" class="edge"><title>Node40&#45;&gt;Node3</title>
<path fill="none" stroke="midnightblue" d="M966.121,-209.119C849.622,-194.389 635.448,-167.31 554.445,-157.068"/>
<polygon fill="midnightblue" stroke="midnightblue" points="554.721,-153.575 544.361,-155.793 553.843,-160.52 554.721,-153.575"/>
</g>
<!-- Node40&#45;&gt;Node16 -->
<g id="edge52" class="edge"><title>Node40&#45;&gt;Node16</title>
<path fill="none" stroke="midnightblue" d="M1045.16,-204.921C1045.52,-186.566 1043.23,-154.615 1025.27,-136 982.149,-91.3172 945.699,-127.994 890.27,-100 869.948,-89.7366 868.5,-81.6376 850.27,-68 833.149,-55.1925 813.222,-41.3389 798.517,-31.3073"/>
<polygon fill="midnightblue" stroke="midnightblue" points="800.348,-28.3195 790.108,-25.5986 796.416,-34.111 800.348,-28.3195"/>
</g>
<!-- Node40&#45;&gt;Node24 -->
<g id="edge62" class="edge"><title>Node40&#45;&gt;Node24</title>
<path fill="none" stroke="midnightblue" d="M1122.33,-211.874C1263.22,-199.013 1558.03,-172.101 1694.76,-159.619"/>
<polygon fill="midnightblue" stroke="midnightblue" points="1695.08,-163.104 1704.72,-158.71 1694.45,-156.133 1695.08,-163.104"/>
</g>
<!-- Node41 -->
<g id="node41" class="node"><title>Node41</title>
<polygon fill="none" stroke="#bfbfbf" points="1072.27,-142.5 1072.27,-161.5 1214.27,-161.5 1214.27,-142.5 1072.27,-142.5"/>
<text text-anchor="middle" x="1143.27" y="-149.5" font-family="Helvetica,sans-Serif" font-size="10.00">AliTPCCommonFairLogger.h</text>
</g>
<!-- Node40&#45;&gt;Node41 -->
<g id="edge50" class="edge"><title>Node40&#45;&gt;Node41</title>
<path fill="none" stroke="midnightblue" d="M1065.75,-204.679C1082.35,-193.611 1105.23,-178.363 1121.82,-167.3"/>
<polygon fill="midnightblue" stroke="midnightblue" points="1123.93,-170.097 1130.31,-161.638 1120.05,-164.273 1123.93,-170.097"/>
</g>
<!-- Node42 -->
<g id="node42" class="node"><title>Node42</title>
<polygon fill="none" stroke="#bfbfbf" points="888.27,-142.5 888.27,-161.5 1016.27,-161.5 1016.27,-142.5 888.27,-142.5"/>
<text text-anchor="middle" x="952.27" y="-149.5" font-family="Helvetica,sans-Serif" font-size="10.00">AliTPCCommonRtypes.h</text>
</g>
<!-- Node40&#45;&gt;Node42 -->
<g id="edge51" class="edge"><title>Node40&#45;&gt;Node42</title>
<path fill="none" stroke="midnightblue" d="M1024.31,-204.679C1009.02,-193.713 988.017,-178.645 972.633,-167.609"/>
<polygon fill="midnightblue" stroke="midnightblue" points="974.476,-164.623 964.311,-161.638 970.396,-170.311 974.476,-164.623"/>
</g>
<!-- Node43 -->
<g id="node43" class="node"><title>Node43</title>
<g id="a_node43"><a xlink:href="../../d6/d31/DetID_8h.html" target="_top" xlink:title="DetectorsCommonDataFormats\l/DetID.h">
<polygon fill="none" stroke="black" points="714.27,-137 714.27,-167 870.27,-167 870.27,-137 714.27,-137"/>
<text text-anchor="start" x="722.27" y="-155" font-family="Helvetica,sans-Serif" font-size="10.00">DetectorsCommonDataFormats</text>
<text text-anchor="middle" x="792.27" y="-144" font-family="Helvetica,sans-Serif" font-size="10.00">/DetID.h</text>
</a>
</g>
</g>
<!-- Node40&#45;&gt;Node43 -->
<g id="edge54" class="edge"><title>Node40&#45;&gt;Node43</title>
<path fill="none" stroke="midnightblue" d="M990.519,-204.922C951.041,-194.583 897.272,-180.501 855.69,-169.61"/>
<polygon fill="midnightblue" stroke="midnightblue" points="856.499,-166.204 845.938,-167.056 854.725,-172.976 856.499,-166.204"/>
</g>
<!-- Node43&#45;&gt;Node5 -->
<g id="edge55" class="edge"><title>Node43&#45;&gt;Node5</title>
<path fill="none" stroke="midnightblue" d="M757.088,-136.841C728.085,-125.169 687.33,-108.768 659.476,-97.5585"/>
<polygon fill="midnightblue" stroke="midnightblue" points="660.427,-94.1684 649.843,-93.6819 657.813,-100.662 660.427,-94.1684"/>
</g>
<!-- Node43&#45;&gt;Node8 -->
<g id="edge59" class="edge"><title>Node43&#45;&gt;Node8</title>
<path fill="none" stroke="midnightblue" d="M714.12,-143.621C562.057,-129.263 232.038,-98.1026 126.463,-88.1341"/>
<polygon fill="midnightblue" stroke="midnightblue" points="126.68,-84.6392 116.396,-87.1836 126.022,-91.6082 126.68,-84.6392"/>
</g>
<!-- Node43&#45;&gt;Node16 -->
<g id="edge56" class="edge"><title>Node43&#45;&gt;Node16</title>
<path fill="none" stroke="midnightblue" d="M748.975,-136.795C731.9,-128.826 714.056,-116.983 704.27,-100 697.169,-87.6774 697.696,-80.6118 704.27,-68 713.648,-50.0073 732.597,-37.0589 748.838,-28.7118"/>
<polygon fill="midnightblue" stroke="midnightblue" points="750.489,-31.8021 757.995,-24.3254 747.465,-25.489 750.489,-31.8021"/>
</g>
<!-- Node43&#45;&gt;Node34 -->
<g id="edge61" class="edge"><title>Node43&#45;&gt;Node34</title>
<path fill="none" stroke="midnightblue" d="M837.276,-136.922C875.775,-124.88 930.508,-107.76 966.444,-96.5191"/>
<polygon fill="midnightblue" stroke="midnightblue" points="967.552,-99.8396 976.052,-93.5138 965.463,-93.1588 967.552,-99.8396"/>
</g>
<!-- Node43&#45;&gt;Node37 -->
<g id="edge57" class="edge"><title>Node43&#45;&gt;Node37</title>
<path fill="none" stroke="midnightblue" d="M819.515,-136.841C841.482,-125.425 872.154,-109.485 893.671,-98.3033"/>
<polygon fill="midnightblue" stroke="midnightblue" points="895.304,-101.399 902.564,-93.6819 892.076,-95.1876 895.304,-101.399"/>
</g>
<!-- Node44 -->
<g id="node44" class="node"><title>Node44</title>
<polygon fill="none" stroke="#bfbfbf" points="712.77,-74.5 712.77,-93.5 761.77,-93.5 761.77,-74.5 712.77,-74.5"/>
<text text-anchor="middle" x="737.27" y="-81.5" font-family="Helvetica,sans-Serif" font-size="10.00">cassert</text>
</g>
<!-- Node43&#45;&gt;Node44 -->
<g id="edge58" class="edge"><title>Node43&#45;&gt;Node44</title>
<path fill="none" stroke="midnightblue" d="M780.336,-136.679C771.76,-126.388 760.173,-112.484 751.178,-101.69"/>
<polygon fill="midnightblue" stroke="midnightblue" points="753.717,-99.2699 744.627,-93.8283 748.34,-103.751 753.717,-99.2699"/>
</g>
<!-- Node45 -->
<g id="node45" class="node"><title>Node45</title>
<polygon fill="none" stroke="#bfbfbf" points="780.27,-74.5 780.27,-93.5 842.27,-93.5 842.27,-74.5 780.27,-74.5"/>
<text text-anchor="middle" x="811.27" y="-81.5" font-family="Helvetica,sans-Serif" font-size="10.00">type_traits</text>
</g>
<!-- Node43&#45;&gt;Node45 -->
<g id="edge60" class="edge"><title>Node43&#45;&gt;Node45</title>
<path fill="none" stroke="midnightblue" d="M796.393,-136.679C799.179,-126.999 802.886,-114.123 805.902,-103.645"/>
<polygon fill="midnightblue" stroke="midnightblue" points="809.325,-104.406 808.728,-93.8283 802.598,-102.47 809.325,-104.406"/>
</g>
<!-- Node46&#45;&gt;Node18 -->
<g id="edge66" class="edge"><title>Node46&#45;&gt;Node18</title>
<path fill="none" stroke="midnightblue" d="M2209.9,-210.32C2229.8,-179.635 2297.08,-75.8882 2324,-34.3783"/>
<polygon fill="midnightblue" stroke="midnightblue" points="2327.01,-36.1694 2329.51,-25.8748 2321.14,-32.3606 2327.01,-36.1694"/>
</g>
<!-- Node46&#45;&gt;Node24 -->
<g id="edge68" class="edge"><title>Node46&#45;&gt;Node24</title>
<path fill="none" stroke="midnightblue" d="M2147.59,-210.439C2067.03,-198.273 1919.71,-176.023 1833.99,-163.077"/>
<polygon fill="midnightblue" stroke="midnightblue" points="1834.26,-159.578 1823.85,-161.546 1833.22,-166.5 1834.26,-159.578"/>
</g>
<!-- Node46&#45;&gt;Node31 -->
<g id="edge67" class="edge"><title>Node46&#45;&gt;Node31</title>
<path fill="none" stroke="midnightblue" d="M2204.47,-210.208C2204.95,-188.722 2206.19,-133.167 2206.85,-103.814"/>
<polygon fill="midnightblue" stroke="midnightblue" points="2210.35,-103.726 2207.08,-93.6503 2203.35,-103.569 2210.35,-103.726"/>
</g>
</g>
</svg>
