<?xml version="1.0" encoding="UTF-8" standalone="no"?>
<!DOCTYPE svg PUBLIC "-//W3C//DTD SVG 1.1//EN"
 "http://www.w3.org/Graphics/SVG/1.1/DTD/svg11.dtd">
<!-- Generated by graphviz version 2.36.0 (20140111.2315)
 -->
<!-- Title: /home/travis/build/AliceO2Group/AliceO2/Detectors/TRD/simulation/src/Digitizer.cxx Pages: 1 -->
<svg width="2262pt" height="434pt"
 viewBox="0.00 0.00 2262.00 434.00" xmlns="http://www.w3.org/2000/svg" xmlns:xlink="http://www.w3.org/1999/xlink">
<g id="graph0" class="graph" transform="scale(1 1) rotate(0) translate(4 430)">
<title>/home/travis/build/AliceO2Group/AliceO2/Detectors/TRD/simulation/src/Digitizer.cxx</title>
<!-- Node1 -->
<g id="node1" class="node"><title>Node1</title>
<polygon fill="#bfbfbf" stroke="black" points="1209,-373 1209,-425 1343,-425 1343,-373 1209,-373"/>
<text text-anchor="start" x="1217" y="-413" font-family="Helvetica,sans-Serif" font-size="10.00">/home/travis/build</text>
<text text-anchor="start" x="1217" y="-402" font-family="Helvetica,sans-Serif" font-size="10.00">/AliceO2Group/AliceO2</text>
<text text-anchor="start" x="1217" y="-391" font-family="Helvetica,sans-Serif" font-size="10.00">/Detectors/TRD/simulation</text>
<text text-anchor="middle" x="1276" y="-380" font-family="Helvetica,sans-Serif" font-size="10.00">/src/Digitizer.cxx</text>
</g>
<!-- Node2 -->
<g id="node2" class="node"><title>Node2</title>
<g id="a_node2"><a xlink:href="../../d4/dae/TRD_2simulation_2include_2TRDSimulation_2Digitizer_8h.html" target="_top" xlink:title="TRDSimulation/Digitizer.h">
<polygon fill="none" stroke="black" points="1210.5,-316.5 1210.5,-335.5 1341.5,-335.5 1341.5,-316.5 1210.5,-316.5"/>
<text text-anchor="middle" x="1276" y="-323.5" font-family="Helvetica,sans-Serif" font-size="10.00">TRDSimulation/Digitizer.h</text>
</a>
</g>
</g>
<!-- Node1&#45;&gt;Node2 -->
<g id="edge1" class="edge"><title>Node1&#45;&gt;Node2</title>
<path fill="none" stroke="midnightblue" d="M1276,-372.768C1276,-363.89 1276,-354.074 1276,-345.816"/>
<polygon fill="midnightblue" stroke="midnightblue" points="1279.5,-345.757 1276,-335.757 1272.5,-345.757 1279.5,-345.757"/>
</g>
<!-- Node3 -->
<g id="node3" class="node"><title>Node3</title>
<g id="a_node3"><a xlink:href="../../d0/d35/TRD_2base_2include_2TRDBase_2Digit_8h.html" target="_top" xlink:title="TRDBase/Digit.h">
<polygon fill="none" stroke="black" points="1165,-260.5 1165,-279.5 1257,-279.5 1257,-260.5 1165,-260.5"/>
<text text-anchor="middle" x="1211" y="-267.5" font-family="Helvetica,sans-Serif" font-size="10.00">TRDBase/Digit.h</text>
</a>
</g>
</g>
<!-- Node2&#45;&gt;Node3 -->
<g id="edge2" class="edge"><title>Node2&#45;&gt;Node3</title>
<path fill="none" stroke="midnightblue" d="M1265.56,-316.324C1255.85,-308.263 1241.18,-296.077 1229.5,-286.369"/>
<polygon fill="midnightblue" stroke="midnightblue" points="1231.56,-283.532 1221.63,-279.834 1227.09,-288.916 1231.56,-283.532"/>
</g>
<!-- Node4 -->
<g id="node4" class="node"><title>Node4</title>
<g id="a_node4"><a xlink:href="../../df/df0/TRD_2simulation_2include_2TRDSimulation_2Detector_8h.html" target="_top" xlink:title="TRDSimulation/Detector.h">
<polygon fill="none" stroke="black" points="1275,-260.5 1275,-279.5 1407,-279.5 1407,-260.5 1275,-260.5"/>
<text text-anchor="middle" x="1341" y="-267.5" font-family="Helvetica,sans-Serif" font-size="10.00">TRDSimulation/Detector.h</text>
</a>
</g>
</g>
<!-- Node2&#45;&gt;Node4 -->
<g id="edge3" class="edge"><title>Node2&#45;&gt;Node4</title>
<path fill="none" stroke="midnightblue" d="M1286.44,-316.324C1296.15,-308.263 1310.82,-296.077 1322.5,-286.369"/>
<polygon fill="midnightblue" stroke="midnightblue" points="1324.91,-288.916 1330.37,-279.834 1320.44,-283.532 1324.91,-288.916"/>
</g>
<!-- Node5 -->
<g id="node5" class="node"><title>Node5</title>
<polygon fill="none" stroke="#bfbfbf" points="866,-136.5 866,-155.5 910,-155.5 910,-136.5 866,-136.5"/>
<text text-anchor="middle" x="888" y="-143.5" font-family="Helvetica,sans-Serif" font-size="10.00">vector</text>
</g>
<!-- Node4&#45;&gt;Node5 -->
<g id="edge4" class="edge"><title>Node4&#45;&gt;Node5</title>
<path fill="none" stroke="midnightblue" d="M1308.11,-260.442C1238.51,-242.284 1071.05,-198.303 920.243,-156.308"/>
<polygon fill="midnightblue" stroke="midnightblue" points="920.908,-152.86 910.335,-153.545 919.027,-159.602 920.908,-152.86"/>
</g>
<!-- Node6 -->
<g id="node6" class="node"><title>Node6</title>
<g id="a_node6"><a xlink:href="../../d1/d3a/Base_2include_2DetectorsBase_2Detector_8h.html" target="_top" xlink:title="DetectorsBase/Detector.h">
<polygon fill="none" stroke="black" points="1457.5,-198.5 1457.5,-217.5 1588.5,-217.5 1588.5,-198.5 1457.5,-198.5"/>
<text text-anchor="middle" x="1523" y="-205.5" font-family="Helvetica,sans-Serif" font-size="10.00">DetectorsBase/Detector.h</text>
</a>
</g>
</g>
<!-- Node4&#45;&gt;Node6 -->
<g id="edge5" class="edge"><title>Node4&#45;&gt;Node6</title>
<path fill="none" stroke="midnightblue" d="M1367.08,-260.403C1398.57,-250.022 1451.7,-232.506 1487.06,-220.849"/>
<polygon fill="midnightblue" stroke="midnightblue" points="1488.57,-224.036 1496.97,-217.581 1486.38,-217.388 1488.57,-224.036"/>
</g>
<!-- Node25 -->
<g id="node25" class="node"><title>Node25</title>
<g id="a_node25"><a xlink:href="../../d0/d91/ShmAllocator_8h.html" target="_top" xlink:title="CommonUtils/ShmAllocator.h">
<polygon fill="none" stroke="black" points="2108,-136.5 2108,-155.5 2254,-155.5 2254,-136.5 2108,-136.5"/>
<text text-anchor="middle" x="2181" y="-143.5" font-family="Helvetica,sans-Serif" font-size="10.00">CommonUtils/ShmAllocator.h</text>
</a>
</g>
</g>
<!-- Node4&#45;&gt;Node25 -->
<g id="edge47" class="edge"><title>Node4&#45;&gt;Node25</title>
<path fill="none" stroke="midnightblue" d="M1399.73,-260.47C1550.46,-238.578 1950.43,-180.487 2111.93,-157.032"/>
<polygon fill="midnightblue" stroke="midnightblue" points="2112.82,-160.439 2122.21,-155.538 2111.81,-153.512 2112.82,-160.439"/>
</g>
<!-- Node29 -->
<g id="node29" class="node"><title>Node29</title>
<g id="a_node29"><a xlink:href="../../d4/d25/BaseHits_8h.html" target="_top" xlink:title="SimulationDataFormat\l/BaseHits.h">
<polygon fill="none" stroke="black" points="716,-193 716,-223 830,-223 830,-193 716,-193"/>
<text text-anchor="start" x="724" y="-211" font-family="Helvetica,sans-Serif" font-size="10.00">SimulationDataFormat</text>
<text text-anchor="middle" x="773" y="-200" font-family="Helvetica,sans-Serif" font-size="10.00">/BaseHits.h</text>
</a>
</g>
</g>
<!-- Node4&#45;&gt;Node29 -->
<g id="edge34" class="edge"><title>Node4&#45;&gt;Node29</title>
<path fill="none" stroke="midnightblue" d="M1274.75,-260.991C1271.8,-260.652 1268.87,-260.32 1266,-260 1113.98,-243.017 935.355,-225.027 840.384,-215.619"/>
<polygon fill="midnightblue" stroke="midnightblue" points="840.637,-212.127 830.341,-214.625 839.948,-219.093 840.637,-212.127"/>
</g>
<!-- Node6&#45;&gt;Node5 -->
<g id="edge7" class="edge"><title>Node6&#45;&gt;Node5</title>
<path fill="none" stroke="midnightblue" d="M1457.19,-205.704C1347.44,-202.611 1120.19,-192.24 920.322,-155.888"/>
<polygon fill="midnightblue" stroke="midnightblue" points="920.693,-152.397 910.224,-154.024 919.423,-159.281 920.693,-152.397"/>
</g>
<!-- Node7 -->
<g id="node7" class="node"><title>Node7</title>
<polygon fill="none" stroke="#bfbfbf" points="1297.5,-74.5 1297.5,-93.5 1332.5,-93.5 1332.5,-74.5 1297.5,-74.5"/>
<text text-anchor="middle" x="1315" y="-81.5" font-family="Helvetica,sans-Serif" font-size="10.00">map</text>
</g>
<!-- Node6&#45;&gt;Node7 -->
<g id="edge6" class="edge"><title>Node6&#45;&gt;Node7</title>
<path fill="none" stroke="midnightblue" d="M1457.33,-205.325C1378.5,-201.768 1253.25,-190.661 1224,-156 1218.27,-149.207 1219.51,-143.669 1224,-136 1224.96,-134.366 1263.52,-113.092 1290.13,-98.5425"/>
<polygon fill="midnightblue" stroke="midnightblue" points="1291.86,-101.584 1298.96,-93.7198 1288.51,-95.4396 1291.86,-101.584"/>
</g>
<!-- Node8 -->
<g id="node8" class="node"><title>Node8</title>
<polygon fill="none" stroke="#bfbfbf" points="1495.5,-74.5 1495.5,-93.5 1568.5,-93.5 1568.5,-74.5 1495.5,-74.5"/>
<text text-anchor="middle" x="1532" y="-81.5" font-family="Helvetica,sans-Serif" font-size="10.00">initializer_list</text>
</g>
<!-- Node6&#45;&gt;Node8 -->
<g id="edge8" class="edge"><title>Node6&#45;&gt;Node8</title>
<path fill="none" stroke="midnightblue" d="M1531.06,-198.446C1539.41,-188.936 1551.94,-172.703 1557,-156 1562.65,-137.327 1553.21,-116.286 1544.36,-101.99"/>
<polygon fill="midnightblue" stroke="midnightblue" points="1547.26,-100.029 1538.79,-93.6617 1541.44,-103.92 1547.26,-100.029"/>
</g>
<!-- Node9 -->
<g id="node9" class="node"><title>Node9</title>
<polygon fill="none" stroke="#bfbfbf" points="1643,-136.5 1643,-155.5 1695,-155.5 1695,-136.5 1643,-136.5"/>
<text text-anchor="middle" x="1669" y="-143.5" font-family="Helvetica,sans-Serif" font-size="10.00">memory</text>
</g>
<!-- Node6&#45;&gt;Node9 -->
<g id="edge9" class="edge"><title>Node6&#45;&gt;Node9</title>
<path fill="none" stroke="midnightblue" d="M1543.92,-198.403C1568.75,-188.2 1610.34,-171.105 1638.69,-159.454"/>
<polygon fill="midnightblue" stroke="midnightblue" points="1640.2,-162.619 1648.12,-155.581 1637.54,-156.144 1640.2,-162.619"/>
</g>
<!-- Node10 -->
<g id="node10" class="node"><title>Node10</title>
<polygon fill="none" stroke="#bfbfbf" points="1713.5,-136.5 1713.5,-155.5 1792.5,-155.5 1792.5,-136.5 1713.5,-136.5"/>
<text text-anchor="middle" x="1753" y="-143.5" font-family="Helvetica,sans-Serif" font-size="10.00">FairDetector.h</text>
</g>
<!-- Node6&#45;&gt;Node10 -->
<g id="edge10" class="edge"><title>Node6&#45;&gt;Node10</title>
<path fill="none" stroke="midnightblue" d="M1555.95,-198.403C1596.6,-187.799 1665.79,-169.751 1710.42,-158.107"/>
<polygon fill="midnightblue" stroke="midnightblue" points="1711.32,-161.492 1720.11,-155.581 1709.55,-154.718 1711.32,-161.492"/>
</g>
<!-- Node11 -->
<g id="node11" class="node"><title>Node11</title>
<polygon fill="none" stroke="#bfbfbf" points="1811,-136.5 1811,-155.5 1911,-155.5 1911,-136.5 1811,-136.5"/>
<text text-anchor="middle" x="1861" y="-143.5" font-family="Helvetica,sans-Serif" font-size="10.00">FairRootManager.h</text>
</g>
<!-- Node6&#45;&gt;Node11 -->
<g id="edge11" class="edge"><title>Node6&#45;&gt;Node11</title>
<path fill="none" stroke="midnightblue" d="M1571.07,-198.467C1632.14,-187.626 1737.45,-168.932 1802.94,-157.306"/>
<polygon fill="midnightblue" stroke="midnightblue" points="1803.86,-160.697 1813.1,-155.503 1802.64,-153.805 1803.86,-160.697"/>
</g>
<!-- Node12 -->
<g id="node12" class="node"><title>Node12</title>
<g id="a_node12"><a xlink:href="../../d0/d9a/MaterialManager_8h.html" target="_top" xlink:title="DetectorsBase/MaterialManager.h">
<polygon fill="none" stroke="black" points="1233.5,-136.5 1233.5,-155.5 1398.5,-155.5 1398.5,-136.5 1233.5,-136.5"/>
<text text-anchor="middle" x="1316" y="-143.5" font-family="Helvetica,sans-Serif" font-size="10.00">DetectorsBase/MaterialManager.h</text>
</a>
</g>
</g>
<!-- Node6&#45;&gt;Node12 -->
<g id="edge12" class="edge"><title>Node6&#45;&gt;Node12</title>
<path fill="none" stroke="midnightblue" d="M1493.34,-198.403C1457.07,-187.889 1395.54,-170.054 1355.34,-158.402"/>
<polygon fill="midnightblue" stroke="midnightblue" points="1356.18,-155.003 1345.6,-155.581 1354.23,-161.726 1356.18,-155.003"/>
</g>
<!-- Node13 -->
<g id="node13" class="node"><title>Node13</title>
<polygon fill="none" stroke="#bfbfbf" points="1223,-74.5 1223,-93.5 1279,-93.5 1279,-74.5 1223,-74.5"/>
<text text-anchor="middle" x="1251" y="-81.5" font-family="Helvetica,sans-Serif" font-size="10.00">Rtypes.h</text>
</g>
<!-- Node6&#45;&gt;Node13 -->
<g id="edge17" class="edge"><title>Node6&#45;&gt;Node13</title>
<path fill="none" stroke="midnightblue" d="M1457.2,-205.617C1376.64,-202.372 1247.16,-191.598 1217,-156 1203.01,-139.483 1219.35,-116.225 1233.84,-100.891"/>
<polygon fill="midnightblue" stroke="midnightblue" points="1236.47,-103.211 1241.08,-93.6718 1231.53,-98.2541 1236.47,-103.211"/>
</g>
<!-- Node15 -->
<g id="node15" class="node"><title>Node15</title>
<polygon fill="none" stroke="#bfbfbf" points="1929.5,-136.5 1929.5,-155.5 1982.5,-155.5 1982.5,-136.5 1929.5,-136.5"/>
<text text-anchor="middle" x="1956" y="-143.5" font-family="Helvetica,sans-Serif" font-size="10.00">cxxabi.h</text>
</g>
<!-- Node6&#45;&gt;Node15 -->
<g id="edge18" class="edge"><title>Node6&#45;&gt;Node15</title>
<path fill="none" stroke="midnightblue" d="M1588.7,-200.942C1665.66,-193.313 1797.1,-178.626 1919.42,-155.899"/>
<polygon fill="midnightblue" stroke="midnightblue" points="1920.16,-159.322 1929.34,-154.035 1918.87,-152.442 1920.16,-159.322"/>
</g>
<!-- Node16 -->
<g id="node16" class="node"><title>Node16</title>
<polygon fill="none" stroke="#bfbfbf" points="2000.5,-136.5 2000.5,-155.5 2051.5,-155.5 2051.5,-136.5 2000.5,-136.5"/>
<text text-anchor="middle" x="2026" y="-143.5" font-family="Helvetica,sans-Serif" font-size="10.00">typeinfo</text>
</g>
<!-- Node6&#45;&gt;Node16 -->
<g id="edge19" class="edge"><title>Node6&#45;&gt;Node16</title>
<path fill="none" stroke="midnightblue" d="M1588.54,-202.831C1677.39,-196.52 1841.11,-182.561 1990.22,-155.872"/>
<polygon fill="midnightblue" stroke="midnightblue" points="1991.26,-159.241 2000.48,-154.012 1990.02,-152.353 1991.26,-159.241"/>
</g>
<!-- Node17 -->
<g id="node17" class="node"><title>Node17</title>
<polygon fill="none" stroke="#bfbfbf" points="928,-136.5 928,-155.5 990,-155.5 990,-136.5 928,-136.5"/>
<text text-anchor="middle" x="959" y="-143.5" font-family="Helvetica,sans-Serif" font-size="10.00">type_traits</text>
</g>
<!-- Node6&#45;&gt;Node17 -->
<g id="edge20" class="edge"><title>Node6&#45;&gt;Node17</title>
<path fill="none" stroke="midnightblue" d="M1457.31,-203.237C1359.67,-197.062 1170.38,-182.863 1000.5,-156.062"/>
<polygon fill="midnightblue" stroke="midnightblue" points="1000.8,-152.566 990.371,-154.446 999.695,-159.478 1000.8,-152.566"/>
</g>
<!-- Node18 -->
<g id="node18" class="node"><title>Node18</title>
<polygon fill="none" stroke="#bfbfbf" points="1008.5,-136.5 1008.5,-155.5 1049.5,-155.5 1049.5,-136.5 1008.5,-136.5"/>
<text text-anchor="middle" x="1029" y="-143.5" font-family="Helvetica,sans-Serif" font-size="10.00">string</text>
</g>
<!-- Node6&#45;&gt;Node18 -->
<g id="edge21" class="edge"><title>Node6&#45;&gt;Node18</title>
<path fill="none" stroke="midnightblue" d="M1457.31,-203.768C1368.71,-198.531 1206.05,-185.82 1059.84,-156.052"/>
<polygon fill="midnightblue" stroke="midnightblue" points="1060.29,-152.572 1049.78,-153.973 1058.87,-159.426 1060.29,-152.572"/>
</g>
<!-- Node19 -->
<g id="node19" class="node"><title>Node19</title>
<polygon fill="none" stroke="#bfbfbf" points="1067.5,-136.5 1067.5,-155.5 1138.5,-155.5 1138.5,-136.5 1067.5,-136.5"/>
<text text-anchor="middle" x="1103" y="-143.5" font-family="Helvetica,sans-Serif" font-size="10.00">TMessage.h</text>
</g>
<!-- Node6&#45;&gt;Node19 -->
<g id="edge22" class="edge"><title>Node6&#45;&gt;Node19</title>
<path fill="none" stroke="midnightblue" d="M1457.38,-198.783C1383.32,-189.318 1259.31,-172.887 1153,-156 1151.56,-155.771 1150.09,-155.534 1148.61,-155.29"/>
<polygon fill="midnightblue" stroke="midnightblue" points="1149.19,-151.839 1138.75,-153.619 1148.02,-158.741 1149.19,-151.839"/>
</g>
<!-- Node20 -->
<g id="node20" class="node"><title>Node20</title>
<g id="a_node20"><a xlink:href="../../de/d61/ShmManager_8h.html" target="_top" xlink:title="CommonUtils/ShmManager.h">
<polygon fill="none" stroke="black" points="1764,-74.5 1764,-93.5 1910,-93.5 1910,-74.5 1764,-74.5"/>
<text text-anchor="middle" x="1837" y="-81.5" font-family="Helvetica,sans-Serif" font-size="10.00">CommonUtils/ShmManager.h</text>
</a>
</g>
</g>
<!-- Node6&#45;&gt;Node20 -->
<g id="edge23" class="edge"><title>Node6&#45;&gt;Node20</title>
<path fill="none" stroke="midnightblue" d="M1533.67,-198.478C1552.72,-183.67 1594.31,-153.139 1634,-136 1679,-116.571 1732.93,-103.458 1773.89,-95.3988"/>
<polygon fill="midnightblue" stroke="midnightblue" points="1774.59,-98.8296 1783.75,-93.5077 1773.27,-91.955 1774.59,-98.8296"/>
</g>
<!-- Node6&#45;&gt;Node25 -->
<g id="edge28" class="edge"><title>Node6&#45;&gt;Node25</title>
<path fill="none" stroke="midnightblue" d="M1588.54,-201.447C1694.73,-192.381 1910.97,-173.64 2094,-156 2095.28,-155.877 2096.56,-155.753 2097.86,-155.626"/>
<polygon fill="midnightblue" stroke="midnightblue" points="2098.3,-159.1 2107.91,-154.636 2097.61,-152.134 2098.3,-159.1"/>
</g>
<!-- Node26 -->
<g id="node26" class="node"><title>Node26</title>
<polygon fill="none" stroke="#bfbfbf" points="2105.5,-74.5 2105.5,-93.5 2154.5,-93.5 2154.5,-74.5 2105.5,-74.5"/>
<text text-anchor="middle" x="2130" y="-81.5" font-family="Helvetica,sans-Serif" font-size="10.00">cassert</text>
</g>
<!-- Node6&#45;&gt;Node26 -->
<g id="edge33" class="edge"><title>Node6&#45;&gt;Node26</title>
<path fill="none" stroke="midnightblue" d="M1588.76,-206.318C1713.24,-204.125 1978.16,-194.886 2060,-156 2085.2,-144.028 2106.41,-118.992 2118.67,-102.085"/>
<polygon fill="midnightblue" stroke="midnightblue" points="2121.69,-103.871 2124.53,-93.663 2115.94,-99.8735 2121.69,-103.871"/>
</g>
<!-- Node27 -->
<g id="node27" class="node"><title>Node27</title>
<polygon fill="none" stroke="#bfbfbf" points="1417,-136.5 1417,-155.5 1479,-155.5 1479,-136.5 1417,-136.5"/>
<text text-anchor="middle" x="1448" y="-143.5" font-family="Helvetica,sans-Serif" font-size="10.00">sys/shm.h</text>
</g>
<!-- Node6&#45;&gt;Node27 -->
<g id="edge31" class="edge"><title>Node6&#45;&gt;Node27</title>
<path fill="none" stroke="midnightblue" d="M1512.25,-198.403C1500.45,-188.958 1481.26,-173.606 1466.92,-162.134"/>
<polygon fill="midnightblue" stroke="midnightblue" points="1468.72,-159.095 1458.73,-155.581 1464.35,-164.561 1468.72,-159.095"/>
</g>
<!-- Node28 -->
<g id="node28" class="node"><title>Node28</title>
<polygon fill="none" stroke="#bfbfbf" points="1497.5,-136.5 1497.5,-155.5 1548.5,-155.5 1548.5,-136.5 1497.5,-136.5"/>
<text text-anchor="middle" x="1523" y="-143.5" font-family="Helvetica,sans-Serif" font-size="10.00">unistd.h</text>
</g>
<!-- Node6&#45;&gt;Node28 -->
<g id="edge32" class="edge"><title>Node6&#45;&gt;Node28</title>
<path fill="none" stroke="midnightblue" d="M1523,-198.403C1523,-189.938 1523,-176.728 1523,-165.82"/>
<polygon fill="midnightblue" stroke="midnightblue" points="1526.5,-165.581 1523,-155.581 1519.5,-165.581 1526.5,-165.581"/>
</g>
<!-- Node12&#45;&gt;Node7 -->
<g id="edge14" class="edge"><title>Node12&#45;&gt;Node7</title>
<path fill="none" stroke="midnightblue" d="M1315.86,-136.403C1315.72,-127.938 1315.5,-114.728 1315.31,-103.82"/>
<polygon fill="midnightblue" stroke="midnightblue" points="1318.81,-103.521 1315.14,-93.5806 1311.81,-103.638 1318.81,-103.521"/>
</g>
<!-- Node12&#45;&gt;Node8 -->
<g id="edge16" class="edge"><title>Node12&#45;&gt;Node8</title>
<path fill="none" stroke="midnightblue" d="M1346.95,-136.403C1384.88,-125.866 1449.28,-107.978 1491.22,-96.3276"/>
<polygon fill="midnightblue" stroke="midnightblue" points="1492.41,-99.6294 1501.11,-93.5806 1490.54,-92.8848 1492.41,-99.6294"/>
</g>
<!-- Node12&#45;&gt;Node13 -->
<g id="edge13" class="edge"><title>Node12&#45;&gt;Node13</title>
<path fill="none" stroke="midnightblue" d="M1306.69,-136.403C1296.55,-127.047 1280.14,-111.895 1267.75,-100.46"/>
<polygon fill="midnightblue" stroke="midnightblue" points="1270.02,-97.7916 1260.3,-93.5806 1265.27,-102.935 1270.02,-97.7916"/>
</g>
<!-- Node14 -->
<g id="node14" class="node"><title>Node14</title>
<polygon fill="none" stroke="#bfbfbf" points="1350.5,-74.5 1350.5,-93.5 1433.5,-93.5 1433.5,-74.5 1350.5,-74.5"/>
<text text-anchor="middle" x="1392" y="-81.5" font-family="Helvetica,sans-Serif" font-size="10.00">unordered_map</text>
</g>
<!-- Node12&#45;&gt;Node14 -->
<g id="edge15" class="edge"><title>Node12&#45;&gt;Node14</title>
<path fill="none" stroke="midnightblue" d="M1326.89,-136.403C1338.97,-126.869 1358.67,-111.315 1373.24,-99.8106"/>
<polygon fill="midnightblue" stroke="midnightblue" points="1375.45,-102.524 1381.13,-93.5806 1371.11,-97.03 1375.45,-102.524"/>
</g>
<!-- Node21 -->
<g id="node21" class="node"><title>Node21</title>
<polygon fill="none" stroke="#bfbfbf" points="1868.5,-6.5 1868.5,-25.5 1897.5,-25.5 1897.5,-6.5 1868.5,-6.5"/>
<text text-anchor="middle" x="1883" y="-13.5" font-family="Helvetica,sans-Serif" font-size="10.00">list</text>
</g>
<!-- Node20&#45;&gt;Node21 -->
<g id="edge24" class="edge"><title>Node20&#45;&gt;Node21</title>
<path fill="none" stroke="midnightblue" d="M1843.01,-74.3717C1850.07,-64.2495 1861.94,-47.2154 1870.92,-34.3312"/>
<polygon fill="midnightblue" stroke="midnightblue" points="1873.99,-36.0464 1876.84,-25.8411 1868.25,-32.0438 1873.99,-36.0464"/>
</g>
<!-- Node22 -->
<g id="node22" class="node"><title>Node22</title>
<polygon fill="none" stroke="#bfbfbf" points="1915.5,-6.5 1915.5,-25.5 1964.5,-25.5 1964.5,-6.5 1915.5,-6.5"/>
<text text-anchor="middle" x="1940" y="-13.5" font-family="Helvetica,sans-Serif" font-size="10.00">cstddef</text>
</g>
<!-- Node20&#45;&gt;Node22 -->
<g id="edge25" class="edge"><title>Node20&#45;&gt;Node22</title>
<path fill="none" stroke="midnightblue" d="M1850.47,-74.3717C1867.58,-63.4027 1897.37,-44.317 1917.85,-31.1912"/>
<polygon fill="midnightblue" stroke="midnightblue" points="1920,-33.9726 1926.53,-25.6305 1916.22,-28.0788 1920,-33.9726"/>
</g>
<!-- Node23 -->
<g id="node23" class="node"><title>Node23</title>
<polygon fill="none" stroke="#bfbfbf" points="1565,-1 1565,-31 1713,-31 1713,-1 1565,-1"/>
<text text-anchor="start" x="1573" y="-19" font-family="Helvetica,sans-Serif" font-size="10.00">boost/interprocess</text>
<text text-anchor="middle" x="1639" y="-8" font-family="Helvetica,sans-Serif" font-size="10.00">/managed_external_buffer.hpp</text>
</g>
<!-- Node20&#45;&gt;Node23 -->
<g id="edge26" class="edge"><title>Node20&#45;&gt;Node23</title>
<path fill="none" stroke="midnightblue" d="M1811.11,-74.3717C1780.67,-64.2249 1729.4,-47.1327 1690.71,-34.2375"/>
<polygon fill="midnightblue" stroke="midnightblue" points="1691.76,-30.8982 1681.17,-31.0562 1689.55,-37.539 1691.76,-30.8982"/>
</g>
<!-- Node24 -->
<g id="node24" class="node"><title>Node24</title>
<polygon fill="none" stroke="#bfbfbf" points="1731,-1 1731,-31 1851,-31 1851,-1 1731,-1"/>
<text text-anchor="start" x="1739" y="-19" font-family="Helvetica,sans-Serif" font-size="10.00">boost/interprocess</text>
<text text-anchor="middle" x="1791" y="-8" font-family="Helvetica,sans-Serif" font-size="10.00">/allocators/allocator.hpp</text>
</g>
<!-- Node20&#45;&gt;Node24 -->
<g id="edge27" class="edge"><title>Node20&#45;&gt;Node24</title>
<path fill="none" stroke="midnightblue" d="M1830.99,-74.3717C1824.83,-65.5429 1815.01,-51.4557 1806.65,-39.4503"/>
<polygon fill="midnightblue" stroke="midnightblue" points="1809.47,-37.3842 1800.88,-31.1815 1803.73,-41.3867 1809.47,-37.3842"/>
</g>
<!-- Node25&#45;&gt;Node20 -->
<g id="edge29" class="edge"><title>Node25&#45;&gt;Node20</title>
<path fill="none" stroke="midnightblue" d="M2132.08,-136.467C2069.8,-125.604 1962.3,-106.855 1895.68,-95.2346"/>
<polygon fill="midnightblue" stroke="midnightblue" points="1896.21,-91.7738 1885.75,-93.5034 1895,-98.6697 1896.21,-91.7738"/>
</g>
<!-- Node25&#45;&gt;Node26 -->
<g id="edge30" class="edge"><title>Node25&#45;&gt;Node26</title>
<path fill="none" stroke="midnightblue" d="M2173.69,-136.403C2165.97,-127.314 2153.59,-112.756 2143.98,-101.449"/>
<polygon fill="midnightblue" stroke="midnightblue" points="2146.44,-98.9332 2137.29,-93.5806 2141.1,-103.467 2146.44,-98.9332"/>
</g>
<!-- Node30 -->
<g id="node30" class="node"><title>Node30</title>
<g id="a_node30"><a xlink:href="../../dd/d76/Cartesian3D_8h.html" target="_top" xlink:title="MathUtils/Cartesian3D.h">
<polygon fill="none" stroke="black" points="651.5,-136.5 651.5,-155.5 776.5,-155.5 776.5,-136.5 651.5,-136.5"/>
<text text-anchor="middle" x="714" y="-143.5" font-family="Helvetica,sans-Serif" font-size="10.00">MathUtils/Cartesian3D.h</text>
</a>
</g>
</g>
<!-- Node29&#45;&gt;Node30 -->
<g id="edge35" class="edge"><title>Node29&#45;&gt;Node30</title>
<path fill="none" stroke="midnightblue" d="M759.018,-192.781C750.179,-183.792 738.743,-172.162 729.609,-162.873"/>
<polygon fill="midnightblue" stroke="midnightblue" points="732.092,-160.407 722.585,-155.731 727.101,-165.315 732.092,-160.407"/>
</g>
<!-- Node30&#45;&gt;Node13 -->
<g id="edge41" class="edge"><title>Node30&#45;&gt;Node13</title>
<path fill="none" stroke="midnightblue" d="M776.683,-140.398C901.452,-131.087 1172.49,-110.046 1214,-100 1217.07,-99.2576 1220.21,-98.3048 1223.31,-97.2399"/>
<polygon fill="midnightblue" stroke="midnightblue" points="1224.82,-100.413 1232.91,-93.5767 1222.32,-93.8736 1224.82,-100.413"/>
</g>
<!-- Node31 -->
<g id="node31" class="node"><title>Node31</title>
<polygon fill="none" stroke="#bfbfbf" points="246.5,-69 246.5,-99 397.5,-99 397.5,-69 246.5,-69"/>
<text text-anchor="start" x="254.5" y="-87" font-family="Helvetica,sans-Serif" font-size="10.00">Math/GenVector/Displacement</text>
<text text-anchor="middle" x="322" y="-76" font-family="Helvetica,sans-Serif" font-size="10.00">Vector3D.h</text>
</g>
<!-- Node30&#45;&gt;Node31 -->
<g id="edge36" class="edge"><title>Node30&#45;&gt;Node31</title>
<path fill="none" stroke="midnightblue" d="M652.177,-136.477C592.302,-128.1 498.688,-114.682 407.483,-100.05"/>
<polygon fill="midnightblue" stroke="midnightblue" points="407.954,-96.5805 397.524,-98.4455 406.841,-103.491 407.954,-96.5805"/>
</g>
<!-- Node32 -->
<g id="node32" class="node"><title>Node32</title>
<polygon fill="none" stroke="#bfbfbf" points="416,-74.5 416,-93.5 592,-93.5 592,-74.5 416,-74.5"/>
<text text-anchor="middle" x="504" y="-81.5" font-family="Helvetica,sans-Serif" font-size="10.00">Math/GenVector/PositionVector3D.h</text>
</g>
<!-- Node30&#45;&gt;Node32 -->
<g id="edge37" class="edge"><title>Node30&#45;&gt;Node32</title>
<path fill="none" stroke="midnightblue" d="M683.912,-136.403C647.11,-125.889 584.689,-108.054 543.906,-96.4016"/>
<polygon fill="midnightblue" stroke="midnightblue" points="544.609,-92.9625 534.032,-93.5806 542.686,-99.6932 544.609,-92.9625"/>
</g>
<!-- Node33 -->
<g id="node33" class="node"><title>Node33</title>
<polygon fill="none" stroke="#bfbfbf" points="609.5,-74.5 609.5,-93.5 758.5,-93.5 758.5,-74.5 609.5,-74.5"/>
<text text-anchor="middle" x="684" y="-81.5" font-family="Helvetica,sans-Serif" font-size="10.00">Math/GenVector/Rotation3D.h</text>
</g>
<!-- Node30&#45;&gt;Node33 -->
<g id="edge38" class="edge"><title>Node30&#45;&gt;Node33</title>
<path fill="none" stroke="midnightblue" d="M709.702,-136.403C705.335,-127.671 698.445,-113.889 692.897,-102.794"/>
<polygon fill="midnightblue" stroke="midnightblue" points="695.893,-100.96 688.29,-93.5806 689.632,-104.09 695.893,-100.96"/>
</g>
<!-- Node34 -->
<g id="node34" class="node"><title>Node34</title>
<polygon fill="none" stroke="#bfbfbf" points="777,-74.5 777,-93.5 933,-93.5 933,-74.5 777,-74.5"/>
<text text-anchor="middle" x="855" y="-81.5" font-family="Helvetica,sans-Serif" font-size="10.00">Math/GenVector/Transform3D.h</text>
</g>
<!-- Node30&#45;&gt;Node34 -->
<g id="edge39" class="edge"><title>Node30&#45;&gt;Node34</title>
<path fill="none" stroke="midnightblue" d="M734.202,-136.403C758.074,-126.245 798.002,-109.255 825.373,-97.6074"/>
<polygon fill="midnightblue" stroke="midnightblue" points="827.005,-100.717 834.836,-93.5806 824.264,-94.2757 827.005,-100.717"/>
</g>
<!-- Node35 -->
<g id="node35" class="node"><title>Node35</title>
<polygon fill="none" stroke="#bfbfbf" points="951,-74.5 951,-93.5 1111,-93.5 1111,-74.5 951,-74.5"/>
<text text-anchor="middle" x="1031" y="-81.5" font-family="Helvetica,sans-Serif" font-size="10.00">Math/GenVector/Translation3D.h</text>
</g>
<!-- Node30&#45;&gt;Node35 -->
<g id="edge40" class="edge"><title>Node30&#45;&gt;Node35</title>
<path fill="none" stroke="midnightblue" d="M759.082,-136.467C816.239,-125.649 914.72,-107.009 976.169,-95.3781"/>
<polygon fill="midnightblue" stroke="midnightblue" points="976.899,-98.8021 986.074,-93.5034 975.597,-91.9242 976.899,-98.8021"/>
</g>
<!-- Node36 -->
<g id="node36" class="node"><title>Node36</title>
<polygon fill="none" stroke="#bfbfbf" points="1129,-74.5 1129,-93.5 1205,-93.5 1205,-74.5 1129,-74.5"/>
<text text-anchor="middle" x="1167" y="-81.5" font-family="Helvetica,sans-Serif" font-size="10.00">TGeoMatrix.h</text>
</g>
<!-- Node30&#45;&gt;Node36 -->
<g id="edge42" class="edge"><title>Node30&#45;&gt;Node36</title>
<path fill="none" stroke="midnightblue" d="M776.741,-139.581C873.869,-130.932 1056.1,-113.598 1120,-100 1124.46,-99.0519 1129.09,-97.8502 1133.63,-96.5413"/>
<polygon fill="midnightblue" stroke="midnightblue" points="1134.8,-99.8429 1143.34,-93.5614 1132.75,-93.1514 1134.8,-99.8429"/>
</g>
<!-- Node37 -->
<g id="node37" class="node"><title>Node37</title>
<polygon fill="none" stroke="#bfbfbf" points="40.5,-74.5 40.5,-93.5 85.5,-93.5 85.5,-74.5 40.5,-74.5"/>
<text text-anchor="middle" x="63" y="-81.5" font-family="Helvetica,sans-Serif" font-size="10.00">iosfwd</text>
</g>
<!-- Node30&#45;&gt;Node37 -->
<g id="edge43" class="edge"><title>Node30&#45;&gt;Node37</title>
<path fill="none" stroke="midnightblue" d="M651.416,-143.445C515.633,-139.587 197.86,-127.802 94,-100 91.6609,-99.3738 89.286,-98.5704 86.9453,-97.6614"/>
<polygon fill="midnightblue" stroke="midnightblue" points="88.2508,-94.4111 77.6939,-93.5146 85.3875,-100.799 88.2508,-94.4111"/>
</g>
<!-- Node38 -->
<g id="node38" class="node"><title>Node38</title>
<g id="a_node38"><a xlink:href="../../d2/dd0/Cartesian2D_8h.html" target="_top" xlink:title="MathUtils/Cartesian2D.h">
<polygon fill="none" stroke="black" points="103.5,-74.5 103.5,-93.5 228.5,-93.5 228.5,-74.5 103.5,-74.5"/>
<text text-anchor="middle" x="166" y="-81.5" font-family="Helvetica,sans-Serif" font-size="10.00">MathUtils/Cartesian2D.h</text>
</a>
</g>
</g>
<!-- Node30&#45;&gt;Node38 -->
<g id="edge44" class="edge"><title>Node30&#45;&gt;Node38</title>
<path fill="none" stroke="midnightblue" d="M651.215,-141.369C559.731,-135.559 384.606,-122.48 237,-100 228.942,-98.7729 220.423,-97.208 212.189,-95.5544"/>
<polygon fill="midnightblue" stroke="midnightblue" points="212.841,-92.1152 202.339,-93.5102 211.419,-98.9692 212.841,-92.1152"/>
</g>
<!-- Node39 -->
<g id="node39" class="node"><title>Node39</title>
<polygon fill="none" stroke="#bfbfbf" points="-0.5,-1 -0.5,-31 150.5,-31 150.5,-1 -0.5,-1"/>
<text text-anchor="start" x="7.5" y="-19" font-family="Helvetica,sans-Serif" font-size="10.00">Math/GenVector/Displacement</text>
<text text-anchor="middle" x="75" y="-8" font-family="Helvetica,sans-Serif" font-size="10.00">Vector2D.h</text>
</g>
<!-- Node38&#45;&gt;Node39 -->
<g id="edge45" class="edge"><title>Node38&#45;&gt;Node39</title>
<path fill="none" stroke="midnightblue" d="M154.103,-74.3717C141.221,-65.0286 120.22,-49.7966 103.093,-37.375"/>
<polygon fill="midnightblue" stroke="midnightblue" points="104.703,-34.2194 94.5532,-31.1815 100.593,-39.8859 104.703,-34.2194"/>
</g>
<!-- Node40 -->
<g id="node40" class="node"><title>Node40</title>
<polygon fill="none" stroke="#bfbfbf" points="169,-6.5 169,-25.5 345,-25.5 345,-6.5 169,-6.5"/>
<text text-anchor="middle" x="257" y="-13.5" font-family="Helvetica,sans-Serif" font-size="10.00">Math/GenVector/PositionVector2D.h</text>
</g>
<!-- Node38&#45;&gt;Node40 -->
<g id="edge46" class="edge"><title>Node38&#45;&gt;Node40</title>
<path fill="none" stroke="midnightblue" d="M177.897,-74.3717C192.884,-63.5015 218.862,-44.6602 236.942,-31.5474"/>
<polygon fill="midnightblue" stroke="midnightblue" points="239.06,-34.3349 245.1,-25.6305 234.95,-28.6684 239.06,-34.3349"/>
</g>
</g>
</svg>
