<?xml version="1.0" encoding="UTF-8" standalone="no"?>
<!DOCTYPE svg PUBLIC "-//W3C//DTD SVG 1.1//EN"
 "http://www.w3.org/Graphics/SVG/1.1/DTD/svg11.dtd">
<!-- Generated by graphviz version 2.36.0 (20140111.2315)
 -->
<!-- Title: /home/travis/build/AliceO2Group/AliceO2/macro/run_clus_tof.C Pages: 1 -->
<!--zoomable 582 -->
<svg id="main" version="1.1" xmlns="http://www.w3.org/2000/svg" xmlns:xlink="http://www.w3.org/1999/xlink" xml:space="preserve" onload="init(evt)">
<style type="text/css"><![CDATA[
.edge:hover path { stroke: red; }
.edge:hover polygon { stroke: red; fill: red; }
]]></style>
<script type="text/javascript"><![CDATA[
var edges = document.getElementsByTagName('g');
if (edges && edges.length) {
  for (var i=0;i<edges.length;i++) {
    if (edges[i].id.substr(0,4)=='edge') {
      edges[i].setAttribute('class','edge');
    }
  }
}
]]></script>
        <defs>
                <circle id="rim" cx="0" cy="0" r="7"/>
                <circle id="rim2" cx="0" cy="0" r="3.5"/>
                <g id="zoomPlus">
                        <use xlink:href="#rim" fill="#404040">
                                <set attributeName="fill" to="#808080" begin="zoomplus.mouseover" end="zoomplus.mouseout"/>
                        </use>
                        <path d="M-4,0h8M0,-4v8" fill="none" stroke="white" stroke-width="1.5" pointer-events="none"/>
                </g>
                <g id="zoomMin">
                        <use xlink:href="#rim" fill="#404040">
                                <set attributeName="fill" to="#808080" begin="zoomminus.mouseover" end="zoomminus.mouseout"/>
                        </use>
                        <path d="M-4,0h8" fill="none" stroke="white" stroke-width="1.5" pointer-events="none"/>
                </g>
                <g id="dirArrow">
                        <path fill="none" stroke="white" stroke-width="1.5" d="M0,-3.0v7 M-2.5,-0.5L0,-3.0L2.5,-0.5"/>
                </g>
               <g id="resetDef">
                       <use xlink:href="#rim2" fill="#404040">
                               <set attributeName="fill" to="#808080" begin="reset.mouseover" end="reset.mouseout"/>
                       </use>
               </g>
        </defs>

<script type="text/javascript">
var viewWidth = 2701;
var viewHeight = 582;
var sectionId = 'dynsection-0';
</script>
<script xlink:href="../../svgpan.js"/>
<svg id="graph" class="graph">
<g id="viewport">
<title>/home/travis/build/AliceO2Group/AliceO2/macro/run_clus_tof.C</title>
<!-- Node1 -->
<g id="node1" class="node"><title>Node1</title>
<polygon fill="#bfbfbf" stroke="black" points="335,-532.5 335,-573.5 453,-573.5 453,-532.5 335,-532.5"/>
<text text-anchor="start" x="343" y="-561.5" font-family="Helvetica,sans-Serif" font-size="10.00">/home/travis/build</text>
<text text-anchor="start" x="343" y="-550.5" font-family="Helvetica,sans-Serif" font-size="10.00">/AliceO2Group/AliceO2</text>
<text text-anchor="middle" x="394" y="-539.5" font-family="Helvetica,sans-Serif" font-size="10.00">/macro/run_clus_tof.C</text>
</g>
<!-- Node2 -->
<g id="node2" class="node"><title>Node2</title>
<polygon fill="none" stroke="#bfbfbf" points="0,-470.5 0,-489.5 52,-489.5 52,-470.5 0,-470.5"/>
<text text-anchor="middle" x="26" y="-477.5" font-family="Helvetica,sans-Serif" font-size="10.00">sstream</text>
</g>
<!-- Node1&#45;&gt;Node2 -->
<g id="edge1" class="edge"><title>Node1&#45;&gt;Node2</title>
<path fill="none" stroke="midnightblue" d="M334.998,-546.374C267.683,-538.973 154.792,-523.555 61,-496 58.5025,-495.266 55.9453,-494.403 53.4058,-493.468"/>
<polygon fill="midnightblue" stroke="midnightblue" points="54.4467,-490.115 43.8632,-489.626 51.8322,-496.608 54.4467,-490.115"/>
</g>
<!-- Node3 -->
<g id="node3" class="node"><title>Node3</title>
<polygon fill="none" stroke="#bfbfbf" points="70.5,-470.5 70.5,-489.5 147.5,-489.5 147.5,-470.5 70.5,-470.5"/>
<text text-anchor="middle" x="109" y="-477.5" font-family="Helvetica,sans-Serif" font-size="10.00">TStopwatch.h</text>
</g>
<!-- Node1&#45;&gt;Node3 -->
<g id="edge2" class="edge"><title>Node1&#45;&gt;Node3</title>
<path fill="none" stroke="midnightblue" d="M334.992,-539.456C286.633,-528.856 216.547,-512.757 156,-496 152.208,-494.95 148.263,-493.795 144.343,-492.604"/>
<polygon fill="midnightblue" stroke="midnightblue" points="145.338,-489.248 134.749,-489.616 143.256,-495.932 145.338,-489.248"/>
</g>
<!-- Node4 -->
<g id="node4" class="node"><title>Node4</title>
<polygon fill="none" stroke="#bfbfbf" points="165.5,-470.5 165.5,-489.5 236.5,-489.5 236.5,-470.5 165.5,-470.5"/>
<text text-anchor="middle" x="201" y="-477.5" font-family="Helvetica,sans-Serif" font-size="10.00">FairLogger.h</text>
</g>
<!-- Node1&#45;&gt;Node4 -->
<g id="edge3" class="edge"><title>Node1&#45;&gt;Node4</title>
<path fill="none" stroke="midnightblue" d="M340.751,-532.411C306.517,-519.817 263.126,-503.855 233.847,-493.084"/>
<polygon fill="midnightblue" stroke="midnightblue" points="234.711,-489.672 224.118,-489.504 232.294,-496.242 234.711,-489.672"/>
</g>
<!-- Node5 -->
<g id="node5" class="node"><title>Node5</title>
<polygon fill="none" stroke="#bfbfbf" points="254.5,-470.5 254.5,-489.5 331.5,-489.5 331.5,-470.5 254.5,-470.5"/>
<text text-anchor="middle" x="293" y="-477.5" font-family="Helvetica,sans-Serif" font-size="10.00">FairRunAna.h</text>
</g>
<!-- Node1&#45;&gt;Node5 -->
<g id="edge4" class="edge"><title>Node1&#45;&gt;Node5</title>
<path fill="none" stroke="midnightblue" d="M366.134,-532.411C349.441,-520.676 328.588,-506.017 313.425,-495.358"/>
<polygon fill="midnightblue" stroke="midnightblue" points="315.423,-492.484 305.229,-489.597 311.397,-498.211 315.423,-492.484"/>
</g>
<!-- Node6 -->
<g id="node6" class="node"><title>Node6</title>
<polygon fill="none" stroke="#bfbfbf" points="350,-470.5 350,-489.5 438,-489.5 438,-470.5 350,-470.5"/>
<text text-anchor="middle" x="394" y="-477.5" font-family="Helvetica,sans-Serif" font-size="10.00">FairFileSource.h</text>
</g>
<!-- Node1&#45;&gt;Node6 -->
<g id="edge5" class="edge"><title>Node1&#45;&gt;Node6</title>
<path fill="none" stroke="midnightblue" d="M394,-532.223C394,-522.086 394,-509.807 394,-499.813"/>
<polygon fill="midnightblue" stroke="midnightblue" points="397.5,-499.735 394,-489.735 390.5,-499.735 397.5,-499.735"/>
</g>
<!-- Node7 -->
<g id="node7" class="node"><title>Node7</title>
<polygon fill="none" stroke="#bfbfbf" points="456.5,-470.5 456.5,-489.5 547.5,-489.5 547.5,-470.5 456.5,-470.5"/>
<text text-anchor="middle" x="502" y="-477.5" font-family="Helvetica,sans-Serif" font-size="10.00">FairRuntimeDb.h</text>
</g>
<!-- Node1&#45;&gt;Node7 -->
<g id="edge6" class="edge"><title>Node1&#45;&gt;Node7</title>
<path fill="none" stroke="midnightblue" d="M423.797,-532.411C441.647,-520.676 463.946,-506.017 480.16,-495.358"/>
<polygon fill="midnightblue" stroke="midnightblue" points="482.49,-498.015 488.923,-489.597 478.644,-492.166 482.49,-498.015"/>
</g>
<!-- Node8 -->
<g id="node8" class="node"><title>Node8</title>
<polygon fill="none" stroke="#bfbfbf" points="565.5,-470.5 565.5,-489.5 666.5,-489.5 666.5,-470.5 565.5,-470.5"/>
<text text-anchor="middle" x="616" y="-477.5" font-family="Helvetica,sans-Serif" font-size="10.00">FairParRootFileIo.h</text>
</g>
<!-- Node1&#45;&gt;Node8 -->
<g id="edge7" class="edge"><title>Node1&#45;&gt;Node8</title>
<path fill="none" stroke="midnightblue" d="M453.2,-533.067C493.416,-520.205 545.325,-503.603 579.588,-492.645"/>
<polygon fill="midnightblue" stroke="midnightblue" points="580.732,-495.954 589.191,-489.574 578.6,-489.287 580.732,-495.954"/>
</g>
<!-- Node9 -->
<g id="node9" class="node"><title>Node9</title>
<polygon fill="none" stroke="#bfbfbf" points="685,-470.5 685,-489.5 777,-489.5 777,-470.5 685,-470.5"/>
<text text-anchor="middle" x="731" y="-477.5" font-family="Helvetica,sans-Serif" font-size="10.00">FairSystemInfo.h</text>
</g>
<!-- Node1&#45;&gt;Node9 -->
<g id="edge8" class="edge"><title>Node1&#45;&gt;Node9</title>
<path fill="none" stroke="midnightblue" d="M453.174,-541.364C510.206,-530.841 598.823,-513.773 675,-496 680.077,-494.815 685.392,-493.496 690.641,-492.145"/>
<polygon fill="midnightblue" stroke="midnightblue" points="691.791,-495.462 700.573,-489.535 690.012,-488.692 691.791,-495.462"/>
</g>
<!-- Node10 -->
<g id="node10" class="node"><title>Node10</title>
<g id="a_node10"><a xlink:href="../../d4/d74/TOF_2reconstruction_2include_2TOFReconstruction_2ClustererTask_8h.html" target="_top" xlink:title="TOFReconstruction/Clusterer\lTask.h">
<polygon fill="none" stroke="black" points="795.5,-465 795.5,-495 940.5,-495 940.5,-465 795.5,-465"/>
<text text-anchor="start" x="803.5" y="-483" font-family="Helvetica,sans-Serif" font-size="10.00">TOFReconstruction/Clusterer</text>
<text text-anchor="middle" x="868" y="-472" font-family="Helvetica,sans-Serif" font-size="10.00">Task.h</text>
</a>
</g>
</g>
<!-- Node1&#45;&gt;Node10 -->
<g id="edge9" class="edge"><title>Node1&#45;&gt;Node10</title>
<path fill="none" stroke="midnightblue" d="M453.215,-544.273C528.041,-534.346 661.03,-516.16 785.09,-496.112"/>
<polygon fill="midnightblue" stroke="midnightblue" points="785.838,-499.536 795.148,-494.479 784.716,-492.627 785.838,-499.536"/>
</g>
<!-- Node11 -->
<g id="node11" class="node"><title>Node11</title>
<polygon fill="none" stroke="#bfbfbf" points="773.5,-408.5 773.5,-427.5 836.5,-427.5 836.5,-408.5 773.5,-408.5"/>
<text text-anchor="middle" x="805" y="-415.5" font-family="Helvetica,sans-Serif" font-size="10.00">FairTask.h</text>
</g>
<!-- Node10&#45;&gt;Node11 -->
<g id="edge10" class="edge"><title>Node10&#45;&gt;Node11</title>
<path fill="none" stroke="midnightblue" d="M853.07,-464.781C843.632,-455.792 831.42,-444.162 821.667,-434.873"/>
<polygon fill="midnightblue" stroke="midnightblue" points="823.822,-432.093 814.167,-427.731 818.995,-437.162 823.822,-432.093"/>
</g>
<!-- Node12 -->
<g id="node12" class="node"><title>Node12</title>
<g id="a_node12"><a xlink:href="../../dc/d24/TOF_2reconstruction_2include_2TOFReconstruction_2Clusterer_8h.html" target="_top" xlink:title="TOFReconstruction/Clusterer.h">
<polygon fill="none" stroke="black" points="854.5,-408.5 854.5,-427.5 1007.5,-427.5 1007.5,-408.5 854.5,-408.5"/>
<text text-anchor="middle" x="931" y="-415.5" font-family="Helvetica,sans-Serif" font-size="10.00">TOFReconstruction/Clusterer.h</text>
</a>
</g>
</g>
<!-- Node10&#45;&gt;Node12 -->
<g id="edge11" class="edge"><title>Node10&#45;&gt;Node12</title>
<path fill="none" stroke="midnightblue" d="M882.93,-464.781C892.368,-455.792 904.58,-444.162 914.333,-434.873"/>
<polygon fill="midnightblue" stroke="midnightblue" points="917.005,-437.162 921.833,-427.731 912.178,-432.093 917.005,-437.162"/>
</g>
<!-- Node13 -->
<g id="node13" class="node"><title>Node13</title>
<polygon fill="none" stroke="#bfbfbf" points="693,-346.5 693,-365.5 733,-365.5 733,-346.5 693,-346.5"/>
<text text-anchor="middle" x="713" y="-353.5" font-family="Helvetica,sans-Serif" font-size="10.00">utility</text>
</g>
<!-- Node12&#45;&gt;Node13 -->
<g id="edge12" class="edge"><title>Node12&#45;&gt;Node13</title>
<path fill="none" stroke="midnightblue" d="M886.883,-408.487C849.216,-400.682 793.86,-387.929 747,-372 744.732,-371.229 742.407,-370.366 740.089,-369.455"/>
<polygon fill="midnightblue" stroke="midnightblue" points="741.34,-366.184 730.764,-365.54 738.63,-372.638 741.34,-366.184"/>
</g>
<!-- Node14 -->
<g id="node14" class="node"><title>Node14</title>
<polygon fill="none" stroke="#bfbfbf" points="909,-142.5 909,-161.5 953,-161.5 953,-142.5 909,-142.5"/>
<text text-anchor="middle" x="931" y="-149.5" font-family="Helvetica,sans-Serif" font-size="10.00">vector</text>
</g>
<!-- Node12&#45;&gt;Node14 -->
<g id="edge13" class="edge"><title>Node12&#45;&gt;Node14</title>
<path fill="none" stroke="midnightblue" d="M931,-408.216C931,-370.786 931,-224.126 931,-171.732"/>
<polygon fill="midnightblue" stroke="midnightblue" points="934.5,-171.55 931,-161.55 927.5,-171.55 934.5,-171.55"/>
</g>
<!-- Node15 -->
<g id="node15" class="node"><title>Node15</title>
<g id="a_node15"><a xlink:href="../../d1/d50/DataFormats_2Detectors_2TOF_2include_2DataFormatsTOF_2Cluster_8h.html" target="_top" xlink:title="DataFormatsTOF/Cluster.h">
<polygon fill="none" stroke="black" points="1143,-346.5 1143,-365.5 1279,-365.5 1279,-346.5 1143,-346.5"/>
<text text-anchor="middle" x="1211" y="-353.5" font-family="Helvetica,sans-Serif" font-size="10.00">DataFormatsTOF/Cluster.h</text>
</a>
</g>
</g>
<!-- Node12&#45;&gt;Node15 -->
<g id="edge14" class="edge"><title>Node12&#45;&gt;Node15</title>
<path fill="none" stroke="midnightblue" d="M970.82,-408.467C1020.89,-397.738 1106.86,-379.316 1161.22,-367.667"/>
<polygon fill="midnightblue" stroke="midnightblue" points="1162.27,-371.021 1171.32,-365.503 1160.81,-364.176 1162.27,-371.021"/>
</g>
<!-- Node47 -->
<g id="node47" class="node"><title>Node47</title>
<g id="a_node47"><a xlink:href="../../d4/d54/Geo_8h.html" target="_top" xlink:title="TOFBase/Geo.h">
<polygon fill="none" stroke="black" points="723,-278.5 723,-297.5 811,-297.5 811,-278.5 723,-278.5"/>
<text text-anchor="middle" x="767" y="-285.5" font-family="Helvetica,sans-Serif" font-size="10.00">TOFBase/Geo.h</text>
</a>
</g>
</g>
<!-- Node12&#45;&gt;Node47 -->
<g id="edge53" class="edge"><title>Node12&#45;&gt;Node47</title>
<path fill="none" stroke="midnightblue" d="M882.875,-408.426C844.016,-400.498 793.636,-387.602 780,-372 764.659,-354.448 763.407,-326.46 764.63,-307.909"/>
<polygon fill="midnightblue" stroke="midnightblue" points="768.133,-308.045 765.609,-297.755 761.166,-307.373 768.133,-308.045"/>
</g>
<!-- Node48 -->
<g id="node48" class="node"><title>Node48</title>
<g id="a_node48"><a xlink:href="../../d0/d1a/DataReader_8h.html" target="_top" xlink:title="Definition of the TOF hit reader. ">
<polygon fill="none" stroke="black" points="959,-346.5 959,-365.5 1125,-365.5 1125,-346.5 959,-346.5"/>
<text text-anchor="middle" x="1042" y="-353.5" font-family="Helvetica,sans-Serif" font-size="10.00">TOFReconstruction/DataReader.h</text>
</a>
</g>
</g>
<!-- Node12&#45;&gt;Node48 -->
<g id="edge55" class="edge"><title>Node12&#45;&gt;Node48</title>
<path fill="none" stroke="midnightblue" d="M946.904,-408.403C965.285,-398.468 995.756,-381.997 1017.24,-370.381"/>
<polygon fill="midnightblue" stroke="midnightblue" points="1018.99,-373.415 1026.13,-365.581 1015.66,-367.257 1018.99,-373.415"/>
</g>
<!-- Node50 -->
<g id="node50" class="node"><title>Node50</title>
<g id="a_node50"><a xlink:href="../../db/d14/MCTruthContainer_8h.html" target="_top" xlink:title="Definition of a container to keep Monte Carlo truth external to simulation objects. ">
<polygon fill="none" stroke="black" points="2425,-137 2425,-167 2539,-167 2539,-137 2425,-137"/>
<text text-anchor="start" x="2433" y="-155" font-family="Helvetica,sans-Serif" font-size="10.00">SimulationDataFormat</text>
<text text-anchor="middle" x="2482" y="-144" font-family="Helvetica,sans-Serif" font-size="10.00">/MCTruthContainer.h</text>
</a>
</g>
</g>
<!-- Node12&#45;&gt;Node50 -->
<g id="edge60" class="edge"><title>Node12&#45;&gt;Node50</title>
<path fill="none" stroke="midnightblue" d="M1004.6,-408.488C1076.86,-399.951 1190.15,-386.084 1288,-372 1662.34,-318.121 1757,-309.433 2128,-236 2229.66,-215.877 2346.52,-187.428 2417.28,-169.608"/>
<polygon fill="midnightblue" stroke="midnightblue" points="2418.54,-172.901 2427.38,-167.059 2416.82,-166.114 2418.54,-172.901"/>
</g>
<!-- Node54 -->
<g id="node54" class="node"><title>Node54</title>
<g id="a_node54"><a xlink:href="../../d7/dcd/MCCompLabel_8h.html" target="_top" xlink:title="SimulationDataFormat\l/MCCompLabel.h">
<polygon fill="none" stroke="black" points="789,-341 789,-371 903,-371 903,-341 789,-341"/>
<text text-anchor="start" x="797" y="-359" font-family="Helvetica,sans-Serif" font-size="10.00">SimulationDataFormat</text>
<text text-anchor="middle" x="846" y="-348" font-family="Helvetica,sans-Serif" font-size="10.00">/MCCompLabel.h</text>
</a>
</g>
</g>
<!-- Node12&#45;&gt;Node54 -->
<g id="edge66" class="edge"><title>Node12&#45;&gt;Node54</title>
<path fill="none" stroke="midnightblue" d="M918.822,-408.403C907.31,-400.277 889.604,-387.779 874.534,-377.142"/>
<polygon fill="midnightblue" stroke="midnightblue" points="876.221,-374.048 866.033,-371.141 872.184,-379.767 876.221,-374.048"/>
</g>
<!-- Node16 -->
<g id="node16" class="node"><title>Node16</title>
<g id="a_node16"><a xlink:href="../../d4/de2/BaseCluster_8h.html" target="_top" xlink:title="ReconstructionDataFormats\l/BaseCluster.h">
<polygon fill="none" stroke="black" points="1401,-273 1401,-303 1541,-303 1541,-273 1401,-273"/>
<text text-anchor="start" x="1409" y="-291" font-family="Helvetica,sans-Serif" font-size="10.00">ReconstructionDataFormats</text>
<text text-anchor="middle" x="1471" y="-280" font-family="Helvetica,sans-Serif" font-size="10.00">/BaseCluster.h</text>
</a>
</g>
</g>
<!-- Node15&#45;&gt;Node16 -->
<g id="edge15" class="edge"><title>Node15&#45;&gt;Node16</title>
<path fill="none" stroke="midnightblue" d="M1244.72,-346.439C1285.3,-336.139 1354.35,-318.612 1405.52,-305.621"/>
<polygon fill="midnightblue" stroke="midnightblue" points="1406.67,-308.94 1415.5,-303.087 1404.95,-302.155 1406.67,-308.94"/>
</g>
<!-- Node44 -->
<g id="node44" class="node"><title>Node44</title>
<polygon fill="none" stroke="#bfbfbf" points="1009.5,-205 1009.5,-235 1104.5,-235 1104.5,-205 1009.5,-205"/>
<text text-anchor="start" x="1017.5" y="-223" font-family="Helvetica,sans-Serif" font-size="10.00">boost/serialization</text>
<text text-anchor="middle" x="1057" y="-212" font-family="Helvetica,sans-Serif" font-size="10.00">/base_object.hpp</text>
</g>
<!-- Node15&#45;&gt;Node44 -->
<g id="edge50" class="edge"><title>Node15&#45;&gt;Node44</title>
<path fill="none" stroke="midnightblue" d="M1216.49,-346.263C1225.94,-329.972 1242.76,-294.57 1226,-272 1222.49,-267.277 1162.37,-249.866 1114.83,-236.691"/>
<polygon fill="midnightblue" stroke="midnightblue" points="1115.47,-233.237 1104.9,-233.95 1113.6,-239.984 1115.47,-233.237"/>
</g>
<!-- Node45 -->
<g id="node45" class="node"><title>Node45</title>
<polygon fill="none" stroke="#bfbfbf" points="1101.5,-278.5 1101.5,-297.5 1154.5,-297.5 1154.5,-278.5 1101.5,-278.5"/>
<text text-anchor="middle" x="1128" y="-285.5" font-family="Helvetica,sans-Serif" font-size="10.00">TMath.h</text>
</g>
<!-- Node15&#45;&gt;Node45 -->
<g id="edge51" class="edge"><title>Node15&#45;&gt;Node45</title>
<path fill="none" stroke="midnightblue" d="M1200.15,-346.372C1186.6,-335.6 1163.21,-317.002 1146.75,-303.906"/>
<polygon fill="midnightblue" stroke="midnightblue" points="1148.86,-301.115 1138.85,-297.63 1144.5,-306.594 1148.86,-301.115"/>
</g>
<!-- Node46 -->
<g id="node46" class="node"><title>Node46</title>
<polygon fill="none" stroke="#bfbfbf" points="1172.5,-278.5 1172.5,-297.5 1217.5,-297.5 1217.5,-278.5 1172.5,-278.5"/>
<text text-anchor="middle" x="1195" y="-285.5" font-family="Helvetica,sans-Serif" font-size="10.00">cstdlib</text>
</g>
<!-- Node15&#45;&gt;Node46 -->
<g id="edge52" class="edge"><title>Node15&#45;&gt;Node46</title>
<path fill="none" stroke="midnightblue" d="M1208.91,-346.372C1206.55,-336.643 1202.64,-320.528 1199.57,-307.85"/>
<polygon fill="midnightblue" stroke="midnightblue" points="1202.9,-306.735 1197.14,-297.841 1196.1,-308.384 1202.9,-306.735"/>
</g>
<!-- Node17 -->
<g id="node17" class="node"><title>Node17</title>
<polygon fill="none" stroke="#bfbfbf" points="1405.5,-210.5 1405.5,-229.5 1464.5,-229.5 1464.5,-210.5 1405.5,-210.5"/>
<text text-anchor="middle" x="1435" y="-217.5" font-family="Helvetica,sans-Serif" font-size="10.00">TObject.h</text>
</g>
<!-- Node16&#45;&gt;Node17 -->
<g id="edge16" class="edge"><title>Node16&#45;&gt;Node17</title>
<path fill="none" stroke="midnightblue" d="M1463.19,-272.679C1457.74,-262.694 1450.44,-249.307 1444.63,-238.66"/>
<polygon fill="midnightblue" stroke="midnightblue" points="1447.68,-236.931 1439.82,-229.828 1441.53,-240.283 1447.68,-236.931"/>
</g>
<!-- Node18 -->
<g id="node18" class="node"><title>Node18</title>
<polygon fill="none" stroke="#bfbfbf" points="2284.5,-74.5 2284.5,-93.5 2325.5,-93.5 2325.5,-74.5 2284.5,-74.5"/>
<text text-anchor="middle" x="2305" y="-81.5" font-family="Helvetica,sans-Serif" font-size="10.00">bitset</text>
</g>
<!-- Node16&#45;&gt;Node18 -->
<g id="edge17" class="edge"><title>Node16&#45;&gt;Node18</title>
<path fill="none" stroke="midnightblue" d="M1541.08,-284.481C1712.38,-277.084 2146.73,-250.476 2262,-168 2283.61,-152.535 2295.17,-122.889 2300.69,-103.535"/>
<polygon fill="midnightblue" stroke="midnightblue" points="2304.11,-104.313 2303.22,-93.7552 2297.33,-102.561 2304.11,-104.313"/>
</g>
<!-- Node19 -->
<g id="node19" class="node"><title>Node19</title>
<polygon fill="none" stroke="#bfbfbf" points="1483,-210.5 1483,-229.5 1533,-229.5 1533,-210.5 1483,-210.5"/>
<text text-anchor="middle" x="1508" y="-217.5" font-family="Helvetica,sans-Serif" font-size="10.00">iomanip</text>
</g>
<!-- Node16&#45;&gt;Node19 -->
<g id="edge18" class="edge"><title>Node16&#45;&gt;Node19</title>
<path fill="none" stroke="midnightblue" d="M1479.03,-272.679C1484.63,-262.694 1492.13,-249.307 1498.1,-238.66"/>
<polygon fill="midnightblue" stroke="midnightblue" points="1501.21,-240.263 1503.05,-229.828 1495.11,-236.84 1501.21,-240.263"/>
</g>
<!-- Node20 -->
<g id="node20" class="node"><title>Node20</title>
<polygon fill="none" stroke="#bfbfbf" points="1551.5,-210.5 1551.5,-229.5 1580.5,-229.5 1580.5,-210.5 1551.5,-210.5"/>
<text text-anchor="middle" x="1566" y="-217.5" font-family="Helvetica,sans-Serif" font-size="10.00">ios</text>
</g>
<!-- Node16&#45;&gt;Node20 -->
<g id="edge19" class="edge"><title>Node16&#45;&gt;Node20</title>
<path fill="none" stroke="midnightblue" d="M1491.61,-272.679C1507.4,-261.713 1529.09,-246.645 1544.97,-235.609"/>
<polygon fill="midnightblue" stroke="midnightblue" points="1547.35,-238.218 1553.57,-229.638 1543.36,-232.469 1547.35,-238.218"/>
</g>
<!-- Node21 -->
<g id="node21" class="node"><title>Node21</title>
<polygon fill="none" stroke="#bfbfbf" points="852.5,-74.5 852.5,-93.5 897.5,-93.5 897.5,-74.5 852.5,-74.5"/>
<text text-anchor="middle" x="875" y="-81.5" font-family="Helvetica,sans-Serif" font-size="10.00">iosfwd</text>
</g>
<!-- Node16&#45;&gt;Node21 -->
<g id="edge20" class="edge"><title>Node16&#45;&gt;Node21</title>
<path fill="none" stroke="midnightblue" d="M1400.79,-276.585C1350.37,-268.15 1281.14,-254.606 1222,-236 1149.27,-213.119 976.527,-131.295 907,-100 905.423,-99.2901 903.805,-98.5547 902.175,-97.808"/>
<polygon fill="midnightblue" stroke="midnightblue" points="903.44,-94.5367 892.895,-93.5069 900.496,-100.888 903.44,-94.5367"/>
</g>
<!-- Node22 -->
<g id="node22" class="node"><title>Node22</title>
<g id="a_node22"><a xlink:href="../../d4/d20/DetMatrixCache_8h.html" target="_top" xlink:title="DetectorsCommonDataFormats\l/DetMatrixCache.h">
<polygon fill="none" stroke="black" points="1231,-205 1231,-235 1387,-235 1387,-205 1231,-205"/>
<text text-anchor="start" x="1239" y="-223" font-family="Helvetica,sans-Serif" font-size="10.00">DetectorsCommonDataFormats</text>
<text text-anchor="middle" x="1309" y="-212" font-family="Helvetica,sans-Serif" font-size="10.00">/DetMatrixCache.h</text>
</a>
</g>
</g>
<!-- Node16&#45;&gt;Node22 -->
<g id="edge21" class="edge"><title>Node16&#45;&gt;Node22</title>
<path fill="none" stroke="midnightblue" d="M1436.25,-272.841C1411.82,-262.89 1378.96,-249.5 1352.74,-238.822"/>
<polygon fill="midnightblue" stroke="midnightblue" points="1354,-235.554 1343.42,-235.022 1351.36,-242.036 1354,-235.554"/>
</g>
<!-- Node34 -->
<g id="node34" class="node"><title>Node34</title>
<g id="a_node34"><a xlink:href="../../dd/d76/Cartesian3D_8h.html" target="_top" xlink:title="MathUtils/Cartesian3D.h">
<polygon fill="none" stroke="black" points="1467.5,-142.5 1467.5,-161.5 1592.5,-161.5 1592.5,-142.5 1467.5,-142.5"/>
<text text-anchor="middle" x="1530" y="-149.5" font-family="Helvetica,sans-Serif" font-size="10.00">MathUtils/Cartesian3D.h</text>
</a>
</g>
</g>
<!-- Node16&#45;&gt;Node34 -->
<g id="edge49" class="edge"><title>Node16&#45;&gt;Node34</title>
<path fill="none" stroke="midnightblue" d="M1538.18,-273C1557.9,-265.431 1577.29,-253.811 1589,-236 1596.81,-224.115 1594.92,-216.933 1589,-204 1581.91,-188.494 1567.51,-175.902 1554.72,-167.109"/>
<polygon fill="midnightblue" stroke="midnightblue" points="1556.53,-164.112 1546.23,-161.64 1552.74,-169.997 1556.53,-164.112"/>
</g>
<!-- Node22&#45;&gt;Node14 -->
<g id="edge25" class="edge"><title>Node22&#45;&gt;Node14</title>
<path fill="none" stroke="midnightblue" d="M1230.68,-205.325C1148.23,-190.929 1022.39,-168.958 963.51,-158.676"/>
<polygon fill="midnightblue" stroke="midnightblue" points="963.772,-155.169 953.319,-156.897 962.568,-162.065 963.772,-155.169"/>
</g>
<!-- Node23 -->
<g id="node23" class="node"><title>Node23</title>
<polygon fill="none" stroke="#bfbfbf" points="1307,-142.5 1307,-161.5 1449,-161.5 1449,-142.5 1307,-142.5"/>
<text text-anchor="middle" x="1378" y="-149.5" font-family="Helvetica,sans-Serif" font-size="10.00">AliTPCCommonFairLogger.h</text>
</g>
<!-- Node22&#45;&gt;Node23 -->
<g id="edge22" class="edge"><title>Node22&#45;&gt;Node23</title>
<path fill="none" stroke="midnightblue" d="M1323.97,-204.679C1334.94,-194.184 1349.84,-179.932 1361.22,-169.052"/>
<polygon fill="midnightblue" stroke="midnightblue" points="1363.96,-171.27 1368.77,-161.828 1359.12,-166.211 1363.96,-171.27"/>
</g>
<!-- Node24 -->
<g id="node24" class="node"><title>Node24</title>
<polygon fill="none" stroke="#bfbfbf" points="1161,-142.5 1161,-161.5 1289,-161.5 1289,-142.5 1161,-142.5"/>
<text text-anchor="middle" x="1225" y="-149.5" font-family="Helvetica,sans-Serif" font-size="10.00">AliTPCCommonRtypes.h</text>
</g>
<!-- Node22&#45;&gt;Node24 -->
<g id="edge23" class="edge"><title>Node22&#45;&gt;Node24</title>
<path fill="none" stroke="midnightblue" d="M1290.77,-204.679C1277.03,-193.879 1258.22,-179.098 1244.23,-168.11"/>
<polygon fill="midnightblue" stroke="midnightblue" points="1246.26,-165.254 1236.24,-161.828 1241.94,-170.759 1246.26,-165.254"/>
</g>
<!-- Node25 -->
<g id="node25" class="node"><title>Node25</title>
<polygon fill="none" stroke="#bfbfbf" points="2065,-6.5 2065,-25.5 2103,-25.5 2103,-6.5 2065,-6.5"/>
<text text-anchor="middle" x="2084" y="-13.5" font-family="Helvetica,sans-Serif" font-size="10.00">array</text>
</g>
<!-- Node22&#45;&gt;Node25 -->
<g id="edge24" class="edge"><title>Node22&#45;&gt;Node25</title>
<path fill="none" stroke="midnightblue" d="M1387.21,-205.649C1390.52,-205.09 1393.79,-204.539 1397,-204 1676.44,-157.083 1786.29,-251.081 2026,-100 2050.71,-84.4273 2067.77,-54.1093 2076.71,-34.744"/>
<polygon fill="midnightblue" stroke="midnightblue" points="2079.95,-36.0785 2080.74,-25.5133 2073.53,-33.279 2079.95,-36.0785"/>
</g>
<!-- Node26 -->
<g id="node26" class="node"><title>Node26</title>
<g id="a_node26"><a xlink:href="../../d6/d31/DetID_8h.html" target="_top" xlink:title="DetectorsCommonDataFormats\l/DetID.h">
<polygon fill="none" stroke="black" points="2097,-137 2097,-167 2253,-167 2253,-137 2097,-137"/>
<text text-anchor="start" x="2105" y="-155" font-family="Helvetica,sans-Serif" font-size="10.00">DetectorsCommonDataFormats</text>
<text text-anchor="middle" x="2175" y="-144" font-family="Helvetica,sans-Serif" font-size="10.00">/DetID.h</text>
</a>
</g>
</g>
<!-- Node22&#45;&gt;Node26 -->
<g id="edge26" class="edge"><title>Node22&#45;&gt;Node26</title>
<path fill="none" stroke="midnightblue" d="M1387.14,-205.202C1390.47,-204.766 1393.77,-204.362 1397,-204 1690.27,-171.153 1766.15,-195.103 2060,-168 2068.67,-167.201 2077.69,-166.243 2086.69,-165.205"/>
<polygon fill="midnightblue" stroke="midnightblue" points="2087.32,-168.655 2096.83,-164.001 2086.49,-161.704 2087.32,-168.655"/>
</g>
<!-- Node22&#45;&gt;Node34 -->
<g id="edge37" class="edge"><title>Node22&#45;&gt;Node34</title>
<path fill="none" stroke="midnightblue" d="M1356.14,-204.922C1396.64,-192.828 1454.28,-175.613 1491.91,-164.375"/>
<polygon fill="midnightblue" stroke="midnightblue" points="1492.91,-167.729 1501.49,-161.514 1490.91,-161.022 1492.91,-167.729"/>
</g>
<!-- Node26&#45;&gt;Node18 -->
<g id="edge29" class="edge"><title>Node26&#45;&gt;Node18</title>
<path fill="none" stroke="midnightblue" d="M2202.89,-136.841C2225.37,-125.425 2256.77,-109.485 2278.8,-98.3033"/>
<polygon fill="midnightblue" stroke="midnightblue" points="2280.57,-101.33 2287.9,-93.6819 2277.4,-95.088 2280.57,-101.33"/>
</g>
<!-- Node26&#45;&gt;Node25 -->
<g id="edge28" class="edge"><title>Node26&#45;&gt;Node25</title>
<path fill="none" stroke="midnightblue" d="M2145.74,-136.896C2130.79,-128.245 2113.56,-115.786 2103,-100 2089.99,-80.5586 2085.8,-53.4366 2084.5,-35.5589"/>
<polygon fill="midnightblue" stroke="midnightblue" points="2088,-35.3609 2084.01,-25.5461 2081.01,-35.7068 2088,-35.3609"/>
</g>
<!-- Node27 -->
<g id="node27" class="node"><title>Node27</title>
<polygon fill="none" stroke="#bfbfbf" points="778,-74.5 778,-93.5 834,-93.5 834,-74.5 778,-74.5"/>
<text text-anchor="middle" x="806" y="-81.5" font-family="Helvetica,sans-Serif" font-size="10.00">Rtypes.h</text>
</g>
<!-- Node26&#45;&gt;Node27 -->
<g id="edge27" class="edge"><title>Node26&#45;&gt;Node27</title>
<path fill="none" stroke="midnightblue" d="M2096.97,-148.736C1821.16,-140.639 905.455,-112.914 844,-100 840.564,-99.278 837.036,-98.2744 833.581,-97.1251"/>
<polygon fill="midnightblue" stroke="midnightblue" points="834.761,-93.8297 824.168,-93.613 832.313,-100.388 834.761,-93.8297"/>
</g>
<!-- Node28 -->
<g id="node28" class="node"><title>Node28</title>
<polygon fill="none" stroke="#bfbfbf" points="2343.5,-74.5 2343.5,-93.5 2392.5,-93.5 2392.5,-74.5 2343.5,-74.5"/>
<text text-anchor="middle" x="2368" y="-81.5" font-family="Helvetica,sans-Serif" font-size="10.00">cassert</text>
</g>
<!-- Node26&#45;&gt;Node28 -->
<g id="edge30" class="edge"><title>Node26&#45;&gt;Node28</title>
<path fill="none" stroke="midnightblue" d="M2223.46,-136.902C2255.2,-127.317 2297.41,-113.894 2334,-100 2335.9,-99.2785 2337.85,-98.5074 2339.8,-97.7099"/>
<polygon fill="midnightblue" stroke="midnightblue" points="2341.61,-100.744 2349.44,-93.6093 2338.87,-94.3031 2341.61,-100.744"/>
</g>
<!-- Node29 -->
<g id="node29" class="node"><title>Node29</title>
<polygon fill="none" stroke="#bfbfbf" points="2112,-74.5 2112,-93.5 2158,-93.5 2158,-74.5 2112,-74.5"/>
<text text-anchor="middle" x="2135" y="-81.5" font-family="Helvetica,sans-Serif" font-size="10.00">cstdint</text>
</g>
<!-- Node26&#45;&gt;Node29 -->
<g id="edge31" class="edge"><title>Node26&#45;&gt;Node29</title>
<path fill="none" stroke="midnightblue" d="M2166.32,-136.679C2160.27,-126.694 2152.16,-113.307 2145.7,-102.66"/>
<polygon fill="midnightblue" stroke="midnightblue" points="2148.53,-100.566 2140.35,-93.8283 2142.54,-104.194 2148.53,-100.566"/>
</g>
<!-- Node30 -->
<g id="node30" class="node"><title>Node30</title>
<polygon fill="none" stroke="#bfbfbf" points="2411,-74.5 2411,-93.5 2473,-93.5 2473,-74.5 2411,-74.5"/>
<text text-anchor="middle" x="2442" y="-81.5" font-family="Helvetica,sans-Serif" font-size="10.00">type_traits</text>
</g>
<!-- Node26&#45;&gt;Node30 -->
<g id="edge32" class="edge"><title>Node26&#45;&gt;Node30</title>
<path fill="none" stroke="midnightblue" d="M2248.13,-136.989C2292.68,-127.838 2350.55,-114.854 2401,-100 2404.13,-99.0795 2407.36,-98.045 2410.57,-96.9608"/>
<polygon fill="midnightblue" stroke="midnightblue" points="2411.78,-100.248 2420.04,-93.6233 2409.45,-93.6464 2411.78,-100.248"/>
</g>
<!-- Node31 -->
<g id="node31" class="node"><title>Node31</title>
<g id="a_node31"><a xlink:href="../../d9/d52/Common_2MathUtils_2include_2MathUtils_2Utils_8h.html" target="_top" xlink:title="MathUtils/Utils.h">
<polygon fill="none" stroke="black" points="2176,-74.5 2176,-93.5 2266,-93.5 2266,-74.5 2176,-74.5"/>
<text text-anchor="middle" x="2221" y="-81.5" font-family="Helvetica,sans-Serif" font-size="10.00">MathUtils/Utils.h</text>
</a>
</g>
</g>
<!-- Node26&#45;&gt;Node31 -->
<g id="edge33" class="edge"><title>Node26&#45;&gt;Node31</title>
<path fill="none" stroke="midnightblue" d="M2184.98,-136.679C2192.01,-126.592 2201.46,-113.033 2208.92,-102.335"/>
<polygon fill="midnightblue" stroke="midnightblue" points="2212,-104.034 2214.85,-93.8283 2206.26,-100.031 2212,-104.034"/>
</g>
<!-- Node31&#45;&gt;Node25 -->
<g id="edge34" class="edge"><title>Node31&#45;&gt;Node25</title>
<path fill="none" stroke="midnightblue" d="M2203.09,-74.3717C2179.71,-63.1063 2138.55,-43.2794 2111.28,-30.1403"/>
<polygon fill="midnightblue" stroke="midnightblue" points="2112.44,-26.8175 2101.91,-25.6305 2109.4,-33.1238 2112.44,-26.8175"/>
</g>
<!-- Node32 -->
<g id="node32" class="node"><title>Node32</title>
<polygon fill="none" stroke="#bfbfbf" points="2324,-6.5 2324,-25.5 2368,-25.5 2368,-6.5 2324,-6.5"/>
<text text-anchor="middle" x="2346" y="-13.5" font-family="Helvetica,sans-Serif" font-size="10.00">cmath</text>
</g>
<!-- Node31&#45;&gt;Node32 -->
<g id="edge35" class="edge"><title>Node31&#45;&gt;Node32</title>
<path fill="none" stroke="midnightblue" d="M2237.34,-74.3717C2258.58,-63.1557 2295.9,-43.4532 2320.78,-30.3136"/>
<polygon fill="midnightblue" stroke="midnightblue" points="2322.45,-33.3947 2329.65,-25.6305 2319.18,-27.2046 2322.45,-33.3947"/>
</g>
<!-- Node33 -->
<g id="node33" class="node"><title>Node33</title>
<g id="a_node33"><a xlink:href="../../d6/d84/MathConstants_8h.html" target="_top" xlink:title="useful math constants ">
<polygon fill="none" stroke="black" points="2126.5,-6.5 2126.5,-25.5 2305.5,-25.5 2305.5,-6.5 2126.5,-6.5"/>
<text text-anchor="middle" x="2216" y="-13.5" font-family="Helvetica,sans-Serif" font-size="10.00">CommonConstants/MathConstants.h</text>
</a>
</g>
</g>
<!-- Node31&#45;&gt;Node33 -->
<g id="edge36" class="edge"><title>Node31&#45;&gt;Node33</title>
<path fill="none" stroke="midnightblue" d="M2220.35,-74.3717C2219.61,-64.6426 2218.39,-48.528 2217.43,-35.8504"/>
<polygon fill="midnightblue" stroke="midnightblue" points="2220.92,-35.5481 2216.67,-25.8411 2213.94,-36.077 2220.92,-35.5481"/>
</g>
<!-- Node34&#45;&gt;Node21 -->
<g id="edge45" class="edge"><title>Node34&#45;&gt;Node21</title>
<path fill="none" stroke="midnightblue" d="M1493.91,-142.449C1482.49,-140.02 1469.77,-137.602 1458,-136 1214.83,-102.892 1144.67,-161.141 907,-100 904.504,-99.358 901.966,-98.5229 899.467,-97.5753"/>
<polygon fill="midnightblue" stroke="midnightblue" points="900.756,-94.3193 890.19,-93.5342 897.96,-100.737 900.756,-94.3193"/>
</g>
<!-- Node34&#45;&gt;Node27 -->
<g id="edge43" class="edge"><title>Node34&#45;&gt;Node27</title>
<path fill="none" stroke="midnightblue" d="M1494.29,-142.48C1482.77,-140.021 1469.9,-137.579 1458,-136 1187.02,-100.027 1110.93,-158.924 844,-100 840.572,-99.2432 837.048,-98.2183 833.595,-97.0572"/>
<polygon fill="midnightblue" stroke="midnightblue" points="834.777,-93.7626 824.185,-93.5339 832.323,-100.318 834.777,-93.7626"/>
</g>
<!-- Node35 -->
<g id="node35" class="node"><title>Node35</title>
<polygon fill="none" stroke="#bfbfbf" points="1866.5,-69 1866.5,-99 2017.5,-99 2017.5,-69 1866.5,-69"/>
<text text-anchor="start" x="1874.5" y="-87" font-family="Helvetica,sans-Serif" font-size="10.00">Math/GenVector/Displacement</text>
<text text-anchor="middle" x="1942" y="-76" font-family="Helvetica,sans-Serif" font-size="10.00">Vector3D.h</text>
</g>
<!-- Node34&#45;&gt;Node35 -->
<g id="edge38" class="edge"><title>Node34&#45;&gt;Node35</title>
<path fill="none" stroke="midnightblue" d="M1586.77,-142.498C1649.93,-132.959 1755.28,-116.814 1856.39,-100.083"/>
<polygon fill="midnightblue" stroke="midnightblue" points="1857.18,-103.499 1866.47,-98.4095 1856.03,-96.5936 1857.18,-103.499"/>
</g>
<!-- Node36 -->
<g id="node36" class="node"><title>Node36</title>
<polygon fill="none" stroke="#bfbfbf" points="916,-74.5 916,-93.5 1092,-93.5 1092,-74.5 916,-74.5"/>
<text text-anchor="middle" x="1004" y="-81.5" font-family="Helvetica,sans-Serif" font-size="10.00">Math/GenVector/PositionVector3D.h</text>
</g>
<!-- Node34&#45;&gt;Node36 -->
<g id="edge39" class="edge"><title>Node34&#45;&gt;Node36</title>
<path fill="none" stroke="midnightblue" d="M1492.77,-142.467C1481.63,-140.124 1469.36,-137.751 1458,-136 1300.39,-111.704 1259.19,-120.192 1101,-100 1089.63,-98.5481 1077.53,-96.8231 1065.88,-95.069"/>
<polygon fill="midnightblue" stroke="midnightblue" points="1066.19,-91.5768 1055.78,-93.526 1065.14,-98.4965 1066.19,-91.5768"/>
</g>
<!-- Node37 -->
<g id="node37" class="node"><title>Node37</title>
<polygon fill="none" stroke="#bfbfbf" points="1109.5,-74.5 1109.5,-93.5 1258.5,-93.5 1258.5,-74.5 1109.5,-74.5"/>
<text text-anchor="middle" x="1184" y="-81.5" font-family="Helvetica,sans-Serif" font-size="10.00">Math/GenVector/Rotation3D.h</text>
</g>
<!-- Node34&#45;&gt;Node37 -->
<g id="edge40" class="edge"><title>Node34&#45;&gt;Node37</title>
<path fill="none" stroke="midnightblue" d="M1489.67,-142.439C1479.35,-140.293 1468.27,-138.026 1458,-136 1383.37,-121.282 1297.06,-105.407 1241.57,-95.3466"/>
<polygon fill="midnightblue" stroke="midnightblue" points="1242.04,-91.8749 1231.58,-93.5374 1240.79,-98.7629 1242.04,-91.8749"/>
</g>
<!-- Node38 -->
<g id="node38" class="node"><title>Node38</title>
<polygon fill="none" stroke="#bfbfbf" points="1277,-74.5 1277,-93.5 1433,-93.5 1433,-74.5 1277,-74.5"/>
<text text-anchor="middle" x="1355" y="-81.5" font-family="Helvetica,sans-Serif" font-size="10.00">Math/GenVector/Transform3D.h</text>
</g>
<!-- Node34&#45;&gt;Node38 -->
<g id="edge41" class="edge"><title>Node34&#45;&gt;Node38</title>
<path fill="none" stroke="midnightblue" d="M1507.12,-142.372C1476.51,-130.827 1422.06,-110.293 1387.29,-97.1772"/>
<polygon fill="midnightblue" stroke="midnightblue" points="1388.2,-93.7799 1377.61,-93.5259 1385.73,-100.33 1388.2,-93.7799"/>
</g>
<!-- Node39 -->
<g id="node39" class="node"><title>Node39</title>
<polygon fill="none" stroke="#bfbfbf" points="1451,-74.5 1451,-93.5 1611,-93.5 1611,-74.5 1451,-74.5"/>
<text text-anchor="middle" x="1531" y="-81.5" font-family="Helvetica,sans-Serif" font-size="10.00">Math/GenVector/Translation3D.h</text>
</g>
<!-- Node34&#45;&gt;Node39 -->
<g id="edge42" class="edge"><title>Node34&#45;&gt;Node39</title>
<path fill="none" stroke="midnightblue" d="M1530.13,-142.372C1530.28,-132.643 1530.52,-116.528 1530.71,-103.85"/>
<polygon fill="midnightblue" stroke="midnightblue" points="1534.21,-103.893 1530.87,-93.8411 1527.21,-103.787 1534.21,-103.893"/>
</g>
<!-- Node40 -->
<g id="node40" class="node"><title>Node40</title>
<polygon fill="none" stroke="#bfbfbf" points="1629,-74.5 1629,-93.5 1705,-93.5 1705,-74.5 1629,-74.5"/>
<text text-anchor="middle" x="1667" y="-81.5" font-family="Helvetica,sans-Serif" font-size="10.00">TGeoMatrix.h</text>
</g>
<!-- Node34&#45;&gt;Node40 -->
<g id="edge44" class="edge"><title>Node34&#45;&gt;Node40</title>
<path fill="none" stroke="midnightblue" d="M1547.91,-142.372C1571.29,-131.106 1612.45,-111.279 1639.72,-98.1403"/>
<polygon fill="midnightblue" stroke="midnightblue" points="1641.6,-101.124 1649.09,-93.6305 1638.56,-94.8175 1641.6,-101.124"/>
</g>
<!-- Node41 -->
<g id="node41" class="node"><title>Node41</title>
<g id="a_node41"><a xlink:href="../../d2/dd0/Cartesian2D_8h.html" target="_top" xlink:title="MathUtils/Cartesian2D.h">
<polygon fill="none" stroke="black" points="1723.5,-74.5 1723.5,-93.5 1848.5,-93.5 1848.5,-74.5 1723.5,-74.5"/>
<text text-anchor="middle" x="1786" y="-81.5" font-family="Helvetica,sans-Serif" font-size="10.00">MathUtils/Cartesian2D.h</text>
</a>
</g>
</g>
<!-- Node34&#45;&gt;Node41 -->
<g id="edge46" class="edge"><title>Node34&#45;&gt;Node41</title>
<path fill="none" stroke="midnightblue" d="M1563.21,-142.439C1609.15,-130.594 1692.16,-109.192 1742.86,-96.1223"/>
<polygon fill="midnightblue" stroke="midnightblue" points="1744.04,-99.4313 1752.85,-93.5455 1742.3,-92.6529 1744.04,-99.4313"/>
</g>
<!-- Node42 -->
<g id="node42" class="node"><title>Node42</title>
<polygon fill="none" stroke="#bfbfbf" points="1614.5,-1 1614.5,-31 1765.5,-31 1765.5,-1 1614.5,-1"/>
<text text-anchor="start" x="1622.5" y="-19" font-family="Helvetica,sans-Serif" font-size="10.00">Math/GenVector/Displacement</text>
<text text-anchor="middle" x="1690" y="-8" font-family="Helvetica,sans-Serif" font-size="10.00">Vector2D.h</text>
</g>
<!-- Node41&#45;&gt;Node42 -->
<g id="edge47" class="edge"><title>Node41&#45;&gt;Node42</title>
<path fill="none" stroke="midnightblue" d="M1773.45,-74.3717C1759.74,-64.9429 1737.3,-49.5167 1719.14,-37.0338"/>
<polygon fill="midnightblue" stroke="midnightblue" points="1720.85,-33.9626 1710.63,-31.1815 1716.89,-39.7309 1720.85,-33.9626"/>
</g>
<!-- Node43 -->
<g id="node43" class="node"><title>Node43</title>
<polygon fill="none" stroke="#bfbfbf" points="1784,-6.5 1784,-25.5 1960,-25.5 1960,-6.5 1784,-6.5"/>
<text text-anchor="middle" x="1872" y="-13.5" font-family="Helvetica,sans-Serif" font-size="10.00">Math/GenVector/PositionVector2D.h</text>
</g>
<!-- Node41&#45;&gt;Node43 -->
<g id="edge48" class="edge"><title>Node41&#45;&gt;Node43</title>
<path fill="none" stroke="midnightblue" d="M1797.24,-74.3717C1811.28,-63.6004 1835.51,-45.0021 1852.58,-31.9065"/>
<polygon fill="midnightblue" stroke="midnightblue" points="1854.95,-34.4953 1860.75,-25.6305 1850.69,-28.9421 1854.95,-34.4953"/>
</g>
<!-- Node47&#45;&gt;Node27 -->
<g id="edge54" class="edge"><title>Node47&#45;&gt;Node27</title>
<path fill="none" stroke="midnightblue" d="M768.676,-278.32C774.538,-247.958 794.21,-146.064 802.388,-103.71"/>
<polygon fill="midnightblue" stroke="midnightblue" points="805.827,-104.357 804.287,-93.8748 798.954,-103.03 805.827,-104.357"/>
</g>
<!-- Node49 -->
<g id="node49" class="node"><title>Node49</title>
<g id="a_node49"><a xlink:href="../../df/d9c/TOF_2base_2include_2TOFBase_2Digit_8h.html" target="_top" xlink:title="TOFBase/Digit.h">
<polygon fill="none" stroke="black" points="978,-278.5 978,-297.5 1068,-297.5 1068,-278.5 978,-278.5"/>
<text text-anchor="middle" x="1023" y="-285.5" font-family="Helvetica,sans-Serif" font-size="10.00">TOFBase/Digit.h</text>
</a>
</g>
</g>
<!-- Node48&#45;&gt;Node49 -->
<g id="edge56" class="edge"><title>Node48&#45;&gt;Node49</title>
<path fill="none" stroke="midnightblue" d="M1039.52,-346.372C1036.69,-336.544 1031.98,-320.202 1028.32,-307.467"/>
<polygon fill="midnightblue" stroke="midnightblue" points="1031.68,-306.483 1025.55,-297.841 1024.95,-308.419 1031.68,-306.483"/>
</g>
<!-- Node49&#45;&gt;Node21 -->
<g id="edge57" class="edge"><title>Node49&#45;&gt;Node21</title>
<path fill="none" stroke="midnightblue" d="M1019.19,-278.367C1014.75,-268.249 1007.22,-250.959 1001,-236 982.629,-191.797 992.13,-172.363 961,-136 952.357,-125.904 923.285,-109.639 901.315,-98.1973"/>
<polygon fill="midnightblue" stroke="midnightblue" points="902.908,-95.0809 892.414,-93.6209 899.707,-101.306 902.908,-95.0809"/>
</g>
<!-- Node49&#45;&gt;Node27 -->
<g id="edge58" class="edge"><title>Node49&#45;&gt;Node27</title>
<path fill="none" stroke="midnightblue" d="M1013.68,-278.32C980.295,-247.247 866.433,-141.256 823.011,-100.835"/>
<polygon fill="midnightblue" stroke="midnightblue" points="825.238,-98.1266 815.534,-93.8748 820.469,-103.25 825.238,-98.1266"/>
</g>
<!-- Node49&#45;&gt;Node44 -->
<g id="edge59" class="edge"><title>Node49&#45;&gt;Node44</title>
<path fill="none" stroke="midnightblue" d="M1027.44,-278.372C1031.9,-269.714 1038.97,-256.001 1045.07,-244.152"/>
<polygon fill="midnightblue" stroke="midnightblue" points="1048.23,-245.674 1049.69,-235.181 1042,-242.468 1048.23,-245.674"/>
</g>
<!-- Node50&#45;&gt;Node28 -->
<g id="edge62" class="edge"><title>Node50&#45;&gt;Node28</title>
<path fill="none" stroke="midnightblue" d="M2457.54,-136.841C2438.09,-125.579 2411.03,-109.913 2391.76,-98.7572"/>
<polygon fill="midnightblue" stroke="midnightblue" points="2393.4,-95.6633 2383,-93.6819 2389.9,-101.721 2393.4,-95.6633"/>
</g>
<!-- Node50&#45;&gt;Node30 -->
<g id="edge65" class="edge"><title>Node50&#45;&gt;Node30</title>
<path fill="none" stroke="midnightblue" d="M2473.32,-136.679C2467.27,-126.694 2459.16,-113.307 2452.7,-102.66"/>
<polygon fill="midnightblue" stroke="midnightblue" points="2455.53,-100.566 2447.35,-93.8283 2449.54,-104.194 2455.53,-100.566"/>
</g>
<!-- Node51 -->
<g id="node51" class="node"><title>Node51</title>
<polygon fill="none" stroke="#bfbfbf" points="2491,-74.5 2491,-93.5 2553,-93.5 2553,-74.5 2491,-74.5"/>
<text text-anchor="middle" x="2522" y="-81.5" font-family="Helvetica,sans-Serif" font-size="10.00">TNamed.h</text>
</g>
<!-- Node50&#45;&gt;Node51 -->
<g id="edge61" class="edge"><title>Node50&#45;&gt;Node51</title>
<path fill="none" stroke="midnightblue" d="M2490.68,-136.679C2496.73,-126.694 2504.84,-113.307 2511.3,-102.66"/>
<polygon fill="midnightblue" stroke="midnightblue" points="2514.46,-104.194 2516.65,-93.8283 2508.47,-100.566 2514.46,-104.194"/>
</g>
<!-- Node52 -->
<g id="node52" class="node"><title>Node52</title>
<polygon fill="none" stroke="#bfbfbf" points="2571.5,-74.5 2571.5,-93.5 2630.5,-93.5 2630.5,-74.5 2571.5,-74.5"/>
<text text-anchor="middle" x="2601" y="-81.5" font-family="Helvetica,sans-Serif" font-size="10.00">stdexcept</text>
</g>
<!-- Node50&#45;&gt;Node52 -->
<g id="edge63" class="edge"><title>Node50&#45;&gt;Node52</title>
<path fill="none" stroke="midnightblue" d="M2507.53,-136.841C2527.93,-125.528 2556.34,-109.771 2576.47,-98.6053"/>
<polygon fill="midnightblue" stroke="midnightblue" points="2578.3,-101.593 2585.35,-93.6819 2574.9,-95.4714 2578.3,-101.593"/>
</g>
<!-- Node53 -->
<g id="node53" class="node"><title>Node53</title>
<polygon fill="none" stroke="#bfbfbf" points="2648.5,-74.5 2648.5,-93.5 2693.5,-93.5 2693.5,-74.5 2648.5,-74.5"/>
<text text-anchor="middle" x="2671" y="-81.5" font-family="Helvetica,sans-Serif" font-size="10.00">gsl/gsl</text>
</g>
<!-- Node50&#45;&gt;Node53 -->
<g id="edge64" class="edge"><title>Node50&#45;&gt;Node53</title>
<path fill="none" stroke="midnightblue" d="M2530.65,-136.905C2561.94,-127.421 2603.28,-114.109 2639,-100 2640.65,-99.3491 2642.33,-98.6542 2644.02,-97.9335"/>
<polygon fill="midnightblue" stroke="midnightblue" points="2645.88,-100.937 2653.57,-93.6505 2643.01,-94.5508 2645.88,-100.937"/>
</g>
<!-- Node54&#45;&gt;Node27 -->
<g id="edge67" class="edge"><title>Node54&#45;&gt;Node27</title>
<path fill="none" stroke="midnightblue" d="M843.906,-340.864C837.211,-295.671 816.324,-154.689 808.766,-103.668"/>
<polygon fill="midnightblue" stroke="midnightblue" points="812.219,-103.095 807.291,-93.7155 805.295,-104.121 812.219,-103.095"/>
</g>
</g>
</svg>
        <g id="navigator" transform="translate(0 0)" fill="#404254">
                <rect fill="#f2f5e9" fill-opacity="0.5" stroke="#606060" stroke-width=".5" x="0" y="0" width="60" height="60"/>
                <use id="zoomplus" xlink:href="#zoomPlus" x="17" y="9" onmousedown="handleZoom(evt,'in')"/>
                <use id="zoomminus" xlink:href="#zoomMin" x="42" y="9" onmousedown="handleZoom(evt,'out')"/>
                <use id="reset" xlink:href="#resetDef" x="30" y="36" onmousedown="handleReset()"/>
                <g id="arrowUp" xlink:href="#dirArrow" transform="translate(30 24)" onmousedown="handlePan(0,-1)">
                  <use xlink:href="#rim" fill="#404040">
                        <set attributeName="fill" to="#808080" begin="arrowUp.mouseover" end="arrowUp.mouseout"/>
                  </use>
                  <path fill="none" stroke="white" stroke-width="1.5" d="M0,-3.0v7 M-2.5,-0.5L0,-3.0L2.5,-0.5"/>
                </g>
                <g id="arrowRight" xlink:href="#dirArrow" transform="rotate(90) translate(36 -43)" onmousedown="handlePan(1,0)">
                  <use xlink:href="#rim" fill="#404040">
                        <set attributeName="fill" to="#808080" begin="arrowRight.mouseover" end="arrowRight.mouseout"/>
                  </use>
                  <path fill="none" stroke="white" stroke-width="1.5" d="M0,-3.0v7 M-2.5,-0.5L0,-3.0L2.5,-0.5"/>
                </g>
                <g id="arrowDown" xlink:href="#dirArrow" transform="rotate(180) translate(-30 -48)" onmousedown="handlePan(0,1)">
                  <use xlink:href="#rim" fill="#404040">
                        <set attributeName="fill" to="#808080" begin="arrowDown.mouseover" end="arrowDown.mouseout"/>
                  </use>
                  <path fill="none" stroke="white" stroke-width="1.5" d="M0,-3.0v7 M-2.5,-0.5L0,-3.0L2.5,-0.5"/>
                </g>
                <g id="arrowLeft" xlink:href="#dirArrow" transform="rotate(270) translate(-36 17)" onmousedown="handlePan(-1,0)">
                  <use xlink:href="#rim" fill="#404040">
                        <set attributeName="fill" to="#808080" begin="arrowLeft.mouseover" end="arrowLeft.mouseout"/>
                  </use>
                  <path fill="none" stroke="white" stroke-width="1.5" d="M0,-3.0v7 M-2.5,-0.5L0,-3.0L2.5,-0.5"/>
                </g>
        </g>
        <svg viewBox="0 0 15 15" width="100%" height="30px" preserveAspectRatio="xMaxYMin meet">
         <g id="arrow_out" transform="scale(0.3 0.3)">
          <a xlink:href="run__clus__tof_8C__incl_org.svg" target="_base">
           <rect id="button" ry="5" rx="5" y="6" x="6" height="38" width="38"
                fill="#f2f5e9" fill-opacity="0.5" stroke="#606060" stroke-width="1.0"/>
           <path id="arrow"
             d="M 11.500037,31.436501 C 11.940474,20.09759 22.043105,11.32322 32.158766,21.979434 L 37.068811,17.246167 C 37.068811,17.246167 37.088388,32 37.088388,32 L 22.160133,31.978069 C 22.160133,31.978069 26.997745,27.140456 26.997745,27.140456 C 18.528582,18.264221 13.291696,25.230495 11.500037,31.436501 z"
             style="fill:#404040;"/>
          </a>
         </g>
        </svg>
</svg>
