<?xml version="1.0" encoding="UTF-8" standalone="no"?>
<!DOCTYPE svg PUBLIC "-//W3C//DTD SVG 1.1//EN"
 "http://www.w3.org/Graphics/SVG/1.1/DTD/svg11.dtd">
<!-- Generated by graphviz version 2.36.0 (20140111.2315)
 -->
<!-- Title: /home/travis/build/AliceO2Group/AliceO2/Detectors/MUON/MCH/Mapping/Interface/include/MCHMappingInterface/CathodeSegmentationCInterface.h Pages: 1 -->
<svg width="1958pt" height="462pt"
 viewBox="0.00 0.00 1958.00 462.00" xmlns="http://www.w3.org/2000/svg" xmlns:xlink="http://www.w3.org/1999/xlink">
<g id="graph0" class="graph" transform="scale(1 1) rotate(0) translate(4 458)">
<title>/home/travis/build/AliceO2Group/AliceO2/Detectors/MUON/MCH/Mapping/Interface/include/MCHMappingInterface/CathodeSegmentationCInterface.h</title>
<!-- Node1 -->
<g id="node1" class="node"><title>Node1</title>
<polygon fill="#bfbfbf" stroke="black" points="747.5,-390.5 747.5,-453.5 940.5,-453.5 940.5,-390.5 747.5,-390.5"/>
<text text-anchor="start" x="755.5" y="-441.5" font-family="Helvetica,sans-Serif" font-size="10.00">/home/travis/build</text>
<text text-anchor="start" x="755.5" y="-430.5" font-family="Helvetica,sans-Serif" font-size="10.00">/AliceO2Group/AliceO2</text>
<text text-anchor="start" x="755.5" y="-419.5" font-family="Helvetica,sans-Serif" font-size="10.00">/Detectors/MUON/MCH/Mapping</text>
<text text-anchor="start" x="755.5" y="-408.5" font-family="Helvetica,sans-Serif" font-size="10.00">/Interface/include/MCHMappingInterface</text>
<text text-anchor="middle" x="844" y="-397.5" font-family="Helvetica,sans-Serif" font-size="10.00">/CathodeSegmentationCInterface.h</text>
</g>
<!-- Node2 -->
<g id="node2" class="node"><title>Node2</title>
<g id="a_node2"><a xlink:href="../../d7/d08/CathodeSegmentationCImpl3_8cxx.html" target="_top" xlink:title="/home/travis/build\l/AliceO2Group/AliceO2\l/Detectors/MUON/MCH/Mapping\l/Impl3/src/CathodeSegmentationCImpl3.cxx">
<polygon fill="none" stroke="black" points="629,-296 629,-348 839,-348 839,-296 629,-296"/>
<text text-anchor="start" x="637" y="-336" font-family="Helvetica,sans-Serif" font-size="10.00">/home/travis/build</text>
<text text-anchor="start" x="637" y="-325" font-family="Helvetica,sans-Serif" font-size="10.00">/AliceO2Group/AliceO2</text>
<text text-anchor="start" x="637" y="-314" font-family="Helvetica,sans-Serif" font-size="10.00">/Detectors/MUON/MCH/Mapping</text>
<text text-anchor="middle" x="734" y="-303" font-family="Helvetica,sans-Serif" font-size="10.00">/Impl3/src/CathodeSegmentationCImpl3.cxx</text>
</a>
</g>
</g>
<!-- Node1&#45;&gt;Node2 -->
<g id="edge1" class="edge"><title>Node1&#45;&gt;Node2</title>
<path fill="none" stroke="midnightblue" d="M801.82,-383.421C788.53,-371.581 774.182,-358.799 762.121,-348.054"/>
<polygon fill="midnightblue" stroke="midnightblue" points="799.702,-386.222 809.497,-390.261 804.359,-380.996 799.702,-386.222"/>
</g>
<!-- Node3 -->
<g id="node3" class="node"><title>Node3</title>
<g id="a_node3"><a xlink:href="../../df/db6/CathodeSegmentation_8h.html" target="_top" xlink:title="/home/travis/build\l/AliceO2Group/AliceO2\l/Detectors/MUON/MCH/Mapping\l/Interface/include/MCHMappingInterface\l/CathodeSegmentation.h">
<polygon fill="none" stroke="black" points="857.5,-290.5 857.5,-353.5 1050.5,-353.5 1050.5,-290.5 857.5,-290.5"/>
<text text-anchor="start" x="865.5" y="-341.5" font-family="Helvetica,sans-Serif" font-size="10.00">/home/travis/build</text>
<text text-anchor="start" x="865.5" y="-330.5" font-family="Helvetica,sans-Serif" font-size="10.00">/AliceO2Group/AliceO2</text>
<text text-anchor="start" x="865.5" y="-319.5" font-family="Helvetica,sans-Serif" font-size="10.00">/Detectors/MUON/MCH/Mapping</text>
<text text-anchor="start" x="865.5" y="-308.5" font-family="Helvetica,sans-Serif" font-size="10.00">/Interface/include/MCHMappingInterface</text>
<text text-anchor="middle" x="954" y="-297.5" font-family="Helvetica,sans-Serif" font-size="10.00">/CathodeSegmentation.h</text>
</a>
</g>
</g>
<!-- Node1&#45;&gt;Node3 -->
<g id="edge2" class="edge"><title>Node1&#45;&gt;Node3</title>
<path fill="none" stroke="midnightblue" d="M886.042,-383.545C897.138,-373.659 908.981,-363.108 919.62,-353.63"/>
<polygon fill="midnightblue" stroke="midnightblue" points="883.641,-380.996 878.503,-390.261 888.298,-386.222 883.641,-380.996"/>
</g>
<!-- Node4 -->
<g id="node4" class="node"><title>Node4</title>
<g id="a_node4"><a xlink:href="../../d7/d47/CathodeSegmentationImpl3_8cxx.html" target="_top" xlink:title="/home/travis/build\l/AliceO2Group/AliceO2\l/Detectors/MUON/MCH/Mapping\l/Impl3/src/CathodeSegmentationImpl3.cxx">
<polygon fill="none" stroke="black" points="379.5,-196 379.5,-248 582.5,-248 582.5,-196 379.5,-196"/>
<text text-anchor="start" x="387.5" y="-236" font-family="Helvetica,sans-Serif" font-size="10.00">/home/travis/build</text>
<text text-anchor="start" x="387.5" y="-225" font-family="Helvetica,sans-Serif" font-size="10.00">/AliceO2Group/AliceO2</text>
<text text-anchor="start" x="387.5" y="-214" font-family="Helvetica,sans-Serif" font-size="10.00">/Detectors/MUON/MCH/Mapping</text>
<text text-anchor="middle" x="481" y="-203" font-family="Helvetica,sans-Serif" font-size="10.00">/Impl3/src/CathodeSegmentationImpl3.cxx</text>
</a>
</g>
</g>
<!-- Node3&#45;&gt;Node4 -->
<g id="edge3" class="edge"><title>Node3&#45;&gt;Node4</title>
<path fill="none" stroke="midnightblue" d="M847.438,-290.006C736.072,-266.689 704.283,-275.948 597,-254 588.32,-252.224 579.326,-250.184 570.359,-248.015"/>
<polygon fill="midnightblue" stroke="midnightblue" points="846.872,-293.464 857.383,-292.13 848.334,-286.619 846.872,-293.464"/>
</g>
<!-- Node5 -->
<g id="node5" class="node"><title>Node5</title>
<g id="a_node5"><a xlink:href="../../d6/d1f/MUON_2MCH_2Mapping_2Interface_2include_2MCHMappingInterface_2Segmentation_8h.html" target="_top" xlink:title="/home/travis/build\l/AliceO2Group/AliceO2\l/Detectors/MUON/MCH/Mapping\l/Interface/include/MCHMappingInterface\l/Segmentation.h">
<polygon fill="none" stroke="black" points="1525.5,-190.5 1525.5,-253.5 1718.5,-253.5 1718.5,-190.5 1525.5,-190.5"/>
<text text-anchor="start" x="1533.5" y="-241.5" font-family="Helvetica,sans-Serif" font-size="10.00">/home/travis/build</text>
<text text-anchor="start" x="1533.5" y="-230.5" font-family="Helvetica,sans-Serif" font-size="10.00">/AliceO2Group/AliceO2</text>
<text text-anchor="start" x="1533.5" y="-219.5" font-family="Helvetica,sans-Serif" font-size="10.00">/Detectors/MUON/MCH/Mapping</text>
<text text-anchor="start" x="1533.5" y="-208.5" font-family="Helvetica,sans-Serif" font-size="10.00">/Interface/include/MCHMappingInterface</text>
<text text-anchor="middle" x="1622" y="-197.5" font-family="Helvetica,sans-Serif" font-size="10.00">/Segmentation.h</text>
</a>
</g>
</g>
<!-- Node3&#45;&gt;Node5 -->
<g id="edge4" class="edge"><title>Node3&#45;&gt;Node5</title>
<path fill="none" stroke="midnightblue" d="M1061,-305.302C1189.2,-286.495 1402.08,-255.264 1525.45,-237.164"/>
<polygon fill="midnightblue" stroke="midnightblue" points="1060.16,-301.888 1050.78,-306.802 1061.18,-308.814 1060.16,-301.888"/>
</g>
<!-- Node10 -->
<g id="node10" class="node"><title>Node10</title>
<g id="a_node10"><a xlink:href="../../d2/d32/CathodeSegmentationContours_8h.html" target="_top" xlink:title="/home/travis/build\l/AliceO2Group/AliceO2\l/Detectors/MUON/MCH/Mapping\l/SegContour/include/MCHMappingSegContour\l/CathodeSegmentationContours.h">
<polygon fill="none" stroke="black" points="677,-190.5 677,-253.5 897,-253.5 897,-190.5 677,-190.5"/>
<text text-anchor="start" x="685" y="-241.5" font-family="Helvetica,sans-Serif" font-size="10.00">/home/travis/build</text>
<text text-anchor="start" x="685" y="-230.5" font-family="Helvetica,sans-Serif" font-size="10.00">/AliceO2Group/AliceO2</text>
<text text-anchor="start" x="685" y="-219.5" font-family="Helvetica,sans-Serif" font-size="10.00">/Detectors/MUON/MCH/Mapping</text>
<text text-anchor="start" x="685" y="-208.5" font-family="Helvetica,sans-Serif" font-size="10.00">/SegContour/include/MCHMappingSegContour</text>
<text text-anchor="middle" x="787" y="-197.5" font-family="Helvetica,sans-Serif" font-size="10.00">/CathodeSegmentationContours.h</text>
</a>
</g>
</g>
<!-- Node3&#45;&gt;Node10 -->
<g id="edge10" class="edge"><title>Node3&#45;&gt;Node10</title>
<path fill="none" stroke="midnightblue" d="M892.594,-284.966C875.06,-274.676 856.124,-263.564 839.196,-253.63"/>
<polygon fill="midnightblue" stroke="midnightblue" points="891.222,-288.218 901.618,-290.261 894.765,-282.181 891.222,-288.218"/>
</g>
<!-- Node12 -->
<g id="node12" class="node"><title>Node12</title>
<g id="a_node12"><a xlink:href="../../de/d54/CathodeSegmentationSVGWriter_8cxx.html" target="_top" xlink:title="/home/travis/build\l/AliceO2Group/AliceO2\l/Detectors/MUON/MCH/Mapping\l/SegContour/src/CathodeSegmentation\lSVGWriter.cxx">
<polygon fill="none" stroke="black" points="0,-90.5 0,-153.5 188,-153.5 188,-90.5 0,-90.5"/>
<text text-anchor="start" x="8" y="-141.5" font-family="Helvetica,sans-Serif" font-size="10.00">/home/travis/build</text>
<text text-anchor="start" x="8" y="-130.5" font-family="Helvetica,sans-Serif" font-size="10.00">/AliceO2Group/AliceO2</text>
<text text-anchor="start" x="8" y="-119.5" font-family="Helvetica,sans-Serif" font-size="10.00">/Detectors/MUON/MCH/Mapping</text>
<text text-anchor="start" x="8" y="-108.5" font-family="Helvetica,sans-Serif" font-size="10.00">/SegContour/src/CathodeSegmentation</text>
<text text-anchor="middle" x="94" y="-97.5" font-family="Helvetica,sans-Serif" font-size="10.00">SVGWriter.cxx</text>
</a>
</g>
</g>
<!-- Node3&#45;&gt;Node12 -->
<g id="edge19" class="edge"><title>Node3&#45;&gt;Node12</title>
<path fill="none" stroke="midnightblue" d="M847.492,-290.116C747.323,-270.552 704.084,-310.609 625,-254 598.809,-235.252 617.821,-207.834 591,-190 517.787,-141.319 283.309,-170.754 197,-154 194.067,-153.431 191.098,-152.811 188.109,-152.151"/>
<polygon fill="midnightblue" stroke="midnightblue" points="846.859,-293.56 857.367,-292.201 848.305,-286.711 846.859,-293.56"/>
</g>
<!-- Node13 -->
<g id="node13" class="node"><title>Node13</title>
<g id="a_node13"><a xlink:href="../../de/d56/SegmentationSVGWriter_8cxx.html" target="_top" xlink:title="/home/travis/build\l/AliceO2Group/AliceO2\l/Detectors/MUON/MCH/Mapping\l/SegContour/src/SegmentationSVGWriter.cxx">
<polygon fill="none" stroke="black" points="206.5,-96 206.5,-148 423.5,-148 423.5,-96 206.5,-96"/>
<text text-anchor="start" x="214.5" y="-136" font-family="Helvetica,sans-Serif" font-size="10.00">/home/travis/build</text>
<text text-anchor="start" x="214.5" y="-125" font-family="Helvetica,sans-Serif" font-size="10.00">/AliceO2Group/AliceO2</text>
<text text-anchor="start" x="214.5" y="-114" font-family="Helvetica,sans-Serif" font-size="10.00">/Detectors/MUON/MCH/Mapping</text>
<text text-anchor="middle" x="315" y="-103" font-family="Helvetica,sans-Serif" font-size="10.00">/SegContour/src/SegmentationSVGWriter.cxx</text>
</a>
</g>
</g>
<!-- Node3&#45;&gt;Node13 -->
<g id="edge20" class="edge"><title>Node3&#45;&gt;Node13</title>
<path fill="none" stroke="midnightblue" d="M847.203,-290.019C766.149,-272.664 733.218,-297.506 668,-254 639.493,-234.983 653.621,-208.845 625,-190 552.486,-142.255 517.706,-173.042 433,-154 424.837,-152.165 416.384,-150.158 407.924,-148.076"/>
<polygon fill="midnightblue" stroke="midnightblue" points="846.801,-293.518 857.331,-292.352 848.372,-286.697 846.801,-293.518"/>
</g>
<!-- Node14 -->
<g id="node14" class="node"><title>Node14</title>
<g id="a_node14"><a xlink:href="../../d2/d0f/SVGSegmentation_8cxx.html" target="_top" xlink:title="/home/travis/build\l/AliceO2Group/AliceO2\l/Detectors/MUON/MCH/Mapping\l/SegContour/src/SVGSegmentation.cxx">
<polygon fill="none" stroke="black" points="686.5,-96 686.5,-148 877.5,-148 877.5,-96 686.5,-96"/>
<text text-anchor="start" x="694.5" y="-136" font-family="Helvetica,sans-Serif" font-size="10.00">/home/travis/build</text>
<text text-anchor="start" x="694.5" y="-125" font-family="Helvetica,sans-Serif" font-size="10.00">/AliceO2Group/AliceO2</text>
<text text-anchor="start" x="694.5" y="-114" font-family="Helvetica,sans-Serif" font-size="10.00">/Detectors/MUON/MCH/Mapping</text>
<text text-anchor="middle" x="782" y="-103" font-family="Helvetica,sans-Serif" font-size="10.00">/SegContour/src/SVGSegmentation.cxx</text>
</a>
</g>
</g>
<!-- Node3&#45;&gt;Node14 -->
<g id="edge21" class="edge"><title>Node3&#45;&gt;Node14</title>
<path fill="none" stroke="midnightblue" d="M947.009,-280.376C940.434,-252.327 928.162,-215.611 906,-190 890.709,-172.329 869.57,-158.518 849.075,-148.147"/>
<polygon fill="midnightblue" stroke="midnightblue" points="943.62,-281.263 949.181,-290.281 950.457,-279.763 943.62,-281.263"/>
</g>
<!-- Node15 -->
<g id="node15" class="node"><title>Node15</title>
<g id="a_node15"><a xlink:href="../../d8/df7/BenchCathodeSegmentation_8cxx.html" target="_top" xlink:title="/home/travis/build\l/AliceO2Group/AliceO2\l/Detectors/MUON/MCH/Mapping\l/test/src/BenchCathodeSegmentation.cxx">
<polygon fill="none" stroke="black" points="895.5,-96 895.5,-148 1094.5,-148 1094.5,-96 895.5,-96"/>
<text text-anchor="start" x="903.5" y="-136" font-family="Helvetica,sans-Serif" font-size="10.00">/home/travis/build</text>
<text text-anchor="start" x="903.5" y="-125" font-family="Helvetica,sans-Serif" font-size="10.00">/AliceO2Group/AliceO2</text>
<text text-anchor="start" x="903.5" y="-114" font-family="Helvetica,sans-Serif" font-size="10.00">/Detectors/MUON/MCH/Mapping</text>
<text text-anchor="middle" x="995" y="-103" font-family="Helvetica,sans-Serif" font-size="10.00">/test/src/BenchCathodeSegmentation.cxx</text>
</a>
</g>
</g>
<!-- Node3&#45;&gt;Node15 -->
<g id="edge22" class="edge"><title>Node3&#45;&gt;Node15</title>
<path fill="none" stroke="midnightblue" d="M962.364,-280.608C970.582,-240.92 982.867,-181.594 989.783,-148.196"/>
<polygon fill="midnightblue" stroke="midnightblue" points="958.917,-279.994 960.316,-290.496 965.771,-281.414 958.917,-279.994"/>
</g>
<!-- Node16 -->
<g id="node16" class="node"><title>Node16</title>
<g id="a_node16"><a xlink:href="../../df/dc1/CathodeSegmentation_8cxx.html" target="_top" xlink:title="/home/travis/build\l/AliceO2Group/AliceO2\l/Detectors/MUON/MCH/Mapping\l/test/src/CathodeSegmentation.cxx">
<polygon fill="none" stroke="black" points="1112.5,-96 1112.5,-148 1283.5,-148 1283.5,-96 1112.5,-96"/>
<text text-anchor="start" x="1120.5" y="-136" font-family="Helvetica,sans-Serif" font-size="10.00">/home/travis/build</text>
<text text-anchor="start" x="1120.5" y="-125" font-family="Helvetica,sans-Serif" font-size="10.00">/AliceO2Group/AliceO2</text>
<text text-anchor="start" x="1120.5" y="-114" font-family="Helvetica,sans-Serif" font-size="10.00">/Detectors/MUON/MCH/Mapping</text>
<text text-anchor="middle" x="1198" y="-103" font-family="Helvetica,sans-Serif" font-size="10.00">/test/src/CathodeSegmentation.cxx</text>
</a>
</g>
</g>
<!-- Node3&#45;&gt;Node16 -->
<g id="edge23" class="edge"><title>Node3&#45;&gt;Node16</title>
<path fill="none" stroke="midnightblue" d="M999.48,-284.094C1048.31,-244.469 1124.57,-182.587 1166.95,-148.196"/>
<polygon fill="midnightblue" stroke="midnightblue" points="997.15,-281.477 991.59,-290.496 1001.56,-286.913 997.15,-281.477"/>
</g>
<!-- Node17 -->
<g id="node17" class="node"><title>Node17</title>
<g id="a_node17"><a xlink:href="../../d2/dba/CathodeSegmentationLong_8cxx.html" target="_top" xlink:title="/home/travis/build\l/AliceO2Group/AliceO2\l/Detectors/MUON/MCH/Mapping\l/test/src/CathodeSegmentationLong.cxx">
<polygon fill="none" stroke="black" points="1302,-96 1302,-148 1494,-148 1494,-96 1302,-96"/>
<text text-anchor="start" x="1310" y="-136" font-family="Helvetica,sans-Serif" font-size="10.00">/home/travis/build</text>
<text text-anchor="start" x="1310" y="-125" font-family="Helvetica,sans-Serif" font-size="10.00">/AliceO2Group/AliceO2</text>
<text text-anchor="start" x="1310" y="-114" font-family="Helvetica,sans-Serif" font-size="10.00">/Detectors/MUON/MCH/Mapping</text>
<text text-anchor="middle" x="1398" y="-103" font-family="Helvetica,sans-Serif" font-size="10.00">/test/src/CathodeSegmentationLong.cxx</text>
</a>
</g>
</g>
<!-- Node3&#45;&gt;Node17 -->
<g id="edge24" class="edge"><title>Node3&#45;&gt;Node17</title>
<path fill="none" stroke="midnightblue" d="M1031.61,-286.391C1120.3,-246.841 1263.28,-183.076 1341.84,-148.045"/>
<polygon fill="midnightblue" stroke="midnightblue" points="1030.11,-283.227 1022.4,-290.496 1032.96,-289.62 1030.11,-283.227"/>
</g>
<!-- Node18 -->
<g id="node18" class="node"><title>Node18</title>
<g id="a_node18"><a xlink:href="../../dd/df0/testGeometry_8cxx.html" target="_top" xlink:title="/home/travis/build\l/AliceO2Group/AliceO2\l/Detectors/MUON/MCH/Simulation\l/test/testGeometry.cxx">
<polygon fill="none" stroke="black" points="1736.5,-196 1736.5,-248 1907.5,-248 1907.5,-196 1736.5,-196"/>
<text text-anchor="start" x="1744.5" y="-236" font-family="Helvetica,sans-Serif" font-size="10.00">/home/travis/build</text>
<text text-anchor="start" x="1744.5" y="-225" font-family="Helvetica,sans-Serif" font-size="10.00">/AliceO2Group/AliceO2</text>
<text text-anchor="start" x="1744.5" y="-214" font-family="Helvetica,sans-Serif" font-size="10.00">/Detectors/MUON/MCH/Simulation</text>
<text text-anchor="middle" x="1822" y="-203" font-family="Helvetica,sans-Serif" font-size="10.00">/test/testGeometry.cxx</text>
</a>
</g>
</g>
<!-- Node3&#45;&gt;Node18 -->
<g id="edge25" class="edge"><title>Node3&#45;&gt;Node18</title>
<path fill="none" stroke="midnightblue" d="M1060.65,-319.445C1210.78,-315.522 1492.33,-301.8 1727,-254 1734.9,-252.39 1743.07,-250.342 1751.15,-248.068"/>
<polygon fill="midnightblue" stroke="midnightblue" points="1060.42,-315.949 1050.51,-319.7 1060.6,-322.947 1060.42,-315.949"/>
</g>
<!-- Node6 -->
<g id="node6" class="node"><title>Node6</title>
<g id="a_node6"><a xlink:href="../../dd/d1c/SegmentationContours_8h.html" target="_top" xlink:title="/home/travis/build\l/AliceO2Group/AliceO2\l/Detectors/MUON/MCH/Mapping\l/SegContour/include/MCHMappingSegContour\l/SegmentationContours.h">
<polygon fill="none" stroke="black" points="1512,-90.5 1512,-153.5 1732,-153.5 1732,-90.5 1512,-90.5"/>
<text text-anchor="start" x="1520" y="-141.5" font-family="Helvetica,sans-Serif" font-size="10.00">/home/travis/build</text>
<text text-anchor="start" x="1520" y="-130.5" font-family="Helvetica,sans-Serif" font-size="10.00">/AliceO2Group/AliceO2</text>
<text text-anchor="start" x="1520" y="-119.5" font-family="Helvetica,sans-Serif" font-size="10.00">/Detectors/MUON/MCH/Mapping</text>
<text text-anchor="start" x="1520" y="-108.5" font-family="Helvetica,sans-Serif" font-size="10.00">/SegContour/include/MCHMappingSegContour</text>
<text text-anchor="middle" x="1622" y="-97.5" font-family="Helvetica,sans-Serif" font-size="10.00">/SegmentationContours.h</text>
</a>
</g>
</g>
<!-- Node5&#45;&gt;Node6 -->
<g id="edge5" class="edge"><title>Node5&#45;&gt;Node6</title>
<path fill="none" stroke="midnightblue" d="M1622,-180.099C1622,-171.238 1622,-162.015 1622,-153.63"/>
<polygon fill="midnightblue" stroke="midnightblue" points="1618.5,-180.261 1622,-190.261 1625.5,-180.261 1618.5,-180.261"/>
</g>
<!-- Node8 -->
<g id="node8" class="node"><title>Node8</title>
<g id="a_node8"><a xlink:href="../../d5/d2d/MUON_2MCH_2Mapping_2test_2src_2Segmentation_8cxx.html" target="_top" xlink:title="/home/travis/build\l/AliceO2Group/AliceO2\l/Detectors/MUON/MCH/Mapping\l/test/src/Segmentation.cxx">
<polygon fill="none" stroke="black" points="1610,-1 1610,-53 1772,-53 1772,-1 1610,-1"/>
<text text-anchor="start" x="1618" y="-41" font-family="Helvetica,sans-Serif" font-size="10.00">/home/travis/build</text>
<text text-anchor="start" x="1618" y="-30" font-family="Helvetica,sans-Serif" font-size="10.00">/AliceO2Group/AliceO2</text>
<text text-anchor="start" x="1618" y="-19" font-family="Helvetica,sans-Serif" font-size="10.00">/Detectors/MUON/MCH/Mapping</text>
<text text-anchor="middle" x="1691" y="-8" font-family="Helvetica,sans-Serif" font-size="10.00">/test/src/Segmentation.cxx</text>
</a>
</g>
</g>
<!-- Node5&#45;&gt;Node8 -->
<g id="edge9" class="edge"><title>Node5&#45;&gt;Node8</title>
<path fill="none" stroke="midnightblue" d="M1712.33,-184.551C1723.76,-176.194 1733.92,-166.106 1741,-154 1755.36,-129.444 1750.47,-116.822 1741,-90 1736.21,-76.4389 1727.06,-63.6638 1717.89,-53.2742"/>
<polygon fill="midnightblue" stroke="midnightblue" points="1710.11,-181.826 1703.8,-190.335 1714.04,-187.62 1710.11,-181.826"/>
</g>
<!-- Node9 -->
<g id="node9" class="node"><title>Node9</title>
<g id="a_node9"><a xlink:href="../../da/d72/BenchSegmentation_8cxx.html" target="_top" xlink:title="/home/travis/build\l/AliceO2Group/AliceO2\l/Detectors/MUON/MCH/Mapping\l/test/src/BenchSegmentation.cxx">
<polygon fill="none" stroke="black" points="1788,-96 1788,-148 1950,-148 1950,-96 1788,-96"/>
<text text-anchor="start" x="1796" y="-136" font-family="Helvetica,sans-Serif" font-size="10.00">/home/travis/build</text>
<text text-anchor="start" x="1796" y="-125" font-family="Helvetica,sans-Serif" font-size="10.00">/AliceO2Group/AliceO2</text>
<text text-anchor="start" x="1796" y="-114" font-family="Helvetica,sans-Serif" font-size="10.00">/Detectors/MUON/MCH/Mapping</text>
<text text-anchor="middle" x="1869" y="-103" font-family="Helvetica,sans-Serif" font-size="10.00">/test/src/BenchSegmentation.cxx</text>
</a>
</g>
</g>
<!-- Node5&#45;&gt;Node9 -->
<g id="edge8" class="edge"><title>Node5&#45;&gt;Node9</title>
<path fill="none" stroke="midnightblue" d="M1708.49,-186.682C1740.49,-173.989 1776.13,-159.847 1805.69,-148.121"/>
<polygon fill="midnightblue" stroke="midnightblue" points="1707.14,-183.454 1699.14,-190.395 1709.72,-189.961 1707.14,-183.454"/>
</g>
<!-- Node7 -->
<g id="node7" class="node"><title>Node7</title>
<g id="a_node7"><a xlink:href="../../de/de2/SegmentationContours_8cxx.html" target="_top" xlink:title="/home/travis/build\l/AliceO2Group/AliceO2\l/Detectors/MUON/MCH/Mapping\l/SegContour/src/SegmentationContours.cxx">
<polygon fill="none" stroke="black" points="933.5,-1 933.5,-53 1142.5,-53 1142.5,-1 933.5,-1"/>
<text text-anchor="start" x="941.5" y="-41" font-family="Helvetica,sans-Serif" font-size="10.00">/home/travis/build</text>
<text text-anchor="start" x="941.5" y="-30" font-family="Helvetica,sans-Serif" font-size="10.00">/AliceO2Group/AliceO2</text>
<text text-anchor="start" x="941.5" y="-19" font-family="Helvetica,sans-Serif" font-size="10.00">/Detectors/MUON/MCH/Mapping</text>
<text text-anchor="middle" x="1038" y="-8" font-family="Helvetica,sans-Serif" font-size="10.00">/SegContour/src/SegmentationContours.cxx</text>
</a>
</g>
</g>
<!-- Node6&#45;&gt;Node7 -->
<g id="edge6" class="edge"><title>Node6&#45;&gt;Node7</title>
<path fill="none" stroke="midnightblue" d="M1501.85,-89.8556C1373.1,-65.0523 1235.18,-48.1813 1142.94,-38.2856"/>
<polygon fill="midnightblue" stroke="midnightblue" points="1501.41,-93.3352 1511.89,-91.8103 1502.74,-86.4642 1501.41,-93.3352"/>
</g>
<!-- Node6&#45;&gt;Node8 -->
<g id="edge7" class="edge"><title>Node6&#45;&gt;Node8</title>
<path fill="none" stroke="midnightblue" d="M1650.8,-82.1833C1658.09,-72.3522 1665.74,-62.0498 1672.38,-53.1001"/>
<polygon fill="midnightblue" stroke="midnightblue" points="1647.93,-80.1741 1644.78,-90.2906 1653.55,-84.3451 1647.93,-80.1741"/>
</g>
<!-- Node10&#45;&gt;Node7 -->
<g id="edge13" class="edge"><title>Node10&#45;&gt;Node7</title>
<path fill="none" stroke="midnightblue" d="M704.691,-184.529C693.602,-176.104 683.742,-166.001 677,-154 663.068,-129.201 658.668,-111.749 677,-90 709.275,-51.7096 838.48,-37.0665 933.129,-31.4669"/>
<polygon fill="midnightblue" stroke="midnightblue" points="702.769,-187.456 712.955,-190.37 706.809,-181.74 702.769,-187.456"/>
</g>
<!-- Node11 -->
<g id="node11" class="node"><title>Node11</title>
<g id="a_node11"><a xlink:href="../../da/d65/CathodeSegmentationContours_8cxx.html" target="_top" xlink:title="/home/travis/build\l/AliceO2Group/AliceO2\l/Detectors/MUON/MCH/Mapping\l/SegContour/src/CathodeSegmentation\lContours.cxx">
<polygon fill="none" stroke="black" points="442,-90.5 442,-153.5 630,-153.5 630,-90.5 442,-90.5"/>
<text text-anchor="start" x="450" y="-141.5" font-family="Helvetica,sans-Serif" font-size="10.00">/home/travis/build</text>
<text text-anchor="start" x="450" y="-130.5" font-family="Helvetica,sans-Serif" font-size="10.00">/AliceO2Group/AliceO2</text>
<text text-anchor="start" x="450" y="-119.5" font-family="Helvetica,sans-Serif" font-size="10.00">/Detectors/MUON/MCH/Mapping</text>
<text text-anchor="start" x="450" y="-108.5" font-family="Helvetica,sans-Serif" font-size="10.00">/SegContour/src/CathodeSegmentation</text>
<text text-anchor="middle" x="536" y="-97.5" font-family="Helvetica,sans-Serif" font-size="10.00">Contours.cxx</text>
</a>
</g>
</g>
<!-- Node10&#45;&gt;Node11 -->
<g id="edge11" class="edge"><title>Node10&#45;&gt;Node11</title>
<path fill="none" stroke="midnightblue" d="M698.972,-186.63C671.368,-175.853 641.101,-164.035 614.222,-153.541"/>
<polygon fill="midnightblue" stroke="midnightblue" points="698.026,-190.019 708.614,-190.395 700.572,-183.498 698.026,-190.019"/>
</g>
<!-- Node10&#45;&gt;Node12 -->
<g id="edge12" class="edge"><title>Node10&#45;&gt;Node12</title>
<path fill="none" stroke="midnightblue" d="M666.457,-196.485C652.513,-194.08 638.469,-191.85 625,-190 435.882,-164.025 384.526,-189.702 197,-154 194.065,-153.441 191.094,-152.831 188.104,-152.178"/>
<polygon fill="midnightblue" stroke="midnightblue" points="666.128,-199.981 676.583,-198.265 667.34,-193.087 666.128,-199.981"/>
</g>
<!-- Node10&#45;&gt;Node13 -->
<g id="edge14" class="edge"><title>Node10&#45;&gt;Node13</title>
<path fill="none" stroke="midnightblue" d="M666.873,-190.795C665.576,-190.526 664.284,-190.261 663,-190 561.598,-169.432 534.277,-175.172 433,-154 424.396,-152.201 415.48,-150.171 406.58,-148.032"/>
<polygon fill="midnightblue" stroke="midnightblue" points="666.402,-194.273 676.912,-192.933 667.86,-187.427 666.402,-194.273"/>
</g>
<!-- Node10&#45;&gt;Node14 -->
<g id="edge15" class="edge"><title>Node10&#45;&gt;Node14</title>
<path fill="none" stroke="midnightblue" d="M784.912,-180.079C784.358,-169.21 783.775,-157.794 783.278,-148.054"/>
<polygon fill="midnightblue" stroke="midnightblue" points="781.427,-180.452 785.432,-190.261 788.418,-180.096 781.427,-180.452"/>
</g>
<!-- Node10&#45;&gt;Node15 -->
<g id="edge16" class="edge"><title>Node10&#45;&gt;Node15</title>
<path fill="none" stroke="midnightblue" d="M861.228,-186.027C887.808,-173.504 917.221,-159.646 941.683,-148.121"/>
<polygon fill="midnightblue" stroke="midnightblue" points="859.511,-182.967 851.957,-190.395 862.495,-189.299 859.511,-182.967"/>
</g>
<!-- Node10&#45;&gt;Node16 -->
<g id="edge17" class="edge"><title>Node10&#45;&gt;Node16</title>
<path fill="none" stroke="midnightblue" d="M907.158,-198.654C966.465,-186.832 1038.87,-171.21 1103,-154 1109.79,-152.179 1116.8,-150.158 1123.81,-148.046"/>
<polygon fill="midnightblue" stroke="midnightblue" points="906.129,-195.29 897.001,-200.668 907.49,-202.156 906.129,-195.29"/>
</g>
<!-- Node10&#45;&gt;Node17 -->
<g id="edge18" class="edge"><title>Node10&#45;&gt;Node17</title>
<path fill="none" stroke="midnightblue" d="M907.279,-210.258C1010.15,-199.831 1161.78,-181.512 1292,-154 1300.16,-152.276 1308.61,-150.243 1317.01,-148.055"/>
<polygon fill="midnightblue" stroke="midnightblue" points="906.767,-206.792 897.167,-211.274 907.467,-213.757 906.767,-206.792"/>
</g>
</g>
</svg>
