<?xml version="1.0" encoding="UTF-8" standalone="no"?>
<!DOCTYPE svg PUBLIC "-//W3C//DTD SVG 1.1//EN"
 "http://www.w3.org/Graphics/SVG/1.1/DTD/svg11.dtd">
<!-- Generated by graphviz version 2.36.0 (20140111.2315)
 -->
<!-- Title: /home/travis/build/AliceO2Group/AliceO2/Framework/Core/src/DataSpecUtils.cxx Pages: 1 -->
<svg width="2098pt" height="434pt"
 viewBox="0.00 0.00 2098.30 434.00" xmlns="http://www.w3.org/2000/svg" xmlns:xlink="http://www.w3.org/1999/xlink">
<g id="graph0" class="graph" transform="scale(1 1) rotate(0) translate(4 430)">
<title>/home/travis/build/AliceO2Group/AliceO2/Framework/Core/src/DataSpecUtils.cxx</title>
<!-- Node1 -->
<g id="node1" class="node"><title>Node1</title>
<polygon fill="#bfbfbf" stroke="black" points="1459.5,-373 1459.5,-425 1614.5,-425 1614.5,-373 1459.5,-373"/>
<text text-anchor="start" x="1467.5" y="-413" font-family="Helvetica,sans-Serif" font-size="10.00">/home/travis/build</text>
<text text-anchor="start" x="1467.5" y="-402" font-family="Helvetica,sans-Serif" font-size="10.00">/AliceO2Group/AliceO2</text>
<text text-anchor="start" x="1467.5" y="-391" font-family="Helvetica,sans-Serif" font-size="10.00">/Framework/Core/src/DataSpec</text>
<text text-anchor="middle" x="1537" y="-380" font-family="Helvetica,sans-Serif" font-size="10.00">Utils.cxx</text>
</g>
<!-- Node2 -->
<g id="node2" class="node"><title>Node2</title>
<g id="a_node2"><a xlink:href="../../d6/d68/DataSpecUtils_8h.html" target="_top" xlink:title="Framework/DataSpecUtils.h">
<polygon fill="none" stroke="black" points="1467,-316.5 1467,-335.5 1607,-335.5 1607,-316.5 1467,-316.5"/>
<text text-anchor="middle" x="1537" y="-323.5" font-family="Helvetica,sans-Serif" font-size="10.00">Framework/DataSpecUtils.h</text>
</a>
</g>
</g>
<!-- Node1&#45;&gt;Node2 -->
<g id="edge1" class="edge"><title>Node1&#45;&gt;Node2</title>
<path fill="none" stroke="midnightblue" d="M1537,-372.768C1537,-363.89 1537,-354.074 1537,-345.816"/>
<polygon fill="midnightblue" stroke="midnightblue" points="1540.5,-345.757 1537,-335.757 1533.5,-345.757 1540.5,-345.757"/>
</g>
<!-- Node8 -->
<g id="node8" class="node"><title>Node8</title>
<polygon fill="none" stroke="#bfbfbf" points="1472,-6.5 1472,-25.5 1518,-25.5 1518,-6.5 1472,-6.5"/>
<text text-anchor="middle" x="1495" y="-13.5" font-family="Helvetica,sans-Serif" font-size="10.00">cstring</text>
</g>
<!-- Node1&#45;&gt;Node8 -->
<g id="edge58" class="edge"><title>Node1&#45;&gt;Node8</title>
<path fill="none" stroke="midnightblue" d="M1459.41,-388.599C1346.19,-372.681 1149,-335.676 1149,-271 1149,-271 1149,-271 1149,-139 1149,8.01507 1322.57,-78.6154 1462,-32 1464.13,-31.2866 1466.32,-30.48 1468.49,-29.62"/>
<polygon fill="midnightblue" stroke="midnightblue" points="1469.99,-32.7857 1477.8,-25.6324 1467.23,-26.3506 1469.99,-32.7857"/>
</g>
<!-- Node16 -->
<g id="node16" class="node"><title>Node16</title>
<g id="a_node16"><a xlink:href="../../d3/da3/DataDescriptorMatcher_8h.html" target="_top" xlink:title="Framework/DataDescriptor\lMatcher.h">
<polygon fill="none" stroke="black" points="1623,-193 1623,-223 1757,-223 1757,-193 1623,-193"/>
<text text-anchor="start" x="1631" y="-211" font-family="Helvetica,sans-Serif" font-size="10.00">Framework/DataDescriptor</text>
<text text-anchor="middle" x="1690" y="-200" font-family="Helvetica,sans-Serif" font-size="10.00">Matcher.h</text>
</a>
</g>
</g>
<!-- Node1&#45;&gt;Node16 -->
<g id="edge57" class="edge"><title>Node1&#45;&gt;Node16</title>
<path fill="none" stroke="midnightblue" d="M1586.82,-372.843C1620.89,-352.728 1663.62,-321.106 1685,-280 1692.41,-265.761 1693.58,-247.693 1692.95,-233.347"/>
<polygon fill="midnightblue" stroke="midnightblue" points="1696.43,-232.934 1692.18,-223.228 1689.45,-233.464 1696.43,-232.934"/>
</g>
<!-- Node3 -->
<g id="node3" class="node"><title>Node3</title>
<g id="a_node3"><a xlink:href="../../db/d2d/OutputSpec_8h.html" target="_top" xlink:title="Framework/OutputSpec.h">
<polygon fill="none" stroke="black" points="1548,-260.5 1548,-279.5 1676,-279.5 1676,-260.5 1548,-260.5"/>
<text text-anchor="middle" x="1612" y="-267.5" font-family="Helvetica,sans-Serif" font-size="10.00">Framework/OutputSpec.h</text>
</a>
</g>
</g>
<!-- Node2&#45;&gt;Node3 -->
<g id="edge2" class="edge"><title>Node2&#45;&gt;Node3</title>
<path fill="none" stroke="midnightblue" d="M1549.05,-316.324C1560.46,-308.107 1577.83,-295.602 1591.43,-285.807"/>
<polygon fill="midnightblue" stroke="midnightblue" points="1593.66,-288.517 1599.73,-279.834 1589.57,-282.837 1593.66,-288.517"/>
</g>
<!-- Node4 -->
<g id="node4" class="node"><title>Node4</title>
<g id="a_node4"><a xlink:href="../../dc/dcd/DataHeader_8h.html" target="_top" xlink:title="Headers/DataHeader.h">
<polygon fill="none" stroke="black" points="1757.5,-68.5 1757.5,-87.5 1874.5,-87.5 1874.5,-68.5 1757.5,-68.5"/>
<text text-anchor="middle" x="1816" y="-75.5" font-family="Helvetica,sans-Serif" font-size="10.00">Headers/DataHeader.h</text>
</a>
</g>
</g>
<!-- Node2&#45;&gt;Node4 -->
<g id="edge52" class="edge"><title>Node2&#45;&gt;Node4</title>
<path fill="none" stroke="midnightblue" d="M1590.23,-316.484C1648.12,-304.753 1740.35,-278.541 1800,-224 1835.45,-191.586 1853.05,-170.499 1841,-124 1838.45,-114.175 1833.25,-104.212 1828.24,-96.166"/>
<polygon fill="midnightblue" stroke="midnightblue" points="1831.08,-94.1143 1822.63,-87.7252 1825.25,-97.9903 1831.08,-94.1143"/>
</g>
<!-- Node14 -->
<g id="node14" class="node"><title>Node14</title>
<g id="a_node14"><a xlink:href="../../d5/d3f/InputSpec_8h.html" target="_top" xlink:title="Framework/InputSpec.h">
<polygon fill="none" stroke="black" points="1408.5,-260.5 1408.5,-279.5 1529.5,-279.5 1529.5,-260.5 1408.5,-260.5"/>
<text text-anchor="middle" x="1469" y="-267.5" font-family="Helvetica,sans-Serif" font-size="10.00">Framework/InputSpec.h</text>
</a>
</g>
</g>
<!-- Node2&#45;&gt;Node14 -->
<g id="edge13" class="edge"><title>Node2&#45;&gt;Node14</title>
<path fill="none" stroke="midnightblue" d="M1526.07,-316.324C1515.83,-308.185 1500.28,-295.839 1488,-286.087"/>
<polygon fill="midnightblue" stroke="midnightblue" points="1490.13,-283.312 1480.12,-279.834 1485.78,-288.794 1490.13,-283.312"/>
</g>
<!-- Node37 -->
<g id="node37" class="node"><title>Node37</title>
<g id="a_node37"><a xlink:href="../../d3/ddf/Output_8h.html" target="_top" xlink:title="Framework/Output.h">
<polygon fill="none" stroke="black" points="1266,-260.5 1266,-279.5 1372,-279.5 1372,-260.5 1266,-260.5"/>
<text text-anchor="middle" x="1319" y="-267.5" font-family="Helvetica,sans-Serif" font-size="10.00">Framework/Output.h</text>
</a>
</g>
</g>
<!-- Node2&#45;&gt;Node37 -->
<g id="edge53" class="edge"><title>Node2&#45;&gt;Node37</title>
<path fill="none" stroke="midnightblue" d="M1502.46,-316.444C1464.75,-307.102 1404.26,-292.119 1363.14,-281.933"/>
<polygon fill="midnightblue" stroke="midnightblue" points="1363.93,-278.524 1353.38,-279.516 1362.25,-285.318 1363.93,-278.524"/>
</g>
<!-- Node3&#45;&gt;Node4 -->
<g id="edge3" class="edge"><title>Node3&#45;&gt;Node4</title>
<path fill="none" stroke="midnightblue" d="M1668.68,-260.474C1699.29,-253.965 1736.69,-242.795 1766,-224 1799.68,-202.401 1811,-193.485 1825,-156 1832.11,-136.945 1827.69,-113.553 1822.88,-97.5862"/>
<polygon fill="midnightblue" stroke="midnightblue" points="1826.11,-96.2306 1819.61,-87.8625 1819.48,-98.4564 1826.11,-96.2306"/>
</g>
<!-- Node13 -->
<g id="node13" class="node"><title>Node13</title>
<g id="a_node13"><a xlink:href="../../dc/dca/Lifetime_8h.html" target="_top" xlink:title="Framework/Lifetime.h">
<polygon fill="none" stroke="black" points="1343.5,-198.5 1343.5,-217.5 1454.5,-217.5 1454.5,-198.5 1343.5,-198.5"/>
<text text-anchor="middle" x="1399" y="-205.5" font-family="Helvetica,sans-Serif" font-size="10.00">Framework/Lifetime.h</text>
</a>
</g>
</g>
<!-- Node3&#45;&gt;Node13 -->
<g id="edge12" class="edge"><title>Node3&#45;&gt;Node13</title>
<path fill="none" stroke="midnightblue" d="M1581.48,-260.403C1544.08,-249.866 1480.57,-231.978 1439.21,-220.328"/>
<polygon fill="midnightblue" stroke="midnightblue" points="1440.04,-216.923 1429.46,-217.581 1438.14,-223.661 1440.04,-216.923"/>
</g>
<!-- Node5 -->
<g id="node5" class="node"><title>Node5</title>
<polygon fill="none" stroke="#bfbfbf" points="2041,-6.5 2041,-25.5 2087,-25.5 2087,-6.5 2041,-6.5"/>
<text text-anchor="middle" x="2064" y="-13.5" font-family="Helvetica,sans-Serif" font-size="10.00">cstdint</text>
</g>
<!-- Node4&#45;&gt;Node5 -->
<g id="edge4" class="edge"><title>Node4&#45;&gt;Node5</title>
<path fill="none" stroke="midnightblue" d="M1873.94,-68.4341C1917.74,-61.1084 1978.99,-49.0312 2031,-32 2033.27,-31.2564 2035.59,-30.4033 2037.9,-29.4897"/>
<polygon fill="midnightblue" stroke="midnightblue" points="2039.35,-32.6784 2047.16,-25.5182 2036.59,-26.2458 2039.35,-32.6784"/>
</g>
<!-- Node6 -->
<g id="node6" class="node"><title>Node6</title>
<polygon fill="none" stroke="#bfbfbf" points="1970,-6.5 1970,-25.5 2022,-25.5 2022,-6.5 1970,-6.5"/>
<text text-anchor="middle" x="1996" y="-13.5" font-family="Helvetica,sans-Serif" font-size="10.00">memory</text>
</g>
<!-- Node4&#45;&gt;Node6 -->
<g id="edge5" class="edge"><title>Node4&#45;&gt;Node6</title>
<path fill="none" stroke="midnightblue" d="M1846.05,-68.4841C1875.37,-59.9714 1921.11,-46.1452 1960,-32 1962.25,-31.1799 1964.58,-30.2994 1966.9,-29.3909"/>
<polygon fill="midnightblue" stroke="midnightblue" points="1968.36,-32.5747 1976.32,-25.5822 1965.74,-26.0848 1968.36,-32.5747"/>
</g>
<!-- Node7 -->
<g id="node7" class="node"><title>Node7</title>
<polygon fill="none" stroke="#bfbfbf" points="1902.5,-6.5 1902.5,-25.5 1951.5,-25.5 1951.5,-6.5 1902.5,-6.5"/>
<text text-anchor="middle" x="1927" y="-13.5" font-family="Helvetica,sans-Serif" font-size="10.00">cassert</text>
</g>
<!-- Node4&#45;&gt;Node7 -->
<g id="edge6" class="edge"><title>Node4&#45;&gt;Node7</title>
<path fill="none" stroke="midnightblue" d="M1831.9,-68.4035C1850.28,-58.4678 1880.76,-41.9966 1902.24,-30.3812"/>
<polygon fill="midnightblue" stroke="midnightblue" points="1903.99,-33.4148 1911.13,-25.5806 1900.66,-27.2568 1903.99,-33.4148"/>
</g>
<!-- Node4&#45;&gt;Node8 -->
<g id="edge7" class="edge"><title>Node4&#45;&gt;Node8</title>
<path fill="none" stroke="midnightblue" d="M1757.34,-72.7729C1698.17,-67.3758 1604.7,-55.7302 1527,-32 1524.72,-31.3044 1522.4,-30.475 1520.1,-29.5683"/>
<polygon fill="midnightblue" stroke="midnightblue" points="1521.49,-26.3565 1510.93,-25.5507 1518.68,-32.7685 1521.49,-26.3565"/>
</g>
<!-- Node9 -->
<g id="node9" class="node"><title>Node9</title>
<polygon fill="none" stroke="#bfbfbf" points="1596,-6.5 1596,-25.5 1652,-25.5 1652,-6.5 1596,-6.5"/>
<text text-anchor="middle" x="1624" y="-13.5" font-family="Helvetica,sans-Serif" font-size="10.00">algorithm</text>
</g>
<!-- Node4&#45;&gt;Node9 -->
<g id="edge8" class="edge"><title>Node4&#45;&gt;Node9</title>
<path fill="none" stroke="midnightblue" d="M1783.03,-68.4834C1751.44,-60.0749 1702.56,-46.4159 1661,-32 1658.59,-31.1653 1656.12,-30.2611 1653.64,-29.3246"/>
<polygon fill="midnightblue" stroke="midnightblue" points="1654.8,-26.0223 1644.21,-25.6311 1652.25,-32.5394 1654.8,-26.0223"/>
</g>
<!-- Node10 -->
<g id="node10" class="node"><title>Node10</title>
<polygon fill="none" stroke="#bfbfbf" points="1670.5,-6.5 1670.5,-25.5 1729.5,-25.5 1729.5,-6.5 1670.5,-6.5"/>
<text text-anchor="middle" x="1700" y="-13.5" font-family="Helvetica,sans-Serif" font-size="10.00">stdexcept</text>
</g>
<!-- Node4&#45;&gt;Node10 -->
<g id="edge9" class="edge"><title>Node4&#45;&gt;Node10</title>
<path fill="none" stroke="midnightblue" d="M1799.38,-68.4035C1780.08,-58.4232 1748.04,-41.8487 1725.57,-30.2253"/>
<polygon fill="midnightblue" stroke="midnightblue" points="1727.08,-27.0661 1716.59,-25.5806 1723.86,-33.2836 1727.08,-27.0661"/>
</g>
<!-- Node11 -->
<g id="node11" class="node"><title>Node11</title>
<polygon fill="none" stroke="#bfbfbf" points="1536.5,-6.5 1536.5,-25.5 1577.5,-25.5 1577.5,-6.5 1536.5,-6.5"/>
<text text-anchor="middle" x="1557" y="-13.5" font-family="Helvetica,sans-Serif" font-size="10.00">string</text>
</g>
<!-- Node4&#45;&gt;Node11 -->
<g id="edge10" class="edge"><title>Node4&#45;&gt;Node11</title>
<path fill="none" stroke="midnightblue" d="M1757.46,-69.9342C1710.51,-63.2174 1643.37,-51.2348 1587,-32 1585.14,-31.3653 1583.25,-30.6373 1581.37,-29.8515"/>
<polygon fill="midnightblue" stroke="midnightblue" points="1582.77,-26.6442 1572.23,-25.6068 1579.82,-32.9931 1582.77,-26.6442"/>
</g>
<!-- Node12 -->
<g id="node12" class="node"><title>Node12</title>
<g id="a_node12"><a xlink:href="../../d7/df8/Types_8h.html" target="_top" xlink:title="MemoryResources/Types.h">
<polygon fill="none" stroke="black" points="1747.5,-6.5 1747.5,-25.5 1884.5,-25.5 1884.5,-6.5 1747.5,-6.5"/>
<text text-anchor="middle" x="1816" y="-13.5" font-family="Helvetica,sans-Serif" font-size="10.00">MemoryResources/Types.h</text>
</a>
</g>
</g>
<!-- Node4&#45;&gt;Node12 -->
<g id="edge11" class="edge"><title>Node4&#45;&gt;Node12</title>
<path fill="none" stroke="midnightblue" d="M1816,-68.4035C1816,-59.9381 1816,-46.7283 1816,-35.8199"/>
<polygon fill="midnightblue" stroke="midnightblue" points="1819.5,-35.5806 1816,-25.5806 1812.5,-35.5806 1819.5,-35.5806"/>
</g>
<!-- Node14&#45;&gt;Node11 -->
<g id="edge49" class="edge"><title>Node14&#45;&gt;Node11</title>
<path fill="none" stroke="midnightblue" d="M1471.35,-260.313C1475.03,-244.536 1480.12,-211.049 1463,-192 1402.21,-124.355 1217.64,-198.36 1270,-124 1339.85,-24.8051 1415.43,-79.6581 1527,-32 1528.41,-31.3995 1529.84,-30.7645 1531.28,-30.1083"/>
<polygon fill="midnightblue" stroke="midnightblue" points="1533.16,-33.0898 1540.66,-25.6127 1530.13,-26.7769 1533.16,-33.0898"/>
</g>
<!-- Node14&#45;&gt;Node13 -->
<g id="edge14" class="edge"><title>Node14&#45;&gt;Node13</title>
<path fill="none" stroke="midnightblue" d="M1458.97,-260.403C1447.95,-250.958 1430.04,-235.606 1416.66,-224.134"/>
<polygon fill="midnightblue" stroke="midnightblue" points="1418.88,-221.431 1409.01,-217.581 1414.33,-226.746 1418.88,-221.431"/>
</g>
<!-- Node15 -->
<g id="node15" class="node"><title>Node15</title>
<g id="a_node15"><a xlink:href="../../d0/d1b/ConcreteDataMatcher_8h.html" target="_top" xlink:title="Framework/ConcreteDataMatcher.h">
<polygon fill="none" stroke="black" points="1425.5,-130.5 1425.5,-149.5 1598.5,-149.5 1598.5,-130.5 1425.5,-130.5"/>
<text text-anchor="middle" x="1512" y="-137.5" font-family="Helvetica,sans-Serif" font-size="10.00">Framework/ConcreteDataMatcher.h</text>
</a>
</g>
</g>
<!-- Node14&#45;&gt;Node15 -->
<g id="edge15" class="edge"><title>Node14&#45;&gt;Node15</title>
<path fill="none" stroke="midnightblue" d="M1516.33,-260.422C1537.1,-254.051 1559.55,-243.023 1572,-224 1579.79,-212.099 1577.97,-204.909 1572,-192 1564.77,-176.373 1550.14,-163.779 1537.13,-155.015"/>
<polygon fill="midnightblue" stroke="midnightblue" points="1538.82,-151.944 1528.5,-149.57 1535.09,-157.865 1538.82,-151.944"/>
</g>
<!-- Node14&#45;&gt;Node16 -->
<g id="edge17" class="edge"><title>Node14&#45;&gt;Node16</title>
<path fill="none" stroke="midnightblue" d="M1500.66,-260.403C1533.92,-251.374 1587.06,-236.947 1628.59,-225.672"/>
<polygon fill="midnightblue" stroke="midnightblue" points="1629.61,-229.023 1638.34,-223.025 1627.77,-222.268 1629.61,-229.023"/>
</g>
<!-- Node35 -->
<g id="node35" class="node"><title>Node35</title>
<polygon fill="none" stroke="#bfbfbf" points="1177,-130.5 1177,-149.5 1223,-149.5 1223,-130.5 1177,-130.5"/>
<text text-anchor="middle" x="1200" y="-137.5" font-family="Helvetica,sans-Serif" font-size="10.00">variant</text>
</g>
<!-- Node14&#45;&gt;Node35 -->
<g id="edge51" class="edge"><title>Node14&#45;&gt;Node35</title>
<path fill="none" stroke="midnightblue" d="M1436.55,-260.487C1408.68,-252.64 1367.78,-239.827 1334,-224 1291.41,-204.043 1245.6,-173.466 1220.1,-155.528"/>
<polygon fill="midnightblue" stroke="midnightblue" points="1221.84,-152.475 1211.66,-149.535 1217.79,-158.181 1221.84,-152.475"/>
</g>
<!-- Node36 -->
<g id="node36" class="node"><title>Node36</title>
<polygon fill="none" stroke="#bfbfbf" points="1511,-198.5 1511,-217.5 1563,-217.5 1563,-198.5 1511,-198.5"/>
<text text-anchor="middle" x="1537" y="-205.5" font-family="Helvetica,sans-Serif" font-size="10.00">ostream</text>
</g>
<!-- Node14&#45;&gt;Node36 -->
<g id="edge50" class="edge"><title>Node14&#45;&gt;Node36</title>
<path fill="none" stroke="midnightblue" d="M1478.74,-260.403C1489.35,-251.047 1506.52,-235.895 1519.48,-224.46"/>
<polygon fill="midnightblue" stroke="midnightblue" points="1522.09,-226.821 1527.28,-217.581 1517.46,-221.572 1522.09,-226.821"/>
</g>
<!-- Node15&#45;&gt;Node4 -->
<g id="edge16" class="edge"><title>Node15&#45;&gt;Node4</title>
<path fill="none" stroke="midnightblue" d="M1555.23,-130.467C1609.93,-119.671 1704.1,-101.086 1763.05,-89.4501"/>
<polygon fill="midnightblue" stroke="midnightblue" points="1763.78,-92.8736 1772.92,-87.5034 1762.43,-86.006 1763.78,-92.8736"/>
</g>
<!-- Node16&#45;&gt;Node4 -->
<g id="edge25" class="edge"><title>Node16&#45;&gt;Node4</title>
<path fill="none" stroke="midnightblue" d="M1749.55,-192.916C1769.75,-185.24 1790.57,-173.574 1804,-156 1816.68,-139.403 1818.43,-114.822 1817.82,-97.9223"/>
<polygon fill="midnightblue" stroke="midnightblue" points="1821.29,-97.384 1817.13,-87.6418 1814.31,-97.8544 1821.29,-97.384"/>
</g>
<!-- Node16&#45;&gt;Node5 -->
<g id="edge44" class="edge"><title>Node16&#45;&gt;Node5</title>
<path fill="none" stroke="midnightblue" d="M1757.07,-202.835C1861.58,-195.656 2053.48,-179.429 2074,-156 2103.53,-122.286 2085.09,-64.5784 2072.64,-35.2566"/>
<polygon fill="midnightblue" stroke="midnightblue" points="2075.7,-33.5333 2068.42,-25.8352 2069.31,-36.3926 2075.7,-33.5333"/>
</g>
<!-- Node16&#45;&gt;Node11 -->
<g id="edge46" class="edge"><title>Node16&#45;&gt;Node11</title>
<path fill="none" stroke="midnightblue" d="M1682.4,-192.848C1673.2,-176.042 1656.95,-147.349 1641,-124 1618.15,-90.5585 1588.22,-53.9023 1570.95,-33.3469"/>
<polygon fill="midnightblue" stroke="midnightblue" points="1573.51,-30.955 1564.38,-25.5796 1568.16,-35.4753 1573.51,-30.955"/>
</g>
<!-- Node16&#45;&gt;Node15 -->
<g id="edge18" class="edge"><title>Node16&#45;&gt;Node15</title>
<path fill="none" stroke="midnightblue" d="M1651.81,-192.841C1619.97,-181.033 1575.07,-164.384 1544.82,-153.168"/>
<polygon fill="midnightblue" stroke="midnightblue" points="1545.75,-149.782 1535.16,-149.587 1543.32,-156.345 1545.75,-149.782"/>
</g>
<!-- Node17 -->
<g id="node17" class="node"><title>Node17</title>
<g id="a_node17"><a xlink:href="../../d6/dc9/DataProcessingHeader_8h.html" target="_top" xlink:title="Framework/DataProcessing\lHeader.h">
<polygon fill="none" stroke="black" points="1927,-125 1927,-155 2065,-155 2065,-125 1927,-125"/>
<text text-anchor="start" x="1935" y="-143" font-family="Helvetica,sans-Serif" font-size="10.00">Framework/DataProcessing</text>
<text text-anchor="middle" x="1996" y="-132" font-family="Helvetica,sans-Serif" font-size="10.00">Header.h</text>
</a>
</g>
</g>
<!-- Node16&#45;&gt;Node17 -->
<g id="edge19" class="edge"><title>Node16&#45;&gt;Node17</title>
<path fill="none" stroke="midnightblue" d="M1755.27,-192.922C1803.81,-182.452 1870.15,-168.144 1920.9,-157.198"/>
<polygon fill="midnightblue" stroke="midnightblue" points="1921.79,-160.586 1930.83,-155.056 1920.32,-153.743 1921.79,-160.586"/>
</g>
<!-- Node19 -->
<g id="node19" class="node"><title>Node19</title>
<g id="a_node19"><a xlink:href="../../d4/d00/Headers_2include_2Headers_2Stack_8h.html" target="_top" xlink:title="Headers/Stack.h">
<polygon fill="none" stroke="black" points="1279,-130.5 1279,-149.5 1369,-149.5 1369,-130.5 1279,-130.5"/>
<text text-anchor="middle" x="1324" y="-137.5" font-family="Helvetica,sans-Serif" font-size="10.00">Headers/Stack.h</text>
</a>
</g>
</g>
<!-- Node16&#45;&gt;Node19 -->
<g id="edge26" class="edge"><title>Node16&#45;&gt;Node19</title>
<path fill="none" stroke="midnightblue" d="M1622.87,-194.895C1552.84,-182.266 1444.35,-162.703 1379.15,-150.944"/>
<polygon fill="midnightblue" stroke="midnightblue" points="1379.53,-147.457 1369.07,-149.126 1378.29,-154.346 1379.53,-147.457"/>
</g>
<!-- Node27 -->
<g id="node27" class="node"><title>Node27</title>
<polygon fill="none" stroke="#bfbfbf" points="1410,-6.5 1410,-25.5 1454,-25.5 1454,-6.5 1410,-6.5"/>
<text text-anchor="middle" x="1432" y="-13.5" font-family="Helvetica,sans-Serif" font-size="10.00">vector</text>
</g>
<!-- Node16&#45;&gt;Node27 -->
<g id="edge48" class="edge"><title>Node16&#45;&gt;Node27</title>
<path fill="none" stroke="midnightblue" d="M1676.53,-192.74C1656.98,-172.177 1621.49,-135.41 1607,-124 1557.64,-85.1314 1493.21,-49.0204 1457.91,-30.3244"/>
<polygon fill="midnightblue" stroke="midnightblue" points="1459.25,-27.0728 1448.77,-25.5252 1456,-33.2712 1459.25,-27.0728"/>
</g>
<!-- Node33 -->
<g id="node33" class="node"><title>Node33</title>
<polygon fill="none" stroke="#bfbfbf" points="1757,-130.5 1757,-149.5 1795,-149.5 1795,-130.5 1757,-130.5"/>
<text text-anchor="middle" x="1776" y="-137.5" font-family="Helvetica,sans-Serif" font-size="10.00">array</text>
</g>
<!-- Node16&#45;&gt;Node33 -->
<g id="edge43" class="edge"><title>Node16&#45;&gt;Node33</title>
<path fill="none" stroke="midnightblue" d="M1708.66,-192.679C1722.73,-181.879 1741.99,-167.098 1756.31,-156.11"/>
<polygon fill="midnightblue" stroke="midnightblue" points="1758.69,-158.693 1764.5,-149.828 1754.43,-153.14 1758.69,-158.693"/>
</g>
<!-- Node34 -->
<g id="node34" class="node"><title>Node34</title>
<polygon fill="none" stroke="#bfbfbf" points="1693.5,-130.5 1693.5,-149.5 1738.5,-149.5 1738.5,-130.5 1693.5,-130.5"/>
<text text-anchor="middle" x="1716" y="-137.5" font-family="Helvetica,sans-Serif" font-size="10.00">iosfwd</text>
</g>
<!-- Node16&#45;&gt;Node34 -->
<g id="edge45" class="edge"><title>Node16&#45;&gt;Node34</title>
<path fill="none" stroke="midnightblue" d="M1695.64,-192.679C1699.49,-182.898 1704.63,-169.852 1708.79,-159.315"/>
<polygon fill="midnightblue" stroke="midnightblue" points="1712.11,-160.415 1712.52,-149.828 1705.6,-157.85 1712.11,-160.415"/>
</g>
<!-- Node16&#45;&gt;Node35 -->
<g id="edge47" class="edge"><title>Node16&#45;&gt;Node35</title>
<path fill="none" stroke="midnightblue" d="M1622.93,-198.382C1606.29,-196.269 1588.5,-194.032 1572,-192 1437.84,-175.477 1403.34,-178.185 1270,-156 1257.86,-153.981 1244.64,-151.28 1233,-148.727"/>
<polygon fill="midnightblue" stroke="midnightblue" points="1233.75,-145.31 1223.23,-146.542 1232.22,-152.141 1233.75,-145.31"/>
</g>
<!-- Node17&#45;&gt;Node4 -->
<g id="edge20" class="edge"><title>Node17&#45;&gt;Node4</title>
<path fill="none" stroke="midnightblue" d="M1953.8,-124.933C1922.66,-114.553 1880.77,-100.589 1851.37,-90.7916"/>
<polygon fill="midnightblue" stroke="midnightblue" points="1852.13,-87.3546 1841.54,-87.5127 1849.92,-93.9954 1852.13,-87.3546"/>
</g>
<!-- Node17&#45;&gt;Node5 -->
<g id="edge21" class="edge"><title>Node17&#45;&gt;Node5</title>
<path fill="none" stroke="midnightblue" d="M2012.85,-124.954C2023.2,-115.49 2035.98,-102.181 2044,-88 2053.25,-71.6571 2058.46,-50.7438 2061.23,-35.8567"/>
<polygon fill="midnightblue" stroke="midnightblue" points="2064.71,-36.2611 2062.9,-25.8227 2057.81,-35.1139 2064.71,-36.2611"/>
</g>
<!-- Node17&#45;&gt;Node6 -->
<g id="edge23" class="edge"><title>Node17&#45;&gt;Node6</title>
<path fill="none" stroke="midnightblue" d="M1990.83,-124.928C1986.21,-110.655 1980.5,-87.8942 1983,-68 1984.39,-56.9335 1987.41,-44.8256 1990.19,-35.1853"/>
<polygon fill="midnightblue" stroke="midnightblue" points="1993.56,-36.1225 1993.13,-25.5366 1986.86,-34.084 1993.56,-36.1225"/>
</g>
<!-- Node17&#45;&gt;Node7 -->
<g id="edge24" class="edge"><title>Node17&#45;&gt;Node7</title>
<path fill="none" stroke="midnightblue" d="M1987.81,-124.526C1975.08,-102.003 1950.55,-58.6458 1936.86,-34.435"/>
<polygon fill="midnightblue" stroke="midnightblue" points="1939.85,-32.6041 1931.88,-25.6228 1933.75,-36.0502 1939.85,-32.6041"/>
</g>
<!-- Node18 -->
<g id="node18" class="node"><title>Node18</title>
<polygon fill="none" stroke="#bfbfbf" points="1992.5,-68.5 1992.5,-87.5 2035.5,-87.5 2035.5,-68.5 1992.5,-68.5"/>
<text text-anchor="middle" x="2014" y="-75.5" font-family="Helvetica,sans-Serif" font-size="10.00">cstdio</text>
</g>
<!-- Node17&#45;&gt;Node18 -->
<g id="edge22" class="edge"><title>Node17&#45;&gt;Node18</title>
<path fill="none" stroke="midnightblue" d="M2000.27,-124.781C2002.72,-116.601 2005.83,-106.234 2008.47,-97.4344"/>
<polygon fill="midnightblue" stroke="midnightblue" points="2011.86,-98.3145 2011.38,-87.7305 2005.15,-96.3031 2011.86,-98.3145"/>
</g>
<!-- Node19&#45;&gt;Node4 -->
<g id="edge42" class="edge"><title>Node19&#45;&gt;Node4</title>
<path fill="none" stroke="midnightblue" d="M1354.13,-130.44C1363.34,-128.069 1373.53,-125.686 1383,-124 1510.63,-101.268 1661.62,-88.7962 1747.37,-83.0403"/>
<polygon fill="midnightblue" stroke="midnightblue" points="1747.75,-86.5229 1757.49,-82.3714 1747.28,-79.5382 1747.75,-86.5229"/>
</g>
<!-- Node20 -->
<g id="node20" class="node"><title>Node20</title>
<g id="a_node20"><a xlink:href="../../dc/d03/MemoryResources_8h.html" target="_top" xlink:title="MemoryResources/MemoryResources.h">
<polygon fill="none" stroke="black" points="927.5,-68.5 927.5,-87.5 1120.5,-87.5 1120.5,-68.5 927.5,-68.5"/>
<text text-anchor="middle" x="1024" y="-75.5" font-family="Helvetica,sans-Serif" font-size="10.00">MemoryResources/MemoryResources.h</text>
</a>
</g>
</g>
<!-- Node19&#45;&gt;Node20 -->
<g id="edge27" class="edge"><title>Node19&#45;&gt;Node20</title>
<path fill="none" stroke="midnightblue" d="M1281.34,-130.467C1227.47,-119.693 1134.81,-101.162 1076.61,-89.5223"/>
<polygon fill="midnightblue" stroke="midnightblue" points="1077.01,-86.0326 1066.52,-87.5034 1075.64,-92.8967 1077.01,-86.0326"/>
</g>
<!-- Node20&#45;&gt;Node8 -->
<g id="edge32" class="edge"><title>Node20&#45;&gt;Node8</title>
<path fill="none" stroke="midnightblue" d="M1120.66,-68.7375C1239.64,-58.3072 1429.95,-40.6807 1462,-32 1464.5,-31.3234 1467.05,-30.4771 1469.56,-29.533"/>
<polygon fill="midnightblue" stroke="midnightblue" points="1471.1,-32.6834 1478.94,-25.5601 1468.37,-26.2379 1471.1,-32.6834"/>
</g>
<!-- Node20&#45;&gt;Node11 -->
<g id="edge33" class="edge"><title>Node20&#45;&gt;Node11</title>
<path fill="none" stroke="midnightblue" d="M1120.51,-72.6513C1244.65,-66.3164 1453.09,-52.9679 1527,-32 1528.97,-31.4398 1530.97,-30.7494 1532.95,-29.9754"/>
<polygon fill="midnightblue" stroke="midnightblue" points="1534.85,-32.9595 1542.49,-25.6233 1531.94,-26.5914 1534.85,-32.9595"/>
</g>
<!-- Node21 -->
<g id="node21" class="node"><title>Node21</title>
<polygon fill="none" stroke="#bfbfbf" points="478,-1 478,-31 578,-31 578,-1 478,-1"/>
<text text-anchor="start" x="486" y="-19" font-family="Helvetica,sans-Serif" font-size="10.00">boost/container/flat</text>
<text text-anchor="middle" x="528" y="-8" font-family="Helvetica,sans-Serif" font-size="10.00">_map.hpp</text>
</g>
<!-- Node20&#45;&gt;Node21 -->
<g id="edge28" class="edge"><title>Node20&#45;&gt;Node21</title>
<path fill="none" stroke="midnightblue" d="M927.1,-71.106C840.514,-64.8997 710.115,-53.243 588.005,-32.0151"/>
<polygon fill="midnightblue" stroke="midnightblue" points="588.559,-28.559 578.103,-30.2694 587.344,-35.4527 588.559,-28.559"/>
</g>
<!-- Node22 -->
<g id="node22" class="node"><title>Node22</title>
<polygon fill="none" stroke="#bfbfbf" points="596,-1 596,-31 712,-31 712,-1 596,-1"/>
<text text-anchor="start" x="604" y="-19" font-family="Helvetica,sans-Serif" font-size="10.00">boost/container/pmr</text>
<text text-anchor="middle" x="654" y="-8" font-family="Helvetica,sans-Serif" font-size="10.00">/memory_resource.hpp</text>
</g>
<!-- Node20&#45;&gt;Node22 -->
<g id="edge29" class="edge"><title>Node20&#45;&gt;Node22</title>
<path fill="none" stroke="midnightblue" d="M956.972,-68.4711C897.702,-60.6044 808.686,-47.9991 722.055,-32.1187"/>
<polygon fill="midnightblue" stroke="midnightblue" points="722.521,-28.6456 712.051,-30.2681 721.248,-35.5288 722.521,-28.6456"/>
</g>
<!-- Node23 -->
<g id="node23" class="node"><title>Node23</title>
<polygon fill="none" stroke="#bfbfbf" points="730,-1 730,-31 886,-31 886,-1 730,-1"/>
<text text-anchor="start" x="738" y="-19" font-family="Helvetica,sans-Serif" font-size="10.00">boost/container/pmr</text>
<text text-anchor="middle" x="808" y="-8" font-family="Helvetica,sans-Serif" font-size="10.00">/monotonic_buffer_resource.hpp</text>
</g>
<!-- Node20&#45;&gt;Node23 -->
<g id="edge30" class="edge"><title>Node20&#45;&gt;Node23</title>
<path fill="none" stroke="midnightblue" d="M993.052,-68.4035C960.615,-59.393 908.827,-45.0075 868.276,-33.7432"/>
<polygon fill="midnightblue" stroke="midnightblue" points="869.063,-30.3295 858.491,-31.0253 867.19,-37.0741 869.063,-30.3295"/>
</g>
<!-- Node24 -->
<g id="node24" class="node"><title>Node24</title>
<polygon fill="none" stroke="#bfbfbf" points="904.5,-1 904.5,-31 1037.5,-31 1037.5,-1 904.5,-1"/>
<text text-anchor="start" x="912.5" y="-19" font-family="Helvetica,sans-Serif" font-size="10.00">boost/container/pmr</text>
<text text-anchor="middle" x="971" y="-8" font-family="Helvetica,sans-Serif" font-size="10.00">/polymorphic_allocator.hpp</text>
</g>
<!-- Node20&#45;&gt;Node24 -->
<g id="edge31" class="edge"><title>Node20&#45;&gt;Node24</title>
<path fill="none" stroke="midnightblue" d="M1016.41,-68.4035C1009.56,-60.657 999.212,-48.9379 990.119,-38.6447"/>
<polygon fill="midnightblue" stroke="midnightblue" points="992.735,-36.3184 983.491,-31.1408 987.488,-40.9527 992.735,-36.3184"/>
</g>
<!-- Node25 -->
<g id="node25" class="node"><title>Node25</title>
<polygon fill="none" stroke="#bfbfbf" points="1056,-6.5 1056,-25.5 1118,-25.5 1118,-6.5 1056,-6.5"/>
<text text-anchor="middle" x="1087" y="-13.5" font-family="Helvetica,sans-Serif" font-size="10.00">type_traits</text>
</g>
<!-- Node20&#45;&gt;Node25 -->
<g id="edge34" class="edge"><title>Node20&#45;&gt;Node25</title>
<path fill="none" stroke="midnightblue" d="M1033.03,-68.4035C1042.76,-59.1361 1058.46,-44.1828 1070.42,-32.7876"/>
<polygon fill="midnightblue" stroke="midnightblue" points="1073.16,-35.0117 1077.99,-25.5806 1068.34,-29.9427 1073.16,-35.0117"/>
</g>
<!-- Node26 -->
<g id="node26" class="node"><title>Node26</title>
<polygon fill="none" stroke="#bfbfbf" points="1136,-6.5 1136,-25.5 1176,-25.5 1176,-6.5 1136,-6.5"/>
<text text-anchor="middle" x="1156" y="-13.5" font-family="Helvetica,sans-Serif" font-size="10.00">utility</text>
</g>
<!-- Node20&#45;&gt;Node26 -->
<g id="edge35" class="edge"><title>Node20&#45;&gt;Node26</title>
<path fill="none" stroke="midnightblue" d="M1044.06,-68.4869C1064.73,-59.6406 1097.8,-45.2609 1126,-32 1127.35,-31.365 1128.73,-30.7068 1130.12,-30.0365"/>
<polygon fill="midnightblue" stroke="midnightblue" points="1131.82,-33.103 1139.25,-25.5528 1128.73,-26.82 1131.82,-33.103"/>
</g>
<!-- Node20&#45;&gt;Node27 -->
<g id="edge36" class="edge"><title>Node20&#45;&gt;Node27</title>
<path fill="none" stroke="midnightblue" d="M1120.62,-69.1275C1214.51,-60.8176 1350.15,-46.8821 1401,-32 1403.19,-31.3587 1405.42,-30.5749 1407.62,-29.7054"/>
<polygon fill="midnightblue" stroke="midnightblue" points="1409.26,-32.8078 1416.95,-25.5214 1406.39,-26.421 1409.26,-32.8078"/>
</g>
<!-- Node28 -->
<g id="node28" class="node"><title>Node28</title>
<polygon fill="none" stroke="#bfbfbf" points="1194.5,-6.5 1194.5,-25.5 1277.5,-25.5 1277.5,-6.5 1194.5,-6.5"/>
<text text-anchor="middle" x="1236" y="-13.5" font-family="Helvetica,sans-Serif" font-size="10.00">unordered_map</text>
</g>
<!-- Node20&#45;&gt;Node28 -->
<g id="edge37" class="edge"><title>Node20&#45;&gt;Node28</title>
<path fill="none" stroke="midnightblue" d="M1054.9,-68.4967C1087.34,-59.5391 1139.81,-44.9617 1185,-32 1189.04,-30.8407 1193.26,-29.619 1197.47,-28.3937"/>
<polygon fill="midnightblue" stroke="midnightblue" points="1198.55,-31.7243 1207.16,-25.556 1196.58,-25.0061 1198.55,-31.7243"/>
</g>
<!-- Node29 -->
<g id="node29" class="node"><title>Node29</title>
<polygon fill="none" stroke="#bfbfbf" points="1295.5,-6.5 1295.5,-25.5 1392.5,-25.5 1392.5,-6.5 1295.5,-6.5"/>
<text text-anchor="middle" x="1344" y="-13.5" font-family="Helvetica,sans-Serif" font-size="10.00">FairMQMessage.h</text>
</g>
<!-- Node20&#45;&gt;Node29 -->
<g id="edge38" class="edge"><title>Node20&#45;&gt;Node29</title>
<path fill="none" stroke="midnightblue" d="M1081.76,-68.4893C1135.03,-60.308 1216.17,-46.9991 1286,-32 1291.47,-30.826 1297.19,-29.4837 1302.83,-28.0955"/>
<polygon fill="midnightblue" stroke="midnightblue" points="1303.97,-31.4177 1312.81,-25.5738 1302.26,-24.6311 1303.97,-31.4177"/>
</g>
<!-- Node30 -->
<g id="node30" class="node"><title>Node30</title>
<polygon fill="none" stroke="#bfbfbf" points="-0.5,-6.5 -0.5,-25.5 130.5,-25.5 130.5,-6.5 -0.5,-6.5"/>
<text text-anchor="middle" x="65" y="-13.5" font-family="Helvetica,sans-Serif" font-size="10.00">FairMQTransportFactory.h</text>
</g>
<!-- Node20&#45;&gt;Node30 -->
<g id="edge39" class="edge"><title>Node20&#45;&gt;Node30</title>
<path fill="none" stroke="midnightblue" d="M927.332,-76.7911C764.176,-75.3875 424.048,-67.9331 139,-32 130.118,-30.8803 120.708,-29.2904 111.684,-27.5609"/>
<polygon fill="midnightblue" stroke="midnightblue" points="112.201,-24.0951 101.709,-25.5666 110.828,-30.9592 112.201,-24.0951"/>
</g>
<!-- Node31 -->
<g id="node31" class="node"><title>Node31</title>
<polygon fill="none" stroke="#bfbfbf" points="148.5,-6.5 148.5,-25.5 285.5,-25.5 285.5,-6.5 148.5,-6.5"/>
<text text-anchor="middle" x="217" y="-13.5" font-family="Helvetica,sans-Serif" font-size="10.00">fairmq/MemoryResources.h</text>
</g>
<!-- Node20&#45;&gt;Node31 -->
<g id="edge40" class="edge"><title>Node20&#45;&gt;Node31</title>
<path fill="none" stroke="midnightblue" d="M927.228,-74.9742C787.248,-71.1499 520.341,-60.5028 295,-32 285.656,-30.8182 275.747,-29.1993 266.238,-27.4607"/>
<polygon fill="midnightblue" stroke="midnightblue" points="266.6,-23.9671 256.123,-25.5422 265.296,-30.8445 266.6,-23.9671"/>
</g>
<!-- Node32 -->
<g id="node32" class="node"><title>Node32</title>
<polygon fill="none" stroke="#bfbfbf" points="304,-6.5 304,-25.5 460,-25.5 460,-6.5 304,-6.5"/>
<text text-anchor="middle" x="382" y="-13.5" font-family="Helvetica,sans-Serif" font-size="10.00">fairmq/MemoryResourceTools.h</text>
</g>
<!-- Node20&#45;&gt;Node32 -->
<g id="edge41" class="edge"><title>Node20&#45;&gt;Node32</title>
<path fill="none" stroke="midnightblue" d="M927.476,-71.8107C816.545,-65.236 629.163,-52.2587 469,-32 458.629,-30.6882 447.609,-29.0107 437.022,-27.2555"/>
<polygon fill="midnightblue" stroke="midnightblue" points="437.484,-23.784 427.039,-25.5582 436.311,-30.6849 437.484,-23.784"/>
</g>
<!-- Node37&#45;&gt;Node4 -->
<g id="edge54" class="edge"><title>Node37&#45;&gt;Node4</title>
<path fill="none" stroke="midnightblue" d="M1318.83,-260.24C1318.93,-245.202 1320.86,-213.978 1334,-192 1346.96,-170.312 1358.56,-172.138 1378,-156 1394.99,-141.898 1395.72,-132.719 1416,-124 1473.9,-99.1123 1648.77,-86.9562 1747.05,-81.9456"/>
<polygon fill="midnightblue" stroke="midnightblue" points="1747.37,-85.4339 1757.19,-81.4403 1747.02,-78.4426 1747.37,-85.4339"/>
</g>
<!-- Node37&#45;&gt;Node13 -->
<g id="edge55" class="edge"><title>Node37&#45;&gt;Node13</title>
<path fill="none" stroke="midnightblue" d="M1330.46,-260.403C1343.17,-250.869 1363.91,-235.315 1379.25,-223.811"/>
<polygon fill="midnightblue" stroke="midnightblue" points="1381.66,-226.381 1387.56,-217.581 1377.46,-220.781 1381.66,-226.381"/>
</g>
<!-- Node37&#45;&gt;Node19 -->
<g id="edge56" class="edge"><title>Node37&#45;&gt;Node19</title>
<path fill="none" stroke="midnightblue" d="M1314.38,-260.339C1309.94,-251.493 1303.55,-237.22 1301,-224 1298.31,-210.034 1298.01,-205.904 1301,-192 1303.52,-180.301 1308.94,-168.05 1313.88,-158.488"/>
<polygon fill="midnightblue" stroke="midnightblue" points="1317,-160.086 1318.73,-149.633 1310.86,-156.728 1317,-160.086"/>
</g>
</g>
</svg>
