<?xml version="1.0" encoding="UTF-8" standalone="no"?>
<!DOCTYPE svg PUBLIC "-//W3C//DTD SVG 1.1//EN"
 "http://www.w3.org/Graphics/SVG/1.1/DTD/svg11.dtd">
<!-- Generated by graphviz version 2.36.0 (20140111.2315)
 -->
<!-- Title: /home/travis/build/AliceO2Group/AliceO2/Detectors/TOF/simulation/include/TOFSimulation/Digitizer.h Pages: 1 -->
<!--zoomable 434 -->
<svg id="main" version="1.1" xmlns="http://www.w3.org/2000/svg" xmlns:xlink="http://www.w3.org/1999/xlink" xml:space="preserve" onload="init(evt)">
<style type="text/css"><![CDATA[
.edge:hover path { stroke: red; }
.edge:hover polygon { stroke: red; fill: red; }
]]></style>
<script type="text/javascript"><![CDATA[
var edges = document.getElementsByTagName('g');
if (edges && edges.length) {
  for (var i=0;i<edges.length;i++) {
    if (edges[i].id.substr(0,4)=='edge') {
      edges[i].setAttribute('class','edge');
    }
  }
}
]]></script>
        <defs>
                <circle id="rim" cx="0" cy="0" r="7"/>
                <circle id="rim2" cx="0" cy="0" r="3.5"/>
                <g id="zoomPlus">
                        <use xlink:href="#rim" fill="#404040">
                                <set attributeName="fill" to="#808080" begin="zoomplus.mouseover" end="zoomplus.mouseout"/>
                        </use>
                        <path d="M-4,0h8M0,-4v8" fill="none" stroke="white" stroke-width="1.5" pointer-events="none"/>
                </g>
                <g id="zoomMin">
                        <use xlink:href="#rim" fill="#404040">
                                <set attributeName="fill" to="#808080" begin="zoomminus.mouseover" end="zoomminus.mouseout"/>
                        </use>
                        <path d="M-4,0h8" fill="none" stroke="white" stroke-width="1.5" pointer-events="none"/>
                </g>
                <g id="dirArrow">
                        <path fill="none" stroke="white" stroke-width="1.5" d="M0,-3.0v7 M-2.5,-0.5L0,-3.0L2.5,-0.5"/>
                </g>
               <g id="resetDef">
                       <use xlink:href="#rim2" fill="#404040">
                               <set attributeName="fill" to="#808080" begin="reset.mouseover" end="reset.mouseout"/>
                       </use>
               </g>
        </defs>

<script type="text/javascript">
var viewWidth = 2366;
var viewHeight = 434;
var sectionId = 'dynsection-0';
</script>
<script xlink:href="../../svgpan.js"/>
<svg id="graph" class="graph">
<g id="viewport">
<title>/home/travis/build/AliceO2Group/AliceO2/Detectors/TOF/simulation/include/TOFSimulation/Digitizer.h</title>
<!-- Node1 -->
<g id="node1" class="node"><title>Node1</title>
<polygon fill="#bfbfbf" stroke="black" points="624,-373 624,-425 790,-425 790,-373 624,-373"/>
<text text-anchor="start" x="632" y="-413" font-family="Helvetica,sans-Serif" font-size="10.00">/home/travis/build</text>
<text text-anchor="start" x="632" y="-402" font-family="Helvetica,sans-Serif" font-size="10.00">/AliceO2Group/AliceO2</text>
<text text-anchor="start" x="632" y="-391" font-family="Helvetica,sans-Serif" font-size="10.00">/Detectors/TOF/simulation</text>
<text text-anchor="middle" x="707" y="-380" font-family="Helvetica,sans-Serif" font-size="10.00">/include/TOFSimulation/Digitizer.h</text>
</g>
<!-- Node2 -->
<g id="node2" class="node"><title>Node2</title>
<g id="a_node2"><a xlink:href="../../d4/d54/Geo_8h.html" target="_top" xlink:title="TOFBase/Geo.h">
<polygon fill="none" stroke="black" points="573,-198.5 573,-217.5 661,-217.5 661,-198.5 573,-198.5"/>
<text text-anchor="middle" x="617" y="-205.5" font-family="Helvetica,sans-Serif" font-size="10.00">TOFBase/Geo.h</text>
</a>
</g>
</g>
<!-- Node1&#45;&gt;Node2 -->
<g id="edge1" class="edge"><title>Node1&#45;&gt;Node2</title>
<path fill="none" stroke="midnightblue" d="M695.049,-372.902C676.589,-334.136 641.592,-260.644 625.493,-226.835"/>
<polygon fill="midnightblue" stroke="midnightblue" points="628.602,-225.223 621.142,-217.699 622.282,-228.232 628.602,-225.223"/>
</g>
<!-- Node4 -->
<g id="node4" class="node"><title>Node4</title>
<g id="a_node4"><a xlink:href="../../df/d9c/TOF_2base_2include_2TOFBase_2Digit_8h.html" target="_top" xlink:title="TOFBase/Digit.h">
<polygon fill="none" stroke="black" points="186,-260.5 186,-279.5 276,-279.5 276,-260.5 186,-260.5"/>
<text text-anchor="middle" x="231" y="-267.5" font-family="Helvetica,sans-Serif" font-size="10.00">TOFBase/Digit.h</text>
</a>
</g>
</g>
<!-- Node1&#45;&gt;Node4 -->
<g id="edge3" class="edge"><title>Node1&#45;&gt;Node4</title>
<path fill="none" stroke="midnightblue" d="M623.841,-384.628C562.477,-373.883 477.263,-357.116 404,-336 352.23,-321.078 293.94,-297.765 259.959,-283.489"/>
<polygon fill="midnightblue" stroke="midnightblue" points="261.209,-280.218 250.636,-279.542 258.48,-286.664 261.209,-280.218"/>
</g>
<!-- Node7 -->
<g id="node7" class="node"><title>Node7</title>
<g id="a_node7"><a xlink:href="../../d5/d3c/TOF_2simulation_2include_2TOFSimulation_2Detector_8h.html" target="_top" xlink:title="TOFSimulation/Detector.h">
<polygon fill="none" stroke="black" points="1017.5,-260.5 1017.5,-279.5 1148.5,-279.5 1148.5,-260.5 1017.5,-260.5"/>
<text text-anchor="middle" x="1083" y="-267.5" font-family="Helvetica,sans-Serif" font-size="10.00">TOFSimulation/Detector.h</text>
</a>
</g>
</g>
<!-- Node1&#45;&gt;Node7 -->
<g id="edge7" class="edge"><title>Node1&#45;&gt;Node7</title>
<path fill="none" stroke="midnightblue" d="M781.286,-372.909C861.973,-345.655 987.425,-303.282 1047.97,-282.833"/>
<polygon fill="midnightblue" stroke="midnightblue" points="1049.1,-286.144 1057.46,-279.628 1046.86,-279.512 1049.1,-286.144"/>
</g>
<!-- Node42 -->
<g id="node42" class="node"><title>Node42</title>
<g id="a_node42"><a xlink:href="../../dd/d77/Strip_8h.html" target="_top" xlink:title="TOFSimulation/Strip.h">
<polygon fill="none" stroke="black" points="724.5,-316.5 724.5,-335.5 837.5,-335.5 837.5,-316.5 724.5,-316.5"/>
<text text-anchor="middle" x="781" y="-323.5" font-family="Helvetica,sans-Serif" font-size="10.00">TOFSimulation/Strip.h</text>
</a>
</g>
</g>
<!-- Node1&#45;&gt;Node42 -->
<g id="edge52" class="edge"><title>Node1&#45;&gt;Node42</title>
<path fill="none" stroke="midnightblue" d="M733.298,-372.768C743.708,-362.78 755.355,-351.605 764.535,-342.798"/>
<polygon fill="midnightblue" stroke="midnightblue" points="767.08,-345.206 771.873,-335.757 762.234,-340.155 767.08,-345.206"/>
</g>
<!-- Node46 -->
<g id="node46" class="node"><title>Node46</title>
<g id="a_node46"><a xlink:href="../../db/d14/MCTruthContainer_8h.html" target="_top" xlink:title="Definition of a container to keep Monte Carlo truth external to simulation objects. ">
<polygon fill="none" stroke="black" points="2100,-193 2100,-223 2214,-223 2214,-193 2100,-193"/>
<text text-anchor="start" x="2108" y="-211" font-family="Helvetica,sans-Serif" font-size="10.00">SimulationDataFormat</text>
<text text-anchor="middle" x="2157" y="-200" font-family="Helvetica,sans-Serif" font-size="10.00">/MCTruthContainer.h</text>
</a>
</g>
</g>
<!-- Node1&#45;&gt;Node46 -->
<g id="edge61" class="edge"><title>Node1&#45;&gt;Node46</title>
<path fill="none" stroke="midnightblue" d="M790.166,-387.16C1051.36,-353.114 1852.01,-248.753 2089.76,-217.764"/>
<polygon fill="midnightblue" stroke="midnightblue" points="2090.52,-221.195 2099.99,-216.431 2089.62,-214.253 2090.52,-221.195"/>
</g>
<!-- Node50 -->
<g id="node50" class="node"><title>Node50</title>
<g id="a_node50"><a xlink:href="../../d9/dad/TOF_2simulation_2include_2TOFSimulation_2MCLabel_8h.html" target="_top" xlink:title="TOFSimulation/MCLabel.h">
<polygon fill="none" stroke="black" points="413,-316.5 413,-335.5 545,-335.5 545,-316.5 413,-316.5"/>
<text text-anchor="middle" x="479" y="-323.5" font-family="Helvetica,sans-Serif" font-size="10.00">TOFSimulation/MCLabel.h</text>
</a>
</g>
</g>
<!-- Node1&#45;&gt;Node50 -->
<g id="edge67" class="edge"><title>Node1&#45;&gt;Node50</title>
<path fill="none" stroke="midnightblue" d="M626.616,-372.968C588.95,-361.239 545.907,-347.835 516.059,-338.54"/>
<polygon fill="midnightblue" stroke="midnightblue" points="517.058,-335.186 506.469,-335.554 514.976,-341.869 517.058,-335.186"/>
</g>
<!-- Node3 -->
<g id="node3" class="node"><title>Node3</title>
<polygon fill="none" stroke="#bfbfbf" points="63,-74.5 63,-93.5 119,-93.5 119,-74.5 63,-74.5"/>
<text text-anchor="middle" x="91" y="-81.5" font-family="Helvetica,sans-Serif" font-size="10.00">Rtypes.h</text>
</g>
<!-- Node2&#45;&gt;Node3 -->
<g id="edge2" class="edge"><title>Node2&#45;&gt;Node3</title>
<path fill="none" stroke="midnightblue" d="M575.939,-198.477C465.961,-175.584 170.138,-113.576 127,-100 124.425,-99.1895 121.778,-98.2676 119.145,-97.2886"/>
<polygon fill="midnightblue" stroke="midnightblue" points="120.406,-94.0234 109.82,-93.5903 117.825,-100.53 120.406,-94.0234"/>
</g>
<!-- Node4&#45;&gt;Node3 -->
<g id="edge5" class="edge"><title>Node4&#45;&gt;Node3</title>
<path fill="none" stroke="midnightblue" d="M230.381,-260.278C228.977,-245.298 224.536,-214.159 211,-192 186.162,-151.339 141.092,-117.328 113.816,-99.1782"/>
<polygon fill="midnightblue" stroke="midnightblue" points="115.595,-96.16 105.303,-93.6444 111.78,-102.029 115.595,-96.16"/>
</g>
<!-- Node5 -->
<g id="node5" class="node"><title>Node5</title>
<polygon fill="none" stroke="#bfbfbf" points="-0.5,-74.5 -0.5,-93.5 44.5,-93.5 44.5,-74.5 -0.5,-74.5"/>
<text text-anchor="middle" x="22" y="-81.5" font-family="Helvetica,sans-Serif" font-size="10.00">iosfwd</text>
</g>
<!-- Node4&#45;&gt;Node5 -->
<g id="edge4" class="edge"><title>Node4&#45;&gt;Node5</title>
<path fill="none" stroke="midnightblue" d="M185.905,-262.322C158.022,-256.262 122.924,-244.923 98,-224 58.9613,-191.228 36.6157,-133.06 27.253,-103.44"/>
<polygon fill="midnightblue" stroke="midnightblue" points="30.5248,-102.166 24.2926,-93.5981 23.8215,-104.182 30.5248,-102.166"/>
</g>
<!-- Node6 -->
<g id="node6" class="node"><title>Node6</title>
<polygon fill="none" stroke="#bfbfbf" points="107.5,-193 107.5,-223 202.5,-223 202.5,-193 107.5,-193"/>
<text text-anchor="start" x="115.5" y="-211" font-family="Helvetica,sans-Serif" font-size="10.00">boost/serialization</text>
<text text-anchor="middle" x="155" y="-200" font-family="Helvetica,sans-Serif" font-size="10.00">/base_object.hpp</text>
</g>
<!-- Node4&#45;&gt;Node6 -->
<g id="edge6" class="edge"><title>Node4&#45;&gt;Node6</title>
<path fill="none" stroke="midnightblue" d="M220.111,-260.403C209.914,-252.353 194.283,-240.013 180.891,-229.441"/>
<polygon fill="midnightblue" stroke="midnightblue" points="182.929,-226.59 172.912,-223.141 178.592,-232.084 182.929,-226.59"/>
</g>
<!-- Node7&#45;&gt;Node2 -->
<g id="edge37" class="edge"><title>Node7&#45;&gt;Node2</title>
<path fill="none" stroke="midnightblue" d="M1017.22,-260.531C924.525,-248.595 757.194,-227.051 671.22,-215.981"/>
<polygon fill="midnightblue" stroke="midnightblue" points="671.514,-212.49 661.149,-214.684 670.62,-219.433 671.514,-212.49"/>
</g>
<!-- Node8 -->
<g id="node8" class="node"><title>Node8</title>
<g id="a_node8"><a xlink:href="../../d1/d3a/Base_2include_2DetectorsBase_2Detector_8h.html" target="_top" xlink:title="DetectorsBase/Detector.h">
<polygon fill="none" stroke="black" points="1315.5,-198.5 1315.5,-217.5 1446.5,-217.5 1446.5,-198.5 1315.5,-198.5"/>
<text text-anchor="middle" x="1381" y="-205.5" font-family="Helvetica,sans-Serif" font-size="10.00">DetectorsBase/Detector.h</text>
</a>
</g>
</g>
<!-- Node7&#45;&gt;Node8 -->
<g id="edge8" class="edge"><title>Node7&#45;&gt;Node8</title>
<path fill="none" stroke="midnightblue" d="M1125.38,-260.467C1178.89,-249.693 1270.93,-231.162 1328.74,-219.522"/>
<polygon fill="midnightblue" stroke="midnightblue" points="1329.65,-222.908 1338.77,-217.503 1328.27,-216.046 1329.65,-222.908"/>
</g>
<!-- Node27 -->
<g id="node27" class="node"><title>Node27</title>
<g id="a_node27"><a xlink:href="../../d0/d91/ShmAllocator_8h.html" target="_top" xlink:title="CommonUtils/ShmAllocator.h">
<polygon fill="none" stroke="black" points="1111,-136.5 1111,-155.5 1257,-155.5 1257,-136.5 1111,-136.5"/>
<text text-anchor="middle" x="1184" y="-143.5" font-family="Helvetica,sans-Serif" font-size="10.00">CommonUtils/ShmAllocator.h</text>
</a>
</g>
</g>
<!-- Node7&#45;&gt;Node27 -->
<g id="edge51" class="edge"><title>Node7&#45;&gt;Node27</title>
<path fill="none" stroke="midnightblue" d="M1090.26,-260.226C1107.01,-240.002 1148.53,-189.84 1170.26,-163.599"/>
<polygon fill="midnightblue" stroke="midnightblue" points="1173.12,-165.629 1176.8,-155.694 1167.73,-161.165 1173.12,-165.629"/>
</g>
<!-- Node31 -->
<g id="node31" class="node"><title>Node31</title>
<g id="a_node31"><a xlink:href="../../d4/d25/BaseHits_8h.html" target="_top" xlink:title="SimulationDataFormat\l/BaseHits.h">
<polygon fill="none" stroke="black" points="775,-193 775,-223 889,-223 889,-193 775,-193"/>
<text text-anchor="start" x="783" y="-211" font-family="Helvetica,sans-Serif" font-size="10.00">SimulationDataFormat</text>
<text text-anchor="middle" x="832" y="-200" font-family="Helvetica,sans-Serif" font-size="10.00">/BaseHits.h</text>
</a>
</g>
</g>
<!-- Node7&#45;&gt;Node31 -->
<g id="edge38" class="edge"><title>Node7&#45;&gt;Node31</title>
<path fill="none" stroke="midnightblue" d="M1047.3,-260.467C1008.89,-251.285 946.908,-236.468 899.288,-225.085"/>
<polygon fill="midnightblue" stroke="midnightblue" points="899.898,-221.632 889.358,-222.711 898.271,-228.44 899.898,-221.632"/>
</g>
<!-- Node8&#45;&gt;Node3 -->
<g id="edge20" class="edge"><title>Node8&#45;&gt;Node3</title>
<path fill="none" stroke="midnightblue" d="M1315.26,-205.986C1155.72,-202.98 751.653,-191.948 622,-156 603.229,-150.795 601.741,-141.314 583,-136 387.415,-80.5375 324.625,-147.69 127,-100 124.003,-99.2768 120.934,-98.3364 117.912,-97.2789"/>
<polygon fill="midnightblue" stroke="midnightblue" points="119.158,-94.0082 108.57,-93.6244 116.608,-100.527 119.158,-94.0082"/>
</g>
<!-- Node9 -->
<g id="node9" class="node"><title>Node9</title>
<polygon fill="none" stroke="#bfbfbf" points="1449.5,-74.5 1449.5,-93.5 1484.5,-93.5 1484.5,-74.5 1449.5,-74.5"/>
<text text-anchor="middle" x="1467" y="-81.5" font-family="Helvetica,sans-Serif" font-size="10.00">map</text>
</g>
<!-- Node8&#45;&gt;Node9 -->
<g id="edge9" class="edge"><title>Node8&#45;&gt;Node9</title>
<path fill="none" stroke="midnightblue" d="M1315.34,-205.867C1233.33,-202.901 1099.97,-192.439 1069,-156 1063.24,-149.227 1063.03,-142.582 1069,-136 1124.67,-74.6659 1360.91,-124.63 1440,-100 1441.65,-99.4848 1443.32,-98.8607 1444.97,-98.1633"/>
<polygon fill="midnightblue" stroke="midnightblue" points="1446.66,-101.231 1454.03,-93.6174 1443.52,-94.9747 1446.66,-101.231"/>
</g>
<!-- Node10 -->
<g id="node10" class="node"><title>Node10</title>
<polygon fill="none" stroke="#bfbfbf" points="531,-136.5 531,-155.5 575,-155.5 575,-136.5 531,-136.5"/>
<text text-anchor="middle" x="553" y="-143.5" font-family="Helvetica,sans-Serif" font-size="10.00">vector</text>
</g>
<!-- Node8&#45;&gt;Node10 -->
<g id="edge10" class="edge"><title>Node8&#45;&gt;Node10</title>
<path fill="none" stroke="midnightblue" d="M1315.37,-206.769C1179.16,-205.413 856.176,-197.649 589,-156 587.747,-155.805 586.473,-155.586 585.19,-155.349"/>
<polygon fill="midnightblue" stroke="midnightblue" points="585.85,-151.911 575.34,-153.249 584.391,-158.757 585.85,-151.911"/>
</g>
<!-- Node11 -->
<g id="node11" class="node"><title>Node11</title>
<polygon fill="none" stroke="#bfbfbf" points="1257.5,-74.5 1257.5,-93.5 1330.5,-93.5 1330.5,-74.5 1257.5,-74.5"/>
<text text-anchor="middle" x="1294" y="-81.5" font-family="Helvetica,sans-Serif" font-size="10.00">initializer_list</text>
</g>
<!-- Node8&#45;&gt;Node11 -->
<g id="edge11" class="edge"><title>Node8&#45;&gt;Node11</title>
<path fill="none" stroke="midnightblue" d="M1315.39,-206.075C1171.44,-203.366 837.975,-193.11 804,-156 736.995,-82.8116 1149.65,-119.228 1247,-100 1251.57,-99.098 1256.31,-97.9031 1260.96,-96.5802"/>
<polygon fill="midnightblue" stroke="midnightblue" points="1262.31,-99.8244 1270.85,-93.5437 1260.26,-93.1326 1262.31,-99.8244"/>
</g>
<!-- Node12 -->
<g id="node12" class="node"><title>Node12</title>
<polygon fill="none" stroke="#bfbfbf" points="1425,-136.5 1425,-155.5 1477,-155.5 1477,-136.5 1425,-136.5"/>
<text text-anchor="middle" x="1451" y="-143.5" font-family="Helvetica,sans-Serif" font-size="10.00">memory</text>
</g>
<!-- Node8&#45;&gt;Node12 -->
<g id="edge12" class="edge"><title>Node8&#45;&gt;Node12</title>
<path fill="none" stroke="midnightblue" d="M1391.03,-198.403C1402.05,-188.958 1419.96,-173.606 1433.34,-162.134"/>
<polygon fill="midnightblue" stroke="midnightblue" points="1435.67,-164.746 1440.99,-155.581 1431.12,-159.431 1435.67,-164.746"/>
</g>
<!-- Node13 -->
<g id="node13" class="node"><title>Node13</title>
<polygon fill="none" stroke="#bfbfbf" points="1495.5,-136.5 1495.5,-155.5 1574.5,-155.5 1574.5,-136.5 1495.5,-136.5"/>
<text text-anchor="middle" x="1535" y="-143.5" font-family="Helvetica,sans-Serif" font-size="10.00">FairDetector.h</text>
</g>
<!-- Node8&#45;&gt;Node13 -->
<g id="edge13" class="edge"><title>Node8&#45;&gt;Node13</title>
<path fill="none" stroke="midnightblue" d="M1403.06,-198.403C1429.37,-188.156 1473.51,-170.956 1503.42,-159.302"/>
<polygon fill="midnightblue" stroke="midnightblue" points="1504.93,-162.472 1512.98,-155.581 1502.39,-155.95 1504.93,-162.472"/>
</g>
<!-- Node14 -->
<g id="node14" class="node"><title>Node14</title>
<polygon fill="none" stroke="#bfbfbf" points="1593,-136.5 1593,-155.5 1693,-155.5 1693,-136.5 1593,-136.5"/>
<text text-anchor="middle" x="1643" y="-143.5" font-family="Helvetica,sans-Serif" font-size="10.00">FairRootManager.h</text>
</g>
<!-- Node8&#45;&gt;Node14 -->
<g id="edge14" class="edge"><title>Node8&#45;&gt;Node14</title>
<path fill="none" stroke="midnightblue" d="M1418.26,-198.467C1465.01,-187.76 1545.22,-169.392 1596.1,-157.74"/>
<polygon fill="midnightblue" stroke="midnightblue" points="1596.9,-161.147 1605.87,-155.503 1595.34,-154.324 1596.9,-161.147"/>
</g>
<!-- Node15 -->
<g id="node15" class="node"><title>Node15</title>
<g id="a_node15"><a xlink:href="../../d0/d9a/MaterialManager_8h.html" target="_top" xlink:title="DetectorsBase/MaterialManager.h">
<polygon fill="none" stroke="black" points="813.5,-136.5 813.5,-155.5 978.5,-155.5 978.5,-136.5 813.5,-136.5"/>
<text text-anchor="middle" x="896" y="-143.5" font-family="Helvetica,sans-Serif" font-size="10.00">DetectorsBase/MaterialManager.h</text>
</a>
</g>
</g>
<!-- Node8&#45;&gt;Node15 -->
<g id="edge15" class="edge"><title>Node8&#45;&gt;Node15</title>
<path fill="none" stroke="midnightblue" d="M1315.34,-198.877C1226.95,-187.942 1069.88,-168.51 975.089,-156.784"/>
<polygon fill="midnightblue" stroke="midnightblue" points="975.337,-153.288 964.983,-155.534 974.477,-160.235 975.337,-153.288"/>
</g>
<!-- Node17 -->
<g id="node17" class="node"><title>Node17</title>
<polygon fill="none" stroke="#bfbfbf" points="1711.5,-136.5 1711.5,-155.5 1764.5,-155.5 1764.5,-136.5 1711.5,-136.5"/>
<text text-anchor="middle" x="1738" y="-143.5" font-family="Helvetica,sans-Serif" font-size="10.00">cxxabi.h</text>
</g>
<!-- Node8&#45;&gt;Node17 -->
<g id="edge21" class="edge"><title>Node8&#45;&gt;Node17</title>
<path fill="none" stroke="midnightblue" d="M1445.25,-198.478C1508.04,-189.767 1606.52,-175.095 1701.28,-155.99"/>
<polygon fill="midnightblue" stroke="midnightblue" points="1702.22,-159.37 1711.32,-153.945 1700.83,-152.511 1702.22,-159.37"/>
</g>
<!-- Node18 -->
<g id="node18" class="node"><title>Node18</title>
<polygon fill="none" stroke="#bfbfbf" points="1782.5,-136.5 1782.5,-155.5 1833.5,-155.5 1833.5,-136.5 1782.5,-136.5"/>
<text text-anchor="middle" x="1808" y="-143.5" font-family="Helvetica,sans-Serif" font-size="10.00">typeinfo</text>
</g>
<!-- Node8&#45;&gt;Node18 -->
<g id="edge22" class="edge"><title>Node8&#45;&gt;Node18</title>
<path fill="none" stroke="midnightblue" d="M1446.59,-200.943C1522.62,-193.368 1651.81,-178.79 1772.33,-155.9"/>
<polygon fill="midnightblue" stroke="midnightblue" points="1773.31,-159.275 1782.47,-153.95 1771.99,-152.401 1773.31,-159.275"/>
</g>
<!-- Node19 -->
<g id="node19" class="node"><title>Node19</title>
<polygon fill="none" stroke="#bfbfbf" points="2038,-136.5 2038,-155.5 2100,-155.5 2100,-136.5 2038,-136.5"/>
<text text-anchor="middle" x="2069" y="-143.5" font-family="Helvetica,sans-Serif" font-size="10.00">type_traits</text>
</g>
<!-- Node8&#45;&gt;Node19 -->
<g id="edge23" class="edge"><title>Node8&#45;&gt;Node19</title>
<path fill="none" stroke="midnightblue" d="M1446.54,-204.364C1563.14,-199.104 1814.1,-185.21 2024,-156 2025.1,-155.846 2026.22,-155.682 2027.35,-155.51"/>
<polygon fill="midnightblue" stroke="midnightblue" points="2028.34,-158.893 2037.61,-153.77 2027.16,-151.992 2028.34,-158.893"/>
</g>
<!-- Node20 -->
<g id="node20" class="node"><title>Node20</title>
<polygon fill="none" stroke="#bfbfbf" points="1851.5,-136.5 1851.5,-155.5 1892.5,-155.5 1892.5,-136.5 1851.5,-136.5"/>
<text text-anchor="middle" x="1872" y="-143.5" font-family="Helvetica,sans-Serif" font-size="10.00">string</text>
</g>
<!-- Node8&#45;&gt;Node20 -->
<g id="edge24" class="edge"><title>Node8&#45;&gt;Node20</title>
<path fill="none" stroke="midnightblue" d="M1446.85,-203.478C1534.82,-197.939 1695.51,-184.912 1841.43,-155.732"/>
<polygon fill="midnightblue" stroke="midnightblue" points="1842.36,-159.114 1851.47,-153.694 1840.97,-152.254 1842.36,-159.114"/>
</g>
<!-- Node21 -->
<g id="node21" class="node"><title>Node21</title>
<polygon fill="none" stroke="#bfbfbf" points="1910.5,-136.5 1910.5,-155.5 1981.5,-155.5 1981.5,-136.5 1910.5,-136.5"/>
<text text-anchor="middle" x="1946" y="-143.5" font-family="Helvetica,sans-Serif" font-size="10.00">TMessage.h</text>
</g>
<!-- Node8&#45;&gt;Node21 -->
<g id="edge25" class="edge"><title>Node8&#45;&gt;Node21</title>
<path fill="none" stroke="midnightblue" d="M1446.52,-202.678C1543.44,-195.82 1730.87,-180.779 1900.1,-155.989"/>
<polygon fill="midnightblue" stroke="midnightblue" points="1900.81,-159.422 1910.19,-154.495 1899.79,-152.497 1900.81,-159.422"/>
</g>
<!-- Node22 -->
<g id="node22" class="node"><title>Node22</title>
<g id="a_node22"><a xlink:href="../../de/d61/ShmManager_8h.html" target="_top" xlink:title="CommonUtils/ShmManager.h">
<polygon fill="none" stroke="black" points="1503,-74.5 1503,-93.5 1649,-93.5 1649,-74.5 1503,-74.5"/>
<text text-anchor="middle" x="1576" y="-81.5" font-family="Helvetica,sans-Serif" font-size="10.00">CommonUtils/ShmManager.h</text>
</a>
</g>
</g>
<!-- Node8&#45;&gt;Node22 -->
<g id="edge26" class="edge"><title>Node8&#45;&gt;Node22</title>
<path fill="none" stroke="midnightblue" d="M1315.47,-204.405C1241.7,-199.947 1128.65,-187.957 1102,-156 1096.31,-149.173 1096.01,-142.567 1102,-136 1131.4,-103.767 1449.77,-105.885 1493,-100 1502.58,-98.6953 1512.75,-97.0652 1522.55,-95.3645"/>
<polygon fill="midnightblue" stroke="midnightblue" points="1523.37,-98.774 1532.61,-93.5774 1522.15,-91.8821 1523.37,-98.774"/>
</g>
<!-- Node8&#45;&gt;Node27 -->
<g id="edge31" class="edge"><title>Node8&#45;&gt;Node27</title>
<path fill="none" stroke="midnightblue" d="M1352.77,-198.403C1318.4,-187.933 1260.19,-170.205 1221.92,-158.55"/>
<polygon fill="midnightblue" stroke="midnightblue" points="1222.76,-155.146 1212.17,-155.581 1220.72,-161.842 1222.76,-155.146"/>
</g>
<!-- Node28 -->
<g id="node28" class="node"><title>Node28</title>
<polygon fill="none" stroke="#bfbfbf" points="1985.5,-74.5 1985.5,-93.5 2034.5,-93.5 2034.5,-74.5 1985.5,-74.5"/>
<text text-anchor="middle" x="2010" y="-81.5" font-family="Helvetica,sans-Serif" font-size="10.00">cassert</text>
</g>
<!-- Node8&#45;&gt;Node28 -->
<g id="edge36" class="edge"><title>Node8&#45;&gt;Node28</title>
<path fill="none" stroke="midnightblue" d="M1446.72,-205.668C1595.59,-202.065 1948.8,-189.995 1990,-156 2005.25,-143.418 2009.38,-120.192 2010.26,-103.734"/>
<polygon fill="midnightblue" stroke="midnightblue" points="2013.76,-103.698 2010.44,-93.6363 2006.76,-103.571 2013.76,-103.698"/>
</g>
<!-- Node29 -->
<g id="node29" class="node"><title>Node29</title>
<polygon fill="none" stroke="#bfbfbf" points="1275,-136.5 1275,-155.5 1337,-155.5 1337,-136.5 1275,-136.5"/>
<text text-anchor="middle" x="1306" y="-143.5" font-family="Helvetica,sans-Serif" font-size="10.00">sys/shm.h</text>
</g>
<!-- Node8&#45;&gt;Node29 -->
<g id="edge34" class="edge"><title>Node8&#45;&gt;Node29</title>
<path fill="none" stroke="midnightblue" d="M1370.25,-198.403C1358.45,-188.958 1339.26,-173.606 1324.92,-162.134"/>
<polygon fill="midnightblue" stroke="midnightblue" points="1326.72,-159.095 1316.73,-155.581 1322.35,-164.561 1326.72,-159.095"/>
</g>
<!-- Node30 -->
<g id="node30" class="node"><title>Node30</title>
<polygon fill="none" stroke="#bfbfbf" points="1355.5,-136.5 1355.5,-155.5 1406.5,-155.5 1406.5,-136.5 1355.5,-136.5"/>
<text text-anchor="middle" x="1381" y="-143.5" font-family="Helvetica,sans-Serif" font-size="10.00">unistd.h</text>
</g>
<!-- Node8&#45;&gt;Node30 -->
<g id="edge35" class="edge"><title>Node8&#45;&gt;Node30</title>
<path fill="none" stroke="midnightblue" d="M1381,-198.403C1381,-189.938 1381,-176.728 1381,-165.82"/>
<polygon fill="midnightblue" stroke="midnightblue" points="1384.5,-165.581 1381,-155.581 1377.5,-165.581 1384.5,-165.581"/>
</g>
<!-- Node15&#45;&gt;Node3 -->
<g id="edge16" class="edge"><title>Node15&#45;&gt;Node3</title>
<path fill="none" stroke="midnightblue" d="M813.2,-139.157C797.209,-138.073 780.585,-136.975 765,-136 481.548,-118.267 403.811,-163.524 127,-100 123.931,-99.2958 120.79,-98.3525 117.703,-97.2802"/>
<polygon fill="midnightblue" stroke="midnightblue" points="118.773,-93.9404 108.185,-93.5502 116.219,-100.458 118.773,-93.9404"/>
</g>
<!-- Node15&#45;&gt;Node9 -->
<g id="edge17" class="edge"><title>Node15&#45;&gt;Node9</title>
<path fill="none" stroke="midnightblue" d="M978.546,-137.272C983.436,-136.836 988.282,-136.409 993,-136 1191.57,-118.793 1249.23,-157.705 1440,-100 1441.69,-99.4877 1443.4,-98.8582 1445.09,-98.1502"/>
<polygon fill="midnightblue" stroke="midnightblue" points="1446.96,-101.127 1454.32,-93.5073 1443.81,-94.8739 1446.96,-101.127"/>
</g>
<!-- Node15&#45;&gt;Node11 -->
<g id="edge19" class="edge"><title>Node15&#45;&gt;Node11</title>
<path fill="none" stroke="midnightblue" d="M975.613,-136.492C1062.81,-126.872 1196.92,-111.106 1247,-100 1251.23,-99.0613 1255.63,-97.9072 1259.96,-96.6597"/>
<polygon fill="midnightblue" stroke="midnightblue" points="1261.3,-99.9106 1269.84,-93.6366 1259.25,-93.2172 1261.3,-99.9106"/>
</g>
<!-- Node16 -->
<g id="node16" class="node"><title>Node16</title>
<polygon fill="none" stroke="#bfbfbf" points="1348.5,-74.5 1348.5,-93.5 1431.5,-93.5 1431.5,-74.5 1348.5,-74.5"/>
<text text-anchor="middle" x="1390" y="-81.5" font-family="Helvetica,sans-Serif" font-size="10.00">unordered_map</text>
</g>
<!-- Node15&#45;&gt;Node16 -->
<g id="edge18" class="edge"><title>Node15&#45;&gt;Node16</title>
<path fill="none" stroke="midnightblue" d="M978.532,-137.013C1101.83,-125.024 1321.61,-103.41 1339,-100 1344.08,-99.0043 1349.38,-97.7254 1354.56,-96.3349"/>
<polygon fill="midnightblue" stroke="midnightblue" points="1355.62,-99.6708 1364.28,-93.5689 1353.71,-92.9377 1355.62,-99.6708"/>
</g>
<!-- Node23 -->
<g id="node23" class="node"><title>Node23</title>
<polygon fill="none" stroke="#bfbfbf" points="1445.5,-6.5 1445.5,-25.5 1474.5,-25.5 1474.5,-6.5 1445.5,-6.5"/>
<text text-anchor="middle" x="1460" y="-13.5" font-family="Helvetica,sans-Serif" font-size="10.00">list</text>
</g>
<!-- Node22&#45;&gt;Node23 -->
<g id="edge27" class="edge"><title>Node22&#45;&gt;Node23</title>
<path fill="none" stroke="midnightblue" d="M1559.32,-74.3467C1540.54,-64.4897 1509.22,-47.7094 1483,-32 1482.59,-31.755 1482.18,-31.5063 1481.76,-31.2544"/>
<polygon fill="midnightblue" stroke="midnightblue" points="1483.35,-28.1174 1473.03,-25.7418 1479.62,-34.0377 1483.35,-28.1174"/>
</g>
<!-- Node24 -->
<g id="node24" class="node"><title>Node24</title>
<polygon fill="none" stroke="#bfbfbf" points="1492.5,-6.5 1492.5,-25.5 1541.5,-25.5 1541.5,-6.5 1492.5,-6.5"/>
<text text-anchor="middle" x="1517" y="-13.5" font-family="Helvetica,sans-Serif" font-size="10.00">cstddef</text>
</g>
<!-- Node22&#45;&gt;Node24 -->
<g id="edge28" class="edge"><title>Node22&#45;&gt;Node24</title>
<path fill="none" stroke="midnightblue" d="M1568.29,-74.3717C1559.06,-64.053 1543.42,-46.5513 1531.83,-33.5854"/>
<polygon fill="midnightblue" stroke="midnightblue" points="1534.18,-30.9639 1524.9,-25.8411 1528.96,-35.6291 1534.18,-30.9639"/>
</g>
<!-- Node25 -->
<g id="node25" class="node"><title>Node25</title>
<polygon fill="none" stroke="#bfbfbf" points="1560,-1 1560,-31 1708,-31 1708,-1 1560,-1"/>
<text text-anchor="start" x="1568" y="-19" font-family="Helvetica,sans-Serif" font-size="10.00">boost/interprocess</text>
<text text-anchor="middle" x="1634" y="-8" font-family="Helvetica,sans-Serif" font-size="10.00">/managed_external_buffer.hpp</text>
</g>
<!-- Node22&#45;&gt;Node25 -->
<g id="edge29" class="edge"><title>Node22&#45;&gt;Node25</title>
<path fill="none" stroke="midnightblue" d="M1583.58,-74.3717C1591.49,-65.3715 1604.2,-50.9067 1614.88,-38.7534"/>
<polygon fill="midnightblue" stroke="midnightblue" points="1617.57,-41.0035 1621.54,-31.1815 1612.31,-36.3827 1617.57,-41.0035"/>
</g>
<!-- Node26 -->
<g id="node26" class="node"><title>Node26</title>
<polygon fill="none" stroke="#bfbfbf" points="1726,-1 1726,-31 1846,-31 1846,-1 1726,-1"/>
<text text-anchor="start" x="1734" y="-19" font-family="Helvetica,sans-Serif" font-size="10.00">boost/interprocess</text>
<text text-anchor="middle" x="1786" y="-8" font-family="Helvetica,sans-Serif" font-size="10.00">/allocators/allocator.hpp</text>
</g>
<!-- Node22&#45;&gt;Node26 -->
<g id="edge30" class="edge"><title>Node22&#45;&gt;Node26</title>
<path fill="none" stroke="midnightblue" d="M1603.45,-74.3717C1635.88,-64.182 1690.58,-46.9877 1731.67,-34.0738"/>
<polygon fill="midnightblue" stroke="midnightblue" points="1732.79,-37.3935 1741.28,-31.0562 1730.69,-30.7156 1732.79,-37.3935"/>
</g>
<!-- Node27&#45;&gt;Node22 -->
<g id="edge32" class="edge"><title>Node27&#45;&gt;Node22</title>
<path fill="none" stroke="midnightblue" d="M1246.83,-136.491C1309.33,-127.876 1407.93,-113.878 1493,-100 1501.82,-98.5612 1511.15,-96.9558 1520.25,-95.3452"/>
<polygon fill="midnightblue" stroke="midnightblue" points="1521.16,-98.7388 1530.38,-93.533 1519.92,-91.8481 1521.16,-98.7388"/>
</g>
<!-- Node27&#45;&gt;Node28 -->
<g id="edge33" class="edge"><title>Node27&#45;&gt;Node28</title>
<path fill="none" stroke="midnightblue" d="M1257.3,-136.804C1260.24,-136.524 1263.15,-136.254 1266,-136 1538.73,-111.696 1868.61,-92.7417 1975.08,-86.8851"/>
<polygon fill="midnightblue" stroke="midnightblue" points="1975.45,-90.37 1985.25,-86.3284 1975.07,-83.3805 1975.45,-90.37"/>
</g>
<!-- Node32 -->
<g id="node32" class="node"><title>Node32</title>
<g id="a_node32"><a xlink:href="../../dd/d76/Cartesian3D_8h.html" target="_top" xlink:title="MathUtils/Cartesian3D.h">
<polygon fill="none" stroke="black" points="631.5,-136.5 631.5,-155.5 756.5,-155.5 756.5,-136.5 631.5,-136.5"/>
<text text-anchor="middle" x="694" y="-143.5" font-family="Helvetica,sans-Serif" font-size="10.00">MathUtils/Cartesian3D.h</text>
</a>
</g>
</g>
<!-- Node31&#45;&gt;Node32 -->
<g id="edge39" class="edge"><title>Node31&#45;&gt;Node32</title>
<path fill="none" stroke="midnightblue" d="M799.645,-192.933C776.467,-182.855 745.517,-169.399 723.112,-159.657"/>
<polygon fill="midnightblue" stroke="midnightblue" points="724.346,-156.378 713.78,-155.6 721.555,-162.797 724.346,-156.378"/>
</g>
<!-- Node32&#45;&gt;Node3 -->
<g id="edge45" class="edge"><title>Node32&#45;&gt;Node3</title>
<path fill="none" stroke="midnightblue" d="M631.409,-137.456C626.536,-136.938 621.689,-136.446 617,-136 399.617,-115.32 339.41,-150.646 127,-100 124.001,-99.285 120.93,-98.3498 117.908,-97.2954"/>
<polygon fill="midnightblue" stroke="midnightblue" points="119.154,-94.0245 108.566,-93.6446 116.606,-100.544 119.154,-94.0245"/>
</g>
<!-- Node32&#45;&gt;Node5 -->
<g id="edge47" class="edge"><title>Node32&#45;&gt;Node5</title>
<path fill="none" stroke="midnightblue" d="M631.491,-139.789C615.672,-138.509 598.714,-137.172 583,-136 347.997,-118.477 282.145,-159.019 54,-100 51.5052,-99.3546 48.9676,-98.5172 46.4685,-97.5683"/>
<polygon fill="midnightblue" stroke="midnightblue" points="47.758,-94.3123 37.1924,-93.5252 44.961,-100.729 47.758,-94.3123"/>
</g>
<!-- Node33 -->
<g id="node33" class="node"><title>Node33</title>
<polygon fill="none" stroke="#bfbfbf" points="893.5,-69 893.5,-99 1044.5,-99 1044.5,-69 893.5,-69"/>
<text text-anchor="start" x="901.5" y="-87" font-family="Helvetica,sans-Serif" font-size="10.00">Math/GenVector/Displacement</text>
<text text-anchor="middle" x="969" y="-76" font-family="Helvetica,sans-Serif" font-size="10.00">Vector3D.h</text>
</g>
<!-- Node32&#45;&gt;Node33 -->
<g id="edge40" class="edge"><title>Node32&#45;&gt;Node33</title>
<path fill="none" stroke="midnightblue" d="M733.109,-136.467C775.04,-127.318 842.609,-112.576 894.705,-101.21"/>
<polygon fill="midnightblue" stroke="midnightblue" points="895.55,-104.608 904.574,-99.0565 894.058,-97.7687 895.55,-104.608"/>
</g>
<!-- Node34 -->
<g id="node34" class="node"><title>Node34</title>
<polygon fill="none" stroke="#bfbfbf" points="1063,-74.5 1063,-93.5 1239,-93.5 1239,-74.5 1063,-74.5"/>
<text text-anchor="middle" x="1151" y="-81.5" font-family="Helvetica,sans-Serif" font-size="10.00">Math/GenVector/PositionVector3D.h</text>
</g>
<!-- Node32&#45;&gt;Node34 -->
<g id="edge41" class="edge"><title>Node32&#45;&gt;Node34</title>
<path fill="none" stroke="midnightblue" d="M756.651,-137.67C828.348,-129.16 949.257,-114.439 1053,-100 1064.08,-98.4585 1075.84,-96.7333 1087.23,-95.017"/>
<polygon fill="midnightblue" stroke="midnightblue" points="1087.76,-98.4771 1097.12,-93.5158 1086.71,-91.5564 1087.76,-98.4771"/>
</g>
<!-- Node35 -->
<g id="node35" class="node"><title>Node35</title>
<polygon fill="none" stroke="#bfbfbf" points="136.5,-74.5 136.5,-93.5 285.5,-93.5 285.5,-74.5 136.5,-74.5"/>
<text text-anchor="middle" x="211" y="-81.5" font-family="Helvetica,sans-Serif" font-size="10.00">Math/GenVector/Rotation3D.h</text>
</g>
<!-- Node32&#45;&gt;Node35 -->
<g id="edge42" class="edge"><title>Node32&#45;&gt;Node35</title>
<path fill="none" stroke="midnightblue" d="M631.388,-137.655C626.52,-137.092 621.68,-136.535 617,-136 473.929,-119.641 437.512,-120.668 295,-100 285.534,-98.6271 275.499,-96.9925 265.784,-95.3155"/>
<polygon fill="midnightblue" stroke="midnightblue" points="266.269,-91.8472 255.814,-93.5618 265.056,-98.7413 266.269,-91.8472"/>
</g>
<!-- Node36 -->
<g id="node36" class="node"><title>Node36</title>
<polygon fill="none" stroke="#bfbfbf" points="304,-74.5 304,-93.5 460,-93.5 460,-74.5 304,-74.5"/>
<text text-anchor="middle" x="382" y="-81.5" font-family="Helvetica,sans-Serif" font-size="10.00">Math/GenVector/Transform3D.h</text>
</g>
<!-- Node32&#45;&gt;Node36 -->
<g id="edge43" class="edge"><title>Node32&#45;&gt;Node36</title>
<path fill="none" stroke="midnightblue" d="M649.629,-136.467C593.489,-125.671 496.845,-107.086 436.341,-95.4501"/>
<polygon fill="midnightblue" stroke="midnightblue" points="436.699,-91.9549 426.218,-93.5034 435.377,-98.829 436.699,-91.9549"/>
</g>
<!-- Node37 -->
<g id="node37" class="node"><title>Node37</title>
<polygon fill="none" stroke="#bfbfbf" points="478,-74.5 478,-93.5 638,-93.5 638,-74.5 478,-74.5"/>
<text text-anchor="middle" x="558" y="-81.5" font-family="Helvetica,sans-Serif" font-size="10.00">Math/GenVector/Translation3D.h</text>
</g>
<!-- Node32&#45;&gt;Node37 -->
<g id="edge44" class="edge"><title>Node32&#45;&gt;Node37</title>
<path fill="none" stroke="midnightblue" d="M674.515,-136.403C651.59,-126.29 613.315,-109.404 586.925,-97.761"/>
<polygon fill="midnightblue" stroke="midnightblue" points="588.011,-94.4148 577.449,-93.5806 585.186,-100.819 588.011,-94.4148"/>
</g>
<!-- Node38 -->
<g id="node38" class="node"><title>Node38</title>
<polygon fill="none" stroke="#bfbfbf" points="656,-74.5 656,-93.5 732,-93.5 732,-74.5 656,-74.5"/>
<text text-anchor="middle" x="694" y="-81.5" font-family="Helvetica,sans-Serif" font-size="10.00">TGeoMatrix.h</text>
</g>
<!-- Node32&#45;&gt;Node38 -->
<g id="edge46" class="edge"><title>Node32&#45;&gt;Node38</title>
<path fill="none" stroke="midnightblue" d="M694,-136.403C694,-127.938 694,-114.728 694,-103.82"/>
<polygon fill="midnightblue" stroke="midnightblue" points="697.5,-103.581 694,-93.5806 690.5,-103.581 697.5,-103.581"/>
</g>
<!-- Node39 -->
<g id="node39" class="node"><title>Node39</title>
<g id="a_node39"><a xlink:href="../../d2/dd0/Cartesian2D_8h.html" target="_top" xlink:title="MathUtils/Cartesian2D.h">
<polygon fill="none" stroke="black" points="750.5,-74.5 750.5,-93.5 875.5,-93.5 875.5,-74.5 750.5,-74.5"/>
<text text-anchor="middle" x="813" y="-81.5" font-family="Helvetica,sans-Serif" font-size="10.00">MathUtils/Cartesian2D.h</text>
</a>
</g>
</g>
<!-- Node32&#45;&gt;Node39 -->
<g id="edge48" class="edge"><title>Node32&#45;&gt;Node39</title>
<path fill="none" stroke="midnightblue" d="M711.05,-136.403C730.844,-126.423 763.717,-109.849 786.77,-98.2253"/>
<polygon fill="midnightblue" stroke="midnightblue" points="788.628,-101.208 795.982,-93.5806 785.477,-94.9575 788.628,-101.208"/>
</g>
<!-- Node40 -->
<g id="node40" class="node"><title>Node40</title>
<polygon fill="none" stroke="#bfbfbf" points="646.5,-1 646.5,-31 797.5,-31 797.5,-1 646.5,-1"/>
<text text-anchor="start" x="654.5" y="-19" font-family="Helvetica,sans-Serif" font-size="10.00">Math/GenVector/Displacement</text>
<text text-anchor="middle" x="722" y="-8" font-family="Helvetica,sans-Serif" font-size="10.00">Vector2D.h</text>
</g>
<!-- Node39&#45;&gt;Node40 -->
<g id="edge49" class="edge"><title>Node39&#45;&gt;Node40</title>
<path fill="none" stroke="midnightblue" d="M801.103,-74.3717C788.221,-65.0286 767.22,-49.7966 750.093,-37.375"/>
<polygon fill="midnightblue" stroke="midnightblue" points="751.703,-34.2194 741.553,-31.1815 747.593,-39.8859 751.703,-34.2194"/>
</g>
<!-- Node41 -->
<g id="node41" class="node"><title>Node41</title>
<polygon fill="none" stroke="#bfbfbf" points="816,-6.5 816,-25.5 992,-25.5 992,-6.5 816,-6.5"/>
<text text-anchor="middle" x="904" y="-13.5" font-family="Helvetica,sans-Serif" font-size="10.00">Math/GenVector/PositionVector2D.h</text>
</g>
<!-- Node39&#45;&gt;Node41 -->
<g id="edge50" class="edge"><title>Node39&#45;&gt;Node41</title>
<path fill="none" stroke="midnightblue" d="M824.897,-74.3717C839.884,-63.5015 865.862,-44.6602 883.942,-31.5474"/>
<polygon fill="midnightblue" stroke="midnightblue" points="886.06,-34.3349 892.1,-25.6305 881.95,-28.6684 886.06,-34.3349"/>
</g>
<!-- Node42&#45;&gt;Node4 -->
<g id="edge53" class="edge"><title>Node42&#45;&gt;Node4</title>
<path fill="none" stroke="midnightblue" d="M724.469,-319.45C618.486,-309.044 391.179,-286.727 286.212,-276.421"/>
<polygon fill="midnightblue" stroke="midnightblue" points="286.436,-272.926 276.142,-275.432 285.752,-279.893 286.436,-272.926"/>
</g>
<!-- Node42&#45;&gt;Node7 -->
<g id="edge60" class="edge"><title>Node42&#45;&gt;Node7</title>
<path fill="none" stroke="midnightblue" d="M828.853,-316.444C882.199,-306.905 968.445,-291.483 1025.44,-281.293"/>
<polygon fill="midnightblue" stroke="midnightblue" points="1026.14,-284.722 1035.37,-279.516 1024.91,-277.831 1026.14,-284.722"/>
</g>
<!-- Node42&#45;&gt;Node9 -->
<g id="edge56" class="edge"><title>Node42&#45;&gt;Node9</title>
<path fill="none" stroke="midnightblue" d="M789.647,-316.379C821.892,-284.894 939.524,-175.88 1061,-136 1221.76,-83.2235 1278.4,-150.148 1440,-100 1441.65,-99.4865 1443.32,-98.8636 1444.97,-98.1672"/>
<polygon fill="midnightblue" stroke="midnightblue" points="1446.66,-101.235 1454.03,-93.6233 1443.52,-94.9784 1446.66,-101.235"/>
</g>
<!-- Node42&#45;&gt;Node10 -->
<g id="edge58" class="edge"><title>Node42&#45;&gt;Node10</title>
<path fill="none" stroke="midnightblue" d="M770.274,-316.272C759.926,-307.603 744.096,-293.664 732,-280 700.116,-243.985 707.006,-221.482 669,-192 662.031,-186.594 616.739,-169.77 584.86,-158.297"/>
<polygon fill="midnightblue" stroke="midnightblue" points="585.641,-154.859 575.047,-154.781 583.28,-161.449 585.641,-154.859"/>
</g>
<!-- Node42&#45;&gt;Node32 -->
<g id="edge59" class="edge"><title>Node42&#45;&gt;Node32</title>
<path fill="none" stroke="midnightblue" d="M772.937,-316.242C765.249,-307.55 753.728,-293.595 746,-280 724.131,-241.527 707.478,-192.044 699.399,-165.609"/>
<polygon fill="midnightblue" stroke="midnightblue" points="702.683,-164.374 696.471,-155.791 695.975,-166.374 702.683,-164.374"/>
</g>
<!-- Node43 -->
<g id="node43" class="node"><title>Node43</title>
<polygon fill="none" stroke="#bfbfbf" points="863.5,-260.5 863.5,-279.5 922.5,-279.5 922.5,-260.5 863.5,-260.5"/>
<text text-anchor="middle" x="893" y="-267.5" font-family="Helvetica,sans-Serif" font-size="10.00">TObject.h</text>
</g>
<!-- Node42&#45;&gt;Node43 -->
<g id="edge54" class="edge"><title>Node42&#45;&gt;Node43</title>
<path fill="none" stroke="midnightblue" d="M798.995,-316.324C817.038,-307.625 845.047,-294.12 865.803,-284.113"/>
<polygon fill="midnightblue" stroke="midnightblue" points="867.562,-287.15 875.05,-279.655 864.522,-280.845 867.562,-287.15"/>
</g>
<!-- Node44 -->
<g id="node44" class="node"><title>Node44</title>
<polygon fill="none" stroke="#bfbfbf" points="940.5,-260.5 940.5,-279.5 999.5,-279.5 999.5,-260.5 940.5,-260.5"/>
<text text-anchor="middle" x="970" y="-267.5" font-family="Helvetica,sans-Serif" font-size="10.00">exception</text>
</g>
<!-- Node42&#45;&gt;Node44 -->
<g id="edge55" class="edge"><title>Node42&#45;&gt;Node44</title>
<path fill="none" stroke="midnightblue" d="M810.948,-316.444C843.158,-307.241 894.534,-292.562 930.142,-282.388"/>
<polygon fill="midnightblue" stroke="midnightblue" points="931.539,-285.629 940.192,-279.516 929.616,-278.898 931.539,-285.629"/>
</g>
<!-- Node45 -->
<g id="node45" class="node"><title>Node45</title>
<polygon fill="none" stroke="#bfbfbf" points="755,-260.5 755,-279.5 807,-279.5 807,-260.5 755,-260.5"/>
<text text-anchor="middle" x="781" y="-267.5" font-family="Helvetica,sans-Serif" font-size="10.00">sstream</text>
</g>
<!-- Node42&#45;&gt;Node45 -->
<g id="edge57" class="edge"><title>Node42&#45;&gt;Node45</title>
<path fill="none" stroke="midnightblue" d="M781,-316.083C781,-309.006 781,-298.861 781,-289.986"/>
<polygon fill="midnightblue" stroke="midnightblue" points="784.5,-289.751 781,-279.751 777.5,-289.751 784.5,-289.751"/>
</g>
<!-- Node46&#45;&gt;Node19 -->
<g id="edge66" class="edge"><title>Node46&#45;&gt;Node19</title>
<path fill="none" stroke="midnightblue" d="M2136.15,-192.781C2122.22,-183.286 2103.97,-170.843 2090.01,-161.327"/>
<polygon fill="midnightblue" stroke="midnightblue" points="2091.78,-158.297 2081.55,-155.556 2087.84,-164.081 2091.78,-158.297"/>
</g>
<!-- Node46&#45;&gt;Node28 -->
<g id="edge63" class="edge"><title>Node46&#45;&gt;Node28</title>
<path fill="none" stroke="midnightblue" d="M2150,-192.945C2141.71,-177.423 2126.64,-152.455 2108,-136 2088.97,-119.2 2063.43,-106.14 2043.19,-97.4432"/>
<polygon fill="midnightblue" stroke="midnightblue" points="2044.31,-94.1192 2033.73,-93.527 2041.63,-100.587 2044.31,-94.1192"/>
</g>
<!-- Node47 -->
<g id="node47" class="node"><title>Node47</title>
<polygon fill="none" stroke="#bfbfbf" points="2156,-136.5 2156,-155.5 2218,-155.5 2218,-136.5 2156,-136.5"/>
<text text-anchor="middle" x="2187" y="-143.5" font-family="Helvetica,sans-Serif" font-size="10.00">TNamed.h</text>
</g>
<!-- Node46&#45;&gt;Node47 -->
<g id="edge62" class="edge"><title>Node46&#45;&gt;Node47</title>
<path fill="none" stroke="midnightblue" d="M2164.11,-192.781C2168.29,-184.422 2173.61,-173.777 2178.07,-164.856"/>
<polygon fill="midnightblue" stroke="midnightblue" points="2181.29,-166.24 2182.63,-155.731 2175.03,-163.11 2181.29,-166.24"/>
</g>
<!-- Node48 -->
<g id="node48" class="node"><title>Node48</title>
<polygon fill="none" stroke="#bfbfbf" points="2236.5,-136.5 2236.5,-155.5 2295.5,-155.5 2295.5,-136.5 2236.5,-136.5"/>
<text text-anchor="middle" x="2266" y="-143.5" font-family="Helvetica,sans-Serif" font-size="10.00">stdexcept</text>
</g>
<!-- Node46&#45;&gt;Node48 -->
<g id="edge64" class="edge"><title>Node46&#45;&gt;Node48</title>
<path fill="none" stroke="midnightblue" d="M2182.56,-192.933C2200.29,-183.171 2223.78,-170.24 2241.32,-160.586"/>
<polygon fill="midnightblue" stroke="midnightblue" points="2243.3,-163.489 2250.38,-155.6 2239.93,-157.356 2243.3,-163.489"/>
</g>
<!-- Node49 -->
<g id="node49" class="node"><title>Node49</title>
<polygon fill="none" stroke="#bfbfbf" points="2313.5,-136.5 2313.5,-155.5 2358.5,-155.5 2358.5,-136.5 2313.5,-136.5"/>
<text text-anchor="middle" x="2336" y="-143.5" font-family="Helvetica,sans-Serif" font-size="10.00">gsl/gsl</text>
</g>
<!-- Node46&#45;&gt;Node49 -->
<g id="edge65" class="edge"><title>Node46&#45;&gt;Node49</title>
<path fill="none" stroke="midnightblue" d="M2198.97,-192.933C2230.95,-182.212 2274.34,-167.668 2303.66,-157.84"/>
<polygon fill="midnightblue" stroke="midnightblue" points="2305.03,-161.072 2313.4,-154.575 2302.81,-154.435 2305.03,-161.072"/>
</g>
<!-- Node51 -->
<g id="node51" class="node"><title>Node51</title>
<g id="a_node51"><a xlink:href="../../d7/dcd/MCCompLabel_8h.html" target="_top" xlink:title="SimulationDataFormat\l/MCCompLabel.h">
<polygon fill="none" stroke="black" points="310,-193 310,-223 424,-223 424,-193 310,-193"/>
<text text-anchor="start" x="318" y="-211" font-family="Helvetica,sans-Serif" font-size="10.00">SimulationDataFormat</text>
<text text-anchor="middle" x="367" y="-200" font-family="Helvetica,sans-Serif" font-size="10.00">/MCCompLabel.h</text>
</a>
</g>
</g>
<!-- Node50&#45;&gt;Node51 -->
<g id="edge68" class="edge"><title>Node50&#45;&gt;Node51</title>
<path fill="none" stroke="midnightblue" d="M470.582,-316.281C453.155,-298.232 412.679,-256.31 387.798,-230.541"/>
<polygon fill="midnightblue" stroke="midnightblue" points="390.084,-227.869 380.62,-223.106 385.048,-232.731 390.084,-227.869"/>
</g>
<!-- Node51&#45;&gt;Node3 -->
<g id="edge69" class="edge"><title>Node51&#45;&gt;Node3</title>
<path fill="none" stroke="midnightblue" d="M346.19,-192.879C322.512,-177.297 282.283,-152.275 245,-136 194.748,-114.064 178.592,-118.567 127,-100 124.742,-99.1875 122.42,-98.3125 120.094,-97.4079"/>
<polygon fill="midnightblue" stroke="midnightblue" points="121.252,-94.101 110.668,-93.6067 118.634,-100.593 121.252,-94.101"/>
</g>
</g>
</svg>
        <g id="navigator" transform="translate(0 0)" fill="#404254">
                <rect fill="#f2f5e9" fill-opacity="0.5" stroke="#606060" stroke-width=".5" x="0" y="0" width="60" height="60"/>
                <use id="zoomplus" xlink:href="#zoomPlus" x="17" y="9" onmousedown="handleZoom(evt,'in')"/>
                <use id="zoomminus" xlink:href="#zoomMin" x="42" y="9" onmousedown="handleZoom(evt,'out')"/>
                <use id="reset" xlink:href="#resetDef" x="30" y="36" onmousedown="handleReset()"/>
                <g id="arrowUp" xlink:href="#dirArrow" transform="translate(30 24)" onmousedown="handlePan(0,-1)">
                  <use xlink:href="#rim" fill="#404040">
                        <set attributeName="fill" to="#808080" begin="arrowUp.mouseover" end="arrowUp.mouseout"/>
                  </use>
                  <path fill="none" stroke="white" stroke-width="1.5" d="M0,-3.0v7 M-2.5,-0.5L0,-3.0L2.5,-0.5"/>
                </g>
                <g id="arrowRight" xlink:href="#dirArrow" transform="rotate(90) translate(36 -43)" onmousedown="handlePan(1,0)">
                  <use xlink:href="#rim" fill="#404040">
                        <set attributeName="fill" to="#808080" begin="arrowRight.mouseover" end="arrowRight.mouseout"/>
                  </use>
                  <path fill="none" stroke="white" stroke-width="1.5" d="M0,-3.0v7 M-2.5,-0.5L0,-3.0L2.5,-0.5"/>
                </g>
                <g id="arrowDown" xlink:href="#dirArrow" transform="rotate(180) translate(-30 -48)" onmousedown="handlePan(0,1)">
                  <use xlink:href="#rim" fill="#404040">
                        <set attributeName="fill" to="#808080" begin="arrowDown.mouseover" end="arrowDown.mouseout"/>
                  </use>
                  <path fill="none" stroke="white" stroke-width="1.5" d="M0,-3.0v7 M-2.5,-0.5L0,-3.0L2.5,-0.5"/>
                </g>
                <g id="arrowLeft" xlink:href="#dirArrow" transform="rotate(270) translate(-36 17)" onmousedown="handlePan(-1,0)">
                  <use xlink:href="#rim" fill="#404040">
                        <set attributeName="fill" to="#808080" begin="arrowLeft.mouseover" end="arrowLeft.mouseout"/>
                  </use>
                  <path fill="none" stroke="white" stroke-width="1.5" d="M0,-3.0v7 M-2.5,-0.5L0,-3.0L2.5,-0.5"/>
                </g>
        </g>
        <svg viewBox="0 0 15 15" width="100%" height="30px" preserveAspectRatio="xMaxYMin meet">
         <g id="arrow_out" transform="scale(0.3 0.3)">
          <a xlink:href="TOF_2simulation_2include_2TOFSimulation_2Digitizer_8h__incl_org.svg" target="_base">
           <rect id="button" ry="5" rx="5" y="6" x="6" height="38" width="38"
                fill="#f2f5e9" fill-opacity="0.5" stroke="#606060" stroke-width="1.0"/>
           <path id="arrow"
             d="M 11.500037,31.436501 C 11.940474,20.09759 22.043105,11.32322 32.158766,21.979434 L 37.068811,17.246167 C 37.068811,17.246167 37.088388,32 37.088388,32 L 22.160133,31.978069 C 22.160133,31.978069 26.997745,27.140456 26.997745,27.140456 C 18.528582,18.264221 13.291696,25.230495 11.500037,31.436501 z"
             style="fill:#404040;"/>
          </a>
         </g>
        </svg>
</svg>
