<?xml version="1.0" encoding="UTF-8" standalone="no"?>
<!DOCTYPE svg PUBLIC "-//W3C//DTD SVG 1.1//EN"
 "http://www.w3.org/Graphics/SVG/1.1/DTD/svg11.dtd">
<!-- Generated by graphviz version 2.36.0 (20140111.2315)
 -->
<!-- Title: o2::framework::DeviceSpec Pages: 1 -->
<!--zoomable 400 -->
<svg id="main" version="1.1" xmlns="http://www.w3.org/2000/svg" xmlns:xlink="http://www.w3.org/1999/xlink" xml:space="preserve" onload="init(evt)">
<style type="text/css"><![CDATA[
.edge:hover path { stroke: red; }
.edge:hover polygon { stroke: red; fill: red; }
]]></style>
<script type="text/javascript"><![CDATA[
var edges = document.getElementsByTagName('g');
if (edges && edges.length) {
  for (var i=0;i<edges.length;i++) {
    if (edges[i].id.substr(0,4)=='edge') {
      edges[i].setAttribute('class','edge');
    }
  }
}
]]></script>
        <defs>
                <circle id="rim" cx="0" cy="0" r="7"/>
                <circle id="rim2" cx="0" cy="0" r="3.5"/>
                <g id="zoomPlus">
                        <use xlink:href="#rim" fill="#404040">
                                <set attributeName="fill" to="#808080" begin="zoomplus.mouseover" end="zoomplus.mouseout"/>
                        </use>
                        <path d="M-4,0h8M0,-4v8" fill="none" stroke="white" stroke-width="1.5" pointer-events="none"/>
                </g>
                <g id="zoomMin">
                        <use xlink:href="#rim" fill="#404040">
                                <set attributeName="fill" to="#808080" begin="zoomminus.mouseover" end="zoomminus.mouseout"/>
                        </use>
                        <path d="M-4,0h8" fill="none" stroke="white" stroke-width="1.5" pointer-events="none"/>
                </g>
                <g id="dirArrow">
                        <path fill="none" stroke="white" stroke-width="1.5" d="M0,-3.0v7 M-2.5,-0.5L0,-3.0L2.5,-0.5"/>
                </g>
               <g id="resetDef">
                       <use xlink:href="#rim2" fill="#404040">
                               <set attributeName="fill" to="#808080" begin="reset.mouseover" end="reset.mouseout"/>
                       </use>
               </g>
        </defs>

<script type="text/javascript">
var viewWidth = 1357;
var viewHeight = 400;
var sectionId = 'dynsection-0';
</script>
<script xlink:href="../../svgpan.js"/>
<svg id="graph" class="graph">
<g id="viewport">
<title>o2::framework::DeviceSpec</title>
<!-- Node1 -->
<g id="node1" class="node"><title>Node1</title>
<polygon fill="#bfbfbf" stroke="black" points="495,-0.5 495,-57.5 633,-57.5 633,-0.5 495,-0.5"/>
<text text-anchor="middle" x="564" y="-45.5" font-family="Helvetica,sans-Serif" font-size="10.00">o2::framework::DeviceSpec</text>
<polyline fill="none" stroke="black" points="495,-38.5 633,-38.5 "/>
<text text-anchor="middle" x="564" y="-26.5" font-family="Helvetica,sans-Serif" font-size="10.00"> </text>
<polyline fill="none" stroke="black" points="495,-19.5 633,-19.5 "/>
<text text-anchor="middle" x="564" y="-7.5" font-family="Helvetica,sans-Serif" font-size="10.00"> </text>
</g>
<!-- Node2 -->
<g id="node2" class="node"><title>Node2</title>
<polygon fill="none" stroke="#bfbfbf" points="-0.5,-162 -0.5,-230 114.5,-230 114.5,-162 -0.5,-162"/>
<text text-anchor="start" x="7.5" y="-218" font-family="Helvetica,sans-Serif" font-size="10.00">vector&lt; o2::framework</text>
<text text-anchor="middle" x="57" y="-207" font-family="Helvetica,sans-Serif" font-size="10.00">::InputRoute &gt;</text>
<polyline fill="none" stroke="#bfbfbf" points="-0.5,-200 114.5,-200 "/>
<text text-anchor="middle" x="57" y="-188" font-family="Helvetica,sans-Serif" font-size="10.00"> </text>
<polyline fill="none" stroke="#bfbfbf" points="-0.5,-181 114.5,-181 "/>
<text text-anchor="middle" x="57" y="-169" font-family="Helvetica,sans-Serif" font-size="10.00"> </text>
</g>
<!-- Node2&#45;&gt;Node1 -->
<g id="edge1" class="edge"><title>Node2&#45;&gt;Node1</title>
<path fill="none" stroke="#404040" d="M86.3511,-161.919C97.2801,-150.515 110.16,-138.086 123,-128 158.425,-100.174 167.442,-90.7664 210,-76 299.942,-44.7929 409.406,-34.4747 482.579,-31.213"/>
<polygon fill="none" stroke="#404040" points="482.913,-31.1996 488.747,-26.9606 494.904,-30.7151 489.07,-34.9541 482.913,-31.1996"/>
<text text-anchor="middle" x="228" y="-90.5" font-family="Helvetica,sans-Serif" font-size="10.00"> +inputs</text>
</g>
<!-- Node3 -->
<g id="node3" class="node"><title>Node3</title>
<polygon fill="none" stroke="#bfbfbf" points="132.5,-162 132.5,-230 247.5,-230 247.5,-162 132.5,-162"/>
<text text-anchor="start" x="140.5" y="-218" font-family="Helvetica,sans-Serif" font-size="10.00">vector&lt; o2::framework</text>
<text text-anchor="middle" x="190" y="-207" font-family="Helvetica,sans-Serif" font-size="10.00">::ConfigParamSpec &gt;</text>
<polyline fill="none" stroke="#bfbfbf" points="132.5,-200 247.5,-200 "/>
<text text-anchor="middle" x="190" y="-188" font-family="Helvetica,sans-Serif" font-size="10.00"> </text>
<polyline fill="none" stroke="#bfbfbf" points="132.5,-181 247.5,-181 "/>
<text text-anchor="middle" x="190" y="-169" font-family="Helvetica,sans-Serif" font-size="10.00"> </text>
</g>
<!-- Node3&#45;&gt;Node1 -->
<g id="edge2" class="edge"><title>Node3&#45;&gt;Node1</title>
<path fill="none" stroke="#404040" d="M208.372,-161.838C225.503,-134.231 253.694,-96.2767 289,-76 321.224,-57.4939 413.708,-44.6399 482.582,-37.3149"/>
<polygon fill="none" stroke="#404040" points="482.779,-37.2945 488.334,-32.6963 494.715,-36.0552 489.16,-40.6535 482.779,-37.2945"/>
<text text-anchor="middle" x="309.5" y="-90.5" font-family="Helvetica,sans-Serif" font-size="10.00"> +options</text>
</g>
<!-- Node4 -->
<g id="node4" class="node"><title>Node4</title>
<polygon fill="none" stroke="#bfbfbf" points="265.5,-167.5 265.5,-224.5 370.5,-224.5 370.5,-167.5 265.5,-167.5"/>
<text text-anchor="middle" x="318" y="-212.5" font-family="Helvetica,sans-Serif" font-size="10.00">vector&lt; std::string &gt;</text>
<polyline fill="none" stroke="#bfbfbf" points="265.5,-205.5 370.5,-205.5 "/>
<text text-anchor="middle" x="318" y="-193.5" font-family="Helvetica,sans-Serif" font-size="10.00"> </text>
<polyline fill="none" stroke="#bfbfbf" points="265.5,-186.5 370.5,-186.5 "/>
<text text-anchor="middle" x="318" y="-174.5" font-family="Helvetica,sans-Serif" font-size="10.00"> </text>
</g>
<!-- Node4&#45;&gt;Node1 -->
<g id="edge3" class="edge"><title>Node4&#45;&gt;Node1</title>
<path fill="none" stroke="#404040" d="M319.184,-167.47C321.879,-140.281 330.287,-99.4626 356,-76 374.676,-58.9579 432.735,-46.9982 482.781,-39.5533"/>
<polygon fill="none" stroke="#404040" points="483.093,-39.5088 488.463,-34.6968 494.971,-37.8036 489.6,-42.6156 483.093,-39.5088"/>
<text text-anchor="middle" x="383.5" y="-90.5" font-family="Helvetica,sans-Serif" font-size="10.00"> +arguments</text>
</g>
<!-- Node5 -->
<g id="node5" class="node"><title>Node5</title>
<polygon fill="none" stroke="#bfbfbf" points="388.5,-167.5 388.5,-224.5 423.5,-224.5 423.5,-167.5 388.5,-167.5"/>
<text text-anchor="middle" x="406" y="-212.5" font-family="Helvetica,sans-Serif" font-size="10.00">char</text>
<polyline fill="none" stroke="#bfbfbf" points="388.5,-205.5 423.5,-205.5 "/>
<text text-anchor="middle" x="406" y="-193.5" font-family="Helvetica,sans-Serif" font-size="10.00"> </text>
<polyline fill="none" stroke="#bfbfbf" points="388.5,-186.5 423.5,-186.5 "/>
<text text-anchor="middle" x="406" y="-174.5" font-family="Helvetica,sans-Serif" font-size="10.00"> </text>
</g>
<!-- Node5&#45;&gt;Node1 -->
<g id="edge4" class="edge"><title>Node5&#45;&gt;Node1</title>
<path fill="none" stroke="#404040" d="M404.766,-167.279C405.097,-140.722 409.766,-101.082 432,-76 445.461,-60.8146 464.212,-50.6416 483.361,-43.8267"/>
<polygon fill="none" stroke="#404040" points="483.542,-43.7686 488.03,-38.1244 494.966,-40.0964 490.478,-45.7406 483.542,-43.7686"/>
<text text-anchor="middle" x="447.5" y="-96" font-family="Helvetica,sans-Serif" font-size="10.00"> +id</text>
<text text-anchor="middle" x="447.5" y="-85" font-family="Helvetica,sans-Serif" font-size="10.00">+name</text>
</g>
<!-- Node6 -->
<g id="node6" class="node"><title>Node6</title>
<g id="a_node6"><a xlink:href="../../dd/de2/classsize__t.html" target="_top" xlink:title="{size_t\n||}">
<polygon fill="none" stroke="black" points="441.5,-167.5 441.5,-224.5 484.5,-224.5 484.5,-167.5 441.5,-167.5"/>
<text text-anchor="middle" x="463" y="-212.5" font-family="Helvetica,sans-Serif" font-size="10.00">size_t</text>
<polyline fill="none" stroke="black" points="441.5,-205.5 484.5,-205.5 "/>
<text text-anchor="middle" x="463" y="-193.5" font-family="Helvetica,sans-Serif" font-size="10.00"> </text>
<polyline fill="none" stroke="black" points="441.5,-186.5 484.5,-186.5 "/>
<text text-anchor="middle" x="463" y="-174.5" font-family="Helvetica,sans-Serif" font-size="10.00"> </text>
</a>
</g>
</g>
<!-- Node6&#45;&gt;Node1 -->
<g id="edge5" class="edge"><title>Node6&#45;&gt;Node1</title>
<path fill="none" stroke="#404040" d="M460.593,-167.46C459.749,-141.591 462.277,-102.937 481,-76 483.598,-72.2629 486.601,-68.7968 489.893,-65.5865"/>
<polygon fill="none" stroke="#404040" points="490.055,-65.4489 492.035,-58.515 499.197,-57.6763 497.217,-64.6102 490.055,-65.4489"/>
<text text-anchor="middle" x="520" y="-101.5" font-family="Helvetica,sans-Serif" font-size="10.00"> +rank</text>
<text text-anchor="middle" x="520" y="-90.5" font-family="Helvetica,sans-Serif" font-size="10.00">+nSlots</text>
<text text-anchor="middle" x="520" y="-79.5" font-family="Helvetica,sans-Serif" font-size="10.00">+inputTimesliceId</text>
</g>
<!-- Node7 -->
<g id="node7" class="node"><title>Node7</title>
<polygon fill="none" stroke="#bfbfbf" points="502.5,-162 502.5,-230 617.5,-230 617.5,-162 502.5,-162"/>
<text text-anchor="start" x="510.5" y="-218" font-family="Helvetica,sans-Serif" font-size="10.00">vector&lt; o2::framework</text>
<text text-anchor="middle" x="560" y="-207" font-family="Helvetica,sans-Serif" font-size="10.00">::OutputRoute &gt;</text>
<polyline fill="none" stroke="#bfbfbf" points="502.5,-200 617.5,-200 "/>
<text text-anchor="middle" x="560" y="-188" font-family="Helvetica,sans-Serif" font-size="10.00"> </text>
<polyline fill="none" stroke="#bfbfbf" points="502.5,-181 617.5,-181 "/>
<text text-anchor="middle" x="560" y="-169" font-family="Helvetica,sans-Serif" font-size="10.00"> </text>
</g>
<!-- Node7&#45;&gt;Node1 -->
<g id="edge6" class="edge"><title>Node7&#45;&gt;Node1</title>
<path fill="none" stroke="#404040" d="M560.809,-161.61C561.453,-135.07 562.355,-97.8699 563.035,-69.7872"/>
<polygon fill="none" stroke="#404040" points="563.04,-69.5934 559.187,-63.4982 563.331,-57.597 567.184,-63.6922 563.04,-69.5934"/>
<text text-anchor="middle" x="584" y="-90.5" font-family="Helvetica,sans-Serif" font-size="10.00"> +outputs</text>
</g>
<!-- Node8 -->
<g id="node8" class="node"><title>Node8</title>
<polygon fill="none" stroke="#bfbfbf" points="635.5,-162 635.5,-230 750.5,-230 750.5,-162 635.5,-162"/>
<text text-anchor="start" x="643.5" y="-218" font-family="Helvetica,sans-Serif" font-size="10.00">vector&lt; o2::framework</text>
<text text-anchor="middle" x="693" y="-207" font-family="Helvetica,sans-Serif" font-size="10.00">::ForwardRoute &gt;</text>
<polyline fill="none" stroke="#bfbfbf" points="635.5,-200 750.5,-200 "/>
<text text-anchor="middle" x="693" y="-188" font-family="Helvetica,sans-Serif" font-size="10.00"> </text>
<polyline fill="none" stroke="#bfbfbf" points="635.5,-181 750.5,-181 "/>
<text text-anchor="middle" x="693" y="-169" font-family="Helvetica,sans-Serif" font-size="10.00"> </text>
</g>
<!-- Node8&#45;&gt;Node1 -->
<g id="edge7" class="edge"><title>Node8&#45;&gt;Node1</title>
<path fill="none" stroke="#404040" d="M671.707,-161.895C655.479,-137.424 632.064,-103.688 609,-76 606.345,-72.8132 603.514,-69.5833 600.614,-66.3898"/>
<polygon fill="none" stroke="#404040" points="600.544,-66.3146 593.523,-64.6664 592.345,-57.5522 599.365,-59.2004 600.544,-66.3146"/>
<text text-anchor="middle" x="657.5" y="-90.5" font-family="Helvetica,sans-Serif" font-size="10.00"> +forwards</text>
</g>
<!-- Node9 -->
<g id="node9" class="node"><title>Node9</title>
<g id="a_node9"><a xlink:href="../../d6/d43/structo2_1_1framework_1_1CompletionPolicy.html" target="_top" xlink:title="{o2::framework::Completion\lPolicy\n||+ createDefaultPolicies()\l}">
<polygon fill="none" stroke="black" points="769,-162 769,-230 903,-230 903,-162 769,-162"/>
<text text-anchor="start" x="777" y="-218" font-family="Helvetica,sans-Serif" font-size="10.00">o2::framework::Completion</text>
<text text-anchor="middle" x="836" y="-207" font-family="Helvetica,sans-Serif" font-size="10.00">Policy</text>
<polyline fill="none" stroke="black" points="769,-200 903,-200 "/>
<text text-anchor="middle" x="836" y="-188" font-family="Helvetica,sans-Serif" font-size="10.00"> </text>
<polyline fill="none" stroke="black" points="769,-181 903,-181 "/>
<text text-anchor="start" x="777" y="-169" font-family="Helvetica,sans-Serif" font-size="10.00">+ createDefaultPolicies()</text>
</a>
</g>
</g>
<!-- Node9&#45;&gt;Node1 -->
<g id="edge8" class="edge"><title>Node9&#45;&gt;Node1</title>
<path fill="none" stroke="#404040" d="M799.449,-161.832C786.866,-150.783 772.533,-138.597 759,-128 727.351,-103.218 720.507,-94.8438 685,-76 672.283,-69.2508 658.353,-62.9989 644.614,-57.418"/>
<polygon fill="none" stroke="#404040" points="644.311,-57.2983 637.261,-58.8155 633.149,-52.8917 640.199,-51.3744 644.311,-57.2983"/>
<text text-anchor="middle" x="778" y="-90.5" font-family="Helvetica,sans-Serif" font-size="10.00"> +completionPolicy</text>
</g>
<!-- Node10 -->
<g id="node10" class="node"><title>Node10</title>
<polygon fill="none" stroke="#bfbfbf" points="546.5,-312.5 546.5,-391.5 675.5,-391.5 675.5,-312.5 546.5,-312.5"/>
<text text-anchor="start" x="554.5" y="-379.5" font-family="Helvetica,sans-Serif" font-size="10.00">function&lt; CompletionOp</text>
<text text-anchor="start" x="554.5" y="-368.5" font-family="Helvetica,sans-Serif" font-size="10.00">(gsl::span&lt; PartRef const</text>
<text text-anchor="middle" x="611" y="-357.5" font-family="Helvetica,sans-Serif" font-size="10.00"> &gt; const &amp;)&gt;</text>
<polyline fill="none" stroke="#bfbfbf" points="546.5,-350.5 675.5,-350.5 "/>
<text text-anchor="middle" x="611" y="-338.5" font-family="Helvetica,sans-Serif" font-size="10.00"> </text>
<polyline fill="none" stroke="#bfbfbf" points="546.5,-331.5 675.5,-331.5 "/>
<text text-anchor="middle" x="611" y="-319.5" font-family="Helvetica,sans-Serif" font-size="10.00"> </text>
</g>
<!-- Node10&#45;&gt;Node9 -->
<g id="edge9" class="edge"><title>Node10&#45;&gt;Node9</title>
<path fill="none" stroke="#404040" d="M675.637,-316.448C702.167,-301.394 732.751,-282.888 759,-264 769.902,-256.155 781.099,-247.082 791.459,-238.196"/>
<polygon fill="none" stroke="#404040" points="791.664,-238.017 793.556,-231.059 800.707,-230.128 798.815,-237.087 791.664,-238.017"/>
<text text-anchor="middle" x="755" y="-285.5" font-family="Helvetica,sans-Serif" font-size="10.00"> +callback</text>
</g>
<!-- Node11 -->
<g id="node11" class="node"><title>Node11</title>
<polygon fill="none" stroke="#bfbfbf" points="694,-318 694,-386 828,-386 828,-318 694,-318"/>
<text text-anchor="start" x="702" y="-374" font-family="Helvetica,sans-Serif" font-size="10.00">function&lt; bool(DeviceSpec</text>
<text text-anchor="middle" x="761" y="-363" font-family="Helvetica,sans-Serif" font-size="10.00"> const &amp;device)&gt;</text>
<polyline fill="none" stroke="#bfbfbf" points="694,-356 828,-356 "/>
<text text-anchor="middle" x="761" y="-344" font-family="Helvetica,sans-Serif" font-size="10.00"> </text>
<polyline fill="none" stroke="#bfbfbf" points="694,-337 828,-337 "/>
<text text-anchor="middle" x="761" y="-325" font-family="Helvetica,sans-Serif" font-size="10.00"> </text>
</g>
<!-- Node11&#45;&gt;Node9 -->
<g id="edge10" class="edge"><title>Node11&#45;&gt;Node9</title>
<path fill="none" stroke="#404040" d="M777.089,-317.963C788.026,-295.507 802.616,-265.549 814.54,-241.065"/>
<polygon fill="none" stroke="#404040" points="814.554,-241.036 813.585,-233.89 819.808,-230.248 820.777,-237.393 814.554,-241.036"/>
<text text-anchor="middle" x="817.5" y="-285.5" font-family="Helvetica,sans-Serif" font-size="10.00"> +matcher</text>
</g>
<!-- Node12 -->
<g id="node12" class="node"><title>Node12</title>
<polygon fill="none" stroke="#bfbfbf" points="846.5,-323.5 846.5,-380.5 875.5,-380.5 875.5,-323.5 846.5,-323.5"/>
<text text-anchor="middle" x="861" y="-368.5" font-family="Helvetica,sans-Serif" font-size="10.00">int</text>
<polyline fill="none" stroke="#bfbfbf" points="846.5,-361.5 875.5,-361.5 "/>
<text text-anchor="middle" x="861" y="-349.5" font-family="Helvetica,sans-Serif" font-size="10.00"> </text>
<polyline fill="none" stroke="#bfbfbf" points="846.5,-342.5 875.5,-342.5 "/>
<text text-anchor="middle" x="861" y="-330.5" font-family="Helvetica,sans-Serif" font-size="10.00"> </text>
</g>
<!-- Node12&#45;&gt;Node9 -->
<g id="edge11" class="edge"><title>Node12&#45;&gt;Node9</title>
<path fill="none" stroke="#404040" d="M856.531,-323.468C852.869,-300.912 847.613,-268.536 843.336,-242.189"/>
<polygon fill="none" stroke="#404040" points="843.311,-242.033 838.401,-236.751 841.388,-230.188 846.297,-235.469 843.311,-242.033"/>
<text text-anchor="middle" x="869" y="-285.5" font-family="Helvetica,sans-Serif" font-size="10.00"> +name</text>
</g>
<!-- Node13 -->
<g id="node13" class="node"><title>Node13</title>
<g id="a_node13"><a xlink:href="../../d4/d5e/structo2_1_1framework_1_1AlgorithmSpec.html" target="_top" xlink:title="{o2::framework::AlgorithmSpec\n||+ AlgorithmSpec()\l+ AlgorithmSpec()\l+ AlgorithmSpec()\l+ AlgorithmSpec()\l+ operator=()\l+ AlgorithmSpec()\l+ AlgorithmSpec()\l+ emptyErrorCallback()\l}">
<polygon fill="none" stroke="black" points="921.5,-129 921.5,-263 1070.5,-263 1070.5,-129 921.5,-129"/>
<text text-anchor="middle" x="996" y="-251" font-family="Helvetica,sans-Serif" font-size="10.00">o2::framework::AlgorithmSpec</text>
<polyline fill="none" stroke="black" points="921.5,-244 1070.5,-244 "/>
<text text-anchor="middle" x="996" y="-232" font-family="Helvetica,sans-Serif" font-size="10.00"> </text>
<polyline fill="none" stroke="black" points="921.5,-225 1070.5,-225 "/>
<text text-anchor="start" x="929.5" y="-213" font-family="Helvetica,sans-Serif" font-size="10.00">+ AlgorithmSpec()</text>
<text text-anchor="start" x="929.5" y="-202" font-family="Helvetica,sans-Serif" font-size="10.00">+ AlgorithmSpec()</text>
<text text-anchor="start" x="929.5" y="-191" font-family="Helvetica,sans-Serif" font-size="10.00">+ AlgorithmSpec()</text>
<text text-anchor="start" x="929.5" y="-180" font-family="Helvetica,sans-Serif" font-size="10.00">+ AlgorithmSpec()</text>
<text text-anchor="start" x="929.5" y="-169" font-family="Helvetica,sans-Serif" font-size="10.00">+ operator=()</text>
<text text-anchor="start" x="929.5" y="-158" font-family="Helvetica,sans-Serif" font-size="10.00">+ AlgorithmSpec()</text>
<text text-anchor="start" x="929.5" y="-147" font-family="Helvetica,sans-Serif" font-size="10.00">+ AlgorithmSpec()</text>
<text text-anchor="start" x="929.5" y="-136" font-family="Helvetica,sans-Serif" font-size="10.00">+ emptyErrorCallback()</text>
</a>
</g>
</g>
<!-- Node13&#45;&gt;Node1 -->
<g id="edge12" class="edge"><title>Node13&#45;&gt;Node1</title>
<path fill="none" stroke="#404040" d="M921.29,-134.561C918.176,-132.313 915.072,-130.117 912,-128 874.596,-102.218 866.606,-91.7656 824,-76 766.29,-54.6452 697.612,-43.0377 645.337,-36.8269"/>
<polygon fill="none" stroke="#404040" points="645.018,-36.7907 638.605,-40.0873 633.095,-35.435 639.509,-32.1385 645.018,-36.7907"/>
<text text-anchor="middle" x="911.5" y="-90.5" font-family="Helvetica,sans-Serif" font-size="10.00"> +algorithm</text>
</g>
<!-- Node14 -->
<g id="node14" class="node"><title>Node14</title>
<polygon fill="none" stroke="#bfbfbf" points="893.5,-323.5 893.5,-380.5 1048.5,-380.5 1048.5,-323.5 893.5,-323.5"/>
<text text-anchor="middle" x="971" y="-368.5" font-family="Helvetica,sans-Serif" font-size="10.00">function&lt; void(ErrorContext &amp;)&gt;</text>
<polyline fill="none" stroke="#bfbfbf" points="893.5,-361.5 1048.5,-361.5 "/>
<text text-anchor="middle" x="971" y="-349.5" font-family="Helvetica,sans-Serif" font-size="10.00"> </text>
<polyline fill="none" stroke="#bfbfbf" points="893.5,-342.5 1048.5,-342.5 "/>
<text text-anchor="middle" x="971" y="-330.5" font-family="Helvetica,sans-Serif" font-size="10.00"> </text>
</g>
<!-- Node14&#45;&gt;Node13 -->
<g id="edge13" class="edge"><title>Node14&#45;&gt;Node13</title>
<path fill="none" stroke="#404040" d="M975.469,-323.468C977.695,-309.761 980.509,-292.426 983.334,-275.022"/>
<polygon fill="none" stroke="#404040" points="983.362,-274.851 980.375,-268.288 985.285,-263.006 988.272,-269.57 983.362,-274.851"/>
<text text-anchor="middle" x="1003.5" y="-285.5" font-family="Helvetica,sans-Serif" font-size="10.00"> +onError</text>
</g>
<!-- Node15 -->
<g id="node15" class="node"><title>Node15</title>
<polygon fill="none" stroke="#bfbfbf" points="1067,-318 1067,-386 1197,-386 1197,-318 1067,-318"/>
<text text-anchor="start" x="1075" y="-374" font-family="Helvetica,sans-Serif" font-size="10.00">function&lt; void(Processing</text>
<text text-anchor="middle" x="1132" y="-363" font-family="Helvetica,sans-Serif" font-size="10.00">Context &amp;)&gt;</text>
<polyline fill="none" stroke="#bfbfbf" points="1067,-356 1197,-356 "/>
<text text-anchor="middle" x="1132" y="-344" font-family="Helvetica,sans-Serif" font-size="10.00"> </text>
<polyline fill="none" stroke="#bfbfbf" points="1067,-337 1197,-337 "/>
<text text-anchor="middle" x="1132" y="-325" font-family="Helvetica,sans-Serif" font-size="10.00"> </text>
</g>
<!-- Node15&#45;&gt;Node13 -->
<g id="edge14" class="edge"><title>Node15&#45;&gt;Node13</title>
<path fill="none" stroke="#404040" d="M1102.82,-317.963C1091.02,-304.591 1076.86,-288.558 1062.77,-272.606"/>
<polygon fill="none" stroke="#404040" points="1062.44,-272.238 1055.47,-270.388 1054.5,-263.243 1061.47,-265.092 1062.44,-272.238"/>
<text text-anchor="middle" x="1109" y="-285.5" font-family="Helvetica,sans-Serif" font-size="10.00"> +onProcess</text>
</g>
<!-- Node16 -->
<g id="node16" class="node"><title>Node16</title>
<polygon fill="none" stroke="#bfbfbf" points="1215,-318 1215,-386 1349,-386 1349,-318 1215,-318"/>
<text text-anchor="start" x="1223" y="-374" font-family="Helvetica,sans-Serif" font-size="10.00">function&lt; ProcessCallback</text>
<text text-anchor="middle" x="1282" y="-363" font-family="Helvetica,sans-Serif" font-size="10.00">(InitContext &amp;)&gt;</text>
<polyline fill="none" stroke="#bfbfbf" points="1215,-356 1349,-356 "/>
<text text-anchor="middle" x="1282" y="-344" font-family="Helvetica,sans-Serif" font-size="10.00"> </text>
<polyline fill="none" stroke="#bfbfbf" points="1215,-337 1349,-337 "/>
<text text-anchor="middle" x="1282" y="-325" font-family="Helvetica,sans-Serif" font-size="10.00"> </text>
</g>
<!-- Node16&#45;&gt;Node13 -->
<g id="edge15" class="edge"><title>Node16&#45;&gt;Node13</title>
<path fill="none" stroke="#404040" d="M1217.83,-317.83C1213.83,-315.84 1209.87,-313.883 1206,-312 1177.4,-298.067 1170.81,-293.133 1141,-282 1117.27,-273.136 1106.94,-276.237 1081.6,-264.752"/>
<polygon fill="none" stroke="#404040" points="1081.41,-264.658 1074.26,-265.588 1070.65,-259.345 1077.8,-258.415 1081.41,-264.658"/>
<text text-anchor="middle" x="1187" y="-285.5" font-family="Helvetica,sans-Serif" font-size="10.00"> +onInit</text>
</g>
<!-- Node17 -->
<g id="node17" class="node"><title>Node17</title>
<polygon fill="none" stroke="#bfbfbf" points="1088.5,-162 1088.5,-230 1207.5,-230 1207.5,-162 1088.5,-162"/>
<text text-anchor="start" x="1096.5" y="-218" font-family="Helvetica,sans-Serif" font-size="10.00">vector&lt; o2::framework</text>
<text text-anchor="middle" x="1148" y="-207" font-family="Helvetica,sans-Serif" font-size="10.00">::OutputChannelSpec &gt;</text>
<polyline fill="none" stroke="#bfbfbf" points="1088.5,-200 1207.5,-200 "/>
<text text-anchor="middle" x="1148" y="-188" font-family="Helvetica,sans-Serif" font-size="10.00"> </text>
<polyline fill="none" stroke="#bfbfbf" points="1088.5,-181 1207.5,-181 "/>
<text text-anchor="middle" x="1148" y="-169" font-family="Helvetica,sans-Serif" font-size="10.00"> </text>
</g>
<!-- Node17&#45;&gt;Node1 -->
<g id="edge16" class="edge"><title>Node17&#45;&gt;Node1</title>
<path fill="none" stroke="#404040" d="M1119.09,-161.667C1107.54,-149.841 1093.53,-137.199 1079,-128 1023.27,-92.7213 1004.07,-91.6696 940,-76 840.305,-51.6179 722.427,-39.8681 645.586,-34.4102"/>
<polygon fill="none" stroke="#404040" points="645.116,-34.378 638.857,-37.9576 633.145,-33.556 639.405,-29.9764 645.116,-34.378"/>
<text text-anchor="middle" x="1086" y="-90.5" font-family="Helvetica,sans-Serif" font-size="10.00"> +outputChannels</text>
</g>
<!-- Node18 -->
<g id="node18" class="node"><title>Node18</title>
<polygon fill="none" stroke="#bfbfbf" points="1225.5,-162 1225.5,-230 1340.5,-230 1340.5,-162 1225.5,-162"/>
<text text-anchor="start" x="1233.5" y="-218" font-family="Helvetica,sans-Serif" font-size="10.00">vector&lt; o2::framework</text>
<text text-anchor="middle" x="1283" y="-207" font-family="Helvetica,sans-Serif" font-size="10.00">::InputChannelSpec &gt;</text>
<polyline fill="none" stroke="#bfbfbf" points="1225.5,-200 1340.5,-200 "/>
<text text-anchor="middle" x="1283" y="-188" font-family="Helvetica,sans-Serif" font-size="10.00"> </text>
<polyline fill="none" stroke="#bfbfbf" points="1225.5,-181 1340.5,-181 "/>
<text text-anchor="middle" x="1283" y="-169" font-family="Helvetica,sans-Serif" font-size="10.00"> </text>
</g>
<!-- Node18&#45;&gt;Node1 -->
<g id="edge17" class="edge"><title>Node18&#45;&gt;Node1</title>
<path fill="none" stroke="#404040" d="M1253.57,-161.79C1225.11,-132.49 1179.04,-92.0271 1129,-76 1041.24,-47.8889 779.508,-36.2895 645.313,-32.0876"/>
<polygon fill="none" stroke="#404040" points="645.121,-32.0819 639.002,-35.8968 633.127,-31.7155 639.246,-27.9005 645.121,-32.0819"/>
<text text-anchor="middle" x="1227" y="-90.5" font-family="Helvetica,sans-Serif" font-size="10.00"> +inputChannels</text>
</g>
</g>
</svg>
        <g id="navigator" transform="translate(0 0)" fill="#404254">
                <rect fill="#f2f5e9" fill-opacity="0.5" stroke="#606060" stroke-width=".5" x="0" y="0" width="60" height="60"/>
                <use id="zoomplus" xlink:href="#zoomPlus" x="17" y="9" onmousedown="handleZoom(evt,'in')"/>
                <use id="zoomminus" xlink:href="#zoomMin" x="42" y="9" onmousedown="handleZoom(evt,'out')"/>
                <use id="reset" xlink:href="#resetDef" x="30" y="36" onmousedown="handleReset()"/>
                <g id="arrowUp" xlink:href="#dirArrow" transform="translate(30 24)" onmousedown="handlePan(0,-1)">
                  <use xlink:href="#rim" fill="#404040">
                        <set attributeName="fill" to="#808080" begin="arrowUp.mouseover" end="arrowUp.mouseout"/>
                  </use>
                  <path fill="none" stroke="white" stroke-width="1.5" d="M0,-3.0v7 M-2.5,-0.5L0,-3.0L2.5,-0.5"/>
                </g>
                <g id="arrowRight" xlink:href="#dirArrow" transform="rotate(90) translate(36 -43)" onmousedown="handlePan(1,0)">
                  <use xlink:href="#rim" fill="#404040">
                        <set attributeName="fill" to="#808080" begin="arrowRight.mouseover" end="arrowRight.mouseout"/>
                  </use>
                  <path fill="none" stroke="white" stroke-width="1.5" d="M0,-3.0v7 M-2.5,-0.5L0,-3.0L2.5,-0.5"/>
                </g>
                <g id="arrowDown" xlink:href="#dirArrow" transform="rotate(180) translate(-30 -48)" onmousedown="handlePan(0,1)">
                  <use xlink:href="#rim" fill="#404040">
                        <set attributeName="fill" to="#808080" begin="arrowDown.mouseover" end="arrowDown.mouseout"/>
                  </use>
                  <path fill="none" stroke="white" stroke-width="1.5" d="M0,-3.0v7 M-2.5,-0.5L0,-3.0L2.5,-0.5"/>
                </g>
                <g id="arrowLeft" xlink:href="#dirArrow" transform="rotate(270) translate(-36 17)" onmousedown="handlePan(-1,0)">
                  <use xlink:href="#rim" fill="#404040">
                        <set attributeName="fill" to="#808080" begin="arrowLeft.mouseover" end="arrowLeft.mouseout"/>
                  </use>
                  <path fill="none" stroke="white" stroke-width="1.5" d="M0,-3.0v7 M-2.5,-0.5L0,-3.0L2.5,-0.5"/>
                </g>
        </g>
        <svg viewBox="0 0 15 15" width="100%" height="30px" preserveAspectRatio="xMaxYMin meet">
         <g id="arrow_out" transform="scale(0.3 0.3)">
          <a xlink:href="structo2_1_1framework_1_1DeviceSpec__coll__graph_org.svg" target="_base">
           <rect id="button" ry="5" rx="5" y="6" x="6" height="38" width="38"
                fill="#f2f5e9" fill-opacity="0.5" stroke="#606060" stroke-width="1.0"/>
           <path id="arrow"
             d="M 11.500037,31.436501 C 11.940474,20.09759 22.043105,11.32322 32.158766,21.979434 L 37.068811,17.246167 C 37.068811,17.246167 37.088388,32 37.088388,32 L 22.160133,31.978069 C 22.160133,31.978069 26.997745,27.140456 26.997745,27.140456 C 18.528582,18.264221 13.291696,25.230495 11.500037,31.436501 z"
             style="fill:#404040;"/>
          </a>
         </g>
        </svg>
</svg>
