<?xml version="1.0" encoding="UTF-8" standalone="no"?>
<!DOCTYPE svg PUBLIC "-//W3C//DTD SVG 1.1//EN"
 "http://www.w3.org/Graphics/SVG/1.1/DTD/svg11.dtd">
<!-- Generated by graphviz version 2.36.0 (20140111.2315)
 -->
<!-- Title: /home/travis/build/AliceO2Group/AliceO2/Detectors/PHOS/testsimulation/plot_clu_phos.C Pages: 1 -->
<!--zoomable 514 -->
<svg id="main" version="1.1" xmlns="http://www.w3.org/2000/svg" xmlns:xlink="http://www.w3.org/1999/xlink" xml:space="preserve" onload="init(evt)">
<style type="text/css"><![CDATA[
.edge:hover path { stroke: red; }
.edge:hover polygon { stroke: red; fill: red; }
]]></style>
<script type="text/javascript"><![CDATA[
var edges = document.getElementsByTagName('g');
if (edges && edges.length) {
  for (var i=0;i<edges.length;i++) {
    if (edges[i].id.substr(0,4)=='edge') {
      edges[i].setAttribute('class','edge');
    }
  }
}
]]></script>
        <defs>
                <circle id="rim" cx="0" cy="0" r="7"/>
                <circle id="rim2" cx="0" cy="0" r="3.5"/>
                <g id="zoomPlus">
                        <use xlink:href="#rim" fill="#404040">
                                <set attributeName="fill" to="#808080" begin="zoomplus.mouseover" end="zoomplus.mouseout"/>
                        </use>
                        <path d="M-4,0h8M0,-4v8" fill="none" stroke="white" stroke-width="1.5" pointer-events="none"/>
                </g>
                <g id="zoomMin">
                        <use xlink:href="#rim" fill="#404040">
                                <set attributeName="fill" to="#808080" begin="zoomminus.mouseover" end="zoomminus.mouseout"/>
                        </use>
                        <path d="M-4,0h8" fill="none" stroke="white" stroke-width="1.5" pointer-events="none"/>
                </g>
                <g id="dirArrow">
                        <path fill="none" stroke="white" stroke-width="1.5" d="M0,-3.0v7 M-2.5,-0.5L0,-3.0L2.5,-0.5"/>
                </g>
               <g id="resetDef">
                       <use xlink:href="#rim2" fill="#404040">
                               <set attributeName="fill" to="#808080" begin="reset.mouseover" end="reset.mouseout"/>
                       </use>
               </g>
        </defs>

<script type="text/javascript">
var viewWidth = 2712;
var viewHeight = 514;
var sectionId = 'dynsection-0';
</script>
<script xlink:href="../../svgpan.js"/>
<svg id="graph" class="graph">
<g id="viewport">
<title>/home/travis/build/AliceO2Group/AliceO2/Detectors/PHOS/testsimulation/plot_clu_phos.C</title>
<!-- Node1 -->
<g id="node1" class="node"><title>Node1</title>
<polygon fill="#bfbfbf" stroke="black" points="420,-453 420,-505 578,-505 578,-453 420,-453"/>
<text text-anchor="start" x="428" y="-493" font-family="Helvetica,sans-Serif" font-size="10.00">/home/travis/build</text>
<text text-anchor="start" x="428" y="-482" font-family="Helvetica,sans-Serif" font-size="10.00">/AliceO2Group/AliceO2</text>
<text text-anchor="start" x="428" y="-471" font-family="Helvetica,sans-Serif" font-size="10.00">/Detectors/PHOS/testsimulation</text>
<text text-anchor="middle" x="499" y="-460" font-family="Helvetica,sans-Serif" font-size="10.00">/plot_clu_phos.C</text>
</g>
<!-- Node2 -->
<g id="node2" class="node"><title>Node2</title>
<polygon fill="none" stroke="#bfbfbf" points="0,-390.5 0,-409.5 52,-409.5 52,-390.5 0,-390.5"/>
<text text-anchor="middle" x="26" y="-397.5" font-family="Helvetica,sans-Serif" font-size="10.00">sstream</text>
</g>
<!-- Node1&#45;&gt;Node2 -->
<g id="edge1" class="edge"><title>Node1&#45;&gt;Node2</title>
<path fill="none" stroke="midnightblue" d="M419.625,-472.818C331.108,-465.644 184.296,-449.565 62,-416 59.1842,-415.227 56.2955,-414.289 53.4383,-413.263"/>
<polygon fill="midnightblue" stroke="midnightblue" points="54.5849,-409.953 43.9977,-409.551 52.0231,-416.468 54.5849,-409.953"/>
</g>
<!-- Node3 -->
<g id="node3" class="node"><title>Node3</title>
<polygon fill="none" stroke="#bfbfbf" points="70.5,-390.5 70.5,-409.5 147.5,-409.5 147.5,-390.5 70.5,-390.5"/>
<text text-anchor="middle" x="109" y="-397.5" font-family="Helvetica,sans-Serif" font-size="10.00">TStopwatch.h</text>
</g>
<!-- Node1&#45;&gt;Node3 -->
<g id="edge2" class="edge"><title>Node1&#45;&gt;Node3</title>
<path fill="none" stroke="midnightblue" d="M419.973,-466.514C350.278,-455.711 246.214,-437.937 157,-416 152.803,-414.968 148.435,-413.774 144.118,-412.52"/>
<polygon fill="midnightblue" stroke="midnightblue" points="144.83,-409.079 134.244,-409.531 142.801,-415.778 144.83,-409.079"/>
</g>
<!-- Node4 -->
<g id="node4" class="node"><title>Node4</title>
<polygon fill="none" stroke="#bfbfbf" points="165.5,-390.5 165.5,-409.5 230.5,-409.5 230.5,-390.5 165.5,-390.5"/>
<text text-anchor="middle" x="198" y="-397.5" font-family="Helvetica,sans-Serif" font-size="10.00">TCanvas.h</text>
</g>
<!-- Node1&#45;&gt;Node4 -->
<g id="edge3" class="edge"><title>Node1&#45;&gt;Node4</title>
<path fill="none" stroke="midnightblue" d="M419.924,-461.399C368.329,-449.997 299.719,-433.755 240,-416 236.809,-415.051 233.504,-413.998 230.215,-412.902"/>
<polygon fill="midnightblue" stroke="midnightblue" points="231.116,-409.51 220.521,-409.548 228.827,-416.125 231.116,-409.51"/>
</g>
<!-- Node5 -->
<g id="node5" class="node"><title>Node5</title>
<polygon fill="none" stroke="#bfbfbf" points="249,-390.5 249,-409.5 293,-409.5 293,-390.5 249,-390.5"/>
<text text-anchor="middle" x="271" y="-397.5" font-family="Helvetica,sans-Serif" font-size="10.00">TH2.h</text>
</g>
<!-- Node1&#45;&gt;Node5 -->
<g id="edge4" class="edge"><title>Node1&#45;&gt;Node5</title>
<path fill="none" stroke="midnightblue" d="M419.949,-455.993C383.593,-445.143 340.159,-431.143 302,-416 300.357,-415.348 298.68,-414.647 296.999,-413.916"/>
<polygon fill="midnightblue" stroke="midnightblue" points="298.079,-410.56 287.532,-409.55 295.147,-416.916 298.079,-410.56"/>
</g>
<!-- Node6 -->
<g id="node6" class="node"><title>Node6</title>
<polygon fill="none" stroke="#bfbfbf" points="311,-390.5 311,-409.5 399,-409.5 399,-390.5 311,-390.5"/>
<text text-anchor="middle" x="355" y="-397.5" font-family="Helvetica,sans-Serif" font-size="10.00">FairFileSource.h</text>
</g>
<!-- Node1&#45;&gt;Node6 -->
<g id="edge5" class="edge"><title>Node1&#45;&gt;Node6</title>
<path fill="none" stroke="midnightblue" d="M451.849,-452.787C427.883,-439.972 399.729,-424.918 379.973,-414.354"/>
<polygon fill="midnightblue" stroke="midnightblue" points="381.473,-411.187 371.004,-409.558 378.172,-417.36 381.473,-411.187"/>
</g>
<!-- Node7 -->
<g id="node7" class="node"><title>Node7</title>
<polygon fill="none" stroke="#bfbfbf" points="417.5,-390.5 417.5,-409.5 488.5,-409.5 488.5,-390.5 417.5,-390.5"/>
<text text-anchor="middle" x="453" y="-397.5" font-family="Helvetica,sans-Serif" font-size="10.00">FairLogger.h</text>
</g>
<!-- Node1&#45;&gt;Node7 -->
<g id="edge6" class="edge"><title>Node1&#45;&gt;Node7</title>
<path fill="none" stroke="midnightblue" d="M483.938,-452.787C477.187,-441.486 469.396,-428.445 463.321,-418.276"/>
<polygon fill="midnightblue" stroke="midnightblue" points="466.246,-416.347 458.112,-409.558 460.236,-419.937 466.246,-416.347"/>
</g>
<!-- Node8 -->
<g id="node8" class="node"><title>Node8</title>
<polygon fill="none" stroke="#bfbfbf" points="506.5,-390.5 506.5,-409.5 583.5,-409.5 583.5,-390.5 506.5,-390.5"/>
<text text-anchor="middle" x="545" y="-397.5" font-family="Helvetica,sans-Serif" font-size="10.00">FairRunAna.h</text>
</g>
<!-- Node1&#45;&gt;Node8 -->
<g id="edge7" class="edge"><title>Node1&#45;&gt;Node8</title>
<path fill="none" stroke="midnightblue" d="M514.062,-452.787C520.813,-441.486 528.604,-428.445 534.679,-418.276"/>
<polygon fill="midnightblue" stroke="midnightblue" points="537.764,-419.937 539.888,-409.558 531.754,-416.347 537.764,-419.937"/>
</g>
<!-- Node9 -->
<g id="node9" class="node"><title>Node9</title>
<polygon fill="none" stroke="#bfbfbf" points="601.5,-390.5 601.5,-409.5 702.5,-409.5 702.5,-390.5 601.5,-390.5"/>
<text text-anchor="middle" x="652" y="-397.5" font-family="Helvetica,sans-Serif" font-size="10.00">FairParRootFileIo.h</text>
</g>
<!-- Node1&#45;&gt;Node9 -->
<g id="edge8" class="edge"><title>Node1&#45;&gt;Node9</title>
<path fill="none" stroke="midnightblue" d="M549.098,-452.787C574.794,-439.855 605.02,-424.644 626.037,-414.067"/>
<polygon fill="midnightblue" stroke="midnightblue" points="627.637,-417.18 634.996,-409.558 624.49,-410.927 627.637,-417.18"/>
</g>
<!-- Node10 -->
<g id="node10" class="node"><title>Node10</title>
<polygon fill="none" stroke="#bfbfbf" points="721,-390.5 721,-409.5 813,-409.5 813,-390.5 721,-390.5"/>
<text text-anchor="middle" x="767" y="-397.5" font-family="Helvetica,sans-Serif" font-size="10.00">FairSystemInfo.h</text>
</g>
<!-- Node1&#45;&gt;Node10 -->
<g id="edge9" class="edge"><title>Node1&#45;&gt;Node10</title>
<path fill="none" stroke="midnightblue" d="M578.321,-455.21C627.449,-441.095 688.413,-423.579 727.511,-412.346"/>
<polygon fill="midnightblue" stroke="midnightblue" points="728.557,-415.687 737.202,-409.561 726.624,-408.959 728.557,-415.687"/>
</g>
<!-- Node11 -->
<g id="node11" class="node"><title>Node11</title>
<g id="a_node11"><a xlink:href="../../d7/dcd/MCCompLabel_8h.html" target="_top" xlink:title="SimulationDataFormat\l/MCCompLabel.h">
<polygon fill="none" stroke="black" points="1031,-261 1031,-291 1145,-291 1145,-261 1031,-261"/>
<text text-anchor="start" x="1039" y="-279" font-family="Helvetica,sans-Serif" font-size="10.00">SimulationDataFormat</text>
<text text-anchor="middle" x="1088" y="-268" font-family="Helvetica,sans-Serif" font-size="10.00">/MCCompLabel.h</text>
</a>
</g>
</g>
<!-- Node1&#45;&gt;Node11 -->
<g id="edge10" class="edge"><title>Node1&#45;&gt;Node11</title>
<path fill="none" stroke="midnightblue" d="M578.069,-471.218C661.228,-462.648 785.068,-445.358 822,-416 855.488,-389.379 827.933,-355.142 861,-328 885.115,-308.206 962.781,-293.73 1020.59,-285.362"/>
<polygon fill="midnightblue" stroke="midnightblue" points="1021.36,-288.788 1030.77,-283.921 1020.38,-281.857 1021.36,-288.788"/>
</g>
<!-- Node13 -->
<g id="node13" class="node"><title>Node13</title>
<g id="a_node13"><a xlink:href="../../d7/d7f/PHOS_2base_2include_2PHOSBase_2Geometry_8h.html" target="_top" xlink:title="PHOSBase/Geometry.h">
<polygon fill="none" stroke="black" points="889,-390.5 889,-409.5 1011,-409.5 1011,-390.5 889,-390.5"/>
<text text-anchor="middle" x="950" y="-397.5" font-family="Helvetica,sans-Serif" font-size="10.00">PHOSBase/Geometry.h</text>
</a>
</g>
</g>
<!-- Node1&#45;&gt;Node13 -->
<g id="edge12" class="edge"><title>Node1&#45;&gt;Node13</title>
<path fill="none" stroke="midnightblue" d="M578.074,-464.5C667.107,-449.299 809.791,-424.938 890.082,-411.23"/>
<polygon fill="midnightblue" stroke="midnightblue" points="890.764,-414.664 900.033,-409.531 889.586,-407.764 890.764,-414.664"/>
</g>
<!-- Node17 -->
<g id="node17" class="node"><title>Node17</title>
<g id="a_node17"><a xlink:href="../../d9/dad/Detectors_2PHOS_2reconstruction_2include_2PHOSReconstruction_2Cluster_8h.html" target="_top" xlink:title="PHOSReconstruction\l/Cluster.h">
<polygon fill="none" stroke="black" points="1053.5,-385 1053.5,-415 1164.5,-415 1164.5,-385 1053.5,-385"/>
<text text-anchor="start" x="1061.5" y="-403" font-family="Helvetica,sans-Serif" font-size="10.00">PHOSReconstruction</text>
<text text-anchor="middle" x="1109" y="-392" font-family="Helvetica,sans-Serif" font-size="10.00">/Cluster.h</text>
</a>
</g>
</g>
<!-- Node1&#45;&gt;Node17 -->
<g id="edge16" class="edge"><title>Node1&#45;&gt;Node17</title>
<path fill="none" stroke="midnightblue" d="M578.154,-469.789C680.395,-458.906 863.792,-438.445 1020,-416 1027.44,-414.931 1035.22,-413.736 1042.95,-412.499"/>
<polygon fill="midnightblue" stroke="midnightblue" points="1043.73,-415.917 1053.04,-410.857 1042.61,-409.008 1043.73,-415.917"/>
</g>
<!-- Node12 -->
<g id="node12" class="node"><title>Node12</title>
<polygon fill="none" stroke="#bfbfbf" points="1046,-74.5 1046,-93.5 1102,-93.5 1102,-74.5 1046,-74.5"/>
<text text-anchor="middle" x="1074" y="-81.5" font-family="Helvetica,sans-Serif" font-size="10.00">Rtypes.h</text>
</g>
<!-- Node11&#45;&gt;Node12 -->
<g id="edge11" class="edge"><title>Node11&#45;&gt;Node12</title>
<path fill="none" stroke="midnightblue" d="M1086.95,-260.719C1084.46,-226.932 1078.21,-142.075 1075.4,-104.004"/>
<polygon fill="midnightblue" stroke="midnightblue" points="1078.87,-103.515 1074.65,-93.7988 1071.89,-104.029 1078.87,-103.515"/>
</g>
<!-- Node14 -->
<g id="node14" class="node"><title>Node14</title>
<polygon fill="none" stroke="#bfbfbf" points="869.5,-328.5 869.5,-347.5 910.5,-347.5 910.5,-328.5 869.5,-328.5"/>
<text text-anchor="middle" x="890" y="-335.5" font-family="Helvetica,sans-Serif" font-size="10.00">string</text>
</g>
<!-- Node13&#45;&gt;Node14 -->
<g id="edge13" class="edge"><title>Node13&#45;&gt;Node14</title>
<path fill="none" stroke="midnightblue" d="M941.403,-390.403C932.136,-381.136 917.183,-366.183 905.788,-354.788"/>
<polygon fill="midnightblue" stroke="midnightblue" points="908.127,-352.177 898.581,-347.581 903.177,-357.127 908.127,-352.177"/>
</g>
<!-- Node15 -->
<g id="node15" class="node"><title>Node15</title>
<polygon fill="none" stroke="#bfbfbf" points="929,-328.5 929,-347.5 1009,-347.5 1009,-328.5 929,-328.5"/>
<text text-anchor="middle" x="969" y="-335.5" font-family="Helvetica,sans-Serif" font-size="10.00">RStringView.h</text>
</g>
<!-- Node13&#45;&gt;Node15 -->
<g id="edge14" class="edge"><title>Node13&#45;&gt;Node15</title>
<path fill="none" stroke="midnightblue" d="M952.722,-390.403C955.459,-381.76 959.763,-368.17 963.258,-357.134"/>
<polygon fill="midnightblue" stroke="midnightblue" points="966.601,-358.171 966.283,-347.581 959.927,-356.057 966.601,-358.171"/>
</g>
<!-- Node16 -->
<g id="node16" class="node"><title>Node16</title>
<polygon fill="none" stroke="#bfbfbf" points="1027.5,-328.5 1027.5,-347.5 1080.5,-347.5 1080.5,-328.5 1027.5,-328.5"/>
<text text-anchor="middle" x="1054" y="-335.5" font-family="Helvetica,sans-Serif" font-size="10.00">TMath.h</text>
</g>
<!-- Node13&#45;&gt;Node16 -->
<g id="edge15" class="edge"><title>Node13&#45;&gt;Node16</title>
<path fill="none" stroke="midnightblue" d="M964.901,-390.403C981.968,-380.557 1010.16,-364.291 1030.26,-352.695"/>
<polygon fill="midnightblue" stroke="midnightblue" points="1032.21,-355.61 1039.13,-347.581 1028.72,-349.546 1032.21,-355.61"/>
</g>
<!-- Node17&#45;&gt;Node11 -->
<g id="edge42" class="edge"><title>Node17&#45;&gt;Node11</title>
<path fill="none" stroke="midnightblue" d="M1106.51,-384.526C1102.97,-363.963 1096.44,-326.033 1092.16,-301.163"/>
<polygon fill="midnightblue" stroke="midnightblue" points="1095.57,-300.34 1090.42,-291.079 1088.67,-301.528 1095.57,-300.34"/>
</g>
<!-- Node18 -->
<g id="node18" class="node"><title>Node18</title>
<g id="a_node18"><a xlink:href="../../d8/de9/PHOS_2base_2include_2PHOSBase_2Digit_8h.html" target="_top" xlink:title="PHOSBase/Digit.h">
<polygon fill="none" stroke="black" points="1137.5,-328.5 1137.5,-347.5 1236.5,-347.5 1236.5,-328.5 1137.5,-328.5"/>
<text text-anchor="middle" x="1187" y="-335.5" font-family="Helvetica,sans-Serif" font-size="10.00">PHOSBase/Digit.h</text>
</a>
</g>
</g>
<!-- Node17&#45;&gt;Node18 -->
<g id="edge17" class="edge"><title>Node17&#45;&gt;Node18</title>
<path fill="none" stroke="midnightblue" d="M1127.48,-384.781C1139.52,-375.523 1155.2,-363.462 1167.44,-354.044"/>
<polygon fill="midnightblue" stroke="midnightblue" points="1169.86,-356.602 1175.65,-347.731 1165.59,-351.053 1169.86,-356.602"/>
</g>
<!-- Node18&#45;&gt;Node11 -->
<g id="edge20" class="edge"><title>Node18&#45;&gt;Node11</title>
<path fill="none" stroke="midnightblue" d="M1172.82,-328.403C1159.16,-320.125 1138.01,-307.311 1120.25,-296.547"/>
<polygon fill="midnightblue" stroke="midnightblue" points="1121.7,-293.331 1111.33,-291.141 1118.07,-299.317 1121.7,-293.331"/>
</g>
<!-- Node19 -->
<g id="node19" class="node"><title>Node19</title>
<g id="a_node19"><a xlink:href="../../df/d5d/common_2include_2CommonDataFormat_2TimeStamp_8h.html" target="_top" xlink:title="CommonDataFormat/TimeStamp.h">
<polygon fill="none" stroke="black" points="1102,-198.5 1102,-217.5 1272,-217.5 1272,-198.5 1102,-198.5"/>
<text text-anchor="middle" x="1187" y="-205.5" font-family="Helvetica,sans-Serif" font-size="10.00">CommonDataFormat/TimeStamp.h</text>
</a>
</g>
</g>
<!-- Node18&#45;&gt;Node19 -->
<g id="edge18" class="edge"><title>Node18&#45;&gt;Node19</title>
<path fill="none" stroke="midnightblue" d="M1187,-328.202C1187,-307.551 1187,-255.606 1187,-227.594"/>
<polygon fill="midnightblue" stroke="midnightblue" points="1190.5,-227.522 1187,-217.522 1183.5,-227.522 1190.5,-227.522"/>
</g>
<!-- Node20 -->
<g id="node20" class="node"><title>Node20</title>
<g id="a_node20"><a xlink:href="../../d1/def/PHOS_2base_2include_2PHOSBase_2Hit_8h.html" target="_top" xlink:title="PHOSBase/Hit.h">
<polygon fill="none" stroke="black" points="1683,-266.5 1683,-285.5 1775,-285.5 1775,-266.5 1683,-266.5"/>
<text text-anchor="middle" x="1729" y="-273.5" font-family="Helvetica,sans-Serif" font-size="10.00">PHOSBase/Hit.h</text>
</a>
</g>
</g>
<!-- Node18&#45;&gt;Node20 -->
<g id="edge21" class="edge"><title>Node18&#45;&gt;Node20</title>
<path fill="none" stroke="midnightblue" d="M1236.54,-331.516C1337.44,-320.346 1566.26,-295.016 1672.65,-283.238"/>
<polygon fill="midnightblue" stroke="midnightblue" points="1673.31,-286.687 1682.86,-282.108 1672.54,-279.729 1673.31,-286.687"/>
</g>
<!-- Node19&#45;&gt;Node12 -->
<g id="edge19" class="edge"><title>Node19&#45;&gt;Node12</title>
<path fill="none" stroke="midnightblue" d="M1178.87,-198.226C1160.06,-177.914 1113.28,-127.404 1089.06,-101.258"/>
<polygon fill="midnightblue" stroke="midnightblue" points="1091.42,-98.6526 1082.05,-93.6944 1086.28,-103.409 1091.42,-98.6526"/>
</g>
<!-- Node21 -->
<g id="node21" class="node"><title>Node21</title>
<g id="a_node21"><a xlink:href="../../d4/d25/BaseHits_8h.html" target="_top" xlink:title="SimulationDataFormat\l/BaseHits.h">
<polygon fill="none" stroke="black" points="1672,-193 1672,-223 1786,-223 1786,-193 1672,-193"/>
<text text-anchor="start" x="1680" y="-211" font-family="Helvetica,sans-Serif" font-size="10.00">SimulationDataFormat</text>
<text text-anchor="middle" x="1729" y="-200" font-family="Helvetica,sans-Serif" font-size="10.00">/BaseHits.h</text>
</a>
</g>
</g>
<!-- Node20&#45;&gt;Node21 -->
<g id="edge22" class="edge"><title>Node20&#45;&gt;Node21</title>
<path fill="none" stroke="midnightblue" d="M1729,-266.372C1729,-257.971 1729,-244.811 1729,-233.213"/>
<polygon fill="midnightblue" stroke="midnightblue" points="1732.5,-233.181 1729,-223.181 1725.5,-233.181 1732.5,-233.181"/>
</g>
<!-- Node33 -->
<g id="node33" class="node"><title>Node33</title>
<g id="a_node33"><a xlink:href="../../d0/d91/ShmAllocator_8h.html" target="_top" xlink:title="CommonUtils/ShmAllocator.h">
<polygon fill="none" stroke="black" points="2302,-198.5 2302,-217.5 2448,-217.5 2448,-198.5 2302,-198.5"/>
<text text-anchor="middle" x="2375" y="-205.5" font-family="Helvetica,sans-Serif" font-size="10.00">CommonUtils/ShmAllocator.h</text>
</a>
</g>
</g>
<!-- Node20&#45;&gt;Node33 -->
<g id="edge35" class="edge"><title>Node20&#45;&gt;Node33</title>
<path fill="none" stroke="midnightblue" d="M1775.2,-270.28C1883.31,-259.234 2154.01,-231.577 2291.73,-217.508"/>
<polygon fill="midnightblue" stroke="midnightblue" points="2292.22,-220.976 2301.81,-216.478 2291.51,-214.012 2292.22,-220.976"/>
</g>
<!-- Node22 -->
<g id="node22" class="node"><title>Node22</title>
<g id="a_node22"><a xlink:href="../../dd/d76/Cartesian3D_8h.html" target="_top" xlink:title="MathUtils/Cartesian3D.h">
<polygon fill="none" stroke="black" points="1666.5,-136.5 1666.5,-155.5 1791.5,-155.5 1791.5,-136.5 1666.5,-136.5"/>
<text text-anchor="middle" x="1729" y="-143.5" font-family="Helvetica,sans-Serif" font-size="10.00">MathUtils/Cartesian3D.h</text>
</a>
</g>
</g>
<!-- Node21&#45;&gt;Node22 -->
<g id="edge23" class="edge"><title>Node21&#45;&gt;Node22</title>
<path fill="none" stroke="midnightblue" d="M1729,-192.781C1729,-184.781 1729,-174.689 1729,-166.017"/>
<polygon fill="midnightblue" stroke="midnightblue" points="1732.5,-165.73 1729,-155.731 1725.5,-165.731 1732.5,-165.73"/>
</g>
<!-- Node22&#45;&gt;Node12 -->
<g id="edge29" class="edge"><title>Node22&#45;&gt;Node12</title>
<path fill="none" stroke="midnightblue" d="M1666.35,-142.837C1531.23,-137.781 1216.19,-123.778 1112,-100 1108.75,-99.2583 1105.41,-98.2833 1102.13,-97.1857"/>
<polygon fill="midnightblue" stroke="midnightblue" points="1103.18,-93.841 1092.58,-93.6359 1100.74,-100.402 1103.18,-93.841"/>
</g>
<!-- Node23 -->
<g id="node23" class="node"><title>Node23</title>
<polygon fill="none" stroke="#bfbfbf" points="1120.5,-69 1120.5,-99 1271.5,-99 1271.5,-69 1120.5,-69"/>
<text text-anchor="start" x="1128.5" y="-87" font-family="Helvetica,sans-Serif" font-size="10.00">Math/GenVector/Displacement</text>
<text text-anchor="middle" x="1196" y="-76" font-family="Helvetica,sans-Serif" font-size="10.00">Vector3D.h</text>
</g>
<!-- Node22&#45;&gt;Node23 -->
<g id="edge24" class="edge"><title>Node22&#45;&gt;Node23</title>
<path fill="none" stroke="midnightblue" d="M1666.5,-140.203C1581.79,-133.371 1425.59,-119.614 1282.25,-100.108"/>
<polygon fill="midnightblue" stroke="midnightblue" points="1282.34,-96.5866 1271.96,-98.6931 1281.39,-103.521 1282.34,-96.5866"/>
</g>
<!-- Node24 -->
<g id="node24" class="node"><title>Node24</title>
<polygon fill="none" stroke="#bfbfbf" points="1290,-74.5 1290,-93.5 1466,-93.5 1466,-74.5 1290,-74.5"/>
<text text-anchor="middle" x="1378" y="-81.5" font-family="Helvetica,sans-Serif" font-size="10.00">Math/GenVector/PositionVector3D.h</text>
</g>
<!-- Node22&#45;&gt;Node24 -->
<g id="edge25" class="edge"><title>Node22&#45;&gt;Node24</title>
<path fill="none" stroke="midnightblue" d="M1679.08,-136.467C1615.53,-125.604 1505.85,-106.855 1437.87,-95.2346"/>
<polygon fill="midnightblue" stroke="midnightblue" points="1438.19,-91.7385 1427.74,-93.5034 1437.01,-98.6384 1438.19,-91.7385"/>
</g>
<!-- Node25 -->
<g id="node25" class="node"><title>Node25</title>
<polygon fill="none" stroke="#bfbfbf" points="1483.5,-74.5 1483.5,-93.5 1632.5,-93.5 1632.5,-74.5 1483.5,-74.5"/>
<text text-anchor="middle" x="1558" y="-81.5" font-family="Helvetica,sans-Serif" font-size="10.00">Math/GenVector/Rotation3D.h</text>
</g>
<!-- Node22&#45;&gt;Node25 -->
<g id="edge26" class="edge"><title>Node22&#45;&gt;Node25</title>
<path fill="none" stroke="midnightblue" d="M1704.5,-136.403C1675.04,-126.067 1625.42,-108.656 1592.2,-96.9994"/>
<polygon fill="midnightblue" stroke="midnightblue" points="1593.05,-93.5889 1582.45,-93.5806 1590.73,-100.194 1593.05,-93.5889"/>
</g>
<!-- Node26 -->
<g id="node26" class="node"><title>Node26</title>
<polygon fill="none" stroke="#bfbfbf" points="1651,-74.5 1651,-93.5 1807,-93.5 1807,-74.5 1651,-74.5"/>
<text text-anchor="middle" x="1729" y="-81.5" font-family="Helvetica,sans-Serif" font-size="10.00">Math/GenVector/Transform3D.h</text>
</g>
<!-- Node22&#45;&gt;Node26 -->
<g id="edge27" class="edge"><title>Node22&#45;&gt;Node26</title>
<path fill="none" stroke="midnightblue" d="M1729,-136.403C1729,-127.938 1729,-114.728 1729,-103.82"/>
<polygon fill="midnightblue" stroke="midnightblue" points="1732.5,-103.581 1729,-93.5806 1725.5,-103.581 1732.5,-103.581"/>
</g>
<!-- Node27 -->
<g id="node27" class="node"><title>Node27</title>
<polygon fill="none" stroke="#bfbfbf" points="1825,-74.5 1825,-93.5 1985,-93.5 1985,-74.5 1825,-74.5"/>
<text text-anchor="middle" x="1905" y="-81.5" font-family="Helvetica,sans-Serif" font-size="10.00">Math/GenVector/Translation3D.h</text>
</g>
<!-- Node22&#45;&gt;Node27 -->
<g id="edge28" class="edge"><title>Node22&#45;&gt;Node27</title>
<path fill="none" stroke="midnightblue" d="M1754.22,-136.403C1784.67,-126.022 1836.05,-108.506 1870.24,-96.849"/>
<polygon fill="midnightblue" stroke="midnightblue" points="1871.49,-100.12 1879.83,-93.5806 1869.24,-93.4946 1871.49,-100.12"/>
</g>
<!-- Node28 -->
<g id="node28" class="node"><title>Node28</title>
<polygon fill="none" stroke="#bfbfbf" points="2003,-74.5 2003,-93.5 2079,-93.5 2079,-74.5 2003,-74.5"/>
<text text-anchor="middle" x="2041" y="-81.5" font-family="Helvetica,sans-Serif" font-size="10.00">TGeoMatrix.h</text>
</g>
<!-- Node22&#45;&gt;Node28 -->
<g id="edge30" class="edge"><title>Node22&#45;&gt;Node28</title>
<path fill="none" stroke="midnightblue" d="M1791.62,-136.903C1845.64,-129.316 1925.53,-116.652 1994,-100 1998.12,-98.9981 2002.4,-97.8228 2006.63,-96.5787"/>
<polygon fill="midnightblue" stroke="midnightblue" points="2007.78,-99.8884 2016.31,-93.5999 2005.72,-93.1985 2007.78,-99.8884"/>
</g>
<!-- Node29 -->
<g id="node29" class="node"><title>Node29</title>
<polygon fill="none" stroke="#bfbfbf" points="2097.5,-74.5 2097.5,-93.5 2142.5,-93.5 2142.5,-74.5 2097.5,-74.5"/>
<text text-anchor="middle" x="2120" y="-81.5" font-family="Helvetica,sans-Serif" font-size="10.00">iosfwd</text>
</g>
<!-- Node22&#45;&gt;Node29 -->
<g id="edge31" class="edge"><title>Node22&#45;&gt;Node29</title>
<path fill="none" stroke="midnightblue" d="M1791.81,-143.064C1864.43,-139.474 1986.93,-129.23 2088,-100 2090.29,-99.3384 2092.62,-98.5327 2094.92,-97.6416"/>
<polygon fill="midnightblue" stroke="midnightblue" points="2096.33,-100.847 2104.1,-93.6499 2093.54,-94.4275 2096.33,-100.847"/>
</g>
<!-- Node30 -->
<g id="node30" class="node"><title>Node30</title>
<g id="a_node30"><a xlink:href="../../d2/dd0/Cartesian2D_8h.html" target="_top" xlink:title="MathUtils/Cartesian2D.h">
<polygon fill="none" stroke="black" points="2160.5,-74.5 2160.5,-93.5 2285.5,-93.5 2285.5,-74.5 2160.5,-74.5"/>
<text text-anchor="middle" x="2223" y="-81.5" font-family="Helvetica,sans-Serif" font-size="10.00">MathUtils/Cartesian2D.h</text>
</a>
</g>
</g>
<!-- Node22&#45;&gt;Node30 -->
<g id="edge32" class="edge"><title>Node22&#45;&gt;Node30</title>
<path fill="none" stroke="midnightblue" d="M1791.82,-140.259C1874.48,-133.573 2024.17,-119.924 2151,-100 2158.89,-98.76 2167.23,-97.23 2175.32,-95.6257"/>
<polygon fill="midnightblue" stroke="midnightblue" points="2176.29,-99.0002 2185.39,-93.5703 2174.89,-92.1417 2176.29,-99.0002"/>
</g>
<!-- Node31 -->
<g id="node31" class="node"><title>Node31</title>
<polygon fill="none" stroke="#bfbfbf" points="2056.5,-1 2056.5,-31 2207.5,-31 2207.5,-1 2056.5,-1"/>
<text text-anchor="start" x="2064.5" y="-19" font-family="Helvetica,sans-Serif" font-size="10.00">Math/GenVector/Displacement</text>
<text text-anchor="middle" x="2132" y="-8" font-family="Helvetica,sans-Serif" font-size="10.00">Vector2D.h</text>
</g>
<!-- Node30&#45;&gt;Node31 -->
<g id="edge33" class="edge"><title>Node30&#45;&gt;Node31</title>
<path fill="none" stroke="midnightblue" d="M2211.1,-74.3717C2198.22,-65.0286 2177.22,-49.7966 2160.09,-37.375"/>
<polygon fill="midnightblue" stroke="midnightblue" points="2161.7,-34.2194 2151.55,-31.1815 2157.59,-39.8859 2161.7,-34.2194"/>
</g>
<!-- Node32 -->
<g id="node32" class="node"><title>Node32</title>
<polygon fill="none" stroke="#bfbfbf" points="2226,-6.5 2226,-25.5 2402,-25.5 2402,-6.5 2226,-6.5"/>
<text text-anchor="middle" x="2314" y="-13.5" font-family="Helvetica,sans-Serif" font-size="10.00">Math/GenVector/PositionVector2D.h</text>
</g>
<!-- Node30&#45;&gt;Node32 -->
<g id="edge34" class="edge"><title>Node30&#45;&gt;Node32</title>
<path fill="none" stroke="midnightblue" d="M2234.9,-74.3717C2249.88,-63.5015 2275.86,-44.6602 2293.94,-31.5474"/>
<polygon fill="midnightblue" stroke="midnightblue" points="2296.06,-34.3349 2302.1,-25.6305 2291.95,-28.6684 2296.06,-34.3349"/>
</g>
<!-- Node34 -->
<g id="node34" class="node"><title>Node34</title>
<g id="a_node34"><a xlink:href="../../de/d61/ShmManager_8h.html" target="_top" xlink:title="CommonUtils/ShmManager.h">
<polygon fill="none" stroke="black" points="2302,-136.5 2302,-155.5 2448,-155.5 2448,-136.5 2302,-136.5"/>
<text text-anchor="middle" x="2375" y="-143.5" font-family="Helvetica,sans-Serif" font-size="10.00">CommonUtils/ShmManager.h</text>
</a>
</g>
</g>
<!-- Node33&#45;&gt;Node34 -->
<g id="edge36" class="edge"><title>Node33&#45;&gt;Node34</title>
<path fill="none" stroke="midnightblue" d="M2375,-198.403C2375,-189.938 2375,-176.728 2375,-165.82"/>
<polygon fill="midnightblue" stroke="midnightblue" points="2378.5,-165.581 2375,-155.581 2371.5,-165.581 2378.5,-165.581"/>
</g>
<!-- Node39 -->
<g id="node39" class="node"><title>Node39</title>
<polygon fill="none" stroke="#bfbfbf" points="2466.5,-136.5 2466.5,-155.5 2515.5,-155.5 2515.5,-136.5 2466.5,-136.5"/>
<text text-anchor="middle" x="2491" y="-143.5" font-family="Helvetica,sans-Serif" font-size="10.00">cassert</text>
</g>
<!-- Node33&#45;&gt;Node39 -->
<g id="edge41" class="edge"><title>Node33&#45;&gt;Node39</title>
<path fill="none" stroke="midnightblue" d="M2391.62,-198.403C2410.92,-188.423 2442.96,-171.849 2465.43,-160.225"/>
<polygon fill="midnightblue" stroke="midnightblue" points="2467.14,-163.284 2474.41,-155.581 2463.92,-157.066 2467.14,-163.284"/>
</g>
<!-- Node35 -->
<g id="node35" class="node"><title>Node35</title>
<polygon fill="none" stroke="#bfbfbf" points="2303.5,-74.5 2303.5,-93.5 2332.5,-93.5 2332.5,-74.5 2303.5,-74.5"/>
<text text-anchor="middle" x="2318" y="-81.5" font-family="Helvetica,sans-Serif" font-size="10.00">list</text>
</g>
<!-- Node34&#45;&gt;Node35 -->
<g id="edge37" class="edge"><title>Node34&#45;&gt;Node35</title>
<path fill="none" stroke="midnightblue" d="M2366.83,-136.403C2358.11,-127.225 2344.1,-112.47 2333.31,-101.117"/>
<polygon fill="midnightblue" stroke="midnightblue" points="2335.58,-98.42 2326.15,-93.5806 2330.5,-103.241 2335.58,-98.42"/>
</g>
<!-- Node36 -->
<g id="node36" class="node"><title>Node36</title>
<polygon fill="none" stroke="#bfbfbf" points="2350.5,-74.5 2350.5,-93.5 2399.5,-93.5 2399.5,-74.5 2350.5,-74.5"/>
<text text-anchor="middle" x="2375" y="-81.5" font-family="Helvetica,sans-Serif" font-size="10.00">cstddef</text>
</g>
<!-- Node34&#45;&gt;Node36 -->
<g id="edge38" class="edge"><title>Node34&#45;&gt;Node36</title>
<path fill="none" stroke="midnightblue" d="M2375,-136.403C2375,-127.938 2375,-114.728 2375,-103.82"/>
<polygon fill="midnightblue" stroke="midnightblue" points="2378.5,-103.581 2375,-93.5806 2371.5,-103.581 2378.5,-103.581"/>
</g>
<!-- Node37 -->
<g id="node37" class="node"><title>Node37</title>
<polygon fill="none" stroke="#bfbfbf" points="2418,-69 2418,-99 2566,-99 2566,-69 2418,-69"/>
<text text-anchor="start" x="2426" y="-87" font-family="Helvetica,sans-Serif" font-size="10.00">boost/interprocess</text>
<text text-anchor="middle" x="2492" y="-76" font-family="Helvetica,sans-Serif" font-size="10.00">/managed_external_buffer.hpp</text>
</g>
<!-- Node34&#45;&gt;Node37 -->
<g id="edge39" class="edge"><title>Node34&#45;&gt;Node37</title>
<path fill="none" stroke="midnightblue" d="M2391.76,-136.403C2408.28,-127.936 2434.05,-114.72 2455.32,-103.81"/>
<polygon fill="midnightblue" stroke="midnightblue" points="2457.12,-106.818 2464.43,-99.1408 2453.93,-100.59 2457.12,-106.818"/>
</g>
<!-- Node38 -->
<g id="node38" class="node"><title>Node38</title>
<polygon fill="none" stroke="#bfbfbf" points="2584,-69 2584,-99 2704,-99 2704,-69 2584,-69"/>
<text text-anchor="start" x="2592" y="-87" font-family="Helvetica,sans-Serif" font-size="10.00">boost/interprocess</text>
<text text-anchor="middle" x="2644" y="-76" font-family="Helvetica,sans-Serif" font-size="10.00">/allocators/allocator.hpp</text>
</g>
<!-- Node34&#45;&gt;Node38 -->
<g id="edge40" class="edge"><title>Node34&#45;&gt;Node38</title>
<path fill="none" stroke="midnightblue" d="M2413.26,-136.467C2454.93,-127.171 2522.51,-112.098 2573.78,-100.662"/>
<polygon fill="midnightblue" stroke="midnightblue" points="2574.81,-104.019 2583.81,-98.4254 2573.29,-97.1864 2574.81,-104.019"/>
</g>
</g>
</svg>
        <g id="navigator" transform="translate(0 0)" fill="#404254">
                <rect fill="#f2f5e9" fill-opacity="0.5" stroke="#606060" stroke-width=".5" x="0" y="0" width="60" height="60"/>
                <use id="zoomplus" xlink:href="#zoomPlus" x="17" y="9" onmousedown="handleZoom(evt,'in')"/>
                <use id="zoomminus" xlink:href="#zoomMin" x="42" y="9" onmousedown="handleZoom(evt,'out')"/>
                <use id="reset" xlink:href="#resetDef" x="30" y="36" onmousedown="handleReset()"/>
                <g id="arrowUp" xlink:href="#dirArrow" transform="translate(30 24)" onmousedown="handlePan(0,-1)">
                  <use xlink:href="#rim" fill="#404040">
                        <set attributeName="fill" to="#808080" begin="arrowUp.mouseover" end="arrowUp.mouseout"/>
                  </use>
                  <path fill="none" stroke="white" stroke-width="1.5" d="M0,-3.0v7 M-2.5,-0.5L0,-3.0L2.5,-0.5"/>
                </g>
                <g id="arrowRight" xlink:href="#dirArrow" transform="rotate(90) translate(36 -43)" onmousedown="handlePan(1,0)">
                  <use xlink:href="#rim" fill="#404040">
                        <set attributeName="fill" to="#808080" begin="arrowRight.mouseover" end="arrowRight.mouseout"/>
                  </use>
                  <path fill="none" stroke="white" stroke-width="1.5" d="M0,-3.0v7 M-2.5,-0.5L0,-3.0L2.5,-0.5"/>
                </g>
                <g id="arrowDown" xlink:href="#dirArrow" transform="rotate(180) translate(-30 -48)" onmousedown="handlePan(0,1)">
                  <use xlink:href="#rim" fill="#404040">
                        <set attributeName="fill" to="#808080" begin="arrowDown.mouseover" end="arrowDown.mouseout"/>
                  </use>
                  <path fill="none" stroke="white" stroke-width="1.5" d="M0,-3.0v7 M-2.5,-0.5L0,-3.0L2.5,-0.5"/>
                </g>
                <g id="arrowLeft" xlink:href="#dirArrow" transform="rotate(270) translate(-36 17)" onmousedown="handlePan(-1,0)">
                  <use xlink:href="#rim" fill="#404040">
                        <set attributeName="fill" to="#808080" begin="arrowLeft.mouseover" end="arrowLeft.mouseout"/>
                  </use>
                  <path fill="none" stroke="white" stroke-width="1.5" d="M0,-3.0v7 M-2.5,-0.5L0,-3.0L2.5,-0.5"/>
                </g>
        </g>
        <svg viewBox="0 0 15 15" width="100%" height="30px" preserveAspectRatio="xMaxYMin meet">
         <g id="arrow_out" transform="scale(0.3 0.3)">
          <a xlink:href="plot__clu__phos_8C__incl_org.svg" target="_base">
           <rect id="button" ry="5" rx="5" y="6" x="6" height="38" width="38"
                fill="#f2f5e9" fill-opacity="0.5" stroke="#606060" stroke-width="1.0"/>
           <path id="arrow"
             d="M 11.500037,31.436501 C 11.940474,20.09759 22.043105,11.32322 32.158766,21.979434 L 37.068811,17.246167 C 37.068811,17.246167 37.088388,32 37.088388,32 L 22.160133,31.978069 C 22.160133,31.978069 26.997745,27.140456 26.997745,27.140456 C 18.528582,18.264221 13.291696,25.230495 11.500037,31.436501 z"
             style="fill:#404040;"/>
          </a>
         </g>
        </svg>
</svg>
