<?xml version="1.0" encoding="UTF-8" standalone="no"?>
<!DOCTYPE svg PUBLIC "-//W3C//DTD SVG 1.1//EN"
 "http://www.w3.org/Graphics/SVG/1.1/DTD/svg11.dtd">
<!-- Generated by graphviz version 2.36.0 (20140111.2315)
 -->
<!-- Title: /home/travis/build/AliceO2Group/AliceO2/Utilities/O2MessageMonitor/src/O2MessageMonitor.cxx Pages: 1 -->
<!--zoomable 422 -->
<svg id="main" version="1.1" xmlns="http://www.w3.org/2000/svg" xmlns:xlink="http://www.w3.org/1999/xlink" xml:space="preserve" onload="init(evt)">
<style type="text/css"><![CDATA[
.edge:hover path { stroke: red; }
.edge:hover polygon { stroke: red; fill: red; }
]]></style>
<script type="text/javascript"><![CDATA[
var edges = document.getElementsByTagName('g');
if (edges && edges.length) {
  for (var i=0;i<edges.length;i++) {
    if (edges[i].id.substr(0,4)=='edge') {
      edges[i].setAttribute('class','edge');
    }
  }
}
]]></script>
        <defs>
                <circle id="rim" cx="0" cy="0" r="7"/>
                <circle id="rim2" cx="0" cy="0" r="3.5"/>
                <g id="zoomPlus">
                        <use xlink:href="#rim" fill="#404040">
                                <set attributeName="fill" to="#808080" begin="zoomplus.mouseover" end="zoomplus.mouseout"/>
                        </use>
                        <path d="M-4,0h8M0,-4v8" fill="none" stroke="white" stroke-width="1.5" pointer-events="none"/>
                </g>
                <g id="zoomMin">
                        <use xlink:href="#rim" fill="#404040">
                                <set attributeName="fill" to="#808080" begin="zoomminus.mouseover" end="zoomminus.mouseout"/>
                        </use>
                        <path d="M-4,0h8" fill="none" stroke="white" stroke-width="1.5" pointer-events="none"/>
                </g>
                <g id="dirArrow">
                        <path fill="none" stroke="white" stroke-width="1.5" d="M0,-3.0v7 M-2.5,-0.5L0,-3.0L2.5,-0.5"/>
                </g>
               <g id="resetDef">
                       <use xlink:href="#rim2" fill="#404040">
                               <set attributeName="fill" to="#808080" begin="reset.mouseover" end="reset.mouseout"/>
                       </use>
               </g>
        </defs>

<script type="text/javascript">
var viewWidth = 2220;
var viewHeight = 422;
var sectionId = 'dynsection-0';
</script>
<script xlink:href="../../svgpan.js"/>
<svg id="graph" class="graph">
<g id="viewport">
<title>/home/travis/build/AliceO2Group/AliceO2/Utilities/O2MessageMonitor/src/O2MessageMonitor.cxx</title>
<!-- Node1 -->
<g id="node1" class="node"><title>Node1</title>
<polygon fill="#bfbfbf" stroke="black" points="99,-361 99,-413 239,-413 239,-361 99,-361"/>
<text text-anchor="start" x="107" y="-401" font-family="Helvetica,sans-Serif" font-size="10.00">/home/travis/build</text>
<text text-anchor="start" x="107" y="-390" font-family="Helvetica,sans-Serif" font-size="10.00">/AliceO2Group/AliceO2</text>
<text text-anchor="start" x="107" y="-379" font-family="Helvetica,sans-Serif" font-size="10.00">/Utilities/O2MessageMonitor</text>
<text text-anchor="middle" x="169" y="-368" font-family="Helvetica,sans-Serif" font-size="10.00">/src/O2MessageMonitor.cxx</text>
</g>
<!-- Node2 -->
<g id="node2" class="node"><title>Node2</title>
<polygon fill="none" stroke="#bfbfbf" points="0,-298.5 0,-317.5 46,-317.5 46,-298.5 0,-298.5"/>
<text text-anchor="middle" x="23" y="-305.5" font-family="Helvetica,sans-Serif" font-size="10.00">chrono</text>
</g>
<!-- Node1&#45;&gt;Node2 -->
<g id="edge1" class="edge"><title>Node1&#45;&gt;Node2</title>
<path fill="none" stroke="midnightblue" d="M121.194,-360.787C96.8948,-347.972 68.3504,-332.918 48.3197,-322.354"/>
<polygon fill="midnightblue" stroke="midnightblue" points="49.7043,-319.127 39.2263,-317.558 46.4388,-325.319 49.7043,-319.127"/>
</g>
<!-- Node3 -->
<g id="node3" class="node"><title>Node3</title>
<polygon fill="none" stroke="#bfbfbf" points="64,-298.5 64,-317.5 108,-317.5 108,-298.5 64,-298.5"/>
<text text-anchor="middle" x="86" y="-305.5" font-family="Helvetica,sans-Serif" font-size="10.00">thread</text>
</g>
<!-- Node1&#45;&gt;Node3 -->
<g id="edge2" class="edge"><title>Node1&#45;&gt;Node3</title>
<path fill="none" stroke="midnightblue" d="M141.823,-360.787C128.888,-348.787 113.837,-334.825 102.625,-324.423"/>
<polygon fill="midnightblue" stroke="midnightblue" points="104.936,-321.793 95.2245,-317.558 100.175,-326.925 104.936,-321.793"/>
</g>
<!-- Node4 -->
<g id="node4" class="node"><title>Node4</title>
<polygon fill="none" stroke="#bfbfbf" points="126,-298.5 126,-317.5 212,-317.5 212,-298.5 126,-298.5"/>
<text text-anchor="middle" x="169" y="-305.5" font-family="Helvetica,sans-Serif" font-size="10.00">FairMQLogger.h</text>
</g>
<!-- Node1&#45;&gt;Node4 -->
<g id="edge3" class="edge"><title>Node1&#45;&gt;Node4</title>
<path fill="none" stroke="midnightblue" d="M169,-360.787C169,-350.069 169,-337.785 169,-327.871"/>
<polygon fill="midnightblue" stroke="midnightblue" points="172.5,-327.558 169,-317.558 165.5,-327.558 172.5,-327.558"/>
</g>
<!-- Node5 -->
<g id="node5" class="node"><title>Node5</title>
<polygon fill="none" stroke="#bfbfbf" points="155,-180.5 155,-199.5 301,-199.5 301,-180.5 155,-180.5"/>
<text text-anchor="middle" x="228" y="-187.5" font-family="Helvetica,sans-Serif" font-size="10.00">options/FairMQProgOptions.h</text>
</g>
<!-- Node1&#45;&gt;Node5 -->
<g id="edge4" class="edge"><title>Node1&#45;&gt;Node5</title>
<path fill="none" stroke="midnightblue" d="M196.564,-360.761C206.059,-350.375 215.645,-337.594 221,-324 236.059,-285.77 233.584,-236.529 230.662,-209.985"/>
<polygon fill="midnightblue" stroke="midnightblue" points="234.103,-209.29 229.391,-199.801 227.157,-210.158 234.103,-209.29"/>
</g>
<!-- Node6 -->
<g id="node6" class="node"><title>Node6</title>
<g id="a_node6"><a xlink:href="../../de/d29/O2MessageMonitor_8h.html" target="_top" xlink:title="O2MessageMonitor/O2Message\lMonitor.h">
<polygon fill="none" stroke="black" points="292.5,-293 292.5,-323 449.5,-323 449.5,-293 292.5,-293"/>
<text text-anchor="start" x="300.5" y="-311" font-family="Helvetica,sans-Serif" font-size="10.00">O2MessageMonitor/O2Message</text>
<text text-anchor="middle" x="371" y="-300" font-family="Helvetica,sans-Serif" font-size="10.00">Monitor.h</text>
</a>
</g>
</g>
<!-- Node1&#45;&gt;Node6 -->
<g id="edge5" class="edge"><title>Node1&#45;&gt;Node6</title>
<path fill="none" stroke="midnightblue" d="M234.863,-360.894C264.189,-349.715 298.03,-336.815 324.636,-326.673"/>
<polygon fill="midnightblue" stroke="midnightblue" points="325.991,-329.903 334.089,-323.07 323.498,-323.362 325.991,-329.903"/>
</g>
<!-- Node7 -->
<g id="node7" class="node"><title>Node7</title>
<g id="a_node7"><a xlink:href="../../d2/dee/O2Device_8h.html" target="_top" xlink:title="O2Device/O2Device.h">
<polygon fill="none" stroke="black" points="362.5,-236.5 362.5,-255.5 477.5,-255.5 477.5,-236.5 362.5,-236.5"/>
<text text-anchor="middle" x="420" y="-243.5" font-family="Helvetica,sans-Serif" font-size="10.00">O2Device/O2Device.h</text>
</a>
</g>
</g>
<!-- Node6&#45;&gt;Node7 -->
<g id="edge6" class="edge"><title>Node6&#45;&gt;Node7</title>
<path fill="none" stroke="midnightblue" d="M382.612,-292.781C389.733,-284.062 398.883,-272.857 406.349,-263.715"/>
<polygon fill="midnightblue" stroke="midnightblue" points="409.256,-265.69 412.87,-255.731 403.834,-261.262 409.256,-265.69"/>
</g>
<!-- Node7&#45;&gt;Node5 -->
<g id="edge8" class="edge"><title>Node7&#45;&gt;Node5</title>
<path fill="none" stroke="midnightblue" d="M389.577,-236.444C356.715,-227.201 304.215,-212.436 268.026,-202.257"/>
<polygon fill="midnightblue" stroke="midnightblue" points="268.855,-198.855 258.281,-199.516 266.96,-205.593 268.855,-198.855"/>
</g>
<!-- Node8 -->
<g id="node8" class="node"><title>Node8</title>
<polygon fill="none" stroke="#bfbfbf" points="527,-180.5 527,-199.5 615,-199.5 615,-180.5 527,-180.5"/>
<text text-anchor="middle" x="571" y="-187.5" font-family="Helvetica,sans-Serif" font-size="10.00">FairMQDevice.h</text>
</g>
<!-- Node7&#45;&gt;Node8 -->
<g id="edge7" class="edge"><title>Node7&#45;&gt;Node8</title>
<path fill="none" stroke="midnightblue" d="M443.926,-236.444C469.219,-227.399 509.302,-213.064 537.68,-202.916"/>
<polygon fill="midnightblue" stroke="midnightblue" points="538.948,-206.179 547.186,-199.516 536.591,-199.588 538.948,-206.179"/>
</g>
<!-- Node9 -->
<g id="node9" class="node"><title>Node9</title>
<g id="a_node9"><a xlink:href="../../d7/db2/Utilities_8h.html" target="_top" xlink:title="O2Device/Utilities.h">
<polygon fill="none" stroke="black" points="868,-180.5 868,-199.5 972,-199.5 972,-180.5 868,-180.5"/>
<text text-anchor="middle" x="920" y="-187.5" font-family="Helvetica,sans-Serif" font-size="10.00">O2Device/Utilities.h</text>
</a>
</g>
</g>
<!-- Node7&#45;&gt;Node9 -->
<g id="edge9" class="edge"><title>Node7&#45;&gt;Node9</title>
<path fill="none" stroke="midnightblue" d="M477.845,-238.753C572.686,-228.51 760.434,-208.233 857.946,-197.702"/>
<polygon fill="midnightblue" stroke="midnightblue" points="858.386,-201.175 867.952,-196.621 857.634,-194.215 858.386,-201.175"/>
</g>
<!-- Node30 -->
<g id="node30" class="node"><title>Node30</title>
<polygon fill="none" stroke="#bfbfbf" points="124.5,-6.5 124.5,-25.5 183.5,-25.5 183.5,-6.5 124.5,-6.5"/>
<text text-anchor="middle" x="154" y="-13.5" font-family="Helvetica,sans-Serif" font-size="10.00">stdexcept</text>
</g>
<!-- Node7&#45;&gt;Node30 -->
<g id="edge40" class="edge"><title>Node7&#45;&gt;Node30</title>
<path fill="none" stroke="midnightblue" d="M404.765,-236.475C389.999,-227.955 367.226,-214.124 349,-200 276.941,-144.157 200.7,-66.3155 169.087,-33.0767"/>
<polygon fill="midnightblue" stroke="midnightblue" points="171.455,-30.4874 162.041,-25.6276 166.37,-35.2977 171.455,-30.4874"/>
</g>
<!-- Node34 -->
<g id="node34" class="node"><title>Node34</title>
<polygon fill="none" stroke="#bfbfbf" points="357.5,-180.5 357.5,-199.5 508.5,-199.5 508.5,-180.5 357.5,-180.5"/>
<text text-anchor="middle" x="433" y="-187.5" font-family="Helvetica,sans-Serif" font-size="10.00">Monitoring/MonitoringFactory.h</text>
</g>
<!-- Node7&#45;&gt;Node34 -->
<g id="edge39" class="edge"><title>Node7&#45;&gt;Node34</title>
<path fill="none" stroke="midnightblue" d="M422.147,-236.083C423.869,-228.927 426.347,-218.635 428.5,-209.691"/>
<polygon fill="midnightblue" stroke="midnightblue" points="431.955,-210.293 430.893,-199.751 425.15,-208.654 431.955,-210.293"/>
</g>
<!-- Node10 -->
<g id="node10" class="node"><title>Node10</title>
<g id="a_node10"><a xlink:href="../../dc/d03/MemoryResources_8h.html" target="_top" xlink:title="MemoryResources/MemoryResources.h">
<polygon fill="none" stroke="black" points="1176.5,-68.5 1176.5,-87.5 1369.5,-87.5 1369.5,-68.5 1176.5,-68.5"/>
<text text-anchor="middle" x="1273" y="-75.5" font-family="Helvetica,sans-Serif" font-size="10.00">MemoryResources/MemoryResources.h</text>
</a>
</g>
</g>
<!-- Node9&#45;&gt;Node10 -->
<g id="edge10" class="edge"><title>Node9&#45;&gt;Node10</title>
<path fill="none" stroke="midnightblue" d="M947.406,-180.46C1010.09,-160.926 1164.01,-112.963 1235.45,-90.7018"/>
<polygon fill="midnightblue" stroke="midnightblue" points="1236.86,-93.927 1245.37,-87.6104 1234.78,-87.244 1236.86,-93.927"/>
</g>
<!-- Node18 -->
<g id="node18" class="node"><title>Node18</title>
<polygon fill="none" stroke="#bfbfbf" points="2172,-6.5 2172,-25.5 2212,-25.5 2212,-6.5 2172,-6.5"/>
<text text-anchor="middle" x="2192" y="-13.5" font-family="Helvetica,sans-Serif" font-size="10.00">utility</text>
</g>
<!-- Node9&#45;&gt;Node18 -->
<g id="edge37" class="edge"><title>Node9&#45;&gt;Node18</title>
<path fill="none" stroke="midnightblue" d="M972.165,-188.635C1145.41,-186.125 1715.9,-167.406 2162,-32 2163.96,-31.4038 2165.96,-30.6874 2167.93,-29.8952"/>
<polygon fill="midnightblue" stroke="midnightblue" points="2169.84,-32.8706 2177.46,-25.5081 2166.91,-26.5125 2169.84,-32.8706"/>
</g>
<!-- Node25 -->
<g id="node25" class="node"><title>Node25</title>
<g id="a_node25"><a xlink:href="../../dc/dcd/DataHeader_8h.html" target="_top" xlink:title="Headers/DataHeader.h">
<polygon fill="none" stroke="black" points="499.5,-68.5 499.5,-87.5 616.5,-87.5 616.5,-68.5 499.5,-68.5"/>
<text text-anchor="middle" x="558" y="-75.5" font-family="Helvetica,sans-Serif" font-size="10.00">Headers/DataHeader.h</text>
</a>
</g>
</g>
<!-- Node9&#45;&gt;Node25 -->
<g id="edge25" class="edge"><title>Node9&#45;&gt;Node25</title>
<path fill="none" stroke="midnightblue" d="M891.896,-180.46C827.481,-160.886 669.121,-112.766 596.06,-90.5653"/>
<polygon fill="midnightblue" stroke="midnightblue" points="596.922,-87.1691 586.336,-87.6104 594.886,-93.8667 596.922,-87.1691"/>
</g>
<!-- Node32 -->
<g id="node32" class="node"><title>Node32</title>
<g id="a_node32"><a xlink:href="../../d4/d00/Headers_2include_2Headers_2Stack_8h.html" target="_top" xlink:title="Headers/Stack.h">
<polygon fill="none" stroke="black" points="832,-124.5 832,-143.5 922,-143.5 922,-124.5 832,-124.5"/>
<text text-anchor="middle" x="877" y="-131.5" font-family="Helvetica,sans-Serif" font-size="10.00">Headers/Stack.h</text>
</a>
</g>
</g>
<!-- Node9&#45;&gt;Node32 -->
<g id="edge34" class="edge"><title>Node9&#45;&gt;Node32</title>
<path fill="none" stroke="midnightblue" d="M912.899,-180.083C906.763,-172.377 897.73,-161.033 890.261,-151.653"/>
<polygon fill="midnightblue" stroke="midnightblue" points="892.936,-149.394 883.968,-143.751 887.46,-153.754 892.936,-149.394"/>
</g>
<!-- Node33 -->
<g id="node33" class="node"><title>Node33</title>
<polygon fill="none" stroke="#bfbfbf" points="940.5,-124.5 940.5,-143.5 985.5,-143.5 985.5,-124.5 940.5,-124.5"/>
<text text-anchor="middle" x="963" y="-131.5" font-family="Helvetica,sans-Serif" font-size="10.00">gsl/gsl</text>
</g>
<!-- Node9&#45;&gt;Node33 -->
<g id="edge38" class="edge"><title>Node9&#45;&gt;Node33</title>
<path fill="none" stroke="midnightblue" d="M927.101,-180.083C933.237,-172.377 942.27,-161.033 949.739,-151.653"/>
<polygon fill="midnightblue" stroke="midnightblue" points="952.54,-153.754 956.032,-143.751 947.064,-149.394 952.54,-153.754"/>
</g>
<!-- Node11 -->
<g id="node11" class="node"><title>Node11</title>
<polygon fill="none" stroke="#bfbfbf" points="1452,-1 1452,-31 1552,-31 1552,-1 1452,-1"/>
<text text-anchor="start" x="1460" y="-19" font-family="Helvetica,sans-Serif" font-size="10.00">boost/container/flat</text>
<text text-anchor="middle" x="1502" y="-8" font-family="Helvetica,sans-Serif" font-size="10.00">_map.hpp</text>
</g>
<!-- Node10&#45;&gt;Node11 -->
<g id="edge11" class="edge"><title>Node10&#45;&gt;Node11</title>
<path fill="none" stroke="midnightblue" d="M1305.81,-68.4035C1341.26,-59.1144 1398.52,-44.1128 1442.05,-32.7076"/>
<polygon fill="midnightblue" stroke="midnightblue" points="1443.17,-36.0325 1451.96,-30.1122 1441.39,-29.2611 1443.17,-36.0325"/>
</g>
<!-- Node12 -->
<g id="node12" class="node"><title>Node12</title>
<polygon fill="none" stroke="#bfbfbf" points="1570,-1 1570,-31 1686,-31 1686,-1 1570,-1"/>
<text text-anchor="start" x="1578" y="-19" font-family="Helvetica,sans-Serif" font-size="10.00">boost/container/pmr</text>
<text text-anchor="middle" x="1628" y="-8" font-family="Helvetica,sans-Serif" font-size="10.00">/memory_resource.hpp</text>
</g>
<!-- Node10&#45;&gt;Node12 -->
<g id="edge12" class="edge"><title>Node10&#45;&gt;Node12</title>
<path fill="none" stroke="midnightblue" d="M1335.28,-68.4659C1391.52,-60.4871 1476.77,-47.7203 1560.06,-32.1087"/>
<polygon fill="midnightblue" stroke="midnightblue" points="1560.77,-35.5372 1569.94,-30.2411 1559.47,-28.659 1560.77,-35.5372"/>
</g>
<!-- Node13 -->
<g id="node13" class="node"><title>Node13</title>
<polygon fill="none" stroke="#bfbfbf" points="1704,-1 1704,-31 1860,-31 1860,-1 1704,-1"/>
<text text-anchor="start" x="1712" y="-19" font-family="Helvetica,sans-Serif" font-size="10.00">boost/container/pmr</text>
<text text-anchor="middle" x="1782" y="-8" font-family="Helvetica,sans-Serif" font-size="10.00">/monotonic_buffer_resource.hpp</text>
</g>
<!-- Node10&#45;&gt;Node13 -->
<g id="edge13" class="edge"><title>Node10&#45;&gt;Node13</title>
<path fill="none" stroke="midnightblue" d="M1368.93,-68.4635C1452.06,-60.6688 1575.79,-48.1171 1693.88,-31.9562"/>
<polygon fill="midnightblue" stroke="midnightblue" points="1694.4,-35.4181 1703.83,-30.5847 1693.44,-28.4838 1694.4,-35.4181"/>
</g>
<!-- Node14 -->
<g id="node14" class="node"><title>Node14</title>
<polygon fill="none" stroke="#bfbfbf" points="1878.5,-1 1878.5,-31 2011.5,-31 2011.5,-1 1878.5,-1"/>
<text text-anchor="start" x="1886.5" y="-19" font-family="Helvetica,sans-Serif" font-size="10.00">boost/container/pmr</text>
<text text-anchor="middle" x="1945" y="-8" font-family="Helvetica,sans-Serif" font-size="10.00">/polymorphic_allocator.hpp</text>
</g>
<!-- Node10&#45;&gt;Node14 -->
<g id="edge14" class="edge"><title>Node10&#45;&gt;Node14</title>
<path fill="none" stroke="midnightblue" d="M1369.63,-73.2573C1485.69,-67.9596 1686.4,-56.2474 1868.33,-31.9755"/>
<polygon fill="midnightblue" stroke="midnightblue" points="1868.91,-35.4291 1878.35,-30.623 1867.97,-28.492 1868.91,-35.4291"/>
</g>
<!-- Node15 -->
<g id="node15" class="node"><title>Node15</title>
<polygon fill="none" stroke="#bfbfbf" points="634,-6.5 634,-25.5 680,-25.5 680,-6.5 634,-6.5"/>
<text text-anchor="middle" x="657" y="-13.5" font-family="Helvetica,sans-Serif" font-size="10.00">cstring</text>
</g>
<!-- Node10&#45;&gt;Node15 -->
<g id="edge15" class="edge"><title>Node10&#45;&gt;Node15</title>
<path fill="none" stroke="midnightblue" d="M1176.28,-73.6174C1034.98,-67.9806 779.22,-54.9557 690,-32 687.494,-31.3551 684.941,-30.5303 682.421,-29.6"/>
<polygon fill="midnightblue" stroke="midnightblue" points="683.611,-26.3036 673.037,-25.6471 680.894,-32.7547 683.611,-26.3036"/>
</g>
<!-- Node16 -->
<g id="node16" class="node"><title>Node16</title>
<polygon fill="none" stroke="#bfbfbf" points="698.5,-6.5 698.5,-25.5 739.5,-25.5 739.5,-6.5 698.5,-6.5"/>
<text text-anchor="middle" x="719" y="-13.5" font-family="Helvetica,sans-Serif" font-size="10.00">string</text>
</g>
<!-- Node10&#45;&gt;Node16 -->
<g id="edge16" class="edge"><title>Node10&#45;&gt;Node16</title>
<path fill="none" stroke="midnightblue" d="M1176.32,-73.05C1047.5,-67.0383 826.778,-53.9162 749,-32 747.024,-31.4433 745.024,-30.7555 743.043,-29.9833"/>
<polygon fill="midnightblue" stroke="midnightblue" points="744.057,-26.5992 733.507,-25.6345 741.153,-32.9682 744.057,-26.5992"/>
</g>
<!-- Node17 -->
<g id="node17" class="node"><title>Node17</title>
<polygon fill="none" stroke="#bfbfbf" points="2030,-6.5 2030,-25.5 2092,-25.5 2092,-6.5 2030,-6.5"/>
<text text-anchor="middle" x="2061" y="-13.5" font-family="Helvetica,sans-Serif" font-size="10.00">type_traits</text>
</g>
<!-- Node10&#45;&gt;Node17 -->
<g id="edge17" class="edge"><title>Node10&#45;&gt;Node17</title>
<path fill="none" stroke="midnightblue" d="M1369.53,-74.6655C1542.5,-69.9034 1898.53,-57.3122 2020,-32 2023.9,-31.1882 2027.92,-30.0785 2031.85,-28.8273"/>
<polygon fill="midnightblue" stroke="midnightblue" points="2033.04,-32.1203 2041.32,-25.5144 2030.73,-25.513 2033.04,-32.1203"/>
</g>
<!-- Node10&#45;&gt;Node18 -->
<g id="edge18" class="edge"><title>Node10&#45;&gt;Node18</title>
<path fill="none" stroke="midnightblue" d="M1369.81,-77.0979C1568.26,-76.4825 2014.88,-70.6831 2162,-32 2164.2,-31.4225 2166.42,-30.6728 2168.61,-29.8169"/>
<polygon fill="midnightblue" stroke="midnightblue" points="2170.2,-32.9394 2177.83,-25.5881 2167.28,-26.5771 2170.2,-32.9394"/>
</g>
<!-- Node19 -->
<g id="node19" class="node"><title>Node19</title>
<polygon fill="none" stroke="#bfbfbf" points="2110,-6.5 2110,-25.5 2154,-25.5 2154,-6.5 2110,-6.5"/>
<text text-anchor="middle" x="2132" y="-13.5" font-family="Helvetica,sans-Serif" font-size="10.00">vector</text>
</g>
<!-- Node10&#45;&gt;Node19 -->
<g id="edge19" class="edge"><title>Node10&#45;&gt;Node19</title>
<path fill="none" stroke="midnightblue" d="M1369.77,-76.3607C1557.46,-74.3603 1964.39,-66.1006 2100,-32 2102.5,-31.3716 2105.04,-30.5456 2107.54,-29.6038"/>
<polygon fill="midnightblue" stroke="midnightblue" points="2109.04,-32.767 2116.82,-25.5706 2106.25,-26.3472 2109.04,-32.767"/>
</g>
<!-- Node20 -->
<g id="node20" class="node"><title>Node20</title>
<polygon fill="none" stroke="#bfbfbf" points="757.5,-6.5 757.5,-25.5 840.5,-25.5 840.5,-6.5 757.5,-6.5"/>
<text text-anchor="middle" x="799" y="-13.5" font-family="Helvetica,sans-Serif" font-size="10.00">unordered_map</text>
</g>
<!-- Node10&#45;&gt;Node20 -->
<g id="edge20" class="edge"><title>Node10&#45;&gt;Node20</title>
<path fill="none" stroke="midnightblue" d="M1176.5,-71.6956C1090.28,-65.7826 960.83,-54.0072 850,-32 844.925,-30.9923 839.627,-29.7065 834.447,-28.3129"/>
<polygon fill="midnightblue" stroke="midnightblue" points="835.297,-24.9158 824.72,-25.5446 833.38,-31.6484 835.297,-24.9158"/>
</g>
<!-- Node21 -->
<g id="node21" class="node"><title>Node21</title>
<polygon fill="none" stroke="#bfbfbf" points="858.5,-6.5 858.5,-25.5 955.5,-25.5 955.5,-6.5 858.5,-6.5"/>
<text text-anchor="middle" x="907" y="-13.5" font-family="Helvetica,sans-Serif" font-size="10.00">FairMQMessage.h</text>
</g>
<!-- Node10&#45;&gt;Node21 -->
<g id="edge21" class="edge"><title>Node10&#45;&gt;Node21</title>
<path fill="none" stroke="midnightblue" d="M1199.18,-68.489C1136.55,-60.725 1044.46,-48.0307 965,-32 959.252,-30.8404 953.224,-29.4641 947.316,-28.0228"/>
<polygon fill="midnightblue" stroke="midnightblue" points="948.112,-24.614 937.56,-25.5626 946.4,-31.4016 948.112,-24.614"/>
</g>
<!-- Node22 -->
<g id="node22" class="node"><title>Node22</title>
<polygon fill="none" stroke="#bfbfbf" points="973.5,-6.5 973.5,-25.5 1104.5,-25.5 1104.5,-6.5 973.5,-6.5"/>
<text text-anchor="middle" x="1039" y="-13.5" font-family="Helvetica,sans-Serif" font-size="10.00">FairMQTransportFactory.h</text>
</g>
<!-- Node10&#45;&gt;Node22 -->
<g id="edge22" class="edge"><title>Node10&#45;&gt;Node22</title>
<path fill="none" stroke="midnightblue" d="M1239.47,-68.4035C1198.12,-57.7995 1127.73,-39.7511 1082.32,-28.1067"/>
<polygon fill="midnightblue" stroke="midnightblue" points="1083.02,-24.6741 1072.46,-25.5806 1081.28,-31.4547 1083.02,-24.6741"/>
</g>
<!-- Node23 -->
<g id="node23" class="node"><title>Node23</title>
<polygon fill="none" stroke="#bfbfbf" points="1122.5,-6.5 1122.5,-25.5 1259.5,-25.5 1259.5,-6.5 1122.5,-6.5"/>
<text text-anchor="middle" x="1191" y="-13.5" font-family="Helvetica,sans-Serif" font-size="10.00">fairmq/MemoryResources.h</text>
</g>
<!-- Node10&#45;&gt;Node23 -->
<g id="edge23" class="edge"><title>Node10&#45;&gt;Node23</title>
<path fill="none" stroke="midnightblue" d="M1261.25,-68.4035C1248.1,-58.7797 1226.57,-43.0242 1210.8,-31.4891"/>
<polygon fill="midnightblue" stroke="midnightblue" points="1212.86,-28.6611 1202.73,-25.5806 1208.73,-34.3103 1212.86,-28.6611"/>
</g>
<!-- Node24 -->
<g id="node24" class="node"><title>Node24</title>
<polygon fill="none" stroke="#bfbfbf" points="1278,-6.5 1278,-25.5 1434,-25.5 1434,-6.5 1278,-6.5"/>
<text text-anchor="middle" x="1356" y="-13.5" font-family="Helvetica,sans-Serif" font-size="10.00">fairmq/MemoryResourceTools.h</text>
</g>
<!-- Node10&#45;&gt;Node24 -->
<g id="edge24" class="edge"><title>Node10&#45;&gt;Node24</title>
<path fill="none" stroke="midnightblue" d="M1284.89,-68.4035C1298.2,-58.7797 1320,-43.0242 1335.96,-31.4891"/>
<polygon fill="midnightblue" stroke="midnightblue" points="1338.08,-34.2756 1344.13,-25.5806 1333.98,-28.6026 1338.08,-34.2756"/>
</g>
<!-- Node25&#45;&gt;Node15 -->
<g id="edge29" class="edge"><title>Node25&#45;&gt;Node15</title>
<path fill="none" stroke="midnightblue" d="M572.184,-68.4035C588.358,-58.6014 615.026,-42.4385 634.143,-30.8526"/>
<polygon fill="midnightblue" stroke="midnightblue" points="636.104,-33.7569 642.842,-25.5806 632.476,-27.7705 636.104,-33.7569"/>
</g>
<!-- Node25&#45;&gt;Node16 -->
<g id="edge32" class="edge"><title>Node25&#45;&gt;Node16</title>
<path fill="none" stroke="midnightblue" d="M586.258,-68.4893C613.066,-60.1361 654.297,-46.5606 689,-32 690.41,-31.4086 691.845,-30.7808 693.287,-30.1302"/>
<polygon fill="midnightblue" stroke="midnightblue" points="695.159,-33.1155 702.679,-25.652 692.146,-26.7971 695.159,-33.1155"/>
</g>
<!-- Node26 -->
<g id="node26" class="node"><title>Node26</title>
<polygon fill="none" stroke="#bfbfbf" points="502,-6.5 502,-25.5 548,-25.5 548,-6.5 502,-6.5"/>
<text text-anchor="middle" x="525" y="-13.5" font-family="Helvetica,sans-Serif" font-size="10.00">cstdint</text>
</g>
<!-- Node25&#45;&gt;Node26 -->
<g id="edge26" class="edge"><title>Node25&#45;&gt;Node26</title>
<path fill="none" stroke="midnightblue" d="M553.272,-68.4035C548.42,-59.5816 540.734,-45.6075 534.6,-34.4548"/>
<polygon fill="midnightblue" stroke="midnightblue" points="537.605,-32.656 529.719,-25.5806 531.472,-36.0295 537.605,-32.656"/>
</g>
<!-- Node27 -->
<g id="node27" class="node"><title>Node27</title>
<polygon fill="none" stroke="#bfbfbf" points="202,-6.5 202,-25.5 254,-25.5 254,-6.5 202,-6.5"/>
<text text-anchor="middle" x="228" y="-13.5" font-family="Helvetica,sans-Serif" font-size="10.00">memory</text>
</g>
<!-- Node25&#45;&gt;Node27 -->
<g id="edge27" class="edge"><title>Node25&#45;&gt;Node27</title>
<path fill="none" stroke="midnightblue" d="M499.412,-72.4696C439.206,-66.7956 343.205,-54.9013 263,-32 260.35,-31.2433 257.635,-30.3353 254.946,-29.3454"/>
<polygon fill="midnightblue" stroke="midnightblue" points="256.071,-26.0249 245.488,-25.5247 253.449,-32.5153 256.071,-26.0249"/>
</g>
<!-- Node28 -->
<g id="node28" class="node"><title>Node28</title>
<polygon fill="none" stroke="#bfbfbf" points="566.5,-6.5 566.5,-25.5 615.5,-25.5 615.5,-6.5 566.5,-6.5"/>
<text text-anchor="middle" x="591" y="-13.5" font-family="Helvetica,sans-Serif" font-size="10.00">cassert</text>
</g>
<!-- Node25&#45;&gt;Node28 -->
<g id="edge28" class="edge"><title>Node25&#45;&gt;Node28</title>
<path fill="none" stroke="midnightblue" d="M562.728,-68.4035C567.58,-59.5816 575.266,-45.6075 581.4,-34.4548"/>
<polygon fill="midnightblue" stroke="midnightblue" points="584.528,-36.0295 586.281,-25.5806 578.395,-32.656 584.528,-36.0295"/>
</g>
<!-- Node29 -->
<g id="node29" class="node"><title>Node29</title>
<polygon fill="none" stroke="#bfbfbf" points="272,-6.5 272,-25.5 328,-25.5 328,-6.5 272,-6.5"/>
<text text-anchor="middle" x="300" y="-13.5" font-family="Helvetica,sans-Serif" font-size="10.00">algorithm</text>
</g>
<!-- Node25&#45;&gt;Node29 -->
<g id="edge30" class="edge"><title>Node25&#45;&gt;Node29</title>
<path fill="none" stroke="midnightblue" d="M502.646,-68.4291C457.758,-60.8238 393.121,-48.3804 338,-32 335.196,-31.1666 332.308,-30.2123 329.438,-29.1977"/>
<polygon fill="midnightblue" stroke="midnightblue" points="330.478,-25.8499 319.886,-25.6041 328.013,-32.4015 330.478,-25.8499"/>
</g>
<!-- Node25&#45;&gt;Node30 -->
<g id="edge31" class="edge"><title>Node25&#45;&gt;Node30</title>
<path fill="none" stroke="midnightblue" d="M499.354,-74.1869C426.567,-69.6912 299.076,-58.5126 193,-32 189.763,-31.1908 186.429,-30.1882 183.139,-29.0876"/>
<polygon fill="midnightblue" stroke="midnightblue" points="184.132,-25.7242 173.538,-25.5882 181.735,-32.301 184.132,-25.7242"/>
</g>
<!-- Node31 -->
<g id="node31" class="node"><title>Node31</title>
<g id="a_node31"><a xlink:href="../../d7/df8/Types_8h.html" target="_top" xlink:title="MemoryResources/Types.h">
<polygon fill="none" stroke="black" points="346.5,-6.5 346.5,-25.5 483.5,-25.5 483.5,-6.5 346.5,-6.5"/>
<text text-anchor="middle" x="415" y="-13.5" font-family="Helvetica,sans-Serif" font-size="10.00">MemoryResources/Types.h</text>
</a>
</g>
</g>
<!-- Node25&#45;&gt;Node31 -->
<g id="edge33" class="edge"><title>Node25&#45;&gt;Node31</title>
<path fill="none" stroke="midnightblue" d="M537.512,-68.4035C513.194,-58.2004 472.451,-41.1055 444.683,-29.4544"/>
<polygon fill="midnightblue" stroke="midnightblue" points="446.026,-26.2223 435.45,-25.5806 443.317,-32.6771 446.026,-26.2223"/>
</g>
<!-- Node32&#45;&gt;Node10 -->
<g id="edge35" class="edge"><title>Node32&#45;&gt;Node10</title>
<path fill="none" stroke="midnightblue" d="M922.005,-125.519C925.386,-124.993 928.746,-124.481 932,-124 1021.52,-110.772 1124.56,-97.4353 1193.73,-88.7546"/>
<polygon fill="midnightblue" stroke="midnightblue" points="1194.2,-92.2235 1203.68,-87.5082 1193.33,-85.2778 1194.2,-92.2235"/>
</g>
<!-- Node32&#45;&gt;Node25 -->
<g id="edge36" class="edge"><title>Node32&#45;&gt;Node25</title>
<path fill="none" stroke="midnightblue" d="M831.972,-125.378C776.089,-115.918 680.582,-99.7506 618.386,-89.222"/>
<polygon fill="midnightblue" stroke="midnightblue" points="618.764,-85.7364 608.32,-87.5182 617.596,-92.6382 618.764,-85.7364"/>
</g>
</g>
</svg>
        <g id="navigator" transform="translate(0 0)" fill="#404254">
                <rect fill="#f2f5e9" fill-opacity="0.5" stroke="#606060" stroke-width=".5" x="0" y="0" width="60" height="60"/>
                <use id="zoomplus" xlink:href="#zoomPlus" x="17" y="9" onmousedown="handleZoom(evt,'in')"/>
                <use id="zoomminus" xlink:href="#zoomMin" x="42" y="9" onmousedown="handleZoom(evt,'out')"/>
                <use id="reset" xlink:href="#resetDef" x="30" y="36" onmousedown="handleReset()"/>
                <g id="arrowUp" xlink:href="#dirArrow" transform="translate(30 24)" onmousedown="handlePan(0,-1)">
                  <use xlink:href="#rim" fill="#404040">
                        <set attributeName="fill" to="#808080" begin="arrowUp.mouseover" end="arrowUp.mouseout"/>
                  </use>
                  <path fill="none" stroke="white" stroke-width="1.5" d="M0,-3.0v7 M-2.5,-0.5L0,-3.0L2.5,-0.5"/>
                </g>
                <g id="arrowRight" xlink:href="#dirArrow" transform="rotate(90) translate(36 -43)" onmousedown="handlePan(1,0)">
                  <use xlink:href="#rim" fill="#404040">
                        <set attributeName="fill" to="#808080" begin="arrowRight.mouseover" end="arrowRight.mouseout"/>
                  </use>
                  <path fill="none" stroke="white" stroke-width="1.5" d="M0,-3.0v7 M-2.5,-0.5L0,-3.0L2.5,-0.5"/>
                </g>
                <g id="arrowDown" xlink:href="#dirArrow" transform="rotate(180) translate(-30 -48)" onmousedown="handlePan(0,1)">
                  <use xlink:href="#rim" fill="#404040">
                        <set attributeName="fill" to="#808080" begin="arrowDown.mouseover" end="arrowDown.mouseout"/>
                  </use>
                  <path fill="none" stroke="white" stroke-width="1.5" d="M0,-3.0v7 M-2.5,-0.5L0,-3.0L2.5,-0.5"/>
                </g>
                <g id="arrowLeft" xlink:href="#dirArrow" transform="rotate(270) translate(-36 17)" onmousedown="handlePan(-1,0)">
                  <use xlink:href="#rim" fill="#404040">
                        <set attributeName="fill" to="#808080" begin="arrowLeft.mouseover" end="arrowLeft.mouseout"/>
                  </use>
                  <path fill="none" stroke="white" stroke-width="1.5" d="M0,-3.0v7 M-2.5,-0.5L0,-3.0L2.5,-0.5"/>
                </g>
        </g>
        <svg viewBox="0 0 15 15" width="100%" height="30px" preserveAspectRatio="xMaxYMin meet">
         <g id="arrow_out" transform="scale(0.3 0.3)">
          <a xlink:href="O2MessageMonitor_8cxx__incl_org.svg" target="_base">
           <rect id="button" ry="5" rx="5" y="6" x="6" height="38" width="38"
                fill="#f2f5e9" fill-opacity="0.5" stroke="#606060" stroke-width="1.0"/>
           <path id="arrow"
             d="M 11.500037,31.436501 C 11.940474,20.09759 22.043105,11.32322 32.158766,21.979434 L 37.068811,17.246167 C 37.068811,17.246167 37.088388,32 37.088388,32 L 22.160133,31.978069 C 22.160133,31.978069 26.997745,27.140456 26.997745,27.140456 C 18.528582,18.264221 13.291696,25.230495 11.500037,31.436501 z"
             style="fill:#404040;"/>
          </a>
         </g>
        </svg>
</svg>
