<?xml version="1.0" encoding="UTF-8" standalone="no"?>
<!DOCTYPE svg PUBLIC "-//W3C//DTD SVG 1.1//EN"
 "http://www.w3.org/Graphics/SVG/1.1/DTD/svg11.dtd">
<!-- Generated by graphviz version 2.36.0 (20140111.2315)
 -->
<!-- Title: o2::Devices::EPNReceiver Pages: 1 -->
<svg width="600pt" height="262pt"
 viewBox="0.00 0.00 600.00 262.00" xmlns="http://www.w3.org/2000/svg" xmlns:xlink="http://www.w3.org/1999/xlink">
<g id="graph0" class="graph" transform="scale(1 1) rotate(0) translate(4 258)">
<title>o2::Devices::EPNReceiver</title>
<!-- Node1 -->
<g id="node1" class="node"><title>Node1</title>
<polygon fill="#bfbfbf" stroke="black" points="197.5,-1 197.5,-113 362.5,-113 362.5,-1 197.5,-1"/>
<text text-anchor="middle" x="280" y="-101" font-family="Helvetica,sans-Serif" font-size="10.00">o2::Devices::EPNReceiver</text>
<polyline fill="none" stroke="black" points="197.5,-94 362.5,-94 "/>
<text text-anchor="middle" x="280" y="-82" font-family="Helvetica,sans-Serif" font-size="10.00"> </text>
<polyline fill="none" stroke="black" points="197.5,-75 362.5,-75 "/>
<text text-anchor="start" x="205.5" y="-63" font-family="Helvetica,sans-Serif" font-size="10.00">+ EPNReceiver()</text>
<text text-anchor="start" x="205.5" y="-52" font-family="Helvetica,sans-Serif" font-size="10.00">+ ~EPNReceiver()</text>
<text text-anchor="start" x="205.5" y="-41" font-family="Helvetica,sans-Serif" font-size="10.00">+ InitTask()</text>
<text text-anchor="start" x="205.5" y="-30" font-family="Helvetica,sans-Serif" font-size="10.00">+ PrintBuffer()</text>
<text text-anchor="start" x="205.5" y="-19" font-family="Helvetica,sans-Serif" font-size="10.00">+ DiscardIncompleteTimeframes()</text>
<text text-anchor="start" x="205.5" y="-8" font-family="Helvetica,sans-Serif" font-size="10.00"># Run()</text>
</g>
<!-- Node2 -->
<g id="node2" class="node"><title>Node2</title>
<g id="a_node2"><a xlink:href="../../db/dfe/classFairMQDevice.html" target="_top" xlink:title="{FairMQDevice\n||}">
<polygon fill="none" stroke="black" points="0,-190.5 0,-247.5 80,-247.5 80,-190.5 0,-190.5"/>
<text text-anchor="middle" x="40" y="-235.5" font-family="Helvetica,sans-Serif" font-size="10.00">FairMQDevice</text>
<polyline fill="none" stroke="black" points="0,-228.5 80,-228.5 "/>
<text text-anchor="middle" x="40" y="-216.5" font-family="Helvetica,sans-Serif" font-size="10.00"> </text>
<polyline fill="none" stroke="black" points="0,-209.5 80,-209.5 "/>
<text text-anchor="middle" x="40" y="-197.5" font-family="Helvetica,sans-Serif" font-size="10.00"> </text>
</a>
</g>
</g>
<!-- Node2&#45;&gt;Node1 -->
<g id="edge1" class="edge"><title>Node2&#45;&gt;Node1</title>
<path fill="none" stroke="midnightblue" d="M87.8378,-184.787C88.2266,-184.524 88.6141,-184.261 89,-184 124.369,-160.068 163.713,-134.017 197.457,-111.847"/>
<polygon fill="none" stroke="midnightblue" points="85.8151,-181.93 79.5256,-190.456 89.7592,-187.713 85.8151,-181.93"/>
</g>
<!-- Node3 -->
<g id="node3" class="node"><title>Node3</title>
<polygon fill="none" stroke="#bfbfbf" points="98.5,-185 98.5,-253 235.5,-253 235.5,-185 98.5,-185"/>
<text text-anchor="start" x="106.5" y="-241" font-family="Helvetica,sans-Serif" font-size="10.00">unordered_map&lt; uint16</text>
<text text-anchor="middle" x="167" y="-230" font-family="Helvetica,sans-Serif" font-size="10.00">_t, o2::Devices::TFBuffer &gt;</text>
<polyline fill="none" stroke="#bfbfbf" points="98.5,-223 235.5,-223 "/>
<text text-anchor="middle" x="167" y="-211" font-family="Helvetica,sans-Serif" font-size="10.00"> </text>
<polyline fill="none" stroke="#bfbfbf" points="98.5,-204 235.5,-204 "/>
<text text-anchor="middle" x="167" y="-192" font-family="Helvetica,sans-Serif" font-size="10.00"> </text>
</g>
<!-- Node3&#45;&gt;Node1 -->
<g id="edge2" class="edge"><title>Node3&#45;&gt;Node1</title>
<path fill="none" stroke="#404040" d="M169.014,-184.965C171.3,-168.071 176.08,-147.799 186,-132 188.098,-128.658 190.403,-125.404 192.872,-122.244"/>
<polygon fill="none" stroke="#404040" points="192.932,-122.174 193.79,-115.014 200.729,-113.051 199.871,-120.211 192.932,-122.174"/>
<text text-anchor="middle" x="231" y="-146.5" font-family="Helvetica,sans-Serif" font-size="10.00"> #mTimeframeBuffer</text>
</g>
<!-- Node4 -->
<g id="node4" class="node"><title>Node4</title>
<polygon fill="none" stroke="#bfbfbf" points="262.5,-190.5 262.5,-247.5 297.5,-247.5 297.5,-190.5 262.5,-190.5"/>
<text text-anchor="middle" x="280" y="-235.5" font-family="Helvetica,sans-Serif" font-size="10.00">char</text>
<polyline fill="none" stroke="#bfbfbf" points="262.5,-228.5 297.5,-228.5 "/>
<text text-anchor="middle" x="280" y="-216.5" font-family="Helvetica,sans-Serif" font-size="10.00"> </text>
<polyline fill="none" stroke="#bfbfbf" points="262.5,-209.5 297.5,-209.5 "/>
<text text-anchor="middle" x="280" y="-197.5" font-family="Helvetica,sans-Serif" font-size="10.00"> </text>
</g>
<!-- Node4&#45;&gt;Node1 -->
<g id="edge3" class="edge"><title>Node4&#45;&gt;Node1</title>
<path fill="none" stroke="#404040" d="M280,-190.495C280,-172.545 280,-148.283 280,-125.426"/>
<polygon fill="none" stroke="#404040" points="280,-125.283 276,-119.283 280,-113.283 284,-119.283 280,-125.283"/>
<text text-anchor="middle" x="328.5" y="-157.5" font-family="Helvetica,sans-Serif" font-size="10.00"> #mAckChannelName</text>
<text text-anchor="middle" x="328.5" y="-146.5" font-family="Helvetica,sans-Serif" font-size="10.00">#mOutChannelName</text>
<text text-anchor="middle" x="328.5" y="-135.5" font-family="Helvetica,sans-Serif" font-size="10.00">#mInChannelName</text>
</g>
<!-- Node5 -->
<g id="node5" class="node"><title>Node5</title>
<polygon fill="none" stroke="#bfbfbf" points="385.5,-190.5 385.5,-247.5 414.5,-247.5 414.5,-190.5 385.5,-190.5"/>
<text text-anchor="middle" x="400" y="-235.5" font-family="Helvetica,sans-Serif" font-size="10.00">int</text>
<polyline fill="none" stroke="#bfbfbf" points="385.5,-228.5 414.5,-228.5 "/>
<text text-anchor="middle" x="400" y="-216.5" font-family="Helvetica,sans-Serif" font-size="10.00"> </text>
<polyline fill="none" stroke="#bfbfbf" points="385.5,-209.5 414.5,-209.5 "/>
<text text-anchor="middle" x="400" y="-197.5" font-family="Helvetica,sans-Serif" font-size="10.00"> </text>
</g>
<!-- Node5&#45;&gt;Node1 -->
<g id="edge4" class="edge"><title>Node5&#45;&gt;Node1</title>
<path fill="none" stroke="#404040" d="M397.627,-190.132C395.015,-172.289 389.528,-149.32 378,-132 375.815,-128.717 373.433,-125.521 370.896,-122.419"/>
<polygon fill="none" stroke="#404040" points="370.837,-122.352 363.859,-120.533 362.855,-113.392 369.833,-115.212 370.837,-122.352"/>
<text text-anchor="middle" x="443" y="-157.5" font-family="Helvetica,sans-Serif" font-size="10.00"> #mBufferTimeoutInMs</text>
<text text-anchor="middle" x="443" y="-146.5" font-family="Helvetica,sans-Serif" font-size="10.00">#mNumFLPs</text>
<text text-anchor="middle" x="443" y="-135.5" font-family="Helvetica,sans-Serif" font-size="10.00">#mTestMode</text>
</g>
<!-- Node6 -->
<g id="node6" class="node"><title>Node6</title>
<polygon fill="none" stroke="#bfbfbf" points="457.5,-190.5 457.5,-247.5 588.5,-247.5 588.5,-190.5 457.5,-190.5"/>
<text text-anchor="middle" x="523" y="-235.5" font-family="Helvetica,sans-Serif" font-size="10.00">unordered_set&lt; uint16_t &gt;</text>
<polyline fill="none" stroke="#bfbfbf" points="457.5,-228.5 588.5,-228.5 "/>
<text text-anchor="middle" x="523" y="-216.5" font-family="Helvetica,sans-Serif" font-size="10.00"> </text>
<polyline fill="none" stroke="#bfbfbf" points="457.5,-209.5 588.5,-209.5 "/>
<text text-anchor="middle" x="523" y="-197.5" font-family="Helvetica,sans-Serif" font-size="10.00"> </text>
</g>
<!-- Node6&#45;&gt;Node1 -->
<g id="edge5" class="edge"><title>Node6&#45;&gt;Node1</title>
<path fill="none" stroke="#404040" d="M521.109,-190.303C518.431,-171.611 512.06,-147.597 497,-132 464.841,-98.6938 417.109,-80.3768 374.593,-70.3039"/>
<polygon fill="none" stroke="#404040" points="374.472,-70.277 367.747,-72.8813 362.757,-67.6758 369.481,-65.0715 374.472,-70.277"/>
<text text-anchor="middle" x="554" y="-146.5" font-family="Helvetica,sans-Serif" font-size="10.00"> #mDiscardedSet</text>
</g>
</g>
</svg>
