<?xml version="1.0" encoding="UTF-8" standalone="no"?>
<!DOCTYPE svg PUBLIC "-//W3C//DTD SVG 1.1//EN"
 "http://www.w3.org/Graphics/SVG/1.1/DTD/svg11.dtd">
<!-- Generated by graphviz version 2.36.0 (20140111.2315)
 -->
<!-- Title: /home/travis/build/AliceO2Group/AliceO2/Detectors/ITSMFT/ITS/tracking/cuda/include/ITStrackingCUDA/DeviceStoreNV.h Pages: 1 -->
<!--zoomable 408 -->
<svg id="main" version="1.1" xmlns="http://www.w3.org/2000/svg" xmlns:xlink="http://www.w3.org/1999/xlink" xml:space="preserve" onload="init(evt)">
<style type="text/css"><![CDATA[
.edge:hover path { stroke: red; }
.edge:hover polygon { stroke: red; fill: red; }
]]></style>
<script type="text/javascript"><![CDATA[
var edges = document.getElementsByTagName('g');
if (edges && edges.length) {
  for (var i=0;i<edges.length;i++) {
    if (edges[i].id.substr(0,4)=='edge') {
      edges[i].setAttribute('class','edge');
    }
  }
}
]]></script>
        <defs>
                <circle id="rim" cx="0" cy="0" r="7"/>
                <circle id="rim2" cx="0" cy="0" r="3.5"/>
                <g id="zoomPlus">
                        <use xlink:href="#rim" fill="#404040">
                                <set attributeName="fill" to="#808080" begin="zoomplus.mouseover" end="zoomplus.mouseout"/>
                        </use>
                        <path d="M-4,0h8M0,-4v8" fill="none" stroke="white" stroke-width="1.5" pointer-events="none"/>
                </g>
                <g id="zoomMin">
                        <use xlink:href="#rim" fill="#404040">
                                <set attributeName="fill" to="#808080" begin="zoomminus.mouseover" end="zoomminus.mouseout"/>
                        </use>
                        <path d="M-4,0h8" fill="none" stroke="white" stroke-width="1.5" pointer-events="none"/>
                </g>
                <g id="dirArrow">
                        <path fill="none" stroke="white" stroke-width="1.5" d="M0,-3.0v7 M-2.5,-0.5L0,-3.0L2.5,-0.5"/>
                </g>
               <g id="resetDef">
                       <use xlink:href="#rim2" fill="#404040">
                               <set attributeName="fill" to="#808080" begin="reset.mouseover" end="reset.mouseout"/>
                       </use>
               </g>
        </defs>

<script type="text/javascript">
var viewWidth = 1230;
var viewHeight = 408;
var sectionId = 'dynsection-0';
</script>
<script xlink:href="../../svgpan.js"/>
<svg id="graph" class="graph">
<g id="viewport">
<title>/home/travis/build/AliceO2Group/AliceO2/Detectors/ITSMFT/ITS/tracking/cuda/include/ITStrackingCUDA/DeviceStoreNV.h</title>
<!-- Node1 -->
<g id="node1" class="node"><title>Node1</title>
<polygon fill="#bfbfbf" stroke="black" points="548.5,-336.5 548.5,-399.5 727.5,-399.5 727.5,-336.5 548.5,-336.5"/>
<text text-anchor="start" x="556.5" y="-387.5" font-family="Helvetica,sans-Serif" font-size="10.00">/home/travis/build</text>
<text text-anchor="start" x="556.5" y="-376.5" font-family="Helvetica,sans-Serif" font-size="10.00">/AliceO2Group/AliceO2</text>
<text text-anchor="start" x="556.5" y="-365.5" font-family="Helvetica,sans-Serif" font-size="10.00">/Detectors/ITSMFT/ITS</text>
<text text-anchor="start" x="556.5" y="-354.5" font-family="Helvetica,sans-Serif" font-size="10.00">/tracking/cuda/include</text>
<text text-anchor="middle" x="638" y="-343.5" font-family="Helvetica,sans-Serif" font-size="10.00">/ITStrackingCUDA/DeviceStoreNV.h</text>
</g>
<!-- Node2 -->
<g id="node2" class="node"><title>Node2</title>
<g id="a_node2"><a xlink:href="../../d2/d56/Cell_8h.html" target="_top" xlink:title="ITStracking/Cell.h">
<polygon fill="none" stroke="black" points="276.5,-112.5 276.5,-131.5 371.5,-131.5 371.5,-112.5 276.5,-112.5"/>
<text text-anchor="middle" x="324" y="-119.5" font-family="Helvetica,sans-Serif" font-size="10.00">ITStracking/Cell.h</text>
</a>
</g>
</g>
<!-- Node1&#45;&gt;Node2 -->
<g id="edge1" class="edge"><title>Node1&#45;&gt;Node2</title>
<path fill="none" stroke="midnightblue" d="M548.483,-346.327C469.874,-322.78 360.819,-275.648 313,-188 305.05,-173.428 309.638,-154.505 315.11,-140.838"/>
<polygon fill="midnightblue" stroke="midnightblue" points="318.368,-142.126 319.273,-131.57 311.983,-139.258 318.368,-142.126"/>
</g>
<!-- Node5 -->
<g id="node5" class="node"><title>Node5</title>
<g id="a_node5"><a xlink:href="../../df/d3d/Definitions_8h.html" target="_top" xlink:title="ITStracking/Definitions.h">
<polygon fill="none" stroke="black" points="700.5,-56.5 700.5,-75.5 825.5,-75.5 825.5,-56.5 700.5,-56.5"/>
<text text-anchor="middle" x="763" y="-63.5" font-family="Helvetica,sans-Serif" font-size="10.00">ITStracking/Definitions.h</text>
</a>
</g>
</g>
<!-- Node1&#45;&gt;Node5 -->
<g id="edge29" class="edge"><title>Node1&#45;&gt;Node5</title>
<path fill="none" stroke="midnightblue" d="M708.099,-336.33C746.353,-314.376 786,-280.619 786,-235 786,-235 786,-235 786,-177 786,-144.12 776.032,-106.86 769.221,-85.2353"/>
<polygon fill="midnightblue" stroke="midnightblue" points="772.54,-84.1248 766.102,-75.7105 765.888,-86.3032 772.54,-84.1248"/>
</g>
<!-- Node7 -->
<g id="node7" class="node"><title>Node7</title>
<g id="a_node7"><a xlink:href="../../d3/d59/Configuration_8h.html" target="_top" xlink:title="ITStracking/Configuration.h">
<polygon fill="none" stroke="black" points="0,-168.5 0,-187.5 136,-187.5 136,-168.5 0,-168.5"/>
<text text-anchor="middle" x="68" y="-175.5" font-family="Helvetica,sans-Serif" font-size="10.00">ITStracking/Configuration.h</text>
</a>
</g>
</g>
<!-- Node1&#45;&gt;Node7 -->
<g id="edge7" class="edge"><title>Node1&#45;&gt;Node7</title>
<path fill="none" stroke="midnightblue" d="M548.34,-359.11C439.842,-348.532 264.316,-327.815 205,-300 151.567,-274.943 103.466,-222.434 81.1495,-195.582"/>
<polygon fill="midnightblue" stroke="midnightblue" points="83.6272,-193.082 74.5995,-187.537 78.1987,-197.501 83.6272,-193.082"/>
</g>
<!-- Node9 -->
<g id="node9" class="node"><title>Node9</title>
<g id="a_node9"><a xlink:href="../../d0/d86/Detectors_2ITSMFT_2ITS_2tracking_2include_2ITStracking_2Constants_8h.html" target="_top" xlink:title="ITStracking/Constants.h">
<polygon fill="none" stroke="black" points="96.5,-112.5 96.5,-131.5 219.5,-131.5 219.5,-112.5 96.5,-112.5"/>
<text text-anchor="middle" x="158" y="-119.5" font-family="Helvetica,sans-Serif" font-size="10.00">ITStracking/Constants.h</text>
</a>
</g>
</g>
<!-- Node1&#45;&gt;Node9 -->
<g id="edge28" class="edge"><title>Node1&#45;&gt;Node9</title>
<path fill="none" stroke="midnightblue" d="M548.494,-349.784C502.657,-339.008 446.799,-322.777 400,-300 306.883,-254.68 212.337,-172.898 174.824,-138.699"/>
<polygon fill="midnightblue" stroke="midnightblue" points="177.045,-135.988 167.316,-131.793 172.306,-141.139 177.045,-135.988"/>
</g>
<!-- Node10 -->
<g id="node10" class="node"><title>Node10</title>
<g id="a_node10"><a xlink:href="../../da/d7f/Detectors_2ITSMFT_2ITS_2tracking_2include_2ITStracking_2Cluster_8h.html" target="_top" xlink:title="ITStracking/Cluster.h">
<polygon fill="none" stroke="black" points="498,-224.5 498,-243.5 608,-243.5 608,-224.5 498,-224.5"/>
<text text-anchor="middle" x="553" y="-231.5" font-family="Helvetica,sans-Serif" font-size="10.00">ITStracking/Cluster.h</text>
</a>
</g>
</g>
<!-- Node1&#45;&gt;Node10 -->
<g id="edge15" class="edge"><title>Node1&#45;&gt;Node10</title>
<path fill="none" stroke="midnightblue" d="M636.398,-336.229C634.207,-318.512 629.216,-296.55 618,-280 608.954,-266.652 594.521,-256.078 581.551,-248.543"/>
<polygon fill="midnightblue" stroke="midnightblue" points="582.92,-245.303 572.463,-243.597 579.573,-251.451 582.92,-245.303"/>
</g>
<!-- Node15 -->
<g id="node15" class="node"><title>Node15</title>
<g id="a_node15"><a xlink:href="../../da/dc0/Tracklet_8h.html" target="_top" xlink:title="ITStracking/Tracklet.h">
<polygon fill="none" stroke="black" points="496.5,-280.5 496.5,-299.5 609.5,-299.5 609.5,-280.5 496.5,-280.5"/>
<text text-anchor="middle" x="553" y="-287.5" font-family="Helvetica,sans-Serif" font-size="10.00">ITStracking/Tracklet.h</text>
</a>
</g>
</g>
<!-- Node1&#45;&gt;Node15 -->
<g id="edge30" class="edge"><title>Node1&#45;&gt;Node15</title>
<path fill="none" stroke="midnightblue" d="M603.427,-336.088C592.052,-325.917 579.89,-315.043 570.361,-306.523"/>
<polygon fill="midnightblue" stroke="midnightblue" points="572.538,-303.774 562.751,-299.718 567.872,-308.993 572.538,-303.774"/>
</g>
<!-- Node16 -->
<g id="node16" class="node"><title>Node16</title>
<g id="a_node16"><a xlink:href="../../df/dd0/Array_8h.html" target="_top" xlink:title="ITStrackingCUDA/Array.h">
<polygon fill="none" stroke="black" points="626.5,-224.5 626.5,-243.5 757.5,-243.5 757.5,-224.5 626.5,-224.5"/>
<text text-anchor="middle" x="692" y="-231.5" font-family="Helvetica,sans-Serif" font-size="10.00">ITStrackingCUDA/Array.h</text>
</a>
</g>
</g>
<!-- Node1&#45;&gt;Node16 -->
<g id="edge32" class="edge"><title>Node1&#45;&gt;Node16</title>
<path fill="none" stroke="midnightblue" d="M650.524,-336.385C661.079,-310.584 675.824,-274.541 684.594,-253.104"/>
<polygon fill="midnightblue" stroke="midnightblue" points="687.931,-254.191 688.478,-243.61 681.452,-251.54 687.931,-254.191"/>
</g>
<!-- Node17 -->
<g id="node17" class="node"><title>Node17</title>
<g id="a_node17"><a xlink:href="../../da/db5/UniquePointer_8h.html" target="_top" xlink:title="ITStrackingCUDA/UniquePointer.h">
<polygon fill="none" stroke="black" points="899.5,-280.5 899.5,-299.5 1068.5,-299.5 1068.5,-280.5 899.5,-280.5"/>
<text text-anchor="middle" x="984" y="-287.5" font-family="Helvetica,sans-Serif" font-size="10.00">ITStrackingCUDA/UniquePointer.h</text>
</a>
</g>
</g>
<!-- Node1&#45;&gt;Node17 -->
<g id="edge34" class="edge"><title>Node1&#45;&gt;Node17</title>
<path fill="none" stroke="midnightblue" d="M727.554,-347.329C793.768,-332.785 881.427,-313.53 935.209,-301.717"/>
<polygon fill="midnightblue" stroke="midnightblue" points="936.154,-305.093 945.17,-299.529 934.652,-298.256 936.154,-305.093"/>
</g>
<!-- Node20 -->
<g id="node20" class="node"><title>Node20</title>
<g id="a_node20"><a xlink:href="../../d6/dbe/Vector_8h.html" target="_top" xlink:title="ITStrackingCUDA/Vector.h">
<polygon fill="none" stroke="black" points="863,-224.5 863,-243.5 999,-243.5 999,-224.5 863,-224.5"/>
<text text-anchor="middle" x="931" y="-231.5" font-family="Helvetica,sans-Serif" font-size="10.00">ITStrackingCUDA/Vector.h</text>
</a>
</g>
</g>
<!-- Node1&#45;&gt;Node20 -->
<g id="edge39" class="edge"><title>Node1&#45;&gt;Node20</title>
<path fill="none" stroke="midnightblue" d="M715.102,-336.371C742.124,-325.305 772.566,-312.461 800,-300 837.263,-283.074 879.542,-261.69 905.743,-248.175"/>
<polygon fill="midnightblue" stroke="midnightblue" points="907.359,-251.28 914.63,-243.574 904.14,-245.064 907.359,-251.28"/>
</g>
<!-- Node3 -->
<g id="node3" class="node"><title>Node3</title>
<polygon fill="none" stroke="#bfbfbf" points="508,-0.5 508,-19.5 546,-19.5 546,-0.5 508,-0.5"/>
<text text-anchor="middle" x="527" y="-7.5" font-family="Helvetica,sans-Serif" font-size="10.00">array</text>
</g>
<!-- Node2&#45;&gt;Node3 -->
<g id="edge2" class="edge"><title>Node2&#45;&gt;Node3</title>
<path fill="none" stroke="midnightblue" d="M339.929,-112.368C375.209,-93.2515 460.141,-47.229 502.343,-24.361"/>
<polygon fill="midnightblue" stroke="midnightblue" points="504.02,-27.433 511.145,-19.5914 500.685,-21.2784 504.02,-27.433"/>
</g>
<!-- Node4 -->
<g id="node4" class="node"><title>Node4</title>
<polygon fill="none" stroke="#bfbfbf" points="226,-56.5 226,-75.5 270,-75.5 270,-56.5 226,-56.5"/>
<text text-anchor="middle" x="248" y="-63.5" font-family="Helvetica,sans-Serif" font-size="10.00">vector</text>
</g>
<!-- Node2&#45;&gt;Node4 -->
<g id="edge3" class="edge"><title>Node2&#45;&gt;Node4</title>
<path fill="none" stroke="midnightblue" d="M311.789,-112.324C300.224,-104.107 282.625,-91.6017 268.839,-81.8069"/>
<polygon fill="midnightblue" stroke="midnightblue" points="270.612,-78.7729 260.433,-75.8339 266.557,-84.4791 270.612,-78.7729"/>
</g>
<!-- Node2&#45;&gt;Node5 -->
<g id="edge4" class="edge"><title>Node2&#45;&gt;Node5</title>
<path fill="none" stroke="midnightblue" d="M371.565,-113.346C374.756,-112.877 377.923,-112.424 381,-112 488.469,-97.1914 613.375,-83.0558 690.308,-74.7025"/>
<polygon fill="midnightblue" stroke="midnightblue" points="690.809,-78.1688 700.374,-73.6129 690.056,-71.2095 690.809,-78.1688"/>
</g>
<!-- Node5&#45;&gt;Node3 -->
<g id="edge5" class="edge"><title>Node5&#45;&gt;Node3</title>
<path fill="none" stroke="midnightblue" d="M725.605,-56.4435C678.537,-45.6737 598.694,-27.4044 555.986,-17.6325"/>
<polygon fill="midnightblue" stroke="midnightblue" points="556.748,-14.2163 546.219,-15.3976 555.186,-21.04 556.748,-14.2163"/>
</g>
<!-- Node6 -->
<g id="node6" class="node"><title>Node6</title>
<polygon fill="none" stroke="#bfbfbf" points="881,-0.5 881,-19.5 1015,-19.5 1015,-0.5 881,-0.5"/>
<text text-anchor="middle" x="948" y="-7.5" font-family="Helvetica,sans-Serif" font-size="10.00">AliTPCCommonDefGPU.h</text>
</g>
<!-- Node5&#45;&gt;Node6 -->
<g id="edge6" class="edge"><title>Node5&#45;&gt;Node6</title>
<path fill="none" stroke="midnightblue" d="M792.314,-56.4435C823.842,-47.2406 874.131,-32.5617 908.986,-22.3879"/>
<polygon fill="midnightblue" stroke="midnightblue" points="910.205,-25.6783 918.823,-19.5164 908.243,-18.9587 910.205,-25.6783"/>
</g>
<!-- Node7&#45;&gt;Node3 -->
<g id="edge8" class="edge"><title>Node7&#45;&gt;Node3</title>
<path fill="none" stroke="midnightblue" d="M62.6159,-168.443C57.4438,-159.678 49.9876,-145.467 47,-132 39.3839,-97.6701 40.9466,-77.2026 69,-56 103.216,-30.1395 402.251,-16.002 497.79,-12.1154"/>
<polygon fill="midnightblue" stroke="midnightblue" points="498.05,-15.6079 507.902,-11.7116 497.77,-8.61349 498.05,-15.6079"/>
</g>
<!-- Node7&#45;&gt;Node4 -->
<g id="edge10" class="edge"><title>Node7&#45;&gt;Node4</title>
<path fill="none" stroke="midnightblue" d="M68.012,-168.076C68.5294,-154.132 71.613,-127.206 87,-112 121.571,-77.8359 179.81,-69.1128 215.957,-67.1654"/>
<polygon fill="midnightblue" stroke="midnightblue" points="216.118,-70.6619 225.971,-66.7688 215.841,-63.6674 216.118,-70.6619"/>
</g>
<!-- Node8 -->
<g id="node8" class="node"><title>Node8</title>
<polygon fill="none" stroke="#bfbfbf" points="78.5,-56.5 78.5,-75.5 123.5,-75.5 123.5,-56.5 78.5,-56.5"/>
<text text-anchor="middle" x="101" y="-63.5" font-family="Helvetica,sans-Serif" font-size="10.00">climits</text>
</g>
<!-- Node7&#45;&gt;Node8 -->
<g id="edge9" class="edge"><title>Node7&#45;&gt;Node8</title>
<path fill="none" stroke="midnightblue" d="M62.8735,-168.268C56.0766,-155.481 45.8403,-131.109 54,-112 59.1467,-99.9469 69.2814,-89.5764 78.826,-81.8389"/>
<polygon fill="midnightblue" stroke="midnightblue" points="81.0398,-84.5532 86.9216,-75.7409 76.8282,-78.9619 81.0398,-84.5532"/>
</g>
<!-- Node7&#45;&gt;Node9 -->
<g id="edge11" class="edge"><title>Node7&#45;&gt;Node9</title>
<path fill="none" stroke="midnightblue" d="M82.4601,-168.324C96.4996,-159.9 118.048,-146.971 134.543,-137.074"/>
<polygon fill="midnightblue" stroke="midnightblue" points="136.802,-139.801 143.576,-131.655 133.2,-133.798 136.802,-139.801"/>
</g>
<!-- Node9&#45;&gt;Node4 -->
<g id="edge13" class="edge"><title>Node9&#45;&gt;Node4</title>
<path fill="none" stroke="midnightblue" d="M172.46,-112.324C186.5,-103.9 208.048,-90.9709 224.543,-81.0741"/>
<polygon fill="midnightblue" stroke="midnightblue" points="226.802,-83.8007 233.576,-75.6545 223.2,-77.7983 226.802,-83.8007"/>
</g>
<!-- Node9&#45;&gt;Node5 -->
<g id="edge14" class="edge"><title>Node9&#45;&gt;Node5</title>
<path fill="none" stroke="midnightblue" d="M219.621,-115.5C331.997,-105.47 569.705,-84.2527 689.996,-73.516"/>
<polygon fill="midnightblue" stroke="midnightblue" points="690.56,-76.9798 700.209,-72.6045 689.937,-70.0075 690.56,-76.9798"/>
</g>
<!-- Node9&#45;&gt;Node8 -->
<g id="edge12" class="edge"><title>Node9&#45;&gt;Node8</title>
<path fill="none" stroke="midnightblue" d="M148.842,-112.324C140.499,-104.42 127.968,-92.5482 117.823,-82.9377"/>
<polygon fill="midnightblue" stroke="midnightblue" points="119.991,-80.1705 110.325,-75.8339 115.177,-85.2522 119.991,-80.1705"/>
</g>
<!-- Node10&#45;&gt;Node3 -->
<g id="edge16" class="edge"><title>Node10&#45;&gt;Node3</title>
<path fill="none" stroke="midnightblue" d="M572.906,-224.41C587.225,-217.04 605.458,-204.916 614,-188 618.007,-180.065 615.517,-176.758 614,-168 604.979,-115.918 602.749,-100.355 574,-56 566.682,-44.7089 555.999,-34.1831 546.667,-26.1548"/>
<polygon fill="midnightblue" stroke="midnightblue" points="548.876,-23.4406 538.932,-19.7861 544.427,-28.8445 548.876,-23.4406"/>
</g>
<!-- Node10&#45;&gt;Node5 -->
<g id="edge17" class="edge"><title>Node10&#45;&gt;Node5</title>
<path fill="none" stroke="midnightblue" d="M577.371,-224.344C597.405,-216.573 625.974,-203.945 648,-188 690.652,-157.124 730.688,-109.127 750.337,-83.8632"/>
<polygon fill="midnightblue" stroke="midnightblue" points="753.319,-85.7252 756.621,-75.6579 747.762,-81.4691 753.319,-85.7252"/>
</g>
<!-- Node11 -->
<g id="node11" class="node"><title>Node11</title>
<g id="a_node11"><a xlink:href="../../dc/d3e/MathUtils_8h.html" target="_top" xlink:title="ITStracking/MathUtils.h">
<polygon fill="none" stroke="black" points="486,-168.5 486,-187.5 606,-187.5 606,-168.5 486,-168.5"/>
<text text-anchor="middle" x="546" y="-175.5" font-family="Helvetica,sans-Serif" font-size="10.00">ITStracking/MathUtils.h</text>
</a>
</g>
</g>
<!-- Node10&#45;&gt;Node11 -->
<g id="edge18" class="edge"><title>Node10&#45;&gt;Node11</title>
<path fill="none" stroke="midnightblue" d="M551.844,-224.083C550.916,-216.927 549.582,-206.635 548.423,-197.691"/>
<polygon fill="midnightblue" stroke="midnightblue" points="551.891,-197.218 547.134,-187.751 544.949,-198.118 551.891,-197.218"/>
</g>
<!-- Node13 -->
<g id="node13" class="node"><title>Node13</title>
<g id="a_node13"><a xlink:href="../../d2/d0c/IndexTableUtils_8h.html" target="_top" xlink:title="ITStracking/IndexTableUtils.h">
<polygon fill="none" stroke="black" points="322,-168.5 322,-187.5 468,-187.5 468,-168.5 322,-168.5"/>
<text text-anchor="middle" x="395" y="-175.5" font-family="Helvetica,sans-Serif" font-size="10.00">ITStracking/IndexTableUtils.h</text>
</a>
</g>
</g>
<!-- Node10&#45;&gt;Node13 -->
<g id="edge22" class="edge"><title>Node10&#45;&gt;Node13</title>
<path fill="none" stroke="midnightblue" d="M527.964,-224.444C501.384,-215.359 459.191,-200.939 429.477,-190.783"/>
<polygon fill="midnightblue" stroke="midnightblue" points="430.513,-187.439 419.918,-187.516 428.249,-194.062 430.513,-187.439"/>
</g>
<!-- Node11&#45;&gt;Node3 -->
<g id="edge19" class="edge"><title>Node11&#45;&gt;Node3</title>
<path fill="none" stroke="midnightblue" d="M554.214,-168.182C561.544,-159.663 571.755,-146.019 576,-132 578.576,-123.493 577.991,-120.663 576,-112 568.794,-80.6392 550.501,-47.7191 538.42,-28.2957"/>
<polygon fill="midnightblue" stroke="midnightblue" points="541.247,-26.2196 532.912,-19.6792 535.349,-29.9899 541.247,-26.2196"/>
</g>
<!-- Node11&#45;&gt;Node9 -->
<g id="edge21" class="edge"><title>Node11&#45;&gt;Node9</title>
<path fill="none" stroke="midnightblue" d="M485.801,-168.622C416.579,-158.988 303.046,-143.187 229.418,-132.94"/>
<polygon fill="midnightblue" stroke="midnightblue" points="229.689,-129.444 219.302,-131.532 228.724,-136.377 229.689,-129.444"/>
</g>
<!-- Node12 -->
<g id="node12" class="node"><title>Node12</title>
<polygon fill="none" stroke="#bfbfbf" points="524,-112.5 524,-131.5 568,-131.5 568,-112.5 524,-112.5"/>
<text text-anchor="middle" x="546" y="-119.5" font-family="Helvetica,sans-Serif" font-size="10.00">cmath</text>
</g>
<!-- Node11&#45;&gt;Node12 -->
<g id="edge20" class="edge"><title>Node11&#45;&gt;Node12</title>
<path fill="none" stroke="midnightblue" d="M546,-168.083C546,-161.006 546,-150.861 546,-141.986"/>
<polygon fill="midnightblue" stroke="midnightblue" points="549.5,-141.751 546,-131.751 542.5,-141.751 549.5,-141.751"/>
</g>
<!-- Node13&#45;&gt;Node3 -->
<g id="edge23" class="edge"><title>Node13&#45;&gt;Node3</title>
<path fill="none" stroke="midnightblue" d="M404.162,-168.396C413.351,-159.594 427.718,-145.355 439,-132 468.893,-96.6161 499.841,-51.8142 515.869,-27.8851"/>
<polygon fill="midnightblue" stroke="midnightblue" points="518.802,-29.795 521.425,-19.5301 512.973,-25.9185 518.802,-29.795"/>
</g>
<!-- Node13&#45;&gt;Node4 -->
<g id="edge25" class="edge"><title>Node13&#45;&gt;Node4</title>
<path fill="none" stroke="midnightblue" d="M336.289,-168.48C311.916,-162.156 285.148,-151.149 267,-132 255.258,-119.61 250.724,-100.367 248.998,-86.029"/>
<polygon fill="midnightblue" stroke="midnightblue" points="252.464,-85.4755 248.132,-75.8066 245.489,-86.0663 252.464,-85.4755"/>
</g>
<!-- Node13&#45;&gt;Node5 -->
<g id="edge27" class="edge"><title>Node13&#45;&gt;Node5</title>
<path fill="none" stroke="midnightblue" d="M409.726,-168.258C436.771,-152.333 493.541,-119.542 515,-112 572.161,-91.911 640.038,-80.3888 690.317,-74.0432"/>
<polygon fill="midnightblue" stroke="midnightblue" points="690.948,-77.4922 700.449,-72.8043 690.098,-70.544 690.948,-77.4922"/>
</g>
<!-- Node13&#45;&gt;Node9 -->
<g id="edge26" class="edge"><title>Node13&#45;&gt;Node9</title>
<path fill="none" stroke="midnightblue" d="M357.447,-168.444C316.189,-159.043 249.856,-143.929 205.134,-133.739"/>
<polygon fill="midnightblue" stroke="midnightblue" points="205.905,-130.326 195.378,-131.516 204.35,-137.151 205.905,-130.326"/>
</g>
<!-- Node14 -->
<g id="node14" class="node"><title>Node14</title>
<polygon fill="none" stroke="#bfbfbf" points="390,-112.5 390,-131.5 430,-131.5 430,-112.5 390,-112.5"/>
<text text-anchor="middle" x="410" y="-119.5" font-family="Helvetica,sans-Serif" font-size="10.00">utility</text>
</g>
<!-- Node13&#45;&gt;Node14 -->
<g id="edge24" class="edge"><title>Node13&#45;&gt;Node14</title>
<path fill="none" stroke="midnightblue" d="M397.477,-168.083C399.486,-160.849 402.386,-150.409 404.89,-141.397"/>
<polygon fill="midnightblue" stroke="midnightblue" points="408.265,-142.323 407.569,-131.751 401.52,-140.449 408.265,-142.323"/>
</g>
<!-- Node15&#45;&gt;Node10 -->
<g id="edge31" class="edge"><title>Node15&#45;&gt;Node10</title>
<path fill="none" stroke="midnightblue" d="M553,-280.083C553,-273.006 553,-262.861 553,-253.986"/>
<polygon fill="midnightblue" stroke="midnightblue" points="556.5,-253.751 553,-243.751 549.5,-253.751 556.5,-253.751"/>
</g>
<!-- Node16&#45;&gt;Node5 -->
<g id="edge33" class="edge"><title>Node16&#45;&gt;Node5</title>
<path fill="none" stroke="midnightblue" d="M699.492,-224.217C706.611,-215.507 717.208,-201.538 724,-188 741.258,-153.598 753.101,-109.919 758.898,-85.5643"/>
<polygon fill="midnightblue" stroke="midnightblue" points="762.368,-86.0905 761.195,-75.5608 755.546,-84.524 762.368,-86.0905"/>
</g>
<!-- Node18 -->
<g id="node18" class="node"><title>Node18</title>
<g id="a_node18"><a xlink:href="../../d8/def/Detectors_2ITSMFT_2ITS_2tracking_2cuda_2include_2ITStrackingCUDA_2Utils_8h.html" target="_top" xlink:title="ITStrackingCUDA/Utils.h">
<polygon fill="none" stroke="black" points="1094,-168.5 1094,-187.5 1222,-187.5 1222,-168.5 1094,-168.5"/>
<text text-anchor="middle" x="1158" y="-175.5" font-family="Helvetica,sans-Serif" font-size="10.00">ITStrackingCUDA/Utils.h</text>
</a>
</g>
</g>
<!-- Node17&#45;&gt;Node18 -->
<g id="edge35" class="edge"><title>Node17&#45;&gt;Node18</title>
<path fill="none" stroke="midnightblue" d="M997.653,-280.368C1027.64,-261.412 1099.47,-216.001 1135.95,-192.942"/>
<polygon fill="midnightblue" stroke="midnightblue" points="1137.83,-195.893 1144.41,-187.591 1134.09,-189.977 1137.83,-195.893"/>
</g>
<!-- Node18&#45;&gt;Node6 -->
<g id="edge36" class="edge"><title>Node18&#45;&gt;Node6</title>
<path fill="none" stroke="midnightblue" d="M1149.57,-168.166C1137.07,-155.253 1112.66,-130.724 1090,-112 1049.38,-78.4413 998.314,-43.8002 969.809,-25.0798"/>
<polygon fill="midnightblue" stroke="midnightblue" points="971.676,-22.1187 961.389,-19.5827 967.849,-27.9802 971.676,-22.1187"/>
</g>
<!-- Node19 -->
<g id="node19" class="node"><title>Node19</title>
<g id="a_node19"><a xlink:href="../../de/dd1/Stream_8h.html" target="_top" xlink:title="ITStrackingCUDA/Stream.h">
<polygon fill="none" stroke="black" points="942.5,-112.5 942.5,-131.5 1081.5,-131.5 1081.5,-112.5 942.5,-112.5"/>
<text text-anchor="middle" x="1012" y="-119.5" font-family="Helvetica,sans-Serif" font-size="10.00">ITStrackingCUDA/Stream.h</text>
</a>
</g>
</g>
<!-- Node18&#45;&gt;Node19 -->
<g id="edge37" class="edge"><title>Node18&#45;&gt;Node19</title>
<path fill="none" stroke="midnightblue" d="M1134.87,-168.444C1110.52,-159.438 1071.99,-145.189 1044.58,-135.049"/>
<polygon fill="midnightblue" stroke="midnightblue" points="1045.62,-131.703 1035.03,-131.516 1043.19,-138.268 1045.62,-131.703"/>
</g>
<!-- Node19&#45;&gt;Node5 -->
<g id="edge38" class="edge"><title>Node19&#45;&gt;Node5</title>
<path fill="none" stroke="midnightblue" d="M972.545,-112.444C929.108,-103.023 859.214,-87.8656 812.224,-77.6752"/>
<polygon fill="midnightblue" stroke="midnightblue" points="812.785,-74.2154 802.27,-75.5164 811.301,-81.0564 812.785,-74.2154"/>
</g>
<!-- Node20&#45;&gt;Node4 -->
<g id="edge43" class="edge"><title>Node20&#45;&gt;Node4</title>
<path fill="none" stroke="midnightblue" d="M906.912,-224.489C832.569,-198.264 609.701,-119.977 576,-112 469.373,-86.7618 339.664,-74.1579 280.377,-69.3669"/>
<polygon fill="midnightblue" stroke="midnightblue" points="280.392,-65.8573 270.148,-68.562 279.843,-72.8358 280.392,-65.8573"/>
</g>
<!-- Node20&#45;&gt;Node5 -->
<g id="edge44" class="edge"><title>Node20&#45;&gt;Node5</title>
<path fill="none" stroke="midnightblue" d="M925.822,-224.492C917.75,-211.568 901.288,-186.533 884,-168 852.083,-133.784 808.817,-100.214 783.604,-81.6935"/>
<polygon fill="midnightblue" stroke="midnightblue" points="785.334,-78.6241 775.187,-75.5778 781.22,-84.2873 785.334,-78.6241"/>
</g>
<!-- Node20&#45;&gt;Node18 -->
<g id="edge46" class="edge"><title>Node20&#45;&gt;Node18</title>
<path fill="none" stroke="midnightblue" d="M966.969,-224.444C1006.32,-215.083 1069.49,-200.056 1112.31,-189.868"/>
<polygon fill="midnightblue" stroke="midnightblue" points="1113.28,-193.236 1122.2,-187.516 1111.66,-186.426 1113.28,-193.236"/>
</g>
<!-- Node20&#45;&gt;Node19 -->
<g id="edge45" class="edge"><title>Node20&#45;&gt;Node19</title>
<path fill="none" stroke="midnightblue" d="M948.458,-224.479C962.457,-216.788 981.588,-204.201 993,-188 1002.63,-174.333 1007.42,-155.796 1009.78,-142.015"/>
<polygon fill="midnightblue" stroke="midnightblue" points="1013.3,-142.163 1011.24,-131.769 1006.37,-141.174 1013.3,-142.163"/>
</g>
<!-- Node21 -->
<g id="node21" class="node"><title>Node21</title>
<polygon fill="none" stroke="#bfbfbf" points="932,-168.5 932,-187.5 984,-187.5 984,-168.5 932,-168.5"/>
<text text-anchor="middle" x="958" y="-175.5" font-family="Helvetica,sans-Serif" font-size="10.00">assert.h</text>
</g>
<!-- Node20&#45;&gt;Node21 -->
<g id="edge40" class="edge"><title>Node20&#45;&gt;Node21</title>
<path fill="none" stroke="midnightblue" d="M935.459,-224.083C939.154,-216.691 944.523,-205.953 949.094,-196.811"/>
<polygon fill="midnightblue" stroke="midnightblue" points="952.283,-198.261 953.624,-187.751 946.022,-195.13 952.283,-198.261"/>
</g>
<!-- Node22 -->
<g id="node22" class="node"><title>Node22</title>
<polygon fill="none" stroke="#bfbfbf" points="1040.5,-168.5 1040.5,-187.5 1075.5,-187.5 1075.5,-168.5 1040.5,-168.5"/>
<text text-anchor="middle" x="1058" y="-175.5" font-family="Helvetica,sans-Serif" font-size="10.00">new</text>
</g>
<!-- Node20&#45;&gt;Node22 -->
<g id="edge41" class="edge"><title>Node20&#45;&gt;Node22</title>
<path fill="none" stroke="midnightblue" d="M951.124,-224.444C972.762,-215.243 1007.27,-200.569 1031.2,-190.396"/>
<polygon fill="midnightblue" stroke="midnightblue" points="1032.59,-193.607 1040.42,-186.473 1029.85,-187.165 1032.59,-193.607"/>
</g>
<!-- Node23 -->
<g id="node23" class="node"><title>Node23</title>
<polygon fill="none" stroke="#bfbfbf" points="814,-168.5 814,-187.5 876,-187.5 876,-168.5 814,-168.5"/>
<text text-anchor="middle" x="845" y="-175.5" font-family="Helvetica,sans-Serif" font-size="10.00">type_traits</text>
</g>
<!-- Node20&#45;&gt;Node23 -->
<g id="edge42" class="edge"><title>Node20&#45;&gt;Node23</title>
<path fill="none" stroke="midnightblue" d="M917.183,-224.324C903.767,-215.9 883.176,-202.971 867.414,-193.074"/>
<polygon fill="midnightblue" stroke="midnightblue" points="869.113,-190.008 858.783,-187.655 865.391,-195.936 869.113,-190.008"/>
</g>
</g>
</svg>
        <g id="navigator" transform="translate(0 0)" fill="#404254">
                <rect fill="#f2f5e9" fill-opacity="0.5" stroke="#606060" stroke-width=".5" x="0" y="0" width="60" height="60"/>
                <use id="zoomplus" xlink:href="#zoomPlus" x="17" y="9" onmousedown="handleZoom(evt,'in')"/>
                <use id="zoomminus" xlink:href="#zoomMin" x="42" y="9" onmousedown="handleZoom(evt,'out')"/>
                <use id="reset" xlink:href="#resetDef" x="30" y="36" onmousedown="handleReset()"/>
                <g id="arrowUp" xlink:href="#dirArrow" transform="translate(30 24)" onmousedown="handlePan(0,-1)">
                  <use xlink:href="#rim" fill="#404040">
                        <set attributeName="fill" to="#808080" begin="arrowUp.mouseover" end="arrowUp.mouseout"/>
                  </use>
                  <path fill="none" stroke="white" stroke-width="1.5" d="M0,-3.0v7 M-2.5,-0.5L0,-3.0L2.5,-0.5"/>
                </g>
                <g id="arrowRight" xlink:href="#dirArrow" transform="rotate(90) translate(36 -43)" onmousedown="handlePan(1,0)">
                  <use xlink:href="#rim" fill="#404040">
                        <set attributeName="fill" to="#808080" begin="arrowRight.mouseover" end="arrowRight.mouseout"/>
                  </use>
                  <path fill="none" stroke="white" stroke-width="1.5" d="M0,-3.0v7 M-2.5,-0.5L0,-3.0L2.5,-0.5"/>
                </g>
                <g id="arrowDown" xlink:href="#dirArrow" transform="rotate(180) translate(-30 -48)" onmousedown="handlePan(0,1)">
                  <use xlink:href="#rim" fill="#404040">
                        <set attributeName="fill" to="#808080" begin="arrowDown.mouseover" end="arrowDown.mouseout"/>
                  </use>
                  <path fill="none" stroke="white" stroke-width="1.5" d="M0,-3.0v7 M-2.5,-0.5L0,-3.0L2.5,-0.5"/>
                </g>
                <g id="arrowLeft" xlink:href="#dirArrow" transform="rotate(270) translate(-36 17)" onmousedown="handlePan(-1,0)">
                  <use xlink:href="#rim" fill="#404040">
                        <set attributeName="fill" to="#808080" begin="arrowLeft.mouseover" end="arrowLeft.mouseout"/>
                  </use>
                  <path fill="none" stroke="white" stroke-width="1.5" d="M0,-3.0v7 M-2.5,-0.5L0,-3.0L2.5,-0.5"/>
                </g>
        </g>
        <svg viewBox="0 0 15 15" width="100%" height="30px" preserveAspectRatio="xMaxYMin meet">
         <g id="arrow_out" transform="scale(0.3 0.3)">
          <a xlink:href="DeviceStoreNV_8h__incl_org.svg" target="_base">
           <rect id="button" ry="5" rx="5" y="6" x="6" height="38" width="38"
                fill="#f2f5e9" fill-opacity="0.5" stroke="#606060" stroke-width="1.0"/>
           <path id="arrow"
             d="M 11.500037,31.436501 C 11.940474,20.09759 22.043105,11.32322 32.158766,21.979434 L 37.068811,17.246167 C 37.068811,17.246167 37.088388,32 37.088388,32 L 22.160133,31.978069 C 22.160133,31.978069 26.997745,27.140456 26.997745,27.140456 C 18.528582,18.264221 13.291696,25.230495 11.500037,31.436501 z"
             style="fill:#404040;"/>
          </a>
         </g>
        </svg>
</svg>
