<?xml version="1.0" encoding="UTF-8" standalone="no"?>
<!DOCTYPE svg PUBLIC "-//W3C//DTD SVG 1.1//EN"
 "http://www.w3.org/Graphics/SVG/1.1/DTD/svg11.dtd">
<!-- Generated by graphviz version 2.36.0 (20140111.2315)
 -->
<!-- Title: /home/travis/build/AliceO2Group/AliceO2/Framework/Core/include/Framework/DataRefUtils.h Pages: 1 -->
<!--zoomable 242 -->
<svg id="main" version="1.1" xmlns="http://www.w3.org/2000/svg" xmlns:xlink="http://www.w3.org/1999/xlink" xml:space="preserve" onload="init(evt)">
<style type="text/css"><![CDATA[
.edge:hover path { stroke: red; }
.edge:hover polygon { stroke: red; fill: red; }
]]></style>
<script type="text/javascript"><![CDATA[
var edges = document.getElementsByTagName('g');
if (edges && edges.length) {
  for (var i=0;i<edges.length;i++) {
    if (edges[i].id.substr(0,4)=='edge') {
      edges[i].setAttribute('class','edge');
    }
  }
}
]]></script>
        <defs>
                <circle id="rim" cx="0" cy="0" r="7"/>
                <circle id="rim2" cx="0" cy="0" r="3.5"/>
                <g id="zoomPlus">
                        <use xlink:href="#rim" fill="#404040">
                                <set attributeName="fill" to="#808080" begin="zoomplus.mouseover" end="zoomplus.mouseout"/>
                        </use>
                        <path d="M-4,0h8M0,-4v8" fill="none" stroke="white" stroke-width="1.5" pointer-events="none"/>
                </g>
                <g id="zoomMin">
                        <use xlink:href="#rim" fill="#404040">
                                <set attributeName="fill" to="#808080" begin="zoomminus.mouseover" end="zoomminus.mouseout"/>
                        </use>
                        <path d="M-4,0h8" fill="none" stroke="white" stroke-width="1.5" pointer-events="none"/>
                </g>
                <g id="dirArrow">
                        <path fill="none" stroke="white" stroke-width="1.5" d="M0,-3.0v7 M-2.5,-0.5L0,-3.0L2.5,-0.5"/>
                </g>
               <g id="resetDef">
                       <use xlink:href="#rim2" fill="#404040">
                               <set attributeName="fill" to="#808080" begin="reset.mouseover" end="reset.mouseout"/>
                       </use>
               </g>
        </defs>

<script type="text/javascript">
var viewWidth = 3564;
var viewHeight = 242;
var sectionId = 'dynsection-0';
</script>
<script xlink:href="../../svgpan.js"/>
<svg id="graph" class="graph">
<g id="viewport">
<title>/home/travis/build/AliceO2Group/AliceO2/Framework/Core/include/Framework/DataRefUtils.h</title>
<!-- Node1 -->
<g id="node1" class="node"><title>Node1</title>
<polygon fill="#bfbfbf" stroke="black" points="1943.5,-181 1943.5,-233 2080.5,-233 2080.5,-181 1943.5,-181"/>
<text text-anchor="start" x="1951.5" y="-221" font-family="Helvetica,sans-Serif" font-size="10.00">/home/travis/build</text>
<text text-anchor="start" x="1951.5" y="-210" font-family="Helvetica,sans-Serif" font-size="10.00">/AliceO2Group/AliceO2</text>
<text text-anchor="start" x="1951.5" y="-199" font-family="Helvetica,sans-Serif" font-size="10.00">/Framework/Core/include</text>
<text text-anchor="middle" x="2012" y="-188" font-family="Helvetica,sans-Serif" font-size="10.00">/Framework/DataRefUtils.h</text>
</g>
<!-- Node2 -->
<g id="node2" class="node"><title>Node2</title>
<g id="a_node2"><a xlink:href="../../d5/dfb/DataRef_8h.html" target="_top" xlink:title="Framework/DataRef.h">
<polygon fill="none" stroke="black" points="515.5,-124.5 515.5,-143.5 628.5,-143.5 628.5,-124.5 515.5,-124.5"/>
<text text-anchor="middle" x="572" y="-131.5" font-family="Helvetica,sans-Serif" font-size="10.00">Framework/DataRef.h</text>
</a>
</g>
</g>
<!-- Node1&#45;&gt;Node2 -->
<g id="edge1" class="edge"><title>Node1&#45;&gt;Node2</title>
<path fill="none" stroke="midnightblue" d="M1943.5,-204.855C1743.11,-201.085 1140.79,-186.752 643,-144 641.53,-143.874 640.043,-143.74 638.545,-143.599"/>
<polygon fill="midnightblue" stroke="midnightblue" points="638.839,-140.111 628.537,-142.585 638.134,-147.076 638.839,-140.111"/>
</g>
<!-- Node3 -->
<g id="node3" class="node"><title>Node3</title>
<g id="a_node3"><a xlink:href="../../d8/d3c/TMessageSerializer_8h.html" target="_top" xlink:title="Framework/TMessageSerializer.h">
<polygon fill="none" stroke="black" points="1078.5,-124.5 1078.5,-143.5 1241.5,-143.5 1241.5,-124.5 1078.5,-124.5"/>
<text text-anchor="middle" x="1160" y="-131.5" font-family="Helvetica,sans-Serif" font-size="10.00">Framework/TMessageSerializer.h</text>
</a>
</g>
</g>
<!-- Node1&#45;&gt;Node3 -->
<g id="edge2" class="edge"><title>Node1&#45;&gt;Node3</title>
<path fill="none" stroke="midnightblue" d="M1943.36,-200.28C1790.86,-187.572 1423.8,-156.983 1251.81,-142.651"/>
<polygon fill="midnightblue" stroke="midnightblue" points="1252.03,-139.157 1241.77,-141.814 1251.45,-146.133 1252.03,-139.157"/>
</g>
<!-- Node20 -->
<g id="node20" class="node"><title>Node20</title>
<polygon fill="none" stroke="#bfbfbf" points="1962,-6.5 1962,-25.5 2024,-25.5 2024,-6.5 1962,-6.5"/>
<text text-anchor="middle" x="1993" y="-13.5" font-family="Helvetica,sans-Serif" font-size="10.00">type_traits</text>
</g>
<!-- Node1&#45;&gt;Node20 -->
<g id="edge67" class="edge"><title>Node1&#45;&gt;Node20</title>
<path fill="none" stroke="midnightblue" d="M2009.48,-180.902C2005.61,-142.471 1998.32,-69.9081 1994.88,-35.7179"/>
<polygon fill="midnightblue" stroke="midnightblue" points="1998.36,-35.2984 1993.87,-25.6987 1991.39,-35.9987 1998.36,-35.2984"/>
</g>
<!-- Node28 -->
<g id="node28" class="node"><title>Node28</title>
<g id="a_node28"><a xlink:href="../../d1/d53/SerializationMethods_8h.html" target="_top" xlink:title="Type wrappers for enfording a specific serialization method. ">
<polygon fill="none" stroke="black" points="2058.5,-124.5 2058.5,-143.5 2225.5,-143.5 2225.5,-124.5 2058.5,-124.5"/>
<text text-anchor="middle" x="2142" y="-131.5" font-family="Helvetica,sans-Serif" font-size="10.00">Framework/SerializationMethods.h</text>
</a>
</g>
</g>
<!-- Node1&#45;&gt;Node28 -->
<g id="edge27" class="edge"><title>Node1&#45;&gt;Node28</title>
<path fill="none" stroke="midnightblue" d="M2057.83,-180.968C2077.75,-170.088 2100.31,-157.767 2117.06,-148.622"/>
<polygon fill="midnightblue" stroke="midnightblue" points="2119.08,-151.504 2126.18,-143.639 2115.73,-145.36 2119.08,-151.504"/>
</g>
<!-- Node29 -->
<g id="node29" class="node"><title>Node29</title>
<g id="a_node29"><a xlink:href="../../d0/d95/TypeTraits_8h.html" target="_top" xlink:title="Framework/TypeTraits.h">
<polygon fill="none" stroke="black" points="2050.5,-68.5 2050.5,-87.5 2173.5,-87.5 2173.5,-68.5 2050.5,-68.5"/>
<text text-anchor="middle" x="2112" y="-75.5" font-family="Helvetica,sans-Serif" font-size="10.00">Framework/TypeTraits.h</text>
</a>
</g>
</g>
<!-- Node1&#45;&gt;Node29 -->
<g id="edge53" class="edge"><title>Node1&#45;&gt;Node29</title>
<path fill="none" stroke="midnightblue" d="M2019.49,-180.788C2025.5,-163.514 2035.23,-140.782 2049,-124 2059.36,-111.375 2074.08,-100.597 2086.68,-92.7567"/>
<polygon fill="midnightblue" stroke="midnightblue" points="2088.59,-95.6981 2095.4,-87.5827 2085.01,-89.6794 2088.59,-95.6981"/>
</g>
<!-- Node32 -->
<g id="node32" class="node"><title>Node32</title>
<polygon fill="none" stroke="#bfbfbf" points="3398.5,-6.5 3398.5,-25.5 3443.5,-25.5 3443.5,-6.5 3398.5,-6.5"/>
<text text-anchor="middle" x="3421" y="-13.5" font-family="Helvetica,sans-Serif" font-size="10.00">gsl/gsl</text>
</g>
<!-- Node1&#45;&gt;Node32 -->
<g id="edge64" class="edge"><title>Node1&#45;&gt;Node32</title>
<path fill="none" stroke="midnightblue" d="M2080.61,-196.935C2196.48,-181.659 2438.33,-149.919 2643,-124 2974.42,-82.0299 3067.99,-124.489 3389,-32 3391.29,-31.3407 3393.62,-30.5365 3395.92,-29.6466"/>
<polygon fill="midnightblue" stroke="midnightblue" points="3397.33,-32.8522 3405.11,-25.6565 3394.54,-26.4323 3397.33,-32.8522"/>
</g>
<!-- Node46 -->
<g id="node46" class="node"><title>Node46</title>
<g id="a_node46"><a xlink:href="../../dc/dcd/DataHeader_8h.html" target="_top" xlink:title="Headers/DataHeader.h">
<polygon fill="none" stroke="black" points="332.5,-68.5 332.5,-87.5 449.5,-87.5 449.5,-68.5 332.5,-68.5"/>
<text text-anchor="middle" x="391" y="-75.5" font-family="Helvetica,sans-Serif" font-size="10.00">Headers/DataHeader.h</text>
</a>
</g>
</g>
<!-- Node1&#45;&gt;Node46 -->
<g id="edge54" class="edge"><title>Node1&#45;&gt;Node46</title>
<path fill="none" stroke="midnightblue" d="M1943.28,-206.22C1706.26,-206.447 924.155,-202.625 681,-144 660.117,-138.965 657.497,-130.426 637,-124 578.474,-105.653 509.63,-93.852 459.678,-86.9589"/>
<polygon fill="midnightblue" stroke="midnightblue" points="460.011,-83.4722 449.632,-85.6036 459.075,-90.4093 460.011,-83.4722"/>
</g>
<!-- Node50 -->
<g id="node50" class="node"><title>Node50</title>
<polygon fill="none" stroke="#bfbfbf" points="361.5,-6.5 361.5,-25.5 420.5,-25.5 420.5,-6.5 361.5,-6.5"/>
<text text-anchor="middle" x="391" y="-13.5" font-family="Helvetica,sans-Serif" font-size="10.00">stdexcept</text>
</g>
<!-- Node1&#45;&gt;Node50 -->
<g id="edge65" class="edge"><title>Node1&#45;&gt;Node50</title>
<path fill="none" stroke="midnightblue" d="M1943.48,-203.629C1787.73,-197.774 1395.32,-180.389 1069,-144 910.255,-126.298 871.283,-115.848 714,-88 586.888,-65.4943 552.882,-68.293 429,-32 426.192,-31.1774 423.303,-30.2305 420.431,-29.2206"/>
<polygon fill="midnightblue" stroke="midnightblue" points="421.47,-25.8722 410.878,-25.634 419.009,-32.4256 421.47,-25.8722"/>
</g>
<!-- Node52 -->
<g id="node52" class="node"><title>Node52</title>
<polygon fill="none" stroke="#bfbfbf" points="2652,-124.5 2652,-143.5 2708,-143.5 2708,-124.5 2652,-124.5"/>
<text text-anchor="middle" x="2680" y="-131.5" font-family="Helvetica,sans-Serif" font-size="10.00">TClass.h</text>
</g>
<!-- Node1&#45;&gt;Node52 -->
<g id="edge63" class="edge"><title>Node1&#45;&gt;Node52</title>
<path fill="none" stroke="midnightblue" d="M2080.87,-201.721C2196.49,-193.969 2436.76,-175.425 2638,-144 2639.24,-143.806 2640.51,-143.598 2641.78,-143.38"/>
<polygon fill="midnightblue" stroke="midnightblue" points="2642.43,-146.818 2651.61,-141.535 2641.14,-139.938 2642.43,-146.818"/>
</g>
<!-- Node53 -->
<g id="node53" class="node"><title>Node53</title>
<polygon fill="none" stroke="#bfbfbf" points="2726,-124.5 2726,-143.5 2778,-143.5 2778,-124.5 2726,-124.5"/>
<text text-anchor="middle" x="2752" y="-131.5" font-family="Helvetica,sans-Serif" font-size="10.00">sstream</text>
</g>
<!-- Node1&#45;&gt;Node53 -->
<g id="edge66" class="edge"><title>Node1&#45;&gt;Node53</title>
<path fill="none" stroke="midnightblue" d="M2080.91,-203.525C2205.75,-198.258 2477.63,-183.187 2715.87,-143.723"/>
<polygon fill="midnightblue" stroke="midnightblue" points="2716.47,-147.171 2725.75,-142.068 2715.31,-140.267 2716.47,-147.171"/>
</g>
<!-- Node4 -->
<g id="node4" class="node"><title>Node4</title>
<polygon fill="none" stroke="#bfbfbf" points="914.5,-68.5 914.5,-87.5 1041.5,-87.5 1041.5,-68.5 914.5,-68.5"/>
<text text-anchor="middle" x="978" y="-75.5" font-family="Helvetica,sans-Serif" font-size="10.00">fairmq/FairMQMessage.h</text>
</g>
<!-- Node3&#45;&gt;Node4 -->
<g id="edge3" class="edge"><title>Node3&#45;&gt;Node4</title>
<path fill="none" stroke="midnightblue" d="M1131.16,-124.444C1100.14,-115.241 1050.67,-100.562 1016.38,-90.3879"/>
<polygon fill="midnightblue" stroke="midnightblue" points="1017.29,-87.0055 1006.7,-87.5164 1015.29,-93.7164 1017.29,-87.0055"/>
</g>
<!-- Node5 -->
<g id="node5" class="node"><title>Node5</title>
<polygon fill="none" stroke="#bfbfbf" points="1059.5,-68.5 1059.5,-87.5 1106.5,-87.5 1106.5,-68.5 1059.5,-68.5"/>
<text text-anchor="middle" x="1083" y="-75.5" font-family="Helvetica,sans-Serif" font-size="10.00">TList.h</text>
</g>
<!-- Node3&#45;&gt;Node5 -->
<g id="edge4" class="edge"><title>Node3&#45;&gt;Node5</title>
<path fill="none" stroke="midnightblue" d="M1147.63,-124.324C1135.84,-116.058 1117.87,-103.453 1103.86,-93.6322"/>
<polygon fill="midnightblue" stroke="midnightblue" points="1105.54,-90.5307 1095.34,-87.6545 1101.52,-96.2619 1105.54,-90.5307"/>
</g>
<!-- Node6 -->
<g id="node6" class="node"><title>Node6</title>
<polygon fill="none" stroke="#bfbfbf" points="1124.5,-68.5 1124.5,-87.5 1195.5,-87.5 1195.5,-68.5 1124.5,-68.5"/>
<text text-anchor="middle" x="1160" y="-75.5" font-family="Helvetica,sans-Serif" font-size="10.00">TMessage.h</text>
</g>
<!-- Node3&#45;&gt;Node6 -->
<g id="edge5" class="edge"><title>Node3&#45;&gt;Node6</title>
<path fill="none" stroke="midnightblue" d="M1160,-124.083C1160,-117.006 1160,-106.861 1160,-97.9865"/>
<polygon fill="midnightblue" stroke="midnightblue" points="1163.5,-97.751 1160,-87.7511 1156.5,-97.7511 1163.5,-97.751"/>
</g>
<!-- Node7 -->
<g id="node7" class="node"><title>Node7</title>
<polygon fill="none" stroke="#bfbfbf" points="1487.5,-68.5 1487.5,-87.5 1556.5,-87.5 1556.5,-68.5 1487.5,-68.5"/>
<text text-anchor="middle" x="1522" y="-75.5" font-family="Helvetica,sans-Serif" font-size="10.00">TObjArray.h</text>
</g>
<!-- Node3&#45;&gt;Node7 -->
<g id="edge6" class="edge"><title>Node3&#45;&gt;Node7</title>
<path fill="none" stroke="midnightblue" d="M1229.05,-124.468C1291.32,-116.49 1385.65,-103.707 1477.43,-88.003"/>
<polygon fill="midnightblue" stroke="midnightblue" points="1478.19,-91.4235 1487.45,-86.2749 1477,-84.5253 1478.19,-91.4235"/>
</g>
<!-- Node8 -->
<g id="node8" class="node"><title>Node8</title>
<polygon fill="none" stroke="#bfbfbf" points="1574.5,-68.5 1574.5,-87.5 1661.5,-87.5 1661.5,-68.5 1574.5,-68.5"/>
<text text-anchor="middle" x="1618" y="-75.5" font-family="Helvetica,sans-Serif" font-size="10.00">TStreamerInfo.h</text>
</g>
<!-- Node3&#45;&gt;Node8 -->
<g id="edge7" class="edge"><title>Node3&#45;&gt;Node8</title>
<path fill="none" stroke="midnightblue" d="M1241.62,-125.323C1321.3,-117.511 1446.2,-104.422 1564.41,-88.0077"/>
<polygon fill="midnightblue" stroke="midnightblue" points="1564.94,-91.4672 1574.36,-86.6155 1563.97,-84.5347 1564.94,-91.4672"/>
</g>
<!-- Node9 -->
<g id="node9" class="node"><title>Node9</title>
<polygon fill="none" stroke="#bfbfbf" points="723.5,-68.5 723.5,-87.5 786.5,-87.5 786.5,-68.5 723.5,-68.5"/>
<text text-anchor="middle" x="755" y="-75.5" font-family="Helvetica,sans-Serif" font-size="10.00">gsl/gsl_util</text>
</g>
<!-- Node3&#45;&gt;Node9 -->
<g id="edge8" class="edge"><title>Node3&#45;&gt;Node9</title>
<path fill="none" stroke="midnightblue" d="M1078.48,-125.276C1006.6,-117.931 898.863,-105.627 796.689,-88.163"/>
<polygon fill="midnightblue" stroke="midnightblue" points="797.27,-84.7117 786.82,-86.4569 796.078,-91.6093 797.27,-84.7117"/>
</g>
<!-- Node10 -->
<g id="node10" class="node"><title>Node10</title>
<polygon fill="none" stroke="#bfbfbf" points="804.5,-68.5 804.5,-87.5 857.5,-87.5 857.5,-68.5 804.5,-68.5"/>
<text text-anchor="middle" x="831" y="-75.5" font-family="Helvetica,sans-Serif" font-size="10.00">gsl/span</text>
</g>
<!-- Node3&#45;&gt;Node10 -->
<g id="edge9" class="edge"><title>Node3&#45;&gt;Node10</title>
<path fill="none" stroke="midnightblue" d="M1098.3,-124.472C1039.85,-116.132 949.716,-102.587 872,-88 870.711,-87.758 869.4,-87.5056 868.077,-87.2453"/>
<polygon fill="midnightblue" stroke="midnightblue" points="868.359,-83.7299 857.858,-85.1418 866.947,-90.5861 868.359,-83.7299"/>
</g>
<!-- Node11 -->
<g id="node11" class="node"><title>Node11</title>
<polygon fill="none" stroke="#bfbfbf" points="562,-6.5 562,-25.5 614,-25.5 614,-6.5 562,-6.5"/>
<text text-anchor="middle" x="588" y="-13.5" font-family="Helvetica,sans-Serif" font-size="10.00">memory</text>
</g>
<!-- Node3&#45;&gt;Node11 -->
<g id="edge10" class="edge"><title>Node3&#45;&gt;Node11</title>
<path fill="none" stroke="midnightblue" d="M1078.35,-124.899C1027.54,-118.323 961.355,-106.942 905,-88 886.536,-81.7936 884.548,-73.9511 866,-68 762.041,-34.6458 728.047,-61.7506 623,-32 620.348,-31.249 617.632,-30.3449 614.943,-29.3573"/>
<polygon fill="midnightblue" stroke="midnightblue" points="616.067,-26.0366 605.483,-25.5401 613.447,-32.528 616.067,-26.0366"/>
</g>
<!-- Node12 -->
<g id="node12" class="node"><title>Node12</title>
<polygon fill="none" stroke="#bfbfbf" points="1214,-68.5 1214,-87.5 1258,-87.5 1258,-68.5 1214,-68.5"/>
<text text-anchor="middle" x="1236" y="-75.5" font-family="Helvetica,sans-Serif" font-size="10.00">mutex</text>
</g>
<!-- Node3&#45;&gt;Node12 -->
<g id="edge11" class="edge"><title>Node3&#45;&gt;Node12</title>
<path fill="none" stroke="midnightblue" d="M1172.21,-124.324C1183.78,-116.107 1201.38,-103.602 1215.16,-93.8069"/>
<polygon fill="midnightblue" stroke="midnightblue" points="1217.44,-96.4791 1223.57,-87.8339 1213.39,-90.7729 1217.44,-96.4791"/>
</g>
<!-- Node13 -->
<g id="node13" class="node"><title>Node13</title>
<g id="a_node13"><a xlink:href="../../dc/d03/MemoryResources_8h.html" target="_top" xlink:title="MemoryResources/MemoryResources.h">
<polygon fill="none" stroke="black" points="1276.5,-68.5 1276.5,-87.5 1469.5,-87.5 1469.5,-68.5 1276.5,-68.5"/>
<text text-anchor="middle" x="1373" y="-75.5" font-family="Helvetica,sans-Serif" font-size="10.00">MemoryResources/MemoryResources.h</text>
</a>
</g>
</g>
<!-- Node3&#45;&gt;Node13 -->
<g id="edge12" class="edge"><title>Node3&#45;&gt;Node13</title>
<path fill="none" stroke="midnightblue" d="M1193.75,-124.444C1230.52,-115.122 1289.45,-100.183 1329.62,-89.9972"/>
<polygon fill="midnightblue" stroke="midnightblue" points="1330.57,-93.3666 1339.41,-87.5164 1328.85,-86.5813 1330.57,-93.3666"/>
</g>
<!-- Node14 -->
<g id="node14" class="node"><title>Node14</title>
<polygon fill="none" stroke="#bfbfbf" points="1786,-1 1786,-31 1886,-31 1886,-1 1786,-1"/>
<text text-anchor="start" x="1794" y="-19" font-family="Helvetica,sans-Serif" font-size="10.00">boost/container/flat</text>
<text text-anchor="middle" x="1836" y="-8" font-family="Helvetica,sans-Serif" font-size="10.00">_map.hpp</text>
</g>
<!-- Node13&#45;&gt;Node14 -->
<g id="edge13" class="edge"><title>Node13&#45;&gt;Node14</title>
<path fill="none" stroke="midnightblue" d="M1462.72,-68.4647C1558.22,-59.1331 1704.2,-44.1021 1775.87,-32.0033"/>
<polygon fill="midnightblue" stroke="midnightblue" points="1776.65,-35.4202 1785.89,-30.2406 1775.44,-28.526 1776.65,-35.4202"/>
</g>
<!-- Node15 -->
<g id="node15" class="node"><title>Node15</title>
<polygon fill="none" stroke="#bfbfbf" points="632,-1 632,-31 748,-31 748,-1 632,-1"/>
<text text-anchor="start" x="640" y="-19" font-family="Helvetica,sans-Serif" font-size="10.00">boost/container/pmr</text>
<text text-anchor="middle" x="690" y="-8" font-family="Helvetica,sans-Serif" font-size="10.00">/memory_resource.hpp</text>
</g>
<!-- Node13&#45;&gt;Node15 -->
<g id="edge14" class="edge"><title>Node13&#45;&gt;Node15</title>
<path fill="none" stroke="midnightblue" d="M1276.47,-68.8215C1272.94,-68.5409 1269.44,-68.2662 1266,-68 1043.2,-50.7518 983.143,-64.4512 758.15,-32.0211"/>
<polygon fill="midnightblue" stroke="midnightblue" points="758.406,-28.5214 748.006,-30.5439 757.397,-35.4484 758.406,-28.5214"/>
</g>
<!-- Node16 -->
<g id="node16" class="node"><title>Node16</title>
<polygon fill="none" stroke="#bfbfbf" points="766,-1 766,-31 922,-31 922,-1 766,-1"/>
<text text-anchor="start" x="774" y="-19" font-family="Helvetica,sans-Serif" font-size="10.00">boost/container/pmr</text>
<text text-anchor="middle" x="844" y="-8" font-family="Helvetica,sans-Serif" font-size="10.00">/monotonic_buffer_resource.hpp</text>
</g>
<!-- Node13&#45;&gt;Node16 -->
<g id="edge15" class="edge"><title>Node13&#45;&gt;Node16</title>
<path fill="none" stroke="midnightblue" d="M1281.74,-68.4613C1177.32,-58.5643 1011.54,-42.4349 932.345,-32.1038"/>
<polygon fill="midnightblue" stroke="midnightblue" points="932.591,-28.6056 922.215,-30.7485 931.662,-35.5438 932.591,-28.6056"/>
</g>
<!-- Node17 -->
<g id="node17" class="node"><title>Node17</title>
<polygon fill="none" stroke="#bfbfbf" points="940.5,-1 940.5,-31 1073.5,-31 1073.5,-1 940.5,-1"/>
<text text-anchor="start" x="948.5" y="-19" font-family="Helvetica,sans-Serif" font-size="10.00">boost/container/pmr</text>
<text text-anchor="middle" x="1007" y="-8" font-family="Helvetica,sans-Serif" font-size="10.00">/polymorphic_allocator.hpp</text>
</g>
<!-- Node13&#45;&gt;Node17 -->
<g id="edge16" class="edge"><title>Node13&#45;&gt;Node17</title>
<path fill="none" stroke="midnightblue" d="M1312.68,-68.4623C1255.98,-60.2582 1168.51,-47.1419 1083.69,-32.2594"/>
<polygon fill="midnightblue" stroke="midnightblue" points="1084.08,-28.7753 1073.63,-30.4835 1082.87,-35.6687 1084.08,-28.7753"/>
</g>
<!-- Node18 -->
<g id="node18" class="node"><title>Node18</title>
<polygon fill="none" stroke="#bfbfbf" points="498,-6.5 498,-25.5 544,-25.5 544,-6.5 498,-6.5"/>
<text text-anchor="middle" x="521" y="-13.5" font-family="Helvetica,sans-Serif" font-size="10.00">cstring</text>
</g>
<!-- Node13&#45;&gt;Node18 -->
<g id="edge17" class="edge"><title>Node13&#45;&gt;Node18</title>
<path fill="none" stroke="midnightblue" d="M1276.48,-68.732C1272.94,-68.4766 1269.44,-68.2315 1266,-68 1107.71,-57.3499 706.932,-70.3871 553,-32 550.5,-31.3765 547.958,-30.5538 545.457,-29.6141"/>
<polygon fill="midnightblue" stroke="midnightblue" points="546.744,-26.3573 536.178,-25.5837 543.955,-32.7779 546.744,-26.3573"/>
</g>
<!-- Node19 -->
<g id="node19" class="node"><title>Node19</title>
<polygon fill="none" stroke="#bfbfbf" points="438.5,-6.5 438.5,-25.5 479.5,-25.5 479.5,-6.5 438.5,-6.5"/>
<text text-anchor="middle" x="459" y="-13.5" font-family="Helvetica,sans-Serif" font-size="10.00">string</text>
</g>
<!-- Node13&#45;&gt;Node19 -->
<g id="edge18" class="edge"><title>Node13&#45;&gt;Node19</title>
<path fill="none" stroke="midnightblue" d="M1276.48,-68.7136C1272.94,-68.4633 1269.44,-68.2244 1266,-68 1093.51,-56.7541 656.264,-75.5966 489,-32 486.802,-31.4272 484.578,-30.6808 482.386,-29.827"/>
<polygon fill="midnightblue" stroke="midnightblue" points="483.718,-26.5871 473.169,-25.6016 480.801,-32.9504 483.718,-26.5871"/>
</g>
<!-- Node13&#45;&gt;Node20 -->
<g id="edge19" class="edge"><title>Node13&#45;&gt;Node20</title>
<path fill="none" stroke="midnightblue" d="M1469.69,-68.6764C1472.49,-68.4468 1475.26,-68.2209 1478,-68 1689.03,-50.9594 1746.26,-77.6257 1953,-32 1956.51,-31.2253 1960.13,-30.2063 1963.68,-29.0632"/>
<polygon fill="midnightblue" stroke="midnightblue" points="1965.14,-32.2571 1973.4,-25.6131 1962.8,-25.6605 1965.14,-32.2571"/>
</g>
<!-- Node21 -->
<g id="node21" class="node"><title>Node21</title>
<polygon fill="none" stroke="#bfbfbf" points="1904,-6.5 1904,-25.5 1944,-25.5 1944,-6.5 1904,-6.5"/>
<text text-anchor="middle" x="1924" y="-13.5" font-family="Helvetica,sans-Serif" font-size="10.00">utility</text>
</g>
<!-- Node13&#45;&gt;Node21 -->
<g id="edge20" class="edge"><title>Node13&#45;&gt;Node21</title>
<path fill="none" stroke="midnightblue" d="M1469.51,-68.7092C1620.2,-55.7603 1894.37,-32.1833 1895,-32 1896.92,-31.4446 1898.86,-30.7578 1900.78,-29.9862"/>
<polygon fill="midnightblue" stroke="midnightblue" points="1902.45,-33.067 1910.01,-25.6387 1899.47,-26.7346 1902.45,-33.067"/>
</g>
<!-- Node22 -->
<g id="node22" class="node"><title>Node22</title>
<polygon fill="none" stroke="#bfbfbf" points="2042,-6.5 2042,-25.5 2086,-25.5 2086,-6.5 2042,-6.5"/>
<text text-anchor="middle" x="2064" y="-13.5" font-family="Helvetica,sans-Serif" font-size="10.00">vector</text>
</g>
<!-- Node13&#45;&gt;Node22 -->
<g id="edge21" class="edge"><title>Node13&#45;&gt;Node22</title>
<path fill="none" stroke="midnightblue" d="M1469.68,-68.6373C1472.49,-68.4191 1475.26,-68.2062 1478,-68 1724.04,-49.463 1793.03,-93.4305 2032,-32 2034.5,-31.3584 2037.03,-30.5236 2039.53,-29.5762"/>
<polygon fill="midnightblue" stroke="midnightblue" points="2041.04,-32.7378 2048.81,-25.5354 2038.24,-26.3202 2041.04,-32.7378"/>
</g>
<!-- Node23 -->
<g id="node23" class="node"><title>Node23</title>
<polygon fill="none" stroke="#bfbfbf" points="1091.5,-6.5 1091.5,-25.5 1174.5,-25.5 1174.5,-6.5 1091.5,-6.5"/>
<text text-anchor="middle" x="1133" y="-13.5" font-family="Helvetica,sans-Serif" font-size="10.00">unordered_map</text>
</g>
<!-- Node13&#45;&gt;Node23 -->
<g id="edge22" class="edge"><title>Node13&#45;&gt;Node23</title>
<path fill="none" stroke="midnightblue" d="M1333.9,-68.4459C1295.36,-59.8509 1234.9,-45.917 1183,-32 1178.86,-30.8908 1174.55,-29.6801 1170.27,-28.4431"/>
<polygon fill="midnightblue" stroke="midnightblue" points="1171.01,-25.012 1160.43,-25.5445 1169.03,-31.7269 1171.01,-25.012"/>
</g>
<!-- Node24 -->
<g id="node24" class="node"><title>Node24</title>
<polygon fill="none" stroke="#bfbfbf" points="1192.5,-6.5 1192.5,-25.5 1289.5,-25.5 1289.5,-6.5 1192.5,-6.5"/>
<text text-anchor="middle" x="1241" y="-13.5" font-family="Helvetica,sans-Serif" font-size="10.00">FairMQMessage.h</text>
</g>
<!-- Node13&#45;&gt;Node24 -->
<g id="edge23" class="edge"><title>Node13&#45;&gt;Node24</title>
<path fill="none" stroke="midnightblue" d="M1354.09,-68.4035C1331.84,-58.2896 1294.69,-41.4036 1269.07,-29.761"/>
<polygon fill="midnightblue" stroke="midnightblue" points="1270.43,-26.5324 1259.88,-25.5806 1267.53,-32.905 1270.43,-26.5324"/>
</g>
<!-- Node25 -->
<g id="node25" class="node"><title>Node25</title>
<polygon fill="none" stroke="#bfbfbf" points="1307.5,-6.5 1307.5,-25.5 1438.5,-25.5 1438.5,-6.5 1307.5,-6.5"/>
<text text-anchor="middle" x="1373" y="-13.5" font-family="Helvetica,sans-Serif" font-size="10.00">FairMQTransportFactory.h</text>
</g>
<!-- Node13&#45;&gt;Node25 -->
<g id="edge24" class="edge"><title>Node13&#45;&gt;Node25</title>
<path fill="none" stroke="midnightblue" d="M1373,-68.4035C1373,-59.9381 1373,-46.7283 1373,-35.8199"/>
<polygon fill="midnightblue" stroke="midnightblue" points="1376.5,-35.5806 1373,-25.5806 1369.5,-35.5806 1376.5,-35.5806"/>
</g>
<!-- Node26 -->
<g id="node26" class="node"><title>Node26</title>
<polygon fill="none" stroke="#bfbfbf" points="1456.5,-6.5 1456.5,-25.5 1593.5,-25.5 1593.5,-6.5 1456.5,-6.5"/>
<text text-anchor="middle" x="1525" y="-13.5" font-family="Helvetica,sans-Serif" font-size="10.00">fairmq/MemoryResources.h</text>
</g>
<!-- Node13&#45;&gt;Node26 -->
<g id="edge25" class="edge"><title>Node13&#45;&gt;Node26</title>
<path fill="none" stroke="midnightblue" d="M1394.78,-68.4035C1420.74,-58.1559 1464.31,-40.9561 1493.83,-29.3021"/>
<polygon fill="midnightblue" stroke="midnightblue" points="1495.25,-32.5079 1503.26,-25.5806 1492.68,-25.9968 1495.25,-32.5079"/>
</g>
<!-- Node27 -->
<g id="node27" class="node"><title>Node27</title>
<polygon fill="none" stroke="#bfbfbf" points="1612,-6.5 1612,-25.5 1768,-25.5 1768,-6.5 1612,-6.5"/>
<text text-anchor="middle" x="1690" y="-13.5" font-family="Helvetica,sans-Serif" font-size="10.00">fairmq/MemoryResourceTools.h</text>
</g>
<!-- Node13&#45;&gt;Node27 -->
<g id="edge26" class="edge"><title>Node13&#45;&gt;Node27</title>
<path fill="none" stroke="midnightblue" d="M1418.08,-68.4672C1475.24,-57.6487 1573.72,-39.0087 1635.17,-27.3781"/>
<polygon fill="midnightblue" stroke="midnightblue" points="1635.9,-30.8021 1645.07,-25.5034 1634.6,-23.9242 1635.9,-30.8021"/>
</g>
<!-- Node28&#45;&gt;Node29 -->
<g id="edge28" class="edge"><title>Node28&#45;&gt;Node29</title>
<path fill="none" stroke="midnightblue" d="M2137.05,-124.083C2132.9,-116.613 2126.85,-105.724 2121.73,-96.5199"/>
<polygon fill="midnightblue" stroke="midnightblue" points="2124.78,-94.7929 2116.86,-87.7511 2118.66,-98.1924 2124.78,-94.7929"/>
</g>
<!-- Node33 -->
<g id="node33" class="node"><title>Node33</title>
<g id="a_node33"><a xlink:href="../../d7/d91/BoostSerializer_8h.html" target="_top" xlink:title="Templatised boost serializer/deserializer for containers and base types. ">
<polygon fill="none" stroke="black" points="2442,-68.5 2442,-87.5 2596,-87.5 2596,-68.5 2442,-68.5"/>
<text text-anchor="middle" x="2519" y="-75.5" font-family="Helvetica,sans-Serif" font-size="10.00">CommonUtils/BoostSerializer.h</text>
</a>
</g>
</g>
<!-- Node28&#45;&gt;Node33 -->
<g id="edge35" class="edge"><title>Node28&#45;&gt;Node33</title>
<path fill="none" stroke="midnightblue" d="M2201.74,-124.444C2269.02,-114.806 2378.23,-99.1635 2449.34,-88.9782"/>
<polygon fill="midnightblue" stroke="midnightblue" points="2450.14,-92.399 2459.54,-87.5164 2449.15,-85.4698 2450.14,-92.399"/>
</g>
<!-- Node29&#45;&gt;Node11 -->
<g id="edge31" class="edge"><title>Node29&#45;&gt;Node11</title>
<path fill="none" stroke="midnightblue" d="M2050.42,-75.7808C1778.27,-70.3099 693.629,-47.6126 623,-32 620.095,-31.3579 617.13,-30.478 614.216,-29.4639"/>
<polygon fill="midnightblue" stroke="midnightblue" points="615.249,-26.1076 604.664,-25.6486 612.652,-32.6083 615.249,-26.1076"/>
</g>
<!-- Node29&#45;&gt;Node20 -->
<g id="edge29" class="edge"><title>Node29&#45;&gt;Node20</title>
<path fill="none" stroke="midnightblue" d="M2094.95,-68.4035C2075.16,-58.4232 2042.28,-41.8487 2019.23,-30.2253"/>
<polygon fill="midnightblue" stroke="midnightblue" points="2020.52,-26.9575 2010.02,-25.5806 2017.37,-33.208 2020.52,-26.9575"/>
</g>
<!-- Node29&#45;&gt;Node22 -->
<g id="edge30" class="edge"><title>Node29&#45;&gt;Node22</title>
<path fill="none" stroke="midnightblue" d="M2105.12,-68.4035C2097.85,-59.3143 2086.2,-44.7559 2077.16,-33.4489"/>
<polygon fill="midnightblue" stroke="midnightblue" points="2079.84,-31.2029 2070.86,-25.5806 2074.38,-35.5757 2079.84,-31.2029"/>
</g>
<!-- Node30 -->
<g id="node30" class="node"><title>Node30</title>
<polygon fill="none" stroke="#bfbfbf" points="2226,-1 2226,-31 2330,-31 2330,-1 2226,-1"/>
<text text-anchor="start" x="2234" y="-19" font-family="Helvetica,sans-Serif" font-size="10.00">boost/archive/binary</text>
<text text-anchor="middle" x="2278" y="-8" font-family="Helvetica,sans-Serif" font-size="10.00">_iarchive.hpp</text>
</g>
<!-- Node29&#45;&gt;Node30 -->
<g id="edge32" class="edge"><title>Node29&#45;&gt;Node30</title>
<path fill="none" stroke="midnightblue" d="M2135.78,-68.4035C2160.13,-59.6025 2198.67,-45.6737 2229.49,-34.534"/>
<polygon fill="midnightblue" stroke="midnightblue" points="2230.98,-37.7162 2239.2,-31.0253 2228.6,-31.133 2230.98,-37.7162"/>
</g>
<!-- Node31 -->
<g id="node31" class="node"><title>Node31</title>
<polygon fill="none" stroke="#bfbfbf" points="2104,-1 2104,-31 2208,-31 2208,-1 2104,-1"/>
<text text-anchor="start" x="2112" y="-19" font-family="Helvetica,sans-Serif" font-size="10.00">boost/archive/binary</text>
<text text-anchor="middle" x="2156" y="-8" font-family="Helvetica,sans-Serif" font-size="10.00">_oarchive.hpp</text>
</g>
<!-- Node29&#45;&gt;Node31 -->
<g id="edge33" class="edge"><title>Node29&#45;&gt;Node31</title>
<path fill="none" stroke="midnightblue" d="M2118.3,-68.4035C2123.87,-60.8089 2132.24,-49.3959 2139.68,-39.2518"/>
<polygon fill="midnightblue" stroke="midnightblue" points="2142.54,-41.2747 2145.63,-31.1408 2136.89,-37.1351 2142.54,-41.2747"/>
</g>
<!-- Node29&#45;&gt;Node32 -->
<g id="edge34" class="edge"><title>Node29&#45;&gt;Node32</title>
<path fill="none" stroke="midnightblue" d="M2173.7,-75.161C2424.95,-67.6301 3359.15,-39.204 3389,-32 3391.51,-31.3955 3394.05,-30.5856 3396.55,-29.654"/>
<polygon fill="midnightblue" stroke="midnightblue" points="3398.05,-32.8202 3405.83,-25.6347 3395.27,-26.3966 3398.05,-32.8202"/>
</g>
<!-- Node33&#45;&gt;Node20 -->
<g id="edge37" class="edge"><title>Node33&#45;&gt;Node20</title>
<path fill="none" stroke="midnightblue" d="M2441.82,-76.1619C2345.12,-73.6776 2174.85,-64.5476 2033,-32 2029.5,-31.1961 2025.89,-30.1588 2022.33,-29.0055"/>
<polygon fill="midnightblue" stroke="midnightblue" points="2023.21,-25.6033 2012.62,-25.5449 2020.86,-32.1975 2023.21,-25.6033"/>
</g>
<!-- Node33&#45;&gt;Node21 -->
<g id="edge36" class="edge"><title>Node33&#45;&gt;Node21</title>
<path fill="none" stroke="midnightblue" d="M2441.92,-74.6444C2309.09,-69.9575 2042.69,-57.6286 1953,-32 1951.04,-31.4393 1949.05,-30.7397 1947.09,-29.9513"/>
<polygon fill="midnightblue" stroke="midnightblue" points="1948.23,-26.6164 1937.69,-25.5018 1945.23,-32.9435 1948.23,-26.6164"/>
</g>
<!-- Node33&#45;&gt;Node22 -->
<g id="edge39" class="edge"><title>Node33&#45;&gt;Node22</title>
<path fill="none" stroke="midnightblue" d="M2441.66,-76.7187C2355.5,-74.595 2212.8,-65.6444 2095,-32 2092.8,-31.373 2090.57,-30.5993 2088.37,-29.7365"/>
<polygon fill="midnightblue" stroke="midnightblue" points="2089.6,-26.4514 2079.04,-25.5638 2086.74,-32.8415 2089.6,-26.4514"/>
</g>
<!-- Node33&#45;&gt;Node30 -->
<g id="edge43" class="edge"><title>Node33&#45;&gt;Node30</title>
<path fill="none" stroke="midnightblue" d="M2484.73,-68.4672C2447.2,-59.1232 2386.23,-43.9446 2340.21,-32.4869"/>
<polygon fill="midnightblue" stroke="midnightblue" points="2340.88,-29.0483 2330.33,-30.0286 2339.19,-35.8409 2340.88,-29.0483"/>
</g>
<!-- Node33&#45;&gt;Node31 -->
<g id="edge44" class="edge"><title>Node33&#45;&gt;Node31</title>
<path fill="none" stroke="midnightblue" d="M2449.11,-68.4652C2390.04,-60.8212 2302.99,-48.5532 2218.23,-32.1377"/>
<polygon fill="midnightblue" stroke="midnightblue" points="2218.66,-28.6556 2208.17,-30.1683 2217.31,-35.5251 2218.66,-28.6556"/>
</g>
<!-- Node34 -->
<g id="node34" class="node"><title>Node34</title>
<polygon fill="none" stroke="#bfbfbf" points="2474,-6.5 2474,-25.5 2512,-25.5 2512,-6.5 2474,-6.5"/>
<text text-anchor="middle" x="2493" y="-13.5" font-family="Helvetica,sans-Serif" font-size="10.00">array</text>
</g>
<!-- Node33&#45;&gt;Node34 -->
<g id="edge38" class="edge"><title>Node33&#45;&gt;Node34</title>
<path fill="none" stroke="midnightblue" d="M2515.27,-68.4035C2511.49,-59.6707 2505.52,-45.8893 2500.71,-34.7936"/>
<polygon fill="midnightblue" stroke="midnightblue" points="2503.91,-33.3645 2496.72,-25.5806 2497.48,-36.1478 2503.91,-33.3645"/>
</g>
<!-- Node35 -->
<g id="node35" class="node"><title>Node35</title>
<polygon fill="none" stroke="#bfbfbf" points="2530.5,-6.5 2530.5,-25.5 2559.5,-25.5 2559.5,-6.5 2530.5,-6.5"/>
<text text-anchor="middle" x="2545" y="-13.5" font-family="Helvetica,sans-Serif" font-size="10.00">list</text>
</g>
<!-- Node33&#45;&gt;Node35 -->
<g id="edge40" class="edge"><title>Node33&#45;&gt;Node35</title>
<path fill="none" stroke="midnightblue" d="M2522.73,-68.4035C2526.51,-59.6707 2532.48,-45.8893 2537.29,-34.7936"/>
<polygon fill="midnightblue" stroke="midnightblue" points="2540.52,-36.1478 2541.28,-25.5806 2534.09,-33.3645 2540.52,-36.1478"/>
</g>
<!-- Node36 -->
<g id="node36" class="node"><title>Node36</title>
<polygon fill="none" stroke="#bfbfbf" points="2577.5,-6.5 2577.5,-25.5 2612.5,-25.5 2612.5,-6.5 2577.5,-6.5"/>
<text text-anchor="middle" x="2595" y="-13.5" font-family="Helvetica,sans-Serif" font-size="10.00">map</text>
</g>
<!-- Node33&#45;&gt;Node36 -->
<g id="edge41" class="edge"><title>Node33&#45;&gt;Node36</title>
<path fill="none" stroke="midnightblue" d="M2529.89,-68.4035C2541.97,-58.8688 2561.67,-43.3154 2576.24,-31.8106"/>
<polygon fill="midnightblue" stroke="midnightblue" points="2578.45,-34.5242 2584.13,-25.5806 2574.11,-29.03 2578.45,-34.5242"/>
</g>
<!-- Node37 -->
<g id="node37" class="node"><title>Node37</title>
<polygon fill="none" stroke="#bfbfbf" points="2631,-6.5 2631,-25.5 2661,-25.5 2661,-6.5 2631,-6.5"/>
<text text-anchor="middle" x="2646" y="-13.5" font-family="Helvetica,sans-Serif" font-size="10.00">set</text>
</g>
<!-- Node33&#45;&gt;Node37 -->
<g id="edge42" class="edge"><title>Node33&#45;&gt;Node37</title>
<path fill="none" stroke="midnightblue" d="M2540.46,-68.4493C2561.36,-59.9109 2593.85,-46.0662 2621,-32 2621.83,-31.5722 2622.66,-31.1285 2623.5,-30.6735"/>
<polygon fill="midnightblue" stroke="midnightblue" points="2625.48,-33.573 2632.42,-25.5664 2622,-27.4984 2625.48,-33.573"/>
</g>
<!-- Node38 -->
<g id="node38" class="node"><title>Node38</title>
<polygon fill="none" stroke="#bfbfbf" points="2679,-1 2679,-31 2815,-31 2815,-1 2679,-1"/>
<text text-anchor="start" x="2687" y="-19" font-family="Helvetica,sans-Serif" font-size="10.00">boost/serialization</text>
<text text-anchor="middle" x="2747" y="-8" font-family="Helvetica,sans-Serif" font-size="10.00">/is_bitwise_serializable.hpp</text>
</g>
<!-- Node33&#45;&gt;Node38 -->
<g id="edge45" class="edge"><title>Node33&#45;&gt;Node38</title>
<path fill="none" stroke="midnightblue" d="M2551.67,-68.4035C2586.05,-59.3549 2641.03,-44.8857 2683.92,-33.6005"/>
<polygon fill="midnightblue" stroke="midnightblue" points="2684.92,-36.9551 2693.7,-31.0253 2683.14,-30.1856 2684.92,-36.9551"/>
</g>
<!-- Node39 -->
<g id="node39" class="node"><title>Node39</title>
<polygon fill="none" stroke="#bfbfbf" points="2833.5,-1 2833.5,-31 2928.5,-31 2928.5,-1 2833.5,-1"/>
<text text-anchor="start" x="2841.5" y="-19" font-family="Helvetica,sans-Serif" font-size="10.00">boost/serialization</text>
<text text-anchor="middle" x="2881" y="-8" font-family="Helvetica,sans-Serif" font-size="10.00">/serialization.hpp</text>
</g>
<!-- Node33&#45;&gt;Node39 -->
<g id="edge46" class="edge"><title>Node33&#45;&gt;Node39</title>
<path fill="none" stroke="midnightblue" d="M2592.42,-68.486C2652.09,-61.0353 2738.58,-49.0312 2823.16,-32.0335"/>
<polygon fill="midnightblue" stroke="midnightblue" points="2824.1,-35.4152 2833.2,-29.991 2822.7,-28.5558 2824.1,-35.4152"/>
</g>
<!-- Node40 -->
<g id="node40" class="node"><title>Node40</title>
<polygon fill="none" stroke="#bfbfbf" points="2946.5,-1 2946.5,-31 3041.5,-31 3041.5,-1 2946.5,-1"/>
<text text-anchor="start" x="2954.5" y="-19" font-family="Helvetica,sans-Serif" font-size="10.00">boost/serialization</text>
<text text-anchor="middle" x="2994" y="-8" font-family="Helvetica,sans-Serif" font-size="10.00">/array.hpp</text>
</g>
<!-- Node33&#45;&gt;Node40 -->
<g id="edge47" class="edge"><title>Node33&#45;&gt;Node40</title>
<path fill="none" stroke="midnightblue" d="M2596.32,-69.3103C2700.74,-58.8356 2879.45,-40.5589 2936.28,-31.7986"/>
<polygon fill="midnightblue" stroke="midnightblue" points="2936.94,-35.2365 2946.22,-30.1292 2935.78,-28.3331 2936.94,-35.2365"/>
</g>
<!-- Node41 -->
<g id="node41" class="node"><title>Node41</title>
<polygon fill="none" stroke="#bfbfbf" points="3059.5,-1 3059.5,-31 3154.5,-31 3154.5,-1 3059.5,-1"/>
<text text-anchor="start" x="3067.5" y="-19" font-family="Helvetica,sans-Serif" font-size="10.00">boost/serialization</text>
<text text-anchor="middle" x="3107" y="-8" font-family="Helvetica,sans-Serif" font-size="10.00">/vector.hpp</text>
</g>
<!-- Node33&#45;&gt;Node41 -->
<g id="edge48" class="edge"><title>Node33&#45;&gt;Node41</title>
<path fill="none" stroke="midnightblue" d="M2596.44,-69.2513C2601.03,-68.8202 2605.57,-68.4 2610,-68 2802.17,-50.637 2854.86,-64.6137 3049.27,-31.9159"/>
<polygon fill="midnightblue" stroke="midnightblue" points="3049.97,-35.3477 3059.24,-30.2197 3048.79,-28.4469 3049.97,-35.3477"/>
</g>
<!-- Node42 -->
<g id="node42" class="node"><title>Node42</title>
<polygon fill="none" stroke="#bfbfbf" points="3172.5,-1 3172.5,-31 3267.5,-31 3267.5,-1 3172.5,-1"/>
<text text-anchor="start" x="3180.5" y="-19" font-family="Helvetica,sans-Serif" font-size="10.00">boost/serialization</text>
<text text-anchor="middle" x="3220" y="-8" font-family="Helvetica,sans-Serif" font-size="10.00">/list.hpp</text>
</g>
<!-- Node33&#45;&gt;Node42 -->
<g id="edge49" class="edge"><title>Node33&#45;&gt;Node42</title>
<path fill="none" stroke="midnightblue" d="M2596.43,-69.1637C2601.02,-68.7546 2605.57,-68.3632 2610,-68 2852.24,-48.142 2918.16,-70.9073 3162.37,-31.8762"/>
<polygon fill="midnightblue" stroke="midnightblue" points="3162.94,-35.3295 3172.25,-30.2785 3161.82,-28.4192 3162.94,-35.3295"/>
</g>
<!-- Node43 -->
<g id="node43" class="node"><title>Node43</title>
<polygon fill="none" stroke="#bfbfbf" points="3285.5,-1 3285.5,-31 3380.5,-31 3380.5,-1 3285.5,-1"/>
<text text-anchor="start" x="3293.5" y="-19" font-family="Helvetica,sans-Serif" font-size="10.00">boost/serialization</text>
<text text-anchor="middle" x="3333" y="-8" font-family="Helvetica,sans-Serif" font-size="10.00">/map.hpp</text>
</g>
<!-- Node33&#45;&gt;Node43 -->
<g id="edge50" class="edge"><title>Node33&#45;&gt;Node43</title>
<path fill="none" stroke="midnightblue" d="M2596.43,-69.1057C2601.02,-68.7112 2605.57,-68.3388 2610,-68 2902.25,-45.6606 2981.38,-77.2331 3275.16,-31.8924"/>
<polygon fill="midnightblue" stroke="midnightblue" points="3275.91,-35.3174 3285.26,-30.3175 3274.84,-28.401 3275.91,-35.3174"/>
</g>
<!-- Node44 -->
<g id="node44" class="node"><title>Node44</title>
<polygon fill="none" stroke="#bfbfbf" points="3461.5,-1 3461.5,-31 3556.5,-31 3556.5,-1 3461.5,-1"/>
<text text-anchor="start" x="3469.5" y="-19" font-family="Helvetica,sans-Serif" font-size="10.00">boost/serialization</text>
<text text-anchor="middle" x="3509" y="-8" font-family="Helvetica,sans-Serif" font-size="10.00">/set.hpp</text>
</g>
<!-- Node33&#45;&gt;Node44 -->
<g id="edge51" class="edge"><title>Node33&#45;&gt;Node44</title>
<path fill="none" stroke="midnightblue" d="M2596.13,-75.3571C2785.29,-70.9998 3269.4,-57.7808 3451.27,-31.824"/>
<polygon fill="midnightblue" stroke="midnightblue" points="3451.88,-35.2717 3461.26,-30.3381 3450.85,-28.348 3451.88,-35.2717"/>
</g>
<!-- Node45 -->
<g id="node45" class="node"><title>Node45</title>
<polygon fill="none" stroke="#bfbfbf" points="2348,-6.5 2348,-25.5 2456,-25.5 2456,-6.5 2348,-6.5"/>
<text text-anchor="middle" x="2402" y="-13.5" font-family="Helvetica,sans-Serif" font-size="10.00">boost/type_traits.hpp</text>
</g>
<!-- Node33&#45;&gt;Node45 -->
<g id="edge52" class="edge"><title>Node33&#45;&gt;Node45</title>
<path fill="none" stroke="midnightblue" d="M2502.24,-68.4035C2482.78,-58.4232 2450.45,-41.8487 2427.79,-30.2253"/>
<polygon fill="midnightblue" stroke="midnightblue" points="2429.23,-27.0294 2418.73,-25.5806 2426.03,-33.2582 2429.23,-27.0294"/>
</g>
<!-- Node46&#45;&gt;Node11 -->
<g id="edge56" class="edge"><title>Node46&#45;&gt;Node11</title>
<path fill="none" stroke="midnightblue" d="M427.14,-68.4385C460.255,-60.2463 510.452,-46.9512 553,-32 555.263,-31.2048 557.587,-30.3338 559.91,-29.4243"/>
<polygon fill="midnightblue" stroke="midnightblue" points="561.375,-32.6064 569.292,-25.5654 558.712,-26.1327 561.375,-32.6064"/>
</g>
<!-- Node46&#45;&gt;Node18 -->
<g id="edge58" class="edge"><title>Node46&#45;&gt;Node18</title>
<path fill="none" stroke="midnightblue" d="M409.626,-68.4035C431.443,-58.3341 467.804,-41.5522 493.017,-29.9151"/>
<polygon fill="midnightblue" stroke="midnightblue" points="494.796,-32.9491 502.409,-25.5806 491.862,-26.5934 494.796,-32.9491"/>
</g>
<!-- Node46&#45;&gt;Node19 -->
<g id="edge61" class="edge"><title>Node46&#45;&gt;Node19</title>
<path fill="none" stroke="midnightblue" d="M400.743,-68.4035C411.347,-59.047 428.519,-43.8948 441.479,-32.4599"/>
<polygon fill="midnightblue" stroke="midnightblue" points="444.093,-34.8213 449.275,-25.5806 439.461,-29.5724 444.093,-34.8213"/>
</g>
<!-- Node47 -->
<g id="node47" class="node"><title>Node47</title>
<polygon fill="none" stroke="#bfbfbf" points="297,-6.5 297,-25.5 343,-25.5 343,-6.5 297,-6.5"/>
<text text-anchor="middle" x="320" y="-13.5" font-family="Helvetica,sans-Serif" font-size="10.00">cstdint</text>
</g>
<!-- Node46&#45;&gt;Node47 -->
<g id="edge55" class="edge"><title>Node46&#45;&gt;Node47</title>
<path fill="none" stroke="midnightblue" d="M380.827,-68.4035C369.65,-58.9579 351.483,-43.6056 337.909,-32.1342"/>
<polygon fill="midnightblue" stroke="midnightblue" points="340.051,-29.3619 330.154,-25.5806 335.533,-34.7085 340.051,-29.3619"/>
</g>
<!-- Node48 -->
<g id="node48" class="node"><title>Node48</title>
<polygon fill="none" stroke="#bfbfbf" points="-0.5,-6.5 -0.5,-25.5 48.5,-25.5 48.5,-6.5 -0.5,-6.5"/>
<text text-anchor="middle" x="24" y="-13.5" font-family="Helvetica,sans-Serif" font-size="10.00">cassert</text>
</g>
<!-- Node46&#45;&gt;Node48 -->
<g id="edge57" class="edge"><title>Node46&#45;&gt;Node48</title>
<path fill="none" stroke="midnightblue" d="M332.24,-74.0544C264.906,-69.5385 151.766,-58.4466 58,-32 55.5007,-31.2951 52.9468,-30.441 50.4173,-29.5021"/>
<polygon fill="midnightblue" stroke="midnightblue" points="51.5284,-26.1744 40.9493,-25.5969 48.8592,-32.6456 51.5284,-26.1744"/>
</g>
<!-- Node49 -->
<g id="node49" class="node"><title>Node49</title>
<polygon fill="none" stroke="#bfbfbf" points="67,-6.5 67,-25.5 123,-25.5 123,-6.5 67,-6.5"/>
<text text-anchor="middle" x="95" y="-13.5" font-family="Helvetica,sans-Serif" font-size="10.00">algorithm</text>
</g>
<!-- Node46&#45;&gt;Node49 -->
<g id="edge59" class="edge"><title>Node46&#45;&gt;Node49</title>
<path fill="none" stroke="midnightblue" d="M332.339,-70.4334C279.315,-63.6466 199.464,-51.2969 132,-32 129.189,-31.1958 126.299,-30.2494 123.433,-29.2293"/>
<polygon fill="midnightblue" stroke="midnightblue" points="124.521,-25.8977 113.931,-25.5777 122.01,-32.4319 124.521,-25.8977"/>
</g>
<!-- Node46&#45;&gt;Node50 -->
<g id="edge60" class="edge"><title>Node46&#45;&gt;Node50</title>
<path fill="none" stroke="midnightblue" d="M391,-68.4035C391,-59.9381 391,-46.7283 391,-35.8199"/>
<polygon fill="midnightblue" stroke="midnightblue" points="394.5,-35.5806 391,-25.5806 387.5,-35.5806 394.5,-35.5806"/>
</g>
<!-- Node51 -->
<g id="node51" class="node"><title>Node51</title>
<g id="a_node51"><a xlink:href="../../d7/df8/Types_8h.html" target="_top" xlink:title="MemoryResources/Types.h">
<polygon fill="none" stroke="black" points="141.5,-6.5 141.5,-25.5 278.5,-25.5 278.5,-6.5 141.5,-6.5"/>
<text text-anchor="middle" x="210" y="-13.5" font-family="Helvetica,sans-Serif" font-size="10.00">MemoryResources/Types.h</text>
</a>
</g>
</g>
<!-- Node46&#45;&gt;Node51 -->
<g id="edge62" class="edge"><title>Node46&#45;&gt;Node51</title>
<path fill="none" stroke="midnightblue" d="M365.067,-68.4035C333.75,-58.0222 280.91,-40.5062 245.744,-28.849"/>
<polygon fill="midnightblue" stroke="midnightblue" points="246.478,-25.405 235.885,-25.5806 244.276,-32.0494 246.478,-25.405"/>
</g>
</g>
</svg>
        <g id="navigator" transform="translate(0 0)" fill="#404254">
                <rect fill="#f2f5e9" fill-opacity="0.5" stroke="#606060" stroke-width=".5" x="0" y="0" width="60" height="60"/>
                <use id="zoomplus" xlink:href="#zoomPlus" x="17" y="9" onmousedown="handleZoom(evt,'in')"/>
                <use id="zoomminus" xlink:href="#zoomMin" x="42" y="9" onmousedown="handleZoom(evt,'out')"/>
                <use id="reset" xlink:href="#resetDef" x="30" y="36" onmousedown="handleReset()"/>
                <g id="arrowUp" xlink:href="#dirArrow" transform="translate(30 24)" onmousedown="handlePan(0,-1)">
                  <use xlink:href="#rim" fill="#404040">
                        <set attributeName="fill" to="#808080" begin="arrowUp.mouseover" end="arrowUp.mouseout"/>
                  </use>
                  <path fill="none" stroke="white" stroke-width="1.5" d="M0,-3.0v7 M-2.5,-0.5L0,-3.0L2.5,-0.5"/>
                </g>
                <g id="arrowRight" xlink:href="#dirArrow" transform="rotate(90) translate(36 -43)" onmousedown="handlePan(1,0)">
                  <use xlink:href="#rim" fill="#404040">
                        <set attributeName="fill" to="#808080" begin="arrowRight.mouseover" end="arrowRight.mouseout"/>
                  </use>
                  <path fill="none" stroke="white" stroke-width="1.5" d="M0,-3.0v7 M-2.5,-0.5L0,-3.0L2.5,-0.5"/>
                </g>
                <g id="arrowDown" xlink:href="#dirArrow" transform="rotate(180) translate(-30 -48)" onmousedown="handlePan(0,1)">
                  <use xlink:href="#rim" fill="#404040">
                        <set attributeName="fill" to="#808080" begin="arrowDown.mouseover" end="arrowDown.mouseout"/>
                  </use>
                  <path fill="none" stroke="white" stroke-width="1.5" d="M0,-3.0v7 M-2.5,-0.5L0,-3.0L2.5,-0.5"/>
                </g>
                <g id="arrowLeft" xlink:href="#dirArrow" transform="rotate(270) translate(-36 17)" onmousedown="handlePan(-1,0)">
                  <use xlink:href="#rim" fill="#404040">
                        <set attributeName="fill" to="#808080" begin="arrowLeft.mouseover" end="arrowLeft.mouseout"/>
                  </use>
                  <path fill="none" stroke="white" stroke-width="1.5" d="M0,-3.0v7 M-2.5,-0.5L0,-3.0L2.5,-0.5"/>
                </g>
        </g>
        <svg viewBox="0 0 15 15" width="100%" height="30px" preserveAspectRatio="xMaxYMin meet">
         <g id="arrow_out" transform="scale(0.3 0.3)">
          <a xlink:href="DataRefUtils_8h__incl_org.svg" target="_base">
           <rect id="button" ry="5" rx="5" y="6" x="6" height="38" width="38"
                fill="#f2f5e9" fill-opacity="0.5" stroke="#606060" stroke-width="1.0"/>
           <path id="arrow"
             d="M 11.500037,31.436501 C 11.940474,20.09759 22.043105,11.32322 32.158766,21.979434 L 37.068811,17.246167 C 37.068811,17.246167 37.088388,32 37.088388,32 L 22.160133,31.978069 C 22.160133,31.978069 26.997745,27.140456 26.997745,27.140456 C 18.528582,18.264221 13.291696,25.230495 11.500037,31.436501 z"
             style="fill:#404040;"/>
          </a>
         </g>
        </svg>
</svg>
