<?xml version="1.0" encoding="UTF-8" standalone="no"?>
<!DOCTYPE svg PUBLIC "-//W3C//DTD SVG 1.1//EN"
 "http://www.w3.org/Graphics/SVG/1.1/DTD/svg11.dtd">
<!-- Generated by graphviz version 2.36.0 (20140111.2315)
 -->
<!-- Title: /home/travis/build/AliceO2Group/AliceO2/Detectors/PHOS/simulation/include/PHOSSimulation/DigitizerTask.h Pages: 1 -->
<!--zoomable 500 -->
<svg id="main" version="1.1" xmlns="http://www.w3.org/2000/svg" xmlns:xlink="http://www.w3.org/1999/xlink" xml:space="preserve" onload="init(evt)">
<style type="text/css"><![CDATA[
.edge:hover path { stroke: red; }
.edge:hover polygon { stroke: red; fill: red; }
]]></style>
<script type="text/javascript"><![CDATA[
var edges = document.getElementsByTagName('g');
if (edges && edges.length) {
  for (var i=0;i<edges.length;i++) {
    if (edges[i].id.substr(0,4)=='edge') {
      edges[i].setAttribute('class','edge');
    }
  }
}
]]></script>
        <defs>
                <circle id="rim" cx="0" cy="0" r="7"/>
                <circle id="rim2" cx="0" cy="0" r="3.5"/>
                <g id="zoomPlus">
                        <use xlink:href="#rim" fill="#404040">
                                <set attributeName="fill" to="#808080" begin="zoomplus.mouseover" end="zoomplus.mouseout"/>
                        </use>
                        <path d="M-4,0h8M0,-4v8" fill="none" stroke="white" stroke-width="1.5" pointer-events="none"/>
                </g>
                <g id="zoomMin">
                        <use xlink:href="#rim" fill="#404040">
                                <set attributeName="fill" to="#808080" begin="zoomminus.mouseover" end="zoomminus.mouseout"/>
                        </use>
                        <path d="M-4,0h8" fill="none" stroke="white" stroke-width="1.5" pointer-events="none"/>
                </g>
                <g id="dirArrow">
                        <path fill="none" stroke="white" stroke-width="1.5" d="M0,-3.0v7 M-2.5,-0.5L0,-3.0L2.5,-0.5"/>
                </g>
               <g id="resetDef">
                       <use xlink:href="#rim2" fill="#404040">
                               <set attributeName="fill" to="#808080" begin="reset.mouseover" end="reset.mouseout"/>
                       </use>
               </g>
        </defs>

<script type="text/javascript">
var viewWidth = 1727;
var viewHeight = 500;
var sectionId = 'dynsection-0';
</script>
<script xlink:href="../../svgpan.js"/>
<svg id="graph" class="graph">
<g id="viewport">
<title>/home/travis/build/AliceO2Group/AliceO2/Detectors/PHOS/simulation/include/PHOSSimulation/DigitizerTask.h</title>
<!-- Node1 -->
<g id="node1" class="node"><title>Node1</title>
<polygon fill="#bfbfbf" stroke="black" points="138.5,-428.5 138.5,-491.5 305.5,-491.5 305.5,-428.5 138.5,-428.5"/>
<text text-anchor="start" x="146.5" y="-479.5" font-family="Helvetica,sans-Serif" font-size="10.00">/home/travis/build</text>
<text text-anchor="start" x="146.5" y="-468.5" font-family="Helvetica,sans-Serif" font-size="10.00">/AliceO2Group/AliceO2</text>
<text text-anchor="start" x="146.5" y="-457.5" font-family="Helvetica,sans-Serif" font-size="10.00">/Detectors/PHOS/simulation</text>
<text text-anchor="start" x="146.5" y="-446.5" font-family="Helvetica,sans-Serif" font-size="10.00">/include/PHOSSimulation/Digitizer</text>
<text text-anchor="middle" x="222" y="-435.5" font-family="Helvetica,sans-Serif" font-size="10.00">Task.h</text>
</g>
<!-- Node2 -->
<g id="node2" class="node"><title>Node2</title>
<polygon fill="none" stroke="#bfbfbf" points="-0.5,-372.5 -0.5,-391.5 62.5,-391.5 62.5,-372.5 -0.5,-372.5"/>
<text text-anchor="middle" x="31" y="-379.5" font-family="Helvetica,sans-Serif" font-size="10.00">FairTask.h</text>
</g>
<!-- Node1&#45;&gt;Node2 -->
<g id="edge1" class="edge"><title>Node1&#45;&gt;Node2</title>
<path fill="none" stroke="midnightblue" d="M145.139,-428.416C116.063,-416.847 84.5888,-404.323 62.0705,-395.363"/>
<polygon fill="midnightblue" stroke="midnightblue" points="63.2843,-392.079 52.6988,-391.634 60.6962,-398.583 63.2843,-392.079"/>
</g>
<!-- Node3 -->
<g id="node3" class="node"><title>Node3</title>
<polygon fill="none" stroke="#bfbfbf" points="63,-74.5 63,-93.5 119,-93.5 119,-74.5 63,-74.5"/>
<text text-anchor="middle" x="91" y="-81.5" font-family="Helvetica,sans-Serif" font-size="10.00">Rtypes.h</text>
</g>
<!-- Node1&#45;&gt;Node3 -->
<g id="edge2" class="edge"><title>Node1&#45;&gt;Node3</title>
<path fill="none" stroke="midnightblue" d="M163.015,-428.374C128.244,-405.673 91,-371.071 91,-327 91,-327 91,-327 91,-207 91,-170.414 91,-127.656 91,-103.712"/>
<polygon fill="midnightblue" stroke="midnightblue" points="94.5001,-103.579 91,-93.5789 87.5001,-103.579 94.5001,-103.579"/>
</g>
<!-- Node4 -->
<g id="node4" class="node"><title>Node4</title>
<g id="a_node4"><a xlink:href="../../d1/def/PHOS_2base_2include_2PHOSBase_2Hit_8h.html" target="_top" xlink:title="PHOSBase/Hit.h">
<polygon fill="none" stroke="black" points="341,-260.5 341,-279.5 433,-279.5 433,-260.5 341,-260.5"/>
<text text-anchor="middle" x="387" y="-267.5" font-family="Helvetica,sans-Serif" font-size="10.00">PHOSBase/Hit.h</text>
</a>
</g>
</g>
<!-- Node1&#45;&gt;Node4 -->
<g id="edge3" class="edge"><title>Node1&#45;&gt;Node4</title>
<path fill="none" stroke="midnightblue" d="M250.783,-428.331C273.692,-403.698 306.378,-368.049 334,-336 347.902,-319.869 363.218,-300.955 373.795,-287.702"/>
<polygon fill="midnightblue" stroke="midnightblue" points="376.803,-289.542 380.284,-279.536 371.323,-285.187 376.803,-289.542"/>
</g>
<!-- Node24 -->
<g id="node24" class="node"><title>Node24</title>
<g id="a_node24"><a xlink:href="../../d6/d4b/PHOS_2simulation_2include_2PHOSSimulation_2Digitizer_8h.html" target="_top" xlink:title="PHOSSimulation/Digitizer.h">
<polygon fill="none" stroke="black" points="382,-372.5 382,-391.5 520,-391.5 520,-372.5 382,-372.5"/>
<text text-anchor="middle" x="451" y="-379.5" font-family="Helvetica,sans-Serif" font-size="10.00">PHOSSimulation/Digitizer.h</text>
</a>
</g>
</g>
<!-- Node1&#45;&gt;Node24 -->
<g id="edge24" class="edge"><title>Node1&#45;&gt;Node24</title>
<path fill="none" stroke="midnightblue" d="M305.646,-431.24C343.477,-418.684 386.164,-404.518 415.438,-394.802"/>
<polygon fill="midnightblue" stroke="midnightblue" points="416.815,-398.033 425.203,-391.561 414.61,-391.389 416.815,-398.033"/>
</g>
<!-- Node5 -->
<g id="node5" class="node"><title>Node5</title>
<g id="a_node5"><a xlink:href="../../d4/d25/BaseHits_8h.html" target="_top" xlink:title="SimulationDataFormat\l/BaseHits.h">
<polygon fill="none" stroke="black" points="538,-193 538,-223 652,-223 652,-193 538,-193"/>
<text text-anchor="start" x="546" y="-211" font-family="Helvetica,sans-Serif" font-size="10.00">SimulationDataFormat</text>
<text text-anchor="middle" x="595" y="-200" font-family="Helvetica,sans-Serif" font-size="10.00">/BaseHits.h</text>
</a>
</g>
</g>
<!-- Node4&#45;&gt;Node5 -->
<g id="edge4" class="edge"><title>Node4&#45;&gt;Node5</title>
<path fill="none" stroke="midnightblue" d="M416.801,-260.403C447.972,-251.412 497.697,-237.068 536.709,-225.815"/>
<polygon fill="midnightblue" stroke="midnightblue" points="537.741,-229.16 546.379,-223.025 535.801,-222.434 537.741,-229.16"/>
</g>
<!-- Node17 -->
<g id="node17" class="node"><title>Node17</title>
<g id="a_node17"><a xlink:href="../../d0/d91/ShmAllocator_8h.html" target="_top" xlink:title="CommonUtils/ShmAllocator.h">
<polygon fill="none" stroke="black" points="980,-198.5 980,-217.5 1126,-217.5 1126,-198.5 980,-198.5"/>
<text text-anchor="middle" x="1053" y="-205.5" font-family="Helvetica,sans-Serif" font-size="10.00">CommonUtils/ShmAllocator.h</text>
</a>
</g>
</g>
<!-- Node4&#45;&gt;Node17 -->
<g id="edge17" class="edge"><title>Node4&#45;&gt;Node17</title>
<path fill="none" stroke="midnightblue" d="M433.175,-261.173C436.158,-260.751 439.119,-260.355 442,-260 630.111,-236.795 852.135,-221.197 969.891,-213.851"/>
<polygon fill="midnightblue" stroke="midnightblue" points="970.153,-217.341 979.918,-213.229 969.72,-210.355 970.153,-217.341"/>
</g>
<!-- Node6 -->
<g id="node6" class="node"><title>Node6</title>
<g id="a_node6"><a xlink:href="../../dd/d76/Cartesian3D_8h.html" target="_top" xlink:title="MathUtils/Cartesian3D.h">
<polygon fill="none" stroke="black" points="563.5,-136.5 563.5,-155.5 688.5,-155.5 688.5,-136.5 563.5,-136.5"/>
<text text-anchor="middle" x="626" y="-143.5" font-family="Helvetica,sans-Serif" font-size="10.00">MathUtils/Cartesian3D.h</text>
</a>
</g>
</g>
<!-- Node5&#45;&gt;Node6 -->
<g id="edge5" class="edge"><title>Node5&#45;&gt;Node6</title>
<path fill="none" stroke="midnightblue" d="M602.347,-192.781C606.665,-184.422 612.165,-173.777 616.774,-164.856"/>
<polygon fill="midnightblue" stroke="midnightblue" points="620.008,-166.221 621.489,-155.731 613.789,-163.008 620.008,-166.221"/>
</g>
<!-- Node6&#45;&gt;Node3 -->
<g id="edge11" class="edge"><title>Node6&#45;&gt;Node3</title>
<path fill="none" stroke="midnightblue" d="M563.15,-145.415C467.544,-144.691 280.472,-137.942 127,-100 124.007,-99.2601 120.94,-98.3089 117.92,-97.245"/>
<polygon fill="midnightblue" stroke="midnightblue" points="119.168,-93.975 108.581,-93.5829 116.613,-100.492 119.168,-93.975"/>
</g>
<!-- Node7 -->
<g id="node7" class="node"><title>Node7</title>
<polygon fill="none" stroke="#bfbfbf" points="956.5,-69 956.5,-99 1107.5,-99 1107.5,-69 956.5,-69"/>
<text text-anchor="start" x="964.5" y="-87" font-family="Helvetica,sans-Serif" font-size="10.00">Math/GenVector/Displacement</text>
<text text-anchor="middle" x="1032" y="-76" font-family="Helvetica,sans-Serif" font-size="10.00">Vector3D.h</text>
</g>
<!-- Node6&#45;&gt;Node7 -->
<g id="edge6" class="edge"><title>Node6&#45;&gt;Node7</title>
<path fill="none" stroke="midnightblue" d="M688.535,-136.9C751.148,-128.638 850.506,-115.121 946.593,-100.03"/>
<polygon fill="midnightblue" stroke="midnightblue" points="947.147,-103.486 956.479,-98.4701 946.056,-96.5717 947.147,-103.486"/>
</g>
<!-- Node8 -->
<g id="node8" class="node"><title>Node8</title>
<polygon fill="none" stroke="#bfbfbf" points="1126,-74.5 1126,-93.5 1302,-93.5 1302,-74.5 1126,-74.5"/>
<text text-anchor="middle" x="1214" y="-81.5" font-family="Helvetica,sans-Serif" font-size="10.00">Math/GenVector/PositionVector3D.h</text>
</g>
<!-- Node6&#45;&gt;Node8 -->
<g id="edge7" class="edge"><title>Node6&#45;&gt;Node8</title>
<path fill="none" stroke="midnightblue" d="M688.782,-140.452C782.125,-133.415 962.945,-118.724 1116,-100 1127.75,-98.5631 1140.25,-96.8161 1152.26,-95.0293"/>
<polygon fill="midnightblue" stroke="midnightblue" points="1152.84,-98.4815 1162.2,-93.5249 1151.79,-91.5602 1152.84,-98.4815"/>
</g>
<!-- Node9 -->
<g id="node9" class="node"><title>Node9</title>
<polygon fill="none" stroke="#bfbfbf" points="136.5,-74.5 136.5,-93.5 285.5,-93.5 285.5,-74.5 136.5,-74.5"/>
<text text-anchor="middle" x="211" y="-81.5" font-family="Helvetica,sans-Serif" font-size="10.00">Math/GenVector/Rotation3D.h</text>
</g>
<!-- Node6&#45;&gt;Node9 -->
<g id="edge8" class="edge"><title>Node6&#45;&gt;Node9</title>
<path fill="none" stroke="midnightblue" d="M563.355,-137.272C496.707,-128.865 388.24,-114.657 295,-100 285.865,-98.564 276.191,-96.9365 266.783,-95.2962"/>
<polygon fill="midnightblue" stroke="midnightblue" points="267.174,-91.8112 256.717,-93.5198 265.957,-98.7047 267.174,-91.8112"/>
</g>
<!-- Node10 -->
<g id="node10" class="node"><title>Node10</title>
<polygon fill="none" stroke="#bfbfbf" points="304,-74.5 304,-93.5 460,-93.5 460,-74.5 304,-74.5"/>
<text text-anchor="middle" x="382" y="-81.5" font-family="Helvetica,sans-Serif" font-size="10.00">Math/GenVector/Transform3D.h</text>
</g>
<!-- Node6&#45;&gt;Node10 -->
<g id="edge9" class="edge"><title>Node6&#45;&gt;Node10</title>
<path fill="none" stroke="midnightblue" d="M591.3,-136.467C548.03,-125.827 473.994,-107.622 426.568,-95.9593"/>
<polygon fill="midnightblue" stroke="midnightblue" points="427.127,-92.4926 416.58,-93.5034 425.455,-99.2901 427.127,-92.4926"/>
</g>
<!-- Node11 -->
<g id="node11" class="node"><title>Node11</title>
<polygon fill="none" stroke="#bfbfbf" points="478,-74.5 478,-93.5 638,-93.5 638,-74.5 478,-74.5"/>
<text text-anchor="middle" x="558" y="-81.5" font-family="Helvetica,sans-Serif" font-size="10.00">Math/GenVector/Translation3D.h</text>
</g>
<!-- Node6&#45;&gt;Node11 -->
<g id="edge10" class="edge"><title>Node6&#45;&gt;Node11</title>
<path fill="none" stroke="midnightblue" d="M616.257,-136.403C605.653,-127.047 588.481,-111.895 575.521,-100.46"/>
<polygon fill="midnightblue" stroke="midnightblue" points="577.539,-97.5724 567.725,-93.5806 572.907,-102.821 577.539,-97.5724"/>
</g>
<!-- Node12 -->
<g id="node12" class="node"><title>Node12</title>
<polygon fill="none" stroke="#bfbfbf" points="656,-74.5 656,-93.5 732,-93.5 732,-74.5 656,-74.5"/>
<text text-anchor="middle" x="694" y="-81.5" font-family="Helvetica,sans-Serif" font-size="10.00">TGeoMatrix.h</text>
</g>
<!-- Node6&#45;&gt;Node12 -->
<g id="edge12" class="edge"><title>Node6&#45;&gt;Node12</title>
<path fill="none" stroke="midnightblue" d="M635.743,-136.403C646.347,-127.047 663.519,-111.895 676.479,-100.46"/>
<polygon fill="midnightblue" stroke="midnightblue" points="679.093,-102.821 684.275,-93.5806 674.461,-97.5724 679.093,-102.821"/>
</g>
<!-- Node13 -->
<g id="node13" class="node"><title>Node13</title>
<polygon fill="none" stroke="#bfbfbf" points="750.5,-74.5 750.5,-93.5 795.5,-93.5 795.5,-74.5 750.5,-74.5"/>
<text text-anchor="middle" x="773" y="-81.5" font-family="Helvetica,sans-Serif" font-size="10.00">iosfwd</text>
</g>
<!-- Node6&#45;&gt;Node13 -->
<g id="edge13" class="edge"><title>Node6&#45;&gt;Node13</title>
<path fill="none" stroke="midnightblue" d="M649.09,-136.473C672.439,-127.731 709.481,-113.537 741,-100 742.589,-99.3175 744.216,-98.6034 745.854,-97.8731"/>
<polygon fill="midnightblue" stroke="midnightblue" points="747.517,-100.961 755.153,-93.6172 744.604,-94.596 747.517,-100.961"/>
</g>
<!-- Node14 -->
<g id="node14" class="node"><title>Node14</title>
<g id="a_node14"><a xlink:href="../../d2/dd0/Cartesian2D_8h.html" target="_top" xlink:title="MathUtils/Cartesian2D.h">
<polygon fill="none" stroke="black" points="813.5,-74.5 813.5,-93.5 938.5,-93.5 938.5,-74.5 813.5,-74.5"/>
<text text-anchor="middle" x="876" y="-81.5" font-family="Helvetica,sans-Serif" font-size="10.00">MathUtils/Cartesian2D.h</text>
</a>
</g>
</g>
<!-- Node6&#45;&gt;Node14 -->
<g id="edge14" class="edge"><title>Node6&#45;&gt;Node14</title>
<path fill="none" stroke="midnightblue" d="M661.553,-136.467C705.98,-125.805 782.062,-107.545 830.642,-95.886"/>
<polygon fill="midnightblue" stroke="midnightblue" points="831.662,-99.2405 840.569,-93.5034 830.029,-92.4338 831.662,-99.2405"/>
</g>
<!-- Node15 -->
<g id="node15" class="node"><title>Node15</title>
<polygon fill="none" stroke="#bfbfbf" points="709.5,-1 709.5,-31 860.5,-31 860.5,-1 709.5,-1"/>
<text text-anchor="start" x="717.5" y="-19" font-family="Helvetica,sans-Serif" font-size="10.00">Math/GenVector/Displacement</text>
<text text-anchor="middle" x="785" y="-8" font-family="Helvetica,sans-Serif" font-size="10.00">Vector2D.h</text>
</g>
<!-- Node14&#45;&gt;Node15 -->
<g id="edge15" class="edge"><title>Node14&#45;&gt;Node15</title>
<path fill="none" stroke="midnightblue" d="M864.103,-74.3717C851.221,-65.0286 830.22,-49.7966 813.093,-37.375"/>
<polygon fill="midnightblue" stroke="midnightblue" points="814.703,-34.2194 804.553,-31.1815 810.593,-39.8859 814.703,-34.2194"/>
</g>
<!-- Node16 -->
<g id="node16" class="node"><title>Node16</title>
<polygon fill="none" stroke="#bfbfbf" points="879,-6.5 879,-25.5 1055,-25.5 1055,-6.5 879,-6.5"/>
<text text-anchor="middle" x="967" y="-13.5" font-family="Helvetica,sans-Serif" font-size="10.00">Math/GenVector/PositionVector2D.h</text>
</g>
<!-- Node14&#45;&gt;Node16 -->
<g id="edge16" class="edge"><title>Node14&#45;&gt;Node16</title>
<path fill="none" stroke="midnightblue" d="M887.897,-74.3717C902.884,-63.5015 928.862,-44.6602 946.942,-31.5474"/>
<polygon fill="midnightblue" stroke="midnightblue" points="949.06,-34.3349 955.1,-25.6305 944.95,-28.6684 949.06,-34.3349"/>
</g>
<!-- Node18 -->
<g id="node18" class="node"><title>Node18</title>
<g id="a_node18"><a xlink:href="../../de/d61/ShmManager_8h.html" target="_top" xlink:title="CommonUtils/ShmManager.h">
<polygon fill="none" stroke="black" points="1473,-136.5 1473,-155.5 1619,-155.5 1619,-136.5 1473,-136.5"/>
<text text-anchor="middle" x="1546" y="-143.5" font-family="Helvetica,sans-Serif" font-size="10.00">CommonUtils/ShmManager.h</text>
</a>
</g>
</g>
<!-- Node17&#45;&gt;Node18 -->
<g id="edge18" class="edge"><title>Node17&#45;&gt;Node18</title>
<path fill="none" stroke="midnightblue" d="M1122.85,-198.499C1213.32,-187.488 1370.67,-168.338 1465.89,-156.749"/>
<polygon fill="midnightblue" stroke="midnightblue" points="1466.55,-160.196 1476.05,-155.513 1465.7,-153.247 1466.55,-160.196"/>
</g>
<!-- Node23 -->
<g id="node23" class="node"><title>Node23</title>
<polygon fill="none" stroke="#bfbfbf" points="1028.5,-136.5 1028.5,-155.5 1077.5,-155.5 1077.5,-136.5 1028.5,-136.5"/>
<text text-anchor="middle" x="1053" y="-143.5" font-family="Helvetica,sans-Serif" font-size="10.00">cassert</text>
</g>
<!-- Node17&#45;&gt;Node23 -->
<g id="edge23" class="edge"><title>Node17&#45;&gt;Node23</title>
<path fill="none" stroke="midnightblue" d="M1053,-198.403C1053,-189.938 1053,-176.728 1053,-165.82"/>
<polygon fill="midnightblue" stroke="midnightblue" points="1056.5,-165.581 1053,-155.581 1049.5,-165.581 1056.5,-165.581"/>
</g>
<!-- Node19 -->
<g id="node19" class="node"><title>Node19</title>
<polygon fill="none" stroke="#bfbfbf" points="1623.5,-74.5 1623.5,-93.5 1652.5,-93.5 1652.5,-74.5 1623.5,-74.5"/>
<text text-anchor="middle" x="1638" y="-81.5" font-family="Helvetica,sans-Serif" font-size="10.00">list</text>
</g>
<!-- Node18&#45;&gt;Node19 -->
<g id="edge19" class="edge"><title>Node18&#45;&gt;Node19</title>
<path fill="none" stroke="midnightblue" d="M1559.18,-136.403C1574.07,-126.691 1598.54,-110.732 1616.27,-99.1697"/>
<polygon fill="midnightblue" stroke="midnightblue" points="1618.38,-101.975 1624.84,-93.5806 1614.56,-96.1117 1618.38,-101.975"/>
</g>
<!-- Node20 -->
<g id="node20" class="node"><title>Node20</title>
<polygon fill="none" stroke="#bfbfbf" points="1670.5,-74.5 1670.5,-93.5 1719.5,-93.5 1719.5,-74.5 1670.5,-74.5"/>
<text text-anchor="middle" x="1695" y="-81.5" font-family="Helvetica,sans-Serif" font-size="10.00">cstddef</text>
</g>
<!-- Node18&#45;&gt;Node20 -->
<g id="edge20" class="edge"><title>Node18&#45;&gt;Node20</title>
<path fill="none" stroke="midnightblue" d="M1568.59,-136.486C1591.86,-127.639 1629.13,-113.258 1661,-100 1662.83,-99.238 1664.71,-98.4426 1666.61,-97.6329"/>
<polygon fill="midnightblue" stroke="midnightblue" points="1668.22,-100.747 1676,-93.5526 1665.43,-94.3271 1668.22,-100.747"/>
</g>
<!-- Node21 -->
<g id="node21" class="node"><title>Node21</title>
<polygon fill="none" stroke="#bfbfbf" points="1320,-69 1320,-99 1468,-99 1468,-69 1320,-69"/>
<text text-anchor="start" x="1328" y="-87" font-family="Helvetica,sans-Serif" font-size="10.00">boost/interprocess</text>
<text text-anchor="middle" x="1394" y="-76" font-family="Helvetica,sans-Serif" font-size="10.00">/managed_external_buffer.hpp</text>
</g>
<!-- Node18&#45;&gt;Node21 -->
<g id="edge21" class="edge"><title>Node18&#45;&gt;Node21</title>
<path fill="none" stroke="midnightblue" d="M1524.22,-136.403C1502.12,-127.679 1467.25,-113.914 1439.15,-102.824"/>
<polygon fill="midnightblue" stroke="midnightblue" points="1440.12,-99.4415 1429.53,-99.0253 1437.55,-105.953 1440.12,-99.4415"/>
</g>
<!-- Node22 -->
<g id="node22" class="node"><title>Node22</title>
<polygon fill="none" stroke="#bfbfbf" points="1486,-69 1486,-99 1606,-99 1606,-69 1486,-69"/>
<text text-anchor="start" x="1494" y="-87" font-family="Helvetica,sans-Serif" font-size="10.00">boost/interprocess</text>
<text text-anchor="middle" x="1546" y="-76" font-family="Helvetica,sans-Serif" font-size="10.00">/allocators/allocator.hpp</text>
</g>
<!-- Node18&#45;&gt;Node22 -->
<g id="edge22" class="edge"><title>Node18&#45;&gt;Node22</title>
<path fill="none" stroke="midnightblue" d="M1546,-136.403C1546,-129.341 1546,-118.975 1546,-109.399"/>
<polygon fill="midnightblue" stroke="midnightblue" points="1549.5,-109.141 1546,-99.1408 1542.5,-109.141 1549.5,-109.141"/>
</g>
<!-- Node24&#45;&gt;Node4 -->
<g id="edge35" class="edge"><title>Node24&#45;&gt;Node4</title>
<path fill="none" stroke="midnightblue" d="M445.978,-372.368C435.463,-354.296 410.957,-312.176 397.07,-288.307"/>
<polygon fill="midnightblue" stroke="midnightblue" points="400.053,-286.475 391.999,-279.591 394.002,-289.995 400.053,-286.475"/>
</g>
<!-- Node25 -->
<g id="node25" class="node"><title>Node25</title>
<g id="a_node25"><a xlink:href="../../d8/de9/PHOS_2base_2include_2PHOSBase_2Digit_8h.html" target="_top" xlink:title="PHOSBase/Digit.h">
<polygon fill="none" stroke="black" points="226.5,-316.5 226.5,-335.5 325.5,-335.5 325.5,-316.5 226.5,-316.5"/>
<text text-anchor="middle" x="276" y="-323.5" font-family="Helvetica,sans-Serif" font-size="10.00">PHOSBase/Digit.h</text>
</a>
</g>
</g>
<!-- Node24&#45;&gt;Node25 -->
<g id="edge25" class="edge"><title>Node24&#45;&gt;Node25</title>
<path fill="none" stroke="midnightblue" d="M423.271,-372.444C393.574,-363.28 346.284,-348.688 313.331,-338.519"/>
<polygon fill="midnightblue" stroke="midnightblue" points="314.187,-335.121 303.6,-335.516 312.123,-341.809 314.187,-335.121"/>
</g>
<!-- Node28 -->
<g id="node28" class="node"><title>Node28</title>
<g id="a_node28"><a xlink:href="../../d7/d7f/PHOS_2base_2include_2PHOSBase_2Geometry_8h.html" target="_top" xlink:title="PHOSBase/Geometry.h">
<polygon fill="none" stroke="black" points="473,-316.5 473,-335.5 595,-335.5 595,-316.5 473,-316.5"/>
<text text-anchor="middle" x="534" y="-323.5" font-family="Helvetica,sans-Serif" font-size="10.00">PHOSBase/Geometry.h</text>
</a>
</g>
</g>
<!-- Node24&#45;&gt;Node28 -->
<g id="edge31" class="edge"><title>Node24&#45;&gt;Node28</title>
<path fill="none" stroke="midnightblue" d="M464.335,-372.324C477.162,-363.979 496.785,-351.212 511.94,-341.352"/>
<polygon fill="midnightblue" stroke="midnightblue" points="514.224,-344.042 520.698,-335.655 510.407,-338.174 514.224,-344.042"/>
</g>
<!-- Node25&#45;&gt;Node4 -->
<g id="edge30" class="edge"><title>Node25&#45;&gt;Node4</title>
<path fill="none" stroke="midnightblue" d="M293.834,-316.324C311.716,-307.625 339.475,-294.12 360.046,-284.113"/>
<polygon fill="midnightblue" stroke="midnightblue" points="361.749,-287.177 369.21,-279.655 358.687,-280.882 361.749,-287.177"/>
</g>
<!-- Node26 -->
<g id="node26" class="node"><title>Node26</title>
<g id="a_node26"><a xlink:href="../../df/d5d/common_2include_2CommonDataFormat_2TimeStamp_8h.html" target="_top" xlink:title="CommonDataFormat/TimeStamp.h">
<polygon fill="none" stroke="black" points="119,-198.5 119,-217.5 289,-217.5 289,-198.5 119,-198.5"/>
<text text-anchor="middle" x="204" y="-205.5" font-family="Helvetica,sans-Serif" font-size="10.00">CommonDataFormat/TimeStamp.h</text>
</a>
</g>
</g>
<!-- Node25&#45;&gt;Node26 -->
<g id="edge26" class="edge"><title>Node25&#45;&gt;Node26</title>
<path fill="none" stroke="midnightblue" d="M270.588,-316.281C258.751,-297.21 230.372,-251.488 214.755,-226.327"/>
<polygon fill="midnightblue" stroke="midnightblue" points="217.526,-224.155 209.279,-217.505 211.579,-227.847 217.526,-224.155"/>
</g>
<!-- Node27 -->
<g id="node27" class="node"><title>Node27</title>
<g id="a_node27"><a xlink:href="../../d7/dcd/MCCompLabel_8h.html" target="_top" xlink:title="SimulationDataFormat\l/MCCompLabel.h">
<polygon fill="none" stroke="black" points="307,-193 307,-223 421,-223 421,-193 307,-193"/>
<text text-anchor="start" x="315" y="-211" font-family="Helvetica,sans-Serif" font-size="10.00">SimulationDataFormat</text>
<text text-anchor="middle" x="364" y="-200" font-family="Helvetica,sans-Serif" font-size="10.00">/MCCompLabel.h</text>
</a>
</g>
</g>
<!-- Node25&#45;&gt;Node27 -->
<g id="edge28" class="edge"><title>Node25&#45;&gt;Node27</title>
<path fill="none" stroke="midnightblue" d="M282.614,-316.281C296.189,-298.387 327.562,-257.031 347.15,-231.211"/>
<polygon fill="midnightblue" stroke="midnightblue" points="350.043,-233.188 353.299,-223.106 344.466,-228.958 350.043,-233.188"/>
</g>
<!-- Node26&#45;&gt;Node3 -->
<g id="edge27" class="edge"><title>Node26&#45;&gt;Node3</title>
<path fill="none" stroke="midnightblue" d="M195.873,-198.226C177.06,-177.914 130.275,-127.404 106.059,-101.258"/>
<polygon fill="midnightblue" stroke="midnightblue" points="108.416,-98.6526 99.053,-93.6944 103.281,-103.409 108.416,-98.6526"/>
</g>
<!-- Node27&#45;&gt;Node3 -->
<g id="edge29" class="edge"><title>Node27&#45;&gt;Node3</title>
<path fill="none" stroke="midnightblue" d="M332.417,-192.886C278.751,-168.903 170.602,-120.573 119.274,-97.6353"/>
<polygon fill="midnightblue" stroke="midnightblue" points="120.646,-94.4147 110.088,-93.5301 117.79,-100.806 120.646,-94.4147"/>
</g>
<!-- Node29 -->
<g id="node29" class="node"><title>Node29</title>
<polygon fill="none" stroke="#bfbfbf" points="451.5,-260.5 451.5,-279.5 492.5,-279.5 492.5,-260.5 451.5,-260.5"/>
<text text-anchor="middle" x="472" y="-267.5" font-family="Helvetica,sans-Serif" font-size="10.00">string</text>
</g>
<!-- Node28&#45;&gt;Node29 -->
<g id="edge32" class="edge"><title>Node28&#45;&gt;Node29</title>
<path fill="none" stroke="midnightblue" d="M524.039,-316.324C514.873,-308.341 501.063,-296.313 489.972,-286.653"/>
<polygon fill="midnightblue" stroke="midnightblue" points="491.982,-283.762 482.143,-279.834 487.385,-289.041 491.982,-283.762"/>
</g>
<!-- Node30 -->
<g id="node30" class="node"><title>Node30</title>
<polygon fill="none" stroke="#bfbfbf" points="511,-260.5 511,-279.5 591,-279.5 591,-260.5 511,-260.5"/>
<text text-anchor="middle" x="551" y="-267.5" font-family="Helvetica,sans-Serif" font-size="10.00">RStringView.h</text>
</g>
<!-- Node28&#45;&gt;Node30 -->
<g id="edge33" class="edge"><title>Node28&#45;&gt;Node30</title>
<path fill="none" stroke="midnightblue" d="M536.807,-316.083C539.085,-308.849 542.371,-298.409 545.208,-289.397"/>
<polygon fill="midnightblue" stroke="midnightblue" points="548.581,-290.341 548.245,-279.751 541.904,-288.239 548.581,-290.341"/>
</g>
<!-- Node31 -->
<g id="node31" class="node"><title>Node31</title>
<polygon fill="none" stroke="#bfbfbf" points="609.5,-260.5 609.5,-279.5 662.5,-279.5 662.5,-260.5 609.5,-260.5"/>
<text text-anchor="middle" x="636" y="-267.5" font-family="Helvetica,sans-Serif" font-size="10.00">TMath.h</text>
</g>
<!-- Node28&#45;&gt;Node31 -->
<g id="edge34" class="edge"><title>Node28&#45;&gt;Node31</title>
<path fill="none" stroke="midnightblue" d="M550.388,-316.324C566.671,-307.703 591.867,-294.364 610.716,-284.386"/>
<polygon fill="midnightblue" stroke="midnightblue" points="612.452,-287.427 619.653,-279.655 609.177,-281.24 612.452,-287.427"/>
</g>
</g>
</svg>
        <g id="navigator" transform="translate(0 0)" fill="#404254">
                <rect fill="#f2f5e9" fill-opacity="0.5" stroke="#606060" stroke-width=".5" x="0" y="0" width="60" height="60"/>
                <use id="zoomplus" xlink:href="#zoomPlus" x="17" y="9" onmousedown="handleZoom(evt,'in')"/>
                <use id="zoomminus" xlink:href="#zoomMin" x="42" y="9" onmousedown="handleZoom(evt,'out')"/>
                <use id="reset" xlink:href="#resetDef" x="30" y="36" onmousedown="handleReset()"/>
                <g id="arrowUp" xlink:href="#dirArrow" transform="translate(30 24)" onmousedown="handlePan(0,-1)">
                  <use xlink:href="#rim" fill="#404040">
                        <set attributeName="fill" to="#808080" begin="arrowUp.mouseover" end="arrowUp.mouseout"/>
                  </use>
                  <path fill="none" stroke="white" stroke-width="1.5" d="M0,-3.0v7 M-2.5,-0.5L0,-3.0L2.5,-0.5"/>
                </g>
                <g id="arrowRight" xlink:href="#dirArrow" transform="rotate(90) translate(36 -43)" onmousedown="handlePan(1,0)">
                  <use xlink:href="#rim" fill="#404040">
                        <set attributeName="fill" to="#808080" begin="arrowRight.mouseover" end="arrowRight.mouseout"/>
                  </use>
                  <path fill="none" stroke="white" stroke-width="1.5" d="M0,-3.0v7 M-2.5,-0.5L0,-3.0L2.5,-0.5"/>
                </g>
                <g id="arrowDown" xlink:href="#dirArrow" transform="rotate(180) translate(-30 -48)" onmousedown="handlePan(0,1)">
                  <use xlink:href="#rim" fill="#404040">
                        <set attributeName="fill" to="#808080" begin="arrowDown.mouseover" end="arrowDown.mouseout"/>
                  </use>
                  <path fill="none" stroke="white" stroke-width="1.5" d="M0,-3.0v7 M-2.5,-0.5L0,-3.0L2.5,-0.5"/>
                </g>
                <g id="arrowLeft" xlink:href="#dirArrow" transform="rotate(270) translate(-36 17)" onmousedown="handlePan(-1,0)">
                  <use xlink:href="#rim" fill="#404040">
                        <set attributeName="fill" to="#808080" begin="arrowLeft.mouseover" end="arrowLeft.mouseout"/>
                  </use>
                  <path fill="none" stroke="white" stroke-width="1.5" d="M0,-3.0v7 M-2.5,-0.5L0,-3.0L2.5,-0.5"/>
                </g>
        </g>
        <svg viewBox="0 0 15 15" width="100%" height="30px" preserveAspectRatio="xMaxYMin meet">
         <g id="arrow_out" transform="scale(0.3 0.3)">
          <a xlink:href="PHOS_2simulation_2include_2PHOSSimulation_2DigitizerTask_8h__incl_org.svg" target="_base">
           <rect id="button" ry="5" rx="5" y="6" x="6" height="38" width="38"
                fill="#f2f5e9" fill-opacity="0.5" stroke="#606060" stroke-width="1.0"/>
           <path id="arrow"
             d="M 11.500037,31.436501 C 11.940474,20.09759 22.043105,11.32322 32.158766,21.979434 L 37.068811,17.246167 C 37.068811,17.246167 37.088388,32 37.088388,32 L 22.160133,31.978069 C 22.160133,31.978069 26.997745,27.140456 26.997745,27.140456 C 18.528582,18.264221 13.291696,25.230495 11.500037,31.436501 z"
             style="fill:#404040;"/>
          </a>
         </g>
        </svg>
</svg>
