<?xml version="1.0" encoding="UTF-8" standalone="no"?>
<!DOCTYPE svg PUBLIC "-//W3C//DTD SVG 1.1//EN"
 "http://www.w3.org/Graphics/SVG/1.1/DTD/svg11.dtd">
<!-- Generated by graphviz version 2.36.0 (20140111.2315)
 -->
<!-- Title: /home/travis/build/AliceO2Group/AliceO2/Detectors/PHOS/simulation/src/DigitizerTask.cxx Pages: 1 -->
<svg width="1777pt" height="558pt"
 viewBox="0.00 0.00 1777.00 558.00" xmlns="http://www.w3.org/2000/svg" xmlns:xlink="http://www.w3.org/1999/xlink">
<g id="graph0" class="graph" transform="scale(1 1) rotate(0) translate(4 554)">
<title>/home/travis/build/AliceO2Group/AliceO2/Detectors/PHOS/simulation/src/DigitizerTask.cxx</title>
<!-- Node1 -->
<g id="node1" class="node"><title>Node1</title>
<polygon fill="#bfbfbf" stroke="black" points="266.5,-497 266.5,-549 407.5,-549 407.5,-497 266.5,-497"/>
<text text-anchor="start" x="274.5" y="-537" font-family="Helvetica,sans-Serif" font-size="10.00">/home/travis/build</text>
<text text-anchor="start" x="274.5" y="-526" font-family="Helvetica,sans-Serif" font-size="10.00">/AliceO2Group/AliceO2</text>
<text text-anchor="start" x="274.5" y="-515" font-family="Helvetica,sans-Serif" font-size="10.00">/Detectors/PHOS/simulation</text>
<text text-anchor="middle" x="337" y="-504" font-family="Helvetica,sans-Serif" font-size="10.00">/src/DigitizerTask.cxx</text>
</g>
<!-- Node2 -->
<g id="node2" class="node"><title>Node2</title>
<polygon fill="none" stroke="#bfbfbf" points="0,-434.5 0,-453.5 54,-453.5 54,-434.5 0,-434.5"/>
<text text-anchor="middle" x="27" y="-441.5" font-family="Helvetica,sans-Serif" font-size="10.00">iostream</text>
</g>
<!-- Node1&#45;&gt;Node2 -->
<g id="edge1" class="edge"><title>Node1&#45;&gt;Node2</title>
<path fill="none" stroke="midnightblue" d="M266.428,-508.237C211.803,-496.984 134.503,-479.746 68,-460 64.8756,-459.072 61.6441,-458.033 58.4296,-456.946"/>
<polygon fill="midnightblue" stroke="midnightblue" points="59.5559,-453.632 48.9611,-453.604 57.2263,-460.233 59.5559,-453.632"/>
</g>
<!-- Node3 -->
<g id="node3" class="node"><title>Node3</title>
<g id="a_node3"><a xlink:href="../../d2/d43/PHOS_2simulation_2include_2PHOSSimulation_2DigitizerTask_8h.html" target="_top" xlink:title="PHOSSimulation/Digitizer\lTask.h">
<polygon fill="none" stroke="black" points="175,-429 175,-459 305,-459 305,-429 175,-429"/>
<text text-anchor="start" x="183" y="-447" font-family="Helvetica,sans-Serif" font-size="10.00">PHOSSimulation/Digitizer</text>
<text text-anchor="middle" x="240" y="-436" font-family="Helvetica,sans-Serif" font-size="10.00">Task.h</text>
</a>
</g>
</g>
<!-- Node1&#45;&gt;Node3 -->
<g id="edge2" class="edge"><title>Node1&#45;&gt;Node3</title>
<path fill="none" stroke="midnightblue" d="M305.239,-496.787C292.399,-486.595 277.776,-474.987 265.633,-465.348"/>
<polygon fill="midnightblue" stroke="midnightblue" points="267.683,-462.507 257.675,-459.031 263.331,-467.989 267.683,-462.507"/>
</g>
<!-- Node4 -->
<g id="node4" class="node"><title>Node4</title>
<polygon fill="none" stroke="#bfbfbf" points="110.5,-372.5 110.5,-391.5 173.5,-391.5 173.5,-372.5 110.5,-372.5"/>
<text text-anchor="middle" x="142" y="-379.5" font-family="Helvetica,sans-Serif" font-size="10.00">FairTask.h</text>
</g>
<!-- Node1&#45;&gt;Node4 -->
<g id="edge43" class="edge"><title>Node1&#45;&gt;Node4</title>
<path fill="none" stroke="midnightblue" d="M266.086,-511.404C231.713,-502.864 192.285,-487.515 166,-460 150.845,-444.137 145.251,-418.848 143.191,-401.614"/>
<polygon fill="midnightblue" stroke="midnightblue" points="146.675,-401.273 142.283,-391.631 139.703,-401.907 146.675,-401.273"/>
</g>
<!-- Node5 -->
<g id="node5" class="node"><title>Node5</title>
<polygon fill="none" stroke="#bfbfbf" points="112,-74.5 112,-93.5 168,-93.5 168,-74.5 112,-74.5"/>
<text text-anchor="middle" x="140" y="-81.5" font-family="Helvetica,sans-Serif" font-size="10.00">Rtypes.h</text>
</g>
<!-- Node1&#45;&gt;Node5 -->
<g id="edge44" class="edge"><title>Node1&#45;&gt;Node5</title>
<path fill="none" stroke="midnightblue" d="M266.307,-513.871C190.841,-500.799 82,-467.329 82,-383 82,-383 82,-383 82,-207 82,-165.981 109.073,-124.065 126.226,-101.624"/>
<polygon fill="midnightblue" stroke="midnightblue" points="129.187,-103.522 132.654,-93.5103 123.701,-99.1748 129.187,-103.522"/>
</g>
<!-- Node6 -->
<g id="node6" class="node"><title>Node6</title>
<g id="a_node6"><a xlink:href="../../d1/def/PHOS_2base_2include_2PHOSBase_2Hit_8h.html" target="_top" xlink:title="PHOSBase/Hit.h">
<polygon fill="none" stroke="black" points="314,-260.5 314,-279.5 406,-279.5 406,-260.5 314,-260.5"/>
<text text-anchor="middle" x="360" y="-267.5" font-family="Helvetica,sans-Serif" font-size="10.00">PHOSBase/Hit.h</text>
</a>
</g>
</g>
<!-- Node1&#45;&gt;Node6 -->
<g id="edge39" class="edge"><title>Node1&#45;&gt;Node6</title>
<path fill="none" stroke="midnightblue" d="M358.024,-496.579C377.132,-471.696 403.97,-431.823 415,-392 425.869,-352.76 395.623,-310.126 375.778,-287.421"/>
<polygon fill="midnightblue" stroke="midnightblue" points="378.109,-284.782 368.789,-279.743 372.932,-289.494 378.109,-284.782"/>
</g>
<!-- Node26 -->
<g id="node26" class="node"><title>Node26</title>
<g id="a_node26"><a xlink:href="../../d6/d4b/PHOS_2simulation_2include_2PHOSSimulation_2Digitizer_8h.html" target="_top" xlink:title="PHOSSimulation/Digitizer.h">
<polygon fill="none" stroke="black" points="268,-372.5 268,-391.5 406,-391.5 406,-372.5 268,-372.5"/>
<text text-anchor="middle" x="337" y="-379.5" font-family="Helvetica,sans-Serif" font-size="10.00">PHOSSimulation/Digitizer.h</text>
</a>
</g>
</g>
<!-- Node1&#45;&gt;Node26 -->
<g id="edge40" class="edge"><title>Node1&#45;&gt;Node26</title>
<path fill="none" stroke="midnightblue" d="M337,-496.828C337,-469.408 337,-426.187 337,-401.648"/>
<polygon fill="midnightblue" stroke="midnightblue" points="340.5,-401.532 337,-391.532 333.5,-401.532 340.5,-401.532"/>
</g>
<!-- Node30 -->
<g id="node30" class="node"><title>Node30</title>
<g id="a_node30"><a xlink:href="../../d7/d7f/PHOS_2base_2include_2PHOSBase_2Geometry_8h.html" target="_top" xlink:title="PHOSBase/Geometry.h">
<polygon fill="none" stroke="black" points="462,-316.5 462,-335.5 584,-335.5 584,-316.5 462,-316.5"/>
<text text-anchor="middle" x="523" y="-323.5" font-family="Helvetica,sans-Serif" font-size="10.00">PHOSBase/Geometry.h</text>
</a>
</g>
</g>
<!-- Node1&#45;&gt;Node30 -->
<g id="edge38" class="edge"><title>Node1&#45;&gt;Node30</title>
<path fill="none" stroke="midnightblue" d="M395.571,-496.988C413.824,-487.281 433.064,-474.875 448,-460 482.158,-425.981 505.634,-373.177 516.367,-345.445"/>
<polygon fill="midnightblue" stroke="midnightblue" points="519.738,-346.421 519.962,-335.829 513.182,-343.969 519.738,-346.421"/>
</g>
<!-- Node34 -->
<g id="node34" class="node"><title>Node34</title>
<polygon fill="none" stroke="#bfbfbf" points="500.5,-434.5 500.5,-453.5 571.5,-453.5 571.5,-434.5 500.5,-434.5"/>
<text text-anchor="middle" x="536" y="-441.5" font-family="Helvetica,sans-Serif" font-size="10.00">FairLogger.h</text>
</g>
<!-- Node1&#45;&gt;Node34 -->
<g id="edge41" class="edge"><title>Node1&#45;&gt;Node34</title>
<path fill="none" stroke="midnightblue" d="M401.885,-496.894C436.23,-483.604 476.862,-467.883 504.331,-457.254"/>
<polygon fill="midnightblue" stroke="midnightblue" points="505.756,-460.455 513.819,-453.583 503.23,-453.927 505.756,-460.455"/>
</g>
<!-- Node35 -->
<g id="node35" class="node"><title>Node35</title>
<polygon fill="none" stroke="#bfbfbf" points="590,-434.5 590,-453.5 690,-453.5 690,-434.5 590,-434.5"/>
<text text-anchor="middle" x="640" y="-441.5" font-family="Helvetica,sans-Serif" font-size="10.00">FairRootManager.h</text>
</g>
<!-- Node1&#45;&gt;Node35 -->
<g id="edge42" class="edge"><title>Node1&#45;&gt;Node35</title>
<path fill="none" stroke="midnightblue" d="M407.658,-504.044C466.063,-489.202 547.138,-468.599 596.453,-456.066"/>
<polygon fill="midnightblue" stroke="midnightblue" points="597.346,-459.451 606.176,-453.596 595.622,-452.666 597.346,-459.451"/>
</g>
<!-- Node3&#45;&gt;Node4 -->
<g id="edge3" class="edge"><title>Node3&#45;&gt;Node4</title>
<path fill="none" stroke="midnightblue" d="M216.775,-428.781C200.972,-419.105 180.168,-406.368 164.517,-396.786"/>
<polygon fill="midnightblue" stroke="midnightblue" points="166.33,-393.792 155.974,-391.556 162.675,-399.762 166.33,-393.792"/>
</g>
<!-- Node3&#45;&gt;Node5 -->
<g id="edge4" class="edge"><title>Node3&#45;&gt;Node5</title>
<path fill="none" stroke="midnightblue" d="M227.68,-428.939C211.439,-409.519 183.365,-372.712 170,-336 139.947,-253.448 138.55,-146.526 139.37,-103.822"/>
<polygon fill="midnightblue" stroke="midnightblue" points="142.876,-103.642 139.638,-93.5543 135.879,-103.46 142.876,-103.642"/>
</g>
<!-- Node3&#45;&gt;Node6 -->
<g id="edge5" class="edge"><title>Node3&#45;&gt;Node6</title>
<path fill="none" stroke="midnightblue" d="M241.584,-428.83C243.743,-413.873 248.603,-390.014 259,-372 270.297,-352.426 316.709,-309.523 342.505,-286.436"/>
<polygon fill="midnightblue" stroke="midnightblue" points="344.941,-288.953 350.085,-279.69 340.288,-283.723 344.941,-288.953"/>
</g>
<!-- Node3&#45;&gt;Node26 -->
<g id="edge26" class="edge"><title>Node3&#45;&gt;Node26</title>
<path fill="none" stroke="midnightblue" d="M262.988,-428.781C278.483,-419.196 298.837,-406.606 314.277,-397.056"/>
<polygon fill="midnightblue" stroke="midnightblue" points="316.505,-399.793 323.168,-391.556 312.823,-393.84 316.505,-399.793"/>
</g>
<!-- Node7 -->
<g id="node7" class="node"><title>Node7</title>
<g id="a_node7"><a xlink:href="../../d4/d25/BaseHits_8h.html" target="_top" xlink:title="SimulationDataFormat\l/BaseHits.h">
<polygon fill="none" stroke="black" points="499,-193 499,-223 613,-223 613,-193 499,-193"/>
<text text-anchor="start" x="507" y="-211" font-family="Helvetica,sans-Serif" font-size="10.00">SimulationDataFormat</text>
<text text-anchor="middle" x="556" y="-200" font-family="Helvetica,sans-Serif" font-size="10.00">/BaseHits.h</text>
</a>
</g>
</g>
<!-- Node6&#45;&gt;Node7 -->
<g id="edge6" class="edge"><title>Node6&#45;&gt;Node7</title>
<path fill="none" stroke="midnightblue" d="M388.082,-260.403C417.33,-251.45 463.914,-237.19 500.604,-225.958"/>
<polygon fill="midnightblue" stroke="midnightblue" points="501.646,-229.299 510.184,-223.025 499.597,-222.606 501.646,-229.299"/>
</g>
<!-- Node19 -->
<g id="node19" class="node"><title>Node19</title>
<g id="a_node19"><a xlink:href="../../d0/d91/ShmAllocator_8h.html" target="_top" xlink:title="CommonUtils/ShmAllocator.h">
<polygon fill="none" stroke="black" points="978,-198.5 978,-217.5 1124,-217.5 1124,-198.5 978,-198.5"/>
<text text-anchor="middle" x="1051" y="-205.5" font-family="Helvetica,sans-Serif" font-size="10.00">CommonUtils/ShmAllocator.h</text>
</a>
</g>
</g>
<!-- Node6&#45;&gt;Node19 -->
<g id="edge19" class="edge"><title>Node6&#45;&gt;Node19</title>
<path fill="none" stroke="midnightblue" d="M406.064,-262.09C411.761,-261.332 417.51,-260.614 423,-260 617.622,-238.216 847.172,-221.958 967.61,-214.151"/>
<polygon fill="midnightblue" stroke="midnightblue" points="968.106,-217.626 977.86,-213.49 967.655,-210.641 968.106,-217.626"/>
</g>
<!-- Node8 -->
<g id="node8" class="node"><title>Node8</title>
<g id="a_node8"><a xlink:href="../../dd/d76/Cartesian3D_8h.html" target="_top" xlink:title="MathUtils/Cartesian3D.h">
<polygon fill="none" stroke="black" points="495.5,-136.5 495.5,-155.5 620.5,-155.5 620.5,-136.5 495.5,-136.5"/>
<text text-anchor="middle" x="558" y="-143.5" font-family="Helvetica,sans-Serif" font-size="10.00">MathUtils/Cartesian3D.h</text>
</a>
</g>
</g>
<!-- Node7&#45;&gt;Node8 -->
<g id="edge7" class="edge"><title>Node7&#45;&gt;Node8</title>
<path fill="none" stroke="midnightblue" d="M556.474,-192.781C556.744,-184.691 557.085,-174.462 557.376,-165.725"/>
<polygon fill="midnightblue" stroke="midnightblue" points="560.874,-165.842 557.709,-155.731 553.878,-165.608 560.874,-165.842"/>
</g>
<!-- Node8&#45;&gt;Node5 -->
<g id="edge13" class="edge"><title>Node8&#45;&gt;Node5</title>
<path fill="none" stroke="midnightblue" d="M495.364,-142.729C419.087,-138.797 286.833,-128.204 177,-100 174.008,-99.2317 170.937,-98.2764 167.904,-97.2225"/>
<polygon fill="midnightblue" stroke="midnightblue" points="169.085,-93.9268 158.494,-93.6279 166.587,-100.466 169.085,-93.9268"/>
</g>
<!-- Node9 -->
<g id="node9" class="node"><title>Node9</title>
<polygon fill="none" stroke="#bfbfbf" points="486.5,-69 486.5,-99 637.5,-99 637.5,-69 486.5,-69"/>
<text text-anchor="start" x="494.5" y="-87" font-family="Helvetica,sans-Serif" font-size="10.00">Math/GenVector/Displacement</text>
<text text-anchor="middle" x="562" y="-76" font-family="Helvetica,sans-Serif" font-size="10.00">Vector3D.h</text>
</g>
<!-- Node8&#45;&gt;Node9 -->
<g id="edge8" class="edge"><title>Node8&#45;&gt;Node9</title>
<path fill="none" stroke="midnightblue" d="M558.573,-136.403C559.044,-129.341 559.735,-118.975 560.373,-109.399"/>
<polygon fill="midnightblue" stroke="midnightblue" points="563.884,-109.352 561.057,-99.1408 556.9,-108.886 563.884,-109.352"/>
</g>
<!-- Node10 -->
<g id="node10" class="node"><title>Node10</title>
<polygon fill="none" stroke="#bfbfbf" points="656,-74.5 656,-93.5 832,-93.5 832,-74.5 656,-74.5"/>
<text text-anchor="middle" x="744" y="-81.5" font-family="Helvetica,sans-Serif" font-size="10.00">Math/GenVector/PositionVector3D.h</text>
</g>
<!-- Node8&#45;&gt;Node10 -->
<g id="edge9" class="edge"><title>Node8&#45;&gt;Node10</title>
<path fill="none" stroke="midnightblue" d="M584.649,-136.403C616.969,-125.978 671.597,-108.356 707.733,-96.6992"/>
<polygon fill="midnightblue" stroke="midnightblue" points="708.958,-99.9817 717.4,-93.5806 706.809,-93.3197 708.958,-99.9817"/>
</g>
<!-- Node11 -->
<g id="node11" class="node"><title>Node11</title>
<polygon fill="none" stroke="#bfbfbf" points="849.5,-74.5 849.5,-93.5 998.5,-93.5 998.5,-74.5 849.5,-74.5"/>
<text text-anchor="middle" x="924" y="-81.5" font-family="Helvetica,sans-Serif" font-size="10.00">Math/GenVector/Rotation3D.h</text>
</g>
<!-- Node8&#45;&gt;Node11 -->
<g id="edge10" class="edge"><title>Node8&#45;&gt;Node11</title>
<path fill="none" stroke="midnightblue" d="M613.431,-136.464C670.333,-127.629 761.419,-113.285 840,-100 848.702,-98.5288 857.904,-96.9299 866.901,-95.3425"/>
<polygon fill="midnightblue" stroke="midnightblue" points="867.699,-98.7556 876.934,-93.5626 866.476,-91.8632 867.699,-98.7556"/>
</g>
<!-- Node12 -->
<g id="node12" class="node"><title>Node12</title>
<polygon fill="none" stroke="#bfbfbf" points="1017,-74.5 1017,-93.5 1173,-93.5 1173,-74.5 1017,-74.5"/>
<text text-anchor="middle" x="1095" y="-81.5" font-family="Helvetica,sans-Serif" font-size="10.00">Math/GenVector/Transform3D.h</text>
</g>
<!-- Node8&#45;&gt;Node12 -->
<g id="edge11" class="edge"><title>Node8&#45;&gt;Node12</title>
<path fill="none" stroke="midnightblue" d="M620.627,-140.096C707.548,-132.976 869.585,-118.575 1007,-100 1017.24,-98.6155 1028.12,-96.9345 1038.61,-95.2053"/>
<polygon fill="midnightblue" stroke="midnightblue" points="1039.23,-98.6502 1048.51,-93.5408 1038.07,-91.7471 1039.23,-98.6502"/>
</g>
<!-- Node13 -->
<g id="node13" class="node"><title>Node13</title>
<polygon fill="none" stroke="#bfbfbf" points="1191,-74.5 1191,-93.5 1351,-93.5 1351,-74.5 1191,-74.5"/>
<text text-anchor="middle" x="1271" y="-81.5" font-family="Helvetica,sans-Serif" font-size="10.00">Math/GenVector/Translation3D.h</text>
</g>
<!-- Node8&#45;&gt;Node13 -->
<g id="edge12" class="edge"><title>Node8&#45;&gt;Node13</title>
<path fill="none" stroke="midnightblue" d="M620.629,-142.454C733.268,-137.438 977.373,-124.566 1182,-100 1192.84,-98.6987 1204.37,-96.9947 1215.41,-95.2036"/>
<polygon fill="midnightblue" stroke="midnightblue" points="1216.1,-98.6382 1225.39,-93.5432 1214.95,-91.7333 1216.1,-98.6382"/>
</g>
<!-- Node14 -->
<g id="node14" class="node"><title>Node14</title>
<polygon fill="none" stroke="#bfbfbf" points="186,-74.5 186,-93.5 262,-93.5 262,-74.5 186,-74.5"/>
<text text-anchor="middle" x="224" y="-81.5" font-family="Helvetica,sans-Serif" font-size="10.00">TGeoMatrix.h</text>
</g>
<!-- Node8&#45;&gt;Node14 -->
<g id="edge14" class="edge"><title>Node8&#45;&gt;Node14</title>
<path fill="none" stroke="midnightblue" d="M495.284,-137.824C436.995,-130.521 347.989,-117.75 272,-100 267.792,-99.017 263.416,-97.8533 259.095,-96.6155"/>
<polygon fill="midnightblue" stroke="midnightblue" points="259.802,-93.1732 249.218,-93.6433 257.785,-99.8763 259.802,-93.1732"/>
</g>
<!-- Node15 -->
<g id="node15" class="node"><title>Node15</title>
<polygon fill="none" stroke="#bfbfbf" points="280.5,-74.5 280.5,-93.5 325.5,-93.5 325.5,-74.5 280.5,-74.5"/>
<text text-anchor="middle" x="303" y="-81.5" font-family="Helvetica,sans-Serif" font-size="10.00">iosfwd</text>
</g>
<!-- Node8&#45;&gt;Node15 -->
<g id="edge15" class="edge"><title>Node8&#45;&gt;Node15</title>
<path fill="none" stroke="midnightblue" d="M495.444,-136.48C450.162,-129.329 387.884,-117.451 335,-100 332.87,-99.297 330.695,-98.4889 328.532,-97.62"/>
<polygon fill="midnightblue" stroke="midnightblue" points="329.864,-94.382 319.301,-93.559 327.045,-100.789 329.864,-94.382"/>
</g>
<!-- Node16 -->
<g id="node16" class="node"><title>Node16</title>
<g id="a_node16"><a xlink:href="../../d2/dd0/Cartesian2D_8h.html" target="_top" xlink:title="MathUtils/Cartesian2D.h">
<polygon fill="none" stroke="black" points="343.5,-74.5 343.5,-93.5 468.5,-93.5 468.5,-74.5 343.5,-74.5"/>
<text text-anchor="middle" x="406" y="-81.5" font-family="Helvetica,sans-Serif" font-size="10.00">MathUtils/Cartesian2D.h</text>
</a>
</g>
</g>
<!-- Node8&#45;&gt;Node16 -->
<g id="edge16" class="edge"><title>Node8&#45;&gt;Node16</title>
<path fill="none" stroke="midnightblue" d="M536.222,-136.403C510.262,-126.156 466.689,-108.956 437.165,-97.3021"/>
<polygon fill="midnightblue" stroke="midnightblue" points="438.324,-93.9968 427.737,-93.5806 435.754,-100.508 438.324,-93.9968"/>
</g>
<!-- Node17 -->
<g id="node17" class="node"><title>Node17</title>
<polygon fill="none" stroke="#bfbfbf" points="239.5,-1 239.5,-31 390.5,-31 390.5,-1 239.5,-1"/>
<text text-anchor="start" x="247.5" y="-19" font-family="Helvetica,sans-Serif" font-size="10.00">Math/GenVector/Displacement</text>
<text text-anchor="middle" x="315" y="-8" font-family="Helvetica,sans-Serif" font-size="10.00">Vector2D.h</text>
</g>
<!-- Node16&#45;&gt;Node17 -->
<g id="edge17" class="edge"><title>Node16&#45;&gt;Node17</title>
<path fill="none" stroke="midnightblue" d="M394.103,-74.3717C381.221,-65.0286 360.22,-49.7966 343.093,-37.375"/>
<polygon fill="midnightblue" stroke="midnightblue" points="344.703,-34.2194 334.553,-31.1815 340.593,-39.8859 344.703,-34.2194"/>
</g>
<!-- Node18 -->
<g id="node18" class="node"><title>Node18</title>
<polygon fill="none" stroke="#bfbfbf" points="409,-6.5 409,-25.5 585,-25.5 585,-6.5 409,-6.5"/>
<text text-anchor="middle" x="497" y="-13.5" font-family="Helvetica,sans-Serif" font-size="10.00">Math/GenVector/PositionVector2D.h</text>
</g>
<!-- Node16&#45;&gt;Node18 -->
<g id="edge18" class="edge"><title>Node16&#45;&gt;Node18</title>
<path fill="none" stroke="midnightblue" d="M417.897,-74.3717C432.884,-63.5015 458.862,-44.6602 476.942,-31.5474"/>
<polygon fill="midnightblue" stroke="midnightblue" points="479.06,-34.3349 485.1,-25.6305 474.95,-28.6684 479.06,-34.3349"/>
</g>
<!-- Node20 -->
<g id="node20" class="node"><title>Node20</title>
<g id="a_node20"><a xlink:href="../../de/d61/ShmManager_8h.html" target="_top" xlink:title="CommonUtils/ShmManager.h">
<polygon fill="none" stroke="black" points="1438,-136.5 1438,-155.5 1584,-155.5 1584,-136.5 1438,-136.5"/>
<text text-anchor="middle" x="1511" y="-143.5" font-family="Helvetica,sans-Serif" font-size="10.00">CommonUtils/ShmManager.h</text>
</a>
</g>
</g>
<!-- Node19&#45;&gt;Node20 -->
<g id="edge20" class="edge"><title>Node19&#45;&gt;Node20</title>
<path fill="none" stroke="midnightblue" d="M1116.42,-198.467C1200.73,-187.47 1347,-168.392 1435.8,-156.808"/>
<polygon fill="midnightblue" stroke="midnightblue" points="1436.34,-160.267 1445.81,-155.503 1435.44,-153.326 1436.34,-160.267"/>
</g>
<!-- Node25 -->
<g id="node25" class="node"><title>Node25</title>
<polygon fill="none" stroke="#bfbfbf" points="1026.5,-136.5 1026.5,-155.5 1075.5,-155.5 1075.5,-136.5 1026.5,-136.5"/>
<text text-anchor="middle" x="1051" y="-143.5" font-family="Helvetica,sans-Serif" font-size="10.00">cassert</text>
</g>
<!-- Node19&#45;&gt;Node25 -->
<g id="edge25" class="edge"><title>Node19&#45;&gt;Node25</title>
<path fill="none" stroke="midnightblue" d="M1051,-198.403C1051,-189.938 1051,-176.728 1051,-165.82"/>
<polygon fill="midnightblue" stroke="midnightblue" points="1054.5,-165.581 1051,-155.581 1047.5,-165.581 1054.5,-165.581"/>
</g>
<!-- Node21 -->
<g id="node21" class="node"><title>Node21</title>
<polygon fill="none" stroke="#bfbfbf" points="1740.5,-74.5 1740.5,-93.5 1769.5,-93.5 1769.5,-74.5 1740.5,-74.5"/>
<text text-anchor="middle" x="1755" y="-81.5" font-family="Helvetica,sans-Serif" font-size="10.00">list</text>
</g>
<!-- Node20&#45;&gt;Node21 -->
<g id="edge21" class="edge"><title>Node20&#45;&gt;Node21</title>
<path fill="none" stroke="midnightblue" d="M1584.22,-136.695C1627.94,-130.118 1683.94,-118.807 1731,-100 1732.05,-99.5806 1733.1,-99.1155 1734.15,-98.6163"/>
<polygon fill="midnightblue" stroke="midnightblue" points="1736.23,-101.463 1743.24,-93.5153 1732.81,-95.3594 1736.23,-101.463"/>
</g>
<!-- Node22 -->
<g id="node22" class="node"><title>Node22</title>
<polygon fill="none" stroke="#bfbfbf" points="1369.5,-74.5 1369.5,-93.5 1418.5,-93.5 1418.5,-74.5 1369.5,-74.5"/>
<text text-anchor="middle" x="1394" y="-81.5" font-family="Helvetica,sans-Serif" font-size="10.00">cstddef</text>
</g>
<!-- Node20&#45;&gt;Node22 -->
<g id="edge22" class="edge"><title>Node20&#45;&gt;Node22</title>
<path fill="none" stroke="midnightblue" d="M1494.24,-136.403C1474.78,-126.423 1442.45,-109.849 1419.79,-98.2253"/>
<polygon fill="midnightblue" stroke="midnightblue" points="1421.23,-95.0294 1410.73,-93.5806 1418.03,-101.258 1421.23,-95.0294"/>
</g>
<!-- Node23 -->
<g id="node23" class="node"><title>Node23</title>
<polygon fill="none" stroke="#bfbfbf" points="1437,-69 1437,-99 1585,-99 1585,-69 1437,-69"/>
<text text-anchor="start" x="1445" y="-87" font-family="Helvetica,sans-Serif" font-size="10.00">boost/interprocess</text>
<text text-anchor="middle" x="1511" y="-76" font-family="Helvetica,sans-Serif" font-size="10.00">/managed_external_buffer.hpp</text>
</g>
<!-- Node20&#45;&gt;Node23 -->
<g id="edge23" class="edge"><title>Node20&#45;&gt;Node23</title>
<path fill="none" stroke="midnightblue" d="M1511,-136.403C1511,-129.341 1511,-118.975 1511,-109.399"/>
<polygon fill="midnightblue" stroke="midnightblue" points="1514.5,-109.141 1511,-99.1408 1507.5,-109.141 1514.5,-109.141"/>
</g>
<!-- Node24 -->
<g id="node24" class="node"><title>Node24</title>
<polygon fill="none" stroke="#bfbfbf" points="1603,-69 1603,-99 1723,-99 1723,-69 1603,-69"/>
<text text-anchor="start" x="1611" y="-87" font-family="Helvetica,sans-Serif" font-size="10.00">boost/interprocess</text>
<text text-anchor="middle" x="1663" y="-76" font-family="Helvetica,sans-Serif" font-size="10.00">/allocators/allocator.hpp</text>
</g>
<!-- Node20&#45;&gt;Node24 -->
<g id="edge24" class="edge"><title>Node20&#45;&gt;Node24</title>
<path fill="none" stroke="midnightblue" d="M1532.78,-136.403C1554.88,-127.679 1589.75,-113.914 1617.85,-102.824"/>
<polygon fill="midnightblue" stroke="midnightblue" points="1619.45,-105.953 1627.47,-99.0253 1616.88,-99.4415 1619.45,-105.953"/>
</g>
<!-- Node26&#45;&gt;Node6 -->
<g id="edge37" class="edge"><title>Node26&#45;&gt;Node6</title>
<path fill="none" stroke="midnightblue" d="M338.805,-372.368C342.516,-354.617 351.079,-313.666 356.111,-289.597"/>
<polygon fill="midnightblue" stroke="midnightblue" points="359.583,-290.096 358.204,-279.591 352.731,-288.663 359.583,-290.096"/>
</g>
<!-- Node27 -->
<g id="node27" class="node"><title>Node27</title>
<g id="a_node27"><a xlink:href="../../d8/de9/PHOS_2base_2include_2PHOSBase_2Digit_8h.html" target="_top" xlink:title="PHOSBase/Digit.h">
<polygon fill="none" stroke="black" points="178.5,-316.5 178.5,-335.5 277.5,-335.5 277.5,-316.5 178.5,-316.5"/>
<text text-anchor="middle" x="228" y="-323.5" font-family="Helvetica,sans-Serif" font-size="10.00">PHOSBase/Digit.h</text>
</a>
</g>
</g>
<!-- Node26&#45;&gt;Node27 -->
<g id="edge27" class="edge"><title>Node26&#45;&gt;Node27</title>
<path fill="none" stroke="midnightblue" d="M319.487,-372.324C301.928,-363.625 274.669,-350.12 254.469,-340.113"/>
<polygon fill="midnightblue" stroke="midnightblue" points="255.984,-336.958 245.469,-335.655 252.876,-343.23 255.984,-336.958"/>
</g>
<!-- Node26&#45;&gt;Node30 -->
<g id="edge33" class="edge"><title>Node26&#45;&gt;Node30</title>
<path fill="none" stroke="midnightblue" d="M366.472,-372.444C398.171,-363.241 448.732,-348.562 483.775,-338.388"/>
<polygon fill="midnightblue" stroke="midnightblue" points="485.038,-341.666 493.666,-335.516 483.086,-334.943 485.038,-341.666"/>
</g>
<!-- Node27&#45;&gt;Node6 -->
<g id="edge32" class="edge"><title>Node27&#45;&gt;Node6</title>
<path fill="none" stroke="midnightblue" d="M248.916,-316.444C270.736,-307.517 305.15,-293.439 329.892,-283.317"/>
<polygon fill="midnightblue" stroke="midnightblue" points="331.252,-286.542 339.182,-279.516 328.601,-280.063 331.252,-286.542"/>
</g>
<!-- Node28 -->
<g id="node28" class="node"><title>Node28</title>
<g id="a_node28"><a xlink:href="../../df/d5d/common_2include_2CommonDataFormat_2TimeStamp_8h.html" target="_top" xlink:title="CommonDataFormat/TimeStamp.h">
<polygon fill="none" stroke="black" points="303,-198.5 303,-217.5 473,-217.5 473,-198.5 303,-198.5"/>
<text text-anchor="middle" x="388" y="-205.5" font-family="Helvetica,sans-Serif" font-size="10.00">CommonDataFormat/TimeStamp.h</text>
</a>
</g>
</g>
<!-- Node27&#45;&gt;Node28 -->
<g id="edge28" class="edge"><title>Node27&#45;&gt;Node28</title>
<path fill="none" stroke="midnightblue" d="M237.583,-316.094C251.781,-303.09 279.482,-278.451 305,-260 324.08,-246.204 346.955,-232.33 363.854,-222.543"/>
<polygon fill="midnightblue" stroke="midnightblue" points="365.628,-225.561 372.565,-217.553 362.148,-219.487 365.628,-225.561"/>
</g>
<!-- Node29 -->
<g id="node29" class="node"><title>Node29</title>
<g id="a_node29"><a xlink:href="../../d7/dcd/MCCompLabel_8h.html" target="_top" xlink:title="SimulationDataFormat\l/MCCompLabel.h">
<polygon fill="none" stroke="black" points="171,-193 171,-223 285,-223 285,-193 171,-193"/>
<text text-anchor="start" x="179" y="-211" font-family="Helvetica,sans-Serif" font-size="10.00">SimulationDataFormat</text>
<text text-anchor="middle" x="228" y="-200" font-family="Helvetica,sans-Serif" font-size="10.00">/MCCompLabel.h</text>
</a>
</g>
</g>
<!-- Node27&#45;&gt;Node29 -->
<g id="edge30" class="edge"><title>Node27&#45;&gt;Node29</title>
<path fill="none" stroke="midnightblue" d="M228,-316.281C228,-298.854 228,-259.173 228,-233.262"/>
<polygon fill="midnightblue" stroke="midnightblue" points="231.5,-233.106 228,-223.106 224.5,-233.106 231.5,-233.106"/>
</g>
<!-- Node28&#45;&gt;Node5 -->
<g id="edge29" class="edge"><title>Node28&#45;&gt;Node5</title>
<path fill="none" stroke="midnightblue" d="M370.561,-198.421C327.783,-177.377 217.437,-123.094 166.495,-98.0338"/>
<polygon fill="midnightblue" stroke="midnightblue" points="167.938,-94.843 157.42,-93.5693 164.848,-101.124 167.938,-94.843"/>
</g>
<!-- Node29&#45;&gt;Node5 -->
<g id="edge31" class="edge"><title>Node29&#45;&gt;Node5</title>
<path fill="none" stroke="midnightblue" d="M217.56,-192.526C201.169,-169.803 169.482,-125.873 152.114,-101.794"/>
<polygon fill="midnightblue" stroke="midnightblue" points="154.908,-99.6856 146.22,-93.6228 149.231,-103.781 154.908,-99.6856"/>
</g>
<!-- Node31 -->
<g id="node31" class="node"><title>Node31</title>
<polygon fill="none" stroke="#bfbfbf" points="502.5,-260.5 502.5,-279.5 543.5,-279.5 543.5,-260.5 502.5,-260.5"/>
<text text-anchor="middle" x="523" y="-267.5" font-family="Helvetica,sans-Serif" font-size="10.00">string</text>
</g>
<!-- Node30&#45;&gt;Node31 -->
<g id="edge34" class="edge"><title>Node30&#45;&gt;Node31</title>
<path fill="none" stroke="midnightblue" d="M523,-316.083C523,-309.006 523,-298.861 523,-289.986"/>
<polygon fill="midnightblue" stroke="midnightblue" points="526.5,-289.751 523,-279.751 519.5,-289.751 526.5,-289.751"/>
</g>
<!-- Node32 -->
<g id="node32" class="node"><title>Node32</title>
<polygon fill="none" stroke="#bfbfbf" points="562,-260.5 562,-279.5 642,-279.5 642,-260.5 562,-260.5"/>
<text text-anchor="middle" x="602" y="-267.5" font-family="Helvetica,sans-Serif" font-size="10.00">RStringView.h</text>
</g>
<!-- Node30&#45;&gt;Node32 -->
<g id="edge35" class="edge"><title>Node30&#45;&gt;Node32</title>
<path fill="none" stroke="midnightblue" d="M535.693,-316.324C547.901,-307.979 566.578,-295.212 581.003,-285.352"/>
<polygon fill="midnightblue" stroke="midnightblue" points="583.058,-288.187 589.339,-279.655 579.108,-282.408 583.058,-288.187"/>
</g>
<!-- Node33 -->
<g id="node33" class="node"><title>Node33</title>
<polygon fill="none" stroke="#bfbfbf" points="431.5,-260.5 431.5,-279.5 484.5,-279.5 484.5,-260.5 431.5,-260.5"/>
<text text-anchor="middle" x="458" y="-267.5" font-family="Helvetica,sans-Serif" font-size="10.00">TMath.h</text>
</g>
<!-- Node30&#45;&gt;Node33 -->
<g id="edge36" class="edge"><title>Node30&#45;&gt;Node33</title>
<path fill="none" stroke="midnightblue" d="M512.557,-316.324C502.854,-308.263 488.185,-296.077 476.5,-286.369"/>
<polygon fill="midnightblue" stroke="midnightblue" points="478.562,-283.532 468.633,-279.834 474.089,-288.916 478.562,-283.532"/>
</g>
</g>
</svg>
