<?xml version="1.0" encoding="UTF-8" standalone="no"?>
<!DOCTYPE svg PUBLIC "-//W3C//DTD SVG 1.1//EN"
 "http://www.w3.org/Graphics/SVG/1.1/DTD/svg11.dtd">
<!-- Generated by graphviz version 2.36.0 (20140111.2315)
 -->
<!-- Title: /home/travis/build/AliceO2Group/AliceO2/Detectors/MUON/MCH/Mapping/SegContour/include/MCHMappingSegContour/SegmentationContours.h Pages: 1 -->
<!--zoomable 376 -->
<svg id="main" version="1.1" xmlns="http://www.w3.org/2000/svg" xmlns:xlink="http://www.w3.org/1999/xlink" xml:space="preserve" onload="init(evt)">
<style type="text/css"><![CDATA[
.edge:hover path { stroke: red; }
.edge:hover polygon { stroke: red; fill: red; }
]]></style>
<script type="text/javascript"><![CDATA[
var edges = document.getElementsByTagName('g');
if (edges && edges.length) {
  for (var i=0;i<edges.length;i++) {
    if (edges[i].id.substr(0,4)=='edge') {
      edges[i].setAttribute('class','edge');
    }
  }
}
]]></script>
        <defs>
                <circle id="rim" cx="0" cy="0" r="7"/>
                <circle id="rim2" cx="0" cy="0" r="3.5"/>
                <g id="zoomPlus">
                        <use xlink:href="#rim" fill="#404040">
                                <set attributeName="fill" to="#808080" begin="zoomplus.mouseover" end="zoomplus.mouseout"/>
                        </use>
                        <path d="M-4,0h8M0,-4v8" fill="none" stroke="white" stroke-width="1.5" pointer-events="none"/>
                </g>
                <g id="zoomMin">
                        <use xlink:href="#rim" fill="#404040">
                                <set attributeName="fill" to="#808080" begin="zoomminus.mouseover" end="zoomminus.mouseout"/>
                        </use>
                        <path d="M-4,0h8" fill="none" stroke="white" stroke-width="1.5" pointer-events="none"/>
                </g>
                <g id="dirArrow">
                        <path fill="none" stroke="white" stroke-width="1.5" d="M0,-3.0v7 M-2.5,-0.5L0,-3.0L2.5,-0.5"/>
                </g>
               <g id="resetDef">
                       <use xlink:href="#rim2" fill="#404040">
                               <set attributeName="fill" to="#808080" begin="reset.mouseover" end="reset.mouseout"/>
                       </use>
               </g>
        </defs>

<script type="text/javascript">
var viewWidth = 975;
var viewHeight = 376;
var sectionId = 'dynsection-0';
</script>
<script xlink:href="../../svgpan.js"/>
<svg id="graph" class="graph">
<g id="viewport">
<title>/home/travis/build/AliceO2Group/AliceO2/Detectors/MUON/MCH/Mapping/SegContour/include/MCHMappingSegContour/SegmentationContours.h</title>
<!-- Node1 -->
<g id="node1" class="node"><title>Node1</title>
<polygon fill="#bfbfbf" stroke="black" points="370.512,-304.5 370.512,-367.5 590.512,-367.5 590.512,-304.5 370.512,-304.5"/>
<text text-anchor="start" x="378.512" y="-355.5" font-family="Helvetica,sans-Serif" font-size="10.00">/home/travis/build</text>
<text text-anchor="start" x="378.512" y="-344.5" font-family="Helvetica,sans-Serif" font-size="10.00">/AliceO2Group/AliceO2</text>
<text text-anchor="start" x="378.512" y="-333.5" font-family="Helvetica,sans-Serif" font-size="10.00">/Detectors/MUON/MCH/Mapping</text>
<text text-anchor="start" x="378.512" y="-322.5" font-family="Helvetica,sans-Serif" font-size="10.00">/SegContour/include/MCHMappingSegContour</text>
<text text-anchor="middle" x="480.512" y="-311.5" font-family="Helvetica,sans-Serif" font-size="10.00">/SegmentationContours.h</text>
</g>
<!-- Node2 -->
<g id="node2" class="node"><title>Node2</title>
<polygon fill="none" stroke="#bfbfbf" points="414.512,-112.5 414.512,-131.5 458.512,-131.5 458.512,-112.5 414.512,-112.5"/>
<text text-anchor="middle" x="436.512" y="-119.5" font-family="Helvetica,sans-Serif" font-size="10.00">vector</text>
</g>
<!-- Node1&#45;&gt;Node2 -->
<g id="edge1" class="edge"><title>Node1&#45;&gt;Node2</title>
<path fill="none" stroke="midnightblue" d="M467.444,-304.441C463.068,-293.165 458.538,-280.169 455.512,-268 444.469,-223.589 439.558,-169.833 437.618,-141.908"/>
<polygon fill="midnightblue" stroke="midnightblue" points="441.091,-141.381 436.959,-131.625 434.106,-141.828 441.091,-141.381"/>
</g>
<!-- Node3 -->
<g id="node3" class="node"><title>Node3</title>
<g id="a_node3"><a xlink:href="../../db/d08/Contour_8h.html" target="_top" xlink:title="MCHContour/Contour.h">
<polygon fill="none" stroke="black" points="464.512,-242.5 464.512,-261.5 584.512,-261.5 584.512,-242.5 464.512,-242.5"/>
<text text-anchor="middle" x="524.512" y="-249.5" font-family="Helvetica,sans-Serif" font-size="10.00">MCHContour/Contour.h</text>
</a>
</g>
</g>
<!-- Node1&#45;&gt;Node3 -->
<g id="edge2" class="edge"><title>Node1&#45;&gt;Node3</title>
<path fill="none" stroke="midnightblue" d="M496.896,-304.466C503.053,-292.991 509.84,-280.345 515.144,-270.459"/>
<polygon fill="midnightblue" stroke="midnightblue" points="518.232,-272.106 519.876,-261.64 512.064,-268.796 518.232,-272.106"/>
</g>
<!-- Node10 -->
<g id="node10" class="node"><title>Node10</title>
<g id="a_node10"><a xlink:href="../../d0/ddc/BBox_8h.html" target="_top" xlink:title="BBox.h">
<polygon fill="none" stroke="black" points="880.012,-112.5 880.012,-131.5 929.012,-131.5 929.012,-112.5 880.012,-112.5"/>
<text text-anchor="middle" x="904.512" y="-119.5" font-family="Helvetica,sans-Serif" font-size="10.00">BBox.h</text>
</a>
</g>
</g>
<!-- Node1&#45;&gt;Node10 -->
<g id="edge24" class="edge"><title>Node1&#45;&gt;Node10</title>
<path fill="none" stroke="midnightblue" d="M541.713,-304.4C635.703,-257.404 811.688,-169.412 878.172,-136.17"/>
<polygon fill="midnightblue" stroke="midnightblue" points="879.785,-139.277 887.164,-131.674 876.654,-133.016 879.785,-139.277"/>
</g>
<!-- Node20 -->
<g id="node20" class="node"><title>Node20</title>
<g id="a_node20"><a xlink:href="../../d6/d1f/MUON_2MCH_2Mapping_2Interface_2include_2MCHMappingInterface_2Segmentation_8h.html" target="_top" xlink:title="MCHMappingInterface\l/Segmentation.h">
<polygon fill="none" stroke="black" points="284.012,-237 284.012,-267 399.012,-267 399.012,-237 284.012,-237"/>
<text text-anchor="start" x="292.012" y="-255" font-family="Helvetica,sans-Serif" font-size="10.00">MCHMappingInterface</text>
<text text-anchor="middle" x="341.512" y="-244" font-family="Helvetica,sans-Serif" font-size="10.00">/Segmentation.h</text>
</a>
</g>
</g>
<!-- Node1&#45;&gt;Node20 -->
<g id="edge25" class="edge"><title>Node1&#45;&gt;Node20</title>
<path fill="none" stroke="midnightblue" d="M428.754,-304.466C410.388,-293.632 390.251,-281.752 373.955,-272.139"/>
<polygon fill="midnightblue" stroke="midnightblue" points="375.724,-269.119 365.333,-267.053 372.168,-275.148 375.724,-269.119"/>
</g>
<!-- Node3&#45;&gt;Node2 -->
<g id="edge21" class="edge"><title>Node3&#45;&gt;Node2</title>
<path fill="none" stroke="midnightblue" d="M518.464,-242.202C504.013,-221.184 467.278,-167.75 448.284,-140.123"/>
<polygon fill="midnightblue" stroke="midnightblue" points="450.921,-137.78 442.371,-131.522 445.153,-141.746 450.921,-137.78"/>
</g>
<!-- Node4 -->
<g id="node4" class="node"><title>Node4</title>
<g id="a_node4"><a xlink:href="../../dc/ddd/Polygon_8h.html" target="_top" xlink:title="Polygon.h">
<polygon fill="none" stroke="black" points="551.512,-174.5 551.512,-193.5 611.512,-193.5 611.512,-174.5 551.512,-174.5"/>
<text text-anchor="middle" x="581.512" y="-181.5" font-family="Helvetica,sans-Serif" font-size="10.00">Polygon.h</text>
</a>
</g>
</g>
<!-- Node3&#45;&gt;Node4 -->
<g id="edge3" class="edge"><title>Node3&#45;&gt;Node4</title>
<path fill="none" stroke="midnightblue" d="M531.964,-242.372C540.876,-232.053 555.991,-214.551 567.188,-201.585"/>
<polygon fill="midnightblue" stroke="midnightblue" points="569.989,-203.697 573.877,-193.841 564.692,-199.122 569.989,-203.697"/>
</g>
<!-- Node7 -->
<g id="node7" class="node"><title>Node7</title>
<polygon fill="none" stroke="#bfbfbf" points="477.012,-112.5 477.012,-131.5 550.012,-131.5 550.012,-112.5 477.012,-112.5"/>
<text text-anchor="middle" x="513.512" y="-119.5" font-family="Helvetica,sans-Serif" font-size="10.00">initializer_list</text>
</g>
<!-- Node3&#45;&gt;Node7 -->
<g id="edge23" class="edge"><title>Node3&#45;&gt;Node7</title>
<path fill="none" stroke="midnightblue" d="M523.756,-242.202C521.981,-221.551 517.517,-169.606 515.11,-141.594"/>
<polygon fill="midnightblue" stroke="midnightblue" points="518.588,-141.186 514.245,-131.522 511.614,-141.785 518.588,-141.186"/>
</g>
<!-- Node19 -->
<g id="node19" class="node"><title>Node19</title>
<polygon fill="none" stroke="#bfbfbf" points="630.012,-174.5 630.012,-193.5 679.012,-193.5 679.012,-174.5 630.012,-174.5"/>
<text text-anchor="middle" x="654.512" y="-181.5" font-family="Helvetica,sans-Serif" font-size="10.00">cassert</text>
</g>
<!-- Node3&#45;&gt;Node19 -->
<g id="edge22" class="edge"><title>Node3&#45;&gt;Node19</title>
<path fill="none" stroke="midnightblue" d="M541.507,-242.372C563.6,-231.156 602.408,-211.453 628.288,-198.314"/>
<polygon fill="midnightblue" stroke="midnightblue" points="630.181,-201.278 637.513,-193.63 627.012,-195.037 630.181,-201.278"/>
</g>
<!-- Node4&#45;&gt;Node2 -->
<g id="edge6" class="edge"><title>Node4&#45;&gt;Node2</title>
<path fill="none" stroke="midnightblue" d="M560.737,-174.403C536.08,-164.2 494.767,-147.105 466.61,-135.454"/>
<polygon fill="midnightblue" stroke="midnightblue" points="467.827,-132.17 457.249,-131.581 465.151,-138.638 467.827,-132.17"/>
</g>
<!-- Node5 -->
<g id="node5" class="node"><title>Node5</title>
<polygon fill="none" stroke="#bfbfbf" points="551.512,-56.5 551.512,-75.5 605.512,-75.5 605.512,-56.5 551.512,-56.5"/>
<text text-anchor="middle" x="578.512" y="-63.5" font-family="Helvetica,sans-Serif" font-size="10.00">iostream</text>
</g>
<!-- Node4&#45;&gt;Node5 -->
<g id="edge4" class="edge"><title>Node4&#45;&gt;Node5</title>
<path fill="none" stroke="midnightblue" d="M581.287,-174.281C580.802,-155.547 579.653,-111.098 578.995,-85.6822"/>
<polygon fill="midnightblue" stroke="midnightblue" points="582.49,-85.4109 578.732,-75.5048 575.492,-85.592 582.49,-85.4109"/>
</g>
<!-- Node6 -->
<g id="node6" class="node"><title>Node6</title>
<polygon fill="none" stroke="#bfbfbf" points="606.512,-112.5 606.512,-131.5 646.512,-131.5 646.512,-112.5 606.512,-112.5"/>
<text text-anchor="middle" x="626.512" y="-119.5" font-family="Helvetica,sans-Serif" font-size="10.00">utility</text>
</g>
<!-- Node4&#45;&gt;Node6 -->
<g id="edge5" class="edge"><title>Node4&#45;&gt;Node6</title>
<path fill="none" stroke="midnightblue" d="M587.96,-174.403C594.71,-165.403 605.482,-151.041 613.925,-139.782"/>
<polygon fill="midnightblue" stroke="midnightblue" points="616.877,-141.681 620.077,-131.581 611.277,-137.481 616.877,-141.681"/>
</g>
<!-- Node4&#45;&gt;Node7 -->
<g id="edge7" class="edge"><title>Node4&#45;&gt;Node7</title>
<path fill="none" stroke="midnightblue" d="M571.77,-174.403C561.165,-165.047 543.993,-149.895 531.033,-138.46"/>
<polygon fill="midnightblue" stroke="midnightblue" points="533.051,-135.572 523.237,-131.581 528.42,-140.821 533.051,-135.572"/>
</g>
<!-- Node8 -->
<g id="node8" class="node"><title>Node8</title>
<polygon fill="none" stroke="#bfbfbf" points="664.512,-112.5 664.512,-131.5 716.512,-131.5 716.512,-112.5 664.512,-112.5"/>
<text text-anchor="middle" x="690.512" y="-119.5" font-family="Helvetica,sans-Serif" font-size="10.00">sstream</text>
</g>
<!-- Node4&#45;&gt;Node8 -->
<g id="edge8" class="edge"><title>Node4&#45;&gt;Node8</title>
<path fill="none" stroke="midnightblue" d="M597.129,-174.403C615.098,-164.512 644.834,-148.144 665.919,-136.538"/>
<polygon fill="midnightblue" stroke="midnightblue" points="667.852,-139.469 674.924,-131.581 664.476,-133.337 667.852,-139.469"/>
</g>
<!-- Node9 -->
<g id="node9" class="node"><title>Node9</title>
<polygon fill="none" stroke="#bfbfbf" points="734.512,-112.5 734.512,-131.5 790.512,-131.5 790.512,-112.5 734.512,-112.5"/>
<text text-anchor="middle" x="762.512" y="-119.5" font-family="Helvetica,sans-Serif" font-size="10.00">algorithm</text>
</g>
<!-- Node4&#45;&gt;Node9 -->
<g id="edge9" class="edge"><title>Node4&#45;&gt;Node9</title>
<path fill="none" stroke="midnightblue" d="M603.291,-174.357C608.879,-172.213 614.898,-169.967 620.512,-168 655.553,-155.722 695.953,-143.062 724.68,-134.31"/>
<polygon fill="midnightblue" stroke="midnightblue" points="725.772,-137.636 734.326,-131.384 723.741,-130.937 725.772,-137.636"/>
</g>
<!-- Node4&#45;&gt;Node10 -->
<g id="edge10" class="edge"><title>Node4&#45;&gt;Node10</title>
<path fill="none" stroke="midnightblue" d="M601.071,-174.493C607.201,-172.095 614.054,-169.684 620.512,-168 726.06,-140.476 758.674,-153.601 869.789,-131.908"/>
<polygon fill="midnightblue" stroke="midnightblue" points="870.59,-135.317 879.708,-129.921 869.215,-128.453 870.59,-135.317"/>
</g>
<!-- Node17 -->
<g id="node17" class="node"><title>Node17</title>
<g id="a_node17"><a xlink:href="../../dd/dbc/Detectors_2MUON_2MCH_2Contour_2include_2MCHContour_2Vertex_8h.html" target="_top" xlink:title="Vertex.h">
<polygon fill="none" stroke="black" points="809.012,-112.5 809.012,-131.5 862.012,-131.5 862.012,-112.5 809.012,-112.5"/>
<text text-anchor="middle" x="835.512" y="-119.5" font-family="Helvetica,sans-Serif" font-size="10.00">Vertex.h</text>
</a>
</g>
</g>
<!-- Node4&#45;&gt;Node17 -->
<g id="edge17" class="edge"><title>Node4&#45;&gt;Node17</title>
<path fill="none" stroke="midnightblue" d="M601.936,-174.405C607.859,-172.115 614.383,-169.785 620.512,-168 698.006,-145.434 719.729,-149.542 798.512,-132 798.617,-131.977 798.722,-131.953 798.827,-131.93"/>
<polygon fill="midnightblue" stroke="midnightblue" points="799.907,-135.273 808.864,-129.614 798.333,-128.452 799.907,-135.273"/>
</g>
<!-- Node11 -->
<g id="node11" class="node"><title>Node11</title>
<g id="a_node11"><a xlink:href="../../d2/dc4/Helper_8h.html" target="_top" xlink:title="Helper.h">
<polygon fill="none" stroke="black" points="843.012,-56.5 843.012,-75.5 896.012,-75.5 896.012,-56.5 843.012,-56.5"/>
<text text-anchor="middle" x="869.512" y="-63.5" font-family="Helvetica,sans-Serif" font-size="10.00">Helper.h</text>
</a>
</g>
</g>
<!-- Node10&#45;&gt;Node11 -->
<g id="edge11" class="edge"><title>Node10&#45;&gt;Node11</title>
<path fill="none" stroke="midnightblue" d="M898.733,-112.083C893.84,-104.534 886.685,-93.4948 880.68,-84.2298"/>
<polygon fill="midnightblue" stroke="midnightblue" points="883.56,-82.239 875.184,-75.7511 877.686,-86.0463 883.56,-82.239"/>
</g>
<!-- Node15 -->
<g id="node15" class="node"><title>Node15</title>
<polygon fill="none" stroke="#bfbfbf" points="766.012,-56.5 766.012,-75.5 825.012,-75.5 825.012,-56.5 766.012,-56.5"/>
<text text-anchor="middle" x="795.512" y="-63.5" font-family="Helvetica,sans-Serif" font-size="10.00">stdexcept</text>
</g>
<!-- Node10&#45;&gt;Node15 -->
<g id="edge15" class="edge"><title>Node10&#45;&gt;Node15</title>
<path fill="none" stroke="midnightblue" d="M887,-112.324C869.44,-103.625 842.181,-90.1202 821.981,-80.113"/>
<polygon fill="midnightblue" stroke="midnightblue" points="823.496,-76.9575 812.982,-75.6545 820.388,-83.23 823.496,-76.9575"/>
</g>
<!-- Node16 -->
<g id="node16" class="node"><title>Node16</title>
<polygon fill="none" stroke="#bfbfbf" points="914.512,-56.5 914.512,-75.5 966.512,-75.5 966.512,-56.5 914.512,-56.5"/>
<text text-anchor="middle" x="940.512" y="-63.5" font-family="Helvetica,sans-Serif" font-size="10.00">ostream</text>
</g>
<!-- Node10&#45;&gt;Node16 -->
<g id="edge16" class="edge"><title>Node10&#45;&gt;Node16</title>
<path fill="none" stroke="midnightblue" d="M910.457,-112.083C915.49,-104.534 922.849,-93.4948 929.026,-84.2298"/>
<polygon fill="midnightblue" stroke="midnightblue" points="932.043,-86.0131 934.678,-75.7511 926.219,-82.1301 932.043,-86.0131"/>
</g>
<!-- Node12 -->
<g id="node12" class="node"><title>Node12</title>
<polygon fill="none" stroke="#bfbfbf" points="787.512,-0.5 787.512,-19.5 831.512,-19.5 831.512,-0.5 787.512,-0.5"/>
<text text-anchor="middle" x="809.512" y="-7.5" font-family="Helvetica,sans-Serif" font-size="10.00">cmath</text>
</g>
<!-- Node11&#45;&gt;Node12 -->
<g id="edge12" class="edge"><title>Node11&#45;&gt;Node12</title>
<path fill="none" stroke="midnightblue" d="M859.872,-56.324C851.003,-48.3414 837.638,-36.3128 826.904,-26.6529"/>
<polygon fill="midnightblue" stroke="midnightblue" points="829.102,-23.922 819.328,-19.8339 824.419,-29.1251 829.102,-23.922"/>
</g>
<!-- Node13 -->
<g id="node13" class="node"><title>Node13</title>
<polygon fill="none" stroke="#bfbfbf" points="849.512,-0.5 849.512,-19.5 889.512,-19.5 889.512,-0.5 849.512,-0.5"/>
<text text-anchor="middle" x="869.512" y="-7.5" font-family="Helvetica,sans-Serif" font-size="10.00">limits</text>
</g>
<!-- Node11&#45;&gt;Node13 -->
<g id="edge13" class="edge"><title>Node11&#45;&gt;Node13</title>
<path fill="none" stroke="midnightblue" d="M869.512,-56.083C869.512,-49.0059 869.512,-38.8611 869.512,-29.9865"/>
<polygon fill="midnightblue" stroke="midnightblue" points="873.012,-29.751 869.512,-19.7511 866.012,-29.7511 873.012,-29.751"/>
</g>
<!-- Node14 -->
<g id="node14" class="node"><title>Node14</title>
<polygon fill="none" stroke="#bfbfbf" points="907.512,-0.5 907.512,-19.5 953.512,-19.5 953.512,-0.5 907.512,-0.5"/>
<text text-anchor="middle" x="930.512" y="-7.5" font-family="Helvetica,sans-Serif" font-size="10.00">cstdint</text>
</g>
<!-- Node11&#45;&gt;Node14 -->
<g id="edge14" class="edge"><title>Node11&#45;&gt;Node14</title>
<path fill="none" stroke="midnightblue" d="M879.313,-56.324C888.33,-48.3414 901.918,-36.3128 912.83,-26.6529"/>
<polygon fill="midnightblue" stroke="midnightblue" points="915.366,-29.083 920.533,-19.8339 910.726,-23.8416 915.366,-29.083"/>
</g>
<!-- Node17&#45;&gt;Node5 -->
<g id="edge18" class="edge"><title>Node17&#45;&gt;Node5</title>
<path fill="none" stroke="midnightblue" d="M808.863,-114.394C805.385,-113.568 801.867,-112.751 798.512,-112 734.411,-97.6532 659.387,-82.6981 615.587,-74.1504"/>
<polygon fill="midnightblue" stroke="midnightblue" points="616.16,-70.6965 605.676,-72.2218 614.823,-77.5676 616.16,-70.6965"/>
</g>
<!-- Node17&#45;&gt;Node11 -->
<g id="edge20" class="edge"><title>Node17&#45;&gt;Node11</title>
<path fill="none" stroke="midnightblue" d="M841.127,-112.083C845.88,-104.534 852.83,-93.4948 858.664,-84.2298"/>
<polygon fill="midnightblue" stroke="midnightblue" points="861.636,-86.0783 864.002,-75.7511 855.712,-82.3486 861.636,-86.0783"/>
</g>
<!-- Node18 -->
<g id="node18" class="node"><title>Node18</title>
<polygon fill="none" stroke="#bfbfbf" points="697.512,-56.5 697.512,-75.5 747.512,-75.5 747.512,-56.5 697.512,-56.5"/>
<text text-anchor="middle" x="722.512" y="-63.5" font-family="Helvetica,sans-Serif" font-size="10.00">iomanip</text>
</g>
<!-- Node17&#45;&gt;Node18 -->
<g id="edge19" class="edge"><title>Node17&#45;&gt;Node18</title>
<path fill="none" stroke="midnightblue" d="M817.607,-112.444C799.258,-103.675 770.507,-89.9355 749.419,-79.8579"/>
<polygon fill="midnightblue" stroke="midnightblue" points="750.865,-76.6703 740.334,-75.5164 747.847,-82.9862 750.865,-76.6703"/>
</g>
<!-- Node21 -->
<g id="node21" class="node"><title>Node21</title>
<g id="a_node21"><a xlink:href="../../df/db6/CathodeSegmentation_8h.html" target="_top" xlink:title="MCHMappingInterface\l/CathodeSegmentation.h">
<polygon fill="none" stroke="black" points="270.012,-169 270.012,-199 395.012,-199 395.012,-169 270.012,-169"/>
<text text-anchor="start" x="278.012" y="-187" font-family="Helvetica,sans-Serif" font-size="10.00">MCHMappingInterface</text>
<text text-anchor="middle" x="332.512" y="-176" font-family="Helvetica,sans-Serif" font-size="10.00">/CathodeSegmentation.h</text>
</a>
</g>
</g>
<!-- Node20&#45;&gt;Node21 -->
<g id="edge26" class="edge"><title>Node20&#45;&gt;Node21</title>
<path fill="none" stroke="midnightblue" d="M339.559,-236.679C338.474,-228.722 337.095,-218.605 335.844,-209.436"/>
<polygon fill="midnightblue" stroke="midnightblue" points="339.28,-208.728 334.461,-199.293 332.345,-209.674 339.28,-208.728"/>
</g>
<!-- Node21&#45;&gt;Node2 -->
<g id="edge31" class="edge"><title>Node21&#45;&gt;Node2</title>
<path fill="none" stroke="midnightblue" d="M356.896,-168.933C373.658,-159.262 395.815,-146.479 412.498,-136.855"/>
<polygon fill="midnightblue" stroke="midnightblue" points="414.693,-139.629 421.606,-131.6 411.195,-133.566 414.693,-139.629"/>
</g>
<!-- Node21&#45;&gt;Node5 -->
<g id="edge30" class="edge"><title>Node21&#45;&gt;Node5</title>
<path fill="none" stroke="midnightblue" d="M343.286,-168.766C356.283,-152.599 379.634,-126.577 405.512,-112 448.457,-87.8095 504.703,-76.3142 541.217,-71.0728"/>
<polygon fill="midnightblue" stroke="midnightblue" points="541.978,-74.5019 551.421,-69.6972 541.043,-67.5646 541.978,-74.5019"/>
</g>
<!-- Node21&#45;&gt;Node15 -->
<g id="edge28" class="edge"><title>Node21&#45;&gt;Node15</title>
<path fill="none" stroke="midnightblue" d="M269.731,-182.548C184.237,-180.447 37.9709,-171.063 4.51224,-132 -1.27018,-125.249 -1.62103,-118.434 4.51224,-112 32.1034,-83.0564 656.425,-81.7839 755.57,-75.3551"/>
<polygon fill="midnightblue" stroke="midnightblue" points="756.158,-78.8163 765.804,-74.4327 755.53,-71.8446 756.158,-78.8163"/>
</g>
<!-- Node22 -->
<g id="node22" class="node"><title>Node22</title>
<g id="a_node22"><a xlink:href="../../d0/dc7/CathodeSegmentationCInterface_8h.html" target="_top" xlink:title="CathodeSegmentationCInterface.h">
<polygon fill="none" stroke="black" points="122.012,-112.5 122.012,-131.5 289.012,-131.5 289.012,-112.5 122.012,-112.5"/>
<text text-anchor="middle" x="205.512" y="-119.5" font-family="Helvetica,sans-Serif" font-size="10.00">CathodeSegmentationCInterface.h</text>
</a>
</g>
</g>
<!-- Node21&#45;&gt;Node22 -->
<g id="edge27" class="edge"><title>Node21&#45;&gt;Node22</title>
<path fill="none" stroke="midnightblue" d="M302.736,-168.933C281.597,-158.946 253.433,-145.64 232.861,-135.92"/>
<polygon fill="midnightblue" stroke="midnightblue" points="234.252,-132.707 223.716,-131.6 231.262,-139.036 234.252,-132.707"/>
</g>
<!-- Node23 -->
<g id="node23" class="node"><title>Node23</title>
<polygon fill="none" stroke="#bfbfbf" points="306.512,-112.5 306.512,-131.5 358.512,-131.5 358.512,-112.5 306.512,-112.5"/>
<text text-anchor="middle" x="332.512" y="-119.5" font-family="Helvetica,sans-Serif" font-size="10.00">memory</text>
</g>
<!-- Node21&#45;&gt;Node23 -->
<g id="edge29" class="edge"><title>Node21&#45;&gt;Node23</title>
<path fill="none" stroke="midnightblue" d="M332.512,-168.781C332.512,-160.781 332.512,-150.689 332.512,-142.017"/>
<polygon fill="midnightblue" stroke="midnightblue" points="336.012,-141.73 332.512,-131.731 329.012,-141.731 336.012,-141.73"/>
</g>
<!-- Node24 -->
<g id="node24" class="node"><title>Node24</title>
<polygon fill="none" stroke="#bfbfbf" points="13.5122,-112.5 13.5122,-131.5 103.512,-131.5 103.512,-112.5 13.5122,-112.5"/>
<text text-anchor="middle" x="58.5122" y="-119.5" font-family="Helvetica,sans-Serif" font-size="10.00">boost/format.hpp</text>
</g>
<!-- Node21&#45;&gt;Node24 -->
<g id="edge32" class="edge"><title>Node21&#45;&gt;Node24</title>
<path fill="none" stroke="midnightblue" d="M269.995,-169.31C220.656,-158.506 152.801,-143.647 107.389,-133.703"/>
<polygon fill="midnightblue" stroke="midnightblue" points="108.005,-130.255 97.4879,-131.535 106.508,-137.093 108.005,-130.255"/>
</g>
</g>
</svg>
        <g id="navigator" transform="translate(0 0)" fill="#404254">
                <rect fill="#f2f5e9" fill-opacity="0.5" stroke="#606060" stroke-width=".5" x="0" y="0" width="60" height="60"/>
                <use id="zoomplus" xlink:href="#zoomPlus" x="17" y="9" onmousedown="handleZoom(evt,'in')"/>
                <use id="zoomminus" xlink:href="#zoomMin" x="42" y="9" onmousedown="handleZoom(evt,'out')"/>
                <use id="reset" xlink:href="#resetDef" x="30" y="36" onmousedown="handleReset()"/>
                <g id="arrowUp" xlink:href="#dirArrow" transform="translate(30 24)" onmousedown="handlePan(0,-1)">
                  <use xlink:href="#rim" fill="#404040">
                        <set attributeName="fill" to="#808080" begin="arrowUp.mouseover" end="arrowUp.mouseout"/>
                  </use>
                  <path fill="none" stroke="white" stroke-width="1.5" d="M0,-3.0v7 M-2.5,-0.5L0,-3.0L2.5,-0.5"/>
                </g>
                <g id="arrowRight" xlink:href="#dirArrow" transform="rotate(90) translate(36 -43)" onmousedown="handlePan(1,0)">
                  <use xlink:href="#rim" fill="#404040">
                        <set attributeName="fill" to="#808080" begin="arrowRight.mouseover" end="arrowRight.mouseout"/>
                  </use>
                  <path fill="none" stroke="white" stroke-width="1.5" d="M0,-3.0v7 M-2.5,-0.5L0,-3.0L2.5,-0.5"/>
                </g>
                <g id="arrowDown" xlink:href="#dirArrow" transform="rotate(180) translate(-30 -48)" onmousedown="handlePan(0,1)">
                  <use xlink:href="#rim" fill="#404040">
                        <set attributeName="fill" to="#808080" begin="arrowDown.mouseover" end="arrowDown.mouseout"/>
                  </use>
                  <path fill="none" stroke="white" stroke-width="1.5" d="M0,-3.0v7 M-2.5,-0.5L0,-3.0L2.5,-0.5"/>
                </g>
                <g id="arrowLeft" xlink:href="#dirArrow" transform="rotate(270) translate(-36 17)" onmousedown="handlePan(-1,0)">
                  <use xlink:href="#rim" fill="#404040">
                        <set attributeName="fill" to="#808080" begin="arrowLeft.mouseover" end="arrowLeft.mouseout"/>
                  </use>
                  <path fill="none" stroke="white" stroke-width="1.5" d="M0,-3.0v7 M-2.5,-0.5L0,-3.0L2.5,-0.5"/>
                </g>
        </g>
        <svg viewBox="0 0 15 15" width="100%" height="30px" preserveAspectRatio="xMaxYMin meet">
         <g id="arrow_out" transform="scale(0.3 0.3)">
          <a xlink:href="SegmentationContours_8h__incl_org.svg" target="_base">
           <rect id="button" ry="5" rx="5" y="6" x="6" height="38" width="38"
                fill="#f2f5e9" fill-opacity="0.5" stroke="#606060" stroke-width="1.0"/>
           <path id="arrow"
             d="M 11.500037,31.436501 C 11.940474,20.09759 22.043105,11.32322 32.158766,21.979434 L 37.068811,17.246167 C 37.068811,17.246167 37.088388,32 37.088388,32 L 22.160133,31.978069 C 22.160133,31.978069 26.997745,27.140456 26.997745,27.140456 C 18.528582,18.264221 13.291696,25.230495 11.500037,31.436501 z"
             style="fill:#404040;"/>
          </a>
         </g>
        </svg>
</svg>
