<?xml version="1.0" encoding="UTF-8" standalone="no"?>
<!DOCTYPE svg PUBLIC "-//W3C//DTD SVG 1.1//EN"
 "http://www.w3.org/Graphics/SVG/1.1/DTD/svg11.dtd">
<!-- Generated by graphviz version 2.36.0 (20140111.2315)
 -->
<!-- Title: o2::framework::data_matcher::StartTimeValueMatcher Pages: 1 -->
<svg width="291pt" height="486pt"
 viewBox="0.00 0.00 291.00 486.00" xmlns="http://www.w3.org/2000/svg" xmlns:xlink="http://www.w3.org/1999/xlink">
<g id="graph0" class="graph" transform="scale(1 1) rotate(0) translate(4 482)">
<title>o2::framework::data_matcher::StartTimeValueMatcher</title>
<!-- Node1 -->
<g id="node1" class="node"><title>Node1</title>
<polygon fill="#bfbfbf" stroke="black" points="31,-0.5 31,-79.5 197,-79.5 197,-0.5 31,-0.5"/>
<text text-anchor="start" x="39" y="-67.5" font-family="Helvetica,sans-Serif" font-size="10.00">o2::framework::data</text>
<text text-anchor="middle" x="114" y="-56.5" font-family="Helvetica,sans-Serif" font-size="10.00">_matcher::StartTimeValueMatcher</text>
<polyline fill="none" stroke="black" points="31,-49.5 197,-49.5 "/>
<text text-anchor="start" x="39" y="-37.5" font-family="Helvetica,sans-Serif" font-size="10.00">+ mScale</text>
<polyline fill="none" stroke="black" points="31,-30.5 197,-30.5 "/>
<text text-anchor="start" x="39" y="-18.5" font-family="Helvetica,sans-Serif" font-size="10.00">+ StartTimeValueMatcher()</text>
<text text-anchor="start" x="39" y="-7.5" font-family="Helvetica,sans-Serif" font-size="10.00">+ StartTimeValueMatcher()</text>
</g>
<!-- Node2 -->
<g id="node2" class="node"><title>Node2</title>
<g id="a_node2"><a xlink:href="../../dc/d72/classo2_1_1framework_1_1data__matcher_1_1ValueHolder.html" target="_top" xlink:title="{o2::framework::data\l_matcher::ValueHolder\l\&lt; uint64_t \&gt;\n||+ ValueHolder()\l+ ValueHolder()\l+ operator==()\l}">
<polygon fill="none" stroke="black" points="56,-118.5 56,-219.5 172,-219.5 172,-118.5 56,-118.5"/>
<text text-anchor="start" x="64" y="-207.5" font-family="Helvetica,sans-Serif" font-size="10.00">o2::framework::data</text>
<text text-anchor="start" x="64" y="-196.5" font-family="Helvetica,sans-Serif" font-size="10.00">_matcher::ValueHolder</text>
<text text-anchor="middle" x="114" y="-185.5" font-family="Helvetica,sans-Serif" font-size="10.00">&lt; uint64_t &gt;</text>
<polyline fill="none" stroke="black" points="56,-178.5 172,-178.5 "/>
<text text-anchor="middle" x="114" y="-166.5" font-family="Helvetica,sans-Serif" font-size="10.00"> </text>
<polyline fill="none" stroke="black" points="56,-159.5 172,-159.5 "/>
<text text-anchor="start" x="64" y="-147.5" font-family="Helvetica,sans-Serif" font-size="10.00">+ ValueHolder()</text>
<text text-anchor="start" x="64" y="-136.5" font-family="Helvetica,sans-Serif" font-size="10.00">+ ValueHolder()</text>
<text text-anchor="start" x="64" y="-125.5" font-family="Helvetica,sans-Serif" font-size="10.00">+ operator==()</text>
</a>
</g>
</g>
<!-- Node2&#45;&gt;Node1 -->
<g id="edge1" class="edge"><title>Node2&#45;&gt;Node1</title>
<path fill="none" stroke="midnightblue" d="M114,-108.164C114,-98.4862 114,-88.6942 114,-79.6916"/>
<polygon fill="none" stroke="midnightblue" points="110.5,-108.171 114,-118.171 117.5,-108.171 110.5,-108.171"/>
</g>
<!-- Node3 -->
<g id="node3" class="node"><title>Node3</title>
<g id="a_node3"><a xlink:href="../../d5/d87/classstd_1_1variant_3_01uint64__t_00_01o2_1_1framework_1_1data__matcher_1_1ContextRef_01_4.html" target="_top" xlink:title="{variant\&lt; uint64_t,\l o2::framework::data\l_matcher::ContextRef \&gt;\n||}">
<polygon fill="none" stroke="black" points="0,-274.5 0,-353.5 122,-353.5 122,-274.5 0,-274.5"/>
<text text-anchor="start" x="8" y="-341.5" font-family="Helvetica,sans-Serif" font-size="10.00">variant&lt; uint64_t,</text>
<text text-anchor="start" x="8" y="-330.5" font-family="Helvetica,sans-Serif" font-size="10.00"> o2::framework::data</text>
<text text-anchor="middle" x="61" y="-319.5" font-family="Helvetica,sans-Serif" font-size="10.00">_matcher::ContextRef &gt;</text>
<polyline fill="none" stroke="black" points="0,-312.5 122,-312.5 "/>
<text text-anchor="middle" x="61" y="-300.5" font-family="Helvetica,sans-Serif" font-size="10.00"> </text>
<polyline fill="none" stroke="black" points="0,-293.5 122,-293.5 "/>
<text text-anchor="middle" x="61" y="-281.5" font-family="Helvetica,sans-Serif" font-size="10.00"> </text>
</a>
</g>
</g>
<!-- Node3&#45;&gt;Node2 -->
<g id="edge2" class="edge"><title>Node3&#45;&gt;Node2</title>
<path fill="none" stroke="#404040" d="M75.3426,-274.302C80.2773,-260.988 85.9302,-245.736 91.3618,-231.08"/>
<polygon fill="none" stroke="#404040" points="91.4821,-230.756 89.8167,-223.739 95.6525,-219.504 97.318,-226.52 91.4821,-230.756"/>
<text text-anchor="middle" x="108" y="-241.5" font-family="Helvetica,sans-Serif" font-size="10.00"> #mValue</text>
</g>
<!-- Node4 -->
<g id="node4" class="node"><title>Node4</title>
<g id="a_node4"><a xlink:href="../../dc/d72/classo2_1_1framework_1_1data__matcher_1_1ValueHolder.html" target="_top" xlink:title="{o2::framework::data\l_matcher::ValueHolder\&lt; T \&gt;\n||+ ValueHolder()\l+ ValueHolder()\l+ operator==()\l}">
<polygon fill="none" stroke="black" points="140,-269 140,-359 280,-359 280,-269 140,-269"/>
<text text-anchor="start" x="148" y="-347" font-family="Helvetica,sans-Serif" font-size="10.00">o2::framework::data</text>
<text text-anchor="middle" x="210" y="-336" font-family="Helvetica,sans-Serif" font-size="10.00">_matcher::ValueHolder&lt; T &gt;</text>
<polyline fill="none" stroke="black" points="140,-329 280,-329 "/>
<text text-anchor="middle" x="210" y="-317" font-family="Helvetica,sans-Serif" font-size="10.00"> </text>
<polyline fill="none" stroke="black" points="140,-310 280,-310 "/>
<text text-anchor="start" x="148" y="-298" font-family="Helvetica,sans-Serif" font-size="10.00">+ ValueHolder()</text>
<text text-anchor="start" x="148" y="-287" font-family="Helvetica,sans-Serif" font-size="10.00">+ ValueHolder()</text>
<text text-anchor="start" x="148" y="-276" font-family="Helvetica,sans-Serif" font-size="10.00">+ operator==()</text>
</a>
</g>
</g>
<!-- Node4&#45;&gt;Node2 -->
<g id="edge3" class="edge"><title>Node4&#45;&gt;Node2</title>
<path fill="none" stroke="orange" d="M174.652,-260.346C165.724,-247.048 156.168,-232.813 147.344,-219.668"/>
<polygon fill="orange" stroke="orange" points="171.934,-262.577 180.414,-268.928 177.746,-258.675 171.934,-262.577"/>
<text text-anchor="middle" x="192" y="-241.5" font-family="Helvetica,sans-Serif" font-size="10.00"> &lt; uint64_t &gt;</text>
</g>
<!-- Node5 -->
<g id="node5" class="node"><title>Node5</title>
<polygon fill="none" stroke="#bfbfbf" points="136.5,-409 136.5,-477 283.5,-477 283.5,-409 136.5,-409"/>
<text text-anchor="start" x="144.5" y="-465" font-family="Helvetica,sans-Serif" font-size="10.00">variant&lt; T, o2::framework</text>
<text text-anchor="middle" x="210" y="-454" font-family="Helvetica,sans-Serif" font-size="10.00">::data_matcher::ContextRef &gt;</text>
<polyline fill="none" stroke="#bfbfbf" points="136.5,-447 283.5,-447 "/>
<text text-anchor="middle" x="210" y="-435" font-family="Helvetica,sans-Serif" font-size="10.00"> </text>
<polyline fill="none" stroke="#bfbfbf" points="136.5,-428 283.5,-428 "/>
<text text-anchor="middle" x="210" y="-416" font-family="Helvetica,sans-Serif" font-size="10.00"> </text>
</g>
<!-- Node5&#45;&gt;Node4 -->
<g id="edge4" class="edge"><title>Node5&#45;&gt;Node4</title>
<path fill="none" stroke="#404040" d="M210,-408.964C210,-397.49 210,-384.278 210,-371.454"/>
<polygon fill="none" stroke="#404040" points="210,-371.347 206,-365.347 210,-359.347 214,-365.347 210,-371.347"/>
<text text-anchor="middle" x="231" y="-381.5" font-family="Helvetica,sans-Serif" font-size="10.00"> #mValue</text>
</g>
</g>
</svg>
