<?xml version="1.0" encoding="UTF-8" standalone="no"?>
<!DOCTYPE svg PUBLIC "-//W3C//DTD SVG 1.1//EN"
 "http://www.w3.org/Graphics/SVG/1.1/DTD/svg11.dtd">
<!-- Generated by graphviz version 2.36.0 (20140111.2315)
 -->
<!-- Title: /home/travis/build/AliceO2Group/AliceO2/Detectors/ITSMFT/ITS/tracking/cuda/include/ITStrackingCUDA/PrimaryVertexContextNV.h Pages: 1 -->
<!--zoomable 476 -->
<svg id="main" version="1.1" xmlns="http://www.w3.org/2000/svg" xmlns:xlink="http://www.w3.org/1999/xlink" xml:space="preserve" onload="init(evt)">
<style type="text/css"><![CDATA[
.edge:hover path { stroke: red; }
.edge:hover polygon { stroke: red; fill: red; }
]]></style>
<script type="text/javascript"><![CDATA[
var edges = document.getElementsByTagName('g');
if (edges && edges.length) {
  for (var i=0;i<edges.length;i++) {
    if (edges[i].id.substr(0,4)=='edge') {
      edges[i].setAttribute('class','edge');
    }
  }
}
]]></script>
        <defs>
                <circle id="rim" cx="0" cy="0" r="7"/>
                <circle id="rim2" cx="0" cy="0" r="3.5"/>
                <g id="zoomPlus">
                        <use xlink:href="#rim" fill="#404040">
                                <set attributeName="fill" to="#808080" begin="zoomplus.mouseover" end="zoomplus.mouseout"/>
                        </use>
                        <path d="M-4,0h8M0,-4v8" fill="none" stroke="white" stroke-width="1.5" pointer-events="none"/>
                </g>
                <g id="zoomMin">
                        <use xlink:href="#rim" fill="#404040">
                                <set attributeName="fill" to="#808080" begin="zoomminus.mouseover" end="zoomminus.mouseout"/>
                        </use>
                        <path d="M-4,0h8" fill="none" stroke="white" stroke-width="1.5" pointer-events="none"/>
                </g>
                <g id="dirArrow">
                        <path fill="none" stroke="white" stroke-width="1.5" d="M0,-3.0v7 M-2.5,-0.5L0,-3.0L2.5,-0.5"/>
                </g>
               <g id="resetDef">
                       <use xlink:href="#rim2" fill="#404040">
                               <set attributeName="fill" to="#808080" begin="reset.mouseover" end="reset.mouseout"/>
                       </use>
               </g>
        </defs>

<script type="text/javascript">
var viewWidth = 1498;
var viewHeight = 476;
var sectionId = 'dynsection-0';
</script>
<script xlink:href="../../svgpan.js"/>
<svg id="graph" class="graph">
<g id="viewport">
<title>/home/travis/build/AliceO2Group/AliceO2/Detectors/ITSMFT/ITS/tracking/cuda/include/ITStrackingCUDA/PrimaryVertexContextNV.h</title>
<!-- Node1 -->
<g id="node1" class="node"><title>Node1</title>
<polygon fill="#bfbfbf" stroke="black" points="323.5,-404.5 323.5,-467.5 544.5,-467.5 544.5,-404.5 323.5,-404.5"/>
<text text-anchor="start" x="331.5" y="-455.5" font-family="Helvetica,sans-Serif" font-size="10.00">/home/travis/build</text>
<text text-anchor="start" x="331.5" y="-444.5" font-family="Helvetica,sans-Serif" font-size="10.00">/AliceO2Group/AliceO2</text>
<text text-anchor="start" x="331.5" y="-433.5" font-family="Helvetica,sans-Serif" font-size="10.00">/Detectors/ITSMFT/ITS</text>
<text text-anchor="start" x="331.5" y="-422.5" font-family="Helvetica,sans-Serif" font-size="10.00">/tracking/cuda/include</text>
<text text-anchor="middle" x="434" y="-411.5" font-family="Helvetica,sans-Serif" font-size="10.00">/ITStrackingCUDA/PrimaryVertexContextNV.h</text>
</g>
<!-- Node2 -->
<g id="node2" class="node"><title>Node2</title>
<polygon fill="none" stroke="#bfbfbf" points="511,-0.5 511,-19.5 549,-19.5 549,-0.5 511,-0.5"/>
<text text-anchor="middle" x="530" y="-7.5" font-family="Helvetica,sans-Serif" font-size="10.00">array</text>
</g>
<!-- Node1&#45;&gt;Node2 -->
<g id="edge1" class="edge"><title>Node1&#45;&gt;Node2</title>
<path fill="none" stroke="midnightblue" d="M323.361,-420.54C194.777,-400.566 0,-359.074 0,-291 0,-291 0,-291 0,-121 0,-79.1915 29.997,-73.4276 68,-56 145.703,-20.3664 411.907,-12.8884 500.82,-11.3721"/>
<polygon fill="midnightblue" stroke="midnightblue" points="501.05,-14.869 510.993,-11.2119 500.939,-7.86989 501.05,-14.869"/>
</g>
<!-- Node3 -->
<g id="node3" class="node"><title>Node3</title>
<g id="a_node3"><a xlink:href="../../d3/d59/Configuration_8h.html" target="_top" xlink:title="ITStracking/Configuration.h">
<polygon fill="none" stroke="black" points="104,-168.5 104,-187.5 240,-187.5 240,-168.5 104,-168.5"/>
<text text-anchor="middle" x="172" y="-175.5" font-family="Helvetica,sans-Serif" font-size="10.00">ITStracking/Configuration.h</text>
</a>
</g>
</g>
<!-- Node1&#45;&gt;Node3 -->
<g id="edge2" class="edge"><title>Node1&#45;&gt;Node3</title>
<path fill="none" stroke="midnightblue" d="M323.275,-412.913C289.732,-402.812 254.101,-388.387 225,-368 167.917,-328.01 151.545,-309.95 129,-244 126.125,-235.589 125.692,-232.25 129,-224 133.68,-212.328 142.991,-201.969 151.756,-194.141"/>
<polygon fill="midnightblue" stroke="midnightblue" points="154.052,-196.783 159.503,-187.698 149.576,-191.401 154.052,-196.783"/>
</g>
<!-- Node6 -->
<g id="node6" class="node"><title>Node6</title>
<g id="a_node6"><a xlink:href="../../d0/d86/Detectors_2ITSMFT_2ITS_2tracking_2include_2ITStracking_2Constants_8h.html" target="_top" xlink:title="ITStracking/Constants.h">
<polygon fill="none" stroke="black" points="244.5,-112.5 244.5,-131.5 367.5,-131.5 367.5,-112.5 244.5,-112.5"/>
<text text-anchor="middle" x="306" y="-119.5" font-family="Helvetica,sans-Serif" font-size="10.00">ITStracking/Constants.h</text>
</a>
</g>
</g>
<!-- Node1&#45;&gt;Node6 -->
<g id="edge12" class="edge"><title>Node1&#45;&gt;Node6</title>
<path fill="none" stroke="midnightblue" d="M390.661,-404.488C378.787,-394.163 366.998,-381.728 359,-368 315.053,-292.567 307.436,-184.91 306.198,-141.853"/>
<polygon fill="midnightblue" stroke="midnightblue" points="309.694,-141.642 305.995,-131.714 302.696,-141.782 309.694,-141.642"/>
</g>
<!-- Node7 -->
<g id="node7" class="node"><title>Node7</title>
<g id="a_node7"><a xlink:href="../../df/d3d/Definitions_8h.html" target="_top" xlink:title="ITStracking/Definitions.h">
<polygon fill="none" stroke="black" points="1000.5,-56.5 1000.5,-75.5 1125.5,-75.5 1125.5,-56.5 1000.5,-56.5"/>
<text text-anchor="middle" x="1063" y="-63.5" font-family="Helvetica,sans-Serif" font-size="10.00">ITStracking/Definitions.h</text>
</a>
</g>
</g>
<!-- Node1&#45;&gt;Node7 -->
<g id="edge13" class="edge"><title>Node1&#45;&gt;Node7</title>
<path fill="none" stroke="midnightblue" d="M544.518,-431.366C815.315,-420.994 1490,-385.654 1490,-291 1490,-291 1490,-291 1490,-177 1490,-141.609 1474.42,-130.082 1444,-112 1393.52,-81.9986 1231.83,-71.9771 1136.07,-68.6452"/>
<polygon fill="midnightblue" stroke="midnightblue" points="1135.99,-65.1406 1125.88,-68.307 1135.76,-72.1367 1135.99,-65.1406"/>
</g>
<!-- Node9 -->
<g id="node9" class="node"><title>Node9</title>
<g id="a_node9"><a xlink:href="../../d3/da9/PrimaryVertexContext_8h.html" target="_top" xlink:title="ITStracking/PrimaryVertex\lContext.h">
<polygon fill="none" stroke="black" points="368,-337 368,-367 500,-367 500,-337 368,-337"/>
<text text-anchor="start" x="376" y="-355" font-family="Helvetica,sans-Serif" font-size="10.00">ITStracking/PrimaryVertex</text>
<text text-anchor="middle" x="434" y="-344" font-family="Helvetica,sans-Serif" font-size="10.00">Context.h</text>
</a>
</g>
</g>
<!-- Node1&#45;&gt;Node9 -->
<g id="edge14" class="edge"><title>Node1&#45;&gt;Node9</title>
<path fill="none" stroke="midnightblue" d="M434,-404.466C434,-395.502 434,-385.822 434,-377.302"/>
<polygon fill="midnightblue" stroke="midnightblue" points="437.5,-377.272 434,-367.272 430.5,-377.272 437.5,-377.272"/>
</g>
<!-- Node13 -->
<g id="node13" class="node"><title>Node13</title>
<g id="a_node13"><a xlink:href="../../db/d48/Road_8h.html" target="_top" xlink:title="ITStracking/Road.h">
<polygon fill="none" stroke="black" points="138.5,-224.5 138.5,-243.5 239.5,-243.5 239.5,-224.5 138.5,-224.5"/>
<text text-anchor="middle" x="189" y="-231.5" font-family="Helvetica,sans-Serif" font-size="10.00">ITStracking/Road.h</text>
</a>
</g>
</g>
<!-- Node1&#45;&gt;Node13 -->
<g id="edge43" class="edge"><title>Node1&#45;&gt;Node13</title>
<path fill="none" stroke="midnightblue" d="M323.307,-408.757C298.444,-399.008 273.643,-385.802 254,-368 219.2,-336.461 200.961,-282.178 193.373,-253.692"/>
<polygon fill="midnightblue" stroke="midnightblue" points="196.726,-252.675 190.9,-243.826 189.936,-254.377 196.726,-252.675"/>
</g>
<!-- Node14 -->
<g id="node14" class="node"><title>Node14</title>
<g id="a_node14"><a xlink:href="../../da/dc0/Tracklet_8h.html" target="_top" xlink:title="ITStracking/Tracklet.h">
<polygon fill="none" stroke="black" points="651.5,-280.5 651.5,-299.5 764.5,-299.5 764.5,-280.5 651.5,-280.5"/>
<text text-anchor="middle" x="708" y="-287.5" font-family="Helvetica,sans-Serif" font-size="10.00">ITStracking/Tracklet.h</text>
</a>
</g>
</g>
<!-- Node1&#45;&gt;Node14 -->
<g id="edge44" class="edge"><title>Node1&#45;&gt;Node14</title>
<path fill="none" stroke="midnightblue" d="M492.108,-404.461C551.11,-373.453 639.727,-326.881 682.758,-304.266"/>
<polygon fill="midnightblue" stroke="midnightblue" points="684.482,-307.314 691.706,-299.563 681.226,-301.117 684.482,-307.314"/>
</g>
<!-- Node20 -->
<g id="node20" class="node"><title>Node20</title>
<g id="a_node20"><a xlink:href="../../d1/d40/DeviceStoreNV_8h.html" target="_top" xlink:title="ITStrackingCUDA/DeviceStoreNV.h">
<polygon fill="none" stroke="black" points="848,-342.5 848,-361.5 1024,-361.5 1024,-342.5 848,-342.5"/>
<text text-anchor="middle" x="936" y="-349.5" font-family="Helvetica,sans-Serif" font-size="10.00">ITStrackingCUDA/DeviceStoreNV.h</text>
</a>
</g>
</g>
<!-- Node1&#45;&gt;Node20 -->
<g id="edge45" class="edge"><title>Node1&#45;&gt;Node20</title>
<path fill="none" stroke="midnightblue" d="M544.787,-416.903C645.957,-400.378 791.873,-376.543 873.911,-363.142"/>
<polygon fill="midnightblue" stroke="midnightblue" points="874.53,-366.587 883.835,-361.521 873.401,-359.679 874.53,-366.587"/>
</g>
<!-- Node22 -->
<g id="node22" class="node"><title>Node22</title>
<g id="a_node22"><a xlink:href="../../da/db5/UniquePointer_8h.html" target="_top" xlink:title="ITStrackingCUDA/UniquePointer.h">
<polygon fill="none" stroke="black" points="1248.5,-280.5 1248.5,-299.5 1417.5,-299.5 1417.5,-280.5 1248.5,-280.5"/>
<text text-anchor="middle" x="1333" y="-287.5" font-family="Helvetica,sans-Serif" font-size="10.00">ITStrackingCUDA/UniquePointer.h</text>
</a>
</g>
</g>
<!-- Node1&#45;&gt;Node22 -->
<g id="edge67" class="edge"><title>Node1&#45;&gt;Node22</title>
<path fill="none" stroke="midnightblue" d="M544.613,-427.232C665.148,-417.694 863.341,-398.867 1032,-368 1128.1,-350.412 1238.89,-319.167 1295.48,-302.394"/>
<polygon fill="midnightblue" stroke="midnightblue" points="1296.49,-305.746 1305.07,-299.536 1294.49,-299.038 1296.49,-305.746"/>
</g>
<!-- Node3&#45;&gt;Node2 -->
<g id="edge3" class="edge"><title>Node3&#45;&gt;Node2</title>
<path fill="none" stroke="midnightblue" d="M172.138,-168.323C173.03,-145.3 178.997,-82.6115 217,-56 262.568,-24.0916 432.142,-14.502 500.83,-11.891"/>
<polygon fill="midnightblue" stroke="midnightblue" points="501.085,-15.3842 510.954,-11.5295 500.835,-8.38868 501.085,-15.3842"/>
</g>
<!-- Node4 -->
<g id="node4" class="node"><title>Node4</title>
<polygon fill="none" stroke="#bfbfbf" points="226.5,-56.5 226.5,-75.5 271.5,-75.5 271.5,-56.5 226.5,-56.5"/>
<text text-anchor="middle" x="249" y="-63.5" font-family="Helvetica,sans-Serif" font-size="10.00">climits</text>
</g>
<!-- Node3&#45;&gt;Node4 -->
<g id="edge4" class="edge"><title>Node3&#45;&gt;Node4</title>
<path fill="none" stroke="midnightblue" d="M174.777,-168.462C179.241,-155.498 188.861,-130.413 202,-112 209.917,-100.905 220.812,-90.2721 230.119,-82.1306"/>
<polygon fill="midnightblue" stroke="midnightblue" points="232.39,-84.7934 237.774,-75.6682 227.875,-79.4444 232.39,-84.7934"/>
</g>
<!-- Node5 -->
<g id="node5" class="node"><title>Node5</title>
<polygon fill="none" stroke="#bfbfbf" points="393,-56.5 393,-75.5 437,-75.5 437,-56.5 393,-56.5"/>
<text text-anchor="middle" x="415" y="-63.5" font-family="Helvetica,sans-Serif" font-size="10.00">vector</text>
</g>
<!-- Node3&#45;&gt;Node5 -->
<g id="edge5" class="edge"><title>Node3&#45;&gt;Node5</title>
<path fill="none" stroke="midnightblue" d="M177.875,-168.353C187.894,-154.298 209.677,-126.6 235,-112 281.861,-84.9824 344.694,-74.047 382.382,-69.7205"/>
<polygon fill="midnightblue" stroke="midnightblue" points="383.192,-73.1545 392.769,-68.6233 382.456,-66.1933 383.192,-73.1545"/>
</g>
<!-- Node3&#45;&gt;Node6 -->
<g id="edge6" class="edge"><title>Node3&#45;&gt;Node6</title>
<path fill="none" stroke="midnightblue" d="M193.233,-168.444C215.384,-159.517 250.319,-145.439 275.436,-135.317"/>
<polygon fill="midnightblue" stroke="midnightblue" points="276.9,-138.501 284.867,-131.516 274.283,-132.008 276.9,-138.501"/>
</g>
<!-- Node6&#45;&gt;Node4 -->
<g id="edge7" class="edge"><title>Node6&#45;&gt;Node4</title>
<path fill="none" stroke="midnightblue" d="M296.842,-112.324C288.499,-104.42 275.968,-92.5482 265.823,-82.9377"/>
<polygon fill="midnightblue" stroke="midnightblue" points="267.991,-80.1705 258.325,-75.8339 263.177,-85.2522 267.991,-80.1705"/>
</g>
<!-- Node6&#45;&gt;Node5 -->
<g id="edge8" class="edge"><title>Node6&#45;&gt;Node5</title>
<path fill="none" stroke="midnightblue" d="M323.513,-112.324C341.072,-103.625 368.331,-90.1202 388.531,-80.113"/>
<polygon fill="midnightblue" stroke="midnightblue" points="390.124,-83.23 397.531,-75.6545 387.016,-76.9575 390.124,-83.23"/>
</g>
<!-- Node6&#45;&gt;Node7 -->
<g id="edge9" class="edge"><title>Node6&#45;&gt;Node7</title>
<path fill="none" stroke="midnightblue" d="M367.628,-116.604C506.117,-106.725 841.426,-82.8058 990.022,-72.2059"/>
<polygon fill="midnightblue" stroke="midnightblue" points="990.667,-75.6688 1000.39,-71.4661 990.169,-68.6866 990.667,-75.6688"/>
</g>
<!-- Node7&#45;&gt;Node2 -->
<g id="edge10" class="edge"><title>Node7&#45;&gt;Node2</title>
<path fill="none" stroke="midnightblue" d="M1000.29,-58.6467C884.822,-46.9481 642.744,-22.4224 559.136,-13.9518"/>
<polygon fill="midnightblue" stroke="midnightblue" points="559.381,-10.4588 549.079,-12.933 558.675,-17.4232 559.381,-10.4588"/>
</g>
<!-- Node8 -->
<g id="node8" class="node"><title>Node8</title>
<polygon fill="none" stroke="#bfbfbf" points="1228,-0.5 1228,-19.5 1362,-19.5 1362,-0.5 1228,-0.5"/>
<text text-anchor="middle" x="1295" y="-7.5" font-family="Helvetica,sans-Serif" font-size="10.00">AliTPCCommonDefGPU.h</text>
</g>
<!-- Node7&#45;&gt;Node8 -->
<g id="edge11" class="edge"><title>Node7&#45;&gt;Node8</title>
<path fill="none" stroke="midnightblue" d="M1099.76,-56.4435C1140.06,-47.0629 1204.81,-31.9926 1248.58,-21.8036"/>
<polygon fill="midnightblue" stroke="midnightblue" points="1249.46,-25.1924 1258.41,-19.5164 1247.88,-18.3746 1249.46,-25.1924"/>
</g>
<!-- Node9&#45;&gt;Node2 -->
<g id="edge16" class="edge"><title>Node9&#45;&gt;Node2</title>
<path fill="none" stroke="midnightblue" d="M367.719,-350.965C254.987,-347.041 38,-321.04 38,-179 38,-179 38,-179 38,-121 38,-25.688 394.099,-12.9341 500.393,-11.2501"/>
<polygon fill="midnightblue" stroke="midnightblue" points="500.762,-14.7455 510.713,-11.1098 500.666,-7.7462 500.762,-14.7455"/>
</g>
<!-- Node9&#45;&gt;Node3 -->
<g id="edge23" class="edge"><title>Node9&#45;&gt;Node3</title>
<path fill="none" stroke="midnightblue" d="M398.881,-336.852C378.034,-327.718 351.552,-314.798 330,-300 289.036,-271.874 287.826,-253.715 248,-224 232.021,-212.078 212.67,-200.658 197.493,-192.306"/>
<polygon fill="midnightblue" stroke="midnightblue" points="199.111,-189.203 188.65,-187.525 195.782,-195.36 199.111,-189.203"/>
</g>
<!-- Node9&#45;&gt;Node5 -->
<g id="edge18" class="edge"><title>Node9&#45;&gt;Node5</title>
<path fill="none" stroke="midnightblue" d="M462.576,-336.952C476.607,-328.386 492.149,-315.988 500,-300 503.918,-292.021 502.565,-288.511 500,-280 485.842,-233.027 457.682,-233.364 439,-188 424.779,-153.467 418.796,-109.836 416.426,-85.5245"/>
<polygon fill="midnightblue" stroke="midnightblue" points="419.911,-85.1981 415.554,-75.5407 412.938,-85.8074 419.911,-85.1981"/>
</g>
<!-- Node9&#45;&gt;Node6 -->
<g id="edge24" class="edge"><title>Node9&#45;&gt;Node6</title>
<path fill="none" stroke="midnightblue" d="M406.38,-336.859C391.637,-328.051 374.262,-315.455 363,-300 360.574,-296.671 325.763,-186.072 311.766,-141.421"/>
<polygon fill="midnightblue" stroke="midnightblue" points="315.087,-140.315 308.758,-131.819 308.407,-142.408 315.087,-140.315"/>
</g>
<!-- Node9&#45;&gt;Node7 -->
<g id="edge25" class="edge"><title>Node9&#45;&gt;Node7</title>
<path fill="none" stroke="midnightblue" d="M472.246,-336.986C522.792,-318.634 609.258,-287.864 642,-280 751.581,-253.683 792.728,-295.442 893,-244 902.818,-238.963 1008.1,-126.143 1047.89,-83.3019"/>
<polygon fill="midnightblue" stroke="midnightblue" points="1050.69,-85.4301 1054.92,-75.7195 1045.56,-80.6683 1050.69,-85.4301"/>
</g>
<!-- Node10 -->
<g id="node10" class="node"><title>Node10</title>
<polygon fill="none" stroke="#bfbfbf" points="372,-280.5 372,-299.5 428,-299.5 428,-280.5 372,-280.5"/>
<text text-anchor="middle" x="400" y="-287.5" font-family="Helvetica,sans-Serif" font-size="10.00">algorithm</text>
</g>
<!-- Node9&#45;&gt;Node10 -->
<g id="edge15" class="edge"><title>Node9&#45;&gt;Node10</title>
<path fill="none" stroke="midnightblue" d="M425.942,-336.781C421.155,-328.332 415.044,-317.548 409.956,-308.569"/>
<polygon fill="midnightblue" stroke="midnightblue" points="412.923,-306.705 404.947,-299.731 406.832,-310.156 412.923,-306.705"/>
</g>
<!-- Node11 -->
<g id="node11" class="node"><title>Node11</title>
<polygon fill="none" stroke="#bfbfbf" points="446.5,-280.5 446.5,-299.5 491.5,-299.5 491.5,-280.5 446.5,-280.5"/>
<text text-anchor="middle" x="469" y="-287.5" font-family="Helvetica,sans-Serif" font-size="10.00">iosfwd</text>
</g>
<!-- Node9&#45;&gt;Node11 -->
<g id="edge17" class="edge"><title>Node9&#45;&gt;Node11</title>
<path fill="none" stroke="midnightblue" d="M442.295,-336.781C447.223,-328.332 453.514,-317.548 458.751,-308.569"/>
<polygon fill="midnightblue" stroke="midnightblue" points="461.892,-310.132 463.907,-299.731 455.845,-306.605 461.892,-310.132"/>
</g>
<!-- Node12 -->
<g id="node12" class="node"><title>Node12</title>
<g id="a_node12"><a xlink:href="../../d2/d56/Cell_8h.html" target="_top" xlink:title="ITStracking/Cell.h">
<polygon fill="none" stroke="black" points="772.5,-112.5 772.5,-131.5 867.5,-131.5 867.5,-112.5 772.5,-112.5"/>
<text text-anchor="middle" x="820" y="-119.5" font-family="Helvetica,sans-Serif" font-size="10.00">ITStracking/Cell.h</text>
</a>
</g>
</g>
<!-- Node9&#45;&gt;Node12 -->
<g id="edge19" class="edge"><title>Node9&#45;&gt;Node12</title>
<path fill="none" stroke="midnightblue" d="M465.135,-336.98C521.802,-310.913 644.729,-251.81 740,-188 762.832,-172.707 787.059,-152.373 802.791,-138.548"/>
<polygon fill="midnightblue" stroke="midnightblue" points="805.446,-140.87 810.594,-131.61 800.795,-135.639 805.446,-140.87"/>
</g>
<!-- Node9&#45;&gt;Node13 -->
<g id="edge26" class="edge"><title>Node9&#45;&gt;Node13</title>
<path fill="none" stroke="midnightblue" d="M386.906,-336.948C358.745,-327.849 322.605,-314.931 292,-300 261.841,-285.287 229.493,-263.837 209.259,-249.657"/>
<polygon fill="midnightblue" stroke="midnightblue" points="211.047,-246.634 200.866,-243.703 206.997,-252.344 211.047,-246.634"/>
</g>
<!-- Node9&#45;&gt;Node14 -->
<g id="edge29" class="edge"><title>Node9&#45;&gt;Node14</title>
<path fill="none" stroke="midnightblue" d="M498.241,-336.933C547.504,-326.145 614.449,-311.486 659.337,-301.656"/>
<polygon fill="midnightblue" stroke="midnightblue" points="660.106,-305.071 669.125,-299.513 658.608,-298.233 660.106,-305.071"/>
</g>
<!-- Node12&#45;&gt;Node2 -->
<g id="edge20" class="edge"><title>Node12&#45;&gt;Node2</title>
<path fill="none" stroke="midnightblue" d="M814.332,-112.208C804.636,-97.9452 783.429,-69.956 758,-56 693.165,-20.4169 604.281,-12.7195 559.03,-11.2172"/>
<polygon fill="midnightblue" stroke="midnightblue" points="559.108,-7.71817 549.023,-10.9642 558.931,-14.7159 559.108,-7.71817"/>
</g>
<!-- Node12&#45;&gt;Node5 -->
<g id="edge21" class="edge"><title>Node12&#45;&gt;Node5</title>
<path fill="none" stroke="midnightblue" d="M772.35,-114.647C689.016,-103.535 518.896,-80.8527 447.59,-71.3454"/>
<polygon fill="midnightblue" stroke="midnightblue" points="447.79,-67.8412 437.416,-69.9887 446.865,-74.7798 447.79,-67.8412"/>
</g>
<!-- Node12&#45;&gt;Node7 -->
<g id="edge22" class="edge"><title>Node12&#45;&gt;Node7</title>
<path fill="none" stroke="midnightblue" d="M858.504,-112.444C900.806,-103.043 968.819,-87.9291 1014.67,-77.7393"/>
<polygon fill="midnightblue" stroke="midnightblue" points="1015.67,-81.1025 1024.68,-75.5164 1014.15,-74.2692 1015.67,-81.1025"/>
</g>
<!-- Node13&#45;&gt;Node2 -->
<g id="edge27" class="edge"><title>Node13&#45;&gt;Node2</title>
<path fill="none" stroke="midnightblue" d="M148.853,-224.429C129.025,-217.953 106.862,-206.83 95,-188 56.0633,-126.192 41.943,-137.194 195,-56 247.883,-27.9464 429.256,-16.0262 500.722,-12.3424"/>
<polygon fill="midnightblue" stroke="midnightblue" points="501.013,-15.8323 510.827,-11.8391 500.665,-8.84094 501.013,-15.8323"/>
</g>
<!-- Node13&#45;&gt;Node6 -->
<g id="edge28" class="edge"><title>Node13&#45;&gt;Node6</title>
<path fill="none" stroke="midnightblue" d="M202.011,-224.412C214.59,-215.846 233.908,-201.981 249,-188 265.439,-172.772 282.09,-153.198 293.115,-139.527"/>
<polygon fill="midnightblue" stroke="midnightblue" points="296.011,-141.508 299.489,-131.5 290.529,-137.155 296.011,-141.508"/>
</g>
<!-- Node15 -->
<g id="node15" class="node"><title>Node15</title>
<g id="a_node15"><a xlink:href="../../da/d7f/Detectors_2ITSMFT_2ITS_2tracking_2include_2ITStracking_2Cluster_8h.html" target="_top" xlink:title="ITStracking/Cluster.h">
<polygon fill="none" stroke="black" points="774,-224.5 774,-243.5 884,-243.5 884,-224.5 774,-224.5"/>
<text text-anchor="middle" x="829" y="-231.5" font-family="Helvetica,sans-Serif" font-size="10.00">ITStracking/Cluster.h</text>
</a>
</g>
</g>
<!-- Node14&#45;&gt;Node15 -->
<g id="edge30" class="edge"><title>Node14&#45;&gt;Node15</title>
<path fill="none" stroke="midnightblue" d="M727.173,-280.444C746.909,-271.636 777.885,-257.812 800.493,-247.722"/>
<polygon fill="midnightblue" stroke="midnightblue" points="802.211,-250.788 809.917,-243.516 799.359,-244.396 802.211,-250.788"/>
</g>
<!-- Node15&#45;&gt;Node2 -->
<g id="edge31" class="edge"><title>Node15&#45;&gt;Node2</title>
<path fill="none" stroke="midnightblue" d="M820.507,-224.396C793.333,-197.187 705.361,-111.53 621,-56 601.159,-42.9395 576.986,-31.1582 558.543,-22.9291"/>
<polygon fill="midnightblue" stroke="midnightblue" points="559.777,-19.6488 549.212,-18.8497 556.973,-26.0626 559.777,-19.6488"/>
</g>
<!-- Node15&#45;&gt;Node7 -->
<g id="edge32" class="edge"><title>Node15&#45;&gt;Node7</title>
<path fill="none" stroke="midnightblue" d="M833.157,-224.21C844.116,-201.986 876.002,-143.107 920,-112 943.555,-95.346 973.52,-84.6775 999.928,-77.9335"/>
<polygon fill="midnightblue" stroke="midnightblue" points="1000.96,-81.2861 1009.85,-75.5366 999.313,-74.4817 1000.96,-81.2861"/>
</g>
<!-- Node16 -->
<g id="node16" class="node"><title>Node16</title>
<g id="a_node16"><a xlink:href="../../dc/d3e/MathUtils_8h.html" target="_top" xlink:title="ITStracking/MathUtils.h">
<polygon fill="none" stroke="black" points="612,-168.5 612,-187.5 732,-187.5 732,-168.5 612,-168.5"/>
<text text-anchor="middle" x="672" y="-175.5" font-family="Helvetica,sans-Serif" font-size="10.00">ITStracking/MathUtils.h</text>
</a>
</g>
</g>
<!-- Node15&#45;&gt;Node16 -->
<g id="edge33" class="edge"><title>Node15&#45;&gt;Node16</title>
<path fill="none" stroke="midnightblue" d="M804.123,-224.444C777.711,-215.359 735.785,-200.939 706.258,-190.783"/>
<polygon fill="midnightblue" stroke="midnightblue" points="707.355,-187.459 696.761,-187.516 705.079,-194.079 707.355,-187.459"/>
</g>
<!-- Node18 -->
<g id="node18" class="node"><title>Node18</title>
<g id="a_node18"><a xlink:href="../../d2/d0c/IndexTableUtils_8h.html" target="_top" xlink:title="ITStracking/IndexTableUtils.h">
<polygon fill="none" stroke="black" points="448,-168.5 448,-187.5 594,-187.5 594,-168.5 448,-168.5"/>
<text text-anchor="middle" x="521" y="-175.5" font-family="Helvetica,sans-Serif" font-size="10.00">ITStracking/IndexTableUtils.h</text>
</a>
</g>
</g>
<!-- Node15&#45;&gt;Node18 -->
<g id="edge37" class="edge"><title>Node15&#45;&gt;Node18</title>
<path fill="none" stroke="midnightblue" d="M780.196,-224.444C725.791,-214.905 637.831,-199.483 579.708,-189.293"/>
<polygon fill="midnightblue" stroke="midnightblue" points="580.029,-185.796 569.575,-187.516 578.821,-192.691 580.029,-185.796"/>
</g>
<!-- Node16&#45;&gt;Node2 -->
<g id="edge34" class="edge"><title>Node16&#45;&gt;Node2</title>
<path fill="none" stroke="midnightblue" d="M670.279,-168.35C667.363,-155.24 660.511,-129.966 648,-112 621.947,-74.5876 578.84,-42.5397 552.568,-25.088"/>
<polygon fill="midnightblue" stroke="midnightblue" points="554.324,-22.0552 544.032,-19.539 550.509,-27.924 554.324,-22.0552"/>
</g>
<!-- Node16&#45;&gt;Node6 -->
<g id="edge36" class="edge"><title>Node16&#45;&gt;Node6</title>
<path fill="none" stroke="midnightblue" d="M614.006,-168.444C548.686,-158.806 442.663,-143.163 373.63,-132.978"/>
<polygon fill="midnightblue" stroke="midnightblue" points="374.126,-129.514 363.722,-131.516 373.104,-136.439 374.126,-129.514"/>
</g>
<!-- Node17 -->
<g id="node17" class="node"><title>Node17</title>
<polygon fill="none" stroke="#bfbfbf" points="596,-112.5 596,-131.5 640,-131.5 640,-112.5 596,-112.5"/>
<text text-anchor="middle" x="618" y="-119.5" font-family="Helvetica,sans-Serif" font-size="10.00">cmath</text>
</g>
<!-- Node16&#45;&gt;Node17 -->
<g id="edge35" class="edge"><title>Node16&#45;&gt;Node17</title>
<path fill="none" stroke="midnightblue" d="M663.083,-168.083C655.22,-160.22 643.569,-148.569 634.081,-139.081"/>
<polygon fill="midnightblue" stroke="midnightblue" points="636.297,-136.347 626.751,-131.751 631.347,-141.297 636.297,-136.347"/>
</g>
<!-- Node18&#45;&gt;Node2 -->
<g id="edge38" class="edge"><title>Node18&#45;&gt;Node2</title>
<path fill="none" stroke="midnightblue" d="M521.484,-168.075C522.901,-141.945 527.061,-65.2106 528.993,-29.577"/>
<polygon fill="midnightblue" stroke="midnightblue" points="532.489,-29.743 529.535,-19.5681 525.499,-29.3639 532.489,-29.743"/>
</g>
<!-- Node18&#45;&gt;Node5 -->
<g id="edge40" class="edge"><title>Node18&#45;&gt;Node5</title>
<path fill="none" stroke="midnightblue" d="M503.772,-168.494C488.987,-160.565 467.787,-147.632 453,-132 439.972,-118.227 429.509,-99.1979 422.887,-85.2883"/>
<polygon fill="midnightblue" stroke="midnightblue" points="425.911,-83.482 418.592,-75.8213 419.536,-86.374 425.911,-83.482"/>
</g>
<!-- Node18&#45;&gt;Node6 -->
<g id="edge41" class="edge"><title>Node18&#45;&gt;Node6</title>
<path fill="none" stroke="midnightblue" d="M486.933,-168.444C449.82,-159.122 390.339,-144.183 349.785,-133.997"/>
<polygon fill="midnightblue" stroke="midnightblue" points="350.459,-130.558 339.908,-131.516 348.754,-137.347 350.459,-130.558"/>
</g>
<!-- Node18&#45;&gt;Node7 -->
<g id="edge42" class="edge"><title>Node18&#45;&gt;Node7</title>
<path fill="none" stroke="midnightblue" d="M526.695,-168.381C536.846,-153.838 559.594,-124.769 587,-112 656.75,-79.5021 875.14,-70.4732 990.283,-67.9648"/>
<polygon fill="midnightblue" stroke="midnightblue" points="990.494,-71.4613 1000.42,-67.7551 990.349,-64.4628 990.494,-71.4613"/>
</g>
<!-- Node19 -->
<g id="node19" class="node"><title>Node19</title>
<polygon fill="none" stroke="#bfbfbf" points="462,-112.5 462,-131.5 502,-131.5 502,-112.5 462,-112.5"/>
<text text-anchor="middle" x="482" y="-119.5" font-family="Helvetica,sans-Serif" font-size="10.00">utility</text>
</g>
<!-- Node18&#45;&gt;Node19 -->
<g id="edge39" class="edge"><title>Node18&#45;&gt;Node19</title>
<path fill="none" stroke="midnightblue" d="M514.56,-168.083C509.051,-160.455 500.969,-149.264 494.235,-139.941"/>
<polygon fill="midnightblue" stroke="midnightblue" points="497.013,-137.809 488.32,-131.751 491.338,-141.907 497.013,-137.809"/>
</g>
<!-- Node20&#45;&gt;Node3 -->
<g id="edge47" class="edge"><title>Node20&#45;&gt;Node3</title>
<path fill="none" stroke="midnightblue" d="M915.729,-342.47C891.998,-332.449 851.545,-315.251 817,-300 797.349,-291.324 793.543,-286.277 773,-280 590.31,-224.175 366.368,-196.855 250.234,-185.601"/>
<polygon fill="midnightblue" stroke="midnightblue" points="250.305,-182.092 240.018,-184.625 249.64,-189.06 250.305,-182.092"/>
</g>
<!-- Node20&#45;&gt;Node6 -->
<g id="edge49" class="edge"><title>Node20&#45;&gt;Node6</title>
<path fill="none" stroke="midnightblue" d="M923.2,-342.393C900.889,-327.729 853.041,-297.766 809,-280 718.224,-243.381 691.049,-247.386 596,-224 526.484,-206.896 506.491,-211.873 439,-188 399.079,-173.879 355.451,-151.009 329.425,-136.502"/>
<polygon fill="midnightblue" stroke="midnightblue" points="331.103,-133.43 320.673,-131.567 327.665,-139.527 331.103,-133.43"/>
</g>
<!-- Node20&#45;&gt;Node7 -->
<g id="edge50" class="edge"><title>Node20&#45;&gt;Node7</title>
<path fill="none" stroke="midnightblue" d="M974.433,-342.472C1038.08,-325.813 1161.03,-282.035 1188,-188 1198.25,-152.254 1180.51,-137.018 1153,-112 1137.3,-97.7207 1116.23,-86.8592 1098.42,-79.3876"/>
<polygon fill="midnightblue" stroke="midnightblue" points="1099.5,-76.0514 1088.92,-75.5854 1096.9,-82.5503 1099.5,-76.0514"/>
</g>
<!-- Node20&#45;&gt;Node12 -->
<g id="edge46" class="edge"><title>Node20&#45;&gt;Node12</title>
<path fill="none" stroke="midnightblue" d="M934.019,-342.324C929.007,-321.247 914.66,-265.998 893,-224 876.402,-191.818 850.305,-158.545 834.224,-139.364"/>
<polygon fill="midnightblue" stroke="midnightblue" points="836.758,-136.942 827.61,-131.597 831.428,-141.48 836.758,-136.942"/>
</g>
<!-- Node20&#45;&gt;Node14 -->
<g id="edge51" class="edge"><title>Node20&#45;&gt;Node14</title>
<path fill="none" stroke="midnightblue" d="M903.333,-342.403C863.123,-331.822 794.742,-313.827 750.485,-302.18"/>
<polygon fill="midnightblue" stroke="midnightblue" points="751.168,-298.741 740.606,-299.581 749.386,-305.51 751.168,-298.741"/>
</g>
<!-- Node20&#45;&gt;Node15 -->
<g id="edge48" class="edge"><title>Node20&#45;&gt;Node15</title>
<path fill="none" stroke="midnightblue" d="M927.958,-342.281C910.055,-322.872 866.691,-275.861 843.769,-251.011"/>
<polygon fill="midnightblue" stroke="midnightblue" points="846.198,-248.482 836.845,-243.505 841.052,-253.228 846.198,-248.482"/>
</g>
<!-- Node21 -->
<g id="node21" class="node"><title>Node21</title>
<g id="a_node21"><a xlink:href="../../df/dd0/Array_8h.html" target="_top" xlink:title="ITStrackingCUDA/Array.h">
<polygon fill="none" stroke="black" points="1211.5,-224.5 1211.5,-243.5 1342.5,-243.5 1342.5,-224.5 1211.5,-224.5"/>
<text text-anchor="middle" x="1277" y="-231.5" font-family="Helvetica,sans-Serif" font-size="10.00">ITStrackingCUDA/Array.h</text>
</a>
</g>
</g>
<!-- Node20&#45;&gt;Node21 -->
<g id="edge52" class="edge"><title>Node20&#45;&gt;Node21</title>
<path fill="none" stroke="midnightblue" d="M1024.23,-344.547C1076.44,-338.142 1142.74,-325.388 1197,-300 1222.44,-288.098 1246.75,-266.36 1261.76,-251.32"/>
<polygon fill="midnightblue" stroke="midnightblue" points="1264.64,-253.375 1269.09,-243.758 1259.62,-248.503 1264.64,-253.375"/>
</g>
<!-- Node20&#45;&gt;Node22 -->
<g id="edge54" class="edge"><title>Node20&#45;&gt;Node22</title>
<path fill="none" stroke="midnightblue" d="M992.459,-342.467C1064.78,-331.537 1189.92,-312.624 1266.7,-301.021"/>
<polygon fill="midnightblue" stroke="midnightblue" points="1267.37,-304.459 1276.74,-299.503 1266.33,-297.537 1267.37,-304.459"/>
</g>
<!-- Node25 -->
<g id="node25" class="node"><title>Node25</title>
<g id="a_node25"><a xlink:href="../../d6/dbe/Vector_8h.html" target="_top" xlink:title="ITStrackingCUDA/Vector.h">
<polygon fill="none" stroke="black" points="1008,-224.5 1008,-243.5 1144,-243.5 1144,-224.5 1008,-224.5"/>
<text text-anchor="middle" x="1076" y="-231.5" font-family="Helvetica,sans-Serif" font-size="10.00">ITStrackingCUDA/Vector.h</text>
</a>
</g>
</g>
<!-- Node20&#45;&gt;Node25 -->
<g id="edge59" class="edge"><title>Node20&#45;&gt;Node25</title>
<path fill="none" stroke="midnightblue" d="M946.523,-342.281C970.253,-322.619 1028.17,-274.63 1057.84,-250.05"/>
<polygon fill="midnightblue" stroke="midnightblue" points="1060.27,-252.58 1065.74,-243.505 1055.8,-247.19 1060.27,-252.58"/>
</g>
<!-- Node21&#45;&gt;Node7 -->
<g id="edge53" class="edge"><title>Node21&#45;&gt;Node7</title>
<path fill="none" stroke="midnightblue" d="M1277.39,-224.222C1277.88,-202.025 1275.92,-143.205 1244,-112 1228.27,-96.6171 1178.22,-84.8841 1134.73,-77.2614"/>
<polygon fill="midnightblue" stroke="midnightblue" points="1135.15,-73.7829 1124.71,-75.5551 1133.98,-80.6836 1135.15,-73.7829"/>
</g>
<!-- Node23 -->
<g id="node23" class="node"><title>Node23</title>
<g id="a_node23"><a xlink:href="../../d8/def/Detectors_2ITSMFT_2ITS_2tracking_2cuda_2include_2ITStrackingCUDA_2Utils_8h.html" target="_top" xlink:title="ITStrackingCUDA/Utils.h">
<polygon fill="none" stroke="black" points="1334,-168.5 1334,-187.5 1462,-187.5 1462,-168.5 1334,-168.5"/>
<text text-anchor="middle" x="1398" y="-175.5" font-family="Helvetica,sans-Serif" font-size="10.00">ITStrackingCUDA/Utils.h</text>
</a>
</g>
</g>
<!-- Node22&#45;&gt;Node23 -->
<g id="edge55" class="edge"><title>Node22&#45;&gt;Node23</title>
<path fill="none" stroke="midnightblue" d="M1338.1,-280.368C1348.78,-262.296 1373.67,-220.176 1387.77,-196.307"/>
<polygon fill="midnightblue" stroke="midnightblue" points="1390.85,-197.981 1392.92,-187.591 1384.82,-194.42 1390.85,-197.981"/>
</g>
<!-- Node23&#45;&gt;Node8 -->
<g id="edge56" class="edge"><title>Node23&#45;&gt;Node8</title>
<path fill="none" stroke="midnightblue" d="M1411.71,-168.427C1429.08,-156.416 1455.46,-133.619 1444,-112 1420.05,-66.8257 1365.85,-38.1387 1329.85,-23.3171"/>
<polygon fill="midnightblue" stroke="midnightblue" points="1330.8,-19.9311 1320.22,-19.5021 1328.23,-26.439 1330.8,-19.9311"/>
</g>
<!-- Node24 -->
<g id="node24" class="node"><title>Node24</title>
<g id="a_node24"><a xlink:href="../../de/dd1/Stream_8h.html" target="_top" xlink:title="ITStrackingCUDA/Stream.h">
<polygon fill="none" stroke="black" points="1296.5,-112.5 1296.5,-131.5 1435.5,-131.5 1435.5,-112.5 1296.5,-112.5"/>
<text text-anchor="middle" x="1366" y="-119.5" font-family="Helvetica,sans-Serif" font-size="10.00">ITStrackingCUDA/Stream.h</text>
</a>
</g>
</g>
<!-- Node23&#45;&gt;Node24 -->
<g id="edge57" class="edge"><title>Node23&#45;&gt;Node24</title>
<path fill="none" stroke="midnightblue" d="M1392.72,-168.083C1388.29,-160.613 1381.84,-149.724 1376.38,-140.52"/>
<polygon fill="midnightblue" stroke="midnightblue" points="1379.29,-138.57 1371.19,-131.751 1373.27,-142.138 1379.29,-138.57"/>
</g>
<!-- Node24&#45;&gt;Node7 -->
<g id="edge58" class="edge"><title>Node24&#45;&gt;Node7</title>
<path fill="none" stroke="midnightblue" d="M1317.99,-112.444C1264.47,-102.905 1177.93,-87.4834 1120.76,-77.293"/>
<polygon fill="midnightblue" stroke="midnightblue" points="1121.25,-73.8253 1110.79,-75.5164 1120.02,-80.7168 1121.25,-73.8253"/>
</g>
<!-- Node25&#45;&gt;Node5 -->
<g id="edge63" class="edge"><title>Node25&#45;&gt;Node5</title>
<path fill="none" stroke="midnightblue" d="M1048.67,-224.401C981.161,-203.351 800.887,-148.306 648,-112 576.936,-95.1244 492.554,-80.0407 447.382,-72.3604"/>
<polygon fill="midnightblue" stroke="midnightblue" points="447.744,-68.8721 437.301,-70.6589 446.579,-75.7745 447.744,-68.8721"/>
</g>
<!-- Node25&#45;&gt;Node7 -->
<g id="edge64" class="edge"><title>Node25&#45;&gt;Node7</title>
<path fill="none" stroke="midnightblue" d="M1113.33,-224.439C1145.43,-214.96 1184.69,-197.052 1172,-168 1154.82,-128.663 1113.93,-97.795 1087.41,-81.0041"/>
<polygon fill="midnightblue" stroke="midnightblue" points="1089.04,-77.9011 1078.68,-75.6611 1085.38,-83.8699 1089.04,-77.9011"/>
</g>
<!-- Node25&#45;&gt;Node23 -->
<g id="edge66" class="edge"><title>Node25&#45;&gt;Node23</title>
<path fill="none" stroke="midnightblue" d="M1127.02,-224.444C1184.02,-214.885 1276.24,-199.419 1337,-189.23"/>
<polygon fill="midnightblue" stroke="midnightblue" points="1337.93,-192.622 1347.22,-187.516 1336.78,-185.719 1337.93,-192.622"/>
</g>
<!-- Node25&#45;&gt;Node24 -->
<g id="edge65" class="edge"><title>Node25&#45;&gt;Node24</title>
<path fill="none" stroke="midnightblue" d="M1102.04,-224.434C1128.39,-215.663 1170.23,-201.446 1206,-188 1252.04,-170.695 1304.77,-148.88 1336.71,-135.439"/>
<polygon fill="midnightblue" stroke="midnightblue" points="1338.07,-138.663 1345.93,-131.551 1335.35,-132.213 1338.07,-138.663"/>
</g>
<!-- Node26 -->
<g id="node26" class="node"><title>Node26</title>
<polygon fill="none" stroke="#bfbfbf" points="978,-168.5 978,-187.5 1030,-187.5 1030,-168.5 978,-168.5"/>
<text text-anchor="middle" x="1004" y="-175.5" font-family="Helvetica,sans-Serif" font-size="10.00">assert.h</text>
</g>
<!-- Node25&#45;&gt;Node26 -->
<g id="edge60" class="edge"><title>Node25&#45;&gt;Node26</title>
<path fill="none" stroke="midnightblue" d="M1064.43,-224.324C1053.58,-216.185 1037.12,-203.839 1024.12,-194.087"/>
<polygon fill="midnightblue" stroke="midnightblue" points="1025.88,-191.034 1015.78,-187.834 1021.68,-196.634 1025.88,-191.034"/>
</g>
<!-- Node27 -->
<g id="node27" class="node"><title>Node27</title>
<polygon fill="none" stroke="#bfbfbf" points="1048.5,-168.5 1048.5,-187.5 1083.5,-187.5 1083.5,-168.5 1048.5,-168.5"/>
<text text-anchor="middle" x="1066" y="-175.5" font-family="Helvetica,sans-Serif" font-size="10.00">new</text>
</g>
<!-- Node25&#45;&gt;Node27 -->
<g id="edge61" class="edge"><title>Node25&#45;&gt;Node27</title>
<path fill="none" stroke="midnightblue" d="M1074.35,-224.083C1073.02,-216.927 1071.12,-206.635 1069.46,-197.691"/>
<polygon fill="midnightblue" stroke="midnightblue" points="1072.88,-196.947 1067.62,-187.751 1066,-198.221 1072.88,-196.947"/>
</g>
<!-- Node28 -->
<g id="node28" class="node"><title>Node28</title>
<polygon fill="none" stroke="#bfbfbf" points="1102,-168.5 1102,-187.5 1164,-187.5 1164,-168.5 1102,-168.5"/>
<text text-anchor="middle" x="1133" y="-175.5" font-family="Helvetica,sans-Serif" font-size="10.00">type_traits</text>
</g>
<!-- Node25&#45;&gt;Node28 -->
<g id="edge62" class="edge"><title>Node25&#45;&gt;Node28</title>
<path fill="none" stroke="midnightblue" d="M1085.16,-224.324C1093.5,-216.42 1106.03,-204.548 1116.18,-194.938"/>
<polygon fill="midnightblue" stroke="midnightblue" points="1118.82,-197.252 1123.68,-187.834 1114.01,-192.171 1118.82,-197.252"/>
</g>
</g>
</svg>
        <g id="navigator" transform="translate(0 0)" fill="#404254">
                <rect fill="#f2f5e9" fill-opacity="0.5" stroke="#606060" stroke-width=".5" x="0" y="0" width="60" height="60"/>
                <use id="zoomplus" xlink:href="#zoomPlus" x="17" y="9" onmousedown="handleZoom(evt,'in')"/>
                <use id="zoomminus" xlink:href="#zoomMin" x="42" y="9" onmousedown="handleZoom(evt,'out')"/>
                <use id="reset" xlink:href="#resetDef" x="30" y="36" onmousedown="handleReset()"/>
                <g id="arrowUp" xlink:href="#dirArrow" transform="translate(30 24)" onmousedown="handlePan(0,-1)">
                  <use xlink:href="#rim" fill="#404040">
                        <set attributeName="fill" to="#808080" begin="arrowUp.mouseover" end="arrowUp.mouseout"/>
                  </use>
                  <path fill="none" stroke="white" stroke-width="1.5" d="M0,-3.0v7 M-2.5,-0.5L0,-3.0L2.5,-0.5"/>
                </g>
                <g id="arrowRight" xlink:href="#dirArrow" transform="rotate(90) translate(36 -43)" onmousedown="handlePan(1,0)">
                  <use xlink:href="#rim" fill="#404040">
                        <set attributeName="fill" to="#808080" begin="arrowRight.mouseover" end="arrowRight.mouseout"/>
                  </use>
                  <path fill="none" stroke="white" stroke-width="1.5" d="M0,-3.0v7 M-2.5,-0.5L0,-3.0L2.5,-0.5"/>
                </g>
                <g id="arrowDown" xlink:href="#dirArrow" transform="rotate(180) translate(-30 -48)" onmousedown="handlePan(0,1)">
                  <use xlink:href="#rim" fill="#404040">
                        <set attributeName="fill" to="#808080" begin="arrowDown.mouseover" end="arrowDown.mouseout"/>
                  </use>
                  <path fill="none" stroke="white" stroke-width="1.5" d="M0,-3.0v7 M-2.5,-0.5L0,-3.0L2.5,-0.5"/>
                </g>
                <g id="arrowLeft" xlink:href="#dirArrow" transform="rotate(270) translate(-36 17)" onmousedown="handlePan(-1,0)">
                  <use xlink:href="#rim" fill="#404040">
                        <set attributeName="fill" to="#808080" begin="arrowLeft.mouseover" end="arrowLeft.mouseout"/>
                  </use>
                  <path fill="none" stroke="white" stroke-width="1.5" d="M0,-3.0v7 M-2.5,-0.5L0,-3.0L2.5,-0.5"/>
                </g>
        </g>
        <svg viewBox="0 0 15 15" width="100%" height="30px" preserveAspectRatio="xMaxYMin meet">
         <g id="arrow_out" transform="scale(0.3 0.3)">
          <a xlink:href="PrimaryVertexContextNV_8h__incl_org.svg" target="_base">
           <rect id="button" ry="5" rx="5" y="6" x="6" height="38" width="38"
                fill="#f2f5e9" fill-opacity="0.5" stroke="#606060" stroke-width="1.0"/>
           <path id="arrow"
             d="M 11.500037,31.436501 C 11.940474,20.09759 22.043105,11.32322 32.158766,21.979434 L 37.068811,17.246167 C 37.068811,17.246167 37.088388,32 37.088388,32 L 22.160133,31.978069 C 22.160133,31.978069 26.997745,27.140456 26.997745,27.140456 C 18.528582,18.264221 13.291696,25.230495 11.500037,31.436501 z"
             style="fill:#404040;"/>
          </a>
         </g>
        </svg>
</svg>
