<?xml version="1.0" encoding="UTF-8" standalone="no"?>
<!DOCTYPE svg PUBLIC "-//W3C//DTD SVG 1.1//EN"
 "http://www.w3.org/Graphics/SVG/1.1/DTD/svg11.dtd">
<!-- Generated by graphviz version 2.36.0 (20140111.2315)
 -->
<!-- Title: /home/travis/build/AliceO2Group/AliceO2/Detectors/MUON/MCH/Mapping/Interface/include/MCHMappingInterface/CathodeSegmentation.h Pages: 1 -->
<!--zoomable 362 -->
<svg id="main" version="1.1" xmlns="http://www.w3.org/2000/svg" xmlns:xlink="http://www.w3.org/1999/xlink" xml:space="preserve" onload="init(evt)">
<style type="text/css"><![CDATA[
.edge:hover path { stroke: red; }
.edge:hover polygon { stroke: red; fill: red; }
]]></style>
<script type="text/javascript"><![CDATA[
var edges = document.getElementsByTagName('g');
if (edges && edges.length) {
  for (var i=0;i<edges.length;i++) {
    if (edges[i].id.substr(0,4)=='edge') {
      edges[i].setAttribute('class','edge');
    }
  }
}
]]></script>
        <defs>
                <circle id="rim" cx="0" cy="0" r="7"/>
                <circle id="rim2" cx="0" cy="0" r="3.5"/>
                <g id="zoomPlus">
                        <use xlink:href="#rim" fill="#404040">
                                <set attributeName="fill" to="#808080" begin="zoomplus.mouseover" end="zoomplus.mouseout"/>
                        </use>
                        <path d="M-4,0h8M0,-4v8" fill="none" stroke="white" stroke-width="1.5" pointer-events="none"/>
                </g>
                <g id="zoomMin">
                        <use xlink:href="#rim" fill="#404040">
                                <set attributeName="fill" to="#808080" begin="zoomminus.mouseover" end="zoomminus.mouseout"/>
                        </use>
                        <path d="M-4,0h8" fill="none" stroke="white" stroke-width="1.5" pointer-events="none"/>
                </g>
                <g id="dirArrow">
                        <path fill="none" stroke="white" stroke-width="1.5" d="M0,-3.0v7 M-2.5,-0.5L0,-3.0L2.5,-0.5"/>
                </g>
               <g id="resetDef">
                       <use xlink:href="#rim2" fill="#404040">
                               <set attributeName="fill" to="#808080" begin="reset.mouseover" end="reset.mouseout"/>
                       </use>
               </g>
        </defs>

<script type="text/javascript">
var viewWidth = 1958;
var viewHeight = 362;
var sectionId = 'dynsection-1';
</script>
<script xlink:href="../../svgpan.js"/>
<svg id="graph" class="graph">
<g id="viewport">
<title>/home/travis/build/AliceO2Group/AliceO2/Detectors/MUON/MCH/Mapping/Interface/include/MCHMappingInterface/CathodeSegmentation.h</title>
<!-- Node1 -->
<g id="node1" class="node"><title>Node1</title>
<polygon fill="#bfbfbf" stroke="black" points="856.5,-290.5 856.5,-353.5 1049.5,-353.5 1049.5,-290.5 856.5,-290.5"/>
<text text-anchor="start" x="864.5" y="-341.5" font-family="Helvetica,sans-Serif" font-size="10.00">/home/travis/build</text>
<text text-anchor="start" x="864.5" y="-330.5" font-family="Helvetica,sans-Serif" font-size="10.00">/AliceO2Group/AliceO2</text>
<text text-anchor="start" x="864.5" y="-319.5" font-family="Helvetica,sans-Serif" font-size="10.00">/Detectors/MUON/MCH/Mapping</text>
<text text-anchor="start" x="864.5" y="-308.5" font-family="Helvetica,sans-Serif" font-size="10.00">/Interface/include/MCHMappingInterface</text>
<text text-anchor="middle" x="953" y="-297.5" font-family="Helvetica,sans-Serif" font-size="10.00">/CathodeSegmentation.h</text>
</g>
<!-- Node2 -->
<g id="node2" class="node"><title>Node2</title>
<g id="a_node2"><a xlink:href="../../d7/d47/CathodeSegmentationImpl3_8cxx.html" target="_top" xlink:title="/home/travis/build\l/AliceO2Group/AliceO2\l/Detectors/MUON/MCH/Mapping\l/Impl3/src/CathodeSegmentationImpl3.cxx">
<polygon fill="none" stroke="black" points="379.5,-196 379.5,-248 582.5,-248 582.5,-196 379.5,-196"/>
<text text-anchor="start" x="387.5" y="-236" font-family="Helvetica,sans-Serif" font-size="10.00">/home/travis/build</text>
<text text-anchor="start" x="387.5" y="-225" font-family="Helvetica,sans-Serif" font-size="10.00">/AliceO2Group/AliceO2</text>
<text text-anchor="start" x="387.5" y="-214" font-family="Helvetica,sans-Serif" font-size="10.00">/Detectors/MUON/MCH/Mapping</text>
<text text-anchor="middle" x="481" y="-203" font-family="Helvetica,sans-Serif" font-size="10.00">/Impl3/src/CathodeSegmentationImpl3.cxx</text>
</a>
</g>
</g>
<!-- Node1&#45;&gt;Node2 -->
<g id="edge1" class="edge"><title>Node1&#45;&gt;Node2</title>
<path fill="none" stroke="midnightblue" d="M845.988,-303.023C775.077,-290.579 680.146,-272.906 597,-254 588.869,-252.151 580.447,-250.123 572.024,-248.017"/>
<polygon fill="midnightblue" stroke="midnightblue" points="845.818,-306.546 856.271,-304.82 847.023,-299.65 845.818,-306.546"/>
</g>
<!-- Node3 -->
<g id="node3" class="node"><title>Node3</title>
<g id="a_node3"><a xlink:href="../../d6/d1f/MUON_2MCH_2Mapping_2Interface_2include_2MCHMappingInterface_2Segmentation_8h.html" target="_top" xlink:title="/home/travis/build\l/AliceO2Group/AliceO2\l/Detectors/MUON/MCH/Mapping\l/Interface/include/MCHMappingInterface\l/Segmentation.h">
<polygon fill="none" stroke="black" points="1525.5,-190.5 1525.5,-253.5 1718.5,-253.5 1718.5,-190.5 1525.5,-190.5"/>
<text text-anchor="start" x="1533.5" y="-241.5" font-family="Helvetica,sans-Serif" font-size="10.00">/home/travis/build</text>
<text text-anchor="start" x="1533.5" y="-230.5" font-family="Helvetica,sans-Serif" font-size="10.00">/AliceO2Group/AliceO2</text>
<text text-anchor="start" x="1533.5" y="-219.5" font-family="Helvetica,sans-Serif" font-size="10.00">/Detectors/MUON/MCH/Mapping</text>
<text text-anchor="start" x="1533.5" y="-208.5" font-family="Helvetica,sans-Serif" font-size="10.00">/Interface/include/MCHMappingInterface</text>
<text text-anchor="middle" x="1622" y="-197.5" font-family="Helvetica,sans-Serif" font-size="10.00">/Segmentation.h</text>
</a>
</g>
</g>
<!-- Node1&#45;&gt;Node3 -->
<g id="edge2" class="edge"><title>Node1&#45;&gt;Node3</title>
<path fill="none" stroke="midnightblue" d="M1059.8,-305.354C1188.21,-286.545 1401.82,-255.254 1525.47,-237.141"/>
<polygon fill="midnightblue" stroke="midnightblue" points="1058.95,-301.942 1049.56,-306.855 1059.97,-308.868 1058.95,-301.942"/>
</g>
<!-- Node8 -->
<g id="node8" class="node"><title>Node8</title>
<g id="a_node8"><a xlink:href="../../d2/d32/CathodeSegmentationContours_8h.html" target="_top" xlink:title="/home/travis/build\l/AliceO2Group/AliceO2\l/Detectors/MUON/MCH/Mapping\l/SegContour/include/MCHMappingSegContour\l/CathodeSegmentationContours.h">
<polygon fill="none" stroke="black" points="677,-190.5 677,-253.5 897,-253.5 897,-190.5 677,-190.5"/>
<text text-anchor="start" x="685" y="-241.5" font-family="Helvetica,sans-Serif" font-size="10.00">/home/travis/build</text>
<text text-anchor="start" x="685" y="-230.5" font-family="Helvetica,sans-Serif" font-size="10.00">/AliceO2Group/AliceO2</text>
<text text-anchor="start" x="685" y="-219.5" font-family="Helvetica,sans-Serif" font-size="10.00">/Detectors/MUON/MCH/Mapping</text>
<text text-anchor="start" x="685" y="-208.5" font-family="Helvetica,sans-Serif" font-size="10.00">/SegContour/include/MCHMappingSegContour</text>
<text text-anchor="middle" x="787" y="-197.5" font-family="Helvetica,sans-Serif" font-size="10.00">/CathodeSegmentationContours.h</text>
</a>
</g>
</g>
<!-- Node1&#45;&gt;Node8 -->
<g id="edge8" class="edge"><title>Node1&#45;&gt;Node8</title>
<path fill="none" stroke="midnightblue" d="M891.962,-284.966C874.532,-274.676 855.71,-263.564 838.883,-253.63"/>
<polygon fill="midnightblue" stroke="midnightblue" points="890.541,-288.191 900.932,-290.261 894.1,-282.163 890.541,-288.191"/>
</g>
<!-- Node10 -->
<g id="node10" class="node"><title>Node10</title>
<g id="a_node10"><a xlink:href="../../de/d54/CathodeSegmentationSVGWriter_8cxx.html" target="_top" xlink:title="/home/travis/build\l/AliceO2Group/AliceO2\l/Detectors/MUON/MCH/Mapping\l/SegContour/src/CathodeSegmentation\lSVGWriter.cxx">
<polygon fill="none" stroke="black" points="0,-90.5 0,-153.5 188,-153.5 188,-90.5 0,-90.5"/>
<text text-anchor="start" x="8" y="-141.5" font-family="Helvetica,sans-Serif" font-size="10.00">/home/travis/build</text>
<text text-anchor="start" x="8" y="-130.5" font-family="Helvetica,sans-Serif" font-size="10.00">/AliceO2Group/AliceO2</text>
<text text-anchor="start" x="8" y="-119.5" font-family="Helvetica,sans-Serif" font-size="10.00">/Detectors/MUON/MCH/Mapping</text>
<text text-anchor="start" x="8" y="-108.5" font-family="Helvetica,sans-Serif" font-size="10.00">/SegContour/src/CathodeSegmentation</text>
<text text-anchor="middle" x="94" y="-97.5" font-family="Helvetica,sans-Serif" font-size="10.00">SVGWriter.cxx</text>
</a>
</g>
</g>
<!-- Node1&#45;&gt;Node10 -->
<g id="edge17" class="edge"><title>Node1&#45;&gt;Node10</title>
<path fill="none" stroke="midnightblue" d="M846.037,-309.107C764.134,-298.2 659.52,-279.808 625,-254 599.203,-234.714 617.821,-207.834 591,-190 517.787,-141.319 283.309,-170.754 197,-154 194.067,-153.431 191.098,-152.811 188.109,-152.151"/>
<polygon fill="midnightblue" stroke="midnightblue" points="845.791,-312.605 856.16,-310.433 846.7,-305.664 845.791,-312.605"/>
</g>
<!-- Node11 -->
<g id="node11" class="node"><title>Node11</title>
<g id="a_node11"><a xlink:href="../../de/d56/SegmentationSVGWriter_8cxx.html" target="_top" xlink:title="/home/travis/build\l/AliceO2Group/AliceO2\l/Detectors/MUON/MCH/Mapping\l/SegContour/src/SegmentationSVGWriter.cxx">
<polygon fill="none" stroke="black" points="206.5,-96 206.5,-148 423.5,-148 423.5,-96 206.5,-96"/>
<text text-anchor="start" x="214.5" y="-136" font-family="Helvetica,sans-Serif" font-size="10.00">/home/travis/build</text>
<text text-anchor="start" x="214.5" y="-125" font-family="Helvetica,sans-Serif" font-size="10.00">/AliceO2Group/AliceO2</text>
<text text-anchor="start" x="214.5" y="-114" font-family="Helvetica,sans-Serif" font-size="10.00">/Detectors/MUON/MCH/Mapping</text>
<text text-anchor="middle" x="315" y="-103" font-family="Helvetica,sans-Serif" font-size="10.00">/SegContour/src/SegmentationSVGWriter.cxx</text>
</a>
</g>
</g>
<!-- Node1&#45;&gt;Node11 -->
<g id="edge18" class="edge"><title>Node1&#45;&gt;Node11</title>
<path fill="none" stroke="midnightblue" d="M846.212,-314.667C789.164,-306.895 720.155,-290.069 668,-254 639.815,-234.508 653.621,-208.845 625,-190 552.486,-142.255 517.706,-173.042 433,-154 424.837,-152.165 416.384,-150.158 407.924,-148.076"/>
<polygon fill="midnightblue" stroke="midnightblue" points="845.987,-318.167 856.352,-315.971 846.88,-311.224 845.987,-318.167"/>
</g>
<!-- Node12 -->
<g id="node12" class="node"><title>Node12</title>
<g id="a_node12"><a xlink:href="../../d2/d0f/SVGSegmentation_8cxx.html" target="_top" xlink:title="/home/travis/build\l/AliceO2Group/AliceO2\l/Detectors/MUON/MCH/Mapping\l/SegContour/src/SVGSegmentation.cxx">
<polygon fill="none" stroke="black" points="686.5,-96 686.5,-148 877.5,-148 877.5,-96 686.5,-96"/>
<text text-anchor="start" x="694.5" y="-136" font-family="Helvetica,sans-Serif" font-size="10.00">/home/travis/build</text>
<text text-anchor="start" x="694.5" y="-125" font-family="Helvetica,sans-Serif" font-size="10.00">/AliceO2Group/AliceO2</text>
<text text-anchor="start" x="694.5" y="-114" font-family="Helvetica,sans-Serif" font-size="10.00">/Detectors/MUON/MCH/Mapping</text>
<text text-anchor="middle" x="782" y="-103" font-family="Helvetica,sans-Serif" font-size="10.00">/SegContour/src/SVGSegmentation.cxx</text>
</a>
</g>
</g>
<!-- Node1&#45;&gt;Node12 -->
<g id="edge19" class="edge"><title>Node1&#45;&gt;Node12</title>
<path fill="none" stroke="midnightblue" d="M946.353,-280.383C940.008,-252.338 928.021,-215.623 906,-190 890.769,-172.278 869.645,-158.454 849.145,-148.086"/>
<polygon fill="midnightblue" stroke="midnightblue" points="942.953,-281.225 948.443,-290.287 949.802,-279.779 942.953,-281.225"/>
</g>
<!-- Node13 -->
<g id="node13" class="node"><title>Node13</title>
<g id="a_node13"><a xlink:href="../../d8/df7/BenchCathodeSegmentation_8cxx.html" target="_top" xlink:title="/home/travis/build\l/AliceO2Group/AliceO2\l/Detectors/MUON/MCH/Mapping\l/test/src/BenchCathodeSegmentation.cxx">
<polygon fill="none" stroke="black" points="895.5,-96 895.5,-148 1094.5,-148 1094.5,-96 895.5,-96"/>
<text text-anchor="start" x="903.5" y="-136" font-family="Helvetica,sans-Serif" font-size="10.00">/home/travis/build</text>
<text text-anchor="start" x="903.5" y="-125" font-family="Helvetica,sans-Serif" font-size="10.00">/AliceO2Group/AliceO2</text>
<text text-anchor="start" x="903.5" y="-114" font-family="Helvetica,sans-Serif" font-size="10.00">/Detectors/MUON/MCH/Mapping</text>
<text text-anchor="middle" x="995" y="-103" font-family="Helvetica,sans-Serif" font-size="10.00">/test/src/BenchCathodeSegmentation.cxx</text>
</a>
</g>
</g>
<!-- Node1&#45;&gt;Node13 -->
<g id="edge20" class="edge"><title>Node1&#45;&gt;Node13</title>
<path fill="none" stroke="midnightblue" d="M961.568,-280.608C969.987,-240.92 982.571,-181.594 989.655,-148.196"/>
<polygon fill="midnightblue" stroke="midnightblue" points="958.122,-279.988 959.47,-290.496 964.969,-281.44 958.122,-279.988"/>
</g>
<!-- Node14 -->
<g id="node14" class="node"><title>Node14</title>
<g id="a_node14"><a xlink:href="../../df/dc1/CathodeSegmentation_8cxx.html" target="_top" xlink:title="/home/travis/build\l/AliceO2Group/AliceO2\l/Detectors/MUON/MCH/Mapping\l/test/src/CathodeSegmentation.cxx">
<polygon fill="none" stroke="black" points="1112.5,-96 1112.5,-148 1283.5,-148 1283.5,-96 1112.5,-96"/>
<text text-anchor="start" x="1120.5" y="-136" font-family="Helvetica,sans-Serif" font-size="10.00">/home/travis/build</text>
<text text-anchor="start" x="1120.5" y="-125" font-family="Helvetica,sans-Serif" font-size="10.00">/AliceO2Group/AliceO2</text>
<text text-anchor="start" x="1120.5" y="-114" font-family="Helvetica,sans-Serif" font-size="10.00">/Detectors/MUON/MCH/Mapping</text>
<text text-anchor="middle" x="1198" y="-103" font-family="Helvetica,sans-Serif" font-size="10.00">/test/src/CathodeSegmentation.cxx</text>
</a>
</g>
</g>
<!-- Node1&#45;&gt;Node14 -->
<g id="edge21" class="edge"><title>Node1&#45;&gt;Node14</title>
<path fill="none" stroke="midnightblue" d="M998.666,-284.094C1047.7,-244.469 1124.27,-182.587 1166.82,-148.196"/>
<polygon fill="midnightblue" stroke="midnightblue" points="996.322,-281.489 990.744,-290.496 1000.72,-286.933 996.322,-281.489"/>
</g>
<!-- Node15 -->
<g id="node15" class="node"><title>Node15</title>
<g id="a_node15"><a xlink:href="../../d2/dba/CathodeSegmentationLong_8cxx.html" target="_top" xlink:title="/home/travis/build\l/AliceO2Group/AliceO2\l/Detectors/MUON/MCH/Mapping\l/test/src/CathodeSegmentationLong.cxx">
<polygon fill="none" stroke="black" points="1302,-96 1302,-148 1494,-148 1494,-96 1302,-96"/>
<text text-anchor="start" x="1310" y="-136" font-family="Helvetica,sans-Serif" font-size="10.00">/home/travis/build</text>
<text text-anchor="start" x="1310" y="-125" font-family="Helvetica,sans-Serif" font-size="10.00">/AliceO2Group/AliceO2</text>
<text text-anchor="start" x="1310" y="-114" font-family="Helvetica,sans-Serif" font-size="10.00">/Detectors/MUON/MCH/Mapping</text>
<text text-anchor="middle" x="1398" y="-103" font-family="Helvetica,sans-Serif" font-size="10.00">/test/src/CathodeSegmentationLong.cxx</text>
</a>
</g>
</g>
<!-- Node1&#45;&gt;Node15 -->
<g id="edge22" class="edge"><title>Node1&#45;&gt;Node15</title>
<path fill="none" stroke="midnightblue" d="M1030.78,-286.391C1119.67,-246.841 1262.98,-183.076 1341.71,-148.045"/>
<polygon fill="midnightblue" stroke="midnightblue" points="1029.27,-283.233 1021.56,-290.496 1032.12,-289.629 1029.27,-283.233"/>
</g>
<!-- Node16 -->
<g id="node16" class="node"><title>Node16</title>
<g id="a_node16"><a xlink:href="../../dd/df0/testGeometry_8cxx.html" target="_top" xlink:title="/home/travis/build\l/AliceO2Group/AliceO2\l/Detectors/MUON/MCH/Simulation\l/test/testGeometry.cxx">
<polygon fill="none" stroke="black" points="1736.5,-196 1736.5,-248 1907.5,-248 1907.5,-196 1736.5,-196"/>
<text text-anchor="start" x="1744.5" y="-236" font-family="Helvetica,sans-Serif" font-size="10.00">/home/travis/build</text>
<text text-anchor="start" x="1744.5" y="-225" font-family="Helvetica,sans-Serif" font-size="10.00">/AliceO2Group/AliceO2</text>
<text text-anchor="start" x="1744.5" y="-214" font-family="Helvetica,sans-Serif" font-size="10.00">/Detectors/MUON/MCH/Simulation</text>
<text text-anchor="middle" x="1822" y="-203" font-family="Helvetica,sans-Serif" font-size="10.00">/test/testGeometry.cxx</text>
</a>
</g>
</g>
<!-- Node1&#45;&gt;Node16 -->
<g id="edge23" class="edge"><title>Node1&#45;&gt;Node16</title>
<path fill="none" stroke="midnightblue" d="M1059.79,-319.458C1210.11,-315.552 1492.02,-301.849 1727,-254 1734.91,-252.39 1743.07,-250.343 1751.15,-248.069"/>
<polygon fill="midnightblue" stroke="midnightblue" points="1059.55,-315.963 1049.64,-319.713 1059.72,-322.961 1059.55,-315.963"/>
</g>
<!-- Node4 -->
<g id="node4" class="node"><title>Node4</title>
<g id="a_node4"><a xlink:href="../../dd/d1c/SegmentationContours_8h.html" target="_top" xlink:title="/home/travis/build\l/AliceO2Group/AliceO2\l/Detectors/MUON/MCH/Mapping\l/SegContour/include/MCHMappingSegContour\l/SegmentationContours.h">
<polygon fill="none" stroke="black" points="1512,-90.5 1512,-153.5 1732,-153.5 1732,-90.5 1512,-90.5"/>
<text text-anchor="start" x="1520" y="-141.5" font-family="Helvetica,sans-Serif" font-size="10.00">/home/travis/build</text>
<text text-anchor="start" x="1520" y="-130.5" font-family="Helvetica,sans-Serif" font-size="10.00">/AliceO2Group/AliceO2</text>
<text text-anchor="start" x="1520" y="-119.5" font-family="Helvetica,sans-Serif" font-size="10.00">/Detectors/MUON/MCH/Mapping</text>
<text text-anchor="start" x="1520" y="-108.5" font-family="Helvetica,sans-Serif" font-size="10.00">/SegContour/include/MCHMappingSegContour</text>
<text text-anchor="middle" x="1622" y="-97.5" font-family="Helvetica,sans-Serif" font-size="10.00">/SegmentationContours.h</text>
</a>
</g>
</g>
<!-- Node3&#45;&gt;Node4 -->
<g id="edge3" class="edge"><title>Node3&#45;&gt;Node4</title>
<path fill="none" stroke="midnightblue" d="M1622,-180.099C1622,-171.238 1622,-162.015 1622,-153.63"/>
<polygon fill="midnightblue" stroke="midnightblue" points="1618.5,-180.261 1622,-190.261 1625.5,-180.261 1618.5,-180.261"/>
</g>
<!-- Node6 -->
<g id="node6" class="node"><title>Node6</title>
<g id="a_node6"><a xlink:href="../../d5/d2d/MUON_2MCH_2Mapping_2test_2src_2Segmentation_8cxx.html" target="_top" xlink:title="/home/travis/build\l/AliceO2Group/AliceO2\l/Detectors/MUON/MCH/Mapping\l/test/src/Segmentation.cxx">
<polygon fill="none" stroke="black" points="1610,-1 1610,-53 1772,-53 1772,-1 1610,-1"/>
<text text-anchor="start" x="1618" y="-41" font-family="Helvetica,sans-Serif" font-size="10.00">/home/travis/build</text>
<text text-anchor="start" x="1618" y="-30" font-family="Helvetica,sans-Serif" font-size="10.00">/AliceO2Group/AliceO2</text>
<text text-anchor="start" x="1618" y="-19" font-family="Helvetica,sans-Serif" font-size="10.00">/Detectors/MUON/MCH/Mapping</text>
<text text-anchor="middle" x="1691" y="-8" font-family="Helvetica,sans-Serif" font-size="10.00">/test/src/Segmentation.cxx</text>
</a>
</g>
</g>
<!-- Node3&#45;&gt;Node6 -->
<g id="edge7" class="edge"><title>Node3&#45;&gt;Node6</title>
<path fill="none" stroke="midnightblue" d="M1712.33,-184.551C1723.76,-176.194 1733.92,-166.106 1741,-154 1755.36,-129.444 1750.47,-116.822 1741,-90 1736.21,-76.4389 1727.06,-63.6638 1717.89,-53.2742"/>
<polygon fill="midnightblue" stroke="midnightblue" points="1710.11,-181.826 1703.8,-190.335 1714.04,-187.62 1710.11,-181.826"/>
</g>
<!-- Node7 -->
<g id="node7" class="node"><title>Node7</title>
<g id="a_node7"><a xlink:href="../../da/d72/BenchSegmentation_8cxx.html" target="_top" xlink:title="/home/travis/build\l/AliceO2Group/AliceO2\l/Detectors/MUON/MCH/Mapping\l/test/src/BenchSegmentation.cxx">
<polygon fill="none" stroke="black" points="1788,-96 1788,-148 1950,-148 1950,-96 1788,-96"/>
<text text-anchor="start" x="1796" y="-136" font-family="Helvetica,sans-Serif" font-size="10.00">/home/travis/build</text>
<text text-anchor="start" x="1796" y="-125" font-family="Helvetica,sans-Serif" font-size="10.00">/AliceO2Group/AliceO2</text>
<text text-anchor="start" x="1796" y="-114" font-family="Helvetica,sans-Serif" font-size="10.00">/Detectors/MUON/MCH/Mapping</text>
<text text-anchor="middle" x="1869" y="-103" font-family="Helvetica,sans-Serif" font-size="10.00">/test/src/BenchSegmentation.cxx</text>
</a>
</g>
</g>
<!-- Node3&#45;&gt;Node7 -->
<g id="edge6" class="edge"><title>Node3&#45;&gt;Node7</title>
<path fill="none" stroke="midnightblue" d="M1708.49,-186.682C1740.49,-173.989 1776.13,-159.847 1805.69,-148.121"/>
<polygon fill="midnightblue" stroke="midnightblue" points="1707.14,-183.454 1699.14,-190.395 1709.72,-189.961 1707.14,-183.454"/>
</g>
<!-- Node5 -->
<g id="node5" class="node"><title>Node5</title>
<g id="a_node5"><a xlink:href="../../de/de2/SegmentationContours_8cxx.html" target="_top" xlink:title="/home/travis/build\l/AliceO2Group/AliceO2\l/Detectors/MUON/MCH/Mapping\l/SegContour/src/SegmentationContours.cxx">
<polygon fill="none" stroke="black" points="933.5,-1 933.5,-53 1142.5,-53 1142.5,-1 933.5,-1"/>
<text text-anchor="start" x="941.5" y="-41" font-family="Helvetica,sans-Serif" font-size="10.00">/home/travis/build</text>
<text text-anchor="start" x="941.5" y="-30" font-family="Helvetica,sans-Serif" font-size="10.00">/AliceO2Group/AliceO2</text>
<text text-anchor="start" x="941.5" y="-19" font-family="Helvetica,sans-Serif" font-size="10.00">/Detectors/MUON/MCH/Mapping</text>
<text text-anchor="middle" x="1038" y="-8" font-family="Helvetica,sans-Serif" font-size="10.00">/SegContour/src/SegmentationContours.cxx</text>
</a>
</g>
</g>
<!-- Node4&#45;&gt;Node5 -->
<g id="edge4" class="edge"><title>Node4&#45;&gt;Node5</title>
<path fill="none" stroke="midnightblue" d="M1501.85,-89.8556C1373.1,-65.0523 1235.18,-48.1813 1142.94,-38.2856"/>
<polygon fill="midnightblue" stroke="midnightblue" points="1501.41,-93.3352 1511.89,-91.8103 1502.74,-86.4642 1501.41,-93.3352"/>
</g>
<!-- Node4&#45;&gt;Node6 -->
<g id="edge5" class="edge"><title>Node4&#45;&gt;Node6</title>
<path fill="none" stroke="midnightblue" d="M1650.8,-82.1833C1658.09,-72.3522 1665.74,-62.0498 1672.38,-53.1001"/>
<polygon fill="midnightblue" stroke="midnightblue" points="1647.93,-80.1741 1644.78,-90.2906 1653.55,-84.3451 1647.93,-80.1741"/>
</g>
<!-- Node8&#45;&gt;Node5 -->
<g id="edge11" class="edge"><title>Node8&#45;&gt;Node5</title>
<path fill="none" stroke="midnightblue" d="M704.691,-184.529C693.602,-176.104 683.742,-166.001 677,-154 663.068,-129.201 658.668,-111.749 677,-90 709.275,-51.7096 838.48,-37.0665 933.129,-31.4669"/>
<polygon fill="midnightblue" stroke="midnightblue" points="702.769,-187.456 712.955,-190.37 706.809,-181.74 702.769,-187.456"/>
</g>
<!-- Node9 -->
<g id="node9" class="node"><title>Node9</title>
<g id="a_node9"><a xlink:href="../../da/d65/CathodeSegmentationContours_8cxx.html" target="_top" xlink:title="/home/travis/build\l/AliceO2Group/AliceO2\l/Detectors/MUON/MCH/Mapping\l/SegContour/src/CathodeSegmentation\lContours.cxx">
<polygon fill="none" stroke="black" points="442,-90.5 442,-153.5 630,-153.5 630,-90.5 442,-90.5"/>
<text text-anchor="start" x="450" y="-141.5" font-family="Helvetica,sans-Serif" font-size="10.00">/home/travis/build</text>
<text text-anchor="start" x="450" y="-130.5" font-family="Helvetica,sans-Serif" font-size="10.00">/AliceO2Group/AliceO2</text>
<text text-anchor="start" x="450" y="-119.5" font-family="Helvetica,sans-Serif" font-size="10.00">/Detectors/MUON/MCH/Mapping</text>
<text text-anchor="start" x="450" y="-108.5" font-family="Helvetica,sans-Serif" font-size="10.00">/SegContour/src/CathodeSegmentation</text>
<text text-anchor="middle" x="536" y="-97.5" font-family="Helvetica,sans-Serif" font-size="10.00">Contours.cxx</text>
</a>
</g>
</g>
<!-- Node8&#45;&gt;Node9 -->
<g id="edge9" class="edge"><title>Node8&#45;&gt;Node9</title>
<path fill="none" stroke="midnightblue" d="M698.972,-186.63C671.368,-175.853 641.101,-164.035 614.222,-153.541"/>
<polygon fill="midnightblue" stroke="midnightblue" points="698.026,-190.019 708.614,-190.395 700.572,-183.498 698.026,-190.019"/>
</g>
<!-- Node8&#45;&gt;Node10 -->
<g id="edge10" class="edge"><title>Node8&#45;&gt;Node10</title>
<path fill="none" stroke="midnightblue" d="M666.457,-196.485C652.513,-194.08 638.469,-191.85 625,-190 435.882,-164.025 384.526,-189.702 197,-154 194.065,-153.441 191.094,-152.831 188.104,-152.178"/>
<polygon fill="midnightblue" stroke="midnightblue" points="666.128,-199.981 676.583,-198.265 667.34,-193.087 666.128,-199.981"/>
</g>
<!-- Node8&#45;&gt;Node11 -->
<g id="edge12" class="edge"><title>Node8&#45;&gt;Node11</title>
<path fill="none" stroke="midnightblue" d="M666.873,-190.795C665.576,-190.526 664.284,-190.261 663,-190 561.598,-169.432 534.277,-175.172 433,-154 424.396,-152.201 415.48,-150.171 406.58,-148.032"/>
<polygon fill="midnightblue" stroke="midnightblue" points="666.402,-194.273 676.912,-192.933 667.86,-187.427 666.402,-194.273"/>
</g>
<!-- Node8&#45;&gt;Node12 -->
<g id="edge13" class="edge"><title>Node8&#45;&gt;Node12</title>
<path fill="none" stroke="midnightblue" d="M784.912,-180.079C784.358,-169.21 783.775,-157.794 783.278,-148.054"/>
<polygon fill="midnightblue" stroke="midnightblue" points="781.427,-180.452 785.432,-190.261 788.418,-180.096 781.427,-180.452"/>
</g>
<!-- Node8&#45;&gt;Node13 -->
<g id="edge14" class="edge"><title>Node8&#45;&gt;Node13</title>
<path fill="none" stroke="midnightblue" d="M861.228,-186.027C887.808,-173.504 917.221,-159.646 941.683,-148.121"/>
<polygon fill="midnightblue" stroke="midnightblue" points="859.511,-182.967 851.957,-190.395 862.495,-189.299 859.511,-182.967"/>
</g>
<!-- Node8&#45;&gt;Node14 -->
<g id="edge15" class="edge"><title>Node8&#45;&gt;Node14</title>
<path fill="none" stroke="midnightblue" d="M907.158,-198.654C966.465,-186.832 1038.87,-171.21 1103,-154 1109.79,-152.179 1116.8,-150.158 1123.81,-148.046"/>
<polygon fill="midnightblue" stroke="midnightblue" points="906.129,-195.29 897.001,-200.668 907.49,-202.156 906.129,-195.29"/>
</g>
<!-- Node8&#45;&gt;Node15 -->
<g id="edge16" class="edge"><title>Node8&#45;&gt;Node15</title>
<path fill="none" stroke="midnightblue" d="M907.279,-210.258C1010.15,-199.831 1161.78,-181.512 1292,-154 1300.16,-152.276 1308.61,-150.243 1317.01,-148.055"/>
<polygon fill="midnightblue" stroke="midnightblue" points="906.767,-206.792 897.167,-211.274 907.467,-213.757 906.767,-206.792"/>
</g>
</g>
</svg>
        <g id="navigator" transform="translate(0 0)" fill="#404254">
                <rect fill="#f2f5e9" fill-opacity="0.5" stroke="#606060" stroke-width=".5" x="0" y="0" width="60" height="60"/>
                <use id="zoomplus" xlink:href="#zoomPlus" x="17" y="9" onmousedown="handleZoom(evt,'in')"/>
                <use id="zoomminus" xlink:href="#zoomMin" x="42" y="9" onmousedown="handleZoom(evt,'out')"/>
                <use id="reset" xlink:href="#resetDef" x="30" y="36" onmousedown="handleReset()"/>
                <g id="arrowUp" xlink:href="#dirArrow" transform="translate(30 24)" onmousedown="handlePan(0,-1)">
                  <use xlink:href="#rim" fill="#404040">
                        <set attributeName="fill" to="#808080" begin="arrowUp.mouseover" end="arrowUp.mouseout"/>
                  </use>
                  <path fill="none" stroke="white" stroke-width="1.5" d="M0,-3.0v7 M-2.5,-0.5L0,-3.0L2.5,-0.5"/>
                </g>
                <g id="arrowRight" xlink:href="#dirArrow" transform="rotate(90) translate(36 -43)" onmousedown="handlePan(1,0)">
                  <use xlink:href="#rim" fill="#404040">
                        <set attributeName="fill" to="#808080" begin="arrowRight.mouseover" end="arrowRight.mouseout"/>
                  </use>
                  <path fill="none" stroke="white" stroke-width="1.5" d="M0,-3.0v7 M-2.5,-0.5L0,-3.0L2.5,-0.5"/>
                </g>
                <g id="arrowDown" xlink:href="#dirArrow" transform="rotate(180) translate(-30 -48)" onmousedown="handlePan(0,1)">
                  <use xlink:href="#rim" fill="#404040">
                        <set attributeName="fill" to="#808080" begin="arrowDown.mouseover" end="arrowDown.mouseout"/>
                  </use>
                  <path fill="none" stroke="white" stroke-width="1.5" d="M0,-3.0v7 M-2.5,-0.5L0,-3.0L2.5,-0.5"/>
                </g>
                <g id="arrowLeft" xlink:href="#dirArrow" transform="rotate(270) translate(-36 17)" onmousedown="handlePan(-1,0)">
                  <use xlink:href="#rim" fill="#404040">
                        <set attributeName="fill" to="#808080" begin="arrowLeft.mouseover" end="arrowLeft.mouseout"/>
                  </use>
                  <path fill="none" stroke="white" stroke-width="1.5" d="M0,-3.0v7 M-2.5,-0.5L0,-3.0L2.5,-0.5"/>
                </g>
        </g>
        <svg viewBox="0 0 15 15" width="100%" height="30px" preserveAspectRatio="xMaxYMin meet">
         <g id="arrow_out" transform="scale(0.3 0.3)">
          <a xlink:href="CathodeSegmentation_8h__dep__incl_org.svg" target="_base">
           <rect id="button" ry="5" rx="5" y="6" x="6" height="38" width="38"
                fill="#f2f5e9" fill-opacity="0.5" stroke="#606060" stroke-width="1.0"/>
           <path id="arrow"
             d="M 11.500037,31.436501 C 11.940474,20.09759 22.043105,11.32322 32.158766,21.979434 L 37.068811,17.246167 C 37.068811,17.246167 37.088388,32 37.088388,32 L 22.160133,31.978069 C 22.160133,31.978069 26.997745,27.140456 26.997745,27.140456 C 18.528582,18.264221 13.291696,25.230495 11.500037,31.436501 z"
             style="fill:#404040;"/>
          </a>
         </g>
        </svg>
</svg>
