<?xml version="1.0" encoding="UTF-8" standalone="no"?>
<!DOCTYPE svg PUBLIC "-//W3C//DTD SVG 1.1//EN"
 "http://www.w3.org/Graphics/SVG/1.1/DTD/svg11.dtd">
<!-- Generated by graphviz version 2.36.0 (20140111.2315)
 -->
<!-- Title: /home/travis/build/AliceO2Group/AliceO2/Detectors/FIT/simulation/include/FITSimulation/Digitizer.h Pages: 1 -->
<svg width="2955pt" height="378pt"
 viewBox="0.00 0.00 2955.00 378.00" xmlns="http://www.w3.org/2000/svg" xmlns:xlink="http://www.w3.org/1999/xlink">
<g id="graph0" class="graph" transform="scale(1 1) rotate(0) translate(4 374)">
<title>/home/travis/build/AliceO2Group/AliceO2/Detectors/FIT/simulation/include/FITSimulation/Digitizer.h</title>
<!-- Node1 -->
<g id="node1" class="node"><title>Node1</title>
<polygon fill="#bfbfbf" stroke="black" points="1063.5,-317 1063.5,-369 1224.5,-369 1224.5,-317 1063.5,-317"/>
<text text-anchor="start" x="1071.5" y="-357" font-family="Helvetica,sans-Serif" font-size="10.00">/home/travis/build</text>
<text text-anchor="start" x="1071.5" y="-346" font-family="Helvetica,sans-Serif" font-size="10.00">/AliceO2Group/AliceO2</text>
<text text-anchor="start" x="1071.5" y="-335" font-family="Helvetica,sans-Serif" font-size="10.00">/Detectors/FIT/simulation</text>
<text text-anchor="middle" x="1144" y="-324" font-family="Helvetica,sans-Serif" font-size="10.00">/include/FITSimulation/Digitizer.h</text>
</g>
<!-- Node2 -->
<g id="node2" class="node"><title>Node2</title>
<g id="a_node2"><a xlink:href="../../d1/dde/FIT_2base_2include_2FITBase_2Digit_8h.html" target="_top" xlink:title="FITBase/Digit.h">
<polygon fill="none" stroke="black" points="1101,-198.5 1101,-217.5 1187,-217.5 1187,-198.5 1101,-198.5"/>
<text text-anchor="middle" x="1144" y="-205.5" font-family="Helvetica,sans-Serif" font-size="10.00">FITBase/Digit.h</text>
</a>
</g>
</g>
<!-- Node1&#45;&gt;Node2 -->
<g id="edge1" class="edge"><title>Node1&#45;&gt;Node2</title>
<path fill="none" stroke="midnightblue" d="M1144,-316.984C1144,-291.106 1144,-251.274 1144,-227.909"/>
<polygon fill="midnightblue" stroke="midnightblue" points="1147.5,-227.622 1144,-217.622 1140.5,-227.622 1147.5,-227.622"/>
</g>
<!-- Node6 -->
<g id="node6" class="node"><title>Node6</title>
<g id="a_node6"><a xlink:href="../../de/d6b/FIT_2simulation_2include_2FITSimulation_2Detector_8h.html" target="_top" xlink:title="FITSimulation/Detector.h">
<polygon fill="none" stroke="black" points="1196,-260.5 1196,-279.5 1322,-279.5 1322,-260.5 1196,-260.5"/>
<text text-anchor="middle" x="1259" y="-267.5" font-family="Helvetica,sans-Serif" font-size="10.00">FITSimulation/Detector.h</text>
</a>
</g>
</g>
<!-- Node1&#45;&gt;Node6 -->
<g id="edge6" class="edge"><title>Node1&#45;&gt;Node6</title>
<path fill="none" stroke="midnightblue" d="M1184.54,-316.968C1201.84,-306.291 1221.38,-294.227 1236.1,-285.138"/>
<polygon fill="midnightblue" stroke="midnightblue" points="1238.34,-287.87 1245.01,-279.639 1234.66,-281.914 1238.34,-287.87"/>
</g>
<!-- Node43 -->
<g id="node43" class="node"><title>Node43</title>
<g id="a_node43"><a xlink:href="../../db/d14/MCTruthContainer_8h.html" target="_top" xlink:title="Definition of a container to keep Monte Carlo truth external to simulation objects. ">
<polygon fill="none" stroke="black" points="2689,-193 2689,-223 2803,-223 2803,-193 2689,-193"/>
<text text-anchor="start" x="2697" y="-211" font-family="Helvetica,sans-Serif" font-size="10.00">SimulationDataFormat</text>
<text text-anchor="middle" x="2746" y="-200" font-family="Helvetica,sans-Serif" font-size="10.00">/MCTruthContainer.h</text>
</a>
</g>
</g>
<!-- Node1&#45;&gt;Node43 -->
<g id="edge53" class="edge"><title>Node1&#45;&gt;Node43</title>
<path fill="none" stroke="midnightblue" d="M1224.54,-335.313C1502.87,-312.206 2421.12,-235.972 2678.44,-214.609"/>
<polygon fill="midnightblue" stroke="midnightblue" points="2679.08,-218.068 2688.75,-213.753 2678.5,-211.092 2679.08,-218.068"/>
</g>
<!-- Node47 -->
<g id="node47" class="node"><title>Node47</title>
<g id="a_node47"><a xlink:href="../../d7/dcd/MCCompLabel_8h.html" target="_top" xlink:title="SimulationDataFormat\l/MCCompLabel.h">
<polygon fill="none" stroke="black" points="837,-193 837,-223 951,-223 951,-193 837,-193"/>
<text text-anchor="start" x="845" y="-211" font-family="Helvetica,sans-Serif" font-size="10.00">SimulationDataFormat</text>
<text text-anchor="middle" x="894" y="-200" font-family="Helvetica,sans-Serif" font-size="10.00">/MCCompLabel.h</text>
</a>
</g>
</g>
<!-- Node1&#45;&gt;Node47 -->
<g id="edge59" class="edge"><title>Node1&#45;&gt;Node47</title>
<path fill="none" stroke="midnightblue" d="M1100.25,-316.853C1071.17,-300.328 1032.04,-278.436 997,-260 975.905,-248.903 952.071,-237.057 932.646,-227.579"/>
<polygon fill="midnightblue" stroke="midnightblue" points="934.02,-224.355 923.496,-223.129 930.959,-230.65 934.02,-224.355"/>
</g>
<!-- Node48 -->
<g id="node48" class="node"><title>Node48</title>
<g id="a_node48"><a xlink:href="../../d4/d6a/FIT_2simulation_2include_2FITSimulation_2MCLabel_8h.html" target="_top" xlink:title="FITSimulation/MCLabel.h">
<polygon fill="none" stroke="black" points="860,-260.5 860,-279.5 988,-279.5 988,-260.5 860,-260.5"/>
<text text-anchor="middle" x="924" y="-267.5" font-family="Helvetica,sans-Serif" font-size="10.00">FITSimulation/MCLabel.h</text>
</a>
</g>
</g>
<!-- Node1&#45;&gt;Node48 -->
<g id="edge61" class="edge"><title>Node1&#45;&gt;Node48</title>
<path fill="none" stroke="midnightblue" d="M1066.44,-316.968C1030.25,-305.29 988.92,-291.951 960.135,-282.662"/>
<polygon fill="midnightblue" stroke="midnightblue" points="961.097,-279.295 950.506,-279.554 958.947,-285.956 961.097,-279.295"/>
</g>
<!-- Node3 -->
<g id="node3" class="node"><title>Node3</title>
<g id="a_node3"><a xlink:href="../../df/d5d/common_2include_2CommonDataFormat_2TimeStamp_8h.html" target="_top" xlink:title="CommonDataFormat/TimeStamp.h">
<polygon fill="none" stroke="black" points="954,-136.5 954,-155.5 1124,-155.5 1124,-136.5 954,-136.5"/>
<text text-anchor="middle" x="1039" y="-143.5" font-family="Helvetica,sans-Serif" font-size="10.00">CommonDataFormat/TimeStamp.h</text>
</a>
</g>
</g>
<!-- Node2&#45;&gt;Node3 -->
<g id="edge2" class="edge"><title>Node2&#45;&gt;Node3</title>
<path fill="none" stroke="midnightblue" d="M1128.96,-198.403C1111.72,-188.557 1083.26,-172.291 1062.97,-160.695"/>
<polygon fill="midnightblue" stroke="midnightblue" points="1064.43,-157.503 1054.02,-155.581 1060.96,-163.581 1064.43,-157.503"/>
</g>
<!-- Node4 -->
<g id="node4" class="node"><title>Node4</title>
<polygon fill="none" stroke="#bfbfbf" points="1223,-74.5 1223,-93.5 1279,-93.5 1279,-74.5 1223,-74.5"/>
<text text-anchor="middle" x="1251" y="-81.5" font-family="Helvetica,sans-Serif" font-size="10.00">Rtypes.h</text>
</g>
<!-- Node2&#45;&gt;Node4 -->
<g id="edge5" class="edge"><title>Node2&#45;&gt;Node4</title>
<path fill="none" stroke="midnightblue" d="M1151.1,-198.109C1162.01,-184.516 1183.67,-157.848 1203,-136 1213.68,-123.927 1226.17,-110.682 1235.73,-100.717"/>
<polygon fill="midnightblue" stroke="midnightblue" points="1238.26,-103.139 1242.68,-93.5122 1233.22,-98.2791 1238.26,-103.139"/>
</g>
<!-- Node5 -->
<g id="node5" class="node"><title>Node5</title>
<polygon fill="none" stroke="#bfbfbf" points="40.5,-74.5 40.5,-93.5 85.5,-93.5 85.5,-74.5 40.5,-74.5"/>
<text text-anchor="middle" x="63" y="-81.5" font-family="Helvetica,sans-Serif" font-size="10.00">iosfwd</text>
</g>
<!-- Node2&#45;&gt;Node5 -->
<g id="edge4" class="edge"><title>Node2&#45;&gt;Node5</title>
<path fill="none" stroke="midnightblue" d="M1118.05,-198.444C1109.8,-196.014 1100.59,-193.598 1092,-192 654.074,-110.548 522.934,-220.12 94,-100 91.8014,-99.3843 89.5689,-98.6185 87.3616,-97.7611"/>
<polygon fill="midnightblue" stroke="midnightblue" points="88.5873,-94.4754 78.0289,-93.5973 85.7351,-100.868 88.5873,-94.4754"/>
</g>
<!-- Node3&#45;&gt;Node4 -->
<g id="edge3" class="edge"><title>Node3&#45;&gt;Node4</title>
<path fill="none" stroke="midnightblue" d="M1078.35,-136.464C1114.11,-128.337 1168.12,-115.125 1214,-100 1216.57,-99.1544 1219.21,-98.2186 1221.84,-97.2398"/>
<polygon fill="midnightblue" stroke="midnightblue" points="1223.16,-100.481 1231.21,-93.59 1220.62,-93.9588 1223.16,-100.481"/>
</g>
<!-- Node7 -->
<g id="node7" class="node"><title>Node7</title>
<g id="a_node7"><a xlink:href="../../d4/d25/BaseHits_8h.html" target="_top" xlink:title="SimulationDataFormat\l/BaseHits.h">
<polygon fill="none" stroke="black" points="969,-193 969,-223 1083,-223 1083,-193 969,-193"/>
<text text-anchor="start" x="977" y="-211" font-family="Helvetica,sans-Serif" font-size="10.00">SimulationDataFormat</text>
<text text-anchor="middle" x="1026" y="-200" font-family="Helvetica,sans-Serif" font-size="10.00">/BaseHits.h</text>
</a>
</g>
</g>
<!-- Node6&#45;&gt;Node7 -->
<g id="edge7" class="edge"><title>Node6&#45;&gt;Node7</title>
<path fill="none" stroke="midnightblue" d="M1225.62,-260.403C1190.4,-251.336 1134.05,-236.825 1090.19,-225.529"/>
<polygon fill="midnightblue" stroke="midnightblue" points="1091.02,-222.13 1080.46,-223.025 1089.28,-228.909 1091.02,-222.13"/>
</g>
<!-- Node18 -->
<g id="node18" class="node"><title>Node18</title>
<g id="a_node18"><a xlink:href="../../d1/d3a/Base_2include_2DetectorsBase_2Detector_8h.html" target="_top" xlink:title="DetectorsBase/Detector.h">
<polygon fill="none" stroke="black" points="1854.5,-198.5 1854.5,-217.5 1985.5,-217.5 1985.5,-198.5 1854.5,-198.5"/>
<text text-anchor="middle" x="1920" y="-205.5" font-family="Helvetica,sans-Serif" font-size="10.00">DetectorsBase/Detector.h</text>
</a>
</g>
</g>
<!-- Node6&#45;&gt;Node18 -->
<g id="edge20" class="edge"><title>Node6&#45;&gt;Node18</title>
<path fill="none" stroke="midnightblue" d="M1322.08,-263.274C1444.26,-252.183 1712.73,-227.814 1844.3,-215.871"/>
<polygon fill="midnightblue" stroke="midnightblue" points="1844.66,-219.353 1854.3,-214.964 1844.02,-212.382 1844.66,-219.353"/>
</g>
<!-- Node37 -->
<g id="node37" class="node"><title>Node37</title>
<g id="a_node37"><a xlink:href="../../d0/d91/ShmAllocator_8h.html" target="_top" xlink:title="CommonUtils/ShmAllocator.h">
<polygon fill="none" stroke="black" points="2425,-136.5 2425,-155.5 2571,-155.5 2571,-136.5 2425,-136.5"/>
<text text-anchor="middle" x="2498" y="-143.5" font-family="Helvetica,sans-Serif" font-size="10.00">CommonUtils/ShmAllocator.h</text>
</a>
</g>
</g>
<!-- Node6&#45;&gt;Node37 -->
<g id="edge52" class="edge"><title>Node6&#45;&gt;Node37</title>
<path fill="none" stroke="midnightblue" d="M1322.08,-267.061C1449.41,-262.724 1746.12,-250.469 1994,-224 2157.31,-206.562 2348.65,-173.953 2441.6,-157.324"/>
<polygon fill="midnightblue" stroke="midnightblue" points="2442.4,-160.735 2451.63,-155.523 2441.17,-153.845 2442.4,-160.735"/>
</g>
<!-- Node41 -->
<g id="node41" class="node"><title>Node41</title>
<g id="a_node41"><a xlink:href="../../d1/db1/FIT_2base_2include_2FITBase_2Geometry_8h.html" target="_top" xlink:title="FITBase/Geometry.h">
<polygon fill="none" stroke="black" points="1205,-198.5 1205,-217.5 1313,-217.5 1313,-198.5 1205,-198.5"/>
<text text-anchor="middle" x="1259" y="-205.5" font-family="Helvetica,sans-Serif" font-size="10.00">FITBase/Geometry.h</text>
</a>
</g>
</g>
<!-- Node6&#45;&gt;Node41 -->
<g id="edge49" class="edge"><title>Node6&#45;&gt;Node41</title>
<path fill="none" stroke="midnightblue" d="M1259,-260.403C1259,-251.938 1259,-238.728 1259,-227.82"/>
<polygon fill="midnightblue" stroke="midnightblue" points="1262.5,-227.581 1259,-217.581 1255.5,-227.581 1262.5,-227.581"/>
</g>
<!-- Node8 -->
<g id="node8" class="node"><title>Node8</title>
<g id="a_node8"><a xlink:href="../../dd/d76/Cartesian3D_8h.html" target="_top" xlink:title="MathUtils/Cartesian3D.h">
<polygon fill="none" stroke="black" points="688.5,-136.5 688.5,-155.5 813.5,-155.5 813.5,-136.5 688.5,-136.5"/>
<text text-anchor="middle" x="751" y="-143.5" font-family="Helvetica,sans-Serif" font-size="10.00">MathUtils/Cartesian3D.h</text>
</a>
</g>
</g>
<!-- Node7&#45;&gt;Node8 -->
<g id="edge8" class="edge"><title>Node7&#45;&gt;Node8</title>
<path fill="none" stroke="midnightblue" d="M968.772,-193.952C965.806,-193.288 962.868,-192.635 960,-192 905.817,-180.01 843.634,-166.676 801.277,-157.657"/>
<polygon fill="midnightblue" stroke="midnightblue" points="801.996,-154.232 791.487,-155.574 800.54,-161.079 801.996,-154.232"/>
</g>
<!-- Node8&#45;&gt;Node4 -->
<g id="edge14" class="edge"><title>Node8&#45;&gt;Node4</title>
<path fill="none" stroke="midnightblue" d="M813.882,-141.138C922.27,-134.105 1139.79,-118.241 1214,-100 1217.06,-99.2467 1220.21,-98.2868 1223.31,-97.2178"/>
<polygon fill="midnightblue" stroke="midnightblue" points="1224.81,-100.39 1232.9,-93.5496 1222.31,-93.8517 1224.81,-100.39"/>
</g>
<!-- Node8&#45;&gt;Node5 -->
<g id="edge16" class="edge"><title>Node8&#45;&gt;Node5</title>
<path fill="none" stroke="midnightblue" d="M688.431,-143.744C546.739,-140.411 205.054,-129.486 94,-100 91.6596,-99.3786 89.2839,-98.5784 86.9426,-97.6715"/>
<polygon fill="midnightblue" stroke="midnightblue" points="88.2475,-94.421 77.6904,-93.5278 85.3863,-100.81 88.2475,-94.421"/>
</g>
<!-- Node9 -->
<g id="node9" class="node"><title>Node9</title>
<polygon fill="none" stroke="#bfbfbf" points="246.5,-69 246.5,-99 397.5,-99 397.5,-69 246.5,-69"/>
<text text-anchor="start" x="254.5" y="-87" font-family="Helvetica,sans-Serif" font-size="10.00">Math/GenVector/Displacement</text>
<text text-anchor="middle" x="322" y="-76" font-family="Helvetica,sans-Serif" font-size="10.00">Vector3D.h</text>
</g>
<!-- Node8&#45;&gt;Node9 -->
<g id="edge9" class="edge"><title>Node8&#45;&gt;Node9</title>
<path fill="none" stroke="midnightblue" d="M688.423,-137.665C621.55,-129.634 512.181,-115.95 407.617,-100.052"/>
<polygon fill="midnightblue" stroke="midnightblue" points="407.929,-96.5587 397.515,-98.5063 406.871,-103.478 407.929,-96.5587"/>
</g>
<!-- Node10 -->
<g id="node10" class="node"><title>Node10</title>
<polygon fill="none" stroke="#bfbfbf" points="416,-74.5 416,-93.5 592,-93.5 592,-74.5 416,-74.5"/>
<text text-anchor="middle" x="504" y="-81.5" font-family="Helvetica,sans-Serif" font-size="10.00">Math/GenVector/PositionVector3D.h</text>
</g>
<!-- Node8&#45;&gt;Node10 -->
<g id="edge10" class="edge"><title>Node8&#45;&gt;Node10</title>
<path fill="none" stroke="midnightblue" d="M715.873,-136.467C671.98,-125.805 596.811,-107.545 548.814,-95.886"/>
<polygon fill="midnightblue" stroke="midnightblue" points="549.549,-92.4629 539.006,-93.5034 547.897,-99.2651 549.549,-92.4629"/>
</g>
<!-- Node11 -->
<g id="node11" class="node"><title>Node11</title>
<polygon fill="none" stroke="#bfbfbf" points="609.5,-74.5 609.5,-93.5 758.5,-93.5 758.5,-74.5 609.5,-74.5"/>
<text text-anchor="middle" x="684" y="-81.5" font-family="Helvetica,sans-Serif" font-size="10.00">Math/GenVector/Rotation3D.h</text>
</g>
<!-- Node8&#45;&gt;Node11 -->
<g id="edge11" class="edge"><title>Node8&#45;&gt;Node11</title>
<path fill="none" stroke="midnightblue" d="M741.401,-136.403C730.952,-127.047 714.032,-111.895 701.264,-100.46"/>
<polygon fill="midnightblue" stroke="midnightblue" points="703.366,-97.6445 693.582,-93.5806 698.696,-102.859 703.366,-97.6445"/>
</g>
<!-- Node12 -->
<g id="node12" class="node"><title>Node12</title>
<polygon fill="none" stroke="#bfbfbf" points="777,-74.5 777,-93.5 933,-93.5 933,-74.5 777,-74.5"/>
<text text-anchor="middle" x="855" y="-81.5" font-family="Helvetica,sans-Serif" font-size="10.00">Math/GenVector/Transform3D.h</text>
</g>
<!-- Node8&#45;&gt;Node12 -->
<g id="edge12" class="edge"><title>Node8&#45;&gt;Node12</title>
<path fill="none" stroke="midnightblue" d="M765.901,-136.403C782.968,-126.557 811.161,-110.291 831.262,-98.6949"/>
<polygon fill="midnightblue" stroke="midnightblue" points="833.214,-101.61 840.127,-93.5806 829.716,-95.5462 833.214,-101.61"/>
</g>
<!-- Node13 -->
<g id="node13" class="node"><title>Node13</title>
<polygon fill="none" stroke="#bfbfbf" points="951,-74.5 951,-93.5 1111,-93.5 1111,-74.5 951,-74.5"/>
<text text-anchor="middle" x="1031" y="-81.5" font-family="Helvetica,sans-Serif" font-size="10.00">Math/GenVector/Translation3D.h</text>
</g>
<!-- Node8&#45;&gt;Node13 -->
<g id="edge13" class="edge"><title>Node8&#45;&gt;Node13</title>
<path fill="none" stroke="midnightblue" d="M790.82,-136.467C840.89,-125.738 926.86,-107.316 981.219,-95.6673"/>
<polygon fill="midnightblue" stroke="midnightblue" points="982.273,-99.0211 991.318,-93.5034 980.806,-92.1764 982.273,-99.0211"/>
</g>
<!-- Node14 -->
<g id="node14" class="node"><title>Node14</title>
<polygon fill="none" stroke="#bfbfbf" points="1129,-74.5 1129,-93.5 1205,-93.5 1205,-74.5 1129,-74.5"/>
<text text-anchor="middle" x="1167" y="-81.5" font-family="Helvetica,sans-Serif" font-size="10.00">TGeoMatrix.h</text>
</g>
<!-- Node8&#45;&gt;Node14 -->
<g id="edge15" class="edge"><title>Node8&#45;&gt;Node14</title>
<path fill="none" stroke="midnightblue" d="M813.623,-140.959C887.514,-135.365 1013.76,-123.215 1120,-100 1124.45,-99.0274 1129.08,-97.8115 1133.62,-96.4953"/>
<polygon fill="midnightblue" stroke="midnightblue" points="1134.8,-99.7961 1143.33,-93.5094 1132.74,-93.1058 1134.8,-99.7961"/>
</g>
<!-- Node15 -->
<g id="node15" class="node"><title>Node15</title>
<g id="a_node15"><a xlink:href="../../d2/dd0/Cartesian2D_8h.html" target="_top" xlink:title="MathUtils/Cartesian2D.h">
<polygon fill="none" stroke="black" points="103.5,-74.5 103.5,-93.5 228.5,-93.5 228.5,-74.5 103.5,-74.5"/>
<text text-anchor="middle" x="166" y="-81.5" font-family="Helvetica,sans-Serif" font-size="10.00">MathUtils/Cartesian2D.h</text>
</a>
</g>
</g>
<!-- Node8&#45;&gt;Node15 -->
<g id="edge17" class="edge"><title>Node8&#45;&gt;Node15</title>
<path fill="none" stroke="midnightblue" d="M688.207,-141.954C591.071,-136.69 398.697,-124.069 237,-100 228.938,-98.8 220.417,-97.2485 212.183,-95.5999"/>
<polygon fill="midnightblue" stroke="midnightblue" points="212.834,-92.1606 202.332,-93.5578 211.413,-99.0148 212.834,-92.1606"/>
</g>
<!-- Node16 -->
<g id="node16" class="node"><title>Node16</title>
<polygon fill="none" stroke="#bfbfbf" points="-0.5,-1 -0.5,-31 150.5,-31 150.5,-1 -0.5,-1"/>
<text text-anchor="start" x="7.5" y="-19" font-family="Helvetica,sans-Serif" font-size="10.00">Math/GenVector/Displacement</text>
<text text-anchor="middle" x="75" y="-8" font-family="Helvetica,sans-Serif" font-size="10.00">Vector2D.h</text>
</g>
<!-- Node15&#45;&gt;Node16 -->
<g id="edge18" class="edge"><title>Node15&#45;&gt;Node16</title>
<path fill="none" stroke="midnightblue" d="M154.103,-74.3717C141.221,-65.0286 120.22,-49.7966 103.093,-37.375"/>
<polygon fill="midnightblue" stroke="midnightblue" points="104.703,-34.2194 94.5532,-31.1815 100.593,-39.8859 104.703,-34.2194"/>
</g>
<!-- Node17 -->
<g id="node17" class="node"><title>Node17</title>
<polygon fill="none" stroke="#bfbfbf" points="169,-6.5 169,-25.5 345,-25.5 345,-6.5 169,-6.5"/>
<text text-anchor="middle" x="257" y="-13.5" font-family="Helvetica,sans-Serif" font-size="10.00">Math/GenVector/PositionVector2D.h</text>
</g>
<!-- Node15&#45;&gt;Node17 -->
<g id="edge19" class="edge"><title>Node15&#45;&gt;Node17</title>
<path fill="none" stroke="midnightblue" d="M177.897,-74.3717C192.884,-63.5015 218.862,-44.6602 236.942,-31.5474"/>
<polygon fill="midnightblue" stroke="midnightblue" points="239.06,-34.3349 245.1,-25.6305 234.95,-28.6684 239.06,-34.3349"/>
</g>
<!-- Node18&#45;&gt;Node4 -->
<g id="edge32" class="edge"><title>Node18&#45;&gt;Node4</title>
<path fill="none" stroke="midnightblue" d="M1854.34,-205.074C1726.31,-200.66 1448,-187.65 1358,-156 1322.85,-143.639 1287.99,-117.158 1268.03,-100.261"/>
<polygon fill="midnightblue" stroke="midnightblue" points="1270.27,-97.5768 1260.42,-93.6752 1265.69,-102.868 1270.27,-97.5768"/>
</g>
<!-- Node19 -->
<g id="node19" class="node"><title>Node19</title>
<polygon fill="none" stroke="#bfbfbf" points="1498.5,-74.5 1498.5,-93.5 1533.5,-93.5 1533.5,-74.5 1498.5,-74.5"/>
<text text-anchor="middle" x="1516" y="-81.5" font-family="Helvetica,sans-Serif" font-size="10.00">map</text>
</g>
<!-- Node18&#45;&gt;Node19 -->
<g id="edge21" class="edge"><title>Node18&#45;&gt;Node19</title>
<path fill="none" stroke="midnightblue" d="M1854.48,-205.781C1715.5,-202.517 1401.16,-191.274 1369,-156 1331.84,-115.245 1436.11,-95.4244 1488.27,-88.2608"/>
<polygon fill="midnightblue" stroke="midnightblue" points="1488.78,-91.7236 1498.25,-86.9577 1487.88,-84.7826 1488.78,-91.7236"/>
</g>
<!-- Node20 -->
<g id="node20" class="node"><title>Node20</title>
<polygon fill="none" stroke="#bfbfbf" points="1898,-136.5 1898,-155.5 1942,-155.5 1942,-136.5 1898,-136.5"/>
<text text-anchor="middle" x="1920" y="-143.5" font-family="Helvetica,sans-Serif" font-size="10.00">vector</text>
</g>
<!-- Node18&#45;&gt;Node20 -->
<g id="edge22" class="edge"><title>Node18&#45;&gt;Node20</title>
<path fill="none" stroke="midnightblue" d="M1920,-198.403C1920,-189.938 1920,-176.728 1920,-165.82"/>
<polygon fill="midnightblue" stroke="midnightblue" points="1923.5,-165.581 1920,-155.581 1916.5,-165.581 1923.5,-165.581"/>
</g>
<!-- Node21 -->
<g id="node21" class="node"><title>Node21</title>
<polygon fill="none" stroke="#bfbfbf" points="1943.5,-74.5 1943.5,-93.5 2016.5,-93.5 2016.5,-74.5 1943.5,-74.5"/>
<text text-anchor="middle" x="1980" y="-81.5" font-family="Helvetica,sans-Serif" font-size="10.00">initializer_list</text>
</g>
<!-- Node18&#45;&gt;Node21 -->
<g id="edge23" class="edge"><title>Node18&#45;&gt;Node21</title>
<path fill="none" stroke="midnightblue" d="M1985.68,-204.428C2105.89,-199.042 2351.38,-184.634 2377,-156 2424.82,-102.55 2141.89,-89.1787 2026.93,-85.9692"/>
<polygon fill="midnightblue" stroke="midnightblue" points="2026.76,-82.4635 2016.67,-85.6974 2026.58,-89.4611 2026.76,-82.4635"/>
</g>
<!-- Node22 -->
<g id="node22" class="node"><title>Node22</title>
<polygon fill="none" stroke="#bfbfbf" points="1960,-136.5 1960,-155.5 2012,-155.5 2012,-136.5 1960,-136.5"/>
<text text-anchor="middle" x="1986" y="-143.5" font-family="Helvetica,sans-Serif" font-size="10.00">memory</text>
</g>
<!-- Node18&#45;&gt;Node22 -->
<g id="edge24" class="edge"><title>Node18&#45;&gt;Node22</title>
<path fill="none" stroke="midnightblue" d="M1929.46,-198.403C1939.75,-189.047 1956.42,-173.895 1968.99,-162.46"/>
<polygon fill="midnightblue" stroke="midnightblue" points="1971.52,-164.897 1976.56,-155.581 1966.81,-159.718 1971.52,-164.897"/>
</g>
<!-- Node23 -->
<g id="node23" class="node"><title>Node23</title>
<polygon fill="none" stroke="#bfbfbf" points="2030.5,-136.5 2030.5,-155.5 2109.5,-155.5 2109.5,-136.5 2030.5,-136.5"/>
<text text-anchor="middle" x="2070" y="-143.5" font-family="Helvetica,sans-Serif" font-size="10.00">FairDetector.h</text>
</g>
<!-- Node18&#45;&gt;Node23 -->
<g id="edge25" class="edge"><title>Node18&#45;&gt;Node23</title>
<path fill="none" stroke="midnightblue" d="M1941.49,-198.403C1967.11,-188.156 2010.11,-170.956 2039.24,-159.302"/>
<polygon fill="midnightblue" stroke="midnightblue" points="2040.56,-162.544 2048.55,-155.581 2037.96,-156.045 2040.56,-162.544"/>
</g>
<!-- Node24 -->
<g id="node24" class="node"><title>Node24</title>
<polygon fill="none" stroke="#bfbfbf" points="2128,-136.5 2128,-155.5 2228,-155.5 2228,-136.5 2128,-136.5"/>
<text text-anchor="middle" x="2178" y="-143.5" font-family="Helvetica,sans-Serif" font-size="10.00">FairRootManager.h</text>
</g>
<!-- Node18&#45;&gt;Node24 -->
<g id="edge26" class="edge"><title>Node18&#45;&gt;Node24</title>
<path fill="none" stroke="midnightblue" d="M1956.69,-198.467C2002.64,-187.783 2081.38,-169.469 2131.5,-157.813"/>
<polygon fill="midnightblue" stroke="midnightblue" points="2132.49,-161.178 2141.44,-155.503 2130.9,-154.36 2132.49,-161.178"/>
</g>
<!-- Node25 -->
<g id="node25" class="node"><title>Node25</title>
<g id="a_node25"><a xlink:href="../../d0/d9a/MaterialManager_8h.html" target="_top" xlink:title="DetectorsBase/MaterialManager.h">
<polygon fill="none" stroke="black" points="1676.5,-136.5 1676.5,-155.5 1841.5,-155.5 1841.5,-136.5 1676.5,-136.5"/>
<text text-anchor="middle" x="1759" y="-143.5" font-family="Helvetica,sans-Serif" font-size="10.00">DetectorsBase/MaterialManager.h</text>
</a>
</g>
</g>
<!-- Node18&#45;&gt;Node25 -->
<g id="edge27" class="edge"><title>Node18&#45;&gt;Node25</title>
<path fill="none" stroke="midnightblue" d="M1896.93,-198.403C1869.32,-188.111 1822.88,-170.806 1791.6,-159.15"/>
<polygon fill="midnightblue" stroke="midnightblue" points="1792.62,-155.793 1782.02,-155.581 1790.17,-162.352 1792.62,-155.793"/>
</g>
<!-- Node27 -->
<g id="node27" class="node"><title>Node27</title>
<polygon fill="none" stroke="#bfbfbf" points="2246.5,-136.5 2246.5,-155.5 2299.5,-155.5 2299.5,-136.5 2246.5,-136.5"/>
<text text-anchor="middle" x="2273" y="-143.5" font-family="Helvetica,sans-Serif" font-size="10.00">cxxabi.h</text>
</g>
<!-- Node18&#45;&gt;Node27 -->
<g id="edge33" class="edge"><title>Node18&#45;&gt;Node27</title>
<path fill="none" stroke="midnightblue" d="M1983.14,-198.464C2045.13,-189.716 2142.55,-174.993 2236.38,-155.974"/>
<polygon fill="midnightblue" stroke="midnightblue" points="2237.23,-159.373 2246.32,-153.939 2235.82,-152.515 2237.23,-159.373"/>
</g>
<!-- Node28 -->
<g id="node28" class="node"><title>Node28</title>
<polygon fill="none" stroke="#bfbfbf" points="2317.5,-136.5 2317.5,-155.5 2368.5,-155.5 2368.5,-136.5 2317.5,-136.5"/>
<text text-anchor="middle" x="2343" y="-143.5" font-family="Helvetica,sans-Serif" font-size="10.00">typeinfo</text>
</g>
<!-- Node18&#45;&gt;Node28 -->
<g id="edge34" class="edge"><title>Node18&#45;&gt;Node28</title>
<path fill="none" stroke="midnightblue" d="M1985.61,-200.823C2060.96,-193.181 2188.4,-178.581 2307.45,-155.88"/>
<polygon fill="midnightblue" stroke="midnightblue" points="2308.31,-159.278 2317.47,-153.946 2306.98,-152.405 2308.31,-159.278"/>
</g>
<!-- Node29 -->
<g id="node29" class="node"><title>Node29</title>
<polygon fill="none" stroke="#bfbfbf" points="2627,-136.5 2627,-155.5 2689,-155.5 2689,-136.5 2627,-136.5"/>
<text text-anchor="middle" x="2658" y="-143.5" font-family="Helvetica,sans-Serif" font-size="10.00">type_traits</text>
</g>
<!-- Node18&#45;&gt;Node29 -->
<g id="edge35" class="edge"><title>Node18&#45;&gt;Node29</title>
<path fill="none" stroke="midnightblue" d="M1985.73,-204.877C2109.15,-200.29 2383.79,-187.232 2613,-156 2614.11,-155.849 2615.22,-155.688 2616.35,-155.518"/>
<polygon fill="midnightblue" stroke="midnightblue" points="2617.33,-158.903 2626.61,-153.793 2616.17,-152 2617.33,-158.903"/>
</g>
<!-- Node30 -->
<g id="node30" class="node"><title>Node30</title>
<polygon fill="none" stroke="#bfbfbf" points="1378.5,-136.5 1378.5,-155.5 1419.5,-155.5 1419.5,-136.5 1378.5,-136.5"/>
<text text-anchor="middle" x="1399" y="-143.5" font-family="Helvetica,sans-Serif" font-size="10.00">string</text>
</g>
<!-- Node18&#45;&gt;Node30 -->
<g id="edge36" class="edge"><title>Node18&#45;&gt;Node30</title>
<path fill="none" stroke="midnightblue" d="M1854.11,-204.308C1761.17,-199.599 1586.3,-187.395 1430.05,-156.079"/>
<polygon fill="midnightblue" stroke="midnightblue" points="1430.28,-152.555 1419.78,-153.989 1428.88,-159.414 1430.28,-152.555"/>
</g>
<!-- Node31 -->
<g id="node31" class="node"><title>Node31</title>
<polygon fill="none" stroke="#bfbfbf" points="1437.5,-136.5 1437.5,-155.5 1508.5,-155.5 1508.5,-136.5 1437.5,-136.5"/>
<text text-anchor="middle" x="1473" y="-143.5" font-family="Helvetica,sans-Serif" font-size="10.00">TMessage.h</text>
</g>
<!-- Node18&#45;&gt;Node31 -->
<g id="edge37" class="edge"><title>Node18&#45;&gt;Node31</title>
<path fill="none" stroke="midnightblue" d="M1854.34,-200.123C1776.68,-191.663 1643.3,-176.113 1518.9,-156.043"/>
<polygon fill="midnightblue" stroke="midnightblue" points="1519.25,-152.554 1508.82,-154.403 1518.13,-159.463 1519.25,-152.554"/>
</g>
<!-- Node32 -->
<g id="node32" class="node"><title>Node32</title>
<g id="a_node32"><a xlink:href="../../de/d61/ShmManager_8h.html" target="_top" xlink:title="CommonUtils/ShmManager.h">
<polygon fill="none" stroke="black" points="2285,-74.5 2285,-93.5 2431,-93.5 2431,-74.5 2285,-74.5"/>
<text text-anchor="middle" x="2358" y="-81.5" font-family="Helvetica,sans-Serif" font-size="10.00">CommonUtils/ShmManager.h</text>
</a>
</g>
</g>
<!-- Node18&#45;&gt;Node32 -->
<g id="edge38" class="edge"><title>Node18&#45;&gt;Node32</title>
<path fill="none" stroke="midnightblue" d="M1910.57,-198.154C1896.23,-183.664 1872.29,-154.621 1889,-136 1914.23,-107.88 2146.71,-93.8018 2274.59,-88.1318"/>
<polygon fill="midnightblue" stroke="midnightblue" points="2274.91,-91.6215 2284.75,-87.6895 2274.6,-84.6281 2274.91,-91.6215"/>
</g>
<!-- Node18&#45;&gt;Node37 -->
<g id="edge43" class="edge"><title>Node18&#45;&gt;Node37</title>
<path fill="none" stroke="midnightblue" d="M1985.74,-200.176C2091.29,-189.219 2298.44,-167.716 2414.37,-155.682"/>
<polygon fill="midnightblue" stroke="midnightblue" points="2415.02,-159.132 2424.61,-154.619 2414.3,-152.17 2415.02,-159.132"/>
</g>
<!-- Node38 -->
<g id="node38" class="node"><title>Node38</title>
<polygon fill="none" stroke="#bfbfbf" points="2574.5,-74.5 2574.5,-93.5 2623.5,-93.5 2623.5,-74.5 2574.5,-74.5"/>
<text text-anchor="middle" x="2599" y="-81.5" font-family="Helvetica,sans-Serif" font-size="10.00">cassert</text>
</g>
<!-- Node18&#45;&gt;Node38 -->
<g id="edge48" class="edge"><title>Node18&#45;&gt;Node38</title>
<path fill="none" stroke="midnightblue" d="M1985.63,-206.169C2143.54,-203.576 2534.97,-193.408 2580,-156 2595.15,-143.412 2598.94,-120.188 2599.56,-103.732"/>
<polygon fill="midnightblue" stroke="midnightblue" points="2603.06,-103.643 2599.58,-93.635 2596.06,-103.627 2603.06,-103.643"/>
</g>
<!-- Node39 -->
<g id="node39" class="node"><title>Node39</title>
<polygon fill="none" stroke="#bfbfbf" points="1527,-136.5 1527,-155.5 1589,-155.5 1589,-136.5 1527,-136.5"/>
<text text-anchor="middle" x="1558" y="-143.5" font-family="Helvetica,sans-Serif" font-size="10.00">sys/shm.h</text>
</g>
<!-- Node18&#45;&gt;Node39 -->
<g id="edge46" class="edge"><title>Node18&#45;&gt;Node39</title>
<path fill="none" stroke="midnightblue" d="M1858.67,-198.482C1795.88,-189.493 1695.29,-174.345 1599.28,-156.151"/>
<polygon fill="midnightblue" stroke="midnightblue" points="1599.88,-152.703 1589.4,-154.266 1598.57,-159.579 1599.88,-152.703"/>
</g>
<!-- Node40 -->
<g id="node40" class="node"><title>Node40</title>
<polygon fill="none" stroke="#bfbfbf" points="1607.5,-136.5 1607.5,-155.5 1658.5,-155.5 1658.5,-136.5 1607.5,-136.5"/>
<text text-anchor="middle" x="1633" y="-143.5" font-family="Helvetica,sans-Serif" font-size="10.00">unistd.h</text>
</g>
<!-- Node18&#45;&gt;Node40 -->
<g id="edge47" class="edge"><title>Node18&#45;&gt;Node40</title>
<path fill="none" stroke="midnightblue" d="M1873.19,-198.433C1824.36,-189.302 1745.38,-173.991 1668.44,-156.237"/>
<polygon fill="midnightblue" stroke="midnightblue" points="1669.11,-152.801 1658.58,-153.946 1667.53,-159.619 1669.11,-152.801"/>
</g>
<!-- Node25&#45;&gt;Node4 -->
<g id="edge28" class="edge"><title>Node25&#45;&gt;Node4</title>
<path fill="none" stroke="midnightblue" d="M1687.02,-136.499C1577.72,-123.589 1373.67,-99.4883 1289.16,-89.5075"/>
<polygon fill="midnightblue" stroke="midnightblue" points="1289.57,-86.0314 1279.23,-88.3342 1288.75,-92.9831 1289.57,-86.0314"/>
</g>
<!-- Node25&#45;&gt;Node19 -->
<g id="edge29" class="edge"><title>Node25&#45;&gt;Node19</title>
<path fill="none" stroke="midnightblue" d="M1724.44,-136.467C1675.8,-124.456 1588.11,-102.805 1543.57,-91.8078"/>
<polygon fill="midnightblue" stroke="midnightblue" points="1544.28,-88.3781 1533.73,-89.3788 1542.6,-95.174 1544.28,-88.3781"/>
</g>
<!-- Node25&#45;&gt;Node21 -->
<g id="edge31" class="edge"><title>Node25&#45;&gt;Node21</title>
<path fill="none" stroke="midnightblue" d="M1790.66,-136.403C1829.56,-125.844 1895.64,-107.903 1938.55,-96.2538"/>
<polygon fill="midnightblue" stroke="midnightblue" points="1939.66,-99.5785 1948.39,-93.5806 1937.83,-92.823 1939.66,-99.5785"/>
</g>
<!-- Node26 -->
<g id="node26" class="node"><title>Node26</title>
<polygon fill="none" stroke="#bfbfbf" points="1717.5,-74.5 1717.5,-93.5 1800.5,-93.5 1800.5,-74.5 1717.5,-74.5"/>
<text text-anchor="middle" x="1759" y="-81.5" font-family="Helvetica,sans-Serif" font-size="10.00">unordered_map</text>
</g>
<!-- Node25&#45;&gt;Node26 -->
<g id="edge30" class="edge"><title>Node25&#45;&gt;Node26</title>
<path fill="none" stroke="midnightblue" d="M1759,-136.403C1759,-127.938 1759,-114.728 1759,-103.82"/>
<polygon fill="midnightblue" stroke="midnightblue" points="1762.5,-103.581 1759,-93.5806 1755.5,-103.581 1762.5,-103.581"/>
</g>
<!-- Node33 -->
<g id="node33" class="node"><title>Node33</title>
<polygon fill="none" stroke="#bfbfbf" points="2389.5,-6.5 2389.5,-25.5 2418.5,-25.5 2418.5,-6.5 2389.5,-6.5"/>
<text text-anchor="middle" x="2404" y="-13.5" font-family="Helvetica,sans-Serif" font-size="10.00">list</text>
</g>
<!-- Node32&#45;&gt;Node33 -->
<g id="edge39" class="edge"><title>Node32&#45;&gt;Node33</title>
<path fill="none" stroke="midnightblue" d="M2364.01,-74.3717C2371.07,-64.2495 2382.94,-47.2154 2391.92,-34.3312"/>
<polygon fill="midnightblue" stroke="midnightblue" points="2394.99,-36.0464 2397.84,-25.8411 2389.25,-32.0438 2394.99,-36.0464"/>
</g>
<!-- Node34 -->
<g id="node34" class="node"><title>Node34</title>
<polygon fill="none" stroke="#bfbfbf" points="2436.5,-6.5 2436.5,-25.5 2485.5,-25.5 2485.5,-6.5 2436.5,-6.5"/>
<text text-anchor="middle" x="2461" y="-13.5" font-family="Helvetica,sans-Serif" font-size="10.00">cstddef</text>
</g>
<!-- Node32&#45;&gt;Node34 -->
<g id="edge40" class="edge"><title>Node32&#45;&gt;Node34</title>
<path fill="none" stroke="midnightblue" d="M2371.47,-74.3717C2388.58,-63.4027 2418.37,-44.317 2438.85,-31.1912"/>
<polygon fill="midnightblue" stroke="midnightblue" points="2441,-33.9726 2447.53,-25.6305 2437.22,-28.0788 2441,-33.9726"/>
</g>
<!-- Node35 -->
<g id="node35" class="node"><title>Node35</title>
<polygon fill="none" stroke="#bfbfbf" points="2086,-1 2086,-31 2234,-31 2234,-1 2086,-1"/>
<text text-anchor="start" x="2094" y="-19" font-family="Helvetica,sans-Serif" font-size="10.00">boost/interprocess</text>
<text text-anchor="middle" x="2160" y="-8" font-family="Helvetica,sans-Serif" font-size="10.00">/managed_external_buffer.hpp</text>
</g>
<!-- Node32&#45;&gt;Node35 -->
<g id="edge41" class="edge"><title>Node32&#45;&gt;Node35</title>
<path fill="none" stroke="midnightblue" d="M2332.11,-74.3717C2301.67,-64.2249 2250.4,-47.1327 2211.71,-34.2375"/>
<polygon fill="midnightblue" stroke="midnightblue" points="2212.76,-30.8982 2202.17,-31.0562 2210.55,-37.539 2212.76,-30.8982"/>
</g>
<!-- Node36 -->
<g id="node36" class="node"><title>Node36</title>
<polygon fill="none" stroke="#bfbfbf" points="2252,-1 2252,-31 2372,-31 2372,-1 2252,-1"/>
<text text-anchor="start" x="2260" y="-19" font-family="Helvetica,sans-Serif" font-size="10.00">boost/interprocess</text>
<text text-anchor="middle" x="2312" y="-8" font-family="Helvetica,sans-Serif" font-size="10.00">/allocators/allocator.hpp</text>
</g>
<!-- Node32&#45;&gt;Node36 -->
<g id="edge42" class="edge"><title>Node32&#45;&gt;Node36</title>
<path fill="none" stroke="midnightblue" d="M2351.99,-74.3717C2345.83,-65.5429 2336.01,-51.4557 2327.65,-39.4503"/>
<polygon fill="midnightblue" stroke="midnightblue" points="2330.47,-37.3842 2321.88,-31.1815 2324.73,-41.3867 2330.47,-37.3842"/>
</g>
<!-- Node37&#45;&gt;Node32 -->
<g id="edge44" class="edge"><title>Node37&#45;&gt;Node32</title>
<path fill="none" stroke="midnightblue" d="M2477.94,-136.403C2454.24,-126.245 2414.59,-109.255 2387.42,-97.6074"/>
<polygon fill="midnightblue" stroke="midnightblue" points="2388.59,-94.3028 2378.02,-93.5806 2385.83,-100.737 2388.59,-94.3028"/>
</g>
<!-- Node37&#45;&gt;Node38 -->
<g id="edge45" class="edge"><title>Node37&#45;&gt;Node38</title>
<path fill="none" stroke="midnightblue" d="M2512.47,-136.403C2529.05,-126.557 2556.43,-110.291 2575.95,-98.6949"/>
<polygon fill="midnightblue" stroke="midnightblue" points="2577.75,-101.697 2584.56,-93.5806 2574.17,-95.6789 2577.75,-101.697"/>
</g>
<!-- Node41&#45;&gt;Node4 -->
<g id="edge50" class="edge"><title>Node41&#45;&gt;Node4</title>
<path fill="none" stroke="midnightblue" d="M1245.88,-198.274C1233.72,-189.313 1216.41,-174.137 1209,-156 1200.73,-135.752 1217.27,-114.395 1231.97,-100.457"/>
<polygon fill="midnightblue" stroke="midnightblue" points="1234.62,-102.787 1239.77,-93.532 1229.97,-97.5514 1234.62,-102.787"/>
</g>
<!-- Node42 -->
<g id="node42" class="node"><title>Node42</title>
<polygon fill="none" stroke="#bfbfbf" points="1218.5,-136.5 1218.5,-155.5 1283.5,-155.5 1283.5,-136.5 1218.5,-136.5"/>
<text text-anchor="middle" x="1251" y="-143.5" font-family="Helvetica,sans-Serif" font-size="10.00">TVector3.h</text>
</g>
<!-- Node41&#45;&gt;Node42 -->
<g id="edge51" class="edge"><title>Node41&#45;&gt;Node42</title>
<path fill="none" stroke="midnightblue" d="M1257.85,-198.403C1256.73,-189.938 1254.96,-176.728 1253.51,-165.82"/>
<polygon fill="midnightblue" stroke="midnightblue" points="1256.94,-165.03 1252.14,-155.581 1250,-165.955 1256.94,-165.03"/>
</g>
<!-- Node43&#45;&gt;Node29 -->
<g id="edge58" class="edge"><title>Node43&#45;&gt;Node29</title>
<path fill="none" stroke="midnightblue" d="M2725.15,-192.781C2711.22,-183.286 2692.97,-170.843 2679.01,-161.327"/>
<polygon fill="midnightblue" stroke="midnightblue" points="2680.78,-158.297 2670.55,-155.556 2676.84,-164.081 2680.78,-158.297"/>
</g>
<!-- Node43&#45;&gt;Node38 -->
<g id="edge55" class="edge"><title>Node43&#45;&gt;Node38</title>
<path fill="none" stroke="midnightblue" d="M2739,-192.945C2730.71,-177.423 2715.64,-152.455 2697,-136 2677.97,-119.2 2652.43,-106.14 2632.19,-97.4432"/>
<polygon fill="midnightblue" stroke="midnightblue" points="2633.31,-94.1192 2622.73,-93.527 2630.63,-100.587 2633.31,-94.1192"/>
</g>
<!-- Node44 -->
<g id="node44" class="node"><title>Node44</title>
<polygon fill="none" stroke="#bfbfbf" points="2745,-136.5 2745,-155.5 2807,-155.5 2807,-136.5 2745,-136.5"/>
<text text-anchor="middle" x="2776" y="-143.5" font-family="Helvetica,sans-Serif" font-size="10.00">TNamed.h</text>
</g>
<!-- Node43&#45;&gt;Node44 -->
<g id="edge54" class="edge"><title>Node43&#45;&gt;Node44</title>
<path fill="none" stroke="midnightblue" d="M2753.11,-192.781C2757.29,-184.422 2762.61,-173.777 2767.07,-164.856"/>
<polygon fill="midnightblue" stroke="midnightblue" points="2770.29,-166.24 2771.63,-155.731 2764.03,-163.11 2770.29,-166.24"/>
</g>
<!-- Node45 -->
<g id="node45" class="node"><title>Node45</title>
<polygon fill="none" stroke="#bfbfbf" points="2825.5,-136.5 2825.5,-155.5 2884.5,-155.5 2884.5,-136.5 2825.5,-136.5"/>
<text text-anchor="middle" x="2855" y="-143.5" font-family="Helvetica,sans-Serif" font-size="10.00">stdexcept</text>
</g>
<!-- Node43&#45;&gt;Node45 -->
<g id="edge56" class="edge"><title>Node43&#45;&gt;Node45</title>
<path fill="none" stroke="midnightblue" d="M2771.56,-192.933C2789.29,-183.171 2812.78,-170.24 2830.32,-160.586"/>
<polygon fill="midnightblue" stroke="midnightblue" points="2832.3,-163.489 2839.38,-155.6 2828.93,-157.356 2832.3,-163.489"/>
</g>
<!-- Node46 -->
<g id="node46" class="node"><title>Node46</title>
<polygon fill="none" stroke="#bfbfbf" points="2902.5,-136.5 2902.5,-155.5 2947.5,-155.5 2947.5,-136.5 2902.5,-136.5"/>
<text text-anchor="middle" x="2925" y="-143.5" font-family="Helvetica,sans-Serif" font-size="10.00">gsl/gsl</text>
</g>
<!-- Node43&#45;&gt;Node46 -->
<g id="edge57" class="edge"><title>Node43&#45;&gt;Node46</title>
<path fill="none" stroke="midnightblue" d="M2787.97,-192.933C2819.95,-182.212 2863.34,-167.668 2892.66,-157.84"/>
<polygon fill="midnightblue" stroke="midnightblue" points="2894.03,-161.072 2902.4,-154.575 2891.81,-154.435 2894.03,-161.072"/>
</g>
<!-- Node47&#45;&gt;Node4 -->
<g id="edge60" class="edge"><title>Node47&#45;&gt;Node4</title>
<path fill="none" stroke="midnightblue" d="M899.91,-192.84C907.646,-176.229 922.877,-149.275 945,-136 1048.43,-73.9363 1097.4,-130.904 1214,-100 1216.99,-99.2086 1220.05,-98.2382 1223.08,-97.1751"/>
<polygon fill="midnightblue" stroke="midnightblue" points="1224.41,-100.417 1232.49,-93.5691 1221.9,-93.8804 1224.41,-100.417"/>
</g>
<!-- Node48&#45;&gt;Node47 -->
<g id="edge62" class="edge"><title>Node48&#45;&gt;Node47</title>
<path fill="none" stroke="midnightblue" d="M919.702,-260.403C916.018,-253.037 910.539,-242.077 905.584,-232.168"/>
<polygon fill="midnightblue" stroke="midnightblue" points="908.673,-230.52 901.07,-223.141 902.412,-233.65 908.673,-230.52"/>
</g>
</g>
</svg>
