<?xml version="1.0" encoding="UTF-8" standalone="no"?>
<!DOCTYPE svg PUBLIC "-//W3C//DTD SVG 1.1//EN"
 "http://www.w3.org/Graphics/SVG/1.1/DTD/svg11.dtd">
<!-- Generated by graphviz version 2.36.0 (20140111.2315)
 -->
<!-- Title: o2::DataFlow::TimeframeReaderDevice Pages: 1 -->
<!--zoomable 388 -->
<svg id="main" version="1.1" xmlns="http://www.w3.org/2000/svg" xmlns:xlink="http://www.w3.org/1999/xlink" xml:space="preserve" onload="init(evt)">
<style type="text/css"><![CDATA[
.edge:hover path { stroke: red; }
.edge:hover polygon { stroke: red; fill: red; }
]]></style>
<script type="text/javascript"><![CDATA[
var edges = document.getElementsByTagName('g');
if (edges && edges.length) {
  for (var i=0;i<edges.length;i++) {
    if (edges[i].id.substr(0,4)=='edge') {
      edges[i].setAttribute('class','edge');
    }
  }
}
]]></script>
        <defs>
                <circle id="rim" cx="0" cy="0" r="7"/>
                <circle id="rim2" cx="0" cy="0" r="3.5"/>
                <g id="zoomPlus">
                        <use xlink:href="#rim" fill="#404040">
                                <set attributeName="fill" to="#808080" begin="zoomplus.mouseover" end="zoomplus.mouseout"/>
                        </use>
                        <path d="M-4,0h8M0,-4v8" fill="none" stroke="white" stroke-width="1.5" pointer-events="none"/>
                </g>
                <g id="zoomMin">
                        <use xlink:href="#rim" fill="#404040">
                                <set attributeName="fill" to="#808080" begin="zoomminus.mouseover" end="zoomminus.mouseout"/>
                        </use>
                        <path d="M-4,0h8" fill="none" stroke="white" stroke-width="1.5" pointer-events="none"/>
                </g>
                <g id="dirArrow">
                        <path fill="none" stroke="white" stroke-width="1.5" d="M0,-3.0v7 M-2.5,-0.5L0,-3.0L2.5,-0.5"/>
                </g>
               <g id="resetDef">
                       <use xlink:href="#rim2" fill="#404040">
                               <set attributeName="fill" to="#808080" begin="reset.mouseover" end="reset.mouseout"/>
                       </use>
               </g>
        </defs>

<script type="text/javascript">
var viewWidth = 508;
var viewHeight = 388;
var sectionId = 'dynsection-1';
</script>
<script xlink:href="../../svgpan.js"/>
<svg id="graph" class="graph">
<g id="viewport">
<title>o2::DataFlow::TimeframeReaderDevice</title>
<!-- Node1 -->
<g id="node1" class="node"><title>Node1</title>
<polygon fill="#bfbfbf" stroke="black" points="182.5,-0.5 182.5,-101.5 341.5,-101.5 341.5,-0.5 182.5,-0.5"/>
<text text-anchor="start" x="190.5" y="-89.5" font-family="Helvetica,sans-Serif" font-size="10.00">o2::DataFlow::TimeframeReader</text>
<text text-anchor="middle" x="262" y="-78.5" font-family="Helvetica,sans-Serif" font-size="10.00">Device</text>
<polyline fill="none" stroke="black" points="182.5,-71.5 341.5,-71.5 "/>
<text text-anchor="middle" x="262" y="-59.5" font-family="Helvetica,sans-Serif" font-size="10.00"> </text>
<polyline fill="none" stroke="black" points="182.5,-52.5 341.5,-52.5 "/>
<text text-anchor="start" x="190.5" y="-40.5" font-family="Helvetica,sans-Serif" font-size="10.00">+ TimeframeReaderDevice()</text>
<text text-anchor="start" x="190.5" y="-29.5" font-family="Helvetica,sans-Serif" font-size="10.00">+ ~TimeframeReaderDevice()</text>
<text text-anchor="start" x="190.5" y="-18.5" font-family="Helvetica,sans-Serif" font-size="10.00">+ InitTask()</text>
<text text-anchor="start" x="190.5" y="-7.5" font-family="Helvetica,sans-Serif" font-size="10.00"># ConditionalRun()</text>
</g>
<!-- Node2 -->
<g id="node2" class="node"><title>Node2</title>
<g id="a_node2"><a xlink:href="../../da/df6/classo2_1_1Base_1_1O2Device.html" target="_top" xlink:title="{o2::Base::O2Device\n||+ ~O2Device()\l+ GetMonitoring()\l+ Init()\l}">
<polygon fill="none" stroke="black" points="49.5,-182.5 49.5,-261.5 154.5,-261.5 154.5,-182.5 49.5,-182.5"/>
<text text-anchor="middle" x="102" y="-249.5" font-family="Helvetica,sans-Serif" font-size="10.00">o2::Base::O2Device</text>
<polyline fill="none" stroke="black" points="49.5,-242.5 154.5,-242.5 "/>
<text text-anchor="middle" x="102" y="-230.5" font-family="Helvetica,sans-Serif" font-size="10.00"> </text>
<polyline fill="none" stroke="black" points="49.5,-223.5 154.5,-223.5 "/>
<text text-anchor="start" x="57.5" y="-211.5" font-family="Helvetica,sans-Serif" font-size="10.00">+ ~O2Device()</text>
<text text-anchor="start" x="57.5" y="-200.5" font-family="Helvetica,sans-Serif" font-size="10.00">+ GetMonitoring()</text>
<text text-anchor="start" x="57.5" y="-189.5" font-family="Helvetica,sans-Serif" font-size="10.00">+ Init()</text>
</a>
</g>
</g>
<!-- Node2&#45;&gt;Node1 -->
<g id="edge1" class="edge"><title>Node2&#45;&gt;Node1</title>
<path fill="none" stroke="midnightblue" d="M145.816,-174.719C167.313,-152.013 193.227,-124.641 215.121,-101.516"/>
<polygon fill="none" stroke="midnightblue" points="143.041,-172.56 138.707,-182.228 148.124,-177.372 143.041,-172.56"/>
</g>
<!-- Node3 -->
<g id="node3" class="node"><title>Node3</title>
<g id="a_node3"><a xlink:href="../../db/dfe/classFairMQDevice.html" target="_top" xlink:title="{FairMQDevice\n||}">
<polygon fill="none" stroke="black" points="0,-316.5 0,-373.5 80,-373.5 80,-316.5 0,-316.5"/>
<text text-anchor="middle" x="40" y="-361.5" font-family="Helvetica,sans-Serif" font-size="10.00">FairMQDevice</text>
<polyline fill="none" stroke="black" points="0,-354.5 80,-354.5 "/>
<text text-anchor="middle" x="40" y="-342.5" font-family="Helvetica,sans-Serif" font-size="10.00"> </text>
<polyline fill="none" stroke="black" points="0,-335.5 80,-335.5 "/>
<text text-anchor="middle" x="40" y="-323.5" font-family="Helvetica,sans-Serif" font-size="10.00"> </text>
</a>
</g>
</g>
<!-- Node3&#45;&gt;Node2 -->
<g id="edge2" class="edge"><title>Node3&#45;&gt;Node2</title>
<path fill="none" stroke="midnightblue" d="M58.8953,-307.124C66.275,-292.721 74.7403,-276.2 82.2043,-261.633"/>
<polygon fill="none" stroke="midnightblue" points="55.6694,-305.744 54.2241,-316.24 61.8992,-308.937 55.6694,-305.744"/>
</g>
<!-- Node4 -->
<g id="node4" class="node"><title>Node4</title>
<polygon fill="none" stroke="#bfbfbf" points="98,-311 98,-379 230,-379 230,-311 98,-311"/>
<text text-anchor="start" x="106" y="-367" font-family="Helvetica,sans-Serif" font-size="10.00">unique_ptr&lt; o2::monitoring</text>
<text text-anchor="middle" x="164" y="-356" font-family="Helvetica,sans-Serif" font-size="10.00">::Monitoring &gt;</text>
<polyline fill="none" stroke="#bfbfbf" points="98,-349 230,-349 "/>
<text text-anchor="middle" x="164" y="-337" font-family="Helvetica,sans-Serif" font-size="10.00"> </text>
<polyline fill="none" stroke="#bfbfbf" points="98,-330 230,-330 "/>
<text text-anchor="middle" x="164" y="-318" font-family="Helvetica,sans-Serif" font-size="10.00"> </text>
</g>
<!-- Node4&#45;&gt;Node2 -->
<g id="edge3" class="edge"><title>Node4&#45;&gt;Node2</title>
<path fill="none" stroke="#404040" d="M147.058,-310.936C140.952,-299.019 133.922,-285.3 127.259,-272.296"/>
<polygon fill="none" stroke="#404040" points="127.249,-272.277 120.953,-268.761 121.777,-261.597 128.073,-265.113 127.249,-272.277"/>
<text text-anchor="middle" x="164.5" y="-283.5" font-family="Helvetica,sans-Serif" font-size="10.00"> +monitoring</text>
</g>
<!-- Node5 -->
<g id="node5" class="node"><title>Node5</title>
<polygon fill="none" stroke="#bfbfbf" points="172.5,-193.5 172.5,-250.5 277.5,-250.5 277.5,-193.5 172.5,-193.5"/>
<text text-anchor="middle" x="225" y="-238.5" font-family="Helvetica,sans-Serif" font-size="10.00">vector&lt; std::string &gt;</text>
<polyline fill="none" stroke="#bfbfbf" points="172.5,-231.5 277.5,-231.5 "/>
<text text-anchor="middle" x="225" y="-219.5" font-family="Helvetica,sans-Serif" font-size="10.00"> </text>
<polyline fill="none" stroke="#bfbfbf" points="172.5,-212.5 277.5,-212.5 "/>
<text text-anchor="middle" x="225" y="-200.5" font-family="Helvetica,sans-Serif" font-size="10.00"> </text>
</g>
<!-- Node5&#45;&gt;Node1 -->
<g id="edge4" class="edge"><title>Node5&#45;&gt;Node1</title>
<path fill="none" stroke="#404040" d="M226.98,-193.281C228.823,-172.827 232.187,-144.423 238,-120 238.51,-117.855 239.064,-115.684 239.653,-113.5"/>
<polygon fill="none" stroke="#404040" points="239.714,-113.291 237.562,-106.408 243.087,-101.774 245.239,-108.657 239.714,-113.291"/>
<text text-anchor="middle" x="258" y="-139.5" font-family="Helvetica,sans-Serif" font-size="10.00"> #mSeen</text>
</g>
<!-- Node6 -->
<g id="node6" class="node"><title>Node6</title>
<polygon fill="none" stroke="#bfbfbf" points="295.5,-193.5 295.5,-250.5 330.5,-250.5 330.5,-193.5 295.5,-193.5"/>
<text text-anchor="middle" x="313" y="-238.5" font-family="Helvetica,sans-Serif" font-size="10.00">char</text>
<polyline fill="none" stroke="#bfbfbf" points="295.5,-231.5 330.5,-231.5 "/>
<text text-anchor="middle" x="313" y="-219.5" font-family="Helvetica,sans-Serif" font-size="10.00"> </text>
<polyline fill="none" stroke="#bfbfbf" points="295.5,-212.5 330.5,-212.5 "/>
<text text-anchor="middle" x="313" y="-200.5" font-family="Helvetica,sans-Serif" font-size="10.00"> </text>
</g>
<!-- Node6&#45;&gt;Node1 -->
<g id="edge5" class="edge"><title>Node6&#45;&gt;Node1</title>
<path fill="none" stroke="#404040" d="M304.692,-193.471C298.148,-171.783 288.775,-140.724 280.477,-113.229"/>
<polygon fill="none" stroke="#404040" points="280.466,-113.19 274.903,-108.601 276.999,-101.702 282.562,-106.29 280.466,-113.19"/>
<text text-anchor="middle" x="369.5" y="-156" font-family="Helvetica,sans-Serif" font-size="10.00"> +OptionKeyOutputChannelName</text>
<text text-anchor="middle" x="369.5" y="-145" font-family="Helvetica,sans-Serif" font-size="10.00">#mOutChannelName</text>
<text text-anchor="middle" x="369.5" y="-134" font-family="Helvetica,sans-Serif" font-size="10.00">#mInFileName</text>
<text text-anchor="middle" x="369.5" y="-123" font-family="Helvetica,sans-Serif" font-size="10.00">+OptionKeyInputFileName</text>
</g>
<!-- Node7 -->
<g id="node7" class="node"><title>Node7</title>
<polygon fill="none" stroke="#bfbfbf" points="445,-193.5 445,-250.5 495,-250.5 495,-193.5 445,-193.5"/>
<text text-anchor="middle" x="470" y="-238.5" font-family="Helvetica,sans-Serif" font-size="10.00">fstream</text>
<polyline fill="none" stroke="#bfbfbf" points="445,-231.5 495,-231.5 "/>
<text text-anchor="middle" x="470" y="-219.5" font-family="Helvetica,sans-Serif" font-size="10.00"> </text>
<polyline fill="none" stroke="#bfbfbf" points="445,-212.5 495,-212.5 "/>
<text text-anchor="middle" x="470" y="-200.5" font-family="Helvetica,sans-Serif" font-size="10.00"> </text>
</g>
<!-- Node7&#45;&gt;Node1 -->
<g id="edge6" class="edge"><title>Node7&#45;&gt;Node1</title>
<path fill="none" stroke="#404040" d="M470.578,-193.363C469.582,-171.037 464.693,-140.123 447,-120 423.049,-92.7594 387.213,-76.4189 353.442,-66.6223"/>
<polygon fill="none" stroke="#404040" points="353.19,-66.5542 346.354,-68.85 341.606,-63.4229 348.442,-61.1271 353.19,-66.5542"/>
<text text-anchor="middle" x="483.5" y="-139.5" font-family="Helvetica,sans-Serif" font-size="10.00"> #mFile</text>
</g>
</g>
</svg>
        <g id="navigator" transform="translate(0 0)" fill="#404254">
                <rect fill="#f2f5e9" fill-opacity="0.5" stroke="#606060" stroke-width=".5" x="0" y="0" width="60" height="60"/>
                <use id="zoomplus" xlink:href="#zoomPlus" x="17" y="9" onmousedown="handleZoom(evt,'in')"/>
                <use id="zoomminus" xlink:href="#zoomMin" x="42" y="9" onmousedown="handleZoom(evt,'out')"/>
                <use id="reset" xlink:href="#resetDef" x="30" y="36" onmousedown="handleReset()"/>
                <g id="arrowUp" xlink:href="#dirArrow" transform="translate(30 24)" onmousedown="handlePan(0,-1)">
                  <use xlink:href="#rim" fill="#404040">
                        <set attributeName="fill" to="#808080" begin="arrowUp.mouseover" end="arrowUp.mouseout"/>
                  </use>
                  <path fill="none" stroke="white" stroke-width="1.5" d="M0,-3.0v7 M-2.5,-0.5L0,-3.0L2.5,-0.5"/>
                </g>
                <g id="arrowRight" xlink:href="#dirArrow" transform="rotate(90) translate(36 -43)" onmousedown="handlePan(1,0)">
                  <use xlink:href="#rim" fill="#404040">
                        <set attributeName="fill" to="#808080" begin="arrowRight.mouseover" end="arrowRight.mouseout"/>
                  </use>
                  <path fill="none" stroke="white" stroke-width="1.5" d="M0,-3.0v7 M-2.5,-0.5L0,-3.0L2.5,-0.5"/>
                </g>
                <g id="arrowDown" xlink:href="#dirArrow" transform="rotate(180) translate(-30 -48)" onmousedown="handlePan(0,1)">
                  <use xlink:href="#rim" fill="#404040">
                        <set attributeName="fill" to="#808080" begin="arrowDown.mouseover" end="arrowDown.mouseout"/>
                  </use>
                  <path fill="none" stroke="white" stroke-width="1.5" d="M0,-3.0v7 M-2.5,-0.5L0,-3.0L2.5,-0.5"/>
                </g>
                <g id="arrowLeft" xlink:href="#dirArrow" transform="rotate(270) translate(-36 17)" onmousedown="handlePan(-1,0)">
                  <use xlink:href="#rim" fill="#404040">
                        <set attributeName="fill" to="#808080" begin="arrowLeft.mouseover" end="arrowLeft.mouseout"/>
                  </use>
                  <path fill="none" stroke="white" stroke-width="1.5" d="M0,-3.0v7 M-2.5,-0.5L0,-3.0L2.5,-0.5"/>
                </g>
        </g>
        <svg viewBox="0 0 15 15" width="100%" height="30px" preserveAspectRatio="xMaxYMin meet">
         <g id="arrow_out" transform="scale(0.3 0.3)">
          <a xlink:href="classo2_1_1DataFlow_1_1TimeframeReaderDevice__coll__graph_org.svg" target="_base">
           <rect id="button" ry="5" rx="5" y="6" x="6" height="38" width="38"
                fill="#f2f5e9" fill-opacity="0.5" stroke="#606060" stroke-width="1.0"/>
           <path id="arrow"
             d="M 11.500037,31.436501 C 11.940474,20.09759 22.043105,11.32322 32.158766,21.979434 L 37.068811,17.246167 C 37.068811,17.246167 37.088388,32 37.088388,32 L 22.160133,31.978069 C 22.160133,31.978069 26.997745,27.140456 26.997745,27.140456 C 18.528582,18.264221 13.291696,25.230495 11.500037,31.436501 z"
             style="fill:#404040;"/>
          </a>
         </g>
        </svg>
</svg>
