<?xml version="1.0" encoding="UTF-8" standalone="no"?>
<!DOCTYPE svg PUBLIC "-//W3C//DTD SVG 1.1//EN"
 "http://www.w3.org/Graphics/SVG/1.1/DTD/svg11.dtd">
<!-- Generated by graphviz version 2.36.0 (20140111.2315)
 -->
<!-- Title: /home/travis/build/AliceO2Group/AliceO2/Framework/Core/include/Framework/CallbackRegistry.h Pages: 1 -->
<svg width="2975pt" height="422pt"
 viewBox="0.00 0.00 2975.00 422.00" xmlns="http://www.w3.org/2000/svg" xmlns:xlink="http://www.w3.org/1999/xlink">
<g id="graph0" class="graph" transform="scale(1 1) rotate(0) translate(4 418)">
<title>/home/travis/build/AliceO2Group/AliceO2/Framework/Core/include/Framework/CallbackRegistry.h</title>
<!-- Node1 -->
<g id="node1" class="node"><title>Node1</title>
<polygon fill="#bfbfbf" stroke="black" points="1580.5,-361 1580.5,-413 1735.5,-413 1735.5,-361 1580.5,-361"/>
<text text-anchor="start" x="1588.5" y="-401" font-family="Helvetica,sans-Serif" font-size="10.00">/home/travis/build</text>
<text text-anchor="start" x="1588.5" y="-390" font-family="Helvetica,sans-Serif" font-size="10.00">/AliceO2Group/AliceO2</text>
<text text-anchor="start" x="1588.5" y="-379" font-family="Helvetica,sans-Serif" font-size="10.00">/Framework/Core/include</text>
<text text-anchor="middle" x="1658" y="-368" font-family="Helvetica,sans-Serif" font-size="10.00">/Framework/CallbackRegistry.h</text>
</g>
<!-- Node2 -->
<g id="node2" class="node"><title>Node2</title>
<g id="a_node2"><a xlink:href="../../d9/d7f/CallbackService_8h.html" target="_top" xlink:title="/home/travis/build\l/AliceO2Group/AliceO2\l/Framework/Core/include\l/Framework/CallbackService.h">
<polygon fill="none" stroke="black" points="1503.5,-271 1503.5,-323 1654.5,-323 1654.5,-271 1503.5,-271"/>
<text text-anchor="start" x="1511.5" y="-311" font-family="Helvetica,sans-Serif" font-size="10.00">/home/travis/build</text>
<text text-anchor="start" x="1511.5" y="-300" font-family="Helvetica,sans-Serif" font-size="10.00">/AliceO2Group/AliceO2</text>
<text text-anchor="start" x="1511.5" y="-289" font-family="Helvetica,sans-Serif" font-size="10.00">/Framework/Core/include</text>
<text text-anchor="middle" x="1579" y="-278" font-family="Helvetica,sans-Serif" font-size="10.00">/Framework/CallbackService.h</text>
</a>
</g>
</g>
<!-- Node1&#45;&gt;Node2 -->
<g id="edge1" class="edge"><title>Node1&#45;&gt;Node2</title>
<path fill="none" stroke="midnightblue" d="M1628.24,-352.846C1619.38,-342.985 1609.84,-332.349 1601.53,-323.092"/>
<polygon fill="midnightblue" stroke="midnightblue" points="1625.87,-355.443 1635.15,-360.547 1631.07,-350.767 1625.87,-355.443"/>
</g>
<!-- Node25 -->
<g id="node25" class="node"><title>Node25</title>
<g id="a_node25"><a xlink:href="../../d5/d79/test__CallbackRegistry_8cxx.html" target="_top" xlink:title="/home/travis/build\l/AliceO2Group/AliceO2\l/Framework/Core/test/test\l_CallbackRegistry.cxx">
<polygon fill="none" stroke="black" points="1672.5,-271 1672.5,-323 1803.5,-323 1803.5,-271 1672.5,-271"/>
<text text-anchor="start" x="1680.5" y="-311" font-family="Helvetica,sans-Serif" font-size="10.00">/home/travis/build</text>
<text text-anchor="start" x="1680.5" y="-300" font-family="Helvetica,sans-Serif" font-size="10.00">/AliceO2Group/AliceO2</text>
<text text-anchor="start" x="1680.5" y="-289" font-family="Helvetica,sans-Serif" font-size="10.00">/Framework/Core/test/test</text>
<text text-anchor="middle" x="1738" y="-278" font-family="Helvetica,sans-Serif" font-size="10.00">_CallbackRegistry.cxx</text>
</a>
</g>
</g>
<!-- Node1&#45;&gt;Node25 -->
<g id="edge25" class="edge"><title>Node1&#45;&gt;Node25</title>
<path fill="none" stroke="midnightblue" d="M1687.87,-353.139C1696.91,-343.196 1706.69,-332.441 1715.19,-323.092"/>
<polygon fill="midnightblue" stroke="midnightblue" points="1685.28,-350.793 1681.14,-360.547 1690.46,-355.502 1685.28,-350.793"/>
</g>
<!-- Node3 -->
<g id="node3" class="node"><title>Node3</title>
<g id="a_node3"><a xlink:href="../../db/dac/DataProcessingDevice_8cxx.html" target="_top" xlink:title="/home/travis/build\l/AliceO2Group/AliceO2\l/Framework/Core/src/DataProcessing\lDevice.cxx">
<polygon fill="none" stroke="black" points="0,-181 0,-233 182,-233 182,-181 0,-181"/>
<text text-anchor="start" x="8" y="-221" font-family="Helvetica,sans-Serif" font-size="10.00">/home/travis/build</text>
<text text-anchor="start" x="8" y="-210" font-family="Helvetica,sans-Serif" font-size="10.00">/AliceO2Group/AliceO2</text>
<text text-anchor="start" x="8" y="-199" font-family="Helvetica,sans-Serif" font-size="10.00">/Framework/Core/src/DataProcessing</text>
<text text-anchor="middle" x="91" y="-188" font-family="Helvetica,sans-Serif" font-size="10.00">Device.cxx</text>
</a>
</g>
</g>
<!-- Node2&#45;&gt;Node3 -->
<g id="edge2" class="edge"><title>Node2&#45;&gt;Node3</title>
<path fill="none" stroke="midnightblue" d="M1493.11,-294.522C1231.02,-289.638 444.031,-272.113 191,-234 188.073,-233.559 185.108,-233.067 182.122,-232.532"/>
<polygon fill="midnightblue" stroke="midnightblue" points="1493.26,-298.025 1503.33,-294.71 1493.39,-291.026 1493.26,-298.025"/>
</g>
<!-- Node4 -->
<g id="node4" class="node"><title>Node4</title>
<g id="a_node4"><a xlink:href="../../d0/d9f/DataSourceDevice_8cxx.html" target="_top" xlink:title="/home/travis/build\l/AliceO2Group/AliceO2\l/Framework/Core/src/DataSource\lDevice.cxx">
<polygon fill="none" stroke="black" points="200,-181 200,-233 364,-233 364,-181 200,-181"/>
<text text-anchor="start" x="208" y="-221" font-family="Helvetica,sans-Serif" font-size="10.00">/home/travis/build</text>
<text text-anchor="start" x="208" y="-210" font-family="Helvetica,sans-Serif" font-size="10.00">/AliceO2Group/AliceO2</text>
<text text-anchor="start" x="208" y="-199" font-family="Helvetica,sans-Serif" font-size="10.00">/Framework/Core/src/DataSource</text>
<text text-anchor="middle" x="282" y="-188" font-family="Helvetica,sans-Serif" font-size="10.00">Device.cxx</text>
</a>
</g>
</g>
<!-- Node2&#45;&gt;Node4 -->
<g id="edge3" class="edge"><title>Node2&#45;&gt;Node4</title>
<path fill="none" stroke="midnightblue" d="M1493.05,-294.115C1254.72,-288.484 588.88,-269.91 373,-234 370.083,-233.515 367.125,-232.969 364.149,-232.374"/>
<polygon fill="midnightblue" stroke="midnightblue" points="1493.31,-297.622 1503.39,-294.357 1493.48,-290.624 1493.31,-297.622"/>
</g>
<!-- Node5 -->
<g id="node5" class="node"><title>Node5</title>
<g id="a_node5"><a xlink:href="../../d7/d54/runDataProcessing_8cxx.html" target="_top" xlink:title="/home/travis/build\l/AliceO2Group/AliceO2\l/Framework/Core/src/runDataProcessing.cxx">
<polygon fill="none" stroke="black" points="382,-186.5 382,-227.5 596,-227.5 596,-186.5 382,-186.5"/>
<text text-anchor="start" x="390" y="-215.5" font-family="Helvetica,sans-Serif" font-size="10.00">/home/travis/build</text>
<text text-anchor="start" x="390" y="-204.5" font-family="Helvetica,sans-Serif" font-size="10.00">/AliceO2Group/AliceO2</text>
<text text-anchor="middle" x="489" y="-193.5" font-family="Helvetica,sans-Serif" font-size="10.00">/Framework/Core/src/runDataProcessing.cxx</text>
</a>
</g>
</g>
<!-- Node2&#45;&gt;Node5 -->
<g id="edge4" class="edge"><title>Node2&#45;&gt;Node5</title>
<path fill="none" stroke="midnightblue" d="M1493.28,-295.052C1323.1,-292.177 930.874,-280.598 605,-234 593.15,-232.306 580.715,-230.044 568.569,-227.56"/>
<polygon fill="midnightblue" stroke="midnightblue" points="1493.38,-298.554 1503.43,-295.217 1493.49,-291.555 1493.38,-298.554"/>
</g>
<!-- Node6 -->
<g id="node6" class="node"><title>Node6</title>
<g id="a_node6"><a xlink:href="../../dc/d58/test__BoostSerializedProcessing_8cxx.html" target="_top" xlink:title="/home/travis/build\l/AliceO2Group/AliceO2\l/Framework/Core/test/test\l_BoostSerializedProcessing.cxx">
<polygon fill="none" stroke="black" points="614,-181 614,-233 772,-233 772,-181 614,-181"/>
<text text-anchor="start" x="622" y="-221" font-family="Helvetica,sans-Serif" font-size="10.00">/home/travis/build</text>
<text text-anchor="start" x="622" y="-210" font-family="Helvetica,sans-Serif" font-size="10.00">/AliceO2Group/AliceO2</text>
<text text-anchor="start" x="622" y="-199" font-family="Helvetica,sans-Serif" font-size="10.00">/Framework/Core/test/test</text>
<text text-anchor="middle" x="693" y="-188" font-family="Helvetica,sans-Serif" font-size="10.00">_BoostSerializedProcessing.cxx</text>
</a>
</g>
</g>
<!-- Node2&#45;&gt;Node6 -->
<g id="edge5" class="edge"><title>Node2&#45;&gt;Node6</title>
<path fill="none" stroke="midnightblue" d="M1493.04,-295.111C1346.13,-292.304 1037.81,-280.795 782,-234 778.833,-233.421 775.618,-232.773 772.381,-232.072"/>
<polygon fill="midnightblue" stroke="midnightblue" points="1493.28,-298.616 1503.34,-295.298 1493.4,-291.617 1493.28,-298.616"/>
</g>
<!-- Node7 -->
<g id="node7" class="node"><title>Node7</title>
<g id="a_node7"><a xlink:href="../../db/d30/test__CallbackService_8cxx.html" target="_top" xlink:title="/home/travis/build\l/AliceO2Group/AliceO2\l/Framework/Core/test/test\l_CallbackService.cxx">
<polygon fill="none" stroke="black" points="790.5,-181 790.5,-233 921.5,-233 921.5,-181 790.5,-181"/>
<text text-anchor="start" x="798.5" y="-221" font-family="Helvetica,sans-Serif" font-size="10.00">/home/travis/build</text>
<text text-anchor="start" x="798.5" y="-210" font-family="Helvetica,sans-Serif" font-size="10.00">/AliceO2Group/AliceO2</text>
<text text-anchor="start" x="798.5" y="-199" font-family="Helvetica,sans-Serif" font-size="10.00">/Framework/Core/test/test</text>
<text text-anchor="middle" x="856" y="-188" font-family="Helvetica,sans-Serif" font-size="10.00">_CallbackService.cxx</text>
</a>
</g>
</g>
<!-- Node2&#45;&gt;Node7 -->
<g id="edge6" class="edge"><title>Node2&#45;&gt;Node7</title>
<path fill="none" stroke="midnightblue" d="M1492.99,-294.267C1367.93,-290.288 1129.16,-277.179 931,-234 927.903,-233.325 924.757,-232.562 921.596,-231.731"/>
<polygon fill="midnightblue" stroke="midnightblue" points="1493.17,-297.774 1503.27,-294.581 1493.38,-290.777 1493.17,-297.774"/>
</g>
<!-- Node8 -->
<g id="node8" class="node"><title>Node8</title>
<g id="a_node8"><a xlink:href="../../df/d3d/test__CustomGUI_8cxx.html" target="_top" xlink:title="/home/travis/build\l/AliceO2Group/AliceO2\l/Framework/Core/test/test\l_CustomGUI.cxx">
<polygon fill="none" stroke="black" points="939.5,-181 939.5,-233 1070.5,-233 1070.5,-181 939.5,-181"/>
<text text-anchor="start" x="947.5" y="-221" font-family="Helvetica,sans-Serif" font-size="10.00">/home/travis/build</text>
<text text-anchor="start" x="947.5" y="-210" font-family="Helvetica,sans-Serif" font-size="10.00">/AliceO2Group/AliceO2</text>
<text text-anchor="start" x="947.5" y="-199" font-family="Helvetica,sans-Serif" font-size="10.00">/Framework/Core/test/test</text>
<text text-anchor="middle" x="1005" y="-188" font-family="Helvetica,sans-Serif" font-size="10.00">_CustomGUI.cxx</text>
</a>
</g>
</g>
<!-- Node2&#45;&gt;Node8 -->
<g id="edge7" class="edge"><title>Node2&#45;&gt;Node8</title>
<path fill="none" stroke="midnightblue" d="M1493.25,-290.84C1393.07,-283.553 1222.83,-267.24 1080,-234 1076.91,-233.282 1073.78,-232.482 1070.62,-231.623"/>
<polygon fill="midnightblue" stroke="midnightblue" points="1493.09,-294.338 1503.32,-291.56 1493.59,-287.356 1493.09,-294.338"/>
</g>
<!-- Node9 -->
<g id="node9" class="node"><title>Node9</title>
<g id="a_node9"><a xlink:href="../../dd/d19/test__Services_8cxx.html" target="_top" xlink:title="/home/travis/build\l/AliceO2Group/AliceO2\l/Framework/Core/test/test\l_Services.cxx">
<polygon fill="none" stroke="black" points="1088.5,-181 1088.5,-233 1219.5,-233 1219.5,-181 1088.5,-181"/>
<text text-anchor="start" x="1096.5" y="-221" font-family="Helvetica,sans-Serif" font-size="10.00">/home/travis/build</text>
<text text-anchor="start" x="1096.5" y="-210" font-family="Helvetica,sans-Serif" font-size="10.00">/AliceO2Group/AliceO2</text>
<text text-anchor="start" x="1096.5" y="-199" font-family="Helvetica,sans-Serif" font-size="10.00">/Framework/Core/test/test</text>
<text text-anchor="middle" x="1154" y="-188" font-family="Helvetica,sans-Serif" font-size="10.00">_Services.cxx</text>
</a>
</g>
</g>
<!-- Node2&#45;&gt;Node9 -->
<g id="edge8" class="edge"><title>Node2&#45;&gt;Node9</title>
<path fill="none" stroke="midnightblue" d="M1493.21,-284.678C1421.85,-274.338 1317.94,-257.139 1229,-234 1225.93,-233.202 1222.81,-232.337 1219.67,-231.425"/>
<polygon fill="midnightblue" stroke="midnightblue" points="1493.1,-288.198 1503.5,-286.153 1494.1,-281.269 1493.1,-288.198"/>
</g>
<!-- Node10 -->
<g id="node10" class="node"><title>Node10</title>
<g id="a_node10"><a xlink:href="../../da/d12/test__SimpleStatefulProcessing01_8cxx.html" target="_top" xlink:title="/home/travis/build\l/AliceO2Group/AliceO2\l/Framework/Core/test/test\l_SimpleStatefulProcessing01.cxx">
<polygon fill="none" stroke="black" points="1238,-181 1238,-233 1402,-233 1402,-181 1238,-181"/>
<text text-anchor="start" x="1246" y="-221" font-family="Helvetica,sans-Serif" font-size="10.00">/home/travis/build</text>
<text text-anchor="start" x="1246" y="-210" font-family="Helvetica,sans-Serif" font-size="10.00">/AliceO2Group/AliceO2</text>
<text text-anchor="start" x="1246" y="-199" font-family="Helvetica,sans-Serif" font-size="10.00">/Framework/Core/test/test</text>
<text text-anchor="middle" x="1320" y="-188" font-family="Helvetica,sans-Serif" font-size="10.00">_SimpleStatefulProcessing01.cxx</text>
</a>
</g>
</g>
<!-- Node2&#45;&gt;Node10 -->
<g id="edge9" class="edge"><title>Node2&#45;&gt;Node10</title>
<path fill="none" stroke="midnightblue" d="M1495.59,-267.659C1462.89,-256.55 1425.69,-243.91 1393.97,-233.133"/>
<polygon fill="midnightblue" stroke="midnightblue" points="1494.53,-270.997 1505.13,-270.901 1496.79,-264.369 1494.53,-270.997"/>
</g>
<!-- Node11 -->
<g id="node11" class="node"><title>Node11</title>
<g id="a_node11"><a xlink:href="../../d4/d92/test__SimpleStringProcessing_8cxx.html" target="_top" xlink:title="/home/travis/build\l/AliceO2Group/AliceO2\l/Framework/Core/test/test\l_SimpleStringProcessing.cxx">
<polygon fill="none" stroke="black" points="1420.5,-181 1420.5,-233 1565.5,-233 1565.5,-181 1420.5,-181"/>
<text text-anchor="start" x="1428.5" y="-221" font-family="Helvetica,sans-Serif" font-size="10.00">/home/travis/build</text>
<text text-anchor="start" x="1428.5" y="-210" font-family="Helvetica,sans-Serif" font-size="10.00">/AliceO2Group/AliceO2</text>
<text text-anchor="start" x="1428.5" y="-199" font-family="Helvetica,sans-Serif" font-size="10.00">/Framework/Core/test/test</text>
<text text-anchor="middle" x="1493" y="-188" font-family="Helvetica,sans-Serif" font-size="10.00">_SimpleStringProcessing.cxx</text>
</a>
</g>
</g>
<!-- Node2&#45;&gt;Node11 -->
<g id="edge10" class="edge"><title>Node2&#45;&gt;Node11</title>
<path fill="none" stroke="midnightblue" d="M1546.89,-263.139C1537.17,-253.196 1526.66,-242.441 1517.52,-233.092"/>
<polygon fill="midnightblue" stroke="midnightblue" points="1544.63,-265.841 1554.13,-270.547 1549.64,-260.949 1544.63,-265.841"/>
</g>
<!-- Node12 -->
<g id="node12" class="node"><title>Node12</title>
<g id="a_node12"><a xlink:href="../../d5/dc8/MakeRootTreeWriterSpec_8h.html" target="_top" xlink:title="Configurable generator for RootTreeWriter processor spec. ">
<polygon fill="none" stroke="black" points="1584,-181 1584,-233 1748,-233 1748,-181 1584,-181"/>
<text text-anchor="start" x="1592" y="-221" font-family="Helvetica,sans-Serif" font-size="10.00">/home/travis/build</text>
<text text-anchor="start" x="1592" y="-210" font-family="Helvetica,sans-Serif" font-size="10.00">/AliceO2Group/AliceO2</text>
<text text-anchor="start" x="1592" y="-199" font-family="Helvetica,sans-Serif" font-size="10.00">/Framework/Utils/include</text>
<text text-anchor="middle" x="1666" y="-188" font-family="Helvetica,sans-Serif" font-size="10.00">/Utils/MakeRootTreeWriterSpec.h</text>
</a>
</g>
</g>
<!-- Node2&#45;&gt;Node12 -->
<g id="edge11" class="edge"><title>Node2&#45;&gt;Node12</title>
<path fill="none" stroke="midnightblue" d="M1611.2,-263.431C1621.11,-253.407 1631.86,-242.533 1641.19,-233.092"/>
<polygon fill="midnightblue" stroke="midnightblue" points="1608.71,-260.975 1604.16,-270.547 1613.68,-265.896 1608.71,-260.975"/>
</g>
<!-- Node15 -->
<g id="node15" class="node"><title>Node15</title>
<g id="a_node15"><a xlink:href="../../d1/d02/test__RootTreeWriterWorkflow_8cxx.html" target="_top" xlink:title="/home/travis/build\l/AliceO2Group/AliceO2\l/Framework/Utils/test\l/test_RootTreeWriterWorkflow.cxx">
<polygon fill="none" stroke="black" points="1751,-91 1751,-143 1919,-143 1919,-91 1751,-91"/>
<text text-anchor="start" x="1759" y="-131" font-family="Helvetica,sans-Serif" font-size="10.00">/home/travis/build</text>
<text text-anchor="start" x="1759" y="-120" font-family="Helvetica,sans-Serif" font-size="10.00">/AliceO2Group/AliceO2</text>
<text text-anchor="start" x="1759" y="-109" font-family="Helvetica,sans-Serif" font-size="10.00">/Framework/Utils/test</text>
<text text-anchor="middle" x="1835" y="-98" font-family="Helvetica,sans-Serif" font-size="10.00">/test_RootTreeWriterWorkflow.cxx</text>
</a>
</g>
</g>
<!-- Node2&#45;&gt;Node15 -->
<g id="edge17" class="edge"><title>Node2&#45;&gt;Node15</title>
<path fill="none" stroke="midnightblue" d="M1664.52,-268.897C1706.11,-255.232 1748.89,-240.258 1757,-234 1761.26,-230.711 1797.11,-176.217 1818.7,-143.105"/>
<polygon fill="midnightblue" stroke="midnightblue" points="1663.26,-265.627 1654.85,-272.061 1665.44,-272.28 1663.26,-265.627"/>
</g>
<!-- Node18 -->
<g id="node18" class="node"><title>Node18</title>
<g id="a_node18"><a xlink:href="../../d9/db2/EMCALDigitWriterSpec_8cxx.html" target="_top" xlink:title="/home/travis/build\l/AliceO2Group/AliceO2\l/Steer/DigitizerWorkflow\l/src/EMCALDigitWriterSpec.cxx">
<polygon fill="none" stroke="black" points="1804,-181 1804,-233 1962,-233 1962,-181 1804,-181"/>
<text text-anchor="start" x="1812" y="-221" font-family="Helvetica,sans-Serif" font-size="10.00">/home/travis/build</text>
<text text-anchor="start" x="1812" y="-210" font-family="Helvetica,sans-Serif" font-size="10.00">/AliceO2Group/AliceO2</text>
<text text-anchor="start" x="1812" y="-199" font-family="Helvetica,sans-Serif" font-size="10.00">/Steer/DigitizerWorkflow</text>
<text text-anchor="middle" x="1883" y="-188" font-family="Helvetica,sans-Serif" font-size="10.00">/src/EMCALDigitWriterSpec.cxx</text>
</a>
</g>
</g>
<!-- Node2&#45;&gt;Node18 -->
<g id="edge18" class="edge"><title>Node2&#45;&gt;Node18</title>
<path fill="none" stroke="midnightblue" d="M1664.3,-269.941C1700.9,-259.261 1756.84,-243.451 1803.81,-230.231"/>
<polygon fill="midnightblue" stroke="midnightblue" points="1663.13,-266.637 1654.52,-272.81 1665.1,-273.354 1663.13,-266.637"/>
</g>
<!-- Node19 -->
<g id="node19" class="node"><title>Node19</title>
<g id="a_node19"><a xlink:href="../../d9/d87/FITDigitWriterSpec_8cxx.html" target="_top" xlink:title="/home/travis/build\l/AliceO2Group/AliceO2\l/Steer/DigitizerWorkflow\l/src/FITDigitWriterSpec.cxx">
<polygon fill="none" stroke="black" points="1980.5,-181 1980.5,-233 2119.5,-233 2119.5,-181 1980.5,-181"/>
<text text-anchor="start" x="1988.5" y="-221" font-family="Helvetica,sans-Serif" font-size="10.00">/home/travis/build</text>
<text text-anchor="start" x="1988.5" y="-210" font-family="Helvetica,sans-Serif" font-size="10.00">/AliceO2Group/AliceO2</text>
<text text-anchor="start" x="1988.5" y="-199" font-family="Helvetica,sans-Serif" font-size="10.00">/Steer/DigitizerWorkflow</text>
<text text-anchor="middle" x="2050" y="-188" font-family="Helvetica,sans-Serif" font-size="10.00">/src/FITDigitWriterSpec.cxx</text>
</a>
</g>
</g>
<!-- Node2&#45;&gt;Node19 -->
<g id="edge19" class="edge"><title>Node2&#45;&gt;Node19</title>
<path fill="none" stroke="midnightblue" d="M1664.72,-270.028C1799.86,-242.836 1839.37,-262.618 1970,-234 1973.42,-233.25 1976.91,-232.412 1980.41,-231.509"/>
<polygon fill="midnightblue" stroke="midnightblue" points="1663.91,-266.621 1654.82,-272.068 1665.32,-273.477 1663.91,-266.621"/>
</g>
<!-- Node20 -->
<g id="node20" class="node"><title>Node20</title>
<g id="a_node20"><a xlink:href="../../d9/d59/GRPUpdaterSpec_8cxx.html" target="_top" xlink:title="/home/travis/build\l/AliceO2Group/AliceO2\l/Steer/DigitizerWorkflow\l/src/GRPUpdaterSpec.cxx">
<polygon fill="none" stroke="black" points="2138,-181 2138,-233 2272,-233 2272,-181 2138,-181"/>
<text text-anchor="start" x="2146" y="-221" font-family="Helvetica,sans-Serif" font-size="10.00">/home/travis/build</text>
<text text-anchor="start" x="2146" y="-210" font-family="Helvetica,sans-Serif" font-size="10.00">/AliceO2Group/AliceO2</text>
<text text-anchor="start" x="2146" y="-199" font-family="Helvetica,sans-Serif" font-size="10.00">/Steer/DigitizerWorkflow</text>
<text text-anchor="middle" x="2205" y="-188" font-family="Helvetica,sans-Serif" font-size="10.00">/src/GRPUpdaterSpec.cxx</text>
</a>
</g>
</g>
<!-- Node2&#45;&gt;Node20 -->
<g id="edge20" class="edge"><title>Node2&#45;&gt;Node20</title>
<path fill="none" stroke="midnightblue" d="M1664.64,-270.083C1869.08,-232.868 1928.51,-274.758 2128,-234 2131.18,-233.35 2134.41,-232.608 2137.65,-231.794"/>
<polygon fill="midnightblue" stroke="midnightblue" points="1663.98,-266.645 1654.79,-271.915 1665.26,-273.526 1663.98,-266.645"/>
</g>
<!-- Node21 -->
<g id="node21" class="node"><title>Node21</title>
<g id="a_node21"><a xlink:href="../../df/d17/ITSMFTDigitWriterSpec_8cxx.html" target="_top" xlink:title="/home/travis/build\l/AliceO2Group/AliceO2\l/Steer/DigitizerWorkflow\l/src/ITSMFTDigitWriterSpec.cxx">
<polygon fill="none" stroke="black" points="2290,-181 2290,-233 2450,-233 2450,-181 2290,-181"/>
<text text-anchor="start" x="2298" y="-221" font-family="Helvetica,sans-Serif" font-size="10.00">/home/travis/build</text>
<text text-anchor="start" x="2298" y="-210" font-family="Helvetica,sans-Serif" font-size="10.00">/AliceO2Group/AliceO2</text>
<text text-anchor="start" x="2298" y="-199" font-family="Helvetica,sans-Serif" font-size="10.00">/Steer/DigitizerWorkflow</text>
<text text-anchor="middle" x="2370" y="-188" font-family="Helvetica,sans-Serif" font-size="10.00">/src/ITSMFTDigitWriterSpec.cxx</text>
</a>
</g>
</g>
<!-- Node2&#45;&gt;Node21 -->
<g id="edge21" class="edge"><title>Node2&#45;&gt;Node21</title>
<path fill="none" stroke="midnightblue" d="M1664.93,-270.046C1936.25,-222.914 2013.63,-280.24 2281,-234 2283.86,-233.506 2286.75,-232.953 2289.66,-232.352"/>
<polygon fill="midnightblue" stroke="midnightblue" points="1664.02,-266.652 1654.78,-271.841 1665.24,-273.545 1664.02,-266.652"/>
</g>
<!-- Node22 -->
<g id="node22" class="node"><title>Node22</title>
<g id="a_node22"><a xlink:href="../../d5/d8f/TOFClusterWriterSpec_8cxx.html" target="_top" xlink:title="/home/travis/build\l/AliceO2Group/AliceO2\l/Steer/DigitizerWorkflow\l/src/TOFClusterWriterSpec.cxx">
<polygon fill="none" stroke="black" points="2468.5,-181 2468.5,-233 2623.5,-233 2623.5,-181 2468.5,-181"/>
<text text-anchor="start" x="2476.5" y="-221" font-family="Helvetica,sans-Serif" font-size="10.00">/home/travis/build</text>
<text text-anchor="start" x="2476.5" y="-210" font-family="Helvetica,sans-Serif" font-size="10.00">/AliceO2Group/AliceO2</text>
<text text-anchor="start" x="2476.5" y="-199" font-family="Helvetica,sans-Serif" font-size="10.00">/Steer/DigitizerWorkflow</text>
<text text-anchor="middle" x="2546" y="-188" font-family="Helvetica,sans-Serif" font-size="10.00">/src/TOFClusterWriterSpec.cxx</text>
</a>
</g>
</g>
<!-- Node2&#45;&gt;Node22 -->
<g id="edge22" class="edge"><title>Node2&#45;&gt;Node22</title>
<path fill="none" stroke="midnightblue" d="M1664.66,-270.103C2014.37,-211.329 2113.51,-292.533 2459,-234 2462.11,-233.473 2465.26,-232.87 2468.44,-232.206"/>
<polygon fill="midnightblue" stroke="midnightblue" points="1664.04,-266.658 1654.77,-271.791 1665.22,-273.558 1664.04,-266.658"/>
</g>
<!-- Node23 -->
<g id="node23" class="node"><title>Node23</title>
<g id="a_node23"><a xlink:href="../../d1/d80/TOFDigitWriterSpec_8cxx.html" target="_top" xlink:title="/home/travis/build\l/AliceO2Group/AliceO2\l/Steer/DigitizerWorkflow\l/src/TOFDigitWriterSpec.cxx">
<polygon fill="none" stroke="black" points="2641.5,-181 2641.5,-233 2784.5,-233 2784.5,-181 2641.5,-181"/>
<text text-anchor="start" x="2649.5" y="-221" font-family="Helvetica,sans-Serif" font-size="10.00">/home/travis/build</text>
<text text-anchor="start" x="2649.5" y="-210" font-family="Helvetica,sans-Serif" font-size="10.00">/AliceO2Group/AliceO2</text>
<text text-anchor="start" x="2649.5" y="-199" font-family="Helvetica,sans-Serif" font-size="10.00">/Steer/DigitizerWorkflow</text>
<text text-anchor="middle" x="2713" y="-188" font-family="Helvetica,sans-Serif" font-size="10.00">/src/TOFDigitWriterSpec.cxx</text>
</a>
</g>
</g>
<!-- Node2&#45;&gt;Node23 -->
<g id="edge23" class="edge"><title>Node2&#45;&gt;Node23</title>
<path fill="none" stroke="midnightblue" d="M1664.87,-270.074C2090.41,-200.141 2211.29,-307.903 2632,-234 2635.05,-233.463 2638.15,-232.84 2641.27,-232.147"/>
<polygon fill="midnightblue" stroke="midnightblue" points="1664.05,-266.663 1654.77,-271.759 1665.2,-273.567 1664.05,-266.663"/>
</g>
<!-- Node24 -->
<g id="node24" class="node"><title>Node24</title>
<g id="a_node24"><a xlink:href="../../d8/dd2/TPCDigitRootWriterSpec_8cxx.html" target="_top" xlink:title="/home/travis/build\l/AliceO2Group/AliceO2\l/Steer/DigitizerWorkflow\l/src/TPCDigitRootWriterSpec.cxx">
<polygon fill="none" stroke="black" points="2802.5,-181 2802.5,-233 2967.5,-233 2967.5,-181 2802.5,-181"/>
<text text-anchor="start" x="2810.5" y="-221" font-family="Helvetica,sans-Serif" font-size="10.00">/home/travis/build</text>
<text text-anchor="start" x="2810.5" y="-210" font-family="Helvetica,sans-Serif" font-size="10.00">/AliceO2Group/AliceO2</text>
<text text-anchor="start" x="2810.5" y="-199" font-family="Helvetica,sans-Serif" font-size="10.00">/Steer/DigitizerWorkflow</text>
<text text-anchor="middle" x="2885" y="-188" font-family="Helvetica,sans-Serif" font-size="10.00">/src/TPCDigitRootWriterSpec.cxx</text>
</a>
</g>
</g>
<!-- Node2&#45;&gt;Node24 -->
<g id="edge24" class="edge"><title>Node2&#45;&gt;Node24</title>
<path fill="none" stroke="midnightblue" d="M1664.69,-270.107C2161.1,-189.469 2300.15,-310.328 2793,-234 2796.12,-233.517 2799.28,-232.963 2802.46,-232.351"/>
<polygon fill="midnightblue" stroke="midnightblue" points="1664.06,-266.663 1654.76,-271.739 1665.2,-273.571 1664.06,-266.663"/>
</g>
<!-- Node13 -->
<g id="node13" class="node"><title>Node13</title>
<g id="a_node13"><a xlink:href="../../d5/d53/RecoWorkflow_8cxx.html" target="_top" xlink:title="Workflow definition for the TPC reconstruction. ">
<polygon fill="none" stroke="black" points="1307,-91 1307,-143 1435,-143 1435,-91 1307,-91"/>
<text text-anchor="start" x="1315" y="-131" font-family="Helvetica,sans-Serif" font-size="10.00">/home/travis/build</text>
<text text-anchor="start" x="1315" y="-120" font-family="Helvetica,sans-Serif" font-size="10.00">/AliceO2Group/AliceO2</text>
<text text-anchor="start" x="1315" y="-109" font-family="Helvetica,sans-Serif" font-size="10.00">/Detectors/TPC/workflow</text>
<text text-anchor="middle" x="1371" y="-98" font-family="Helvetica,sans-Serif" font-size="10.00">/src/RecoWorkflow.cxx</text>
</a>
</g>
</g>
<!-- Node12&#45;&gt;Node13 -->
<g id="edge12" class="edge"><title>Node12&#45;&gt;Node13</title>
<path fill="none" stroke="midnightblue" d="M1574.3,-180.084C1574.2,-180.056 1574.1,-180.028 1574,-180 1516.69,-163.906 1501.78,-161.875 1445,-144 1441.75,-142.978 1438.43,-141.907 1435.09,-140.807"/>
<polygon fill="midnightblue" stroke="midnightblue" points="1573.17,-183.402 1583.75,-182.74 1575.07,-176.664 1573.17,-183.402"/>
</g>
<!-- Node14 -->
<g id="node14" class="node"><title>Node14</title>
<g id="a_node14"><a xlink:href="../../da/dcf/test__RootTreeWriter_8cxx.html" target="_top" xlink:title="/home/travis/build\l/AliceO2Group/AliceO2\l/Framework/Utils/test\l/test_RootTreeWriter.cxx">
<polygon fill="none" stroke="black" points="1453.5,-91 1453.5,-143 1580.5,-143 1580.5,-91 1453.5,-91"/>
<text text-anchor="start" x="1461.5" y="-131" font-family="Helvetica,sans-Serif" font-size="10.00">/home/travis/build</text>
<text text-anchor="start" x="1461.5" y="-120" font-family="Helvetica,sans-Serif" font-size="10.00">/AliceO2Group/AliceO2</text>
<text text-anchor="start" x="1461.5" y="-109" font-family="Helvetica,sans-Serif" font-size="10.00">/Framework/Utils/test</text>
<text text-anchor="middle" x="1517" y="-98" font-family="Helvetica,sans-Serif" font-size="10.00">/test_RootTreeWriter.cxx</text>
</a>
</g>
</g>
<!-- Node12&#45;&gt;Node14 -->
<g id="edge13" class="edge"><title>Node12&#45;&gt;Node14</title>
<path fill="none" stroke="midnightblue" d="M1614.65,-175.67C1596.64,-165.038 1576.64,-153.222 1559.45,-143.069"/>
<polygon fill="midnightblue" stroke="midnightblue" points="1612.91,-178.711 1623.3,-180.783 1616.47,-172.684 1612.91,-178.711"/>
</g>
<!-- Node12&#45;&gt;Node15 -->
<g id="edge14" class="edge"><title>Node12&#45;&gt;Node15</title>
<path fill="none" stroke="midnightblue" d="M1723.41,-176.105C1744.05,-165.36 1767.09,-153.361 1786.86,-143.069"/>
<polygon fill="midnightblue" stroke="midnightblue" points="1721.68,-173.06 1714.43,-180.783 1724.91,-179.269 1721.68,-173.06"/>
</g>
<!-- Node16 -->
<g id="node16" class="node"><title>Node16</title>
<g id="a_node16"><a xlink:href="../../da/d27/TRDDigitWriterSpec_8h.html" target="_top" xlink:title="/home/travis/build\l/AliceO2Group/AliceO2\l/Steer/DigitizerWorkflow\l/src/TRDDigitWriterSpec.h">
<polygon fill="none" stroke="black" points="1599,-91 1599,-143 1733,-143 1733,-91 1599,-91"/>
<text text-anchor="start" x="1607" y="-131" font-family="Helvetica,sans-Serif" font-size="10.00">/home/travis/build</text>
<text text-anchor="start" x="1607" y="-120" font-family="Helvetica,sans-Serif" font-size="10.00">/AliceO2Group/AliceO2</text>
<text text-anchor="start" x="1607" y="-109" font-family="Helvetica,sans-Serif" font-size="10.00">/Steer/DigitizerWorkflow</text>
<text text-anchor="middle" x="1666" y="-98" font-family="Helvetica,sans-Serif" font-size="10.00">/src/TRDDigitWriterSpec.h</text>
</a>
</g>
</g>
<!-- Node12&#45;&gt;Node16 -->
<g id="edge15" class="edge"><title>Node12&#45;&gt;Node16</title>
<path fill="none" stroke="midnightblue" d="M1666,-170.489C1666,-161.309 1666,-151.616 1666,-143.092"/>
<polygon fill="midnightblue" stroke="midnightblue" points="1662.5,-170.547 1666,-180.547 1669.5,-170.547 1662.5,-170.547"/>
</g>
<!-- Node17 -->
<g id="node17" class="node"><title>Node17</title>
<g id="a_node17"><a xlink:href="../../d2/dd7/SimpleDigitizerWorkflow_8cxx.html" target="_top" xlink:title="/home/travis/build\l/AliceO2Group/AliceO2\l/Steer/DigitizerWorkflow\l/src/SimpleDigitizerWorkflow.cxx">
<polygon fill="none" stroke="black" points="1585,-1 1585,-53 1747,-53 1747,-1 1585,-1"/>
<text text-anchor="start" x="1593" y="-41" font-family="Helvetica,sans-Serif" font-size="10.00">/home/travis/build</text>
<text text-anchor="start" x="1593" y="-30" font-family="Helvetica,sans-Serif" font-size="10.00">/AliceO2Group/AliceO2</text>
<text text-anchor="start" x="1593" y="-19" font-family="Helvetica,sans-Serif" font-size="10.00">/Steer/DigitizerWorkflow</text>
<text text-anchor="middle" x="1666" y="-8" font-family="Helvetica,sans-Serif" font-size="10.00">/src/SimpleDigitizerWorkflow.cxx</text>
</a>
</g>
</g>
<!-- Node16&#45;&gt;Node17 -->
<g id="edge16" class="edge"><title>Node16&#45;&gt;Node17</title>
<path fill="none" stroke="midnightblue" d="M1666,-80.4892C1666,-71.3088 1666,-61.616 1666,-53.0921"/>
<polygon fill="midnightblue" stroke="midnightblue" points="1662.5,-80.5467 1666,-90.5468 1669.5,-80.5468 1662.5,-80.5467"/>
</g>
</g>
</svg>
