<?xml version="1.0" encoding="UTF-8" standalone="no"?>
<!DOCTYPE svg PUBLIC "-//W3C//DTD SVG 1.1//EN"
 "http://www.w3.org/Graphics/SVG/1.1/DTD/svg11.dtd">
<!-- Generated by graphviz version 2.36.0 (20140111.2315)
 -->
<!-- Title: o2::ITS::ClustererTask Pages: 1 -->
<svg width="134pt" height="270pt"
 viewBox="0.00 0.00 134.00 270.00" xmlns="http://www.w3.org/2000/svg" xmlns:xlink="http://www.w3.org/1999/xlink">
<g id="graph0" class="graph" transform="scale(1 1) rotate(0) translate(4 266)">
<title>o2::ITS::ClustererTask</title>
<!-- Node1 -->
<g id="node1" class="node"><title>Node1</title>
<polygon fill="#bfbfbf" stroke="black" points="0,-0.5 0,-167.5 126,-167.5 126,-0.5 0,-0.5"/>
<text text-anchor="middle" x="63" y="-155.5" font-family="Helvetica,sans-Serif" font-size="10.00">o2::ITS::ClustererTask</text>
<polyline fill="none" stroke="black" points="0,-148.5 126,-148.5 "/>
<text text-anchor="middle" x="63" y="-136.5" font-family="Helvetica,sans-Serif" font-size="10.00"> </text>
<polyline fill="none" stroke="black" points="0,-129.5 126,-129.5 "/>
<text text-anchor="start" x="8" y="-117.5" font-family="Helvetica,sans-Serif" font-size="10.00">+ ClustererTask()</text>
<text text-anchor="start" x="8" y="-106.5" font-family="Helvetica,sans-Serif" font-size="10.00">+ ~ClustererTask()</text>
<text text-anchor="start" x="8" y="-95.5" font-family="Helvetica,sans-Serif" font-size="10.00">+ Init()</text>
<text text-anchor="start" x="8" y="-84.5" font-family="Helvetica,sans-Serif" font-size="10.00">+ Exec()</text>
<text text-anchor="start" x="8" y="-73.5" font-family="Helvetica,sans-Serif" font-size="10.00">+ getClusterer()</text>
<text text-anchor="start" x="8" y="-62.5" font-family="Helvetica,sans-Serif" font-size="10.00">+ run()</text>
<text text-anchor="start" x="8" y="-51.5" font-family="Helvetica,sans-Serif" font-size="10.00">+ setSelfManagedMode()</text>
<text text-anchor="start" x="8" y="-40.5" font-family="Helvetica,sans-Serif" font-size="10.00">+ isSelfManagedMode()</text>
<text text-anchor="start" x="8" y="-29.5" font-family="Helvetica,sans-Serif" font-size="10.00">+ attachFairManagerIO()</text>
<text text-anchor="start" x="8" y="-18.5" font-family="Helvetica,sans-Serif" font-size="10.00">+ getReader()</text>
<text text-anchor="start" x="8" y="-7.5" font-family="Helvetica,sans-Serif" font-size="10.00">+ loadDictionary()</text>
</g>
<!-- Node2 -->
<g id="node2" class="node"><title>Node2</title>
<g id="a_node2"><a xlink:href="../../d2/d9e/classFairTask.html" target="_top" xlink:title="{FairTask\n||}">
<polygon fill="none" stroke="black" points="35.5,-204.5 35.5,-261.5 90.5,-261.5 90.5,-204.5 35.5,-204.5"/>
<text text-anchor="middle" x="63" y="-249.5" font-family="Helvetica,sans-Serif" font-size="10.00">FairTask</text>
<polyline fill="none" stroke="black" points="35.5,-242.5 90.5,-242.5 "/>
<text text-anchor="middle" x="63" y="-230.5" font-family="Helvetica,sans-Serif" font-size="10.00"> </text>
<polyline fill="none" stroke="black" points="35.5,-223.5 90.5,-223.5 "/>
<text text-anchor="middle" x="63" y="-211.5" font-family="Helvetica,sans-Serif" font-size="10.00"> </text>
</a>
</g>
</g>
<!-- Node2&#45;&gt;Node1 -->
<g id="edge1" class="edge"><title>Node2&#45;&gt;Node1</title>
<path fill="none" stroke="midnightblue" d="M63,-194.35C63,-186.08 63,-177.008 63,-167.738"/>
<polygon fill="none" stroke="midnightblue" points="59.5001,-194.35 63,-204.35 66.5001,-194.35 59.5001,-194.35"/>
</g>
</g>
</svg>
