<?xml version="1.0" encoding="UTF-8" standalone="no"?>
<!DOCTYPE svg PUBLIC "-//W3C//DTD SVG 1.1//EN"
 "http://www.w3.org/Graphics/SVG/1.1/DTD/svg11.dtd">
<!-- Generated by graphviz version 2.36.0 (20140111.2315)
 -->
<!-- Title: o2::framework::data_matcher::ValueHolder&lt; T &gt; Pages: 1 -->
<svg width="664pt" height="402pt"
 viewBox="0.00 0.00 664.00 402.00" xmlns="http://www.w3.org/2000/svg" xmlns:xlink="http://www.w3.org/1999/xlink">
<g id="graph0" class="graph" transform="scale(1 1) rotate(0) translate(4 398)">
<title>o2::framework::data_matcher::ValueHolder&lt; T &gt;</title>
<!-- Node1 -->
<g id="node1" class="node"><title>Node1</title>
<polygon fill="#bfbfbf" stroke="black" points="262,-303 262,-393 402,-393 402,-303 262,-303"/>
<text text-anchor="start" x="270" y="-381" font-family="Helvetica,sans-Serif" font-size="10.00">o2::framework::data</text>
<text text-anchor="middle" x="332" y="-370" font-family="Helvetica,sans-Serif" font-size="10.00">_matcher::ValueHolder&lt; T &gt;</text>
<polyline fill="none" stroke="black" points="262,-363 402,-363 "/>
<text text-anchor="start" x="270" y="-351" font-family="Helvetica,sans-Serif" font-size="10.00"># mValue</text>
<polyline fill="none" stroke="black" points="262,-344 402,-344 "/>
<text text-anchor="start" x="270" y="-332" font-family="Helvetica,sans-Serif" font-size="10.00">+ ValueHolder()</text>
<text text-anchor="start" x="270" y="-321" font-family="Helvetica,sans-Serif" font-size="10.00">+ ValueHolder()</text>
<text text-anchor="start" x="270" y="-310" font-family="Helvetica,sans-Serif" font-size="10.00">+ operator==()</text>
</g>
<!-- Node2 -->
<g id="node2" class="node"><title>Node2</title>
<g id="a_node2"><a xlink:href="../../dc/d72/classo2_1_1framework_1_1data__matcher_1_1ValueHolder.html" target="_top" xlink:title="{o2::framework::data\l_matcher::ValueHolder\l\&lt; std::string \&gt;\n|# mValue\l|+ ValueHolder()\l+ ValueHolder()\l+ operator==()\l}">
<polygon fill="none" stroke="black" points="175,-152.5 175,-253.5 291,-253.5 291,-152.5 175,-152.5"/>
<text text-anchor="start" x="183" y="-241.5" font-family="Helvetica,sans-Serif" font-size="10.00">o2::framework::data</text>
<text text-anchor="start" x="183" y="-230.5" font-family="Helvetica,sans-Serif" font-size="10.00">_matcher::ValueHolder</text>
<text text-anchor="middle" x="233" y="-219.5" font-family="Helvetica,sans-Serif" font-size="10.00">&lt; std::string &gt;</text>
<polyline fill="none" stroke="black" points="175,-212.5 291,-212.5 "/>
<text text-anchor="start" x="183" y="-200.5" font-family="Helvetica,sans-Serif" font-size="10.00"># mValue</text>
<polyline fill="none" stroke="black" points="175,-193.5 291,-193.5 "/>
<text text-anchor="start" x="183" y="-181.5" font-family="Helvetica,sans-Serif" font-size="10.00">+ ValueHolder()</text>
<text text-anchor="start" x="183" y="-170.5" font-family="Helvetica,sans-Serif" font-size="10.00">+ ValueHolder()</text>
<text text-anchor="start" x="183" y="-159.5" font-family="Helvetica,sans-Serif" font-size="10.00">+ operator==()</text>
</a>
</g>
</g>
<!-- Node1&#45;&gt;Node2 -->
<g id="edge1" class="edge"><title>Node1&#45;&gt;Node2</title>
<path fill="none" stroke="orange" d="M295.547,-294.346C286.341,-281.048 276.486,-266.813 267.386,-253.668"/>
<polygon fill="orange" stroke="orange" points="292.919,-296.699 301.489,-302.928 298.674,-292.714 292.919,-296.699"/>
<text text-anchor="middle" x="318.5" y="-275.5" font-family="Helvetica,sans-Serif" font-size="10.00"> &lt; std::string &gt;</text>
</g>
<!-- Node5 -->
<g id="node5" class="node"><title>Node5</title>
<g id="a_node5"><a xlink:href="../../dc/d72/classo2_1_1framework_1_1data__matcher_1_1ValueHolder.html" target="_top" xlink:title="{o2::framework::data\l_matcher::ValueHolder\l\&lt; uint64_t \&gt;\n|# mValue\l|+ ValueHolder()\l+ ValueHolder()\l+ operator==()\l}">
<polygon fill="none" stroke="black" points="351,-152.5 351,-253.5 467,-253.5 467,-152.5 351,-152.5"/>
<text text-anchor="start" x="359" y="-241.5" font-family="Helvetica,sans-Serif" font-size="10.00">o2::framework::data</text>
<text text-anchor="start" x="359" y="-230.5" font-family="Helvetica,sans-Serif" font-size="10.00">_matcher::ValueHolder</text>
<text text-anchor="middle" x="409" y="-219.5" font-family="Helvetica,sans-Serif" font-size="10.00">&lt; uint64_t &gt;</text>
<polyline fill="none" stroke="black" points="351,-212.5 467,-212.5 "/>
<text text-anchor="start" x="359" y="-200.5" font-family="Helvetica,sans-Serif" font-size="10.00"># mValue</text>
<polyline fill="none" stroke="black" points="351,-193.5 467,-193.5 "/>
<text text-anchor="start" x="359" y="-181.5" font-family="Helvetica,sans-Serif" font-size="10.00">+ ValueHolder()</text>
<text text-anchor="start" x="359" y="-170.5" font-family="Helvetica,sans-Serif" font-size="10.00">+ ValueHolder()</text>
<text text-anchor="start" x="359" y="-159.5" font-family="Helvetica,sans-Serif" font-size="10.00">+ operator==()</text>
</a>
</g>
</g>
<!-- Node1&#45;&gt;Node5 -->
<g id="edge4" class="edge"><title>Node1&#45;&gt;Node5</title>
<path fill="none" stroke="orange" d="M360.557,-293.966C367.659,-280.777 375.245,-266.688 382.256,-253.668"/>
<polygon fill="orange" stroke="orange" points="357.39,-292.464 355.731,-302.928 363.554,-295.783 357.39,-292.464"/>
<text text-anchor="middle" x="399" y="-275.5" font-family="Helvetica,sans-Serif" font-size="10.00"> &lt; uint64_t &gt;</text>
</g>
<!-- Node3 -->
<g id="node3" class="node"><title>Node3</title>
<g id="a_node3"><a xlink:href="../../d8/db4/classo2_1_1framework_1_1data__matcher_1_1DescriptionValueMatcher.html" target="_top" xlink:title="Something which can be matched against a header::DataDescription. ">
<polygon fill="none" stroke="black" points="-0.5,-6.5 -0.5,-107.5 140.5,-107.5 140.5,-6.5 -0.5,-6.5"/>
<text text-anchor="start" x="7.5" y="-95.5" font-family="Helvetica,sans-Serif" font-size="10.00">o2::framework::data</text>
<text text-anchor="start" x="7.5" y="-84.5" font-family="Helvetica,sans-Serif" font-size="10.00">_matcher::DescriptionValue</text>
<text text-anchor="middle" x="70" y="-73.5" font-family="Helvetica,sans-Serif" font-size="10.00">Matcher</text>
<polyline fill="none" stroke="black" points="-0.5,-66.5 140.5,-66.5 "/>
<text text-anchor="middle" x="70" y="-54.5" font-family="Helvetica,sans-Serif" font-size="10.00"> </text>
<polyline fill="none" stroke="black" points="-0.5,-47.5 140.5,-47.5 "/>
<text text-anchor="start" x="7.5" y="-35.5" font-family="Helvetica,sans-Serif" font-size="10.00">+ DescriptionValueMatcher()</text>
<text text-anchor="start" x="7.5" y="-24.5" font-family="Helvetica,sans-Serif" font-size="10.00">+ DescriptionValueMatcher()</text>
<text text-anchor="start" x="7.5" y="-13.5" font-family="Helvetica,sans-Serif" font-size="10.00">+ match()</text>
</a>
</g>
</g>
<!-- Node2&#45;&gt;Node3 -->
<g id="edge2" class="edge"><title>Node2&#45;&gt;Node3</title>
<path fill="none" stroke="midnightblue" d="M169.121,-145.567C154.951,-133.049 140.035,-119.871 126.199,-107.648"/>
<polygon fill="none" stroke="midnightblue" points="167.093,-148.446 176.905,-152.443 171.728,-143.2 167.093,-148.446"/>
</g>
<!-- Node4 -->
<g id="node4" class="node"><title>Node4</title>
<g id="a_node4"><a xlink:href="../../d4/d3e/classo2_1_1framework_1_1data__matcher_1_1OriginValueMatcher.html" target="_top" xlink:title="Something which can be matched against a header::DataOrigin. ">
<polygon fill="none" stroke="black" points="158.5,-12 158.5,-102 307.5,-102 307.5,-12 158.5,-12"/>
<text text-anchor="start" x="166.5" y="-90" font-family="Helvetica,sans-Serif" font-size="10.00">o2::framework::data</text>
<text text-anchor="middle" x="233" y="-79" font-family="Helvetica,sans-Serif" font-size="10.00">_matcher::OriginValueMatcher</text>
<polyline fill="none" stroke="black" points="158.5,-72 307.5,-72 "/>
<text text-anchor="middle" x="233" y="-60" font-family="Helvetica,sans-Serif" font-size="10.00"> </text>
<polyline fill="none" stroke="black" points="158.5,-53 307.5,-53 "/>
<text text-anchor="start" x="166.5" y="-41" font-family="Helvetica,sans-Serif" font-size="10.00">+ OriginValueMatcher()</text>
<text text-anchor="start" x="166.5" y="-30" font-family="Helvetica,sans-Serif" font-size="10.00">+ OriginValueMatcher()</text>
<text text-anchor="start" x="166.5" y="-19" font-family="Helvetica,sans-Serif" font-size="10.00">+ match()</text>
</a>
</g>
</g>
<!-- Node2&#45;&gt;Node4 -->
<g id="edge3" class="edge"><title>Node2&#45;&gt;Node4</title>
<path fill="none" stroke="midnightblue" d="M233,-142.35C233,-128.959 233,-114.981 233,-102.343"/>
<polygon fill="none" stroke="midnightblue" points="229.5,-142.443 233,-152.443 236.5,-142.443 229.5,-142.443"/>
</g>
<!-- Node6 -->
<g id="node6" class="node"><title>Node6</title>
<g id="a_node6"><a xlink:href="../../d7/d4b/classo2_1_1framework_1_1data__matcher_1_1StartTimeValueMatcher.html" target="_top" xlink:title="Matcher on actual time, as reported in the DataProcessingHeader. ">
<polygon fill="none" stroke="black" points="326,-17.5 326,-96.5 492,-96.5 492,-17.5 326,-17.5"/>
<text text-anchor="start" x="334" y="-84.5" font-family="Helvetica,sans-Serif" font-size="10.00">o2::framework::data</text>
<text text-anchor="middle" x="409" y="-73.5" font-family="Helvetica,sans-Serif" font-size="10.00">_matcher::StartTimeValueMatcher</text>
<polyline fill="none" stroke="black" points="326,-66.5 492,-66.5 "/>
<text text-anchor="start" x="334" y="-54.5" font-family="Helvetica,sans-Serif" font-size="10.00">+ mScale</text>
<polyline fill="none" stroke="black" points="326,-47.5 492,-47.5 "/>
<text text-anchor="start" x="334" y="-35.5" font-family="Helvetica,sans-Serif" font-size="10.00">+ StartTimeValueMatcher()</text>
<text text-anchor="start" x="334" y="-24.5" font-family="Helvetica,sans-Serif" font-size="10.00">+ StartTimeValueMatcher()</text>
</a>
</g>
</g>
<!-- Node5&#45;&gt;Node6 -->
<g id="edge5" class="edge"><title>Node5&#45;&gt;Node6</title>
<path fill="none" stroke="midnightblue" d="M409,-142.003C409,-126.7 409,-110.652 409,-96.7314"/>
<polygon fill="none" stroke="midnightblue" points="405.5,-142.443 409,-152.443 412.5,-142.443 405.5,-142.443"/>
</g>
<!-- Node7 -->
<g id="node7" class="node"><title>Node7</title>
<g id="a_node7"><a xlink:href="../../d4/d9f/classo2_1_1framework_1_1data__matcher_1_1SubSpecificationTypeValueMatcher.html" target="_top" xlink:title="Something which can be matched against a header::SubSpecificationType. ">
<polygon fill="none" stroke="black" points="510,-1 510,-113 656,-113 656,-1 510,-1"/>
<text text-anchor="start" x="518" y="-101" font-family="Helvetica,sans-Serif" font-size="10.00">o2::framework::data</text>
<text text-anchor="start" x="518" y="-90" font-family="Helvetica,sans-Serif" font-size="10.00">_matcher::SubSpecification</text>
<text text-anchor="middle" x="583" y="-79" font-family="Helvetica,sans-Serif" font-size="10.00">TypeValueMatcher</text>
<polyline fill="none" stroke="black" points="510,-72 656,-72 "/>
<text text-anchor="middle" x="583" y="-60" font-family="Helvetica,sans-Serif" font-size="10.00"> </text>
<polyline fill="none" stroke="black" points="510,-53 656,-53 "/>
<text text-anchor="start" x="518" y="-41" font-family="Helvetica,sans-Serif" font-size="10.00">+ SubSpecificationTypeValue</text>
<text text-anchor="start" x="518" y="-30" font-family="Helvetica,sans-Serif" font-size="10.00">Matcher()</text>
<text text-anchor="start" x="518" y="-19" font-family="Helvetica,sans-Serif" font-size="10.00">+ SubSpecificationTypeValue</text>
<text text-anchor="start" x="518" y="-8" font-family="Helvetica,sans-Serif" font-size="10.00">Matcher()</text>
</a>
</g>
</g>
<!-- Node5&#45;&gt;Node7 -->
<g id="edge6" class="edge"><title>Node5&#45;&gt;Node7</title>
<path fill="none" stroke="midnightblue" d="M475.252,-147.171C488.704,-136.038 502.858,-124.324 516.325,-113.18"/>
<polygon fill="none" stroke="midnightblue" points="472.896,-144.577 467.424,-153.649 477.359,-149.97 472.896,-144.577"/>
</g>
</g>
</svg>
