<?xml version="1.0" encoding="UTF-8" standalone="no"?>
<!DOCTYPE svg PUBLIC "-//W3C//DTD SVG 1.1//EN"
 "http://www.w3.org/Graphics/SVG/1.1/DTD/svg11.dtd">
<!-- Generated by graphviz version 2.36.0 (20140111.2315)
 -->
<!-- Title: /home/travis/build/AliceO2Group/AliceO2/Detectors/ITSMFT/MFT/base/src/Ladder.cxx Pages: 1 -->
<!--zoomable 286 -->
<svg id="main" version="1.1" xmlns="http://www.w3.org/2000/svg" xmlns:xlink="http://www.w3.org/1999/xlink" xml:space="preserve" onload="init(evt)">
<style type="text/css"><![CDATA[
.edge:hover path { stroke: red; }
.edge:hover polygon { stroke: red; fill: red; }
]]></style>
<script type="text/javascript"><![CDATA[
var edges = document.getElementsByTagName('g');
if (edges && edges.length) {
  for (var i=0;i<edges.length;i++) {
    if (edges[i].id.substr(0,4)=='edge') {
      edges[i].setAttribute('class','edge');
    }
  }
}
]]></script>
        <defs>
                <circle id="rim" cx="0" cy="0" r="7"/>
                <circle id="rim2" cx="0" cy="0" r="3.5"/>
                <g id="zoomPlus">
                        <use xlink:href="#rim" fill="#404040">
                                <set attributeName="fill" to="#808080" begin="zoomplus.mouseover" end="zoomplus.mouseout"/>
                        </use>
                        <path d="M-4,0h8M0,-4v8" fill="none" stroke="white" stroke-width="1.5" pointer-events="none"/>
                </g>
                <g id="zoomMin">
                        <use xlink:href="#rim" fill="#404040">
                                <set attributeName="fill" to="#808080" begin="zoomminus.mouseover" end="zoomminus.mouseout"/>
                        </use>
                        <path d="M-4,0h8" fill="none" stroke="white" stroke-width="1.5" pointer-events="none"/>
                </g>
                <g id="dirArrow">
                        <path fill="none" stroke="white" stroke-width="1.5" d="M0,-3.0v7 M-2.5,-0.5L0,-3.0L2.5,-0.5"/>
                </g>
               <g id="resetDef">
                       <use xlink:href="#rim2" fill="#404040">
                               <set attributeName="fill" to="#808080" begin="reset.mouseover" end="reset.mouseout"/>
                       </use>
               </g>
        </defs>

<script type="text/javascript">
var viewWidth = 1367;
var viewHeight = 286;
var sectionId = 'dynsection-0';
</script>
<script xlink:href="../../svgpan.js"/>
<svg id="graph" class="graph">
<g id="viewport">
<title>/home/travis/build/AliceO2Group/AliceO2/Detectors/ITSMFT/MFT/base/src/Ladder.cxx</title>
<!-- Node1 -->
<g id="node1" class="node"><title>Node1</title>
<polygon fill="#bfbfbf" stroke="black" points="511.995,-225 511.995,-277 636.995,-277 636.995,-225 511.995,-225"/>
<text text-anchor="start" x="519.995" y="-265" font-family="Helvetica,sans-Serif" font-size="10.00">/home/travis/build</text>
<text text-anchor="start" x="519.995" y="-254" font-family="Helvetica,sans-Serif" font-size="10.00">/AliceO2Group/AliceO2</text>
<text text-anchor="start" x="519.995" y="-243" font-family="Helvetica,sans-Serif" font-size="10.00">/Detectors/ITSMFT/MFT</text>
<text text-anchor="middle" x="574.495" y="-232" font-family="Helvetica,sans-Serif" font-size="10.00">/base/src/Ladder.cxx</text>
</g>
<!-- Node2 -->
<g id="node2" class="node"><title>Node2</title>
<polygon fill="none" stroke="#bfbfbf" points="432.495,-0.5 432.495,-19.5 508.495,-19.5 508.495,-0.5 432.495,-0.5"/>
<text text-anchor="middle" x="470.495" y="-7.5" font-family="Helvetica,sans-Serif" font-size="10.00">TGeoMatrix.h</text>
</g>
<!-- Node1&#45;&gt;Node2 -->
<g id="edge1" class="edge"><title>Node1&#45;&gt;Node2</title>
<path fill="none" stroke="midnightblue" d="M511.939,-247.58C374.267,-241.613 54.6718,-223.993 22.4954,-188 -94.838,-56.75 283.748,-21.6696 421.982,-13.3472"/>
<polygon fill="midnightblue" stroke="midnightblue" points="422.503,-16.823 432.283,-12.75 422.097,-9.83469 422.503,-16.823"/>
</g>
<!-- Node3 -->
<g id="node3" class="node"><title>Node3</title>
<polygon fill="none" stroke="#bfbfbf" points="266.495,-112.5 266.495,-131.5 352.495,-131.5 352.495,-112.5 266.495,-112.5"/>
<text text-anchor="middle" x="309.495" y="-119.5" font-family="Helvetica,sans-Serif" font-size="10.00">TGeoManager.h</text>
</g>
<!-- Node1&#45;&gt;Node3 -->
<g id="edge2" class="edge"><title>Node1&#45;&gt;Node3</title>
<path fill="none" stroke="midnightblue" d="M511.823,-247.465C375.587,-241.31 62.1032,-223.415 30.4954,-188 24.5766,-181.368 24.7322,-174.767 30.4954,-168 58.8827,-134.667 183.292,-125.94 256.04,-123.71"/>
<polygon fill="midnightblue" stroke="midnightblue" points="256.481,-127.2 266.381,-123.427 256.289,-120.202 256.481,-127.2"/>
</g>
<!-- Node4 -->
<g id="node4" class="node"><title>Node4</title>
<polygon fill="none" stroke="#bfbfbf" points="39.9954,-168.5 39.9954,-187.5 112.995,-187.5 112.995,-168.5 39.9954,-168.5"/>
<text text-anchor="middle" x="76.4954" y="-175.5" font-family="Helvetica,sans-Serif" font-size="10.00">TGeoBBox.h</text>
</g>
<!-- Node1&#45;&gt;Node4 -->
<g id="edge3" class="edge"><title>Node1&#45;&gt;Node4</title>
<path fill="none" stroke="midnightblue" d="M511.657,-242.637C425.992,-232.323 267.563,-212.274 123.224,-188.216"/>
<polygon fill="midnightblue" stroke="midnightblue" points="123.74,-184.754 113.298,-186.552 122.582,-191.658 123.74,-184.754"/>
</g>
<!-- Node5 -->
<g id="node5" class="node"><title>Node5</title>
<polygon fill="none" stroke="#bfbfbf" points="130.995,-168.5 130.995,-187.5 201.995,-187.5 201.995,-168.5 130.995,-168.5"/>
<text text-anchor="middle" x="166.495" y="-175.5" font-family="Helvetica,sans-Serif" font-size="10.00">TGeoTube.h</text>
</g>
<!-- Node1&#45;&gt;Node5 -->
<g id="edge4" class="edge"><title>Node1&#45;&gt;Node5</title>
<path fill="none" stroke="midnightblue" d="M511.77,-239.839C441.454,-228.323 323.779,-208.681 212.405,-188.127"/>
<polygon fill="midnightblue" stroke="midnightblue" points="212.809,-184.642 202.339,-186.264 211.535,-191.525 212.809,-184.642"/>
</g>
<!-- Node6 -->
<g id="node6" class="node"><title>Node6</title>
<polygon fill="none" stroke="#bfbfbf" points="220.495,-168.5 220.495,-187.5 344.495,-187.5 344.495,-168.5 220.495,-168.5"/>
<text text-anchor="middle" x="282.495" y="-175.5" font-family="Helvetica,sans-Serif" font-size="10.00">TGeoCompositeShape.h</text>
</g>
<!-- Node1&#45;&gt;Node6 -->
<g id="edge5" class="edge"><title>Node1&#45;&gt;Node6</title>
<path fill="none" stroke="midnightblue" d="M511.854,-234.769C456.355,-221.274 376.69,-201.903 327.342,-189.905"/>
<polygon fill="midnightblue" stroke="midnightblue" points="328.137,-186.496 317.593,-187.534 326.483,-193.298 328.137,-186.496"/>
</g>
<!-- Node7 -->
<g id="node7" class="node"><title>Node7</title>
<polygon fill="none" stroke="#bfbfbf" points="362.495,-168.5 362.495,-187.5 454.495,-187.5 454.495,-168.5 362.495,-168.5"/>
<text text-anchor="middle" x="408.495" y="-175.5" font-family="Helvetica,sans-Serif" font-size="10.00">TGeoBoolNode.h</text>
</g>
<!-- Node1&#45;&gt;Node7 -->
<g id="edge6" class="edge"><title>Node1&#45;&gt;Node7</title>
<path fill="none" stroke="midnightblue" d="M515.97,-224.968C489.581,-213.681 459.568,-200.844 437.977,-191.61"/>
<polygon fill="midnightblue" stroke="midnightblue" points="439.264,-188.353 428.693,-187.639 436.511,-194.789 439.264,-188.353"/>
</g>
<!-- Node8 -->
<g id="node8" class="node"><title>Node8</title>
<polygon fill="none" stroke="#bfbfbf" points="472.995,-168.5 472.995,-187.5 543.995,-187.5 543.995,-168.5 472.995,-168.5"/>
<text text-anchor="middle" x="508.495" y="-175.5" font-family="Helvetica,sans-Serif" font-size="10.00">FairLogger.h</text>
</g>
<!-- Node1&#45;&gt;Node8 -->
<g id="edge7" class="edge"><title>Node1&#45;&gt;Node8</title>
<path fill="none" stroke="midnightblue" d="M551.04,-224.768C541.943,-214.982 531.787,-204.056 523.68,-195.335"/>
<polygon fill="midnightblue" stroke="midnightblue" points="526.008,-192.698 516.636,-187.757 520.881,-197.464 526.008,-192.698"/>
</g>
<!-- Node9 -->
<g id="node9" class="node"><title>Node9</title>
<g id="a_node9"><a xlink:href="../../da/d2d/AlpideChip_8h.html" target="_top" xlink:title="Creates an ALPIDE chip in simulation. ">
<polygon fill="none" stroke="black" points="561.995,-168.5 561.995,-187.5 718.995,-187.5 718.995,-168.5 561.995,-168.5"/>
<text text-anchor="middle" x="640.495" y="-175.5" font-family="Helvetica,sans-Serif" font-size="10.00">ITSMFTSimulation/AlpideChip.h</text>
</a>
</g>
</g>
<!-- Node1&#45;&gt;Node9 -->
<g id="edge8" class="edge"><title>Node1&#45;&gt;Node9</title>
<path fill="none" stroke="midnightblue" d="M597.95,-224.768C607.048,-214.982 617.204,-204.056 625.311,-195.335"/>
<polygon fill="midnightblue" stroke="midnightblue" points="628.11,-197.464 632.355,-187.757 622.983,-192.698 628.11,-197.464"/>
</g>
<!-- Node11 -->
<g id="node11" class="node"><title>Node11</title>
<g id="a_node11"><a xlink:href="../../d3/dba/SegmentationAlpide_8h.html" target="_top" xlink:title="Definition of the SegmentationAlpide class. ">
<polygon fill="none" stroke="black" points="736.995,-168.5 736.995,-187.5 909.995,-187.5 909.995,-168.5 736.995,-168.5"/>
<text text-anchor="middle" x="823.495" y="-175.5" font-family="Helvetica,sans-Serif" font-size="10.00">ITSMFTBase/SegmentationAlpide.h</text>
</a>
</g>
</g>
<!-- Node1&#45;&gt;Node11 -->
<g id="edge11" class="edge"><title>Node1&#45;&gt;Node11</title>
<path fill="none" stroke="midnightblue" d="M637.007,-232.175C682.993,-219.063 744.127,-201.631 783.646,-190.363"/>
<polygon fill="midnightblue" stroke="midnightblue" points="784.793,-193.675 793.45,-187.567 782.874,-186.943 784.793,-193.675"/>
</g>
<!-- Node12 -->
<g id="node12" class="node"><title>Node12</title>
<g id="a_node12"><a xlink:href="../../d9/de7/LadderSegmentation_8h.html" target="_top" xlink:title="Description of the virtual segmentation of a ladder. ">
<polygon fill="none" stroke="black" points="928.495,-168.5 928.495,-187.5 1088.5,-187.5 1088.5,-168.5 928.495,-168.5"/>
<text text-anchor="middle" x="1008.5" y="-175.5" font-family="Helvetica,sans-Serif" font-size="10.00">MFTBase/LadderSegmentation.h</text>
</a>
</g>
</g>
<!-- Node1&#45;&gt;Node12 -->
<g id="edge13" class="edge"><title>Node1&#45;&gt;Node12</title>
<path fill="none" stroke="midnightblue" d="M637.139,-239.752C719.728,-226.241 864.163,-202.612 946.451,-189.15"/>
<polygon fill="midnightblue" stroke="midnightblue" points="947.11,-192.589 956.414,-187.52 945.98,-185.681 947.11,-192.589"/>
</g>
<!-- Node17 -->
<g id="node17" class="node"><title>Node17</title>
<g id="a_node17"><a xlink:href="../../d3/dbd/ChipSegmentation_8h.html" target="_top" xlink:title="Chip (sensor) segmentation description. ">
<polygon fill="none" stroke="black" points="974.995,-112.5 974.995,-131.5 1126,-131.5 1126,-112.5 974.995,-112.5"/>
<text text-anchor="middle" x="1050.5" y="-119.5" font-family="Helvetica,sans-Serif" font-size="10.00">MFTBase/ChipSegmentation.h</text>
</a>
</g>
</g>
<!-- Node1&#45;&gt;Node17 -->
<g id="edge21" class="edge"><title>Node1&#45;&gt;Node17</title>
<path fill="none" stroke="midnightblue" d="M637.237,-247.155C769.514,-240.514 1067.36,-221.92 1097.5,-188 1111.88,-171.807 1091.43,-151.295 1073.17,-137.691"/>
<polygon fill="midnightblue" stroke="midnightblue" points="1074.74,-134.511 1064.54,-131.616 1070.71,-140.235 1074.74,-134.511"/>
</g>
<!-- Node18 -->
<g id="node18" class="node"><title>Node18</title>
<g id="a_node18"><a xlink:href="../../d2/d8d/Flex_8h.html" target="_top" xlink:title="Flex (Printed Cabled Board) class for ALICE MFT upgrade. ">
<polygon fill="none" stroke="black" points="1075,-56.5 1075,-75.5 1164,-75.5 1164,-56.5 1075,-56.5"/>
<text text-anchor="middle" x="1119.5" y="-63.5" font-family="Helvetica,sans-Serif" font-size="10.00">MFTBase/Flex.h</text>
</a>
</g>
</g>
<!-- Node1&#45;&gt;Node18 -->
<g id="edge22" class="edge"><title>Node1&#45;&gt;Node18</title>
<path fill="none" stroke="midnightblue" d="M637.162,-250.854C763.298,-251.313 1041.98,-245.577 1114.5,-188 1141.85,-166.282 1140.09,-146.477 1134.5,-112 1133.03,-102.957 1130,-93.275 1127.05,-85.2176"/>
<polygon fill="midnightblue" stroke="midnightblue" points="1130.25,-83.7907 1123.35,-75.7514 1123.73,-86.3393 1130.25,-83.7907"/>
</g>
<!-- Node19 -->
<g id="node19" class="node"><title>Node19</title>
<g id="a_node19"><a xlink:href="../../d0/d12/Ladder_8h.html" target="_top" xlink:title="Class building the Ladder geometry. ">
<polygon fill="none" stroke="black" points="1182.5,-168.5 1182.5,-187.5 1282.5,-187.5 1282.5,-168.5 1182.5,-168.5"/>
<text text-anchor="middle" x="1232.5" y="-175.5" font-family="Helvetica,sans-Serif" font-size="10.00">MFTBase/Ladder.h</text>
</a>
</g>
</g>
<!-- Node1&#45;&gt;Node19 -->
<g id="edge24" class="edge"><title>Node1&#45;&gt;Node19</title>
<path fill="none" stroke="midnightblue" d="M637.008,-244.216C745.36,-234.025 975.013,-211.694 1168.5,-188 1169.75,-187.847 1171.01,-187.689 1172.29,-187.529"/>
<polygon fill="midnightblue" stroke="midnightblue" points="1172.74,-191 1182.21,-186.244 1171.84,-184.058 1172.74,-191"/>
</g>
<!-- Node21 -->
<g id="node21" class="node"><title>Node21</title>
<g id="a_node21"><a xlink:href="../../d6/d2e/ITSMFT_2MFT_2base_2include_2MFTBase_2Geometry_8h.html" target="_top" xlink:title="MFTBase/Geometry.h">
<polygon fill="none" stroke="black" points="1247,-56.5 1247,-75.5 1360,-75.5 1360,-56.5 1247,-56.5"/>
<text text-anchor="middle" x="1303.5" y="-63.5" font-family="Helvetica,sans-Serif" font-size="10.00">MFTBase/Geometry.h</text>
</a>
</g>
</g>
<!-- Node1&#45;&gt;Node21 -->
<g id="edge27" class="edge"><title>Node1&#45;&gt;Node21</title>
<path fill="none" stroke="midnightblue" d="M637.019,-248.413C802.048,-243.694 1240.24,-227.538 1291.5,-188 1321.91,-164.543 1315.15,-113.314 1308.7,-85.6344"/>
<polygon fill="midnightblue" stroke="midnightblue" points="1312.02,-84.4877 1306.15,-75.6687 1305.24,-86.2244 1312.02,-84.4877"/>
</g>
<!-- Node9&#45;&gt;Node3 -->
<g id="edge9" class="edge"><title>Node9&#45;&gt;Node3</title>
<path fill="none" stroke="midnightblue" d="M588.048,-168.444C526.401,-158.386 424.67,-141.79 362.698,-131.68"/>
<polygon fill="midnightblue" stroke="midnightblue" points="363.165,-128.21 352.732,-130.054 362.038,-135.118 363.165,-128.21"/>
</g>
<!-- Node10 -->
<g id="node10" class="node"><title>Node10</title>
<polygon fill="none" stroke="#bfbfbf" points="635.495,-112.5 635.495,-131.5 691.495,-131.5 691.495,-112.5 635.495,-112.5"/>
<text text-anchor="middle" x="663.495" y="-119.5" font-family="Helvetica,sans-Serif" font-size="10.00">Rtypes.h</text>
</g>
<!-- Node9&#45;&gt;Node10 -->
<g id="edge10" class="edge"><title>Node9&#45;&gt;Node10</title>
<path fill="none" stroke="midnightblue" d="M644.293,-168.083C647.408,-160.77 651.918,-150.181 655.785,-141.103"/>
<polygon fill="midnightblue" stroke="midnightblue" points="659.07,-142.323 659.768,-131.751 652.629,-139.58 659.07,-142.323"/>
</g>
<!-- Node11&#45;&gt;Node10 -->
<g id="edge12" class="edge"><title>Node11&#45;&gt;Node10</title>
<path fill="none" stroke="midnightblue" d="M798.143,-168.444C771.226,-159.359 728.499,-144.939 698.408,-134.783"/>
<polygon fill="midnightblue" stroke="midnightblue" points="699.323,-131.398 688.729,-131.516 697.085,-138.031 699.323,-131.398"/>
</g>
<!-- Node13 -->
<g id="node13" class="node"><title>Node13</title>
<polygon fill="none" stroke="#bfbfbf" points="733.995,-112.5 733.995,-131.5 818.995,-131.5 818.995,-112.5 733.995,-112.5"/>
<text text-anchor="middle" x="776.495" y="-119.5" font-family="Helvetica,sans-Serif" font-size="10.00">TClonesArray.h</text>
</g>
<!-- Node12&#45;&gt;Node13 -->
<g id="edge14" class="edge"><title>Node12&#45;&gt;Node13</title>
<path fill="none" stroke="midnightblue" d="M971.734,-168.444C931.432,-159.063 866.686,-143.993 822.911,-133.804"/>
<polygon fill="midnightblue" stroke="midnightblue" points="823.618,-130.375 813.085,-131.516 822.031,-137.192 823.618,-130.375"/>
</g>
<!-- Node14 -->
<g id="node14" class="node"><title>Node14</title>
<polygon fill="none" stroke="#bfbfbf" points="836.995,-112.5 836.995,-131.5 917.995,-131.5 917.995,-112.5 836.995,-112.5"/>
<text text-anchor="middle" x="877.495" y="-119.5" font-family="Helvetica,sans-Serif" font-size="10.00">TXMLEngine.h</text>
</g>
<!-- Node12&#45;&gt;Node14 -->
<g id="edge15" class="edge"><title>Node12&#45;&gt;Node14</title>
<path fill="none" stroke="midnightblue" d="M987.738,-168.444C966.179,-159.557 932.232,-145.563 907.702,-135.451"/>
<polygon fill="midnightblue" stroke="midnightblue" points="908.735,-132.092 898.156,-131.516 906.067,-138.563 908.735,-132.092"/>
</g>
<!-- Node15 -->
<g id="node15" class="node"><title>Node15</title>
<g id="a_node15"><a xlink:href="../../d3/de7/VSegmentation_8h.html" target="_top" xlink:title="Abstract base class for MFT Segmentation description. ">
<polygon fill="none" stroke="black" points="898.995,-56.5 898.995,-75.5 1036,-75.5 1036,-56.5 898.995,-56.5"/>
<text text-anchor="middle" x="967.495" y="-63.5" font-family="Helvetica,sans-Serif" font-size="10.00">MFTBase/VSegmentation.h</text>
</a>
</g>
</g>
<!-- Node12&#45;&gt;Node15 -->
<g id="edge16" class="edge"><title>Node12&#45;&gt;Node15</title>
<path fill="none" stroke="midnightblue" d="M995.998,-168.302C985.621,-160.251 971.608,-147.245 965.495,-132 959.587,-117.264 960.773,-99.1036 963.042,-85.7278"/>
<polygon fill="midnightblue" stroke="midnightblue" points="966.499,-86.2958 965.072,-75.7975 959.64,-84.8944 966.499,-86.2958"/>
</g>
<!-- Node12&#45;&gt;Node17 -->
<g id="edge19" class="edge"><title>Node12&#45;&gt;Node17</title>
<path fill="none" stroke="midnightblue" d="M1015.43,-168.083C1021.42,-160.377 1030.25,-149.033 1037.54,-139.653"/>
<polygon fill="midnightblue" stroke="midnightblue" points="1040.31,-141.793 1043.69,-131.751 1034.79,-137.496 1040.31,-141.793"/>
</g>
<!-- Node15&#45;&gt;Node2 -->
<g id="edge18" class="edge"><title>Node15&#45;&gt;Node2</title>
<path fill="none" stroke="midnightblue" d="M898.912,-57.5482C796.837,-46.4576 607.469,-25.8825 518.732,-16.241"/>
<polygon fill="midnightblue" stroke="midnightblue" points="518.996,-12.7492 508.677,-15.1485 518.24,-19.7082 518.996,-12.7492"/>
</g>
<!-- Node16 -->
<g id="node16" class="node"><title>Node16</title>
<polygon fill="none" stroke="#bfbfbf" points="1124.5,-0.5 1124.5,-19.5 1186.5,-19.5 1186.5,-0.5 1124.5,-0.5"/>
<text text-anchor="middle" x="1155.5" y="-7.5" font-family="Helvetica,sans-Serif" font-size="10.00">TNamed.h</text>
</g>
<!-- Node15&#45;&gt;Node16 -->
<g id="edge17" class="edge"><title>Node15&#45;&gt;Node16</title>
<path fill="none" stroke="midnightblue" d="M997.285,-56.4435C1029.32,-47.2406 1080.43,-32.5617 1115.85,-22.3879"/>
<polygon fill="midnightblue" stroke="midnightblue" points="1117.2,-25.6412 1125.85,-19.5164 1115.27,-18.9132 1117.2,-25.6412"/>
</g>
<!-- Node17&#45;&gt;Node15 -->
<g id="edge20" class="edge"><title>Node17&#45;&gt;Node15</title>
<path fill="none" stroke="midnightblue" d="M1037.16,-112.324C1024.33,-103.979 1004.71,-91.2122 989.556,-81.3524"/>
<polygon fill="midnightblue" stroke="midnightblue" points="991.089,-78.1742 980.798,-75.6545 987.271,-84.0417 991.089,-78.1742"/>
</g>
<!-- Node18&#45;&gt;Node16 -->
<g id="edge23" class="edge"><title>Node18&#45;&gt;Node16</title>
<path fill="none" stroke="midnightblue" d="M1125.44,-56.083C1130.47,-48.5341 1137.83,-37.4948 1144.01,-28.2298"/>
<polygon fill="midnightblue" stroke="midnightblue" points="1147.03,-30.0131 1149.66,-19.7511 1141.2,-26.1301 1147.03,-30.0131"/>
</g>
<!-- Node19&#45;&gt;Node16 -->
<g id="edge25" class="edge"><title>Node19&#45;&gt;Node16</title>
<path fill="none" stroke="midnightblue" d="M1228.46,-168.377C1224.23,-159.322 1217.38,-144.666 1211.5,-132 1194.41,-95.246 1174.5,-52.166 1163.62,-28.606"/>
<polygon fill="midnightblue" stroke="midnightblue" points="1166.79,-27.1247 1159.42,-19.5128 1160.44,-30.059 1166.79,-27.1247"/>
</g>
<!-- Node20 -->
<g id="node20" class="node"><title>Node20</title>
<polygon fill="none" stroke="#bfbfbf" points="1220.5,-112.5 1220.5,-131.5 1302.5,-131.5 1302.5,-112.5 1220.5,-112.5"/>
<text text-anchor="middle" x="1261.5" y="-119.5" font-family="Helvetica,sans-Serif" font-size="10.00">TGeoVolume.h</text>
</g>
<!-- Node19&#45;&gt;Node20 -->
<g id="edge26" class="edge"><title>Node19&#45;&gt;Node20</title>
<path fill="none" stroke="midnightblue" d="M1237.28,-168.083C1241.25,-160.691 1247.02,-149.953 1251.93,-140.811"/>
<polygon fill="midnightblue" stroke="midnightblue" points="1255.15,-142.217 1256.8,-131.751 1248.98,-138.905 1255.15,-142.217"/>
</g>
<!-- Node21&#45;&gt;Node16 -->
<g id="edge28" class="edge"><title>Node21&#45;&gt;Node16</title>
<path fill="none" stroke="midnightblue" d="M1280.04,-56.4435C1255.36,-47.4381 1216.31,-33.1891 1188.52,-23.049"/>
<polygon fill="midnightblue" stroke="midnightblue" points="1189.43,-19.6561 1178.84,-19.5164 1187.03,-26.2321 1189.43,-19.6561"/>
</g>
</g>
</svg>
        <g id="navigator" transform="translate(0 0)" fill="#404254">
                <rect fill="#f2f5e9" fill-opacity="0.5" stroke="#606060" stroke-width=".5" x="0" y="0" width="60" height="60"/>
                <use id="zoomplus" xlink:href="#zoomPlus" x="17" y="9" onmousedown="handleZoom(evt,'in')"/>
                <use id="zoomminus" xlink:href="#zoomMin" x="42" y="9" onmousedown="handleZoom(evt,'out')"/>
                <use id="reset" xlink:href="#resetDef" x="30" y="36" onmousedown="handleReset()"/>
                <g id="arrowUp" xlink:href="#dirArrow" transform="translate(30 24)" onmousedown="handlePan(0,-1)">
                  <use xlink:href="#rim" fill="#404040">
                        <set attributeName="fill" to="#808080" begin="arrowUp.mouseover" end="arrowUp.mouseout"/>
                  </use>
                  <path fill="none" stroke="white" stroke-width="1.5" d="M0,-3.0v7 M-2.5,-0.5L0,-3.0L2.5,-0.5"/>
                </g>
                <g id="arrowRight" xlink:href="#dirArrow" transform="rotate(90) translate(36 -43)" onmousedown="handlePan(1,0)">
                  <use xlink:href="#rim" fill="#404040">
                        <set attributeName="fill" to="#808080" begin="arrowRight.mouseover" end="arrowRight.mouseout"/>
                  </use>
                  <path fill="none" stroke="white" stroke-width="1.5" d="M0,-3.0v7 M-2.5,-0.5L0,-3.0L2.5,-0.5"/>
                </g>
                <g id="arrowDown" xlink:href="#dirArrow" transform="rotate(180) translate(-30 -48)" onmousedown="handlePan(0,1)">
                  <use xlink:href="#rim" fill="#404040">
                        <set attributeName="fill" to="#808080" begin="arrowDown.mouseover" end="arrowDown.mouseout"/>
                  </use>
                  <path fill="none" stroke="white" stroke-width="1.5" d="M0,-3.0v7 M-2.5,-0.5L0,-3.0L2.5,-0.5"/>
                </g>
                <g id="arrowLeft" xlink:href="#dirArrow" transform="rotate(270) translate(-36 17)" onmousedown="handlePan(-1,0)">
                  <use xlink:href="#rim" fill="#404040">
                        <set attributeName="fill" to="#808080" begin="arrowLeft.mouseover" end="arrowLeft.mouseout"/>
                  </use>
                  <path fill="none" stroke="white" stroke-width="1.5" d="M0,-3.0v7 M-2.5,-0.5L0,-3.0L2.5,-0.5"/>
                </g>
        </g>
        <svg viewBox="0 0 15 15" width="100%" height="30px" preserveAspectRatio="xMaxYMin meet">
         <g id="arrow_out" transform="scale(0.3 0.3)">
          <a xlink:href="Ladder_8cxx__incl_org.svg" target="_base">
           <rect id="button" ry="5" rx="5" y="6" x="6" height="38" width="38"
                fill="#f2f5e9" fill-opacity="0.5" stroke="#606060" stroke-width="1.0"/>
           <path id="arrow"
             d="M 11.500037,31.436501 C 11.940474,20.09759 22.043105,11.32322 32.158766,21.979434 L 37.068811,17.246167 C 37.068811,17.246167 37.088388,32 37.088388,32 L 22.160133,31.978069 C 22.160133,31.978069 26.997745,27.140456 26.997745,27.140456 C 18.528582,18.264221 13.291696,25.230495 11.500037,31.436501 z"
             style="fill:#404040;"/>
          </a>
         </g>
        </svg>
</svg>
