<?xml version="1.0" encoding="UTF-8" standalone="no"?>
<!DOCTYPE svg PUBLIC "-//W3C//DTD SVG 1.1//EN"
 "http://www.w3.org/Graphics/SVG/1.1/DTD/svg11.dtd">
<!-- Generated by graphviz version 2.36.0 (20140111.2315)
 -->
<!-- Title: /home/travis/build/AliceO2Group/AliceO2/Utilities/DataFlow/src/runTimeframeReaderDevice.cxx Pages: 1 -->
<!--zoomable 422 -->
<svg id="main" version="1.1" xmlns="http://www.w3.org/2000/svg" xmlns:xlink="http://www.w3.org/1999/xlink" xml:space="preserve" onload="init(evt)">
<style type="text/css"><![CDATA[
.edge:hover path { stroke: red; }
.edge:hover polygon { stroke: red; fill: red; }
]]></style>
<script type="text/javascript"><![CDATA[
var edges = document.getElementsByTagName('g');
if (edges && edges.length) {
  for (var i=0;i<edges.length;i++) {
    if (edges[i].id.substr(0,4)=='edge') {
      edges[i].setAttribute('class','edge');
    }
  }
}
]]></script>
        <defs>
                <circle id="rim" cx="0" cy="0" r="7"/>
                <circle id="rim2" cx="0" cy="0" r="3.5"/>
                <g id="zoomPlus">
                        <use xlink:href="#rim" fill="#404040">
                                <set attributeName="fill" to="#808080" begin="zoomplus.mouseover" end="zoomplus.mouseout"/>
                        </use>
                        <path d="M-4,0h8M0,-4v8" fill="none" stroke="white" stroke-width="1.5" pointer-events="none"/>
                </g>
                <g id="zoomMin">
                        <use xlink:href="#rim" fill="#404040">
                                <set attributeName="fill" to="#808080" begin="zoomminus.mouseover" end="zoomminus.mouseout"/>
                        </use>
                        <path d="M-4,0h8" fill="none" stroke="white" stroke-width="1.5" pointer-events="none"/>
                </g>
                <g id="dirArrow">
                        <path fill="none" stroke="white" stroke-width="1.5" d="M0,-3.0v7 M-2.5,-0.5L0,-3.0L2.5,-0.5"/>
                </g>
               <g id="resetDef">
                       <use xlink:href="#rim2" fill="#404040">
                               <set attributeName="fill" to="#808080" begin="reset.mouseover" end="reset.mouseout"/>
                       </use>
               </g>
        </defs>

<script type="text/javascript">
var viewWidth = 2095;
var viewHeight = 422;
var sectionId = 'dynsection-0';
</script>
<script xlink:href="../../svgpan.js"/>
<svg id="graph" class="graph">
<g id="viewport">
<title>/home/travis/build/AliceO2Group/AliceO2/Utilities/DataFlow/src/runTimeframeReaderDevice.cxx</title>
<!-- Node1 -->
<g id="node1" class="node"><title>Node1</title>
<polygon fill="#bfbfbf" stroke="black" points="1545.5,-361 1545.5,-413 1706.5,-413 1706.5,-361 1545.5,-361"/>
<text text-anchor="start" x="1553.5" y="-401" font-family="Helvetica,sans-Serif" font-size="10.00">/home/travis/build</text>
<text text-anchor="start" x="1553.5" y="-390" font-family="Helvetica,sans-Serif" font-size="10.00">/AliceO2Group/AliceO2</text>
<text text-anchor="start" x="1553.5" y="-379" font-family="Helvetica,sans-Serif" font-size="10.00">/Utilities/DataFlow/src</text>
<text text-anchor="middle" x="1626" y="-368" font-family="Helvetica,sans-Serif" font-size="10.00">/runTimeframeReaderDevice.cxx</text>
</g>
<!-- Node2 -->
<g id="node2" class="node"><title>Node2</title>
<polygon fill="none" stroke="#bfbfbf" points="1506.5,-298.5 1506.5,-317.5 1607.5,-317.5 1607.5,-298.5 1506.5,-298.5"/>
<text text-anchor="middle" x="1557" y="-305.5" font-family="Helvetica,sans-Serif" font-size="10.00">runFairMQDevice.h</text>
</g>
<!-- Node1&#45;&gt;Node2 -->
<g id="edge1" class="edge"><title>Node1&#45;&gt;Node2</title>
<path fill="none" stroke="midnightblue" d="M1603.41,-360.787C1592.86,-349.02 1580.63,-335.366 1571.37,-325.033"/>
<polygon fill="midnightblue" stroke="midnightblue" points="1573.95,-322.669 1564.67,-317.558 1568.74,-327.341 1573.95,-322.669"/>
</g>
<!-- Node3 -->
<g id="node3" class="node"><title>Node3</title>
<g id="a_node3"><a xlink:href="../../da/d74/TimeframeReaderDevice_8h.html" target="_top" xlink:title="DataFlow/TimeframeReader\lDevice.h">
<polygon fill="none" stroke="black" points="1626,-293 1626,-323 1766,-323 1766,-293 1626,-293"/>
<text text-anchor="start" x="1634" y="-311" font-family="Helvetica,sans-Serif" font-size="10.00">DataFlow/TimeframeReader</text>
<text text-anchor="middle" x="1696" y="-300" font-family="Helvetica,sans-Serif" font-size="10.00">Device.h</text>
</a>
</g>
</g>
<!-- Node1&#45;&gt;Node3 -->
<g id="edge2" class="edge"><title>Node1&#45;&gt;Node3</title>
<path fill="none" stroke="midnightblue" d="M1648.92,-360.787C1657.77,-351.056 1667.79,-340.033 1676.3,-330.666"/>
<polygon fill="midnightblue" stroke="midnightblue" points="1678.91,-333.006 1683.04,-323.252 1673.73,-328.297 1678.91,-333.006"/>
</g>
<!-- Node4 -->
<g id="node4" class="node"><title>Node4</title>
<g id="a_node4"><a xlink:href="../../d2/dee/O2Device_8h.html" target="_top" xlink:title="O2Device/O2Device.h">
<polygon fill="none" stroke="black" points="1587.5,-236.5 1587.5,-255.5 1702.5,-255.5 1702.5,-236.5 1587.5,-236.5"/>
<text text-anchor="middle" x="1645" y="-243.5" font-family="Helvetica,sans-Serif" font-size="10.00">O2Device/O2Device.h</text>
</a>
</g>
</g>
<!-- Node3&#45;&gt;Node4 -->
<g id="edge3" class="edge"><title>Node3&#45;&gt;Node4</title>
<path fill="none" stroke="midnightblue" d="M1683.91,-292.781C1676.43,-283.972 1666.78,-272.626 1658.97,-263.433"/>
<polygon fill="midnightblue" stroke="midnightblue" points="1661.56,-261.083 1652.42,-255.731 1656.23,-265.617 1661.56,-261.083"/>
</g>
<!-- Node33 -->
<g id="node33" class="node"><title>Node33</title>
<polygon fill="none" stroke="#bfbfbf" points="1721,-236.5 1721,-255.5 1771,-255.5 1771,-236.5 1721,-236.5"/>
<text text-anchor="middle" x="1746" y="-243.5" font-family="Helvetica,sans-Serif" font-size="10.00">fstream</text>
</g>
<!-- Node3&#45;&gt;Node33 -->
<g id="edge38" class="edge"><title>Node3&#45;&gt;Node33</title>
<path fill="none" stroke="midnightblue" d="M1707.85,-292.781C1715.19,-283.972 1724.64,-272.626 1732.31,-263.433"/>
<polygon fill="midnightblue" stroke="midnightblue" points="1735.01,-265.653 1738.72,-255.731 1729.63,-261.172 1735.01,-265.653"/>
</g>
<!-- Node5 -->
<g id="node5" class="node"><title>Node5</title>
<polygon fill="none" stroke="#bfbfbf" points="1323,-180.5 1323,-199.5 1411,-199.5 1411,-180.5 1323,-180.5"/>
<text text-anchor="middle" x="1367" y="-187.5" font-family="Helvetica,sans-Serif" font-size="10.00">FairMQDevice.h</text>
</g>
<!-- Node4&#45;&gt;Node5 -->
<g id="edge4" class="edge"><title>Node4&#45;&gt;Node5</title>
<path fill="none" stroke="midnightblue" d="M1600.95,-236.444C1552.15,-226.964 1473.44,-211.675 1420.97,-201.483"/>
<polygon fill="midnightblue" stroke="midnightblue" points="1421.33,-197.988 1410.84,-199.516 1419.99,-204.859 1421.33,-197.988"/>
</g>
<!-- Node6 -->
<g id="node6" class="node"><title>Node6</title>
<polygon fill="none" stroke="#bfbfbf" points="1429,-180.5 1429,-199.5 1575,-199.5 1575,-180.5 1429,-180.5"/>
<text text-anchor="middle" x="1502" y="-187.5" font-family="Helvetica,sans-Serif" font-size="10.00">options/FairMQProgOptions.h</text>
</g>
<!-- Node4&#45;&gt;Node6 -->
<g id="edge5" class="edge"><title>Node4&#45;&gt;Node6</title>
<path fill="none" stroke="midnightblue" d="M1622.34,-236.444C1598.6,-227.478 1561.09,-213.314 1534.26,-203.183"/>
<polygon fill="midnightblue" stroke="midnightblue" points="1535.14,-199.775 1524.55,-199.516 1532.67,-206.324 1535.14,-199.775"/>
</g>
<!-- Node7 -->
<g id="node7" class="node"><title>Node7</title>
<g id="a_node7"><a xlink:href="../../d7/db2/Utilities_8h.html" target="_top" xlink:title="O2Device/Utilities.h">
<polygon fill="none" stroke="black" points="1593,-180.5 1593,-199.5 1697,-199.5 1697,-180.5 1593,-180.5"/>
<text text-anchor="middle" x="1645" y="-187.5" font-family="Helvetica,sans-Serif" font-size="10.00">O2Device/Utilities.h</text>
</a>
</g>
</g>
<!-- Node4&#45;&gt;Node7 -->
<g id="edge6" class="edge"><title>Node4&#45;&gt;Node7</title>
<path fill="none" stroke="midnightblue" d="M1645,-236.083C1645,-229.006 1645,-218.861 1645,-209.986"/>
<polygon fill="midnightblue" stroke="midnightblue" points="1648.5,-209.751 1645,-199.751 1641.5,-209.751 1648.5,-209.751"/>
</g>
<!-- Node28 -->
<g id="node28" class="node"><title>Node28</title>
<polygon fill="none" stroke="#bfbfbf" points="2028.5,-6.5 2028.5,-25.5 2087.5,-25.5 2087.5,-6.5 2028.5,-6.5"/>
<text text-anchor="middle" x="2058" y="-13.5" font-family="Helvetica,sans-Serif" font-size="10.00">stdexcept</text>
</g>
<!-- Node4&#45;&gt;Node28 -->
<g id="edge37" class="edge"><title>Node4&#45;&gt;Node28</title>
<path fill="none" stroke="midnightblue" d="M1660.69,-236.341C1723.42,-201.706 1956.59,-72.9832 2033.34,-30.6162"/>
<polygon fill="midnightblue" stroke="midnightblue" points="2035.24,-33.5653 2042.3,-25.6681 2031.85,-27.4371 2035.24,-33.5653"/>
</g>
<!-- Node32 -->
<g id="node32" class="node"><title>Node32</title>
<polygon fill="none" stroke="#bfbfbf" points="1775.5,-180.5 1775.5,-199.5 1926.5,-199.5 1926.5,-180.5 1775.5,-180.5"/>
<text text-anchor="middle" x="1851" y="-187.5" font-family="Helvetica,sans-Serif" font-size="10.00">Monitoring/MonitoringFactory.h</text>
</g>
<!-- Node4&#45;&gt;Node32 -->
<g id="edge36" class="edge"><title>Node4&#45;&gt;Node32</title>
<path fill="none" stroke="midnightblue" d="M1677.64,-236.444C1713.05,-227.162 1769.71,-212.309 1808.55,-202.127"/>
<polygon fill="midnightblue" stroke="midnightblue" points="1809.73,-205.438 1818.51,-199.516 1807.95,-198.667 1809.73,-205.438"/>
</g>
<!-- Node8 -->
<g id="node8" class="node"><title>Node8</title>
<g id="a_node8"><a xlink:href="../../dc/d03/MemoryResources_8h.html" target="_top" xlink:title="MemoryResources/MemoryResources.h">
<polygon fill="none" stroke="black" points="777.5,-68.5 777.5,-87.5 970.5,-87.5 970.5,-68.5 777.5,-68.5"/>
<text text-anchor="middle" x="874" y="-75.5" font-family="Helvetica,sans-Serif" font-size="10.00">MemoryResources/MemoryResources.h</text>
</a>
</g>
</g>
<!-- Node7&#45;&gt;Node8 -->
<g id="edge7" class="edge"><title>Node7&#45;&gt;Node8</title>
<path fill="none" stroke="midnightblue" d="M1592.76,-181.274C1589.8,-180.842 1586.86,-180.414 1584,-180 1350.06,-146.103 1072.6,-106.932 944.845,-88.9541"/>
<polygon fill="midnightblue" stroke="midnightblue" points="945.189,-85.4681 934.799,-87.5407 944.213,-92.3999 945.189,-85.4681"/>
</g>
<!-- Node16 -->
<g id="node16" class="node"><title>Node16</title>
<polygon fill="none" stroke="#bfbfbf" points="0,-6.5 0,-25.5 40,-25.5 40,-6.5 0,-6.5"/>
<text text-anchor="middle" x="20" y="-13.5" font-family="Helvetica,sans-Serif" font-size="10.00">utility</text>
</g>
<!-- Node7&#45;&gt;Node16 -->
<g id="edge34" class="edge"><title>Node7&#45;&gt;Node16</title>
<path fill="none" stroke="midnightblue" d="M1592.78,-181.104C1589.81,-180.715 1586.87,-180.344 1584,-180 1410.72,-159.256 1366.73,-160.502 1193,-144 684.414,-95.6914 538.911,-176.846 49,-32 47.0839,-31.4335 45.1456,-30.7386 43.2276,-29.9614"/>
<polygon fill="midnightblue" stroke="midnightblue" points="44.5398,-26.7104 34.003,-25.6031 41.5495,-33.0396 44.5398,-26.7104"/>
</g>
<!-- Node23 -->
<g id="node23" class="node"><title>Node23</title>
<g id="a_node23"><a xlink:href="../../dc/dcd/DataHeader_8h.html" target="_top" xlink:title="Headers/DataHeader.h">
<polygon fill="none" stroke="black" points="1594.5,-68.5 1594.5,-87.5 1711.5,-87.5 1711.5,-68.5 1594.5,-68.5"/>
<text text-anchor="middle" x="1653" y="-75.5" font-family="Helvetica,sans-Serif" font-size="10.00">Headers/DataHeader.h</text>
</a>
</g>
</g>
<!-- Node7&#45;&gt;Node23 -->
<g id="edge22" class="edge"><title>Node7&#45;&gt;Node23</title>
<path fill="none" stroke="midnightblue" d="M1645.63,-180.368C1646.92,-162.617 1649.9,-121.666 1651.65,-97.5974"/>
<polygon fill="midnightblue" stroke="midnightblue" points="1655.14,-97.819 1652.38,-87.5914 1648.16,-97.3112 1655.14,-97.819"/>
</g>
<!-- Node30 -->
<g id="node30" class="node"><title>Node30</title>
<g id="a_node30"><a xlink:href="../../d4/d00/Headers_2include_2Headers_2Stack_8h.html" target="_top" xlink:title="Headers/Stack.h">
<polygon fill="none" stroke="black" points="1527,-124.5 1527,-143.5 1617,-143.5 1617,-124.5 1527,-124.5"/>
<text text-anchor="middle" x="1572" y="-131.5" font-family="Helvetica,sans-Serif" font-size="10.00">Headers/Stack.h</text>
</a>
</g>
</g>
<!-- Node7&#45;&gt;Node30 -->
<g id="edge31" class="edge"><title>Node7&#45;&gt;Node30</title>
<path fill="none" stroke="midnightblue" d="M1633.27,-180.324C1622.16,-172.107 1605.26,-159.602 1592.02,-149.807"/>
<polygon fill="midnightblue" stroke="midnightblue" points="1594.06,-146.967 1583.94,-143.834 1589.9,-152.595 1594.06,-146.967"/>
</g>
<!-- Node31 -->
<g id="node31" class="node"><title>Node31</title>
<polygon fill="none" stroke="#bfbfbf" points="1673.5,-124.5 1673.5,-143.5 1718.5,-143.5 1718.5,-124.5 1673.5,-124.5"/>
<text text-anchor="middle" x="1696" y="-131.5" font-family="Helvetica,sans-Serif" font-size="10.00">gsl/gsl</text>
</g>
<!-- Node7&#45;&gt;Node31 -->
<g id="edge35" class="edge"><title>Node7&#45;&gt;Node31</title>
<path fill="none" stroke="midnightblue" d="M1653.42,-180.083C1660.85,-172.22 1671.85,-160.569 1680.81,-151.081"/>
<polygon fill="midnightblue" stroke="midnightblue" points="1683.41,-153.424 1687.74,-143.751 1678.32,-148.618 1683.41,-153.424"/>
</g>
<!-- Node9 -->
<g id="node9" class="node"><title>Node9</title>
<polygon fill="none" stroke="#bfbfbf" points="58,-1 58,-31 158,-31 158,-1 58,-1"/>
<text text-anchor="start" x="66" y="-19" font-family="Helvetica,sans-Serif" font-size="10.00">boost/container/flat</text>
<text text-anchor="middle" x="108" y="-8" font-family="Helvetica,sans-Serif" font-size="10.00">_map.hpp</text>
</g>
<!-- Node8&#45;&gt;Node9 -->
<g id="edge8" class="edge"><title>Node8&#45;&gt;Node9</title>
<path fill="none" stroke="midnightblue" d="M777.322,-76.5019C642.591,-74.5466 390.77,-66.3169 167.996,-31.9549"/>
<polygon fill="midnightblue" stroke="midnightblue" points="168.501,-28.4914 158.081,-30.405 167.42,-35.4074 168.501,-28.4914"/>
</g>
<!-- Node10 -->
<g id="node10" class="node"><title>Node10</title>
<polygon fill="none" stroke="#bfbfbf" points="176,-1 176,-31 292,-31 292,-1 176,-1"/>
<text text-anchor="start" x="184" y="-19" font-family="Helvetica,sans-Serif" font-size="10.00">boost/container/pmr</text>
<text text-anchor="middle" x="234" y="-8" font-family="Helvetica,sans-Serif" font-size="10.00">/memory_resource.hpp</text>
</g>
<!-- Node8&#45;&gt;Node10 -->
<g id="edge9" class="edge"><title>Node8&#45;&gt;Node10</title>
<path fill="none" stroke="midnightblue" d="M777.465,-73.5995C665.368,-68.7055 474.819,-57.469 302.051,-32.0145"/>
<polygon fill="midnightblue" stroke="midnightblue" points="302.417,-28.5305 292.01,-30.516 301.384,-35.4538 302.417,-28.5305"/>
</g>
<!-- Node11 -->
<g id="node11" class="node"><title>Node11</title>
<polygon fill="none" stroke="#bfbfbf" points="310,-1 310,-31 466,-31 466,-1 310,-1"/>
<text text-anchor="start" x="318" y="-19" font-family="Helvetica,sans-Serif" font-size="10.00">boost/container/pmr</text>
<text text-anchor="middle" x="388" y="-8" font-family="Helvetica,sans-Serif" font-size="10.00">/monotonic_buffer_resource.hpp</text>
</g>
<!-- Node8&#45;&gt;Node11 -->
<g id="edge10" class="edge"><title>Node8&#45;&gt;Node11</title>
<path fill="none" stroke="midnightblue" d="M786.082,-68.4932C707.681,-60.5773 589.541,-47.8406 476.403,-32.0023"/>
<polygon fill="midnightblue" stroke="midnightblue" points="476.565,-28.4906 466.174,-30.5599 475.588,-35.422 476.565,-28.4906"/>
</g>
<!-- Node12 -->
<g id="node12" class="node"><title>Node12</title>
<polygon fill="none" stroke="#bfbfbf" points="484.5,-1 484.5,-31 617.5,-31 617.5,-1 484.5,-1"/>
<text text-anchor="start" x="492.5" y="-19" font-family="Helvetica,sans-Serif" font-size="10.00">boost/container/pmr</text>
<text text-anchor="middle" x="551" y="-8" font-family="Helvetica,sans-Serif" font-size="10.00">/polymorphic_allocator.hpp</text>
</g>
<!-- Node8&#45;&gt;Node12 -->
<g id="edge11" class="edge"><title>Node8&#45;&gt;Node12</title>
<path fill="none" stroke="midnightblue" d="M826.149,-68.4965C778.501,-59.981 702.996,-46.3579 627.836,-32.1431"/>
<polygon fill="midnightblue" stroke="midnightblue" points="628.194,-28.6487 617.717,-30.2253 626.891,-35.5263 628.194,-28.6487"/>
</g>
<!-- Node13 -->
<g id="node13" class="node"><title>Node13</title>
<polygon fill="none" stroke="#bfbfbf" points="1473,-6.5 1473,-25.5 1519,-25.5 1519,-6.5 1473,-6.5"/>
<text text-anchor="middle" x="1496" y="-13.5" font-family="Helvetica,sans-Serif" font-size="10.00">cstring</text>
</g>
<!-- Node8&#45;&gt;Node13 -->
<g id="edge12" class="edge"><title>Node8&#45;&gt;Node13</title>
<path fill="none" stroke="midnightblue" d="M970.733,-73.8551C1113.53,-68.4935 1373.59,-55.7822 1464,-32 1466.35,-31.381 1468.75,-30.5938 1471.11,-29.7054"/>
<polygon fill="midnightblue" stroke="midnightblue" points="1472.69,-32.8362 1480.48,-25.6553 1469.91,-26.411 1472.69,-32.8362"/>
</g>
<!-- Node14 -->
<g id="node14" class="node"><title>Node14</title>
<polygon fill="none" stroke="#bfbfbf" points="1537.5,-6.5 1537.5,-25.5 1578.5,-25.5 1578.5,-6.5 1537.5,-6.5"/>
<text text-anchor="middle" x="1558" y="-13.5" font-family="Helvetica,sans-Serif" font-size="10.00">string</text>
</g>
<!-- Node8&#45;&gt;Node14 -->
<g id="edge13" class="edge"><title>Node8&#45;&gt;Node14</title>
<path fill="none" stroke="midnightblue" d="M970.735,-74.9993C1126.51,-70.9958 1425.82,-59.8599 1528,-32 1530.19,-31.4026 1532.41,-30.6391 1534.6,-29.774"/>
<polygon fill="midnightblue" stroke="midnightblue" points="1536.19,-32.8932 1543.81,-25.5307 1533.27,-26.5352 1536.19,-32.8932"/>
</g>
<!-- Node15 -->
<g id="node15" class="node"><title>Node15</title>
<polygon fill="none" stroke="#bfbfbf" points="636,-6.5 636,-25.5 698,-25.5 698,-6.5 636,-6.5"/>
<text text-anchor="middle" x="667" y="-13.5" font-family="Helvetica,sans-Serif" font-size="10.00">type_traits</text>
</g>
<!-- Node8&#45;&gt;Node15 -->
<g id="edge14" class="edge"><title>Node8&#45;&gt;Node15</title>
<path fill="none" stroke="midnightblue" d="M838.528,-68.4878C804.524,-60.0825 751.881,-46.4257 707,-32 704.22,-31.1064 701.349,-30.1328 698.48,-29.125"/>
<polygon fill="midnightblue" stroke="midnightblue" points="699.468,-25.7602 688.874,-25.6331 697.077,-32.339 699.468,-25.7602"/>
</g>
<!-- Node8&#45;&gt;Node16 -->
<g id="edge15" class="edge"><title>Node8&#45;&gt;Node16</title>
<path fill="none" stroke="midnightblue" d="M777.341,-76.8037C589.894,-75.5896 183.594,-68.6593 49,-32 47.0311,-31.4637 45.0425,-30.7817 43.0786,-30.0054"/>
<polygon fill="midnightblue" stroke="midnightblue" points="44.2099,-26.6696 33.6715,-25.5781 41.2291,-33.0033 44.2099,-26.6696"/>
</g>
<!-- Node17 -->
<g id="node17" class="node"><title>Node17</title>
<polygon fill="none" stroke="#bfbfbf" points="716,-6.5 716,-25.5 760,-25.5 760,-6.5 716,-6.5"/>
<text text-anchor="middle" x="738" y="-13.5" font-family="Helvetica,sans-Serif" font-size="10.00">vector</text>
</g>
<!-- Node8&#45;&gt;Node17 -->
<g id="edge16" class="edge"><title>Node8&#45;&gt;Node17</title>
<path fill="none" stroke="midnightblue" d="M853.594,-68.3842C832.567,-59.4561 798.878,-45.0123 770,-32 768.423,-31.2895 766.806,-30.5536 765.176,-29.8065"/>
<polygon fill="midnightblue" stroke="midnightblue" points="766.441,-26.5354 755.896,-25.5043 763.496,-32.886 766.441,-26.5354"/>
</g>
<!-- Node18 -->
<g id="node18" class="node"><title>Node18</title>
<polygon fill="none" stroke="#bfbfbf" points="778.5,-6.5 778.5,-25.5 861.5,-25.5 861.5,-6.5 778.5,-6.5"/>
<text text-anchor="middle" x="820" y="-13.5" font-family="Helvetica,sans-Serif" font-size="10.00">unordered_map</text>
</g>
<!-- Node8&#45;&gt;Node18 -->
<g id="edge17" class="edge"><title>Node8&#45;&gt;Node18</title>
<path fill="none" stroke="midnightblue" d="M866.263,-68.4035C858.003,-59.2252 844.723,-44.4699 834.506,-33.1173"/>
<polygon fill="midnightblue" stroke="midnightblue" points="837.014,-30.6722 827.723,-25.5806 831.811,-35.3549 837.014,-30.6722"/>
</g>
<!-- Node19 -->
<g id="node19" class="node"><title>Node19</title>
<polygon fill="none" stroke="#bfbfbf" points="879.5,-6.5 879.5,-25.5 976.5,-25.5 976.5,-6.5 879.5,-6.5"/>
<text text-anchor="middle" x="928" y="-13.5" font-family="Helvetica,sans-Serif" font-size="10.00">FairMQMessage.h</text>
</g>
<!-- Node8&#45;&gt;Node19 -->
<g id="edge18" class="edge"><title>Node8&#45;&gt;Node19</title>
<path fill="none" stroke="midnightblue" d="M881.737,-68.4035C889.997,-59.2252 903.277,-44.4699 913.494,-33.1173"/>
<polygon fill="midnightblue" stroke="midnightblue" points="916.189,-35.3549 920.277,-25.5806 910.986,-30.6722 916.189,-35.3549"/>
</g>
<!-- Node20 -->
<g id="node20" class="node"><title>Node20</title>
<polygon fill="none" stroke="#bfbfbf" points="994.5,-6.5 994.5,-25.5 1125.5,-25.5 1125.5,-6.5 994.5,-6.5"/>
<text text-anchor="middle" x="1060" y="-13.5" font-family="Helvetica,sans-Serif" font-size="10.00">FairMQTransportFactory.h</text>
</g>
<!-- Node8&#45;&gt;Node20 -->
<g id="edge19" class="edge"><title>Node8&#45;&gt;Node20</title>
<path fill="none" stroke="midnightblue" d="M900.649,-68.4035C932.969,-57.9777 987.597,-40.3557 1023.73,-28.6992"/>
<polygon fill="midnightblue" stroke="midnightblue" points="1024.96,-31.9817 1033.4,-25.5806 1022.81,-25.3197 1024.96,-31.9817"/>
</g>
<!-- Node21 -->
<g id="node21" class="node"><title>Node21</title>
<polygon fill="none" stroke="#bfbfbf" points="1143.5,-6.5 1143.5,-25.5 1280.5,-25.5 1280.5,-6.5 1143.5,-6.5"/>
<text text-anchor="middle" x="1212" y="-13.5" font-family="Helvetica,sans-Serif" font-size="10.00">fairmq/MemoryResources.h</text>
</g>
<!-- Node8&#45;&gt;Node21 -->
<g id="edge20" class="edge"><title>Node8&#45;&gt;Node21</title>
<path fill="none" stroke="midnightblue" d="M924.866,-68.4839C977.316,-59.6353 1061.45,-45.2538 1134,-32 1141.91,-30.5554 1150.26,-28.9908 1158.44,-27.4359"/>
<polygon fill="midnightblue" stroke="midnightblue" points="1159.13,-30.8673 1168.3,-25.5527 1157.82,-23.9917 1159.13,-30.8673"/>
</g>
<!-- Node22 -->
<g id="node22" class="node"><title>Node22</title>
<polygon fill="none" stroke="#bfbfbf" points="1299,-6.5 1299,-25.5 1455,-25.5 1455,-6.5 1299,-6.5"/>
<text text-anchor="middle" x="1377" y="-13.5" font-family="Helvetica,sans-Serif" font-size="10.00">fairmq/MemoryResourceTools.h</text>
</g>
<!-- Node8&#45;&gt;Node22 -->
<g id="edge21" class="edge"><title>Node8&#45;&gt;Node22</title>
<path fill="none" stroke="midnightblue" d="M967.736,-68.4774C1051.98,-60.4276 1179,-47.3243 1289,-32 1299.02,-30.6047 1309.64,-28.9462 1319.92,-27.2493"/>
<polygon fill="midnightblue" stroke="midnightblue" points="1320.76,-30.657 1330.04,-25.5479 1319.6,-23.7538 1320.76,-30.657"/>
</g>
<!-- Node23&#45;&gt;Node13 -->
<g id="edge26" class="edge"><title>Node23&#45;&gt;Node13</title>
<path fill="none" stroke="midnightblue" d="M1627.6,-68.4387C1602.38,-59.7832 1562.72,-45.7555 1529,-32 1527.16,-31.2511 1525.28,-30.4595 1523.39,-29.6468"/>
<polygon fill="midnightblue" stroke="midnightblue" points="1524.61,-26.3575 1514.04,-25.5105 1521.77,-32.7585 1524.61,-26.3575"/>
</g>
<!-- Node23&#45;&gt;Node14 -->
<g id="edge29" class="edge"><title>Node23&#45;&gt;Node14</title>
<path fill="none" stroke="midnightblue" d="M1639.39,-68.4035C1623.94,-58.646 1598.51,-42.5854 1580.18,-31.0109"/>
<polygon fill="midnightblue" stroke="midnightblue" points="1581.91,-27.9613 1571.59,-25.5806 1578.17,-33.8798 1581.91,-27.9613"/>
</g>
<!-- Node24 -->
<g id="node24" class="node"><title>Node24</title>
<polygon fill="none" stroke="#bfbfbf" points="1597,-6.5 1597,-25.5 1643,-25.5 1643,-6.5 1597,-6.5"/>
<text text-anchor="middle" x="1620" y="-13.5" font-family="Helvetica,sans-Serif" font-size="10.00">cstdint</text>
</g>
<!-- Node23&#45;&gt;Node24 -->
<g id="edge23" class="edge"><title>Node23&#45;&gt;Node24</title>
<path fill="none" stroke="midnightblue" d="M1648.27,-68.4035C1643.42,-59.5816 1635.73,-45.6075 1629.6,-34.4548"/>
<polygon fill="midnightblue" stroke="midnightblue" points="1632.61,-32.656 1624.72,-25.5806 1626.47,-36.0295 1632.61,-32.656"/>
</g>
<!-- Node25 -->
<g id="node25" class="node"><title>Node25</title>
<polygon fill="none" stroke="#bfbfbf" points="1661,-6.5 1661,-25.5 1713,-25.5 1713,-6.5 1661,-6.5"/>
<text text-anchor="middle" x="1687" y="-13.5" font-family="Helvetica,sans-Serif" font-size="10.00">memory</text>
</g>
<!-- Node23&#45;&gt;Node25 -->
<g id="edge24" class="edge"><title>Node23&#45;&gt;Node25</title>
<path fill="none" stroke="midnightblue" d="M1657.87,-68.4035C1662.87,-59.5816 1670.79,-45.6075 1677.11,-34.4548"/>
<polygon fill="midnightblue" stroke="midnightblue" points="1680.25,-36.0064 1682.14,-25.5806 1674.16,-32.5553 1680.25,-36.0064"/>
</g>
<!-- Node26 -->
<g id="node26" class="node"><title>Node26</title>
<polygon fill="none" stroke="#bfbfbf" points="1731.5,-6.5 1731.5,-25.5 1780.5,-25.5 1780.5,-6.5 1731.5,-6.5"/>
<text text-anchor="middle" x="1756" y="-13.5" font-family="Helvetica,sans-Serif" font-size="10.00">cassert</text>
</g>
<!-- Node23&#45;&gt;Node26 -->
<g id="edge25" class="edge"><title>Node23&#45;&gt;Node26</title>
<path fill="none" stroke="midnightblue" d="M1667.76,-68.4035C1684.66,-58.5569 1712.58,-42.2915 1732.49,-30.6949"/>
<polygon fill="midnightblue" stroke="midnightblue" points="1734.39,-33.6384 1741.27,-25.5806 1730.87,-27.5898 1734.39,-33.6384"/>
</g>
<!-- Node27 -->
<g id="node27" class="node"><title>Node27</title>
<polygon fill="none" stroke="#bfbfbf" points="1799,-6.5 1799,-25.5 1855,-25.5 1855,-6.5 1799,-6.5"/>
<text text-anchor="middle" x="1827" y="-13.5" font-family="Helvetica,sans-Serif" font-size="10.00">algorithm</text>
</g>
<!-- Node23&#45;&gt;Node27 -->
<g id="edge27" class="edge"><title>Node23&#45;&gt;Node27</title>
<path fill="none" stroke="midnightblue" d="M1680.25,-68.4826C1707.82,-59.7485 1751.59,-45.5606 1789,-32 1791.39,-31.1329 1793.86,-30.2142 1796.34,-29.2755"/>
<polygon fill="midnightblue" stroke="midnightblue" points="1797.71,-32.4952 1805.78,-25.622 1795.19,-25.9669 1797.71,-32.4952"/>
</g>
<!-- Node23&#45;&gt;Node28 -->
<g id="edge28" class="edge"><title>Node23&#45;&gt;Node28</title>
<path fill="none" stroke="midnightblue" d="M1711.68,-70.1658C1811.32,-58.5064 2004.31,-35.6699 2019,-32 2022.24,-31.1914 2025.57,-30.189 2028.86,-29.0887"/>
<polygon fill="midnightblue" stroke="midnightblue" points="2030.27,-32.3021 2038.46,-25.5895 2027.87,-25.7252 2030.27,-32.3021"/>
</g>
<!-- Node29 -->
<g id="node29" class="node"><title>Node29</title>
<g id="a_node29"><a xlink:href="../../d7/df8/Types_8h.html" target="_top" xlink:title="MemoryResources/Types.h">
<polygon fill="none" stroke="black" points="1873.5,-6.5 1873.5,-25.5 2010.5,-25.5 2010.5,-6.5 1873.5,-6.5"/>
<text text-anchor="middle" x="1942" y="-13.5" font-family="Helvetica,sans-Serif" font-size="10.00">MemoryResources/Types.h</text>
</a>
</g>
</g>
<!-- Node23&#45;&gt;Node29 -->
<g id="edge30" class="edge"><title>Node23&#45;&gt;Node29</title>
<path fill="none" stroke="midnightblue" d="M1694.1,-68.4672C1745.89,-57.7156 1834.88,-39.239 1890.97,-27.5947"/>
<polygon fill="midnightblue" stroke="midnightblue" points="1891.96,-30.9632 1901.04,-25.5034 1890.54,-24.1093 1891.96,-30.9632"/>
</g>
<!-- Node30&#45;&gt;Node8 -->
<g id="edge32" class="edge"><title>Node30&#45;&gt;Node8</title>
<path fill="none" stroke="midnightblue" d="M1526.74,-129.499C1417.29,-121.031 1135.9,-99.2619 980.709,-87.2554"/>
<polygon fill="midnightblue" stroke="midnightblue" points="980.913,-83.7608 970.673,-86.479 980.373,-90.74 980.913,-83.7608"/>
</g>
<!-- Node30&#45;&gt;Node23 -->
<g id="edge33" class="edge"><title>Node30&#45;&gt;Node23</title>
<path fill="none" stroke="midnightblue" d="M1585.01,-124.324C1597.53,-115.979 1616.68,-103.212 1631.47,-93.3524"/>
<polygon fill="midnightblue" stroke="midnightblue" points="1633.64,-96.1137 1640.02,-87.6545 1629.76,-90.2894 1633.64,-96.1137"/>
</g>
</g>
</svg>
        <g id="navigator" transform="translate(0 0)" fill="#404254">
                <rect fill="#f2f5e9" fill-opacity="0.5" stroke="#606060" stroke-width=".5" x="0" y="0" width="60" height="60"/>
                <use id="zoomplus" xlink:href="#zoomPlus" x="17" y="9" onmousedown="handleZoom(evt,'in')"/>
                <use id="zoomminus" xlink:href="#zoomMin" x="42" y="9" onmousedown="handleZoom(evt,'out')"/>
                <use id="reset" xlink:href="#resetDef" x="30" y="36" onmousedown="handleReset()"/>
                <g id="arrowUp" xlink:href="#dirArrow" transform="translate(30 24)" onmousedown="handlePan(0,-1)">
                  <use xlink:href="#rim" fill="#404040">
                        <set attributeName="fill" to="#808080" begin="arrowUp.mouseover" end="arrowUp.mouseout"/>
                  </use>
                  <path fill="none" stroke="white" stroke-width="1.5" d="M0,-3.0v7 M-2.5,-0.5L0,-3.0L2.5,-0.5"/>
                </g>
                <g id="arrowRight" xlink:href="#dirArrow" transform="rotate(90) translate(36 -43)" onmousedown="handlePan(1,0)">
                  <use xlink:href="#rim" fill="#404040">
                        <set attributeName="fill" to="#808080" begin="arrowRight.mouseover" end="arrowRight.mouseout"/>
                  </use>
                  <path fill="none" stroke="white" stroke-width="1.5" d="M0,-3.0v7 M-2.5,-0.5L0,-3.0L2.5,-0.5"/>
                </g>
                <g id="arrowDown" xlink:href="#dirArrow" transform="rotate(180) translate(-30 -48)" onmousedown="handlePan(0,1)">
                  <use xlink:href="#rim" fill="#404040">
                        <set attributeName="fill" to="#808080" begin="arrowDown.mouseover" end="arrowDown.mouseout"/>
                  </use>
                  <path fill="none" stroke="white" stroke-width="1.5" d="M0,-3.0v7 M-2.5,-0.5L0,-3.0L2.5,-0.5"/>
                </g>
                <g id="arrowLeft" xlink:href="#dirArrow" transform="rotate(270) translate(-36 17)" onmousedown="handlePan(-1,0)">
                  <use xlink:href="#rim" fill="#404040">
                        <set attributeName="fill" to="#808080" begin="arrowLeft.mouseover" end="arrowLeft.mouseout"/>
                  </use>
                  <path fill="none" stroke="white" stroke-width="1.5" d="M0,-3.0v7 M-2.5,-0.5L0,-3.0L2.5,-0.5"/>
                </g>
        </g>
        <svg viewBox="0 0 15 15" width="100%" height="30px" preserveAspectRatio="xMaxYMin meet">
         <g id="arrow_out" transform="scale(0.3 0.3)">
          <a xlink:href="runTimeframeReaderDevice_8cxx__incl_org.svg" target="_base">
           <rect id="button" ry="5" rx="5" y="6" x="6" height="38" width="38"
                fill="#f2f5e9" fill-opacity="0.5" stroke="#606060" stroke-width="1.0"/>
           <path id="arrow"
             d="M 11.500037,31.436501 C 11.940474,20.09759 22.043105,11.32322 32.158766,21.979434 L 37.068811,17.246167 C 37.068811,17.246167 37.088388,32 37.088388,32 L 22.160133,31.978069 C 22.160133,31.978069 26.997745,27.140456 26.997745,27.140456 C 18.528582,18.264221 13.291696,25.230495 11.500037,31.436501 z"
             style="fill:#404040;"/>
          </a>
         </g>
        </svg>
</svg>
