<?xml version="1.0" encoding="UTF-8" standalone="no"?>
<!DOCTYPE svg PUBLIC "-//W3C//DTD SVG 1.1//EN"
 "http://www.w3.org/Graphics/SVG/1.1/DTD/svg11.dtd">
<!-- Generated by graphviz version 2.36.0 (20140111.2315)
 -->
<!-- Title: /home/travis/build/AliceO2Group/AliceO2/Detectors/TPC/simulation/include/TPCSimulation/ElectronTransport.h Pages: 1 -->
<svg width="1458pt" height="590pt"
 viewBox="0.00 0.00 1457.51 590.00" xmlns="http://www.w3.org/2000/svg" xmlns:xlink="http://www.w3.org/1999/xlink">
<g id="graph0" class="graph" transform="scale(1 1) rotate(0) translate(4 586)">
<title>/home/travis/build/AliceO2Group/AliceO2/Detectors/TPC/simulation/include/TPCSimulation/ElectronTransport.h</title>
<!-- Node1 -->
<g id="node1" class="node"><title>Node1</title>
<polygon fill="#bfbfbf" stroke="black" points="866.508,-529 866.508,-581 1074.51,-581 1074.51,-529 866.508,-529"/>
<text text-anchor="start" x="874.508" y="-569" font-family="Helvetica,sans-Serif" font-size="10.00">/home/travis/build</text>
<text text-anchor="start" x="874.508" y="-558" font-family="Helvetica,sans-Serif" font-size="10.00">/AliceO2Group/AliceO2</text>
<text text-anchor="start" x="874.508" y="-547" font-family="Helvetica,sans-Serif" font-size="10.00">/Detectors/TPC/simulation</text>
<text text-anchor="middle" x="970.508" y="-536" font-family="Helvetica,sans-Serif" font-size="10.00">/include/TPCSimulation/ElectronTransport.h</text>
</g>
<!-- Node2 -->
<g id="node2" class="node"><title>Node2</title>
<g id="a_node2"><a xlink:href="../../db/dad/ParameterDetector_8h.html" target="_top" xlink:title="Definition of the parameter class for the detector. ">
<polygon fill="none" stroke="black" points="975.008,-472.5 975.008,-491.5 1128.01,-491.5 1128.01,-472.5 975.008,-472.5"/>
<text text-anchor="middle" x="1051.51" y="-479.5" font-family="Helvetica,sans-Serif" font-size="10.00">TPCBase/ParameterDetector.h</text>
</a>
</g>
</g>
<!-- Node1&#45;&gt;Node2 -->
<g id="edge1" class="edge"><title>Node1&#45;&gt;Node2</title>
<path fill="none" stroke="midnightblue" d="M999.294,-528.768C1010.8,-518.679 1023.7,-507.379 1033.79,-498.532"/>
<polygon fill="midnightblue" stroke="midnightblue" points="1036.3,-500.981 1041.52,-491.757 1031.69,-495.717 1036.3,-500.981"/>
</g>
<!-- Node18 -->
<g id="node18" class="node"><title>Node18</title>
<g id="a_node18"><a xlink:href="../../db/d5b/ParameterGas_8h.html" target="_top" xlink:title="Definition of the parameter class for the detector gas. ">
<polygon fill="none" stroke="black" points="822.508,-472.5 822.508,-491.5 956.508,-491.5 956.508,-472.5 822.508,-472.5"/>
<text text-anchor="middle" x="889.508" y="-479.5" font-family="Helvetica,sans-Serif" font-size="10.00">TPCBase/ParameterGas.h</text>
</a>
</g>
</g>
<!-- Node1&#45;&gt;Node18 -->
<g id="edge18" class="edge"><title>Node1&#45;&gt;Node18</title>
<path fill="none" stroke="midnightblue" d="M941.722,-528.768C930.212,-518.679 917.321,-507.379 907.228,-498.532"/>
<polygon fill="midnightblue" stroke="midnightblue" points="909.326,-495.717 899.499,-491.757 904.712,-500.981 909.326,-495.717"/>
</g>
<!-- Node19 -->
<g id="node19" class="node"><title>Node19</title>
<g id="a_node19"><a xlink:href="../../d7/d2c/Mapper_8h.html" target="_top" xlink:title="TPCBase/Mapper.h">
<polygon fill="none" stroke="black" points="452.008,-472.5 452.008,-491.5 555.008,-491.5 555.008,-472.5 452.008,-472.5"/>
<text text-anchor="middle" x="503.508" y="-479.5" font-family="Helvetica,sans-Serif" font-size="10.00">TPCBase/Mapper.h</text>
</a>
</g>
</g>
<!-- Node1&#45;&gt;Node19 -->
<g id="edge20" class="edge"><title>Node1&#45;&gt;Node19</title>
<path fill="none" stroke="midnightblue" d="M866.285,-538.155C773.797,-524.093 641.796,-504.024 565.148,-492.371"/>
<polygon fill="midnightblue" stroke="midnightblue" points="565.58,-488.897 555.167,-490.854 564.528,-495.817 565.58,-488.897"/>
</g>
<!-- Node34 -->
<g id="node34" class="node"><title>Node34</title>
<g id="a_node34"><a xlink:href="../../db/dac/RandomRing_8h.html" target="_top" xlink:title="TPCBase/RandomRing.h">
<polygon fill="none" stroke="black" points="1164.51,-472.5 1164.51,-491.5 1292.51,-491.5 1292.51,-472.5 1164.51,-472.5"/>
<text text-anchor="middle" x="1228.51" y="-479.5" font-family="Helvetica,sans-Serif" font-size="10.00">TPCBase/RandomRing.h</text>
</a>
</g>
</g>
<!-- Node1&#45;&gt;Node34 -->
<g id="edge55" class="edge"><title>Node1&#45;&gt;Node34</title>
<path fill="none" stroke="midnightblue" d="M1061.47,-528.968C1104.46,-517.137 1153.65,-503.602 1187.45,-494.299"/>
<polygon fill="midnightblue" stroke="midnightblue" points="1188.71,-497.582 1197.42,-491.554 1186.85,-490.833 1188.71,-497.582"/>
</g>
<!-- Node3 -->
<g id="node3" class="node"><title>Node3</title>
<polygon fill="none" stroke="#bfbfbf" points="985.508,-416.5 985.508,-435.5 1023.51,-435.5 1023.51,-416.5 985.508,-416.5"/>
<text text-anchor="middle" x="1004.51" y="-423.5" font-family="Helvetica,sans-Serif" font-size="10.00">array</text>
</g>
<!-- Node2&#45;&gt;Node3 -->
<g id="edge2" class="edge"><title>Node2&#45;&gt;Node3</title>
<path fill="none" stroke="midnightblue" d="M1043.75,-472.083C1036.97,-464.298 1026.96,-452.801 1018.75,-443.367"/>
<polygon fill="midnightblue" stroke="midnightblue" points="1021.33,-440.996 1012.12,-435.751 1016.05,-445.592 1021.33,-440.996"/>
</g>
<!-- Node4 -->
<g id="node4" class="node"><title>Node4</title>
<g id="a_node4"><a xlink:href="../../d1/d73/Defs_8h.html" target="_top" xlink:title="Common definitions for 2D coordinates. ">
<polygon fill="none" stroke="black" points="705.508,-192.5 705.508,-211.5 831.508,-211.5 831.508,-192.5 705.508,-192.5"/>
<text text-anchor="middle" x="768.508" y="-199.5" font-family="Helvetica,sans-Serif" font-size="10.00">DataFormatsTPC/Defs.h</text>
</a>
</g>
</g>
<!-- Node2&#45;&gt;Node4 -->
<g id="edge3" class="edge"><title>Node2&#45;&gt;Node4</title>
<path fill="none" stroke="midnightblue" d="M1051.51,-472.442C1051.51,-453.936 1051.51,-408.812 1051.51,-371 1051.51,-371 1051.51,-371 1051.51,-313 1051.51,-265.307 910.112,-230.078 827.211,-213.521"/>
<polygon fill="midnightblue" stroke="midnightblue" points="827.645,-210.04 817.158,-211.548 826.296,-216.909 827.645,-210.04"/>
</g>
<!-- Node5 -->
<g id="node5" class="node"><title>Node5</title>
<polygon fill="none" stroke="#bfbfbf" points="272.508,-136.5 272.508,-155.5 316.508,-155.5 316.508,-136.5 272.508,-136.5"/>
<text text-anchor="middle" x="294.508" y="-143.5" font-family="Helvetica,sans-Serif" font-size="10.00">cmath</text>
</g>
<!-- Node4&#45;&gt;Node5 -->
<g id="edge4" class="edge"><title>Node4&#45;&gt;Node5</title>
<path fill="none" stroke="midnightblue" d="M705.432,-194.733C588.813,-183.114 349.641,-159.124 331.508,-156 330.002,-155.74 328.465,-155.454 326.917,-155.149"/>
<polygon fill="midnightblue" stroke="midnightblue" points="327.227,-151.634 316.71,-152.919 325.733,-158.473 327.227,-151.634"/>
</g>
<!-- Node6 -->
<g id="node6" class="node"><title>Node6</title>
<g id="a_node6"><a xlink:href="../../d2/dd0/Cartesian2D_8h.html" target="_top" xlink:title="MathUtils/Cartesian2D.h">
<polygon fill="none" stroke="black" points="273.008,-74.5 273.008,-93.5 398.008,-93.5 398.008,-74.5 273.008,-74.5"/>
<text text-anchor="middle" x="335.508" y="-81.5" font-family="Helvetica,sans-Serif" font-size="10.00">MathUtils/Cartesian2D.h</text>
</a>
</g>
</g>
<!-- Node4&#45;&gt;Node6 -->
<g id="edge5" class="edge"><title>Node4&#45;&gt;Node6</title>
<path fill="none" stroke="midnightblue" d="M736.669,-192.47C659.643,-171.835 463.258,-119.224 377.096,-96.1414"/>
<polygon fill="midnightblue" stroke="midnightblue" points="377.959,-92.7493 367.394,-93.5423 376.148,-99.5109 377.959,-92.7493"/>
</g>
<!-- Node9 -->
<g id="node9" class="node"><title>Node9</title>
<g id="a_node9"><a xlink:href="../../dd/d76/Cartesian3D_8h.html" target="_top" xlink:title="MathUtils/Cartesian3D.h">
<polygon fill="none" stroke="black" points="706.008,-136.5 706.008,-155.5 831.008,-155.5 831.008,-136.5 706.008,-136.5"/>
<text text-anchor="middle" x="768.508" y="-143.5" font-family="Helvetica,sans-Serif" font-size="10.00">MathUtils/Cartesian3D.h</text>
</a>
</g>
</g>
<!-- Node4&#45;&gt;Node9 -->
<g id="edge8" class="edge"><title>Node4&#45;&gt;Node9</title>
<path fill="none" stroke="midnightblue" d="M768.508,-192.083C768.508,-185.006 768.508,-174.861 768.508,-165.986"/>
<polygon fill="midnightblue" stroke="midnightblue" points="772.008,-165.751 768.508,-155.751 765.008,-165.751 772.008,-165.751"/>
</g>
<!-- Node7 -->
<g id="node7" class="node"><title>Node7</title>
<polygon fill="none" stroke="#bfbfbf" points="169.008,-1 169.008,-31 320.008,-31 320.008,-1 169.008,-1"/>
<text text-anchor="start" x="177.008" y="-19" font-family="Helvetica,sans-Serif" font-size="10.00">Math/GenVector/Displacement</text>
<text text-anchor="middle" x="244.508" y="-8" font-family="Helvetica,sans-Serif" font-size="10.00">Vector2D.h</text>
</g>
<!-- Node6&#45;&gt;Node7 -->
<g id="edge6" class="edge"><title>Node6&#45;&gt;Node7</title>
<path fill="none" stroke="midnightblue" d="M323.611,-74.3717C310.729,-65.0286 289.728,-49.7966 272.601,-37.375"/>
<polygon fill="midnightblue" stroke="midnightblue" points="274.211,-34.2194 264.061,-31.1815 270.102,-39.8859 274.211,-34.2194"/>
</g>
<!-- Node8 -->
<g id="node8" class="node"><title>Node8</title>
<polygon fill="none" stroke="#bfbfbf" points="338.508,-6.5 338.508,-25.5 514.508,-25.5 514.508,-6.5 338.508,-6.5"/>
<text text-anchor="middle" x="426.508" y="-13.5" font-family="Helvetica,sans-Serif" font-size="10.00">Math/GenVector/PositionVector2D.h</text>
</g>
<!-- Node6&#45;&gt;Node8 -->
<g id="edge7" class="edge"><title>Node6&#45;&gt;Node8</title>
<path fill="none" stroke="midnightblue" d="M347.405,-74.3717C362.392,-63.5015 388.371,-44.6602 406.45,-31.5474"/>
<polygon fill="midnightblue" stroke="midnightblue" points="408.568,-34.3349 414.609,-25.6305 404.459,-28.6684 408.568,-34.3349"/>
</g>
<!-- Node9&#45;&gt;Node6 -->
<g id="edge17" class="edge"><title>Node9&#45;&gt;Node6</title>
<path fill="none" stroke="midnightblue" d="M706.001,-138.77C633.843,-131.216 511.711,-117.32 407.508,-100 399.715,-98.7046 391.482,-97.1592 383.479,-95.5602"/>
<polygon fill="midnightblue" stroke="midnightblue" points="384.012,-92.0968 373.513,-93.521 382.609,-98.9547 384.012,-92.0968"/>
</g>
<!-- Node10 -->
<g id="node10" class="node"><title>Node10</title>
<polygon fill="none" stroke="#bfbfbf" points="511.008,-69 511.008,-99 662.008,-99 662.008,-69 511.008,-69"/>
<text text-anchor="start" x="519.008" y="-87" font-family="Helvetica,sans-Serif" font-size="10.00">Math/GenVector/Displacement</text>
<text text-anchor="middle" x="586.508" y="-76" font-family="Helvetica,sans-Serif" font-size="10.00">Vector3D.h</text>
</g>
<!-- Node9&#45;&gt;Node10 -->
<g id="edge9" class="edge"><title>Node9&#45;&gt;Node10</title>
<path fill="none" stroke="midnightblue" d="M742.432,-136.403C715.505,-127.526 672.752,-113.432 638.819,-102.245"/>
<polygon fill="midnightblue" stroke="midnightblue" points="639.645,-98.8323 629.052,-99.0253 637.453,-105.48 639.645,-98.8323"/>
</g>
<!-- Node11 -->
<g id="node11" class="node"><title>Node11</title>
<polygon fill="none" stroke="#bfbfbf" points="680.508,-74.5 680.508,-93.5 856.508,-93.5 856.508,-74.5 680.508,-74.5"/>
<text text-anchor="middle" x="768.508" y="-81.5" font-family="Helvetica,sans-Serif" font-size="10.00">Math/GenVector/PositionVector3D.h</text>
</g>
<!-- Node9&#45;&gt;Node11 -->
<g id="edge10" class="edge"><title>Node9&#45;&gt;Node11</title>
<path fill="none" stroke="midnightblue" d="M768.508,-136.403C768.508,-127.938 768.508,-114.728 768.508,-103.82"/>
<polygon fill="midnightblue" stroke="midnightblue" points="772.008,-103.581 768.508,-93.5806 765.008,-103.581 772.008,-103.581"/>
</g>
<!-- Node12 -->
<g id="node12" class="node"><title>Node12</title>
<polygon fill="none" stroke="#bfbfbf" points="874.008,-74.5 874.008,-93.5 1023.01,-93.5 1023.01,-74.5 874.008,-74.5"/>
<text text-anchor="middle" x="948.508" y="-81.5" font-family="Helvetica,sans-Serif" font-size="10.00">Math/GenVector/Rotation3D.h</text>
</g>
<!-- Node9&#45;&gt;Node12 -->
<g id="edge11" class="edge"><title>Node9&#45;&gt;Node12</title>
<path fill="none" stroke="midnightblue" d="M794.298,-136.403C825.441,-126.022 877.99,-108.506 912.961,-96.849"/>
<polygon fill="midnightblue" stroke="midnightblue" points="914.386,-100.063 922.766,-93.5806 912.173,-93.4225 914.386,-100.063"/>
</g>
<!-- Node13 -->
<g id="node13" class="node"><title>Node13</title>
<polygon fill="none" stroke="#bfbfbf" points="1041.51,-74.5 1041.51,-93.5 1197.51,-93.5 1197.51,-74.5 1041.51,-74.5"/>
<text text-anchor="middle" x="1119.51" y="-81.5" font-family="Helvetica,sans-Serif" font-size="10.00">Math/GenVector/Transform3D.h</text>
</g>
<!-- Node9&#45;&gt;Node13 -->
<g id="edge12" class="edge"><title>Node9&#45;&gt;Node13</title>
<path fill="none" stroke="midnightblue" d="M818.425,-136.467C881.974,-125.604 991.657,-106.855 1059.64,-95.2346"/>
<polygon fill="midnightblue" stroke="midnightblue" points="1060.5,-98.6384 1069.76,-93.5034 1059.32,-91.7385 1060.5,-98.6384"/>
</g>
<!-- Node14 -->
<g id="node14" class="node"><title>Node14</title>
<polygon fill="none" stroke="#bfbfbf" points="1215.51,-74.5 1215.51,-93.5 1375.51,-93.5 1375.51,-74.5 1215.51,-74.5"/>
<text text-anchor="middle" x="1295.51" y="-81.5" font-family="Helvetica,sans-Serif" font-size="10.00">Math/GenVector/Translation3D.h</text>
</g>
<!-- Node9&#45;&gt;Node14 -->
<g id="edge13" class="edge"><title>Node9&#45;&gt;Node14</title>
<path fill="none" stroke="midnightblue" d="M831.037,-139.855C916.16,-132.56 1073.19,-118.064 1206.51,-100 1216.86,-98.597 1227.86,-96.907 1238.47,-95.1748"/>
<polygon fill="midnightblue" stroke="midnightblue" points="1239.19,-98.6027 1248.48,-93.5092 1238.04,-91.6975 1239.19,-98.6027"/>
</g>
<!-- Node15 -->
<g id="node15" class="node"><title>Node15</title>
<polygon fill="none" stroke="#bfbfbf" points="1393.51,-74.5 1393.51,-93.5 1449.51,-93.5 1449.51,-74.5 1393.51,-74.5"/>
<text text-anchor="middle" x="1421.51" y="-81.5" font-family="Helvetica,sans-Serif" font-size="10.00">Rtypes.h</text>
</g>
<!-- Node9&#45;&gt;Node15 -->
<g id="edge14" class="edge"><title>Node9&#45;&gt;Node15</title>
<path fill="none" stroke="midnightblue" d="M831.071,-142.903C966.011,-137.979 1280.6,-124.224 1384.51,-100 1387.58,-99.2835 1390.73,-98.3473 1393.84,-97.2923"/>
<polygon fill="midnightblue" stroke="midnightblue" points="1395.33,-100.468 1403.43,-93.6408 1392.84,-93.9254 1395.33,-100.468"/>
</g>
<!-- Node16 -->
<g id="node16" class="node"><title>Node16</title>
<polygon fill="none" stroke="#bfbfbf" points="416.508,-74.5 416.508,-93.5 492.508,-93.5 492.508,-74.5 416.508,-74.5"/>
<text text-anchor="middle" x="454.508" y="-81.5" font-family="Helvetica,sans-Serif" font-size="10.00">TGeoMatrix.h</text>
</g>
<!-- Node9&#45;&gt;Node16 -->
<g id="edge15" class="edge"><title>Node9&#45;&gt;Node16</title>
<path fill="none" stroke="midnightblue" d="M705.957,-137.018C651.522,-129.465 570.718,-116.787 501.508,-100 497.388,-99.0006 493.104,-97.8269 488.873,-96.5837"/>
<polygon fill="midnightblue" stroke="midnightblue" points="489.789,-93.2034 479.201,-93.6058 487.729,-99.8935 489.789,-93.2034"/>
</g>
<!-- Node17 -->
<g id="node17" class="node"><title>Node17</title>
<polygon fill="none" stroke="#bfbfbf" points="177.008,-74.5 177.008,-93.5 222.008,-93.5 222.008,-74.5 177.008,-74.5"/>
<text text-anchor="middle" x="199.508" y="-81.5" font-family="Helvetica,sans-Serif" font-size="10.00">iosfwd</text>
</g>
<!-- Node9&#45;&gt;Node17 -->
<g id="edge16" class="edge"><title>Node9&#45;&gt;Node17</title>
<path fill="none" stroke="midnightblue" d="M705.961,-142.273C610.19,-137.458 421.672,-125.451 263.508,-100 253.222,-98.3449 242.134,-95.9627 232.123,-93.5826"/>
<polygon fill="midnightblue" stroke="midnightblue" points="232.707,-90.1218 222.16,-91.1335 231.036,-96.9195 232.707,-90.1218"/>
</g>
<!-- Node18&#45;&gt;Node3 -->
<g id="edge19" class="edge"><title>Node18&#45;&gt;Node3</title>
<path fill="none" stroke="midnightblue" d="M907.73,-472.444C926.404,-463.675 955.664,-449.935 977.125,-439.858"/>
<polygon fill="midnightblue" stroke="midnightblue" points="978.807,-442.935 986.371,-435.516 975.832,-436.599 978.807,-442.935"/>
</g>
<!-- Node19&#45;&gt;Node3 -->
<g id="edge23" class="edge"><title>Node19&#45;&gt;Node3</title>
<path fill="none" stroke="midnightblue" d="M555.15,-478.912C641.819,-474.767 821.766,-463.412 971.508,-436 972.79,-435.765 974.094,-435.505 975.407,-435.225"/>
<polygon fill="midnightblue" stroke="midnightblue" points="976.546,-438.55 985.44,-432.793 974.897,-431.747 976.546,-438.55"/>
</g>
<!-- Node19&#45;&gt;Node4 -->
<g id="edge26" class="edge"><title>Node19&#45;&gt;Node4</title>
<path fill="none" stroke="midnightblue" d="M555.05,-479.438C671.647,-474.591 948.996,-455.217 993.508,-380 1026.19,-324.778 1020.93,-327.227 909.508,-248 886.111,-231.363 856.28,-220.677 830.087,-213.916"/>
<polygon fill="midnightblue" stroke="midnightblue" points="830.793,-210.485 820.248,-211.513 829.132,-217.285 830.793,-210.485"/>
</g>
<!-- Node19&#45;&gt;Node5 -->
<g id="edge25" class="edge"><title>Node19&#45;&gt;Node5</title>
<path fill="none" stroke="midnightblue" d="M451.771,-476.981C387.869,-468.867 287.508,-444.434 287.508,-371 287.508,-371 287.508,-371 287.508,-257 287.508,-224.883 290.517,-187.598 292.589,-165.726"/>
<polygon fill="midnightblue" stroke="midnightblue" points="296.095,-165.841 293.593,-155.546 289.129,-165.154 296.095,-165.841"/>
</g>
<!-- Node20 -->
<g id="node20" class="node"><title>Node20</title>
<polygon fill="none" stroke="#bfbfbf" points="24.0081,-416.5 24.0081,-435.5 59.0081,-435.5 59.0081,-416.5 24.0081,-416.5"/>
<text text-anchor="middle" x="41.5081" y="-423.5" font-family="Helvetica,sans-Serif" font-size="10.00">map</text>
</g>
<!-- Node19&#45;&gt;Node20 -->
<g id="edge21" class="edge"><title>Node19&#45;&gt;Node20</title>
<path fill="none" stroke="midnightblue" d="M451.883,-479.511C371.489,-476.357 211.6,-466.734 69.0522,-435.907"/>
<polygon fill="midnightblue" stroke="midnightblue" points="69.7738,-432.482 59.2549,-433.748 68.2675,-439.318 69.7738,-432.482"/>
</g>
<!-- Node21 -->
<g id="node21" class="node"><title>Node21</title>
<polygon fill="none" stroke="#bfbfbf" points="941.508,-360.5 941.508,-379.5 985.508,-379.5 985.508,-360.5 941.508,-360.5"/>
<text text-anchor="middle" x="963.508" y="-367.5" font-family="Helvetica,sans-Serif" font-size="10.00">vector</text>
</g>
<!-- Node19&#45;&gt;Node21 -->
<g id="edge22" class="edge"><title>Node19&#45;&gt;Node21</title>
<path fill="none" stroke="midnightblue" d="M555.011,-481.082C625.145,-479.721 753.721,-471.938 856.508,-436 889.93,-424.315 924.142,-401.183 944.606,-385.902"/>
<polygon fill="midnightblue" stroke="midnightblue" points="946.912,-388.545 952.741,-379.697 942.667,-382.979 946.912,-388.545"/>
</g>
<!-- Node22 -->
<g id="node22" class="node"><title>Node22</title>
<polygon fill="none" stroke="#bfbfbf" points="77.0081,-416.5 77.0081,-435.5 118.008,-435.5 118.008,-416.5 77.0081,-416.5"/>
<text text-anchor="middle" x="97.5081" y="-423.5" font-family="Helvetica,sans-Serif" font-size="10.00">string</text>
</g>
<!-- Node19&#45;&gt;Node22 -->
<g id="edge24" class="edge"><title>Node19&#45;&gt;Node22</title>
<path fill="none" stroke="midnightblue" d="M451.8,-477.82C380.701,-472.792 248.732,-461.105 128.415,-436.09"/>
<polygon fill="midnightblue" stroke="midnightblue" points="128.805,-432.595 118.297,-433.949 127.356,-439.444 128.805,-432.595"/>
</g>
<!-- Node23 -->
<g id="node23" class="node"><title>Node23</title>
<g id="a_node23"><a xlink:href="../../de/d41/PadPos_8h.html" target="_top" xlink:title="TPCBase/PadPos.h">
<polygon fill="none" stroke="black" points="489.008,-304.5 489.008,-323.5 594.008,-323.5 594.008,-304.5 489.008,-304.5"/>
<text text-anchor="middle" x="541.508" y="-311.5" font-family="Helvetica,sans-Serif" font-size="10.00">TPCBase/PadPos.h</text>
</a>
</g>
</g>
<!-- Node19&#45;&gt;Node23 -->
<g id="edge27" class="edge"><title>Node19&#45;&gt;Node23</title>
<path fill="none" stroke="midnightblue" d="M505.551,-472.075C511.533,-445.945 529.098,-369.211 537.256,-333.577"/>
<polygon fill="midnightblue" stroke="midnightblue" points="540.727,-334.097 539.547,-323.568 533.903,-332.535 540.727,-334.097"/>
</g>
<!-- Node24 -->
<g id="node24" class="node"><title>Node24</title>
<g id="a_node24"><a xlink:href="../../dd/d0b/PadSecPos_8h.html" target="_top" xlink:title="TPCBase/PadSecPos.h">
<polygon fill="none" stroke="black" points="353.508,-360.5 353.508,-379.5 475.508,-379.5 475.508,-360.5 353.508,-360.5"/>
<text text-anchor="middle" x="414.508" y="-367.5" font-family="Helvetica,sans-Serif" font-size="10.00">TPCBase/PadSecPos.h</text>
</a>
</g>
</g>
<!-- Node19&#45;&gt;Node24 -->
<g id="edge28" class="edge"><title>Node19&#45;&gt;Node24</title>
<path fill="none" stroke="midnightblue" d="M496.524,-472.368C481.772,-454.135 447.216,-411.426 428,-387.675"/>
<polygon fill="midnightblue" stroke="midnightblue" points="430.47,-385.164 421.459,-379.591 425.028,-389.567 430.47,-385.164"/>
</g>
<!-- Node25 -->
<g id="node25" class="node"><title>Node25</title>
<g id="a_node25"><a xlink:href="../../d3/dd6/Sector_8h.html" target="_top" xlink:title="TPCBase/Sector.h">
<polygon fill="none" stroke="black" points="544.008,-248.5 544.008,-267.5 643.008,-267.5 643.008,-248.5 544.008,-248.5"/>
<text text-anchor="middle" x="593.508" y="-255.5" font-family="Helvetica,sans-Serif" font-size="10.00">TPCBase/Sector.h</text>
</a>
</g>
</g>
<!-- Node19&#45;&gt;Node25 -->
<g id="edge54" class="edge"><title>Node19&#45;&gt;Node25</title>
<path fill="none" stroke="midnightblue" d="M470.867,-472.379C414.988,-455.898 310.181,-416.466 344.508,-360 383.852,-295.281 473.444,-272.028 533.724,-263.677"/>
<polygon fill="midnightblue" stroke="midnightblue" points="534.404,-267.118 543.876,-262.372 533.512,-260.175 534.404,-267.118"/>
</g>
<!-- Node27 -->
<g id="node27" class="node"><title>Node27</title>
<g id="a_node27"><a xlink:href="../../da/d61/PadROCPos_8h.html" target="_top" xlink:title="TPCBase/PadROCPos.h">
<polygon fill="none" stroke="black" points="607.508,-360.5 607.508,-379.5 735.508,-379.5 735.508,-360.5 607.508,-360.5"/>
<text text-anchor="middle" x="671.508" y="-367.5" font-family="Helvetica,sans-Serif" font-size="10.00">TPCBase/PadROCPos.h</text>
</a>
</g>
</g>
<!-- Node19&#45;&gt;Node27 -->
<g id="edge33" class="edge"><title>Node19&#45;&gt;Node27</title>
<path fill="none" stroke="midnightblue" d="M555.308,-476.469C585.948,-471.241 623.524,-460.024 648.508,-436 661.036,-423.954 666.751,-404.664 669.352,-390.222"/>
<polygon fill="midnightblue" stroke="midnightblue" points="672.876,-390.307 670.841,-379.91 665.948,-389.307 672.876,-390.307"/>
</g>
<!-- Node29 -->
<g id="node29" class="node"><title>Node29</title>
<g id="a_node29"><a xlink:href="../../d3/d54/DigitPos_8h.html" target="_top" xlink:title="TPCBase/DigitPos.h">
<polygon fill="none" stroke="black" points="531.508,-416.5 531.508,-435.5 639.508,-435.5 639.508,-416.5 531.508,-416.5"/>
<text text-anchor="middle" x="585.508" y="-423.5" font-family="Helvetica,sans-Serif" font-size="10.00">TPCBase/DigitPos.h</text>
</a>
</g>
</g>
<!-- Node19&#45;&gt;Node29 -->
<g id="edge39" class="edge"><title>Node19&#45;&gt;Node29</title>
<path fill="none" stroke="midnightblue" d="M516.683,-472.324C529.355,-463.979 548.741,-451.212 563.714,-441.352"/>
<polygon fill="midnightblue" stroke="midnightblue" points="565.939,-444.078 572.366,-435.655 562.089,-438.231 565.939,-444.078"/>
</g>
<!-- Node31 -->
<g id="node31" class="node"><title>Node31</title>
<g id="a_node31"><a xlink:href="../../d1/d1f/FECInfo_8h.html" target="_top" xlink:title="TPCBase/FECInfo.h">
<polygon fill="none" stroke="black" points="47.0081,-248.5 47.0081,-267.5 154.008,-267.5 154.008,-248.5 47.0081,-248.5"/>
<text text-anchor="middle" x="100.508" y="-255.5" font-family="Helvetica,sans-Serif" font-size="10.00">TPCBase/FECInfo.h</text>
</a>
</g>
</g>
<!-- Node19&#45;&gt;Node31 -->
<g id="edge47" class="edge"><title>Node19&#45;&gt;Node31</title>
<path fill="none" stroke="midnightblue" d="M451.732,-480.094C331.922,-477.461 43.5591,-467.847 14.5081,-436 -31.0855,-386.018 45.3147,-307.454 82.258,-274.432"/>
<polygon fill="midnightblue" stroke="midnightblue" points="84.6708,-276.972 89.8932,-267.753 80.062,-271.703 84.6708,-276.972"/>
</g>
<!-- Node32 -->
<g id="node32" class="node"><title>Node32</title>
<g id="a_node32"><a xlink:href="../../da/d9d/PadRegionInfo_8h.html" target="_top" xlink:title="TPCBase/PadRegionInfo.h">
<polygon fill="none" stroke="black" points="713.008,-416.5 713.008,-435.5 848.008,-435.5 848.008,-416.5 713.008,-416.5"/>
<text text-anchor="middle" x="780.508" y="-423.5" font-family="Helvetica,sans-Serif" font-size="10.00">TPCBase/PadRegionInfo.h</text>
</a>
</g>
</g>
<!-- Node19&#45;&gt;Node32 -->
<g id="edge49" class="edge"><title>Node19&#45;&gt;Node32</title>
<path fill="none" stroke="midnightblue" d="M547.4,-472.444C596.025,-462.964 674.454,-447.675 726.732,-437.483"/>
<polygon fill="midnightblue" stroke="midnightblue" points="727.677,-440.865 736.822,-435.516 726.337,-433.995 727.677,-440.865"/>
</g>
<!-- Node33 -->
<g id="node33" class="node"><title>Node33</title>
<g id="a_node33"><a xlink:href="../../d6/d42/PartitionInfo_8h.html" target="_top" xlink:title="TPCBase/PartitionInfo.h">
<polygon fill="none" stroke="black" points="136.008,-416.5 136.008,-435.5 259.008,-435.5 259.008,-416.5 136.008,-416.5"/>
<text text-anchor="middle" x="197.508" y="-423.5" font-family="Helvetica,sans-Serif" font-size="10.00">TPCBase/PartitionInfo.h</text>
</a>
</g>
</g>
<!-- Node19&#45;&gt;Node33 -->
<g id="edge53" class="edge"><title>Node19&#45;&gt;Node33</title>
<path fill="none" stroke="midnightblue" d="M455.022,-472.444C400.969,-462.905 313.581,-447.483 255.835,-437.293"/>
<polygon fill="midnightblue" stroke="midnightblue" points="256.224,-433.808 245.768,-435.516 255.007,-440.701 256.224,-433.808"/>
</g>
<!-- Node24&#45;&gt;Node23 -->
<g id="edge32" class="edge"><title>Node24&#45;&gt;Node23</title>
<path fill="none" stroke="midnightblue" d="M434.632,-360.444C455.532,-351.557 488.443,-337.563 512.224,-327.451"/>
<polygon fill="midnightblue" stroke="midnightblue" points="513.646,-330.65 521.479,-323.516 510.907,-324.208 513.646,-330.65"/>
</g>
<!-- Node24&#45;&gt;Node25 -->
<g id="edge29" class="edge"><title>Node24&#45;&gt;Node25</title>
<path fill="none" stroke="midnightblue" d="M421.215,-360.29C432.119,-346.641 454.957,-320.109 479.508,-304 501.824,-289.358 529.641,-278.261 552.21,-270.75"/>
<polygon fill="midnightblue" stroke="midnightblue" points="553.401,-274.044 561.85,-267.651 551.259,-267.379 553.401,-274.044"/>
</g>
<!-- Node25&#45;&gt;Node4 -->
<g id="edge31" class="edge"><title>Node25&#45;&gt;Node4</title>
<path fill="none" stroke="midnightblue" d="M621.237,-248.444C650.934,-239.28 698.224,-224.688 731.177,-214.519"/>
<polygon fill="midnightblue" stroke="midnightblue" points="732.385,-217.809 740.909,-211.516 730.321,-211.121 732.385,-217.809"/>
</g>
<!-- Node26 -->
<g id="node26" class="node"><title>Node26</title>
<g id="a_node26"><a xlink:href="../../d0/dda/DataFormats_2Detectors_2TPC_2include_2DataFormatsTPC_2Constants_8h.html" target="_top" xlink:title="DataFormatsTPC/Constants.h">
<polygon fill="none" stroke="black" points="518.508,-192.5 518.508,-211.5 668.508,-211.5 668.508,-192.5 518.508,-192.5"/>
<text text-anchor="middle" x="593.508" y="-199.5" font-family="Helvetica,sans-Serif" font-size="10.00">DataFormatsTPC/Constants.h</text>
</a>
</g>
</g>
<!-- Node25&#45;&gt;Node26 -->
<g id="edge30" class="edge"><title>Node25&#45;&gt;Node26</title>
<path fill="none" stroke="midnightblue" d="M593.508,-248.083C593.508,-241.006 593.508,-230.861 593.508,-221.986"/>
<polygon fill="midnightblue" stroke="midnightblue" points="597.008,-221.751 593.508,-211.751 590.008,-221.751 597.008,-221.751"/>
</g>
<!-- Node27&#45;&gt;Node4 -->
<g id="edge34" class="edge"><title>Node27&#45;&gt;Node4</title>
<path fill="none" stroke="midnightblue" d="M672.998,-360.201C675.413,-347.332 680.905,-322.858 690.508,-304 707.322,-270.98 735.459,-237.996 752.947,-219.094"/>
<polygon fill="midnightblue" stroke="midnightblue" points="755.629,-221.352 759.94,-211.674 750.534,-216.551 755.629,-221.352"/>
</g>
<!-- Node27&#45;&gt;Node23 -->
<g id="edge38" class="edge"><title>Node27&#45;&gt;Node23</title>
<path fill="none" stroke="midnightblue" d="M650.909,-360.444C629.515,-351.557 595.827,-337.563 571.484,-327.451"/>
<polygon fill="midnightblue" stroke="midnightblue" points="572.588,-324.12 562.011,-323.516 569.903,-330.585 572.588,-324.12"/>
</g>
<!-- Node28 -->
<g id="node28" class="node"><title>Node28</title>
<g id="a_node28"><a xlink:href="../../dc/d14/ROC_8h.html" target="_top" xlink:title="TPCBase/ROC.h">
<polygon fill="none" stroke="black" points="700.008,-304.5 700.008,-323.5 793.008,-323.5 793.008,-304.5 700.008,-304.5"/>
<text text-anchor="middle" x="746.508" y="-311.5" font-family="Helvetica,sans-Serif" font-size="10.00">TPCBase/ROC.h</text>
</a>
</g>
</g>
<!-- Node27&#45;&gt;Node28 -->
<g id="edge35" class="edge"><title>Node27&#45;&gt;Node28</title>
<path fill="none" stroke="midnightblue" d="M683.558,-360.324C694.971,-352.107 712.339,-339.602 725.943,-329.807"/>
<polygon fill="midnightblue" stroke="midnightblue" points="728.169,-332.517 734.239,-323.834 724.078,-326.837 728.169,-332.517"/>
</g>
<!-- Node28&#45;&gt;Node4 -->
<g id="edge36" class="edge"><title>Node28&#45;&gt;Node4</title>
<path fill="none" stroke="midnightblue" d="M748.234,-304.368C751.785,-286.617 759.975,-245.666 764.789,-221.597"/>
<polygon fill="midnightblue" stroke="midnightblue" points="768.261,-222.084 766.79,-211.591 761.397,-220.711 768.261,-222.084"/>
</g>
<!-- Node28&#45;&gt;Node25 -->
<g id="edge37" class="edge"><title>Node28&#45;&gt;Node25</title>
<path fill="none" stroke="midnightblue" d="M722.265,-304.444C696.638,-295.399 656.023,-281.064 627.27,-270.916"/>
<polygon fill="midnightblue" stroke="midnightblue" points="628.233,-267.544 617.638,-267.516 625.903,-274.145 628.233,-267.544"/>
</g>
<!-- Node29&#45;&gt;Node4 -->
<g id="edge40" class="edge"><title>Node29&#45;&gt;Node4</title>
<path fill="none" stroke="midnightblue" d="M639.737,-419.705C714.527,-411.849 841.724,-396.272 855.508,-380 899.335,-328.264 823.303,-250.659 786.617,-218.162"/>
<polygon fill="midnightblue" stroke="midnightblue" points="788.887,-215.498 779.037,-211.594 784.302,-220.788 788.887,-215.498"/>
</g>
<!-- Node29&#45;&gt;Node23 -->
<g id="edge45" class="edge"><title>Node29&#45;&gt;Node23</title>
<path fill="none" stroke="midnightblue" d="M581.508,-416.444C577.346,-407.443 570.722,-392.831 565.508,-380 559.211,-364.502 552.673,-346.661 548.014,-333.596"/>
<polygon fill="midnightblue" stroke="midnightblue" points="551.221,-332.164 544.59,-323.901 544.62,-334.496 551.221,-332.164"/>
</g>
<!-- Node29&#45;&gt;Node24 -->
<g id="edge46" class="edge"><title>Node29&#45;&gt;Node24</title>
<path fill="none" stroke="midnightblue" d="M558.413,-416.444C529.52,-407.32 483.583,-392.813 451.403,-382.651"/>
<polygon fill="midnightblue" stroke="midnightblue" points="452.067,-379.19 441.477,-379.516 449.959,-385.865 452.067,-379.19"/>
</g>
<!-- Node30 -->
<g id="node30" class="node"><title>Node30</title>
<g id="a_node30"><a xlink:href="../../df/d26/CRU_8h.html" target="_top" xlink:title="TPCBase/CRU.h">
<polygon fill="none" stroke="black" points="754.008,-360.5 754.008,-379.5 847.008,-379.5 847.008,-360.5 754.008,-360.5"/>
<text text-anchor="middle" x="800.508" y="-367.5" font-family="Helvetica,sans-Serif" font-size="10.00">TPCBase/CRU.h</text>
</a>
</g>
</g>
<!-- Node29&#45;&gt;Node30 -->
<g id="edge41" class="edge"><title>Node29&#45;&gt;Node30</title>
<path fill="none" stroke="midnightblue" d="M619.576,-416.444C656.689,-407.122 716.169,-392.183 756.723,-381.997"/>
<polygon fill="midnightblue" stroke="midnightblue" points="757.754,-385.347 766.6,-379.516 756.049,-378.558 757.754,-385.347"/>
</g>
<!-- Node30&#45;&gt;Node4 -->
<g id="edge42" class="edge"><title>Node30&#45;&gt;Node4</title>
<path fill="none" stroke="midnightblue" d="M800.757,-360.374C801.004,-351.316 801.368,-336.659 801.508,-324 801.607,-315.112 802.906,-312.778 801.508,-304 796.738,-274.042 784.479,-240.896 776.321,-221.02"/>
<polygon fill="midnightblue" stroke="midnightblue" points="779.496,-219.54 772.387,-211.684 773.045,-222.258 779.496,-219.54"/>
</g>
<!-- Node30&#45;&gt;Node25 -->
<g id="edge43" class="edge"><title>Node30&#45;&gt;Node25</title>
<path fill="none" stroke="midnightblue" d="M775.393,-360.375C752.664,-352.187 718.554,-338.936 690.508,-324 662.241,-308.947 631.922,-287.719 612.848,-273.67"/>
<polygon fill="midnightblue" stroke="midnightblue" points="614.795,-270.756 604.685,-267.588 610.613,-276.369 614.795,-270.756"/>
</g>
<!-- Node30&#45;&gt;Node28 -->
<g id="edge44" class="edge"><title>Node30&#45;&gt;Node28</title>
<path fill="none" stroke="midnightblue" d="M791.591,-360.083C783.728,-352.22 772.077,-340.569 762.589,-331.081"/>
<polygon fill="midnightblue" stroke="midnightblue" points="764.805,-328.347 755.259,-323.751 759.855,-333.297 764.805,-328.347"/>
</g>
<!-- Node31&#45;&gt;Node17 -->
<g id="edge48" class="edge"><title>Node31&#45;&gt;Node17</title>
<path fill="none" stroke="midnightblue" d="M105.554,-248.234C121.113,-221.202 168.558,-138.773 189.45,-102.475"/>
<polygon fill="midnightblue" stroke="midnightblue" points="192.635,-103.957 194.59,-93.5442 186.568,-100.465 192.635,-103.957"/>
</g>
<!-- Node32&#45;&gt;Node4 -->
<g id="edge51" class="edge"><title>Node32&#45;&gt;Node4</title>
<path fill="none" stroke="midnightblue" d="M832.787,-416.478C854.1,-410.151 876.701,-399.143 889.508,-380 922.13,-331.24 922.99,-296.174 889.508,-248 878.128,-231.626 860.043,-221.198 841.289,-214.561"/>
<polygon fill="midnightblue" stroke="midnightblue" points="842.346,-211.224 831.755,-211.511 840.213,-217.891 842.346,-211.224"/>
</g>
<!-- Node32&#45;&gt;Node21 -->
<g id="edge50" class="edge"><title>Node32&#45;&gt;Node21</title>
<path fill="none" stroke="midnightblue" d="M809.505,-416.444C842.66,-406.66 896.786,-390.688 931.248,-380.519"/>
<polygon fill="midnightblue" stroke="midnightblue" points="932.666,-383.75 941.267,-377.563 930.685,-377.036 932.666,-383.75"/>
</g>
<!-- Node32&#45;&gt;Node23 -->
<g id="edge52" class="edge"><title>Node32&#45;&gt;Node23</title>
<path fill="none" stroke="midnightblue" d="M712.745,-418.179C676.765,-412.193 632.987,-400.98 598.508,-380 578.945,-368.096 562.453,-347.292 552.321,-332.426"/>
<polygon fill="midnightblue" stroke="midnightblue" points="555.006,-330.134 546.613,-323.667 549.141,-333.956 555.006,-330.134"/>
</g>
<!-- Node34&#45;&gt;Node21 -->
<g id="edge58" class="edge"><title>Node34&#45;&gt;Node21</title>
<path fill="none" stroke="midnightblue" d="M1204.43,-472.473C1180.08,-463.732 1141.43,-449.538 1108.51,-436 1067.02,-418.94 1019.73,-397.326 990.751,-383.827"/>
<polygon fill="midnightblue" stroke="midnightblue" points="992.202,-380.642 981.661,-379.579 989.238,-386.983 992.202,-380.642"/>
</g>
<!-- Node35 -->
<g id="node35" class="node"><title>Node35</title>
<polygon fill="none" stroke="#bfbfbf" points="1117.51,-416.5 1117.51,-435.5 1207.51,-435.5 1207.51,-416.5 1117.51,-416.5"/>
<text text-anchor="middle" x="1162.51" y="-423.5" font-family="Helvetica,sans-Serif" font-size="10.00">boost/format.hpp</text>
</g>
<!-- Node34&#45;&gt;Node35 -->
<g id="edge56" class="edge"><title>Node34&#45;&gt;Node35</title>
<path fill="none" stroke="midnightblue" d="M1217.9,-472.324C1208.05,-464.263 1193.16,-452.077 1181.29,-442.369"/>
<polygon fill="midnightblue" stroke="midnightblue" points="1183.26,-439.457 1173.31,-435.834 1178.83,-444.875 1183.26,-439.457"/>
</g>
<!-- Node36 -->
<g id="node36" class="node"><title>Node36</title>
<polygon fill="none" stroke="#bfbfbf" points="1225.51,-416.5 1225.51,-435.5 1269.51,-435.5 1269.51,-416.5 1225.51,-416.5"/>
<text text-anchor="middle" x="1247.51" y="-423.5" font-family="Helvetica,sans-Serif" font-size="10.00">Vc/Vc</text>
</g>
<!-- Node34&#45;&gt;Node36 -->
<g id="edge57" class="edge"><title>Node34&#45;&gt;Node36</title>
<path fill="none" stroke="midnightblue" d="M1231.65,-472.083C1234.19,-464.849 1237.86,-454.409 1241.04,-445.397"/>
<polygon fill="midnightblue" stroke="midnightblue" points="1244.41,-446.346 1244.43,-435.751 1237.81,-444.023 1244.41,-446.346"/>
</g>
<!-- Node37 -->
<g id="node37" class="node"><title>Node37</title>
<polygon fill="none" stroke="#bfbfbf" points="1287.51,-416.5 1287.51,-435.5 1329.51,-435.5 1329.51,-416.5 1287.51,-416.5"/>
<text text-anchor="middle" x="1308.51" y="-423.5" font-family="Helvetica,sans-Serif" font-size="10.00">TF1.h</text>
</g>
<!-- Node34&#45;&gt;Node37 -->
<g id="edge59" class="edge"><title>Node34&#45;&gt;Node37</title>
<path fill="none" stroke="midnightblue" d="M1241.36,-472.324C1253.72,-463.979 1272.64,-451.212 1287.25,-441.352"/>
<polygon fill="midnightblue" stroke="midnightblue" points="1289.36,-444.15 1295.69,-435.655 1285.44,-438.348 1289.36,-444.15"/>
</g>
<!-- Node38 -->
<g id="node38" class="node"><title>Node38</title>
<polygon fill="none" stroke="#bfbfbf" points="1347.51,-416.5 1347.51,-435.5 1415.51,-435.5 1415.51,-416.5 1347.51,-416.5"/>
<text text-anchor="middle" x="1381.51" y="-423.5" font-family="Helvetica,sans-Serif" font-size="10.00">TRandom.h</text>
</g>
<!-- Node34&#45;&gt;Node38 -->
<g id="edge60" class="edge"><title>Node34&#45;&gt;Node38</title>
<path fill="none" stroke="midnightblue" d="M1252.75,-472.444C1278.38,-463.399 1318.99,-449.064 1347.75,-438.916"/>
<polygon fill="midnightblue" stroke="midnightblue" points="1349.11,-442.145 1357.38,-435.516 1346.78,-435.544 1349.11,-442.145"/>
</g>
</g>
</svg>
