<?xml version="1.0" encoding="UTF-8" standalone="no"?>
<!DOCTYPE svg PUBLIC "-//W3C//DTD SVG 1.1//EN"
 "http://www.w3.org/Graphics/SVG/1.1/DTD/svg11.dtd">
<!-- Generated by graphviz version 2.36.0 (20140111.2315)
 -->
<!-- Title: o2::framework::InputRoute Pages: 1 -->
<!--zoomable 334 -->
<svg id="main" version="1.1" xmlns="http://www.w3.org/2000/svg" xmlns:xlink="http://www.w3.org/1999/xlink" xml:space="preserve" onload="init(evt)">
<style type="text/css"><![CDATA[
.edge:hover path { stroke: red; }
.edge:hover polygon { stroke: red; fill: red; }
]]></style>
<script type="text/javascript"><![CDATA[
var edges = document.getElementsByTagName('g');
if (edges && edges.length) {
  for (var i=0;i<edges.length;i++) {
    if (edges[i].id.substr(0,4)=='edge') {
      edges[i].setAttribute('class','edge');
    }
  }
}
]]></script>
        <defs>
                <circle id="rim" cx="0" cy="0" r="7"/>
                <circle id="rim2" cx="0" cy="0" r="3.5"/>
                <g id="zoomPlus">
                        <use xlink:href="#rim" fill="#404040">
                                <set attributeName="fill" to="#808080" begin="zoomplus.mouseover" end="zoomplus.mouseout"/>
                        </use>
                        <path d="M-4,0h8M0,-4v8" fill="none" stroke="white" stroke-width="1.5" pointer-events="none"/>
                </g>
                <g id="zoomMin">
                        <use xlink:href="#rim" fill="#404040">
                                <set attributeName="fill" to="#808080" begin="zoomminus.mouseover" end="zoomminus.mouseout"/>
                        </use>
                        <path d="M-4,0h8" fill="none" stroke="white" stroke-width="1.5" pointer-events="none"/>
                </g>
                <g id="dirArrow">
                        <path fill="none" stroke="white" stroke-width="1.5" d="M0,-3.0v7 M-2.5,-0.5L0,-3.0L2.5,-0.5"/>
                </g>
               <g id="resetDef">
                       <use xlink:href="#rim2" fill="#404040">
                               <set attributeName="fill" to="#808080" begin="reset.mouseover" end="reset.mouseout"/>
                       </use>
               </g>
        </defs>

<script type="text/javascript">
var viewWidth = 648;
var viewHeight = 334;
var sectionId = 'dynsection-0';
</script>
<script xlink:href="../../svgpan.js"/>
<svg id="graph" class="graph">
<g id="viewport">
<title>o2::framework::InputRoute</title>
<!-- Node1 -->
<g id="node1" class="node"><title>Node1</title>
<polygon fill="#bfbfbf" stroke="black" points="206.651,-0.5 206.651,-57.5 339.651,-57.5 339.651,-0.5 206.651,-0.5"/>
<text text-anchor="middle" x="273.151" y="-45.5" font-family="Helvetica,sans-Serif" font-size="10.00">o2::framework::InputRoute</text>
<polyline fill="none" stroke="black" points="206.651,-38.5 339.651,-38.5 "/>
<text text-anchor="middle" x="273.151" y="-26.5" font-family="Helvetica,sans-Serif" font-size="10.00"> </text>
<polyline fill="none" stroke="black" points="206.651,-19.5 339.651,-19.5 "/>
<text text-anchor="middle" x="273.151" y="-7.5" font-family="Helvetica,sans-Serif" font-size="10.00"> </text>
</g>
<!-- Node2 -->
<g id="node2" class="node"><title>Node2</title>
<polygon fill="none" stroke="#bfbfbf" points="4.65075,-251.5 4.65075,-308.5 39.6508,-308.5 39.6508,-251.5 4.65075,-251.5"/>
<text text-anchor="middle" x="22.1508" y="-296.5" font-family="Helvetica,sans-Serif" font-size="10.00">char</text>
<polyline fill="none" stroke="#bfbfbf" points="4.65075,-289.5 39.6508,-289.5 "/>
<text text-anchor="middle" x="22.1508" y="-277.5" font-family="Helvetica,sans-Serif" font-size="10.00"> </text>
<polyline fill="none" stroke="#bfbfbf" points="4.65075,-270.5 39.6508,-270.5 "/>
<text text-anchor="middle" x="22.1508" y="-258.5" font-family="Helvetica,sans-Serif" font-size="10.00"> </text>
</g>
<!-- Node2&#45;&gt;Node1 -->
<g id="edge1" class="edge"><title>Node2&#45;&gt;Node1</title>
<path fill="none" stroke="#404040" d="M12.4441,-251.303C1.37805,-214.281 -11.3981,-148.419 20.1508,-106 41.1826,-77.7219 128.143,-56.0061 194.294,-43.1648"/>
<polygon fill="none" stroke="#404040" points="194.593,-43.108 199.742,-38.0595 206.383,-40.8707 201.234,-45.9192 194.593,-43.108"/>
<text text-anchor="middle" x="57.6508" y="-143.5" font-family="Helvetica,sans-Serif" font-size="10.00"> +sourceChannel</text>
</g>
<!-- Node4 -->
<g id="node4" class="node"><title>Node4</title>
<g id="a_node4"><a xlink:href="../../da/d96/structo2_1_1framework_1_1InputSpec.html" target="_top" xlink:title="{o2::framework::InputSpec\n||+ InputSpec()\l+ InputSpec()\l+ operator==()\l}">
<polygon fill="none" stroke="black" points="104.651,-106.5 104.651,-185.5 233.651,-185.5 233.651,-106.5 104.651,-106.5"/>
<text text-anchor="middle" x="169.151" y="-173.5" font-family="Helvetica,sans-Serif" font-size="10.00">o2::framework::InputSpec</text>
<polyline fill="none" stroke="black" points="104.651,-166.5 233.651,-166.5 "/>
<text text-anchor="middle" x="169.151" y="-154.5" font-family="Helvetica,sans-Serif" font-size="10.00"> </text>
<polyline fill="none" stroke="black" points="104.651,-147.5 233.651,-147.5 "/>
<text text-anchor="start" x="112.651" y="-135.5" font-family="Helvetica,sans-Serif" font-size="10.00">+ InputSpec()</text>
<text text-anchor="start" x="112.651" y="-124.5" font-family="Helvetica,sans-Serif" font-size="10.00">+ InputSpec()</text>
<text text-anchor="start" x="112.651" y="-113.5" font-family="Helvetica,sans-Serif" font-size="10.00">+ operator==()</text>
</a>
</g>
</g>
<!-- Node2&#45;&gt;Node4 -->
<g id="edge6" class="edge"><title>Node2&#45;&gt;Node4</title>
<path fill="none" stroke="#404040" d="M39.8006,-252.282C44.4649,-246.002 49.723,-239.533 55.1508,-234 69.3008,-219.577 85.9362,-205.555 102.059,-193.129"/>
<polygon fill="none" stroke="#404040" points="102.433,-192.847 104.806,-186.038 112.005,-185.61 109.631,-192.419 102.433,-192.847"/>
<text text-anchor="middle" x="108.151" y="-207.5" font-family="Helvetica,sans-Serif" font-size="10.00"> +binding</text>
</g>
<!-- Node3 -->
<g id="node3" class="node"><title>Node3</title>
<g id="a_node3"><a xlink:href="../../dd/de2/classsize__t.html" target="_top" xlink:title="{size_t\n||}">
<polygon fill="none" stroke="black" points="251.651,-117.5 251.651,-174.5 294.651,-174.5 294.651,-117.5 251.651,-117.5"/>
<text text-anchor="middle" x="273.151" y="-162.5" font-family="Helvetica,sans-Serif" font-size="10.00">size_t</text>
<polyline fill="none" stroke="black" points="251.651,-155.5 294.651,-155.5 "/>
<text text-anchor="middle" x="273.151" y="-143.5" font-family="Helvetica,sans-Serif" font-size="10.00"> </text>
<polyline fill="none" stroke="black" points="251.651,-136.5 294.651,-136.5 "/>
<text text-anchor="middle" x="273.151" y="-124.5" font-family="Helvetica,sans-Serif" font-size="10.00"> </text>
</a>
</g>
</g>
<!-- Node3&#45;&gt;Node1 -->
<g id="edge2" class="edge"><title>Node3&#45;&gt;Node1</title>
<path fill="none" stroke="#404040" d="M273.151,-117.455C273.151,-103.193 273.151,-85.5206 273.151,-69.8029"/>
<polygon fill="none" stroke="#404040" points="273.151,-69.7192 269.151,-63.7192 273.151,-57.7192 277.151,-63.7191 273.151,-69.7192"/>
<text text-anchor="middle" x="297.651" y="-79.5" font-family="Helvetica,sans-Serif" font-size="10.00"> +timeslice</text>
</g>
<!-- Node4&#45;&gt;Node1 -->
<g id="edge3" class="edge"><title>Node4&#45;&gt;Node1</title>
<path fill="none" stroke="#404040" d="M198.458,-106.222C206.506,-96.1401 215.427,-85.4594 224.151,-76 227.176,-72.7192 230.392,-69.3918 233.673,-66.105"/>
<polygon fill="none" stroke="#404040" points="233.839,-65.9428 235.338,-58.8891 242.425,-57.5596 240.927,-64.6133 233.839,-65.9428"/>
<text text-anchor="middle" x="246.651" y="-79.5" font-family="Helvetica,sans-Serif" font-size="10.00"> +matcher</text>
</g>
<!-- Node5 -->
<g id="node5" class="node"><title>Node5</title>
<polygon fill="none" stroke="#bfbfbf" points="64.1508,-235 64.1508,-325 262.151,-325 262.151,-235 64.1508,-235"/>
<text text-anchor="start" x="72.1508" y="-313" font-family="Helvetica,sans-Serif" font-size="10.00">variant&lt; o2::framework</text>
<text text-anchor="start" x="72.1508" y="-302" font-family="Helvetica,sans-Serif" font-size="10.00">::ConcreteDataMatcher,</text>
<text text-anchor="start" x="72.1508" y="-291" font-family="Helvetica,sans-Serif" font-size="10.00"> data_matcher::o2::framework</text>
<text text-anchor="middle" x="163.151" y="-280" font-family="Helvetica,sans-Serif" font-size="10.00">::data_matcher::DataDescriptorMatcher &gt;</text>
<polyline fill="none" stroke="#bfbfbf" points="64.1508,-273 262.151,-273 "/>
<text text-anchor="middle" x="163.151" y="-261" font-family="Helvetica,sans-Serif" font-size="10.00"> </text>
<polyline fill="none" stroke="#bfbfbf" points="64.1508,-254 262.151,-254 "/>
<text text-anchor="middle" x="163.151" y="-242" font-family="Helvetica,sans-Serif" font-size="10.00"> </text>
</g>
<!-- Node5&#45;&gt;Node4 -->
<g id="edge4" class="edge"><title>Node5&#45;&gt;Node4</title>
<path fill="none" stroke="#404040" d="M165.165,-234.679C165.701,-222.894 166.284,-210.072 166.834,-197.963"/>
<polygon fill="none" stroke="#404040" points="166.848,-197.664 163.124,-191.488 167.393,-185.676 171.116,-191.852 166.848,-197.664"/>
<text text-anchor="middle" x="189.651" y="-207.5" font-family="Helvetica,sans-Serif" font-size="10.00"> +matcher</text>
</g>
<!-- Node6 -->
<g id="node6" class="node"><title>Node6</title>
<polygon fill="none" stroke="#bfbfbf" points="280.151,-251.5 280.151,-308.5 358.151,-308.5 358.151,-251.5 280.151,-251.5"/>
<text text-anchor="middle" x="319.151" y="-296.5" font-family="Helvetica,sans-Serif" font-size="10.00">enum Lifetime</text>
<polyline fill="none" stroke="#bfbfbf" points="280.151,-289.5 358.151,-289.5 "/>
<text text-anchor="middle" x="319.151" y="-277.5" font-family="Helvetica,sans-Serif" font-size="10.00"> </text>
<polyline fill="none" stroke="#bfbfbf" points="280.151,-270.5 358.151,-270.5 "/>
<text text-anchor="middle" x="319.151" y="-258.5" font-family="Helvetica,sans-Serif" font-size="10.00"> </text>
</g>
<!-- Node6&#45;&gt;Node4 -->
<g id="edge5" class="edge"><title>Node6&#45;&gt;Node4</title>
<path fill="none" stroke="#404040" d="M290.162,-251.412C283.94,-245.606 277.366,-239.559 271.151,-234 256.209,-220.637 239.776,-206.419 224.547,-193.433"/>
<polygon fill="none" stroke="#404040" points="224.387,-193.297 217.225,-192.459 215.244,-185.525 222.406,-186.363 224.387,-193.297"/>
<text text-anchor="middle" x="269.651" y="-207.5" font-family="Helvetica,sans-Serif" font-size="10.00"> +lifetime</text>
</g>
<!-- Node7 -->
<g id="node7" class="node"><title>Node7</title>
<polygon fill="none" stroke="#bfbfbf" points="312.651,-106.5 312.651,-185.5 465.651,-185.5 465.651,-106.5 312.651,-106.5"/>
<text text-anchor="start" x="320.651" y="-173.5" font-family="Helvetica,sans-Serif" font-size="10.00">function&lt; ExpirationHandler</text>
<text text-anchor="start" x="320.651" y="-162.5" font-family="Helvetica,sans-Serif" font-size="10.00">::Handler(ConfigParamRegistry</text>
<text text-anchor="middle" x="389.151" y="-151.5" font-family="Helvetica,sans-Serif" font-size="10.00"> const &amp;)&gt;</text>
<polyline fill="none" stroke="#bfbfbf" points="312.651,-144.5 465.651,-144.5 "/>
<text text-anchor="middle" x="389.151" y="-132.5" font-family="Helvetica,sans-Serif" font-size="10.00"> </text>
<polyline fill="none" stroke="#bfbfbf" points="312.651,-125.5 465.651,-125.5 "/>
<text text-anchor="middle" x="389.151" y="-113.5" font-family="Helvetica,sans-Serif" font-size="10.00"> </text>
</g>
<!-- Node7&#45;&gt;Node1 -->
<g id="edge7" class="edge"><title>Node7&#45;&gt;Node1</title>
<path fill="none" stroke="#404040" d="M355.26,-106.294C346.043,-96.212 335.906,-85.5129 326.151,-76 322.716,-72.6507 319.084,-69.2435 315.397,-65.8754"/>
<polygon fill="none" stroke="#404040" points="315.138,-65.6439 308,-64.6215 306.198,-57.6391 313.337,-58.6615 315.138,-65.6439"/>
<text text-anchor="middle" x="389.651" y="-79.5" font-family="Helvetica,sans-Serif" font-size="10.00"> +expirationConfigurator</text>
</g>
<!-- Node8 -->
<g id="node8" class="node"><title>Node8</title>
<polygon fill="none" stroke="#bfbfbf" points="484.151,-106.5 484.151,-185.5 640.151,-185.5 640.151,-106.5 484.151,-106.5"/>
<text text-anchor="start" x="492.151" y="-173.5" font-family="Helvetica,sans-Serif" font-size="10.00">function&lt; ExpirationHandler</text>
<text text-anchor="start" x="492.151" y="-162.5" font-family="Helvetica,sans-Serif" font-size="10.00">::Checker(ConfigParamRegistry</text>
<text text-anchor="middle" x="562.151" y="-151.5" font-family="Helvetica,sans-Serif" font-size="10.00"> const &amp;)&gt;</text>
<polyline fill="none" stroke="#bfbfbf" points="484.151,-144.5 640.151,-144.5 "/>
<text text-anchor="middle" x="562.151" y="-132.5" font-family="Helvetica,sans-Serif" font-size="10.00"> </text>
<polyline fill="none" stroke="#bfbfbf" points="484.151,-125.5 640.151,-125.5 "/>
<text text-anchor="middle" x="562.151" y="-113.5" font-family="Helvetica,sans-Serif" font-size="10.00"> </text>
</g>
<!-- Node8&#45;&gt;Node1 -->
<g id="edge8" class="edge"><title>Node8&#45;&gt;Node1</title>
<path fill="none" stroke="#404040" d="M504.495,-106.443C486.368,-95.5005 465.913,-84.3147 446.151,-76 416.183,-63.3918 381.818,-53.4065 351.654,-46.006"/>
<polygon fill="none" stroke="#404040" points="351.556,-45.9827 344.791,-48.4797 339.884,-43.1955 346.649,-40.6984 351.556,-45.9827"/>
<text text-anchor="middle" x="519.651" y="-79.5" font-family="Helvetica,sans-Serif" font-size="10.00"> +danglingConfigurator</text>
</g>
</g>
</svg>
        <g id="navigator" transform="translate(0 0)" fill="#404254">
                <rect fill="#f2f5e9" fill-opacity="0.5" stroke="#606060" stroke-width=".5" x="0" y="0" width="60" height="60"/>
                <use id="zoomplus" xlink:href="#zoomPlus" x="17" y="9" onmousedown="handleZoom(evt,'in')"/>
                <use id="zoomminus" xlink:href="#zoomMin" x="42" y="9" onmousedown="handleZoom(evt,'out')"/>
                <use id="reset" xlink:href="#resetDef" x="30" y="36" onmousedown="handleReset()"/>
                <g id="arrowUp" xlink:href="#dirArrow" transform="translate(30 24)" onmousedown="handlePan(0,-1)">
                  <use xlink:href="#rim" fill="#404040">
                        <set attributeName="fill" to="#808080" begin="arrowUp.mouseover" end="arrowUp.mouseout"/>
                  </use>
                  <path fill="none" stroke="white" stroke-width="1.5" d="M0,-3.0v7 M-2.5,-0.5L0,-3.0L2.5,-0.5"/>
                </g>
                <g id="arrowRight" xlink:href="#dirArrow" transform="rotate(90) translate(36 -43)" onmousedown="handlePan(1,0)">
                  <use xlink:href="#rim" fill="#404040">
                        <set attributeName="fill" to="#808080" begin="arrowRight.mouseover" end="arrowRight.mouseout"/>
                  </use>
                  <path fill="none" stroke="white" stroke-width="1.5" d="M0,-3.0v7 M-2.5,-0.5L0,-3.0L2.5,-0.5"/>
                </g>
                <g id="arrowDown" xlink:href="#dirArrow" transform="rotate(180) translate(-30 -48)" onmousedown="handlePan(0,1)">
                  <use xlink:href="#rim" fill="#404040">
                        <set attributeName="fill" to="#808080" begin="arrowDown.mouseover" end="arrowDown.mouseout"/>
                  </use>
                  <path fill="none" stroke="white" stroke-width="1.5" d="M0,-3.0v7 M-2.5,-0.5L0,-3.0L2.5,-0.5"/>
                </g>
                <g id="arrowLeft" xlink:href="#dirArrow" transform="rotate(270) translate(-36 17)" onmousedown="handlePan(-1,0)">
                  <use xlink:href="#rim" fill="#404040">
                        <set attributeName="fill" to="#808080" begin="arrowLeft.mouseover" end="arrowLeft.mouseout"/>
                  </use>
                  <path fill="none" stroke="white" stroke-width="1.5" d="M0,-3.0v7 M-2.5,-0.5L0,-3.0L2.5,-0.5"/>
                </g>
        </g>
        <svg viewBox="0 0 15 15" width="100%" height="30px" preserveAspectRatio="xMaxYMin meet">
         <g id="arrow_out" transform="scale(0.3 0.3)">
          <a xlink:href="structo2_1_1framework_1_1InputRoute__coll__graph_org.svg" target="_base">
           <rect id="button" ry="5" rx="5" y="6" x="6" height="38" width="38"
                fill="#f2f5e9" fill-opacity="0.5" stroke="#606060" stroke-width="1.0"/>
           <path id="arrow"
             d="M 11.500037,31.436501 C 11.940474,20.09759 22.043105,11.32322 32.158766,21.979434 L 37.068811,17.246167 C 37.068811,17.246167 37.088388,32 37.088388,32 L 22.160133,31.978069 C 22.160133,31.978069 26.997745,27.140456 26.997745,27.140456 C 18.528582,18.264221 13.291696,25.230495 11.500037,31.436501 z"
             style="fill:#404040;"/>
          </a>
         </g>
        </svg>
</svg>
