<?xml version="1.0" encoding="UTF-8" standalone="no"?>
<!DOCTYPE svg PUBLIC "-//W3C//DTD SVG 1.1//EN"
 "http://www.w3.org/Graphics/SVG/1.1/DTD/svg11.dtd">
<!-- Generated by graphviz version 2.36.0 (20140111.2315)
 -->
<!-- Title: /home/travis/build/AliceO2Group/AliceO2/Common/Utils/src/ShmManager.cxx Pages: 1 -->
<!--zoomable 174 -->
<svg id="main" version="1.1" xmlns="http://www.w3.org/2000/svg" xmlns:xlink="http://www.w3.org/1999/xlink" xml:space="preserve" onload="init(evt)">
<style type="text/css"><![CDATA[
.edge:hover path { stroke: red; }
.edge:hover polygon { stroke: red; fill: red; }
]]></style>
<script type="text/javascript"><![CDATA[
var edges = document.getElementsByTagName('g');
if (edges && edges.length) {
  for (var i=0;i<edges.length;i++) {
    if (edges[i].id.substr(0,4)=='edge') {
      edges[i].setAttribute('class','edge');
    }
  }
}
]]></script>
        <defs>
                <circle id="rim" cx="0" cy="0" r="7"/>
                <circle id="rim2" cx="0" cy="0" r="3.5"/>
                <g id="zoomPlus">
                        <use xlink:href="#rim" fill="#404040">
                                <set attributeName="fill" to="#808080" begin="zoomplus.mouseover" end="zoomplus.mouseout"/>
                        </use>
                        <path d="M-4,0h8M0,-4v8" fill="none" stroke="white" stroke-width="1.5" pointer-events="none"/>
                </g>
                <g id="zoomMin">
                        <use xlink:href="#rim" fill="#404040">
                                <set attributeName="fill" to="#808080" begin="zoomminus.mouseover" end="zoomminus.mouseout"/>
                        </use>
                        <path d="M-4,0h8" fill="none" stroke="white" stroke-width="1.5" pointer-events="none"/>
                </g>
                <g id="dirArrow">
                        <path fill="none" stroke="white" stroke-width="1.5" d="M0,-3.0v7 M-2.5,-0.5L0,-3.0L2.5,-0.5"/>
                </g>
               <g id="resetDef">
                       <use xlink:href="#rim2" fill="#404040">
                               <set attributeName="fill" to="#808080" begin="reset.mouseover" end="reset.mouseout"/>
                       </use>
               </g>
        </defs>

<script type="text/javascript">
var viewWidth = 812;
var viewHeight = 174;
var sectionId = 'dynsection-0';
</script>
<script xlink:href="../../svgpan.js"/>
<svg id="graph" class="graph">
<g id="viewport">
<title>/home/travis/build/AliceO2Group/AliceO2/Common/Utils/src/ShmManager.cxx</title>
<!-- Node1 -->
<g id="node1" class="node"><title>Node1</title>
<polygon fill="#bfbfbf" stroke="black" points="373.5,-124.5 373.5,-165.5 552.5,-165.5 552.5,-124.5 373.5,-124.5"/>
<text text-anchor="start" x="381.5" y="-153.5" font-family="Helvetica,sans-Serif" font-size="10.00">/home/travis/build</text>
<text text-anchor="start" x="381.5" y="-142.5" font-family="Helvetica,sans-Serif" font-size="10.00">/AliceO2Group/AliceO2</text>
<text text-anchor="middle" x="463" y="-131.5" font-family="Helvetica,sans-Serif" font-size="10.00">/Common/Utils/src/ShmManager.cxx</text>
</g>
<!-- Node2 -->
<g id="node2" class="node"><title>Node2</title>
<g id="a_node2"><a xlink:href="../../de/d61/ShmManager_8h.html" target="_top" xlink:title="CommonUtils/ShmManager.h">
<polygon fill="none" stroke="black" points="64,-68.5 64,-87.5 210,-87.5 210,-68.5 64,-68.5"/>
<text text-anchor="middle" x="137" y="-75.5" font-family="Helvetica,sans-Serif" font-size="10.00">CommonUtils/ShmManager.h</text>
</a>
</g>
</g>
<!-- Node1&#45;&gt;Node2 -->
<g id="edge1" class="edge"><title>Node1&#45;&gt;Node2</title>
<path fill="none" stroke="midnightblue" d="M373.488,-126.152C314.589,-114.409 239.498,-99.4368 189.918,-89.5511"/>
<polygon fill="midnightblue" stroke="midnightblue" points="190.539,-86.106 180.047,-87.583 189.17,-92.9709 190.539,-86.106"/>
</g>
<!-- Node5 -->
<g id="node5" class="node"><title>Node5</title>
<polygon fill="none" stroke="#bfbfbf" points="114,-1 114,-31 262,-31 262,-1 114,-1"/>
<text text-anchor="start" x="122" y="-19" font-family="Helvetica,sans-Serif" font-size="10.00">boost/interprocess</text>
<text text-anchor="middle" x="188" y="-8" font-family="Helvetica,sans-Serif" font-size="10.00">/managed_external_buffer.hpp</text>
</g>
<!-- Node1&#45;&gt;Node5 -->
<g id="edge10" class="edge"><title>Node1&#45;&gt;Node5</title>
<path fill="none" stroke="midnightblue" d="M383.385,-124.425C352.441,-115.35 317.235,-103.173 287,-88 259.5,-74.1998 231.286,-53.157 212.049,-37.559"/>
<polygon fill="midnightblue" stroke="midnightblue" points="214.073,-34.6918 204.13,-31.0331 209.621,-40.0938 214.073,-34.6918"/>
</g>
<!-- Node6 -->
<g id="node6" class="node"><title>Node6</title>
<polygon fill="none" stroke="#bfbfbf" points="280,-1 280,-31 400,-31 400,-1 280,-1"/>
<text text-anchor="start" x="288" y="-19" font-family="Helvetica,sans-Serif" font-size="10.00">boost/interprocess</text>
<text text-anchor="middle" x="340" y="-8" font-family="Helvetica,sans-Serif" font-size="10.00">/allocators/allocator.hpp</text>
</g>
<!-- Node1&#45;&gt;Node6 -->
<g id="edge11" class="edge"><title>Node1&#45;&gt;Node6</title>
<path fill="none" stroke="midnightblue" d="M373.308,-134.845C343.836,-127.077 314.037,-113.072 296,-88 284.389,-71.8607 297.835,-52.6443 312.829,-38.2757"/>
<polygon fill="midnightblue" stroke="midnightblue" points="315.568,-40.5219 320.686,-31.2457 310.9,-35.305 315.568,-40.5219"/>
</g>
<!-- Node7 -->
<g id="node7" class="node"><title>Node7</title>
<polygon fill="none" stroke="#bfbfbf" points="304.5,-68.5 304.5,-87.5 375.5,-87.5 375.5,-68.5 304.5,-68.5"/>
<text text-anchor="middle" x="340" y="-75.5" font-family="Helvetica,sans-Serif" font-size="10.00">FairLogger.h</text>
</g>
<!-- Node1&#45;&gt;Node7 -->
<g id="edge6" class="edge"><title>Node1&#45;&gt;Node7</title>
<path fill="none" stroke="midnightblue" d="M426.096,-124.498C406.512,-114.149 382.945,-101.695 365.422,-92.4346"/>
<polygon fill="midnightblue" stroke="midnightblue" points="366.85,-89.2303 356.373,-87.6525 363.579,-95.4193 366.85,-89.2303"/>
</g>
<!-- Node8 -->
<g id="node8" class="node"><title>Node8</title>
<polygon fill="none" stroke="#bfbfbf" points="394,-68.5 394,-87.5 456,-87.5 456,-68.5 394,-68.5"/>
<text text-anchor="middle" x="425" y="-75.5" font-family="Helvetica,sans-Serif" font-size="10.00">sys/shm.h</text>
</g>
<!-- Node1&#45;&gt;Node8 -->
<g id="edge7" class="edge"><title>Node1&#45;&gt;Node8</title>
<path fill="none" stroke="midnightblue" d="M451.599,-124.498C446.389,-115.586 440.266,-105.113 435.209,-96.4636"/>
<polygon fill="midnightblue" stroke="midnightblue" points="438.127,-94.519 430.058,-87.6525 432.084,-98.0519 438.127,-94.519"/>
</g>
<!-- Node9 -->
<g id="node9" class="node"><title>Node9</title>
<polygon fill="none" stroke="#bfbfbf" points="474,-68.5 474,-87.5 530,-87.5 530,-68.5 474,-68.5"/>
<text text-anchor="middle" x="502" y="-75.5" font-family="Helvetica,sans-Serif" font-size="10.00">sys/ipc.h</text>
</g>
<!-- Node1&#45;&gt;Node9 -->
<g id="edge8" class="edge"><title>Node1&#45;&gt;Node9</title>
<path fill="none" stroke="midnightblue" d="M474.701,-124.498C480.048,-115.586 486.332,-105.113 491.522,-96.4636"/>
<polygon fill="midnightblue" stroke="midnightblue" points="494.665,-98.0282 496.809,-87.6525 488.662,-94.4267 494.665,-98.0282"/>
</g>
<!-- Node10 -->
<g id="node10" class="node"><title>Node10</title>
<polygon fill="none" stroke="#bfbfbf" points="548,-68.5 548,-87.5 604,-87.5 604,-68.5 548,-68.5"/>
<text text-anchor="middle" x="576" y="-75.5" font-family="Helvetica,sans-Serif" font-size="10.00">algorithm</text>
</g>
<!-- Node1&#45;&gt;Node10 -->
<g id="edge9" class="edge"><title>Node1&#45;&gt;Node10</title>
<path fill="none" stroke="midnightblue" d="M496.904,-124.498C514.729,-114.245 536.146,-101.925 552.196,-92.6927"/>
<polygon fill="midnightblue" stroke="midnightblue" points="554.035,-95.6726 560.958,-87.6525 550.545,-89.6048 554.035,-95.6726"/>
</g>
<!-- Node11 -->
<g id="node11" class="node"><title>Node11</title>
<polygon fill="none" stroke="#bfbfbf" points="622,-68.5 622,-87.5 674,-87.5 674,-68.5 622,-68.5"/>
<text text-anchor="middle" x="648" y="-75.5" font-family="Helvetica,sans-Serif" font-size="10.00">sstream</text>
</g>
<!-- Node1&#45;&gt;Node11 -->
<g id="edge12" class="edge"><title>Node1&#45;&gt;Node11</title>
<path fill="none" stroke="midnightblue" d="M518.506,-124.498C549.461,-113.622 587.034,-100.421 613.717,-91.0455"/>
<polygon fill="midnightblue" stroke="midnightblue" points="615.099,-94.2695 623.374,-87.6525 612.779,-87.6653 615.099,-94.2695"/>
</g>
<!-- Node12 -->
<g id="node12" class="node"><title>Node12</title>
<polygon fill="none" stroke="#bfbfbf" points="692.5,-68.5 692.5,-87.5 737.5,-87.5 737.5,-68.5 692.5,-68.5"/>
<text text-anchor="middle" x="715" y="-75.5" font-family="Helvetica,sans-Serif" font-size="10.00">cstdlib</text>
</g>
<!-- Node1&#45;&gt;Node12 -->
<g id="edge13" class="edge"><title>Node1&#45;&gt;Node12</title>
<path fill="none" stroke="midnightblue" d="M541.781,-124.452C581.311,-114.524 630.153,-102.076 682.483,-88.0906"/>
<polygon fill="midnightblue" stroke="midnightblue" points="683.54,-91.4308 692.294,-85.4615 681.728,-84.6694 683.54,-91.4308"/>
</g>
<!-- Node13 -->
<g id="node13" class="node"><title>Node13</title>
<polygon fill="none" stroke="#bfbfbf" points="755.5,-68.5 755.5,-87.5 804.5,-87.5 804.5,-68.5 755.5,-68.5"/>
<text text-anchor="middle" x="780" y="-75.5" font-family="Helvetica,sans-Serif" font-size="10.00">cassert</text>
</g>
<!-- Node1&#45;&gt;Node13 -->
<g id="edge14" class="edge"><title>Node1&#45;&gt;Node13</title>
<path fill="none" stroke="midnightblue" d="M552.531,-127.788C605.849,-117.777 675.041,-104.171 745.251,-88.059"/>
<polygon fill="midnightblue" stroke="midnightblue" points="746.207,-91.4303 755.163,-85.769 744.632,-84.6099 746.207,-91.4303"/>
</g>
<!-- Node3 -->
<g id="node3" class="node"><title>Node3</title>
<polygon fill="none" stroke="#bfbfbf" points="-0.5,-6.5 -0.5,-25.5 28.5,-25.5 28.5,-6.5 -0.5,-6.5"/>
<text text-anchor="middle" x="14" y="-13.5" font-family="Helvetica,sans-Serif" font-size="10.00">list</text>
</g>
<!-- Node2&#45;&gt;Node3 -->
<g id="edge2" class="edge"><title>Node2&#45;&gt;Node3</title>
<path fill="none" stroke="midnightblue" d="M115.467,-68.4492C94.8949,-60.016 63.2252,-46.3397 37,-32 36.3412,-31.6398 35.6764,-31.2671 35.0089,-30.8849"/>
<polygon fill="midnightblue" stroke="midnightblue" points="36.7894,-27.871 26.438,-25.6131 33.1221,-33.8335 36.7894,-27.871"/>
</g>
<!-- Node4 -->
<g id="node4" class="node"><title>Node4</title>
<polygon fill="none" stroke="#bfbfbf" points="46.5,-6.5 46.5,-25.5 95.5,-25.5 95.5,-6.5 46.5,-6.5"/>
<text text-anchor="middle" x="71" y="-13.5" font-family="Helvetica,sans-Serif" font-size="10.00">cstddef</text>
</g>
<!-- Node2&#45;&gt;Node4 -->
<g id="edge3" class="edge"><title>Node2&#45;&gt;Node4</title>
<path fill="none" stroke="midnightblue" d="M127.544,-68.4035C117.252,-59.047 100.584,-43.8948 88.0059,-32.4599"/>
<polygon fill="midnightblue" stroke="midnightblue" points="90.1924,-29.7176 80.4386,-25.5806 85.4837,-34.8971 90.1924,-29.7176"/>
</g>
<!-- Node2&#45;&gt;Node5 -->
<g id="edge4" class="edge"><title>Node2&#45;&gt;Node5</title>
<path fill="none" stroke="midnightblue" d="M144.307,-68.4035C150.827,-60.733 160.658,-49.1673 169.344,-38.9478"/>
<polygon fill="midnightblue" stroke="midnightblue" points="172.171,-41.027 175.98,-31.1408 166.837,-36.4934 172.171,-41.027"/>
</g>
<!-- Node2&#45;&gt;Node6 -->
<g id="edge5" class="edge"><title>Node2&#45;&gt;Node6</title>
<path fill="none" stroke="midnightblue" d="M166.085,-68.4035C196.377,-59.4501 244.625,-45.1897 282.626,-33.9579"/>
<polygon fill="midnightblue" stroke="midnightblue" points="283.95,-37.2163 292.548,-31.0253 281.966,-30.5034 283.95,-37.2163"/>
</g>
</g>
</svg>
        <g id="navigator" transform="translate(0 0)" fill="#404254">
                <rect fill="#f2f5e9" fill-opacity="0.5" stroke="#606060" stroke-width=".5" x="0" y="0" width="60" height="60"/>
                <use id="zoomplus" xlink:href="#zoomPlus" x="17" y="9" onmousedown="handleZoom(evt,'in')"/>
                <use id="zoomminus" xlink:href="#zoomMin" x="42" y="9" onmousedown="handleZoom(evt,'out')"/>
                <use id="reset" xlink:href="#resetDef" x="30" y="36" onmousedown="handleReset()"/>
                <g id="arrowUp" xlink:href="#dirArrow" transform="translate(30 24)" onmousedown="handlePan(0,-1)">
                  <use xlink:href="#rim" fill="#404040">
                        <set attributeName="fill" to="#808080" begin="arrowUp.mouseover" end="arrowUp.mouseout"/>
                  </use>
                  <path fill="none" stroke="white" stroke-width="1.5" d="M0,-3.0v7 M-2.5,-0.5L0,-3.0L2.5,-0.5"/>
                </g>
                <g id="arrowRight" xlink:href="#dirArrow" transform="rotate(90) translate(36 -43)" onmousedown="handlePan(1,0)">
                  <use xlink:href="#rim" fill="#404040">
                        <set attributeName="fill" to="#808080" begin="arrowRight.mouseover" end="arrowRight.mouseout"/>
                  </use>
                  <path fill="none" stroke="white" stroke-width="1.5" d="M0,-3.0v7 M-2.5,-0.5L0,-3.0L2.5,-0.5"/>
                </g>
                <g id="arrowDown" xlink:href="#dirArrow" transform="rotate(180) translate(-30 -48)" onmousedown="handlePan(0,1)">
                  <use xlink:href="#rim" fill="#404040">
                        <set attributeName="fill" to="#808080" begin="arrowDown.mouseover" end="arrowDown.mouseout"/>
                  </use>
                  <path fill="none" stroke="white" stroke-width="1.5" d="M0,-3.0v7 M-2.5,-0.5L0,-3.0L2.5,-0.5"/>
                </g>
                <g id="arrowLeft" xlink:href="#dirArrow" transform="rotate(270) translate(-36 17)" onmousedown="handlePan(-1,0)">
                  <use xlink:href="#rim" fill="#404040">
                        <set attributeName="fill" to="#808080" begin="arrowLeft.mouseover" end="arrowLeft.mouseout"/>
                  </use>
                  <path fill="none" stroke="white" stroke-width="1.5" d="M0,-3.0v7 M-2.5,-0.5L0,-3.0L2.5,-0.5"/>
                </g>
        </g>
        <svg viewBox="0 0 15 15" width="100%" height="30px" preserveAspectRatio="xMaxYMin meet">
         <g id="arrow_out" transform="scale(0.3 0.3)">
          <a xlink:href="ShmManager_8cxx__incl_org.svg" target="_base">
           <rect id="button" ry="5" rx="5" y="6" x="6" height="38" width="38"
                fill="#f2f5e9" fill-opacity="0.5" stroke="#606060" stroke-width="1.0"/>
           <path id="arrow"
             d="M 11.500037,31.436501 C 11.940474,20.09759 22.043105,11.32322 32.158766,21.979434 L 37.068811,17.246167 C 37.068811,17.246167 37.088388,32 37.088388,32 L 22.160133,31.978069 C 22.160133,31.978069 26.997745,27.140456 26.997745,27.140456 C 18.528582,18.264221 13.291696,25.230495 11.500037,31.436501 z"
             style="fill:#404040;"/>
          </a>
         </g>
        </svg>
</svg>
