<?xml version="1.0" encoding="UTF-8" standalone="no"?>
<!DOCTYPE svg PUBLIC "-//W3C//DTD SVG 1.1//EN"
 "http://www.w3.org/Graphics/SVG/1.1/DTD/svg11.dtd">
<!-- Generated by graphviz version 2.36.0 (20140111.2315)
 -->
<!-- Title: /home/travis/build/AliceO2Group/AliceO2/Utilities/O2Device/include/O2Device/Utilities.h Pages: 1 -->
<!--zoomable 242 -->
<svg id="main" version="1.1" xmlns="http://www.w3.org/2000/svg" xmlns:xlink="http://www.w3.org/1999/xlink" xml:space="preserve" onload="init(evt)">
<style type="text/css"><![CDATA[
.edge:hover path { stroke: red; }
.edge:hover polygon { stroke: red; fill: red; }
]]></style>
<script type="text/javascript"><![CDATA[
var edges = document.getElementsByTagName('g');
if (edges && edges.length) {
  for (var i=0;i<edges.length;i++) {
    if (edges[i].id.substr(0,4)=='edge') {
      edges[i].setAttribute('class','edge');
    }
  }
}
]]></script>
        <defs>
                <circle id="rim" cx="0" cy="0" r="7"/>
                <circle id="rim2" cx="0" cy="0" r="3.5"/>
                <g id="zoomPlus">
                        <use xlink:href="#rim" fill="#404040">
                                <set attributeName="fill" to="#808080" begin="zoomplus.mouseover" end="zoomplus.mouseout"/>
                        </use>
                        <path d="M-4,0h8M0,-4v8" fill="none" stroke="white" stroke-width="1.5" pointer-events="none"/>
                </g>
                <g id="zoomMin">
                        <use xlink:href="#rim" fill="#404040">
                                <set attributeName="fill" to="#808080" begin="zoomminus.mouseover" end="zoomminus.mouseout"/>
                        </use>
                        <path d="M-4,0h8" fill="none" stroke="white" stroke-width="1.5" pointer-events="none"/>
                </g>
                <g id="dirArrow">
                        <path fill="none" stroke="white" stroke-width="1.5" d="M0,-3.0v7 M-2.5,-0.5L0,-3.0L2.5,-0.5"/>
                </g>
               <g id="resetDef">
                       <use xlink:href="#rim2" fill="#404040">
                               <set attributeName="fill" to="#808080" begin="reset.mouseover" end="reset.mouseout"/>
                       </use>
               </g>
        </defs>

<script type="text/javascript">
var viewWidth = 2096;
var viewHeight = 242;
var sectionId = 'dynsection-0';
</script>
<script xlink:href="../../svgpan.js"/>
<svg id="graph" class="graph">
<g id="viewport">
<title>/home/travis/build/AliceO2Group/AliceO2/Utilities/O2Device/include/O2Device/Utilities.h</title>
<!-- Node1 -->
<g id="node1" class="node"><title>Node1</title>
<polygon fill="#bfbfbf" stroke="black" points="1098.5,-181 1098.5,-233 1231.5,-233 1231.5,-181 1098.5,-181"/>
<text text-anchor="start" x="1106.5" y="-221" font-family="Helvetica,sans-Serif" font-size="10.00">/home/travis/build</text>
<text text-anchor="start" x="1106.5" y="-210" font-family="Helvetica,sans-Serif" font-size="10.00">/AliceO2Group/AliceO2</text>
<text text-anchor="start" x="1106.5" y="-199" font-family="Helvetica,sans-Serif" font-size="10.00">/Utilities/O2Device/include</text>
<text text-anchor="middle" x="1165" y="-188" font-family="Helvetica,sans-Serif" font-size="10.00">/O2Device/Utilities.h</text>
</g>
<!-- Node2 -->
<g id="node2" class="node"><title>Node2</title>
<g id="a_node2"><a xlink:href="../../dc/d03/MemoryResources_8h.html" target="_top" xlink:title="MemoryResources/MemoryResources.h">
<polygon fill="none" stroke="black" points="1032.5,-68.5 1032.5,-87.5 1225.5,-87.5 1225.5,-68.5 1032.5,-68.5"/>
<text text-anchor="middle" x="1129" y="-75.5" font-family="Helvetica,sans-Serif" font-size="10.00">MemoryResources/MemoryResources.h</text>
</a>
</g>
</g>
<!-- Node1&#45;&gt;Node2 -->
<g id="edge1" class="edge"><title>Node1&#45;&gt;Node2</title>
<path fill="none" stroke="midnightblue" d="M1160.04,-180.648C1156.62,-164.328 1151.68,-142.739 1146,-124 1143.24,-114.897 1139.57,-104.985 1136.35,-96.7873"/>
<polygon fill="midnightblue" stroke="midnightblue" points="1139.59,-95.4743 1132.6,-87.5092 1133.1,-98.0925 1139.59,-95.4743"/>
</g>
<!-- Node10 -->
<g id="node10" class="node"><title>Node10</title>
<polygon fill="none" stroke="#bfbfbf" points="2048,-6.5 2048,-25.5 2088,-25.5 2088,-6.5 2048,-6.5"/>
<text text-anchor="middle" x="2068" y="-13.5" font-family="Helvetica,sans-Serif" font-size="10.00">utility</text>
</g>
<!-- Node1&#45;&gt;Node10 -->
<g id="edge28" class="edge"><title>Node1&#45;&gt;Node10</title>
<path fill="none" stroke="midnightblue" d="M1190.04,-180.733C1210.49,-161.752 1241.14,-136.894 1273,-124 1590.44,4.46533 1710.01,-130.471 2038,-32 2039.97,-31.4098 2041.96,-30.6977 2043.94,-29.9085"/>
<polygon fill="midnightblue" stroke="midnightblue" points="2045.84,-32.8853 2053.46,-25.5271 2042.91,-26.5256 2045.84,-32.8853"/>
</g>
<!-- Node17 -->
<g id="node17" class="node"><title>Node17</title>
<g id="a_node17"><a xlink:href="../../dc/dcd/DataHeader_8h.html" target="_top" xlink:title="Headers/DataHeader.h">
<polygon fill="none" stroke="black" points="305.5,-68.5 305.5,-87.5 422.5,-87.5 422.5,-68.5 305.5,-68.5"/>
<text text-anchor="middle" x="364" y="-75.5" font-family="Helvetica,sans-Serif" font-size="10.00">Headers/DataHeader.h</text>
</a>
</g>
</g>
<!-- Node1&#45;&gt;Node17 -->
<g id="edge16" class="edge"><title>Node1&#45;&gt;Node17</title>
<path fill="none" stroke="midnightblue" d="M1098.43,-195.445C946.681,-171.385 576.785,-112.738 427.768,-89.1105"/>
<polygon fill="midnightblue" stroke="midnightblue" points="428.276,-85.6474 417.851,-87.5382 427.18,-92.5611 428.276,-85.6474"/>
</g>
<!-- Node24 -->
<g id="node24" class="node"><title>Node24</title>
<g id="a_node24"><a xlink:href="../../d4/d00/Headers_2include_2Headers_2Stack_8h.html" target="_top" xlink:title="Headers/Stack.h">
<polygon fill="none" stroke="black" points="1047,-124.5 1047,-143.5 1137,-143.5 1137,-124.5 1047,-124.5"/>
<text text-anchor="middle" x="1092" y="-131.5" font-family="Helvetica,sans-Serif" font-size="10.00">Headers/Stack.h</text>
</a>
</g>
</g>
<!-- Node1&#45;&gt;Node24 -->
<g id="edge25" class="edge"><title>Node1&#45;&gt;Node24</title>
<path fill="none" stroke="midnightblue" d="M1139.06,-180.768C1128.79,-170.78 1117.3,-159.605 1108.24,-150.798"/>
<polygon fill="midnightblue" stroke="midnightblue" points="1110.61,-148.22 1101,-143.757 1105.73,-153.238 1110.61,-148.22"/>
</g>
<!-- Node25 -->
<g id="node25" class="node"><title>Node25</title>
<polygon fill="none" stroke="#bfbfbf" points="1282.5,-124.5 1282.5,-143.5 1327.5,-143.5 1327.5,-124.5 1282.5,-124.5"/>
<text text-anchor="middle" x="1305" y="-131.5" font-family="Helvetica,sans-Serif" font-size="10.00">gsl/gsl</text>
</g>
<!-- Node1&#45;&gt;Node25 -->
<g id="edge29" class="edge"><title>Node1&#45;&gt;Node25</title>
<path fill="none" stroke="midnightblue" d="M1214.36,-180.968C1236.01,-169.986 1260.56,-157.537 1278.64,-148.366"/>
<polygon fill="midnightblue" stroke="midnightblue" points="1280.63,-151.283 1287.97,-143.639 1277.46,-145.04 1280.63,-151.283"/>
</g>
<!-- Node3 -->
<g id="node3" class="node"><title>Node3</title>
<polygon fill="none" stroke="#bfbfbf" points="1390,-1 1390,-31 1490,-31 1490,-1 1390,-1"/>
<text text-anchor="start" x="1398" y="-19" font-family="Helvetica,sans-Serif" font-size="10.00">boost/container/flat</text>
<text text-anchor="middle" x="1440" y="-8" font-family="Helvetica,sans-Serif" font-size="10.00">_map.hpp</text>
</g>
<!-- Node2&#45;&gt;Node3 -->
<g id="edge2" class="edge"><title>Node2&#45;&gt;Node3</title>
<path fill="none" stroke="midnightblue" d="M1183.3,-68.4689C1232.28,-60.5087 1306.52,-47.7958 1379.96,-32.1398"/>
<polygon fill="midnightblue" stroke="midnightblue" points="1380.81,-35.5382 1389.85,-30.0134 1379.33,-28.6948 1380.81,-35.5382"/>
</g>
<!-- Node4 -->
<g id="node4" class="node"><title>Node4</title>
<polygon fill="none" stroke="#bfbfbf" points="1508,-1 1508,-31 1624,-31 1624,-1 1508,-1"/>
<text text-anchor="start" x="1516" y="-19" font-family="Helvetica,sans-Serif" font-size="10.00">boost/container/pmr</text>
<text text-anchor="middle" x="1566" y="-8" font-family="Helvetica,sans-Serif" font-size="10.00">/memory_resource.hpp</text>
</g>
<!-- Node2&#45;&gt;Node4 -->
<g id="edge3" class="edge"><title>Node2&#45;&gt;Node4</title>
<path fill="none" stroke="midnightblue" d="M1219.84,-68.4912C1292.55,-61.0928 1397.29,-49.1202 1497.93,-32.0817"/>
<polygon fill="midnightblue" stroke="midnightblue" points="1498.7,-35.5004 1507.97,-30.3627 1497.52,-28.6009 1498.7,-35.5004"/>
</g>
<!-- Node5 -->
<g id="node5" class="node"><title>Node5</title>
<polygon fill="none" stroke="#bfbfbf" points="1642,-1 1642,-31 1798,-31 1798,-1 1642,-1"/>
<text text-anchor="start" x="1650" y="-19" font-family="Helvetica,sans-Serif" font-size="10.00">boost/container/pmr</text>
<text text-anchor="middle" x="1720" y="-8" font-family="Helvetica,sans-Serif" font-size="10.00">/monotonic_buffer_resource.hpp</text>
</g>
<!-- Node2&#45;&gt;Node5 -->
<g id="edge4" class="edge"><title>Node2&#45;&gt;Node5</title>
<path fill="none" stroke="midnightblue" d="M1225.61,-68.7749C1352.78,-57.8872 1566.88,-39.3292 1631.81,-31.8738"/>
<polygon fill="midnightblue" stroke="midnightblue" points="1632.33,-35.3357 1641.84,-30.6551 1631.49,-28.3868 1632.33,-35.3357"/>
</g>
<!-- Node6 -->
<g id="node6" class="node"><title>Node6</title>
<polygon fill="none" stroke="#bfbfbf" points="1816.5,-1 1816.5,-31 1949.5,-31 1949.5,-1 1816.5,-1"/>
<text text-anchor="start" x="1824.5" y="-19" font-family="Helvetica,sans-Serif" font-size="10.00">boost/container/pmr</text>
<text text-anchor="middle" x="1883" y="-8" font-family="Helvetica,sans-Serif" font-size="10.00">/polymorphic_allocator.hpp</text>
</g>
<!-- Node2&#45;&gt;Node6 -->
<g id="edge5" class="edge"><title>Node2&#45;&gt;Node6</title>
<path fill="none" stroke="midnightblue" d="M1225.55,-69.0693C1230.44,-68.7001 1235.28,-68.3415 1240,-68 1488.53,-50.036 1554.86,-64.1347 1806.18,-31.9822"/>
<polygon fill="midnightblue" stroke="midnightblue" points="1806.88,-35.4205 1816.35,-30.6686 1805.99,-28.4781 1806.88,-35.4205"/>
</g>
<!-- Node7 -->
<g id="node7" class="node"><title>Node7</title>
<polygon fill="none" stroke="#bfbfbf" points="509,-6.5 509,-25.5 555,-25.5 555,-6.5 509,-6.5"/>
<text text-anchor="middle" x="532" y="-13.5" font-family="Helvetica,sans-Serif" font-size="10.00">cstring</text>
</g>
<!-- Node2&#45;&gt;Node7 -->
<g id="edge6" class="edge"><title>Node2&#45;&gt;Node7</title>
<path fill="none" stroke="midnightblue" d="M1032.39,-73.4756C894.837,-67.746 649.728,-54.7052 564,-32 561.648,-31.3771 559.257,-30.5872 556.895,-29.697"/>
<polygon fill="midnightblue" stroke="midnightblue" points="558.095,-26.4027 547.527,-25.6441 555.315,-32.8272 558.095,-26.4027"/>
</g>
<!-- Node8 -->
<g id="node8" class="node"><title>Node8</title>
<polygon fill="none" stroke="#bfbfbf" points="573.5,-6.5 573.5,-25.5 614.5,-25.5 614.5,-6.5 573.5,-6.5"/>
<text text-anchor="middle" x="594" y="-13.5" font-family="Helvetica,sans-Serif" font-size="10.00">string</text>
</g>
<!-- Node2&#45;&gt;Node8 -->
<g id="edge7" class="edge"><title>Node2&#45;&gt;Node8</title>
<path fill="none" stroke="midnightblue" d="M1032.38,-72.6856C907.772,-66.3794 698.257,-53.0526 624,-32 622.025,-31.4401 620.025,-30.75 618.045,-29.9762"/>
<polygon fill="midnightblue" stroke="midnightblue" points="619.06,-26.5922 608.509,-25.6244 616.154,-32.9604 619.06,-26.5922"/>
</g>
<!-- Node9 -->
<g id="node9" class="node"><title>Node9</title>
<polygon fill="none" stroke="#bfbfbf" points="1968,-6.5 1968,-25.5 2030,-25.5 2030,-6.5 1968,-6.5"/>
<text text-anchor="middle" x="1999" y="-13.5" font-family="Helvetica,sans-Serif" font-size="10.00">type_traits</text>
</g>
<!-- Node2&#45;&gt;Node9 -->
<g id="edge8" class="edge"><title>Node2&#45;&gt;Node9</title>
<path fill="none" stroke="midnightblue" d="M1225.55,-68.9921C1230.43,-68.6432 1235.27,-68.31 1240,-68 1558.83,-47.0867 1644.88,-95.6064 1958,-32 1961.9,-31.2078 1965.92,-30.1097 1969.86,-28.8645"/>
<polygon fill="midnightblue" stroke="midnightblue" points="1971.04,-32.1583 1979.33,-25.5564 1968.73,-25.5498 1971.04,-32.1583"/>
</g>
<!-- Node2&#45;&gt;Node10 -->
<g id="edge9" class="edge"><title>Node2&#45;&gt;Node10</title>
<path fill="none" stroke="midnightblue" d="M1225.55,-68.9631C1230.43,-68.6217 1235.27,-68.2982 1240,-68 1417.16,-56.8252 1866.2,-76.6679 2038,-32 2040.2,-31.4285 2042.42,-30.6831 2044.61,-29.8299"/>
<polygon fill="midnightblue" stroke="midnightblue" points="2046.2,-32.9535 2053.83,-25.6055 2043.28,-26.5899 2046.2,-32.9535"/>
</g>
<!-- Node11 -->
<g id="node11" class="node"><title>Node11</title>
<polygon fill="none" stroke="#bfbfbf" points="633,-6.5 633,-25.5 677,-25.5 677,-6.5 633,-6.5"/>
<text text-anchor="middle" x="655" y="-13.5" font-family="Helvetica,sans-Serif" font-size="10.00">vector</text>
</g>
<!-- Node2&#45;&gt;Node11 -->
<g id="edge10" class="edge"><title>Node2&#45;&gt;Node11</title>
<path fill="none" stroke="midnightblue" d="M1032.14,-76.806C941.154,-74.3802 802.034,-64.8575 686,-32 683.803,-31.3779 681.572,-30.6077 679.366,-29.7473"/>
<polygon fill="midnightblue" stroke="midnightblue" points="680.592,-26.4619 670.034,-25.5784 677.737,-32.8531 680.592,-26.4619"/>
</g>
<!-- Node12 -->
<g id="node12" class="node"><title>Node12</title>
<polygon fill="none" stroke="#bfbfbf" points="695.5,-6.5 695.5,-25.5 778.5,-25.5 778.5,-6.5 695.5,-6.5"/>
<text text-anchor="middle" x="737" y="-13.5" font-family="Helvetica,sans-Serif" font-size="10.00">unordered_map</text>
</g>
<!-- Node2&#45;&gt;Node12 -->
<g id="edge11" class="edge"><title>Node2&#45;&gt;Node12</title>
<path fill="none" stroke="midnightblue" d="M1032.47,-68.4781C963.577,-61.3822 868.98,-49.5712 787,-32 782.212,-30.9738 777.218,-29.7125 772.318,-28.3612"/>
<polygon fill="midnightblue" stroke="midnightblue" points="773.067,-24.9344 762.488,-25.5073 771.116,-31.6568 773.067,-24.9344"/>
</g>
<!-- Node13 -->
<g id="node13" class="node"><title>Node13</title>
<polygon fill="none" stroke="#bfbfbf" points="796.5,-6.5 796.5,-25.5 893.5,-25.5 893.5,-6.5 796.5,-6.5"/>
<text text-anchor="middle" x="845" y="-13.5" font-family="Helvetica,sans-Serif" font-size="10.00">FairMQMessage.h</text>
</g>
<!-- Node2&#45;&gt;Node13 -->
<g id="edge12" class="edge"><title>Node2&#45;&gt;Node13</title>
<path fill="none" stroke="midnightblue" d="M1081.43,-68.4522C1035.37,-59.9689 963.662,-46.211 902,-32 896.703,-30.7791 891.149,-29.419 885.674,-28.03"/>
<polygon fill="midnightblue" stroke="midnightblue" points="886.534,-24.6372 875.976,-25.5225 884.781,-31.4144 886.534,-24.6372"/>
</g>
<!-- Node14 -->
<g id="node14" class="node"><title>Node14</title>
<polygon fill="none" stroke="#bfbfbf" points="911.5,-6.5 911.5,-25.5 1042.5,-25.5 1042.5,-6.5 911.5,-6.5"/>
<text text-anchor="middle" x="977" y="-13.5" font-family="Helvetica,sans-Serif" font-size="10.00">FairMQTransportFactory.h</text>
</g>
<!-- Node2&#45;&gt;Node14 -->
<g id="edge13" class="edge"><title>Node2&#45;&gt;Node14</title>
<path fill="none" stroke="midnightblue" d="M1107.22,-68.4035C1081.26,-58.1559 1037.69,-40.9561 1008.17,-29.3021"/>
<polygon fill="midnightblue" stroke="midnightblue" points="1009.32,-25.9968 998.737,-25.5806 1006.75,-32.5079 1009.32,-25.9968"/>
</g>
<!-- Node15 -->
<g id="node15" class="node"><title>Node15</title>
<polygon fill="none" stroke="#bfbfbf" points="1060.5,-6.5 1060.5,-25.5 1197.5,-25.5 1197.5,-6.5 1060.5,-6.5"/>
<text text-anchor="middle" x="1129" y="-13.5" font-family="Helvetica,sans-Serif" font-size="10.00">fairmq/MemoryResources.h</text>
</g>
<!-- Node2&#45;&gt;Node15 -->
<g id="edge14" class="edge"><title>Node2&#45;&gt;Node15</title>
<path fill="none" stroke="midnightblue" d="M1129,-68.4035C1129,-59.9381 1129,-46.7283 1129,-35.8199"/>
<polygon fill="midnightblue" stroke="midnightblue" points="1132.5,-35.5806 1129,-25.5806 1125.5,-35.5806 1132.5,-35.5806"/>
</g>
<!-- Node16 -->
<g id="node16" class="node"><title>Node16</title>
<polygon fill="none" stroke="#bfbfbf" points="1216,-6.5 1216,-25.5 1372,-25.5 1372,-6.5 1216,-6.5"/>
<text text-anchor="middle" x="1294" y="-13.5" font-family="Helvetica,sans-Serif" font-size="10.00">fairmq/MemoryResourceTools.h</text>
</g>
<!-- Node2&#45;&gt;Node16 -->
<g id="edge15" class="edge"><title>Node2&#45;&gt;Node16</title>
<path fill="none" stroke="midnightblue" d="M1152.64,-68.4035C1181.07,-58.0668 1228.94,-40.6564 1261,-28.9994"/>
<polygon fill="midnightblue" stroke="midnightblue" points="1262.2,-32.2874 1270.4,-25.5806 1259.81,-25.7088 1262.2,-32.2874"/>
</g>
<!-- Node17&#45;&gt;Node7 -->
<g id="edge20" class="edge"><title>Node17&#45;&gt;Node7</title>
<path fill="none" stroke="midnightblue" d="M392.492,-68.4573C420.03,-59.9778 462.782,-46.2226 499,-32 500.845,-31.2754 502.736,-30.502 504.633,-29.7028"/>
<polygon fill="midnightblue" stroke="midnightblue" points="506.239,-32.8203 513.991,-25.5981 503.427,-26.4099 506.239,-32.8203"/>
</g>
<!-- Node17&#45;&gt;Node8 -->
<g id="edge23" class="edge"><title>Node17&#45;&gt;Node8</title>
<path fill="none" stroke="midnightblue" d="M418.481,-68.4273C459.274,-61.1298 516.062,-49.0915 564,-32 565.851,-31.34 567.736,-30.5933 569.612,-29.7943"/>
<polygon fill="midnightblue" stroke="midnightblue" points="571.169,-32.9301 578.743,-25.5217 568.203,-26.5898 571.169,-32.9301"/>
</g>
<!-- Node18 -->
<g id="node18" class="node"><title>Node18</title>
<polygon fill="none" stroke="#bfbfbf" points="0,-6.5 0,-25.5 46,-25.5 46,-6.5 0,-6.5"/>
<text text-anchor="middle" x="23" y="-13.5" font-family="Helvetica,sans-Serif" font-size="10.00">cstdint</text>
</g>
<!-- Node17&#45;&gt;Node18 -->
<g id="edge17" class="edge"><title>Node17&#45;&gt;Node18</title>
<path fill="none" stroke="midnightblue" d="M305.379,-73.5967C242.393,-68.7624 139.898,-57.471 55,-32 52.7191,-31.3157 50.3942,-30.4941 48.0912,-29.5925"/>
<polygon fill="midnightblue" stroke="midnightblue" points="49.4802,-26.38 38.9153,-25.5835 46.6776,-32.7944 49.4802,-26.38"/>
</g>
<!-- Node19 -->
<g id="node19" class="node"><title>Node19</title>
<polygon fill="none" stroke="#bfbfbf" points="64,-6.5 64,-25.5 116,-25.5 116,-6.5 64,-6.5"/>
<text text-anchor="middle" x="90" y="-13.5" font-family="Helvetica,sans-Serif" font-size="10.00">memory</text>
</g>
<!-- Node17&#45;&gt;Node19 -->
<g id="edge18" class="edge"><title>Node17&#45;&gt;Node19</title>
<path fill="none" stroke="midnightblue" d="M305.187,-69.5892C256.274,-62.5592 185.184,-50.3207 125,-32 122.51,-31.2419 119.958,-30.3622 117.421,-29.4162"/>
<polygon fill="midnightblue" stroke="midnightblue" points="118.467,-26.0636 107.884,-25.5561 115.841,-32.5522 118.467,-26.0636"/>
</g>
<!-- Node20 -->
<g id="node20" class="node"><title>Node20</title>
<polygon fill="none" stroke="#bfbfbf" points="134.5,-6.5 134.5,-25.5 183.5,-25.5 183.5,-6.5 134.5,-6.5"/>
<text text-anchor="middle" x="159" y="-13.5" font-family="Helvetica,sans-Serif" font-size="10.00">cassert</text>
</g>
<!-- Node17&#45;&gt;Node20 -->
<g id="edge19" class="edge"><title>Node17&#45;&gt;Node20</title>
<path fill="none" stroke="midnightblue" d="M324.418,-68.459C289.414,-60.4644 237.191,-47.4535 193,-32 190.872,-31.2559 188.692,-30.4356 186.513,-29.5736"/>
<polygon fill="midnightblue" stroke="midnightblue" points="187.713,-26.2815 177.138,-25.6359 185.002,-32.7353 187.713,-26.2815"/>
</g>
<!-- Node21 -->
<g id="node21" class="node"><title>Node21</title>
<polygon fill="none" stroke="#bfbfbf" points="202,-6.5 202,-25.5 258,-25.5 258,-6.5 202,-6.5"/>
<text text-anchor="middle" x="230" y="-13.5" font-family="Helvetica,sans-Serif" font-size="10.00">algorithm</text>
</g>
<!-- Node17&#45;&gt;Node21 -->
<g id="edge21" class="edge"><title>Node17&#45;&gt;Node21</title>
<path fill="none" stroke="midnightblue" d="M344.801,-68.4035C322.213,-58.2896 284.501,-41.4036 258.499,-29.761"/>
<polygon fill="midnightblue" stroke="midnightblue" points="259.721,-26.4729 249.163,-25.5806 256.86,-32.8617 259.721,-26.4729"/>
</g>
<!-- Node22 -->
<g id="node22" class="node"><title>Node22</title>
<polygon fill="none" stroke="#bfbfbf" points="276.5,-6.5 276.5,-25.5 335.5,-25.5 335.5,-6.5 276.5,-6.5"/>
<text text-anchor="middle" x="306" y="-13.5" font-family="Helvetica,sans-Serif" font-size="10.00">stdexcept</text>
</g>
<!-- Node17&#45;&gt;Node22 -->
<g id="edge22" class="edge"><title>Node17&#45;&gt;Node22</title>
<path fill="none" stroke="midnightblue" d="M355.69,-68.4035C346.732,-59.1361 332.277,-44.1828 321.261,-32.7876"/>
<polygon fill="midnightblue" stroke="midnightblue" points="323.761,-30.3379 314.295,-25.5806 318.728,-35.2031 323.761,-30.3379"/>
</g>
<!-- Node23 -->
<g id="node23" class="node"><title>Node23</title>
<g id="a_node23"><a xlink:href="../../d7/df8/Types_8h.html" target="_top" xlink:title="MemoryResources/Types.h">
<polygon fill="none" stroke="black" points="353.5,-6.5 353.5,-25.5 490.5,-25.5 490.5,-6.5 353.5,-6.5"/>
<text text-anchor="middle" x="422" y="-13.5" font-family="Helvetica,sans-Serif" font-size="10.00">MemoryResources/Types.h</text>
</a>
</g>
</g>
<!-- Node17&#45;&gt;Node23 -->
<g id="edge24" class="edge"><title>Node17&#45;&gt;Node23</title>
<path fill="none" stroke="midnightblue" d="M372.31,-68.4035C381.268,-59.1361 395.723,-44.1828 406.739,-32.7876"/>
<polygon fill="midnightblue" stroke="midnightblue" points="409.272,-35.2031 413.705,-25.5806 404.239,-30.3379 409.272,-35.2031"/>
</g>
<!-- Node24&#45;&gt;Node2 -->
<g id="edge26" class="edge"><title>Node24&#45;&gt;Node2</title>
<path fill="none" stroke="midnightblue" d="M1098.11,-124.083C1103.28,-116.534 1110.85,-105.495 1117.19,-96.2298"/>
<polygon fill="midnightblue" stroke="midnightblue" points="1120.24,-97.9787 1123,-87.7511 1114.46,-94.0221 1120.24,-97.9787"/>
</g>
<!-- Node24&#45;&gt;Node17 -->
<g id="edge27" class="edge"><title>Node24&#45;&gt;Node17</title>
<path fill="none" stroke="midnightblue" d="M1046.74,-129.642C923.343,-120.49 580.48,-95.0576 432.951,-84.1145"/>
<polygon fill="midnightblue" stroke="midnightblue" points="432.904,-80.6015 422.672,-83.3521 432.386,-87.5823 432.904,-80.6015"/>
</g>
</g>
</svg>
        <g id="navigator" transform="translate(0 0)" fill="#404254">
                <rect fill="#f2f5e9" fill-opacity="0.5" stroke="#606060" stroke-width=".5" x="0" y="0" width="60" height="60"/>
                <use id="zoomplus" xlink:href="#zoomPlus" x="17" y="9" onmousedown="handleZoom(evt,'in')"/>
                <use id="zoomminus" xlink:href="#zoomMin" x="42" y="9" onmousedown="handleZoom(evt,'out')"/>
                <use id="reset" xlink:href="#resetDef" x="30" y="36" onmousedown="handleReset()"/>
                <g id="arrowUp" xlink:href="#dirArrow" transform="translate(30 24)" onmousedown="handlePan(0,-1)">
                  <use xlink:href="#rim" fill="#404040">
                        <set attributeName="fill" to="#808080" begin="arrowUp.mouseover" end="arrowUp.mouseout"/>
                  </use>
                  <path fill="none" stroke="white" stroke-width="1.5" d="M0,-3.0v7 M-2.5,-0.5L0,-3.0L2.5,-0.5"/>
                </g>
                <g id="arrowRight" xlink:href="#dirArrow" transform="rotate(90) translate(36 -43)" onmousedown="handlePan(1,0)">
                  <use xlink:href="#rim" fill="#404040">
                        <set attributeName="fill" to="#808080" begin="arrowRight.mouseover" end="arrowRight.mouseout"/>
                  </use>
                  <path fill="none" stroke="white" stroke-width="1.5" d="M0,-3.0v7 M-2.5,-0.5L0,-3.0L2.5,-0.5"/>
                </g>
                <g id="arrowDown" xlink:href="#dirArrow" transform="rotate(180) translate(-30 -48)" onmousedown="handlePan(0,1)">
                  <use xlink:href="#rim" fill="#404040">
                        <set attributeName="fill" to="#808080" begin="arrowDown.mouseover" end="arrowDown.mouseout"/>
                  </use>
                  <path fill="none" stroke="white" stroke-width="1.5" d="M0,-3.0v7 M-2.5,-0.5L0,-3.0L2.5,-0.5"/>
                </g>
                <g id="arrowLeft" xlink:href="#dirArrow" transform="rotate(270) translate(-36 17)" onmousedown="handlePan(-1,0)">
                  <use xlink:href="#rim" fill="#404040">
                        <set attributeName="fill" to="#808080" begin="arrowLeft.mouseover" end="arrowLeft.mouseout"/>
                  </use>
                  <path fill="none" stroke="white" stroke-width="1.5" d="M0,-3.0v7 M-2.5,-0.5L0,-3.0L2.5,-0.5"/>
                </g>
        </g>
        <svg viewBox="0 0 15 15" width="100%" height="30px" preserveAspectRatio="xMaxYMin meet">
         <g id="arrow_out" transform="scale(0.3 0.3)">
          <a xlink:href="Utilities_8h__incl_org.svg" target="_base">
           <rect id="button" ry="5" rx="5" y="6" x="6" height="38" width="38"
                fill="#f2f5e9" fill-opacity="0.5" stroke="#606060" stroke-width="1.0"/>
           <path id="arrow"
             d="M 11.500037,31.436501 C 11.940474,20.09759 22.043105,11.32322 32.158766,21.979434 L 37.068811,17.246167 C 37.068811,17.246167 37.088388,32 37.088388,32 L 22.160133,31.978069 C 22.160133,31.978069 26.997745,27.140456 26.997745,27.140456 C 18.528582,18.264221 13.291696,25.230495 11.500037,31.436501 z"
             style="fill:#404040;"/>
          </a>
         </g>
        </svg>
</svg>
