<?xml version="1.0" encoding="UTF-8" standalone="no"?>
<!DOCTYPE svg PUBLIC "-//W3C//DTD SVG 1.1//EN"
 "http://www.w3.org/Graphics/SVG/1.1/DTD/svg11.dtd">
<!-- Generated by graphviz version 2.36.0 (20140111.2315)
 -->
<!-- Title: /home/travis/build/AliceO2Group/AliceO2/Detectors/ITSMFT/ITS/macros/test/CheckLookUp.C Pages: 1 -->
<svg width="1820pt" height="662pt"
 viewBox="0.00 0.00 1820.00 662.00" xmlns="http://www.w3.org/2000/svg" xmlns:xlink="http://www.w3.org/1999/xlink">
<g id="graph0" class="graph" transform="scale(1 1) rotate(0) translate(4 658)">
<title>/home/travis/build/AliceO2Group/AliceO2/Detectors/ITSMFT/ITS/macros/test/CheckLookUp.C</title>
<!-- Node1 -->
<g id="node1" class="node"><title>Node1</title>
<polygon fill="#bfbfbf" stroke="black" points="1082.5,-601 1082.5,-653 1229.5,-653 1229.5,-601 1082.5,-601"/>
<text text-anchor="start" x="1090.5" y="-641" font-family="Helvetica,sans-Serif" font-size="10.00">/home/travis/build</text>
<text text-anchor="start" x="1090.5" y="-630" font-family="Helvetica,sans-Serif" font-size="10.00">/AliceO2Group/AliceO2</text>
<text text-anchor="start" x="1090.5" y="-619" font-family="Helvetica,sans-Serif" font-size="10.00">/Detectors/ITSMFT/ITS</text>
<text text-anchor="middle" x="1156" y="-608" font-family="Helvetica,sans-Serif" font-size="10.00">/macros/test/CheckLookUp.C</text>
</g>
<!-- Node2 -->
<g id="node2" class="node"><title>Node2</title>
<polygon fill="none" stroke="#bfbfbf" points="595.5,-538.5 595.5,-557.5 672.5,-557.5 672.5,-538.5 595.5,-538.5"/>
<text text-anchor="middle" x="634" y="-545.5" font-family="Helvetica,sans-Serif" font-size="10.00">TStopwatch.h</text>
</g>
<!-- Node1&#45;&gt;Node2 -->
<g id="edge1" class="edge"><title>Node1&#45;&gt;Node2</title>
<path fill="none" stroke="midnightblue" d="M1082.24,-620.329C988.428,-612.21 821.821,-594.749 682,-564 677.563,-563.024 672.947,-561.826 668.408,-560.535"/>
<polygon fill="midnightblue" stroke="midnightblue" points="669.277,-557.141 658.693,-557.613 667.261,-563.845 669.277,-557.141"/>
</g>
<!-- Node3 -->
<g id="node3" class="node"><title>Node3</title>
<polygon fill="none" stroke="#bfbfbf" points="691,-538.5 691,-557.5 741,-557.5 741,-538.5 691,-538.5"/>
<text text-anchor="middle" x="716" y="-545.5" font-family="Helvetica,sans-Serif" font-size="10.00">TAxis.h</text>
</g>
<!-- Node1&#45;&gt;Node3 -->
<g id="edge2" class="edge"><title>Node1&#45;&gt;Node3</title>
<path fill="none" stroke="midnightblue" d="M1082.13,-620.61C999.788,-613.252 863.296,-597.01 750,-564 747.507,-563.274 744.957,-562.405 742.43,-561.456"/>
<polygon fill="midnightblue" stroke="midnightblue" points="743.545,-558.13 732.967,-557.536 740.866,-564.597 743.545,-558.13"/>
</g>
<!-- Node4 -->
<g id="node4" class="node"><title>Node4</title>
<polygon fill="none" stroke="#bfbfbf" points="759.5,-538.5 759.5,-557.5 824.5,-557.5 824.5,-538.5 759.5,-538.5"/>
<text text-anchor="middle" x="792" y="-545.5" font-family="Helvetica,sans-Serif" font-size="10.00">TCanvas.h</text>
</g>
<!-- Node1&#45;&gt;Node4 -->
<g id="edge3" class="edge"><title>Node1&#45;&gt;Node4</title>
<path fill="none" stroke="midnightblue" d="M1082.42,-615.342C1016.45,-604.967 917.331,-587.356 833,-564 829.786,-563.11 826.466,-562.083 823.17,-560.992"/>
<polygon fill="midnightblue" stroke="midnightblue" points="824.087,-557.604 813.492,-557.601 821.772,-564.21 824.087,-557.604"/>
</g>
<!-- Node5 -->
<g id="node5" class="node"><title>Node5</title>
<polygon fill="none" stroke="#bfbfbf" points="842.5,-538.5 842.5,-557.5 889.5,-557.5 889.5,-538.5 842.5,-538.5"/>
<text text-anchor="middle" x="866" y="-545.5" font-family="Helvetica,sans-Serif" font-size="10.00">TFile.h</text>
</g>
<!-- Node1&#45;&gt;Node5 -->
<g id="edge4" class="edge"><title>Node1&#45;&gt;Node5</title>
<path fill="none" stroke="midnightblue" d="M1082.49,-610.662C1031.84,-599.425 963.238,-582.884 904,-564 901.367,-563.161 898.655,-562.229 895.949,-561.253"/>
<polygon fill="midnightblue" stroke="midnightblue" points="896.919,-557.878 886.328,-557.608 894.439,-564.424 896.919,-557.878"/>
</g>
<!-- Node6 -->
<g id="node6" class="node"><title>Node6</title>
<polygon fill="none" stroke="#bfbfbf" points="996,-470.5 996,-489.5 1046,-489.5 1046,-470.5 996,-470.5"/>
<text text-anchor="middle" x="1021" y="-477.5" font-family="Helvetica,sans-Serif" font-size="10.00">TH1F.h</text>
</g>
<!-- Node1&#45;&gt;Node6 -->
<g id="edge5" class="edge"><title>Node1&#45;&gt;Node6</title>
<path fill="none" stroke="midnightblue" d="M1082.23,-614.815C1025.79,-604.574 954.726,-587.442 937,-564 928.422,-552.656 930.025,-544.394 937,-532 947.567,-513.221 968.154,-500.558 986.301,-492.547"/>
<polygon fill="midnightblue" stroke="midnightblue" points="987.847,-495.697 995.777,-488.67 985.196,-489.218 987.847,-495.697"/>
</g>
<!-- Node7 -->
<g id="node7" class="node"><title>Node7</title>
<polygon fill="none" stroke="#bfbfbf" points="946,-538.5 946,-557.5 996,-557.5 996,-538.5 946,-538.5"/>
<text text-anchor="middle" x="971" y="-545.5" font-family="Helvetica,sans-Serif" font-size="10.00">TH2F.h</text>
</g>
<!-- Node1&#45;&gt;Node7 -->
<g id="edge6" class="edge"><title>Node1&#45;&gt;Node7</title>
<path fill="none" stroke="midnightblue" d="M1094.99,-600.99C1067.72,-589.761 1035.22,-576.299 1006,-564 1004.17,-563.231 1002.29,-562.435 1000.4,-561.631"/>
<polygon fill="midnightblue" stroke="midnightblue" points="1001.54,-558.315 990.97,-557.612 998.796,-564.754 1001.54,-558.315"/>
</g>
<!-- Node8 -->
<g id="node8" class="node"><title>Node8</title>
<polygon fill="none" stroke="#bfbfbf" points="1014.5,-538.5 1014.5,-557.5 1073.5,-557.5 1073.5,-538.5 1014.5,-538.5"/>
<text text-anchor="middle" x="1044" y="-545.5" font-family="Helvetica,sans-Serif" font-size="10.00">TNtuple.h</text>
</g>
<!-- Node1&#45;&gt;Node8 -->
<g id="edge7" class="edge"><title>Node1&#45;&gt;Node8</title>
<path fill="none" stroke="midnightblue" d="M1119.33,-600.787C1101.19,-588.321 1079.98,-573.737 1064.69,-563.228"/>
<polygon fill="midnightblue" stroke="midnightblue" points="1066.67,-560.339 1056.45,-557.558 1062.71,-566.107 1066.67,-560.339"/>
</g>
<!-- Node9 -->
<g id="node9" class="node"><title>Node9</title>
<polygon fill="none" stroke="#bfbfbf" points="1092,-538.5 1092,-557.5 1148,-557.5 1148,-538.5 1092,-538.5"/>
<text text-anchor="middle" x="1120" y="-545.5" font-family="Helvetica,sans-Serif" font-size="10.00">TString.h</text>
</g>
<!-- Node1&#45;&gt;Node9 -->
<g id="edge8" class="edge"><title>Node1&#45;&gt;Node9</title>
<path fill="none" stroke="midnightblue" d="M1144.21,-600.787C1139.04,-589.719 1133.08,-576.982 1128.37,-566.909"/>
<polygon fill="midnightblue" stroke="midnightblue" points="1131.41,-565.134 1124,-557.558 1125.07,-568.099 1131.41,-565.134"/>
</g>
<!-- Node10 -->
<g id="node10" class="node"><title>Node10</title>
<polygon fill="none" stroke="#bfbfbf" points="1166.5,-538.5 1166.5,-557.5 1219.5,-557.5 1219.5,-538.5 1166.5,-538.5"/>
<text text-anchor="middle" x="1193" y="-545.5" font-family="Helvetica,sans-Serif" font-size="10.00">TStyle.h</text>
</g>
<!-- Node1&#45;&gt;Node10 -->
<g id="edge9" class="edge"><title>Node1&#45;&gt;Node10</title>
<path fill="none" stroke="midnightblue" d="M1168.12,-600.787C1173.49,-589.603 1179.68,-576.713 1184.55,-566.591"/>
<polygon fill="midnightblue" stroke="midnightblue" points="1187.71,-568.087 1188.89,-557.558 1181.4,-565.055 1187.71,-568.087"/>
</g>
<!-- Node11 -->
<g id="node11" class="node"><title>Node11</title>
<polygon fill="none" stroke="#bfbfbf" points="1238,-538.5 1238,-557.5 1288,-557.5 1288,-538.5 1238,-538.5"/>
<text text-anchor="middle" x="1263" y="-545.5" font-family="Helvetica,sans-Serif" font-size="10.00">TTree.h</text>
</g>
<!-- Node1&#45;&gt;Node11 -->
<g id="edge10" class="edge"><title>Node1&#45;&gt;Node11</title>
<path fill="none" stroke="midnightblue" d="M1191.04,-600.787C1208.2,-588.438 1228.25,-574.01 1242.82,-563.523"/>
<polygon fill="midnightblue" stroke="midnightblue" points="1245.04,-566.24 1251.11,-557.558 1240.95,-560.558 1245.04,-566.24"/>
</g>
<!-- Node12 -->
<g id="node12" class="node"><title>Node12</title>
<polygon fill="none" stroke="#bfbfbf" points="1674,-402.5 1674,-421.5 1724,-421.5 1724,-402.5 1674,-402.5"/>
<text text-anchor="middle" x="1699" y="-409.5" font-family="Helvetica,sans-Serif" font-size="10.00">fstream</text>
</g>
<!-- Node1&#45;&gt;Node12 -->
<g id="edge11" class="edge"><title>Node1&#45;&gt;Node12</title>
<path fill="none" stroke="midnightblue" d="M1229.5,-626.311C1354.97,-625.377 1603.38,-616.697 1670,-564 1709.7,-532.593 1706.5,-464.855 1702.17,-431.847"/>
<polygon fill="midnightblue" stroke="midnightblue" points="1705.6,-431.11 1700.66,-421.737 1698.67,-432.144 1705.6,-431.11"/>
</g>
<!-- Node13 -->
<g id="node13" class="node"><title>Node13</title>
<polygon fill="none" stroke="#bfbfbf" points="1742.5,-402.5 1742.5,-421.5 1783.5,-421.5 1783.5,-402.5 1742.5,-402.5"/>
<text text-anchor="middle" x="1763" y="-409.5" font-family="Helvetica,sans-Serif" font-size="10.00">string</text>
</g>
<!-- Node1&#45;&gt;Node13 -->
<g id="edge12" class="edge"><title>Node1&#45;&gt;Node13</title>
<path fill="none" stroke="midnightblue" d="M1229.57,-626.297C1359.46,-625.421 1622.56,-616.937 1695,-564 1739.02,-531.83 1755.14,-464.459 1760.54,-431.693"/>
<polygon fill="midnightblue" stroke="midnightblue" points="1764.02,-432.067 1762.03,-421.662 1757.09,-431.039 1764.02,-432.067"/>
</g>
<!-- Node14 -->
<g id="node14" class="node"><title>Node14</title>
<g id="a_node14"><a xlink:href="../../d1/d62/DataFormats_2Detectors_2ITSMFT_2common_2include_2DataFormatsITSMFT_2Cluster_8h.html" target="_top" xlink:title="DataFormatsITSMFT/Cluster.h">
<polygon fill="none" stroke="black" points="1450,-340.5 1450,-359.5 1602,-359.5 1602,-340.5 1450,-340.5"/>
<text text-anchor="middle" x="1526" y="-347.5" font-family="Helvetica,sans-Serif" font-size="10.00">DataFormatsITSMFT/Cluster.h</text>
</a>
</g>
</g>
<!-- Node1&#45;&gt;Node14 -->
<g id="edge13" class="edge"><title>Node1&#45;&gt;Node14</title>
<path fill="none" stroke="midnightblue" d="M1229.71,-619.752C1309.79,-611.52 1430.89,-594.398 1465,-564 1494.45,-537.756 1515.86,-416.856 1523.22,-369.807"/>
<polygon fill="midnightblue" stroke="midnightblue" points="1526.7,-370.183 1524.74,-359.77 1519.78,-369.129 1526.7,-370.183"/>
</g>
<!-- Node44 -->
<g id="node44" class="node"><title>Node44</title>
<g id="a_node44"><a xlink:href="../../d8/ddb/ClusterTopology_8h.html" target="_top" xlink:title="Definition of the ClusterTopology class. ">
<polygon fill="none" stroke="black" points="1334,-465 1334,-495 1478,-495 1478,-465 1334,-465"/>
<text text-anchor="start" x="1342" y="-483" font-family="Helvetica,sans-Serif" font-size="10.00">DataFormatsITSMFT/Cluster</text>
<text text-anchor="middle" x="1406" y="-472" font-family="Helvetica,sans-Serif" font-size="10.00">Topology.h</text>
</a>
</g>
</g>
<!-- Node1&#45;&gt;Node44 -->
<g id="edge49" class="edge"><title>Node1&#45;&gt;Node44</title>
<path fill="none" stroke="midnightblue" d="M1229.8,-620.765C1307.39,-613.545 1421.91,-597.425 1449,-564 1464.29,-545.136 1447.02,-519.97 1430.02,-502.312"/>
<polygon fill="midnightblue" stroke="midnightblue" points="1432.43,-499.771 1422.85,-495.244 1427.52,-504.757 1432.43,-499.771"/>
</g>
<!-- Node46 -->
<g id="node46" class="node"><title>Node46</title>
<g id="a_node46"><a xlink:href="../../d9/d1d/BuildTopologyDictionary_8h.html" target="_top" xlink:title="Definition of the BuildTopologyDictionary class. ">
<polygon fill="none" stroke="black" points="1306,-533 1306,-563 1440,-563 1440,-533 1306,-533"/>
<text text-anchor="start" x="1314" y="-551" font-family="Helvetica,sans-Serif" font-size="10.00">ITSMFTReconstruction</text>
<text text-anchor="middle" x="1373" y="-540" font-family="Helvetica,sans-Serif" font-size="10.00">/BuildTopologyDictionary.h</text>
</a>
</g>
</g>
<!-- Node1&#45;&gt;Node46 -->
<g id="edge55" class="edge"><title>Node1&#45;&gt;Node46</title>
<path fill="none" stroke="midnightblue" d="M1226.75,-600.894C1258.4,-589.666 1294.93,-576.702 1323.57,-566.54"/>
<polygon fill="midnightblue" stroke="midnightblue" points="1325.09,-569.713 1333.35,-563.07 1322.75,-563.116 1325.09,-569.713"/>
</g>
<!-- Node52 -->
<g id="node52" class="node"><title>Node52</title>
<g id="a_node52"><a xlink:href="../../df/ddf/LookUp_8h.html" target="_top" xlink:title="Definition of the LookUp class. ">
<polygon fill="none" stroke="black" points="1542.5,-533 1542.5,-563 1661.5,-563 1661.5,-533 1542.5,-533"/>
<text text-anchor="start" x="1550.5" y="-551" font-family="Helvetica,sans-Serif" font-size="10.00">ITSMFTReconstruction</text>
<text text-anchor="middle" x="1602" y="-540" font-family="Helvetica,sans-Serif" font-size="10.00">/LookUp.h</text>
</a>
</g>
</g>
<!-- Node1&#45;&gt;Node52 -->
<g id="edge68" class="edge"><title>Node1&#45;&gt;Node52</title>
<path fill="none" stroke="midnightblue" d="M1229.6,-613.735C1303.16,-601.413 1419.47,-581.756 1520,-564 1524.09,-563.278 1528.29,-562.529 1532.53,-561.769"/>
<polygon fill="midnightblue" stroke="midnightblue" points="1533.23,-565.2 1542.45,-559.982 1531.99,-558.31 1533.23,-565.2"/>
</g>
<!-- Node15 -->
<g id="node15" class="node"><title>Node15</title>
<g id="a_node15"><a xlink:href="../../d4/de2/BaseCluster_8h.html" target="_top" xlink:title="ReconstructionDataFormats\l/BaseCluster.h">
<polygon fill="none" stroke="black" points="1003,-273 1003,-303 1143,-303 1143,-273 1003,-273"/>
<text text-anchor="start" x="1011" y="-291" font-family="Helvetica,sans-Serif" font-size="10.00">ReconstructionDataFormats</text>
<text text-anchor="middle" x="1073" y="-280" font-family="Helvetica,sans-Serif" font-size="10.00">/BaseCluster.h</text>
</a>
</g>
</g>
<!-- Node14&#45;&gt;Node15 -->
<g id="edge14" class="edge"><title>Node14&#45;&gt;Node15</title>
<path fill="none" stroke="midnightblue" d="M1461.58,-340.467C1380.43,-329.719 1241,-311.252 1153.08,-299.607"/>
<polygon fill="midnightblue" stroke="midnightblue" points="1153.53,-296.136 1143.16,-298.292 1152.61,-303.075 1153.53,-296.136"/>
</g>
<!-- Node16 -->
<g id="node16" class="node"><title>Node16</title>
<polygon fill="none" stroke="#bfbfbf" points="941.5,-210.5 941.5,-229.5 1000.5,-229.5 1000.5,-210.5 941.5,-210.5"/>
<text text-anchor="middle" x="971" y="-217.5" font-family="Helvetica,sans-Serif" font-size="10.00">TObject.h</text>
</g>
<!-- Node15&#45;&gt;Node16 -->
<g id="edge15" class="edge"><title>Node15&#45;&gt;Node16</title>
<path fill="none" stroke="midnightblue" d="M1051.12,-272.841C1034.03,-261.784 1010.38,-246.481 993.208,-235.37"/>
<polygon fill="midnightblue" stroke="midnightblue" points="994.715,-232.176 984.417,-229.682 990.912,-238.053 994.715,-232.176"/>
</g>
<!-- Node17 -->
<g id="node17" class="node"><title>Node17</title>
<polygon fill="none" stroke="#bfbfbf" points="1297.5,-74.5 1297.5,-93.5 1338.5,-93.5 1338.5,-74.5 1297.5,-74.5"/>
<text text-anchor="middle" x="1318" y="-81.5" font-family="Helvetica,sans-Serif" font-size="10.00">bitset</text>
</g>
<!-- Node15&#45;&gt;Node17 -->
<g id="edge16" class="edge"><title>Node15&#45;&gt;Node17</title>
<path fill="none" stroke="midnightblue" d="M1090.81,-272.926C1101.86,-263.451 1115.66,-250.141 1125,-236 1151.28,-196.188 1128.83,-168.231 1164,-136 1205.99,-97.5154 1233.85,-120.475 1287,-100 1288.65,-99.3646 1290.33,-98.676 1292.02,-97.9548"/>
<polygon fill="midnightblue" stroke="midnightblue" points="1293.86,-100.961 1301.49,-93.6137 1290.94,-94.5965 1293.86,-100.961"/>
</g>
<!-- Node18 -->
<g id="node18" class="node"><title>Node18</title>
<polygon fill="none" stroke="#bfbfbf" points="1019,-210.5 1019,-229.5 1069,-229.5 1069,-210.5 1019,-210.5"/>
<text text-anchor="middle" x="1044" y="-217.5" font-family="Helvetica,sans-Serif" font-size="10.00">iomanip</text>
</g>
<!-- Node15&#45;&gt;Node18 -->
<g id="edge17" class="edge"><title>Node15&#45;&gt;Node18</title>
<path fill="none" stroke="midnightblue" d="M1066.71,-272.679C1062.36,-262.796 1056.56,-249.579 1051.9,-238.986"/>
<polygon fill="midnightblue" stroke="midnightblue" points="1055.11,-237.576 1047.88,-229.828 1048.7,-240.391 1055.11,-237.576"/>
</g>
<!-- Node19 -->
<g id="node19" class="node"><title>Node19</title>
<polygon fill="none" stroke="#bfbfbf" points="1087.5,-210.5 1087.5,-229.5 1116.5,-229.5 1116.5,-210.5 1087.5,-210.5"/>
<text text-anchor="middle" x="1102" y="-217.5" font-family="Helvetica,sans-Serif" font-size="10.00">ios</text>
</g>
<!-- Node15&#45;&gt;Node19 -->
<g id="edge18" class="edge"><title>Node15&#45;&gt;Node19</title>
<path fill="none" stroke="midnightblue" d="M1079.29,-272.679C1083.64,-262.796 1089.44,-249.579 1094.1,-238.986"/>
<polygon fill="midnightblue" stroke="midnightblue" points="1097.3,-240.391 1098.12,-229.828 1090.89,-237.576 1097.3,-240.391"/>
</g>
<!-- Node20 -->
<g id="node20" class="node"><title>Node20</title>
<polygon fill="none" stroke="#bfbfbf" points="40.5,-74.5 40.5,-93.5 85.5,-93.5 85.5,-74.5 40.5,-74.5"/>
<text text-anchor="middle" x="63" y="-81.5" font-family="Helvetica,sans-Serif" font-size="10.00">iosfwd</text>
</g>
<!-- Node15&#45;&gt;Node20 -->
<g id="edge19" class="edge"><title>Node15&#45;&gt;Node20</title>
<path fill="none" stroke="midnightblue" d="M1003.13,-272.97C962.589,-264.043 910.839,-251.293 866,-236 795.185,-211.848 776.639,-205.681 712,-168 691.419,-156.002 691.369,-144.194 669,-136 428.569,-47.9228 341.673,-164.984 94,-100 91.6578,-99.3855 89.2809,-98.59 86.9387,-97.6861"/>
<polygon fill="midnightblue" stroke="midnightblue" points="88.2429,-94.4353 77.6854,-93.5469 85.3846,-100.825 88.2429,-94.4353"/>
</g>
<!-- Node21 -->
<g id="node21" class="node"><title>Node21</title>
<g id="a_node21"><a xlink:href="../../d4/d20/DetMatrixCache_8h.html" target="_top" xlink:title="DetectorsCommonDataFormats\l/DetMatrixCache.h">
<polygon fill="none" stroke="black" points="1312,-205 1312,-235 1468,-235 1468,-205 1312,-205"/>
<text text-anchor="start" x="1320" y="-223" font-family="Helvetica,sans-Serif" font-size="10.00">DetectorsCommonDataFormats</text>
<text text-anchor="middle" x="1390" y="-212" font-family="Helvetica,sans-Serif" font-size="10.00">/DetMatrixCache.h</text>
</a>
</g>
</g>
<!-- Node15&#45;&gt;Node21 -->
<g id="edge20" class="edge"><title>Node15&#45;&gt;Node21</title>
<path fill="none" stroke="midnightblue" d="M1140.62,-272.922C1191.01,-262.43 1259.92,-248.084 1312.53,-237.13"/>
<polygon fill="midnightblue" stroke="midnightblue" points="1313.41,-240.521 1322.49,-235.056 1311.98,-233.668 1313.41,-240.521"/>
</g>
<!-- Node34 -->
<g id="node34" class="node"><title>Node34</title>
<g id="a_node34"><a xlink:href="../../dd/d76/Cartesian3D_8h.html" target="_top" xlink:title="MathUtils/Cartesian3D.h">
<polygon fill="none" stroke="black" points="721.5,-142.5 721.5,-161.5 846.5,-161.5 846.5,-142.5 721.5,-142.5"/>
<text text-anchor="middle" x="784" y="-149.5" font-family="Helvetica,sans-Serif" font-size="10.00">MathUtils/Cartesian3D.h</text>
</a>
</g>
</g>
<!-- Node15&#45;&gt;Node34 -->
<g id="edge48" class="edge"><title>Node15&#45;&gt;Node34</title>
<path fill="none" stroke="midnightblue" d="M1028.77,-272.9C1000.86,-263.511 964.29,-250.304 933,-236 886.546,-214.763 835.043,-184.46 806.388,-166.952"/>
<polygon fill="midnightblue" stroke="midnightblue" points="807.938,-163.796 797.586,-161.537 804.269,-169.758 807.938,-163.796"/>
</g>
<!-- Node22 -->
<g id="node22" class="node"><title>Node22</title>
<polygon fill="none" stroke="#bfbfbf" points="1319,-142.5 1319,-161.5 1461,-161.5 1461,-142.5 1319,-142.5"/>
<text text-anchor="middle" x="1390" y="-149.5" font-family="Helvetica,sans-Serif" font-size="10.00">AliTPCCommonFairLogger.h</text>
</g>
<!-- Node21&#45;&gt;Node22 -->
<g id="edge21" class="edge"><title>Node21&#45;&gt;Node22</title>
<path fill="none" stroke="midnightblue" d="M1390,-204.679C1390,-195.101 1390,-182.394 1390,-171.977"/>
<polygon fill="midnightblue" stroke="midnightblue" points="1393.5,-171.828 1390,-161.828 1386.5,-171.828 1393.5,-171.828"/>
</g>
<!-- Node23 -->
<g id="node23" class="node"><title>Node23</title>
<polygon fill="none" stroke="#bfbfbf" points="1173,-142.5 1173,-161.5 1301,-161.5 1301,-142.5 1173,-142.5"/>
<text text-anchor="middle" x="1237" y="-149.5" font-family="Helvetica,sans-Serif" font-size="10.00">AliTPCCommonRtypes.h</text>
</g>
<!-- Node21&#45;&gt;Node23 -->
<g id="edge22" class="edge"><title>Node21&#45;&gt;Node23</title>
<path fill="none" stroke="midnightblue" d="M1357.18,-204.841C1330.24,-193.221 1292.43,-176.912 1266.46,-165.706"/>
<polygon fill="midnightblue" stroke="midnightblue" points="1267.69,-162.429 1257.13,-161.682 1264.92,-168.857 1267.69,-162.429"/>
</g>
<!-- Node24 -->
<g id="node24" class="node"><title>Node24</title>
<polygon fill="none" stroke="#bfbfbf" points="1706,-6.5 1706,-25.5 1744,-25.5 1744,-6.5 1706,-6.5"/>
<text text-anchor="middle" x="1725" y="-13.5" font-family="Helvetica,sans-Serif" font-size="10.00">array</text>
</g>
<!-- Node21&#45;&gt;Node24 -->
<g id="edge23" class="edge"><title>Node21&#45;&gt;Node24</title>
<path fill="none" stroke="midnightblue" d="M1468.11,-217.634C1521.29,-213.435 1591.31,-201.233 1644,-168 1691.93,-137.771 1713.37,-68.9358 1721.22,-35.6755"/>
<polygon fill="midnightblue" stroke="midnightblue" points="1724.64,-36.3852 1723.37,-25.8669 1717.81,-34.8823 1724.64,-36.3852"/>
</g>
<!-- Node25 -->
<g id="node25" class="node"><title>Node25</title>
<polygon fill="none" stroke="#bfbfbf" points="1691,-142.5 1691,-161.5 1735,-161.5 1735,-142.5 1691,-142.5"/>
<text text-anchor="middle" x="1713" y="-149.5" font-family="Helvetica,sans-Serif" font-size="10.00">vector</text>
</g>
<!-- Node21&#45;&gt;Node25 -->
<g id="edge24" class="edge"><title>Node21&#45;&gt;Node25</title>
<path fill="none" stroke="midnightblue" d="M1468.11,-209.826C1526.43,-201.849 1607.68,-188.334 1677,-168 1679.65,-167.223 1682.37,-166.313 1685.07,-165.331"/>
<polygon fill="midnightblue" stroke="midnightblue" points="1686.57,-168.5 1694.6,-161.578 1684.01,-161.987 1686.57,-168.5"/>
</g>
<!-- Node26 -->
<g id="node26" class="node"><title>Node26</title>
<g id="a_node26"><a xlink:href="../../d6/d31/DetID_8h.html" target="_top" xlink:title="DetectorsCommonDataFormats\l/DetID.h">
<polygon fill="none" stroke="black" points="1479,-137 1479,-167 1635,-167 1635,-137 1479,-137"/>
<text text-anchor="start" x="1487" y="-155" font-family="Helvetica,sans-Serif" font-size="10.00">DetectorsCommonDataFormats</text>
<text text-anchor="middle" x="1557" y="-144" font-family="Helvetica,sans-Serif" font-size="10.00">/DetID.h</text>
</a>
</g>
</g>
<!-- Node21&#45;&gt;Node26 -->
<g id="edge25" class="edge"><title>Node21&#45;&gt;Node26</title>
<path fill="none" stroke="midnightblue" d="M1425.83,-204.841C1451.01,-194.89 1484.89,-181.5 1511.91,-170.822"/>
<polygon fill="midnightblue" stroke="midnightblue" points="1513.51,-173.952 1521.52,-167.022 1510.93,-167.442 1513.51,-173.952"/>
</g>
<!-- Node21&#45;&gt;Node34 -->
<g id="edge36" class="edge"><title>Node21&#45;&gt;Node34</title>
<path fill="none" stroke="midnightblue" d="M1311.71,-210.473C1193.68,-197.619 971.818,-173.455 856.994,-160.95"/>
<polygon fill="midnightblue" stroke="midnightblue" points="857.216,-157.453 846.896,-159.85 856.458,-164.412 857.216,-157.453"/>
</g>
<!-- Node26&#45;&gt;Node17 -->
<g id="edge28" class="edge"><title>Node26&#45;&gt;Node17</title>
<path fill="none" stroke="midnightblue" d="M1481.8,-136.919C1441.47,-128.309 1391.31,-115.881 1348,-100 1346.35,-99.3935 1344.66,-98.7209 1342.98,-98.0063"/>
<polygon fill="midnightblue" stroke="midnightblue" points="1344.13,-94.6781 1333.59,-93.6217 1341.17,-101.022 1344.13,-94.6781"/>
</g>
<!-- Node26&#45;&gt;Node24 -->
<g id="edge27" class="edge"><title>Node26&#45;&gt;Node24</title>
<path fill="none" stroke="midnightblue" d="M1601.21,-136.991C1622.93,-128.623 1648.53,-116.392 1668,-100 1689.66,-81.7599 1706.73,-53.3674 1716.35,-34.976"/>
<polygon fill="midnightblue" stroke="midnightblue" points="1719.54,-36.4217 1720.91,-25.9154 1713.29,-33.2763 1719.54,-36.4217"/>
</g>
<!-- Node27 -->
<g id="node27" class="node"><title>Node27</title>
<polygon fill="none" stroke="#bfbfbf" points="1223,-74.5 1223,-93.5 1279,-93.5 1279,-74.5 1223,-74.5"/>
<text text-anchor="middle" x="1251" y="-81.5" font-family="Helvetica,sans-Serif" font-size="10.00">Rtypes.h</text>
</g>
<!-- Node26&#45;&gt;Node27 -->
<g id="edge26" class="edge"><title>Node26&#45;&gt;Node27</title>
<path fill="none" stroke="midnightblue" d="M1479.2,-136.963C1406.71,-123.76 1307.14,-105.256 1289,-100 1286.03,-99.1396 1282.97,-98.1372 1279.94,-97.0662"/>
<polygon fill="midnightblue" stroke="midnightblue" points="1281.07,-93.7534 1270.48,-93.501 1278.6,-100.303 1281.07,-93.7534"/>
</g>
<!-- Node28 -->
<g id="node28" class="node"><title>Node28</title>
<polygon fill="none" stroke="#bfbfbf" points="1545.5,-74.5 1545.5,-93.5 1594.5,-93.5 1594.5,-74.5 1545.5,-74.5"/>
<text text-anchor="middle" x="1570" y="-81.5" font-family="Helvetica,sans-Serif" font-size="10.00">cassert</text>
</g>
<!-- Node26&#45;&gt;Node28 -->
<g id="edge29" class="edge"><title>Node26&#45;&gt;Node28</title>
<path fill="none" stroke="midnightblue" d="M1559.82,-136.679C1561.73,-126.999 1564.26,-114.123 1566.33,-103.645"/>
<polygon fill="midnightblue" stroke="midnightblue" points="1569.76,-104.316 1568.26,-93.8283 1562.89,-102.963 1569.76,-104.316"/>
</g>
<!-- Node29 -->
<g id="node29" class="node"><title>Node29</title>
<polygon fill="none" stroke="#bfbfbf" points="1613,-74.5 1613,-93.5 1659,-93.5 1659,-74.5 1613,-74.5"/>
<text text-anchor="middle" x="1636" y="-81.5" font-family="Helvetica,sans-Serif" font-size="10.00">cstdint</text>
</g>
<!-- Node26&#45;&gt;Node29 -->
<g id="edge30" class="edge"><title>Node26&#45;&gt;Node29</title>
<path fill="none" stroke="midnightblue" d="M1574.14,-136.679C1586.95,-125.981 1604.43,-111.377 1617.54,-100.422"/>
<polygon fill="midnightblue" stroke="midnightblue" points="1620,-102.926 1625.43,-93.8283 1615.51,-97.5537 1620,-102.926"/>
</g>
<!-- Node30 -->
<g id="node30" class="node"><title>Node30</title>
<polygon fill="none" stroke="#bfbfbf" points="1465,-74.5 1465,-93.5 1527,-93.5 1527,-74.5 1465,-74.5"/>
<text text-anchor="middle" x="1496" y="-81.5" font-family="Helvetica,sans-Serif" font-size="10.00">type_traits</text>
</g>
<!-- Node26&#45;&gt;Node30 -->
<g id="edge31" class="edge"><title>Node26&#45;&gt;Node30</title>
<path fill="none" stroke="midnightblue" d="M1543.76,-136.679C1534.16,-126.286 1521.15,-112.208 1511.13,-101.37"/>
<polygon fill="midnightblue" stroke="midnightblue" points="1513.52,-98.7965 1504.16,-93.8283 1508.38,-103.548 1513.52,-98.7965"/>
</g>
<!-- Node31 -->
<g id="node31" class="node"><title>Node31</title>
<g id="a_node31"><a xlink:href="../../d9/d52/Common_2MathUtils_2include_2MathUtils_2Utils_8h.html" target="_top" xlink:title="MathUtils/Utils.h">
<polygon fill="none" stroke="black" points="1357,-74.5 1357,-93.5 1447,-93.5 1447,-74.5 1357,-74.5"/>
<text text-anchor="middle" x="1402" y="-81.5" font-family="Helvetica,sans-Serif" font-size="10.00">MathUtils/Utils.h</text>
</a>
</g>
</g>
<!-- Node26&#45;&gt;Node31 -->
<g id="edge32" class="edge"><title>Node26&#45;&gt;Node31</title>
<path fill="none" stroke="midnightblue" d="M1523.75,-136.841C1496.46,-125.221 1458.16,-108.912 1431.84,-97.7063"/>
<polygon fill="midnightblue" stroke="midnightblue" points="1432.96,-94.3794 1422.39,-93.6819 1430.22,-100.82 1432.96,-94.3794"/>
</g>
<!-- Node31&#45;&gt;Node24 -->
<g id="edge33" class="edge"><title>Node31&#45;&gt;Node24</title>
<path fill="none" stroke="midnightblue" d="M1431.03,-74.4557C1439.08,-72.2173 1447.85,-69.9008 1456,-68 1542.68,-47.7806 1646.49,-29.853 1695.98,-21.6832"/>
<polygon fill="midnightblue" stroke="midnightblue" points="1696.67,-25.1172 1705.97,-20.0454 1695.54,-18.2095 1696.67,-25.1172"/>
</g>
<!-- Node32 -->
<g id="node32" class="node"><title>Node32</title>
<polygon fill="none" stroke="#bfbfbf" points="1445,-6.5 1445,-25.5 1489,-25.5 1489,-6.5 1445,-6.5"/>
<text text-anchor="middle" x="1467" y="-13.5" font-family="Helvetica,sans-Serif" font-size="10.00">cmath</text>
</g>
<!-- Node31&#45;&gt;Node32 -->
<g id="edge34" class="edge"><title>Node31&#45;&gt;Node32</title>
<path fill="none" stroke="midnightblue" d="M1410.5,-74.3717C1420.76,-63.9547 1438.23,-46.2173 1451.03,-33.2162"/>
<polygon fill="midnightblue" stroke="midnightblue" points="1453.77,-35.4219 1458.29,-25.8411 1448.78,-30.5101 1453.77,-35.4219"/>
</g>
<!-- Node33 -->
<g id="node33" class="node"><title>Node33</title>
<g id="a_node33"><a xlink:href="../../d6/d84/MathConstants_8h.html" target="_top" xlink:title="useful math constants ">
<polygon fill="none" stroke="black" points="1247.5,-6.5 1247.5,-25.5 1426.5,-25.5 1426.5,-6.5 1247.5,-6.5"/>
<text text-anchor="middle" x="1337" y="-13.5" font-family="Helvetica,sans-Serif" font-size="10.00">CommonConstants/MathConstants.h</text>
</a>
</g>
</g>
<!-- Node31&#45;&gt;Node33 -->
<g id="edge35" class="edge"><title>Node31&#45;&gt;Node33</title>
<path fill="none" stroke="midnightblue" d="M1393.5,-74.3717C1383.24,-63.9547 1365.77,-46.2173 1352.97,-33.2162"/>
<polygon fill="midnightblue" stroke="midnightblue" points="1355.22,-30.5101 1345.71,-25.8411 1350.23,-35.4219 1355.22,-30.5101"/>
</g>
<!-- Node34&#45;&gt;Node20 -->
<g id="edge44" class="edge"><title>Node34&#45;&gt;Node20</title>
<path fill="none" stroke="midnightblue" d="M745.386,-142.429C733.164,-139.999 719.566,-137.586 707,-136 436.234,-101.832 358.112,-168.752 94,-100 91.6566,-99.39 89.2789,-98.5976 86.9362,-97.6957"/>
<polygon fill="midnightblue" stroke="midnightblue" points="88.2399,-94.4448 77.6821,-93.5595 85.3834,-100.835 88.2399,-94.4448"/>
</g>
<!-- Node34&#45;&gt;Node27 -->
<g id="edge42" class="edge"><title>Node34&#45;&gt;Node27</title>
<path fill="none" stroke="midnightblue" d="M824.243,-142.445C836.05,-140.13 849.01,-137.776 861,-136 1017,-112.899 1060.95,-138.006 1214,-100 1217.06,-99.2394 1220.21,-98.2749 1223.31,-97.203"/>
<polygon fill="midnightblue" stroke="midnightblue" points="1224.81,-100.375 1232.9,-93.5316 1222.31,-93.8372 1224.81,-100.375"/>
</g>
<!-- Node35 -->
<g id="node35" class="node"><title>Node35</title>
<polygon fill="none" stroke="#bfbfbf" points="693.5,-69 693.5,-99 844.5,-99 844.5,-69 693.5,-69"/>
<text text-anchor="start" x="701.5" y="-87" font-family="Helvetica,sans-Serif" font-size="10.00">Math/GenVector/Displacement</text>
<text text-anchor="middle" x="769" y="-76" font-family="Helvetica,sans-Serif" font-size="10.00">Vector3D.h</text>
</g>
<!-- Node34&#45;&gt;Node35 -->
<g id="edge37" class="edge"><title>Node34&#45;&gt;Node35</title>
<path fill="none" stroke="midnightblue" d="M782.039,-142.372C780.13,-133.971 777.139,-120.811 774.503,-109.213"/>
<polygon fill="midnightblue" stroke="midnightblue" points="777.852,-108.157 772.223,-99.1815 771.026,-109.708 777.852,-108.157"/>
</g>
<!-- Node36 -->
<g id="node36" class="node"><title>Node36</title>
<polygon fill="none" stroke="#bfbfbf" points="863,-74.5 863,-93.5 1039,-93.5 1039,-74.5 863,-74.5"/>
<text text-anchor="middle" x="951" y="-81.5" font-family="Helvetica,sans-Serif" font-size="10.00">Math/GenVector/PositionVector3D.h</text>
</g>
<!-- Node34&#45;&gt;Node36 -->
<g id="edge38" class="edge"><title>Node34&#45;&gt;Node36</title>
<path fill="none" stroke="midnightblue" d="M805.832,-142.372C834.917,-130.877 886.556,-110.469 919.76,-97.3465"/>
<polygon fill="midnightblue" stroke="midnightblue" points="921.413,-100.456 929.427,-93.5259 918.84,-93.9464 921.413,-100.456"/>
</g>
<!-- Node37 -->
<g id="node37" class="node"><title>Node37</title>
<polygon fill="none" stroke="#bfbfbf" points="1056.5,-74.5 1056.5,-93.5 1205.5,-93.5 1205.5,-74.5 1056.5,-74.5"/>
<text text-anchor="middle" x="1131" y="-81.5" font-family="Helvetica,sans-Serif" font-size="10.00">Math/GenVector/Rotation3D.h</text>
</g>
<!-- Node34&#45;&gt;Node37 -->
<g id="edge39" class="edge"><title>Node34&#45;&gt;Node37</title>
<path fill="none" stroke="midnightblue" d="M827.564,-142.469C838.479,-140.343 850.166,-138.078 861,-136 934.942,-121.815 1020.34,-105.736 1074.96,-95.4896"/>
<polygon fill="midnightblue" stroke="midnightblue" points="1075.94,-98.8664 1085.12,-93.5833 1074.65,-91.9863 1075.94,-98.8664"/>
</g>
<!-- Node38 -->
<g id="node38" class="node"><title>Node38</title>
<polygon fill="none" stroke="#bfbfbf" points="247,-74.5 247,-93.5 403,-93.5 403,-74.5 247,-74.5"/>
<text text-anchor="middle" x="325" y="-81.5" font-family="Helvetica,sans-Serif" font-size="10.00">Math/GenVector/Transform3D.h</text>
</g>
<!-- Node34&#45;&gt;Node38 -->
<g id="edge40" class="edge"><title>Node34&#45;&gt;Node38</title>
<path fill="none" stroke="midnightblue" d="M742.936,-142.441C731.345,-140.177 718.703,-137.852 707,-136 576.539,-115.359 542.677,-119.227 412,-100 402.219,-98.561 391.844,-96.8948 381.796,-95.2074"/>
<polygon fill="midnightblue" stroke="midnightblue" points="382.335,-91.749 371.89,-93.5206 381.16,-98.6497 382.335,-91.749"/>
</g>
<!-- Node39 -->
<g id="node39" class="node"><title>Node39</title>
<polygon fill="none" stroke="#bfbfbf" points="421,-74.5 421,-93.5 581,-93.5 581,-74.5 421,-74.5"/>
<text text-anchor="middle" x="501" y="-81.5" font-family="Helvetica,sans-Serif" font-size="10.00">Math/GenVector/Translation3D.h</text>
</g>
<!-- Node34&#45;&gt;Node39 -->
<g id="edge41" class="edge"><title>Node34&#45;&gt;Node39</title>
<path fill="none" stroke="midnightblue" d="M747.293,-142.439C696.185,-130.52 603.582,-108.924 547.642,-95.8777"/>
<polygon fill="midnightblue" stroke="midnightblue" points="548.176,-92.4083 537.642,-93.5455 546.586,-99.2253 548.176,-92.4083"/>
</g>
<!-- Node40 -->
<g id="node40" class="node"><title>Node40</title>
<polygon fill="none" stroke="#bfbfbf" points="599,-74.5 599,-93.5 675,-93.5 675,-74.5 599,-74.5"/>
<text text-anchor="middle" x="637" y="-81.5" font-family="Helvetica,sans-Serif" font-size="10.00">TGeoMatrix.h</text>
</g>
<!-- Node34&#45;&gt;Node40 -->
<g id="edge43" class="edge"><title>Node34&#45;&gt;Node40</title>
<path fill="none" stroke="midnightblue" d="M764.782,-142.372C739.471,-131.007 694.755,-110.931 665.5,-97.7961"/>
<polygon fill="midnightblue" stroke="midnightblue" points="666.779,-94.5335 656.222,-93.6305 663.912,-100.919 666.779,-94.5335"/>
</g>
<!-- Node41 -->
<g id="node41" class="node"><title>Node41</title>
<g id="a_node41"><a xlink:href="../../d2/dd0/Cartesian2D_8h.html" target="_top" xlink:title="MathUtils/Cartesian2D.h">
<polygon fill="none" stroke="black" points="103.5,-74.5 103.5,-93.5 228.5,-93.5 228.5,-74.5 103.5,-74.5"/>
<text text-anchor="middle" x="166" y="-81.5" font-family="Helvetica,sans-Serif" font-size="10.00">MathUtils/Cartesian2D.h</text>
</a>
</g>
</g>
<!-- Node34&#45;&gt;Node41 -->
<g id="edge45" class="edge"><title>Node34&#45;&gt;Node41</title>
<path fill="none" stroke="midnightblue" d="M744.973,-142.488C732.853,-140.09 719.417,-137.68 707,-136 499.831,-107.966 444.983,-129.38 238,-100 229.641,-98.8134 220.796,-97.2391 212.274,-95.5564"/>
<polygon fill="midnightblue" stroke="midnightblue" points="212.967,-92.1256 202.468,-93.5481 211.562,-98.9833 212.967,-92.1256"/>
</g>
<!-- Node42 -->
<g id="node42" class="node"><title>Node42</title>
<polygon fill="none" stroke="#bfbfbf" points="-0.5,-1 -0.5,-31 150.5,-31 150.5,-1 -0.5,-1"/>
<text text-anchor="start" x="7.5" y="-19" font-family="Helvetica,sans-Serif" font-size="10.00">Math/GenVector/Displacement</text>
<text text-anchor="middle" x="75" y="-8" font-family="Helvetica,sans-Serif" font-size="10.00">Vector2D.h</text>
</g>
<!-- Node41&#45;&gt;Node42 -->
<g id="edge46" class="edge"><title>Node41&#45;&gt;Node42</title>
<path fill="none" stroke="midnightblue" d="M154.103,-74.3717C141.221,-65.0286 120.22,-49.7966 103.093,-37.375"/>
<polygon fill="midnightblue" stroke="midnightblue" points="104.703,-34.2194 94.5532,-31.1815 100.593,-39.8859 104.703,-34.2194"/>
</g>
<!-- Node43 -->
<g id="node43" class="node"><title>Node43</title>
<polygon fill="none" stroke="#bfbfbf" points="169,-6.5 169,-25.5 345,-25.5 345,-6.5 169,-6.5"/>
<text text-anchor="middle" x="257" y="-13.5" font-family="Helvetica,sans-Serif" font-size="10.00">Math/GenVector/PositionVector2D.h</text>
</g>
<!-- Node41&#45;&gt;Node43 -->
<g id="edge47" class="edge"><title>Node41&#45;&gt;Node43</title>
<path fill="none" stroke="midnightblue" d="M177.897,-74.3717C192.884,-63.5015 218.862,-44.6602 236.942,-31.5474"/>
<polygon fill="midnightblue" stroke="midnightblue" points="239.06,-34.3349 245.1,-25.6305 234.95,-28.6684 239.06,-34.3349"/>
</g>
<!-- Node45 -->
<g id="node45" class="node"><title>Node45</title>
<g id="a_node45"><a xlink:href="../../de/dc1/ClusterPattern_8h.html" target="_top" xlink:title="DataFormatsITSMFT/Cluster\lPattern.h">
<polygon fill="none" stroke="black" points="1334,-397 1334,-427 1478,-427 1478,-397 1334,-397"/>
<text text-anchor="start" x="1342" y="-415" font-family="Helvetica,sans-Serif" font-size="10.00">DataFormatsITSMFT/Cluster</text>
<text text-anchor="middle" x="1406" y="-404" font-family="Helvetica,sans-Serif" font-size="10.00">Pattern.h</text>
</a>
</g>
</g>
<!-- Node44&#45;&gt;Node45 -->
<g id="edge50" class="edge"><title>Node44&#45;&gt;Node45</title>
<path fill="none" stroke="midnightblue" d="M1406,-464.679C1406,-456.722 1406,-446.605 1406,-437.436"/>
<polygon fill="midnightblue" stroke="midnightblue" points="1409.5,-437.293 1406,-427.293 1402.5,-437.293 1409.5,-437.293"/>
</g>
<!-- Node45&#45;&gt;Node14 -->
<g id="edge54" class="edge"><title>Node45&#45;&gt;Node14</title>
<path fill="none" stroke="midnightblue" d="M1434.13,-396.933C1453.93,-387.036 1480.24,-373.88 1499.63,-364.185"/>
<polygon fill="midnightblue" stroke="midnightblue" points="1501.42,-367.203 1508.8,-359.6 1498.29,-360.942 1501.42,-367.203"/>
</g>
<!-- Node45&#45;&gt;Node20 -->
<g id="edge53" class="edge"><title>Node45&#45;&gt;Node20</title>
<path fill="none" stroke="midnightblue" d="M1333.99,-406.815C1146.02,-394.934 655,-357.357 655,-289 655,-289 655,-289 655,-219 655,-91.5595 214.571,-141.277 94,-100 92.0909,-99.3464 90.1464,-98.6045 88.209,-97.8088"/>
<polygon fill="midnightblue" stroke="midnightblue" points="89.3316,-94.4752 78.7778,-93.5432 86.4469,-100.853 89.3316,-94.4752"/>
</g>
<!-- Node45&#45;&gt;Node24 -->
<g id="edge52" class="edge"><title>Node45&#45;&gt;Node24</title>
<path fill="none" stroke="midnightblue" d="M1410.23,-396.721C1415.41,-381.229 1425.45,-356.506 1441,-340 1546.91,-227.565 1665.37,-301.543 1743,-168 1767.8,-125.327 1746.78,-64.4481 1733.63,-34.714"/>
<polygon fill="midnightblue" stroke="midnightblue" points="1736.78,-33.1789 1729.4,-25.5764 1730.43,-36.1213 1736.78,-33.1789"/>
</g>
<!-- Node45&#45;&gt;Node27 -->
<g id="edge51" class="edge"><title>Node45&#45;&gt;Node27</title>
<path fill="none" stroke="midnightblue" d="M1333.7,-404.961C1247.35,-395.001 1101.15,-369.232 994,-304 959.321,-282.888 947.515,-273.917 933,-236 911.302,-179.317 970.343,-160.208 1026,-136 1104.01,-102.067 1132.41,-124.097 1214,-100 1216.8,-99.1717 1219.69,-98.2091 1222.55,-97.1789"/>
<polygon fill="midnightblue" stroke="midnightblue" points="1223.98,-100.379 1232.05,-93.5128 1221.46,-93.8484 1223.98,-100.379"/>
</g>
<!-- Node46&#45;&gt;Node6 -->
<g id="edge67" class="edge"><title>Node46&#45;&gt;Node6</title>
<path fill="none" stroke="midnightblue" d="M1305.87,-533.705C1302.87,-533.126 1299.91,-532.555 1297,-532 1210.58,-515.488 1108.77,-496.897 1056.26,-487.375"/>
<polygon fill="midnightblue" stroke="midnightblue" points="1056.6,-483.878 1046.14,-485.539 1055.35,-490.766 1056.6,-483.878"/>
</g>
<!-- Node46&#45;&gt;Node44 -->
<g id="edge60" class="edge"><title>Node46&#45;&gt;Node44</title>
<path fill="none" stroke="midnightblue" d="M1380.16,-532.679C1384.31,-524.376 1389.64,-513.721 1394.38,-504.245"/>
<polygon fill="midnightblue" stroke="midnightblue" points="1397.51,-505.803 1398.85,-495.293 1391.25,-502.672 1397.51,-505.803"/>
</g>
<!-- Node47 -->
<g id="node47" class="node"><title>Node47</title>
<polygon fill="none" stroke="#bfbfbf" points="1168,-470.5 1168,-489.5 1224,-489.5 1224,-470.5 1168,-470.5"/>
<text text-anchor="middle" x="1196" y="-477.5" font-family="Helvetica,sans-Serif" font-size="10.00">algorithm</text>
</g>
<!-- Node46&#45;&gt;Node47 -->
<g id="edge56" class="edge"><title>Node46&#45;&gt;Node47</title>
<path fill="none" stroke="midnightblue" d="M1333.96,-532.963C1306.05,-522.858 1267.63,-508.805 1234,-496 1231.62,-495.095 1229.16,-494.148 1226.7,-493.191"/>
<polygon fill="midnightblue" stroke="midnightblue" points="1227.86,-489.886 1217.27,-489.501 1225.3,-496.405 1227.86,-489.886"/>
</g>
<!-- Node48 -->
<g id="node48" class="node"><title>Node48</title>
<polygon fill="none" stroke="#bfbfbf" points="1242.5,-470.5 1242.5,-489.5 1277.5,-489.5 1277.5,-470.5 1242.5,-470.5"/>
<text text-anchor="middle" x="1260" y="-477.5" font-family="Helvetica,sans-Serif" font-size="10.00">map</text>
</g>
<!-- Node46&#45;&gt;Node48 -->
<g id="edge57" class="edge"><title>Node46&#45;&gt;Node48</title>
<path fill="none" stroke="midnightblue" d="M1348.76,-532.841C1329.48,-521.579 1302.65,-505.913 1283.55,-494.757"/>
<polygon fill="midnightblue" stroke="midnightblue" points="1285.26,-491.703 1274.86,-489.682 1281.73,-497.748 1285.26,-491.703"/>
</g>
<!-- Node49 -->
<g id="node49" class="node"><title>Node49</title>
<g id="a_node49"><a xlink:href="../../d3/dba/SegmentationAlpide_8h.html" target="_top" xlink:title="Definition of the SegmentationAlpide class. ">
<polygon fill="none" stroke="black" points="453.5,-340.5 453.5,-359.5 626.5,-359.5 626.5,-340.5 453.5,-340.5"/>
<text text-anchor="middle" x="540" y="-347.5" font-family="Helvetica,sans-Serif" font-size="10.00">ITSMFTBase/SegmentationAlpide.h</text>
</a>
</g>
</g>
<!-- Node46&#45;&gt;Node49 -->
<g id="edge58" class="edge"><title>Node46&#45;&gt;Node49</title>
<path fill="none" stroke="midnightblue" d="M1359.99,-532.654C1340.24,-511.211 1303.15,-472.413 1286,-464 1227.21,-435.157 805.081,-382.425 623.116,-360.725"/>
<polygon fill="midnightblue" stroke="midnightblue" points="623.401,-357.234 613.058,-359.528 622.574,-364.185 623.401,-357.234"/>
</g>
<!-- Node50 -->
<g id="node50" class="node"><title>Node50</title>
<g id="a_node50"><a xlink:href="../../d1/d08/TopologyDictionary_8h.html" target="_top" xlink:title="Definition of the ClusterTopology class. ">
<polygon fill="none" stroke="black" points="1534,-465 1534,-495 1686,-495 1686,-465 1534,-465"/>
<text text-anchor="start" x="1542" y="-483" font-family="Helvetica,sans-Serif" font-size="10.00">DataFormatsITSMFT/Topology</text>
<text text-anchor="middle" x="1610" y="-472" font-family="Helvetica,sans-Serif" font-size="10.00">Dictionary.h</text>
</a>
</g>
</g>
<!-- Node46&#45;&gt;Node50 -->
<g id="edge61" class="edge"><title>Node46&#45;&gt;Node50</title>
<path fill="none" stroke="midnightblue" d="M1423.55,-532.922C1460.52,-522.627 1510.82,-508.619 1549.86,-497.748"/>
<polygon fill="midnightblue" stroke="midnightblue" points="1550.83,-501.111 1559.53,-495.056 1548.95,-494.367 1550.83,-501.111"/>
</g>
<!-- Node49&#45;&gt;Node27 -->
<g id="edge59" class="edge"><title>Node49&#45;&gt;Node27</title>
<path fill="none" stroke="midnightblue" d="M563.353,-340.384C680.315,-297.229 1197.5,-106.392 1214,-100 1216.24,-99.134 1218.54,-98.2281 1220.86,-97.309"/>
<polygon fill="midnightblue" stroke="midnightblue" points="1222.32,-100.494 1230.3,-93.5239 1219.72,-93.9968 1222.32,-100.494"/>
</g>
<!-- Node50&#45;&gt;Node12 -->
<g id="edge63" class="edge"><title>Node50&#45;&gt;Node12</title>
<path fill="none" stroke="midnightblue" d="M1629.31,-464.679C1644.1,-453.713 1664.42,-438.645 1679.3,-427.609"/>
<polygon fill="midnightblue" stroke="midnightblue" points="1681.4,-430.406 1687.35,-421.638 1677.23,-424.783 1681.4,-430.406"/>
</g>
<!-- Node50&#45;&gt;Node13 -->
<g id="edge64" class="edge"><title>Node50&#45;&gt;Node13</title>
<path fill="none" stroke="midnightblue" d="M1645.81,-464.928C1670.51,-455.036 1703.98,-441.251 1733,-428 1734.36,-427.38 1735.74,-426.734 1737.14,-426.073"/>
<polygon fill="midnightblue" stroke="midnightblue" points="1738.82,-429.146 1746.28,-421.62 1735.76,-422.853 1738.82,-429.146"/>
</g>
<!-- Node50&#45;&gt;Node25 -->
<g id="edge66" class="edge"><title>Node50&#45;&gt;Node25</title>
<path fill="none" stroke="midnightblue" d="M1616.77,-464.779C1627.2,-441.534 1646,-393.706 1646,-351 1646,-351 1646,-351 1646,-287 1646,-240.438 1678.76,-193.471 1698.47,-169.434"/>
<polygon fill="midnightblue" stroke="midnightblue" points="1701.26,-171.552 1705.05,-161.658 1695.92,-167.028 1701.26,-171.552"/>
</g>
<!-- Node50&#45;&gt;Node45 -->
<g id="edge62" class="edge"><title>Node50&#45;&gt;Node45</title>
<path fill="none" stroke="midnightblue" d="M1566.49,-464.922C1535.07,-454.757 1492.47,-440.975 1459.05,-430.164"/>
<polygon fill="midnightblue" stroke="midnightblue" points="1460.04,-426.804 1449.45,-427.056 1457.88,-433.464 1460.04,-426.804"/>
</g>
<!-- Node51 -->
<g id="node51" class="node"><title>Node51</title>
<polygon fill="none" stroke="#bfbfbf" points="1534.5,-402.5 1534.5,-421.5 1617.5,-421.5 1617.5,-402.5 1534.5,-402.5"/>
<text text-anchor="middle" x="1576" y="-409.5" font-family="Helvetica,sans-Serif" font-size="10.00">unordered_map</text>
</g>
<!-- Node50&#45;&gt;Node51 -->
<g id="edge65" class="edge"><title>Node50&#45;&gt;Node51</title>
<path fill="none" stroke="midnightblue" d="M1602.62,-464.679C1597.53,-454.796 1590.72,-441.579 1585.27,-430.986"/>
<polygon fill="midnightblue" stroke="midnightblue" points="1588.24,-429.115 1580.55,-421.828 1582.02,-432.321 1588.24,-429.115"/>
</g>
<!-- Node52&#45;&gt;Node24 -->
<g id="edge69" class="edge"><title>Node52&#45;&gt;Node24</title>
<path fill="none" stroke="midnightblue" d="M1661.62,-535.579C1723.7,-519.822 1812,-484.792 1812,-413 1812,-413 1812,-413 1812,-151 1812,-101.194 1769.2,-55.3299 1743.64,-32.3829"/>
<polygon fill="midnightblue" stroke="midnightblue" points="1745.86,-29.681 1736.02,-25.7619 1741.27,-34.964 1745.86,-29.681"/>
</g>
<!-- Node52&#45;&gt;Node44 -->
<g id="edge70" class="edge"><title>Node52&#45;&gt;Node44</title>
<path fill="none" stroke="midnightblue" d="M1559.95,-532.841C1529.88,-522.715 1489.24,-509.03 1457.26,-498.262"/>
<polygon fill="midnightblue" stroke="midnightblue" points="1458.23,-494.896 1447.64,-495.022 1456,-501.53 1458.23,-494.896"/>
</g>
<!-- Node52&#45;&gt;Node50 -->
<g id="edge71" class="edge"><title>Node52&#45;&gt;Node50</title>
<path fill="none" stroke="midnightblue" d="M1603.74,-532.679C1604.7,-524.722 1605.93,-514.605 1607.04,-505.436"/>
<polygon fill="midnightblue" stroke="midnightblue" points="1610.54,-505.642 1608.27,-495.293 1603.59,-504.799 1610.54,-505.642"/>
</g>
</g>
</svg>
