<?xml version="1.0" encoding="UTF-8" standalone="no"?>
<!DOCTYPE svg PUBLIC "-//W3C//DTD SVG 1.1//EN"
 "http://www.w3.org/Graphics/SVG/1.1/DTD/svg11.dtd">
<!-- Generated by graphviz version 2.36.0 (20140111.2315)
 -->
<!-- Title: /home/travis/build/AliceO2Group/AliceO2/Framework/Core/src/TMessageSerializer.cxx Pages: 1 -->
<svg width="1621pt" height="242pt"
 viewBox="0.00 0.00 1621.00 242.00" xmlns="http://www.w3.org/2000/svg" xmlns:xlink="http://www.w3.org/1999/xlink">
<g id="graph0" class="graph" transform="scale(1 1) rotate(0) translate(4 238)">
<title>/home/travis/build/AliceO2Group/AliceO2/Framework/Core/src/TMessageSerializer.cxx</title>
<!-- Node1 -->
<g id="node1" class="node"><title>Node1</title>
<polygon fill="#bfbfbf" stroke="black" points="708,-181 708,-233 866,-233 866,-181 708,-181"/>
<text text-anchor="start" x="716" y="-221" font-family="Helvetica,sans-Serif" font-size="10.00">/home/travis/build</text>
<text text-anchor="start" x="716" y="-210" font-family="Helvetica,sans-Serif" font-size="10.00">/AliceO2Group/AliceO2</text>
<text text-anchor="start" x="716" y="-199" font-family="Helvetica,sans-Serif" font-size="10.00">/Framework/Core/src/TMessage</text>
<text text-anchor="middle" x="787" y="-188" font-family="Helvetica,sans-Serif" font-size="10.00">Serializer.cxx</text>
</g>
<!-- Node2 -->
<g id="node2" class="node"><title>Node2</title>
<g id="a_node2"><a xlink:href="../../d8/d3c/TMessageSerializer_8h.html" target="_top" xlink:title="Framework/TMessageSerializer.h">
<polygon fill="none" stroke="black" points="440.5,-124.5 440.5,-143.5 603.5,-143.5 603.5,-124.5 440.5,-124.5"/>
<text text-anchor="middle" x="522" y="-131.5" font-family="Helvetica,sans-Serif" font-size="10.00">Framework/TMessageSerializer.h</text>
</a>
</g>
</g>
<!-- Node1&#45;&gt;Node2 -->
<g id="edge1" class="edge"><title>Node1&#45;&gt;Node2</title>
<path fill="none" stroke="midnightblue" d="M707.85,-184.794C660.53,-172.115 602.31,-156.517 563.78,-146.194"/>
<polygon fill="midnightblue" stroke="midnightblue" points="564.509,-142.766 553.944,-143.558 562.697,-149.527 564.509,-142.766"/>
</g>
<!-- Node10 -->
<g id="node10" class="node"><title>Node10</title>
<polygon fill="none" stroke="#bfbfbf" points="917,-68.5 917,-87.5 969,-87.5 969,-68.5 917,-68.5"/>
<text text-anchor="middle" x="943" y="-75.5" font-family="Helvetica,sans-Serif" font-size="10.00">memory</text>
</g>
<!-- Node1&#45;&gt;Node10 -->
<g id="edge27" class="edge"><title>Node1&#45;&gt;Node10</title>
<path fill="none" stroke="midnightblue" d="M786.619,-180.811C787.685,-162.87 791.999,-139.316 806,-124 813.036,-116.303 868.943,-99.5642 907.128,-88.8129"/>
<polygon fill="midnightblue" stroke="midnightblue" points="908.203,-92.1466 916.893,-86.0848 906.32,-85.4047 908.203,-92.1466"/>
</g>
<!-- Node27 -->
<g id="node27" class="node"><title>Node27</title>
<polygon fill="none" stroke="#bfbfbf" points="815,-124.5 815,-143.5 871,-143.5 871,-124.5 815,-124.5"/>
<text text-anchor="middle" x="843" y="-131.5" font-family="Helvetica,sans-Serif" font-size="10.00">algorithm</text>
</g>
<!-- Node1&#45;&gt;Node27 -->
<g id="edge26" class="edge"><title>Node1&#45;&gt;Node27</title>
<path fill="none" stroke="midnightblue" d="M806.901,-180.768C814.461,-171.183 822.882,-160.506 829.689,-151.877"/>
<polygon fill="midnightblue" stroke="midnightblue" points="832.648,-153.776 836.093,-143.757 827.152,-149.441 832.648,-153.776"/>
</g>
<!-- Node3 -->
<g id="node3" class="node"><title>Node3</title>
<polygon fill="none" stroke="#bfbfbf" points="-0.5,-68.5 -0.5,-87.5 126.5,-87.5 126.5,-68.5 -0.5,-68.5"/>
<text text-anchor="middle" x="63" y="-75.5" font-family="Helvetica,sans-Serif" font-size="10.00">fairmq/FairMQMessage.h</text>
</g>
<!-- Node2&#45;&gt;Node3 -->
<g id="edge2" class="edge"><title>Node2&#45;&gt;Node3</title>
<path fill="none" stroke="midnightblue" d="M447.064,-124.48C371.296,-115.821 250.53,-101.899 136.547,-88.1791"/>
<polygon fill="midnightblue" stroke="midnightblue" points="136.947,-84.7019 126.6,-86.98 136.109,-91.6516 136.947,-84.7019"/>
</g>
<!-- Node4 -->
<g id="node4" class="node"><title>Node4</title>
<polygon fill="none" stroke="#bfbfbf" points="144.5,-68.5 144.5,-87.5 191.5,-87.5 191.5,-68.5 144.5,-68.5"/>
<text text-anchor="middle" x="168" y="-75.5" font-family="Helvetica,sans-Serif" font-size="10.00">TList.h</text>
</g>
<!-- Node2&#45;&gt;Node4 -->
<g id="edge3" class="edge"><title>Node2&#45;&gt;Node4</title>
<path fill="none" stroke="midnightblue" d="M440.71,-124.495C377.943,-117.26 288.801,-105.54 201.759,-87.9163"/>
<polygon fill="midnightblue" stroke="midnightblue" points="202.206,-84.4351 191.706,-85.8522 200.798,-91.292 202.206,-84.4351"/>
</g>
<!-- Node5 -->
<g id="node5" class="node"><title>Node5</title>
<polygon fill="none" stroke="#bfbfbf" points="209.5,-68.5 209.5,-87.5 280.5,-87.5 280.5,-68.5 209.5,-68.5"/>
<text text-anchor="middle" x="245" y="-75.5" font-family="Helvetica,sans-Serif" font-size="10.00">TMessage.h</text>
</g>
<!-- Node2&#45;&gt;Node5 -->
<g id="edge4" class="edge"><title>Node2&#45;&gt;Node5</title>
<path fill="none" stroke="midnightblue" d="M477.509,-124.45C432.894,-115.858 361.945,-102.147 290.883,-88.1652"/>
<polygon fill="midnightblue" stroke="midnightblue" points="291.345,-84.6891 280.858,-86.191 289.993,-91.5573 291.345,-84.6891"/>
</g>
<!-- Node6 -->
<g id="node6" class="node"><title>Node6</title>
<polygon fill="none" stroke="#bfbfbf" points="298.5,-68.5 298.5,-87.5 367.5,-87.5 367.5,-68.5 298.5,-68.5"/>
<text text-anchor="middle" x="333" y="-75.5" font-family="Helvetica,sans-Serif" font-size="10.00">TObjArray.h</text>
</g>
<!-- Node2&#45;&gt;Node6 -->
<g id="edge5" class="edge"><title>Node2&#45;&gt;Node6</title>
<path fill="none" stroke="midnightblue" d="M492.052,-124.444C459.842,-115.241 408.466,-100.562 372.858,-90.3879"/>
<polygon fill="midnightblue" stroke="midnightblue" points="373.384,-86.8984 362.808,-87.5164 371.461,-93.629 373.384,-86.8984"/>
</g>
<!-- Node7 -->
<g id="node7" class="node"><title>Node7</title>
<polygon fill="none" stroke="#bfbfbf" points="385.5,-68.5 385.5,-87.5 472.5,-87.5 472.5,-68.5 385.5,-68.5"/>
<text text-anchor="middle" x="429" y="-75.5" font-family="Helvetica,sans-Serif" font-size="10.00">TStreamerInfo.h</text>
</g>
<!-- Node2&#45;&gt;Node7 -->
<g id="edge6" class="edge"><title>Node2&#45;&gt;Node7</title>
<path fill="none" stroke="midnightblue" d="M507.058,-124.324C492.415,-115.822 469.866,-102.729 452.762,-92.7975"/>
<polygon fill="midnightblue" stroke="midnightblue" points="454.31,-89.6491 443.905,-87.6545 450.795,-95.7027 454.31,-89.6491"/>
</g>
<!-- Node8 -->
<g id="node8" class="node"><title>Node8</title>
<polygon fill="none" stroke="#bfbfbf" points="490.5,-68.5 490.5,-87.5 553.5,-87.5 553.5,-68.5 490.5,-68.5"/>
<text text-anchor="middle" x="522" y="-75.5" font-family="Helvetica,sans-Serif" font-size="10.00">gsl/gsl_util</text>
</g>
<!-- Node2&#45;&gt;Node8 -->
<g id="edge7" class="edge"><title>Node2&#45;&gt;Node8</title>
<path fill="none" stroke="midnightblue" d="M522,-124.083C522,-117.006 522,-106.861 522,-97.9865"/>
<polygon fill="midnightblue" stroke="midnightblue" points="525.5,-97.751 522,-87.7511 518.5,-97.7511 525.5,-97.751"/>
</g>
<!-- Node9 -->
<g id="node9" class="node"><title>Node9</title>
<polygon fill="none" stroke="#bfbfbf" points="571.5,-68.5 571.5,-87.5 624.5,-87.5 624.5,-68.5 571.5,-68.5"/>
<text text-anchor="middle" x="598" y="-75.5" font-family="Helvetica,sans-Serif" font-size="10.00">gsl/span</text>
</g>
<!-- Node2&#45;&gt;Node9 -->
<g id="edge8" class="edge"><title>Node2&#45;&gt;Node9</title>
<path fill="none" stroke="midnightblue" d="M534.211,-124.324C545.776,-116.107 563.375,-103.602 577.161,-93.8069"/>
<polygon fill="midnightblue" stroke="midnightblue" points="579.443,-96.4791 585.567,-87.8339 575.388,-90.7729 579.443,-96.4791"/>
</g>
<!-- Node2&#45;&gt;Node10 -->
<g id="edge9" class="edge"><title>Node2&#45;&gt;Node10</title>
<path fill="none" stroke="midnightblue" d="M603.569,-126.533C679.517,-119.811 795.998,-107.719 906.73,-87.8044"/>
<polygon fill="midnightblue" stroke="midnightblue" points="907.529,-91.2165 916.739,-85.9798 906.273,-84.33 907.529,-91.2165"/>
</g>
<!-- Node11 -->
<g id="node11" class="node"><title>Node11</title>
<polygon fill="none" stroke="#bfbfbf" points="643,-68.5 643,-87.5 687,-87.5 687,-68.5 643,-68.5"/>
<text text-anchor="middle" x="665" y="-75.5" font-family="Helvetica,sans-Serif" font-size="10.00">mutex</text>
</g>
<!-- Node2&#45;&gt;Node11 -->
<g id="edge10" class="edge"><title>Node2&#45;&gt;Node11</title>
<path fill="none" stroke="midnightblue" d="M544.659,-124.444C568.542,-115.425 606.351,-101.147 633.211,-91.0043"/>
<polygon fill="midnightblue" stroke="midnightblue" points="634.798,-94.1461 642.917,-87.339 632.325,-87.5975 634.798,-94.1461"/>
</g>
<!-- Node12 -->
<g id="node12" class="node"><title>Node12</title>
<g id="a_node12"><a xlink:href="../../dc/d03/MemoryResources_8h.html" target="_top" xlink:title="MemoryResources/MemoryResources.h">
<polygon fill="none" stroke="black" points="705.5,-68.5 705.5,-87.5 898.5,-87.5 898.5,-68.5 705.5,-68.5"/>
<text text-anchor="middle" x="802" y="-75.5" font-family="Helvetica,sans-Serif" font-size="10.00">MemoryResources/MemoryResources.h</text>
</a>
</g>
</g>
<!-- Node2&#45;&gt;Node12 -->
<g id="edge11" class="edge"><title>Node2&#45;&gt;Node12</title>
<path fill="none" stroke="midnightblue" d="M566.367,-124.444C615.622,-114.944 695.128,-99.611 747.971,-89.4198"/>
<polygon fill="midnightblue" stroke="midnightblue" points="748.684,-92.8469 757.841,-87.5164 747.359,-85.9735 748.684,-92.8469"/>
</g>
<!-- Node13 -->
<g id="node13" class="node"><title>Node13</title>
<polygon fill="none" stroke="#bfbfbf" points="34,-1 34,-31 134,-31 134,-1 34,-1"/>
<text text-anchor="start" x="42" y="-19" font-family="Helvetica,sans-Serif" font-size="10.00">boost/container/flat</text>
<text text-anchor="middle" x="84" y="-8" font-family="Helvetica,sans-Serif" font-size="10.00">_map.hpp</text>
</g>
<!-- Node12&#45;&gt;Node13 -->
<g id="edge12" class="edge"><title>Node12&#45;&gt;Node13</title>
<path fill="none" stroke="midnightblue" d="M705.476,-68.7972C701.94,-68.5234 698.439,-68.2568 695,-68 453.18,-49.9462 387.613,-69.8912 144.303,-32.0085"/>
<polygon fill="midnightblue" stroke="midnightblue" points="144.504,-28.4971 134.082,-30.3996 143.416,-35.412 144.504,-28.4971"/>
</g>
<!-- Node14 -->
<g id="node14" class="node"><title>Node14</title>
<polygon fill="none" stroke="#bfbfbf" points="152,-1 152,-31 268,-31 268,-1 152,-1"/>
<text text-anchor="start" x="160" y="-19" font-family="Helvetica,sans-Serif" font-size="10.00">boost/container/pmr</text>
<text text-anchor="middle" x="210" y="-8" font-family="Helvetica,sans-Serif" font-size="10.00">/memory_resource.hpp</text>
</g>
<!-- Node12&#45;&gt;Node14 -->
<g id="edge13" class="edge"><title>Node12&#45;&gt;Node14</title>
<path fill="none" stroke="midnightblue" d="M705.371,-68.7992C568.962,-57.2122 331.313,-36.9844 278.176,-31.6328"/>
<polygon fill="midnightblue" stroke="midnightblue" points="278.342,-28.1295 268.014,-30.4903 277.56,-35.0857 278.342,-28.1295"/>
</g>
<!-- Node15 -->
<g id="node15" class="node"><title>Node15</title>
<polygon fill="none" stroke="#bfbfbf" points="286,-1 286,-31 442,-31 442,-1 286,-1"/>
<text text-anchor="start" x="294" y="-19" font-family="Helvetica,sans-Serif" font-size="10.00">boost/container/pmr</text>
<text text-anchor="middle" x="364" y="-8" font-family="Helvetica,sans-Serif" font-size="10.00">/monotonic_buffer_resource.hpp</text>
</g>
<!-- Node12&#45;&gt;Node15 -->
<g id="edge14" class="edge"><title>Node12&#45;&gt;Node15</title>
<path fill="none" stroke="midnightblue" d="M728.811,-68.4749C660.202,-60.2811 554.511,-47.1426 452.374,-32.0153"/>
<polygon fill="midnightblue" stroke="midnightblue" points="452.59,-28.509 442.183,-30.4976 451.559,-35.4327 452.59,-28.509"/>
</g>
<!-- Node16 -->
<g id="node16" class="node"><title>Node16</title>
<polygon fill="none" stroke="#bfbfbf" points="460.5,-1 460.5,-31 593.5,-31 593.5,-1 460.5,-1"/>
<text text-anchor="start" x="468.5" y="-19" font-family="Helvetica,sans-Serif" font-size="10.00">boost/container/pmr</text>
<text text-anchor="middle" x="527" y="-8" font-family="Helvetica,sans-Serif" font-size="10.00">/polymorphic_allocator.hpp</text>
</g>
<!-- Node12&#45;&gt;Node16 -->
<g id="edge15" class="edge"><title>Node12&#45;&gt;Node16</title>
<path fill="none" stroke="midnightblue" d="M762.891,-68.4672C720.96,-59.3184 653.391,-44.5763 601.295,-33.2097"/>
<polygon fill="midnightblue" stroke="midnightblue" points="601.942,-29.7687 591.426,-31.0565 600.45,-36.6078 601.942,-29.7687"/>
</g>
<!-- Node17 -->
<g id="node17" class="node"><title>Node17</title>
<polygon fill="none" stroke="#bfbfbf" points="612,-6.5 612,-25.5 658,-25.5 658,-6.5 612,-6.5"/>
<text text-anchor="middle" x="635" y="-13.5" font-family="Helvetica,sans-Serif" font-size="10.00">cstring</text>
</g>
<!-- Node12&#45;&gt;Node17 -->
<g id="edge16" class="edge"><title>Node12&#45;&gt;Node17</title>
<path fill="none" stroke="midnightblue" d="M773.724,-68.4331C746.394,-59.9359 703.961,-46.1681 668,-32 666.156,-31.2733 664.265,-30.4984 662.369,-29.6981"/>
<polygon fill="midnightblue" stroke="midnightblue" points="663.575,-26.4054 653.012,-25.5907 660.762,-32.8151 663.575,-26.4054"/>
</g>
<!-- Node18 -->
<g id="node18" class="node"><title>Node18</title>
<polygon fill="none" stroke="#bfbfbf" points="676.5,-6.5 676.5,-25.5 717.5,-25.5 717.5,-6.5 676.5,-6.5"/>
<text text-anchor="middle" x="697" y="-13.5" font-family="Helvetica,sans-Serif" font-size="10.00">string</text>
</g>
<!-- Node12&#45;&gt;Node18 -->
<g id="edge17" class="edge"><title>Node12&#45;&gt;Node18</title>
<path fill="none" stroke="midnightblue" d="M786.956,-68.4035C769.725,-58.5569 741.26,-42.2915 720.966,-30.6949"/>
<polygon fill="midnightblue" stroke="midnightblue" points="722.435,-27.5032 712.016,-25.5806 718.962,-33.5809 722.435,-27.5032"/>
</g>
<!-- Node19 -->
<g id="node19" class="node"><title>Node19</title>
<polygon fill="none" stroke="#bfbfbf" points="736,-6.5 736,-25.5 798,-25.5 798,-6.5 736,-6.5"/>
<text text-anchor="middle" x="767" y="-13.5" font-family="Helvetica,sans-Serif" font-size="10.00">type_traits</text>
</g>
<!-- Node12&#45;&gt;Node19 -->
<g id="edge18" class="edge"><title>Node12&#45;&gt;Node19</title>
<path fill="none" stroke="midnightblue" d="M796.985,-68.4035C791.839,-59.5816 783.688,-45.6075 777.182,-34.4548"/>
<polygon fill="midnightblue" stroke="midnightblue" points="780.067,-32.4548 772.005,-25.5806 774.021,-35.982 780.067,-32.4548"/>
</g>
<!-- Node20 -->
<g id="node20" class="node"><title>Node20</title>
<polygon fill="none" stroke="#bfbfbf" points="816,-6.5 816,-25.5 856,-25.5 856,-6.5 816,-6.5"/>
<text text-anchor="middle" x="836" y="-13.5" font-family="Helvetica,sans-Serif" font-size="10.00">utility</text>
</g>
<!-- Node12&#45;&gt;Node20 -->
<g id="edge19" class="edge"><title>Node12&#45;&gt;Node20</title>
<path fill="none" stroke="midnightblue" d="M806.871,-68.4035C811.87,-59.5816 819.789,-45.6075 826.109,-34.4548"/>
<polygon fill="midnightblue" stroke="midnightblue" points="829.253,-36.0064 831.138,-25.5806 823.162,-32.5553 829.253,-36.0064"/>
</g>
<!-- Node21 -->
<g id="node21" class="node"><title>Node21</title>
<polygon fill="none" stroke="#bfbfbf" points="874,-6.5 874,-25.5 918,-25.5 918,-6.5 874,-6.5"/>
<text text-anchor="middle" x="896" y="-13.5" font-family="Helvetica,sans-Serif" font-size="10.00">vector</text>
</g>
<!-- Node12&#45;&gt;Node21 -->
<g id="edge20" class="edge"><title>Node12&#45;&gt;Node21</title>
<path fill="none" stroke="midnightblue" d="M815.468,-68.4035C830.685,-58.6905 855.687,-42.7319 873.801,-31.1697"/>
<polygon fill="midnightblue" stroke="midnightblue" points="876.011,-33.9112 882.557,-25.5806 872.245,-28.0108 876.011,-33.9112"/>
</g>
<!-- Node22 -->
<g id="node22" class="node"><title>Node22</title>
<polygon fill="none" stroke="#bfbfbf" points="936.5,-6.5 936.5,-25.5 1019.5,-25.5 1019.5,-6.5 936.5,-6.5"/>
<text text-anchor="middle" x="978" y="-13.5" font-family="Helvetica,sans-Serif" font-size="10.00">unordered_map</text>
</g>
<!-- Node12&#45;&gt;Node22 -->
<g id="edge21" class="edge"><title>Node12&#45;&gt;Node22</title>
<path fill="none" stroke="midnightblue" d="M827.217,-68.4035C857.668,-58.0222 909.049,-40.5062 943.243,-28.849"/>
<polygon fill="midnightblue" stroke="midnightblue" points="944.495,-32.1202 952.83,-25.5806 942.236,-25.4946 944.495,-32.1202"/>
</g>
<!-- Node23 -->
<g id="node23" class="node"><title>Node23</title>
<polygon fill="none" stroke="#bfbfbf" points="1037.5,-6.5 1037.5,-25.5 1134.5,-25.5 1134.5,-6.5 1037.5,-6.5"/>
<text text-anchor="middle" x="1086" y="-13.5" font-family="Helvetica,sans-Serif" font-size="10.00">FairMQMessage.h</text>
</g>
<!-- Node12&#45;&gt;Node23 -->
<g id="edge22" class="edge"><title>Node12&#45;&gt;Node23</title>
<path fill="none" stroke="midnightblue" d="M848.911,-68.4602C894.735,-59.9297 966.381,-46.0909 1028,-32 1033.32,-30.7828 1038.9,-29.4339 1044.41,-28.0587"/>
<polygon fill="midnightblue" stroke="midnightblue" points="1045.34,-31.4332 1054.17,-25.5774 1043.62,-24.6489 1045.34,-31.4332"/>
</g>
<!-- Node24 -->
<g id="node24" class="node"><title>Node24</title>
<polygon fill="none" stroke="#bfbfbf" points="1152.5,-6.5 1152.5,-25.5 1283.5,-25.5 1283.5,-6.5 1152.5,-6.5"/>
<text text-anchor="middle" x="1218" y="-13.5" font-family="Helvetica,sans-Serif" font-size="10.00">FairMQTransportFactory.h</text>
</g>
<!-- Node12&#45;&gt;Node24 -->
<g id="edge23" class="edge"><title>Node12&#45;&gt;Node24</title>
<path fill="none" stroke="midnightblue" d="M877.721,-68.4644C946.965,-60.3135 1052.13,-47.0658 1143,-32 1151.1,-30.6566 1159.67,-29.0868 1168,-27.4783"/>
<polygon fill="midnightblue" stroke="midnightblue" points="1168.86,-30.8755 1178,-25.5098 1167.51,-24.0073 1168.86,-30.8755"/>
</g>
<!-- Node25 -->
<g id="node25" class="node"><title>Node25</title>
<polygon fill="none" stroke="#bfbfbf" points="1301.5,-6.5 1301.5,-25.5 1438.5,-25.5 1438.5,-6.5 1301.5,-6.5"/>
<text text-anchor="middle" x="1370" y="-13.5" font-family="Helvetica,sans-Serif" font-size="10.00">fairmq/MemoryResources.h</text>
</g>
<!-- Node12&#45;&gt;Node25 -->
<g id="edge24" class="edge"><title>Node12&#45;&gt;Node25</title>
<path fill="none" stroke="midnightblue" d="M898.602,-68.6435C1030.29,-57.1723 1254.2,-37.3567 1292,-32 1301.02,-30.7211 1310.59,-29.1027 1319.81,-27.4054"/>
<polygon fill="midnightblue" stroke="midnightblue" points="1320.47,-30.8432 1329.64,-25.545 1319.17,-23.9652 1320.47,-30.8432"/>
</g>
<!-- Node26 -->
<g id="node26" class="node"><title>Node26</title>
<polygon fill="none" stroke="#bfbfbf" points="1457,-6.5 1457,-25.5 1613,-25.5 1613,-6.5 1457,-6.5"/>
<text text-anchor="middle" x="1535" y="-13.5" font-family="Helvetica,sans-Serif" font-size="10.00">fairmq/MemoryResourceTools.h</text>
</g>
<!-- Node12&#45;&gt;Node26 -->
<g id="edge25" class="edge"><title>Node12&#45;&gt;Node26</title>
<path fill="none" stroke="midnightblue" d="M898.757,-68.7125C901.874,-68.4686 904.961,-68.2305 908,-68 1147.4,-49.8433 1208.57,-60.208 1447,-32 1457.84,-30.7174 1469.38,-29.0051 1480.41,-27.1965"/>
<polygon fill="midnightblue" stroke="midnightblue" points="1481.08,-30.6324 1490.36,-25.5181 1479.92,-23.7299 1481.08,-30.6324"/>
</g>
</g>
</svg>
