<?xml version="1.0" encoding="UTF-8" standalone="no"?>
<!DOCTYPE svg PUBLIC "-//W3C//DTD SVG 1.1//EN"
 "http://www.w3.org/Graphics/SVG/1.1/DTD/svg11.dtd">
<!-- Generated by graphviz version 2.36.0 (20140111.2315)
 -->
<!-- Title: /home/travis/build/AliceO2Group/AliceO2/Utilities/DataFlow/src/runFakeTimeframeGeneratorDevice.cxx Pages: 1 -->
<svg width="2096pt" height="422pt"
 viewBox="0.00 0.00 2096.00 422.00" xmlns="http://www.w3.org/2000/svg" xmlns:xlink="http://www.w3.org/1999/xlink">
<g id="graph0" class="graph" transform="scale(1 1) rotate(0) translate(4 418)">
<title>/home/travis/build/AliceO2Group/AliceO2/Utilities/DataFlow/src/runFakeTimeframeGeneratorDevice.cxx</title>
<!-- Node1 -->
<g id="node1" class="node"><title>Node1</title>
<polygon fill="#bfbfbf" stroke="black" points="1678,-361 1678,-413 1872,-413 1872,-361 1678,-361"/>
<text text-anchor="start" x="1686" y="-401" font-family="Helvetica,sans-Serif" font-size="10.00">/home/travis/build</text>
<text text-anchor="start" x="1686" y="-390" font-family="Helvetica,sans-Serif" font-size="10.00">/AliceO2Group/AliceO2</text>
<text text-anchor="start" x="1686" y="-379" font-family="Helvetica,sans-Serif" font-size="10.00">/Utilities/DataFlow/src</text>
<text text-anchor="middle" x="1775" y="-368" font-family="Helvetica,sans-Serif" font-size="10.00">/runFakeTimeframeGeneratorDevice.cxx</text>
</g>
<!-- Node2 -->
<g id="node2" class="node"><title>Node2</title>
<polygon fill="none" stroke="#bfbfbf" points="1569.5,-298.5 1569.5,-317.5 1670.5,-317.5 1670.5,-298.5 1569.5,-298.5"/>
<text text-anchor="middle" x="1620" y="-305.5" font-family="Helvetica,sans-Serif" font-size="10.00">runFairMQDevice.h</text>
</g>
<!-- Node1&#45;&gt;Node2 -->
<g id="edge1" class="edge"><title>Node1&#45;&gt;Node2</title>
<path fill="none" stroke="midnightblue" d="M1724.25,-360.787C1698.22,-347.855 1667.59,-332.644 1646.3,-322.067"/>
<polygon fill="midnightblue" stroke="midnightblue" points="1647.74,-318.872 1637.23,-317.558 1644.63,-325.141 1647.74,-318.872"/>
</g>
<!-- Node3 -->
<g id="node3" class="node"><title>Node3</title>
<g id="a_node3"><a xlink:href="../../d4/d98/FakeTimeframeGeneratorDevice_8h.html" target="_top" xlink:title="DataFlow/FakeTimeframeGenerator\lDevice.h">
<polygon fill="none" stroke="black" points="1688.5,-293 1688.5,-323 1861.5,-323 1861.5,-293 1688.5,-293"/>
<text text-anchor="start" x="1696.5" y="-311" font-family="Helvetica,sans-Serif" font-size="10.00">DataFlow/FakeTimeframeGenerator</text>
<text text-anchor="middle" x="1775" y="-300" font-family="Helvetica,sans-Serif" font-size="10.00">Device.h</text>
</a>
</g>
</g>
<!-- Node1&#45;&gt;Node3 -->
<g id="edge2" class="edge"><title>Node1&#45;&gt;Node3</title>
<path fill="none" stroke="midnightblue" d="M1775,-360.787C1775,-352.029 1775,-342.225 1775,-333.523"/>
<polygon fill="midnightblue" stroke="midnightblue" points="1778.5,-333.252 1775,-323.252 1771.5,-333.252 1778.5,-333.252"/>
</g>
<!-- Node17 -->
<g id="node17" class="node"><title>Node17</title>
<polygon fill="none" stroke="#bfbfbf" points="1967,-6.5 1967,-25.5 2011,-25.5 2011,-6.5 1967,-6.5"/>
<text text-anchor="middle" x="1989" y="-13.5" font-family="Helvetica,sans-Serif" font-size="10.00">vector</text>
</g>
<!-- Node1&#45;&gt;Node17 -->
<g id="edge38" class="edge"><title>Node1&#45;&gt;Node17</title>
<path fill="none" stroke="midnightblue" d="M1872.29,-362.613C1928.83,-342.584 1989,-307.14 1989,-247 1989,-247 1989,-247 1989,-133 1989,-98.7159 1989,-58.7321 1989,-35.7902"/>
<polygon fill="midnightblue" stroke="midnightblue" points="1992.5,-35.731 1989,-25.731 1985.5,-35.7311 1992.5,-35.731"/>
</g>
<!-- Node4 -->
<g id="node4" class="node"><title>Node4</title>
<g id="a_node4"><a xlink:href="../../d2/dee/O2Device_8h.html" target="_top" xlink:title="O2Device/O2Device.h">
<polygon fill="none" stroke="black" points="1667.5,-236.5 1667.5,-255.5 1782.5,-255.5 1782.5,-236.5 1667.5,-236.5"/>
<text text-anchor="middle" x="1725" y="-243.5" font-family="Helvetica,sans-Serif" font-size="10.00">O2Device/O2Device.h</text>
</a>
</g>
</g>
<!-- Node3&#45;&gt;Node4 -->
<g id="edge3" class="edge"><title>Node3&#45;&gt;Node4</title>
<path fill="none" stroke="midnightblue" d="M1763.15,-292.781C1755.81,-283.972 1746.36,-272.626 1738.69,-263.433"/>
<polygon fill="midnightblue" stroke="midnightblue" points="1741.37,-261.172 1732.28,-255.731 1735.99,-265.653 1741.37,-261.172"/>
</g>
<!-- Node5 -->
<g id="node5" class="node"><title>Node5</title>
<polygon fill="none" stroke="#bfbfbf" points="1873,-180.5 1873,-199.5 1961,-199.5 1961,-180.5 1873,-180.5"/>
<text text-anchor="middle" x="1917" y="-187.5" font-family="Helvetica,sans-Serif" font-size="10.00">FairMQDevice.h</text>
</g>
<!-- Node4&#45;&gt;Node5 -->
<g id="edge4" class="edge"><title>Node4&#45;&gt;Node5</title>
<path fill="none" stroke="midnightblue" d="M1755.42,-236.444C1788.28,-227.201 1840.78,-212.436 1876.97,-202.257"/>
<polygon fill="midnightblue" stroke="midnightblue" points="1878.04,-205.593 1886.72,-199.516 1876.15,-198.855 1878.04,-205.593"/>
</g>
<!-- Node6 -->
<g id="node6" class="node"><title>Node6</title>
<polygon fill="none" stroke="#bfbfbf" points="1321,-180.5 1321,-199.5 1467,-199.5 1467,-180.5 1321,-180.5"/>
<text text-anchor="middle" x="1394" y="-187.5" font-family="Helvetica,sans-Serif" font-size="10.00">options/FairMQProgOptions.h</text>
</g>
<!-- Node4&#45;&gt;Node6 -->
<g id="edge5" class="edge"><title>Node4&#45;&gt;Node6</title>
<path fill="none" stroke="midnightblue" d="M1672.55,-236.444C1613.84,-226.865 1518.77,-211.356 1456.32,-201.167"/>
<polygon fill="midnightblue" stroke="midnightblue" points="1456.64,-197.672 1446.2,-199.516 1455.51,-204.581 1456.64,-197.672"/>
</g>
<!-- Node7 -->
<g id="node7" class="node"><title>Node7</title>
<g id="a_node7"><a xlink:href="../../d7/db2/Utilities_8h.html" target="_top" xlink:title="O2Device/Utilities.h">
<polygon fill="none" stroke="black" points="1485,-180.5 1485,-199.5 1589,-199.5 1589,-180.5 1485,-180.5"/>
<text text-anchor="middle" x="1537" y="-187.5" font-family="Helvetica,sans-Serif" font-size="10.00">O2Device/Utilities.h</text>
</a>
</g>
</g>
<!-- Node4&#45;&gt;Node7 -->
<g id="edge6" class="edge"><title>Node4&#45;&gt;Node7</title>
<path fill="none" stroke="midnightblue" d="M1695.21,-236.444C1663.17,-227.241 1612.07,-212.562 1576.65,-202.388"/>
<polygon fill="midnightblue" stroke="midnightblue" points="1577.23,-198.913 1566.65,-199.516 1575.29,-205.641 1577.23,-198.913"/>
</g>
<!-- Node28 -->
<g id="node28" class="node"><title>Node28</title>
<polygon fill="none" stroke="#bfbfbf" points="2029.5,-6.5 2029.5,-25.5 2088.5,-25.5 2088.5,-6.5 2029.5,-6.5"/>
<text text-anchor="middle" x="2059" y="-13.5" font-family="Helvetica,sans-Serif" font-size="10.00">stdexcept</text>
</g>
<!-- Node4&#45;&gt;Node28 -->
<g id="edge37" class="edge"><title>Node4&#45;&gt;Node28</title>
<path fill="none" stroke="midnightblue" d="M1715.19,-236.207C1702.05,-223.345 1681.75,-198.881 1694,-180 1713.57,-149.826 1940.77,-61.6433 2026.51,-29.1797"/>
<polygon fill="midnightblue" stroke="midnightblue" points="2027.89,-32.4 2036.01,-25.5927 2025.42,-25.8514 2027.89,-32.4"/>
</g>
<!-- Node32 -->
<g id="node32" class="node"><title>Node32</title>
<polygon fill="none" stroke="#bfbfbf" points="1703.5,-180.5 1703.5,-199.5 1854.5,-199.5 1854.5,-180.5 1703.5,-180.5"/>
<text text-anchor="middle" x="1779" y="-187.5" font-family="Helvetica,sans-Serif" font-size="10.00">Monitoring/MonitoringFactory.h</text>
</g>
<!-- Node4&#45;&gt;Node32 -->
<g id="edge36" class="edge"><title>Node4&#45;&gt;Node32</title>
<path fill="none" stroke="midnightblue" d="M1733.92,-236.083C1741.78,-228.22 1753.43,-216.569 1762.92,-207.081"/>
<polygon fill="midnightblue" stroke="midnightblue" points="1765.65,-209.297 1770.25,-199.751 1760.7,-204.347 1765.65,-209.297"/>
</g>
<!-- Node8 -->
<g id="node8" class="node"><title>Node8</title>
<g id="a_node8"><a xlink:href="../../dc/d03/MemoryResources_8h.html" target="_top" xlink:title="MemoryResources/MemoryResources.h">
<polygon fill="none" stroke="black" points="827.5,-68.5 827.5,-87.5 1020.5,-87.5 1020.5,-68.5 827.5,-68.5"/>
<text text-anchor="middle" x="924" y="-75.5" font-family="Helvetica,sans-Serif" font-size="10.00">MemoryResources/MemoryResources.h</text>
</a>
</g>
</g>
<!-- Node7&#45;&gt;Node8 -->
<g id="edge7" class="edge"><title>Node7&#45;&gt;Node8</title>
<path fill="none" stroke="midnightblue" d="M1489.41,-180.46C1378.3,-160.522 1102.12,-110.963 981.686,-89.3515"/>
<polygon fill="midnightblue" stroke="midnightblue" points="982.022,-85.8559 971.561,-87.5345 980.785,-92.7458 982.022,-85.8559"/>
</g>
<!-- Node16 -->
<g id="node16" class="node"><title>Node16</title>
<polygon fill="none" stroke="#bfbfbf" points="0,-6.5 0,-25.5 40,-25.5 40,-6.5 0,-6.5"/>
<text text-anchor="middle" x="20" y="-13.5" font-family="Helvetica,sans-Serif" font-size="10.00">utility</text>
</g>
<!-- Node7&#45;&gt;Node16 -->
<g id="edge34" class="edge"><title>Node7&#45;&gt;Node16</title>
<path fill="none" stroke="midnightblue" d="M1484.78,-181.144C1481.81,-180.744 1478.87,-180.36 1476,-180 843.344,-100.559 659.936,-214.541 49,-32 47.0855,-31.428 45.1485,-30.7291 43.2313,-29.9491"/>
<polygon fill="midnightblue" stroke="midnightblue" points="44.5445,-26.6985 34.0083,-25.5855 41.5507,-33.026 44.5445,-26.6985"/>
</g>
<!-- Node23 -->
<g id="node23" class="node"><title>Node23</title>
<g id="a_node23"><a xlink:href="../../dc/dcd/DataHeader_8h.html" target="_top" xlink:title="Headers/DataHeader.h">
<polygon fill="none" stroke="black" points="1529.5,-68.5 1529.5,-87.5 1646.5,-87.5 1646.5,-68.5 1529.5,-68.5"/>
<text text-anchor="middle" x="1588" y="-75.5" font-family="Helvetica,sans-Serif" font-size="10.00">Headers/DataHeader.h</text>
</a>
</g>
</g>
<!-- Node7&#45;&gt;Node23 -->
<g id="edge22" class="edge"><title>Node7&#45;&gt;Node23</title>
<path fill="none" stroke="midnightblue" d="M1544.28,-180.197C1551.19,-171.471 1561.47,-157.491 1568,-144 1575.23,-129.056 1580.56,-110.916 1583.88,-97.601"/>
<polygon fill="midnightblue" stroke="midnightblue" points="1587.32,-98.2631 1586.21,-87.7272 1580.51,-96.6593 1587.32,-98.2631"/>
</g>
<!-- Node30 -->
<g id="node30" class="node"><title>Node30</title>
<g id="a_node30"><a xlink:href="../../d4/d00/Headers_2include_2Headers_2Stack_8h.html" target="_top" xlink:title="Headers/Stack.h">
<polygon fill="none" stroke="black" points="1406,-124.5 1406,-143.5 1496,-143.5 1496,-124.5 1406,-124.5"/>
<text text-anchor="middle" x="1451" y="-131.5" font-family="Helvetica,sans-Serif" font-size="10.00">Headers/Stack.h</text>
</a>
</g>
</g>
<!-- Node7&#45;&gt;Node30 -->
<g id="edge31" class="edge"><title>Node7&#45;&gt;Node30</title>
<path fill="none" stroke="midnightblue" d="M1523.18,-180.324C1509.77,-171.9 1489.18,-158.971 1473.41,-149.074"/>
<polygon fill="midnightblue" stroke="midnightblue" points="1475.11,-146.008 1464.78,-143.655 1471.39,-151.936 1475.11,-146.008"/>
</g>
<!-- Node31 -->
<g id="node31" class="node"><title>Node31</title>
<polygon fill="none" stroke="#bfbfbf" points="1514.5,-124.5 1514.5,-143.5 1559.5,-143.5 1559.5,-124.5 1514.5,-124.5"/>
<text text-anchor="middle" x="1537" y="-131.5" font-family="Helvetica,sans-Serif" font-size="10.00">gsl/gsl</text>
</g>
<!-- Node7&#45;&gt;Node31 -->
<g id="edge35" class="edge"><title>Node7&#45;&gt;Node31</title>
<path fill="none" stroke="midnightblue" d="M1537,-180.083C1537,-173.006 1537,-162.861 1537,-153.986"/>
<polygon fill="midnightblue" stroke="midnightblue" points="1540.5,-153.751 1537,-143.751 1533.5,-153.751 1540.5,-153.751"/>
</g>
<!-- Node9 -->
<g id="node9" class="node"><title>Node9</title>
<polygon fill="none" stroke="#bfbfbf" points="210,-1 210,-31 310,-31 310,-1 210,-1"/>
<text text-anchor="start" x="218" y="-19" font-family="Helvetica,sans-Serif" font-size="10.00">boost/container/flat</text>
<text text-anchor="middle" x="260" y="-8" font-family="Helvetica,sans-Serif" font-size="10.00">_map.hpp</text>
</g>
<!-- Node8&#45;&gt;Node9 -->
<g id="edge8" class="edge"><title>Node8&#45;&gt;Node9</title>
<path fill="none" stroke="midnightblue" d="M827.251,-75.0038C709.399,-71.4017 504.258,-61.3616 319.959,-31.9645"/>
<polygon fill="midnightblue" stroke="midnightblue" points="320.517,-28.5094 310.087,-30.3679 319.4,-35.4196 320.517,-28.5094"/>
</g>
<!-- Node10 -->
<g id="node10" class="node"><title>Node10</title>
<polygon fill="none" stroke="#bfbfbf" points="1103,-1 1103,-31 1219,-31 1219,-1 1103,-1"/>
<text text-anchor="start" x="1111" y="-19" font-family="Helvetica,sans-Serif" font-size="10.00">boost/container/pmr</text>
<text text-anchor="middle" x="1161" y="-8" font-family="Helvetica,sans-Serif" font-size="10.00">/memory_resource.hpp</text>
</g>
<!-- Node8&#45;&gt;Node10 -->
<g id="edge9" class="edge"><title>Node8&#45;&gt;Node10</title>
<path fill="none" stroke="midnightblue" d="M957.705,-68.4672C993.467,-59.4135 1050.87,-44.8821 1095.57,-33.5653"/>
<polygon fill="midnightblue" stroke="midnightblue" points="1096.64,-36.9038 1105.48,-31.0565 1094.92,-30.1179 1096.64,-36.9038"/>
</g>
<!-- Node11 -->
<g id="node11" class="node"><title>Node11</title>
<polygon fill="none" stroke="#bfbfbf" points="1237,-1 1237,-31 1393,-31 1393,-1 1237,-1"/>
<text text-anchor="start" x="1245" y="-19" font-family="Helvetica,sans-Serif" font-size="10.00">boost/container/pmr</text>
<text text-anchor="middle" x="1315" y="-8" font-family="Helvetica,sans-Serif" font-size="10.00">/monotonic_buffer_resource.hpp</text>
</g>
<!-- Node8&#45;&gt;Node11 -->
<g id="edge10" class="edge"><title>Node8&#45;&gt;Node11</title>
<path fill="none" stroke="midnightblue" d="M983.849,-68.4969C1042.86,-60.0255 1135.89,-46.4384 1226.87,-31.9996"/>
<polygon fill="midnightblue" stroke="midnightblue" points="1227.48,-35.4466 1236.8,-30.4181 1226.38,-28.5337 1227.48,-35.4466"/>
</g>
<!-- Node12 -->
<g id="node12" class="node"><title>Node12</title>
<polygon fill="none" stroke="#bfbfbf" points="58.5,-1 58.5,-31 191.5,-31 191.5,-1 58.5,-1"/>
<text text-anchor="start" x="66.5" y="-19" font-family="Helvetica,sans-Serif" font-size="10.00">boost/container/pmr</text>
<text text-anchor="middle" x="125" y="-8" font-family="Helvetica,sans-Serif" font-size="10.00">/polymorphic_allocator.hpp</text>
</g>
<!-- Node8&#45;&gt;Node12 -->
<g id="edge11" class="edge"><title>Node8&#45;&gt;Node12</title>
<path fill="none" stroke="midnightblue" d="M827.423,-75.0582C690.452,-71.3961 431.821,-61.1371 201.881,-31.986"/>
<polygon fill="midnightblue" stroke="midnightblue" points="202.01,-28.4739 191.646,-30.6733 201.12,-35.417 202.01,-28.4739"/>
</g>
<!-- Node13 -->
<g id="node13" class="node"><title>Node13</title>
<polygon fill="none" stroke="#bfbfbf" points="1411,-6.5 1411,-25.5 1457,-25.5 1457,-6.5 1411,-6.5"/>
<text text-anchor="middle" x="1434" y="-13.5" font-family="Helvetica,sans-Serif" font-size="10.00">cstring</text>
</g>
<!-- Node8&#45;&gt;Node13 -->
<g id="edge12" class="edge"><title>Node8&#45;&gt;Node13</title>
<path fill="none" stroke="midnightblue" d="M1020.5,-77.5652C1118.3,-75.909 1273.13,-67.126 1402,-32 1404.35,-31.3601 1406.74,-30.5586 1409.1,-29.6608"/>
<polygon fill="midnightblue" stroke="midnightblue" points="1410.68,-32.7883 1418.46,-25.5959 1407.89,-26.3672 1410.68,-32.7883"/>
</g>
<!-- Node14 -->
<g id="node14" class="node"><title>Node14</title>
<polygon fill="none" stroke="#bfbfbf" points="1475.5,-6.5 1475.5,-25.5 1516.5,-25.5 1516.5,-6.5 1475.5,-6.5"/>
<text text-anchor="middle" x="1496" y="-13.5" font-family="Helvetica,sans-Serif" font-size="10.00">string</text>
</g>
<!-- Node8&#45;&gt;Node14 -->
<g id="edge13" class="edge"><title>Node8&#45;&gt;Node14</title>
<path fill="none" stroke="midnightblue" d="M1020.63,-73.377C1153.36,-67.6469 1384.86,-54.7408 1466,-32 1467.98,-31.4461 1469.98,-30.7603 1471.96,-29.9895"/>
<polygon fill="midnightblue" stroke="midnightblue" points="1473.85,-32.9751 1481.5,-25.6435 1470.94,-26.6053 1473.85,-32.9751"/>
</g>
<!-- Node15 -->
<g id="node15" class="node"><title>Node15</title>
<polygon fill="none" stroke="#bfbfbf" points="328,-6.5 328,-25.5 390,-25.5 390,-6.5 328,-6.5"/>
<text text-anchor="middle" x="359" y="-13.5" font-family="Helvetica,sans-Serif" font-size="10.00">type_traits</text>
</g>
<!-- Node8&#45;&gt;Node15 -->
<g id="edge14" class="edge"><title>Node8&#45;&gt;Node15</title>
<path fill="none" stroke="midnightblue" d="M827.477,-76.5799C721.238,-74.3085 546.01,-65.2045 399,-32 395.494,-31.208 391.881,-30.1782 388.328,-29.0291"/>
<polygon fill="midnightblue" stroke="midnightblue" points="389.206,-25.6267 378.612,-25.5728 386.86,-32.2218 389.206,-25.6267"/>
</g>
<!-- Node8&#45;&gt;Node16 -->
<g id="edge15" class="edge"><title>Node8&#45;&gt;Node16</title>
<path fill="none" stroke="midnightblue" d="M827.247,-74.335C615.176,-68.1602 122.413,-51.8729 49,-32 47.0303,-31.4668 45.0411,-30.7869 43.0768,-30.0122"/>
<polygon fill="midnightblue" stroke="midnightblue" points="44.2076,-26.6763 33.6689,-25.5877 41.2285,-33.0108 44.2076,-26.6763"/>
</g>
<!-- Node8&#45;&gt;Node17 -->
<g id="edge16" class="edge"><title>Node8&#45;&gt;Node17</title>
<path fill="none" stroke="midnightblue" d="M1020.9,-74.9477C1260.47,-69.5646 1867.77,-53.9253 1957,-32 1959.5,-31.3851 1962.05,-30.5682 1964.55,-29.6322"/>
<polygon fill="midnightblue" stroke="midnightblue" points="1966.05,-32.7971 1973.83,-25.6069 1963.26,-26.3751 1966.05,-32.7971"/>
</g>
<!-- Node18 -->
<g id="node18" class="node"><title>Node18</title>
<polygon fill="none" stroke="#bfbfbf" points="408.5,-6.5 408.5,-25.5 491.5,-25.5 491.5,-6.5 408.5,-6.5"/>
<text text-anchor="middle" x="450" y="-13.5" font-family="Helvetica,sans-Serif" font-size="10.00">unordered_map</text>
</g>
<!-- Node8&#45;&gt;Node18 -->
<g id="edge17" class="edge"><title>Node8&#45;&gt;Node18</title>
<path fill="none" stroke="midnightblue" d="M827.241,-71.8596C740.795,-66.0544 611.031,-54.345 500,-32 495.147,-31.0233 490.088,-29.7804 485.133,-28.4295"/>
<polygon fill="midnightblue" stroke="midnightblue" points="485.784,-24.9744 475.205,-25.5553 483.837,-31.6982 485.784,-24.9744"/>
</g>
<!-- Node19 -->
<g id="node19" class="node"><title>Node19</title>
<polygon fill="none" stroke="#bfbfbf" points="509.5,-6.5 509.5,-25.5 606.5,-25.5 606.5,-6.5 509.5,-6.5"/>
<text text-anchor="middle" x="558" y="-13.5" font-family="Helvetica,sans-Serif" font-size="10.00">FairMQMessage.h</text>
</g>
<!-- Node8&#45;&gt;Node19 -->
<g id="edge18" class="edge"><title>Node8&#45;&gt;Node19</title>
<path fill="none" stroke="midnightblue" d="M848.978,-68.4769C786.149,-60.7654 694.283,-48.1514 615,-32 609.283,-30.8354 603.285,-29.4455 597.415,-27.9884"/>
<polygon fill="midnightblue" stroke="midnightblue" points="598.286,-24.5984 587.73,-25.5008 596.545,-31.3784 598.286,-24.5984"/>
</g>
<!-- Node20 -->
<g id="node20" class="node"><title>Node20</title>
<polygon fill="none" stroke="#bfbfbf" points="624.5,-6.5 624.5,-25.5 755.5,-25.5 755.5,-6.5 624.5,-6.5"/>
<text text-anchor="middle" x="690" y="-13.5" font-family="Helvetica,sans-Serif" font-size="10.00">FairMQTransportFactory.h</text>
</g>
<!-- Node8&#45;&gt;Node20 -->
<g id="edge19" class="edge"><title>Node8&#45;&gt;Node20</title>
<path fill="none" stroke="midnightblue" d="M890.474,-68.4035C849.118,-57.7995 778.729,-39.7511 733.316,-28.1067"/>
<polygon fill="midnightblue" stroke="midnightblue" points="734.02,-24.6741 723.464,-25.5806 732.282,-31.4547 734.02,-24.6741"/>
</g>
<!-- Node21 -->
<g id="node21" class="node"><title>Node21</title>
<polygon fill="none" stroke="#bfbfbf" points="773.5,-6.5 773.5,-25.5 910.5,-25.5 910.5,-6.5 773.5,-6.5"/>
<text text-anchor="middle" x="842" y="-13.5" font-family="Helvetica,sans-Serif" font-size="10.00">fairmq/MemoryResources.h</text>
</g>
<!-- Node8&#45;&gt;Node21 -->
<g id="edge20" class="edge"><title>Node8&#45;&gt;Node21</title>
<path fill="none" stroke="midnightblue" d="M912.251,-68.4035C899.099,-58.7797 877.566,-43.0242 861.802,-31.4891"/>
<polygon fill="midnightblue" stroke="midnightblue" points="863.864,-28.6611 853.727,-25.5806 859.73,-34.3103 863.864,-28.6611"/>
</g>
<!-- Node22 -->
<g id="node22" class="node"><title>Node22</title>
<polygon fill="none" stroke="#bfbfbf" points="929,-6.5 929,-25.5 1085,-25.5 1085,-6.5 929,-6.5"/>
<text text-anchor="middle" x="1007" y="-13.5" font-family="Helvetica,sans-Serif" font-size="10.00">fairmq/MemoryResourceTools.h</text>
</g>
<!-- Node8&#45;&gt;Node22 -->
<g id="edge21" class="edge"><title>Node8&#45;&gt;Node22</title>
<path fill="none" stroke="midnightblue" d="M935.892,-68.4035C949.205,-58.7797 971,-43.0242 986.957,-31.4891"/>
<polygon fill="midnightblue" stroke="midnightblue" points="989.076,-34.2756 995.13,-25.5806 984.975,-28.6026 989.076,-34.2756"/>
</g>
<!-- Node23&#45;&gt;Node13 -->
<g id="edge26" class="edge"><title>Node23&#45;&gt;Node13</title>
<path fill="none" stroke="midnightblue" d="M1562.99,-68.4754C1538.16,-59.8479 1499.12,-45.8409 1466,-32 1464.37,-31.3169 1462.69,-30.597 1461.01,-29.8574"/>
<polygon fill="midnightblue" stroke="midnightblue" points="1462.04,-26.4791 1451.49,-25.5235 1459.14,-32.8507 1462.04,-26.4791"/>
</g>
<!-- Node23&#45;&gt;Node14 -->
<g id="edge29" class="edge"><title>Node23&#45;&gt;Node14</title>
<path fill="none" stroke="midnightblue" d="M1574.82,-68.4035C1559.93,-58.6905 1535.46,-42.7319 1517.73,-31.1697"/>
<polygon fill="midnightblue" stroke="midnightblue" points="1519.44,-28.1117 1509.16,-25.5806 1515.62,-33.975 1519.44,-28.1117"/>
</g>
<!-- Node24 -->
<g id="node24" class="node"><title>Node24</title>
<polygon fill="none" stroke="#bfbfbf" points="1535,-6.5 1535,-25.5 1581,-25.5 1581,-6.5 1535,-6.5"/>
<text text-anchor="middle" x="1558" y="-13.5" font-family="Helvetica,sans-Serif" font-size="10.00">cstdint</text>
</g>
<!-- Node23&#45;&gt;Node24 -->
<g id="edge23" class="edge"><title>Node23&#45;&gt;Node24</title>
<path fill="none" stroke="midnightblue" d="M1583.7,-68.4035C1579.34,-59.6707 1572.44,-45.8893 1566.9,-34.7936"/>
<polygon fill="midnightblue" stroke="midnightblue" points="1569.89,-32.9596 1562.29,-25.5806 1563.63,-36.0901 1569.89,-32.9596"/>
</g>
<!-- Node25 -->
<g id="node25" class="node"><title>Node25</title>
<polygon fill="none" stroke="#bfbfbf" points="1599,-6.5 1599,-25.5 1651,-25.5 1651,-6.5 1599,-6.5"/>
<text text-anchor="middle" x="1625" y="-13.5" font-family="Helvetica,sans-Serif" font-size="10.00">memory</text>
</g>
<!-- Node23&#45;&gt;Node25 -->
<g id="edge24" class="edge"><title>Node23&#45;&gt;Node25</title>
<path fill="none" stroke="midnightblue" d="M1593.3,-68.4035C1598.8,-59.4925 1607.53,-45.3247 1614.44,-34.1177"/>
<polygon fill="midnightblue" stroke="midnightblue" points="1617.44,-35.9294 1619.71,-25.5806 1611.48,-32.2552 1617.44,-35.9294"/>
</g>
<!-- Node26 -->
<g id="node26" class="node"><title>Node26</title>
<polygon fill="none" stroke="#bfbfbf" points="1669.5,-6.5 1669.5,-25.5 1718.5,-25.5 1718.5,-6.5 1669.5,-6.5"/>
<text text-anchor="middle" x="1694" y="-13.5" font-family="Helvetica,sans-Serif" font-size="10.00">cassert</text>
</g>
<!-- Node23&#45;&gt;Node26 -->
<g id="edge25" class="edge"><title>Node23&#45;&gt;Node26</title>
<path fill="none" stroke="midnightblue" d="M1603.19,-68.4035C1620.66,-58.5123 1649.58,-42.1442 1670.08,-30.5378"/>
<polygon fill="midnightblue" stroke="midnightblue" points="1671.86,-33.5525 1678.84,-25.5806 1668.41,-27.4607 1671.86,-33.5525"/>
</g>
<!-- Node27 -->
<g id="node27" class="node"><title>Node27</title>
<polygon fill="none" stroke="#bfbfbf" points="1737,-6.5 1737,-25.5 1793,-25.5 1793,-6.5 1737,-6.5"/>
<text text-anchor="middle" x="1765" y="-13.5" font-family="Helvetica,sans-Serif" font-size="10.00">algorithm</text>
</g>
<!-- Node23&#45;&gt;Node27 -->
<g id="edge27" class="edge"><title>Node23&#45;&gt;Node27</title>
<path fill="none" stroke="midnightblue" d="M1616.13,-68.4629C1644.33,-59.7702 1688.92,-45.6645 1727,-32 1729.39,-31.1406 1731.86,-30.2275 1734.34,-29.2926"/>
<polygon fill="midnightblue" stroke="midnightblue" points="1735.72,-32.5134 1743.79,-25.6465 1733.2,-25.9832 1735.72,-32.5134"/>
</g>
<!-- Node23&#45;&gt;Node28 -->
<g id="edge28" class="edge"><title>Node23&#45;&gt;Node28</title>
<path fill="none" stroke="midnightblue" d="M1646.56,-69.6633C1651.44,-69.087 1656.3,-68.5255 1661,-68 1819.92,-50.2153 1863.28,-68.3783 2019,-32 2022.5,-31.1822 2026.11,-30.1364 2029.66,-28.9783"/>
<polygon fill="midnightblue" stroke="midnightblue" points="2031.13,-32.1693 2039.37,-25.5127 2028.78,-25.5763 2031.13,-32.1693"/>
</g>
<!-- Node29 -->
<g id="node29" class="node"><title>Node29</title>
<g id="a_node29"><a xlink:href="../../d7/df8/Types_8h.html" target="_top" xlink:title="MemoryResources/Types.h">
<polygon fill="none" stroke="black" points="1811.5,-6.5 1811.5,-25.5 1948.5,-25.5 1948.5,-6.5 1811.5,-6.5"/>
<text text-anchor="middle" x="1880" y="-13.5" font-family="Helvetica,sans-Serif" font-size="10.00">MemoryResources/Types.h</text>
</a>
</g>
</g>
<!-- Node23&#45;&gt;Node29 -->
<g id="edge30" class="edge"><title>Node23&#45;&gt;Node29</title>
<path fill="none" stroke="midnightblue" d="M1629.53,-68.4672C1681.96,-57.6933 1772.14,-39.1623 1828.79,-27.5223"/>
<polygon fill="midnightblue" stroke="midnightblue" points="1829.53,-30.9446 1838.62,-25.5034 1828.12,-24.0878 1829.53,-30.9446"/>
</g>
<!-- Node30&#45;&gt;Node8 -->
<g id="edge32" class="edge"><title>Node30&#45;&gt;Node8</title>
<path fill="none" stroke="midnightblue" d="M1405.61,-128.349C1319.58,-119.533 1131.19,-100.23 1017.19,-88.5493"/>
<polygon fill="midnightblue" stroke="midnightblue" points="1017.39,-85.0507 1007.08,-87.5131 1016.67,-92.0142 1017.39,-85.0507"/>
</g>
<!-- Node30&#45;&gt;Node23 -->
<g id="edge33" class="edge"><title>Node30&#45;&gt;Node23</title>
<path fill="none" stroke="midnightblue" d="M1472.71,-124.444C1495.35,-115.517 1531.07,-101.439 1556.75,-91.3168"/>
<polygon fill="midnightblue" stroke="midnightblue" points="1558.37,-94.4397 1566.39,-87.5164 1555.81,-87.9273 1558.37,-94.4397"/>
</g>
</g>
</svg>
