<?xml version="1.0" encoding="UTF-8" standalone="no"?>
<!DOCTYPE svg PUBLIC "-//W3C//DTD SVG 1.1//EN"
 "http://www.w3.org/Graphics/SVG/1.1/DTD/svg11.dtd">
<!-- Generated by graphviz version 2.36.0 (20140111.2315)
 -->
<!-- Title: /home/travis/build/AliceO2Group/AliceO2/Detectors/EMCAL/simulation/include/EMCALSimulation/Digitizer.h Pages: 1 -->
<svg width="2832pt" height="390pt"
 viewBox="0.00 0.00 2832.00 390.00" xmlns="http://www.w3.org/2000/svg" xmlns:xlink="http://www.w3.org/1999/xlink">
<g id="graph0" class="graph" transform="scale(1 1) rotate(0) translate(4 386)">
<title>/home/travis/build/AliceO2Group/AliceO2/Detectors/EMCAL/simulation/include/EMCALSimulation/Digitizer.h</title>
<!-- Node1 -->
<g id="node1" class="node"><title>Node1</title>
<polygon fill="#bfbfbf" stroke="black" points="447.5,-329 447.5,-381 628.5,-381 628.5,-329 447.5,-329"/>
<text text-anchor="start" x="455.5" y="-369" font-family="Helvetica,sans-Serif" font-size="10.00">/home/travis/build</text>
<text text-anchor="start" x="455.5" y="-358" font-family="Helvetica,sans-Serif" font-size="10.00">/AliceO2Group/AliceO2</text>
<text text-anchor="start" x="455.5" y="-347" font-family="Helvetica,sans-Serif" font-size="10.00">/Detectors/EMCAL/simulation</text>
<text text-anchor="middle" x="538" y="-336" font-family="Helvetica,sans-Serif" font-size="10.00">/include/EMCALSimulation/Digitizer.h</text>
</g>
<!-- Node2 -->
<g id="node2" class="node"><title>Node2</title>
<polygon fill="none" stroke="#bfbfbf" points="0,-272.5 0,-291.5 52,-291.5 52,-272.5 0,-272.5"/>
<text text-anchor="middle" x="26" y="-279.5" font-family="Helvetica,sans-Serif" font-size="10.00">memory</text>
</g>
<!-- Node1&#45;&gt;Node2 -->
<g id="edge1" class="edge"><title>Node1&#45;&gt;Node2</title>
<path fill="none" stroke="midnightblue" d="M447.359,-345.556C353.269,-336.032 201.759,-318.574 62.3133,-292.055"/>
<polygon fill="midnightblue" stroke="midnightblue" points="62.7759,-288.58 52.2951,-290.13 61.4549,-295.454 62.7759,-288.58"/>
</g>
<!-- Node3 -->
<g id="node3" class="node"><title>Node3</title>
<polygon fill="none" stroke="#bfbfbf" points="70.5,-272.5 70.5,-291.5 153.5,-291.5 153.5,-272.5 70.5,-272.5"/>
<text text-anchor="middle" x="112" y="-279.5" font-family="Helvetica,sans-Serif" font-size="10.00">unordered_map</text>
</g>
<!-- Node1&#45;&gt;Node3 -->
<g id="edge2" class="edge"><title>Node1&#45;&gt;Node3</title>
<path fill="none" stroke="midnightblue" d="M447.146,-339.402C373.335,-327.453 266.25,-309.916 163.648,-292.267"/>
<polygon fill="midnightblue" stroke="midnightblue" points="164.183,-288.808 153.734,-290.559 162.994,-295.707 164.183,-288.808"/>
</g>
<!-- Node4 -->
<g id="node4" class="node"><title>Node4</title>
<polygon fill="none" stroke="#bfbfbf" points="867,-142.5 867,-161.5 911,-161.5 911,-142.5 867,-142.5"/>
<text text-anchor="middle" x="889" y="-149.5" font-family="Helvetica,sans-Serif" font-size="10.00">vector</text>
</g>
<!-- Node1&#45;&gt;Node4 -->
<g id="edge3" class="edge"><title>Node1&#45;&gt;Node4</title>
<path fill="none" stroke="midnightblue" d="M581.745,-328.95C656.6,-286.084 806.817,-200.062 865.11,-166.681"/>
<polygon fill="midnightblue" stroke="midnightblue" points="867.023,-169.618 873.962,-161.612 863.545,-163.544 867.023,-169.618"/>
</g>
<!-- Node5 -->
<g id="node5" class="node"><title>Node5</title>
<polygon fill="none" stroke="#bfbfbf" points="336.5,-272.5 336.5,-291.5 379.5,-291.5 379.5,-272.5 336.5,-272.5"/>
<text text-anchor="middle" x="358" y="-279.5" font-family="Helvetica,sans-Serif" font-size="10.00">deque</text>
</g>
<!-- Node1&#45;&gt;Node5 -->
<g id="edge4" class="edge"><title>Node1&#45;&gt;Node5</title>
<path fill="none" stroke="midnightblue" d="M474.539,-328.968C445.667,-317.58 412.793,-304.613 389.338,-295.361"/>
<polygon fill="midnightblue" stroke="midnightblue" points="390.488,-292.052 379.901,-291.639 387.92,-298.564 390.488,-292.052"/>
</g>
<!-- Node6 -->
<g id="node6" class="node"><title>Node6</title>
<polygon fill="none" stroke="#bfbfbf" points="405,-74.5 405,-93.5 461,-93.5 461,-74.5 405,-74.5"/>
<text text-anchor="middle" x="433" y="-81.5" font-family="Helvetica,sans-Serif" font-size="10.00">Rtypes.h</text>
</g>
<!-- Node1&#45;&gt;Node6 -->
<g id="edge5" class="edge"><title>Node1&#45;&gt;Node6</title>
<path fill="none" stroke="midnightblue" d="M481.233,-328.876C423.043,-299.631 335.876,-245.274 298,-168 291.74,-155.229 289.913,-147.699 298,-136 319.566,-104.799 362.835,-92.6651 394.597,-87.9584"/>
<polygon fill="midnightblue" stroke="midnightblue" points="395.411,-91.3825 404.88,-86.6301 394.514,-84.4401 395.411,-91.3825"/>
</g>
<!-- Node7 -->
<g id="node7" class="node"><title>Node7</title>
<polygon fill="none" stroke="#bfbfbf" points="479.5,-272.5 479.5,-291.5 538.5,-291.5 538.5,-272.5 479.5,-272.5"/>
<text text-anchor="middle" x="509" y="-279.5" font-family="Helvetica,sans-Serif" font-size="10.00">TObject.h</text>
</g>
<!-- Node1&#45;&gt;Node7 -->
<g id="edge6" class="edge"><title>Node1&#45;&gt;Node7</title>
<path fill="none" stroke="midnightblue" d="M527.694,-328.768C523.985,-319.688 519.876,-309.627 516.457,-301.256"/>
<polygon fill="midnightblue" stroke="midnightblue" points="519.598,-299.691 512.577,-291.757 513.118,-302.338 519.598,-299.691"/>
</g>
<!-- Node8 -->
<g id="node8" class="node"><title>Node8</title>
<g id="a_node8"><a xlink:href="../../dd/dc7/EMCAL_2base_2include_2EMCALBase_2Digit_8h.html" target="_top" xlink:title="EMCALBase/Digit.h">
<polygon fill="none" stroke="black" points="514.5,-210.5 514.5,-229.5 619.5,-229.5 619.5,-210.5 514.5,-210.5"/>
<text text-anchor="middle" x="567" y="-217.5" font-family="Helvetica,sans-Serif" font-size="10.00">EMCALBase/Digit.h</text>
</a>
</g>
</g>
<!-- Node1&#45;&gt;Node8 -->
<g id="edge7" class="edge"><title>Node1&#45;&gt;Node8</title>
<path fill="none" stroke="midnightblue" d="M543.455,-328.984C549.123,-302.988 557.862,-262.91 562.947,-239.59"/>
<polygon fill="midnightblue" stroke="midnightblue" points="566.409,-240.139 565.12,-229.622 559.57,-238.647 566.409,-240.139"/>
</g>
<!-- Node14 -->
<g id="node14" class="node"><title>Node14</title>
<g id="a_node14"><a xlink:href="../../dd/da8/EMCAL_2base_2include_2EMCALBase_2Geometry_8h.html" target="_top" xlink:title="EMCALBase/Geometry.h">
<polygon fill="none" stroke="black" points="1158,-210.5 1158,-229.5 1286,-229.5 1286,-210.5 1158,-210.5"/>
<text text-anchor="middle" x="1222" y="-217.5" font-family="Helvetica,sans-Serif" font-size="10.00">EMCALBase/Geometry.h</text>
</a>
</g>
</g>
<!-- Node1&#45;&gt;Node14 -->
<g id="edge16" class="edge"><title>Node1&#45;&gt;Node14</title>
<path fill="none" stroke="midnightblue" d="M628.83,-336.339C773.283,-308.251 1050.97,-254.255 1167.95,-231.51"/>
<polygon fill="midnightblue" stroke="midnightblue" points="1168.94,-234.882 1178.09,-229.538 1167.61,-228.011 1168.94,-234.882"/>
</g>
<!-- Node23 -->
<g id="node23" class="node"><title>Node23</title>
<g id="a_node23"><a xlink:href="../../d5/d5e/GeometryBase_8h.html" target="_top" xlink:title="EMCALBase/GeometryBase.h">
<polygon fill="none" stroke="black" points="1364,-142.5 1364,-161.5 1514,-161.5 1514,-142.5 1364,-142.5"/>
<text text-anchor="middle" x="1439" y="-149.5" font-family="Helvetica,sans-Serif" font-size="10.00">EMCALBase/GeometryBase.h</text>
</a>
</g>
</g>
<!-- Node1&#45;&gt;Node23 -->
<g id="edge42" class="edge"><title>Node1&#45;&gt;Node23</title>
<path fill="none" stroke="midnightblue" d="M628.59,-350.58C773.302,-342.776 1063.86,-317.441 1295,-236 1342.68,-219.2 1392.54,-186.522 1419.27,-167.566"/>
<polygon fill="midnightblue" stroke="midnightblue" points="1421.34,-170.39 1427.41,-161.707 1417.25,-164.708 1421.34,-170.39"/>
</g>
<!-- Node34 -->
<g id="node34" class="node"><title>Node34</title>
<g id="a_node34"><a xlink:href="../../d5/d8b/EMCAL_2base_2include_2EMCALBase_2Hit_8h.html" target="_top" xlink:title="EMCALBase/Hit.h">
<polygon fill="none" stroke="black" points="1584,-272.5 1584,-291.5 1682,-291.5 1682,-272.5 1584,-272.5"/>
<text text-anchor="middle" x="1633" y="-279.5" font-family="Helvetica,sans-Serif" font-size="10.00">EMCALBase/Hit.h</text>
</a>
</g>
</g>
<!-- Node1&#45;&gt;Node34 -->
<g id="edge43" class="edge"><title>Node1&#45;&gt;Node34</title>
<path fill="none" stroke="midnightblue" d="M628.54,-348.129C845.932,-334.034 1392.75,-298.578 1573.77,-286.84"/>
<polygon fill="midnightblue" stroke="midnightblue" points="1574.15,-290.324 1583.9,-286.184 1573.69,-283.338 1574.15,-290.324"/>
</g>
<!-- Node43 -->
<g id="node43" class="node"><title>Node43</title>
<g id="a_node43"><a xlink:href="../../d2/d7a/EMCAL_2simulation_2include_2EMCALSimulation_2MCLabel_8h.html" target="_top" xlink:title="EMCALSimulation/MCLabel.h">
<polygon fill="none" stroke="black" points="171.5,-272.5 171.5,-291.5 318.5,-291.5 318.5,-272.5 171.5,-272.5"/>
<text text-anchor="middle" x="245" y="-279.5" font-family="Helvetica,sans-Serif" font-size="10.00">EMCALSimulation/MCLabel.h</text>
</a>
</g>
</g>
<!-- Node1&#45;&gt;Node43 -->
<g id="edge53" class="edge"><title>Node1&#45;&gt;Node43</title>
<path fill="none" stroke="midnightblue" d="M447.3,-332.021C395.13,-319.38 331.861,-304.048 290.127,-293.935"/>
<polygon fill="midnightblue" stroke="midnightblue" points="290.804,-290.498 280.261,-291.544 289.155,-297.301 290.804,-290.498"/>
</g>
<!-- Node45 -->
<g id="node45" class="node"><title>Node45</title>
<g id="a_node45"><a xlink:href="../../db/d14/MCTruthContainer_8h.html" target="_top" xlink:title="Definition of a container to keep Monte Carlo truth external to simulation objects. ">
<polygon fill="none" stroke="black" points="2558,-205 2558,-235 2672,-235 2672,-205 2558,-205"/>
<text text-anchor="start" x="2566" y="-223" font-family="Helvetica,sans-Serif" font-size="10.00">SimulationDataFormat</text>
<text text-anchor="middle" x="2615" y="-212" font-family="Helvetica,sans-Serif" font-size="10.00">/MCTruthContainer.h</text>
</a>
</g>
</g>
<!-- Node1&#45;&gt;Node45 -->
<g id="edge56" class="edge"><title>Node1&#45;&gt;Node45</title>
<path fill="none" stroke="midnightblue" d="M628.903,-350.034C905.174,-337.638 1759.14,-296.784 2465,-236 2492.05,-233.671 2521.8,-230.766 2547.63,-228.135"/>
<polygon fill="midnightblue" stroke="midnightblue" points="2548.1,-231.605 2557.7,-227.104 2547.39,-224.642 2548.1,-231.605"/>
</g>
<!-- Node8&#45;&gt;Node6 -->
<g id="edge10" class="edge"><title>Node8&#45;&gt;Node6</title>
<path fill="none" stroke="midnightblue" d="M514.433,-216.297C446.427,-211.574 333.615,-199.15 308,-168 279.021,-132.759 348.207,-106.888 394.799,-94.0618"/>
<polygon fill="midnightblue" stroke="midnightblue" points="395.874,-97.3978 404.643,-91.4506 394.08,-90.6318 395.874,-97.3978"/>
</g>
<!-- Node9 -->
<g id="node9" class="node"><title>Node9</title>
<polygon fill="none" stroke="#bfbfbf" points="1070.5,-74.5 1070.5,-93.5 1115.5,-93.5 1115.5,-74.5 1070.5,-74.5"/>
<text text-anchor="middle" x="1093" y="-81.5" font-family="Helvetica,sans-Serif" font-size="10.00">iosfwd</text>
</g>
<!-- Node8&#45;&gt;Node9 -->
<g id="edge8" class="edge"><title>Node8&#45;&gt;Node9</title>
<path fill="none" stroke="midnightblue" d="M588.343,-210.485C610.162,-201.362 644.637,-185.772 672,-168 690.517,-155.973 689.672,-144.62 710,-136 854.375,-74.7805 909.874,-141.869 1061,-100 1063.34,-99.3504 1065.73,-98.542 1068.09,-97.6398"/>
<polygon fill="midnightblue" stroke="midnightblue" points="1069.68,-100.766 1077.45,-93.5681 1066.89,-94.3466 1069.68,-100.766"/>
</g>
<!-- Node10 -->
<g id="node10" class="node"><title>Node10</title>
<polygon fill="none" stroke="#bfbfbf" points="431,-142.5 431,-161.5 475,-161.5 475,-142.5 431,-142.5"/>
<text text-anchor="middle" x="453" y="-149.5" font-family="Helvetica,sans-Serif" font-size="10.00">cmath</text>
</g>
<!-- Node8&#45;&gt;Node10 -->
<g id="edge9" class="edge"><title>Node8&#45;&gt;Node10</title>
<path fill="none" stroke="midnightblue" d="M552.096,-210.372C532.894,-199.254 499.29,-179.8 476.599,-166.662"/>
<polygon fill="midnightblue" stroke="midnightblue" points="478.315,-163.612 467.907,-161.63 474.808,-169.67 478.315,-163.612"/>
</g>
<!-- Node11 -->
<g id="node11" class="node"><title>Node11</title>
<g id="a_node11"><a xlink:href="../../df/d5d/common_2include_2CommonDataFormat_2TimeStamp_8h.html" target="_top" xlink:title="CommonDataFormat/TimeStamp.h">
<polygon fill="none" stroke="black" points="493,-142.5 493,-161.5 663,-161.5 663,-142.5 493,-142.5"/>
<text text-anchor="middle" x="578" y="-149.5" font-family="Helvetica,sans-Serif" font-size="10.00">CommonDataFormat/TimeStamp.h</text>
</a>
</g>
</g>
<!-- Node8&#45;&gt;Node11 -->
<g id="edge11" class="edge"><title>Node8&#45;&gt;Node11</title>
<path fill="none" stroke="midnightblue" d="M568.438,-210.372C570.06,-200.643 572.745,-184.528 574.858,-171.85"/>
<polygon fill="midnightblue" stroke="midnightblue" points="578.335,-172.28 576.526,-161.841 571.43,-171.13 578.335,-172.28"/>
</g>
<!-- Node12 -->
<g id="node12" class="node"><title>Node12</title>
<g id="a_node12"><a xlink:href="../../d4/d82/Detectors_2EMCAL_2base_2include_2EMCALBase_2Constants_8h.html" target="_top" xlink:title="EMCALBase/Constants.h">
<polygon fill="none" stroke="black" points="719,-142.5 719,-161.5 849,-161.5 849,-142.5 719,-142.5"/>
<text text-anchor="middle" x="784" y="-149.5" font-family="Helvetica,sans-Serif" font-size="10.00">EMCALBase/Constants.h</text>
</a>
</g>
</g>
<!-- Node8&#45;&gt;Node12 -->
<g id="edge13" class="edge"><title>Node8&#45;&gt;Node12</title>
<path fill="none" stroke="midnightblue" d="M595.369,-210.372C633.977,-198.629 703.168,-177.585 746.162,-164.508"/>
<polygon fill="midnightblue" stroke="midnightblue" points="747.419,-167.784 755.968,-161.526 745.382,-161.087 747.419,-167.784"/>
</g>
<!-- Node13 -->
<g id="node13" class="node"><title>Node13</title>
<polygon fill="none" stroke="#bfbfbf" points="317.5,-137 317.5,-167 412.5,-167 412.5,-137 317.5,-137"/>
<text text-anchor="start" x="325.5" y="-155" font-family="Helvetica,sans-Serif" font-size="10.00">boost/serialization</text>
<text text-anchor="middle" x="365" y="-144" font-family="Helvetica,sans-Serif" font-size="10.00">/base_object.hpp</text>
</g>
<!-- Node8&#45;&gt;Node13 -->
<g id="edge15" class="edge"><title>Node8&#45;&gt;Node13</title>
<path fill="none" stroke="midnightblue" d="M540.592,-210.372C509.537,-200.225 457.224,-183.133 417.757,-170.237"/>
<polygon fill="midnightblue" stroke="midnightblue" points="418.613,-166.835 408.021,-167.056 416.439,-173.489 418.613,-166.835"/>
</g>
<!-- Node11&#45;&gt;Node6 -->
<g id="edge12" class="edge"><title>Node11&#45;&gt;Node6</title>
<path fill="none" stroke="midnightblue" d="M559.044,-142.372C534.077,-131.007 489.969,-110.931 461.113,-97.7961"/>
<polygon fill="midnightblue" stroke="midnightblue" points="462.512,-94.5877 451.961,-93.6305 459.612,-100.959 462.512,-94.5877"/>
</g>
<!-- Node12&#45;&gt;Node6 -->
<g id="edge14" class="edge"><title>Node12&#45;&gt;Node6</title>
<path fill="none" stroke="midnightblue" d="M738.473,-142.439C668.572,-129.296 536.087,-104.384 471.01,-92.1472"/>
<polygon fill="midnightblue" stroke="midnightblue" points="471.639,-88.7042 461.165,-90.2959 470.345,-95.5836 471.639,-88.7042"/>
</g>
<!-- Node14&#45;&gt;Node4 -->
<g id="edge20" class="edge"><title>Node14&#45;&gt;Node4</title>
<path fill="none" stroke="midnightblue" d="M1157.71,-213.47C1095.71,-206.901 999.781,-193.466 920,-168 917.871,-167.32 915.703,-166.52 913.553,-165.647"/>
<polygon fill="midnightblue" stroke="midnightblue" points="914.969,-162.447 904.415,-161.521 912.089,-168.827 914.969,-162.447"/>
</g>
<!-- Node14&#45;&gt;Node12 -->
<g id="edge26" class="edge"><title>Node14&#45;&gt;Node12</title>
<path fill="none" stroke="midnightblue" d="M1157.71,-211.192C1084.83,-202.064 962.565,-185.906 858,-168 850.187,-166.662 841.937,-165.119 833.891,-163.543"/>
<polygon fill="midnightblue" stroke="midnightblue" points="834.349,-160.066 823.857,-161.542 832.98,-166.93 834.349,-160.066"/>
</g>
<!-- Node15 -->
<g id="node15" class="node"><title>Node15</title>
<polygon fill="none" stroke="#bfbfbf" points="1192.5,-142.5 1192.5,-161.5 1251.5,-161.5 1251.5,-142.5 1192.5,-142.5"/>
<text text-anchor="middle" x="1222" y="-149.5" font-family="Helvetica,sans-Serif" font-size="10.00">exception</text>
</g>
<!-- Node14&#45;&gt;Node15 -->
<g id="edge17" class="edge"><title>Node14&#45;&gt;Node15</title>
<path fill="none" stroke="midnightblue" d="M1222,-210.372C1222,-200.643 1222,-184.528 1222,-171.85"/>
<polygon fill="midnightblue" stroke="midnightblue" points="1225.5,-171.841 1222,-161.841 1218.5,-171.841 1225.5,-171.841"/>
</g>
<!-- Node16 -->
<g id="node16" class="node"><title>Node16</title>
<polygon fill="none" stroke="#bfbfbf" points="1011.5,-74.5 1011.5,-93.5 1052.5,-93.5 1052.5,-74.5 1011.5,-74.5"/>
<text text-anchor="middle" x="1032" y="-81.5" font-family="Helvetica,sans-Serif" font-size="10.00">string</text>
</g>
<!-- Node14&#45;&gt;Node16 -->
<g id="edge18" class="edge"><title>Node14&#45;&gt;Node16</title>
<path fill="none" stroke="midnightblue" d="M1231.59,-210.412C1248.37,-194.368 1279.5,-159.361 1260,-136 1202.69,-67.3302 1146.85,-128.284 1062,-100 1060.14,-99.3785 1058.24,-98.6602 1056.36,-97.8814"/>
<polygon fill="midnightblue" stroke="midnightblue" points="1057.76,-94.6726 1047.21,-93.6512 1054.82,-101.026 1057.76,-94.6726"/>
</g>
<!-- Node17 -->
<g id="node17" class="node"><title>Node17</title>
<polygon fill="none" stroke="#bfbfbf" points="1308,-142.5 1308,-161.5 1346,-161.5 1346,-142.5 1308,-142.5"/>
<text text-anchor="middle" x="1327" y="-149.5" font-family="Helvetica,sans-Serif" font-size="10.00">tuple</text>
</g>
<!-- Node14&#45;&gt;Node17 -->
<g id="edge19" class="edge"><title>Node14&#45;&gt;Node17</title>
<path fill="none" stroke="midnightblue" d="M1235.73,-210.372C1253.26,-199.353 1283.81,-180.145 1304.7,-167.014"/>
<polygon fill="midnightblue" stroke="midnightblue" points="1306.67,-169.915 1313.27,-161.63 1302.94,-163.989 1306.67,-169.915"/>
</g>
<!-- Node18 -->
<g id="node18" class="node"><title>Node18</title>
<polygon fill="none" stroke="#bfbfbf" points="929,-142.5 929,-161.5 1009,-161.5 1009,-142.5 929,-142.5"/>
<text text-anchor="middle" x="969" y="-149.5" font-family="Helvetica,sans-Serif" font-size="10.00">RStringView.h</text>
</g>
<!-- Node14&#45;&gt;Node18 -->
<g id="edge21" class="edge"><title>Node14&#45;&gt;Node18</title>
<path fill="none" stroke="midnightblue" d="M1185.37,-210.45C1144.42,-200.751 1076.21,-184.175 1018,-168 1013.95,-166.875 1009.73,-165.654 1005.53,-164.411"/>
<polygon fill="midnightblue" stroke="midnightblue" points="1006.47,-161.038 995.884,-161.505 1004.45,-167.741 1006.47,-161.038"/>
</g>
<!-- Node19 -->
<g id="node19" class="node"><title>Node19</title>
<polygon fill="none" stroke="#bfbfbf" points="1204,-74.5 1204,-93.5 1280,-93.5 1280,-74.5 1204,-74.5"/>
<text text-anchor="middle" x="1242" y="-81.5" font-family="Helvetica,sans-Serif" font-size="10.00">TGeoMatrix.h</text>
</g>
<!-- Node14&#45;&gt;Node19 -->
<g id="edge22" class="edge"><title>Node14&#45;&gt;Node19</title>
<path fill="none" stroke="midnightblue" d="M1286.18,-217.434C1365.15,-213.995 1492.43,-203.018 1522,-168 1575.19,-105.009 1518.49,-154.004 1289,-100 1284.78,-99.0068 1280.39,-97.8198 1276.06,-96.5545"/>
<polygon fill="midnightblue" stroke="midnightblue" points="1276.78,-93.1128 1266.19,-93.5144 1274.72,-99.8027 1276.78,-93.1128"/>
</g>
<!-- Node20 -->
<g id="node20" class="node"><title>Node20</title>
<polygon fill="none" stroke="#bfbfbf" points="2474,-142.5 2474,-161.5 2536,-161.5 2536,-142.5 2474,-142.5"/>
<text text-anchor="middle" x="2505" y="-149.5" font-family="Helvetica,sans-Serif" font-size="10.00">TNamed.h</text>
</g>
<!-- Node14&#45;&gt;Node20 -->
<g id="edge23" class="edge"><title>Node14&#45;&gt;Node20</title>
<path fill="none" stroke="midnightblue" d="M1286.22,-216.143C1355.5,-213.076 1469.06,-208.092 1567,-204 1766.54,-195.662 2269.24,-207.564 2465,-168 2468.71,-167.251 2472.53,-166.205 2476.26,-165.01"/>
<polygon fill="midnightblue" stroke="midnightblue" points="2477.59,-168.253 2485.83,-161.601 2475.24,-161.659 2477.59,-168.253"/>
</g>
<!-- Node21 -->
<g id="node21" class="node"><title>Node21</title>
<polygon fill="none" stroke="#bfbfbf" points="1027,-142.5 1027,-161.5 1091,-161.5 1091,-142.5 1027,-142.5"/>
<text text-anchor="middle" x="1059" y="-149.5" font-family="Helvetica,sans-Serif" font-size="10.00">TParticle.h</text>
</g>
<!-- Node14&#45;&gt;Node21 -->
<g id="edge24" class="edge"><title>Node14&#45;&gt;Node21</title>
<path fill="none" stroke="midnightblue" d="M1200.69,-210.372C1172.3,-198.877 1121.9,-178.469 1089.49,-165.346"/>
<polygon fill="midnightblue" stroke="midnightblue" points="1090.64,-162.035 1080.06,-161.526 1088.01,-168.523 1090.64,-162.035"/>
</g>
<!-- Node22 -->
<g id="node22" class="node"><title>Node22</title>
<polygon fill="none" stroke="#bfbfbf" points="1109.5,-142.5 1109.5,-161.5 1174.5,-161.5 1174.5,-142.5 1109.5,-142.5"/>
<text text-anchor="middle" x="1142" y="-149.5" font-family="Helvetica,sans-Serif" font-size="10.00">TVector3.h</text>
</g>
<!-- Node14&#45;&gt;Node22 -->
<g id="edge25" class="edge"><title>Node14&#45;&gt;Node22</title>
<path fill="none" stroke="midnightblue" d="M1211.54,-210.372C1198.61,-199.699 1176.35,-181.343 1160.51,-168.268"/>
<polygon fill="midnightblue" stroke="midnightblue" points="1162.4,-165.295 1152.46,-161.63 1157.95,-170.694 1162.4,-165.295"/>
</g>
<!-- Node14&#45;&gt;Node23 -->
<g id="edge27" class="edge"><title>Node14&#45;&gt;Node23</title>
<path fill="none" stroke="midnightblue" d="M1250.37,-210.372C1288.98,-198.629 1358.17,-177.585 1401.16,-164.508"/>
<polygon fill="midnightblue" stroke="midnightblue" points="1402.42,-167.784 1410.97,-161.526 1400.38,-161.087 1402.42,-167.784"/>
</g>
<!-- Node25 -->
<g id="node25" class="node"><title>Node25</title>
<g id="a_node25"><a xlink:href="../../dd/d76/Cartesian3D_8h.html" target="_top" xlink:title="MathUtils/Cartesian3D.h">
<polygon fill="none" stroke="black" points="1570.5,-142.5 1570.5,-161.5 1695.5,-161.5 1695.5,-142.5 1570.5,-142.5"/>
<text text-anchor="middle" x="1633" y="-149.5" font-family="Helvetica,sans-Serif" font-size="10.00">MathUtils/Cartesian3D.h</text>
</a>
</g>
</g>
<!-- Node14&#45;&gt;Node25 -->
<g id="edge30" class="edge"><title>Node14&#45;&gt;Node25</title>
<path fill="none" stroke="midnightblue" d="M1282.76,-210.483C1349.79,-200.911 1460.79,-184.536 1556,-168 1564.01,-166.608 1572.48,-165.05 1580.75,-163.478"/>
<polygon fill="midnightblue" stroke="midnightblue" points="1581.54,-166.89 1590.69,-161.564 1580.21,-160.016 1581.54,-166.89"/>
</g>
<!-- Node23&#45;&gt;Node16 -->
<g id="edge29" class="edge"><title>Node23&#45;&gt;Node16</title>
<path fill="none" stroke="midnightblue" d="M1393.74,-142.451C1381.21,-140.213 1367.6,-137.897 1355,-136 1225.26,-116.461 1187.61,-137.888 1062,-100 1060.03,-99.4072 1058.04,-98.6933 1056.07,-97.9028"/>
<polygon fill="midnightblue" stroke="midnightblue" points="1057.09,-94.52 1046.54,-93.519 1054.16,-100.879 1057.09,-94.52"/>
</g>
<!-- Node24 -->
<g id="node24" class="node"><title>Node24</title>
<polygon fill="none" stroke="#bfbfbf" points="1134,-74.5 1134,-93.5 1186,-93.5 1186,-74.5 1134,-74.5"/>
<text text-anchor="middle" x="1160" y="-81.5" font-family="Helvetica,sans-Serif" font-size="10.00">sstream</text>
</g>
<!-- Node23&#45;&gt;Node24 -->
<g id="edge28" class="edge"><title>Node23&#45;&gt;Node24</title>
<path fill="none" stroke="midnightblue" d="M1392.79,-142.479C1332.74,-131.208 1231.27,-111.437 1195,-100 1192.57,-99.2346 1190.08,-98.3601 1187.61,-97.4267"/>
<polygon fill="midnightblue" stroke="midnightblue" points="1188.85,-94.1541 1178.27,-93.6407 1186.22,-100.641 1188.85,-94.1541"/>
</g>
<!-- Node25&#45;&gt;Node6 -->
<g id="edge36" class="edge"><title>Node25&#45;&gt;Node6</title>
<path fill="none" stroke="midnightblue" d="M1577.21,-142.49C1559.58,-140.062 1540.01,-137.636 1522,-136 1111.87,-98.7571 612.233,-87.9805 471.507,-85.5847"/>
<polygon fill="midnightblue" stroke="midnightblue" points="471.303,-82.081 461.247,-85.4142 471.187,-89.08 471.303,-82.081"/>
</g>
<!-- Node25&#45;&gt;Node9 -->
<g id="edge38" class="edge"><title>Node25&#45;&gt;Node9</title>
<path fill="none" stroke="midnightblue" d="M1573.44,-142.461C1556.81,-140.21 1538.71,-137.886 1522,-136 1345.95,-116.132 1296.01,-146.297 1125,-100 1122.65,-99.3642 1120.26,-98.5654 1117.9,-97.6694"/>
<polygon fill="midnightblue" stroke="midnightblue" points="1119.1,-94.3756 1108.54,-93.6074 1116.32,-100.798 1119.1,-94.3756"/>
</g>
<!-- Node25&#45;&gt;Node19 -->
<g id="edge37" class="edge"><title>Node25&#45;&gt;Node19</title>
<path fill="none" stroke="midnightblue" d="M1591.52,-142.459C1580.04,-140.22 1567.56,-137.903 1556,-136 1437.85,-116.544 1405.82,-126.303 1289,-100 1284.77,-99.0475 1280.37,-97.8851 1276.05,-96.6331"/>
<polygon fill="midnightblue" stroke="midnightblue" points="1276.76,-93.1908 1266.17,-93.6057 1274.71,-99.8833 1276.76,-93.1908"/>
</g>
<!-- Node26 -->
<g id="node26" class="node"><title>Node26</title>
<polygon fill="none" stroke="#bfbfbf" points="1793.5,-69 1793.5,-99 1944.5,-99 1944.5,-69 1793.5,-69"/>
<text text-anchor="start" x="1801.5" y="-87" font-family="Helvetica,sans-Serif" font-size="10.00">Math/GenVector/Displacement</text>
<text text-anchor="middle" x="1869" y="-76" font-family="Helvetica,sans-Serif" font-size="10.00">Vector3D.h</text>
</g>
<!-- Node25&#45;&gt;Node26 -->
<g id="edge31" class="edge"><title>Node25&#45;&gt;Node26</title>
<path fill="none" stroke="midnightblue" d="M1663.85,-142.372C1700.52,-132.117 1762.55,-114.77 1808.82,-101.829"/>
<polygon fill="midnightblue" stroke="midnightblue" points="1810.05,-105.12 1818.74,-99.0562 1808.17,-98.3789 1810.05,-105.12"/>
</g>
<!-- Node27 -->
<g id="node27" class="node"><title>Node27</title>
<polygon fill="none" stroke="#bfbfbf" points="1963,-74.5 1963,-93.5 2139,-93.5 2139,-74.5 1963,-74.5"/>
<text text-anchor="middle" x="2051" y="-81.5" font-family="Helvetica,sans-Serif" font-size="10.00">Math/GenVector/PositionVector3D.h</text>
</g>
<!-- Node25&#45;&gt;Node27 -->
<g id="edge32" class="edge"><title>Node25&#45;&gt;Node27</title>
<path fill="none" stroke="midnightblue" d="M1687.22,-142.439C1764.19,-130.285 1904.9,-108.069 1986.93,-95.1164"/>
<polygon fill="midnightblue" stroke="midnightblue" points="1987.55,-98.5624 1996.88,-93.5455 1986.45,-91.6481 1987.55,-98.5624"/>
</g>
<!-- Node28 -->
<g id="node28" class="node"><title>Node28</title>
<polygon fill="none" stroke="#bfbfbf" points="2156.5,-74.5 2156.5,-93.5 2305.5,-93.5 2305.5,-74.5 2156.5,-74.5"/>
<text text-anchor="middle" x="2231" y="-81.5" font-family="Helvetica,sans-Serif" font-size="10.00">Math/GenVector/Rotation3D.h</text>
</g>
<!-- Node25&#45;&gt;Node28 -->
<g id="edge33" class="edge"><title>Node25&#45;&gt;Node28</title>
<path fill="none" stroke="midnightblue" d="M1695.69,-146.361C1792.7,-138.828 1984.9,-122.481 2147,-100 2156.79,-98.6417 2167.19,-96.9719 2177.21,-95.2454"/>
<polygon fill="midnightblue" stroke="midnightblue" points="2177.83,-98.6907 2187.07,-93.5095 2176.62,-91.7968 2177.83,-98.6907"/>
</g>
<!-- Node29 -->
<g id="node29" class="node"><title>Node29</title>
<polygon fill="none" stroke="#bfbfbf" points="1298,-74.5 1298,-93.5 1454,-93.5 1454,-74.5 1298,-74.5"/>
<text text-anchor="middle" x="1376" y="-81.5" font-family="Helvetica,sans-Serif" font-size="10.00">Math/GenVector/Transform3D.h</text>
</g>
<!-- Node25&#45;&gt;Node29 -->
<g id="edge34" class="edge"><title>Node25&#45;&gt;Node29</title>
<path fill="none" stroke="midnightblue" d="M1599.67,-142.439C1553.45,-130.57 1469.85,-109.103 1418.99,-96.0406"/>
<polygon fill="midnightblue" stroke="midnightblue" points="1419.83,-92.643 1409.28,-93.5455 1418.09,-99.423 1419.83,-92.643"/>
</g>
<!-- Node30 -->
<g id="node30" class="node"><title>Node30</title>
<polygon fill="none" stroke="#bfbfbf" points="1472,-74.5 1472,-93.5 1632,-93.5 1632,-74.5 1472,-74.5"/>
<text text-anchor="middle" x="1552" y="-81.5" font-family="Helvetica,sans-Serif" font-size="10.00">Math/GenVector/Translation3D.h</text>
</g>
<!-- Node25&#45;&gt;Node30 -->
<g id="edge35" class="edge"><title>Node25&#45;&gt;Node30</title>
<path fill="none" stroke="midnightblue" d="M1622.41,-142.372C1609.31,-131.699 1586.78,-113.343 1570.74,-100.268"/>
<polygon fill="midnightblue" stroke="midnightblue" points="1572.56,-97.2339 1562.59,-93.6305 1568.13,-102.661 1572.56,-97.2339"/>
</g>
<!-- Node31 -->
<g id="node31" class="node"><title>Node31</title>
<g id="a_node31"><a xlink:href="../../d2/dd0/Cartesian2D_8h.html" target="_top" xlink:title="MathUtils/Cartesian2D.h">
<polygon fill="none" stroke="black" points="1650.5,-74.5 1650.5,-93.5 1775.5,-93.5 1775.5,-74.5 1650.5,-74.5"/>
<text text-anchor="middle" x="1713" y="-81.5" font-family="Helvetica,sans-Serif" font-size="10.00">MathUtils/Cartesian2D.h</text>
</a>
</g>
</g>
<!-- Node25&#45;&gt;Node31 -->
<g id="edge39" class="edge"><title>Node25&#45;&gt;Node31</title>
<path fill="none" stroke="midnightblue" d="M1643.46,-142.372C1656.39,-131.699 1678.65,-113.343 1694.49,-100.268"/>
<polygon fill="midnightblue" stroke="midnightblue" points="1697.05,-102.694 1702.54,-93.6305 1692.6,-97.2945 1697.05,-102.694"/>
</g>
<!-- Node32 -->
<g id="node32" class="node"><title>Node32</title>
<polygon fill="none" stroke="#bfbfbf" points="1546.5,-1 1546.5,-31 1697.5,-31 1697.5,-1 1546.5,-1"/>
<text text-anchor="start" x="1554.5" y="-19" font-family="Helvetica,sans-Serif" font-size="10.00">Math/GenVector/Displacement</text>
<text text-anchor="middle" x="1622" y="-8" font-family="Helvetica,sans-Serif" font-size="10.00">Vector2D.h</text>
</g>
<!-- Node31&#45;&gt;Node32 -->
<g id="edge40" class="edge"><title>Node31&#45;&gt;Node32</title>
<path fill="none" stroke="midnightblue" d="M1701.1,-74.3717C1688.22,-65.0286 1667.22,-49.7966 1650.09,-37.375"/>
<polygon fill="midnightblue" stroke="midnightblue" points="1651.7,-34.2194 1641.55,-31.1815 1647.59,-39.8859 1651.7,-34.2194"/>
</g>
<!-- Node33 -->
<g id="node33" class="node"><title>Node33</title>
<polygon fill="none" stroke="#bfbfbf" points="1716,-6.5 1716,-25.5 1892,-25.5 1892,-6.5 1716,-6.5"/>
<text text-anchor="middle" x="1804" y="-13.5" font-family="Helvetica,sans-Serif" font-size="10.00">Math/GenVector/PositionVector2D.h</text>
</g>
<!-- Node31&#45;&gt;Node33 -->
<g id="edge41" class="edge"><title>Node31&#45;&gt;Node33</title>
<path fill="none" stroke="midnightblue" d="M1724.9,-74.3717C1739.88,-63.5015 1765.86,-44.6602 1783.94,-31.5474"/>
<polygon fill="midnightblue" stroke="midnightblue" points="1786.06,-34.3349 1792.1,-25.6305 1781.95,-28.6684 1786.06,-34.3349"/>
</g>
<!-- Node35 -->
<g id="node35" class="node"><title>Node35</title>
<g id="a_node35"><a xlink:href="../../d4/d25/BaseHits_8h.html" target="_top" xlink:title="SimulationDataFormat\l/BaseHits.h">
<polygon fill="none" stroke="black" points="1576,-205 1576,-235 1690,-235 1690,-205 1576,-205"/>
<text text-anchor="start" x="1584" y="-223" font-family="Helvetica,sans-Serif" font-size="10.00">SimulationDataFormat</text>
<text text-anchor="middle" x="1633" y="-212" font-family="Helvetica,sans-Serif" font-size="10.00">/BaseHits.h</text>
</a>
</g>
</g>
<!-- Node34&#45;&gt;Node35 -->
<g id="edge44" class="edge"><title>Node34&#45;&gt;Node35</title>
<path fill="none" stroke="midnightblue" d="M1633,-272.403C1633,-265.341 1633,-254.975 1633,-245.399"/>
<polygon fill="midnightblue" stroke="midnightblue" points="1636.5,-245.141 1633,-235.141 1629.5,-245.141 1636.5,-245.141"/>
</g>
<!-- Node36 -->
<g id="node36" class="node"><title>Node36</title>
<g id="a_node36"><a xlink:href="../../d0/d91/ShmAllocator_8h.html" target="_top" xlink:title="CommonUtils/ShmAllocator.h">
<polygon fill="none" stroke="black" points="2310,-210.5 2310,-229.5 2456,-229.5 2456,-210.5 2310,-210.5"/>
<text text-anchor="middle" x="2383" y="-217.5" font-family="Helvetica,sans-Serif" font-size="10.00">CommonUtils/ShmAllocator.h</text>
</a>
</g>
</g>
<!-- Node34&#45;&gt;Node36 -->
<g id="edge46" class="edge"><title>Node34&#45;&gt;Node36</title>
<path fill="none" stroke="midnightblue" d="M1682.21,-277.063C1808.09,-266.993 2142.9,-240.208 2299.75,-227.66"/>
<polygon fill="midnightblue" stroke="midnightblue" points="2300.13,-231.141 2309.82,-226.855 2299.57,-224.163 2300.13,-231.141"/>
</g>
<!-- Node35&#45;&gt;Node25 -->
<g id="edge45" class="edge"><title>Node35&#45;&gt;Node25</title>
<path fill="none" stroke="midnightblue" d="M1633,-204.679C1633,-195.101 1633,-182.394 1633,-171.977"/>
<polygon fill="midnightblue" stroke="midnightblue" points="1636.5,-171.828 1633,-161.828 1629.5,-171.828 1636.5,-171.828"/>
</g>
<!-- Node37 -->
<g id="node37" class="node"><title>Node37</title>
<g id="a_node37"><a xlink:href="../../de/d61/ShmManager_8h.html" target="_top" xlink:title="CommonUtils/ShmManager.h">
<polygon fill="none" stroke="black" points="2310,-142.5 2310,-161.5 2456,-161.5 2456,-142.5 2310,-142.5"/>
<text text-anchor="middle" x="2383" y="-149.5" font-family="Helvetica,sans-Serif" font-size="10.00">CommonUtils/ShmManager.h</text>
</a>
</g>
</g>
<!-- Node36&#45;&gt;Node37 -->
<g id="edge47" class="edge"><title>Node36&#45;&gt;Node37</title>
<path fill="none" stroke="midnightblue" d="M2383,-210.372C2383,-200.643 2383,-184.528 2383,-171.85"/>
<polygon fill="midnightblue" stroke="midnightblue" points="2386.5,-171.841 2383,-161.841 2379.5,-171.841 2386.5,-171.841"/>
</g>
<!-- Node42 -->
<g id="node42" class="node"><title>Node42</title>
<polygon fill="none" stroke="#bfbfbf" points="2554.5,-142.5 2554.5,-161.5 2603.5,-161.5 2603.5,-142.5 2554.5,-142.5"/>
<text text-anchor="middle" x="2579" y="-149.5" font-family="Helvetica,sans-Serif" font-size="10.00">cassert</text>
</g>
<!-- Node36&#45;&gt;Node42 -->
<g id="edge52" class="edge"><title>Node36&#45;&gt;Node42</title>
<path fill="none" stroke="midnightblue" d="M2412.97,-210.465C2445.53,-200.97 2498.93,-184.751 2544,-168 2546.11,-167.214 2548.29,-166.371 2550.47,-165.5"/>
<polygon fill="midnightblue" stroke="midnightblue" points="2551.99,-168.659 2559.88,-161.595 2549.3,-162.193 2551.99,-168.659"/>
</g>
<!-- Node38 -->
<g id="node38" class="node"><title>Node38</title>
<polygon fill="none" stroke="#bfbfbf" points="2460.5,-74.5 2460.5,-93.5 2489.5,-93.5 2489.5,-74.5 2460.5,-74.5"/>
<text text-anchor="middle" x="2475" y="-81.5" font-family="Helvetica,sans-Serif" font-size="10.00">list</text>
</g>
<!-- Node37&#45;&gt;Node38 -->
<g id="edge48" class="edge"><title>Node37&#45;&gt;Node38</title>
<path fill="none" stroke="midnightblue" d="M2395.03,-142.372C2410.18,-131.502 2436.44,-112.66 2454.72,-99.5474"/>
<polygon fill="midnightblue" stroke="midnightblue" points="2456.88,-102.303 2462.97,-93.6305 2452.8,-96.6157 2456.88,-102.303"/>
</g>
<!-- Node39 -->
<g id="node39" class="node"><title>Node39</title>
<polygon fill="none" stroke="#bfbfbf" points="2507.5,-74.5 2507.5,-93.5 2556.5,-93.5 2556.5,-74.5 2507.5,-74.5"/>
<text text-anchor="middle" x="2532" y="-81.5" font-family="Helvetica,sans-Serif" font-size="10.00">cstddef</text>
</g>
<!-- Node37&#45;&gt;Node39 -->
<g id="edge49" class="edge"><title>Node37&#45;&gt;Node39</title>
<path fill="none" stroke="midnightblue" d="M2402.48,-142.372C2428.13,-131.007 2473.46,-110.931 2503.11,-97.7961"/>
<polygon fill="midnightblue" stroke="midnightblue" points="2504.79,-100.881 2512.52,-93.6305 2501.96,-94.4804 2504.79,-100.881"/>
</g>
<!-- Node40 -->
<g id="node40" class="node"><title>Node40</title>
<polygon fill="none" stroke="#bfbfbf" points="2575,-69 2575,-99 2723,-99 2723,-69 2575,-69"/>
<text text-anchor="start" x="2583" y="-87" font-family="Helvetica,sans-Serif" font-size="10.00">boost/interprocess</text>
<text text-anchor="middle" x="2649" y="-76" font-family="Helvetica,sans-Serif" font-size="10.00">/managed_external_buffer.hpp</text>
</g>
<!-- Node37&#45;&gt;Node40 -->
<g id="edge50" class="edge"><title>Node37&#45;&gt;Node40</title>
<path fill="none" stroke="midnightblue" d="M2417.5,-142.439C2459.17,-132.101 2530.17,-114.483 2582.59,-101.478"/>
<polygon fill="midnightblue" stroke="midnightblue" points="2583.61,-104.83 2592.48,-99.0247 2581.93,-98.036 2583.61,-104.83"/>
</g>
<!-- Node41 -->
<g id="node41" class="node"><title>Node41</title>
<polygon fill="none" stroke="#bfbfbf" points="2323,-69 2323,-99 2443,-99 2443,-69 2323,-69"/>
<text text-anchor="start" x="2331" y="-87" font-family="Helvetica,sans-Serif" font-size="10.00">boost/interprocess</text>
<text text-anchor="middle" x="2383" y="-76" font-family="Helvetica,sans-Serif" font-size="10.00">/allocators/allocator.hpp</text>
</g>
<!-- Node37&#45;&gt;Node41 -->
<g id="edge51" class="edge"><title>Node37&#45;&gt;Node41</title>
<path fill="none" stroke="midnightblue" d="M2383,-142.372C2383,-133.971 2383,-120.811 2383,-109.213"/>
<polygon fill="midnightblue" stroke="midnightblue" points="2386.5,-109.181 2383,-99.1815 2379.5,-109.181 2386.5,-109.181"/>
</g>
<!-- Node44 -->
<g id="node44" class="node"><title>Node44</title>
<g id="a_node44"><a xlink:href="../../d7/dcd/MCCompLabel_8h.html" target="_top" xlink:title="SimulationDataFormat\l/MCCompLabel.h">
<polygon fill="none" stroke="black" points="177,-205 177,-235 291,-235 291,-205 177,-205"/>
<text text-anchor="start" x="185" y="-223" font-family="Helvetica,sans-Serif" font-size="10.00">SimulationDataFormat</text>
<text text-anchor="middle" x="234" y="-212" font-family="Helvetica,sans-Serif" font-size="10.00">/MCCompLabel.h</text>
</a>
</g>
</g>
<!-- Node43&#45;&gt;Node44 -->
<g id="edge54" class="edge"><title>Node43&#45;&gt;Node44</title>
<path fill="none" stroke="midnightblue" d="M243.424,-272.403C242.115,-265.265 240.188,-254.752 238.417,-245.09"/>
<polygon fill="midnightblue" stroke="midnightblue" points="241.838,-244.346 236.592,-235.141 234.953,-245.608 241.838,-244.346"/>
</g>
<!-- Node44&#45;&gt;Node6 -->
<g id="edge55" class="edge"><title>Node44&#45;&gt;Node6</title>
<path fill="none" stroke="midnightblue" d="M229.893,-204.931C225.555,-186.88 221.299,-155.569 237,-136 256.557,-111.626 343.451,-96.512 394.743,-89.5498"/>
<polygon fill="midnightblue" stroke="midnightblue" points="395.345,-93.0008 404.803,-88.2266 394.432,-86.0606 395.345,-93.0008"/>
</g>
<!-- Node45&#45;&gt;Node20 -->
<g id="edge57" class="edge"><title>Node45&#45;&gt;Node20</title>
<path fill="none" stroke="midnightblue" d="M2591.4,-204.841C2572.72,-193.63 2546.76,-178.056 2528.18,-166.91"/>
<polygon fill="midnightblue" stroke="midnightblue" points="2529.85,-163.826 2519.47,-161.682 2526.24,-169.828 2529.85,-163.826"/>
</g>
<!-- Node45&#45;&gt;Node42 -->
<g id="edge58" class="edge"><title>Node45&#45;&gt;Node42</title>
<path fill="none" stroke="midnightblue" d="M2607.19,-204.679C2601.74,-194.694 2594.44,-181.307 2588.63,-170.66"/>
<polygon fill="midnightblue" stroke="midnightblue" points="2591.68,-168.931 2583.82,-161.828 2585.53,-172.283 2591.68,-168.931"/>
</g>
<!-- Node46 -->
<g id="node46" class="node"><title>Node46</title>
<polygon fill="none" stroke="#bfbfbf" points="2621.5,-142.5 2621.5,-161.5 2680.5,-161.5 2680.5,-142.5 2621.5,-142.5"/>
<text text-anchor="middle" x="2651" y="-149.5" font-family="Helvetica,sans-Serif" font-size="10.00">stdexcept</text>
</g>
<!-- Node45&#45;&gt;Node46 -->
<g id="edge59" class="edge"><title>Node45&#45;&gt;Node46</title>
<path fill="none" stroke="midnightblue" d="M2622.81,-204.679C2628.26,-194.694 2635.56,-181.307 2641.37,-170.66"/>
<polygon fill="midnightblue" stroke="midnightblue" points="2644.47,-172.283 2646.18,-161.828 2638.32,-168.931 2644.47,-172.283"/>
</g>
<!-- Node47 -->
<g id="node47" class="node"><title>Node47</title>
<polygon fill="none" stroke="#bfbfbf" points="2698.5,-142.5 2698.5,-161.5 2743.5,-161.5 2743.5,-142.5 2698.5,-142.5"/>
<text text-anchor="middle" x="2721" y="-149.5" font-family="Helvetica,sans-Serif" font-size="10.00">gsl/gsl</text>
</g>
<!-- Node45&#45;&gt;Node47 -->
<g id="edge60" class="edge"><title>Node45&#45;&gt;Node47</title>
<path fill="none" stroke="midnightblue" d="M2637.74,-204.841C2655.66,-193.681 2680.53,-178.198 2698.41,-167.063"/>
<polygon fill="midnightblue" stroke="midnightblue" points="2700.42,-169.939 2707.06,-161.682 2696.72,-163.996 2700.42,-169.939"/>
</g>
<!-- Node48 -->
<g id="node48" class="node"><title>Node48</title>
<polygon fill="none" stroke="#bfbfbf" points="2762,-142.5 2762,-161.5 2824,-161.5 2824,-142.5 2762,-142.5"/>
<text text-anchor="middle" x="2793" y="-149.5" font-family="Helvetica,sans-Serif" font-size="10.00">type_traits</text>
</g>
<!-- Node45&#45;&gt;Node48 -->
<g id="edge61" class="edge"><title>Node45&#45;&gt;Node48</title>
<path fill="none" stroke="midnightblue" d="M2653.19,-204.841C2685.03,-193.033 2729.93,-176.384 2760.18,-165.168"/>
<polygon fill="midnightblue" stroke="midnightblue" points="2761.68,-168.345 2769.84,-161.587 2759.25,-161.782 2761.68,-168.345"/>
</g>
</g>
</svg>
