<?xml version="1.0" encoding="UTF-8" standalone="no"?>
<!DOCTYPE svg PUBLIC "-//W3C//DTD SVG 1.1//EN"
 "http://www.w3.org/Graphics/SVG/1.1/DTD/svg11.dtd">
<!-- Generated by graphviz version 2.36.0 (20140111.2315)
 -->
<!-- Title: o2::TPC::PublisherConf Pages: 1 -->
<svg width="971pt" height="956pt"
 viewBox="0.00 0.00 971.00 956.00" xmlns="http://www.w3.org/2000/svg" xmlns:xlink="http://www.w3.org/1999/xlink">
<g id="graph0" class="graph" transform="scale(1 1) rotate(0) translate(4 952)">
<title>o2::TPC::PublisherConf</title>
<!-- Node1 -->
<g id="node1" class="node"><title>Node1</title>
<polygon fill="#bfbfbf" stroke="black" points="301.5,-0.5 301.5,-57.5 422.5,-57.5 422.5,-0.5 301.5,-0.5"/>
<text text-anchor="middle" x="362" y="-45.5" font-family="Helvetica,sans-Serif" font-size="10.00">o2::TPC::PublisherConf</text>
<polyline fill="none" stroke="black" points="301.5,-38.5 422.5,-38.5 "/>
<text text-anchor="middle" x="362" y="-26.5" font-family="Helvetica,sans-Serif" font-size="10.00"> </text>
<polyline fill="none" stroke="black" points="301.5,-19.5 422.5,-19.5 "/>
<text text-anchor="middle" x="362" y="-7.5" font-family="Helvetica,sans-Serif" font-size="10.00"> </text>
</g>
<!-- Node2 -->
<g id="node2" class="node"><title>Node2</title>
<g id="a_node2"><a xlink:href="../../dd/df7/structo2_1_1TPC_1_1PublisherConf_1_1BranchOptionConfig.html" target="_top" xlink:title="{o2::TPC::PublisherConf\l::BranchOptionConfig\n||}">
<polygon fill="none" stroke="black" points="-0.5,-519 -0.5,-587 120.5,-587 120.5,-519 -0.5,-519"/>
<text text-anchor="start" x="7.5" y="-575" font-family="Helvetica,sans-Serif" font-size="10.00">o2::TPC::PublisherConf</text>
<text text-anchor="middle" x="60" y="-564" font-family="Helvetica,sans-Serif" font-size="10.00">::BranchOptionConfig</text>
<polyline fill="none" stroke="black" points="-0.5,-557 120.5,-557 "/>
<text text-anchor="middle" x="60" y="-545" font-family="Helvetica,sans-Serif" font-size="10.00"> </text>
<polyline fill="none" stroke="black" points="-0.5,-538 120.5,-538 "/>
<text text-anchor="middle" x="60" y="-526" font-family="Helvetica,sans-Serif" font-size="10.00"> </text>
</a>
</g>
</g>
<!-- Node2&#45;&gt;Node1 -->
<g id="edge1" class="edge"><title>Node2&#45;&gt;Node1</title>
<path fill="none" stroke="#404040" d="M67.7139,-518.871C87.2718,-440.829 145.211,-242.5 255,-116 271.362,-97.1472 292.248,-79.325 311.215,-64.846"/>
<polygon fill="none" stroke="#404040" points="311.312,-64.7737 313.725,-57.9781 320.926,-57.5914 318.513,-64.387 311.312,-64.7737"/>
<text text-anchor="middle" x="200.5" y="-250" font-family="Helvetica,sans-Serif" font-size="10.00"> +mcbranch</text>
<text text-anchor="middle" x="200.5" y="-239" font-family="Helvetica,sans-Serif" font-size="10.00">+databranch</text>
</g>
<!-- Node3 -->
<g id="node3" class="node"><title>Node3</title>
<polygon fill="none" stroke="#bfbfbf" points="139.5,-889.5 139.5,-946.5 174.5,-946.5 174.5,-889.5 139.5,-889.5"/>
<text text-anchor="middle" x="157" y="-934.5" font-family="Helvetica,sans-Serif" font-size="10.00">char</text>
<polyline fill="none" stroke="#bfbfbf" points="139.5,-927.5 174.5,-927.5 "/>
<text text-anchor="middle" x="157" y="-915.5" font-family="Helvetica,sans-Serif" font-size="10.00"> </text>
<polyline fill="none" stroke="#bfbfbf" points="139.5,-908.5 174.5,-908.5 "/>
<text text-anchor="middle" x="157" y="-896.5" font-family="Helvetica,sans-Serif" font-size="10.00"> </text>
</g>
<!-- Node3&#45;&gt;Node2 -->
<g id="edge2" class="edge"><title>Node3&#45;&gt;Node2</title>
<path fill="none" stroke="#404040" d="M139.298,-910.584C122.456,-903.462 97.9646,-890.231 86,-870 35.8249,-785.159 43.1206,-664.402 52.0378,-599.481"/>
<polygon fill="none" stroke="#404040" points="52.0874,-599.142 48.999,-592.625 53.8263,-587.268 56.9146,-593.785 52.0874,-599.142"/>
<text text-anchor="middle" x="104" y="-861.5" font-family="Helvetica,sans-Serif" font-size="10.00"> +option</text>
<text text-anchor="middle" x="104" y="-850.5" font-family="Helvetica,sans-Serif" font-size="10.00">+defval</text>
<text text-anchor="middle" x="104" y="-839.5" font-family="Helvetica,sans-Serif" font-size="10.00">+help</text>
</g>
<!-- Node8 -->
<g id="node8" class="node"><title>Node8</title>
<g id="a_node8"><a xlink:href="../../d9/db3/structo2_1_1header_1_1Descriptor.html" target="_top" xlink:title="{o2::header::Descriptor\l\&lt; gSizeDataOriginString,\l printDataOrigin \&gt;\n||+ Descriptor()\l+ Descriptor()\l+ Descriptor()\l+ Descriptor()\l+ operator=()\l+ operator ItgType()\l+ runtimeInit()\l+ operator==()\l+ operator==()\l+ operator\&lt;()\l+ operator!=()\l+ operator!=()\l+ as()\l+ print()\l}">
<polygon fill="none" stroke="black" points="422.5,-277 422.5,-499 547.5,-499 547.5,-277 422.5,-277"/>
<text text-anchor="start" x="430.5" y="-487" font-family="Helvetica,sans-Serif" font-size="10.00">o2::header::Descriptor</text>
<text text-anchor="start" x="430.5" y="-476" font-family="Helvetica,sans-Serif" font-size="10.00">&lt; gSizeDataOriginString,</text>
<text text-anchor="middle" x="485" y="-465" font-family="Helvetica,sans-Serif" font-size="10.00"> printDataOrigin &gt;</text>
<polyline fill="none" stroke="black" points="422.5,-458 547.5,-458 "/>
<text text-anchor="middle" x="485" y="-446" font-family="Helvetica,sans-Serif" font-size="10.00"> </text>
<polyline fill="none" stroke="black" points="422.5,-439 547.5,-439 "/>
<text text-anchor="start" x="430.5" y="-427" font-family="Helvetica,sans-Serif" font-size="10.00">+ Descriptor()</text>
<text text-anchor="start" x="430.5" y="-416" font-family="Helvetica,sans-Serif" font-size="10.00">+ Descriptor()</text>
<text text-anchor="start" x="430.5" y="-405" font-family="Helvetica,sans-Serif" font-size="10.00">+ Descriptor()</text>
<text text-anchor="start" x="430.5" y="-394" font-family="Helvetica,sans-Serif" font-size="10.00">+ Descriptor()</text>
<text text-anchor="start" x="430.5" y="-383" font-family="Helvetica,sans-Serif" font-size="10.00">+ operator=()</text>
<text text-anchor="start" x="430.5" y="-372" font-family="Helvetica,sans-Serif" font-size="10.00">+ operator ItgType()</text>
<text text-anchor="start" x="430.5" y="-361" font-family="Helvetica,sans-Serif" font-size="10.00">+ runtimeInit()</text>
<text text-anchor="start" x="430.5" y="-350" font-family="Helvetica,sans-Serif" font-size="10.00">+ operator==()</text>
<text text-anchor="start" x="430.5" y="-339" font-family="Helvetica,sans-Serif" font-size="10.00">+ operator==()</text>
<text text-anchor="start" x="430.5" y="-328" font-family="Helvetica,sans-Serif" font-size="10.00">+ operator&lt;()</text>
<text text-anchor="start" x="430.5" y="-317" font-family="Helvetica,sans-Serif" font-size="10.00">+ operator!=()</text>
<text text-anchor="start" x="430.5" y="-306" font-family="Helvetica,sans-Serif" font-size="10.00">+ operator!=()</text>
<text text-anchor="start" x="430.5" y="-295" font-family="Helvetica,sans-Serif" font-size="10.00">+ as()</text>
<text text-anchor="start" x="430.5" y="-284" font-family="Helvetica,sans-Serif" font-size="10.00">+ print()</text>
</a>
</g>
</g>
<!-- Node3&#45;&gt;Node8 -->
<g id="edge9" class="edge"><title>Node3&#45;&gt;Node8</title>
<path fill="none" stroke="#404040" d="M174.8,-897.309C190.939,-878.359 214.114,-848.204 227,-818 264.659,-729.729 200.012,-673.731 268,-606 298.444,-575.671 329.823,-615.313 363,-588 388.869,-566.703 371.184,-545.02 391,-518 398.471,-507.813 404.573,-509.412 413,-500 413.491,-499.452 413.981,-498.9 414.469,-498.345"/>
<polygon fill="none" stroke="#404040" points="414.551,-498.247 415.36,-491.082 422.286,-489.072 421.477,-496.238 414.551,-498.247"/>
<text text-anchor="middle" x="278.5" y="-709.5" font-family="Helvetica,sans-Serif" font-size="10.00"> +str</text>
</g>
<!-- Node12 -->
<g id="node12" class="node"><title>Node12</title>
<g id="a_node12"><a xlink:href="../../d9/db3/structo2_1_1header_1_1Descriptor.html" target="_top" xlink:title="{o2::header::Descriptor\l\&lt; N, PrinterPolicy \&gt;\n||+ Descriptor()\l+ Descriptor()\l+ Descriptor()\l+ operator=()\l+ operator ItgType()\l+ Descriptor()\l+ runtimeInit()\l+ operator==()\l+ operator\&lt;()\l+ operator!=()\l+ operator==()\l+ operator!=()\l+ as()\l+ print()\l}">
<polygon fill="none" stroke="black" points="344.5,-606.5 344.5,-817.5 457.5,-817.5 457.5,-606.5 344.5,-606.5"/>
<text text-anchor="start" x="352.5" y="-805.5" font-family="Helvetica,sans-Serif" font-size="10.00">o2::header::Descriptor</text>
<text text-anchor="middle" x="401" y="-794.5" font-family="Helvetica,sans-Serif" font-size="10.00">&lt; N, PrinterPolicy &gt;</text>
<polyline fill="none" stroke="black" points="344.5,-787.5 457.5,-787.5 "/>
<text text-anchor="middle" x="401" y="-775.5" font-family="Helvetica,sans-Serif" font-size="10.00"> </text>
<polyline fill="none" stroke="black" points="344.5,-768.5 457.5,-768.5 "/>
<text text-anchor="start" x="352.5" y="-756.5" font-family="Helvetica,sans-Serif" font-size="10.00">+ Descriptor()</text>
<text text-anchor="start" x="352.5" y="-745.5" font-family="Helvetica,sans-Serif" font-size="10.00">+ Descriptor()</text>
<text text-anchor="start" x="352.5" y="-734.5" font-family="Helvetica,sans-Serif" font-size="10.00">+ Descriptor()</text>
<text text-anchor="start" x="352.5" y="-723.5" font-family="Helvetica,sans-Serif" font-size="10.00">+ operator=()</text>
<text text-anchor="start" x="352.5" y="-712.5" font-family="Helvetica,sans-Serif" font-size="10.00">+ operator ItgType()</text>
<text text-anchor="start" x="352.5" y="-701.5" font-family="Helvetica,sans-Serif" font-size="10.00">+ Descriptor()</text>
<text text-anchor="start" x="352.5" y="-690.5" font-family="Helvetica,sans-Serif" font-size="10.00">+ runtimeInit()</text>
<text text-anchor="start" x="352.5" y="-679.5" font-family="Helvetica,sans-Serif" font-size="10.00">+ operator==()</text>
<text text-anchor="start" x="352.5" y="-668.5" font-family="Helvetica,sans-Serif" font-size="10.00">+ operator&lt;()</text>
<text text-anchor="start" x="352.5" y="-657.5" font-family="Helvetica,sans-Serif" font-size="10.00">+ operator!=()</text>
<text text-anchor="start" x="352.5" y="-646.5" font-family="Helvetica,sans-Serif" font-size="10.00">+ operator==()</text>
<text text-anchor="start" x="352.5" y="-635.5" font-family="Helvetica,sans-Serif" font-size="10.00">+ operator!=()</text>
<text text-anchor="start" x="352.5" y="-624.5" font-family="Helvetica,sans-Serif" font-size="10.00">+ as()</text>
<text text-anchor="start" x="352.5" y="-613.5" font-family="Helvetica,sans-Serif" font-size="10.00">+ print()</text>
</a>
</g>
</g>
<!-- Node3&#45;&gt;Node12 -->
<g id="edge14" class="edge"><title>Node3&#45;&gt;Node12</title>
<path fill="none" stroke="#404040" d="M174.713,-907.148C217.515,-883.304 323.531,-824.002 330,-818 332.032,-816.115 334.035,-814.161 336.008,-812.15"/>
<polygon fill="none" stroke="#404040" points="336.317,-811.816 337.45,-804.694 344.46,-803.001 343.327,-810.123 336.317,-811.816"/>
<text text-anchor="middle" x="308.5" y="-850.5" font-family="Helvetica,sans-Serif" font-size="10.00"> +str</text>
</g>
<!-- Node14 -->
<g id="node14" class="node"><title>Node14</title>
<g id="a_node14"><a xlink:href="../../d9/db3/structo2_1_1header_1_1Descriptor.html" target="_top" xlink:title="{o2::header::Descriptor\l\&lt; gSizeDataDescriptionString,\l printDataDescription \&gt;\n||+ Descriptor()\l+ Descriptor()\l+ Descriptor()\l+ Descriptor()\l+ operator=()\l+ operator ItgType()\l+ runtimeInit()\l+ operator==()\l+ operator==()\l+ operator\&lt;()\l+ operator!=()\l+ operator!=()\l+ as()\l+ print()\l}">
<polygon fill="none" stroke="black" points="169.5,-277 169.5,-499 318.5,-499 318.5,-277 169.5,-277"/>
<text text-anchor="start" x="177.5" y="-487" font-family="Helvetica,sans-Serif" font-size="10.00">o2::header::Descriptor</text>
<text text-anchor="start" x="177.5" y="-476" font-family="Helvetica,sans-Serif" font-size="10.00">&lt; gSizeDataDescriptionString,</text>
<text text-anchor="middle" x="244" y="-465" font-family="Helvetica,sans-Serif" font-size="10.00"> printDataDescription &gt;</text>
<polyline fill="none" stroke="black" points="169.5,-458 318.5,-458 "/>
<text text-anchor="middle" x="244" y="-446" font-family="Helvetica,sans-Serif" font-size="10.00"> </text>
<polyline fill="none" stroke="black" points="169.5,-439 318.5,-439 "/>
<text text-anchor="start" x="177.5" y="-427" font-family="Helvetica,sans-Serif" font-size="10.00">+ Descriptor()</text>
<text text-anchor="start" x="177.5" y="-416" font-family="Helvetica,sans-Serif" font-size="10.00">+ Descriptor()</text>
<text text-anchor="start" x="177.5" y="-405" font-family="Helvetica,sans-Serif" font-size="10.00">+ Descriptor()</text>
<text text-anchor="start" x="177.5" y="-394" font-family="Helvetica,sans-Serif" font-size="10.00">+ Descriptor()</text>
<text text-anchor="start" x="177.5" y="-383" font-family="Helvetica,sans-Serif" font-size="10.00">+ operator=()</text>
<text text-anchor="start" x="177.5" y="-372" font-family="Helvetica,sans-Serif" font-size="10.00">+ operator ItgType()</text>
<text text-anchor="start" x="177.5" y="-361" font-family="Helvetica,sans-Serif" font-size="10.00">+ runtimeInit()</text>
<text text-anchor="start" x="177.5" y="-350" font-family="Helvetica,sans-Serif" font-size="10.00">+ operator==()</text>
<text text-anchor="start" x="177.5" y="-339" font-family="Helvetica,sans-Serif" font-size="10.00">+ operator==()</text>
<text text-anchor="start" x="177.5" y="-328" font-family="Helvetica,sans-Serif" font-size="10.00">+ operator&lt;()</text>
<text text-anchor="start" x="177.5" y="-317" font-family="Helvetica,sans-Serif" font-size="10.00">+ operator!=()</text>
<text text-anchor="start" x="177.5" y="-306" font-family="Helvetica,sans-Serif" font-size="10.00">+ operator!=()</text>
<text text-anchor="start" x="177.5" y="-295" font-family="Helvetica,sans-Serif" font-size="10.00">+ as()</text>
<text text-anchor="start" x="177.5" y="-284" font-family="Helvetica,sans-Serif" font-size="10.00">+ print()</text>
</a>
</g>
</g>
<!-- Node3&#45;&gt;Node14 -->
<g id="edge20" class="edge"><title>Node3&#45;&gt;Node14</title>
<path fill="none" stroke="#404040" d="M155.212,-889.308C152.234,-834.692 148.13,-709.414 165,-606 171.587,-565.623 178.34,-556.563 192,-518 192.85,-515.599 193.719,-513.178 194.603,-510.741"/>
<polygon fill="none" stroke="#404040" points="194.69,-510.505 193.011,-503.492 198.839,-499.245 200.518,-506.258 194.69,-510.505"/>
<text text-anchor="middle" x="175.5" y="-709.5" font-family="Helvetica,sans-Serif" font-size="10.00"> +str</text>
</g>
<!-- Node4 -->
<g id="node4" class="node"><title>Node4</title>
<g id="a_node4"><a xlink:href="../../dd/de2/classsize__t.html" target="_top" xlink:title="{size_t\n||}">
<polygon fill="none" stroke="black" points="264.5,-138.5 264.5,-195.5 307.5,-195.5 307.5,-138.5 264.5,-138.5"/>
<text text-anchor="middle" x="286" y="-183.5" font-family="Helvetica,sans-Serif" font-size="10.00">size_t</text>
<polyline fill="none" stroke="black" points="264.5,-176.5 307.5,-176.5 "/>
<text text-anchor="middle" x="286" y="-164.5" font-family="Helvetica,sans-Serif" font-size="10.00"> </text>
<polyline fill="none" stroke="black" points="264.5,-157.5 307.5,-157.5 "/>
<text text-anchor="middle" x="286" y="-145.5" font-family="Helvetica,sans-Serif" font-size="10.00"> </text>
</a>
</g>
</g>
<!-- Node4&#45;&gt;Node1 -->
<g id="edge3" class="edge"><title>Node4&#45;&gt;Node1</title>
<path fill="none" stroke="#404040" d="M293.018,-138.326C298.441,-119.829 307.052,-95.4187 319,-76 320.826,-73.0322 322.864,-70.0903 325.033,-67.2139"/>
<polygon fill="none" stroke="#404040" points="325.187,-67.0257 325.896,-59.8495 332.793,-57.7438 332.084,-64.92 325.187,-67.0257"/>
<text text-anchor="middle" x="338.5" y="-84.5" font-family="Helvetica,sans-Serif" font-size="10.00"> +fanOut</text>
</g>
<!-- Node5 -->
<g id="node5" class="node"><title>Node5</title>
<polygon fill="none" stroke="#bfbfbf" points="326,-138.5 326,-195.5 398,-195.5 398,-138.5 326,-138.5"/>
<text text-anchor="middle" x="362" y="-183.5" font-family="Helvetica,sans-Serif" font-size="10.00">vector&lt; int &gt;</text>
<polyline fill="none" stroke="#bfbfbf" points="326,-176.5 398,-176.5 "/>
<text text-anchor="middle" x="362" y="-164.5" font-family="Helvetica,sans-Serif" font-size="10.00"> </text>
<polyline fill="none" stroke="#bfbfbf" points="326,-157.5 398,-157.5 "/>
<text text-anchor="middle" x="362" y="-145.5" font-family="Helvetica,sans-Serif" font-size="10.00"> </text>
</g>
<!-- Node5&#45;&gt;Node1 -->
<g id="edge4" class="edge"><title>Node5&#45;&gt;Node1</title>
<path fill="none" stroke="#404040" d="M362,-138.478C362,-118.792 362,-91.9899 362,-69.9526"/>
<polygon fill="none" stroke="#404040" points="362,-69.9475 358,-63.9475 362,-57.9475 366,-63.9475 362,-69.9475"/>
<text text-anchor="middle" x="390.5" y="-84.5" font-family="Helvetica,sans-Serif" font-size="10.00"> +tpcSectors</text>
</g>
<!-- Node6 -->
<g id="node6" class="node"><title>Node6</title>
<g id="a_node6"><a xlink:href="../../d8/dc3/structo2_1_1framework_1_1OutputSpec.html" target="_top" xlink:title="{o2::framework::OutputSpec\n||+ OutputSpec()\l+ OutputSpec()\l+ OutputSpec()\l+ OutputSpec()\l+ operator==()\l}">
<polygon fill="none" stroke="black" points="416.5,-116.5 416.5,-217.5 553.5,-217.5 553.5,-116.5 416.5,-116.5"/>
<text text-anchor="middle" x="485" y="-205.5" font-family="Helvetica,sans-Serif" font-size="10.00">o2::framework::OutputSpec</text>
<polyline fill="none" stroke="black" points="416.5,-198.5 553.5,-198.5 "/>
<text text-anchor="middle" x="485" y="-186.5" font-family="Helvetica,sans-Serif" font-size="10.00"> </text>
<polyline fill="none" stroke="black" points="416.5,-179.5 553.5,-179.5 "/>
<text text-anchor="start" x="424.5" y="-167.5" font-family="Helvetica,sans-Serif" font-size="10.00">+ OutputSpec()</text>
<text text-anchor="start" x="424.5" y="-156.5" font-family="Helvetica,sans-Serif" font-size="10.00">+ OutputSpec()</text>
<text text-anchor="start" x="424.5" y="-145.5" font-family="Helvetica,sans-Serif" font-size="10.00">+ OutputSpec()</text>
<text text-anchor="start" x="424.5" y="-134.5" font-family="Helvetica,sans-Serif" font-size="10.00">+ OutputSpec()</text>
<text text-anchor="start" x="424.5" y="-123.5" font-family="Helvetica,sans-Serif" font-size="10.00">+ operator==()</text>
</a>
</g>
</g>
<!-- Node6&#45;&gt;Node1 -->
<g id="edge5" class="edge"><title>Node6&#45;&gt;Node1</title>
<path fill="none" stroke="#404040" d="M454.865,-116.17C445.486,-102.459 434.551,-88.0569 423,-76 419.542,-72.3903 415.78,-68.8465 411.879,-65.4273"/>
<polygon fill="none" stroke="#404040" points="411.822,-65.3806 404.652,-64.6163 402.6,-57.7034 409.77,-58.4677 411.822,-65.3806"/>
<text text-anchor="middle" x="467" y="-90" font-family="Helvetica,sans-Serif" font-size="10.00"> +mcoutput</text>
<text text-anchor="middle" x="467" y="-79" font-family="Helvetica,sans-Serif" font-size="10.00">+dataoutput</text>
</g>
<!-- Node7 -->
<g id="node7" class="node"><title>Node7</title>
<polygon fill="none" stroke="#bfbfbf" points="353.5,-359.5 353.5,-416.5 404.5,-416.5 404.5,-359.5 353.5,-359.5"/>
<text text-anchor="middle" x="379" y="-404.5" font-family="Helvetica,sans-Serif" font-size="10.00">uint64_t</text>
<polyline fill="none" stroke="#bfbfbf" points="353.5,-397.5 404.5,-397.5 "/>
<text text-anchor="middle" x="379" y="-385.5" font-family="Helvetica,sans-Serif" font-size="10.00"> </text>
<polyline fill="none" stroke="#bfbfbf" points="353.5,-378.5 404.5,-378.5 "/>
<text text-anchor="middle" x="379" y="-366.5" font-family="Helvetica,sans-Serif" font-size="10.00"> </text>
</g>
<!-- Node7&#45;&gt;Node6 -->
<g id="edge6" class="edge"><title>Node7&#45;&gt;Node6</title>
<path fill="none" stroke="#404040" d="M385.112,-359.237C392.896,-327.679 408.372,-275.436 433,-236 434.712,-233.258 436.509,-230.492 438.363,-227.724"/>
<polygon fill="none" stroke="#404040" points="438.446,-227.604 438.577,-220.394 445.282,-217.741 445.152,-224.951 438.446,-227.604"/>
<text text-anchor="middle" x="457" y="-244.5" font-family="Helvetica,sans-Serif" font-size="10.00"> +subSpec</text>
</g>
<!-- Node8&#45;&gt;Node6 -->
<g id="edge7" class="edge"><title>Node8&#45;&gt;Node6</title>
<path fill="none" stroke="#404040" d="M485,-276.858C485,-260.632 485,-244.424 485,-229.66"/>
<polygon fill="none" stroke="#404040" points="485,-229.629 481,-223.629 485,-217.629 489,-223.629 485,-229.629"/>
<text text-anchor="middle" x="501.5" y="-244.5" font-family="Helvetica,sans-Serif" font-size="10.00"> +origin</text>
</g>
<!-- Node9 -->
<g id="node9" class="node"><title>Node9</title>
<polygon fill="none" stroke="#bfbfbf" points="287,-889.5 287,-946.5 325,-946.5 325,-889.5 287,-889.5"/>
<text text-anchor="middle" x="306" y="-934.5" font-family="Helvetica,sans-Serif" font-size="10.00">Type</text>
<polyline fill="none" stroke="#bfbfbf" points="287,-927.5 325,-927.5 "/>
<text text-anchor="middle" x="306" y="-915.5" font-family="Helvetica,sans-Serif" font-size="10.00"> </text>
<polyline fill="none" stroke="#bfbfbf" points="287,-908.5 325,-908.5 "/>
<text text-anchor="middle" x="306" y="-896.5" font-family="Helvetica,sans-Serif" font-size="10.00"> </text>
</g>
<!-- Node9&#45;&gt;Node8 -->
<g id="edge8" class="edge"><title>Node9&#45;&gt;Node8</title>
<path fill="none" stroke="#404040" d="M302.656,-889.005C295.148,-820.842 280.203,-648.717 315,-606 336.923,-579.087 364.031,-609.855 391,-588 405.398,-576.333 422.381,-544.935 437.922,-510.436"/>
<polygon fill="none" stroke="#404040" points="438.061,-510.122 436.828,-503.017 442.913,-499.146 444.145,-506.251 438.061,-510.122"/>
<text text-anchor="middle" x="325" y="-709.5" font-family="Helvetica,sans-Serif" font-size="10.00"> +itg</text>
</g>
<!-- Node9&#45;&gt;Node12 -->
<g id="edge13" class="edge"><title>Node9&#45;&gt;Node12</title>
<path fill="none" stroke="#404040" d="M317.063,-889.444C323.514,-873.687 331.945,-853.615 340,-836 341.107,-833.578 342.234,-831.134 343.377,-828.673"/>
<polygon fill="none" stroke="#404040" points="343.381,-828.664 342.307,-821.533 348.476,-817.799 349.55,-824.93 343.381,-828.664"/>
<text text-anchor="middle" x="350" y="-850.5" font-family="Helvetica,sans-Serif" font-size="10.00"> +itg</text>
</g>
<!-- Node9&#45;&gt;Node14 -->
<g id="edge19" class="edge"><title>Node9&#45;&gt;Node14</title>
<path fill="none" stroke="#404040" d="M286.697,-906.026C261.598,-890.366 219.488,-858.917 207,-818 176.385,-717.685 190.44,-598.471 209.398,-511.204"/>
<polygon fill="none" stroke="#404040" points="209.424,-511.089 206.828,-504.361 212.04,-499.378 214.636,-506.105 209.424,-511.089"/>
<text text-anchor="middle" x="217" y="-709.5" font-family="Helvetica,sans-Serif" font-size="10.00"> +itg</text>
</g>
<!-- Node10 -->
<g id="node10" class="node"><title>Node10</title>
<polygon fill="none" stroke="#bfbfbf" points="700.5,-889.5 700.5,-946.5 729.5,-946.5 729.5,-889.5 700.5,-889.5"/>
<text text-anchor="middle" x="715" y="-934.5" font-family="Helvetica,sans-Serif" font-size="10.00">int</text>
<polyline fill="none" stroke="#bfbfbf" points="700.5,-927.5 729.5,-927.5 "/>
<text text-anchor="middle" x="715" y="-915.5" font-family="Helvetica,sans-Serif" font-size="10.00"> </text>
<polyline fill="none" stroke="#bfbfbf" points="700.5,-908.5 729.5,-908.5 "/>
<text text-anchor="middle" x="715" y="-896.5" font-family="Helvetica,sans-Serif" font-size="10.00"> </text>
</g>
<!-- Node10&#45;&gt;Node1 -->
<g id="edge26" class="edge"><title>Node10&#45;&gt;Node1</title>
<path fill="none" stroke="#404040" d="M729.519,-912.207C748.159,-905.417 780.533,-891.392 801,-870 854.728,-813.844 878,-790.718 878,-713 878,-713 878,-713 878,-166 878,-75.4184 576.916,-43.8663 434.726,-34.0161"/>
<polygon fill="none" stroke="#404040" points="434.682,-34.0133 428.428,-37.6023 422.709,-33.2092 428.964,-29.6202 434.682,-34.0133"/>
<text text-anchor="middle" x="920.5" y="-391" font-family="Helvetica,sans-Serif" font-size="10.00"> +defaultTreeName</text>
<text text-anchor="middle" x="920.5" y="-380" font-family="Helvetica,sans-Serif" font-size="10.00">+processName</text>
</g>
<!-- Node10&#45;&gt;Node8 -->
<g id="edge10" class="edge"><title>Node10&#45;&gt;Node8</title>
<path fill="none" stroke="#404040" d="M714.577,-889.385C713.177,-822.868 707.274,-655.607 683,-606 658.13,-555.176 636.885,-551.108 591,-518 577.134,-507.995 569.613,-511.543 557,-500 556.698,-499.724 556.397,-499.446 556.097,-499.167"/>
<polygon fill="none" stroke="#404040" points="556.086,-499.156 549.013,-497.75 547.591,-490.681 554.664,-492.087 556.086,-499.156"/>
<text text-anchor="middle" x="738.5" y="-720.5" font-family="Helvetica,sans-Serif" font-size="10.00"> +arraySize</text>
<text text-anchor="middle" x="738.5" y="-709.5" font-family="Helvetica,sans-Serif" font-size="10.00">+size</text>
<text text-anchor="middle" x="738.5" y="-698.5" font-family="Helvetica,sans-Serif" font-size="10.00">+bitcount</text>
</g>
<!-- Node10&#45;&gt;Node12 -->
<g id="edge15" class="edge"><title>Node10&#45;&gt;Node12</title>
<path fill="none" stroke="#404040" d="M700.495,-914.761C659.599,-907.756 541.813,-882.737 472,-818 469.968,-816.116 467.964,-814.163 465.99,-812.152"/>
<polygon fill="none" stroke="#404040" points="465.681,-811.818 458.671,-810.126 457.537,-803.005 464.547,-804.696 465.681,-811.818"/>
<text text-anchor="middle" x="575.5" y="-861.5" font-family="Helvetica,sans-Serif" font-size="10.00"> +arraySize</text>
<text text-anchor="middle" x="575.5" y="-850.5" font-family="Helvetica,sans-Serif" font-size="10.00">+size</text>
<text text-anchor="middle" x="575.5" y="-839.5" font-family="Helvetica,sans-Serif" font-size="10.00">+bitcount</text>
</g>
<!-- Node10&#45;&gt;Node14 -->
<g id="edge21" class="edge"><title>Node10&#45;&gt;Node14</title>
<path fill="none" stroke="#404040" d="M700.236,-905.422C680.004,-888.603 644.316,-855.317 628,-818 609.025,-774.603 639.079,-639.899 606,-606 562.186,-561.101 517.947,-623.172 466,-588 436.51,-568.033 455.608,-539.212 427,-518 396.679,-495.518 376.653,-518.936 344,-500 338.599,-496.868 333.33,-493.344 328.215,-489.528"/>
<polygon fill="none" stroke="#404040" points="327.966,-489.33 320.781,-488.725 318.576,-481.859 325.761,-482.465 327.966,-489.33"/>
<text text-anchor="middle" x="653.5" y="-720.5" font-family="Helvetica,sans-Serif" font-size="10.00"> +arraySize</text>
<text text-anchor="middle" x="653.5" y="-709.5" font-family="Helvetica,sans-Serif" font-size="10.00">+size</text>
<text text-anchor="middle" x="653.5" y="-698.5" font-family="Helvetica,sans-Serif" font-size="10.00">+bitcount</text>
</g>
<!-- Node15 -->
<g id="node15" class="node"><title>Node15</title>
<g id="a_node15"><a xlink:href="../../de/d1b/structo2_1_1framework_1_1OutputLabel.html" target="_top" xlink:title="{o2::framework::OutputLabel\n||}">
<polygon fill="none" stroke="black" points="725.5,-524.5 725.5,-581.5 862.5,-581.5 862.5,-524.5 725.5,-524.5"/>
<text text-anchor="middle" x="794" y="-569.5" font-family="Helvetica,sans-Serif" font-size="10.00">o2::framework::OutputLabel</text>
<polyline fill="none" stroke="black" points="725.5,-562.5 862.5,-562.5 "/>
<text text-anchor="middle" x="794" y="-550.5" font-family="Helvetica,sans-Serif" font-size="10.00"> </text>
<polyline fill="none" stroke="black" points="725.5,-543.5 862.5,-543.5 "/>
<text text-anchor="middle" x="794" y="-531.5" font-family="Helvetica,sans-Serif" font-size="10.00"> </text>
</a>
</g>
</g>
<!-- Node10&#45;&gt;Node15 -->
<g id="edge25" class="edge"><title>Node10&#45;&gt;Node15</title>
<path fill="none" stroke="#404040" d="M729.738,-896.53C742.757,-877.274 761.026,-847.125 770,-818 793.661,-741.206 796.211,-646.357 795.44,-593.805"/>
<polygon fill="none" stroke="#404040" points="795.438,-593.7 791.316,-587.783 795.192,-581.702 799.314,-587.619 795.438,-593.7"/>
<text text-anchor="middle" x="780.5" y="-850.5" font-family="Helvetica,sans-Serif" font-size="10.00"> +value</text>
</g>
<!-- Node11 -->
<g id="node11" class="node"><title>Node11</title>
<polygon fill="none" stroke="#bfbfbf" points="487.5,-889 487.5,-947 516.5,-947 516.5,-889 487.5,-889"/>
<polyline fill="none" stroke="#bfbfbf" points="487.5,-927 516.5,-927 "/>
<text text-anchor="middle" x="502" y="-915" font-family="Helvetica,sans-Serif" font-size="10.00"> </text>
<polyline fill="none" stroke="#bfbfbf" points="487.5,-908 516.5,-908 "/>
<text text-anchor="middle" x="502" y="-896" font-family="Helvetica,sans-Serif" font-size="10.00"> </text>
</g>
<!-- Node11&#45;&gt;Node8 -->
<g id="edge11" class="edge"><title>Node11&#45;&gt;Node8</title>
<path fill="none" stroke="#404040" d="M510.644,-888.725C512.465,-882.568 514.336,-876.077 516,-870 522.291,-847.023 523.822,-841.253 529,-818 551.639,-716.33 563.953,-691.675 574,-588 577.001,-557.034 585.494,-546.91 574,-518 569.935,-507.775 563.8,-508.651 557,-500 556.317,-499.131 555.634,-498.255 554.952,-497.374"/>
<polygon fill="none" stroke="#404040" points="554.897,-497.302 548.09,-494.922 547.669,-487.723 554.476,-490.103 554.897,-497.302"/>
<text text-anchor="middle" x="587.5" y="-709.5" font-family="Helvetica,sans-Serif" font-size="10.00"> +@14</text>
</g>
<!-- Node11&#45;&gt;Node12 -->
<g id="edge16" class="edge"><title>Node11&#45;&gt;Node12</title>
<path fill="none" stroke="#404040" d="M487.496,-916.233C461.359,-913.977 406.862,-905.08 383,-870 374.803,-857.949 370.782,-844.138 369.559,-829.817"/>
<polygon fill="none" stroke="#404040" points="369.555,-829.689 365.359,-823.824 369.159,-817.695 373.355,-823.56 369.555,-829.689"/>
<text text-anchor="middle" x="398.5" y="-850.5" font-family="Helvetica,sans-Serif" font-size="10.00"> +@14</text>
</g>
<!-- Node11&#45;&gt;Node14 -->
<g id="edge22" class="edge"><title>Node11&#45;&gt;Node14</title>
<path fill="none" stroke="#404040" d="M499.391,-888.762C492.431,-814.382 473.448,-617.95 466,-606 458.175,-593.445 448.714,-598.202 438,-588 410.312,-561.635 417.981,-541.725 388,-518 371.431,-504.889 361.283,-512.154 344,-500 338.563,-496.177 333.213,-492.006 327.986,-487.597"/>
<polygon fill="none" stroke="#404040" points="327.72,-487.363 320.574,-486.394 318.72,-479.426 325.866,-480.394 327.72,-487.363"/>
<text text-anchor="middle" x="508.5" y="-709.5" font-family="Helvetica,sans-Serif" font-size="10.00"> +@14</text>
</g>
<!-- Node12&#45;&gt;Node8 -->
<g id="edge12" class="edge"><title>Node12&#45;&gt;Node8</title>
<path fill="none" stroke="orange" d="M438.647,-596.46C439.453,-593.616 440.239,-590.793 441,-588 448.79,-559.409 456.192,-528.227 462.627,-499.209"/>
<polygon fill="orange" stroke="orange" points="435.248,-595.614 435.835,-606.193 441.973,-597.558 435.248,-595.614"/>
<text text-anchor="start" x="458" y="-556" font-family="Helvetica,sans-Serif" font-size="10.00"> &lt; gSizeDataOriginString,</text>
<text text-anchor="middle" x="514" y="-545" font-family="Helvetica,sans-Serif" font-size="10.00"> printDataOrigin &gt;</text>
</g>
<!-- Node12&#45;&gt;Node14 -->
<g id="edge23" class="edge"><title>Node12&#45;&gt;Node14</title>
<path fill="none" stroke="orange" d="M336.517,-610.847C334.395,-609.145 332.223,-607.525 330,-606 300.667,-585.867 274.704,-615.392 252,-588 231.7,-563.509 224.958,-530.92 224.65,-499.216"/>
<polygon fill="orange" stroke="orange" points="334.621,-613.839 344.451,-617.791 339.231,-608.571 334.621,-613.839"/>
<text text-anchor="start" x="252" y="-556" font-family="Helvetica,sans-Serif" font-size="10.00"> &lt; gSizeDataDescriptionString,</text>
<text text-anchor="middle" x="320" y="-545" font-family="Helvetica,sans-Serif" font-size="10.00"> printDataDescription &gt;</text>
</g>
<!-- Node13 -->
<g id="node13" class="node"><title>Node13</title>
<polygon fill="none" stroke="#bfbfbf" points="566,-359.5 566,-416.5 644,-416.5 644,-359.5 566,-359.5"/>
<text text-anchor="middle" x="605" y="-404.5" font-family="Helvetica,sans-Serif" font-size="10.00">enum Lifetime</text>
<polyline fill="none" stroke="#bfbfbf" points="566,-397.5 644,-397.5 "/>
<text text-anchor="middle" x="605" y="-385.5" font-family="Helvetica,sans-Serif" font-size="10.00"> </text>
<polyline fill="none" stroke="#bfbfbf" points="566,-378.5 644,-378.5 "/>
<text text-anchor="middle" x="605" y="-366.5" font-family="Helvetica,sans-Serif" font-size="10.00"> </text>
</g>
<!-- Node13&#45;&gt;Node6 -->
<g id="edge17" class="edge"><title>Node13&#45;&gt;Node6</title>
<path fill="none" stroke="#404040" d="M594.342,-359.482C585.147,-336.645 571.01,-303.565 556,-276 547.325,-260.068 537.048,-243.429 527.047,-228.117"/>
<polygon fill="none" stroke="#404040" points="526.811,-227.761 520.164,-224.964 520.189,-217.753 526.836,-220.55 526.811,-227.761"/>
<text text-anchor="middle" x="566.5" y="-244.5" font-family="Helvetica,sans-Serif" font-size="10.00"> +lifetime</text>
</g>
<!-- Node14&#45;&gt;Node6 -->
<g id="edge18" class="edge"><title>Node14&#45;&gt;Node6</title>
<path fill="none" stroke="#404040" d="M318.538,-276.917C331.822,-261.915 346.435,-247.685 362,-236 376.737,-224.936 385.175,-226.842 404.983,-218.41"/>
<polygon fill="none" stroke="#404040" points="405.242,-218.287 408.945,-212.1 416.081,-213.138 412.378,-219.326 405.242,-218.287"/>
<text text-anchor="middle" x="390.5" y="-244.5" font-family="Helvetica,sans-Serif" font-size="10.00"> +description</text>
</g>
<!-- Node15&#45;&gt;Node6 -->
<g id="edge24" class="edge"><title>Node15&#45;&gt;Node6</title>
<path fill="none" stroke="#404040" d="M785.377,-524.49C767.651,-471.397 722.825,-353.233 653,-276 628.143,-248.506 594.752,-225.142 564.289,-207.253"/>
<polygon fill="none" stroke="#404040" points="564.065,-207.125 556.87,-207.61 553.654,-201.156 560.849,-200.67 564.065,-207.125"/>
<text text-anchor="middle" x="796" y="-385.5" font-family="Helvetica,sans-Serif" font-size="10.00"> +binding</text>
</g>
</g>
</svg>
