<?xml version="1.0" encoding="UTF-8" standalone="no"?>
<!DOCTYPE svg PUBLIC "-//W3C//DTD SVG 1.1//EN"
 "http://www.w3.org/Graphics/SVG/1.1/DTD/svg11.dtd">
<!-- Generated by graphviz version 2.36.0 (20140111.2315)
 -->
<!-- Title: o2::framework::ComputingResource Pages: 1 -->
<svg width="192pt" height="194pt"
 viewBox="0.00 0.00 192.00 194.00" xmlns="http://www.w3.org/2000/svg" xmlns:xlink="http://www.w3.org/1999/xlink">
<g id="graph0" class="graph" transform="scale(1 1) rotate(0) translate(4 190)">
<title>o2::framework::ComputingResource</title>
<!-- Node1 -->
<g id="node1" class="node"><title>Node1</title>
<polygon fill="#bfbfbf" stroke="black" points="26,-1 26,-69 158,-69 158,-1 26,-1"/>
<text text-anchor="start" x="34" y="-57" font-family="Helvetica,sans-Serif" font-size="10.00">o2::framework::Computing</text>
<text text-anchor="middle" x="92" y="-46" font-family="Helvetica,sans-Serif" font-size="10.00">Resource</text>
<polyline fill="none" stroke="black" points="26,-39 158,-39 "/>
<text text-anchor="middle" x="92" y="-27" font-family="Helvetica,sans-Serif" font-size="10.00"> </text>
<polyline fill="none" stroke="black" points="26,-20 158,-20 "/>
<text text-anchor="middle" x="92" y="-8" font-family="Helvetica,sans-Serif" font-size="10.00"> </text>
</g>
<!-- Node2 -->
<g id="node2" class="node"><title>Node2</title>
<polygon fill="none" stroke="#bfbfbf" points="-0.5,-128.5 -0.5,-185.5 34.5,-185.5 34.5,-128.5 -0.5,-128.5"/>
<text text-anchor="middle" x="17" y="-173.5" font-family="Helvetica,sans-Serif" font-size="10.00">char</text>
<polyline fill="none" stroke="#bfbfbf" points="-0.5,-166.5 34.5,-166.5 "/>
<text text-anchor="middle" x="17" y="-154.5" font-family="Helvetica,sans-Serif" font-size="10.00"> </text>
<polyline fill="none" stroke="#bfbfbf" points="-0.5,-147.5 34.5,-147.5 "/>
<text text-anchor="middle" x="17" y="-135.5" font-family="Helvetica,sans-Serif" font-size="10.00"> </text>
</g>
<!-- Node2&#45;&gt;Node1 -->
<g id="edge1" class="edge"><title>Node2&#45;&gt;Node1</title>
<path fill="none" stroke="#404040" d="M21.1194,-128.459C23.925,-115.502 28.5352,-100.246 36,-88 38.0372,-84.6581 40.3485,-81.3959 42.8437,-78.2394"/>
<polygon fill="none" stroke="#404040" points="42.9102,-78.1629 43.8338,-71.0112 50.7907,-69.1131 49.8671,-76.2648 42.9102,-78.1629"/>
<text text-anchor="middle" x="62" y="-96.5" font-family="Helvetica,sans-Serif" font-size="10.00"> +hostname</text>
</g>
<!-- Node3 -->
<g id="node3" class="node"><title>Node3</title>
<g id="a_node3"><a xlink:href="../../d4/dc3/classfloat.html" target="_top" xlink:title="{float\n||}">
<polygon fill="none" stroke="black" points="74.5,-128.5 74.5,-185.5 109.5,-185.5 109.5,-128.5 74.5,-128.5"/>
<text text-anchor="middle" x="92" y="-173.5" font-family="Helvetica,sans-Serif" font-size="10.00">float</text>
<polyline fill="none" stroke="black" points="74.5,-166.5 109.5,-166.5 "/>
<text text-anchor="middle" x="92" y="-154.5" font-family="Helvetica,sans-Serif" font-size="10.00"> </text>
<polyline fill="none" stroke="black" points="74.5,-147.5 109.5,-147.5 "/>
<text text-anchor="middle" x="92" y="-135.5" font-family="Helvetica,sans-Serif" font-size="10.00"> </text>
</a>
</g>
</g>
<!-- Node3&#45;&gt;Node1 -->
<g id="edge2" class="edge"><title>Node3&#45;&gt;Node1</title>
<path fill="none" stroke="#404040" d="M92,-128.47C92,-114.601 92,-97.4211 92,-81.647"/>
<polygon fill="none" stroke="#404040" points="92.0001,-81.3881 88,-75.3881 92,-69.3881 96,-75.388 92.0001,-81.3881"/>
<text text-anchor="middle" x="113" y="-102" font-family="Helvetica,sans-Serif" font-size="10.00"> +cpu</text>
<text text-anchor="middle" x="113" y="-91" font-family="Helvetica,sans-Serif" font-size="10.00">+memory</text>
</g>
<!-- Node4 -->
<g id="node4" class="node"><title>Node4</title>
<polygon fill="none" stroke="#bfbfbf" points="129,-128.5 129,-185.5 185,-185.5 185,-128.5 129,-128.5"/>
<text text-anchor="middle" x="157" y="-173.5" font-family="Helvetica,sans-Serif" font-size="10.00">unsigned</text>
<polyline fill="none" stroke="#bfbfbf" points="129,-166.5 185,-166.5 "/>
<text text-anchor="middle" x="157" y="-154.5" font-family="Helvetica,sans-Serif" font-size="10.00"> </text>
<polyline fill="none" stroke="#bfbfbf" points="129,-147.5 185,-147.5 "/>
<text text-anchor="middle" x="157" y="-135.5" font-family="Helvetica,sans-Serif" font-size="10.00"> </text>
</g>
<!-- Node4&#45;&gt;Node1 -->
<g id="edge3" class="edge"><title>Node4&#45;&gt;Node1</title>
<path fill="none" stroke="#404040" d="M150.578,-128.223C147.002,-115.502 141.865,-100.509 135,-88 133.336,-84.9672 131.483,-81.9422 129.508,-78.9635"/>
<polygon fill="none" stroke="#404040" points="129.407,-78.8228 122.66,-76.2773 122.415,-69.0703 129.162,-71.6159 129.407,-78.8228"/>
<text text-anchor="middle" x="158" y="-96.5" font-family="Helvetica,sans-Serif" font-size="10.00"> +port</text>
</g>
</g>
</svg>
