<?xml version="1.0" encoding="UTF-8" standalone="no"?>
<!DOCTYPE svg PUBLIC "-//W3C//DTD SVG 1.1//EN"
 "http://www.w3.org/Graphics/SVG/1.1/DTD/svg11.dtd">
<!-- Generated by graphviz version 2.36.0 (20140111.2315)
 -->
<!-- Title: /home/travis/build/AliceO2Group/AliceO2/Detectors/TPC/base/include/TPCBase/ParameterGas.h Pages: 1 -->
<svg width="3527pt" height="510pt"
 viewBox="0.00 0.00 3527.00 510.00" xmlns="http://www.w3.org/2000/svg" xmlns:xlink="http://www.w3.org/1999/xlink">
<g id="graph0" class="graph" transform="scale(1 1) rotate(0) translate(4 506)">
<title>/home/travis/build/AliceO2Group/AliceO2/Detectors/TPC/base/include/TPCBase/ParameterGas.h</title>
<!-- Node1 -->
<g id="node1" class="node"><title>Node1</title>
<polygon fill="#bfbfbf" stroke="black" points="1391.5,-449 1391.5,-501 1534.5,-501 1534.5,-449 1391.5,-449"/>
<text text-anchor="start" x="1399.5" y="-489" font-family="Helvetica,sans-Serif" font-size="10.00">/home/travis/build</text>
<text text-anchor="start" x="1399.5" y="-478" font-family="Helvetica,sans-Serif" font-size="10.00">/AliceO2Group/AliceO2</text>
<text text-anchor="start" x="1399.5" y="-467" font-family="Helvetica,sans-Serif" font-size="10.00">/Detectors/TPC/base/include</text>
<text text-anchor="middle" x="1463" y="-456" font-family="Helvetica,sans-Serif" font-size="10.00">/TPCBase/ParameterGas.h</text>
</g>
<!-- Node2 -->
<g id="node2" class="node"><title>Node2</title>
<g id="a_node2"><a xlink:href="../../dc/d59/MatchTPCITS_8cxx.html" target="_top" xlink:title="/home/travis/build\l/AliceO2Group/AliceO2\l/Detectors/GlobalTracking\l/src/MatchTPCITS.cxx">
<polygon fill="none" stroke="black" points="-0.5,-359 -0.5,-411 130.5,-411 130.5,-359 -0.5,-359"/>
<text text-anchor="start" x="7.5" y="-399" font-family="Helvetica,sans-Serif" font-size="10.00">/home/travis/build</text>
<text text-anchor="start" x="7.5" y="-388" font-family="Helvetica,sans-Serif" font-size="10.00">/AliceO2Group/AliceO2</text>
<text text-anchor="start" x="7.5" y="-377" font-family="Helvetica,sans-Serif" font-size="10.00">/Detectors/GlobalTracking</text>
<text text-anchor="middle" x="65" y="-366" font-family="Helvetica,sans-Serif" font-size="10.00">/src/MatchTPCITS.cxx</text>
</a>
</g>
</g>
<!-- Node1&#45;&gt;Node2 -->
<g id="edge1" class="edge"><title>Node1&#45;&gt;Node2</title>
<path fill="none" stroke="midnightblue" d="M1381.05,-473.227C1130.88,-470.386 379.545,-458.135 140,-412 136.888,-411.401 133.729,-410.699 130.558,-409.918"/>
<polygon fill="midnightblue" stroke="midnightblue" points="1381.12,-476.728 1391.16,-473.34 1381.2,-469.729 1381.12,-476.728"/>
</g>
<!-- Node3 -->
<g id="node3" class="node"><title>Node3</title>
<g id="a_node3"><a xlink:href="../../dc/d71/CDBInterface_8cxx.html" target="_top" xlink:title="/home/travis/build\l/AliceO2Group/AliceO2\l/Detectors/TPC/base/src\l/CDBInterface.cxx">
<polygon fill="none" stroke="black" points="149,-359 149,-411 275,-411 275,-359 149,-359"/>
<text text-anchor="start" x="157" y="-399" font-family="Helvetica,sans-Serif" font-size="10.00">/home/travis/build</text>
<text text-anchor="start" x="157" y="-388" font-family="Helvetica,sans-Serif" font-size="10.00">/AliceO2Group/AliceO2</text>
<text text-anchor="start" x="157" y="-377" font-family="Helvetica,sans-Serif" font-size="10.00">/Detectors/TPC/base/src</text>
<text text-anchor="middle" x="212" y="-366" font-family="Helvetica,sans-Serif" font-size="10.00">/CDBInterface.cxx</text>
</a>
</g>
</g>
<!-- Node1&#45;&gt;Node3 -->
<g id="edge2" class="edge"><title>Node1&#45;&gt;Node3</title>
<path fill="none" stroke="midnightblue" d="M1381.3,-472.819C1150.11,-468.984 494.457,-454.561 284,-412 281.134,-411.42 278.229,-410.748 275.313,-410.004"/>
<polygon fill="midnightblue" stroke="midnightblue" points="1381.27,-476.319 1391.32,-472.983 1381.38,-469.32 1381.27,-476.319"/>
</g>
<!-- Node4 -->
<g id="node4" class="node"><title>Node4</title>
<g id="a_node4"><a xlink:href="../../dd/d64/ParameterGas_8cxx.html" target="_top" xlink:title="Implementation of the parameter class for the detector gas. ">
<polygon fill="none" stroke="black" points="293,-359 293,-411 419,-411 419,-359 293,-359"/>
<text text-anchor="start" x="301" y="-399" font-family="Helvetica,sans-Serif" font-size="10.00">/home/travis/build</text>
<text text-anchor="start" x="301" y="-388" font-family="Helvetica,sans-Serif" font-size="10.00">/AliceO2Group/AliceO2</text>
<text text-anchor="start" x="301" y="-377" font-family="Helvetica,sans-Serif" font-size="10.00">/Detectors/TPC/base/src</text>
<text text-anchor="middle" x="356" y="-366" font-family="Helvetica,sans-Serif" font-size="10.00">/ParameterGas.cxx</text>
</a>
</g>
</g>
<!-- Node1&#45;&gt;Node4 -->
<g id="edge3" class="edge"><title>Node1&#45;&gt;Node4</title>
<path fill="none" stroke="midnightblue" d="M1381.14,-472.12C1169.8,-466.782 609.705,-449.436 428,-412 425.136,-411.41 422.233,-410.729 419.318,-409.978"/>
<polygon fill="midnightblue" stroke="midnightblue" points="1381.16,-475.621 1391.24,-472.373 1381.33,-468.623 1381.16,-475.621"/>
</g>
<!-- Node5 -->
<g id="node5" class="node"><title>Node5</title>
<g id="a_node5"><a xlink:href="../../d1/d8a/testTPCCDBInterface_8cxx.html" target="_top" xlink:title="/home/travis/build\l/AliceO2Group/AliceO2\l/Detectors/TPC/base/test\l/testTPCCDBInterface.cxx">
<polygon fill="none" stroke="black" points="437.5,-359 437.5,-411 572.5,-411 572.5,-359 437.5,-359"/>
<text text-anchor="start" x="445.5" y="-399" font-family="Helvetica,sans-Serif" font-size="10.00">/home/travis/build</text>
<text text-anchor="start" x="445.5" y="-388" font-family="Helvetica,sans-Serif" font-size="10.00">/AliceO2Group/AliceO2</text>
<text text-anchor="start" x="445.5" y="-377" font-family="Helvetica,sans-Serif" font-size="10.00">/Detectors/TPC/base/test</text>
<text text-anchor="middle" x="505" y="-366" font-family="Helvetica,sans-Serif" font-size="10.00">/testTPCCDBInterface.cxx</text>
</a>
</g>
</g>
<!-- Node1&#45;&gt;Node5 -->
<g id="edge4" class="edge"><title>Node1&#45;&gt;Node5</title>
<path fill="none" stroke="midnightblue" d="M1381.17,-470.96C1192.72,-463.521 732.698,-442.735 581,-412 578.267,-411.446 575.496,-410.82 572.712,-410.137"/>
<polygon fill="midnightblue" stroke="midnightblue" points="1381.16,-474.463 1391.29,-471.357 1381.44,-467.468 1381.16,-474.463"/>
</g>
<!-- Node6 -->
<g id="node6" class="node"><title>Node6</title>
<g id="a_node6"><a xlink:href="../../da/d69/testTPCParameters_8cxx.html" target="_top" xlink:title="This task tests the Parameter handling. ">
<polygon fill="none" stroke="black" points="590.5,-359 590.5,-411 719.5,-411 719.5,-359 590.5,-359"/>
<text text-anchor="start" x="598.5" y="-399" font-family="Helvetica,sans-Serif" font-size="10.00">/home/travis/build</text>
<text text-anchor="start" x="598.5" y="-388" font-family="Helvetica,sans-Serif" font-size="10.00">/AliceO2Group/AliceO2</text>
<text text-anchor="start" x="598.5" y="-377" font-family="Helvetica,sans-Serif" font-size="10.00">/Detectors/TPC/base/test</text>
<text text-anchor="middle" x="655" y="-366" font-family="Helvetica,sans-Serif" font-size="10.00">/testTPCParameters.cxx</text>
</a>
</g>
</g>
<!-- Node1&#45;&gt;Node6 -->
<g id="edge5" class="edge"><title>Node1&#45;&gt;Node6</title>
<path fill="none" stroke="midnightblue" d="M1381.01,-473.937C1244.14,-472.314 961.137,-462.461 728,-412 725.239,-411.402 722.439,-410.728 719.626,-409.993"/>
<polygon fill="midnightblue" stroke="midnightblue" points="1381.37,-477.441 1391.4,-474.048 1381.44,-470.442 1381.37,-477.441"/>
</g>
<!-- Node7 -->
<g id="node7" class="node"><title>Node7</title>
<g id="a_node7"><a xlink:href="../../d4/d7c/HardwareClusterDecoder_8cxx.html" target="_top" xlink:title="/home/travis/build\l/AliceO2Group/AliceO2\l/Detectors/TPC/reconstruction\l/src/HardwareClusterDecoder.cxx">
<polygon fill="none" stroke="black" points="737.5,-359 737.5,-411 902.5,-411 902.5,-359 737.5,-359"/>
<text text-anchor="start" x="745.5" y="-399" font-family="Helvetica,sans-Serif" font-size="10.00">/home/travis/build</text>
<text text-anchor="start" x="745.5" y="-388" font-family="Helvetica,sans-Serif" font-size="10.00">/AliceO2Group/AliceO2</text>
<text text-anchor="start" x="745.5" y="-377" font-family="Helvetica,sans-Serif" font-size="10.00">/Detectors/TPC/reconstruction</text>
<text text-anchor="middle" x="820" y="-366" font-family="Helvetica,sans-Serif" font-size="10.00">/src/HardwareClusterDecoder.cxx</text>
</a>
</g>
</g>
<!-- Node1&#45;&gt;Node7 -->
<g id="edge6" class="edge"><title>Node1&#45;&gt;Node7</title>
<path fill="none" stroke="midnightblue" d="M1380.91,-468.967C1272.69,-461.375 1076.72,-444.318 912,-412 908.905,-411.393 905.763,-410.733 902.598,-410.03"/>
<polygon fill="midnightblue" stroke="midnightblue" points="1380.89,-472.473 1391.1,-469.672 1381.37,-465.49 1380.89,-472.473"/>
</g>
<!-- Node8 -->
<g id="node8" class="node"><title>Node8</title>
<g id="a_node8"><a xlink:href="../../d8/ded/TPCCATracking_8cxx.html" target="_top" xlink:title="/home/travis/build\l/AliceO2Group/AliceO2\l/Detectors/TPC/reconstruction\l/src/TPCCATracking.cxx">
<polygon fill="none" stroke="black" points="921,-359 921,-411 1071,-411 1071,-359 921,-359"/>
<text text-anchor="start" x="929" y="-399" font-family="Helvetica,sans-Serif" font-size="10.00">/home/travis/build</text>
<text text-anchor="start" x="929" y="-388" font-family="Helvetica,sans-Serif" font-size="10.00">/AliceO2Group/AliceO2</text>
<text text-anchor="start" x="929" y="-377" font-family="Helvetica,sans-Serif" font-size="10.00">/Detectors/TPC/reconstruction</text>
<text text-anchor="middle" x="996" y="-366" font-family="Helvetica,sans-Serif" font-size="10.00">/src/TPCCATracking.cxx</text>
</a>
</g>
</g>
<!-- Node1&#45;&gt;Node8 -->
<g id="edge7" class="edge"><title>Node1&#45;&gt;Node8</title>
<path fill="none" stroke="midnightblue" d="M1381.23,-464.131C1303.24,-453.927 1182.77,-436.099 1080,-412 1077.18,-411.338 1074.31,-410.631 1071.42,-409.889"/>
<polygon fill="midnightblue" stroke="midnightblue" points="1381.11,-467.644 1391.48,-465.459 1382.01,-460.702 1381.11,-467.644"/>
</g>
<!-- Node9 -->
<g id="node9" class="node"><title>Node9</title>
<g id="a_node9"><a xlink:href="../../d5/dc0/TPCFastTransformHelperO2_8cxx.html" target="_top" xlink:title="/home/travis/build\l/AliceO2Group/AliceO2\l/Detectors/TPC/reconstruction\l/src/TPCFastTransformHelperO2.cxx">
<polygon fill="none" stroke="black" points="1089,-359 1089,-411 1269,-411 1269,-359 1089,-359"/>
<text text-anchor="start" x="1097" y="-399" font-family="Helvetica,sans-Serif" font-size="10.00">/home/travis/build</text>
<text text-anchor="start" x="1097" y="-388" font-family="Helvetica,sans-Serif" font-size="10.00">/AliceO2Group/AliceO2</text>
<text text-anchor="start" x="1097" y="-377" font-family="Helvetica,sans-Serif" font-size="10.00">/Detectors/TPC/reconstruction</text>
<text text-anchor="middle" x="1179" y="-366" font-family="Helvetica,sans-Serif" font-size="10.00">/src/TPCFastTransformHelperO2.cxx</text>
</a>
</g>
</g>
<!-- Node1&#45;&gt;Node9 -->
<g id="edge8" class="edge"><title>Node1&#45;&gt;Node9</title>
<path fill="none" stroke="midnightblue" d="M1381.3,-448.684C1343.18,-436.873 1297.95,-422.856 1259.93,-411.076"/>
<polygon fill="midnightblue" stroke="midnightblue" points="1380.75,-452.177 1391.33,-451.794 1382.82,-445.491 1380.75,-452.177"/>
</g>
<!-- Node10 -->
<g id="node10" class="node"><title>Node10</title>
<g id="a_node10"><a xlink:href="../../d6/d42/testTPCFastTransform_8cxx.html" target="_top" xlink:title="This task tests the TPC Fast Transformation. ">
<polygon fill="none" stroke="black" points="1287,-359 1287,-411 1445,-411 1445,-359 1287,-359"/>
<text text-anchor="start" x="1295" y="-399" font-family="Helvetica,sans-Serif" font-size="10.00">/home/travis/build</text>
<text text-anchor="start" x="1295" y="-388" font-family="Helvetica,sans-Serif" font-size="10.00">/AliceO2Group/AliceO2</text>
<text text-anchor="start" x="1295" y="-377" font-family="Helvetica,sans-Serif" font-size="10.00">/Detectors/TPC/reconstruction</text>
<text text-anchor="middle" x="1366" y="-366" font-family="Helvetica,sans-Serif" font-size="10.00">/test/testTPCFastTransform.cxx</text>
</a>
</g>
</g>
<!-- Node1&#45;&gt;Node10 -->
<g id="edge9" class="edge"><title>Node1&#45;&gt;Node10</title>
<path fill="none" stroke="midnightblue" d="M1427.67,-441.951C1416.52,-431.829 1404.35,-420.795 1393.8,-411.221"/>
<polygon fill="midnightblue" stroke="midnightblue" points="1425.45,-444.656 1435.2,-448.783 1430.15,-439.471 1425.45,-444.656"/>
</g>
<!-- Node11 -->
<g id="node11" class="node"><title>Node11</title>
<g id="a_node11"><a xlink:href="../../dd/d94/DigitContainer_8h.html" target="_top" xlink:title="Definition of the Digit Container. ">
<polygon fill="none" stroke="black" points="1463.5,-359 1463.5,-411 1656.5,-411 1656.5,-359 1463.5,-359"/>
<text text-anchor="start" x="1471.5" y="-399" font-family="Helvetica,sans-Serif" font-size="10.00">/home/travis/build</text>
<text text-anchor="start" x="1471.5" y="-388" font-family="Helvetica,sans-Serif" font-size="10.00">/AliceO2Group/AliceO2</text>
<text text-anchor="start" x="1471.5" y="-377" font-family="Helvetica,sans-Serif" font-size="10.00">/Detectors/TPC/simulation</text>
<text text-anchor="middle" x="1560" y="-366" font-family="Helvetica,sans-Serif" font-size="10.00">/include/TPCSimulation/DigitContainer.h</text>
</a>
</g>
</g>
<!-- Node1&#45;&gt;Node11 -->
<g id="edge10" class="edge"><title>Node1&#45;&gt;Node11</title>
<path fill="none" stroke="midnightblue" d="M1498.33,-441.951C1509.48,-431.829 1521.65,-420.795 1532.2,-411.221"/>
<polygon fill="midnightblue" stroke="midnightblue" points="1495.85,-439.471 1490.8,-448.783 1500.55,-444.656 1495.85,-439.471"/>
</g>
<!-- Node20 -->
<g id="node20" class="node"><title>Node20</title>
<g id="a_node20"><a xlink:href="../../d7/d0a/TPC_2simulation_2src_2Digitizer_8cxx.html" target="_top" xlink:title="/home/travis/build\l/AliceO2Group/AliceO2\l/Detectors/TPC/simulation\l/src/Digitizer.cxx">
<polygon fill="none" stroke="black" points="2160.5,-174 2160.5,-226 2293.5,-226 2293.5,-174 2160.5,-174"/>
<text text-anchor="start" x="2168.5" y="-214" font-family="Helvetica,sans-Serif" font-size="10.00">/home/travis/build</text>
<text text-anchor="start" x="2168.5" y="-203" font-family="Helvetica,sans-Serif" font-size="10.00">/AliceO2Group/AliceO2</text>
<text text-anchor="start" x="2168.5" y="-192" font-family="Helvetica,sans-Serif" font-size="10.00">/Detectors/TPC/simulation</text>
<text text-anchor="middle" x="2227" y="-181" font-family="Helvetica,sans-Serif" font-size="10.00">/src/Digitizer.cxx</text>
</a>
</g>
</g>
<!-- Node1&#45;&gt;Node20 -->
<g id="edge44" class="edge"><title>Node1&#45;&gt;Node20</title>
<path fill="none" stroke="midnightblue" d="M1544.97,-473.37C1873.19,-469.982 3080.02,-448.918 3187,-322 3202.47,-303.649 3203.37,-285.551 3187,-268 3126.29,-202.9 2501.3,-199.757 2293.65,-200.53"/>
<polygon fill="midnightblue" stroke="midnightblue" points="1544.56,-469.874 1534.59,-473.474 1544.63,-476.874 1544.56,-469.874"/>
</g>
<!-- Node23 -->
<g id="node23" class="node"><title>Node23</title>
<g id="a_node23"><a xlink:href="../../d2/da8/ElectronTransport_8h.html" target="_top" xlink:title="Definition of the electron transport. ">
<polygon fill="none" stroke="black" points="1675,-359 1675,-411 1883,-411 1883,-359 1675,-359"/>
<text text-anchor="start" x="1683" y="-399" font-family="Helvetica,sans-Serif" font-size="10.00">/home/travis/build</text>
<text text-anchor="start" x="1683" y="-388" font-family="Helvetica,sans-Serif" font-size="10.00">/AliceO2Group/AliceO2</text>
<text text-anchor="start" x="1683" y="-377" font-family="Helvetica,sans-Serif" font-size="10.00">/Detectors/TPC/simulation</text>
<text text-anchor="middle" x="1779" y="-366" font-family="Helvetica,sans-Serif" font-size="10.00">/include/TPCSimulation/ElectronTransport.h</text>
</a>
</g>
</g>
<!-- Node1&#45;&gt;Node23 -->
<g id="edge25" class="edge"><title>Node1&#45;&gt;Node23</title>
<path fill="none" stroke="midnightblue" d="M1544.56,-451.286C1588.85,-438.953 1643.69,-423.68 1689.2,-411.008"/>
<polygon fill="midnightblue" stroke="midnightblue" points="1543.4,-447.977 1534.71,-454.031 1545.28,-454.72 1543.4,-447.977"/>
</g>
<!-- Node25 -->
<g id="node25" class="node"><title>Node25</title>
<g id="a_node25"><a xlink:href="../../d4/d82/testTPCElectronTransport_8cxx.html" target="_top" xlink:title="This task tests the ElectronTransport module of the TPC digitization. ">
<polygon fill="none" stroke="black" points="1695,-269 1695,-321 1867,-321 1867,-269 1695,-269"/>
<text text-anchor="start" x="1703" y="-309" font-family="Helvetica,sans-Serif" font-size="10.00">/home/travis/build</text>
<text text-anchor="start" x="1703" y="-298" font-family="Helvetica,sans-Serif" font-size="10.00">/AliceO2Group/AliceO2</text>
<text text-anchor="start" x="1703" y="-287" font-family="Helvetica,sans-Serif" font-size="10.00">/Detectors/TPC/simulation</text>
<text text-anchor="middle" x="1781" y="-276" font-family="Helvetica,sans-Serif" font-size="10.00">/test/testTPCElectronTransport.cxx</text>
</a>
</g>
</g>
<!-- Node1&#45;&gt;Node25 -->
<g id="edge46" class="edge"><title>Node1&#45;&gt;Node25</title>
<path fill="none" stroke="midnightblue" d="M1544.74,-474.358C1656.44,-472.905 1847.99,-462.824 1892,-412 1907.71,-393.856 1904.15,-378.699 1892,-358 1882.73,-342.199 1867.8,-330.127 1851.86,-321.026"/>
<polygon fill="midnightblue" stroke="midnightblue" points="1544.47,-470.861 1534.51,-474.47 1544.55,-477.86 1544.47,-470.861"/>
</g>
<!-- Node26 -->
<g id="node26" class="node"><title>Node26</title>
<g id="a_node26"><a xlink:href="../../d9/d79/GEMAmplification_8h.html" target="_top" xlink:title="Definition of the GEM amplification. ">
<polygon fill="none" stroke="black" points="2013.5,-359 2013.5,-411 2222.5,-411 2222.5,-359 2013.5,-359"/>
<text text-anchor="start" x="2021.5" y="-399" font-family="Helvetica,sans-Serif" font-size="10.00">/home/travis/build</text>
<text text-anchor="start" x="2021.5" y="-388" font-family="Helvetica,sans-Serif" font-size="10.00">/AliceO2Group/AliceO2</text>
<text text-anchor="start" x="2021.5" y="-377" font-family="Helvetica,sans-Serif" font-size="10.00">/Detectors/TPC/simulation</text>
<text text-anchor="middle" x="2118" y="-366" font-family="Helvetica,sans-Serif" font-size="10.00">/include/TPCSimulation/GEMAmplification.h</text>
</a>
</g>
</g>
<!-- Node1&#45;&gt;Node26 -->
<g id="edge30" class="edge"><title>Node1&#45;&gt;Node26</title>
<path fill="none" stroke="midnightblue" d="M1544.74,-463.043C1637.08,-450.663 1791.84,-429.905 1925,-412 1953.65,-408.148 1984.69,-403.969 2013.33,-400.111"/>
<polygon fill="midnightblue" stroke="midnightblue" points="1544.07,-459.601 1534.63,-464.399 1545,-466.539 1544.07,-459.601"/>
</g>
<!-- Node28 -->
<g id="node28" class="node"><title>Node28</title>
<g id="a_node28"><a xlink:href="../../d5/d97/testTPCGEMAmplification_8cxx.html" target="_top" xlink:title="/home/travis/build\l/AliceO2Group/AliceO2\l/Detectors/TPC/simulation\l/test/testTPCGEMAmplification.cxx">
<polygon fill="none" stroke="black" points="2255.5,-269 2255.5,-321 2428.5,-321 2428.5,-269 2255.5,-269"/>
<text text-anchor="start" x="2263.5" y="-309" font-family="Helvetica,sans-Serif" font-size="10.00">/home/travis/build</text>
<text text-anchor="start" x="2263.5" y="-298" font-family="Helvetica,sans-Serif" font-size="10.00">/AliceO2Group/AliceO2</text>
<text text-anchor="start" x="2263.5" y="-287" font-family="Helvetica,sans-Serif" font-size="10.00">/Detectors/TPC/simulation</text>
<text text-anchor="middle" x="2342" y="-276" font-family="Helvetica,sans-Serif" font-size="10.00">/test/testTPCGEMAmplification.cxx</text>
</a>
</g>
</g>
<!-- Node1&#45;&gt;Node28 -->
<g id="edge47" class="edge"><title>Node1&#45;&gt;Node28</title>
<path fill="none" stroke="midnightblue" d="M1544.52,-474.654C1716.68,-474.875 2111.3,-468.935 2231,-412 2273.04,-392.005 2307.46,-348.733 2326.32,-321.062"/>
<polygon fill="midnightblue" stroke="midnightblue" points="1544.51,-471.154 1534.5,-474.633 1544.5,-478.154 1544.51,-471.154"/>
</g>
<!-- Node30 -->
<g id="node30" class="node"><title>Node30</title>
<g id="a_node30"><a xlink:href="../../d0/d45/SAMPAProcessing_8h.html" target="_top" xlink:title="Definition of the SAMPA response. ">
<polygon fill="none" stroke="black" points="2439.5,-359 2439.5,-411 2654.5,-411 2654.5,-359 2439.5,-359"/>
<text text-anchor="start" x="2447.5" y="-399" font-family="Helvetica,sans-Serif" font-size="10.00">/home/travis/build</text>
<text text-anchor="start" x="2447.5" y="-388" font-family="Helvetica,sans-Serif" font-size="10.00">/AliceO2Group/AliceO2</text>
<text text-anchor="start" x="2447.5" y="-377" font-family="Helvetica,sans-Serif" font-size="10.00">/Detectors/TPC/simulation</text>
<text text-anchor="middle" x="2547" y="-366" font-family="Helvetica,sans-Serif" font-size="10.00">/include/TPCSimulation/SAMPAProcessing.h</text>
</a>
</g>
</g>
<!-- Node1&#45;&gt;Node30 -->
<g id="edge35" class="edge"><title>Node1&#45;&gt;Node30</title>
<path fill="none" stroke="midnightblue" d="M1544.68,-469.029C1696,-459.599 2030.07,-437.736 2311,-412 2352.97,-408.155 2399.06,-403.234 2439.29,-398.709"/>
<polygon fill="midnightblue" stroke="midnightblue" points="1544.31,-465.546 1534.55,-469.66 1544.74,-472.532 1544.31,-465.546"/>
</g>
<!-- Node35 -->
<g id="node35" class="node"><title>Node35</title>
<g id="a_node35"><a xlink:href="../../d2/d2c/TPC_2simulation_2src_2Detector_8cxx.html" target="_top" xlink:title="/home/travis/build\l/AliceO2Group/AliceO2\l/Detectors/TPC/simulation\l/src/Detector.cxx">
<polygon fill="none" stroke="black" points="3235.5,-359 3235.5,-411 3368.5,-411 3368.5,-359 3235.5,-359"/>
<text text-anchor="start" x="3243.5" y="-399" font-family="Helvetica,sans-Serif" font-size="10.00">/home/travis/build</text>
<text text-anchor="start" x="3243.5" y="-388" font-family="Helvetica,sans-Serif" font-size="10.00">/AliceO2Group/AliceO2</text>
<text text-anchor="start" x="3243.5" y="-377" font-family="Helvetica,sans-Serif" font-size="10.00">/Detectors/TPC/simulation</text>
<text text-anchor="middle" x="3302" y="-366" font-family="Helvetica,sans-Serif" font-size="10.00">/src/Detector.cxx</text>
</a>
</g>
</g>
<!-- Node1&#45;&gt;Node35 -->
<g id="edge43" class="edge"><title>Node1&#45;&gt;Node35</title>
<path fill="none" stroke="midnightblue" d="M1545.35,-474.094C1847.26,-473.971 2892.84,-469.321 3221,-412 3225.66,-411.187 3230.41,-410.171 3235.17,-409.015"/>
<polygon fill="midnightblue" stroke="midnightblue" points="1544.93,-470.594 1534.93,-474.096 1544.93,-477.594 1544.93,-470.594"/>
</g>
<!-- Node36 -->
<g id="node36" class="node"><title>Node36</title>
<g id="a_node36"><a xlink:href="../../da/d8e/SpaceCharge_8cxx.html" target="_top" xlink:title="Implementation of the interface for the ALICE TPC space&#45;charge distortions calculations. ">
<polygon fill="none" stroke="black" points="3386.5,-359 3386.5,-411 3519.5,-411 3519.5,-359 3386.5,-359"/>
<text text-anchor="start" x="3394.5" y="-399" font-family="Helvetica,sans-Serif" font-size="10.00">/home/travis/build</text>
<text text-anchor="start" x="3394.5" y="-388" font-family="Helvetica,sans-Serif" font-size="10.00">/AliceO2Group/AliceO2</text>
<text text-anchor="start" x="3394.5" y="-377" font-family="Helvetica,sans-Serif" font-size="10.00">/Detectors/TPC/simulation</text>
<text text-anchor="middle" x="3453" y="-366" font-family="Helvetica,sans-Serif" font-size="10.00">/src/SpaceCharge.cxx</text>
</a>
</g>
</g>
<!-- Node1&#45;&gt;Node36 -->
<g id="edge45" class="edge"><title>Node1&#45;&gt;Node36</title>
<path fill="none" stroke="midnightblue" d="M1544.83,-472.781C1887.19,-467.486 3195.34,-445.245 3377,-412 3380.02,-411.448 3383.08,-410.798 3386.15,-410.073"/>
<polygon fill="midnightblue" stroke="midnightblue" points="1544.69,-469.283 1534.74,-472.936 1544.79,-476.282 1544.69,-469.283"/>
</g>
<!-- Node12 -->
<g id="node12" class="node"><title>Node12</title>
<g id="a_node12"><a xlink:href="../../de/d92/TPC_2simulation_2include_2TPCSimulation_2Digitizer_8h.html" target="_top" xlink:title="/home/travis/build\l/AliceO2Group/AliceO2\l/Detectors/TPC/simulation\l/include/TPCSimulation/Digitizer.h">
<polygon fill="none" stroke="black" points="1107.5,-269 1107.5,-321 1274.5,-321 1274.5,-269 1107.5,-269"/>
<text text-anchor="start" x="1115.5" y="-309" font-family="Helvetica,sans-Serif" font-size="10.00">/home/travis/build</text>
<text text-anchor="start" x="1115.5" y="-298" font-family="Helvetica,sans-Serif" font-size="10.00">/AliceO2Group/AliceO2</text>
<text text-anchor="start" x="1115.5" y="-287" font-family="Helvetica,sans-Serif" font-size="10.00">/Detectors/TPC/simulation</text>
<text text-anchor="middle" x="1191" y="-276" font-family="Helvetica,sans-Serif" font-size="10.00">/include/TPCSimulation/Digitizer.h</text>
</a>
</g>
</g>
<!-- Node11&#45;&gt;Node12 -->
<g id="edge11" class="edge"><title>Node11&#45;&gt;Node12</title>
<path fill="none" stroke="midnightblue" d="M1453.65,-358.149C1453.43,-358.099 1453.22,-358.05 1453,-358 1379.86,-341.137 1360.94,-339.721 1288,-322 1283.6,-320.93 1279.08,-319.809 1274.53,-318.658"/>
<polygon fill="midnightblue" stroke="midnightblue" points="1452.96,-361.583 1463.49,-360.439 1454.55,-354.765 1452.96,-361.583"/>
</g>
<!-- Node14 -->
<g id="node14" class="node"><title>Node14</title>
<g id="a_node14"><a xlink:href="../../df/d46/TPC_2simulation_2src_2DigitizerTask_8cxx.html" target="_top" xlink:title="/home/travis/build\l/AliceO2Group/AliceO2\l/Detectors/TPC/simulation\l/src/DigitizerTask.cxx">
<polygon fill="none" stroke="black" points="823.5,-79 823.5,-131 956.5,-131 956.5,-79 823.5,-79"/>
<text text-anchor="start" x="831.5" y="-119" font-family="Helvetica,sans-Serif" font-size="10.00">/home/travis/build</text>
<text text-anchor="start" x="831.5" y="-108" font-family="Helvetica,sans-Serif" font-size="10.00">/AliceO2Group/AliceO2</text>
<text text-anchor="start" x="831.5" y="-97" font-family="Helvetica,sans-Serif" font-size="10.00">/Detectors/TPC/simulation</text>
<text text-anchor="middle" x="890" y="-86" font-family="Helvetica,sans-Serif" font-size="10.00">/src/DigitizerTask.cxx</text>
</a>
</g>
</g>
<!-- Node11&#45;&gt;Node14 -->
<g id="edge23" class="edge"><title>Node11&#45;&gt;Node14</title>
<path fill="none" stroke="midnightblue" d="M1453.32,-358.05C1453.21,-358.033 1453.11,-358.017 1453,-358 1397.42,-349.328 991.392,-357.799 948,-322 890.644,-274.68 886.643,-177.287 888.267,-131.214"/>
<polygon fill="midnightblue" stroke="midnightblue" points="1452.88,-361.526 1463.33,-359.743 1454.05,-354.624 1452.88,-361.526"/>
</g>
<!-- Node21 -->
<g id="node21" class="node"><title>Node21</title>
<g id="a_node21"><a xlink:href="../../df/d53/DigitContainer_8cxx.html" target="_top" xlink:title="Implementation of the Digit Container. ">
<polygon fill="none" stroke="black" points="956.5,-269 956.5,-321 1089.5,-321 1089.5,-269 956.5,-269"/>
<text text-anchor="start" x="964.5" y="-309" font-family="Helvetica,sans-Serif" font-size="10.00">/home/travis/build</text>
<text text-anchor="start" x="964.5" y="-298" font-family="Helvetica,sans-Serif" font-size="10.00">/AliceO2Group/AliceO2</text>
<text text-anchor="start" x="964.5" y="-287" font-family="Helvetica,sans-Serif" font-size="10.00">/Detectors/TPC/simulation</text>
<text text-anchor="middle" x="1023" y="-276" font-family="Helvetica,sans-Serif" font-size="10.00">/src/DigitContainer.cxx</text>
</a>
</g>
</g>
<!-- Node11&#45;&gt;Node21 -->
<g id="edge22" class="edge"><title>Node11&#45;&gt;Node21</title>
<path fill="none" stroke="midnightblue" d="M1453.32,-358.055C1453.21,-358.036 1453.11,-358.018 1453,-358 1297.13,-331.267 1253.49,-355.815 1099,-322 1096,-321.344 1092.96,-320.609 1089.9,-319.813"/>
<polygon fill="midnightblue" stroke="midnightblue" points="1452.84,-361.525 1463.31,-359.876 1454.1,-354.639 1452.84,-361.525"/>
</g>
<!-- Node22 -->
<g id="node22" class="node"><title>Node22</title>
<g id="a_node22"><a xlink:href="../../dd/d5e/testTPCDigitContainer_8cxx.html" target="_top" xlink:title="This task tests the DigitContainer of the TPC digitization. ">
<polygon fill="none" stroke="black" points="1481.5,-269 1481.5,-321 1638.5,-321 1638.5,-269 1481.5,-269"/>
<text text-anchor="start" x="1489.5" y="-309" font-family="Helvetica,sans-Serif" font-size="10.00">/home/travis/build</text>
<text text-anchor="start" x="1489.5" y="-298" font-family="Helvetica,sans-Serif" font-size="10.00">/AliceO2Group/AliceO2</text>
<text text-anchor="start" x="1489.5" y="-287" font-family="Helvetica,sans-Serif" font-size="10.00">/Detectors/TPC/simulation</text>
<text text-anchor="middle" x="1560" y="-276" font-family="Helvetica,sans-Serif" font-size="10.00">/test/testTPCDigitContainer.cxx</text>
</a>
</g>
</g>
<!-- Node11&#45;&gt;Node22 -->
<g id="edge24" class="edge"><title>Node11&#45;&gt;Node22</title>
<path fill="none" stroke="midnightblue" d="M1560,-348.489C1560,-339.309 1560,-329.616 1560,-321.092"/>
<polygon fill="midnightblue" stroke="midnightblue" points="1556.5,-348.547 1560,-358.547 1563.5,-348.547 1556.5,-348.547"/>
</g>
<!-- Node13 -->
<g id="node13" class="node"><title>Node13</title>
<g id="a_node13"><a xlink:href="../../dd/d4b/TPC_2simulation_2include_2TPCSimulation_2DigitizerTask_8h.html" target="_top" xlink:title="/home/travis/build\l/AliceO2Group/AliceO2\l/Detectors/TPC/simulation\l/include/TPCSimulation/Digitizer\lTask.h">
<polygon fill="none" stroke="black" points="1078,-168.5 1078,-231.5 1236,-231.5 1236,-168.5 1078,-168.5"/>
<text text-anchor="start" x="1086" y="-219.5" font-family="Helvetica,sans-Serif" font-size="10.00">/home/travis/build</text>
<text text-anchor="start" x="1086" y="-208.5" font-family="Helvetica,sans-Serif" font-size="10.00">/AliceO2Group/AliceO2</text>
<text text-anchor="start" x="1086" y="-197.5" font-family="Helvetica,sans-Serif" font-size="10.00">/Detectors/TPC/simulation</text>
<text text-anchor="start" x="1086" y="-186.5" font-family="Helvetica,sans-Serif" font-size="10.00">/include/TPCSimulation/Digitizer</text>
<text text-anchor="middle" x="1157" y="-175.5" font-family="Helvetica,sans-Serif" font-size="10.00">Task.h</text>
</a>
</g>
</g>
<!-- Node12&#45;&gt;Node13 -->
<g id="edge12" class="edge"><title>Node12&#45;&gt;Node13</title>
<path fill="none" stroke="midnightblue" d="M1178.25,-259.118C1174.95,-250.101 1171.43,-240.461 1168.22,-231.677"/>
<polygon fill="midnightblue" stroke="midnightblue" points="1174.99,-260.397 1181.71,-268.587 1181.56,-257.994 1174.99,-260.397"/>
</g>
<!-- Node12&#45;&gt;Node14 -->
<g id="edge20" class="edge"><title>Node12&#45;&gt;Node14</title>
<path fill="none" stroke="midnightblue" d="M1128.51,-264.397C1109.12,-254.643 1087.89,-243.369 1069,-232 1015.93,-200.058 957.869,-157.71 922.692,-131.158"/>
<polygon fill="midnightblue" stroke="midnightblue" points="1127.05,-267.582 1137.56,-268.911 1130.17,-261.318 1127.05,-267.582"/>
</g>
<!-- Node19 -->
<g id="node19" class="node"><title>Node19</title>
<g id="a_node19"><a xlink:href="../../db/df6/TPCDriftTimeDigitizerSpec_8cxx.html" target="_top" xlink:title="/home/travis/build\l/AliceO2Group/AliceO2\l/Steer/DigitizerWorkflow\l/src/TPCDriftTimeDigitizerSpec.cxx">
<polygon fill="none" stroke="black" points="1383,-79 1383,-131 1557,-131 1557,-79 1383,-79"/>
<text text-anchor="start" x="1391" y="-119" font-family="Helvetica,sans-Serif" font-size="10.00">/home/travis/build</text>
<text text-anchor="start" x="1391" y="-108" font-family="Helvetica,sans-Serif" font-size="10.00">/AliceO2Group/AliceO2</text>
<text text-anchor="start" x="1391" y="-97" font-family="Helvetica,sans-Serif" font-size="10.00">/Steer/DigitizerWorkflow</text>
<text text-anchor="middle" x="1470" y="-86" font-family="Helvetica,sans-Serif" font-size="10.00">/src/TPCDriftTimeDigitizerSpec.cxx</text>
</a>
</g>
</g>
<!-- Node12&#45;&gt;Node19 -->
<g id="edge21" class="edge"><title>Node12&#45;&gt;Node19</title>
<path fill="none" stroke="midnightblue" d="M1220.3,-261.021C1228.2,-251.791 1236.6,-241.643 1244,-232 1265.02,-204.621 1260.49,-188.846 1288,-168 1303.76,-156.056 1343.93,-141.885 1382.53,-130.107"/>
<polygon fill="midnightblue" stroke="midnightblue" points="1217.42,-259.004 1213.54,-268.86 1222.72,-263.579 1217.42,-259.004"/>
</g>
<!-- Node12&#45;&gt;Node20 -->
<g id="edge19" class="edge"><title>Node12&#45;&gt;Node20</title>
<path fill="none" stroke="midnightblue" d="M1284.6,-273.983C1297.14,-271.725 1309.85,-269.649 1322,-268 1633.84,-225.671 2010.03,-208.607 2160.29,-203.152"/>
<polygon fill="midnightblue" stroke="midnightblue" points="1283.8,-270.571 1274.61,-275.827 1285.07,-277.455 1283.8,-270.571"/>
</g>
<!-- Node13&#45;&gt;Node14 -->
<g id="edge13" class="edge"><title>Node13&#45;&gt;Node14</title>
<path fill="none" stroke="midnightblue" d="M1068.34,-168.118C1031.9,-155.427 990.43,-140.981 956.651,-129.216"/>
<polygon fill="midnightblue" stroke="midnightblue" points="1067.38,-171.49 1077.97,-171.474 1069.68,-164.88 1067.38,-171.49"/>
</g>
<!-- Node15 -->
<g id="node15" class="node"><title>Node15</title>
<g id="a_node15"><a xlink:href="../../d1/d7a/run__digi_8C.html" target="_top" xlink:title="/home/travis/build\l/AliceO2Group/AliceO2\l/macro/run_digi.C">
<polygon fill="none" stroke="black" points="1247,-84.5 1247,-125.5 1365,-125.5 1365,-84.5 1247,-84.5"/>
<text text-anchor="start" x="1255" y="-113.5" font-family="Helvetica,sans-Serif" font-size="10.00">/home/travis/build</text>
<text text-anchor="start" x="1255" y="-102.5" font-family="Helvetica,sans-Serif" font-size="10.00">/AliceO2Group/AliceO2</text>
<text text-anchor="middle" x="1306" y="-91.5" font-family="Helvetica,sans-Serif" font-size="10.00">/macro/run_digi.C</text>
</a>
</g>
</g>
<!-- Node13&#45;&gt;Node15 -->
<g id="edge14" class="edge"><title>Node13&#45;&gt;Node15</title>
<path fill="none" stroke="midnightblue" d="M1214.8,-162.922C1235.17,-150.212 1257.28,-136.406 1274.64,-125.575"/>
<polygon fill="midnightblue" stroke="midnightblue" points="1212.83,-160.027 1206.2,-168.291 1216.54,-165.965 1212.83,-160.027"/>
</g>
<!-- Node16 -->
<g id="node16" class="node"><title>Node16</title>
<g id="a_node16"><a xlink:href="../../d9/de3/run__digi__all_8C.html" target="_top" xlink:title="/home/travis/build\l/AliceO2Group/AliceO2\l/macro/run_digi_all.C">
<polygon fill="none" stroke="black" points="975,-84.5 975,-125.5 1093,-125.5 1093,-84.5 975,-84.5"/>
<text text-anchor="start" x="983" y="-113.5" font-family="Helvetica,sans-Serif" font-size="10.00">/home/travis/build</text>
<text text-anchor="start" x="983" y="-102.5" font-family="Helvetica,sans-Serif" font-size="10.00">/AliceO2Group/AliceO2</text>
<text text-anchor="middle" x="1034" y="-91.5" font-family="Helvetica,sans-Serif" font-size="10.00">/macro/run_digi_all.C</text>
</a>
</g>
</g>
<!-- Node13&#45;&gt;Node16 -->
<g id="edge15" class="edge"><title>Node13&#45;&gt;Node16</title>
<path fill="none" stroke="midnightblue" d="M1108.38,-162.24C1091.82,-149.72 1073.96,-136.213 1059.89,-125.575"/>
<polygon fill="midnightblue" stroke="midnightblue" points="1106.3,-165.051 1116.38,-168.291 1110.52,-159.468 1106.3,-165.051"/>
</g>
<!-- Node17 -->
<g id="node17" class="node"><title>Node17</title>
<g id="a_node17"><a xlink:href="../../d3/db7/run__digi__tpc_8C.html" target="_top" xlink:title="/home/travis/build\l/AliceO2Group/AliceO2\l/macro/run_digi_tpc.C">
<polygon fill="none" stroke="black" points="1111,-84.5 1111,-125.5 1229,-125.5 1229,-84.5 1111,-84.5"/>
<text text-anchor="start" x="1119" y="-113.5" font-family="Helvetica,sans-Serif" font-size="10.00">/home/travis/build</text>
<text text-anchor="start" x="1119" y="-102.5" font-family="Helvetica,sans-Serif" font-size="10.00">/AliceO2Group/AliceO2</text>
<text text-anchor="middle" x="1170" y="-91.5" font-family="Helvetica,sans-Serif" font-size="10.00">/macro/run_digi_tpc.C</text>
</a>
</g>
</g>
<!-- Node13&#45;&gt;Node17 -->
<g id="edge16" class="edge"><title>Node13&#45;&gt;Node17</title>
<path fill="none" stroke="midnightblue" d="M1162.72,-158.112C1164.3,-146.807 1165.94,-135.052 1167.26,-125.575"/>
<polygon fill="midnightblue" stroke="midnightblue" points="1159.21,-157.902 1161.29,-168.291 1166.14,-158.871 1159.21,-157.902"/>
</g>
<!-- Node13&#45;&gt;Node19 -->
<g id="edge18" class="edge"><title>Node13&#45;&gt;Node19</title>
<path fill="none" stroke="midnightblue" d="M1245.7,-169.331C1247.14,-168.881 1248.58,-168.438 1250,-168 1293.62,-154.592 1342.45,-140.718 1383,-129.504"/>
<polygon fill="midnightblue" stroke="midnightblue" points="1244.55,-166.022 1236.07,-172.363 1246.66,-172.698 1244.55,-166.022"/>
</g>
<!-- Node18 -->
<g id="node18" class="node"><title>Node18</title>
<g id="a_node18"><a xlink:href="../../d3/d56/runTPC_8cxx.html" target="_top" xlink:title="/home/travis/build\l/AliceO2Group/AliceO2\l/run/runTPC.cxx">
<polygon fill="none" stroke="black" points="1111,-0.5 1111,-41.5 1229,-41.5 1229,-0.5 1111,-0.5"/>
<text text-anchor="start" x="1119" y="-29.5" font-family="Helvetica,sans-Serif" font-size="10.00">/home/travis/build</text>
<text text-anchor="start" x="1119" y="-18.5" font-family="Helvetica,sans-Serif" font-size="10.00">/AliceO2Group/AliceO2</text>
<text text-anchor="middle" x="1170" y="-7.5" font-family="Helvetica,sans-Serif" font-size="10.00">/run/runTPC.cxx</text>
</a>
</g>
</g>
<!-- Node17&#45;&gt;Node18 -->
<g id="edge17" class="edge"><title>Node17&#45;&gt;Node18</title>
<path fill="none" stroke="midnightblue" d="M1170,-73.881C1170,-63.1328 1170,-51.309 1170,-41.6671"/>
<polygon fill="midnightblue" stroke="midnightblue" points="1166.5,-74.1501 1170,-84.1501 1173.5,-74.1501 1166.5,-74.1501"/>
</g>
<!-- Node23&#45;&gt;Node19 -->
<g id="edge29" class="edge"><title>Node23&#45;&gt;Node19</title>
<path fill="none" stroke="midnightblue" d="M1664.7,-358.299C1573.58,-347.818 1371.38,-376.838 1322,-322 1265.27,-259.001 1369.74,-173.155 1430.65,-131.186"/>
<polygon fill="midnightblue" stroke="midnightblue" points="1664.34,-361.782 1674.73,-359.694 1665.31,-354.849 1664.34,-361.782"/>
</g>
<!-- Node23&#45;&gt;Node20 -->
<g id="edge26" class="edge"><title>Node23&#45;&gt;Node20</title>
<path fill="none" stroke="midnightblue" d="M1713.97,-352.911C1702.72,-344.502 1692.56,-334.253 1686,-322 1674.68,-300.84 1670.11,-285.983 1686,-268 1716.96,-232.964 2022.53,-212.093 2160.27,-204.397"/>
<polygon fill="midnightblue" stroke="midnightblue" points="1712.1,-355.875 1722.31,-358.71 1716.1,-350.128 1712.1,-355.875"/>
</g>
<!-- Node24 -->
<g id="node24" class="node"><title>Node24</title>
<g id="a_node24"><a xlink:href="../../d1/d98/ElectronTransport_8cxx.html" target="_top" xlink:title="Implementation of the electron transport. ">
<polygon fill="none" stroke="black" points="1330.5,-269 1330.5,-321 1463.5,-321 1463.5,-269 1330.5,-269"/>
<text text-anchor="start" x="1338.5" y="-309" font-family="Helvetica,sans-Serif" font-size="10.00">/home/travis/build</text>
<text text-anchor="start" x="1338.5" y="-298" font-family="Helvetica,sans-Serif" font-size="10.00">/AliceO2Group/AliceO2</text>
<text text-anchor="start" x="1338.5" y="-287" font-family="Helvetica,sans-Serif" font-size="10.00">/Detectors/TPC/simulation</text>
<text text-anchor="middle" x="1397" y="-276" font-family="Helvetica,sans-Serif" font-size="10.00">/src/ElectronTransport.cxx</text>
</a>
</g>
</g>
<!-- Node23&#45;&gt;Node24 -->
<g id="edge27" class="edge"><title>Node23&#45;&gt;Node24</title>
<path fill="none" stroke="midnightblue" d="M1665.31,-358.064C1665.21,-358.043 1665.1,-358.021 1665,-358 1579.99,-340.344 1556.96,-344.109 1473,-322 1469.9,-321.183 1466.74,-320.303 1463.56,-319.378"/>
<polygon fill="midnightblue" stroke="midnightblue" points="1664.46,-361.463 1674.97,-360.099 1665.91,-354.613 1664.46,-361.463"/>
</g>
<!-- Node23&#45;&gt;Node25 -->
<g id="edge28" class="edge"><title>Node23&#45;&gt;Node25</title>
<path fill="none" stroke="midnightblue" d="M1779.81,-348.489C1780.02,-339.309 1780.24,-329.616 1780.43,-321.092"/>
<polygon fill="midnightblue" stroke="midnightblue" points="1776.31,-348.47 1779.58,-358.547 1783.3,-348.629 1776.31,-348.47"/>
</g>
<!-- Node26&#45;&gt;Node20 -->
<g id="edge31" class="edge"><title>Node26&#45;&gt;Node20</title>
<path fill="none" stroke="midnightblue" d="M2178.06,-352.853C2189.61,-344.308 2200.44,-334.018 2208,-322 2226.35,-292.844 2229.08,-252.134 2228.62,-226.168"/>
<polygon fill="midnightblue" stroke="midnightblue" points="2175.77,-350.18 2169.57,-358.766 2179.77,-355.925 2175.77,-350.18"/>
</g>
<!-- Node27 -->
<g id="node27" class="node"><title>Node27</title>
<g id="a_node27"><a xlink:href="../../db/d6c/GEMAmplification_8cxx.html" target="_top" xlink:title="Implementation of the GEM amplification. ">
<polygon fill="none" stroke="black" points="1885,-269 1885,-321 2019,-321 2019,-269 1885,-269"/>
<text text-anchor="start" x="1893" y="-309" font-family="Helvetica,sans-Serif" font-size="10.00">/home/travis/build</text>
<text text-anchor="start" x="1893" y="-298" font-family="Helvetica,sans-Serif" font-size="10.00">/AliceO2Group/AliceO2</text>
<text text-anchor="start" x="1893" y="-287" font-family="Helvetica,sans-Serif" font-size="10.00">/Detectors/TPC/simulation</text>
<text text-anchor="middle" x="1952" y="-276" font-family="Helvetica,sans-Serif" font-size="10.00">/src/GEMAmplification.cxx</text>
</a>
</g>
</g>
<!-- Node26&#45;&gt;Node27 -->
<g id="edge32" class="edge"><title>Node26&#45;&gt;Node27</title>
<path fill="none" stroke="midnightblue" d="M2061.33,-353.96C2041.14,-343.253 2018.62,-331.315 1999.29,-321.069"/>
<polygon fill="midnightblue" stroke="midnightblue" points="2059.96,-357.191 2070.43,-358.783 2063.24,-351.007 2059.96,-357.191"/>
</g>
<!-- Node26&#45;&gt;Node28 -->
<g id="edge33" class="edge"><title>Node26&#45;&gt;Node28</title>
<path fill="none" stroke="midnightblue" d="M2191.24,-355.229C2219.25,-344.225 2250.95,-331.771 2278.03,-321.133"/>
<polygon fill="midnightblue" stroke="midnightblue" points="2189.92,-351.986 2181.89,-358.901 2192.48,-358.502 2189.92,-351.986"/>
</g>
<!-- Node29 -->
<g id="node29" class="node"><title>Node29</title>
<g id="a_node29"><a xlink:href="../../d2/dd7/SimpleDigitizerWorkflow_8cxx.html" target="_top" xlink:title="/home/travis/build\l/AliceO2Group/AliceO2\l/Steer/DigitizerWorkflow\l/src/SimpleDigitizerWorkflow.cxx">
<polygon fill="none" stroke="black" points="2037,-269 2037,-321 2199,-321 2199,-269 2037,-269"/>
<text text-anchor="start" x="2045" y="-309" font-family="Helvetica,sans-Serif" font-size="10.00">/home/travis/build</text>
<text text-anchor="start" x="2045" y="-298" font-family="Helvetica,sans-Serif" font-size="10.00">/AliceO2Group/AliceO2</text>
<text text-anchor="start" x="2045" y="-287" font-family="Helvetica,sans-Serif" font-size="10.00">/Steer/DigitizerWorkflow</text>
<text text-anchor="middle" x="2118" y="-276" font-family="Helvetica,sans-Serif" font-size="10.00">/src/SimpleDigitizerWorkflow.cxx</text>
</a>
</g>
</g>
<!-- Node26&#45;&gt;Node29 -->
<g id="edge34" class="edge"><title>Node26&#45;&gt;Node29</title>
<path fill="none" stroke="midnightblue" d="M2118,-348.489C2118,-339.309 2118,-329.616 2118,-321.092"/>
<polygon fill="midnightblue" stroke="midnightblue" points="2114.5,-348.547 2118,-358.547 2121.5,-348.547 2114.5,-348.547"/>
</g>
<!-- Node30&#45;&gt;Node14 -->
<g id="edge39" class="edge"><title>Node30&#45;&gt;Node14</title>
<path fill="none" stroke="midnightblue" d="M2527.75,-350.055C2510.65,-320.636 2486.34,-280.832 2473,-268 2409.55,-206.961 2386.66,-192.166 2302,-168 2016.41,-86.4794 1258.29,-184.669 966,-132 962.981,-131.456 959.919,-130.813 956.845,-130.093"/>
<polygon fill="midnightblue" stroke="midnightblue" points="2524.78,-351.902 2532.81,-358.81 2530.84,-348.401 2524.78,-351.902"/>
</g>
<!-- Node30&#45;&gt;Node20 -->
<g id="edge38" class="edge"><title>Node30&#45;&gt;Node20</title>
<path fill="none" stroke="midnightblue" d="M2511.1,-351.908C2501.09,-342.528 2490.4,-332.081 2481,-322 2459.89,-299.352 2462.59,-285.428 2437,-268 2393.99,-238.7 2337.41,-221.622 2293.81,-212.05"/>
<polygon fill="midnightblue" stroke="midnightblue" points="2508.88,-354.616 2518.59,-358.849 2513.64,-349.483 2508.88,-354.616"/>
</g>
<!-- Node30&#45;&gt;Node22 -->
<g id="edge41" class="edge"><title>Node30&#45;&gt;Node22</title>
<path fill="none" stroke="midnightblue" d="M2429.01,-373.837C2369.62,-368.838 2296.52,-362.859 2231,-358 1988.91,-340.046 1926.55,-354.606 1686,-322 1670.62,-319.915 1654.3,-317.046 1638.69,-313.972"/>
<polygon fill="midnightblue" stroke="midnightblue" points="2428.91,-377.341 2439.17,-374.694 2429.5,-370.366 2428.91,-377.341"/>
</g>
<!-- Node31 -->
<g id="node31" class="node"><title>Node31</title>
<g id="a_node31"><a xlink:href="../../db/d60/testTracks_8C.html" target="_top" xlink:title="/home/travis/build\l/AliceO2Group/AliceO2\l/Detectors/TPC/reconstruction\l/macro/testTracks.C">
<polygon fill="none" stroke="black" points="2523,-269 2523,-321 2673,-321 2673,-269 2523,-269"/>
<text text-anchor="start" x="2531" y="-309" font-family="Helvetica,sans-Serif" font-size="10.00">/home/travis/build</text>
<text text-anchor="start" x="2531" y="-298" font-family="Helvetica,sans-Serif" font-size="10.00">/AliceO2Group/AliceO2</text>
<text text-anchor="start" x="2531" y="-287" font-family="Helvetica,sans-Serif" font-size="10.00">/Detectors/TPC/reconstruction</text>
<text text-anchor="middle" x="2598" y="-276" font-family="Helvetica,sans-Serif" font-size="10.00">/macro/testTracks.C</text>
</a>
</g>
</g>
<!-- Node30&#45;&gt;Node31 -->
<g id="edge36" class="edge"><title>Node30&#45;&gt;Node31</title>
<path fill="none" stroke="midnightblue" d="M2566.9,-349.671C2572.42,-340.145 2578.31,-329.983 2583.46,-321.092"/>
<polygon fill="midnightblue" stroke="midnightblue" points="2563.74,-348.14 2561.75,-358.547 2569.79,-351.65 2563.74,-348.14"/>
</g>
<!-- Node32 -->
<g id="node32" class="node"><title>Node32</title>
<g id="a_node32"><a xlink:href="../../d1/ddd/DigitGlobalPad_8cxx.html" target="_top" xlink:title="Implementation of the Pad container. ">
<polygon fill="none" stroke="black" points="2691.5,-269 2691.5,-321 2824.5,-321 2824.5,-269 2691.5,-269"/>
<text text-anchor="start" x="2699.5" y="-309" font-family="Helvetica,sans-Serif" font-size="10.00">/home/travis/build</text>
<text text-anchor="start" x="2699.5" y="-298" font-family="Helvetica,sans-Serif" font-size="10.00">/AliceO2Group/AliceO2</text>
<text text-anchor="start" x="2699.5" y="-287" font-family="Helvetica,sans-Serif" font-size="10.00">/Detectors/TPC/simulation</text>
<text text-anchor="middle" x="2758" y="-276" font-family="Helvetica,sans-Serif" font-size="10.00">/src/DigitGlobalPad.cxx</text>
</a>
</g>
</g>
<!-- Node30&#45;&gt;Node32 -->
<g id="edge37" class="edge"><title>Node30&#45;&gt;Node32</title>
<path fill="none" stroke="midnightblue" d="M2616.67,-354.942C2642.89,-344.008 2672.45,-331.679 2697.74,-321.133"/>
<polygon fill="midnightblue" stroke="midnightblue" points="2615.06,-351.821 2607.18,-358.901 2617.76,-358.281 2615.06,-351.821"/>
</g>
<!-- Node33 -->
<g id="node33" class="node"><title>Node33</title>
<g id="a_node33"><a xlink:href="../../d1/dd8/SAMPAProcessing_8cxx.html" target="_top" xlink:title="Implementation of the SAMPA response. ">
<polygon fill="none" stroke="black" points="2842.5,-269 2842.5,-321 2981.5,-321 2981.5,-269 2842.5,-269"/>
<text text-anchor="start" x="2850.5" y="-309" font-family="Helvetica,sans-Serif" font-size="10.00">/home/travis/build</text>
<text text-anchor="start" x="2850.5" y="-298" font-family="Helvetica,sans-Serif" font-size="10.00">/AliceO2Group/AliceO2</text>
<text text-anchor="start" x="2850.5" y="-287" font-family="Helvetica,sans-Serif" font-size="10.00">/Detectors/TPC/simulation</text>
<text text-anchor="middle" x="2912" y="-276" font-family="Helvetica,sans-Serif" font-size="10.00">/src/SAMPAProcessing.cxx</text>
</a>
</g>
</g>
<!-- Node30&#45;&gt;Node33 -->
<g id="edge40" class="edge"><title>Node30&#45;&gt;Node33</title>
<path fill="none" stroke="midnightblue" d="M2664.51,-361.41C2716.46,-350.685 2778.08,-336.947 2833,-322 2836.07,-321.166 2839.19,-320.283 2842.33,-319.366"/>
<polygon fill="midnightblue" stroke="midnightblue" points="2663.69,-358.007 2654.6,-363.446 2665.1,-364.864 2663.69,-358.007"/>
</g>
<!-- Node34 -->
<g id="node34" class="node"><title>Node34</title>
<g id="a_node34"><a xlink:href="../../d0/d5c/testTPCSAMPAProcessing_8cxx.html" target="_top" xlink:title="/home/travis/build\l/AliceO2Group/AliceO2\l/Detectors/TPC/simulation\l/test/testTPCSAMPAProcessing.cxx">
<polygon fill="none" stroke="black" points="2999.5,-269 2999.5,-321 3178.5,-321 3178.5,-269 2999.5,-269"/>
<text text-anchor="start" x="3007.5" y="-309" font-family="Helvetica,sans-Serif" font-size="10.00">/home/travis/build</text>
<text text-anchor="start" x="3007.5" y="-298" font-family="Helvetica,sans-Serif" font-size="10.00">/AliceO2Group/AliceO2</text>
<text text-anchor="start" x="3007.5" y="-287" font-family="Helvetica,sans-Serif" font-size="10.00">/Detectors/TPC/simulation</text>
<text text-anchor="middle" x="3089" y="-276" font-family="Helvetica,sans-Serif" font-size="10.00">/test/testTPCSAMPAProcessing.cxx</text>
</a>
</g>
</g>
<!-- Node30&#45;&gt;Node34 -->
<g id="edge42" class="edge"><title>Node30&#45;&gt;Node34</title>
<path fill="none" stroke="midnightblue" d="M2664.76,-371.346C2754.4,-360.792 2880.57,-343.947 2990,-322 2993.05,-321.388 2996.14,-320.739 2999.26,-320.06"/>
<polygon fill="midnightblue" stroke="midnightblue" points="2664.09,-367.901 2654.57,-372.539 2664.91,-374.854 2664.09,-367.901"/>
</g>
</g>
</svg>
