<?xml version="1.0" encoding="UTF-8" standalone="no"?>
<!DOCTYPE svg PUBLIC "-//W3C//DTD SVG 1.1//EN"
 "http://www.w3.org/Graphics/SVG/1.1/DTD/svg11.dtd">
<!-- Generated by graphviz version 2.36.0 (20140111.2315)
 -->
<!-- Title: /home/travis/build/AliceO2Group/AliceO2/Detectors/EMCAL/base/include/EMCALBase/Hit.h Pages: 1 -->
<!--zoomable 332 -->
<svg id="main" version="1.1" xmlns="http://www.w3.org/2000/svg" xmlns:xlink="http://www.w3.org/1999/xlink" xml:space="preserve" onload="init(evt)">
<style type="text/css"><![CDATA[
.edge:hover path { stroke: red; }
.edge:hover polygon { stroke: red; fill: red; }
]]></style>
<script type="text/javascript"><![CDATA[
var edges = document.getElementsByTagName('g');
if (edges && edges.length) {
  for (var i=0;i<edges.length;i++) {
    if (edges[i].id.substr(0,4)=='edge') {
      edges[i].setAttribute('class','edge');
    }
  }
}
]]></script>
        <defs>
                <circle id="rim" cx="0" cy="0" r="7"/>
                <circle id="rim2" cx="0" cy="0" r="3.5"/>
                <g id="zoomPlus">
                        <use xlink:href="#rim" fill="#404040">
                                <set attributeName="fill" to="#808080" begin="zoomplus.mouseover" end="zoomplus.mouseout"/>
                        </use>
                        <path d="M-4,0h8M0,-4v8" fill="none" stroke="white" stroke-width="1.5" pointer-events="none"/>
                </g>
                <g id="zoomMin">
                        <use xlink:href="#rim" fill="#404040">
                                <set attributeName="fill" to="#808080" begin="zoomminus.mouseover" end="zoomminus.mouseout"/>
                        </use>
                        <path d="M-4,0h8" fill="none" stroke="white" stroke-width="1.5" pointer-events="none"/>
                </g>
                <g id="dirArrow">
                        <path fill="none" stroke="white" stroke-width="1.5" d="M0,-3.0v7 M-2.5,-0.5L0,-3.0L2.5,-0.5"/>
                </g>
               <g id="resetDef">
                       <use xlink:href="#rim2" fill="#404040">
                               <set attributeName="fill" to="#808080" begin="reset.mouseover" end="reset.mouseout"/>
                       </use>
               </g>
        </defs>

<script type="text/javascript">
var viewWidth = 1428;
var viewHeight = 332;
var sectionId = 'dynsection-1';
</script>
<script xlink:href="../../svgpan.js"/>
<svg id="graph" class="graph">
<g id="viewport">
<title>/home/travis/build/AliceO2Group/AliceO2/Detectors/EMCAL/base/include/EMCALBase/Hit.h</title>
<!-- Node1 -->
<g id="node1" class="node"><title>Node1</title>
<polygon fill="#bfbfbf" stroke="black" points="862,-271 862,-323 996,-323 996,-271 862,-271"/>
<text text-anchor="start" x="870" y="-311" font-family="Helvetica,sans-Serif" font-size="10.00">/home/travis/build</text>
<text text-anchor="start" x="870" y="-300" font-family="Helvetica,sans-Serif" font-size="10.00">/AliceO2Group/AliceO2</text>
<text text-anchor="start" x="870" y="-289" font-family="Helvetica,sans-Serif" font-size="10.00">/Detectors/EMCAL/base</text>
<text text-anchor="middle" x="929" y="-278" font-family="Helvetica,sans-Serif" font-size="10.00">/include/EMCALBase/Hit.h</text>
</g>
<!-- Node2 -->
<g id="node2" class="node"><title>Node2</title>
<g id="a_node2"><a xlink:href="../../d8/d0f/EMCAL_2base_2src_2Hit_8cxx.html" target="_top" xlink:title="/home/travis/build\l/AliceO2Group/AliceO2\l/Detectors/EMCAL/base\l/src/Hit.cxx">
<polygon fill="none" stroke="black" points="321,-181 321,-233 445,-233 445,-181 321,-181"/>
<text text-anchor="start" x="329" y="-221" font-family="Helvetica,sans-Serif" font-size="10.00">/home/travis/build</text>
<text text-anchor="start" x="329" y="-210" font-family="Helvetica,sans-Serif" font-size="10.00">/AliceO2Group/AliceO2</text>
<text text-anchor="start" x="329" y="-199" font-family="Helvetica,sans-Serif" font-size="10.00">/Detectors/EMCAL/base</text>
<text text-anchor="middle" x="383" y="-188" font-family="Helvetica,sans-Serif" font-size="10.00">/src/Hit.cxx</text>
</a>
</g>
</g>
<!-- Node1&#45;&gt;Node2 -->
<g id="edge1" class="edge"><title>Node1&#45;&gt;Node2</title>
<path fill="none" stroke="midnightblue" d="M851.721,-290.535C757.886,-282.819 595.263,-265.961 459,-234 454.52,-232.949 449.932,-231.737 445.338,-230.423"/>
<polygon fill="midnightblue" stroke="midnightblue" points="851.45,-294.024 861.7,-291.342 852.014,-287.047 851.45,-294.024"/>
</g>
<!-- Node3 -->
<g id="node3" class="node"><title>Node3</title>
<g id="a_node3"><a xlink:href="../../d8/d3d/EMCAL_2simulation_2include_2EMCALSimulation_2Detector_8h.html" target="_top" xlink:title="/home/travis/build\l/AliceO2Group/AliceO2\l/Detectors/EMCAL/simulation\l/include/EMCALSimulation/Detector.h">
<polygon fill="none" stroke="black" points="501,-181 501,-233 683,-233 683,-181 501,-181"/>
<text text-anchor="start" x="509" y="-221" font-family="Helvetica,sans-Serif" font-size="10.00">/home/travis/build</text>
<text text-anchor="start" x="509" y="-210" font-family="Helvetica,sans-Serif" font-size="10.00">/AliceO2Group/AliceO2</text>
<text text-anchor="start" x="509" y="-199" font-family="Helvetica,sans-Serif" font-size="10.00">/Detectors/EMCAL/simulation</text>
<text text-anchor="middle" x="592" y="-188" font-family="Helvetica,sans-Serif" font-size="10.00">/include/EMCALSimulation/Detector.h</text>
</a>
</g>
</g>
<!-- Node1&#45;&gt;Node3 -->
<g id="edge2" class="edge"><title>Node1&#45;&gt;Node3</title>
<path fill="none" stroke="midnightblue" d="M851.792,-275.839C801.613,-262.736 735.961,-245.592 683.21,-231.817"/>
<polygon fill="midnightblue" stroke="midnightblue" points="851.053,-279.263 861.613,-278.403 852.822,-272.49 851.053,-279.263"/>
</g>
<!-- Node4 -->
<g id="node4" class="node"><title>Node4</title>
<g id="a_node4"><a xlink:href="../../da/d98/EMCAL_2simulation_2src_2Detector_8cxx.html" target="_top" xlink:title="/home/travis/build\l/AliceO2Group/AliceO2\l/Detectors/EMCAL/simulation\l/src/Detector.cxx">
<polygon fill="none" stroke="black" points="-0.5,-91 -0.5,-143 146.5,-143 146.5,-91 -0.5,-91"/>
<text text-anchor="start" x="7.5" y="-131" font-family="Helvetica,sans-Serif" font-size="10.00">/home/travis/build</text>
<text text-anchor="start" x="7.5" y="-120" font-family="Helvetica,sans-Serif" font-size="10.00">/AliceO2Group/AliceO2</text>
<text text-anchor="start" x="7.5" y="-109" font-family="Helvetica,sans-Serif" font-size="10.00">/Detectors/EMCAL/simulation</text>
<text text-anchor="middle" x="73" y="-98" font-family="Helvetica,sans-Serif" font-size="10.00">/src/Detector.cxx</text>
</a>
</g>
</g>
<!-- Node1&#45;&gt;Node4 -->
<g id="edge17" class="edge"><title>Node1&#45;&gt;Node4</title>
<path fill="none" stroke="midnightblue" d="M851.395,-292.243C742.468,-285.761 550.943,-269.583 492,-234 466.655,-218.7 478.499,-195.042 453,-180 338.476,-112.441 285.987,-171.991 156,-144 152.9,-143.332 149.75,-142.599 146.579,-141.816"/>
<polygon fill="midnightblue" stroke="midnightblue" points="851.485,-295.754 861.671,-292.841 851.891,-288.766 851.485,-295.754"/>
</g>
<!-- Node10 -->
<g id="node10" class="node"><title>Node10</title>
<g id="a_node10"><a xlink:href="../../d8/d19/EMCAL_2simulation_2include_2EMCALSimulation_2Digitizer_8h.html" target="_top" xlink:title="/home/travis/build\l/AliceO2Group/AliceO2\l/Detectors/EMCAL/simulation\l/include/EMCALSimulation/Digitizer.h">
<polygon fill="none" stroke="black" points="968.5,-181 968.5,-233 1149.5,-233 1149.5,-181 968.5,-181"/>
<text text-anchor="start" x="976.5" y="-221" font-family="Helvetica,sans-Serif" font-size="10.00">/home/travis/build</text>
<text text-anchor="start" x="976.5" y="-210" font-family="Helvetica,sans-Serif" font-size="10.00">/AliceO2Group/AliceO2</text>
<text text-anchor="start" x="976.5" y="-199" font-family="Helvetica,sans-Serif" font-size="10.00">/Detectors/EMCAL/simulation</text>
<text text-anchor="middle" x="1059" y="-188" font-family="Helvetica,sans-Serif" font-size="10.00">/include/EMCALSimulation/Digitizer.h</text>
</a>
</g>
</g>
<!-- Node1&#45;&gt;Node10 -->
<g id="edge10" class="edge"><title>Node1&#45;&gt;Node10</title>
<path fill="none" stroke="midnightblue" d="M974.627,-265.114C990.041,-254.68 1007.05,-243.163 1021.74,-233.221"/>
<polygon fill="midnightblue" stroke="midnightblue" points="972.572,-262.279 966.253,-270.783 976.496,-268.075 972.572,-262.279"/>
</g>
<!-- Node11 -->
<g id="node11" class="node"><title>Node11</title>
<g id="a_node11"><a xlink:href="../../d6/d0e/EMCAL_2simulation_2include_2EMCALSimulation_2DigitizerTask_8h.html" target="_top" xlink:title="/home/travis/build\l/AliceO2Group/AliceO2\l/Detectors/EMCAL/simulation\l/include/EMCALSimulation/DigitizerTask.h">
<polygon fill="none" stroke="black" points="827.5,-91 827.5,-143 1030.5,-143 1030.5,-91 827.5,-91"/>
<text text-anchor="start" x="835.5" y="-131" font-family="Helvetica,sans-Serif" font-size="10.00">/home/travis/build</text>
<text text-anchor="start" x="835.5" y="-120" font-family="Helvetica,sans-Serif" font-size="10.00">/AliceO2Group/AliceO2</text>
<text text-anchor="start" x="835.5" y="-109" font-family="Helvetica,sans-Serif" font-size="10.00">/Detectors/EMCAL/simulation</text>
<text text-anchor="middle" x="929" y="-98" font-family="Helvetica,sans-Serif" font-size="10.00">/include/EMCALSimulation/DigitizerTask.h</text>
</a>
</g>
</g>
<!-- Node1&#45;&gt;Node11 -->
<g id="edge16" class="edge"><title>Node1&#45;&gt;Node11</title>
<path fill="none" stroke="midnightblue" d="M929,-260.717C929,-226.052 929,-174.016 929,-143.285"/>
<polygon fill="midnightblue" stroke="midnightblue" points="925.5,-260.874 929,-270.874 932.5,-260.875 925.5,-260.874"/>
</g>
<!-- Node12 -->
<g id="node12" class="node"><title>Node12</title>
<g id="a_node12"><a xlink:href="../../df/df1/EMCAL_2simulation_2src_2DigitizerTask_8cxx.html" target="_top" xlink:title="/home/travis/build\l/AliceO2Group/AliceO2\l/Detectors/EMCAL/simulation\l/src/DigitizerTask.cxx">
<polygon fill="none" stroke="black" points="985.5,-1 985.5,-53 1132.5,-53 1132.5,-1 985.5,-1"/>
<text text-anchor="start" x="993.5" y="-41" font-family="Helvetica,sans-Serif" font-size="10.00">/home/travis/build</text>
<text text-anchor="start" x="993.5" y="-30" font-family="Helvetica,sans-Serif" font-size="10.00">/AliceO2Group/AliceO2</text>
<text text-anchor="start" x="993.5" y="-19" font-family="Helvetica,sans-Serif" font-size="10.00">/Detectors/EMCAL/simulation</text>
<text text-anchor="middle" x="1059" y="-8" font-family="Helvetica,sans-Serif" font-size="10.00">/src/DigitizerTask.cxx</text>
</a>
</g>
</g>
<!-- Node1&#45;&gt;Node12 -->
<g id="edge19" class="edge"><title>Node1&#45;&gt;Node12</title>
<path fill="none" stroke="midnightblue" d="M1006.23,-283.677C1130.45,-262.002 1365.2,-212.749 1409,-144 1421.9,-123.759 1424.42,-108.391 1409,-90 1374.46,-48.8001 1224.78,-34.962 1132.71,-30.3253"/>
<polygon fill="midnightblue" stroke="midnightblue" points="1005.28,-280.289 996.019,-285.439 1006.47,-287.187 1005.28,-280.289"/>
</g>
<!-- Node13 -->
<g id="node13" class="node"><title>Node13</title>
<g id="a_node13"><a xlink:href="../../de/d7d/EMCAL_2simulation_2src_2Digitizer_8cxx.html" target="_top" xlink:title="/home/travis/build\l/AliceO2Group/AliceO2\l/Detectors/EMCAL/simulation\l/src/Digitizer.cxx">
<polygon fill="none" stroke="black" points="1253.5,-91 1253.5,-143 1400.5,-143 1400.5,-91 1253.5,-91"/>
<text text-anchor="start" x="1261.5" y="-131" font-family="Helvetica,sans-Serif" font-size="10.00">/home/travis/build</text>
<text text-anchor="start" x="1261.5" y="-120" font-family="Helvetica,sans-Serif" font-size="10.00">/AliceO2Group/AliceO2</text>
<text text-anchor="start" x="1261.5" y="-109" font-family="Helvetica,sans-Serif" font-size="10.00">/Detectors/EMCAL/simulation</text>
<text text-anchor="middle" x="1327" y="-98" font-family="Helvetica,sans-Serif" font-size="10.00">/src/Digitizer.cxx</text>
</a>
</g>
</g>
<!-- Node1&#45;&gt;Node13 -->
<g id="edge18" class="edge"><title>Node1&#45;&gt;Node13</title>
<path fill="none" stroke="midnightblue" d="M1006.02,-281.938C1051.55,-271.982 1109.58,-256.379 1158,-234 1210.65,-209.662 1264.77,-169.29 1297.14,-143.168"/>
<polygon fill="midnightblue" stroke="midnightblue" points="1005.26,-278.522 996.211,-284.039 1006.72,-285.367 1005.26,-278.522"/>
</g>
<!-- Node3&#45;&gt;Node4 -->
<g id="edge3" class="edge"><title>Node3&#45;&gt;Node4</title>
<path fill="none" stroke="midnightblue" d="M490.844,-180.697C489.556,-180.459 488.274,-180.226 487,-180 341.295,-154.158 300.851,-174.262 156,-144 152.896,-143.352 149.743,-142.634 146.569,-141.864"/>
<polygon fill="midnightblue" stroke="midnightblue" points="490.33,-184.163 500.815,-182.64 491.669,-177.292 490.33,-184.163"/>
</g>
<!-- Node5 -->
<g id="node5" class="node"><title>Node5</title>
<g id="a_node5"><a xlink:href="../../d3/ddc/drawEMCALgeometry_8C.html" target="_top" xlink:title="/home/travis/build\l/AliceO2Group/AliceO2\l/Detectors/EMCAL/testsimulation\l/drawEMCALgeometry.C">
<polygon fill="none" stroke="black" points="165,-91 165,-143 329,-143 329,-91 165,-91"/>
<text text-anchor="start" x="173" y="-131" font-family="Helvetica,sans-Serif" font-size="10.00">/home/travis/build</text>
<text text-anchor="start" x="173" y="-120" font-family="Helvetica,sans-Serif" font-size="10.00">/AliceO2Group/AliceO2</text>
<text text-anchor="start" x="173" y="-109" font-family="Helvetica,sans-Serif" font-size="10.00">/Detectors/EMCAL/testsimulation</text>
<text text-anchor="middle" x="247" y="-98" font-family="Helvetica,sans-Serif" font-size="10.00">/drawEMCALgeometry.C</text>
</a>
</g>
</g>
<!-- Node3&#45;&gt;Node5 -->
<g id="edge4" class="edge"><title>Node3&#45;&gt;Node5</title>
<path fill="none" stroke="midnightblue" d="M490.873,-180.948C489.574,-180.63 488.283,-180.314 487,-180 420.823,-163.812 403.878,-161.362 338,-144 335.14,-143.246 332.232,-142.47 329.298,-141.678"/>
<polygon fill="midnightblue" stroke="midnightblue" points="490.402,-184.436 500.948,-183.42 492.07,-177.638 490.402,-184.436"/>
</g>
<!-- Node6 -->
<g id="node6" class="node"><title>Node6</title>
<g id="a_node6"><a xlink:href="../../d5/dce/PutEmcalInTop_8C.html" target="_top" xlink:title="/home/travis/build\l/AliceO2Group/AliceO2\l/Detectors/EMCAL/testsimulation\l/PutEmcalInTop.C">
<polygon fill="none" stroke="black" points="347,-91 347,-143 511,-143 511,-91 347,-91"/>
<text text-anchor="start" x="355" y="-131" font-family="Helvetica,sans-Serif" font-size="10.00">/home/travis/build</text>
<text text-anchor="start" x="355" y="-120" font-family="Helvetica,sans-Serif" font-size="10.00">/AliceO2Group/AliceO2</text>
<text text-anchor="start" x="355" y="-109" font-family="Helvetica,sans-Serif" font-size="10.00">/Detectors/EMCAL/testsimulation</text>
<text text-anchor="middle" x="429" y="-98" font-family="Helvetica,sans-Serif" font-size="10.00">/PutEmcalInTop.C</text>
</a>
</g>
</g>
<!-- Node3&#45;&gt;Node6 -->
<g id="edge5" class="edge"><title>Node3&#45;&gt;Node6</title>
<path fill="none" stroke="midnightblue" d="M536.358,-175.96C516.525,-165.253 494.412,-153.315 475.434,-143.069"/>
<polygon fill="midnightblue" stroke="midnightblue" points="534.828,-179.112 545.291,-180.783 538.154,-172.952 534.828,-179.112"/>
</g>
<!-- Node7 -->
<g id="node7" class="node"><title>Node7</title>
<g id="a_node7"><a xlink:href="../../db/df3/macro_2run__sim__emcal_8C.html" target="_top" xlink:title="/home/travis/build\l/AliceO2Group/AliceO2\l/macro/run_sim_emcal.C">
<polygon fill="none" stroke="black" points="529,-96.5 529,-137.5 655,-137.5 655,-96.5 529,-96.5"/>
<text text-anchor="start" x="537" y="-125.5" font-family="Helvetica,sans-Serif" font-size="10.00">/home/travis/build</text>
<text text-anchor="start" x="537" y="-114.5" font-family="Helvetica,sans-Serif" font-size="10.00">/AliceO2Group/AliceO2</text>
<text text-anchor="middle" x="592" y="-103.5" font-family="Helvetica,sans-Serif" font-size="10.00">/macro/run_sim_emcal.C</text>
</a>
</g>
</g>
<!-- Node3&#45;&gt;Node7 -->
<g id="edge6" class="edge"><title>Node3&#45;&gt;Node7</title>
<path fill="none" stroke="midnightblue" d="M592,-170.515C592,-159.257 592,-147.227 592,-137.525"/>
<polygon fill="midnightblue" stroke="midnightblue" points="588.5,-170.547 592,-180.547 595.5,-170.547 588.5,-170.547"/>
</g>
<!-- Node8 -->
<g id="node8" class="node"><title>Node8</title>
<g id="a_node8"><a xlink:href="../../db/d50/O2HitMerger_8h.html" target="_top" xlink:title="/home/travis/build\l/AliceO2Group/AliceO2\l/run/O2HitMerger.h">
<polygon fill="none" stroke="black" points="673,-96.5 673,-137.5 791,-137.5 791,-96.5 673,-96.5"/>
<text text-anchor="start" x="681" y="-125.5" font-family="Helvetica,sans-Serif" font-size="10.00">/home/travis/build</text>
<text text-anchor="start" x="681" y="-114.5" font-family="Helvetica,sans-Serif" font-size="10.00">/AliceO2Group/AliceO2</text>
<text text-anchor="middle" x="732" y="-103.5" font-family="Helvetica,sans-Serif" font-size="10.00">/run/O2HitMerger.h</text>
</a>
</g>
</g>
<!-- Node3&#45;&gt;Node8 -->
<g id="edge7" class="edge"><title>Node3&#45;&gt;Node8</title>
<path fill="none" stroke="midnightblue" d="M640.769,-175.345C660.683,-162.828 683.129,-148.719 700.773,-137.628"/>
<polygon fill="midnightblue" stroke="midnightblue" points="638.722,-172.498 632.118,-180.783 642.447,-178.424 638.722,-172.498"/>
</g>
<!-- Node8&#45;&gt;Node8 -->
<g id="edge8" class="edge"><title>Node8&#45;&gt;Node8</title>
<path fill="none" stroke="midnightblue" d="M800.662,-129.611C805.826,-126.798 809,-122.595 809,-117 809,-108.475 801.63,-103.18 791.079,-101.115"/>
<polygon fill="midnightblue" stroke="midnightblue" points="799.41,-126.34 791.079,-132.885 801.674,-132.964 799.41,-126.34"/>
</g>
<!-- Node9 -->
<g id="node9" class="node"><title>Node9</title>
<g id="a_node9"><a xlink:href="../../d9/d16/O2HitMergerRunner_8cxx.html" target="_top" xlink:title="/home/travis/build\l/AliceO2Group/AliceO2\l/run/O2HitMergerRunner.cxx">
<polygon fill="none" stroke="black" points="661,-6.5 661,-47.5 803,-47.5 803,-6.5 661,-6.5"/>
<text text-anchor="start" x="669" y="-35.5" font-family="Helvetica,sans-Serif" font-size="10.00">/home/travis/build</text>
<text text-anchor="start" x="669" y="-24.5" font-family="Helvetica,sans-Serif" font-size="10.00">/AliceO2Group/AliceO2</text>
<text text-anchor="middle" x="732" y="-13.5" font-family="Helvetica,sans-Serif" font-size="10.00">/run/O2HitMergerRunner.cxx</text>
</a>
</g>
</g>
<!-- Node8&#45;&gt;Node9 -->
<g id="edge9" class="edge"><title>Node8&#45;&gt;Node9</title>
<path fill="none" stroke="midnightblue" d="M732,-86.3298C732,-73.6289 732,-59.1399 732,-47.7798"/>
<polygon fill="midnightblue" stroke="midnightblue" points="728.5,-86.4699 732,-96.4699 735.5,-86.47 728.5,-86.4699"/>
</g>
<!-- Node10&#45;&gt;Node11 -->
<g id="edge11" class="edge"><title>Node10&#45;&gt;Node11</title>
<path fill="none" stroke="midnightblue" d="M1013.37,-175.114C997.959,-164.68 980.946,-153.163 966.258,-143.221"/>
<polygon fill="midnightblue" stroke="midnightblue" points="1011.5,-178.075 1021.75,-180.783 1015.43,-172.279 1011.5,-178.075"/>
</g>
<!-- Node10&#45;&gt;Node12 -->
<g id="edge14" class="edge"><title>Node10&#45;&gt;Node12</title>
<path fill="none" stroke="midnightblue" d="M1059,-170.717C1059,-136.052 1059,-84.0165 1059,-53.2853"/>
<polygon fill="midnightblue" stroke="midnightblue" points="1055.5,-170.874 1059,-180.874 1062.5,-170.875 1055.5,-170.874"/>
</g>
<!-- Node10&#45;&gt;Node13 -->
<g id="edge13" class="edge"><title>Node10&#45;&gt;Node13</title>
<path fill="none" stroke="midnightblue" d="M1145.12,-177.721C1179.96,-166.283 1219.76,-153.213 1253.23,-142.223"/>
<polygon fill="midnightblue" stroke="midnightblue" points="1143.85,-174.455 1135.44,-180.901 1146.03,-181.106 1143.85,-174.455"/>
</g>
<!-- Node14 -->
<g id="node14" class="node"><title>Node14</title>
<g id="a_node14"><a xlink:href="../../d5/d9b/EMCALDigitizerSpec_8cxx.html" target="_top" xlink:title="/home/travis/build\l/AliceO2Group/AliceO2\l/Steer/DigitizerWorkflow\l/src/EMCALDigitizerSpec.cxx">
<polygon fill="none" stroke="black" points="1087,-91 1087,-143 1235,-143 1235,-91 1087,-91"/>
<text text-anchor="start" x="1095" y="-131" font-family="Helvetica,sans-Serif" font-size="10.00">/home/travis/build</text>
<text text-anchor="start" x="1095" y="-120" font-family="Helvetica,sans-Serif" font-size="10.00">/AliceO2Group/AliceO2</text>
<text text-anchor="start" x="1095" y="-109" font-family="Helvetica,sans-Serif" font-size="10.00">/Steer/DigitizerWorkflow</text>
<text text-anchor="middle" x="1161" y="-98" font-family="Helvetica,sans-Serif" font-size="10.00">/src/EMCALDigitizerSpec.cxx</text>
</a>
</g>
</g>
<!-- Node10&#45;&gt;Node14 -->
<g id="edge15" class="edge"><title>Node10&#45;&gt;Node14</title>
<path fill="none" stroke="midnightblue" d="M1095.81,-174.242C1107.63,-164.042 1120.56,-152.887 1131.77,-143.221"/>
<polygon fill="midnightblue" stroke="midnightblue" points="1093.51,-171.6 1088.23,-180.783 1098.09,-176.9 1093.51,-171.6"/>
</g>
<!-- Node11&#45;&gt;Node12 -->
<g id="edge12" class="edge"><title>Node11&#45;&gt;Node12</title>
<path fill="none" stroke="midnightblue" d="M974.627,-85.1143C990.041,-74.6802 1007.05,-63.1632 1021.74,-53.221"/>
<polygon fill="midnightblue" stroke="midnightblue" points="972.572,-82.2786 966.253,-90.7827 976.496,-88.0754 972.572,-82.2786"/>
</g>
</g>
</svg>
        <g id="navigator" transform="translate(0 0)" fill="#404254">
                <rect fill="#f2f5e9" fill-opacity="0.5" stroke="#606060" stroke-width=".5" x="0" y="0" width="60" height="60"/>
                <use id="zoomplus" xlink:href="#zoomPlus" x="17" y="9" onmousedown="handleZoom(evt,'in')"/>
                <use id="zoomminus" xlink:href="#zoomMin" x="42" y="9" onmousedown="handleZoom(evt,'out')"/>
                <use id="reset" xlink:href="#resetDef" x="30" y="36" onmousedown="handleReset()"/>
                <g id="arrowUp" xlink:href="#dirArrow" transform="translate(30 24)" onmousedown="handlePan(0,-1)">
                  <use xlink:href="#rim" fill="#404040">
                        <set attributeName="fill" to="#808080" begin="arrowUp.mouseover" end="arrowUp.mouseout"/>
                  </use>
                  <path fill="none" stroke="white" stroke-width="1.5" d="M0,-3.0v7 M-2.5,-0.5L0,-3.0L2.5,-0.5"/>
                </g>
                <g id="arrowRight" xlink:href="#dirArrow" transform="rotate(90) translate(36 -43)" onmousedown="handlePan(1,0)">
                  <use xlink:href="#rim" fill="#404040">
                        <set attributeName="fill" to="#808080" begin="arrowRight.mouseover" end="arrowRight.mouseout"/>
                  </use>
                  <path fill="none" stroke="white" stroke-width="1.5" d="M0,-3.0v7 M-2.5,-0.5L0,-3.0L2.5,-0.5"/>
                </g>
                <g id="arrowDown" xlink:href="#dirArrow" transform="rotate(180) translate(-30 -48)" onmousedown="handlePan(0,1)">
                  <use xlink:href="#rim" fill="#404040">
                        <set attributeName="fill" to="#808080" begin="arrowDown.mouseover" end="arrowDown.mouseout"/>
                  </use>
                  <path fill="none" stroke="white" stroke-width="1.5" d="M0,-3.0v7 M-2.5,-0.5L0,-3.0L2.5,-0.5"/>
                </g>
                <g id="arrowLeft" xlink:href="#dirArrow" transform="rotate(270) translate(-36 17)" onmousedown="handlePan(-1,0)">
                  <use xlink:href="#rim" fill="#404040">
                        <set attributeName="fill" to="#808080" begin="arrowLeft.mouseover" end="arrowLeft.mouseout"/>
                  </use>
                  <path fill="none" stroke="white" stroke-width="1.5" d="M0,-3.0v7 M-2.5,-0.5L0,-3.0L2.5,-0.5"/>
                </g>
        </g>
        <svg viewBox="0 0 15 15" width="100%" height="30px" preserveAspectRatio="xMaxYMin meet">
         <g id="arrow_out" transform="scale(0.3 0.3)">
          <a xlink:href="EMCAL_2base_2include_2EMCALBase_2Hit_8h__dep__incl_org.svg" target="_base">
           <rect id="button" ry="5" rx="5" y="6" x="6" height="38" width="38"
                fill="#f2f5e9" fill-opacity="0.5" stroke="#606060" stroke-width="1.0"/>
           <path id="arrow"
             d="M 11.500037,31.436501 C 11.940474,20.09759 22.043105,11.32322 32.158766,21.979434 L 37.068811,17.246167 C 37.068811,17.246167 37.088388,32 37.088388,32 L 22.160133,31.978069 C 22.160133,31.978069 26.997745,27.140456 26.997745,27.140456 C 18.528582,18.264221 13.291696,25.230495 11.500037,31.436501 z"
             style="fill:#404040;"/>
          </a>
         </g>
        </svg>
</svg>
