<?xml version="1.0" encoding="UTF-8" standalone="no"?>
<!DOCTYPE svg PUBLIC "-//W3C//DTD SVG 1.1//EN"
 "http://www.w3.org/Graphics/SVG/1.1/DTD/svg11.dtd">
<!-- Generated by graphviz version 2.36.0 (20140111.2315)
 -->
<!-- Title: /home/travis/build/AliceO2Group/AliceO2/Framework/Utils/include/Utils/RootTreeReader.h Pages: 1 -->
<svg width="2096pt" height="298pt"
 viewBox="0.00 0.00 2096.00 298.00" xmlns="http://www.w3.org/2000/svg" xmlns:xlink="http://www.w3.org/1999/xlink">
<g id="graph0" class="graph" transform="scale(1 1) rotate(0) translate(4 294)">
<title>/home/travis/build/AliceO2Group/AliceO2/Framework/Utils/include/Utils/RootTreeReader.h</title>
<!-- Node1 -->
<g id="node1" class="node"><title>Node1</title>
<polygon fill="#bfbfbf" stroke="black" points="1227.5,-237 1227.5,-289 1352.5,-289 1352.5,-237 1227.5,-237"/>
<text text-anchor="start" x="1235.5" y="-277" font-family="Helvetica,sans-Serif" font-size="10.00">/home/travis/build</text>
<text text-anchor="start" x="1235.5" y="-266" font-family="Helvetica,sans-Serif" font-size="10.00">/AliceO2Group/AliceO2</text>
<text text-anchor="start" x="1235.5" y="-255" font-family="Helvetica,sans-Serif" font-size="10.00">/Framework/Utils/include</text>
<text text-anchor="middle" x="1290" y="-244" font-family="Helvetica,sans-Serif" font-size="10.00">/Utils/RootTreeReader.h</text>
</g>
<!-- Node2 -->
<g id="node2" class="node"><title>Node2</title>
<g id="a_node2"><a xlink:href="../../d3/ddf/Output_8h.html" target="_top" xlink:title="Framework/Output.h">
<polygon fill="none" stroke="black" points="666,-180.5 666,-199.5 772,-199.5 772,-180.5 666,-180.5"/>
<text text-anchor="middle" x="719" y="-187.5" font-family="Helvetica,sans-Serif" font-size="10.00">Framework/Output.h</text>
</a>
</g>
</g>
<!-- Node1&#45;&gt;Node2 -->
<g id="edge1" class="edge"><title>Node1&#45;&gt;Node2</title>
<path fill="none" stroke="midnightblue" d="M1227.26,-254.199C1117.55,-240.557 892.099,-212.524 782.124,-198.849"/>
<polygon fill="midnightblue" stroke="midnightblue" points="782.525,-195.372 772.169,-197.611 781.661,-202.318 782.525,-195.372"/>
</g>
<!-- Node3 -->
<g id="node3" class="node"><title>Node3</title>
<g id="a_node3"><a xlink:href="../../dc/dcd/DataHeader_8h.html" target="_top" xlink:title="Headers/DataHeader.h">
<polygon fill="none" stroke="black" points="403.5,-68.5 403.5,-87.5 520.5,-87.5 520.5,-68.5 403.5,-68.5"/>
<text text-anchor="middle" x="462" y="-75.5" font-family="Helvetica,sans-Serif" font-size="10.00">Headers/DataHeader.h</text>
</a>
</g>
</g>
<!-- Node1&#45;&gt;Node3 -->
<g id="edge29" class="edge"><title>Node1&#45;&gt;Node3</title>
<path fill="none" stroke="midnightblue" d="M1227.33,-257.228C1128.44,-248.909 941.321,-229.749 882,-200 839.018,-178.445 848.2,-145.116 805,-124 758.141,-101.095 616.975,-88.5559 531.042,-82.8608"/>
<polygon fill="midnightblue" stroke="midnightblue" points="531.052,-79.3542 520.846,-82.2 530.599,-86.3396 531.052,-79.3542"/>
</g>
<!-- Node5 -->
<g id="node5" class="node"><title>Node5</title>
<polygon fill="none" stroke="#bfbfbf" points="362,-6.5 362,-25.5 414,-25.5 414,-6.5 362,-6.5"/>
<text text-anchor="middle" x="388" y="-13.5" font-family="Helvetica,sans-Serif" font-size="10.00">memory</text>
</g>
<!-- Node1&#45;&gt;Node5 -->
<g id="edge38" class="edge"><title>Node1&#45;&gt;Node5</title>
<path fill="none" stroke="midnightblue" d="M1227.43,-241.597C1139.61,-213.317 974.565,-161.461 832,-124 651.798,-76.6489 600.263,-89.3836 423,-32 420.579,-31.2161 418.094,-30.3288 415.62,-29.3868"/>
<polygon fill="midnightblue" stroke="midnightblue" points="416.867,-26.1156 406.285,-25.5863 414.227,-32.5989 416.867,-26.1156"/>
</g>
<!-- Node9 -->
<g id="node9" class="node"><title>Node9</title>
<polygon fill="none" stroke="#bfbfbf" points="432.5,-6.5 432.5,-25.5 491.5,-25.5 491.5,-6.5 432.5,-6.5"/>
<text text-anchor="middle" x="462" y="-13.5" font-family="Helvetica,sans-Serif" font-size="10.00">stdexcept</text>
</g>
<!-- Node1&#45;&gt;Node9 -->
<g id="edge36" class="edge"><title>Node1&#45;&gt;Node9</title>
<path fill="none" stroke="midnightblue" d="M1238.81,-236.859C1216.15,-225.665 1189.2,-212.264 1165,-200 1051.17,-142.311 1032.55,-103.602 910,-68 734.764,-17.092 678.779,-73.1542 501,-32 497.574,-31.207 494.048,-30.1766 490.582,-29.0271"/>
<polygon fill="midnightblue" stroke="midnightblue" points="491.7,-25.7094 481.106,-25.5704 489.301,-32.2855 491.7,-25.7094"/>
</g>
<!-- Node10 -->
<g id="node10" class="node"><title>Node10</title>
<polygon fill="none" stroke="#bfbfbf" points="574.5,-6.5 574.5,-25.5 615.5,-25.5 615.5,-6.5 574.5,-6.5"/>
<text text-anchor="middle" x="595" y="-13.5" font-family="Helvetica,sans-Serif" font-size="10.00">string</text>
</g>
<!-- Node1&#45;&gt;Node10 -->
<g id="edge35" class="edge"><title>Node1&#45;&gt;Node10</title>
<path fill="none" stroke="midnightblue" d="M1253.29,-236.91C1182.7,-189.142 1029.73,-88.0918 970,-68 823.879,-18.8484 772.999,-75.1687 625,-32 623.029,-31.4252 621.033,-30.7243 619.055,-29.943"/>
<polygon fill="midnightblue" stroke="midnightblue" points="620.072,-26.5595 609.523,-25.5767 617.157,-32.9235 620.072,-26.5595"/>
</g>
<!-- Node19 -->
<g id="node19" class="node"><title>Node19</title>
<polygon fill="none" stroke="#bfbfbf" points="1906,-6.5 1906,-25.5 1968,-25.5 1968,-6.5 1906,-6.5"/>
<text text-anchor="middle" x="1937" y="-13.5" font-family="Helvetica,sans-Serif" font-size="10.00">type_traits</text>
</g>
<!-- Node1&#45;&gt;Node19 -->
<g id="edge37" class="edge"><title>Node1&#45;&gt;Node19</title>
<path fill="none" stroke="midnightblue" d="M1277.91,-236.995C1259.96,-195.832 1232.78,-113.802 1276,-68 1323.44,-17.7334 1829.38,-46.2955 1897,-32 1900.7,-31.2176 1904.51,-30.1517 1908.25,-28.9462"/>
<polygon fill="midnightblue" stroke="midnightblue" points="1909.58,-32.1877 1917.82,-25.5281 1907.22,-25.5956 1909.58,-32.1877"/>
</g>
<!-- Node20 -->
<g id="node20" class="node"><title>Node20</title>
<polygon fill="none" stroke="#bfbfbf" points="1986,-6.5 1986,-25.5 2026,-25.5 2026,-6.5 1986,-6.5"/>
<text text-anchor="middle" x="2006" y="-13.5" font-family="Helvetica,sans-Serif" font-size="10.00">utility</text>
</g>
<!-- Node1&#45;&gt;Node20 -->
<g id="edge40" class="edge"><title>Node1&#45;&gt;Node20</title>
<path fill="none" stroke="midnightblue" d="M1284.18,-236.755C1276.19,-194.86 1267.61,-111.306 1314,-68 1367.85,-17.7327 1904.79,-50.8655 1976,-32 1978.2,-31.4184 1980.42,-30.6659 1982.61,-29.808"/>
<polygon fill="midnightblue" stroke="midnightblue" points="1984.2,-32.9299 1991.82,-25.5762 1981.28,-26.5684 1984.2,-32.9299"/>
</g>
<!-- Node21 -->
<g id="node21" class="node"><title>Node21</title>
<polygon fill="none" stroke="#bfbfbf" points="2044,-6.5 2044,-25.5 2088,-25.5 2088,-6.5 2044,-6.5"/>
<text text-anchor="middle" x="2066" y="-13.5" font-family="Helvetica,sans-Serif" font-size="10.00">vector</text>
</g>
<!-- Node1&#45;&gt;Node21 -->
<g id="edge34" class="edge"><title>Node1&#45;&gt;Node21</title>
<path fill="none" stroke="midnightblue" d="M1301.05,-236.981C1310.57,-218.393 1326.08,-193.937 1347,-180 1607.31,-6.60463 1739.23,-133.729 2035,-32 2036.91,-31.3437 2038.85,-30.5997 2040.79,-29.8026"/>
<polygon fill="midnightblue" stroke="midnightblue" points="2042.55,-32.8464 2050.22,-25.5341 2039.67,-26.4693 2042.55,-32.8464"/>
</g>
<!-- Node27 -->
<g id="node27" class="node"><title>Node27</title>
<polygon fill="none" stroke="#bfbfbf" points="1356,-180.5 1356,-199.5 1412,-199.5 1412,-180.5 1356,-180.5"/>
<text text-anchor="middle" x="1384" y="-187.5" font-family="Helvetica,sans-Serif" font-size="10.00">TChain.h</text>
</g>
<!-- Node1&#45;&gt;Node27 -->
<g id="edge30" class="edge"><title>Node1&#45;&gt;Node27</title>
<path fill="none" stroke="midnightblue" d="M1323.14,-236.968C1336.79,-226.66 1352.15,-215.059 1364.02,-206.09"/>
<polygon fill="midnightblue" stroke="midnightblue" points="1366.47,-208.63 1372.34,-199.81 1362.25,-203.044 1366.47,-208.63"/>
</g>
<!-- Node28 -->
<g id="node28" class="node"><title>Node28</title>
<polygon fill="none" stroke="#bfbfbf" points="1430,-180.5 1430,-199.5 1480,-199.5 1480,-180.5 1430,-180.5"/>
<text text-anchor="middle" x="1455" y="-187.5" font-family="Helvetica,sans-Serif" font-size="10.00">TTree.h</text>
</g>
<!-- Node1&#45;&gt;Node28 -->
<g id="edge31" class="edge"><title>Node1&#45;&gt;Node28</title>
<path fill="none" stroke="midnightblue" d="M1348.17,-236.968C1374.4,-225.681 1404.24,-212.844 1425.7,-203.61"/>
<polygon fill="midnightblue" stroke="midnightblue" points="1427.12,-206.807 1434.92,-199.639 1424.35,-200.377 1427.12,-206.807"/>
</g>
<!-- Node29 -->
<g id="node29" class="node"><title>Node29</title>
<polygon fill="none" stroke="#bfbfbf" points="1498,-180.5 1498,-199.5 1560,-199.5 1560,-180.5 1498,-180.5"/>
<text text-anchor="middle" x="1529" y="-187.5" font-family="Helvetica,sans-Serif" font-size="10.00">TBranch.h</text>
</g>
<!-- Node1&#45;&gt;Node29 -->
<g id="edge32" class="edge"><title>Node1&#45;&gt;Node29</title>
<path fill="none" stroke="midnightblue" d="M1352.79,-243.346C1396.41,-230.389 1453.14,-213.535 1490.29,-202.5"/>
<polygon fill="midnightblue" stroke="midnightblue" points="1491.63,-205.753 1500.22,-199.55 1489.64,-199.043 1491.63,-205.753"/>
</g>
<!-- Node30 -->
<g id="node30" class="node"><title>Node30</title>
<polygon fill="none" stroke="#bfbfbf" points="1578,-180.5 1578,-199.5 1634,-199.5 1634,-180.5 1578,-180.5"/>
<text text-anchor="middle" x="1606" y="-187.5" font-family="Helvetica,sans-Serif" font-size="10.00">TClass.h</text>
</g>
<!-- Node1&#45;&gt;Node30 -->
<g id="edge33" class="edge"><title>Node1&#45;&gt;Node30</title>
<path fill="none" stroke="midnightblue" d="M1352.71,-248.26C1409.09,-235.849 1494.15,-216.981 1568,-200 1568.1,-199.977 1568.2,-199.954 1568.3,-199.932"/>
<polygon fill="midnightblue" stroke="midnightblue" points="1568.84,-203.399 1577.79,-197.725 1567.26,-196.581 1568.84,-203.399"/>
</g>
<!-- Node31 -->
<g id="node31" class="node"><title>Node31</title>
<polygon fill="none" stroke="#bfbfbf" points="1652.5,-180.5 1652.5,-199.5 1711.5,-199.5 1711.5,-180.5 1652.5,-180.5"/>
<text text-anchor="middle" x="1682" y="-187.5" font-family="Helvetica,sans-Serif" font-size="10.00">functional</text>
</g>
<!-- Node1&#45;&gt;Node31 -->
<g id="edge39" class="edge"><title>Node1&#45;&gt;Node31</title>
<path fill="none" stroke="midnightblue" d="M1352.8,-251.853C1423.34,-240.244 1541.16,-220.215 1642,-200 1642.1,-199.979 1642.21,-199.958 1642.31,-199.937"/>
<polygon fill="midnightblue" stroke="midnightblue" points="1643.26,-203.316 1652.33,-197.84 1641.82,-196.464 1643.26,-203.316"/>
</g>
<!-- Node2&#45;&gt;Node3 -->
<g id="edge2" class="edge"><title>Node2&#45;&gt;Node3</title>
<path fill="none" stroke="midnightblue" d="M679.878,-180.466C648.56,-172.919 603.922,-160.536 567,-144 535.638,-129.954 502.388,-108.017 481.907,-93.5752"/>
<polygon fill="midnightblue" stroke="midnightblue" points="483.871,-90.677 473.701,-87.7063 479.799,-96.3706 483.871,-90.677"/>
</g>
<!-- Node12 -->
<g id="node12" class="node"><title>Node12</title>
<g id="a_node12"><a xlink:href="../../dc/dca/Lifetime_8h.html" target="_top" xlink:title="Framework/Lifetime.h">
<polygon fill="none" stroke="black" points="576.5,-124.5 576.5,-143.5 687.5,-143.5 687.5,-124.5 576.5,-124.5"/>
<text text-anchor="middle" x="632" y="-131.5" font-family="Helvetica,sans-Serif" font-size="10.00">Framework/Lifetime.h</text>
</a>
</g>
</g>
<!-- Node2&#45;&gt;Node12 -->
<g id="edge11" class="edge"><title>Node2&#45;&gt;Node12</title>
<path fill="none" stroke="midnightblue" d="M705.022,-180.324C691.45,-171.9 670.62,-158.971 654.675,-149.074"/>
<polygon fill="midnightblue" stroke="midnightblue" points="656.286,-145.954 645.943,-143.655 652.594,-151.902 656.286,-145.954"/>
</g>
<!-- Node13 -->
<g id="node13" class="node"><title>Node13</title>
<g id="a_node13"><a xlink:href="../../d4/d00/Headers_2include_2Headers_2Stack_8h.html" target="_top" xlink:title="Headers/Stack.h">
<polygon fill="none" stroke="black" points="706,-124.5 706,-143.5 796,-143.5 796,-124.5 706,-124.5"/>
<text text-anchor="middle" x="751" y="-131.5" font-family="Helvetica,sans-Serif" font-size="10.00">Headers/Stack.h</text>
</a>
</g>
</g>
<!-- Node2&#45;&gt;Node13 -->
<g id="edge12" class="edge"><title>Node2&#45;&gt;Node13</title>
<path fill="none" stroke="midnightblue" d="M724.284,-180.083C728.711,-172.613 735.163,-161.724 740.618,-152.52"/>
<polygon fill="midnightblue" stroke="midnightblue" points="743.727,-154.138 745.814,-143.751 737.705,-150.57 743.727,-154.138"/>
</g>
<!-- Node4 -->
<g id="node4" class="node"><title>Node4</title>
<polygon fill="none" stroke="#bfbfbf" points="0,-6.5 0,-25.5 46,-25.5 46,-6.5 0,-6.5"/>
<text text-anchor="middle" x="23" y="-13.5" font-family="Helvetica,sans-Serif" font-size="10.00">cstdint</text>
</g>
<!-- Node3&#45;&gt;Node4 -->
<g id="edge3" class="edge"><title>Node3&#45;&gt;Node4</title>
<path fill="none" stroke="midnightblue" d="M403.231,-76.4982C323.067,-74.4704 175.615,-65.9307 55,-32 52.6578,-31.3411 50.2733,-30.5264 47.9159,-29.6199"/>
<polygon fill="midnightblue" stroke="midnightblue" points="49.1208,-26.3272 38.5552,-25.5417 46.3249,-32.7446 49.1208,-26.3272"/>
</g>
<!-- Node3&#45;&gt;Node5 -->
<g id="edge4" class="edge"><title>Node3&#45;&gt;Node5</title>
<path fill="none" stroke="midnightblue" d="M451.398,-68.4035C439.748,-58.9579 420.814,-43.6056 406.665,-32.1342"/>
<polygon fill="midnightblue" stroke="midnightblue" points="408.555,-29.16 398.583,-25.5806 404.146,-34.5973 408.555,-29.16"/>
</g>
<!-- Node6 -->
<g id="node6" class="node"><title>Node6</title>
<polygon fill="none" stroke="#bfbfbf" points="64.5,-6.5 64.5,-25.5 113.5,-25.5 113.5,-6.5 64.5,-6.5"/>
<text text-anchor="middle" x="89" y="-13.5" font-family="Helvetica,sans-Serif" font-size="10.00">cassert</text>
</g>
<!-- Node3&#45;&gt;Node6 -->
<g id="edge5" class="edge"><title>Node3&#45;&gt;Node6</title>
<path fill="none" stroke="midnightblue" d="M403.408,-74.2617C335.015,-69.9169 219.029,-58.963 123,-32 120.5,-31.298 117.945,-30.446 115.416,-29.5084"/>
<polygon fill="midnightblue" stroke="midnightblue" points="116.526,-26.1806 105.947,-25.6051 113.858,-32.6522 116.526,-26.1806"/>
</g>
<!-- Node7 -->
<g id="node7" class="node"><title>Node7</title>
<polygon fill="none" stroke="#bfbfbf" points="510,-6.5 510,-25.5 556,-25.5 556,-6.5 510,-6.5"/>
<text text-anchor="middle" x="533" y="-13.5" font-family="Helvetica,sans-Serif" font-size="10.00">cstring</text>
</g>
<!-- Node3&#45;&gt;Node7 -->
<g id="edge6" class="edge"><title>Node3&#45;&gt;Node7</title>
<path fill="none" stroke="midnightblue" d="M472.173,-68.4035C483.35,-58.9579 501.517,-43.6056 515.091,-32.1342"/>
<polygon fill="midnightblue" stroke="midnightblue" points="517.467,-34.7085 522.846,-25.5806 512.949,-29.3619 517.467,-34.7085"/>
</g>
<!-- Node8 -->
<g id="node8" class="node"><title>Node8</title>
<polygon fill="none" stroke="#bfbfbf" points="132,-6.5 132,-25.5 188,-25.5 188,-6.5 132,-6.5"/>
<text text-anchor="middle" x="160" y="-13.5" font-family="Helvetica,sans-Serif" font-size="10.00">algorithm</text>
</g>
<!-- Node3&#45;&gt;Node8 -->
<g id="edge7" class="edge"><title>Node3&#45;&gt;Node8</title>
<path fill="none" stroke="midnightblue" d="M403.294,-70.7401C349.05,-64.0873 266.581,-51.7585 197,-32 194.187,-31.2012 191.296,-30.2583 188.43,-29.2406"/>
<polygon fill="midnightblue" stroke="midnightblue" points="189.517,-25.9087 178.926,-25.5922 187.008,-32.4437 189.517,-25.9087"/>
</g>
<!-- Node3&#45;&gt;Node9 -->
<g id="edge8" class="edge"><title>Node3&#45;&gt;Node9</title>
<path fill="none" stroke="midnightblue" d="M462,-68.4035C462,-59.9381 462,-46.7283 462,-35.8199"/>
<polygon fill="midnightblue" stroke="midnightblue" points="465.5,-35.5806 462,-25.5806 458.5,-35.5806 465.5,-35.5806"/>
</g>
<!-- Node3&#45;&gt;Node10 -->
<g id="edge9" class="edge"><title>Node3&#45;&gt;Node10</title>
<path fill="none" stroke="midnightblue" d="M482.66,-68.3457C503.557,-59.5051 536.722,-45.236 565,-32 566.351,-31.3674 567.733,-30.7112 569.125,-30.0424"/>
<polygon fill="midnightblue" stroke="midnightblue" points="570.819,-33.1098 578.256,-25.5635 567.736,-26.8252 570.819,-33.1098"/>
</g>
<!-- Node11 -->
<g id="node11" class="node"><title>Node11</title>
<g id="a_node11"><a xlink:href="../../d7/df8/Types_8h.html" target="_top" xlink:title="MemoryResources/Types.h">
<polygon fill="none" stroke="black" points="206.5,-6.5 206.5,-25.5 343.5,-25.5 343.5,-6.5 206.5,-6.5"/>
<text text-anchor="middle" x="275" y="-13.5" font-family="Helvetica,sans-Serif" font-size="10.00">MemoryResources/Types.h</text>
</a>
</g>
</g>
<!-- Node3&#45;&gt;Node11 -->
<g id="edge10" class="edge"><title>Node3&#45;&gt;Node11</title>
<path fill="none" stroke="midnightblue" d="M435.207,-68.4035C402.714,-57.9777 347.792,-40.3557 311.462,-28.6992"/>
<polygon fill="midnightblue" stroke="midnightblue" points="312.334,-25.3031 301.743,-25.5806 310.195,-31.9685 312.334,-25.3031"/>
</g>
<!-- Node13&#45;&gt;Node3 -->
<g id="edge28" class="edge"><title>Node13&#45;&gt;Node3</title>
<path fill="none" stroke="midnightblue" d="M705.844,-124.562C655.031,-115.068 572.451,-99.638 517.682,-89.4042"/>
<polygon fill="midnightblue" stroke="midnightblue" points="518.266,-85.9528 507.793,-87.5565 516.98,-92.8337 518.266,-85.9528"/>
</g>
<!-- Node14 -->
<g id="node14" class="node"><title>Node14</title>
<g id="a_node14"><a xlink:href="../../dc/d03/MemoryResources_8h.html" target="_top" xlink:title="MemoryResources/MemoryResources.h">
<polygon fill="none" stroke="black" points="1030.5,-68.5 1030.5,-87.5 1223.5,-87.5 1223.5,-68.5 1030.5,-68.5"/>
<text text-anchor="middle" x="1127" y="-75.5" font-family="Helvetica,sans-Serif" font-size="10.00">MemoryResources/MemoryResources.h</text>
</a>
</g>
</g>
<!-- Node13&#45;&gt;Node14 -->
<g id="edge13" class="edge"><title>Node13&#45;&gt;Node14</title>
<path fill="none" stroke="midnightblue" d="M796.354,-126.486C861.312,-117.157 981.387,-99.9125 1057.57,-88.9713"/>
<polygon fill="midnightblue" stroke="midnightblue" points="1058.16,-92.4231 1067.56,-87.537 1057.16,-85.4942 1058.16,-92.4231"/>
</g>
<!-- Node14&#45;&gt;Node7 -->
<g id="edge18" class="edge"><title>Node14&#45;&gt;Node7</title>
<path fill="none" stroke="midnightblue" d="M1030.48,-71.156C881.657,-61.8603 608.67,-43.576 565,-32 562.648,-31.3766 560.257,-30.5863 557.895,-29.6959"/>
<polygon fill="midnightblue" stroke="midnightblue" points="559.095,-26.4016 548.528,-25.6426 556.315,-32.826 559.095,-26.4016"/>
</g>
<!-- Node14&#45;&gt;Node10 -->
<g id="edge19" class="edge"><title>Node14&#45;&gt;Node10</title>
<path fill="none" stroke="midnightblue" d="M1030.21,-69.2559C889.798,-57.8865 644.151,-37.4348 625,-32 623.025,-31.4396 621.026,-30.7491 619.045,-29.975"/>
<polygon fill="midnightblue" stroke="midnightblue" points="620.06,-26.591 609.51,-25.6227 617.154,-32.9591 620.06,-26.591"/>
</g>
<!-- Node15 -->
<g id="node15" class="node"><title>Node15</title>
<polygon fill="none" stroke="#bfbfbf" points="634,-1 634,-31 734,-31 734,-1 634,-1"/>
<text text-anchor="start" x="642" y="-19" font-family="Helvetica,sans-Serif" font-size="10.00">boost/container/flat</text>
<text text-anchor="middle" x="684" y="-8" font-family="Helvetica,sans-Serif" font-size="10.00">_map.hpp</text>
</g>
<!-- Node14&#45;&gt;Node15 -->
<g id="edge14" class="edge"><title>Node14&#45;&gt;Node15</title>
<path fill="none" stroke="midnightblue" d="M1030.21,-69.2287C954.676,-62.3351 847.006,-50.6936 744.059,-32.0472"/>
<polygon fill="midnightblue" stroke="midnightblue" points="744.58,-28.5844 734.112,-30.2207 743.316,-35.4693 744.58,-28.5844"/>
</g>
<!-- Node16 -->
<g id="node16" class="node"><title>Node16</title>
<polygon fill="none" stroke="#bfbfbf" points="752,-1 752,-31 868,-31 868,-1 752,-1"/>
<text text-anchor="start" x="760" y="-19" font-family="Helvetica,sans-Serif" font-size="10.00">boost/container/pmr</text>
<text text-anchor="middle" x="810" y="-8" font-family="Helvetica,sans-Serif" font-size="10.00">/memory_resource.hpp</text>
</g>
<!-- Node14&#45;&gt;Node16 -->
<g id="edge15" class="edge"><title>Node14&#45;&gt;Node16</title>
<path fill="none" stroke="midnightblue" d="M1076.13,-68.4895C1027.7,-60.2429 952.537,-47.0667 878.093,-32.1745"/>
<polygon fill="midnightblue" stroke="midnightblue" points="878.567,-28.6998 868.073,-30.1586 877.186,-35.5623 878.567,-28.6998"/>
</g>
<!-- Node17 -->
<g id="node17" class="node"><title>Node17</title>
<polygon fill="none" stroke="#bfbfbf" points="886,-1 886,-31 1042,-31 1042,-1 886,-1"/>
<text text-anchor="start" x="894" y="-19" font-family="Helvetica,sans-Serif" font-size="10.00">boost/container/pmr</text>
<text text-anchor="middle" x="964" y="-8" font-family="Helvetica,sans-Serif" font-size="10.00">/monotonic_buffer_resource.hpp</text>
</g>
<!-- Node14&#45;&gt;Node17 -->
<g id="edge16" class="edge"><title>Node14&#45;&gt;Node17</title>
<path fill="none" stroke="midnightblue" d="M1103.65,-68.4035C1079.74,-59.6025 1041.9,-45.6737 1011.63,-34.534"/>
<polygon fill="midnightblue" stroke="midnightblue" points="1012.7,-31.1952 1002.1,-31.0253 1010.28,-37.7643 1012.7,-31.1952"/>
</g>
<!-- Node18 -->
<g id="node18" class="node"><title>Node18</title>
<polygon fill="none" stroke="#bfbfbf" points="1060.5,-1 1060.5,-31 1193.5,-31 1193.5,-1 1060.5,-1"/>
<text text-anchor="start" x="1068.5" y="-19" font-family="Helvetica,sans-Serif" font-size="10.00">boost/container/pmr</text>
<text text-anchor="middle" x="1127" y="-8" font-family="Helvetica,sans-Serif" font-size="10.00">/polymorphic_allocator.hpp</text>
</g>
<!-- Node14&#45;&gt;Node18 -->
<g id="edge17" class="edge"><title>Node14&#45;&gt;Node18</title>
<path fill="none" stroke="midnightblue" d="M1127,-68.4035C1127,-61.3405 1127,-50.975 1127,-41.399"/>
<polygon fill="midnightblue" stroke="midnightblue" points="1130.5,-41.1408 1127,-31.1408 1123.5,-41.1408 1130.5,-41.1408"/>
</g>
<!-- Node14&#45;&gt;Node19 -->
<g id="edge20" class="edge"><title>Node14&#45;&gt;Node19</title>
<path fill="none" stroke="midnightblue" d="M1223.55,-69.0181C1228.44,-68.6623 1233.27,-68.3206 1238,-68 1530.65,-48.1456 1609.92,-92.1916 1897,-32 1900.7,-31.2238 1904.52,-30.1616 1908.25,-28.958"/>
<polygon fill="midnightblue" stroke="midnightblue" points="1909.58,-32.1999 1917.82,-25.5417 1907.23,-25.6073 1909.58,-32.1999"/>
</g>
<!-- Node14&#45;&gt;Node20 -->
<g id="edge21" class="edge"><title>Node14&#45;&gt;Node20</title>
<path fill="none" stroke="midnightblue" d="M1223.57,-71.0403C1241.02,-69.9995 1259.05,-68.9476 1276,-68 1431.52,-59.3043 1825.37,-71.669 1976,-32 1978.2,-31.4216 1980.42,-30.6713 1982.61,-29.815"/>
<polygon fill="midnightblue" stroke="midnightblue" points="1984.2,-32.9374 1991.83,-25.5855 1981.28,-26.5753 1984.2,-32.9374"/>
</g>
<!-- Node14&#45;&gt;Node21 -->
<g id="edge22" class="edge"><title>Node14&#45;&gt;Node21</title>
<path fill="none" stroke="midnightblue" d="M1223.57,-72.3383C1456.43,-61.0813 2030.13,-33.2451 2035,-32 2037.35,-31.4007 2039.73,-30.6156 2042.07,-29.7185"/>
<polygon fill="midnightblue" stroke="midnightblue" points="2043.62,-32.8598 2051.33,-25.5892 2040.77,-26.4671 2043.62,-32.8598"/>
</g>
<!-- Node22 -->
<g id="node22" class="node"><title>Node22</title>
<polygon fill="none" stroke="#bfbfbf" points="1211.5,-6.5 1211.5,-25.5 1294.5,-25.5 1294.5,-6.5 1211.5,-6.5"/>
<text text-anchor="middle" x="1253" y="-13.5" font-family="Helvetica,sans-Serif" font-size="10.00">unordered_map</text>
</g>
<!-- Node14&#45;&gt;Node22 -->
<g id="edge23" class="edge"><title>Node14&#45;&gt;Node22</title>
<path fill="none" stroke="midnightblue" d="M1145.05,-68.4035C1166.2,-58.3341 1201.44,-41.5522 1225.88,-29.9151"/>
<polygon fill="midnightblue" stroke="midnightblue" points="1227.46,-33.04 1234.98,-25.5806 1224.45,-26.72 1227.46,-33.04"/>
</g>
<!-- Node23 -->
<g id="node23" class="node"><title>Node23</title>
<polygon fill="none" stroke="#bfbfbf" points="1312.5,-6.5 1312.5,-25.5 1409.5,-25.5 1409.5,-6.5 1312.5,-6.5"/>
<text text-anchor="middle" x="1361" y="-13.5" font-family="Helvetica,sans-Serif" font-size="10.00">FairMQMessage.h</text>
</g>
<!-- Node14&#45;&gt;Node23 -->
<g id="edge24" class="edge"><title>Node14&#45;&gt;Node23</title>
<path fill="none" stroke="midnightblue" d="M1160.42,-68.4843C1195.83,-59.4552 1253.36,-44.7637 1303,-32 1307.97,-30.7215 1313.18,-29.3783 1318.36,-28.043"/>
<polygon fill="midnightblue" stroke="midnightblue" points="1319.38,-31.3941 1328.18,-25.5038 1317.63,-24.6167 1319.38,-31.3941"/>
</g>
<!-- Node24 -->
<g id="node24" class="node"><title>Node24</title>
<polygon fill="none" stroke="#bfbfbf" points="1427.5,-6.5 1427.5,-25.5 1558.5,-25.5 1558.5,-6.5 1427.5,-6.5"/>
<text text-anchor="middle" x="1493" y="-13.5" font-family="Helvetica,sans-Serif" font-size="10.00">FairMQTransportFactory.h</text>
</g>
<!-- Node14&#45;&gt;Node24 -->
<g id="edge25" class="edge"><title>Node14&#45;&gt;Node24</title>
<path fill="none" stroke="midnightblue" d="M1187.32,-68.4623C1246.26,-59.9334 1338.47,-46.0956 1418,-32 1425.81,-30.6151 1434.07,-29.0592 1442.13,-27.4878"/>
<polygon fill="midnightblue" stroke="midnightblue" points="1443.06,-30.872 1452.19,-25.5006 1441.7,-24.0047 1443.06,-30.872"/>
</g>
<!-- Node25 -->
<g id="node25" class="node"><title>Node25</title>
<polygon fill="none" stroke="#bfbfbf" points="1576.5,-6.5 1576.5,-25.5 1713.5,-25.5 1713.5,-6.5 1576.5,-6.5"/>
<text text-anchor="middle" x="1645" y="-13.5" font-family="Helvetica,sans-Serif" font-size="10.00">fairmq/MemoryResources.h</text>
</g>
<!-- Node14&#45;&gt;Node25 -->
<g id="edge26" class="edge"><title>Node14&#45;&gt;Node25</title>
<path fill="none" stroke="midnightblue" d="M1219.78,-68.4801C1328.57,-58.3203 1502.23,-41.5204 1567,-32 1575.82,-30.7031 1585.16,-29.1044 1594.2,-27.439"/>
<polygon fill="midnightblue" stroke="midnightblue" points="1595.05,-30.8399 1604.23,-25.5429 1593.75,-23.9617 1595.05,-30.8399"/>
</g>
<!-- Node26 -->
<g id="node26" class="node"><title>Node26</title>
<polygon fill="none" stroke="#bfbfbf" points="1732,-6.5 1732,-25.5 1888,-25.5 1888,-6.5 1732,-6.5"/>
<text text-anchor="middle" x="1810" y="-13.5" font-family="Helvetica,sans-Serif" font-size="10.00">fairmq/MemoryResourceTools.h</text>
</g>
<!-- Node14&#45;&gt;Node26 -->
<g id="edge27" class="edge"><title>Node14&#45;&gt;Node26</title>
<path fill="none" stroke="midnightblue" d="M1223.56,-69.1321C1228.44,-68.7463 1233.28,-68.3671 1238,-68 1453.06,-51.2837 1507.89,-58.1518 1722,-32 1732.61,-30.7042 1743.89,-29.0181 1754.71,-27.2459"/>
<polygon fill="midnightblue" stroke="midnightblue" points="1755.62,-30.6415 1764.9,-25.5304 1754.46,-23.7386 1755.62,-30.6415"/>
</g>
</g>
</svg>
