<?xml version="1.0" encoding="UTF-8" standalone="no"?>
<!DOCTYPE svg PUBLIC "-//W3C//DTD SVG 1.1//EN"
 "http://www.w3.org/Graphics/SVG/1.1/DTD/svg11.dtd">
<!-- Generated by graphviz version 2.36.0 (20140111.2315)
 -->
<!-- Title: /home/travis/build/AliceO2Group/AliceO2/Framework/Core/src/DataDescriptorQueryBuilder.cxx Pages: 1 -->
<!--zoomable 446 -->
<svg id="main" version="1.1" xmlns="http://www.w3.org/2000/svg" xmlns:xlink="http://www.w3.org/1999/xlink" xml:space="preserve" onload="init(evt)">
<style type="text/css"><![CDATA[
.edge:hover path { stroke: red; }
.edge:hover polygon { stroke: red; fill: red; }
]]></style>
<script type="text/javascript"><![CDATA[
var edges = document.getElementsByTagName('g');
if (edges && edges.length) {
  for (var i=0;i<edges.length;i++) {
    if (edges[i].id.substr(0,4)=='edge') {
      edges[i].setAttribute('class','edge');
    }
  }
}
]]></script>
        <defs>
                <circle id="rim" cx="0" cy="0" r="7"/>
                <circle id="rim2" cx="0" cy="0" r="3.5"/>
                <g id="zoomPlus">
                        <use xlink:href="#rim" fill="#404040">
                                <set attributeName="fill" to="#808080" begin="zoomplus.mouseover" end="zoomplus.mouseout"/>
                        </use>
                        <path d="M-4,0h8M0,-4v8" fill="none" stroke="white" stroke-width="1.5" pointer-events="none"/>
                </g>
                <g id="zoomMin">
                        <use xlink:href="#rim" fill="#404040">
                                <set attributeName="fill" to="#808080" begin="zoomminus.mouseover" end="zoomminus.mouseout"/>
                        </use>
                        <path d="M-4,0h8" fill="none" stroke="white" stroke-width="1.5" pointer-events="none"/>
                </g>
                <g id="dirArrow">
                        <path fill="none" stroke="white" stroke-width="1.5" d="M0,-3.0v7 M-2.5,-0.5L0,-3.0L2.5,-0.5"/>
                </g>
               <g id="resetDef">
                       <use xlink:href="#rim2" fill="#404040">
                               <set attributeName="fill" to="#808080" begin="reset.mouseover" end="reset.mouseout"/>
                       </use>
               </g>
        </defs>

<script type="text/javascript">
var viewWidth = 2104;
var viewHeight = 446;
var sectionId = 'dynsection-0';
</script>
<script xlink:href="../../svgpan.js"/>
<svg id="graph" class="graph">
<g id="viewport">
<title>/home/travis/build/AliceO2Group/AliceO2/Framework/Core/src/DataDescriptorQueryBuilder.cxx</title>
<!-- Node1 -->
<g id="node1" class="node"><title>Node1</title>
<polygon fill="#bfbfbf" stroke="black" points="845,-385 845,-437 1023,-437 1023,-385 845,-385"/>
<text text-anchor="start" x="853" y="-425" font-family="Helvetica,sans-Serif" font-size="10.00">/home/travis/build</text>
<text text-anchor="start" x="853" y="-414" font-family="Helvetica,sans-Serif" font-size="10.00">/AliceO2Group/AliceO2</text>
<text text-anchor="start" x="853" y="-403" font-family="Helvetica,sans-Serif" font-size="10.00">/Framework/Core/src/DataDescriptor</text>
<text text-anchor="middle" x="934" y="-392" font-family="Helvetica,sans-Serif" font-size="10.00">QueryBuilder.cxx</text>
</g>
<!-- Node2 -->
<g id="node2" class="node"><title>Node2</title>
<g id="a_node2"><a xlink:href="../../db/de2/DataDescriptorQueryBuilder_8h.html" target="_top" xlink:title="Framework/DataDescriptor\lQueryBuilder.h">
<polygon fill="none" stroke="black" points="820,-317 820,-347 954,-347 954,-317 820,-317"/>
<text text-anchor="start" x="828" y="-335" font-family="Helvetica,sans-Serif" font-size="10.00">Framework/DataDescriptor</text>
<text text-anchor="middle" x="887" y="-324" font-family="Helvetica,sans-Serif" font-size="10.00">QueryBuilder.h</text>
</a>
</g>
</g>
<!-- Node1&#45;&gt;Node2 -->
<g id="edge1" class="edge"><title>Node1&#45;&gt;Node2</title>
<path fill="none" stroke="midnightblue" d="M918.61,-384.787C912.908,-375.445 906.479,-364.913 900.916,-355.798"/>
<polygon fill="midnightblue" stroke="midnightblue" points="903.897,-353.964 895.699,-347.252 897.922,-357.611 903.897,-353.964"/>
</g>
<!-- Node3 -->
<g id="node3" class="node"><title>Node3</title>
<g id="a_node3"><a xlink:href="../../d5/d3f/InputSpec_8h.html" target="_top" xlink:title="Framework/InputSpec.h">
<polygon fill="none" stroke="black" points="381.5,-260.5 381.5,-279.5 502.5,-279.5 502.5,-260.5 381.5,-260.5"/>
<text text-anchor="middle" x="442" y="-267.5" font-family="Helvetica,sans-Serif" font-size="10.00">Framework/InputSpec.h</text>
</a>
</g>
</g>
<!-- Node1&#45;&gt;Node3 -->
<g id="edge53" class="edge"><title>Node1&#45;&gt;Node3</title>
<path fill="none" stroke="midnightblue" d="M844.752,-389.494C796.631,-378.051 736.341,-363.091 683,-348 608.777,-327.001 522.975,-298.577 476.409,-282.797"/>
<polygon fill="midnightblue" stroke="midnightblue" points="477.407,-279.44 466.813,-279.536 475.155,-286.067 477.407,-279.44"/>
</g>
<!-- Node8 -->
<g id="node8" class="node"><title>Node8</title>
<polygon fill="none" stroke="#bfbfbf" points="8,-6.5 8,-25.5 60,-25.5 60,-6.5 8,-6.5"/>
<text text-anchor="middle" x="34" y="-13.5" font-family="Helvetica,sans-Serif" font-size="10.00">memory</text>
</g>
<!-- Node1&#45;&gt;Node8 -->
<g id="edge54" class="edge"><title>Node1&#45;&gt;Node8</title>
<path fill="none" stroke="midnightblue" d="M844.867,-406.018C611.409,-394.405 0,-355.889 0,-271 0,-271 0,-271 0,-139 0,-100.865 15.6058,-58.4051 25.6718,-34.9841"/>
<polygon fill="midnightblue" stroke="midnightblue" points="28.9591,-36.2056 29.8309,-25.6467 22.5648,-33.3574 28.9591,-36.2056"/>
</g>
<!-- Node13 -->
<g id="node13" class="node"><title>Node13</title>
<polygon fill="none" stroke="#bfbfbf" points="581.5,-6.5 581.5,-25.5 622.5,-25.5 622.5,-6.5 581.5,-6.5"/>
<text text-anchor="middle" x="602" y="-13.5" font-family="Helvetica,sans-Serif" font-size="10.00">string</text>
</g>
<!-- Node1&#45;&gt;Node13 -->
<g id="edge57" class="edge"><title>Node1&#45;&gt;Node13</title>
<path fill="none" stroke="midnightblue" d="M948.77,-384.955C954.41,-374.001 960.163,-360.76 963,-348 966.086,-334.117 964.564,-330.136 963,-316 950.435,-202.402 986.452,-136.549 895,-68 800.245,3.02509 743.903,-67.7227 631,-32 629.136,-31.4101 627.247,-30.7067 625.374,-29.9312"/>
<polygon fill="midnightblue" stroke="midnightblue" points="626.87,-26.7667 616.334,-25.6438 623.87,-33.0914 626.87,-26.7667"/>
</g>
<!-- Node15 -->
<g id="node15" class="node"><title>Node15</title>
<g id="a_node15"><a xlink:href="../../d3/da3/DataDescriptorMatcher_8h.html" target="_top" xlink:title="Framework/DataDescriptor\lMatcher.h">
<polygon fill="none" stroke="black" points="559,-193 559,-223 693,-223 693,-193 559,-193"/>
<text text-anchor="start" x="567" y="-211" font-family="Helvetica,sans-Serif" font-size="10.00">Framework/DataDescriptor</text>
<text text-anchor="middle" x="626" y="-200" font-family="Helvetica,sans-Serif" font-size="10.00">Matcher.h</text>
</a>
</g>
</g>
<!-- Node1&#45;&gt;Node15 -->
<g id="edge52" class="edge"><title>Node1&#45;&gt;Node15</title>
<path fill="none" stroke="midnightblue" d="M878.981,-384.858C857.325,-374.299 832.535,-361.371 811,-348 750.589,-310.492 685.277,-258.403 650.721,-229.826"/>
<polygon fill="midnightblue" stroke="midnightblue" points="652.546,-226.792 642.619,-223.09 648.071,-232.175 652.546,-226.792"/>
</g>
<!-- Node26 -->
<g id="node26" class="node"><title>Node26</title>
<polygon fill="none" stroke="#bfbfbf" points="2052,-6.5 2052,-25.5 2096,-25.5 2096,-6.5 2052,-6.5"/>
<text text-anchor="middle" x="2074" y="-13.5" font-family="Helvetica,sans-Serif" font-size="10.00">vector</text>
</g>
<!-- Node1&#45;&gt;Node26 -->
<g id="edge58" class="edge"><title>Node1&#45;&gt;Node26</title>
<path fill="none" stroke="midnightblue" d="M1023.16,-391.44C1122.7,-368.091 1270,-324.501 1270,-271 1270,-271 1270,-271 1270,-139 1270,34.1955 1875.94,-81.1986 2042,-32 2044.28,-31.3235 2046.61,-30.5074 2048.91,-29.6095"/>
<polygon fill="midnightblue" stroke="midnightblue" points="2050.32,-32.8126 2058.09,-25.6064 2047.53,-26.3964 2050.32,-32.8126"/>
</g>
<!-- Node36 -->
<g id="node36" class="node"><title>Node36</title>
<polygon fill="none" stroke="#bfbfbf" points="1298,-322.5 1298,-341.5 1348,-341.5 1348,-322.5 1298,-322.5"/>
<text text-anchor="middle" x="1323" y="-329.5" font-family="Helvetica,sans-Serif" font-size="10.00">optional</text>
</g>
<!-- Node1&#45;&gt;Node36 -->
<g id="edge55" class="edge"><title>Node1&#45;&gt;Node36</title>
<path fill="none" stroke="midnightblue" d="M1023.15,-399.02C1094.52,-389.083 1196.75,-372.264 1284,-348 1287.15,-347.125 1290.39,-346.095 1293.6,-344.99"/>
<polygon fill="midnightblue" stroke="midnightblue" points="1294.83,-348.269 1303.01,-341.535 1292.41,-341.698 1294.83,-348.269"/>
</g>
<!-- Node37 -->
<g id="node37" class="node"><title>Node37</title>
<polygon fill="none" stroke="#bfbfbf" points="1366.5,-322.5 1366.5,-341.5 1407.5,-341.5 1407.5,-322.5 1366.5,-322.5"/>
<text text-anchor="middle" x="1387" y="-329.5" font-family="Helvetica,sans-Serif" font-size="10.00">regex</text>
</g>
<!-- Node1&#45;&gt;Node37 -->
<g id="edge56" class="edge"><title>Node1&#45;&gt;Node37</title>
<path fill="none" stroke="midnightblue" d="M1023.32,-405.161C1110.22,-398.544 1245.13,-383.17 1357,-348 1358.92,-347.398 1360.86,-346.685 1362.79,-345.903"/>
<polygon fill="midnightblue" stroke="midnightblue" points="1364.51,-348.964 1372.13,-341.603 1361.58,-342.606 1364.51,-348.964"/>
</g>
<!-- Node2&#45;&gt;Node3 -->
<g id="edge2" class="edge"><title>Node2&#45;&gt;Node3</title>
<path fill="none" stroke="midnightblue" d="M819.897,-321.952C737.186,-310.8 597.252,-291.933 512.853,-280.553"/>
<polygon fill="midnightblue" stroke="midnightblue" points="513.222,-277.071 502.844,-279.204 512.286,-284.009 513.222,-277.071"/>
</g>
<!-- Node2&#45;&gt;Node8 -->
<g id="edge51" class="edge"><title>Node2&#45;&gt;Node8</title>
<path fill="none" stroke="midnightblue" d="M844.731,-316.995C747.716,-285.043 511.123,-208.268 429,-192 347.53,-175.861 117.676,-212.712 57,-156 23.8831,-125.047 26.6609,-66.064 30.7188,-35.8557"/>
<polygon fill="midnightblue" stroke="midnightblue" points="34.2036,-36.2213 32.2645,-25.8054 27.285,-35.1572 34.2036,-36.2213"/>
</g>
<!-- Node2&#45;&gt;Node13 -->
<g id="edge49" class="edge"><title>Node2&#45;&gt;Node13</title>
<path fill="none" stroke="midnightblue" d="M890.663,-316.837C896.185,-294.212 906,-248.442 906,-209 906,-209 906,-209 906,-139 906,-7.85198 750.524,-85.9802 631,-32 629.644,-31.3876 628.261,-30.743 626.871,-30.0794"/>
<polygon fill="midnightblue" stroke="midnightblue" points="628.317,-26.8893 617.805,-25.5608 625.194,-33.1542 628.317,-26.8893"/>
</g>
<!-- Node2&#45;&gt;Node26 -->
<g id="edge50" class="edge"><title>Node2&#45;&gt;Node26</title>
<path fill="none" stroke="midnightblue" d="M904.04,-316.839C965.319,-266.242 1175.13,-95.9247 1256,-68 1421.27,-10.9284 1872.25,-73.9108 2042,-32 2044.5,-31.3823 2047.04,-30.5636 2049.55,-29.6263"/>
<polygon fill="midnightblue" stroke="midnightblue" points="2051.05,-32.7909 2058.83,-25.5994 2048.26,-26.3694 2051.05,-32.7909"/>
</g>
<!-- Node4 -->
<g id="node4" class="node"><title>Node4</title>
<g id="a_node4"><a xlink:href="../../dc/dca/Lifetime_8h.html" target="_top" xlink:title="Framework/Lifetime.h">
<polygon fill="none" stroke="black" points="238.5,-198.5 238.5,-217.5 349.5,-217.5 349.5,-198.5 238.5,-198.5"/>
<text text-anchor="middle" x="294" y="-205.5" font-family="Helvetica,sans-Serif" font-size="10.00">Framework/Lifetime.h</text>
</a>
</g>
</g>
<!-- Node3&#45;&gt;Node4 -->
<g id="edge3" class="edge"><title>Node3&#45;&gt;Node4</title>
<path fill="none" stroke="midnightblue" d="M420.795,-260.403C395.628,-250.2 353.46,-233.105 324.721,-221.454"/>
<polygon fill="midnightblue" stroke="midnightblue" points="325.748,-218.094 315.165,-217.581 323.118,-224.581 325.748,-218.094"/>
</g>
<!-- Node5 -->
<g id="node5" class="node"><title>Node5</title>
<g id="a_node5"><a xlink:href="../../d0/d1b/ConcreteDataMatcher_8h.html" target="_top" xlink:title="Framework/ConcreteDataMatcher.h">
<polygon fill="none" stroke="black" points="324.5,-130.5 324.5,-149.5 497.5,-149.5 497.5,-130.5 324.5,-130.5"/>
<text text-anchor="middle" x="411" y="-137.5" font-family="Helvetica,sans-Serif" font-size="10.00">Framework/ConcreteDataMatcher.h</text>
</a>
</g>
</g>
<!-- Node3&#45;&gt;Node5 -->
<g id="edge4" class="edge"><title>Node3&#45;&gt;Node5</title>
<path fill="none" stroke="midnightblue" d="M441.033,-260.353C439.318,-245.998 435.319,-216.412 429,-192 426.097,-180.785 421.812,-168.535 418.15,-158.852"/>
<polygon fill="midnightblue" stroke="midnightblue" points="421.408,-157.571 414.517,-149.523 414.885,-160.111 421.408,-157.571"/>
</g>
<!-- Node3&#45;&gt;Node13 -->
<g id="edge46" class="edge"><title>Node3&#45;&gt;Node13</title>
<path fill="none" stroke="midnightblue" d="M447.508,-260.326C470.587,-223.976 559.761,-83.5257 591.064,-34.2249"/>
<polygon fill="midnightblue" stroke="midnightblue" points="594.11,-35.9561 596.516,-25.6379 588.201,-32.204 594.11,-35.9561"/>
</g>
<!-- Node3&#45;&gt;Node15 -->
<g id="edge14" class="edge"><title>Node3&#45;&gt;Node15</title>
<path fill="none" stroke="midnightblue" d="M468.363,-260.403C495.586,-251.526 538.808,-237.432 573.114,-226.245"/>
<polygon fill="midnightblue" stroke="midnightblue" points="574.567,-229.453 582.989,-223.025 572.397,-222.798 574.567,-229.453"/>
</g>
<!-- Node34 -->
<g id="node34" class="node"><title>Node34</title>
<polygon fill="none" stroke="#bfbfbf" points="66,-130.5 66,-149.5 112,-149.5 112,-130.5 66,-130.5"/>
<text text-anchor="middle" x="89" y="-137.5" font-family="Helvetica,sans-Serif" font-size="10.00">variant</text>
</g>
<!-- Node3&#45;&gt;Node34 -->
<g id="edge48" class="edge"><title>Node3&#45;&gt;Node34</title>
<path fill="none" stroke="midnightblue" d="M381.265,-261.563C337.803,-254.957 278.477,-243.286 229,-224 183.313,-206.191 135.233,-174.386 108.999,-155.744"/>
<polygon fill="midnightblue" stroke="midnightblue" points="110.83,-152.75 100.67,-149.744 106.738,-158.429 110.83,-152.75"/>
</g>
<!-- Node35 -->
<g id="node35" class="node"><title>Node35</title>
<polygon fill="none" stroke="#bfbfbf" points="368,-198.5 368,-217.5 420,-217.5 420,-198.5 368,-198.5"/>
<text text-anchor="middle" x="394" y="-205.5" font-family="Helvetica,sans-Serif" font-size="10.00">ostream</text>
</g>
<!-- Node3&#45;&gt;Node35 -->
<g id="edge47" class="edge"><title>Node3&#45;&gt;Node35</title>
<path fill="none" stroke="midnightblue" d="M435.123,-260.403C427.851,-251.314 416.205,-236.756 407.159,-225.449"/>
<polygon fill="midnightblue" stroke="midnightblue" points="409.845,-223.203 400.864,-217.581 404.378,-227.576 409.845,-223.203"/>
</g>
<!-- Node6 -->
<g id="node6" class="node"><title>Node6</title>
<g id="a_node6"><a xlink:href="../../dc/dcd/DataHeader_8h.html" target="_top" xlink:title="Headers/DataHeader.h">
<polygon fill="none" stroke="black" points="343.5,-68.5 343.5,-87.5 460.5,-87.5 460.5,-68.5 343.5,-68.5"/>
<text text-anchor="middle" x="402" y="-75.5" font-family="Helvetica,sans-Serif" font-size="10.00">Headers/DataHeader.h</text>
</a>
</g>
</g>
<!-- Node5&#45;&gt;Node6 -->
<g id="edge5" class="edge"><title>Node5&#45;&gt;Node6</title>
<path fill="none" stroke="midnightblue" d="M409.711,-130.403C408.427,-121.849 406.417,-108.45 404.771,-97.4762"/>
<polygon fill="midnightblue" stroke="midnightblue" points="408.232,-96.9507 403.287,-87.5806 401.309,-97.9892 408.232,-96.9507"/>
</g>
<!-- Node7 -->
<g id="node7" class="node"><title>Node7</title>
<polygon fill="none" stroke="#bfbfbf" points="78,-6.5 78,-25.5 124,-25.5 124,-6.5 78,-6.5"/>
<text text-anchor="middle" x="101" y="-13.5" font-family="Helvetica,sans-Serif" font-size="10.00">cstdint</text>
</g>
<!-- Node6&#45;&gt;Node7 -->
<g id="edge6" class="edge"><title>Node6&#45;&gt;Node7</title>
<path fill="none" stroke="midnightblue" d="M343.477,-71.8522C288.256,-65.9149 203.636,-54.0085 133,-32 130.726,-31.2916 128.407,-30.4532 126.107,-29.5405"/>
<polygon fill="midnightblue" stroke="midnightblue" points="127.5,-26.3297 116.937,-25.5132 124.685,-32.7389 127.5,-26.3297"/>
</g>
<!-- Node6&#45;&gt;Node8 -->
<g id="edge7" class="edge"><title>Node6&#45;&gt;Node8</title>
<path fill="none" stroke="midnightblue" d="M343.403,-71.0101C262.08,-62.3667 119.326,-45.9069 69,-32 66.3436,-31.266 63.6243,-30.3732 60.9329,-29.3929"/>
<polygon fill="midnightblue" stroke="midnightblue" points="62.0542,-26.0714 51.4704,-25.5861 59.4415,-32.5656 62.0542,-26.0714"/>
</g>
<!-- Node9 -->
<g id="node9" class="node"><title>Node9</title>
<polygon fill="none" stroke="#bfbfbf" points="142.5,-6.5 142.5,-25.5 191.5,-25.5 191.5,-6.5 142.5,-6.5"/>
<text text-anchor="middle" x="167" y="-13.5" font-family="Helvetica,sans-Serif" font-size="10.00">cassert</text>
</g>
<!-- Node6&#45;&gt;Node9 -->
<g id="edge8" class="edge"><title>Node6&#45;&gt;Node9</title>
<path fill="none" stroke="midnightblue" d="M349.718,-68.4349C308.452,-60.9416 249.745,-48.6459 200,-32 197.866,-31.2861 195.685,-30.479 193.511,-29.6187"/>
<polygon fill="midnightblue" stroke="midnightblue" points="194.768,-26.3494 184.197,-25.6307 192.012,-32.7844 194.768,-26.3494"/>
</g>
<!-- Node10 -->
<g id="node10" class="node"><title>Node10</title>
<polygon fill="none" stroke="#bfbfbf" points="517,-6.5 517,-25.5 563,-25.5 563,-6.5 517,-6.5"/>
<text text-anchor="middle" x="540" y="-13.5" font-family="Helvetica,sans-Serif" font-size="10.00">cstring</text>
</g>
<!-- Node6&#45;&gt;Node10 -->
<g id="edge9" class="edge"><title>Node6&#45;&gt;Node10</title>
<path fill="none" stroke="midnightblue" d="M422.579,-68.3363C443.79,-59.37 477.789,-44.8963 507,-32 508.583,-31.301 510.207,-30.5791 511.845,-29.8473"/>
<polygon fill="midnightblue" stroke="midnightblue" points="513.506,-32.9377 521.185,-25.6377 510.63,-26.5559 513.506,-32.9377"/>
</g>
<!-- Node11 -->
<g id="node11" class="node"><title>Node11</title>
<polygon fill="none" stroke="#bfbfbf" points="365,-6.5 365,-25.5 421,-25.5 421,-6.5 365,-6.5"/>
<text text-anchor="middle" x="393" y="-13.5" font-family="Helvetica,sans-Serif" font-size="10.00">algorithm</text>
</g>
<!-- Node6&#45;&gt;Node11 -->
<g id="edge10" class="edge"><title>Node6&#45;&gt;Node11</title>
<path fill="none" stroke="midnightblue" d="M400.711,-68.4035C399.427,-59.849 397.417,-46.4497 395.771,-35.4762"/>
<polygon fill="midnightblue" stroke="midnightblue" points="399.232,-34.9507 394.287,-25.5806 392.309,-35.9892 399.232,-34.9507"/>
</g>
<!-- Node12 -->
<g id="node12" class="node"><title>Node12</title>
<polygon fill="none" stroke="#bfbfbf" points="439.5,-6.5 439.5,-25.5 498.5,-25.5 498.5,-6.5 439.5,-6.5"/>
<text text-anchor="middle" x="469" y="-13.5" font-family="Helvetica,sans-Serif" font-size="10.00">stdexcept</text>
</g>
<!-- Node6&#45;&gt;Node12 -->
<g id="edge11" class="edge"><title>Node6&#45;&gt;Node12</title>
<path fill="none" stroke="midnightblue" d="M411.599,-68.4035C422.048,-59.047 438.968,-43.8948 451.736,-32.4599"/>
<polygon fill="midnightblue" stroke="midnightblue" points="454.304,-34.8592 459.418,-25.5806 449.634,-29.6445 454.304,-34.8592"/>
</g>
<!-- Node6&#45;&gt;Node13 -->
<g id="edge12" class="edge"><title>Node6&#45;&gt;Node13</title>
<path fill="none" stroke="midnightblue" d="M443.616,-68.4907C478.498,-60.7678 529.302,-48.1305 572,-32 573.648,-31.3775 575.325,-30.6926 577.002,-29.9689"/>
<polygon fill="midnightblue" stroke="midnightblue" points="578.826,-32.9791 586.391,-25.5614 575.851,-26.6425 578.826,-32.9791"/>
</g>
<!-- Node14 -->
<g id="node14" class="node"><title>Node14</title>
<g id="a_node14"><a xlink:href="../../d7/df8/Types_8h.html" target="_top" xlink:title="MemoryResources/Types.h">
<polygon fill="none" stroke="black" points="209.5,-6.5 209.5,-25.5 346.5,-25.5 346.5,-6.5 209.5,-6.5"/>
<text text-anchor="middle" x="278" y="-13.5" font-family="Helvetica,sans-Serif" font-size="10.00">MemoryResources/Types.h</text>
</a>
</g>
</g>
<!-- Node6&#45;&gt;Node14 -->
<g id="edge13" class="edge"><title>Node6&#45;&gt;Node14</title>
<path fill="none" stroke="midnightblue" d="M384.234,-68.4035C363.516,-58.3787 329.048,-41.7006 305.011,-30.0699"/>
<polygon fill="midnightblue" stroke="midnightblue" points="306.259,-26.7857 295.733,-25.5806 303.21,-33.0868 306.259,-26.7857"/>
</g>
<!-- Node15&#45;&gt;Node5 -->
<g id="edge15" class="edge"><title>Node15&#45;&gt;Node5</title>
<path fill="none" stroke="midnightblue" d="M580.141,-192.922C540.911,-180.88 485.141,-163.76 448.524,-152.519"/>
<polygon fill="midnightblue" stroke="midnightblue" points="449.321,-149.103 438.734,-149.514 447.267,-155.794 449.321,-149.103"/>
</g>
<!-- Node15&#45;&gt;Node6 -->
<g id="edge22" class="edge"><title>Node15&#45;&gt;Node6</title>
<path fill="none" stroke="midnightblue" d="M608.023,-192.886C585.169,-175.344 544.094,-145.146 506,-124 482.984,-111.224 455.615,-99.5095 434.732,-91.2374"/>
<polygon fill="midnightblue" stroke="midnightblue" points="435.929,-87.9477 425.341,-87.5756 433.386,-94.4694 435.929,-87.9477"/>
</g>
<!-- Node15&#45;&gt;Node7 -->
<g id="edge41" class="edge"><title>Node15&#45;&gt;Node7</title>
<path fill="none" stroke="midnightblue" d="M558.892,-194.091C554.198,-193.337 549.533,-192.63 545,-192 459.67,-180.144 228.396,-207.05 159,-156 119.778,-127.147 106.928,-66.7249 102.836,-35.9254"/>
<polygon fill="midnightblue" stroke="midnightblue" points="106.28,-35.2339 101.661,-25.6992 99.326,-36.0336 106.28,-35.2339"/>
</g>
<!-- Node15&#45;&gt;Node13 -->
<g id="edge43" class="edge"><title>Node15&#45;&gt;Node13</title>
<path fill="none" stroke="midnightblue" d="M624.196,-192.719C619.928,-158.932 609.209,-74.0746 604.4,-36.0035"/>
<polygon fill="midnightblue" stroke="midnightblue" points="607.837,-35.2813 603.111,-25.7988 600.892,-36.1586 607.837,-35.2813"/>
</g>
<!-- Node16 -->
<g id="node16" class="node"><title>Node16</title>
<g id="a_node16"><a xlink:href="../../d6/dc9/DataProcessingHeader_8h.html" target="_top" xlink:title="Framework/DataProcessing\lHeader.h">
<polygon fill="none" stroke="black" points="168,-125 168,-155 306,-155 306,-125 168,-125"/>
<text text-anchor="start" x="176" y="-143" font-family="Helvetica,sans-Serif" font-size="10.00">Framework/DataProcessing</text>
<text text-anchor="middle" x="237" y="-132" font-family="Helvetica,sans-Serif" font-size="10.00">Header.h</text>
</a>
</g>
</g>
<!-- Node15&#45;&gt;Node16 -->
<g id="edge16" class="edge"><title>Node15&#45;&gt;Node16</title>
<path fill="none" stroke="midnightblue" d="M558.842,-194.414C554.16,-193.583 549.511,-192.771 545,-192 446.198,-175.123 418.633,-173.839 316.428,-156.214"/>
<polygon fill="midnightblue" stroke="midnightblue" points="316.751,-152.718 306.3,-154.456 315.554,-159.615 316.751,-152.718"/>
</g>
<!-- Node18 -->
<g id="node18" class="node"><title>Node18</title>
<g id="a_node18"><a xlink:href="../../d4/d00/Headers_2include_2Headers_2Stack_8h.html" target="_top" xlink:title="Headers/Stack.h">
<polygon fill="none" stroke="black" points="750,-130.5 750,-149.5 840,-149.5 840,-130.5 750,-130.5"/>
<text text-anchor="middle" x="795" y="-137.5" font-family="Helvetica,sans-Serif" font-size="10.00">Headers/Stack.h</text>
</a>
</g>
</g>
<!-- Node15&#45;&gt;Node18 -->
<g id="edge23" class="edge"><title>Node15&#45;&gt;Node18</title>
<path fill="none" stroke="midnightblue" d="M662.255,-192.841C692.273,-181.118 734.508,-164.624 763.22,-153.411"/>
<polygon fill="midnightblue" stroke="midnightblue" points="764.727,-156.58 772.769,-149.682 762.181,-150.059 764.727,-156.58"/>
</g>
<!-- Node15&#45;&gt;Node26 -->
<g id="edge45" class="edge"><title>Node15&#45;&gt;Node26</title>
<path fill="none" stroke="midnightblue" d="M693.015,-197.17C797.529,-180.794 1004.9,-144.083 1174,-88 1194.39,-81.2381 1197.11,-73.0047 1218,-68 1574.48,17.4051 1686.02,-119.491 2042,-32 2044.5,-31.3849 2047.05,-30.568 2049.55,-29.6319"/>
<polygon fill="midnightblue" stroke="midnightblue" points="2051.05,-32.7967 2058.83,-25.6064 2048.26,-26.3748 2051.05,-32.7967"/>
</g>
<!-- Node32 -->
<g id="node32" class="node"><title>Node32</title>
<polygon fill="none" stroke="#bfbfbf" points="630,-130.5 630,-149.5 668,-149.5 668,-130.5 630,-130.5"/>
<text text-anchor="middle" x="649" y="-137.5" font-family="Helvetica,sans-Serif" font-size="10.00">array</text>
</g>
<!-- Node15&#45;&gt;Node32 -->
<g id="edge40" class="edge"><title>Node15&#45;&gt;Node32</title>
<path fill="none" stroke="midnightblue" d="M630.991,-192.679C634.399,-182.898 638.946,-169.852 642.618,-159.315"/>
<polygon fill="midnightblue" stroke="midnightblue" points="645.938,-160.423 645.923,-149.828 639.328,-158.12 645.938,-160.423"/>
</g>
<!-- Node33 -->
<g id="node33" class="node"><title>Node33</title>
<polygon fill="none" stroke="#bfbfbf" points="686.5,-130.5 686.5,-149.5 731.5,-149.5 731.5,-130.5 686.5,-130.5"/>
<text text-anchor="middle" x="709" y="-137.5" font-family="Helvetica,sans-Serif" font-size="10.00">iosfwd</text>
</g>
<!-- Node15&#45;&gt;Node33 -->
<g id="edge42" class="edge"><title>Node15&#45;&gt;Node33</title>
<path fill="none" stroke="midnightblue" d="M644.01,-192.679C657.592,-181.879 676.179,-167.098 689.998,-156.11"/>
<polygon fill="midnightblue" stroke="midnightblue" points="692.249,-158.792 697.898,-149.828 687.892,-153.313 692.249,-158.792"/>
</g>
<!-- Node15&#45;&gt;Node34 -->
<g id="edge44" class="edge"><title>Node15&#45;&gt;Node34</title>
<path fill="none" stroke="midnightblue" d="M558.897,-194.053C554.202,-193.308 549.535,-192.613 545,-192 359.777,-166.953 307.752,-199.599 126,-156 122.931,-155.264 119.783,-154.315 116.682,-153.253"/>
<polygon fill="midnightblue" stroke="midnightblue" points="117.677,-149.886 107.086,-149.592 115.182,-156.426 117.677,-149.886"/>
</g>
<!-- Node16&#45;&gt;Node6 -->
<g id="edge17" class="edge"><title>Node16&#45;&gt;Node6</title>
<path fill="none" stroke="midnightblue" d="M275.685,-124.933C303.895,-114.674 341.734,-100.915 368.623,-91.1369"/>
<polygon fill="midnightblue" stroke="midnightblue" points="370.148,-94.3068 378.35,-87.6 367.756,-87.7282 370.148,-94.3068"/>
</g>
<!-- Node16&#45;&gt;Node7 -->
<g id="edge18" class="edge"><title>Node16&#45;&gt;Node7</title>
<path fill="none" stroke="midnightblue" d="M221.133,-124.766C195.463,-101.739 145.022,-56.4905 118.402,-32.6104"/>
<polygon fill="midnightblue" stroke="midnightblue" points="120.438,-29.7354 110.657,-25.6632 115.764,-34.9461 120.438,-29.7354"/>
</g>
<!-- Node16&#45;&gt;Node8 -->
<g id="edge20" class="edge"><title>Node16&#45;&gt;Node8</title>
<path fill="none" stroke="midnightblue" d="M213.316,-124.766C174.074,-101.183 96.0498,-54.291 57.1578,-30.9175"/>
<polygon fill="midnightblue" stroke="midnightblue" points="58.5347,-27.6616 48.1605,-25.5103 54.9288,-33.6614 58.5347,-27.6616"/>
</g>
<!-- Node16&#45;&gt;Node9 -->
<g id="edge21" class="edge"><title>Node16&#45;&gt;Node9</title>
<path fill="none" stroke="midnightblue" d="M228.695,-124.526C215.772,-102.003 190.895,-58.6458 177.004,-34.435"/>
<polygon fill="midnightblue" stroke="midnightblue" points="179.96,-32.5547 171.948,-25.6228 173.888,-36.0384 179.96,-32.5547"/>
</g>
<!-- Node17 -->
<g id="node17" class="node"><title>Node17</title>
<polygon fill="none" stroke="#bfbfbf" points="244.5,-68.5 244.5,-87.5 287.5,-87.5 287.5,-68.5 244.5,-68.5"/>
<text text-anchor="middle" x="266" y="-75.5" font-family="Helvetica,sans-Serif" font-size="10.00">cstdio</text>
</g>
<!-- Node16&#45;&gt;Node17 -->
<g id="edge19" class="edge"><title>Node16&#45;&gt;Node17</title>
<path fill="none" stroke="midnightblue" d="M243.873,-124.781C247.913,-116.422 253.058,-105.777 257.369,-96.8565"/>
<polygon fill="midnightblue" stroke="midnightblue" points="260.58,-98.2571 261.78,-87.7305 254.277,-95.2109 260.58,-98.2571"/>
</g>
<!-- Node18&#45;&gt;Node6 -->
<g id="edge39" class="edge"><title>Node18&#45;&gt;Node6</title>
<path fill="none" stroke="midnightblue" d="M766.627,-130.483C758.121,-128.141 748.731,-125.764 740,-124 647.689,-105.355 539.583,-92.5051 470.96,-85.4483"/>
<polygon fill="midnightblue" stroke="midnightblue" points="471.013,-81.9358 460.711,-84.4073 470.306,-88.9 471.013,-81.9358"/>
</g>
<!-- Node19 -->
<g id="node19" class="node"><title>Node19</title>
<g id="a_node19"><a xlink:href="../../dc/d03/MemoryResources_8h.html" target="_top" xlink:title="MemoryResources/MemoryResources.h">
<polygon fill="none" stroke="black" points="972.5,-68.5 972.5,-87.5 1165.5,-87.5 1165.5,-68.5 972.5,-68.5"/>
<text text-anchor="middle" x="1069" y="-75.5" font-family="Helvetica,sans-Serif" font-size="10.00">MemoryResources/MemoryResources.h</text>
</a>
</g>
</g>
<!-- Node18&#45;&gt;Node19 -->
<g id="edge24" class="edge"><title>Node18&#45;&gt;Node19</title>
<path fill="none" stroke="midnightblue" d="M827.399,-130.498C836.026,-128.307 845.351,-126.004 854,-124 908.974,-111.265 972.229,-98.2171 1015.82,-89.4731"/>
<polygon fill="midnightblue" stroke="midnightblue" points="1016.52,-92.9032 1025.64,-87.5103 1015.15,-86.039 1016.52,-92.9032"/>
</g>
<!-- Node19&#45;&gt;Node10 -->
<g id="edge29" class="edge"><title>Node19&#45;&gt;Node10</title>
<path fill="none" stroke="midnightblue" d="M972.406,-72.2405C849.675,-65.5023 645.018,-51.7624 572,-32 569.651,-31.3643 567.262,-30.5657 564.902,-29.6697"/>
<polygon fill="midnightblue" stroke="midnightblue" points="566.104,-26.376 555.537,-25.6079 563.318,-32.798 566.104,-26.376"/>
</g>
<!-- Node19&#45;&gt;Node13 -->
<g id="edge30" class="edge"><title>Node19&#45;&gt;Node13</title>
<path fill="none" stroke="midnightblue" d="M972.267,-68.9883C853.21,-58.8276 662.819,-41.4905 631,-32 629.085,-31.4289 627.148,-30.7307 625.231,-29.9512"/>
<polygon fill="midnightblue" stroke="midnightblue" points="626.544,-26.7005 616.007,-25.5884 623.551,-33.0283 626.544,-26.7005"/>
</g>
<!-- Node20 -->
<g id="node20" class="node"><title>Node20</title>
<polygon fill="none" stroke="#bfbfbf" points="970,-1 970,-31 1070,-31 1070,-1 970,-1"/>
<text text-anchor="start" x="978" y="-19" font-family="Helvetica,sans-Serif" font-size="10.00">boost/container/flat</text>
<text text-anchor="middle" x="1020" y="-8" font-family="Helvetica,sans-Serif" font-size="10.00">_map.hpp</text>
</g>
<!-- Node19&#45;&gt;Node20 -->
<g id="edge25" class="edge"><title>Node19&#45;&gt;Node20</title>
<path fill="none" stroke="midnightblue" d="M1061.98,-68.4035C1055.72,-60.733 1046.27,-49.1673 1037.92,-38.9478"/>
<polygon fill="midnightblue" stroke="midnightblue" points="1040.58,-36.6723 1031.55,-31.1408 1035.16,-41.1 1040.58,-36.6723"/>
</g>
<!-- Node21 -->
<g id="node21" class="node"><title>Node21</title>
<polygon fill="none" stroke="#bfbfbf" points="1088,-1 1088,-31 1204,-31 1204,-1 1088,-1"/>
<text text-anchor="start" x="1096" y="-19" font-family="Helvetica,sans-Serif" font-size="10.00">boost/container/pmr</text>
<text text-anchor="middle" x="1146" y="-8" font-family="Helvetica,sans-Serif" font-size="10.00">/memory_resource.hpp</text>
</g>
<!-- Node19&#45;&gt;Node21 -->
<g id="edge26" class="edge"><title>Node19&#45;&gt;Node21</title>
<path fill="none" stroke="midnightblue" d="M1080.03,-68.4035C1090.36,-60.3532 1106.2,-48.0126 1119.77,-37.4406"/>
<polygon fill="midnightblue" stroke="midnightblue" points="1122.12,-40.0482 1127.85,-31.1408 1117.81,-34.5265 1122.12,-40.0482"/>
</g>
<!-- Node22 -->
<g id="node22" class="node"><title>Node22</title>
<polygon fill="none" stroke="#bfbfbf" points="1222,-1 1222,-31 1378,-31 1378,-1 1222,-1"/>
<text text-anchor="start" x="1230" y="-19" font-family="Helvetica,sans-Serif" font-size="10.00">boost/container/pmr</text>
<text text-anchor="middle" x="1300" y="-8" font-family="Helvetica,sans-Serif" font-size="10.00">/monotonic_buffer_resource.hpp</text>
</g>
<!-- Node19&#45;&gt;Node22 -->
<g id="edge27" class="edge"><title>Node19&#45;&gt;Node22</title>
<path fill="none" stroke="midnightblue" d="M1102.1,-68.4035C1136.93,-59.3549 1192.64,-44.8857 1236.09,-33.6005"/>
<polygon fill="midnightblue" stroke="midnightblue" points="1237.2,-36.927 1246,-31.0253 1235.44,-30.1518 1237.2,-36.927"/>
</g>
<!-- Node23 -->
<g id="node23" class="node"><title>Node23</title>
<polygon fill="none" stroke="#bfbfbf" points="1396.5,-1 1396.5,-31 1529.5,-31 1529.5,-1 1396.5,-1"/>
<text text-anchor="start" x="1404.5" y="-19" font-family="Helvetica,sans-Serif" font-size="10.00">boost/container/pmr</text>
<text text-anchor="middle" x="1463" y="-8" font-family="Helvetica,sans-Serif" font-size="10.00">/polymorphic_allocator.hpp</text>
</g>
<!-- Node19&#45;&gt;Node23 -->
<g id="edge28" class="edge"><title>Node19&#45;&gt;Node23</title>
<path fill="none" stroke="midnightblue" d="M1136.78,-68.4922C1199.01,-60.4347 1294,-47.515 1386.24,-32.0732"/>
<polygon fill="midnightblue" stroke="midnightblue" points="1387.03,-35.4892 1396.31,-30.3753 1385.87,-28.5866 1387.03,-35.4892"/>
</g>
<!-- Node24 -->
<g id="node24" class="node"><title>Node24</title>
<polygon fill="none" stroke="#bfbfbf" points="1548,-6.5 1548,-25.5 1610,-25.5 1610,-6.5 1548,-6.5"/>
<text text-anchor="middle" x="1579" y="-13.5" font-family="Helvetica,sans-Serif" font-size="10.00">type_traits</text>
</g>
<!-- Node19&#45;&gt;Node24 -->
<g id="edge31" class="edge"><title>Node19&#45;&gt;Node24</title>
<path fill="none" stroke="midnightblue" d="M1165.61,-69.0551C1292.31,-58.4305 1502.73,-40.006 1538,-32 1541.69,-31.1622 1545.5,-30.0805 1549.25,-28.8819"/>
<polygon fill="midnightblue" stroke="midnightblue" points="1550.58,-32.1227 1558.87,-25.5235 1548.28,-25.5135 1550.58,-32.1227"/>
</g>
<!-- Node25 -->
<g id="node25" class="node"><title>Node25</title>
<polygon fill="none" stroke="#bfbfbf" points="1628,-6.5 1628,-25.5 1668,-25.5 1668,-6.5 1628,-6.5"/>
<text text-anchor="middle" x="1648" y="-13.5" font-family="Helvetica,sans-Serif" font-size="10.00">utility</text>
</g>
<!-- Node19&#45;&gt;Node25 -->
<g id="edge32" class="edge"><title>Node19&#45;&gt;Node25</title>
<path fill="none" stroke="midnightblue" d="M1165.6,-69.1395C1322.77,-56.3418 1616.65,-32.3773 1618,-32 1619.98,-31.4471 1621.98,-30.7621 1623.96,-29.9918"/>
<polygon fill="midnightblue" stroke="midnightblue" points="1625.85,-32.9777 1633.5,-25.6468 1622.95,-26.6076 1625.85,-32.9777"/>
</g>
<!-- Node19&#45;&gt;Node26 -->
<g id="edge33" class="edge"><title>Node19&#45;&gt;Node26</title>
<path fill="none" stroke="midnightblue" d="M1165.55,-68.9437C1170.43,-68.6074 1175.27,-68.2903 1180,-68 1371.36,-56.2506 1855.77,-77.58 2042,-32 2044.5,-31.3874 2047.05,-30.572 2049.55,-29.6369"/>
<polygon fill="midnightblue" stroke="midnightblue" points="2051.05,-32.8021 2058.83,-25.6129 2048.26,-26.3798 2051.05,-32.8021"/>
</g>
<!-- Node27 -->
<g id="node27" class="node"><title>Node27</title>
<polygon fill="none" stroke="#bfbfbf" points="1686.5,-6.5 1686.5,-25.5 1769.5,-25.5 1769.5,-6.5 1686.5,-6.5"/>
<text text-anchor="middle" x="1728" y="-13.5" font-family="Helvetica,sans-Serif" font-size="10.00">unordered_map</text>
</g>
<!-- Node19&#45;&gt;Node27 -->
<g id="edge34" class="edge"><title>Node19&#45;&gt;Node27</title>
<path fill="none" stroke="midnightblue" d="M1165.56,-69.1209C1170.44,-68.7381 1175.28,-68.3625 1180,-68 1400.82,-51.0508 1459.08,-71.4705 1677,-32 1682.2,-31.0578 1687.63,-29.7863 1692.92,-28.3799"/>
<polygon fill="midnightblue" stroke="midnightblue" points="1694.17,-31.6627 1702.83,-25.5605 1692.26,-24.9297 1694.17,-31.6627"/>
</g>
<!-- Node28 -->
<g id="node28" class="node"><title>Node28</title>
<polygon fill="none" stroke="#bfbfbf" points="1787.5,-6.5 1787.5,-25.5 1884.5,-25.5 1884.5,-6.5 1787.5,-6.5"/>
<text text-anchor="middle" x="1836" y="-13.5" font-family="Helvetica,sans-Serif" font-size="10.00">FairMQMessage.h</text>
</g>
<!-- Node19&#45;&gt;Node28 -->
<g id="edge35" class="edge"><title>Node19&#45;&gt;Node28</title>
<path fill="none" stroke="midnightblue" d="M1165.55,-69.0503C1170.44,-68.686 1175.27,-68.3337 1180,-68 1445.6,-49.24 1515,-73.5264 1778,-32 1784.4,-30.9887 1791.13,-29.5804 1797.64,-28.0283"/>
<polygon fill="midnightblue" stroke="midnightblue" points="1798.78,-31.3511 1807.61,-25.5076 1797.06,-24.5644 1798.78,-31.3511"/>
</g>
<!-- Node29 -->
<g id="node29" class="node"><title>Node29</title>
<polygon fill="none" stroke="#bfbfbf" points="1902.5,-6.5 1902.5,-25.5 2033.5,-25.5 2033.5,-6.5 1902.5,-6.5"/>
<text text-anchor="middle" x="1968" y="-13.5" font-family="Helvetica,sans-Serif" font-size="10.00">FairMQTransportFactory.h</text>
</g>
<!-- Node19&#45;&gt;Node29 -->
<g id="edge36" class="edge"><title>Node19&#45;&gt;Node29</title>
<path fill="none" stroke="midnightblue" d="M1165.55,-68.9942C1170.43,-68.6447 1175.27,-68.3109 1180,-68 1496.61,-47.1764 1578.14,-71.2189 1893,-32 1902.1,-30.867 1911.74,-29.2543 1920.98,-27.5031"/>
<polygon fill="midnightblue" stroke="midnightblue" points="1921.66,-30.9359 1930.79,-25.5645 1920.3,-24.0686 1921.66,-30.9359"/>
</g>
<!-- Node30 -->
<g id="node30" class="node"><title>Node30</title>
<polygon fill="none" stroke="#bfbfbf" points="640.5,-6.5 640.5,-25.5 777.5,-25.5 777.5,-6.5 640.5,-6.5"/>
<text text-anchor="middle" x="709" y="-13.5" font-family="Helvetica,sans-Serif" font-size="10.00">fairmq/MemoryResources.h</text>
</g>
<!-- Node19&#45;&gt;Node30 -->
<g id="edge37" class="edge"><title>Node19&#45;&gt;Node30</title>
<path fill="none" stroke="midnightblue" d="M1012.2,-68.4776C955.184,-59.7961 864.881,-45.6989 787,-32 778.986,-30.5904 770.522,-29.0336 762.242,-27.4725"/>
<polygon fill="midnightblue" stroke="midnightblue" points="762.753,-24.0071 752.275,-25.5756 761.445,-30.8836 762.753,-24.0071"/>
</g>
<!-- Node31 -->
<g id="node31" class="node"><title>Node31</title>
<polygon fill="none" stroke="#bfbfbf" points="796,-6.5 796,-25.5 952,-25.5 952,-6.5 796,-6.5"/>
<text text-anchor="middle" x="874" y="-13.5" font-family="Helvetica,sans-Serif" font-size="10.00">fairmq/MemoryResourceTools.h</text>
</g>
<!-- Node19&#45;&gt;Node31 -->
<g id="edge38" class="edge"><title>Node19&#45;&gt;Node31</title>
<path fill="none" stroke="midnightblue" d="M1041.06,-68.4035C1007.03,-57.9331 949.416,-40.2049 911.538,-28.5501"/>
<polygon fill="midnightblue" stroke="midnightblue" points="912.474,-25.1763 901.887,-25.5806 910.415,-31.8667 912.474,-25.1763"/>
</g>
</g>
</svg>
        <g id="navigator" transform="translate(0 0)" fill="#404254">
                <rect fill="#f2f5e9" fill-opacity="0.5" stroke="#606060" stroke-width=".5" x="0" y="0" width="60" height="60"/>
                <use id="zoomplus" xlink:href="#zoomPlus" x="17" y="9" onmousedown="handleZoom(evt,'in')"/>
                <use id="zoomminus" xlink:href="#zoomMin" x="42" y="9" onmousedown="handleZoom(evt,'out')"/>
                <use id="reset" xlink:href="#resetDef" x="30" y="36" onmousedown="handleReset()"/>
                <g id="arrowUp" xlink:href="#dirArrow" transform="translate(30 24)" onmousedown="handlePan(0,-1)">
                  <use xlink:href="#rim" fill="#404040">
                        <set attributeName="fill" to="#808080" begin="arrowUp.mouseover" end="arrowUp.mouseout"/>
                  </use>
                  <path fill="none" stroke="white" stroke-width="1.5" d="M0,-3.0v7 M-2.5,-0.5L0,-3.0L2.5,-0.5"/>
                </g>
                <g id="arrowRight" xlink:href="#dirArrow" transform="rotate(90) translate(36 -43)" onmousedown="handlePan(1,0)">
                  <use xlink:href="#rim" fill="#404040">
                        <set attributeName="fill" to="#808080" begin="arrowRight.mouseover" end="arrowRight.mouseout"/>
                  </use>
                  <path fill="none" stroke="white" stroke-width="1.5" d="M0,-3.0v7 M-2.5,-0.5L0,-3.0L2.5,-0.5"/>
                </g>
                <g id="arrowDown" xlink:href="#dirArrow" transform="rotate(180) translate(-30 -48)" onmousedown="handlePan(0,1)">
                  <use xlink:href="#rim" fill="#404040">
                        <set attributeName="fill" to="#808080" begin="arrowDown.mouseover" end="arrowDown.mouseout"/>
                  </use>
                  <path fill="none" stroke="white" stroke-width="1.5" d="M0,-3.0v7 M-2.5,-0.5L0,-3.0L2.5,-0.5"/>
                </g>
                <g id="arrowLeft" xlink:href="#dirArrow" transform="rotate(270) translate(-36 17)" onmousedown="handlePan(-1,0)">
                  <use xlink:href="#rim" fill="#404040">
                        <set attributeName="fill" to="#808080" begin="arrowLeft.mouseover" end="arrowLeft.mouseout"/>
                  </use>
                  <path fill="none" stroke="white" stroke-width="1.5" d="M0,-3.0v7 M-2.5,-0.5L0,-3.0L2.5,-0.5"/>
                </g>
        </g>
        <svg viewBox="0 0 15 15" width="100%" height="30px" preserveAspectRatio="xMaxYMin meet">
         <g id="arrow_out" transform="scale(0.3 0.3)">
          <a xlink:href="DataDescriptorQueryBuilder_8cxx__incl_org.svg" target="_base">
           <rect id="button" ry="5" rx="5" y="6" x="6" height="38" width="38"
                fill="#f2f5e9" fill-opacity="0.5" stroke="#606060" stroke-width="1.0"/>
           <path id="arrow"
             d="M 11.500037,31.436501 C 11.940474,20.09759 22.043105,11.32322 32.158766,21.979434 L 37.068811,17.246167 C 37.068811,17.246167 37.088388,32 37.088388,32 L 22.160133,31.978069 C 22.160133,31.978069 26.997745,27.140456 26.997745,27.140456 C 18.528582,18.264221 13.291696,25.230495 11.500037,31.436501 z"
             style="fill:#404040;"/>
          </a>
         </g>
        </svg>
</svg>
