<?xml version="1.0" encoding="UTF-8" standalone="no"?>
<!DOCTYPE svg PUBLIC "-//W3C//DTD SVG 1.1//EN"
 "http://www.w3.org/Graphics/SVG/1.1/DTD/svg11.dtd">
<!-- Generated by graphviz version 2.36.0 (20140111.2315)
 -->
<!-- Title: o2::trd::Detector Pages: 1 -->
<svg width="659pt" height="1262pt"
 viewBox="0.00 0.00 659.20 1262.00" xmlns="http://www.w3.org/2000/svg" xmlns:xlink="http://www.w3.org/1999/xlink">
<g id="graph0" class="graph" transform="scale(1 1) rotate(0) translate(4 1258)">
<title>o2::trd::Detector</title>
<!-- Node1 -->
<g id="node1" class="node"><title>Node1</title>
<polygon fill="#bfbfbf" stroke="black" points="233.697,-0.5 233.697,-167.5 358.697,-167.5 358.697,-0.5 233.697,-0.5"/>
<text text-anchor="middle" x="296.197" y="-155.5" font-family="Helvetica,sans-Serif" font-size="10.00">o2::trd::Detector</text>
<polyline fill="none" stroke="black" points="233.697,-148.5 358.697,-148.5 "/>
<text text-anchor="middle" x="296.197" y="-136.5" font-family="Helvetica,sans-Serif" font-size="10.00"> </text>
<polyline fill="none" stroke="black" points="233.697,-129.5 358.697,-129.5 "/>
<text text-anchor="start" x="241.697" y="-117.5" font-family="Helvetica,sans-Serif" font-size="10.00">+ Detector()</text>
<text text-anchor="start" x="241.697" y="-106.5" font-family="Helvetica,sans-Serif" font-size="10.00">+ ~Detector()</text>
<text text-anchor="start" x="241.697" y="-95.5" font-family="Helvetica,sans-Serif" font-size="10.00">+ InitializeO2Detector()</text>
<text text-anchor="start" x="241.697" y="-84.5" font-family="Helvetica,sans-Serif" font-size="10.00">+ ProcessHits()</text>
<text text-anchor="start" x="241.697" y="-73.5" font-family="Helvetica,sans-Serif" font-size="10.00">+ Register()</text>
<text text-anchor="start" x="241.697" y="-62.5" font-family="Helvetica,sans-Serif" font-size="10.00">+ getHits()</text>
<text text-anchor="start" x="241.697" y="-51.5" font-family="Helvetica,sans-Serif" font-size="10.00">+ Reset()</text>
<text text-anchor="start" x="241.697" y="-40.5" font-family="Helvetica,sans-Serif" font-size="10.00">+ EndOfEvent()</text>
<text text-anchor="start" x="241.697" y="-29.5" font-family="Helvetica,sans-Serif" font-size="10.00">+ createMaterials()</text>
<text text-anchor="start" x="241.697" y="-18.5" font-family="Helvetica,sans-Serif" font-size="10.00">+ ConstructGeometry()</text>
<text text-anchor="start" x="241.697" y="-7.5" font-family="Helvetica,sans-Serif" font-size="10.00">+ addAlignableVolumes()</text>
</g>
<!-- Node2 -->
<g id="node2" class="node"><title>Node2</title>
<g id="a_node2"><a xlink:href="../../d4/d8a/classo2_1_1Base_1_1DetImpl.html" target="_top" xlink:title="{o2::Base::DetImpl\&lt;\l Detector \&gt;\n||+ getHitBranchNames()\l+ updateHitTrackIndices()\l+ attachHits()\l+ mergeAndAdjustHits()\l+ mergeHitEntries()\l+ fillHitBranch()\l+ CloneModule()\l+ freeHitBuffers()\l+ setHits()\l+ createHitBuffers()\l+ initializeLate()\l+ BeginEvent()\l+ ~DetImpl()\l# ClassDefOverride()\l}">
<polygon fill="none" stroke="black" points="231.197,-206.5 231.197,-417.5 361.197,-417.5 361.197,-206.5 231.197,-206.5"/>
<text text-anchor="start" x="239.197" y="-405.5" font-family="Helvetica,sans-Serif" font-size="10.00">o2::Base::DetImpl&lt;</text>
<text text-anchor="middle" x="296.197" y="-394.5" font-family="Helvetica,sans-Serif" font-size="10.00"> Detector &gt;</text>
<polyline fill="none" stroke="black" points="231.197,-387.5 361.197,-387.5 "/>
<text text-anchor="middle" x="296.197" y="-375.5" font-family="Helvetica,sans-Serif" font-size="10.00"> </text>
<polyline fill="none" stroke="black" points="231.197,-368.5 361.197,-368.5 "/>
<text text-anchor="start" x="239.197" y="-356.5" font-family="Helvetica,sans-Serif" font-size="10.00">+ getHitBranchNames()</text>
<text text-anchor="start" x="239.197" y="-345.5" font-family="Helvetica,sans-Serif" font-size="10.00">+ updateHitTrackIndices()</text>
<text text-anchor="start" x="239.197" y="-334.5" font-family="Helvetica,sans-Serif" font-size="10.00">+ attachHits()</text>
<text text-anchor="start" x="239.197" y="-323.5" font-family="Helvetica,sans-Serif" font-size="10.00">+ mergeAndAdjustHits()</text>
<text text-anchor="start" x="239.197" y="-312.5" font-family="Helvetica,sans-Serif" font-size="10.00">+ mergeHitEntries()</text>
<text text-anchor="start" x="239.197" y="-301.5" font-family="Helvetica,sans-Serif" font-size="10.00">+ fillHitBranch()</text>
<text text-anchor="start" x="239.197" y="-290.5" font-family="Helvetica,sans-Serif" font-size="10.00">+ CloneModule()</text>
<text text-anchor="start" x="239.197" y="-279.5" font-family="Helvetica,sans-Serif" font-size="10.00">+ freeHitBuffers()</text>
<text text-anchor="start" x="239.197" y="-268.5" font-family="Helvetica,sans-Serif" font-size="10.00">+ setHits()</text>
<text text-anchor="start" x="239.197" y="-257.5" font-family="Helvetica,sans-Serif" font-size="10.00">+ createHitBuffers()</text>
<text text-anchor="start" x="239.197" y="-246.5" font-family="Helvetica,sans-Serif" font-size="10.00">+ initializeLate()</text>
<text text-anchor="start" x="239.197" y="-235.5" font-family="Helvetica,sans-Serif" font-size="10.00">+ BeginEvent()</text>
<text text-anchor="start" x="239.197" y="-224.5" font-family="Helvetica,sans-Serif" font-size="10.00">+ ~DetImpl()</text>
<text text-anchor="start" x="239.197" y="-213.5" font-family="Helvetica,sans-Serif" font-size="10.00"># ClassDefOverride()</text>
</a>
</g>
</g>
<!-- Node2&#45;&gt;Node1 -->
<g id="edge1" class="edge"><title>Node2&#45;&gt;Node1</title>
<path fill="none" stroke="midnightblue" d="M296.197,-196.25C296.197,-186.631 296.197,-177.028 296.197,-167.721"/>
<polygon fill="none" stroke="midnightblue" points="292.697,-196.27 296.197,-206.27 299.697,-196.27 292.697,-196.27"/>
</g>
<!-- Node3 -->
<g id="node3" class="node"><title>Node3</title>
<g id="a_node3"><a xlink:href="../../d7/d02/classo2_1_1Base_1_1Detector.html" target="_top" xlink:title="{o2::Base::Detector\n||+ Detector()\l+ Detector()\l+ ~Detector()\l+ Material()\l+ Mixture()\l+ Medium()\l+ SpecialCuts()\l+ SpecialCut()\l+ SpecialProcesses()\l+ SpecialProcess()\l+ Matrix()\l+ addAlignableVolumes()\l+ defineWrapperVolume()\l+ setNumberOfWrapperVolumes()\l+ defineLayer()\l+ defineLayerTurbo()\l+ getMaterialID()\l+ getMediumID()\l+ getMediumIDMappingAsVector()\l+ addNameTo()\l+ getHitBranchNames()\l+ updateHitTrackIndices()\l+ attachHits()\l+ fillHitBranch()\l+ mergeHitEntries()\l+ InitializeO2Detector()\l+ Initialize()\l+ initializeLate()\l+ GetCollection()\l+ setDensityFactor()\l+ getDensityFactor()\l+ initFieldTrackingParams()\l# Detector()\l# operator=()\l}">
<polygon fill="none" stroke="black" points="391.697,-737 391.697,-1157 558.697,-1157 558.697,-737 391.697,-737"/>
<text text-anchor="middle" x="475.197" y="-1145" font-family="Helvetica,sans-Serif" font-size="10.00">o2::Base::Detector</text>
<polyline fill="none" stroke="black" points="391.697,-1138 558.697,-1138 "/>
<text text-anchor="middle" x="475.197" y="-1126" font-family="Helvetica,sans-Serif" font-size="10.00"> </text>
<polyline fill="none" stroke="black" points="391.697,-1119 558.697,-1119 "/>
<text text-anchor="start" x="399.697" y="-1107" font-family="Helvetica,sans-Serif" font-size="10.00">+ Detector()</text>
<text text-anchor="start" x="399.697" y="-1096" font-family="Helvetica,sans-Serif" font-size="10.00">+ Detector()</text>
<text text-anchor="start" x="399.697" y="-1085" font-family="Helvetica,sans-Serif" font-size="10.00">+ ~Detector()</text>
<text text-anchor="start" x="399.697" y="-1074" font-family="Helvetica,sans-Serif" font-size="10.00">+ Material()</text>
<text text-anchor="start" x="399.697" y="-1063" font-family="Helvetica,sans-Serif" font-size="10.00">+ Mixture()</text>
<text text-anchor="start" x="399.697" y="-1052" font-family="Helvetica,sans-Serif" font-size="10.00">+ Medium()</text>
<text text-anchor="start" x="399.697" y="-1041" font-family="Helvetica,sans-Serif" font-size="10.00">+ SpecialCuts()</text>
<text text-anchor="start" x="399.697" y="-1030" font-family="Helvetica,sans-Serif" font-size="10.00">+ SpecialCut()</text>
<text text-anchor="start" x="399.697" y="-1019" font-family="Helvetica,sans-Serif" font-size="10.00">+ SpecialProcesses()</text>
<text text-anchor="start" x="399.697" y="-1008" font-family="Helvetica,sans-Serif" font-size="10.00">+ SpecialProcess()</text>
<text text-anchor="start" x="399.697" y="-997" font-family="Helvetica,sans-Serif" font-size="10.00">+ Matrix()</text>
<text text-anchor="start" x="399.697" y="-986" font-family="Helvetica,sans-Serif" font-size="10.00">+ addAlignableVolumes()</text>
<text text-anchor="start" x="399.697" y="-975" font-family="Helvetica,sans-Serif" font-size="10.00">+ defineWrapperVolume()</text>
<text text-anchor="start" x="399.697" y="-964" font-family="Helvetica,sans-Serif" font-size="10.00">+ setNumberOfWrapperVolumes()</text>
<text text-anchor="start" x="399.697" y="-953" font-family="Helvetica,sans-Serif" font-size="10.00">+ defineLayer()</text>
<text text-anchor="start" x="399.697" y="-942" font-family="Helvetica,sans-Serif" font-size="10.00">+ defineLayerTurbo()</text>
<text text-anchor="start" x="399.697" y="-931" font-family="Helvetica,sans-Serif" font-size="10.00">+ getMaterialID()</text>
<text text-anchor="start" x="399.697" y="-920" font-family="Helvetica,sans-Serif" font-size="10.00">+ getMediumID()</text>
<text text-anchor="start" x="399.697" y="-909" font-family="Helvetica,sans-Serif" font-size="10.00">+ getMediumIDMappingAsVector()</text>
<text text-anchor="start" x="399.697" y="-898" font-family="Helvetica,sans-Serif" font-size="10.00">+ addNameTo()</text>
<text text-anchor="start" x="399.697" y="-887" font-family="Helvetica,sans-Serif" font-size="10.00">+ getHitBranchNames()</text>
<text text-anchor="start" x="399.697" y="-876" font-family="Helvetica,sans-Serif" font-size="10.00">+ updateHitTrackIndices()</text>
<text text-anchor="start" x="399.697" y="-865" font-family="Helvetica,sans-Serif" font-size="10.00">+ attachHits()</text>
<text text-anchor="start" x="399.697" y="-854" font-family="Helvetica,sans-Serif" font-size="10.00">+ fillHitBranch()</text>
<text text-anchor="start" x="399.697" y="-843" font-family="Helvetica,sans-Serif" font-size="10.00">+ mergeHitEntries()</text>
<text text-anchor="start" x="399.697" y="-832" font-family="Helvetica,sans-Serif" font-size="10.00">+ InitializeO2Detector()</text>
<text text-anchor="start" x="399.697" y="-821" font-family="Helvetica,sans-Serif" font-size="10.00">+ Initialize()</text>
<text text-anchor="start" x="399.697" y="-810" font-family="Helvetica,sans-Serif" font-size="10.00">+ initializeLate()</text>
<text text-anchor="start" x="399.697" y="-799" font-family="Helvetica,sans-Serif" font-size="10.00">+ GetCollection()</text>
<text text-anchor="start" x="399.697" y="-788" font-family="Helvetica,sans-Serif" font-size="10.00">+ setDensityFactor()</text>
<text text-anchor="start" x="399.697" y="-777" font-family="Helvetica,sans-Serif" font-size="10.00">+ getDensityFactor()</text>
<text text-anchor="start" x="399.697" y="-766" font-family="Helvetica,sans-Serif" font-size="10.00">+ initFieldTrackingParams()</text>
<text text-anchor="start" x="399.697" y="-755" font-family="Helvetica,sans-Serif" font-size="10.00"># Detector()</text>
<text text-anchor="start" x="399.697" y="-744" font-family="Helvetica,sans-Serif" font-size="10.00"># operator=()</text>
</a>
</g>
</g>
<!-- Node3&#45;&gt;Node2 -->
<g id="edge2" class="edge"><title>Node3&#45;&gt;Node2</title>
<path fill="none" stroke="midnightblue" d="M542.456,-726.463C541.851,-716.175 540.479,-705.981 538.197,-696 512.893,-585.352 489.291,-561.013 427.197,-466 407.97,-436.582 383.65,-406.682 361.199,-381.211"/>
<polygon fill="none" stroke="midnightblue" points="538.969,-726.905 542.811,-736.778 545.965,-726.664 538.969,-726.905"/>
</g>
<!-- Node9 -->
<g id="node9" class="node"><title>Node9</title>
<g id="a_node9"><a xlink:href="../../d4/d8a/classo2_1_1Base_1_1DetImpl.html" target="_top" xlink:title="{o2::Base::DetImpl\&lt;\l Det \&gt;\n||+ getHitBranchNames()\l+ updateHitTrackIndices()\l+ attachHits()\l+ mergeAndAdjustHits()\l+ mergeHitEntries()\l+ fillHitBranch()\l+ CloneModule()\l+ freeHitBuffers()\l+ setHits()\l+ createHitBuffers()\l+ initializeLate()\l+ BeginEvent()\l+ ~DetImpl()\l# ClassDefOverride()\l}">
<polygon fill="none" stroke="black" points="288.197,-466.5 288.197,-677.5 418.197,-677.5 418.197,-466.5 288.197,-466.5"/>
<text text-anchor="start" x="296.197" y="-665.5" font-family="Helvetica,sans-Serif" font-size="10.00">o2::Base::DetImpl&lt;</text>
<text text-anchor="middle" x="353.197" y="-654.5" font-family="Helvetica,sans-Serif" font-size="10.00"> Det &gt;</text>
<polyline fill="none" stroke="black" points="288.197,-647.5 418.197,-647.5 "/>
<text text-anchor="middle" x="353.197" y="-635.5" font-family="Helvetica,sans-Serif" font-size="10.00"> </text>
<polyline fill="none" stroke="black" points="288.197,-628.5 418.197,-628.5 "/>
<text text-anchor="start" x="296.197" y="-616.5" font-family="Helvetica,sans-Serif" font-size="10.00">+ getHitBranchNames()</text>
<text text-anchor="start" x="296.197" y="-605.5" font-family="Helvetica,sans-Serif" font-size="10.00">+ updateHitTrackIndices()</text>
<text text-anchor="start" x="296.197" y="-594.5" font-family="Helvetica,sans-Serif" font-size="10.00">+ attachHits()</text>
<text text-anchor="start" x="296.197" y="-583.5" font-family="Helvetica,sans-Serif" font-size="10.00">+ mergeAndAdjustHits()</text>
<text text-anchor="start" x="296.197" y="-572.5" font-family="Helvetica,sans-Serif" font-size="10.00">+ mergeHitEntries()</text>
<text text-anchor="start" x="296.197" y="-561.5" font-family="Helvetica,sans-Serif" font-size="10.00">+ fillHitBranch()</text>
<text text-anchor="start" x="296.197" y="-550.5" font-family="Helvetica,sans-Serif" font-size="10.00">+ CloneModule()</text>
<text text-anchor="start" x="296.197" y="-539.5" font-family="Helvetica,sans-Serif" font-size="10.00">+ freeHitBuffers()</text>
<text text-anchor="start" x="296.197" y="-528.5" font-family="Helvetica,sans-Serif" font-size="10.00">+ setHits()</text>
<text text-anchor="start" x="296.197" y="-517.5" font-family="Helvetica,sans-Serif" font-size="10.00">+ createHitBuffers()</text>
<text text-anchor="start" x="296.197" y="-506.5" font-family="Helvetica,sans-Serif" font-size="10.00">+ initializeLate()</text>
<text text-anchor="start" x="296.197" y="-495.5" font-family="Helvetica,sans-Serif" font-size="10.00">+ BeginEvent()</text>
<text text-anchor="start" x="296.197" y="-484.5" font-family="Helvetica,sans-Serif" font-size="10.00">+ ~DetImpl()</text>
<text text-anchor="start" x="296.197" y="-473.5" font-family="Helvetica,sans-Serif" font-size="10.00"># ClassDefOverride()</text>
</a>
</g>
</g>
<!-- Node3&#45;&gt;Node9 -->
<g id="edge9" class="edge"><title>Node3&#45;&gt;Node9</title>
<path fill="none" stroke="midnightblue" d="M424.809,-727.152C421.428,-716.555 417.89,-706.122 414.197,-696 411.991,-689.954 409.571,-683.815 407.009,-677.671"/>
<polygon fill="none" stroke="midnightblue" points="421.541,-728.428 427.869,-736.925 428.221,-726.336 421.541,-728.428"/>
</g>
<!-- Node4 -->
<g id="node4" class="node"><title>Node4</title>
<g id="a_node4"><a xlink:href="../../d6/d0c/classFairDetector.html" target="_top" xlink:title="{FairDetector\n||}">
<polygon fill="none" stroke="black" points="439.697,-1196.5 439.697,-1253.5 510.697,-1253.5 510.697,-1196.5 439.697,-1196.5"/>
<text text-anchor="middle" x="475.197" y="-1241.5" font-family="Helvetica,sans-Serif" font-size="10.00">FairDetector</text>
<polyline fill="none" stroke="black" points="439.697,-1234.5 510.697,-1234.5 "/>
<text text-anchor="middle" x="475.197" y="-1222.5" font-family="Helvetica,sans-Serif" font-size="10.00"> </text>
<polyline fill="none" stroke="black" points="439.697,-1215.5 510.697,-1215.5 "/>
<text text-anchor="middle" x="475.197" y="-1203.5" font-family="Helvetica,sans-Serif" font-size="10.00"> </text>
</a>
</g>
</g>
<!-- Node4&#45;&gt;Node3 -->
<g id="edge3" class="edge"><title>Node4&#45;&gt;Node3</title>
<path fill="none" stroke="midnightblue" d="M475.197,-1186C475.197,-1177.4 475.197,-1167.67 475.197,-1157.19"/>
<polygon fill="none" stroke="midnightblue" points="471.697,-1186.27 475.197,-1196.27 478.697,-1186.27 471.697,-1186.27"/>
</g>
<!-- Node5 -->
<g id="node5" class="node"><title>Node5</title>
<polygon fill="none" stroke="#bfbfbf" points="1.19656,-918.5 1.19656,-975.5 101.197,-975.5 101.197,-918.5 1.19656,-918.5"/>
<text text-anchor="middle" x="51.1966" y="-963.5" font-family="Helvetica,sans-Serif" font-size="10.00">static constexpr int</text>
<polyline fill="none" stroke="#bfbfbf" points="1.19656,-956.5 101.197,-956.5 "/>
<text text-anchor="middle" x="51.1966" y="-944.5" font-family="Helvetica,sans-Serif" font-size="10.00"> </text>
<polyline fill="none" stroke="#bfbfbf" points="1.19656,-937.5 101.197,-937.5 "/>
<text text-anchor="middle" x="51.1966" y="-925.5" font-family="Helvetica,sans-Serif" font-size="10.00"> </text>
</g>
<!-- Node5&#45;&gt;Node2 -->
<g id="edge4" class="edge"><title>Node5&#45;&gt;Node2</title>
<path fill="none" stroke="#404040" d="M41.953,-918.483C17.7408,-841.159 -39.9887,-617.689 45.1966,-466 82.1526,-400.192 160.177,-359.357 219.486,-336.604"/>
<polygon fill="none" stroke="#404040" points="219.834,-336.475 224.063,-330.634 231.081,-332.292 226.851,-338.132 219.834,-336.475"/>
<text text-anchor="middle" x="85.1966" y="-569.5" font-family="Helvetica,sans-Serif" font-size="10.00"> #NHITBUFFERS</text>
</g>
<!-- Node5&#45;&gt;Node9 -->
<g id="edge10" class="edge"><title>Node5&#45;&gt;Node9</title>
<path fill="none" stroke="#404040" d="M59.3318,-918.437C72.6969,-876.228 102.277,-794.345 146.197,-736 162.693,-714.085 168.58,-708.101 193.197,-696 227.851,-678.964 245.888,-699.15 278.197,-678 278.302,-677.931 278.407,-677.862 278.513,-677.792"/>
<polygon fill="none" stroke="#404040" points="278.348,-677.913 280.802,-671.132 288.005,-670.789 285.551,-677.57 278.348,-677.913"/>
<text text-anchor="middle" x="233.197" y="-704.5" font-family="Helvetica,sans-Serif" font-size="10.00"> #NHITBUFFERS</text>
</g>
<!-- Node6 -->
<g id="node6" class="node"><title>Node6</title>
<g id="a_node6"><a xlink:href="../../d9/db1/classbool_01_5.html" target="_top" xlink:title="{bool *\n||}">
<polygon fill="none" stroke="black" points="228.697,-543.5 228.697,-600.5 269.697,-600.5 269.697,-543.5 228.697,-543.5"/>
<text text-anchor="middle" x="249.197" y="-588.5" font-family="Helvetica,sans-Serif" font-size="10.00">bool *</text>
<polyline fill="none" stroke="black" points="228.697,-581.5 269.697,-581.5 "/>
<text text-anchor="middle" x="249.197" y="-569.5" font-family="Helvetica,sans-Serif" font-size="10.00"> </text>
<polyline fill="none" stroke="black" points="228.697,-562.5 269.697,-562.5 "/>
<text text-anchor="middle" x="249.197" y="-550.5" font-family="Helvetica,sans-Serif" font-size="10.00"> </text>
</a>
</g>
</g>
<!-- Node6&#45;&gt;Node2 -->
<g id="edge5" class="edge"><title>Node6&#45;&gt;Node2</title>
<path fill="none" stroke="#404040" d="M250.128,-543.387C251.41,-515.956 254.39,-472.788 261.197,-436 261.596,-433.842 262.016,-431.668 262.456,-429.482"/>
<polygon fill="none" stroke="#404040" points="262.466,-429.432 259.81,-422.728 264.976,-417.698 267.633,-424.402 262.466,-429.432"/>
<text text-anchor="middle" x="291.197" y="-439.5" font-family="Helvetica,sans-Serif" font-size="10.00"> #mShmBusy</text>
</g>
<!-- Node7 -->
<g id="node7" class="node"><title>Node7</title>
<polygon fill="none" stroke="#bfbfbf" points="581.697,-918.5 581.697,-975.5 610.697,-975.5 610.697,-918.5 581.697,-918.5"/>
<text text-anchor="middle" x="596.197" y="-963.5" font-family="Helvetica,sans-Serif" font-size="10.00">int</text>
<polyline fill="none" stroke="#bfbfbf" points="581.697,-956.5 610.697,-956.5 "/>
<text text-anchor="middle" x="596.197" y="-944.5" font-family="Helvetica,sans-Serif" font-size="10.00"> </text>
<polyline fill="none" stroke="#bfbfbf" points="581.697,-937.5 610.697,-937.5 "/>
<text text-anchor="middle" x="596.197" y="-925.5" font-family="Helvetica,sans-Serif" font-size="10.00"> </text>
</g>
<!-- Node7&#45;&gt;Node2 -->
<g id="edge6" class="edge"><title>Node7&#45;&gt;Node2</title>
<path fill="none" stroke="#404040" d="M597.139,-918.379C598.474,-840.311 593.035,-614.104 494.197,-466 463.23,-419.599 413.511,-381.252 371.643,-354.554"/>
<polygon fill="none" stroke="#404040" points="371.637,-354.55 364.429,-354.761 361.462,-348.189 368.67,-347.978 371.637,-354.55"/>
<text text-anchor="middle" x="613.197" y="-575" font-family="Helvetica,sans-Serif" font-size="10.00"> #mCurrentBuffer</text>
<text text-anchor="middle" x="613.197" y="-564" font-family="Helvetica,sans-Serif" font-size="10.00">#mInitialized</text>
</g>
<!-- Node7&#45;&gt;Node9 -->
<g id="edge11" class="edge"><title>Node7&#45;&gt;Node9</title>
<path fill="none" stroke="#404040" d="M600.935,-918.457C606.843,-874.41 611.369,-787.814 567.197,-736 549.411,-715.137 531.932,-731.72 508.197,-718 479.073,-701.166 451.01,-677.899 426.954,-654.929"/>
<polygon fill="none" stroke="#404040" points="426.882,-654.858 419.791,-653.542 418.279,-646.492 425.369,-647.807 426.882,-654.858"/>
<text text-anchor="middle" x="546.197" y="-710" font-family="Helvetica,sans-Serif" font-size="10.00"> #mCurrentBuffer</text>
<text text-anchor="middle" x="546.197" y="-699" font-family="Helvetica,sans-Serif" font-size="10.00">#mInitialized</text>
</g>
<!-- Node8 -->
<g id="node8" class="node"><title>Node8</title>
<polygon fill="none" stroke="#bfbfbf" points="155.197,-918.5 155.197,-975.5 241.197,-975.5 241.197,-918.5 155.197,-918.5"/>
<text text-anchor="middle" x="198.197" y="-963.5" font-family="Helvetica,sans-Serif" font-size="10.00">vector&lt; void * &gt;</text>
<polyline fill="none" stroke="#bfbfbf" points="155.197,-956.5 241.197,-956.5 "/>
<text text-anchor="middle" x="198.197" y="-944.5" font-family="Helvetica,sans-Serif" font-size="10.00"> </text>
<polyline fill="none" stroke="#bfbfbf" points="155.197,-937.5 241.197,-937.5 "/>
<text text-anchor="middle" x="198.197" y="-925.5" font-family="Helvetica,sans-Serif" font-size="10.00"> </text>
</g>
<!-- Node8&#45;&gt;Node2 -->
<g id="edge7" class="edge"><title>Node8&#45;&gt;Node2</title>
<path fill="none" stroke="#404040" d="M187.351,-918.256C159.518,-842.628 92.0443,-627.716 155.197,-466 169.127,-430.329 195.701,-397.963 222.057,-372.282"/>
<polygon fill="none" stroke="#404040" points="222.26,-372.09 223.862,-365.059 230.968,-363.834 229.366,-370.865 222.26,-372.09"/>
<text text-anchor="middle" x="187.197" y="-569.5" font-family="Helvetica,sans-Serif" font-size="10.00"> #mCachedPtr</text>
</g>
<!-- Node8&#45;&gt;Node9 -->
<g id="edge12" class="edge"><title>Node8&#45;&gt;Node9</title>
<path fill="none" stroke="#404040" d="M206.114,-918.407C219.887,-871.696 250.158,-774.47 285.197,-696 286.288,-693.556 287.41,-691.096 288.56,-688.625"/>
<polygon fill="none" stroke="#404040" points="288.585,-688.573 287.56,-681.435 293.754,-677.743 294.779,-684.881 288.585,-688.573"/>
<text text-anchor="middle" x="317.197" y="-704.5" font-family="Helvetica,sans-Serif" font-size="10.00"> #mCachedPtr</text>
</g>
<!-- Node9&#45;&gt;Node2 -->
<g id="edge8" class="edge"><title>Node9&#45;&gt;Node2</title>
<path fill="none" stroke="orange" d="M327.92,-456.589C325.062,-443.653 322.16,-430.519 319.331,-417.715"/>
<polygon fill="orange" stroke="orange" points="324.52,-457.424 330.095,-466.433 331.355,-455.914 324.52,-457.424"/>
<text text-anchor="middle" x="354.697" y="-439.5" font-family="Helvetica,sans-Serif" font-size="10.00"> &lt; Detector &gt;</text>
</g>
<!-- Node10 -->
<g id="node10" class="node"><title>Node10</title>
<polygon fill="none" stroke="#bfbfbf" points="335.697,-918.5 335.697,-975.5 370.697,-975.5 370.697,-918.5 335.697,-918.5"/>
<text text-anchor="middle" x="353.197" y="-963.5" font-family="Helvetica,sans-Serif" font-size="10.00">bool</text>
<polyline fill="none" stroke="#bfbfbf" points="335.697,-956.5 370.697,-956.5 "/>
<text text-anchor="middle" x="353.197" y="-944.5" font-family="Helvetica,sans-Serif" font-size="10.00"> </text>
<polyline fill="none" stroke="#bfbfbf" points="335.697,-937.5 370.697,-937.5 "/>
<text text-anchor="middle" x="353.197" y="-925.5" font-family="Helvetica,sans-Serif" font-size="10.00"> </text>
</g>
<!-- Node10&#45;&gt;Node9 -->
<g id="edge13" class="edge"><title>Node10&#45;&gt;Node9</title>
<path fill="none" stroke="#404040" d="M353.197,-918.269C353.197,-870.493 353.197,-770.062 353.197,-689.772"/>
<polygon fill="none" stroke="#404040" points="353.197,-689.576 349.197,-683.576 353.197,-677.576 357.197,-683.576 353.197,-689.576"/>
<text text-anchor="middle" x="383.197" y="-704.5" font-family="Helvetica,sans-Serif" font-size="10.00"> #mShmBusy</text>
</g>
</g>
</svg>
