<?xml version="1.0" encoding="UTF-8" standalone="no"?>
<!DOCTYPE svg PUBLIC "-//W3C//DTD SVG 1.1//EN"
 "http://www.w3.org/Graphics/SVG/1.1/DTD/svg11.dtd">
<!-- Generated by graphviz version 2.36.0 (20140111.2315)
 -->
<!-- Title: o2::tof::Detector Pages: 1 -->
<!--zoomable 1306 -->
<svg id="main" version="1.1" xmlns="http://www.w3.org/2000/svg" xmlns:xlink="http://www.w3.org/1999/xlink" xml:space="preserve" onload="init(evt)">
<style type="text/css"><![CDATA[
.edge:hover path { stroke: red; }
.edge:hover polygon { stroke: red; fill: red; }
]]></style>
<script type="text/javascript"><![CDATA[
var edges = document.getElementsByTagName('g');
if (edges && edges.length) {
  for (var i=0;i<edges.length;i++) {
    if (edges[i].id.substr(0,4)=='edge') {
      edges[i].setAttribute('class','edge');
    }
  }
}
]]></script>
        <defs>
                <circle id="rim" cx="0" cy="0" r="7"/>
                <circle id="rim2" cx="0" cy="0" r="3.5"/>
                <g id="zoomPlus">
                        <use xlink:href="#rim" fill="#404040">
                                <set attributeName="fill" to="#808080" begin="zoomplus.mouseover" end="zoomplus.mouseout"/>
                        </use>
                        <path d="M-4,0h8M0,-4v8" fill="none" stroke="white" stroke-width="1.5" pointer-events="none"/>
                </g>
                <g id="zoomMin">
                        <use xlink:href="#rim" fill="#404040">
                                <set attributeName="fill" to="#808080" begin="zoomminus.mouseover" end="zoomminus.mouseout"/>
                        </use>
                        <path d="M-4,0h8" fill="none" stroke="white" stroke-width="1.5" pointer-events="none"/>
                </g>
                <g id="dirArrow">
                        <path fill="none" stroke="white" stroke-width="1.5" d="M0,-3.0v7 M-2.5,-0.5L0,-3.0L2.5,-0.5"/>
                </g>
               <g id="resetDef">
                       <use xlink:href="#rim2" fill="#404040">
                               <set attributeName="fill" to="#808080" begin="reset.mouseover" end="reset.mouseout"/>
                       </use>
               </g>
        </defs>

<script type="text/javascript">
var viewWidth = 659;
var viewHeight = 1306;
var sectionId = 'dynsection-1';
</script>
<script xlink:href="../../svgpan.js"/>
<svg id="graph" class="graph">
<g id="viewport">
<title>o2::tof::Detector</title>
<!-- Node1 -->
<g id="node1" class="node"><title>Node1</title>
<polygon fill="#bfbfbf" stroke="black" points="233.697,-0.5 233.697,-211.5 358.697,-211.5 358.697,-0.5 233.697,-0.5"/>
<text text-anchor="middle" x="296.197" y="-199.5" font-family="Helvetica,sans-Serif" font-size="10.00">o2::tof::Detector</text>
<polyline fill="none" stroke="black" points="233.697,-192.5 358.697,-192.5 "/>
<text text-anchor="middle" x="296.197" y="-180.5" font-family="Helvetica,sans-Serif" font-size="10.00"> </text>
<polyline fill="none" stroke="black" points="233.697,-173.5 358.697,-173.5 "/>
<text text-anchor="start" x="241.697" y="-161.5" font-family="Helvetica,sans-Serif" font-size="10.00">+ Detector()</text>
<text text-anchor="start" x="241.697" y="-150.5" font-family="Helvetica,sans-Serif" font-size="10.00">+ Detector()</text>
<text text-anchor="start" x="241.697" y="-139.5" font-family="Helvetica,sans-Serif" font-size="10.00">+ ~Detector()</text>
<text text-anchor="start" x="241.697" y="-128.5" font-family="Helvetica,sans-Serif" font-size="10.00">+ InitializeO2Detector()</text>
<text text-anchor="start" x="241.697" y="-117.5" font-family="Helvetica,sans-Serif" font-size="10.00">+ ProcessHits()</text>
<text text-anchor="start" x="241.697" y="-106.5" font-family="Helvetica,sans-Serif" font-size="10.00">+ Register()</text>
<text text-anchor="start" x="241.697" y="-95.5" font-family="Helvetica,sans-Serif" font-size="10.00">+ getHits()</text>
<text text-anchor="start" x="241.697" y="-84.5" font-family="Helvetica,sans-Serif" font-size="10.00">+ Reset()</text>
<text text-anchor="start" x="241.697" y="-73.5" font-family="Helvetica,sans-Serif" font-size="10.00">+ EndOfEvent()</text>
<text text-anchor="start" x="241.697" y="-62.5" font-family="Helvetica,sans-Serif" font-size="10.00">+ CreateMaterials()</text>
<text text-anchor="start" x="241.697" y="-51.5" font-family="Helvetica,sans-Serif" font-size="10.00">+ ConstructGeometry()</text>
<text text-anchor="start" x="241.697" y="-40.5" font-family="Helvetica,sans-Serif" font-size="10.00">+ addAlignableVolumes()</text>
<text text-anchor="start" x="241.697" y="-29.5" font-family="Helvetica,sans-Serif" font-size="10.00">+ setTOFholes()</text>
<text text-anchor="start" x="241.697" y="-18.5" font-family="Helvetica,sans-Serif" font-size="10.00"># DefineGeometry()</text>
<text text-anchor="start" x="241.697" y="-7.5" font-family="Helvetica,sans-Serif" font-size="10.00"># MaterialMixer()</text>
</g>
<!-- Node2 -->
<g id="node2" class="node"><title>Node2</title>
<g id="a_node2"><a xlink:href="../../d4/d8a/classo2_1_1Base_1_1DetImpl.html" target="_top" xlink:title="{o2::Base::DetImpl\&lt;\l Detector \&gt;\n||+ getHitBranchNames()\l+ updateHitTrackIndices()\l+ attachHits()\l+ mergeAndAdjustHits()\l+ mergeHitEntries()\l+ fillHitBranch()\l+ CloneModule()\l+ freeHitBuffers()\l+ setHits()\l+ createHitBuffers()\l+ initializeLate()\l+ BeginEvent()\l+ ~DetImpl()\l# ClassDefOverride()\l}">
<polygon fill="none" stroke="black" points="231.197,-250.5 231.197,-461.5 361.197,-461.5 361.197,-250.5 231.197,-250.5"/>
<text text-anchor="start" x="239.197" y="-449.5" font-family="Helvetica,sans-Serif" font-size="10.00">o2::Base::DetImpl&lt;</text>
<text text-anchor="middle" x="296.197" y="-438.5" font-family="Helvetica,sans-Serif" font-size="10.00"> Detector &gt;</text>
<polyline fill="none" stroke="black" points="231.197,-431.5 361.197,-431.5 "/>
<text text-anchor="middle" x="296.197" y="-419.5" font-family="Helvetica,sans-Serif" font-size="10.00"> </text>
<polyline fill="none" stroke="black" points="231.197,-412.5 361.197,-412.5 "/>
<text text-anchor="start" x="239.197" y="-400.5" font-family="Helvetica,sans-Serif" font-size="10.00">+ getHitBranchNames()</text>
<text text-anchor="start" x="239.197" y="-389.5" font-family="Helvetica,sans-Serif" font-size="10.00">+ updateHitTrackIndices()</text>
<text text-anchor="start" x="239.197" y="-378.5" font-family="Helvetica,sans-Serif" font-size="10.00">+ attachHits()</text>
<text text-anchor="start" x="239.197" y="-367.5" font-family="Helvetica,sans-Serif" font-size="10.00">+ mergeAndAdjustHits()</text>
<text text-anchor="start" x="239.197" y="-356.5" font-family="Helvetica,sans-Serif" font-size="10.00">+ mergeHitEntries()</text>
<text text-anchor="start" x="239.197" y="-345.5" font-family="Helvetica,sans-Serif" font-size="10.00">+ fillHitBranch()</text>
<text text-anchor="start" x="239.197" y="-334.5" font-family="Helvetica,sans-Serif" font-size="10.00">+ CloneModule()</text>
<text text-anchor="start" x="239.197" y="-323.5" font-family="Helvetica,sans-Serif" font-size="10.00">+ freeHitBuffers()</text>
<text text-anchor="start" x="239.197" y="-312.5" font-family="Helvetica,sans-Serif" font-size="10.00">+ setHits()</text>
<text text-anchor="start" x="239.197" y="-301.5" font-family="Helvetica,sans-Serif" font-size="10.00">+ createHitBuffers()</text>
<text text-anchor="start" x="239.197" y="-290.5" font-family="Helvetica,sans-Serif" font-size="10.00">+ initializeLate()</text>
<text text-anchor="start" x="239.197" y="-279.5" font-family="Helvetica,sans-Serif" font-size="10.00">+ BeginEvent()</text>
<text text-anchor="start" x="239.197" y="-268.5" font-family="Helvetica,sans-Serif" font-size="10.00">+ ~DetImpl()</text>
<text text-anchor="start" x="239.197" y="-257.5" font-family="Helvetica,sans-Serif" font-size="10.00"># ClassDefOverride()</text>
</a>
</g>
</g>
<!-- Node2&#45;&gt;Node1 -->
<g id="edge1" class="edge"><title>Node2&#45;&gt;Node1</title>
<path fill="none" stroke="midnightblue" d="M296.197,-240.024C296.197,-230.626 296.197,-221.157 296.197,-211.837"/>
<polygon fill="none" stroke="midnightblue" points="292.697,-240.185 296.197,-250.185 299.697,-240.185 292.697,-240.185"/>
</g>
<!-- Node3 -->
<g id="node3" class="node"><title>Node3</title>
<g id="a_node3"><a xlink:href="../../d7/d02/classo2_1_1Base_1_1Detector.html" target="_top" xlink:title="{o2::Base::Detector\n||+ Detector()\l+ Detector()\l+ ~Detector()\l+ Material()\l+ Mixture()\l+ Medium()\l+ SpecialCuts()\l+ SpecialCut()\l+ SpecialProcesses()\l+ SpecialProcess()\l+ Matrix()\l+ addAlignableVolumes()\l+ defineWrapperVolume()\l+ setNumberOfWrapperVolumes()\l+ defineLayer()\l+ defineLayerTurbo()\l+ getMaterialID()\l+ getMediumID()\l+ getMediumIDMappingAsVector()\l+ addNameTo()\l+ getHitBranchNames()\l+ updateHitTrackIndices()\l+ attachHits()\l+ fillHitBranch()\l+ mergeHitEntries()\l+ InitializeO2Detector()\l+ Initialize()\l+ initializeLate()\l+ GetCollection()\l+ setDensityFactor()\l+ getDensityFactor()\l+ initFieldTrackingParams()\l# Detector()\l# operator=()\l}">
<polygon fill="none" stroke="black" points="391.697,-781 391.697,-1201 558.697,-1201 558.697,-781 391.697,-781"/>
<text text-anchor="middle" x="475.197" y="-1189" font-family="Helvetica,sans-Serif" font-size="10.00">o2::Base::Detector</text>
<polyline fill="none" stroke="black" points="391.697,-1182 558.697,-1182 "/>
<text text-anchor="middle" x="475.197" y="-1170" font-family="Helvetica,sans-Serif" font-size="10.00"> </text>
<polyline fill="none" stroke="black" points="391.697,-1163 558.697,-1163 "/>
<text text-anchor="start" x="399.697" y="-1151" font-family="Helvetica,sans-Serif" font-size="10.00">+ Detector()</text>
<text text-anchor="start" x="399.697" y="-1140" font-family="Helvetica,sans-Serif" font-size="10.00">+ Detector()</text>
<text text-anchor="start" x="399.697" y="-1129" font-family="Helvetica,sans-Serif" font-size="10.00">+ ~Detector()</text>
<text text-anchor="start" x="399.697" y="-1118" font-family="Helvetica,sans-Serif" font-size="10.00">+ Material()</text>
<text text-anchor="start" x="399.697" y="-1107" font-family="Helvetica,sans-Serif" font-size="10.00">+ Mixture()</text>
<text text-anchor="start" x="399.697" y="-1096" font-family="Helvetica,sans-Serif" font-size="10.00">+ Medium()</text>
<text text-anchor="start" x="399.697" y="-1085" font-family="Helvetica,sans-Serif" font-size="10.00">+ SpecialCuts()</text>
<text text-anchor="start" x="399.697" y="-1074" font-family="Helvetica,sans-Serif" font-size="10.00">+ SpecialCut()</text>
<text text-anchor="start" x="399.697" y="-1063" font-family="Helvetica,sans-Serif" font-size="10.00">+ SpecialProcesses()</text>
<text text-anchor="start" x="399.697" y="-1052" font-family="Helvetica,sans-Serif" font-size="10.00">+ SpecialProcess()</text>
<text text-anchor="start" x="399.697" y="-1041" font-family="Helvetica,sans-Serif" font-size="10.00">+ Matrix()</text>
<text text-anchor="start" x="399.697" y="-1030" font-family="Helvetica,sans-Serif" font-size="10.00">+ addAlignableVolumes()</text>
<text text-anchor="start" x="399.697" y="-1019" font-family="Helvetica,sans-Serif" font-size="10.00">+ defineWrapperVolume()</text>
<text text-anchor="start" x="399.697" y="-1008" font-family="Helvetica,sans-Serif" font-size="10.00">+ setNumberOfWrapperVolumes()</text>
<text text-anchor="start" x="399.697" y="-997" font-family="Helvetica,sans-Serif" font-size="10.00">+ defineLayer()</text>
<text text-anchor="start" x="399.697" y="-986" font-family="Helvetica,sans-Serif" font-size="10.00">+ defineLayerTurbo()</text>
<text text-anchor="start" x="399.697" y="-975" font-family="Helvetica,sans-Serif" font-size="10.00">+ getMaterialID()</text>
<text text-anchor="start" x="399.697" y="-964" font-family="Helvetica,sans-Serif" font-size="10.00">+ getMediumID()</text>
<text text-anchor="start" x="399.697" y="-953" font-family="Helvetica,sans-Serif" font-size="10.00">+ getMediumIDMappingAsVector()</text>
<text text-anchor="start" x="399.697" y="-942" font-family="Helvetica,sans-Serif" font-size="10.00">+ addNameTo()</text>
<text text-anchor="start" x="399.697" y="-931" font-family="Helvetica,sans-Serif" font-size="10.00">+ getHitBranchNames()</text>
<text text-anchor="start" x="399.697" y="-920" font-family="Helvetica,sans-Serif" font-size="10.00">+ updateHitTrackIndices()</text>
<text text-anchor="start" x="399.697" y="-909" font-family="Helvetica,sans-Serif" font-size="10.00">+ attachHits()</text>
<text text-anchor="start" x="399.697" y="-898" font-family="Helvetica,sans-Serif" font-size="10.00">+ fillHitBranch()</text>
<text text-anchor="start" x="399.697" y="-887" font-family="Helvetica,sans-Serif" font-size="10.00">+ mergeHitEntries()</text>
<text text-anchor="start" x="399.697" y="-876" font-family="Helvetica,sans-Serif" font-size="10.00">+ InitializeO2Detector()</text>
<text text-anchor="start" x="399.697" y="-865" font-family="Helvetica,sans-Serif" font-size="10.00">+ Initialize()</text>
<text text-anchor="start" x="399.697" y="-854" font-family="Helvetica,sans-Serif" font-size="10.00">+ initializeLate()</text>
<text text-anchor="start" x="399.697" y="-843" font-family="Helvetica,sans-Serif" font-size="10.00">+ GetCollection()</text>
<text text-anchor="start" x="399.697" y="-832" font-family="Helvetica,sans-Serif" font-size="10.00">+ setDensityFactor()</text>
<text text-anchor="start" x="399.697" y="-821" font-family="Helvetica,sans-Serif" font-size="10.00">+ getDensityFactor()</text>
<text text-anchor="start" x="399.697" y="-810" font-family="Helvetica,sans-Serif" font-size="10.00">+ initFieldTrackingParams()</text>
<text text-anchor="start" x="399.697" y="-799" font-family="Helvetica,sans-Serif" font-size="10.00"># Detector()</text>
<text text-anchor="start" x="399.697" y="-788" font-family="Helvetica,sans-Serif" font-size="10.00"># operator=()</text>
</a>
</g>
</g>
<!-- Node3&#45;&gt;Node2 -->
<g id="edge2" class="edge"><title>Node3&#45;&gt;Node2</title>
<path fill="none" stroke="midnightblue" d="M542.456,-770.463C541.851,-760.175 540.479,-749.981 538.197,-740 512.893,-629.352 489.291,-605.013 427.197,-510 407.97,-480.582 383.65,-450.682 361.199,-425.211"/>
<polygon fill="none" stroke="midnightblue" points="538.969,-770.905 542.811,-780.778 545.965,-770.664 538.969,-770.905"/>
</g>
<!-- Node9 -->
<g id="node9" class="node"><title>Node9</title>
<g id="a_node9"><a xlink:href="../../d4/d8a/classo2_1_1Base_1_1DetImpl.html" target="_top" xlink:title="{o2::Base::DetImpl\&lt;\l Det \&gt;\n||+ getHitBranchNames()\l+ updateHitTrackIndices()\l+ attachHits()\l+ mergeAndAdjustHits()\l+ mergeHitEntries()\l+ fillHitBranch()\l+ CloneModule()\l+ freeHitBuffers()\l+ setHits()\l+ createHitBuffers()\l+ initializeLate()\l+ BeginEvent()\l+ ~DetImpl()\l# ClassDefOverride()\l}">
<polygon fill="none" stroke="black" points="288.197,-510.5 288.197,-721.5 418.197,-721.5 418.197,-510.5 288.197,-510.5"/>
<text text-anchor="start" x="296.197" y="-709.5" font-family="Helvetica,sans-Serif" font-size="10.00">o2::Base::DetImpl&lt;</text>
<text text-anchor="middle" x="353.197" y="-698.5" font-family="Helvetica,sans-Serif" font-size="10.00"> Det &gt;</text>
<polyline fill="none" stroke="black" points="288.197,-691.5 418.197,-691.5 "/>
<text text-anchor="middle" x="353.197" y="-679.5" font-family="Helvetica,sans-Serif" font-size="10.00"> </text>
<polyline fill="none" stroke="black" points="288.197,-672.5 418.197,-672.5 "/>
<text text-anchor="start" x="296.197" y="-660.5" font-family="Helvetica,sans-Serif" font-size="10.00">+ getHitBranchNames()</text>
<text text-anchor="start" x="296.197" y="-649.5" font-family="Helvetica,sans-Serif" font-size="10.00">+ updateHitTrackIndices()</text>
<text text-anchor="start" x="296.197" y="-638.5" font-family="Helvetica,sans-Serif" font-size="10.00">+ attachHits()</text>
<text text-anchor="start" x="296.197" y="-627.5" font-family="Helvetica,sans-Serif" font-size="10.00">+ mergeAndAdjustHits()</text>
<text text-anchor="start" x="296.197" y="-616.5" font-family="Helvetica,sans-Serif" font-size="10.00">+ mergeHitEntries()</text>
<text text-anchor="start" x="296.197" y="-605.5" font-family="Helvetica,sans-Serif" font-size="10.00">+ fillHitBranch()</text>
<text text-anchor="start" x="296.197" y="-594.5" font-family="Helvetica,sans-Serif" font-size="10.00">+ CloneModule()</text>
<text text-anchor="start" x="296.197" y="-583.5" font-family="Helvetica,sans-Serif" font-size="10.00">+ freeHitBuffers()</text>
<text text-anchor="start" x="296.197" y="-572.5" font-family="Helvetica,sans-Serif" font-size="10.00">+ setHits()</text>
<text text-anchor="start" x="296.197" y="-561.5" font-family="Helvetica,sans-Serif" font-size="10.00">+ createHitBuffers()</text>
<text text-anchor="start" x="296.197" y="-550.5" font-family="Helvetica,sans-Serif" font-size="10.00">+ initializeLate()</text>
<text text-anchor="start" x="296.197" y="-539.5" font-family="Helvetica,sans-Serif" font-size="10.00">+ BeginEvent()</text>
<text text-anchor="start" x="296.197" y="-528.5" font-family="Helvetica,sans-Serif" font-size="10.00">+ ~DetImpl()</text>
<text text-anchor="start" x="296.197" y="-517.5" font-family="Helvetica,sans-Serif" font-size="10.00"># ClassDefOverride()</text>
</a>
</g>
</g>
<!-- Node3&#45;&gt;Node9 -->
<g id="edge9" class="edge"><title>Node3&#45;&gt;Node9</title>
<path fill="none" stroke="midnightblue" d="M424.809,-771.152C421.428,-760.555 417.89,-750.122 414.197,-740 411.991,-733.954 409.571,-727.815 407.009,-721.671"/>
<polygon fill="none" stroke="midnightblue" points="421.541,-772.428 427.869,-780.925 428.221,-770.336 421.541,-772.428"/>
</g>
<!-- Node4 -->
<g id="node4" class="node"><title>Node4</title>
<g id="a_node4"><a xlink:href="../../d6/d0c/classFairDetector.html" target="_top" xlink:title="{FairDetector\n||}">
<polygon fill="none" stroke="black" points="439.697,-1240.5 439.697,-1297.5 510.697,-1297.5 510.697,-1240.5 439.697,-1240.5"/>
<text text-anchor="middle" x="475.197" y="-1285.5" font-family="Helvetica,sans-Serif" font-size="10.00">FairDetector</text>
<polyline fill="none" stroke="black" points="439.697,-1278.5 510.697,-1278.5 "/>
<text text-anchor="middle" x="475.197" y="-1266.5" font-family="Helvetica,sans-Serif" font-size="10.00"> </text>
<polyline fill="none" stroke="black" points="439.697,-1259.5 510.697,-1259.5 "/>
<text text-anchor="middle" x="475.197" y="-1247.5" font-family="Helvetica,sans-Serif" font-size="10.00"> </text>
</a>
</g>
</g>
<!-- Node4&#45;&gt;Node3 -->
<g id="edge3" class="edge"><title>Node4&#45;&gt;Node3</title>
<path fill="none" stroke="midnightblue" d="M475.197,-1230C475.197,-1221.4 475.197,-1211.67 475.197,-1201.19"/>
<polygon fill="none" stroke="midnightblue" points="471.697,-1230.27 475.197,-1240.27 478.697,-1230.27 471.697,-1230.27"/>
</g>
<!-- Node5 -->
<g id="node5" class="node"><title>Node5</title>
<polygon fill="none" stroke="#bfbfbf" points="1.19656,-962.5 1.19656,-1019.5 101.197,-1019.5 101.197,-962.5 1.19656,-962.5"/>
<text text-anchor="middle" x="51.1966" y="-1007.5" font-family="Helvetica,sans-Serif" font-size="10.00">static constexpr int</text>
<polyline fill="none" stroke="#bfbfbf" points="1.19656,-1000.5 101.197,-1000.5 "/>
<text text-anchor="middle" x="51.1966" y="-988.5" font-family="Helvetica,sans-Serif" font-size="10.00"> </text>
<polyline fill="none" stroke="#bfbfbf" points="1.19656,-981.5 101.197,-981.5 "/>
<text text-anchor="middle" x="51.1966" y="-969.5" font-family="Helvetica,sans-Serif" font-size="10.00"> </text>
</g>
<!-- Node5&#45;&gt;Node2 -->
<g id="edge4" class="edge"><title>Node5&#45;&gt;Node2</title>
<path fill="none" stroke="#404040" d="M41.953,-962.483C17.7408,-885.159 -39.9887,-661.689 45.1966,-510 82.1526,-444.192 160.177,-403.357 219.486,-380.604"/>
<polygon fill="none" stroke="#404040" points="219.834,-380.475 224.063,-374.634 231.081,-376.292 226.851,-382.132 219.834,-380.475"/>
<text text-anchor="middle" x="85.1966" y="-613.5" font-family="Helvetica,sans-Serif" font-size="10.00"> #NHITBUFFERS</text>
</g>
<!-- Node5&#45;&gt;Node9 -->
<g id="edge10" class="edge"><title>Node5&#45;&gt;Node9</title>
<path fill="none" stroke="#404040" d="M59.3318,-962.437C72.6969,-920.228 102.277,-838.345 146.197,-780 162.693,-758.085 168.58,-752.101 193.197,-740 227.851,-722.964 245.888,-743.15 278.197,-722 278.302,-721.931 278.407,-721.862 278.513,-721.792"/>
<polygon fill="none" stroke="#404040" points="278.348,-721.913 280.802,-715.132 288.005,-714.789 285.551,-721.57 278.348,-721.913"/>
<text text-anchor="middle" x="233.197" y="-748.5" font-family="Helvetica,sans-Serif" font-size="10.00"> #NHITBUFFERS</text>
</g>
<!-- Node6 -->
<g id="node6" class="node"><title>Node6</title>
<g id="a_node6"><a xlink:href="../../d9/db1/classbool_01_5.html" target="_top" xlink:title="{bool *\n||}">
<polygon fill="none" stroke="black" points="228.697,-587.5 228.697,-644.5 269.697,-644.5 269.697,-587.5 228.697,-587.5"/>
<text text-anchor="middle" x="249.197" y="-632.5" font-family="Helvetica,sans-Serif" font-size="10.00">bool *</text>
<polyline fill="none" stroke="black" points="228.697,-625.5 269.697,-625.5 "/>
<text text-anchor="middle" x="249.197" y="-613.5" font-family="Helvetica,sans-Serif" font-size="10.00"> </text>
<polyline fill="none" stroke="black" points="228.697,-606.5 269.697,-606.5 "/>
<text text-anchor="middle" x="249.197" y="-594.5" font-family="Helvetica,sans-Serif" font-size="10.00"> </text>
</a>
</g>
</g>
<!-- Node6&#45;&gt;Node2 -->
<g id="edge5" class="edge"><title>Node6&#45;&gt;Node2</title>
<path fill="none" stroke="#404040" d="M250.128,-587.387C251.41,-559.956 254.39,-516.788 261.197,-480 261.596,-477.842 262.016,-475.668 262.456,-473.482"/>
<polygon fill="none" stroke="#404040" points="262.466,-473.432 259.81,-466.728 264.976,-461.698 267.633,-468.402 262.466,-473.432"/>
<text text-anchor="middle" x="291.197" y="-483.5" font-family="Helvetica,sans-Serif" font-size="10.00"> #mShmBusy</text>
</g>
<!-- Node7 -->
<g id="node7" class="node"><title>Node7</title>
<polygon fill="none" stroke="#bfbfbf" points="581.697,-962.5 581.697,-1019.5 610.697,-1019.5 610.697,-962.5 581.697,-962.5"/>
<text text-anchor="middle" x="596.197" y="-1007.5" font-family="Helvetica,sans-Serif" font-size="10.00">int</text>
<polyline fill="none" stroke="#bfbfbf" points="581.697,-1000.5 610.697,-1000.5 "/>
<text text-anchor="middle" x="596.197" y="-988.5" font-family="Helvetica,sans-Serif" font-size="10.00"> </text>
<polyline fill="none" stroke="#bfbfbf" points="581.697,-981.5 610.697,-981.5 "/>
<text text-anchor="middle" x="596.197" y="-969.5" font-family="Helvetica,sans-Serif" font-size="10.00"> </text>
</g>
<!-- Node7&#45;&gt;Node2 -->
<g id="edge6" class="edge"><title>Node7&#45;&gt;Node2</title>
<path fill="none" stroke="#404040" d="M597.139,-962.379C598.474,-884.311 593.035,-658.104 494.197,-510 463.23,-463.599 413.511,-425.252 371.643,-398.554"/>
<polygon fill="none" stroke="#404040" points="371.637,-398.55 364.429,-398.761 361.462,-392.189 368.67,-391.978 371.637,-398.55"/>
<text text-anchor="middle" x="613.197" y="-619" font-family="Helvetica,sans-Serif" font-size="10.00"> #mCurrentBuffer</text>
<text text-anchor="middle" x="613.197" y="-608" font-family="Helvetica,sans-Serif" font-size="10.00">#mInitialized</text>
</g>
<!-- Node7&#45;&gt;Node9 -->
<g id="edge11" class="edge"><title>Node7&#45;&gt;Node9</title>
<path fill="none" stroke="#404040" d="M600.935,-962.457C606.843,-918.41 611.369,-831.814 567.197,-780 549.411,-759.137 531.932,-775.72 508.197,-762 479.073,-745.166 451.01,-721.899 426.954,-698.929"/>
<polygon fill="none" stroke="#404040" points="426.882,-698.858 419.791,-697.542 418.279,-690.492 425.369,-691.807 426.882,-698.858"/>
<text text-anchor="middle" x="546.197" y="-754" font-family="Helvetica,sans-Serif" font-size="10.00"> #mCurrentBuffer</text>
<text text-anchor="middle" x="546.197" y="-743" font-family="Helvetica,sans-Serif" font-size="10.00">#mInitialized</text>
</g>
<!-- Node8 -->
<g id="node8" class="node"><title>Node8</title>
<polygon fill="none" stroke="#bfbfbf" points="155.197,-962.5 155.197,-1019.5 241.197,-1019.5 241.197,-962.5 155.197,-962.5"/>
<text text-anchor="middle" x="198.197" y="-1007.5" font-family="Helvetica,sans-Serif" font-size="10.00">vector&lt; void * &gt;</text>
<polyline fill="none" stroke="#bfbfbf" points="155.197,-1000.5 241.197,-1000.5 "/>
<text text-anchor="middle" x="198.197" y="-988.5" font-family="Helvetica,sans-Serif" font-size="10.00"> </text>
<polyline fill="none" stroke="#bfbfbf" points="155.197,-981.5 241.197,-981.5 "/>
<text text-anchor="middle" x="198.197" y="-969.5" font-family="Helvetica,sans-Serif" font-size="10.00"> </text>
</g>
<!-- Node8&#45;&gt;Node2 -->
<g id="edge7" class="edge"><title>Node8&#45;&gt;Node2</title>
<path fill="none" stroke="#404040" d="M187.351,-962.256C159.518,-886.628 92.0443,-671.716 155.197,-510 169.127,-474.329 195.701,-441.963 222.057,-416.282"/>
<polygon fill="none" stroke="#404040" points="222.26,-416.09 223.862,-409.059 230.968,-407.834 229.366,-414.865 222.26,-416.09"/>
<text text-anchor="middle" x="187.197" y="-613.5" font-family="Helvetica,sans-Serif" font-size="10.00"> #mCachedPtr</text>
</g>
<!-- Node8&#45;&gt;Node9 -->
<g id="edge12" class="edge"><title>Node8&#45;&gt;Node9</title>
<path fill="none" stroke="#404040" d="M206.114,-962.407C219.887,-915.696 250.158,-818.47 285.197,-740 286.288,-737.556 287.41,-735.096 288.56,-732.625"/>
<polygon fill="none" stroke="#404040" points="288.585,-732.573 287.56,-725.435 293.754,-721.743 294.779,-728.881 288.585,-732.573"/>
<text text-anchor="middle" x="317.197" y="-748.5" font-family="Helvetica,sans-Serif" font-size="10.00"> #mCachedPtr</text>
</g>
<!-- Node9&#45;&gt;Node2 -->
<g id="edge8" class="edge"><title>Node9&#45;&gt;Node2</title>
<path fill="none" stroke="orange" d="M327.92,-500.589C325.062,-487.653 322.16,-474.519 319.331,-461.715"/>
<polygon fill="orange" stroke="orange" points="324.52,-501.424 330.095,-510.433 331.355,-499.914 324.52,-501.424"/>
<text text-anchor="middle" x="354.697" y="-483.5" font-family="Helvetica,sans-Serif" font-size="10.00"> &lt; Detector &gt;</text>
</g>
<!-- Node10 -->
<g id="node10" class="node"><title>Node10</title>
<polygon fill="none" stroke="#bfbfbf" points="335.697,-962.5 335.697,-1019.5 370.697,-1019.5 370.697,-962.5 335.697,-962.5"/>
<text text-anchor="middle" x="353.197" y="-1007.5" font-family="Helvetica,sans-Serif" font-size="10.00">bool</text>
<polyline fill="none" stroke="#bfbfbf" points="335.697,-1000.5 370.697,-1000.5 "/>
<text text-anchor="middle" x="353.197" y="-988.5" font-family="Helvetica,sans-Serif" font-size="10.00"> </text>
<polyline fill="none" stroke="#bfbfbf" points="335.697,-981.5 370.697,-981.5 "/>
<text text-anchor="middle" x="353.197" y="-969.5" font-family="Helvetica,sans-Serif" font-size="10.00"> </text>
</g>
<!-- Node10&#45;&gt;Node9 -->
<g id="edge13" class="edge"><title>Node10&#45;&gt;Node9</title>
<path fill="none" stroke="#404040" d="M353.197,-962.269C353.197,-914.493 353.197,-814.062 353.197,-733.772"/>
<polygon fill="none" stroke="#404040" points="353.197,-733.576 349.197,-727.576 353.197,-721.576 357.197,-727.576 353.197,-733.576"/>
<text text-anchor="middle" x="383.197" y="-748.5" font-family="Helvetica,sans-Serif" font-size="10.00"> #mShmBusy</text>
</g>
</g>
</svg>
        <g id="navigator" transform="translate(0 0)" fill="#404254">
                <rect fill="#f2f5e9" fill-opacity="0.5" stroke="#606060" stroke-width=".5" x="0" y="0" width="60" height="60"/>
                <use id="zoomplus" xlink:href="#zoomPlus" x="17" y="9" onmousedown="handleZoom(evt,'in')"/>
                <use id="zoomminus" xlink:href="#zoomMin" x="42" y="9" onmousedown="handleZoom(evt,'out')"/>
                <use id="reset" xlink:href="#resetDef" x="30" y="36" onmousedown="handleReset()"/>
                <g id="arrowUp" xlink:href="#dirArrow" transform="translate(30 24)" onmousedown="handlePan(0,-1)">
                  <use xlink:href="#rim" fill="#404040">
                        <set attributeName="fill" to="#808080" begin="arrowUp.mouseover" end="arrowUp.mouseout"/>
                  </use>
                  <path fill="none" stroke="white" stroke-width="1.5" d="M0,-3.0v7 M-2.5,-0.5L0,-3.0L2.5,-0.5"/>
                </g>
                <g id="arrowRight" xlink:href="#dirArrow" transform="rotate(90) translate(36 -43)" onmousedown="handlePan(1,0)">
                  <use xlink:href="#rim" fill="#404040">
                        <set attributeName="fill" to="#808080" begin="arrowRight.mouseover" end="arrowRight.mouseout"/>
                  </use>
                  <path fill="none" stroke="white" stroke-width="1.5" d="M0,-3.0v7 M-2.5,-0.5L0,-3.0L2.5,-0.5"/>
                </g>
                <g id="arrowDown" xlink:href="#dirArrow" transform="rotate(180) translate(-30 -48)" onmousedown="handlePan(0,1)">
                  <use xlink:href="#rim" fill="#404040">
                        <set attributeName="fill" to="#808080" begin="arrowDown.mouseover" end="arrowDown.mouseout"/>
                  </use>
                  <path fill="none" stroke="white" stroke-width="1.5" d="M0,-3.0v7 M-2.5,-0.5L0,-3.0L2.5,-0.5"/>
                </g>
                <g id="arrowLeft" xlink:href="#dirArrow" transform="rotate(270) translate(-36 17)" onmousedown="handlePan(-1,0)">
                  <use xlink:href="#rim" fill="#404040">
                        <set attributeName="fill" to="#808080" begin="arrowLeft.mouseover" end="arrowLeft.mouseout"/>
                  </use>
                  <path fill="none" stroke="white" stroke-width="1.5" d="M0,-3.0v7 M-2.5,-0.5L0,-3.0L2.5,-0.5"/>
                </g>
        </g>
        <svg viewBox="0 0 15 15" width="100%" height="30px" preserveAspectRatio="xMaxYMin meet">
         <g id="arrow_out" transform="scale(0.3 0.3)">
          <a xlink:href="classo2_1_1tof_1_1Detector__coll__graph_org.svg" target="_base">
           <rect id="button" ry="5" rx="5" y="6" x="6" height="38" width="38"
                fill="#f2f5e9" fill-opacity="0.5" stroke="#606060" stroke-width="1.0"/>
           <path id="arrow"
             d="M 11.500037,31.436501 C 11.940474,20.09759 22.043105,11.32322 32.158766,21.979434 L 37.068811,17.246167 C 37.068811,17.246167 37.088388,32 37.088388,32 L 22.160133,31.978069 C 22.160133,31.978069 26.997745,27.140456 26.997745,27.140456 C 18.528582,18.264221 13.291696,25.230495 11.500037,31.436501 z"
             style="fill:#404040;"/>
          </a>
         </g>
        </svg>
</svg>
