<?xml version="1.0" encoding="UTF-8" standalone="no"?>
<!DOCTYPE svg PUBLIC "-//W3C//DTD SVG 1.1//EN"
 "http://www.w3.org/Graphics/SVG/1.1/DTD/svg11.dtd">
<!-- Generated by graphviz version 2.36.0 (20140111.2315)
 -->
<!-- Title: /home/travis/build/AliceO2Group/AliceO2/Detectors/TOF/simulation/include/TOFSimulation/DigitizerTask.h Pages: 1 -->
<svg width="2670pt" height="512pt"
 viewBox="0.00 0.00 2670.00 512.00" xmlns="http://www.w3.org/2000/svg" xmlns:xlink="http://www.w3.org/1999/xlink">
<g id="graph0" class="graph" transform="scale(1 1) rotate(0) translate(4 508)">
<title>/home/travis/build/AliceO2Group/AliceO2/Detectors/TOF/simulation/include/TOFSimulation/DigitizerTask.h</title>
<!-- Node1 -->
<g id="node1" class="node"><title>Node1</title>
<polygon fill="#bfbfbf" stroke="black" points="1559,-440.5 1559,-503.5 1717,-503.5 1717,-440.5 1559,-440.5"/>
<text text-anchor="start" x="1567" y="-491.5" font-family="Helvetica,sans-Serif" font-size="10.00">/home/travis/build</text>
<text text-anchor="start" x="1567" y="-480.5" font-family="Helvetica,sans-Serif" font-size="10.00">/AliceO2Group/AliceO2</text>
<text text-anchor="start" x="1567" y="-469.5" font-family="Helvetica,sans-Serif" font-size="10.00">/Detectors/TOF/simulation</text>
<text text-anchor="start" x="1567" y="-458.5" font-family="Helvetica,sans-Serif" font-size="10.00">/include/TOFSimulation/Digitizer</text>
<text text-anchor="middle" x="1638" y="-447.5" font-family="Helvetica,sans-Serif" font-size="10.00">Task.h</text>
</g>
<!-- Node2 -->
<g id="node2" class="node"><title>Node2</title>
<polygon fill="none" stroke="#bfbfbf" points="1163.5,-384.5 1163.5,-403.5 1226.5,-403.5 1226.5,-384.5 1163.5,-384.5"/>
<text text-anchor="middle" x="1195" y="-391.5" font-family="Helvetica,sans-Serif" font-size="10.00">FairTask.h</text>
</g>
<!-- Node1&#45;&gt;Node2 -->
<g id="edge1" class="edge"><title>Node1&#45;&gt;Node2</title>
<path fill="none" stroke="midnightblue" d="M1558.8,-458.257C1478.6,-445.205 1351.03,-424.044 1241,-404 1239.55,-403.736 1238.07,-403.464 1236.58,-403.186"/>
<polygon fill="midnightblue" stroke="midnightblue" points="1237.13,-399.728 1226.65,-401.305 1235.83,-406.606 1237.13,-399.728"/>
</g>
<!-- Node3 -->
<g id="node3" class="node"><title>Node3</title>
<polygon fill="none" stroke="#bfbfbf" points="1423,-74.5 1423,-93.5 1479,-93.5 1479,-74.5 1423,-74.5"/>
<text text-anchor="middle" x="1451" y="-81.5" font-family="Helvetica,sans-Serif" font-size="10.00">Rtypes.h</text>
</g>
<!-- Node1&#45;&gt;Node3 -->
<g id="edge2" class="edge"><title>Node1&#45;&gt;Node3</title>
<path fill="none" stroke="midnightblue" d="M1717.22,-464.784C1854.24,-451.83 2121,-415.958 2121,-333 2121,-333 2121,-333 2121,-269 2121,-259.598 2456.64,-312.014 1719,-136 1617.93,-111.883 1588.14,-127.703 1488,-100 1485.18,-99.2204 1482.29,-98.2903 1479.42,-97.2806"/>
<polygon fill="midnightblue" stroke="midnightblue" points="1480.5,-93.9479 1469.91,-93.6437 1478,-100.486 1480.5,-93.9479"/>
</g>
<!-- Node4 -->
<g id="node4" class="node"><title>Node4</title>
<g id="a_node4"><a xlink:href="../../df/d9c/TOF_2base_2include_2TOFBase_2Digit_8h.html" target="_top" xlink:title="TOFBase/Digit.h">
<polygon fill="none" stroke="black" points="1636,-260.5 1636,-279.5 1726,-279.5 1726,-260.5 1636,-260.5"/>
<text text-anchor="middle" x="1681" y="-267.5" font-family="Helvetica,sans-Serif" font-size="10.00">TOFBase/Digit.h</text>
</a>
</g>
</g>
<!-- Node1&#45;&gt;Node4 -->
<g id="edge3" class="edge"><title>Node1&#45;&gt;Node4</title>
<path fill="none" stroke="midnightblue" d="M1646.99,-440.388C1654.01,-415.637 1663.61,-379.801 1670,-348 1673.98,-328.184 1677.07,-305.219 1678.94,-289.56"/>
<polygon fill="midnightblue" stroke="midnightblue" points="1682.42,-289.935 1680.09,-279.599 1675.47,-289.133 1682.42,-289.935"/>
</g>
<!-- Node7 -->
<g id="node7" class="node"><title>Node7</title>
<g id="a_node7"><a xlink:href="../../d5/d3c/TOF_2simulation_2include_2TOFSimulation_2Detector_8h.html" target="_top" xlink:title="TOFSimulation/Detector.h">
<polygon fill="none" stroke="black" points="1016.5,-260.5 1016.5,-279.5 1147.5,-279.5 1147.5,-260.5 1016.5,-260.5"/>
<text text-anchor="middle" x="1082" y="-267.5" font-family="Helvetica,sans-Serif" font-size="10.00">TOFSimulation/Detector.h</text>
</a>
</g>
</g>
<!-- Node1&#45;&gt;Node7 -->
<g id="edge7" class="edge"><title>Node1&#45;&gt;Node7</title>
<path fill="none" stroke="midnightblue" d="M1558.99,-446.401C1483.9,-422.613 1368.05,-384.85 1269,-348 1212.45,-326.962 1147.56,-299.472 1111.01,-283.672"/>
<polygon fill="midnightblue" stroke="midnightblue" points="1112.05,-280.308 1101.48,-279.541 1109.26,-286.73 1112.05,-280.308"/>
</g>
<!-- Node43 -->
<g id="node43" class="node"><title>Node43</title>
<g id="a_node43"><a xlink:href="../../d0/d85/TOF_2simulation_2include_2TOFSimulation_2Digitizer_8h.html" target="_top" xlink:title="TOFSimulation/Digitizer.h">
<polygon fill="none" stroke="black" points="1507.5,-384.5 1507.5,-403.5 1636.5,-403.5 1636.5,-384.5 1507.5,-384.5"/>
<text text-anchor="middle" x="1572" y="-391.5" font-family="Helvetica,sans-Serif" font-size="10.00">TOFSimulation/Digitizer.h</text>
</a>
</g>
</g>
<!-- Node1&#45;&gt;Node43 -->
<g id="edge53" class="edge"><title>Node1&#45;&gt;Node43</title>
<path fill="none" stroke="midnightblue" d="M1611.16,-440.088C1602.59,-430.225 1593.45,-419.701 1586.16,-411.304"/>
<polygon fill="midnightblue" stroke="midnightblue" points="1588.77,-408.974 1579.57,-403.718 1583.49,-413.563 1588.77,-408.974"/>
</g>
<!-- Node48 -->
<g id="node48" class="node"><title>Node48</title>
<g id="a_node48"><a xlink:href="../../db/d14/MCTruthContainer_8h.html" target="_top" xlink:title="Definition of a container to keep Monte Carlo truth external to simulation objects. ">
<polygon fill="none" stroke="black" points="1805,-317 1805,-347 1919,-347 1919,-317 1805,-317"/>
<text text-anchor="start" x="1813" y="-335" font-family="Helvetica,sans-Serif" font-size="10.00">SimulationDataFormat</text>
<text text-anchor="middle" x="1862" y="-324" font-family="Helvetica,sans-Serif" font-size="10.00">/MCTruthContainer.h</text>
</a>
</g>
</g>
<!-- Node1&#45;&gt;Node48 -->
<g id="edge75" class="edge"><title>Node1&#45;&gt;Node48</title>
<path fill="none" stroke="midnightblue" d="M1687.71,-440.373C1731.2,-413.581 1793.06,-375.471 1830.19,-352.595"/>
<polygon fill="midnightblue" stroke="midnightblue" points="1832.4,-355.349 1839.07,-347.124 1828.72,-349.389 1832.4,-355.349"/>
</g>
<!-- Node4&#45;&gt;Node3 -->
<g id="edge5" class="edge"><title>Node4&#45;&gt;Node3</title>
<path fill="none" stroke="midnightblue" d="M1680.79,-260.338C1679.73,-236.643 1673.39,-170.247 1636,-136 1586.08,-90.2749 1552.43,-120.773 1488,-100 1485.43,-99.1712 1482.78,-98.2471 1480.15,-97.276"/>
<polygon fill="midnightblue" stroke="midnightblue" points="1481.36,-93.9937 1470.77,-93.6391 1478.83,-100.52 1481.36,-93.9937"/>
</g>
<!-- Node5 -->
<g id="node5" class="node"><title>Node5</title>
<polygon fill="none" stroke="#bfbfbf" points="2617.5,-74.5 2617.5,-93.5 2662.5,-93.5 2662.5,-74.5 2617.5,-74.5"/>
<text text-anchor="middle" x="2640" y="-81.5" font-family="Helvetica,sans-Serif" font-size="10.00">iosfwd</text>
</g>
<!-- Node4&#45;&gt;Node5 -->
<g id="edge4" class="edge"><title>Node4&#45;&gt;Node5</title>
<path fill="none" stroke="midnightblue" d="M1726.38,-264.911C1862.66,-251.75 2279.21,-205.079 2608,-100 2610.14,-99.3171 2612.32,-98.5233 2614.48,-97.6641"/>
<polygon fill="midnightblue" stroke="midnightblue" points="2615.96,-100.837 2623.72,-93.6212 2613.15,-94.4244 2615.96,-100.837"/>
</g>
<!-- Node6 -->
<g id="node6" class="node"><title>Node6</title>
<polygon fill="none" stroke="#bfbfbf" points="1700.5,-193 1700.5,-223 1795.5,-223 1795.5,-193 1700.5,-193"/>
<text text-anchor="start" x="1708.5" y="-211" font-family="Helvetica,sans-Serif" font-size="10.00">boost/serialization</text>
<text text-anchor="middle" x="1748" y="-200" font-family="Helvetica,sans-Serif" font-size="10.00">/base_object.hpp</text>
</g>
<!-- Node4&#45;&gt;Node6 -->
<g id="edge6" class="edge"><title>Node4&#45;&gt;Node6</title>
<path fill="none" stroke="midnightblue" d="M1690.6,-260.403C1699.42,-252.505 1712.85,-240.477 1724.5,-230.041"/>
<polygon fill="midnightblue" stroke="midnightblue" points="1727.09,-232.419 1732.21,-223.141 1722.42,-227.205 1727.09,-232.419"/>
</g>
<!-- Node8 -->
<g id="node8" class="node"><title>Node8</title>
<g id="a_node8"><a xlink:href="../../d1/d3a/Base_2include_2DetectorsBase_2Detector_8h.html" target="_top" xlink:title="DetectorsBase/Detector.h">
<polygon fill="none" stroke="black" points="857.5,-198.5 857.5,-217.5 988.5,-217.5 988.5,-198.5 857.5,-198.5"/>
<text text-anchor="middle" x="923" y="-205.5" font-family="Helvetica,sans-Serif" font-size="10.00">DetectorsBase/Detector.h</text>
</a>
</g>
</g>
<!-- Node7&#45;&gt;Node8 -->
<g id="edge8" class="edge"><title>Node7&#45;&gt;Node8</title>
<path fill="none" stroke="midnightblue" d="M1059.22,-260.403C1031.95,-250.111 986.087,-232.806 955.199,-221.15"/>
<polygon fill="midnightblue" stroke="midnightblue" points="956.33,-217.837 945.739,-217.581 953.859,-224.386 956.33,-217.837"/>
</g>
<!-- Node27 -->
<g id="node27" class="node"><title>Node27</title>
<g id="a_node27"><a xlink:href="../../d0/d91/ShmAllocator_8h.html" target="_top" xlink:title="CommonUtils/ShmAllocator.h">
<polygon fill="none" stroke="black" points="116,-136.5 116,-155.5 262,-155.5 262,-136.5 116,-136.5"/>
<text text-anchor="middle" x="189" y="-143.5" font-family="Helvetica,sans-Serif" font-size="10.00">CommonUtils/ShmAllocator.h</text>
</a>
</g>
</g>
<!-- Node7&#45;&gt;Node27 -->
<g id="edge52" class="edge"><title>Node7&#45;&gt;Node27</title>
<path fill="none" stroke="midnightblue" d="M1019.56,-260.47C859.001,-238.534 432.419,-180.255 261.407,-156.892"/>
<polygon fill="midnightblue" stroke="midnightblue" points="261.877,-153.424 251.496,-155.538 260.93,-160.36 261.877,-153.424"/>
</g>
<!-- Node31 -->
<g id="node31" class="node"><title>Node31</title>
<g id="a_node31"><a xlink:href="../../d4/d54/Geo_8h.html" target="_top" xlink:title="TOFBase/Geo.h">
<polygon fill="none" stroke="black" points="1386,-198.5 1386,-217.5 1474,-217.5 1474,-198.5 1386,-198.5"/>
<text text-anchor="middle" x="1430" y="-205.5" font-family="Helvetica,sans-Serif" font-size="10.00">TOFBase/Geo.h</text>
</a>
</g>
</g>
<!-- Node7&#45;&gt;Node31 -->
<g id="edge37" class="edge"><title>Node7&#45;&gt;Node31</title>
<path fill="none" stroke="midnightblue" d="M1131.49,-260.467C1196.19,-249.312 1309.13,-229.84 1375.99,-218.312"/>
<polygon fill="midnightblue" stroke="midnightblue" points="1376.65,-221.75 1385.91,-216.602 1375.46,-214.852 1376.65,-221.75"/>
</g>
<!-- Node32 -->
<g id="node32" class="node"><title>Node32</title>
<g id="a_node32"><a xlink:href="../../d4/d25/BaseHits_8h.html" target="_top" xlink:title="SimulationDataFormat\l/BaseHits.h">
<polygon fill="none" stroke="black" points="1102,-193 1102,-223 1216,-223 1216,-193 1102,-193"/>
<text text-anchor="start" x="1110" y="-211" font-family="Helvetica,sans-Serif" font-size="10.00">SimulationDataFormat</text>
<text text-anchor="middle" x="1159" y="-200" font-family="Helvetica,sans-Serif" font-size="10.00">/BaseHits.h</text>
</a>
</g>
</g>
<!-- Node7&#45;&gt;Node32 -->
<g id="edge39" class="edge"><title>Node7&#45;&gt;Node32</title>
<path fill="none" stroke="midnightblue" d="M1093.03,-260.403C1103.36,-252.353 1119.2,-240.013 1132.77,-229.441"/>
<polygon fill="midnightblue" stroke="midnightblue" points="1135.12,-232.048 1140.85,-223.141 1130.81,-226.527 1135.12,-232.048"/>
</g>
<!-- Node8&#45;&gt;Node3 -->
<g id="edge20" class="edge"><title>Node8&#45;&gt;Node3</title>
<path fill="none" stroke="midnightblue" d="M988.697,-202.287C1060.32,-196.05 1177.83,-182.584 1276,-156 1304.64,-148.245 1380.25,-115.967 1422.11,-97.7171"/>
<polygon fill="midnightblue" stroke="midnightblue" points="1423.72,-100.832 1431.48,-93.6184 1420.92,-94.4181 1423.72,-100.832"/>
</g>
<!-- Node9 -->
<g id="node9" class="node"><title>Node9</title>
<polygon fill="none" stroke="#bfbfbf" points="494.5,-74.5 494.5,-93.5 529.5,-93.5 529.5,-74.5 494.5,-74.5"/>
<text text-anchor="middle" x="512" y="-81.5" font-family="Helvetica,sans-Serif" font-size="10.00">map</text>
</g>
<!-- Node8&#45;&gt;Node9 -->
<g id="edge9" class="edge"><title>Node8&#45;&gt;Node9</title>
<path fill="none" stroke="midnightblue" d="M857.481,-207.023C758.745,-205.681 578.302,-197.432 531,-156 516.182,-143.021 512.326,-119.877 511.6,-103.547"/>
<polygon fill="midnightblue" stroke="midnightblue" points="515.1,-103.504 511.501,-93.5389 508.1,-103.573 515.1,-103.504"/>
</g>
<!-- Node10 -->
<g id="node10" class="node"><title>Node10</title>
<polygon fill="none" stroke="#bfbfbf" points="1341,-136.5 1341,-155.5 1385,-155.5 1385,-136.5 1341,-136.5"/>
<text text-anchor="middle" x="1363" y="-143.5" font-family="Helvetica,sans-Serif" font-size="10.00">vector</text>
</g>
<!-- Node8&#45;&gt;Node10 -->
<g id="edge10" class="edge"><title>Node8&#45;&gt;Node10</title>
<path fill="none" stroke="midnightblue" d="M988.799,-201.13C1069.07,-193.41 1208.7,-178.172 1327,-156 1328.25,-155.766 1329.51,-155.515 1330.79,-155.251"/>
<polygon fill="midnightblue" stroke="midnightblue" points="1331.64,-158.649 1340.62,-153.034 1330.1,-151.82 1331.64,-158.649"/>
</g>
<!-- Node11 -->
<g id="node11" class="node"><title>Node11</title>
<polygon fill="none" stroke="#bfbfbf" points="261.5,-74.5 261.5,-93.5 334.5,-93.5 334.5,-74.5 261.5,-74.5"/>
<text text-anchor="middle" x="298" y="-81.5" font-family="Helvetica,sans-Serif" font-size="10.00">initializer_list</text>
</g>
<!-- Node8&#45;&gt;Node11 -->
<g id="edge11" class="edge"><title>Node8&#45;&gt;Node11</title>
<path fill="none" stroke="midnightblue" d="M857.499,-203.726C703.306,-195.729 328.86,-174.501 309,-156 294.91,-142.875 293.814,-119.761 295.163,-103.478"/>
<polygon fill="midnightblue" stroke="midnightblue" points="298.644,-103.849 296.359,-93.503 291.693,-103.015 298.644,-103.849"/>
</g>
<!-- Node12 -->
<g id="node12" class="node"><title>Node12</title>
<polygon fill="none" stroke="#bfbfbf" points="540,-136.5 540,-155.5 592,-155.5 592,-136.5 540,-136.5"/>
<text text-anchor="middle" x="566" y="-143.5" font-family="Helvetica,sans-Serif" font-size="10.00">memory</text>
</g>
<!-- Node8&#45;&gt;Node12 -->
<g id="edge12" class="edge"><title>Node8&#45;&gt;Node12</title>
<path fill="none" stroke="midnightblue" d="M857.607,-198.492C794.548,-189.869 696.26,-175.331 602.272,-156.108"/>
<polygon fill="midnightblue" stroke="midnightblue" points="602.812,-152.646 592.311,-154.05 601.396,-159.502 602.812,-152.646"/>
</g>
<!-- Node13 -->
<g id="node13" class="node"><title>Node13</title>
<polygon fill="none" stroke="#bfbfbf" points="610.5,-136.5 610.5,-155.5 689.5,-155.5 689.5,-136.5 610.5,-136.5"/>
<text text-anchor="middle" x="650" y="-143.5" font-family="Helvetica,sans-Serif" font-size="10.00">FairDetector.h</text>
</g>
<!-- Node8&#45;&gt;Node13 -->
<g id="edge13" class="edge"><title>Node8&#45;&gt;Node13</title>
<path fill="none" stroke="midnightblue" d="M884.176,-198.467C835.358,-187.738 751.536,-169.316 698.536,-157.667"/>
<polygon fill="midnightblue" stroke="midnightblue" points="699.209,-154.232 688.69,-155.503 697.706,-161.068 699.209,-154.232"/>
</g>
<!-- Node14 -->
<g id="node14" class="node"><title>Node14</title>
<polygon fill="none" stroke="#bfbfbf" points="708,-136.5 708,-155.5 808,-155.5 808,-136.5 708,-136.5"/>
<text text-anchor="middle" x="758" y="-143.5" font-family="Helvetica,sans-Serif" font-size="10.00">FairRootManager.h</text>
</g>
<!-- Node8&#45;&gt;Node14 -->
<g id="edge14" class="edge"><title>Node8&#45;&gt;Node14</title>
<path fill="none" stroke="midnightblue" d="M899.36,-198.403C870.934,-188.067 823.055,-170.656 790.998,-158.999"/>
<polygon fill="midnightblue" stroke="midnightblue" points="792.191,-155.709 781.597,-155.581 789.798,-162.287 792.191,-155.709"/>
</g>
<!-- Node15 -->
<g id="node15" class="node"><title>Node15</title>
<g id="a_node15"><a xlink:href="../../d0/d9a/MaterialManager_8h.html" target="_top" xlink:title="DetectorsBase/MaterialManager.h">
<polygon fill="none" stroke="black" points="318.5,-136.5 318.5,-155.5 483.5,-155.5 483.5,-136.5 318.5,-136.5"/>
<text text-anchor="middle" x="401" y="-143.5" font-family="Helvetica,sans-Serif" font-size="10.00">DetectorsBase/MaterialManager.h</text>
</a>
</g>
</g>
<!-- Node8&#45;&gt;Node15 -->
<g id="edge15" class="edge"><title>Node8&#45;&gt;Node15</title>
<path fill="none" stroke="midnightblue" d="M857.417,-199.462C763.077,-188.618 589.034,-168.613 485.271,-156.686"/>
<polygon fill="midnightblue" stroke="midnightblue" points="485.479,-153.187 475.145,-155.522 484.68,-160.141 485.479,-153.187"/>
</g>
<!-- Node17 -->
<g id="node17" class="node"><title>Node17</title>
<polygon fill="none" stroke="#bfbfbf" points="826.5,-136.5 826.5,-155.5 879.5,-155.5 879.5,-136.5 826.5,-136.5"/>
<text text-anchor="middle" x="853" y="-143.5" font-family="Helvetica,sans-Serif" font-size="10.00">cxxabi.h</text>
</g>
<!-- Node8&#45;&gt;Node17 -->
<g id="edge21" class="edge"><title>Node8&#45;&gt;Node17</title>
<path fill="none" stroke="midnightblue" d="M912.971,-198.403C901.951,-188.958 884.04,-173.606 870.657,-162.134"/>
<polygon fill="midnightblue" stroke="midnightblue" points="872.881,-159.431 863.011,-155.581 868.325,-164.746 872.881,-159.431"/>
</g>
<!-- Node18 -->
<g id="node18" class="node"><title>Node18</title>
<polygon fill="none" stroke="#bfbfbf" points="897.5,-136.5 897.5,-155.5 948.5,-155.5 948.5,-136.5 897.5,-136.5"/>
<text text-anchor="middle" x="923" y="-143.5" font-family="Helvetica,sans-Serif" font-size="10.00">typeinfo</text>
</g>
<!-- Node8&#45;&gt;Node18 -->
<g id="edge22" class="edge"><title>Node8&#45;&gt;Node18</title>
<path fill="none" stroke="midnightblue" d="M923,-198.403C923,-189.938 923,-176.728 923,-165.82"/>
<polygon fill="midnightblue" stroke="midnightblue" points="926.5,-165.581 923,-155.581 919.5,-165.581 926.5,-165.581"/>
</g>
<!-- Node19 -->
<g id="node19" class="node"><title>Node19</title>
<polygon fill="none" stroke="#bfbfbf" points="1566,-136.5 1566,-155.5 1628,-155.5 1628,-136.5 1566,-136.5"/>
<text text-anchor="middle" x="1597" y="-143.5" font-family="Helvetica,sans-Serif" font-size="10.00">type_traits</text>
</g>
<!-- Node8&#45;&gt;Node19 -->
<g id="edge23" class="edge"><title>Node8&#45;&gt;Node19</title>
<path fill="none" stroke="midnightblue" d="M988.545,-201.165C1126.33,-188.9 1442.58,-160.746 1555.77,-150.67"/>
<polygon fill="midnightblue" stroke="midnightblue" points="1556.11,-154.154 1565.76,-149.781 1555.49,-147.181 1556.11,-154.154"/>
</g>
<!-- Node20 -->
<g id="node20" class="node"><title>Node20</title>
<polygon fill="none" stroke="#bfbfbf" points="966.5,-136.5 966.5,-155.5 1007.5,-155.5 1007.5,-136.5 966.5,-136.5"/>
<text text-anchor="middle" x="987" y="-143.5" font-family="Helvetica,sans-Serif" font-size="10.00">string</text>
</g>
<!-- Node8&#45;&gt;Node20 -->
<g id="edge24" class="edge"><title>Node8&#45;&gt;Node20</title>
<path fill="none" stroke="midnightblue" d="M932.17,-198.403C942.15,-189.047 958.312,-173.895 970.509,-162.46"/>
<polygon fill="midnightblue" stroke="midnightblue" points="972.946,-164.973 977.847,-155.581 968.158,-159.867 972.946,-164.973"/>
</g>
<!-- Node21 -->
<g id="node21" class="node"><title>Node21</title>
<polygon fill="none" stroke="#bfbfbf" points="1025.5,-136.5 1025.5,-155.5 1096.5,-155.5 1096.5,-136.5 1025.5,-136.5"/>
<text text-anchor="middle" x="1061" y="-143.5" font-family="Helvetica,sans-Serif" font-size="10.00">TMessage.h</text>
</g>
<!-- Node8&#45;&gt;Node21 -->
<g id="edge25" class="edge"><title>Node8&#45;&gt;Node21</title>
<path fill="none" stroke="midnightblue" d="M942.772,-198.403C966.136,-188.245 1005.21,-171.255 1032,-159.607"/>
<polygon fill="midnightblue" stroke="midnightblue" points="1033.49,-162.778 1041.26,-155.581 1030.7,-156.358 1033.49,-162.778"/>
</g>
<!-- Node22 -->
<g id="node22" class="node"><title>Node22</title>
<g id="a_node22"><a xlink:href="../../de/d61/ShmManager_8h.html" target="_top" xlink:title="CommonUtils/ShmManager.h">
<polygon fill="none" stroke="black" points="56,-74.5 56,-93.5 202,-93.5 202,-74.5 56,-74.5"/>
<text text-anchor="middle" x="129" y="-81.5" font-family="Helvetica,sans-Serif" font-size="10.00">CommonUtils/ShmManager.h</text>
</a>
</g>
</g>
<!-- Node8&#45;&gt;Node22 -->
<g id="edge26" class="edge"><title>Node8&#45;&gt;Node22</title>
<path fill="none" stroke="midnightblue" d="M857.255,-205.319C667.805,-200.158 132.573,-183.221 107,-156 93.1141,-141.219 104.568,-117.829 115.483,-101.97"/>
<polygon fill="midnightblue" stroke="midnightblue" points="118.522,-103.747 121.652,-93.6246 112.893,-99.5856 118.522,-103.747"/>
</g>
<!-- Node8&#45;&gt;Node27 -->
<g id="edge31" class="edge"><title>Node8&#45;&gt;Node27</title>
<path fill="none" stroke="midnightblue" d="M857.289,-202.353C740.328,-193.963 488.357,-175.351 276,-156 274.724,-155.884 273.438,-155.765 272.143,-155.645"/>
<polygon fill="midnightblue" stroke="midnightblue" points="272.375,-152.151 262.089,-154.692 271.714,-159.12 272.375,-152.151"/>
</g>
<!-- Node28 -->
<g id="node28" class="node"><title>Node28</title>
<polygon fill="none" stroke="#bfbfbf" points="1250.5,-74.5 1250.5,-93.5 1299.5,-93.5 1299.5,-74.5 1250.5,-74.5"/>
<text text-anchor="middle" x="1275" y="-81.5" font-family="Helvetica,sans-Serif" font-size="10.00">cassert</text>
</g>
<!-- Node8&#45;&gt;Node28 -->
<g id="edge36" class="edge"><title>Node8&#45;&gt;Node28</title>
<path fill="none" stroke="midnightblue" d="M988.592,-200.743C1079.63,-191.488 1235.37,-173.364 1255,-156 1269.66,-143.026 1273.95,-120.225 1275.02,-103.962"/>
<polygon fill="midnightblue" stroke="midnightblue" points="1278.53,-103.61 1275.33,-93.5093 1271.53,-103.399 1278.53,-103.61"/>
</g>
<!-- Node29 -->
<g id="node29" class="node"><title>Node29</title>
<polygon fill="none" stroke="#bfbfbf" points="1115,-136.5 1115,-155.5 1177,-155.5 1177,-136.5 1115,-136.5"/>
<text text-anchor="middle" x="1146" y="-143.5" font-family="Helvetica,sans-Serif" font-size="10.00">sys/shm.h</text>
</g>
<!-- Node8&#45;&gt;Node29 -->
<g id="edge34" class="edge"><title>Node8&#45;&gt;Node29</title>
<path fill="none" stroke="midnightblue" d="M954.95,-198.403C994.419,-187.784 1061.64,-169.699 1104.91,-158.056"/>
<polygon fill="midnightblue" stroke="midnightblue" points="1106.08,-161.365 1114.83,-155.387 1104.26,-154.606 1106.08,-161.365"/>
</g>
<!-- Node30 -->
<g id="node30" class="node"><title>Node30</title>
<polygon fill="none" stroke="#bfbfbf" points="1195.5,-136.5 1195.5,-155.5 1246.5,-155.5 1246.5,-136.5 1195.5,-136.5"/>
<text text-anchor="middle" x="1221" y="-143.5" font-family="Helvetica,sans-Serif" font-size="10.00">unistd.h</text>
</g>
<!-- Node8&#45;&gt;Node30 -->
<g id="edge35" class="edge"><title>Node8&#45;&gt;Node30</title>
<path fill="none" stroke="midnightblue" d="M970.966,-198.448C1023.62,-188.876 1110.59,-172.532 1185,-156 1185.21,-155.953 1185.43,-155.905 1185.64,-155.858"/>
<polygon fill="midnightblue" stroke="midnightblue" points="1186.53,-159.243 1195.47,-153.558 1184.94,-152.427 1186.53,-159.243"/>
</g>
<!-- Node15&#45;&gt;Node3 -->
<g id="edge16" class="edge"><title>Node15&#45;&gt;Node3</title>
<path fill="none" stroke="midnightblue" d="M483.507,-139.003C499.27,-137.938 515.642,-136.887 531,-136 876.128,-116.061 963.279,-126.043 1308,-100 1343.58,-97.3119 1384.01,-92.9489 1412.78,-89.6196"/>
<polygon fill="midnightblue" stroke="midnightblue" points="1413.3,-93.0832 1422.83,-88.4448 1412.49,-86.1306 1413.3,-93.0832"/>
</g>
<!-- Node15&#45;&gt;Node9 -->
<g id="edge17" class="edge"><title>Node15&#45;&gt;Node9</title>
<path fill="none" stroke="midnightblue" d="M416.904,-136.403C435.285,-126.468 465.756,-109.997 487.245,-98.3812"/>
<polygon fill="midnightblue" stroke="midnightblue" points="488.993,-101.415 496.126,-93.5806 485.665,-95.2568 488.993,-101.415"/>
</g>
<!-- Node15&#45;&gt;Node11 -->
<g id="edge19" class="edge"><title>Node15&#45;&gt;Node11</title>
<path fill="none" stroke="midnightblue" d="M386.243,-136.403C369.339,-126.557 341.417,-110.291 321.51,-98.6949"/>
<polygon fill="midnightblue" stroke="midnightblue" points="323.133,-95.5898 312.73,-93.5806 319.609,-101.638 323.133,-95.5898"/>
</g>
<!-- Node16 -->
<g id="node16" class="node"><title>Node16</title>
<polygon fill="none" stroke="#bfbfbf" points="359.5,-74.5 359.5,-93.5 442.5,-93.5 442.5,-74.5 359.5,-74.5"/>
<text text-anchor="middle" x="401" y="-81.5" font-family="Helvetica,sans-Serif" font-size="10.00">unordered_map</text>
</g>
<!-- Node15&#45;&gt;Node16 -->
<g id="edge18" class="edge"><title>Node15&#45;&gt;Node16</title>
<path fill="none" stroke="midnightblue" d="M401,-136.403C401,-127.938 401,-114.728 401,-103.82"/>
<polygon fill="midnightblue" stroke="midnightblue" points="404.5,-103.581 401,-93.5806 397.5,-103.581 404.5,-103.581"/>
</g>
<!-- Node23 -->
<g id="node23" class="node"><title>Node23</title>
<polygon fill="none" stroke="#bfbfbf" points="-0.5,-6.5 -0.5,-25.5 28.5,-25.5 28.5,-6.5 -0.5,-6.5"/>
<text text-anchor="middle" x="14" y="-13.5" font-family="Helvetica,sans-Serif" font-size="10.00">list</text>
</g>
<!-- Node22&#45;&gt;Node23 -->
<g id="edge27" class="edge"><title>Node22&#45;&gt;Node23</title>
<path fill="none" stroke="midnightblue" d="M112.846,-74.4985C94.3167,-64.6428 63.1263,-47.7334 37,-32 36.5916,-31.7541 36.18,-31.5045 35.7661,-31.2518"/>
<polygon fill="midnightblue" stroke="midnightblue" points="37.3558,-28.1161 27.0329,-25.7312 33.6155,-34.033 37.3558,-28.1161"/>
</g>
<!-- Node24 -->
<g id="node24" class="node"><title>Node24</title>
<polygon fill="none" stroke="#bfbfbf" points="46.5,-6.5 46.5,-25.5 95.5,-25.5 95.5,-6.5 46.5,-6.5"/>
<text text-anchor="middle" x="71" y="-13.5" font-family="Helvetica,sans-Serif" font-size="10.00">cstddef</text>
</g>
<!-- Node22&#45;&gt;Node24 -->
<g id="edge28" class="edge"><title>Node22&#45;&gt;Node24</title>
<path fill="none" stroke="midnightblue" d="M121.418,-74.3717C112.35,-64.053 96.9693,-46.5513 85.5751,-33.5854"/>
<polygon fill="midnightblue" stroke="midnightblue" points="87.9997,-31.0424 78.7695,-25.8411 82.7416,-35.6632 87.9997,-31.0424"/>
</g>
<!-- Node25 -->
<g id="node25" class="node"><title>Node25</title>
<polygon fill="none" stroke="#bfbfbf" points="114,-1 114,-31 262,-31 262,-1 114,-1"/>
<text text-anchor="start" x="122" y="-19" font-family="Helvetica,sans-Serif" font-size="10.00">boost/interprocess</text>
<text text-anchor="middle" x="188" y="-8" font-family="Helvetica,sans-Serif" font-size="10.00">/managed_external_buffer.hpp</text>
</g>
<!-- Node22&#45;&gt;Node25 -->
<g id="edge29" class="edge"><title>Node22&#45;&gt;Node25</title>
<path fill="none" stroke="midnightblue" d="M136.713,-74.3717C144.759,-65.3715 157.69,-50.9067 168.554,-38.7534"/>
<polygon fill="midnightblue" stroke="midnightblue" points="171.267,-40.9695 175.323,-31.1815 166.049,-36.3042 171.267,-40.9695"/>
</g>
<!-- Node26 -->
<g id="node26" class="node"><title>Node26</title>
<polygon fill="none" stroke="#bfbfbf" points="280,-1 280,-31 400,-31 400,-1 280,-1"/>
<text text-anchor="start" x="288" y="-19" font-family="Helvetica,sans-Serif" font-size="10.00">boost/interprocess</text>
<text text-anchor="middle" x="340" y="-8" font-family="Helvetica,sans-Serif" font-size="10.00">/allocators/allocator.hpp</text>
</g>
<!-- Node22&#45;&gt;Node26 -->
<g id="edge30" class="edge"><title>Node22&#45;&gt;Node26</title>
<path fill="none" stroke="midnightblue" d="M156.585,-74.3717C189.161,-64.182 244.13,-46.9877 285.416,-34.0738"/>
<polygon fill="midnightblue" stroke="midnightblue" points="286.564,-37.382 295.063,-31.0562 284.474,-30.7012 286.564,-37.382"/>
</g>
<!-- Node27&#45;&gt;Node22 -->
<g id="edge32" class="edge"><title>Node27&#45;&gt;Node22</title>
<path fill="none" stroke="midnightblue" d="M180.403,-136.403C171.136,-127.136 156.183,-112.183 144.788,-100.788"/>
<polygon fill="midnightblue" stroke="midnightblue" points="147.127,-98.1768 137.581,-93.5806 142.177,-103.127 147.127,-98.1768"/>
</g>
<!-- Node27&#45;&gt;Node28 -->
<g id="edge33" class="edge"><title>Node27&#45;&gt;Node28</title>
<path fill="none" stroke="midnightblue" d="M262.279,-139.245C277.706,-138.106 293.884,-136.966 309,-136 672.978,-112.746 1114.6,-92.2435 1240.19,-86.559"/>
<polygon fill="midnightblue" stroke="midnightblue" points="1240.53,-90.0476 1250.36,-86.1001 1240.21,-83.0547 1240.53,-90.0476"/>
</g>
<!-- Node31&#45;&gt;Node3 -->
<g id="edge38" class="edge"><title>Node31&#45;&gt;Node3</title>
<path fill="none" stroke="midnightblue" d="M1431.51,-198.226C1434.9,-178.53 1443.18,-130.437 1447.78,-103.7"/>
<polygon fill="midnightblue" stroke="midnightblue" points="1451.26,-104.143 1449.5,-93.6944 1444.36,-102.956 1451.26,-104.143"/>
</g>
<!-- Node33 -->
<g id="node33" class="node"><title>Node33</title>
<g id="a_node33"><a xlink:href="../../dd/d76/Cartesian3D_8h.html" target="_top" xlink:title="MathUtils/Cartesian3D.h">
<polygon fill="none" stroke="black" points="1929.5,-136.5 1929.5,-155.5 2054.5,-155.5 2054.5,-136.5 1929.5,-136.5"/>
<text text-anchor="middle" x="1992" y="-143.5" font-family="Helvetica,sans-Serif" font-size="10.00">MathUtils/Cartesian3D.h</text>
</a>
</g>
</g>
<!-- Node32&#45;&gt;Node33 -->
<g id="edge40" class="edge"><title>Node32&#45;&gt;Node33</title>
<path fill="none" stroke="midnightblue" d="M1216.26,-202.876C1363.54,-192.267 1755.43,-164.04 1918.85,-152.269"/>
<polygon fill="midnightblue" stroke="midnightblue" points="1919.55,-155.727 1929.27,-151.518 1919.05,-148.746 1919.55,-155.727"/>
</g>
<!-- Node33&#45;&gt;Node3 -->
<g id="edge46" class="edge"><title>Node33&#45;&gt;Node3</title>
<path fill="none" stroke="midnightblue" d="M1929.4,-137.513C1924.53,-136.982 1919.69,-136.471 1915,-136 1725.5,-116.943 1673.23,-144.277 1488,-100 1484.93,-99.2663 1481.78,-98.3191 1478.68,-97.2575"/>
<polygon fill="midnightblue" stroke="midnightblue" points="1479.68,-93.891 1469.08,-93.5982 1477.18,-100.432 1479.68,-93.891"/>
</g>
<!-- Node33&#45;&gt;Node5 -->
<g id="edge48" class="edge"><title>Node33&#45;&gt;Node5</title>
<path fill="none" stroke="midnightblue" d="M2054.59,-137.421C2059.46,-136.912 2064.31,-136.431 2069,-136 2308.08,-114.057 2375.52,-159.984 2608,-100 2610.5,-99.3562 2613.03,-98.5199 2615.53,-97.5715"/>
<polygon fill="midnightblue" stroke="midnightblue" points="2617.04,-100.733 2624.81,-93.5294 2614.24,-94.3155 2617.04,-100.733"/>
</g>
<!-- Node34 -->
<g id="node34" class="node"><title>Node34</title>
<polygon fill="none" stroke="#bfbfbf" points="1734.5,-69 1734.5,-99 1885.5,-99 1885.5,-69 1734.5,-69"/>
<text text-anchor="start" x="1742.5" y="-87" font-family="Helvetica,sans-Serif" font-size="10.00">Math/GenVector/Displacement</text>
<text text-anchor="middle" x="1810" y="-76" font-family="Helvetica,sans-Serif" font-size="10.00">Vector3D.h</text>
</g>
<!-- Node33&#45;&gt;Node34 -->
<g id="edge41" class="edge"><title>Node33&#45;&gt;Node34</title>
<path fill="none" stroke="midnightblue" d="M1965.92,-136.403C1939,-127.526 1896.24,-113.432 1862.31,-102.245"/>
<polygon fill="midnightblue" stroke="midnightblue" points="1863.14,-98.8323 1852.54,-99.0253 1860.94,-105.48 1863.14,-98.8323"/>
</g>
<!-- Node35 -->
<g id="node35" class="node"><title>Node35</title>
<polygon fill="none" stroke="#bfbfbf" points="1904,-74.5 1904,-93.5 2080,-93.5 2080,-74.5 1904,-74.5"/>
<text text-anchor="middle" x="1992" y="-81.5" font-family="Helvetica,sans-Serif" font-size="10.00">Math/GenVector/PositionVector3D.h</text>
</g>
<!-- Node33&#45;&gt;Node35 -->
<g id="edge42" class="edge"><title>Node33&#45;&gt;Node35</title>
<path fill="none" stroke="midnightblue" d="M1992,-136.403C1992,-127.938 1992,-114.728 1992,-103.82"/>
<polygon fill="midnightblue" stroke="midnightblue" points="1995.5,-103.581 1992,-93.5806 1988.5,-103.581 1995.5,-103.581"/>
</g>
<!-- Node36 -->
<g id="node36" class="node"><title>Node36</title>
<polygon fill="none" stroke="#bfbfbf" points="2097.5,-74.5 2097.5,-93.5 2246.5,-93.5 2246.5,-74.5 2097.5,-74.5"/>
<text text-anchor="middle" x="2172" y="-81.5" font-family="Helvetica,sans-Serif" font-size="10.00">Math/GenVector/Rotation3D.h</text>
</g>
<!-- Node33&#45;&gt;Node36 -->
<g id="edge43" class="edge"><title>Node33&#45;&gt;Node36</title>
<path fill="none" stroke="midnightblue" d="M2017.79,-136.403C2048.93,-126.022 2101.48,-108.506 2136.45,-96.849"/>
<polygon fill="midnightblue" stroke="midnightblue" points="2137.88,-100.063 2146.26,-93.5806 2135.66,-93.4225 2137.88,-100.063"/>
</g>
<!-- Node37 -->
<g id="node37" class="node"><title>Node37</title>
<polygon fill="none" stroke="#bfbfbf" points="2265,-74.5 2265,-93.5 2421,-93.5 2421,-74.5 2265,-74.5"/>
<text text-anchor="middle" x="2343" y="-81.5" font-family="Helvetica,sans-Serif" font-size="10.00">Math/GenVector/Transform3D.h</text>
</g>
<!-- Node33&#45;&gt;Node37 -->
<g id="edge44" class="edge"><title>Node33&#45;&gt;Node37</title>
<path fill="none" stroke="midnightblue" d="M2041.92,-136.467C2105.47,-125.604 2215.15,-106.855 2283.13,-95.2346"/>
<polygon fill="midnightblue" stroke="midnightblue" points="2283.99,-98.6384 2293.26,-93.5034 2282.81,-91.7385 2283.99,-98.6384"/>
</g>
<!-- Node38 -->
<g id="node38" class="node"><title>Node38</title>
<polygon fill="none" stroke="#bfbfbf" points="2439,-74.5 2439,-93.5 2599,-93.5 2599,-74.5 2439,-74.5"/>
<text text-anchor="middle" x="2519" y="-81.5" font-family="Helvetica,sans-Serif" font-size="10.00">Math/GenVector/Translation3D.h</text>
</g>
<!-- Node33&#45;&gt;Node38 -->
<g id="edge45" class="edge"><title>Node33&#45;&gt;Node38</title>
<path fill="none" stroke="midnightblue" d="M2054.6,-137.593C2059.47,-137.044 2064.32,-136.507 2069,-136 2229.3,-118.64 2270.19,-121.411 2430,-100 2440.36,-98.6124 2451.36,-96.9299 2461.96,-95.2002"/>
<polygon fill="midnightblue" stroke="midnightblue" points="2462.69,-98.6281 2471.98,-93.5355 2461.54,-91.7229 2462.69,-98.6281"/>
</g>
<!-- Node39 -->
<g id="node39" class="node"><title>Node39</title>
<polygon fill="none" stroke="#bfbfbf" points="1497,-74.5 1497,-93.5 1573,-93.5 1573,-74.5 1497,-74.5"/>
<text text-anchor="middle" x="1535" y="-81.5" font-family="Helvetica,sans-Serif" font-size="10.00">TGeoMatrix.h</text>
</g>
<!-- Node33&#45;&gt;Node39 -->
<g id="edge47" class="edge"><title>Node33&#45;&gt;Node39</title>
<path fill="none" stroke="midnightblue" d="M1929.39,-137.638C1924.52,-137.079 1919.68,-136.527 1915,-136 1767.51,-119.385 1728.3,-130.279 1583,-100 1578.45,-99.0527 1573.73,-97.8515 1569.09,-96.5428"/>
<polygon fill="midnightblue" stroke="midnightblue" points="1569.76,-93.0912 1559.18,-93.5631 1567.75,-99.7947 1569.76,-93.0912"/>
</g>
<!-- Node40 -->
<g id="node40" class="node"><title>Node40</title>
<g id="a_node40"><a xlink:href="../../d2/dd0/Cartesian2D_8h.html" target="_top" xlink:title="MathUtils/Cartesian2D.h">
<polygon fill="none" stroke="black" points="1591.5,-74.5 1591.5,-93.5 1716.5,-93.5 1716.5,-74.5 1591.5,-74.5"/>
<text text-anchor="middle" x="1654" y="-81.5" font-family="Helvetica,sans-Serif" font-size="10.00">MathUtils/Cartesian2D.h</text>
</a>
</g>
</g>
<!-- Node33&#45;&gt;Node40 -->
<g id="edge49" class="edge"><title>Node33&#45;&gt;Node40</title>
<path fill="none" stroke="midnightblue" d="M1937.89,-136.461C1884.07,-127.823 1799.18,-113.808 1726,-100 1718.67,-98.6173 1710.94,-97.0847 1703.37,-95.5427"/>
<polygon fill="midnightblue" stroke="midnightblue" points="1704.06,-92.1113 1693.56,-93.5218 1702.65,-98.9673 1704.06,-92.1113"/>
</g>
<!-- Node41 -->
<g id="node41" class="node"><title>Node41</title>
<polygon fill="none" stroke="#bfbfbf" points="1487.5,-1 1487.5,-31 1638.5,-31 1638.5,-1 1487.5,-1"/>
<text text-anchor="start" x="1495.5" y="-19" font-family="Helvetica,sans-Serif" font-size="10.00">Math/GenVector/Displacement</text>
<text text-anchor="middle" x="1563" y="-8" font-family="Helvetica,sans-Serif" font-size="10.00">Vector2D.h</text>
</g>
<!-- Node40&#45;&gt;Node41 -->
<g id="edge50" class="edge"><title>Node40&#45;&gt;Node41</title>
<path fill="none" stroke="midnightblue" d="M1642.1,-74.3717C1629.22,-65.0286 1608.22,-49.7966 1591.09,-37.375"/>
<polygon fill="midnightblue" stroke="midnightblue" points="1592.7,-34.2194 1582.55,-31.1815 1588.59,-39.8859 1592.7,-34.2194"/>
</g>
<!-- Node42 -->
<g id="node42" class="node"><title>Node42</title>
<polygon fill="none" stroke="#bfbfbf" points="1657,-6.5 1657,-25.5 1833,-25.5 1833,-6.5 1657,-6.5"/>
<text text-anchor="middle" x="1745" y="-13.5" font-family="Helvetica,sans-Serif" font-size="10.00">Math/GenVector/PositionVector2D.h</text>
</g>
<!-- Node40&#45;&gt;Node42 -->
<g id="edge51" class="edge"><title>Node40&#45;&gt;Node42</title>
<path fill="none" stroke="midnightblue" d="M1665.9,-74.3717C1680.88,-63.5015 1706.86,-44.6602 1724.94,-31.5474"/>
<polygon fill="midnightblue" stroke="midnightblue" points="1727.06,-34.3349 1733.1,-25.6305 1722.95,-28.6684 1727.06,-34.3349"/>
</g>
<!-- Node43&#45;&gt;Node4 -->
<g id="edge55" class="edge"><title>Node43&#45;&gt;Node4</title>
<path fill="none" stroke="midnightblue" d="M1593.52,-384.422C1610,-376.921 1632.33,-364.622 1647,-348 1662.07,-330.923 1671.39,-306.099 1676.38,-289.29"/>
<polygon fill="midnightblue" stroke="midnightblue" points="1679.78,-290.134 1679.05,-279.564 1673.03,-288.282 1679.78,-290.134"/>
</g>
<!-- Node43&#45;&gt;Node7 -->
<g id="edge56" class="edge"><title>Node43&#45;&gt;Node7</title>
<path fill="none" stroke="midnightblue" d="M1507.39,-390.167C1453.29,-385.865 1375.04,-375.066 1312,-348 1290.11,-338.601 1290.57,-326.103 1269,-316 1232.93,-299.108 1189.87,-288.187 1154.17,-281.341"/>
<polygon fill="midnightblue" stroke="midnightblue" points="1154.78,-277.894 1144.31,-279.517 1153.5,-284.777 1154.78,-277.894"/>
</g>
<!-- Node43&#45;&gt;Node31 -->
<g id="edge54" class="edge"><title>Node43&#45;&gt;Node31</title>
<path fill="none" stroke="midnightblue" d="M1550.49,-384.416C1534.01,-376.913 1511.68,-364.612 1497,-348 1468.67,-315.944 1476.98,-298.34 1458,-260 1452.35,-248.594 1445.48,-236.061 1439.96,-226.274"/>
<polygon fill="midnightblue" stroke="midnightblue" points="1442.98,-224.498 1434.98,-217.545 1436.9,-227.965 1442.98,-224.498"/>
</g>
<!-- Node44 -->
<g id="node44" class="node"><title>Node44</title>
<g id="a_node44"><a xlink:href="../../dd/d77/Strip_8h.html" target="_top" xlink:title="TOFSimulation/Strip.h">
<polygon fill="none" stroke="black" points="1321.5,-322.5 1321.5,-341.5 1434.5,-341.5 1434.5,-322.5 1321.5,-322.5"/>
<text text-anchor="middle" x="1378" y="-329.5" font-family="Helvetica,sans-Serif" font-size="10.00">TOFSimulation/Strip.h</text>
</a>
</g>
</g>
<!-- Node43&#45;&gt;Node44 -->
<g id="edge57" class="edge"><title>Node43&#45;&gt;Node44</title>
<path fill="none" stroke="midnightblue" d="M1544.2,-384.403C1510.35,-373.933 1453.03,-356.205 1415.35,-344.55"/>
<polygon fill="midnightblue" stroke="midnightblue" points="1416.33,-341.192 1405.74,-341.581 1414.26,-347.879 1416.33,-341.192"/>
</g>
<!-- Node43&#45;&gt;Node48 -->
<g id="edge66" class="edge"><title>Node43&#45;&gt;Node48</title>
<path fill="none" stroke="midnightblue" d="M1613.24,-384.467C1660.6,-374.67 1738.95,-358.458 1795.07,-346.847"/>
<polygon fill="midnightblue" stroke="midnightblue" points="1795.85,-350.261 1804.93,-344.807 1794.43,-343.406 1795.85,-350.261"/>
</g>
<!-- Node52 -->
<g id="node52" class="node"><title>Node52</title>
<g id="a_node52"><a xlink:href="../../d9/dad/TOF_2simulation_2include_2TOFSimulation_2MCLabel_8h.html" target="_top" xlink:title="TOFSimulation/MCLabel.h">
<polygon fill="none" stroke="black" points="1506,-322.5 1506,-341.5 1638,-341.5 1638,-322.5 1506,-322.5"/>
<text text-anchor="middle" x="1572" y="-329.5" font-family="Helvetica,sans-Serif" font-size="10.00">TOFSimulation/MCLabel.h</text>
</a>
</g>
</g>
<!-- Node43&#45;&gt;Node52 -->
<g id="edge72" class="edge"><title>Node43&#45;&gt;Node52</title>
<path fill="none" stroke="midnightblue" d="M1572,-384.403C1572,-375.938 1572,-362.728 1572,-351.82"/>
<polygon fill="midnightblue" stroke="midnightblue" points="1575.5,-351.581 1572,-341.581 1568.5,-351.581 1575.5,-351.581"/>
</g>
<!-- Node44&#45;&gt;Node4 -->
<g id="edge58" class="edge"><title>Node44&#45;&gt;Node4</title>
<path fill="none" stroke="midnightblue" d="M1421.09,-322.467C1475.61,-311.671 1569.47,-293.086 1628.23,-281.45"/>
<polygon fill="midnightblue" stroke="midnightblue" points="1628.93,-284.879 1638.06,-279.503 1627.57,-278.013 1628.93,-284.879"/>
</g>
<!-- Node44&#45;&gt;Node7 -->
<g id="edge65" class="edge"><title>Node44&#45;&gt;Node7</title>
<path fill="none" stroke="midnightblue" d="M1337.84,-322.436C1327.77,-320.312 1317,-318.055 1307,-316 1248.41,-303.953 1181.15,-290.558 1135.55,-281.54"/>
<polygon fill="midnightblue" stroke="midnightblue" points="1136.07,-278.076 1125.58,-279.572 1134.71,-284.944 1136.07,-278.076"/>
</g>
<!-- Node44&#45;&gt;Node9 -->
<g id="edge61" class="edge"><title>Node44&#45;&gt;Node9</title>
<path fill="none" stroke="midnightblue" d="M1337.69,-322.461C1286.51,-311.216 1203.75,-291.524 1195,-280 1189.62,-272.921 1190.4,-267.608 1195,-260 1248.7,-171.133 1464.27,-211.513 1393,-136 1363.02,-104.237 687.276,-88.5917 540.123,-85.5549"/>
<polygon fill="midnightblue" stroke="midnightblue" points="539.789,-82.0474 529.719,-85.3431 539.646,-89.046 539.789,-82.0474"/>
</g>
<!-- Node44&#45;&gt;Node10 -->
<g id="edge63" class="edge"><title>Node44&#45;&gt;Node10</title>
<path fill="none" stroke="midnightblue" d="M1377.28,-322.125C1374.96,-293.769 1367.72,-204.93 1364.53,-165.811"/>
<polygon fill="midnightblue" stroke="midnightblue" points="1368.02,-165.468 1363.72,-155.786 1361.04,-166.037 1368.02,-165.468"/>
</g>
<!-- Node44&#45;&gt;Node33 -->
<g id="edge64" class="edge"><title>Node44&#45;&gt;Node33</title>
<path fill="none" stroke="midnightblue" d="M1395.57,-322.341C1412.73,-313.325 1438.99,-298.014 1458,-280 1492.91,-246.915 1479.31,-215.999 1521,-192 1586.99,-154.007 1804.44,-147.443 1919.36,-146.711"/>
<polygon fill="midnightblue" stroke="midnightblue" points="1919.49,-150.211 1929.47,-146.66 1919.46,-143.211 1919.49,-150.211"/>
</g>
<!-- Node45 -->
<g id="node45" class="node"><title>Node45</title>
<polygon fill="none" stroke="#bfbfbf" points="1390.5,-260.5 1390.5,-279.5 1449.5,-279.5 1449.5,-260.5 1390.5,-260.5"/>
<text text-anchor="middle" x="1420" y="-267.5" font-family="Helvetica,sans-Serif" font-size="10.00">TObject.h</text>
</g>
<!-- Node44&#45;&gt;Node45 -->
<g id="edge59" class="edge"><title>Node44&#45;&gt;Node45</title>
<path fill="none" stroke="midnightblue" d="M1384.02,-322.403C1390.32,-313.403 1400.37,-299.041 1408.25,-287.782"/>
<polygon fill="midnightblue" stroke="midnightblue" points="1411.13,-289.78 1413.99,-279.581 1405.39,-285.766 1411.13,-289.78"/>
</g>
<!-- Node46 -->
<g id="node46" class="node"><title>Node46</title>
<polygon fill="none" stroke="#bfbfbf" points="1204.5,-260.5 1204.5,-279.5 1263.5,-279.5 1263.5,-260.5 1204.5,-260.5"/>
<text text-anchor="middle" x="1234" y="-267.5" font-family="Helvetica,sans-Serif" font-size="10.00">exception</text>
</g>
<!-- Node44&#45;&gt;Node46 -->
<g id="edge60" class="edge"><title>Node44&#45;&gt;Node46</title>
<path fill="none" stroke="midnightblue" d="M1357.37,-322.403C1332.88,-312.2 1291.85,-295.105 1263.89,-283.454"/>
<polygon fill="midnightblue" stroke="midnightblue" points="1265.17,-280.196 1254.59,-279.581 1262.48,-286.658 1265.17,-280.196"/>
</g>
<!-- Node47 -->
<g id="node47" class="node"><title>Node47</title>
<polygon fill="none" stroke="#bfbfbf" points="1282,-260.5 1282,-279.5 1334,-279.5 1334,-260.5 1282,-260.5"/>
<text text-anchor="middle" x="1308" y="-267.5" font-family="Helvetica,sans-Serif" font-size="10.00">sstream</text>
</g>
<!-- Node44&#45;&gt;Node47 -->
<g id="edge62" class="edge"><title>Node44&#45;&gt;Node47</title>
<path fill="none" stroke="midnightblue" d="M1367.97,-322.403C1356.95,-312.958 1339.04,-297.606 1325.66,-286.134"/>
<polygon fill="midnightblue" stroke="midnightblue" points="1327.88,-283.431 1318.01,-279.581 1323.33,-288.746 1327.88,-283.431"/>
</g>
<!-- Node48&#45;&gt;Node19 -->
<g id="edge71" class="edge"><title>Node48&#45;&gt;Node19</title>
<path fill="none" stroke="midnightblue" d="M1857.91,-316.839C1848.43,-284.919 1824.19,-208.824 1804,-192 1779.24,-171.361 1691.31,-157.886 1638.35,-151.442"/>
<polygon fill="midnightblue" stroke="midnightblue" points="1638.59,-147.947 1628.25,-150.247 1637.77,-154.898 1638.59,-147.947"/>
</g>
<!-- Node48&#45;&gt;Node28 -->
<g id="edge68" class="edge"><title>Node48&#45;&gt;Node28</title>
<path fill="none" stroke="midnightblue" d="M1862.97,-316.913C1864.07,-288.956 1862.29,-226.217 1828,-192 1765.08,-129.217 1722.9,-154.71 1636,-136 1574.02,-122.655 1387.98,-98.9659 1310,-89.2935"/>
<polygon fill="midnightblue" stroke="midnightblue" points="1310.09,-85.7782 1299.74,-88.0242 1309.23,-92.7253 1310.09,-85.7782"/>
</g>
<!-- Node49 -->
<g id="node49" class="node"><title>Node49</title>
<polygon fill="none" stroke="#bfbfbf" points="1890,-260.5 1890,-279.5 1952,-279.5 1952,-260.5 1890,-260.5"/>
<text text-anchor="middle" x="1921" y="-267.5" font-family="Helvetica,sans-Serif" font-size="10.00">TNamed.h</text>
</g>
<!-- Node48&#45;&gt;Node49 -->
<g id="edge67" class="edge"><title>Node48&#45;&gt;Node49</title>
<path fill="none" stroke="midnightblue" d="M1875.98,-316.781C1884.82,-307.792 1896.26,-296.162 1905.39,-286.873"/>
<polygon fill="midnightblue" stroke="midnightblue" points="1907.9,-289.315 1912.41,-279.731 1902.91,-284.407 1907.9,-289.315"/>
</g>
<!-- Node50 -->
<g id="node50" class="node"><title>Node50</title>
<polygon fill="none" stroke="#bfbfbf" points="1970.5,-260.5 1970.5,-279.5 2029.5,-279.5 2029.5,-260.5 1970.5,-260.5"/>
<text text-anchor="middle" x="2000" y="-267.5" font-family="Helvetica,sans-Serif" font-size="10.00">stdexcept</text>
</g>
<!-- Node48&#45;&gt;Node50 -->
<g id="edge69" class="edge"><title>Node48&#45;&gt;Node50</title>
<path fill="none" stroke="midnightblue" d="M1894.35,-316.933C1917.53,-306.855 1948.48,-293.399 1970.89,-283.657"/>
<polygon fill="midnightblue" stroke="midnightblue" points="1972.44,-286.797 1980.22,-279.6 1969.65,-280.378 1972.44,-286.797"/>
</g>
<!-- Node51 -->
<g id="node51" class="node"><title>Node51</title>
<polygon fill="none" stroke="#bfbfbf" points="2047.5,-260.5 2047.5,-279.5 2092.5,-279.5 2092.5,-260.5 2047.5,-260.5"/>
<text text-anchor="middle" x="2070" y="-267.5" font-family="Helvetica,sans-Serif" font-size="10.00">gsl/gsl</text>
</g>
<!-- Node48&#45;&gt;Node51 -->
<g id="edge70" class="edge"><title>Node48&#45;&gt;Node51</title>
<path fill="none" stroke="midnightblue" d="M1910.77,-316.933C1949.83,-305.664 2003.55,-290.169 2037.52,-280.37"/>
<polygon fill="midnightblue" stroke="midnightblue" points="2038.75,-283.657 2047.39,-277.523 2036.81,-276.931 2038.75,-283.657"/>
</g>
<!-- Node53 -->
<g id="node53" class="node"><title>Node53</title>
<g id="a_node53"><a xlink:href="../../d7/dcd/MCCompLabel_8h.html" target="_top" xlink:title="SimulationDataFormat\l/MCCompLabel.h">
<polygon fill="none" stroke="black" points="1530,-193 1530,-223 1644,-223 1644,-193 1530,-193"/>
<text text-anchor="start" x="1538" y="-211" font-family="Helvetica,sans-Serif" font-size="10.00">SimulationDataFormat</text>
<text text-anchor="middle" x="1587" y="-200" font-family="Helvetica,sans-Serif" font-size="10.00">/MCCompLabel.h</text>
</a>
</g>
</g>
<!-- Node52&#45;&gt;Node53 -->
<g id="edge73" class="edge"><title>Node52&#45;&gt;Node53</title>
<path fill="none" stroke="midnightblue" d="M1573.08,-322.226C1575.34,-303.801 1580.66,-260.526 1584.03,-233.13"/>
<polygon fill="midnightblue" stroke="midnightblue" points="1587.51,-233.508 1585.26,-223.155 1580.57,-232.653 1587.51,-233.508"/>
</g>
<!-- Node53&#45;&gt;Node3 -->
<g id="edge74" class="edge"><title>Node53&#45;&gt;Node3</title>
<path fill="none" stroke="midnightblue" d="M1571.13,-192.766C1545.46,-169.739 1495.02,-124.491 1468.4,-100.61"/>
<polygon fill="midnightblue" stroke="midnightblue" points="1470.44,-97.7354 1460.66,-93.6632 1465.76,-102.946 1470.44,-97.7354"/>
</g>
</g>
</svg>
