<?xml version="1.0" encoding="UTF-8" standalone="no"?>
<!DOCTYPE svg PUBLIC "-//W3C//DTD SVG 1.1//EN"
 "http://www.w3.org/Graphics/SVG/1.1/DTD/svg11.dtd">
<!-- Generated by graphviz version 2.36.0 (20140111.2315)
 -->
<!-- Title: /home/travis/build/AliceO2Group/AliceO2/Utilities/DataFlow/src/TimeframeValidatorDevice.cxx Pages: 1 -->
<!--zoomable 422 -->
<svg id="main" version="1.1" xmlns="http://www.w3.org/2000/svg" xmlns:xlink="http://www.w3.org/1999/xlink" xml:space="preserve" onload="init(evt)">
<style type="text/css"><![CDATA[
.edge:hover path { stroke: red; }
.edge:hover polygon { stroke: red; fill: red; }
]]></style>
<script type="text/javascript"><![CDATA[
var edges = document.getElementsByTagName('g');
if (edges && edges.length) {
  for (var i=0;i<edges.length;i++) {
    if (edges[i].id.substr(0,4)=='edge') {
      edges[i].setAttribute('class','edge');
    }
  }
}
]]></script>
        <defs>
                <circle id="rim" cx="0" cy="0" r="7"/>
                <circle id="rim2" cx="0" cy="0" r="3.5"/>
                <g id="zoomPlus">
                        <use xlink:href="#rim" fill="#404040">
                                <set attributeName="fill" to="#808080" begin="zoomplus.mouseover" end="zoomplus.mouseout"/>
                        </use>
                        <path d="M-4,0h8M0,-4v8" fill="none" stroke="white" stroke-width="1.5" pointer-events="none"/>
                </g>
                <g id="zoomMin">
                        <use xlink:href="#rim" fill="#404040">
                                <set attributeName="fill" to="#808080" begin="zoomminus.mouseover" end="zoomminus.mouseout"/>
                        </use>
                        <path d="M-4,0h8" fill="none" stroke="white" stroke-width="1.5" pointer-events="none"/>
                </g>
                <g id="dirArrow">
                        <path fill="none" stroke="white" stroke-width="1.5" d="M0,-3.0v7 M-2.5,-0.5L0,-3.0L2.5,-0.5"/>
                </g>
               <g id="resetDef">
                       <use xlink:href="#rim2" fill="#404040">
                               <set attributeName="fill" to="#808080" begin="reset.mouseover" end="reset.mouseout"/>
                       </use>
               </g>
        </defs>

<script type="text/javascript">
var viewWidth = 2094;
var viewHeight = 422;
var sectionId = 'dynsection-0';
</script>
<script xlink:href="../../svgpan.js"/>
<svg id="graph" class="graph">
<g id="viewport">
<title>/home/travis/build/AliceO2Group/AliceO2/Utilities/DataFlow/src/TimeframeValidatorDevice.cxx</title>
<!-- Node1 -->
<g id="node1" class="node"><title>Node1</title>
<polygon fill="#bfbfbf" stroke="black" points="314,-361 314,-413 468,-413 468,-361 314,-361"/>
<text text-anchor="start" x="322" y="-401" font-family="Helvetica,sans-Serif" font-size="10.00">/home/travis/build</text>
<text text-anchor="start" x="322" y="-390" font-family="Helvetica,sans-Serif" font-size="10.00">/AliceO2Group/AliceO2</text>
<text text-anchor="start" x="322" y="-379" font-family="Helvetica,sans-Serif" font-size="10.00">/Utilities/DataFlow/src</text>
<text text-anchor="middle" x="391" y="-368" font-family="Helvetica,sans-Serif" font-size="10.00">/TimeframeValidatorDevice.cxx</text>
</g>
<!-- Node2 -->
<g id="node2" class="node"><title>Node2</title>
<polygon fill="none" stroke="#bfbfbf" points="10,-298.5 10,-317.5 54,-317.5 54,-298.5 10,-298.5"/>
<text text-anchor="middle" x="32" y="-305.5" font-family="Helvetica,sans-Serif" font-size="10.00">thread</text>
</g>
<!-- Node1&#45;&gt;Node2 -->
<g id="edge1" class="edge"><title>Node1&#45;&gt;Node2</title>
<path fill="none" stroke="midnightblue" d="M313.902,-375.752C247.784,-365.889 150.429,-348.797 68,-324 65.3558,-323.205 62.6405,-322.282 59.9438,-321.293"/>
<polygon fill="midnightblue" stroke="midnightblue" points="61.0057,-317.949 50.4193,-317.527 58.4322,-324.459 61.0057,-317.949"/>
</g>
<!-- Node3 -->
<g id="node3" class="node"><title>Node3</title>
<polygon fill="none" stroke="#bfbfbf" points="96,-68.5 96,-87.5 142,-87.5 142,-68.5 96,-68.5"/>
<text text-anchor="middle" x="119" y="-75.5" font-family="Helvetica,sans-Serif" font-size="10.00">chrono</text>
</g>
<!-- Node1&#45;&gt;Node3 -->
<g id="edge2" class="edge"><title>Node1&#45;&gt;Node3</title>
<path fill="none" stroke="midnightblue" d="M313.823,-383.669C222.3,-376.306 82,-348.471 82,-247 82,-247 82,-247 82,-189 82,-154.889 98.1815,-117.787 109.142,-96.5681"/>
<polygon fill="midnightblue" stroke="midnightblue" points="112.359,-97.9756 114.01,-87.5101 106.193,-94.662 112.359,-97.9756"/>
</g>
<!-- Node4 -->
<g id="node4" class="node"><title>Node4</title>
<g id="a_node4"><a xlink:href="../../d3/da5/TimeframeValidatorDevice_8h.html" target="_top" xlink:title="DataFlow/TimeframeValidator\lDevice.h">
<polygon fill="none" stroke="black" points="423,-293 423,-323 569,-323 569,-293 423,-293"/>
<text text-anchor="start" x="431" y="-311" font-family="Helvetica,sans-Serif" font-size="10.00">DataFlow/TimeframeValidator</text>
<text text-anchor="middle" x="496" y="-300" font-family="Helvetica,sans-Serif" font-size="10.00">Device.h</text>
</a>
</g>
</g>
<!-- Node1&#45;&gt;Node4 -->
<g id="edge3" class="edge"><title>Node1&#45;&gt;Node4</title>
<path fill="none" stroke="midnightblue" d="M425.381,-360.787C439.413,-350.497 455.413,-338.764 468.631,-329.07"/>
<polygon fill="midnightblue" stroke="midnightblue" points="470.873,-331.767 476.867,-323.031 466.733,-326.122 470.873,-331.767"/>
</g>
<!-- Node7 -->
<g id="node7" class="node"><title>Node7</title>
<polygon fill="none" stroke="#bfbfbf" points="855,-180.5 855,-199.5 1001,-199.5 1001,-180.5 855,-180.5"/>
<text text-anchor="middle" x="928" y="-187.5" font-family="Helvetica,sans-Serif" font-size="10.00">options/FairMQProgOptions.h</text>
</g>
<!-- Node1&#45;&gt;Node7 -->
<g id="edge50" class="edge"><title>Node1&#45;&gt;Node7</title>
<path fill="none" stroke="midnightblue" d="M468.134,-361.252C501.962,-350.186 542.068,-336.777 578,-324 696.644,-281.811 836.141,-227.316 896.997,-203.296"/>
<polygon fill="midnightblue" stroke="midnightblue" points="898.398,-206.505 906.412,-199.575 895.825,-199.995 898.398,-206.505"/>
</g>
<!-- Node24 -->
<g id="node24" class="node"><title>Node24</title>
<g id="a_node24"><a xlink:href="../../dc/dcd/DataHeader_8h.html" target="_top" xlink:title="Headers/DataHeader.h">
<polygon fill="none" stroke="black" points="457.5,-68.5 457.5,-87.5 574.5,-87.5 574.5,-68.5 457.5,-68.5"/>
<text text-anchor="middle" x="516" y="-75.5" font-family="Helvetica,sans-Serif" font-size="10.00">Headers/DataHeader.h</text>
</a>
</g>
</g>
<!-- Node1&#45;&gt;Node24 -->
<g id="edge49" class="edge"><title>Node1&#45;&gt;Node24</title>
<path fill="none" stroke="midnightblue" d="M396.778,-360.768C401.22,-341.787 407.653,-315.172 414,-292 427.743,-241.827 425.671,-226.985 448,-180 463.117,-148.19 487.361,-115.004 502.448,-95.7073"/>
<polygon fill="midnightblue" stroke="midnightblue" points="505.373,-97.6517 508.854,-87.645 499.892,-93.2968 505.373,-97.6517"/>
</g>
<!-- Node34 -->
<g id="node34" class="node"><title>Node34</title>
<g id="a_node34"><a xlink:href="../../de/dfa/TimeFrame_8h.html" target="_top" xlink:title="TimeFrame/TimeFrame.h">
<polygon fill="none" stroke="black" points="208.5,-180.5 208.5,-199.5 335.5,-199.5 335.5,-180.5 208.5,-180.5"/>
<text text-anchor="middle" x="272" y="-187.5" font-family="Helvetica,sans-Serif" font-size="10.00">TimeFrame/TimeFrame.h</text>
</a>
</g>
</g>
<!-- Node1&#45;&gt;Node34 -->
<g id="edge39" class="edge"><title>Node1&#45;&gt;Node34</title>
<path fill="none" stroke="midnightblue" d="M375.686,-360.906C351.233,-320.836 303.969,-243.386 282.76,-208.631"/>
<polygon fill="midnightblue" stroke="midnightblue" points="285.484,-206.377 277.287,-199.664 279.509,-210.023 285.484,-206.377"/>
</g>
<!-- Node38 -->
<g id="node38" class="node"><title>Node38</title>
<g id="a_node38"><a xlink:href="../../d2/d1b/SubframeMetadata_8h.html" target="_top" xlink:title="Headers/SubframeMetadata.h">
<polygon fill="none" stroke="black" points="1035.5,-236.5 1035.5,-255.5 1182.5,-255.5 1182.5,-236.5 1035.5,-236.5"/>
<text text-anchor="middle" x="1109" y="-243.5" font-family="Helvetica,sans-Serif" font-size="10.00">Headers/SubframeMetadata.h</text>
</a>
</g>
</g>
<!-- Node1&#45;&gt;Node38 -->
<g id="edge47" class="edge"><title>Node1&#45;&gt;Node38</title>
<path fill="none" stroke="midnightblue" d="M468.107,-373.482C540.517,-361.521 651.805,-342.605 748,-324 860.659,-302.211 992.33,-273.232 1061.3,-257.781"/>
<polygon fill="midnightblue" stroke="midnightblue" points="1062.43,-261.116 1071.42,-255.511 1060.89,-254.286 1062.43,-261.116"/>
</g>
<!-- Node5 -->
<g id="node5" class="node"><title>Node5</title>
<g id="a_node5"><a xlink:href="../../d2/dee/O2Device_8h.html" target="_top" xlink:title="O2Device/O2Device.h">
<polygon fill="none" stroke="black" points="512.5,-236.5 512.5,-255.5 627.5,-255.5 627.5,-236.5 512.5,-236.5"/>
<text text-anchor="middle" x="570" y="-243.5" font-family="Helvetica,sans-Serif" font-size="10.00">O2Device/O2Device.h</text>
</a>
</g>
</g>
<!-- Node4&#45;&gt;Node5 -->
<g id="edge4" class="edge"><title>Node4&#45;&gt;Node5</title>
<path fill="none" stroke="midnightblue" d="M513.537,-292.781C524.955,-283.523 539.83,-271.462 551.446,-262.044"/>
<polygon fill="midnightblue" stroke="midnightblue" points="553.669,-264.747 559.232,-255.731 549.26,-259.31 553.669,-264.747"/>
</g>
<!-- Node6 -->
<g id="node6" class="node"><title>Node6</title>
<polygon fill="none" stroke="#bfbfbf" points="457,-180.5 457,-199.5 545,-199.5 545,-180.5 457,-180.5"/>
<text text-anchor="middle" x="501" y="-187.5" font-family="Helvetica,sans-Serif" font-size="10.00">FairMQDevice.h</text>
</g>
<!-- Node5&#45;&gt;Node6 -->
<g id="edge5" class="edge"><title>Node5&#45;&gt;Node6</title>
<path fill="none" stroke="midnightblue" d="M558.914,-236.324C548.514,-228.185 532.739,-215.839 520.278,-206.087"/>
<polygon fill="midnightblue" stroke="midnightblue" points="522.32,-203.241 512.288,-199.834 518.006,-208.753 522.32,-203.241"/>
</g>
<!-- Node5&#45;&gt;Node7 -->
<g id="edge6" class="edge"><title>Node5&#45;&gt;Node7</title>
<path fill="none" stroke="midnightblue" d="M626.726,-236.444C690.488,-226.826 793.899,-211.228 861.433,-201.041"/>
<polygon fill="midnightblue" stroke="midnightblue" points="862.173,-204.469 871.539,-199.516 861.129,-197.547 862.173,-204.469"/>
</g>
<!-- Node8 -->
<g id="node8" class="node"><title>Node8</title>
<g id="a_node8"><a xlink:href="../../d7/db2/Utilities_8h.html" target="_top" xlink:title="O2Device/Utilities.h">
<polygon fill="none" stroke="black" points="733,-180.5 733,-199.5 837,-199.5 837,-180.5 733,-180.5"/>
<text text-anchor="middle" x="785" y="-187.5" font-family="Helvetica,sans-Serif" font-size="10.00">O2Device/Utilities.h</text>
</a>
</g>
</g>
<!-- Node5&#45;&gt;Node8 -->
<g id="edge7" class="edge"><title>Node5&#45;&gt;Node8</title>
<path fill="none" stroke="midnightblue" d="M604.067,-236.444C641.18,-227.122 700.661,-212.183 741.215,-201.997"/>
<polygon fill="midnightblue" stroke="midnightblue" points="742.246,-205.347 751.092,-199.516 740.541,-198.558 742.246,-205.347"/>
</g>
<!-- Node29 -->
<g id="node29" class="node"><title>Node29</title>
<polygon fill="none" stroke="#bfbfbf" points="66.5,-6.5 66.5,-25.5 125.5,-25.5 125.5,-6.5 66.5,-6.5"/>
<text text-anchor="middle" x="96" y="-13.5" font-family="Helvetica,sans-Serif" font-size="10.00">stdexcept</text>
</g>
<!-- Node5&#45;&gt;Node29 -->
<g id="edge38" class="edge"><title>Node5&#45;&gt;Node29</title>
<path fill="none" stroke="midnightblue" d="M523.371,-236.497C498.603,-229.994 469.023,-218.824 448,-200 419.865,-174.809 438.516,-148.759 410,-124 312.683,-39.5042 256.286,-75.5878 135,-32 132.463,-31.0884 129.842,-30.1254 127.213,-29.1452"/>
<polygon fill="midnightblue" stroke="midnightblue" points="128.392,-25.8494 117.801,-25.5807 125.913,-32.3956 128.392,-25.8494"/>
</g>
<!-- Node33 -->
<g id="node33" class="node"><title>Node33</title>
<polygon fill="none" stroke="#bfbfbf" points="563.5,-180.5 563.5,-199.5 714.5,-199.5 714.5,-180.5 563.5,-180.5"/>
<text text-anchor="middle" x="639" y="-187.5" font-family="Helvetica,sans-Serif" font-size="10.00">Monitoring/MonitoringFactory.h</text>
</g>
<!-- Node5&#45;&gt;Node33 -->
<g id="edge37" class="edge"><title>Node5&#45;&gt;Node33</title>
<path fill="none" stroke="midnightblue" d="M581.086,-236.324C591.486,-228.185 607.261,-215.839 619.722,-206.087"/>
<polygon fill="midnightblue" stroke="midnightblue" points="621.994,-208.753 627.712,-199.834 617.68,-203.241 621.994,-208.753"/>
</g>
<!-- Node9 -->
<g id="node9" class="node"><title>Node9</title>
<g id="a_node9"><a xlink:href="../../dc/d03/MemoryResources_8h.html" target="_top" xlink:title="MemoryResources/MemoryResources.h">
<polygon fill="none" stroke="black" points="1036.5,-68.5 1036.5,-87.5 1229.5,-87.5 1229.5,-68.5 1036.5,-68.5"/>
<text text-anchor="middle" x="1133" y="-75.5" font-family="Helvetica,sans-Serif" font-size="10.00">MemoryResources/MemoryResources.h</text>
</a>
</g>
</g>
<!-- Node8&#45;&gt;Node9 -->
<g id="edge8" class="edge"><title>Node8&#45;&gt;Node9</title>
<path fill="none" stroke="midnightblue" d="M812.017,-180.46C873.815,-160.926 1025.55,-112.963 1095.98,-90.7018"/>
<polygon fill="midnightblue" stroke="midnightblue" points="1097.28,-93.9616 1105.76,-87.6104 1095.17,-87.2871 1097.28,-93.9616"/>
</g>
<!-- Node17 -->
<g id="node17" class="node"><title>Node17</title>
<polygon fill="none" stroke="#bfbfbf" points="1984,-6.5 1984,-25.5 2024,-25.5 2024,-6.5 1984,-6.5"/>
<text text-anchor="middle" x="2004" y="-13.5" font-family="Helvetica,sans-Serif" font-size="10.00">utility</text>
</g>
<!-- Node8&#45;&gt;Node17 -->
<g id="edge35" class="edge"><title>Node8&#45;&gt;Node17</title>
<path fill="none" stroke="midnightblue" d="M837.236,-181.237C840.2,-180.814 843.137,-180.399 846,-180 1346.79,-110.208 1490.51,-180 1974,-32 1975.92,-31.412 1977.87,-30.71 1979.8,-29.9355"/>
<polygon fill="midnightblue" stroke="midnightblue" points="1981.52,-33.0003 1989.15,-25.65 1978.6,-26.6376 1981.52,-33.0003"/>
</g>
<!-- Node8&#45;&gt;Node24 -->
<g id="edge23" class="edge"><title>Node8&#45;&gt;Node24</title>
<path fill="none" stroke="midnightblue" d="M763.892,-180.368C716.553,-161.01 601.749,-114.065 546.586,-91.5074"/>
<polygon fill="midnightblue" stroke="midnightblue" points="547.591,-88.1369 537.01,-87.5914 544.941,-94.6161 547.591,-88.1369"/>
</g>
<!-- Node31 -->
<g id="node31" class="node"><title>Node31</title>
<g id="a_node31"><a xlink:href="../../d4/d00/Headers_2include_2Headers_2Stack_8h.html" target="_top" xlink:title="Headers/Stack.h">
<polygon fill="none" stroke="black" points="697,-124.5 697,-143.5 787,-143.5 787,-124.5 697,-124.5"/>
<text text-anchor="middle" x="742" y="-131.5" font-family="Helvetica,sans-Serif" font-size="10.00">Headers/Stack.h</text>
</a>
</g>
</g>
<!-- Node8&#45;&gt;Node31 -->
<g id="edge32" class="edge"><title>Node8&#45;&gt;Node31</title>
<path fill="none" stroke="midnightblue" d="M777.899,-180.083C771.763,-172.377 762.73,-161.033 755.261,-151.653"/>
<polygon fill="midnightblue" stroke="midnightblue" points="757.936,-149.394 748.968,-143.751 752.46,-153.754 757.936,-149.394"/>
</g>
<!-- Node32 -->
<g id="node32" class="node"><title>Node32</title>
<polygon fill="none" stroke="#bfbfbf" points="805.5,-124.5 805.5,-143.5 850.5,-143.5 850.5,-124.5 805.5,-124.5"/>
<text text-anchor="middle" x="828" y="-131.5" font-family="Helvetica,sans-Serif" font-size="10.00">gsl/gsl</text>
</g>
<!-- Node8&#45;&gt;Node32 -->
<g id="edge36" class="edge"><title>Node8&#45;&gt;Node32</title>
<path fill="none" stroke="midnightblue" d="M792.101,-180.083C798.237,-172.377 807.27,-161.033 814.739,-151.653"/>
<polygon fill="midnightblue" stroke="midnightblue" points="817.54,-153.754 821.032,-143.751 812.064,-149.394 817.54,-153.754"/>
</g>
<!-- Node10 -->
<g id="node10" class="node"><title>Node10</title>
<polygon fill="none" stroke="#bfbfbf" points="1732,-1 1732,-31 1832,-31 1832,-1 1732,-1"/>
<text text-anchor="start" x="1740" y="-19" font-family="Helvetica,sans-Serif" font-size="10.00">boost/container/flat</text>
<text text-anchor="middle" x="1782" y="-8" font-family="Helvetica,sans-Serif" font-size="10.00">_map.hpp</text>
</g>
<!-- Node9&#45;&gt;Node10 -->
<g id="edge9" class="edge"><title>Node9&#45;&gt;Node10</title>
<path fill="none" stroke="midnightblue" d="M1229.67,-74.745C1344.86,-70.9048 1543.14,-60.6513 1721.8,-32.0058"/>
<polygon fill="midnightblue" stroke="midnightblue" points="1722.6,-35.4213 1731.91,-30.3613 1721.48,-28.5121 1722.6,-35.4213"/>
</g>
<!-- Node11 -->
<g id="node11" class="node"><title>Node11</title>
<polygon fill="none" stroke="#bfbfbf" points="1850,-1 1850,-31 1966,-31 1966,-1 1850,-1"/>
<text text-anchor="start" x="1858" y="-19" font-family="Helvetica,sans-Serif" font-size="10.00">boost/container/pmr</text>
<text text-anchor="middle" x="1908" y="-8" font-family="Helvetica,sans-Serif" font-size="10.00">/memory_resource.hpp</text>
</g>
<!-- Node9&#45;&gt;Node11 -->
<g id="edge10" class="edge"><title>Node9&#45;&gt;Node11</title>
<path fill="none" stroke="midnightblue" d="M1229.68,-75.6457C1364.45,-72.6881 1616.45,-63.2777 1840.05,-31.98"/>
<polygon fill="midnightblue" stroke="midnightblue" points="1840.59,-35.4382 1850,-30.5696 1839.61,-28.5074 1840.59,-35.4382"/>
</g>
<!-- Node12 -->
<g id="node12" class="node"><title>Node12</title>
<polygon fill="none" stroke="#bfbfbf" points="712,-1 712,-31 868,-31 868,-1 712,-1"/>
<text text-anchor="start" x="720" y="-19" font-family="Helvetica,sans-Serif" font-size="10.00">boost/container/pmr</text>
<text text-anchor="middle" x="790" y="-8" font-family="Helvetica,sans-Serif" font-size="10.00">/monotonic_buffer_resource.hpp</text>
</g>
<!-- Node9&#45;&gt;Node12 -->
<g id="edge11" class="edge"><title>Node9&#45;&gt;Node12</title>
<path fill="none" stroke="midnightblue" d="M1084.22,-68.4672C1030.65,-59.0966 943.539,-43.8581 877.974,-32.389"/>
<polygon fill="midnightblue" stroke="midnightblue" points="878.508,-28.9294 868.054,-30.6538 877.302,-35.8247 878.508,-28.9294"/>
</g>
<!-- Node13 -->
<g id="node13" class="node"><title>Node13</title>
<polygon fill="none" stroke="#bfbfbf" points="886.5,-1 886.5,-31 1019.5,-31 1019.5,-1 886.5,-1"/>
<text text-anchor="start" x="894.5" y="-19" font-family="Helvetica,sans-Serif" font-size="10.00">boost/container/pmr</text>
<text text-anchor="middle" x="953" y="-8" font-family="Helvetica,sans-Serif" font-size="10.00">/polymorphic_allocator.hpp</text>
</g>
<!-- Node9&#45;&gt;Node13 -->
<g id="edge12" class="edge"><title>Node9&#45;&gt;Node13</title>
<path fill="none" stroke="midnightblue" d="M1107.21,-68.4035C1080.58,-59.5263 1038.3,-45.4321 1004.74,-34.2453"/>
<polygon fill="midnightblue" stroke="midnightblue" points="1005.67,-30.8673 995.076,-31.0253 1003.46,-37.5081 1005.67,-30.8673"/>
</g>
<!-- Node14 -->
<g id="node14" class="node"><title>Node14</title>
<polygon fill="none" stroke="#bfbfbf" points="648,-6.5 648,-25.5 694,-25.5 694,-6.5 648,-6.5"/>
<text text-anchor="middle" x="671" y="-13.5" font-family="Helvetica,sans-Serif" font-size="10.00">cstring</text>
</g>
<!-- Node9&#45;&gt;Node14 -->
<g id="edge13" class="edge"><title>Node9&#45;&gt;Node14</title>
<path fill="none" stroke="midnightblue" d="M1036.07,-76.0293C947.783,-73.0021 814.546,-63.0279 703,-32 700.656,-31.3479 698.27,-30.538 695.912,-29.6346"/>
<polygon fill="midnightblue" stroke="midnightblue" points="697.116,-26.3416 686.55,-25.5612 694.323,-32.7603 697.116,-26.3416"/>
</g>
<!-- Node15 -->
<g id="node15" class="node"><title>Node15</title>
<polygon fill="none" stroke="#bfbfbf" points="588.5,-6.5 588.5,-25.5 629.5,-25.5 629.5,-6.5 588.5,-6.5"/>
<text text-anchor="middle" x="609" y="-13.5" font-family="Helvetica,sans-Serif" font-size="10.00">string</text>
</g>
<!-- Node9&#45;&gt;Node15 -->
<g id="edge14" class="edge"><title>Node9&#45;&gt;Node15</title>
<path fill="none" stroke="midnightblue" d="M1036.39,-72.4607C914.253,-65.984 711.218,-52.5513 639,-32 637.026,-31.4382 635.026,-30.7467 633.046,-29.9719"/>
<polygon fill="midnightblue" stroke="midnightblue" points="634.062,-26.5879 623.511,-25.6181 631.154,-32.9555 634.062,-26.5879"/>
</g>
<!-- Node16 -->
<g id="node16" class="node"><title>Node16</title>
<polygon fill="none" stroke="#bfbfbf" points="214,-6.5 214,-25.5 276,-25.5 276,-6.5 214,-6.5"/>
<text text-anchor="middle" x="245" y="-13.5" font-family="Helvetica,sans-Serif" font-size="10.00">type_traits</text>
</g>
<!-- Node9&#45;&gt;Node16 -->
<g id="edge15" class="edge"><title>Node9&#45;&gt;Node16</title>
<path fill="none" stroke="midnightblue" d="M1036.34,-75.4707C845.547,-71.859 426.838,-60.8286 286,-32 282.102,-31.202 278.078,-30.1005 274.144,-28.8535"/>
<polygon fill="midnightblue" stroke="midnightblue" points="275.268,-25.5389 264.674,-25.544 272.959,-32.147 275.268,-25.5389"/>
</g>
<!-- Node9&#45;&gt;Node17 -->
<g id="edge16" class="edge"><title>Node9&#45;&gt;Node17</title>
<path fill="none" stroke="midnightblue" d="M1229.65,-76.7637C1419.82,-75.4894 1836.09,-68.4734 1974,-32 1976.2,-31.4193 1978.42,-30.6675 1980.61,-29.81"/>
<polygon fill="midnightblue" stroke="midnightblue" points="1982.2,-32.9321 1989.83,-25.5789 1979.28,-26.5704 1982.2,-32.9321"/>
</g>
<!-- Node18 -->
<g id="node18" class="node"><title>Node18</title>
<polygon fill="none" stroke="#bfbfbf" points="2042,-6.5 2042,-25.5 2086,-25.5 2086,-6.5 2042,-6.5"/>
<text text-anchor="middle" x="2064" y="-13.5" font-family="Helvetica,sans-Serif" font-size="10.00">vector</text>
</g>
<!-- Node9&#45;&gt;Node18 -->
<g id="edge17" class="edge"><title>Node9&#45;&gt;Node18</title>
<path fill="none" stroke="midnightblue" d="M1229.83,-77.0164C1430.07,-76.2578 1883.51,-70.2193 2033,-32 2035.35,-31.4002 2037.73,-30.6148 2040.07,-29.7174"/>
<polygon fill="midnightblue" stroke="midnightblue" points="2041.62,-32.8586 2049.33,-25.5878 2038.77,-26.466 2041.62,-32.8586"/>
</g>
<!-- Node19 -->
<g id="node19" class="node"><title>Node19</title>
<polygon fill="none" stroke="#bfbfbf" points="1037.5,-6.5 1037.5,-25.5 1120.5,-25.5 1120.5,-6.5 1037.5,-6.5"/>
<text text-anchor="middle" x="1079" y="-13.5" font-family="Helvetica,sans-Serif" font-size="10.00">unordered_map</text>
</g>
<!-- Node9&#45;&gt;Node19 -->
<g id="edge18" class="edge"><title>Node9&#45;&gt;Node19</title>
<path fill="none" stroke="midnightblue" d="M1125.26,-68.4035C1117,-59.2252 1103.72,-44.4699 1093.51,-33.1173"/>
<polygon fill="midnightblue" stroke="midnightblue" points="1096.01,-30.6722 1086.72,-25.5806 1090.81,-35.3549 1096.01,-30.6722"/>
</g>
<!-- Node20 -->
<g id="node20" class="node"><title>Node20</title>
<polygon fill="none" stroke="#bfbfbf" points="1138.5,-6.5 1138.5,-25.5 1235.5,-25.5 1235.5,-6.5 1138.5,-6.5"/>
<text text-anchor="middle" x="1187" y="-13.5" font-family="Helvetica,sans-Serif" font-size="10.00">FairMQMessage.h</text>
</g>
<!-- Node9&#45;&gt;Node20 -->
<g id="edge19" class="edge"><title>Node9&#45;&gt;Node20</title>
<path fill="none" stroke="midnightblue" d="M1140.74,-68.4035C1149,-59.2252 1162.28,-44.4699 1172.49,-33.1173"/>
<polygon fill="midnightblue" stroke="midnightblue" points="1175.19,-35.3549 1179.28,-25.5806 1169.99,-30.6722 1175.19,-35.3549"/>
</g>
<!-- Node21 -->
<g id="node21" class="node"><title>Node21</title>
<polygon fill="none" stroke="#bfbfbf" points="1253.5,-6.5 1253.5,-25.5 1384.5,-25.5 1384.5,-6.5 1253.5,-6.5"/>
<text text-anchor="middle" x="1319" y="-13.5" font-family="Helvetica,sans-Serif" font-size="10.00">FairMQTransportFactory.h</text>
</g>
<!-- Node9&#45;&gt;Node21 -->
<g id="edge20" class="edge"><title>Node9&#45;&gt;Node21</title>
<path fill="none" stroke="midnightblue" d="M1159.65,-68.4035C1191.97,-57.9777 1246.6,-40.3557 1282.73,-28.6992"/>
<polygon fill="midnightblue" stroke="midnightblue" points="1283.96,-31.9817 1292.4,-25.5806 1281.81,-25.3197 1283.96,-31.9817"/>
</g>
<!-- Node22 -->
<g id="node22" class="node"><title>Node22</title>
<polygon fill="none" stroke="#bfbfbf" points="1402.5,-6.5 1402.5,-25.5 1539.5,-25.5 1539.5,-6.5 1402.5,-6.5"/>
<text text-anchor="middle" x="1471" y="-13.5" font-family="Helvetica,sans-Serif" font-size="10.00">fairmq/MemoryResources.h</text>
</g>
<!-- Node9&#45;&gt;Node22 -->
<g id="edge21" class="edge"><title>Node9&#45;&gt;Node22</title>
<path fill="none" stroke="midnightblue" d="M1183.87,-68.4839C1236.32,-59.6353 1320.45,-45.2538 1393,-32 1400.91,-30.5554 1409.26,-28.9908 1417.44,-27.4359"/>
<polygon fill="midnightblue" stroke="midnightblue" points="1418.13,-30.8673 1427.3,-25.5527 1416.82,-23.9917 1418.13,-30.8673"/>
</g>
<!-- Node23 -->
<g id="node23" class="node"><title>Node23</title>
<polygon fill="none" stroke="#bfbfbf" points="1558,-6.5 1558,-25.5 1714,-25.5 1714,-6.5 1558,-6.5"/>
<text text-anchor="middle" x="1636" y="-13.5" font-family="Helvetica,sans-Serif" font-size="10.00">fairmq/MemoryResourceTools.h</text>
</g>
<!-- Node9&#45;&gt;Node23 -->
<g id="edge22" class="edge"><title>Node9&#45;&gt;Node23</title>
<path fill="none" stroke="midnightblue" d="M1226.74,-68.4774C1310.98,-60.4276 1438,-47.3243 1548,-32 1558.02,-30.6047 1568.64,-28.9462 1578.92,-27.2493"/>
<polygon fill="midnightblue" stroke="midnightblue" points="1579.76,-30.657 1589.04,-25.5479 1578.6,-23.7538 1579.76,-30.657"/>
</g>
<!-- Node24&#45;&gt;Node14 -->
<g id="edge27" class="edge"><title>Node24&#45;&gt;Node14</title>
<path fill="none" stroke="midnightblue" d="M540.974,-68.3918C565.779,-59.7008 604.8,-45.6468 638,-32 639.641,-31.3256 641.32,-30.6178 643.01,-29.8922"/>
<polygon fill="midnightblue" stroke="midnightblue" points="644.873,-32.8953 652.603,-25.6498 642.042,-26.4933 644.873,-32.8953"/>
</g>
<!-- Node24&#45;&gt;Node15 -->
<g id="edge30" class="edge"><title>Node24&#45;&gt;Node15</title>
<path fill="none" stroke="midnightblue" d="M529.325,-68.4035C544.38,-58.6905 569.116,-42.7319 587.037,-31.1697"/>
<polygon fill="midnightblue" stroke="midnightblue" points="589.195,-33.9429 595.7,-25.5806 585.4,-28.0609 589.195,-33.9429"/>
</g>
<!-- Node25 -->
<g id="node25" class="node"><title>Node25</title>
<polygon fill="none" stroke="#bfbfbf" points="524,-6.5 524,-25.5 570,-25.5 570,-6.5 524,-6.5"/>
<text text-anchor="middle" x="547" y="-13.5" font-family="Helvetica,sans-Serif" font-size="10.00">cstdint</text>
</g>
<!-- Node24&#45;&gt;Node25 -->
<g id="edge24" class="edge"><title>Node24&#45;&gt;Node25</title>
<path fill="none" stroke="midnightblue" d="M520.442,-68.4035C524.953,-59.6707 532.074,-45.8893 537.807,-34.7936"/>
<polygon fill="midnightblue" stroke="midnightblue" points="541.086,-36.0714 542.567,-25.5806 534.867,-32.8583 541.086,-36.0714"/>
</g>
<!-- Node26 -->
<g id="node26" class="node"><title>Node26</title>
<polygon fill="none" stroke="#bfbfbf" points="144,-6.5 144,-25.5 196,-25.5 196,-6.5 144,-6.5"/>
<text text-anchor="middle" x="170" y="-13.5" font-family="Helvetica,sans-Serif" font-size="10.00">memory</text>
</g>
<!-- Node24&#45;&gt;Node26 -->
<g id="edge25" class="edge"><title>Node24&#45;&gt;Node26</title>
<path fill="none" stroke="midnightblue" d="M457.334,-69.3522C373.989,-58.3587 228.731,-38.6775 205,-32 202.347,-31.2535 199.63,-30.3524 196.94,-29.3668"/>
<polygon fill="midnightblue" stroke="midnightblue" points="198.063,-26.0458 187.48,-25.5523 195.446,-32.538 198.063,-26.0458"/>
</g>
<!-- Node27 -->
<g id="node27" class="node"><title>Node27</title>
<polygon fill="none" stroke="#bfbfbf" points="-0.5,-6.5 -0.5,-25.5 48.5,-25.5 48.5,-6.5 -0.5,-6.5"/>
<text text-anchor="middle" x="24" y="-13.5" font-family="Helvetica,sans-Serif" font-size="10.00">cassert</text>
</g>
<!-- Node24&#45;&gt;Node27 -->
<g id="edge26" class="edge"><title>Node24&#45;&gt;Node27</title>
<path fill="none" stroke="midnightblue" d="M457.303,-77.3515C368.94,-76.5236 197.167,-69.6143 57,-32 54.5003,-31.3292 51.9522,-30.4868 49.4356,-29.5453"/>
<polygon fill="midnightblue" stroke="midnightblue" points="50.629,-26.2499 40.0556,-25.576 47.901,-32.6965 50.629,-26.2499"/>
</g>
<!-- Node28 -->
<g id="node28" class="node"><title>Node28</title>
<polygon fill="none" stroke="#bfbfbf" points="450,-6.5 450,-25.5 506,-25.5 506,-6.5 450,-6.5"/>
<text text-anchor="middle" x="478" y="-13.5" font-family="Helvetica,sans-Serif" font-size="10.00">algorithm</text>
</g>
<!-- Node24&#45;&gt;Node28 -->
<g id="edge28" class="edge"><title>Node24&#45;&gt;Node28</title>
<path fill="none" stroke="midnightblue" d="M510.556,-68.4035C504.912,-59.4925 495.939,-45.3247 488.841,-34.1177"/>
<polygon fill="midnightblue" stroke="midnightblue" points="491.742,-32.1561 483.434,-25.5806 485.828,-35.9015 491.742,-32.1561"/>
</g>
<!-- Node24&#45;&gt;Node29 -->
<g id="edge29" class="edge"><title>Node24&#45;&gt;Node29</title>
<path fill="none" stroke="midnightblue" d="M457.433,-69.7464C452.551,-69.1518 447.691,-68.5633 443,-68 306.162,-51.568 268.813,-64.9965 135,-32 131.76,-31.2011 128.425,-30.2049 125.134,-29.1083"/>
<polygon fill="midnightblue" stroke="midnightblue" points="126.126,-25.7445 115.532,-25.6133 123.732,-32.3224 126.126,-25.7445"/>
</g>
<!-- Node30 -->
<g id="node30" class="node"><title>Node30</title>
<g id="a_node30"><a xlink:href="../../d7/df8/Types_8h.html" target="_top" xlink:title="MemoryResources/Types.h">
<polygon fill="none" stroke="black" points="294.5,-6.5 294.5,-25.5 431.5,-25.5 431.5,-6.5 294.5,-6.5"/>
<text text-anchor="middle" x="363" y="-13.5" font-family="Helvetica,sans-Serif" font-size="10.00">MemoryResources/Types.h</text>
</a>
</g>
</g>
<!-- Node24&#45;&gt;Node30 -->
<g id="edge31" class="edge"><title>Node24&#45;&gt;Node30</title>
<path fill="none" stroke="midnightblue" d="M494.079,-68.4035C467.948,-58.1559 424.088,-40.9561 394.37,-29.3021"/>
<polygon fill="midnightblue" stroke="midnightblue" points="395.468,-25.9731 384.881,-25.5806 392.912,-32.4899 395.468,-25.9731"/>
</g>
<!-- Node31&#45;&gt;Node9 -->
<g id="edge33" class="edge"><title>Node31&#45;&gt;Node9</title>
<path fill="none" stroke="midnightblue" d="M787.006,-125.526C790.386,-124.998 793.746,-124.484 797,-124 885.179,-110.883 986.642,-97.5342 1054.8,-88.8198"/>
<polygon fill="midnightblue" stroke="midnightblue" points="1055.55,-92.2526 1065.02,-87.5151 1054.66,-85.3089 1055.55,-92.2526"/>
</g>
<!-- Node31&#45;&gt;Node24 -->
<g id="edge34" class="edge"><title>Node31&#45;&gt;Node24</title>
<path fill="none" stroke="midnightblue" d="M706.19,-124.444C667.012,-115.083 604.123,-100.056 561.485,-89.868"/>
<polygon fill="midnightblue" stroke="midnightblue" points="562.182,-86.4363 551.643,-87.5164 560.556,-93.2446 562.182,-86.4363"/>
</g>
<!-- Node35 -->
<g id="node35" class="node"><title>Node35</title>
<polygon fill="none" stroke="#bfbfbf" points="321,-124.5 321,-143.5 401,-143.5 401,-124.5 321,-124.5"/>
<text text-anchor="middle" x="361" y="-131.5" font-family="Helvetica,sans-Serif" font-size="10.00">FairMQParts.h</text>
</g>
<!-- Node34&#45;&gt;Node35 -->
<g id="edge40" class="edge"><title>Node34&#45;&gt;Node35</title>
<path fill="none" stroke="midnightblue" d="M286.299,-180.324C300.183,-171.9 321.492,-158.971 337.804,-149.074"/>
<polygon fill="midnightblue" stroke="midnightblue" points="340.002,-151.834 346.736,-143.655 336.371,-145.85 340.002,-151.834"/>
</g>
<!-- Node36 -->
<g id="node36" class="node"><title>Node36</title>
<polygon fill="none" stroke="#bfbfbf" points="110.5,-124.5 110.5,-143.5 169.5,-143.5 169.5,-124.5 110.5,-124.5"/>
<text text-anchor="middle" x="140" y="-131.5" font-family="Helvetica,sans-Serif" font-size="10.00">TObject.h</text>
</g>
<!-- Node34&#45;&gt;Node36 -->
<g id="edge41" class="edge"><title>Node34&#45;&gt;Node36</title>
<path fill="none" stroke="midnightblue" d="M251.084,-180.444C229.264,-171.517 194.85,-157.439 170.108,-147.317"/>
<polygon fill="midnightblue" stroke="midnightblue" points="171.399,-144.063 160.818,-143.516 168.748,-150.542 171.399,-144.063"/>
</g>
<!-- Node37 -->
<g id="node37" class="node"><title>Node37</title>
<g id="a_node37"><a xlink:href="../../d6/d90/Headers_2include_2Headers_2TimeStamp_8h.html" target="_top" xlink:title="Headers/TimeStamp.h">
<polygon fill="none" stroke="black" points="187.5,-124.5 187.5,-143.5 302.5,-143.5 302.5,-124.5 187.5,-124.5"/>
<text text-anchor="middle" x="245" y="-131.5" font-family="Helvetica,sans-Serif" font-size="10.00">Headers/TimeStamp.h</text>
</a>
</g>
</g>
<!-- Node34&#45;&gt;Node37 -->
<g id="edge42" class="edge"><title>Node34&#45;&gt;Node37</title>
<path fill="none" stroke="midnightblue" d="M267.541,-180.083C263.846,-172.691 258.477,-161.953 253.906,-152.811"/>
<polygon fill="midnightblue" stroke="midnightblue" points="256.978,-151.13 249.376,-143.751 250.717,-154.261 256.978,-151.13"/>
</g>
<!-- Node37&#45;&gt;Node3 -->
<g id="edge44" class="edge"><title>Node37&#45;&gt;Node3</title>
<path fill="none" stroke="midnightblue" d="M225.035,-124.444C204.391,-115.596 171.937,-101.687 148.368,-91.5865"/>
<polygon fill="midnightblue" stroke="midnightblue" points="149.442,-88.2387 138.872,-87.5164 146.684,-94.6727 149.442,-88.2387"/>
</g>
<!-- Node37&#45;&gt;Node16 -->
<g id="edge46" class="edge"><title>Node37&#45;&gt;Node16</title>
<path fill="none" stroke="midnightblue" d="M245,-124.281C245,-105.547 245,-61.098 245,-35.6822"/>
<polygon fill="midnightblue" stroke="midnightblue" points="248.5,-35.5047 245,-25.5048 241.5,-35.5048 248.5,-35.5047"/>
</g>
<!-- Node37&#45;&gt;Node24 -->
<g id="edge43" class="edge"><title>Node37&#45;&gt;Node24</title>
<path fill="none" stroke="midnightblue" d="M287.941,-124.444C335.513,-114.964 412.244,-99.6747 463.389,-89.4835"/>
<polygon fill="midnightblue" stroke="midnightblue" points="464.137,-92.9032 473.26,-87.5164 462.769,-86.0382 464.137,-92.9032"/>
</g>
<!-- Node37&#45;&gt;Node27 -->
<g id="edge45" class="edge"><title>Node37&#45;&gt;Node27</title>
<path fill="none" stroke="midnightblue" d="M234.263,-124.29C217.35,-110.876 183.116,-84.9395 151,-68 111.43,-47.1287 98.2715,-49.2641 57,-32 55.3635,-31.3154 53.6873,-30.5998 52,-29.8682"/>
<polygon fill="midnightblue" stroke="midnightblue" points="52.9733,-26.4708 42.4136,-25.6089 50.1311,-32.8678 52.9733,-26.4708"/>
</g>
<!-- Node38&#45;&gt;Node18 -->
<g id="edge48" class="edge"><title>Node38&#45;&gt;Node18</title>
<path fill="none" stroke="midnightblue" d="M1149.82,-236.477C1258.57,-213.658 1564.21,-148.776 1817,-88 1913.43,-64.8167 1939.91,-66.2084 2033,-32 2034.85,-31.3194 2036.74,-30.5651 2038.63,-29.7673"/>
<polygon fill="midnightblue" stroke="midnightblue" points="2040.21,-32.8935 2047.85,-25.5564 2037.3,-26.5258 2040.21,-32.8935"/>
</g>
</g>
</svg>
        <g id="navigator" transform="translate(0 0)" fill="#404254">
                <rect fill="#f2f5e9" fill-opacity="0.5" stroke="#606060" stroke-width=".5" x="0" y="0" width="60" height="60"/>
                <use id="zoomplus" xlink:href="#zoomPlus" x="17" y="9" onmousedown="handleZoom(evt,'in')"/>
                <use id="zoomminus" xlink:href="#zoomMin" x="42" y="9" onmousedown="handleZoom(evt,'out')"/>
                <use id="reset" xlink:href="#resetDef" x="30" y="36" onmousedown="handleReset()"/>
                <g id="arrowUp" xlink:href="#dirArrow" transform="translate(30 24)" onmousedown="handlePan(0,-1)">
                  <use xlink:href="#rim" fill="#404040">
                        <set attributeName="fill" to="#808080" begin="arrowUp.mouseover" end="arrowUp.mouseout"/>
                  </use>
                  <path fill="none" stroke="white" stroke-width="1.5" d="M0,-3.0v7 M-2.5,-0.5L0,-3.0L2.5,-0.5"/>
                </g>
                <g id="arrowRight" xlink:href="#dirArrow" transform="rotate(90) translate(36 -43)" onmousedown="handlePan(1,0)">
                  <use xlink:href="#rim" fill="#404040">
                        <set attributeName="fill" to="#808080" begin="arrowRight.mouseover" end="arrowRight.mouseout"/>
                  </use>
                  <path fill="none" stroke="white" stroke-width="1.5" d="M0,-3.0v7 M-2.5,-0.5L0,-3.0L2.5,-0.5"/>
                </g>
                <g id="arrowDown" xlink:href="#dirArrow" transform="rotate(180) translate(-30 -48)" onmousedown="handlePan(0,1)">
                  <use xlink:href="#rim" fill="#404040">
                        <set attributeName="fill" to="#808080" begin="arrowDown.mouseover" end="arrowDown.mouseout"/>
                  </use>
                  <path fill="none" stroke="white" stroke-width="1.5" d="M0,-3.0v7 M-2.5,-0.5L0,-3.0L2.5,-0.5"/>
                </g>
                <g id="arrowLeft" xlink:href="#dirArrow" transform="rotate(270) translate(-36 17)" onmousedown="handlePan(-1,0)">
                  <use xlink:href="#rim" fill="#404040">
                        <set attributeName="fill" to="#808080" begin="arrowLeft.mouseover" end="arrowLeft.mouseout"/>
                  </use>
                  <path fill="none" stroke="white" stroke-width="1.5" d="M0,-3.0v7 M-2.5,-0.5L0,-3.0L2.5,-0.5"/>
                </g>
        </g>
        <svg viewBox="0 0 15 15" width="100%" height="30px" preserveAspectRatio="xMaxYMin meet">
         <g id="arrow_out" transform="scale(0.3 0.3)">
          <a xlink:href="TimeframeValidatorDevice_8cxx__incl_org.svg" target="_base">
           <rect id="button" ry="5" rx="5" y="6" x="6" height="38" width="38"
                fill="#f2f5e9" fill-opacity="0.5" stroke="#606060" stroke-width="1.0"/>
           <path id="arrow"
             d="M 11.500037,31.436501 C 11.940474,20.09759 22.043105,11.32322 32.158766,21.979434 L 37.068811,17.246167 C 37.068811,17.246167 37.088388,32 37.088388,32 L 22.160133,31.978069 C 22.160133,31.978069 26.997745,27.140456 26.997745,27.140456 C 18.528582,18.264221 13.291696,25.230495 11.500037,31.436501 z"
             style="fill:#404040;"/>
          </a>
         </g>
        </svg>
</svg>
