<?xml version="1.0" encoding="UTF-8" standalone="no"?>
<!DOCTYPE svg PUBLIC "-//W3C//DTD SVG 1.1//EN"
 "http://www.w3.org/Graphics/SVG/1.1/DTD/svg11.dtd">
<!-- Generated by graphviz version 2.36.0 (20140111.2315)
 -->
<!-- Title: /home/travis/build/AliceO2Group/AliceO2/Utilities/DataFlow/src/runSubframeBuilderDevice.cxx Pages: 1 -->
<!--zoomable 422 -->
<svg id="main" version="1.1" xmlns="http://www.w3.org/2000/svg" xmlns:xlink="http://www.w3.org/1999/xlink" xml:space="preserve" onload="init(evt)">
<style type="text/css"><![CDATA[
.edge:hover path { stroke: red; }
.edge:hover polygon { stroke: red; fill: red; }
]]></style>
<script type="text/javascript"><![CDATA[
var edges = document.getElementsByTagName('g');
if (edges && edges.length) {
  for (var i=0;i<edges.length;i++) {
    if (edges[i].id.substr(0,4)=='edge') {
      edges[i].setAttribute('class','edge');
    }
  }
}
]]></script>
        <defs>
                <circle id="rim" cx="0" cy="0" r="7"/>
                <circle id="rim2" cx="0" cy="0" r="3.5"/>
                <g id="zoomPlus">
                        <use xlink:href="#rim" fill="#404040">
                                <set attributeName="fill" to="#808080" begin="zoomplus.mouseover" end="zoomplus.mouseout"/>
                        </use>
                        <path d="M-4,0h8M0,-4v8" fill="none" stroke="white" stroke-width="1.5" pointer-events="none"/>
                </g>
                <g id="zoomMin">
                        <use xlink:href="#rim" fill="#404040">
                                <set attributeName="fill" to="#808080" begin="zoomminus.mouseover" end="zoomminus.mouseout"/>
                        </use>
                        <path d="M-4,0h8" fill="none" stroke="white" stroke-width="1.5" pointer-events="none"/>
                </g>
                <g id="dirArrow">
                        <path fill="none" stroke="white" stroke-width="1.5" d="M0,-3.0v7 M-2.5,-0.5L0,-3.0L2.5,-0.5"/>
                </g>
               <g id="resetDef">
                       <use xlink:href="#rim2" fill="#404040">
                               <set attributeName="fill" to="#808080" begin="reset.mouseover" end="reset.mouseout"/>
                       </use>
               </g>
        </defs>

<script type="text/javascript">
var viewWidth = 2406;
var viewHeight = 422;
var sectionId = 'dynsection-0';
</script>
<script xlink:href="../../svgpan.js"/>
<svg id="graph" class="graph">
<g id="viewport">
<title>/home/travis/build/AliceO2Group/AliceO2/Utilities/DataFlow/src/runSubframeBuilderDevice.cxx</title>
<!-- Node1 -->
<g id="node1" class="node"><title>Node1</title>
<polygon fill="#bfbfbf" stroke="black" points="390.5,-361 390.5,-413 545.5,-413 545.5,-361 390.5,-361"/>
<text text-anchor="start" x="398.5" y="-401" font-family="Helvetica,sans-Serif" font-size="10.00">/home/travis/build</text>
<text text-anchor="start" x="398.5" y="-390" font-family="Helvetica,sans-Serif" font-size="10.00">/AliceO2Group/AliceO2</text>
<text text-anchor="start" x="398.5" y="-379" font-family="Helvetica,sans-Serif" font-size="10.00">/Utilities/DataFlow/src</text>
<text text-anchor="middle" x="468" y="-368" font-family="Helvetica,sans-Serif" font-size="10.00">/runSubframeBuilderDevice.cxx</text>
</g>
<!-- Node2 -->
<g id="node2" class="node"><title>Node2</title>
<polygon fill="none" stroke="#bfbfbf" points="349.5,-298.5 349.5,-317.5 450.5,-317.5 450.5,-298.5 349.5,-298.5"/>
<text text-anchor="middle" x="400" y="-305.5" font-family="Helvetica,sans-Serif" font-size="10.00">runFairMQDevice.h</text>
</g>
<!-- Node1&#45;&gt;Node2 -->
<g id="edge1" class="edge"><title>Node1&#45;&gt;Node2</title>
<path fill="none" stroke="midnightblue" d="M445.734,-360.787C435.446,-349.137 423.523,-335.636 414.431,-325.341"/>
<polygon fill="midnightblue" stroke="midnightblue" points="416.8,-322.736 407.557,-317.558 411.553,-327.37 416.8,-322.736"/>
</g>
<!-- Node3 -->
<g id="node3" class="node"><title>Node3</title>
<g id="a_node3"><a xlink:href="../../d0/d82/SubframeBuilderDevice_8h.html" target="_top" xlink:title="Demonstrator device for a subframe builder. ">
<polygon fill="none" stroke="black" points="469,-293 469,-323 603,-323 603,-293 469,-293"/>
<text text-anchor="start" x="477" y="-311" font-family="Helvetica,sans-Serif" font-size="10.00">DataFlow/SubframeBuilder</text>
<text text-anchor="middle" x="536" y="-300" font-family="Helvetica,sans-Serif" font-size="10.00">Device.h</text>
</a>
</g>
</g>
<!-- Node1&#45;&gt;Node3 -->
<g id="edge2" class="edge"><title>Node1&#45;&gt;Node3</title>
<path fill="none" stroke="midnightblue" d="M490.266,-360.787C498.774,-351.153 508.399,-340.254 516.617,-330.948"/>
<polygon fill="midnightblue" stroke="midnightblue" points="519.418,-333.064 523.414,-323.252 514.171,-328.431 519.418,-333.064"/>
</g>
<!-- Node4 -->
<g id="node4" class="node"><title>Node4</title>
<g id="a_node4"><a xlink:href="../../dc/dcd/DataHeader_8h.html" target="_top" xlink:title="Headers/DataHeader.h">
<polygon fill="none" stroke="black" points="606.5,-68.5 606.5,-87.5 723.5,-87.5 723.5,-68.5 606.5,-68.5"/>
<text text-anchor="middle" x="665" y="-75.5" font-family="Helvetica,sans-Serif" font-size="10.00">Headers/DataHeader.h</text>
</a>
</g>
</g>
<!-- Node3&#45;&gt;Node4 -->
<g id="edge3" class="edge"><title>Node3&#45;&gt;Node4</title>
<path fill="none" stroke="midnightblue" d="M553.629,-292.802C564.597,-283.278 578.394,-269.959 588,-256 624.183,-203.419 649.149,-131.1 659.559,-97.5203"/>
<polygon fill="midnightblue" stroke="midnightblue" points="662.984,-98.2872 662.527,-87.7022 656.283,-96.2618 662.984,-98.2872"/>
</g>
<!-- Node8 -->
<g id="node8" class="node"><title>Node8</title>
<polygon fill="none" stroke="#bfbfbf" points="437,-6.5 437,-25.5 483,-25.5 483,-6.5 437,-6.5"/>
<text text-anchor="middle" x="460" y="-13.5" font-family="Helvetica,sans-Serif" font-size="10.00">cstring</text>
</g>
<!-- Node3&#45;&gt;Node8 -->
<g id="edge55" class="edge"><title>Node3&#45;&gt;Node8</title>
<path fill="none" stroke="midnightblue" d="M543.874,-292.841C555.004,-271.463 574,-229.357 574,-191 574,-191 574,-191 574,-133 574,-84.0907 521.809,-48.2609 488.054,-30.2023"/>
<polygon fill="midnightblue" stroke="midnightblue" points="489.574,-27.0483 479.081,-25.584 486.371,-33.2723 489.574,-27.0483"/>
</g>
<!-- Node13 -->
<g id="node13" class="node"><title>Node13</title>
<g id="a_node13"><a xlink:href="../../d2/d09/HeartbeatFrame_8h.html" target="_top" xlink:title="Headers/HeartbeatFrame.h">
<polygon fill="none" stroke="black" points="248.5,-124.5 248.5,-143.5 383.5,-143.5 383.5,-124.5 248.5,-124.5"/>
<text text-anchor="middle" x="316" y="-131.5" font-family="Helvetica,sans-Serif" font-size="10.00">Headers/HeartbeatFrame.h</text>
</a>
</g>
</g>
<!-- Node3&#45;&gt;Node13 -->
<g id="edge12" class="edge"><title>Node3&#45;&gt;Node13</title>
<path fill="none" stroke="midnightblue" d="M502.241,-292.953C463.437,-275.544 399.517,-242.855 356,-200 342.173,-186.384 331.076,-167.074 324.11,-153.041"/>
<polygon fill="midnightblue" stroke="midnightblue" points="327.23,-151.452 319.787,-143.912 320.903,-154.448 327.23,-151.452"/>
</g>
<!-- Node15 -->
<g id="node15" class="node"><title>Node15</title>
<polygon fill="none" stroke="#bfbfbf" points="336.5,-68.5 336.5,-87.5 371.5,-87.5 371.5,-68.5 336.5,-68.5"/>
<text text-anchor="middle" x="354" y="-75.5" font-family="Helvetica,sans-Serif" font-size="10.00">map</text>
</g>
<!-- Node3&#45;&gt;Node15 -->
<g id="edge56" class="edge"><title>Node3&#45;&gt;Node15</title>
<path fill="none" stroke="midnightblue" d="M539.286,-292.574C546.089,-258.694 557.805,-173.196 516,-124 498.699,-103.64 423.301,-89.3874 381.743,-82.9188"/>
<polygon fill="midnightblue" stroke="midnightblue" points="382.13,-79.4377 371.72,-81.4076 381.087,-86.3595 382.13,-79.4377"/>
</g>
<!-- Node17 -->
<g id="node17" class="node"><title>Node17</title>
<g id="a_node17"><a xlink:href="../../d2/dee/O2Device_8h.html" target="_top" xlink:title="O2Device/O2Device.h">
<polygon fill="none" stroke="black" points="844.5,-236.5 844.5,-255.5 959.5,-255.5 959.5,-236.5 844.5,-236.5"/>
<text text-anchor="middle" x="902" y="-243.5" font-family="Helvetica,sans-Serif" font-size="10.00">O2Device/O2Device.h</text>
</a>
</g>
</g>
<!-- Node3&#45;&gt;Node17 -->
<g id="edge17" class="edge"><title>Node3&#45;&gt;Node17</title>
<path fill="none" stroke="midnightblue" d="M603.13,-295.995C670.712,-284.916 774.11,-267.966 839.859,-257.187"/>
<polygon fill="midnightblue" stroke="midnightblue" points="840.775,-260.584 850.077,-255.512 839.643,-253.676 840.775,-260.584"/>
</g>
<!-- Node36 -->
<g id="node36" class="node"><title>Node36</title>
<g id="a_node36"><a xlink:href="../../d3/d95/PayloadMerger_8h.html" target="_top" xlink:title="DataFlow/PayloadMerger.h">
<polygon fill="none" stroke="black" points="95.5,-124.5 95.5,-143.5 230.5,-143.5 230.5,-124.5 95.5,-124.5"/>
<text text-anchor="middle" x="163" y="-131.5" font-family="Helvetica,sans-Serif" font-size="10.00">DataFlow/PayloadMerger.h</text>
</a>
</g>
</g>
<!-- Node3&#45;&gt;Node36 -->
<g id="edge44" class="edge"><title>Node3&#45;&gt;Node36</title>
<path fill="none" stroke="midnightblue" d="M492.851,-292.902C464.878,-283.368 427.851,-270.001 396,-256 317.415,-221.455 228.354,-172.252 186.762,-148.653"/>
<polygon fill="midnightblue" stroke="midnightblue" points="188.355,-145.533 177.933,-143.623 184.89,-151.615 188.355,-145.533"/>
</g>
<!-- Node38 -->
<g id="node38" class="node"><title>Node38</title>
<g id="a_node38"><a xlink:href="../../d2/de2/SubframeUtils_8h.html" target="_top" xlink:title="DataFlow/SubframeUtils.h">
<polygon fill="none" stroke="black" points="365,-180.5 365,-199.5 497,-199.5 497,-180.5 365,-180.5"/>
<text text-anchor="middle" x="431" y="-187.5" font-family="Helvetica,sans-Serif" font-size="10.00">DataFlow/SubframeUtils.h</text>
</a>
</g>
</g>
<!-- Node3&#45;&gt;Node38 -->
<g id="edge51" class="edge"><title>Node3&#45;&gt;Node38</title>
<path fill="none" stroke="midnightblue" d="M523.125,-292.776C503.519,-271.116 466.284,-229.981 445.663,-207.2"/>
<polygon fill="midnightblue" stroke="midnightblue" points="448.187,-204.772 438.881,-199.707 442.997,-209.47 448.187,-204.772"/>
</g>
<!-- Node5 -->
<g id="node5" class="node"><title>Node5</title>
<polygon fill="none" stroke="#bfbfbf" points="223,-6.5 223,-25.5 269,-25.5 269,-6.5 223,-6.5"/>
<text text-anchor="middle" x="246" y="-13.5" font-family="Helvetica,sans-Serif" font-size="10.00">cstdint</text>
</g>
<!-- Node4&#45;&gt;Node5 -->
<g id="edge4" class="edge"><title>Node4&#45;&gt;Node5</title>
<path fill="none" stroke="midnightblue" d="M606.299,-68.5941C517.18,-55.8325 350.615,-31.9807 279.537,-21.8024"/>
<polygon fill="midnightblue" stroke="midnightblue" points="279.764,-18.2993 269.369,-20.3463 278.771,-25.2286 279.764,-18.2993"/>
</g>
<!-- Node6 -->
<g id="node6" class="node"><title>Node6</title>
<polygon fill="none" stroke="#bfbfbf" points="501,-6.5 501,-25.5 553,-25.5 553,-6.5 501,-6.5"/>
<text text-anchor="middle" x="527" y="-13.5" font-family="Helvetica,sans-Serif" font-size="10.00">memory</text>
</g>
<!-- Node4&#45;&gt;Node6 -->
<g id="edge5" class="edge"><title>Node4&#45;&gt;Node6</title>
<path fill="none" stroke="midnightblue" d="M645.228,-68.4035C621.864,-58.245 582.786,-41.2547 555.997,-29.6074"/>
<polygon fill="midnightblue" stroke="midnightblue" points="557.302,-26.3582 546.735,-25.5806 554.511,-32.7777 557.302,-26.3582"/>
</g>
<!-- Node7 -->
<g id="node7" class="node"><title>Node7</title>
<polygon fill="none" stroke="#bfbfbf" points="571.5,-6.5 571.5,-25.5 620.5,-25.5 620.5,-6.5 571.5,-6.5"/>
<text text-anchor="middle" x="596" y="-13.5" font-family="Helvetica,sans-Serif" font-size="10.00">cassert</text>
</g>
<!-- Node4&#45;&gt;Node7 -->
<g id="edge6" class="edge"><title>Node4&#45;&gt;Node7</title>
<path fill="none" stroke="midnightblue" d="M655.114,-68.4035C644.354,-59.047 626.929,-43.8948 613.779,-32.4599"/>
<polygon fill="midnightblue" stroke="midnightblue" points="615.71,-29.5013 605.868,-25.5806 611.117,-34.7835 615.71,-29.5013"/>
</g>
<!-- Node4&#45;&gt;Node8 -->
<g id="edge7" class="edge"><title>Node4&#45;&gt;Node8</title>
<path fill="none" stroke="midnightblue" d="M623.456,-68.4511C588.001,-60.623 535.932,-47.8578 492,-32 490.096,-31.3126 488.15,-30.5531 486.206,-29.7516"/>
<polygon fill="midnightblue" stroke="midnightblue" points="487.255,-26.3877 476.694,-25.5327 484.417,-32.7866 487.255,-26.3877"/>
</g>
<!-- Node9 -->
<g id="node9" class="node"><title>Node9</title>
<polygon fill="none" stroke="#bfbfbf" points="639,-6.5 639,-25.5 695,-25.5 695,-6.5 639,-6.5"/>
<text text-anchor="middle" x="667" y="-13.5" font-family="Helvetica,sans-Serif" font-size="10.00">algorithm</text>
</g>
<!-- Node4&#45;&gt;Node9 -->
<g id="edge8" class="edge"><title>Node4&#45;&gt;Node9</title>
<path fill="none" stroke="midnightblue" d="M665.287,-68.4035C665.569,-59.9381 666.009,-46.7283 666.373,-35.8199"/>
<polygon fill="midnightblue" stroke="midnightblue" points="669.879,-35.6917 666.714,-25.5806 662.883,-35.4584 669.879,-35.6917"/>
</g>
<!-- Node10 -->
<g id="node10" class="node"><title>Node10</title>
<polygon fill="none" stroke="#bfbfbf" points="868.5,-6.5 868.5,-25.5 927.5,-25.5 927.5,-6.5 868.5,-6.5"/>
<text text-anchor="middle" x="898" y="-13.5" font-family="Helvetica,sans-Serif" font-size="10.00">stdexcept</text>
</g>
<!-- Node4&#45;&gt;Node10 -->
<g id="edge9" class="edge"><title>Node4&#45;&gt;Node10</title>
<path fill="none" stroke="midnightblue" d="M709.771,-68.4613C749.396,-60.4683 808.59,-47.4583 859,-32 861.796,-31.1426 864.678,-30.1833 867.551,-29.1754"/>
<polygon fill="midnightblue" stroke="midnightblue" points="868.967,-32.3837 877.138,-25.6392 866.544,-25.8162 868.967,-32.3837"/>
</g>
<!-- Node11 -->
<g id="node11" class="node"><title>Node11</title>
<polygon fill="none" stroke="#bfbfbf" points="945.5,-6.5 945.5,-25.5 986.5,-25.5 986.5,-6.5 945.5,-6.5"/>
<text text-anchor="middle" x="966" y="-13.5" font-family="Helvetica,sans-Serif" font-size="10.00">string</text>
</g>
<!-- Node4&#45;&gt;Node11 -->
<g id="edge10" class="edge"><title>Node4&#45;&gt;Node11</title>
<path fill="none" stroke="midnightblue" d="M723.555,-72.3682C779.266,-66.7807 864.899,-55.0974 936,-32 937.911,-31.3793 939.851,-30.6535 941.779,-29.8621"/>
<polygon fill="midnightblue" stroke="midnightblue" points="943.507,-32.9192 951.112,-25.5428 940.567,-26.5666 943.507,-32.9192"/>
</g>
<!-- Node12 -->
<g id="node12" class="node"><title>Node12</title>
<g id="a_node12"><a xlink:href="../../d7/df8/Types_8h.html" target="_top" xlink:title="MemoryResources/Types.h">
<polygon fill="none" stroke="black" points="713.5,-6.5 713.5,-25.5 850.5,-25.5 850.5,-6.5 713.5,-6.5"/>
<text text-anchor="middle" x="782" y="-13.5" font-family="Helvetica,sans-Serif" font-size="10.00">MemoryResources/Types.h</text>
</a>
</g>
</g>
<!-- Node4&#45;&gt;Node12 -->
<g id="edge11" class="edge"><title>Node4&#45;&gt;Node12</title>
<path fill="none" stroke="midnightblue" d="M681.763,-68.4035C701.225,-58.4232 733.545,-41.8487 756.211,-30.2253"/>
<polygon fill="midnightblue" stroke="midnightblue" points="757.967,-33.2582 765.268,-25.5806 754.773,-27.0294 757.967,-33.2582"/>
</g>
<!-- Node13&#45;&gt;Node4 -->
<g id="edge13" class="edge"><title>Node13&#45;&gt;Node4</title>
<path fill="none" stroke="midnightblue" d="M371.3,-124.444C433.331,-114.846 533.856,-99.2916 599.7,-89.1037"/>
<polygon fill="midnightblue" stroke="midnightblue" points="600.611,-92.5044 609.959,-87.5164 599.541,-85.5868 600.611,-92.5044"/>
</g>
<!-- Node14 -->
<g id="node14" class="node"><title>Node14</title>
<polygon fill="none" stroke="#bfbfbf" points="259.5,-68.5 259.5,-87.5 318.5,-87.5 318.5,-68.5 259.5,-68.5"/>
<text text-anchor="middle" x="289" y="-75.5" font-family="Helvetica,sans-Serif" font-size="10.00">functional</text>
</g>
<!-- Node13&#45;&gt;Node14 -->
<g id="edge14" class="edge"><title>Node13&#45;&gt;Node14</title>
<path fill="none" stroke="midnightblue" d="M311.541,-124.083C307.846,-116.691 302.477,-105.953 297.906,-96.8111"/>
<polygon fill="midnightblue" stroke="midnightblue" points="300.978,-95.1301 293.376,-87.7511 294.717,-98.2606 300.978,-95.1301"/>
</g>
<!-- Node13&#45;&gt;Node15 -->
<g id="edge15" class="edge"><title>Node13&#45;&gt;Node15</title>
<path fill="none" stroke="midnightblue" d="M322.275,-124.083C327.642,-116.455 335.518,-105.264 342.079,-95.9408"/>
<polygon fill="midnightblue" stroke="midnightblue" points="344.949,-97.9434 347.842,-87.7511 339.225,-93.9149 344.949,-97.9434"/>
</g>
<!-- Node16 -->
<g id="node16" class="node"><title>Node16</title>
<polygon fill="none" stroke="#bfbfbf" points="375,-6.5 375,-25.5 419,-25.5 419,-6.5 375,-6.5"/>
<text text-anchor="middle" x="397" y="-13.5" font-family="Helvetica,sans-Serif" font-size="10.00">vector</text>
</g>
<!-- Node13&#45;&gt;Node16 -->
<g id="edge16" class="edge"><title>Node13&#45;&gt;Node16</title>
<path fill="none" stroke="midnightblue" d="M334.827,-124.457C349.346,-116.904 368.784,-104.519 380,-88 390.553,-72.4578 394.585,-51.1124 396.109,-35.8937"/>
<polygon fill="midnightblue" stroke="midnightblue" points="399.62,-35.8747 396.852,-25.6477 392.638,-35.3682 399.62,-35.8747"/>
</g>
<!-- Node17&#45;&gt;Node10 -->
<g id="edge43" class="edge"><title>Node17&#45;&gt;Node10</title>
<path fill="none" stroke="midnightblue" d="M959.647,-237.122C1002.74,-229.914 1056.44,-217.666 1070,-200 1122.91,-131.05 989.139,-58.5226 927.327,-29.7939"/>
<polygon fill="midnightblue" stroke="midnightblue" points="928.615,-26.5343 918.064,-25.5664 925.708,-32.9025 928.615,-26.5343"/>
</g>
<!-- Node18 -->
<g id="node18" class="node"><title>Node18</title>
<polygon fill="none" stroke="#bfbfbf" points="640,-180.5 640,-199.5 728,-199.5 728,-180.5 640,-180.5"/>
<text text-anchor="middle" x="684" y="-187.5" font-family="Helvetica,sans-Serif" font-size="10.00">FairMQDevice.h</text>
</g>
<!-- Node17&#45;&gt;Node18 -->
<g id="edge18" class="edge"><title>Node17&#45;&gt;Node18</title>
<path fill="none" stroke="midnightblue" d="M867.457,-236.444C829.747,-227.102 769.26,-212.119 728.135,-201.933"/>
<polygon fill="midnightblue" stroke="midnightblue" points="728.929,-198.524 718.381,-199.516 727.246,-205.318 728.929,-198.524"/>
</g>
<!-- Node19 -->
<g id="node19" class="node"><title>Node19</title>
<polygon fill="none" stroke="#bfbfbf" points="746,-180.5 746,-199.5 892,-199.5 892,-180.5 746,-180.5"/>
<text text-anchor="middle" x="819" y="-187.5" font-family="Helvetica,sans-Serif" font-size="10.00">options/FairMQProgOptions.h</text>
</g>
<!-- Node17&#45;&gt;Node19 -->
<g id="edge19" class="edge"><title>Node17&#45;&gt;Node19</title>
<path fill="none" stroke="midnightblue" d="M888.665,-236.324C875.838,-227.979 856.215,-215.212 841.06,-205.352"/>
<polygon fill="midnightblue" stroke="midnightblue" points="842.593,-202.174 832.302,-199.655 838.776,-208.042 842.593,-202.174"/>
</g>
<!-- Node20 -->
<g id="node20" class="node"><title>Node20</title>
<g id="a_node20"><a xlink:href="../../d7/db2/Utilities_8h.html" target="_top" xlink:title="O2Device/Utilities.h">
<polygon fill="none" stroke="black" points="1172,-180.5 1172,-199.5 1276,-199.5 1276,-180.5 1172,-180.5"/>
<text text-anchor="middle" x="1224" y="-187.5" font-family="Helvetica,sans-Serif" font-size="10.00">O2Device/Utilities.h</text>
</a>
</g>
</g>
<!-- Node17&#45;&gt;Node20 -->
<g id="edge20" class="edge"><title>Node17&#45;&gt;Node20</title>
<path fill="none" stroke="midnightblue" d="M953.022,-236.444C1010.02,-226.885 1102.24,-211.419 1163,-201.23"/>
<polygon fill="midnightblue" stroke="midnightblue" points="1163.93,-204.622 1173.22,-199.516 1162.78,-197.719 1163.93,-204.622"/>
</g>
<!-- Node35 -->
<g id="node35" class="node"><title>Node35</title>
<polygon fill="none" stroke="#bfbfbf" points="910.5,-180.5 910.5,-199.5 1061.5,-199.5 1061.5,-180.5 910.5,-180.5"/>
<text text-anchor="middle" x="986" y="-187.5" font-family="Helvetica,sans-Serif" font-size="10.00">Monitoring/MonitoringFactory.h</text>
</g>
<!-- Node17&#45;&gt;Node35 -->
<g id="edge42" class="edge"><title>Node17&#45;&gt;Node35</title>
<path fill="none" stroke="midnightblue" d="M915.496,-236.324C928.6,-227.9 948.712,-214.971 964.107,-205.074"/>
<polygon fill="midnightblue" stroke="midnightblue" points="966.018,-208.006 972.537,-199.655 962.233,-202.118 966.018,-208.006"/>
</g>
<!-- Node20&#45;&gt;Node4 -->
<g id="edge36" class="edge"><title>Node20&#45;&gt;Node4</title>
<path fill="none" stroke="midnightblue" d="M1180.6,-180.46C1079.48,-160.562 828.44,-111.162 718.268,-89.4822"/>
<polygon fill="midnightblue" stroke="midnightblue" points="718.859,-86.0313 708.371,-87.5345 717.507,-92.8995 718.859,-86.0313"/>
</g>
<!-- Node21 -->
<g id="node21" class="node"><title>Node21</title>
<g id="a_node21"><a xlink:href="../../dc/d03/MemoryResources_8h.html" target="_top" xlink:title="MemoryResources/MemoryResources.h">
<polygon fill="none" stroke="black" points="1346.5,-68.5 1346.5,-87.5 1539.5,-87.5 1539.5,-68.5 1346.5,-68.5"/>
<text text-anchor="middle" x="1443" y="-75.5" font-family="Helvetica,sans-Serif" font-size="10.00">MemoryResources/MemoryResources.h</text>
</a>
</g>
</g>
<!-- Node20&#45;&gt;Node21 -->
<g id="edge21" class="edge"><title>Node20&#45;&gt;Node21</title>
<path fill="none" stroke="midnightblue" d="M1247.16,-180.397C1269.3,-171.925 1303.46,-158.223 1332,-144 1363.83,-128.139 1399.01,-106.858 1421.06,-93.0384"/>
<polygon fill="midnightblue" stroke="midnightblue" points="1423.07,-95.9087 1429.66,-87.6099 1419.33,-89.9901 1423.07,-95.9087"/>
</g>
<!-- Node27 -->
<g id="node27" class="node"><title>Node27</title>
<polygon fill="none" stroke="#bfbfbf" points="1005,-6.5 1005,-25.5 1045,-25.5 1045,-6.5 1005,-6.5"/>
<text text-anchor="middle" x="1025" y="-13.5" font-family="Helvetica,sans-Serif" font-size="10.00">utility</text>
</g>
<!-- Node20&#45;&gt;Node27 -->
<g id="edge40" class="edge"><title>Node20&#45;&gt;Node27</title>
<path fill="none" stroke="midnightblue" d="M1248.07,-180.414C1275.56,-169.223 1314.71,-148.2 1298,-124 1232.37,-28.9795 1160.78,-78.3267 1055,-32 1053.6,-31.3868 1052.17,-30.7416 1050.74,-30.0775"/>
<polygon fill="midnightblue" stroke="midnightblue" points="1051.89,-26.7486 1041.36,-25.5575 1048.85,-33.0538 1051.89,-26.7486"/>
</g>
<!-- Node33 -->
<g id="node33" class="node"><title>Node33</title>
<g id="a_node33"><a xlink:href="../../d4/d00/Headers_2include_2Headers_2Stack_8h.html" target="_top" xlink:title="Headers/Stack.h">
<polygon fill="none" stroke="black" points="1136,-124.5 1136,-143.5 1226,-143.5 1226,-124.5 1136,-124.5"/>
<text text-anchor="middle" x="1181" y="-131.5" font-family="Helvetica,sans-Serif" font-size="10.00">Headers/Stack.h</text>
</a>
</g>
</g>
<!-- Node20&#45;&gt;Node33 -->
<g id="edge37" class="edge"><title>Node20&#45;&gt;Node33</title>
<path fill="none" stroke="midnightblue" d="M1216.9,-180.083C1210.76,-172.377 1201.73,-161.033 1194.26,-151.653"/>
<polygon fill="midnightblue" stroke="midnightblue" points="1196.94,-149.394 1187.97,-143.751 1191.46,-153.754 1196.94,-149.394"/>
</g>
<!-- Node34 -->
<g id="node34" class="node"><title>Node34</title>
<polygon fill="none" stroke="#bfbfbf" points="1244.5,-124.5 1244.5,-143.5 1289.5,-143.5 1289.5,-124.5 1244.5,-124.5"/>
<text text-anchor="middle" x="1267" y="-131.5" font-family="Helvetica,sans-Serif" font-size="10.00">gsl/gsl</text>
</g>
<!-- Node20&#45;&gt;Node34 -->
<g id="edge41" class="edge"><title>Node20&#45;&gt;Node34</title>
<path fill="none" stroke="midnightblue" d="M1231.1,-180.083C1237.24,-172.377 1246.27,-161.033 1253.74,-151.653"/>
<polygon fill="midnightblue" stroke="midnightblue" points="1256.54,-153.754 1260.03,-143.751 1251.06,-149.394 1256.54,-153.754"/>
</g>
<!-- Node21&#45;&gt;Node8 -->
<g id="edge26" class="edge"><title>Node21&#45;&gt;Node8</title>
<path fill="none" stroke="midnightblue" d="M1346.3,-77.1817C1137.74,-76.8003 651.638,-71.5419 492,-32 489.499,-31.3804 486.957,-30.5604 484.455,-29.6224"/>
<polygon fill="midnightblue" stroke="midnightblue" points="485.742,-26.3655 475.175,-25.5943 482.954,-32.7867 485.742,-26.3655"/>
</g>
<!-- Node21&#45;&gt;Node11 -->
<g id="edge27" class="edge"><title>Node21&#45;&gt;Node11</title>
<path fill="none" stroke="midnightblue" d="M1346.49,-77.2939C1254.64,-75.2507 1113.43,-66.0209 996,-32 994.028,-31.4288 992.031,-30.7305 990.052,-29.951"/>
<polygon fill="midnightblue" stroke="midnightblue" points="991.069,-26.5674 980.52,-25.5881 988.156,-32.9324 991.069,-26.5674"/>
</g>
<!-- Node21&#45;&gt;Node16 -->
<g id="edge30" class="edge"><title>Node21&#45;&gt;Node16</title>
<path fill="none" stroke="midnightblue" d="M1346.38,-77.6744C1127.57,-78.4004 599.869,-75.425 428,-32 425.652,-31.4068 423.272,-30.6259 420.927,-29.7315"/>
<polygon fill="midnightblue" stroke="midnightblue" points="422.229,-26.4799 411.67,-25.6062 419.379,-32.8737 422.229,-26.4799"/>
</g>
<!-- Node22 -->
<g id="node22" class="node"><title>Node22</title>
<polygon fill="none" stroke="#bfbfbf" points="1393,-1 1393,-31 1493,-31 1493,-1 1393,-1"/>
<text text-anchor="start" x="1401" y="-19" font-family="Helvetica,sans-Serif" font-size="10.00">boost/container/flat</text>
<text text-anchor="middle" x="1443" y="-8" font-family="Helvetica,sans-Serif" font-size="10.00">_map.hpp</text>
</g>
<!-- Node21&#45;&gt;Node22 -->
<g id="edge22" class="edge"><title>Node21&#45;&gt;Node22</title>
<path fill="none" stroke="midnightblue" d="M1443,-68.4035C1443,-61.3405 1443,-50.975 1443,-41.399"/>
<polygon fill="midnightblue" stroke="midnightblue" points="1446.5,-41.1408 1443,-31.1408 1439.5,-41.1408 1446.5,-41.1408"/>
</g>
<!-- Node23 -->
<g id="node23" class="node"><title>Node23</title>
<polygon fill="none" stroke="#bfbfbf" points="1511,-1 1511,-31 1627,-31 1627,-1 1511,-1"/>
<text text-anchor="start" x="1519" y="-19" font-family="Helvetica,sans-Serif" font-size="10.00">boost/container/pmr</text>
<text text-anchor="middle" x="1569" y="-8" font-family="Helvetica,sans-Serif" font-size="10.00">/memory_resource.hpp</text>
</g>
<!-- Node21&#45;&gt;Node23 -->
<g id="edge23" class="edge"><title>Node21&#45;&gt;Node23</title>
<path fill="none" stroke="midnightblue" d="M1461.05,-68.4035C1478.99,-59.8596 1507.09,-46.483 1530.11,-35.5171"/>
<polygon fill="midnightblue" stroke="midnightblue" points="1531.78,-38.6002 1539.3,-31.1408 1528.77,-32.2802 1531.78,-38.6002"/>
</g>
<!-- Node24 -->
<g id="node24" class="node"><title>Node24</title>
<polygon fill="none" stroke="#bfbfbf" points="1645,-1 1645,-31 1801,-31 1801,-1 1645,-1"/>
<text text-anchor="start" x="1653" y="-19" font-family="Helvetica,sans-Serif" font-size="10.00">boost/container/pmr</text>
<text text-anchor="middle" x="1723" y="-8" font-family="Helvetica,sans-Serif" font-size="10.00">/monotonic_buffer_resource.hpp</text>
</g>
<!-- Node21&#45;&gt;Node24 -->
<g id="edge24" class="edge"><title>Node21&#45;&gt;Node24</title>
<path fill="none" stroke="midnightblue" d="M1482.82,-68.4672C1525.51,-59.3184 1594.31,-44.5763 1647.35,-33.2097"/>
<polygon fill="midnightblue" stroke="midnightblue" points="1648.36,-36.5742 1657.4,-31.0565 1646.89,-29.7296 1648.36,-36.5742"/>
</g>
<!-- Node25 -->
<g id="node25" class="node"><title>Node25</title>
<polygon fill="none" stroke="#bfbfbf" points="1819.5,-1 1819.5,-31 1952.5,-31 1952.5,-1 1819.5,-1"/>
<text text-anchor="start" x="1827.5" y="-19" font-family="Helvetica,sans-Serif" font-size="10.00">boost/container/pmr</text>
<text text-anchor="middle" x="1886" y="-8" font-family="Helvetica,sans-Serif" font-size="10.00">/polymorphic_allocator.hpp</text>
</g>
<!-- Node21&#45;&gt;Node25 -->
<g id="edge25" class="edge"><title>Node21&#45;&gt;Node25</title>
<path fill="none" stroke="midnightblue" d="M1526.69,-68.4941C1598.91,-60.75 1706.21,-48.2798 1809.35,-32.03"/>
<polygon fill="midnightblue" stroke="midnightblue" points="1809.99,-35.4722 1819.32,-30.4457 1808.9,-28.559 1809.99,-35.4722"/>
</g>
<!-- Node26 -->
<g id="node26" class="node"><title>Node26</title>
<polygon fill="none" stroke="#bfbfbf" points="1971,-6.5 1971,-25.5 2033,-25.5 2033,-6.5 1971,-6.5"/>
<text text-anchor="middle" x="2002" y="-13.5" font-family="Helvetica,sans-Serif" font-size="10.00">type_traits</text>
</g>
<!-- Node21&#45;&gt;Node26 -->
<g id="edge28" class="edge"><title>Node21&#45;&gt;Node26</title>
<path fill="none" stroke="midnightblue" d="M1539.62,-76.1861C1644.54,-73.5528 1816.48,-64.118 1961,-32 1964.69,-31.1788 1968.51,-30.1073 1972.25,-28.9142"/>
<polygon fill="midnightblue" stroke="midnightblue" points="1973.59,-32.1559 1981.88,-25.561 1971.28,-25.5455 1973.59,-32.1559"/>
</g>
<!-- Node21&#45;&gt;Node27 -->
<g id="edge29" class="edge"><title>Node21&#45;&gt;Node27</title>
<path fill="none" stroke="midnightblue" d="M1355.5,-68.4715C1249.93,-57.9299 1083.07,-40.3621 1055,-32 1053.03,-31.4139 1051.04,-30.7048 1049.06,-29.9177"/>
<polygon fill="midnightblue" stroke="midnightblue" points="1050.08,-26.5347 1039.53,-25.5404 1047.16,-32.8955 1050.08,-26.5347"/>
</g>
<!-- Node28 -->
<g id="node28" class="node"><title>Node28</title>
<polygon fill="none" stroke="#bfbfbf" points="2051.5,-6.5 2051.5,-25.5 2134.5,-25.5 2134.5,-6.5 2051.5,-6.5"/>
<text text-anchor="middle" x="2093" y="-13.5" font-family="Helvetica,sans-Serif" font-size="10.00">unordered_map</text>
</g>
<!-- Node21&#45;&gt;Node28 -->
<g id="edge31" class="edge"><title>Node21&#45;&gt;Node28</title>
<path fill="none" stroke="midnightblue" d="M1539.57,-75.8231C1658.43,-72.9805 1866.04,-63.4721 2041,-32 2046.43,-31.0228 2052.11,-29.704 2057.64,-28.2521"/>
<polygon fill="midnightblue" stroke="midnightblue" points="2058.64,-31.6053 2067.33,-25.5396 2056.75,-24.8643 2058.64,-31.6053"/>
</g>
<!-- Node29 -->
<g id="node29" class="node"><title>Node29</title>
<polygon fill="none" stroke="#bfbfbf" points="2152.5,-6.5 2152.5,-25.5 2249.5,-25.5 2249.5,-6.5 2152.5,-6.5"/>
<text text-anchor="middle" x="2201" y="-13.5" font-family="Helvetica,sans-Serif" font-size="10.00">FairMQMessage.h</text>
</g>
<!-- Node21&#45;&gt;Node29 -->
<g id="edge32" class="edge"><title>Node21&#45;&gt;Node29</title>
<path fill="none" stroke="midnightblue" d="M1539.6,-76.5376C1675.22,-74.5871 1929.41,-66.1708 2143,-32 2149.34,-30.9865 2155.99,-29.5904 2162.43,-28.055"/>
<polygon fill="midnightblue" stroke="midnightblue" points="2163.47,-31.4015 2172.31,-25.5626 2161.76,-24.6139 2163.47,-31.4015"/>
</g>
<!-- Node30 -->
<g id="node30" class="node"><title>Node30</title>
<polygon fill="none" stroke="#bfbfbf" points="2267.5,-6.5 2267.5,-25.5 2398.5,-25.5 2398.5,-6.5 2267.5,-6.5"/>
<text text-anchor="middle" x="2333" y="-13.5" font-family="Helvetica,sans-Serif" font-size="10.00">FairMQTransportFactory.h</text>
</g>
<!-- Node21&#45;&gt;Node30 -->
<g id="edge33" class="edge"><title>Node21&#45;&gt;Node30</title>
<path fill="none" stroke="midnightblue" d="M1539.69,-76.1015C1692.72,-73.6825 1999.86,-64.7716 2258,-32 2267.09,-30.8456 2276.74,-29.223 2285.97,-27.4688"/>
<polygon fill="midnightblue" stroke="midnightblue" points="2286.65,-30.9016 2295.79,-25.5295 2285.3,-24.0343 2286.65,-30.9016"/>
</g>
<!-- Node31 -->
<g id="node31" class="node"><title>Node31</title>
<polygon fill="none" stroke="#bfbfbf" points="1063.5,-6.5 1063.5,-25.5 1200.5,-25.5 1200.5,-6.5 1063.5,-6.5"/>
<text text-anchor="middle" x="1132" y="-13.5" font-family="Helvetica,sans-Serif" font-size="10.00">fairmq/MemoryResources.h</text>
</g>
<!-- Node21&#45;&gt;Node31 -->
<g id="edge34" class="edge"><title>Node21&#45;&gt;Node31</title>
<path fill="none" stroke="midnightblue" d="M1398.77,-68.4672C1342.81,-57.671 1246.48,-39.0856 1186.17,-27.4501"/>
<polygon fill="midnightblue" stroke="midnightblue" points="1186.56,-23.9612 1176.08,-25.5034 1185.23,-30.8344 1186.56,-23.9612"/>
</g>
<!-- Node32 -->
<g id="node32" class="node"><title>Node32</title>
<polygon fill="none" stroke="#bfbfbf" points="1219,-6.5 1219,-25.5 1375,-25.5 1375,-6.5 1219,-6.5"/>
<text text-anchor="middle" x="1297" y="-13.5" font-family="Helvetica,sans-Serif" font-size="10.00">fairmq/MemoryResourceTools.h</text>
</g>
<!-- Node21&#45;&gt;Node32 -->
<g id="edge35" class="edge"><title>Node21&#45;&gt;Node32</title>
<path fill="none" stroke="midnightblue" d="M1422.08,-68.4035C1397.25,-58.2004 1355.66,-41.1055 1327.31,-29.4544"/>
<polygon fill="midnightblue" stroke="midnightblue" points="1328.46,-26.1445 1317.88,-25.5806 1325.8,-32.6191 1328.46,-26.1445"/>
</g>
<!-- Node33&#45;&gt;Node4 -->
<g id="edge39" class="edge"><title>Node33&#45;&gt;Node4</title>
<path fill="none" stroke="midnightblue" d="M1135.94,-125.873C1131.24,-125.206 1126.52,-124.567 1122,-124 984.515,-106.757 823.069,-92.1857 733.567,-84.6058"/>
<polygon fill="midnightblue" stroke="midnightblue" points="733.803,-81.1134 723.545,-83.7608 733.215,-88.0887 733.803,-81.1134"/>
</g>
<!-- Node33&#45;&gt;Node21 -->
<g id="edge38" class="edge"><title>Node33&#45;&gt;Node21</title>
<path fill="none" stroke="midnightblue" d="M1222.51,-124.444C1268.41,-114.984 1342.38,-99.7384 1391.83,-89.5472"/>
<polygon fill="midnightblue" stroke="midnightblue" points="1392.59,-92.9631 1401.68,-87.5164 1391.18,-86.1072 1392.59,-92.9631"/>
</g>
<!-- Node36&#45;&gt;Node5 -->
<g id="edge46" class="edge"><title>Node36&#45;&gt;Node5</title>
<path fill="none" stroke="midnightblue" d="M163.329,-124.279C164.204,-111.076 167.395,-85.6834 179,-68 189.264,-52.3601 206.008,-39.6125 220.189,-30.7737"/>
<polygon fill="midnightblue" stroke="midnightblue" points="222.217,-33.6407 229.044,-25.5387 218.655,-27.6149 222.217,-33.6407"/>
</g>
<!-- Node36&#45;&gt;Node8 -->
<g id="edge49" class="edge"><title>Node36&#45;&gt;Node8</title>
<path fill="none" stroke="midnightblue" d="M173.197,-124.479C192.379,-108.605 233.396,-75.4381 250,-68 323.262,-35.1814 350.639,-56.7674 427,-32 429.273,-31.2628 431.598,-30.4143 433.908,-29.5038"/>
<polygon fill="midnightblue" stroke="midnightblue" points="435.351,-32.6934 443.164,-25.5375 432.594,-26.2593 435.351,-32.6934"/>
</g>
<!-- Node36&#45;&gt;Node14 -->
<g id="edge48" class="edge"><title>Node36&#45;&gt;Node14</title>
<path fill="none" stroke="midnightblue" d="M182.965,-124.444C203.609,-115.596 236.063,-101.687 259.632,-91.5865"/>
<polygon fill="midnightblue" stroke="midnightblue" points="261.316,-94.6727 269.128,-87.5164 258.558,-88.2387 261.316,-94.6727"/>
</g>
<!-- Node36&#45;&gt;Node15 -->
<g id="edge45" class="edge"><title>Node36&#45;&gt;Node15</title>
<path fill="none" stroke="midnightblue" d="M196.133,-124.47C227.354,-116.309 275.644,-103.369 326.47,-88.037"/>
<polygon fill="midnightblue" stroke="midnightblue" points="327.774,-91.2989 336.325,-85.0434 325.739,-84.6011 327.774,-91.2989"/>
</g>
<!-- Node36&#45;&gt;Node16 -->
<g id="edge47" class="edge"><title>Node36&#45;&gt;Node16</title>
<path fill="none" stroke="midnightblue" d="M167.774,-124.416C175.985,-110.452 194.127,-82.8821 217,-68 263.037,-38.0457 326.794,-25.4113 364.773,-20.2854"/>
<polygon fill="midnightblue" stroke="midnightblue" points="365.28,-23.7494 374.766,-19.0306 364.407,-16.804 365.28,-23.7494"/>
</g>
<!-- Node37 -->
<g id="node37" class="node"><title>Node37</title>
<polygon fill="none" stroke="#bfbfbf" points="-0.5,-68.5 -0.5,-87.5 126.5,-87.5 126.5,-68.5 -0.5,-68.5"/>
<text text-anchor="middle" x="63" y="-75.5" font-family="Helvetica,sans-Serif" font-size="10.00">fairmq/FairMQMessage.h</text>
</g>
<!-- Node36&#45;&gt;Node37 -->
<g id="edge50" class="edge"><title>Node36&#45;&gt;Node37</title>
<path fill="none" stroke="midnightblue" d="M146.933,-124.324C131.042,-115.743 106.493,-102.486 88.0415,-92.5224"/>
<polygon fill="midnightblue" stroke="midnightblue" points="89.489,-89.3264 79.0269,-87.6545 86.1629,-95.4857 89.489,-89.3264"/>
</g>
<!-- Node38&#45;&gt;Node13 -->
<g id="edge54" class="edge"><title>Node38&#45;&gt;Node13</title>
<path fill="none" stroke="midnightblue" d="M412.778,-180.444C394.104,-171.675 364.844,-157.935 343.383,-147.858"/>
<polygon fill="midnightblue" stroke="midnightblue" points="344.676,-144.599 334.137,-143.516 341.701,-150.935 344.676,-144.599"/>
</g>
<!-- Node39 -->
<g id="node39" class="node"><title>Node39</title>
<polygon fill="none" stroke="#bfbfbf" points="402,-124.5 402,-143.5 440,-143.5 440,-124.5 402,-124.5"/>
<text text-anchor="middle" x="421" y="-131.5" font-family="Helvetica,sans-Serif" font-size="10.00">tuple</text>
</g>
<!-- Node38&#45;&gt;Node39 -->
<g id="edge52" class="edge"><title>Node38&#45;&gt;Node39</title>
<path fill="none" stroke="midnightblue" d="M429.349,-180.083C428.024,-172.927 426.118,-162.635 424.461,-153.691"/>
<polygon fill="midnightblue" stroke="midnightblue" points="427.883,-152.947 422.621,-143.751 421,-154.221 427.883,-152.947"/>
</g>
<!-- Node40 -->
<g id="node40" class="node"><title>Node40</title>
<polygon fill="none" stroke="#bfbfbf" points="458.5,-124.5 458.5,-143.5 507.5,-143.5 507.5,-124.5 458.5,-124.5"/>
<text text-anchor="middle" x="483" y="-131.5" font-family="Helvetica,sans-Serif" font-size="10.00">cstddef</text>
</g>
<!-- Node38&#45;&gt;Node40 -->
<g id="edge53" class="edge"><title>Node38&#45;&gt;Node40</title>
<path fill="none" stroke="midnightblue" d="M439.587,-180.083C447.159,-172.22 458.378,-160.569 467.514,-151.081"/>
<polygon fill="midnightblue" stroke="midnightblue" points="470.158,-153.382 474.573,-143.751 465.115,-148.527 470.158,-153.382"/>
</g>
</g>
</svg>
        <g id="navigator" transform="translate(0 0)" fill="#404254">
                <rect fill="#f2f5e9" fill-opacity="0.5" stroke="#606060" stroke-width=".5" x="0" y="0" width="60" height="60"/>
                <use id="zoomplus" xlink:href="#zoomPlus" x="17" y="9" onmousedown="handleZoom(evt,'in')"/>
                <use id="zoomminus" xlink:href="#zoomMin" x="42" y="9" onmousedown="handleZoom(evt,'out')"/>
                <use id="reset" xlink:href="#resetDef" x="30" y="36" onmousedown="handleReset()"/>
                <g id="arrowUp" xlink:href="#dirArrow" transform="translate(30 24)" onmousedown="handlePan(0,-1)">
                  <use xlink:href="#rim" fill="#404040">
                        <set attributeName="fill" to="#808080" begin="arrowUp.mouseover" end="arrowUp.mouseout"/>
                  </use>
                  <path fill="none" stroke="white" stroke-width="1.5" d="M0,-3.0v7 M-2.5,-0.5L0,-3.0L2.5,-0.5"/>
                </g>
                <g id="arrowRight" xlink:href="#dirArrow" transform="rotate(90) translate(36 -43)" onmousedown="handlePan(1,0)">
                  <use xlink:href="#rim" fill="#404040">
                        <set attributeName="fill" to="#808080" begin="arrowRight.mouseover" end="arrowRight.mouseout"/>
                  </use>
                  <path fill="none" stroke="white" stroke-width="1.5" d="M0,-3.0v7 M-2.5,-0.5L0,-3.0L2.5,-0.5"/>
                </g>
                <g id="arrowDown" xlink:href="#dirArrow" transform="rotate(180) translate(-30 -48)" onmousedown="handlePan(0,1)">
                  <use xlink:href="#rim" fill="#404040">
                        <set attributeName="fill" to="#808080" begin="arrowDown.mouseover" end="arrowDown.mouseout"/>
                  </use>
                  <path fill="none" stroke="white" stroke-width="1.5" d="M0,-3.0v7 M-2.5,-0.5L0,-3.0L2.5,-0.5"/>
                </g>
                <g id="arrowLeft" xlink:href="#dirArrow" transform="rotate(270) translate(-36 17)" onmousedown="handlePan(-1,0)">
                  <use xlink:href="#rim" fill="#404040">
                        <set attributeName="fill" to="#808080" begin="arrowLeft.mouseover" end="arrowLeft.mouseout"/>
                  </use>
                  <path fill="none" stroke="white" stroke-width="1.5" d="M0,-3.0v7 M-2.5,-0.5L0,-3.0L2.5,-0.5"/>
                </g>
        </g>
        <svg viewBox="0 0 15 15" width="100%" height="30px" preserveAspectRatio="xMaxYMin meet">
         <g id="arrow_out" transform="scale(0.3 0.3)">
          <a xlink:href="runSubframeBuilderDevice_8cxx__incl_org.svg" target="_base">
           <rect id="button" ry="5" rx="5" y="6" x="6" height="38" width="38"
                fill="#f2f5e9" fill-opacity="0.5" stroke="#606060" stroke-width="1.0"/>
           <path id="arrow"
             d="M 11.500037,31.436501 C 11.940474,20.09759 22.043105,11.32322 32.158766,21.979434 L 37.068811,17.246167 C 37.068811,17.246167 37.088388,32 37.088388,32 L 22.160133,31.978069 C 22.160133,31.978069 26.997745,27.140456 26.997745,27.140456 C 18.528582,18.264221 13.291696,25.230495 11.500037,31.436501 z"
             style="fill:#404040;"/>
          </a>
         </g>
        </svg>
</svg>
