<?xml version="1.0" encoding="UTF-8" standalone="no"?>
<!DOCTYPE svg PUBLIC "-//W3C//DTD SVG 1.1//EN"
 "http://www.w3.org/Graphics/SVG/1.1/DTD/svg11.dtd">
<!-- Generated by graphviz version 2.36.0 (20140111.2315)
 -->
<!-- Title: /home/travis/build/AliceO2Group/AliceO2/Detectors/ITSMFT/ITS/tracking/src/Vertexer.cxx Pages: 1 -->
<!--zoomable 502 -->
<svg id="main" version="1.1" xmlns="http://www.w3.org/2000/svg" xmlns:xlink="http://www.w3.org/1999/xlink" xml:space="preserve" onload="init(evt)">
<style type="text/css"><![CDATA[
.edge:hover path { stroke: red; }
.edge:hover polygon { stroke: red; fill: red; }
]]></style>
<script type="text/javascript"><![CDATA[
var edges = document.getElementsByTagName('g');
if (edges && edges.length) {
  for (var i=0;i<edges.length;i++) {
    if (edges[i].id.substr(0,4)=='edge') {
      edges[i].setAttribute('class','edge');
    }
  }
}
]]></script>
        <defs>
                <circle id="rim" cx="0" cy="0" r="7"/>
                <circle id="rim2" cx="0" cy="0" r="3.5"/>
                <g id="zoomPlus">
                        <use xlink:href="#rim" fill="#404040">
                                <set attributeName="fill" to="#808080" begin="zoomplus.mouseover" end="zoomplus.mouseout"/>
                        </use>
                        <path d="M-4,0h8M0,-4v8" fill="none" stroke="white" stroke-width="1.5" pointer-events="none"/>
                </g>
                <g id="zoomMin">
                        <use xlink:href="#rim" fill="#404040">
                                <set attributeName="fill" to="#808080" begin="zoomminus.mouseover" end="zoomminus.mouseout"/>
                        </use>
                        <path d="M-4,0h8" fill="none" stroke="white" stroke-width="1.5" pointer-events="none"/>
                </g>
                <g id="dirArrow">
                        <path fill="none" stroke="white" stroke-width="1.5" d="M0,-3.0v7 M-2.5,-0.5L0,-3.0L2.5,-0.5"/>
                </g>
               <g id="resetDef">
                       <use xlink:href="#rim2" fill="#404040">
                               <set attributeName="fill" to="#808080" begin="reset.mouseover" end="reset.mouseout"/>
                       </use>
               </g>
        </defs>

<script type="text/javascript">
var viewWidth = 2614;
var viewHeight = 502;
var sectionId = 'dynsection-0';
</script>
<script xlink:href="../../svgpan.js"/>
<svg id="graph" class="graph">
<g id="viewport">
<title>/home/travis/build/AliceO2Group/AliceO2/Detectors/ITSMFT/ITS/tracking/src/Vertexer.cxx</title>
<!-- Node1 -->
<g id="node1" class="node"><title>Node1</title>
<polygon fill="#bfbfbf" stroke="black" points="335.5,-441 335.5,-493 464.5,-493 464.5,-441 335.5,-441"/>
<text text-anchor="start" x="343.5" y="-481" font-family="Helvetica,sans-Serif" font-size="10.00">/home/travis/build</text>
<text text-anchor="start" x="343.5" y="-470" font-family="Helvetica,sans-Serif" font-size="10.00">/AliceO2Group/AliceO2</text>
<text text-anchor="start" x="343.5" y="-459" font-family="Helvetica,sans-Serif" font-size="10.00">/Detectors/ITSMFT/ITS</text>
<text text-anchor="middle" x="400" y="-448" font-family="Helvetica,sans-Serif" font-size="10.00">/tracking/src/Vertexer.cxx</text>
</g>
<!-- Node2 -->
<g id="node2" class="node"><title>Node2</title>
<polygon fill="none" stroke="#bfbfbf" points="0,-384.5 0,-403.5 56,-403.5 56,-384.5 0,-384.5"/>
<text text-anchor="middle" x="28" y="-391.5" font-family="Helvetica,sans-Serif" font-size="10.00">algorithm</text>
</g>
<!-- Node1&#45;&gt;Node2 -->
<g id="edge1" class="edge"><title>Node1&#45;&gt;Node2</title>
<path fill="none" stroke="midnightblue" d="M335.254,-455.117C269.803,-443.867 165.54,-425.266 66.1553,-404.158"/>
<polygon fill="midnightblue" stroke="midnightblue" points="66.7552,-400.708 56.2447,-402.042 65.293,-407.553 66.7552,-400.708"/>
</g>
<!-- Node3 -->
<g id="node3" class="node"><title>Node3</title>
<polygon fill="none" stroke="#bfbfbf" points="74,-384.5 74,-403.5 128,-403.5 128,-384.5 74,-384.5"/>
<text text-anchor="middle" x="101" y="-391.5" font-family="Helvetica,sans-Serif" font-size="10.00">iostream</text>
</g>
<!-- Node1&#45;&gt;Node3 -->
<g id="edge2" class="edge"><title>Node1&#45;&gt;Node3</title>
<path fill="none" stroke="midnightblue" d="M335.49,-450.681C275.226,-436.371 187.373,-415.51 138.089,-403.807"/>
<polygon fill="midnightblue" stroke="midnightblue" points="138.72,-400.36 128.182,-401.455 137.102,-407.17 138.72,-400.36"/>
</g>
<!-- Node4 -->
<g id="node4" class="node"><title>Node4</title>
<polygon fill="none" stroke="#bfbfbf" points="386,-118.5 386,-137.5 430,-137.5 430,-118.5 386,-118.5"/>
<text text-anchor="middle" x="408" y="-125.5" font-family="Helvetica,sans-Serif" font-size="10.00">cmath</text>
</g>
<!-- Node1&#45;&gt;Node4 -->
<g id="edge3" class="edge"><title>Node1&#45;&gt;Node4</title>
<path fill="none" stroke="midnightblue" d="M335.442,-464.865C285.152,-460.489 217.032,-446.344 175,-404 151.987,-380.816 156,-365.666 156,-333 156,-333 156,-333 156,-263 156,-164.698 307.337,-138.281 375.455,-131.369"/>
<polygon fill="midnightblue" stroke="midnightblue" points="376.005,-134.833 385.637,-130.42 375.355,-127.864 376.005,-134.833"/>
</g>
<!-- Node5 -->
<g id="node5" class="node"><title>Node5</title>
<polygon fill="none" stroke="#bfbfbf" points="184,-384.5 184,-403.5 224,-403.5 224,-384.5 184,-384.5"/>
<text text-anchor="middle" x="204" y="-391.5" font-family="Helvetica,sans-Serif" font-size="10.00">limits</text>
</g>
<!-- Node1&#45;&gt;Node5 -->
<g id="edge4" class="edge"><title>Node1&#45;&gt;Node5</title>
<path fill="none" stroke="midnightblue" d="M335.279,-442.555C301.069,-430.163 260.719,-415.546 233.872,-405.821"/>
<polygon fill="midnightblue" stroke="midnightblue" points="234.879,-402.463 224.284,-402.348 232.495,-409.045 234.879,-402.463"/>
</g>
<!-- Node6 -->
<g id="node6" class="node"><title>Node6</title>
<polygon fill="none" stroke="#bfbfbf" points="1325,-254.5 1325,-273.5 1375,-273.5 1375,-254.5 1325,-254.5"/>
<text text-anchor="middle" x="1350" y="-261.5" font-family="Helvetica,sans-Serif" font-size="10.00">iomanip</text>
</g>
<!-- Node1&#45;&gt;Node6 -->
<g id="edge5" class="edge"><title>Node1&#45;&gt;Node6</title>
<path fill="none" stroke="midnightblue" d="M464.604,-465.161C623.85,-462.386 1031.45,-450.787 1158,-404 1232.76,-376.36 1304.3,-310.974 1334.7,-280.783"/>
<polygon fill="midnightblue" stroke="midnightblue" points="1337.28,-283.15 1341.84,-273.584 1332.31,-278.222 1337.28,-283.15"/>
</g>
<!-- Node7 -->
<g id="node7" class="node"><title>Node7</title>
<polygon fill="none" stroke="#bfbfbf" points="280,-384.5 280,-403.5 326,-403.5 326,-384.5 280,-384.5"/>
<text text-anchor="middle" x="303" y="-391.5" font-family="Helvetica,sans-Serif" font-size="10.00">chrono</text>
</g>
<!-- Node1&#45;&gt;Node7 -->
<g id="edge6" class="edge"><title>Node1&#45;&gt;Node7</title>
<path fill="none" stroke="midnightblue" d="M365.801,-440.968C351.581,-430.559 335.558,-418.831 323.257,-409.827"/>
<polygon fill="midnightblue" stroke="midnightblue" points="325.172,-406.892 315.036,-403.81 321.038,-412.54 325.172,-406.892"/>
</g>
<!-- Node8 -->
<g id="node8" class="node"><title>Node8</title>
<polygon fill="none" stroke="#bfbfbf" points="98,-118.5 98,-137.5 138,-137.5 138,-118.5 98,-118.5"/>
<text text-anchor="middle" x="118" y="-125.5" font-family="Helvetica,sans-Serif" font-size="10.00">utility</text>
</g>
<!-- Node1&#45;&gt;Node8 -->
<g id="edge7" class="edge"><title>Node1&#45;&gt;Node8</title>
<path fill="none" stroke="midnightblue" d="M335.454,-443.793C313.293,-434.002 289.448,-420.831 271,-404 187.686,-327.99 139.253,-195.762 123.618,-147.396"/>
<polygon fill="midnightblue" stroke="midnightblue" points="126.903,-146.173 120.561,-137.686 120.226,-148.276 126.903,-146.173"/>
</g>
<!-- Node9 -->
<g id="node9" class="node"><title>Node9</title>
<polygon fill="none" stroke="#bfbfbf" points="548,-322.5 548,-341.5 586,-341.5 586,-322.5 548,-322.5"/>
<text text-anchor="middle" x="567" y="-329.5" font-family="Helvetica,sans-Serif" font-size="10.00">tuple</text>
</g>
<!-- Node1&#45;&gt;Node9 -->
<g id="edge8" class="edge"><title>Node1&#45;&gt;Node9</title>
<path fill="none" stroke="midnightblue" d="M464.64,-446.72C488.739,-436.994 514.861,-423.106 534,-404 548.553,-389.472 557.43,-367.32 562.257,-351.629"/>
<polygon fill="midnightblue" stroke="midnightblue" points="565.755,-352.119 565.08,-341.546 559.014,-350.232 565.755,-352.119"/>
</g>
<!-- Node10 -->
<g id="node10" class="node"><title>Node10</title>
<g id="a_node10"><a xlink:href="../../d0/d86/Detectors_2ITSMFT_2ITS_2tracking_2include_2ITStracking_2Constants_8h.html" target="_top" xlink:title="ITStracking/Constants.h">
<polygon fill="none" stroke="black" points="562.5,-118.5 562.5,-137.5 685.5,-137.5 685.5,-118.5 562.5,-118.5"/>
<text text-anchor="middle" x="624" y="-125.5" font-family="Helvetica,sans-Serif" font-size="10.00">ITStracking/Constants.h</text>
</a>
</g>
</g>
<!-- Node1&#45;&gt;Node10 -->
<g id="edge9" class="edge"><title>Node1&#45;&gt;Node10</title>
<path fill="none" stroke="midnightblue" d="M416.653,-440.946C460.072,-375.624 575.907,-201.354 612.651,-146.075"/>
<polygon fill="midnightblue" stroke="midnightblue" points="615.583,-147.985 618.204,-137.72 609.754,-144.11 615.583,-147.985"/>
</g>
<!-- Node16 -->
<g id="node16" class="node"><title>Node16</title>
<g id="a_node16"><a xlink:href="../../da/d7f/Detectors_2ITSMFT_2ITS_2tracking_2include_2ITStracking_2Cluster_8h.html" target="_top" xlink:title="ITStracking/Cluster.h">
<polygon fill="none" stroke="black" points="392,-254.5 392,-273.5 502,-273.5 502,-254.5 392,-254.5"/>
<text text-anchor="middle" x="447" y="-261.5" font-family="Helvetica,sans-Serif" font-size="10.00">ITStracking/Cluster.h</text>
</a>
</g>
</g>
<!-- Node1&#45;&gt;Node16 -->
<g id="edge15" class="edge"><title>Node1&#45;&gt;Node16</title>
<path fill="none" stroke="midnightblue" d="M405.858,-440.95C415.406,-400.117 434.11,-320.124 442.61,-283.775"/>
<polygon fill="midnightblue" stroke="midnightblue" points="446.117,-284.146 444.986,-273.612 439.301,-282.552 446.117,-284.146"/>
</g>
<!-- Node18 -->
<g id="node18" class="node"><title>Node18</title>
<g id="a_node18"><a xlink:href="../../d2/d0c/IndexTableUtils_8h.html" target="_top" xlink:title="ITStracking/IndexTableUtils.h">
<polygon fill="none" stroke="black" points="222,-186.5 222,-205.5 368,-205.5 368,-186.5 222,-186.5"/>
<text text-anchor="middle" x="295" y="-193.5" font-family="Helvetica,sans-Serif" font-size="10.00">ITStracking/IndexTableUtils.h</text>
</a>
</g>
</g>
<!-- Node1&#45;&gt;Node18 -->
<g id="edge74" class="edge"><title>Node1&#45;&gt;Node18</title>
<path fill="none" stroke="midnightblue" d="M390.122,-440.693C369.093,-386.819 320.333,-261.9 302.073,-215.12"/>
<polygon fill="midnightblue" stroke="midnightblue" points="305.285,-213.724 298.388,-205.681 298.764,-216.269 305.285,-213.724"/>
</g>
<!-- Node19 -->
<g id="node19" class="node"><title>Node19</title>
<g id="a_node19"><a xlink:href="../../dc/d42/ROframe_8h.html" target="_top" xlink:title="ITStracking/ROframe.h">
<polygon fill="none" stroke="black" points="654,-322.5 654,-341.5 772,-341.5 772,-322.5 654,-322.5"/>
<text text-anchor="middle" x="713" y="-329.5" font-family="Helvetica,sans-Serif" font-size="10.00">ITStracking/ROframe.h</text>
</a>
</g>
</g>
<!-- Node1&#45;&gt;Node19 -->
<g id="edge28" class="edge"><title>Node1&#45;&gt;Node19</title>
<path fill="none" stroke="midnightblue" d="M464.347,-440.958C492.313,-429.896 525.387,-416.57 555,-404 600.961,-384.491 653.765,-360.423 685.203,-345.915"/>
<polygon fill="midnightblue" stroke="midnightblue" points="687.016,-348.933 694.623,-341.559 684.078,-342.579 687.016,-348.933"/>
</g>
<!-- Node28 -->
<g id="node28" class="node"><title>Node28</title>
<g id="a_node28"><a xlink:href="../../df/d50/ClusterLines_8h.html" target="_top" xlink:title="ITStracking/ClusterLines.h">
<polygon fill="none" stroke="black" points="2473.5,-322.5 2473.5,-341.5 2606.5,-341.5 2606.5,-322.5 2473.5,-322.5"/>
<text text-anchor="middle" x="2540" y="-329.5" font-family="Helvetica,sans-Serif" font-size="10.00">ITStracking/ClusterLines.h</text>
</a>
</g>
</g>
<!-- Node1&#45;&gt;Node28 -->
<g id="edge44" class="edge"><title>Node1&#45;&gt;Node28</title>
<path fill="none" stroke="midnightblue" d="M464.74,-465.252C719.519,-461.685 1677.41,-442.385 2459,-348 2468.9,-346.804 2479.42,-345.146 2489.49,-343.367"/>
<polygon fill="midnightblue" stroke="midnightblue" points="2490.16,-346.803 2499.36,-341.56 2488.9,-339.918 2490.16,-346.803"/>
</g>
<!-- Node29 -->
<g id="node29" class="node"><title>Node29</title>
<g id="a_node29"><a xlink:href="../../de/d9b/Vertexer_8h.html" target="_top" xlink:title="ITStracking/Vertexer.h">
<polygon fill="none" stroke="black" points="1034.5,-384.5 1034.5,-403.5 1149.5,-403.5 1149.5,-384.5 1034.5,-384.5"/>
<text text-anchor="middle" x="1092" y="-391.5" font-family="Helvetica,sans-Serif" font-size="10.00">ITStracking/Vertexer.h</text>
</a>
</g>
</g>
<!-- Node1&#45;&gt;Node29 -->
<g id="edge47" class="edge"><title>Node1&#45;&gt;Node29</title>
<path fill="none" stroke="midnightblue" d="M464.791,-459.352C595.774,-445.913 890.918,-415.631 1024.3,-401.947"/>
<polygon fill="midnightblue" stroke="midnightblue" points="1024.79,-405.414 1034.39,-400.911 1024.08,-398.45 1024.79,-405.414"/>
</g>
<!-- Node11 -->
<g id="node11" class="node"><title>Node11</title>
<polygon fill="none" stroke="#bfbfbf" points="601.5,-56.5 601.5,-75.5 646.5,-75.5 646.5,-56.5 601.5,-56.5"/>
<text text-anchor="middle" x="624" y="-63.5" font-family="Helvetica,sans-Serif" font-size="10.00">climits</text>
</g>
<!-- Node10&#45;&gt;Node11 -->
<g id="edge10" class="edge"><title>Node10&#45;&gt;Node11</title>
<path fill="none" stroke="midnightblue" d="M624,-118.403C624,-109.938 624,-96.7283 624,-85.8199"/>
<polygon fill="midnightblue" stroke="midnightblue" points="627.5,-85.5806 624,-75.5806 620.5,-85.5806 627.5,-85.5806"/>
</g>
<!-- Node12 -->
<g id="node12" class="node"><title>Node12</title>
<polygon fill="none" stroke="#bfbfbf" points="1082,-56.5 1082,-75.5 1126,-75.5 1126,-56.5 1082,-56.5"/>
<text text-anchor="middle" x="1104" y="-63.5" font-family="Helvetica,sans-Serif" font-size="10.00">vector</text>
</g>
<!-- Node10&#45;&gt;Node12 -->
<g id="edge11" class="edge"><title>Node10&#45;&gt;Node12</title>
<path fill="none" stroke="midnightblue" d="M685.769,-119.279C788.788,-106.401 992.181,-80.9774 1071.37,-71.0789"/>
<polygon fill="midnightblue" stroke="midnightblue" points="1072.21,-74.5016 1081.69,-69.7882 1071.34,-67.5557 1072.21,-74.5016"/>
</g>
<!-- Node13 -->
<g id="node13" class="node"><title>Node13</title>
<g id="a_node13"><a xlink:href="../../df/d3d/Definitions_8h.html" target="_top" xlink:title="ITStracking/Definitions.h">
<polygon fill="none" stroke="black" points="204.5,-56.5 204.5,-75.5 329.5,-75.5 329.5,-56.5 204.5,-56.5"/>
<text text-anchor="middle" x="267" y="-63.5" font-family="Helvetica,sans-Serif" font-size="10.00">ITStracking/Definitions.h</text>
</a>
</g>
</g>
<!-- Node10&#45;&gt;Node13 -->
<g id="edge12" class="edge"><title>Node10&#45;&gt;Node13</title>
<path fill="none" stroke="midnightblue" d="M573.23,-118.467C508.462,-107.582 396.578,-88.7778 327.47,-77.1631"/>
<polygon fill="midnightblue" stroke="midnightblue" points="328.037,-73.7093 317.595,-75.5034 326.877,-80.6125 328.037,-73.7093"/>
</g>
<!-- Node14 -->
<g id="node14" class="node"><title>Node14</title>
<polygon fill="none" stroke="#bfbfbf" points="775,-0.5 775,-19.5 813,-19.5 813,-0.5 775,-0.5"/>
<text text-anchor="middle" x="794" y="-7.5" font-family="Helvetica,sans-Serif" font-size="10.00">array</text>
</g>
<!-- Node13&#45;&gt;Node14 -->
<g id="edge13" class="edge"><title>Node13&#45;&gt;Node14</title>
<path fill="none" stroke="midnightblue" d="M329.605,-57.594C334.475,-57.045 339.317,-56.5078 344,-56 502.515,-38.8116 692.711,-20.5761 764.578,-13.7708"/>
<polygon fill="midnightblue" stroke="midnightblue" points="765.064,-17.2406 774.69,-12.8148 764.405,-10.2716 765.064,-17.2406"/>
</g>
<!-- Node15 -->
<g id="node15" class="node"><title>Node15</title>
<polygon fill="none" stroke="#bfbfbf" points="200,-0.5 200,-19.5 334,-19.5 334,-0.5 200,-0.5"/>
<text text-anchor="middle" x="267" y="-7.5" font-family="Helvetica,sans-Serif" font-size="10.00">AliTPCCommonDefGPU.h</text>
</g>
<!-- Node13&#45;&gt;Node15 -->
<g id="edge14" class="edge"><title>Node13&#45;&gt;Node15</title>
<path fill="none" stroke="midnightblue" d="M267,-56.083C267,-49.0059 267,-38.8611 267,-29.9865"/>
<polygon fill="midnightblue" stroke="midnightblue" points="270.5,-29.751 267,-19.7511 263.5,-29.7511 270.5,-29.751"/>
</g>
<!-- Node16&#45;&gt;Node13 -->
<g id="edge17" class="edge"><title>Node16&#45;&gt;Node13</title>
<path fill="none" stroke="midnightblue" d="M407.853,-254.488C341.27,-240.008 213.097,-212.12 213,-212 181.098,-172.396 225.91,-112.072 251.421,-83.33"/>
<polygon fill="midnightblue" stroke="midnightblue" points="254.151,-85.5321 258.32,-75.7921 248.987,-80.8063 254.151,-85.5321"/>
</g>
<!-- Node16&#45;&gt;Node14 -->
<g id="edge16" class="edge"><title>Node16&#45;&gt;Node14</title>
<path fill="none" stroke="midnightblue" d="M462.825,-254.409C477.833,-245.547 500.095,-230.443 514,-212 560.786,-149.944 528.224,-98.9409 593,-56 646.329,-20.6475 723.3,-12.7301 764.814,-11.1673"/>
<polygon fill="midnightblue" stroke="midnightblue" points="764.911,-14.666 774.81,-10.8897 764.717,-7.66874 764.911,-14.666"/>
</g>
<!-- Node17 -->
<g id="node17" class="node"><title>Node17</title>
<g id="a_node17"><a xlink:href="../../dc/d3e/MathUtils_8h.html" target="_top" xlink:title="ITStracking/MathUtils.h">
<polygon fill="none" stroke="black" points="386,-186.5 386,-205.5 506,-205.5 506,-186.5 386,-186.5"/>
<text text-anchor="middle" x="446" y="-193.5" font-family="Helvetica,sans-Serif" font-size="10.00">ITStracking/MathUtils.h</text>
</a>
</g>
</g>
<!-- Node16&#45;&gt;Node17 -->
<g id="edge18" class="edge"><title>Node16&#45;&gt;Node17</title>
<path fill="none" stroke="midnightblue" d="M446.869,-254.372C446.722,-244.643 446.478,-228.528 446.286,-215.85"/>
<polygon fill="midnightblue" stroke="midnightblue" points="449.785,-215.787 446.134,-205.841 442.786,-215.893 449.785,-215.787"/>
</g>
<!-- Node16&#45;&gt;Node18 -->
<g id="edge22" class="edge"><title>Node16&#45;&gt;Node18</title>
<path fill="none" stroke="midnightblue" d="M427.129,-254.372C400.843,-242.958 354.317,-222.756 324.076,-209.625"/>
<polygon fill="midnightblue" stroke="midnightblue" points="325.443,-206.403 314.876,-205.63 322.655,-212.824 325.443,-206.403"/>
</g>
<!-- Node17&#45;&gt;Node4 -->
<g id="edge20" class="edge"><title>Node17&#45;&gt;Node4</title>
<path fill="none" stroke="midnightblue" d="M441.032,-186.372C435.261,-176.348 425.587,-159.546 418.195,-146.708"/>
<polygon fill="midnightblue" stroke="midnightblue" points="421.113,-144.761 413.09,-137.841 415.047,-148.254 421.113,-144.761"/>
</g>
<!-- Node17&#45;&gt;Node10 -->
<g id="edge21" class="edge"><title>Node17&#45;&gt;Node10</title>
<path fill="none" stroke="midnightblue" d="M469.27,-186.372C500.538,-174.778 556.262,-154.116 591.613,-141.009"/>
<polygon fill="midnightblue" stroke="midnightblue" points="592.847,-144.284 601.006,-137.526 590.413,-137.721 592.847,-144.284"/>
</g>
<!-- Node17&#45;&gt;Node14 -->
<g id="edge19" class="edge"><title>Node17&#45;&gt;Node14</title>
<path fill="none" stroke="midnightblue" d="M447.79,-186.39C453.439,-161.559 473.347,-89.4598 520,-56 558.882,-28.1131 702.225,-16.4165 764.639,-12.5696"/>
<polygon fill="midnightblue" stroke="midnightblue" points="764.847,-16.0636 774.623,-11.9792 764.434,-9.07576 764.847,-16.0636"/>
</g>
<!-- Node18&#45;&gt;Node8 -->
<g id="edge24" class="edge"><title>Node18&#45;&gt;Node8</title>
<path fill="none" stroke="midnightblue" d="M271.86,-186.372C240.048,-174.509 182.778,-153.154 147.796,-140.11"/>
<polygon fill="midnightblue" stroke="midnightblue" points="148.727,-136.722 138.135,-136.508 146.281,-143.281 148.727,-136.722"/>
</g>
<!-- Node18&#45;&gt;Node10 -->
<g id="edge26" class="edge"><title>Node18&#45;&gt;Node10</title>
<path fill="none" stroke="midnightblue" d="M337.674,-186.439C397.582,-174.421 506.534,-152.565 571.386,-139.555"/>
<polygon fill="midnightblue" stroke="midnightblue" points="572.286,-142.944 581.402,-137.546 570.909,-136.081 572.286,-142.944"/>
</g>
<!-- Node18&#45;&gt;Node12 -->
<g id="edge25" class="edge"><title>Node18&#45;&gt;Node12</title>
<path fill="none" stroke="midnightblue" d="M319.187,-186.43C374.022,-167.131 506.621,-121.226 553,-112 747.312,-73.345 986.509,-67.7698 1071.87,-67.0602"/>
<polygon fill="midnightblue" stroke="midnightblue" points="1071.99,-70.5596 1081.96,-66.9936 1071.94,-63.5598 1071.99,-70.5596"/>
</g>
<!-- Node18&#45;&gt;Node13 -->
<g id="edge27" class="edge"><title>Node18&#45;&gt;Node13</title>
<path fill="none" stroke="midnightblue" d="M293.075,-186.202C288.558,-165.551 277.195,-113.606 271.067,-85.5937"/>
<polygon fill="midnightblue" stroke="midnightblue" points="274.42,-84.5435 268.864,-75.5224 267.582,-86.0394 274.42,-84.5435"/>
</g>
<!-- Node18&#45;&gt;Node14 -->
<g id="edge23" class="edge"><title>Node18&#45;&gt;Node14</title>
<path fill="none" stroke="midnightblue" d="M301.859,-186.242C314.999,-169.917 345.249,-134.459 377,-112 501.074,-24.2346 692.247,-12.2108 764.758,-10.9461"/>
<polygon fill="midnightblue" stroke="midnightblue" points="765.003,-14.4436 774.961,-10.8276 764.921,-7.4441 765.003,-14.4436"/>
</g>
<!-- Node19&#45;&gt;Node8 -->
<g id="edge31" class="edge"><title>Node19&#45;&gt;Node8</title>
<path fill="none" stroke="midnightblue" d="M665.833,-322.427C653.53,-320.26 640.278,-317.985 628,-316 519.353,-298.435 484.675,-322.131 383,-280 360.992,-270.881 361.512,-258.234 340,-248 281.206,-220.031 254.305,-244.692 198,-212 168.996,-195.16 143.684,-164.801 129.659,-145.838"/>
<polygon fill="midnightblue" stroke="midnightblue" points="132.387,-143.638 123.713,-137.554 126.7,-147.719 132.387,-143.638"/>
</g>
<!-- Node19&#45;&gt;Node10 -->
<g id="edge35" class="edge"><title>Node19&#45;&gt;Node10</title>
<path fill="none" stroke="midnightblue" d="M704.448,-322.404C686.791,-304.028 646.576,-258.771 630,-212 622.55,-190.978 621.903,-165.128 622.564,-147.916"/>
<polygon fill="midnightblue" stroke="midnightblue" points="626.08,-147.732 623.162,-137.547 619.092,-147.328 626.08,-147.732"/>
</g>
<!-- Node19&#45;&gt;Node12 -->
<g id="edge30" class="edge"><title>Node19&#45;&gt;Node12</title>
<path fill="none" stroke="midnightblue" d="M763.096,-322.428C801.377,-314.655 854.743,-301.13 898,-280 919.405,-269.544 919.633,-258.533 941,-248 993.622,-222.06 1027.2,-254.161 1068,-212 1101.59,-177.291 1105.36,-116.357 1104.92,-85.7144"/>
<polygon fill="midnightblue" stroke="midnightblue" points="1108.41,-85.4553 1104.6,-75.5711 1101.42,-85.6768 1108.41,-85.4553"/>
</g>
<!-- Node19&#45;&gt;Node14 -->
<g id="edge29" class="edge"><title>Node19&#45;&gt;Node14</title>
<path fill="none" stroke="midnightblue" d="M753.167,-322.437C784.813,-314.543 829.24,-300.856 864,-280 881.794,-269.324 880.348,-258.91 898,-248 937.471,-223.605 969.442,-250.049 996,-212 1053.76,-129.254 891.245,-50.7662 822.799,-22.2797"/>
<polygon fill="midnightblue" stroke="midnightblue" points="824.001,-18.9901 813.42,-18.4451 821.352,-25.4694 824.001,-18.9901"/>
</g>
<!-- Node19&#45;&gt;Node16 -->
<g id="edge34" class="edge"><title>Node19&#45;&gt;Node16</title>
<path fill="none" stroke="midnightblue" d="M678.498,-322.439C630.56,-310.545 543.781,-289.013 491.168,-275.959"/>
<polygon fill="midnightblue" stroke="midnightblue" points="491.99,-272.557 481.441,-273.546 490.304,-279.351 491.99,-272.557"/>
</g>
<!-- Node20 -->
<g id="node20" class="node"><title>Node20</title>
<polygon fill="none" stroke="#bfbfbf" points="638.5,-186.5 638.5,-205.5 687.5,-205.5 687.5,-186.5 638.5,-186.5"/>
<text text-anchor="middle" x="663" y="-193.5" font-family="Helvetica,sans-Serif" font-size="10.00">cassert</text>
</g>
<!-- Node19&#45;&gt;Node20 -->
<g id="edge32" class="edge"><title>Node19&#45;&gt;Node20</title>
<path fill="none" stroke="midnightblue" d="M709.719,-322.208C701.631,-300.532 680.605,-244.181 669.732,-215.041"/>
<polygon fill="midnightblue" stroke="midnightblue" points="673.003,-213.796 666.228,-205.65 666.445,-216.243 673.003,-213.796"/>
</g>
<!-- Node21 -->
<g id="node21" class="node"><title>Node21</title>
<polygon fill="none" stroke="#bfbfbf" points="705.5,-186.5 705.5,-205.5 750.5,-205.5 750.5,-186.5 705.5,-186.5"/>
<text text-anchor="middle" x="728" y="-193.5" font-family="Helvetica,sans-Serif" font-size="10.00">gsl/gsl</text>
</g>
<!-- Node19&#45;&gt;Node21 -->
<g id="edge33" class="edge"><title>Node19&#45;&gt;Node21</title>
<path fill="none" stroke="midnightblue" d="M713.984,-322.208C716.389,-300.722 722.608,-245.167 725.894,-215.814"/>
<polygon fill="midnightblue" stroke="midnightblue" points="729.397,-215.978 727.032,-205.65 722.441,-215.199 729.397,-215.978"/>
</g>
<!-- Node22 -->
<g id="node22" class="node"><title>Node22</title>
<g id="a_node22"><a xlink:href="../../d7/dcd/MCCompLabel_8h.html" target="_top" xlink:title="SimulationDataFormat\l/MCCompLabel.h">
<polygon fill="none" stroke="black" points="950,-249 950,-279 1064,-279 1064,-249 950,-249"/>
<text text-anchor="start" x="958" y="-267" font-family="Helvetica,sans-Serif" font-size="10.00">SimulationDataFormat</text>
<text text-anchor="middle" x="1007" y="-256" font-family="Helvetica,sans-Serif" font-size="10.00">/MCCompLabel.h</text>
</a>
</g>
</g>
<!-- Node19&#45;&gt;Node22 -->
<g id="edge36" class="edge"><title>Node19&#45;&gt;Node22</title>
<path fill="none" stroke="midnightblue" d="M751.134,-322.439C798.868,-311.724 881.444,-293.186 939.86,-280.072"/>
<polygon fill="midnightblue" stroke="midnightblue" points="940.754,-283.459 949.745,-277.853 939.221,-276.629 940.754,-283.459"/>
</g>
<!-- Node24 -->
<g id="node24" class="node"><title>Node24</title>
<g id="a_node24"><a xlink:href="../../db/d14/MCTruthContainer_8h.html" target="_top" xlink:title="Definition of a container to keep Monte Carlo truth external to simulation objects. ">
<polygon fill="none" stroke="black" points="741,-249 741,-279 855,-279 855,-249 741,-249"/>
<text text-anchor="start" x="749" y="-267" font-family="Helvetica,sans-Serif" font-size="10.00">SimulationDataFormat</text>
<text text-anchor="middle" x="798" y="-256" font-family="Helvetica,sans-Serif" font-size="10.00">/MCTruthContainer.h</text>
</a>
</g>
</g>
<!-- Node19&#45;&gt;Node24 -->
<g id="edge38" class="edge"><title>Node19&#45;&gt;Node24</title>
<path fill="none" stroke="midnightblue" d="M724.112,-322.372C736.145,-313.029 755.762,-297.797 771.76,-285.375"/>
<polygon fill="midnightblue" stroke="midnightblue" points="773.984,-288.079 779.736,-279.181 769.691,-282.55 773.984,-288.079"/>
</g>
<!-- Node23 -->
<g id="node23" class="node"><title>Node23</title>
<polygon fill="none" stroke="#bfbfbf" points="1158,-186.5 1158,-205.5 1214,-205.5 1214,-186.5 1158,-186.5"/>
<text text-anchor="middle" x="1186" y="-193.5" font-family="Helvetica,sans-Serif" font-size="10.00">Rtypes.h</text>
</g>
<!-- Node22&#45;&gt;Node23 -->
<g id="edge37" class="edge"><title>Node22&#45;&gt;Node23</title>
<path fill="none" stroke="midnightblue" d="M1045.4,-248.841C1077.43,-237.033 1122.58,-220.384 1153,-209.168"/>
<polygon fill="midnightblue" stroke="midnightblue" points="1154.54,-212.33 1162.71,-205.587 1152.12,-205.762 1154.54,-212.33"/>
</g>
<!-- Node24&#45;&gt;Node20 -->
<g id="edge40" class="edge"><title>Node24&#45;&gt;Node20</title>
<path fill="none" stroke="midnightblue" d="M769.039,-248.841C745.583,-237.374 712.791,-221.342 689.904,-210.153"/>
<polygon fill="midnightblue" stroke="midnightblue" points="691.28,-206.93 680.758,-205.682 688.205,-213.218 691.28,-206.93"/>
</g>
<!-- Node24&#45;&gt;Node21 -->
<g id="edge42" class="edge"><title>Node24&#45;&gt;Node21</title>
<path fill="none" stroke="midnightblue" d="M782.811,-248.679C771.572,-238.082 756.27,-223.655 744.69,-212.736"/>
<polygon fill="midnightblue" stroke="midnightblue" points="747.04,-210.142 737.363,-205.828 742.238,-215.235 747.04,-210.142"/>
</g>
<!-- Node25 -->
<g id="node25" class="node"><title>Node25</title>
<polygon fill="none" stroke="#bfbfbf" points="926,-186.5 926,-205.5 988,-205.5 988,-186.5 926,-186.5"/>
<text text-anchor="middle" x="957" y="-193.5" font-family="Helvetica,sans-Serif" font-size="10.00">TNamed.h</text>
</g>
<!-- Node24&#45;&gt;Node25 -->
<g id="edge39" class="edge"><title>Node24&#45;&gt;Node25</title>
<path fill="none" stroke="midnightblue" d="M832.109,-248.841C860.228,-237.169 899.741,-220.768 926.745,-209.558"/>
<polygon fill="midnightblue" stroke="midnightblue" points="928.19,-212.748 936.085,-205.682 925.507,-206.283 928.19,-212.748"/>
</g>
<!-- Node26 -->
<g id="node26" class="node"><title>Node26</title>
<polygon fill="none" stroke="#bfbfbf" points="768.5,-186.5 768.5,-205.5 827.5,-205.5 827.5,-186.5 768.5,-186.5"/>
<text text-anchor="middle" x="798" y="-193.5" font-family="Helvetica,sans-Serif" font-size="10.00">stdexcept</text>
</g>
<!-- Node24&#45;&gt;Node26 -->
<g id="edge41" class="edge"><title>Node24&#45;&gt;Node26</title>
<path fill="none" stroke="midnightblue" d="M798,-248.679C798,-239.101 798,-226.394 798,-215.977"/>
<polygon fill="midnightblue" stroke="midnightblue" points="801.5,-215.828 798,-205.828 794.5,-215.828 801.5,-215.828"/>
</g>
<!-- Node27 -->
<g id="node27" class="node"><title>Node27</title>
<polygon fill="none" stroke="#bfbfbf" points="846,-186.5 846,-205.5 908,-205.5 908,-186.5 846,-186.5"/>
<text text-anchor="middle" x="877" y="-193.5" font-family="Helvetica,sans-Serif" font-size="10.00">type_traits</text>
</g>
<!-- Node24&#45;&gt;Node27 -->
<g id="edge43" class="edge"><title>Node24&#45;&gt;Node27</title>
<path fill="none" stroke="midnightblue" d="M815.142,-248.679C827.947,-237.981 845.428,-223.377 858.54,-212.422"/>
<polygon fill="midnightblue" stroke="midnightblue" points="861.003,-214.926 866.433,-205.828 856.515,-209.554 861.003,-214.926"/>
</g>
<!-- Node28&#45;&gt;Node12 -->
<g id="edge46" class="edge"><title>Node28&#45;&gt;Node12</title>
<path fill="none" stroke="midnightblue" d="M2536.87,-322.106C2524.09,-287.394 2472.25,-160.558 2381,-112 2324.42,-81.892 1329.07,-69.4687 1136.21,-67.3391"/>
<polygon fill="midnightblue" stroke="midnightblue" points="1136.18,-63.8387 1126.15,-67.2293 1136.11,-70.8383 1136.18,-63.8387"/>
</g>
<!-- Node28&#45;&gt;Node14 -->
<g id="edge45" class="edge"><title>Node28&#45;&gt;Node14</title>
<path fill="none" stroke="midnightblue" d="M2540,-322.22C2540,-300.814 2540,-244.226 2540,-197 2540,-197 2540,-197 2540,-127 2540,-85.1065 2515.91,-73.838 2478,-56 2400.09,-19.3377 1040.15,-12.0459 823.102,-11.114"/>
<polygon fill="midnightblue" stroke="midnightblue" points="823.113,-7.61408 813.098,-11.0721 823.083,-14.614 823.113,-7.61408"/>
</g>
<!-- Node29&#45;&gt;Node9 -->
<g id="edge50" class="edge"><title>Node29&#45;&gt;Node9</title>
<path fill="none" stroke="midnightblue" d="M1034.48,-393.912C941.513,-394.021 753.184,-388.573 600,-348 597.498,-347.337 594.949,-346.501 592.431,-345.563"/>
<polygon fill="midnightblue" stroke="midnightblue" points="593.623,-342.267 583.05,-341.598 590.899,-348.715 593.623,-342.267"/>
</g>
<!-- Node29&#45;&gt;Node10 -->
<g id="edge51" class="edge"><title>Node29&#45;&gt;Node10</title>
<path fill="none" stroke="midnightblue" d="M1092.89,-384.197C1094.87,-360.567 1097.68,-294.4 1073,-248 1051.56,-207.691 1037.5,-199.026 996,-180 944.024,-156.173 788.602,-141.053 695.913,-133.896"/>
<polygon fill="midnightblue" stroke="midnightblue" points="695.999,-130.392 685.762,-133.124 695.468,-137.372 695.999,-130.392"/>
</g>
<!-- Node29&#45;&gt;Node12 -->
<g id="edge48" class="edge"><title>Node29&#45;&gt;Node12</title>
<path fill="none" stroke="midnightblue" d="M1096.51,-384.266C1106.57,-363.929 1130,-311.593 1130,-265 1130,-265 1130,-265 1130,-195 1130,-155.278 1117.83,-109.985 1110.14,-85.3433"/>
<polygon fill="midnightblue" stroke="midnightblue" points="1113.39,-84.0094 1106.98,-75.5689 1106.73,-86.1606 1113.39,-84.0094"/>
</g>
<!-- Node29&#45;&gt;Node13 -->
<g id="edge52" class="edge"><title>Node29&#45;&gt;Node13</title>
<path fill="none" stroke="midnightblue" d="M1034.2,-390.524C930.111,-385.513 715.442,-372.508 645,-348 620.081,-339.33 619.741,-325.165 595,-316 487.671,-276.239 450.98,-307.998 340,-280 255.465,-258.673 229.24,-259.296 156,-212 111.059,-182.978 56.1325,-154.211 89,-112 102.217,-95.0256 150.985,-83.4406 194.139,-76.2808"/>
<polygon fill="midnightblue" stroke="midnightblue" points="194.779,-79.7229 204.101,-74.6878 193.674,-72.8107 194.779,-79.7229"/>
</g>
<!-- Node29&#45;&gt;Node14 -->
<g id="edge49" class="edge"><title>Node29&#45;&gt;Node14</title>
<path fill="none" stroke="midnightblue" d="M1149.64,-390.945C1410.04,-380.912 2464,-331.969 2464,-197 2464,-197 2464,-197 2464,-127 2464,-88.613 2774.33,-124.278 2124,-56 1859.26,-28.2042 993.457,-13.9868 823.209,-11.4249"/>
<polygon fill="midnightblue" stroke="midnightblue" points="823.066,-7.9225 813.015,-11.273 822.962,-14.9217 823.066,-7.9225"/>
</g>
<!-- Node29&#45;&gt;Node19 -->
<g id="edge54" class="edge"><title>Node29&#45;&gt;Node19</title>
<path fill="none" stroke="midnightblue" d="M1038.1,-384.467C969.201,-373.559 850.076,-354.701 776.746,-343.092"/>
<polygon fill="midnightblue" stroke="midnightblue" points="777.137,-339.61 766.713,-341.503 776.043,-346.524 777.137,-339.61"/>
</g>
<!-- Node29&#45;&gt;Node28 -->
<g id="edge53" class="edge"><title>Node29&#45;&gt;Node28</title>
<path fill="none" stroke="midnightblue" d="M1149.7,-392.256C1375.47,-389.168 2199.17,-376.173 2459,-348 2469.24,-346.89 2480.12,-345.218 2490.48,-343.388"/>
<polygon fill="midnightblue" stroke="midnightblue" points="2491.42,-346.773 2500.62,-341.519 2490.16,-339.889 2491.42,-346.773"/>
</g>
<!-- Node30 -->
<g id="node30" class="node"><title>Node30</title>
<g id="a_node30"><a xlink:href="../../d3/d6f/DataFormats_2Reconstruction_2include_2ReconstructionDataFormats_2Vertex_8h.html" target="_top" xlink:title="ReconstructionDataFormats\l/Vertex.h">
<polygon fill="none" stroke="black" points="1646,-317 1646,-347 1786,-347 1786,-317 1646,-317"/>
<text text-anchor="start" x="1654" y="-335" font-family="Helvetica,sans-Serif" font-size="10.00">ReconstructionDataFormats</text>
<text text-anchor="middle" x="1716" y="-324" font-family="Helvetica,sans-Serif" font-size="10.00">/Vertex.h</text>
</a>
</g>
</g>
<!-- Node29&#45;&gt;Node30 -->
<g id="edge55" class="edge"><title>Node29&#45;&gt;Node30</title>
<path fill="none" stroke="midnightblue" d="M1149.59,-387.463C1261.36,-376.715 1507.93,-353.007 1635.71,-340.721"/>
<polygon fill="midnightblue" stroke="midnightblue" points="1636.2,-344.189 1645.82,-339.748 1635.53,-337.221 1636.2,-344.189"/>
</g>
<!-- Node30&#45;&gt;Node6 -->
<g id="edge71" class="edge"><title>Node30&#45;&gt;Node6</title>
<path fill="none" stroke="midnightblue" d="M1645.86,-318.353C1567.93,-304.299 1445.2,-282.167 1385.28,-271.361"/>
<polygon fill="midnightblue" stroke="midnightblue" points="1385.65,-267.872 1375.18,-269.542 1384.4,-274.761 1385.65,-267.872"/>
</g>
<!-- Node30&#45;&gt;Node14 -->
<g id="edge70" class="edge"><title>Node30&#45;&gt;Node14</title>
<path fill="none" stroke="midnightblue" d="M1786.02,-325.113C1965.14,-309.118 2426,-261.68 2426,-197 2426,-197 2426,-197 2426,-127 2426,-43.3312 1043.19,-15.4077 823.307,-11.4965"/>
<polygon fill="midnightblue" stroke="midnightblue" points="823.238,-7.99484 813.178,-11.3188 823.115,-14.9938 823.238,-7.99484"/>
</g>
<!-- Node31 -->
<g id="node31" class="node"><title>Node31</title>
<g id="a_node31"><a xlink:href="../../dd/d76/Cartesian3D_8h.html" target="_top" xlink:title="MathUtils/Cartesian3D.h">
<polygon fill="none" stroke="black" points="1768.5,-254.5 1768.5,-273.5 1893.5,-273.5 1893.5,-254.5 1768.5,-254.5"/>
<text text-anchor="middle" x="1831" y="-261.5" font-family="Helvetica,sans-Serif" font-size="10.00">MathUtils/Cartesian3D.h</text>
</a>
</g>
</g>
<!-- Node30&#45;&gt;Node31 -->
<g id="edge56" class="edge"><title>Node30&#45;&gt;Node31</title>
<path fill="none" stroke="midnightblue" d="M1740.67,-316.841C1760.29,-305.579 1787.59,-289.913 1807.03,-278.757"/>
<polygon fill="midnightblue" stroke="midnightblue" points="1808.94,-281.695 1815.87,-273.682 1805.46,-275.624 1808.94,-281.695"/>
</g>
<!-- Node38 -->
<g id="node38" class="node"><title>Node38</title>
<polygon fill="none" stroke="#bfbfbf" points="2352.5,-186.5 2352.5,-205.5 2397.5,-205.5 2397.5,-186.5 2352.5,-186.5"/>
<text text-anchor="middle" x="2375" y="-193.5" font-family="Helvetica,sans-Serif" font-size="10.00">iosfwd</text>
</g>
<!-- Node30&#45;&gt;Node38 -->
<g id="edge73" class="edge"><title>Node30&#45;&gt;Node38</title>
<path fill="none" stroke="midnightblue" d="M1786.07,-323.516C1903.48,-309.699 2146.4,-275.617 2343,-212 2345.13,-211.309 2347.31,-210.51 2349.48,-209.647"/>
<polygon fill="midnightblue" stroke="midnightblue" points="2350.96,-212.819 2358.71,-205.597 2348.15,-206.408 2350.96,-212.819"/>
</g>
<!-- Node42 -->
<g id="node42" class="node"><title>Node42</title>
<g id="a_node42"><a xlink:href="../../df/d5d/common_2include_2CommonDataFormat_2TimeStamp_8h.html" target="_top" xlink:title="CommonDataFormat/TimeStamp.h">
<polygon fill="none" stroke="black" points="1473,-254.5 1473,-273.5 1643,-273.5 1643,-254.5 1473,-254.5"/>
<text text-anchor="middle" x="1558" y="-261.5" font-family="Helvetica,sans-Serif" font-size="10.00">CommonDataFormat/TimeStamp.h</text>
</a>
</g>
</g>
<!-- Node30&#45;&gt;Node42 -->
<g id="edge68" class="edge"><title>Node30&#45;&gt;Node42</title>
<path fill="none" stroke="midnightblue" d="M1682.11,-316.841C1654.16,-305.169 1614.9,-288.768 1588.06,-277.558"/>
<polygon fill="midnightblue" stroke="midnightblue" points="1589.36,-274.307 1578.78,-273.682 1586.66,-280.766 1589.36,-274.307"/>
</g>
<!-- Node43 -->
<g id="node43" class="node"><title>Node43</title>
<polygon fill="none" stroke="#bfbfbf" points="1701.5,-254.5 1701.5,-273.5 1730.5,-273.5 1730.5,-254.5 1701.5,-254.5"/>
<text text-anchor="middle" x="1716" y="-261.5" font-family="Helvetica,sans-Serif" font-size="10.00">ios</text>
</g>
<!-- Node30&#45;&gt;Node43 -->
<g id="edge72" class="edge"><title>Node30&#45;&gt;Node43</title>
<path fill="none" stroke="midnightblue" d="M1716,-316.679C1716,-307.101 1716,-294.394 1716,-283.977"/>
<polygon fill="midnightblue" stroke="midnightblue" points="1719.5,-283.828 1716,-273.828 1712.5,-283.828 1719.5,-283.828"/>
</g>
<!-- Node31&#45;&gt;Node23 -->
<g id="edge62" class="edge"><title>Node31&#45;&gt;Node23</title>
<path fill="none" stroke="midnightblue" d="M1783.84,-254.457C1769.48,-252.087 1753.63,-249.7 1739,-248 1511.09,-221.511 1447.77,-262.716 1224,-212 1220.75,-211.263 1217.41,-210.291 1214.13,-209.196"/>
<polygon fill="midnightblue" stroke="midnightblue" points="1215.17,-205.851 1204.58,-205.648 1212.74,-212.412 1215.17,-205.851"/>
</g>
<!-- Node32 -->
<g id="node32" class="node"><title>Node32</title>
<polygon fill="none" stroke="#bfbfbf" points="1232.5,-181 1232.5,-211 1383.5,-211 1383.5,-181 1232.5,-181"/>
<text text-anchor="start" x="1240.5" y="-199" font-family="Helvetica,sans-Serif" font-size="10.00">Math/GenVector/Displacement</text>
<text text-anchor="middle" x="1308" y="-188" font-family="Helvetica,sans-Serif" font-size="10.00">Vector3D.h</text>
</g>
<!-- Node31&#45;&gt;Node32 -->
<g id="edge57" class="edge"><title>Node31&#45;&gt;Node32</title>
<path fill="none" stroke="midnightblue" d="M1781.9,-254.454C1768.05,-252.191 1752.96,-249.862 1739,-248 1589.04,-227.991 1547.87,-233.207 1394.24,-212.108"/>
<polygon fill="midnightblue" stroke="midnightblue" points="1394.34,-208.589 1383.96,-210.68 1393.38,-215.522 1394.34,-208.589"/>
</g>
<!-- Node33 -->
<g id="node33" class="node"><title>Node33</title>
<polygon fill="none" stroke="#bfbfbf" points="1402,-186.5 1402,-205.5 1578,-205.5 1578,-186.5 1402,-186.5"/>
<text text-anchor="middle" x="1490" y="-193.5" font-family="Helvetica,sans-Serif" font-size="10.00">Math/GenVector/PositionVector3D.h</text>
</g>
<!-- Node31&#45;&gt;Node33 -->
<g id="edge58" class="edge"><title>Node31&#45;&gt;Node33</title>
<path fill="none" stroke="midnightblue" d="M1786.77,-254.439C1724.55,-242.396 1611.29,-220.475 1544.12,-207.475"/>
<polygon fill="midnightblue" stroke="midnightblue" points="1544.63,-204.01 1534.15,-205.546 1543.3,-210.882 1544.63,-204.01"/>
</g>
<!-- Node34 -->
<g id="node34" class="node"><title>Node34</title>
<polygon fill="none" stroke="#bfbfbf" points="1595.5,-186.5 1595.5,-205.5 1744.5,-205.5 1744.5,-186.5 1595.5,-186.5"/>
<text text-anchor="middle" x="1670" y="-193.5" font-family="Helvetica,sans-Serif" font-size="10.00">Math/GenVector/Rotation3D.h</text>
</g>
<!-- Node31&#45;&gt;Node34 -->
<g id="edge59" class="edge"><title>Node31&#45;&gt;Node34</title>
<path fill="none" stroke="midnightblue" d="M1809.95,-254.372C1781.91,-242.877 1732.13,-222.469 1700.12,-209.346"/>
<polygon fill="midnightblue" stroke="midnightblue" points="1701.38,-206.081 1690.8,-205.526 1698.72,-212.557 1701.38,-206.081"/>
</g>
<!-- Node35 -->
<g id="node35" class="node"><title>Node35</title>
<polygon fill="none" stroke="#bfbfbf" points="1763,-186.5 1763,-205.5 1919,-205.5 1919,-186.5 1763,-186.5"/>
<text text-anchor="middle" x="1841" y="-193.5" font-family="Helvetica,sans-Serif" font-size="10.00">Math/GenVector/Transform3D.h</text>
</g>
<!-- Node31&#45;&gt;Node35 -->
<g id="edge60" class="edge"><title>Node31&#45;&gt;Node35</title>
<path fill="none" stroke="midnightblue" d="M1832.31,-254.372C1833.78,-244.643 1836.22,-228.528 1838.14,-215.85"/>
<polygon fill="midnightblue" stroke="midnightblue" points="1841.62,-216.253 1839.66,-205.841 1834.7,-215.204 1841.62,-216.253"/>
</g>
<!-- Node36 -->
<g id="node36" class="node"><title>Node36</title>
<polygon fill="none" stroke="#bfbfbf" points="1937,-186.5 1937,-205.5 2097,-205.5 2097,-186.5 1937,-186.5"/>
<text text-anchor="middle" x="2017" y="-193.5" font-family="Helvetica,sans-Serif" font-size="10.00">Math/GenVector/Translation3D.h</text>
</g>
<!-- Node31&#45;&gt;Node36 -->
<g id="edge61" class="edge"><title>Node31&#45;&gt;Node36</title>
<path fill="none" stroke="midnightblue" d="M1855.32,-254.372C1887.99,-242.778 1946.22,-222.116 1983.16,-209.009"/>
<polygon fill="midnightblue" stroke="midnightblue" points="1984.72,-212.169 1992.97,-205.526 1982.38,-205.572 1984.72,-212.169"/>
</g>
<!-- Node37 -->
<g id="node37" class="node"><title>Node37</title>
<polygon fill="none" stroke="#bfbfbf" points="2115,-186.5 2115,-205.5 2191,-205.5 2191,-186.5 2115,-186.5"/>
<text text-anchor="middle" x="2153" y="-193.5" font-family="Helvetica,sans-Serif" font-size="10.00">TGeoMatrix.h</text>
</g>
<!-- Node31&#45;&gt;Node37 -->
<g id="edge63" class="edge"><title>Node31&#45;&gt;Node37</title>
<path fill="none" stroke="midnightblue" d="M1888.6,-254.478C1944.55,-245.692 2031.71,-230.665 2106,-212 2110.11,-210.967 2114.39,-209.772 2118.62,-208.518"/>
<polygon fill="midnightblue" stroke="midnightblue" points="2119.77,-211.826 2128.29,-205.528 2117.7,-205.138 2119.77,-211.826"/>
</g>
<!-- Node31&#45;&gt;Node38 -->
<g id="edge64" class="edge"><title>Node31&#45;&gt;Node38</title>
<path fill="none" stroke="midnightblue" d="M1893.66,-259.414C2011.09,-252.255 2259.89,-234.894 2343,-212 2345.35,-211.354 2347.73,-210.548 2350.09,-209.647"/>
<polygon fill="midnightblue" stroke="midnightblue" points="2351.68,-212.774 2359.45,-205.578 2348.89,-206.354 2351.68,-212.774"/>
</g>
<!-- Node39 -->
<g id="node39" class="node"><title>Node39</title>
<g id="a_node39"><a xlink:href="../../d2/dd0/Cartesian2D_8h.html" target="_top" xlink:title="MathUtils/Cartesian2D.h">
<polygon fill="none" stroke="black" points="2209.5,-186.5 2209.5,-205.5 2334.5,-205.5 2334.5,-186.5 2209.5,-186.5"/>
<text text-anchor="middle" x="2272" y="-193.5" font-family="Helvetica,sans-Serif" font-size="10.00">MathUtils/Cartesian2D.h</text>
</a>
</g>
</g>
<!-- Node31&#45;&gt;Node39 -->
<g id="edge65" class="edge"><title>Node31&#45;&gt;Node39</title>
<path fill="none" stroke="midnightblue" d="M1893.55,-255.672C1967.11,-246.75 2092.78,-230.555 2200,-212 2207.7,-210.668 2215.83,-209.116 2223.74,-207.526"/>
<polygon fill="midnightblue" stroke="midnightblue" points="2224.51,-210.94 2233.61,-205.504 2223.11,-204.083 2224.51,-210.94"/>
</g>
<!-- Node40 -->
<g id="node40" class="node"><title>Node40</title>
<polygon fill="none" stroke="#bfbfbf" points="2221.5,-113 2221.5,-143 2372.5,-143 2372.5,-113 2221.5,-113"/>
<text text-anchor="start" x="2229.5" y="-131" font-family="Helvetica,sans-Serif" font-size="10.00">Math/GenVector/Displacement</text>
<text text-anchor="middle" x="2297" y="-120" font-family="Helvetica,sans-Serif" font-size="10.00">Vector2D.h</text>
</g>
<!-- Node39&#45;&gt;Node40 -->
<g id="edge66" class="edge"><title>Node39&#45;&gt;Node40</title>
<path fill="none" stroke="midnightblue" d="M2275.27,-186.372C2278.48,-177.886 2283.54,-164.542 2287.96,-152.858"/>
<polygon fill="midnightblue" stroke="midnightblue" points="2291.36,-153.773 2291.63,-143.181 2284.81,-151.293 2291.36,-153.773"/>
</g>
<!-- Node41 -->
<g id="node41" class="node"><title>Node41</title>
<polygon fill="none" stroke="#bfbfbf" points="2027,-118.5 2027,-137.5 2203,-137.5 2203,-118.5 2027,-118.5"/>
<text text-anchor="middle" x="2115" y="-125.5" font-family="Helvetica,sans-Serif" font-size="10.00">Math/GenVector/PositionVector2D.h</text>
</g>
<!-- Node39&#45;&gt;Node41 -->
<g id="edge67" class="edge"><title>Node39&#45;&gt;Node41</title>
<path fill="none" stroke="midnightblue" d="M2251.47,-186.372C2224.32,-174.958 2176.27,-154.756 2145.03,-141.625"/>
<polygon fill="midnightblue" stroke="midnightblue" points="2146.1,-138.279 2135.53,-137.63 2143.39,-144.732 2146.1,-138.279"/>
</g>
<!-- Node42&#45;&gt;Node23 -->
<g id="edge69" class="edge"><title>Node42&#45;&gt;Node23</title>
<path fill="none" stroke="midnightblue" d="M1472.84,-255.324C1404.69,-247.913 1307.1,-234.441 1224,-212 1221.01,-211.194 1217.94,-210.227 1214.9,-209.179"/>
<polygon fill="midnightblue" stroke="midnightblue" points="1216.03,-205.863 1205.44,-205.643 1213.58,-212.421 1216.03,-205.863"/>
</g>
</g>
</svg>
        <g id="navigator" transform="translate(0 0)" fill="#404254">
                <rect fill="#f2f5e9" fill-opacity="0.5" stroke="#606060" stroke-width=".5" x="0" y="0" width="60" height="60"/>
                <use id="zoomplus" xlink:href="#zoomPlus" x="17" y="9" onmousedown="handleZoom(evt,'in')"/>
                <use id="zoomminus" xlink:href="#zoomMin" x="42" y="9" onmousedown="handleZoom(evt,'out')"/>
                <use id="reset" xlink:href="#resetDef" x="30" y="36" onmousedown="handleReset()"/>
                <g id="arrowUp" xlink:href="#dirArrow" transform="translate(30 24)" onmousedown="handlePan(0,-1)">
                  <use xlink:href="#rim" fill="#404040">
                        <set attributeName="fill" to="#808080" begin="arrowUp.mouseover" end="arrowUp.mouseout"/>
                  </use>
                  <path fill="none" stroke="white" stroke-width="1.5" d="M0,-3.0v7 M-2.5,-0.5L0,-3.0L2.5,-0.5"/>
                </g>
                <g id="arrowRight" xlink:href="#dirArrow" transform="rotate(90) translate(36 -43)" onmousedown="handlePan(1,0)">
                  <use xlink:href="#rim" fill="#404040">
                        <set attributeName="fill" to="#808080" begin="arrowRight.mouseover" end="arrowRight.mouseout"/>
                  </use>
                  <path fill="none" stroke="white" stroke-width="1.5" d="M0,-3.0v7 M-2.5,-0.5L0,-3.0L2.5,-0.5"/>
                </g>
                <g id="arrowDown" xlink:href="#dirArrow" transform="rotate(180) translate(-30 -48)" onmousedown="handlePan(0,1)">
                  <use xlink:href="#rim" fill="#404040">
                        <set attributeName="fill" to="#808080" begin="arrowDown.mouseover" end="arrowDown.mouseout"/>
                  </use>
                  <path fill="none" stroke="white" stroke-width="1.5" d="M0,-3.0v7 M-2.5,-0.5L0,-3.0L2.5,-0.5"/>
                </g>
                <g id="arrowLeft" xlink:href="#dirArrow" transform="rotate(270) translate(-36 17)" onmousedown="handlePan(-1,0)">
                  <use xlink:href="#rim" fill="#404040">
                        <set attributeName="fill" to="#808080" begin="arrowLeft.mouseover" end="arrowLeft.mouseout"/>
                  </use>
                  <path fill="none" stroke="white" stroke-width="1.5" d="M0,-3.0v7 M-2.5,-0.5L0,-3.0L2.5,-0.5"/>
                </g>
        </g>
        <svg viewBox="0 0 15 15" width="100%" height="30px" preserveAspectRatio="xMaxYMin meet">
         <g id="arrow_out" transform="scale(0.3 0.3)">
          <a xlink:href="Vertexer_8cxx__incl_org.svg" target="_base">
           <rect id="button" ry="5" rx="5" y="6" x="6" height="38" width="38"
                fill="#f2f5e9" fill-opacity="0.5" stroke="#606060" stroke-width="1.0"/>
           <path id="arrow"
             d="M 11.500037,31.436501 C 11.940474,20.09759 22.043105,11.32322 32.158766,21.979434 L 37.068811,17.246167 C 37.068811,17.246167 37.088388,32 37.088388,32 L 22.160133,31.978069 C 22.160133,31.978069 26.997745,27.140456 26.997745,27.140456 C 18.528582,18.264221 13.291696,25.230495 11.500037,31.436501 z"
             style="fill:#404040;"/>
          </a>
         </g>
        </svg>
</svg>
