<?xml version="1.0" encoding="UTF-8" standalone="no"?>
<!DOCTYPE svg PUBLIC "-//W3C//DTD SVG 1.1//EN"
 "http://www.w3.org/Graphics/SVG/1.1/DTD/svg11.dtd">
<!-- Generated by graphviz version 2.36.0 (20140111.2315)
 -->
<!-- Title: /home/travis/build/AliceO2Group/AliceO2/Detectors/ITSMFT/ITS/macros/test/exctracITSMapping.C Pages: 1 -->
<svg width="2101pt" height="446pt"
 viewBox="0.00 0.00 2101.00 446.00" xmlns="http://www.w3.org/2000/svg" xmlns:xlink="http://www.w3.org/1999/xlink">
<g id="graph0" class="graph" transform="scale(1 1) rotate(0) translate(4 442)">
<title>/home/travis/build/AliceO2Group/AliceO2/Detectors/ITSMFT/ITS/macros/test/exctracITSMapping.C</title>
<!-- Node1 -->
<g id="node1" class="node"><title>Node1</title>
<polygon fill="#bfbfbf" stroke="black" points="710,-385 710,-437 880,-437 880,-385 710,-385"/>
<text text-anchor="start" x="718" y="-425" font-family="Helvetica,sans-Serif" font-size="10.00">/home/travis/build</text>
<text text-anchor="start" x="718" y="-414" font-family="Helvetica,sans-Serif" font-size="10.00">/AliceO2Group/AliceO2</text>
<text text-anchor="start" x="718" y="-403" font-family="Helvetica,sans-Serif" font-size="10.00">/Detectors/ITSMFT/ITS</text>
<text text-anchor="middle" x="795" y="-392" font-family="Helvetica,sans-Serif" font-size="10.00">/macros/test/exctracITSMapping.C</text>
</g>
<!-- Node2 -->
<g id="node2" class="node"><title>Node2</title>
<polygon fill="none" stroke="#bfbfbf" points="-0.5,-210.5 -0.5,-229.5 70.5,-229.5 70.5,-210.5 -0.5,-210.5"/>
<text text-anchor="middle" x="35" y="-217.5" font-family="Helvetica,sans-Serif" font-size="10.00">FairLogger.h</text>
</g>
<!-- Node1&#45;&gt;Node2 -->
<g id="edge1" class="edge"><title>Node1&#45;&gt;Node2</title>
<path fill="none" stroke="midnightblue" d="M709.829,-402.734C586.455,-390.294 352.197,-359.421 164,-292 123.668,-277.551 80.8575,-251.592 56.0988,-235.385"/>
<polygon fill="midnightblue" stroke="midnightblue" points="57.8023,-232.315 47.5364,-229.696 53.9282,-238.145 57.8023,-232.315"/>
</g>
<!-- Node3 -->
<g id="node3" class="node"><title>Node3</title>
<polygon fill="none" stroke="#bfbfbf" points="718,-328.5 718,-347.5 764,-347.5 764,-328.5 718,-328.5"/>
<text text-anchor="middle" x="741" y="-335.5" font-family="Helvetica,sans-Serif" font-size="10.00">stdio.h</text>
</g>
<!-- Node1&#45;&gt;Node3 -->
<g id="edge2" class="edge"><title>Node1&#45;&gt;Node3</title>
<path fill="none" stroke="midnightblue" d="M775.81,-384.768C768.52,-375.183 760.399,-364.506 753.836,-355.877"/>
<polygon fill="midnightblue" stroke="midnightblue" points="756.5,-353.598 747.66,-347.757 750.928,-357.835 756.5,-353.598"/>
</g>
<!-- Node4 -->
<g id="node4" class="node"><title>Node4</title>
<polygon fill="none" stroke="#bfbfbf" points="1394,-142.5 1394,-161.5 1438,-161.5 1438,-142.5 1394,-142.5"/>
<text text-anchor="middle" x="1416" y="-149.5" font-family="Helvetica,sans-Serif" font-size="10.00">vector</text>
</g>
<!-- Node1&#45;&gt;Node4 -->
<g id="edge3" class="edge"><title>Node1&#45;&gt;Node4</title>
<path fill="none" stroke="midnightblue" d="M880.143,-389.534C983.345,-362.758 1160.72,-310.34 1300,-236 1337.22,-216.133 1376.28,-185.945 1398.24,-167.975"/>
<polygon fill="midnightblue" stroke="midnightblue" points="1400.57,-170.591 1406.04,-161.517 1396.11,-165.199 1400.57,-170.591"/>
</g>
<!-- Node5 -->
<g id="node5" class="node"><title>Node5</title>
<g id="a_node5"><a xlink:href="../../df/d9a/ITS_2base_2include_2ITSBase_2GeometryTGeo_8h.html" target="_top" xlink:title="ITSBase/GeometryTGeo.h">
<polygon fill="none" stroke="black" points="782.5,-328.5 782.5,-347.5 915.5,-347.5 915.5,-328.5 782.5,-328.5"/>
<text text-anchor="middle" x="849" y="-335.5" font-family="Helvetica,sans-Serif" font-size="10.00">ITSBase/GeometryTGeo.h</text>
</a>
</g>
</g>
<!-- Node1&#45;&gt;Node5 -->
<g id="edge4" class="edge"><title>Node1&#45;&gt;Node5</title>
<path fill="none" stroke="midnightblue" d="M814.19,-384.768C821.48,-375.183 829.601,-364.506 836.164,-355.877"/>
<polygon fill="midnightblue" stroke="midnightblue" points="839.072,-357.835 842.34,-347.757 833.5,-353.598 839.072,-357.835"/>
</g>
<!-- Node5&#45;&gt;Node4 -->
<g id="edge9" class="edge"><title>Node5&#45;&gt;Node4</title>
<path fill="none" stroke="midnightblue" d="M915.523,-330.065C968.478,-323.447 1044.06,-311.533 1108,-292 1218.43,-258.269 1341.11,-194.245 1391.93,-166.444"/>
<polygon fill="midnightblue" stroke="midnightblue" points="1393.77,-169.428 1400.84,-161.538 1390.39,-163.296 1393.77,-169.428"/>
</g>
<!-- Node6 -->
<g id="node6" class="node"><title>Node6</title>
<polygon fill="none" stroke="#bfbfbf" points="1995,-74.5 1995,-93.5 2071,-93.5 2071,-74.5 1995,-74.5"/>
<text text-anchor="middle" x="2033" y="-81.5" font-family="Helvetica,sans-Serif" font-size="10.00">TGeoMatrix.h</text>
</g>
<!-- Node5&#45;&gt;Node6 -->
<g id="edge5" class="edge"><title>Node5&#45;&gt;Node6</title>
<path fill="none" stroke="midnightblue" d="M915.53,-328.611C976.89,-320.513 1070.4,-307.258 1151,-292 1524.72,-221.25 1617.87,-199.466 1985,-100 1988.92,-98.9387 1992.99,-97.7683 1997.04,-96.5633"/>
<polygon fill="midnightblue" stroke="midnightblue" points="1998.41,-99.8069 2006.95,-93.5395 1996.36,-93.112 1998.41,-99.8069"/>
</g>
<!-- Node7 -->
<g id="node7" class="node"><title>Node7</title>
<polygon fill="none" stroke="#bfbfbf" points="127.5,-210.5 127.5,-229.5 186.5,-229.5 186.5,-210.5 127.5,-210.5"/>
<text text-anchor="middle" x="157" y="-217.5" font-family="Helvetica,sans-Serif" font-size="10.00">TObject.h</text>
</g>
<!-- Node5&#45;&gt;Node7 -->
<g id="edge6" class="edge"><title>Node5&#45;&gt;Node7</title>
<path fill="none" stroke="midnightblue" d="M782.28,-329.024C779.144,-328.673 776.038,-328.33 773,-328 610.942,-310.414 568.168,-322.304 408,-292 329.07,-277.067 239.013,-248.74 191.144,-232.75"/>
<polygon fill="midnightblue" stroke="midnightblue" points="192.183,-229.407 181.589,-229.535 189.951,-236.041 192.183,-229.407"/>
</g>
<!-- Node8 -->
<g id="node8" class="node"><title>Node8</title>
<polygon fill="none" stroke="#bfbfbf" points="619,-6.5 619,-25.5 657,-25.5 657,-6.5 619,-6.5"/>
<text text-anchor="middle" x="638" y="-13.5" font-family="Helvetica,sans-Serif" font-size="10.00">array</text>
</g>
<!-- Node5&#45;&gt;Node8 -->
<g id="edge7" class="edge"><title>Node5&#45;&gt;Node8</title>
<path fill="none" stroke="midnightblue" d="M841.723,-328.403C816.543,-298.393 731.621,-194.941 676,-100 663.395,-78.4844 651.93,-52.0625 644.965,-34.8931"/>
<polygon fill="midnightblue" stroke="midnightblue" points="648.187,-33.5242 641.24,-25.5251 641.682,-36.1107 648.187,-33.5242"/>
</g>
<!-- Node9 -->
<g id="node9" class="node"><title>Node9</title>
<polygon fill="none" stroke="#bfbfbf" points="896.5,-210.5 896.5,-229.5 937.5,-229.5 937.5,-210.5 896.5,-210.5"/>
<text text-anchor="middle" x="917" y="-217.5" font-family="Helvetica,sans-Serif" font-size="10.00">string</text>
</g>
<!-- Node5&#45;&gt;Node9 -->
<g id="edge8" class="edge"><title>Node5&#45;&gt;Node9</title>
<path fill="none" stroke="midnightblue" d="M856.049,-328.353C863.079,-319.517 873.959,-305.252 882,-292 892.555,-274.604 902.609,-253.58 909.21,-238.944"/>
<polygon fill="midnightblue" stroke="midnightblue" points="912.517,-240.12 913.364,-229.559 906.116,-237.287 912.517,-240.12"/>
</g>
<!-- Node10 -->
<g id="node10" class="node"><title>Node10</title>
<g id="a_node10"><a xlink:href="../../db/dcc/Detectors_2Base_2include_2DetectorsBase_2GeometryManager_8h.html" target="_top" xlink:title="DetectorsBase/GeometryManager.h">
<polygon fill="none" stroke="black" points="417.5,-272.5 417.5,-291.5 590.5,-291.5 590.5,-272.5 417.5,-272.5"/>
<text text-anchor="middle" x="504" y="-279.5" font-family="Helvetica,sans-Serif" font-size="10.00">DetectorsBase/GeometryManager.h</text>
</a>
</g>
</g>
<!-- Node5&#45;&gt;Node10 -->
<g id="edge10" class="edge"><title>Node5&#45;&gt;Node10</title>
<path fill="none" stroke="midnightblue" d="M794.334,-328.444C733.014,-318.846 633.641,-303.292 568.551,-293.104"/>
<polygon fill="midnightblue" stroke="midnightblue" points="568.831,-289.605 558.411,-291.516 567.749,-296.521 568.831,-289.605"/>
</g>
<!-- Node16 -->
<g id="node16" class="node"><title>Node16</title>
<g id="a_node16"><a xlink:href="../../d6/d31/DetID_8h.html" target="_top" xlink:title="DetectorsCommonDataFormats\l/DetID.h">
<polygon fill="none" stroke="black" points="446,-137 446,-167 602,-167 602,-137 446,-137"/>
<text text-anchor="start" x="454" y="-155" font-family="Helvetica,sans-Serif" font-size="10.00">DetectorsCommonDataFormats</text>
<text text-anchor="middle" x="524" y="-144" font-family="Helvetica,sans-Serif" font-size="10.00">/DetID.h</text>
</a>
</g>
</g>
<!-- Node5&#45;&gt;Node16 -->
<g id="edge42" class="edge"><title>Node5&#45;&gt;Node16</title>
<path fill="none" stroke="midnightblue" d="M782.288,-328.953C779.149,-328.621 776.041,-328.301 773,-328 626.731,-313.52 207.048,-352.939 118,-236 109.384,-224.685 108.591,-214.665 118,-204 138.672,-180.569 322.697,-165.255 435.778,-157.969"/>
<polygon fill="midnightblue" stroke="midnightblue" points="436.058,-161.458 445.816,-157.331 435.614,-154.472 436.058,-161.458"/>
</g>
<!-- Node17 -->
<g id="node17" class="node"><title>Node17</title>
<polygon fill="none" stroke="#bfbfbf" points="793,-74.5 793,-93.5 849,-93.5 849,-74.5 793,-74.5"/>
<text text-anchor="middle" x="821" y="-81.5" font-family="Helvetica,sans-Serif" font-size="10.00">Rtypes.h</text>
</g>
<!-- Node5&#45;&gt;Node17 -->
<g id="edge54" class="edge"><title>Node5&#45;&gt;Node17</title>
<path fill="none" stroke="midnightblue" d="M848.036,-328.326C844.039,-292.355 828.716,-154.44 823.088,-103.795"/>
<polygon fill="midnightblue" stroke="midnightblue" points="826.543,-103.19 821.96,-93.6379 819.586,-103.963 826.543,-103.19"/>
</g>
<!-- Node22 -->
<g id="node22" class="node"><title>Node22</title>
<g id="a_node22"><a xlink:href="../../d9/d52/Common_2MathUtils_2include_2MathUtils_2Utils_8h.html" target="_top" xlink:title="MathUtils/Utils.h">
<polygon fill="none" stroke="black" points="685,-74.5 685,-93.5 775,-93.5 775,-74.5 685,-74.5"/>
<text text-anchor="middle" x="730" y="-81.5" font-family="Helvetica,sans-Serif" font-size="10.00">MathUtils/Utils.h</text>
</a>
</g>
</g>
<!-- Node5&#45;&gt;Node22 -->
<g id="edge53" class="edge"><title>Node5&#45;&gt;Node22</title>
<path fill="none" stroke="midnightblue" d="M844.904,-328.326C827.81,-292.128 761.967,-152.694 738.427,-102.846"/>
<polygon fill="midnightblue" stroke="midnightblue" points="741.514,-101.186 734.079,-93.6379 735.184,-104.175 741.514,-101.186"/>
</g>
<!-- Node35 -->
<g id="node35" class="node"><title>Node35</title>
<g id="a_node35"><a xlink:href="../../d0/d2d/common_2base_2include_2ITSMFTBase_2GeometryTGeo_8h.html" target="_top" xlink:title="ITSMFTBase/GeometryTGeo.h">
<polygon fill="none" stroke="black" points="946.5,-272.5 946.5,-291.5 1099.5,-291.5 1099.5,-272.5 946.5,-272.5"/>
<text text-anchor="middle" x="1023" y="-279.5" font-family="Helvetica,sans-Serif" font-size="10.00">ITSMFTBase/GeometryTGeo.h</text>
</a>
</g>
</g>
<!-- Node5&#45;&gt;Node35 -->
<g id="edge43" class="edge"><title>Node5&#45;&gt;Node35</title>
<path fill="none" stroke="midnightblue" d="M876.571,-328.444C906.097,-319.28 953.118,-304.688 985.883,-294.519"/>
<polygon fill="midnightblue" stroke="midnightblue" points="987.045,-297.823 995.558,-291.516 984.97,-291.138 987.045,-297.823"/>
</g>
<!-- Node10&#45;&gt;Node2 -->
<g id="edge29" class="edge"><title>Node10&#45;&gt;Node2</title>
<path fill="none" stroke="midnightblue" d="M417.561,-272.49C339.196,-264.404 220.606,-251.237 118,-236 105.892,-234.202 92.8414,-231.979 80.7549,-229.8"/>
<polygon fill="midnightblue" stroke="midnightblue" points="81.3376,-226.348 70.8707,-227.99 80.0769,-233.234 81.3376,-226.348"/>
</g>
<!-- Node10&#45;&gt;Node7 -->
<g id="edge16" class="edge"><title>Node10&#45;&gt;Node7</title>
<path fill="none" stroke="midnightblue" d="M418.311,-272.467C357.191,-265.365 273.355,-253.553 201,-236 197.14,-235.064 193.137,-233.933 189.19,-232.717"/>
<polygon fill="midnightblue" stroke="midnightblue" points="190.198,-229.364 179.605,-229.582 188.021,-236.017 190.198,-229.364"/>
</g>
<!-- Node10&#45;&gt;Node9 -->
<g id="edge17" class="edge"><title>Node10&#45;&gt;Node9</title>
<path fill="none" stroke="midnightblue" d="M562.734,-272.467C651.73,-259.538 817.619,-235.438 886.153,-225.481"/>
<polygon fill="midnightblue" stroke="midnightblue" points="886.897,-228.91 896.29,-224.009 885.891,-221.983 886.897,-228.91"/>
</g>
<!-- Node11 -->
<g id="node11" class="node"><title>Node11</title>
<polygon fill="none" stroke="#bfbfbf" points="243,-210.5 243,-229.5 329,-229.5 329,-210.5 243,-210.5"/>
<text text-anchor="middle" x="286" y="-217.5" font-family="Helvetica,sans-Serif" font-size="10.00">TGeoManager.h</text>
</g>
<!-- Node10&#45;&gt;Node11 -->
<g id="edge11" class="edge"><title>Node10&#45;&gt;Node11</title>
<path fill="none" stroke="midnightblue" d="M471.825,-272.442C438.351,-263.501 384.44,-248.992 338,-236 333.877,-234.847 329.575,-233.629 325.287,-232.406"/>
<polygon fill="midnightblue" stroke="midnightblue" points="325.979,-228.963 315.402,-229.571 324.05,-235.692 325.979,-228.963"/>
</g>
<!-- Node12 -->
<g id="node12" class="node"><title>Node12</title>
<polygon fill="none" stroke="#bfbfbf" points="347.5,-210.5 347.5,-229.5 430.5,-229.5 430.5,-210.5 347.5,-210.5"/>
<text text-anchor="middle" x="389" y="-217.5" font-family="Helvetica,sans-Serif" font-size="10.00">TGeoMaterial.h</text>
</g>
<!-- Node10&#45;&gt;Node12 -->
<g id="edge12" class="edge"><title>Node10&#45;&gt;Node12</title>
<path fill="none" stroke="midnightblue" d="M487.523,-272.403C468.395,-262.423 436.627,-245.849 414.348,-234.225"/>
<polygon fill="midnightblue" stroke="midnightblue" points="415.931,-231.103 405.446,-229.581 412.693,-237.309 415.931,-231.103"/>
</g>
<!-- Node13 -->
<g id="node13" class="node"><title>Node13</title>
<polygon fill="none" stroke="#bfbfbf" points="449,-210.5 449,-229.5 559,-229.5 559,-210.5 449,-210.5"/>
<text text-anchor="middle" x="504" y="-217.5" font-family="Helvetica,sans-Serif" font-size="10.00">TGeoPhysicalNode.h</text>
</g>
<!-- Node10&#45;&gt;Node13 -->
<g id="edge13" class="edge"><title>Node10&#45;&gt;Node13</title>
<path fill="none" stroke="midnightblue" d="M504,-272.403C504,-263.938 504,-250.728 504,-239.82"/>
<polygon fill="midnightblue" stroke="midnightblue" points="507.5,-239.581 504,-229.581 500.5,-239.581 507.5,-239.581"/>
</g>
<!-- Node14 -->
<g id="node14" class="node"><title>Node14</title>
<polygon fill="none" stroke="#bfbfbf" points="577.5,-210.5 577.5,-229.5 654.5,-229.5 654.5,-210.5 577.5,-210.5"/>
<text text-anchor="middle" x="616" y="-217.5" font-family="Helvetica,sans-Serif" font-size="10.00">TGeoShape.h</text>
</g>
<!-- Node10&#45;&gt;Node14 -->
<g id="edge14" class="edge"><title>Node10&#45;&gt;Node14</title>
<path fill="none" stroke="midnightblue" d="M520.047,-272.403C538.593,-262.468 569.34,-245.997 591.022,-234.381"/>
<polygon fill="midnightblue" stroke="midnightblue" points="592.821,-237.388 599.983,-229.581 589.515,-231.218 592.821,-237.388"/>
</g>
<!-- Node15 -->
<g id="node15" class="node"><title>Node15</title>
<polygon fill="none" stroke="#bfbfbf" points="672.5,-210.5 672.5,-229.5 725.5,-229.5 725.5,-210.5 672.5,-210.5"/>
<text text-anchor="middle" x="699" y="-217.5" font-family="Helvetica,sans-Serif" font-size="10.00">TMath.h</text>
</g>
<!-- Node10&#45;&gt;Node15 -->
<g id="edge15" class="edge"><title>Node10&#45;&gt;Node15</title>
<path fill="none" stroke="midnightblue" d="M538.797,-272.426C571.259,-264.129 620.874,-250.679 663,-236 665.406,-235.162 667.882,-234.246 670.356,-233.293"/>
<polygon fill="midnightblue" stroke="midnightblue" points="671.76,-236.501 679.733,-229.524 669.149,-230.006 671.76,-236.501"/>
</g>
<!-- Node10&#45;&gt;Node16 -->
<g id="edge18" class="edge"><title>Node10&#45;&gt;Node16</title>
<path fill="none" stroke="midnightblue" d="M417.391,-278.357C347.556,-274.184 257.268,-263.467 234,-236 224.807,-225.148 224.856,-214.893 234,-204 259.44,-173.696 360.151,-161.393 435.8,-156.401"/>
<polygon fill="midnightblue" stroke="midnightblue" points="436.068,-159.892 445.829,-155.772 435.629,-152.905 436.068,-159.892"/>
</g>
<!-- Node25 -->
<g id="node25" class="node"><title>Node25</title>
<g id="a_node25"><a xlink:href="../../dd/d76/Cartesian3D_8h.html" target="_top" xlink:title="MathUtils/Cartesian3D.h">
<polygon fill="none" stroke="black" points="944.5,-142.5 944.5,-161.5 1069.5,-161.5 1069.5,-142.5 944.5,-142.5"/>
<text text-anchor="middle" x="1007" y="-149.5" font-family="Helvetica,sans-Serif" font-size="10.00">MathUtils/Cartesian3D.h</text>
</a>
</g>
</g>
<!-- Node10&#45;&gt;Node25 -->
<g id="edge30" class="edge"><title>Node10&#45;&gt;Node25</title>
<path fill="none" stroke="midnightblue" d="M555.486,-272.476C602.318,-264.356 673.2,-251.149 734,-236 820.748,-214.386 920.86,-181.998 972.383,-164.768"/>
<polygon fill="midnightblue" stroke="midnightblue" points="973.656,-168.033 982.022,-161.531 971.428,-161.397 973.656,-168.033"/>
</g>
<!-- Node16&#45;&gt;Node8 -->
<g id="edge20" class="edge"><title>Node16&#45;&gt;Node8</title>
<path fill="none" stroke="midnightblue" d="M551.688,-136.999C567.167,-128.081 585.917,-115.331 599,-100 615.51,-80.6529 626.602,-53.1312 632.608,-35.1711"/>
<polygon fill="midnightblue" stroke="midnightblue" points="635.954,-36.1986 635.627,-25.6088 629.279,-34.0912 635.954,-36.1986"/>
</g>
<!-- Node16&#45;&gt;Node17 -->
<g id="edge19" class="edge"><title>Node16&#45;&gt;Node17</title>
<path fill="none" stroke="midnightblue" d="M602.019,-139.704C654.156,-131.181 723.933,-117.887 784,-100 786.649,-99.2112 789.37,-98.3042 792.077,-97.3349"/>
<polygon fill="midnightblue" stroke="midnightblue" points="793.584,-100.506 801.663,-93.652 791.073,-93.9713 793.584,-100.506"/>
</g>
<!-- Node18 -->
<g id="node18" class="node"><title>Node18</title>
<polygon fill="none" stroke="#bfbfbf" points="338.5,-74.5 338.5,-93.5 379.5,-93.5 379.5,-74.5 338.5,-74.5"/>
<text text-anchor="middle" x="359" y="-81.5" font-family="Helvetica,sans-Serif" font-size="10.00">bitset</text>
</g>
<!-- Node16&#45;&gt;Node18 -->
<g id="edge21" class="edge"><title>Node16&#45;&gt;Node18</title>
<path fill="none" stroke="midnightblue" d="M482.725,-136.959C455.497,-127.347 419.226,-113.872 388,-100 386.64,-99.3959 385.254,-98.758 383.862,-98.0995"/>
<polygon fill="midnightblue" stroke="midnightblue" points="385.303,-94.9073 374.789,-93.597 382.191,-101.178 385.303,-94.9073"/>
</g>
<!-- Node19 -->
<g id="node19" class="node"><title>Node19</title>
<polygon fill="none" stroke="#bfbfbf" points="397.5,-74.5 397.5,-93.5 446.5,-93.5 446.5,-74.5 397.5,-74.5"/>
<text text-anchor="middle" x="422" y="-81.5" font-family="Helvetica,sans-Serif" font-size="10.00">cassert</text>
</g>
<!-- Node16&#45;&gt;Node19 -->
<g id="edge22" class="edge"><title>Node16&#45;&gt;Node19</title>
<path fill="none" stroke="midnightblue" d="M502.118,-136.841C485.029,-125.784 461.38,-110.481 444.208,-99.3701"/>
<polygon fill="midnightblue" stroke="midnightblue" points="445.715,-96.1759 435.417,-93.6819 441.912,-102.053 445.715,-96.1759"/>
</g>
<!-- Node20 -->
<g id="node20" class="node"><title>Node20</title>
<polygon fill="none" stroke="#bfbfbf" points="465,-74.5 465,-93.5 511,-93.5 511,-74.5 465,-74.5"/>
<text text-anchor="middle" x="488" y="-81.5" font-family="Helvetica,sans-Serif" font-size="10.00">cstdint</text>
</g>
<!-- Node16&#45;&gt;Node20 -->
<g id="edge23" class="edge"><title>Node16&#45;&gt;Node20</title>
<path fill="none" stroke="midnightblue" d="M516.189,-136.679C510.742,-126.694 503.44,-113.307 497.633,-102.66"/>
<polygon fill="midnightblue" stroke="midnightblue" points="500.677,-100.931 492.815,-93.8283 494.531,-104.283 500.677,-100.931"/>
</g>
<!-- Node21 -->
<g id="node21" class="node"><title>Node21</title>
<polygon fill="none" stroke="#bfbfbf" points="529,-74.5 529,-93.5 591,-93.5 591,-74.5 529,-74.5"/>
<text text-anchor="middle" x="560" y="-81.5" font-family="Helvetica,sans-Serif" font-size="10.00">type_traits</text>
</g>
<!-- Node16&#45;&gt;Node21 -->
<g id="edge24" class="edge"><title>Node16&#45;&gt;Node21</title>
<path fill="none" stroke="midnightblue" d="M531.811,-136.679C537.258,-126.694 544.56,-113.307 550.367,-102.66"/>
<polygon fill="midnightblue" stroke="midnightblue" points="553.469,-104.283 555.185,-93.8283 547.323,-100.931 553.469,-104.283"/>
</g>
<!-- Node16&#45;&gt;Node22 -->
<g id="edge25" class="edge"><title>Node16&#45;&gt;Node22</title>
<path fill="none" stroke="midnightblue" d="M567.939,-136.922C605.366,-124.931 658.506,-107.906 693.596,-96.6635"/>
<polygon fill="midnightblue" stroke="midnightblue" points="694.971,-99.8981 703.427,-93.5138 692.836,-93.2318 694.971,-99.8981"/>
</g>
<!-- Node22&#45;&gt;Node8 -->
<g id="edge26" class="edge"><title>Node22&#45;&gt;Node8</title>
<path fill="none" stroke="midnightblue" d="M717.973,-74.3717C702.82,-63.5015 676.557,-44.6602 658.278,-31.5474"/>
<polygon fill="midnightblue" stroke="midnightblue" points="660.196,-28.6157 650.03,-25.6305 656.116,-34.3035 660.196,-28.6157"/>
</g>
<!-- Node23 -->
<g id="node23" class="node"><title>Node23</title>
<polygon fill="none" stroke="#bfbfbf" points="873,-6.5 873,-25.5 917,-25.5 917,-6.5 873,-6.5"/>
<text text-anchor="middle" x="895" y="-13.5" font-family="Helvetica,sans-Serif" font-size="10.00">cmath</text>
</g>
<!-- Node22&#45;&gt;Node23 -->
<g id="edge27" class="edge"><title>Node22&#45;&gt;Node23</title>
<path fill="none" stroke="midnightblue" d="M753.75,-74.4809C780.517,-64.7441 825.225,-48.0712 863,-32 864.591,-31.3229 866.22,-30.6131 867.859,-29.8859"/>
<polygon fill="midnightblue" stroke="midnightblue" points="869.519,-32.9757 877.163,-25.6391 866.612,-26.6078 869.519,-32.9757"/>
</g>
<!-- Node24 -->
<g id="node24" class="node"><title>Node24</title>
<g id="a_node24"><a xlink:href="../../d6/d84/MathConstants_8h.html" target="_top" xlink:title="useful math constants ">
<polygon fill="none" stroke="black" points="675.5,-6.5 675.5,-25.5 854.5,-25.5 854.5,-6.5 675.5,-6.5"/>
<text text-anchor="middle" x="765" y="-13.5" font-family="Helvetica,sans-Serif" font-size="10.00">CommonConstants/MathConstants.h</text>
</a>
</g>
</g>
<!-- Node22&#45;&gt;Node24 -->
<g id="edge28" class="edge"><title>Node22&#45;&gt;Node24</title>
<path fill="none" stroke="midnightblue" d="M734.576,-74.3717C739.891,-64.3478 748.802,-47.5455 755.61,-34.7076"/>
<polygon fill="midnightblue" stroke="midnightblue" points="758.719,-36.3155 760.312,-25.8411 752.534,-33.036 758.719,-36.3155"/>
</g>
<!-- Node25&#45;&gt;Node6 -->
<g id="edge37" class="edge"><title>Node25&#45;&gt;Node6</title>
<path fill="none" stroke="midnightblue" d="M1042.33,-142.423C1053.94,-139.931 1066.96,-137.483 1079,-136 1478.96,-86.7359 1587.91,-168.694 1985,-100 1989.9,-99.1517 1995,-97.9375 1999.97,-96.5624"/>
<polygon fill="midnightblue" stroke="midnightblue" points="2001.3,-99.8164 2009.87,-93.5796 1999.28,-93.1141 2001.3,-99.8164"/>
</g>
<!-- Node25&#45;&gt;Node17 -->
<g id="edge36" class="edge"><title>Node25&#45;&gt;Node17</title>
<path fill="none" stroke="midnightblue" d="M982.684,-142.372C950.01,-130.778 891.782,-110.116 854.843,-97.0087"/>
<polygon fill="midnightblue" stroke="midnightblue" points="855.622,-93.5715 845.027,-93.5259 853.281,-100.169 855.622,-93.5715"/>
</g>
<!-- Node26 -->
<g id="node26" class="node"><title>Node26</title>
<polygon fill="none" stroke="#bfbfbf" points="905.5,-69 905.5,-99 1056.5,-99 1056.5,-69 905.5,-69"/>
<text text-anchor="start" x="913.5" y="-87" font-family="Helvetica,sans-Serif" font-size="10.00">Math/GenVector/Displacement</text>
<text text-anchor="middle" x="981" y="-76" font-family="Helvetica,sans-Serif" font-size="10.00">Vector3D.h</text>
</g>
<!-- Node25&#45;&gt;Node26 -->
<g id="edge31" class="edge"><title>Node25&#45;&gt;Node26</title>
<path fill="none" stroke="midnightblue" d="M1003.6,-142.372C1000.22,-133.8 994.895,-120.272 990.259,-108.504"/>
<polygon fill="midnightblue" stroke="midnightblue" points="993.508,-107.203 986.587,-99.1815 986.996,-109.768 993.508,-107.203"/>
</g>
<!-- Node27 -->
<g id="node27" class="node"><title>Node27</title>
<polygon fill="none" stroke="#bfbfbf" points="1075,-74.5 1075,-93.5 1251,-93.5 1251,-74.5 1075,-74.5"/>
<text text-anchor="middle" x="1163" y="-81.5" font-family="Helvetica,sans-Serif" font-size="10.00">Math/GenVector/PositionVector3D.h</text>
</g>
<!-- Node25&#45;&gt;Node27 -->
<g id="edge32" class="edge"><title>Node25&#45;&gt;Node27</title>
<path fill="none" stroke="midnightblue" d="M1027.39,-142.372C1054.37,-130.958 1102.12,-110.756 1133.16,-97.6252"/>
<polygon fill="midnightblue" stroke="midnightblue" points="1134.75,-100.75 1142.6,-93.6305 1132.03,-94.3035 1134.75,-100.75"/>
</g>
<!-- Node28 -->
<g id="node28" class="node"><title>Node28</title>
<polygon fill="none" stroke="#bfbfbf" points="1268.5,-74.5 1268.5,-93.5 1417.5,-93.5 1417.5,-74.5 1268.5,-74.5"/>
<text text-anchor="middle" x="1343" y="-81.5" font-family="Helvetica,sans-Serif" font-size="10.00">Math/GenVector/Rotation3D.h</text>
</g>
<!-- Node25&#45;&gt;Node28 -->
<g id="edge33" class="edge"><title>Node25&#45;&gt;Node28</title>
<path fill="none" stroke="midnightblue" d="M1047.34,-142.487C1057.66,-140.34 1068.73,-138.061 1079,-136 1151.02,-121.542 1234.25,-105.589 1287.7,-95.4411"/>
<polygon fill="midnightblue" stroke="midnightblue" points="1288.47,-98.8558 1297.65,-93.5534 1287.17,-91.9785 1288.47,-98.8558"/>
</g>
<!-- Node29 -->
<g id="node29" class="node"><title>Node29</title>
<polygon fill="none" stroke="#bfbfbf" points="1436,-74.5 1436,-93.5 1592,-93.5 1592,-74.5 1436,-74.5"/>
<text text-anchor="middle" x="1514" y="-81.5" font-family="Helvetica,sans-Serif" font-size="10.00">Math/GenVector/Transform3D.h</text>
</g>
<!-- Node25&#45;&gt;Node29 -->
<g id="edge34" class="edge"><title>Node25&#45;&gt;Node29</title>
<path fill="none" stroke="midnightblue" d="M1044.24,-142.487C1055.38,-140.146 1067.65,-137.767 1079,-136 1232.21,-112.157 1272.38,-121.038 1426,-100 1436.24,-98.5977 1447.12,-96.908 1457.6,-95.176"/>
<polygon fill="midnightblue" stroke="midnightblue" points="1458.22,-98.6209 1467.5,-93.5103 1457.06,-91.7179 1458.22,-98.6209"/>
</g>
<!-- Node30 -->
<g id="node30" class="node"><title>Node30</title>
<polygon fill="none" stroke="#bfbfbf" points="1610,-74.5 1610,-93.5 1770,-93.5 1770,-74.5 1610,-74.5"/>
<text text-anchor="middle" x="1690" y="-81.5" font-family="Helvetica,sans-Serif" font-size="10.00">Math/GenVector/Translation3D.h</text>
</g>
<!-- Node25&#45;&gt;Node30 -->
<g id="edge35" class="edge"><title>Node25&#45;&gt;Node30</title>
<path fill="none" stroke="midnightblue" d="M1043.09,-142.475C1054.52,-140.047 1067.24,-137.623 1079,-136 1309.37,-104.211 1370.06,-127.357 1601,-100 1611.84,-98.7157 1623.37,-97.0194 1634.42,-95.2306"/>
<polygon fill="midnightblue" stroke="midnightblue" points="1635.1,-98.6653 1644.39,-93.5708 1633.95,-91.7603 1635.1,-98.6653"/>
</g>
<!-- Node31 -->
<g id="node31" class="node"><title>Node31</title>
<polygon fill="none" stroke="#bfbfbf" points="1788.5,-74.5 1788.5,-93.5 1833.5,-93.5 1833.5,-74.5 1788.5,-74.5"/>
<text text-anchor="middle" x="1811" y="-81.5" font-family="Helvetica,sans-Serif" font-size="10.00">iosfwd</text>
</g>
<!-- Node25&#45;&gt;Node31 -->
<g id="edge38" class="edge"><title>Node25&#45;&gt;Node31</title>
<path fill="none" stroke="midnightblue" d="M1042.71,-142.428C1054.23,-139.967 1067.1,-137.537 1079,-136 1387.96,-96.1137 1476.77,-175.519 1779,-100 1781.5,-99.3753 1784.04,-98.5518 1786.54,-97.6116"/>
<polygon fill="midnightblue" stroke="midnightblue" points="1788.04,-100.775 1795.82,-93.5806 1785.26,-94.3549 1788.04,-100.775"/>
</g>
<!-- Node32 -->
<g id="node32" class="node"><title>Node32</title>
<g id="a_node32"><a xlink:href="../../d2/dd0/Cartesian2D_8h.html" target="_top" xlink:title="MathUtils/Cartesian2D.h">
<polygon fill="none" stroke="black" points="1851.5,-74.5 1851.5,-93.5 1976.5,-93.5 1976.5,-74.5 1851.5,-74.5"/>
<text text-anchor="middle" x="1914" y="-81.5" font-family="Helvetica,sans-Serif" font-size="10.00">MathUtils/Cartesian2D.h</text>
</a>
</g>
</g>
<!-- Node25&#45;&gt;Node32 -->
<g id="edge39" class="edge"><title>Node25&#45;&gt;Node32</title>
<path fill="none" stroke="midnightblue" d="M1042.33,-142.476C1053.95,-139.987 1066.97,-137.528 1079,-136 1415.79,-93.2462 1505.21,-142.754 1842,-100 1850.65,-98.902 1859.81,-97.3227 1868.59,-95.5968"/>
<polygon fill="midnightblue" stroke="midnightblue" points="1869.58,-98.9666 1878.67,-93.5235 1868.16,-92.1101 1869.58,-98.9666"/>
</g>
<!-- Node33 -->
<g id="node33" class="node"><title>Node33</title>
<polygon fill="none" stroke="#bfbfbf" points="1747.5,-1 1747.5,-31 1898.5,-31 1898.5,-1 1747.5,-1"/>
<text text-anchor="start" x="1755.5" y="-19" font-family="Helvetica,sans-Serif" font-size="10.00">Math/GenVector/Displacement</text>
<text text-anchor="middle" x="1823" y="-8" font-family="Helvetica,sans-Serif" font-size="10.00">Vector2D.h</text>
</g>
<!-- Node32&#45;&gt;Node33 -->
<g id="edge40" class="edge"><title>Node32&#45;&gt;Node33</title>
<path fill="none" stroke="midnightblue" d="M1902.1,-74.3717C1889.22,-65.0286 1868.22,-49.7966 1851.09,-37.375"/>
<polygon fill="midnightblue" stroke="midnightblue" points="1852.7,-34.2194 1842.55,-31.1815 1848.59,-39.8859 1852.7,-34.2194"/>
</g>
<!-- Node34 -->
<g id="node34" class="node"><title>Node34</title>
<polygon fill="none" stroke="#bfbfbf" points="1917,-6.5 1917,-25.5 2093,-25.5 2093,-6.5 1917,-6.5"/>
<text text-anchor="middle" x="2005" y="-13.5" font-family="Helvetica,sans-Serif" font-size="10.00">Math/GenVector/PositionVector2D.h</text>
</g>
<!-- Node32&#45;&gt;Node34 -->
<g id="edge41" class="edge"><title>Node32&#45;&gt;Node34</title>
<path fill="none" stroke="midnightblue" d="M1925.9,-74.3717C1940.88,-63.5015 1966.86,-44.6602 1984.94,-31.5474"/>
<polygon fill="midnightblue" stroke="midnightblue" points="1987.06,-34.3349 1993.1,-25.6305 1982.95,-28.6684 1987.06,-34.3349"/>
</g>
<!-- Node35&#45;&gt;Node9 -->
<g id="edge45" class="edge"><title>Node35&#45;&gt;Node9</title>
<path fill="none" stroke="midnightblue" d="M1007.81,-272.403C990.338,-262.512 961.421,-246.144 940.917,-234.538"/>
<polygon fill="midnightblue" stroke="midnightblue" points="942.586,-231.461 932.159,-229.581 939.138,-237.553 942.586,-231.461"/>
</g>
<!-- Node36 -->
<g id="node36" class="node"><title>Node36</title>
<polygon fill="none" stroke="#bfbfbf" points="1130.5,-210.5 1130.5,-229.5 1199.5,-229.5 1199.5,-210.5 1130.5,-210.5"/>
<text text-anchor="middle" x="1165" y="-217.5" font-family="Helvetica,sans-Serif" font-size="10.00">TObjArray.h</text>
</g>
<!-- Node35&#45;&gt;Node36 -->
<g id="edge44" class="edge"><title>Node35&#45;&gt;Node36</title>
<path fill="none" stroke="midnightblue" d="M1043.35,-272.403C1067.39,-262.245 1107.6,-245.255 1135.16,-233.607"/>
<polygon fill="midnightblue" stroke="midnightblue" points="1136.84,-236.697 1144.69,-229.581 1134.12,-230.249 1136.84,-236.697"/>
</g>
<!-- Node37 -->
<g id="node37" class="node"><title>Node37</title>
<g id="a_node37"><a xlink:href="../../d4/d20/DetMatrixCache_8h.html" target="_top" xlink:title="DetectorsCommonDataFormats\l/DetMatrixCache.h">
<polygon fill="none" stroke="black" points="956,-205 956,-235 1112,-235 1112,-205 956,-205"/>
<text text-anchor="start" x="964" y="-223" font-family="Helvetica,sans-Serif" font-size="10.00">DetectorsCommonDataFormats</text>
<text text-anchor="middle" x="1034" y="-212" font-family="Helvetica,sans-Serif" font-size="10.00">/DetMatrixCache.h</text>
</a>
</g>
</g>
<!-- Node35&#45;&gt;Node37 -->
<g id="edge46" class="edge"><title>Node35&#45;&gt;Node37</title>
<path fill="none" stroke="midnightblue" d="M1024.58,-272.403C1025.88,-265.265 1027.81,-254.752 1029.58,-245.09"/>
<polygon fill="midnightblue" stroke="midnightblue" points="1033.05,-245.608 1031.41,-235.141 1026.16,-244.346 1033.05,-245.608"/>
</g>
<!-- Node37&#45;&gt;Node4 -->
<g id="edge50" class="edge"><title>Node37&#45;&gt;Node4</title>
<path fill="none" stroke="midnightblue" d="M1112.23,-205.378C1115.19,-204.905 1118.12,-204.444 1121,-204 1238.03,-185.937 1271.63,-202.213 1385,-168 1387.14,-167.354 1389.31,-166.578 1391.47,-165.722"/>
<polygon fill="midnightblue" stroke="midnightblue" points="1392.92,-168.907 1400.62,-161.624 1390.06,-162.518 1392.92,-168.907"/>
</g>
<!-- Node37&#45;&gt;Node8 -->
<g id="edge49" class="edge"><title>Node37&#45;&gt;Node8</title>
<path fill="none" stroke="midnightblue" d="M997.851,-204.928C978.032,-196.142 953.757,-183.545 935,-168 891.601,-132.033 905.131,-97.3333 857,-68 783.236,-23.045 747.466,-60.7306 666,-32 664.355,-31.4199 662.69,-30.7543 661.033,-30.033"/>
<polygon fill="midnightblue" stroke="midnightblue" points="662.376,-26.7925 651.86,-25.5031 659.276,-33.069 662.376,-26.7925"/>
</g>
<!-- Node37&#45;&gt;Node16 -->
<g id="edge51" class="edge"><title>Node37&#45;&gt;Node16</title>
<path fill="none" stroke="midnightblue" d="M955.821,-205.471C952.505,-204.962 949.221,-204.469 946,-204 831.089,-187.273 698.005,-171.84 612.503,-162.431"/>
<polygon fill="midnightblue" stroke="midnightblue" points="612.639,-158.925 602.317,-161.314 611.875,-165.883 612.639,-158.925"/>
</g>
<!-- Node37&#45;&gt;Node25 -->
<g id="edge52" class="edge"><title>Node37&#45;&gt;Node25</title>
<path fill="none" stroke="midnightblue" d="M1028.14,-204.679C1024.14,-194.898 1018.8,-181.852 1014.49,-171.315"/>
<polygon fill="midnightblue" stroke="midnightblue" points="1017.64,-169.759 1010.61,-161.828 1011.16,-172.409 1017.64,-169.759"/>
</g>
<!-- Node38 -->
<g id="node38" class="node"><title>Node38</title>
<polygon fill="none" stroke="#bfbfbf" points="1088,-142.5 1088,-161.5 1230,-161.5 1230,-142.5 1088,-142.5"/>
<text text-anchor="middle" x="1159" y="-149.5" font-family="Helvetica,sans-Serif" font-size="10.00">AliTPCCommonFairLogger.h</text>
</g>
<!-- Node37&#45;&gt;Node38 -->
<g id="edge47" class="edge"><title>Node37&#45;&gt;Node38</title>
<path fill="none" stroke="midnightblue" d="M1060.82,-204.841C1082.34,-193.476 1112.36,-177.628 1133.52,-166.454"/>
<polygon fill="midnightblue" stroke="midnightblue" points="1135.35,-169.446 1142.56,-161.682 1132.08,-163.256 1135.35,-169.446"/>
</g>
<!-- Node39 -->
<g id="node39" class="node"><title>Node39</title>
<polygon fill="none" stroke="#bfbfbf" points="1248,-142.5 1248,-161.5 1376,-161.5 1376,-142.5 1248,-142.5"/>
<text text-anchor="middle" x="1312" y="-149.5" font-family="Helvetica,sans-Serif" font-size="10.00">AliTPCCommonRtypes.h</text>
</g>
<!-- Node37&#45;&gt;Node39 -->
<g id="edge48" class="edge"><title>Node37&#45;&gt;Node39</title>
<path fill="none" stroke="midnightblue" d="M1093.3,-204.922C1145,-192.648 1218.92,-175.099 1266.18,-163.877"/>
<polygon fill="midnightblue" stroke="midnightblue" points="1267.22,-167.229 1276.14,-161.514 1265.6,-160.418 1267.22,-167.229"/>
</g>
</g>
</svg>
