<?xml version="1.0" encoding="UTF-8" standalone="no"?>
<!DOCTYPE svg PUBLIC "-//W3C//DTD SVG 1.1//EN"
 "http://www.w3.org/Graphics/SVG/1.1/DTD/svg11.dtd">
<!-- Generated by graphviz version 2.36.0 (20140111.2315)
 -->
<!-- Title: /home/travis/build/AliceO2Group/AliceO2/Framework/Core/include/Framework/TMessageSerializer.h Pages: 1 -->
<svg width="1691pt" height="186pt"
 viewBox="0.00 0.00 1691.00 186.00" xmlns="http://www.w3.org/2000/svg" xmlns:xlink="http://www.w3.org/1999/xlink">
<g id="graph0" class="graph" transform="scale(1 1) rotate(0) translate(4 182)">
<title>/home/travis/build/AliceO2Group/AliceO2/Framework/Core/include/Framework/TMessageSerializer.h</title>
<!-- Node1 -->
<g id="node1" class="node"><title>Node1</title>
<polygon fill="#bfbfbf" stroke="black" points="392,-125 392,-177 558,-177 558,-125 392,-125"/>
<text text-anchor="start" x="400" y="-165" font-family="Helvetica,sans-Serif" font-size="10.00">/home/travis/build</text>
<text text-anchor="start" x="400" y="-154" font-family="Helvetica,sans-Serif" font-size="10.00">/AliceO2Group/AliceO2</text>
<text text-anchor="start" x="400" y="-143" font-family="Helvetica,sans-Serif" font-size="10.00">/Framework/Core/include</text>
<text text-anchor="middle" x="475" y="-132" font-family="Helvetica,sans-Serif" font-size="10.00">/Framework/TMessageSerializer.h</text>
</g>
<!-- Node2 -->
<g id="node2" class="node"><title>Node2</title>
<polygon fill="none" stroke="#bfbfbf" points="-0.5,-68.5 -0.5,-87.5 126.5,-87.5 126.5,-68.5 -0.5,-68.5"/>
<text text-anchor="middle" x="63" y="-75.5" font-family="Helvetica,sans-Serif" font-size="10.00">fairmq/FairMQMessage.h</text>
</g>
<!-- Node1&#45;&gt;Node2 -->
<g id="edge1" class="edge"><title>Node1&#45;&gt;Node2</title>
<path fill="none" stroke="midnightblue" d="M391.626,-135.632C311.73,-121.864 193.143,-101.428 122.408,-89.2378"/>
<polygon fill="midnightblue" stroke="midnightblue" points="122.778,-85.7501 112.329,-87.5009 121.589,-92.6484 122.778,-85.7501"/>
</g>
<!-- Node3 -->
<g id="node3" class="node"><title>Node3</title>
<polygon fill="none" stroke="#bfbfbf" points="144.5,-68.5 144.5,-87.5 191.5,-87.5 191.5,-68.5 144.5,-68.5"/>
<text text-anchor="middle" x="168" y="-75.5" font-family="Helvetica,sans-Serif" font-size="10.00">TList.h</text>
</g>
<!-- Node1&#45;&gt;Node3 -->
<g id="edge2" class="edge"><title>Node1&#45;&gt;Node3</title>
<path fill="none" stroke="midnightblue" d="M391.741,-132.152C339.765,-120.776 271.249,-105.361 201.595,-88.0661"/>
<polygon fill="midnightblue" stroke="midnightblue" points="202.31,-84.6373 191.761,-85.6134 200.616,-91.4293 202.31,-84.6373"/>
</g>
<!-- Node4 -->
<g id="node4" class="node"><title>Node4</title>
<polygon fill="none" stroke="#bfbfbf" points="209.5,-68.5 209.5,-87.5 280.5,-87.5 280.5,-68.5 209.5,-68.5"/>
<text text-anchor="middle" x="245" y="-75.5" font-family="Helvetica,sans-Serif" font-size="10.00">TMessage.h</text>
</g>
<!-- Node1&#45;&gt;Node4 -->
<g id="edge3" class="edge"><title>Node1&#45;&gt;Node4</title>
<path fill="none" stroke="midnightblue" d="M393.911,-124.968C355.914,-113.239 312.493,-99.8349 282.384,-90.5403"/>
<polygon fill="midnightblue" stroke="midnightblue" points="283.298,-87.1595 272.71,-87.5541 281.233,-93.848 283.298,-87.1595"/>
</g>
<!-- Node5 -->
<g id="node5" class="node"><title>Node5</title>
<polygon fill="none" stroke="#bfbfbf" points="298.5,-68.5 298.5,-87.5 367.5,-87.5 367.5,-68.5 298.5,-68.5"/>
<text text-anchor="middle" x="333" y="-75.5" font-family="Helvetica,sans-Serif" font-size="10.00">TObjArray.h</text>
</g>
<!-- Node1&#45;&gt;Node5 -->
<g id="edge4" class="edge"><title>Node1&#45;&gt;Node5</title>
<path fill="none" stroke="midnightblue" d="M424.936,-124.968C402.769,-113.885 377.612,-101.306 359.225,-92.1123"/>
<polygon fill="midnightblue" stroke="midnightblue" points="360.787,-88.9806 350.278,-87.6389 357.657,-95.2416 360.787,-88.9806"/>
</g>
<!-- Node6 -->
<g id="node6" class="node"><title>Node6</title>
<polygon fill="none" stroke="#bfbfbf" points="385.5,-68.5 385.5,-87.5 472.5,-87.5 472.5,-68.5 385.5,-68.5"/>
<text text-anchor="middle" x="429" y="-75.5" font-family="Helvetica,sans-Serif" font-size="10.00">TStreamerInfo.h</text>
</g>
<!-- Node1&#45;&gt;Node6 -->
<g id="edge5" class="edge"><title>Node1&#45;&gt;Node6</title>
<path fill="none" stroke="midnightblue" d="M458.653,-124.768C452.508,-115.284 445.671,-104.731 440.111,-96.15"/>
<polygon fill="midnightblue" stroke="midnightblue" points="443.048,-94.2466 434.674,-87.7572 437.174,-98.0528 443.048,-94.2466"/>
</g>
<!-- Node7 -->
<g id="node7" class="node"><title>Node7</title>
<polygon fill="none" stroke="#bfbfbf" points="490.5,-68.5 490.5,-87.5 553.5,-87.5 553.5,-68.5 490.5,-68.5"/>
<text text-anchor="middle" x="522" y="-75.5" font-family="Helvetica,sans-Serif" font-size="10.00">gsl/gsl_util</text>
</g>
<!-- Node1&#45;&gt;Node7 -->
<g id="edge6" class="edge"><title>Node1&#45;&gt;Node7</title>
<path fill="none" stroke="midnightblue" d="M491.703,-124.768C497.981,-115.284 504.967,-104.731 510.647,-96.15"/>
<polygon fill="midnightblue" stroke="midnightblue" points="513.602,-98.0277 516.203,-87.7572 507.765,-94.1637 513.602,-98.0277"/>
</g>
<!-- Node8 -->
<g id="node8" class="node"><title>Node8</title>
<polygon fill="none" stroke="#bfbfbf" points="571.5,-68.5 571.5,-87.5 624.5,-87.5 624.5,-68.5 571.5,-68.5"/>
<text text-anchor="middle" x="598" y="-75.5" font-family="Helvetica,sans-Serif" font-size="10.00">gsl/span</text>
</g>
<!-- Node1&#45;&gt;Node8 -->
<g id="edge7" class="edge"><title>Node1&#45;&gt;Node8</title>
<path fill="none" stroke="midnightblue" d="M518.365,-124.968C537.038,-114.19 558.159,-101.997 573.956,-92.879"/>
<polygon fill="midnightblue" stroke="midnightblue" points="576.123,-95.6694 583.034,-87.6389 572.624,-89.6069 576.123,-95.6694"/>
</g>
<!-- Node9 -->
<g id="node9" class="node"><title>Node9</title>
<polygon fill="none" stroke="#bfbfbf" points="643,-68.5 643,-87.5 695,-87.5 695,-68.5 643,-68.5"/>
<text text-anchor="middle" x="669" y="-75.5" font-family="Helvetica,sans-Serif" font-size="10.00">memory</text>
</g>
<!-- Node1&#45;&gt;Node9 -->
<g id="edge8" class="edge"><title>Node1&#45;&gt;Node9</title>
<path fill="none" stroke="midnightblue" d="M543.397,-124.968C574.793,-113.478 610.579,-100.381 635.9,-91.1141"/>
<polygon fill="midnightblue" stroke="midnightblue" points="637.207,-94.3626 645.395,-87.6389 634.801,-87.789 637.207,-94.3626"/>
</g>
<!-- Node10 -->
<g id="node10" class="node"><title>Node10</title>
<polygon fill="none" stroke="#bfbfbf" points="713,-68.5 713,-87.5 757,-87.5 757,-68.5 713,-68.5"/>
<text text-anchor="middle" x="735" y="-75.5" font-family="Helvetica,sans-Serif" font-size="10.00">mutex</text>
</g>
<!-- Node1&#45;&gt;Node10 -->
<g id="edge9" class="edge"><title>Node1&#45;&gt;Node10</title>
<path fill="none" stroke="midnightblue" d="M558.045,-127.905C599.099,-116.89 649.616,-103.198 703.297,-88.1632"/>
<polygon fill="midnightblue" stroke="midnightblue" points="704.316,-91.5124 712.999,-85.4409 702.425,-84.7727 704.316,-91.5124"/>
</g>
<!-- Node11 -->
<g id="node11" class="node"><title>Node11</title>
<g id="a_node11"><a xlink:href="../../dc/d03/MemoryResources_8h.html" target="_top" xlink:title="MemoryResources/MemoryResources.h">
<polygon fill="none" stroke="black" points="775.5,-68.5 775.5,-87.5 968.5,-87.5 968.5,-68.5 775.5,-68.5"/>
<text text-anchor="middle" x="872" y="-75.5" font-family="Helvetica,sans-Serif" font-size="10.00">MemoryResources/MemoryResources.h</text>
</a>
</g>
</g>
<!-- Node1&#45;&gt;Node11 -->
<g id="edge10" class="edge"><title>Node1&#45;&gt;Node11</title>
<path fill="none" stroke="midnightblue" d="M558.224,-135.116C634.999,-121.386 746.983,-101.358 814.341,-89.3117"/>
<polygon fill="midnightblue" stroke="midnightblue" points="815.124,-92.7274 824.351,-87.5215 813.891,-85.8368 815.124,-92.7274"/>
</g>
<!-- Node12 -->
<g id="node12" class="node"><title>Node12</title>
<polygon fill="none" stroke="#bfbfbf" points="104,-1 104,-31 204,-31 204,-1 104,-1"/>
<text text-anchor="start" x="112" y="-19" font-family="Helvetica,sans-Serif" font-size="10.00">boost/container/flat</text>
<text text-anchor="middle" x="154" y="-8" font-family="Helvetica,sans-Serif" font-size="10.00">_map.hpp</text>
</g>
<!-- Node11&#45;&gt;Node12 -->
<g id="edge11" class="edge"><title>Node11&#45;&gt;Node12</title>
<path fill="none" stroke="midnightblue" d="M775.476,-68.7972C771.94,-68.5234 768.439,-68.2568 765,-68 523.18,-49.9462 457.613,-69.8912 214.303,-32.0085"/>
<polygon fill="midnightblue" stroke="midnightblue" points="214.504,-28.4971 204.082,-30.3996 213.416,-35.412 214.504,-28.4971"/>
</g>
<!-- Node13 -->
<g id="node13" class="node"><title>Node13</title>
<polygon fill="none" stroke="#bfbfbf" points="222,-1 222,-31 338,-31 338,-1 222,-1"/>
<text text-anchor="start" x="230" y="-19" font-family="Helvetica,sans-Serif" font-size="10.00">boost/container/pmr</text>
<text text-anchor="middle" x="280" y="-8" font-family="Helvetica,sans-Serif" font-size="10.00">/memory_resource.hpp</text>
</g>
<!-- Node11&#45;&gt;Node13 -->
<g id="edge12" class="edge"><title>Node11&#45;&gt;Node13</title>
<path fill="none" stroke="midnightblue" d="M775.371,-68.7992C638.962,-57.2122 401.313,-36.9844 348.176,-31.6328"/>
<polygon fill="midnightblue" stroke="midnightblue" points="348.342,-28.1295 338.014,-30.4903 347.56,-35.0857 348.342,-28.1295"/>
</g>
<!-- Node14 -->
<g id="node14" class="node"><title>Node14</title>
<polygon fill="none" stroke="#bfbfbf" points="356,-1 356,-31 512,-31 512,-1 356,-1"/>
<text text-anchor="start" x="364" y="-19" font-family="Helvetica,sans-Serif" font-size="10.00">boost/container/pmr</text>
<text text-anchor="middle" x="434" y="-8" font-family="Helvetica,sans-Serif" font-size="10.00">/monotonic_buffer_resource.hpp</text>
</g>
<!-- Node11&#45;&gt;Node14 -->
<g id="edge13" class="edge"><title>Node11&#45;&gt;Node14</title>
<path fill="none" stroke="midnightblue" d="M798.811,-68.4749C730.202,-60.2811 624.511,-47.1426 522.374,-32.0153"/>
<polygon fill="midnightblue" stroke="midnightblue" points="522.59,-28.509 512.183,-30.4976 521.559,-35.4327 522.59,-28.509"/>
</g>
<!-- Node15 -->
<g id="node15" class="node"><title>Node15</title>
<polygon fill="none" stroke="#bfbfbf" points="530.5,-1 530.5,-31 663.5,-31 663.5,-1 530.5,-1"/>
<text text-anchor="start" x="538.5" y="-19" font-family="Helvetica,sans-Serif" font-size="10.00">boost/container/pmr</text>
<text text-anchor="middle" x="597" y="-8" font-family="Helvetica,sans-Serif" font-size="10.00">/polymorphic_allocator.hpp</text>
</g>
<!-- Node11&#45;&gt;Node15 -->
<g id="edge14" class="edge"><title>Node11&#45;&gt;Node15</title>
<path fill="none" stroke="midnightblue" d="M832.891,-68.4672C790.96,-59.3184 723.391,-44.5763 671.295,-33.2097"/>
<polygon fill="midnightblue" stroke="midnightblue" points="671.942,-29.7687 661.426,-31.0565 670.45,-36.6078 671.942,-29.7687"/>
</g>
<!-- Node16 -->
<g id="node16" class="node"><title>Node16</title>
<polygon fill="none" stroke="#bfbfbf" points="682,-6.5 682,-25.5 728,-25.5 728,-6.5 682,-6.5"/>
<text text-anchor="middle" x="705" y="-13.5" font-family="Helvetica,sans-Serif" font-size="10.00">cstring</text>
</g>
<!-- Node11&#45;&gt;Node16 -->
<g id="edge15" class="edge"><title>Node11&#45;&gt;Node16</title>
<path fill="none" stroke="midnightblue" d="M843.724,-68.4331C816.394,-59.9359 773.961,-46.1681 738,-32 736.156,-31.2733 734.265,-30.4984 732.369,-29.6981"/>
<polygon fill="midnightblue" stroke="midnightblue" points="733.575,-26.4054 723.012,-25.5907 730.762,-32.8151 733.575,-26.4054"/>
</g>
<!-- Node17 -->
<g id="node17" class="node"><title>Node17</title>
<polygon fill="none" stroke="#bfbfbf" points="746.5,-6.5 746.5,-25.5 787.5,-25.5 787.5,-6.5 746.5,-6.5"/>
<text text-anchor="middle" x="767" y="-13.5" font-family="Helvetica,sans-Serif" font-size="10.00">string</text>
</g>
<!-- Node11&#45;&gt;Node17 -->
<g id="edge16" class="edge"><title>Node11&#45;&gt;Node17</title>
<path fill="none" stroke="midnightblue" d="M856.956,-68.4035C839.725,-58.5569 811.26,-42.2915 790.966,-30.6949"/>
<polygon fill="midnightblue" stroke="midnightblue" points="792.435,-27.5032 782.016,-25.5806 788.962,-33.5809 792.435,-27.5032"/>
</g>
<!-- Node18 -->
<g id="node18" class="node"><title>Node18</title>
<polygon fill="none" stroke="#bfbfbf" points="806,-6.5 806,-25.5 868,-25.5 868,-6.5 806,-6.5"/>
<text text-anchor="middle" x="837" y="-13.5" font-family="Helvetica,sans-Serif" font-size="10.00">type_traits</text>
</g>
<!-- Node11&#45;&gt;Node18 -->
<g id="edge17" class="edge"><title>Node11&#45;&gt;Node18</title>
<path fill="none" stroke="midnightblue" d="M866.985,-68.4035C861.839,-59.5816 853.688,-45.6075 847.182,-34.4548"/>
<polygon fill="midnightblue" stroke="midnightblue" points="850.067,-32.4548 842.005,-25.5806 844.021,-35.982 850.067,-32.4548"/>
</g>
<!-- Node19 -->
<g id="node19" class="node"><title>Node19</title>
<polygon fill="none" stroke="#bfbfbf" points="886,-6.5 886,-25.5 926,-25.5 926,-6.5 886,-6.5"/>
<text text-anchor="middle" x="906" y="-13.5" font-family="Helvetica,sans-Serif" font-size="10.00">utility</text>
</g>
<!-- Node11&#45;&gt;Node19 -->
<g id="edge18" class="edge"><title>Node11&#45;&gt;Node19</title>
<path fill="none" stroke="midnightblue" d="M876.871,-68.4035C881.87,-59.5816 889.789,-45.6075 896.109,-34.4548"/>
<polygon fill="midnightblue" stroke="midnightblue" points="899.253,-36.0064 901.138,-25.5806 893.162,-32.5553 899.253,-36.0064"/>
</g>
<!-- Node20 -->
<g id="node20" class="node"><title>Node20</title>
<polygon fill="none" stroke="#bfbfbf" points="944,-6.5 944,-25.5 988,-25.5 988,-6.5 944,-6.5"/>
<text text-anchor="middle" x="966" y="-13.5" font-family="Helvetica,sans-Serif" font-size="10.00">vector</text>
</g>
<!-- Node11&#45;&gt;Node20 -->
<g id="edge19" class="edge"><title>Node11&#45;&gt;Node20</title>
<path fill="none" stroke="midnightblue" d="M885.468,-68.4035C900.685,-58.6905 925.687,-42.7319 943.801,-31.1697"/>
<polygon fill="midnightblue" stroke="midnightblue" points="946.011,-33.9112 952.557,-25.5806 942.245,-28.0108 946.011,-33.9112"/>
</g>
<!-- Node21 -->
<g id="node21" class="node"><title>Node21</title>
<polygon fill="none" stroke="#bfbfbf" points="1006.5,-6.5 1006.5,-25.5 1089.5,-25.5 1089.5,-6.5 1006.5,-6.5"/>
<text text-anchor="middle" x="1048" y="-13.5" font-family="Helvetica,sans-Serif" font-size="10.00">unordered_map</text>
</g>
<!-- Node11&#45;&gt;Node21 -->
<g id="edge20" class="edge"><title>Node11&#45;&gt;Node21</title>
<path fill="none" stroke="midnightblue" d="M897.217,-68.4035C927.668,-58.0222 979.049,-40.5062 1013.24,-28.849"/>
<polygon fill="midnightblue" stroke="midnightblue" points="1014.49,-32.1202 1022.83,-25.5806 1012.24,-25.4946 1014.49,-32.1202"/>
</g>
<!-- Node22 -->
<g id="node22" class="node"><title>Node22</title>
<polygon fill="none" stroke="#bfbfbf" points="1107.5,-6.5 1107.5,-25.5 1204.5,-25.5 1204.5,-6.5 1107.5,-6.5"/>
<text text-anchor="middle" x="1156" y="-13.5" font-family="Helvetica,sans-Serif" font-size="10.00">FairMQMessage.h</text>
</g>
<!-- Node11&#45;&gt;Node22 -->
<g id="edge21" class="edge"><title>Node11&#45;&gt;Node22</title>
<path fill="none" stroke="midnightblue" d="M918.911,-68.4602C964.735,-59.9297 1036.38,-46.0909 1098,-32 1103.32,-30.7828 1108.9,-29.4339 1114.41,-28.0587"/>
<polygon fill="midnightblue" stroke="midnightblue" points="1115.34,-31.4332 1124.17,-25.5774 1113.62,-24.6489 1115.34,-31.4332"/>
</g>
<!-- Node23 -->
<g id="node23" class="node"><title>Node23</title>
<polygon fill="none" stroke="#bfbfbf" points="1222.5,-6.5 1222.5,-25.5 1353.5,-25.5 1353.5,-6.5 1222.5,-6.5"/>
<text text-anchor="middle" x="1288" y="-13.5" font-family="Helvetica,sans-Serif" font-size="10.00">FairMQTransportFactory.h</text>
</g>
<!-- Node11&#45;&gt;Node23 -->
<g id="edge22" class="edge"><title>Node11&#45;&gt;Node23</title>
<path fill="none" stroke="midnightblue" d="M947.721,-68.4644C1016.96,-60.3135 1122.13,-47.0658 1213,-32 1221.1,-30.6566 1229.67,-29.0868 1238,-27.4783"/>
<polygon fill="midnightblue" stroke="midnightblue" points="1238.86,-30.8755 1248,-25.5098 1237.51,-24.0073 1238.86,-30.8755"/>
</g>
<!-- Node24 -->
<g id="node24" class="node"><title>Node24</title>
<polygon fill="none" stroke="#bfbfbf" points="1371.5,-6.5 1371.5,-25.5 1508.5,-25.5 1508.5,-6.5 1371.5,-6.5"/>
<text text-anchor="middle" x="1440" y="-13.5" font-family="Helvetica,sans-Serif" font-size="10.00">fairmq/MemoryResources.h</text>
</g>
<!-- Node11&#45;&gt;Node24 -->
<g id="edge23" class="edge"><title>Node11&#45;&gt;Node24</title>
<path fill="none" stroke="midnightblue" d="M968.556,-70.9495C1067.62,-64.0824 1226.03,-51.2693 1362,-32 1371.02,-30.7211 1380.59,-29.1027 1389.81,-27.4054"/>
<polygon fill="midnightblue" stroke="midnightblue" points="1390.47,-30.8432 1399.64,-25.545 1389.17,-23.9652 1390.47,-30.8432"/>
</g>
<!-- Node25 -->
<g id="node25" class="node"><title>Node25</title>
<polygon fill="none" stroke="#bfbfbf" points="1527,-6.5 1527,-25.5 1683,-25.5 1683,-6.5 1527,-6.5"/>
<text text-anchor="middle" x="1605" y="-13.5" font-family="Helvetica,sans-Serif" font-size="10.00">fairmq/MemoryResourceTools.h</text>
</g>
<!-- Node11&#45;&gt;Node25 -->
<g id="edge24" class="edge"><title>Node11&#45;&gt;Node25</title>
<path fill="none" stroke="midnightblue" d="M968.717,-73.2465C1095.12,-67.656 1323.21,-55.2184 1517,-32 1527.61,-30.7286 1538.89,-29.0537 1549.71,-27.2849"/>
<polygon fill="midnightblue" stroke="midnightblue" points="1550.62,-30.6806 1559.9,-25.5705 1549.46,-23.7775 1550.62,-30.6806"/>
</g>
</g>
</svg>
