<?xml version="1.0" encoding="UTF-8" standalone="no"?>
<!DOCTYPE svg PUBLIC "-//W3C//DTD SVG 1.1//EN"
 "http://www.w3.org/Graphics/SVG/1.1/DTD/svg11.dtd">
<!-- Generated by graphviz version 2.36.0 (20140111.2315)
 -->
<!-- Title: /home/travis/build/AliceO2Group/AliceO2/Framework/Core/include/Framework/DataSamplingPolicy.h Pages: 1 -->
<!--zoomable 378 -->
<svg id="main" version="1.1" xmlns="http://www.w3.org/2000/svg" xmlns:xlink="http://www.w3.org/1999/xlink" xml:space="preserve" onload="init(evt)">
<style type="text/css"><![CDATA[
.edge:hover path { stroke: red; }
.edge:hover polygon { stroke: red; fill: red; }
]]></style>
<script type="text/javascript"><![CDATA[
var edges = document.getElementsByTagName('g');
if (edges && edges.length) {
  for (var i=0;i<edges.length;i++) {
    if (edges[i].id.substr(0,4)=='edge') {
      edges[i].setAttribute('class','edge');
    }
  }
}
]]></script>
        <defs>
                <circle id="rim" cx="0" cy="0" r="7"/>
                <circle id="rim2" cx="0" cy="0" r="3.5"/>
                <g id="zoomPlus">
                        <use xlink:href="#rim" fill="#404040">
                                <set attributeName="fill" to="#808080" begin="zoomplus.mouseover" end="zoomplus.mouseout"/>
                        </use>
                        <path d="M-4,0h8M0,-4v8" fill="none" stroke="white" stroke-width="1.5" pointer-events="none"/>
                </g>
                <g id="zoomMin">
                        <use xlink:href="#rim" fill="#404040">
                                <set attributeName="fill" to="#808080" begin="zoomminus.mouseover" end="zoomminus.mouseout"/>
                        </use>
                        <path d="M-4,0h8" fill="none" stroke="white" stroke-width="1.5" pointer-events="none"/>
                </g>
                <g id="dirArrow">
                        <path fill="none" stroke="white" stroke-width="1.5" d="M0,-3.0v7 M-2.5,-0.5L0,-3.0L2.5,-0.5"/>
                </g>
               <g id="resetDef">
                       <use xlink:href="#rim2" fill="#404040">
                               <set attributeName="fill" to="#808080" begin="reset.mouseover" end="reset.mouseout"/>
                       </use>
               </g>
        </defs>

<script type="text/javascript">
var viewWidth = 2185;
var viewHeight = 378;
var sectionId = 'dynsection-0';
</script>
<script xlink:href="../../svgpan.js"/>
<svg id="graph" class="graph">
<g id="viewport">
<title>/home/travis/build/AliceO2Group/AliceO2/Framework/Core/include/Framework/DataSamplingPolicy.h</title>
<!-- Node1 -->
<g id="node1" class="node"><title>Node1</title>
<polygon fill="#bfbfbf" stroke="black" points="810,-317 810,-369 978,-369 978,-317 810,-317"/>
<text text-anchor="start" x="818" y="-357" font-family="Helvetica,sans-Serif" font-size="10.00">/home/travis/build</text>
<text text-anchor="start" x="818" y="-346" font-family="Helvetica,sans-Serif" font-size="10.00">/AliceO2Group/AliceO2</text>
<text text-anchor="start" x="818" y="-335" font-family="Helvetica,sans-Serif" font-size="10.00">/Framework/Core/include</text>
<text text-anchor="middle" x="894" y="-324" font-family="Helvetica,sans-Serif" font-size="10.00">/Framework/DataSamplingPolicy.h</text>
</g>
<!-- Node2 -->
<g id="node2" class="node"><title>Node2</title>
<g id="a_node2"><a xlink:href="../../dc/dcd/DataHeader_8h.html" target="_top" xlink:title="Headers/DataHeader.h">
<polygon fill="none" stroke="black" points="396.5,-68.5 396.5,-87.5 513.5,-87.5 513.5,-68.5 396.5,-68.5"/>
<text text-anchor="middle" x="455" y="-75.5" font-family="Helvetica,sans-Serif" font-size="10.00">Headers/DataHeader.h</text>
</a>
</g>
</g>
<!-- Node1&#45;&gt;Node2 -->
<g id="edge1" class="edge"><title>Node1&#45;&gt;Node2</title>
<path fill="none" stroke="midnightblue" d="M907.316,-316.676C928.92,-271.686 964.56,-177.531 916,-124 890.184,-95.5411 645.956,-84.4936 523.834,-80.7221"/>
<polygon fill="midnightblue" stroke="midnightblue" points="523.933,-77.2235 513.832,-80.421 523.722,-84.2204 523.933,-77.2235"/>
</g>
<!-- Node11 -->
<g id="node11" class="node"><title>Node11</title>
<g id="a_node11"><a xlink:href="../../d5/d3f/InputSpec_8h.html" target="_top" xlink:title="Framework/InputSpec.h">
<polygon fill="none" stroke="black" points="336.5,-260.5 336.5,-279.5 457.5,-279.5 457.5,-260.5 336.5,-260.5"/>
<text text-anchor="middle" x="397" y="-267.5" font-family="Helvetica,sans-Serif" font-size="10.00">Framework/InputSpec.h</text>
</a>
</g>
</g>
<!-- Node1&#45;&gt;Node11 -->
<g id="edge10" class="edge"><title>Node1&#45;&gt;Node11</title>
<path fill="none" stroke="midnightblue" d="M809.972,-329.996C713.49,-316.213 556.973,-293.853 466.881,-280.983"/>
<polygon fill="midnightblue" stroke="midnightblue" points="467.162,-277.488 456.767,-279.538 466.172,-284.417 467.162,-277.488"/>
</g>
<!-- Node35 -->
<g id="node35" class="node"><title>Node35</title>
<g id="a_node35"><a xlink:href="../../d3/ddf/Output_8h.html" target="_top" xlink:title="Framework/Output.h">
<polygon fill="none" stroke="black" points="801,-260.5 801,-279.5 907,-279.5 907,-260.5 801,-260.5"/>
<text text-anchor="middle" x="854" y="-267.5" font-family="Helvetica,sans-Serif" font-size="10.00">Framework/Output.h</text>
</a>
</g>
</g>
<!-- Node1&#45;&gt;Node35 -->
<g id="edge49" class="edge"><title>Node1&#45;&gt;Node35</title>
<path fill="none" stroke="midnightblue" d="M879.785,-316.768C874.556,-307.486 868.749,-297.179 863.972,-288.7"/>
<polygon fill="midnightblue" stroke="midnightblue" points="866.891,-286.752 858.934,-279.757 860.793,-290.188 866.891,-286.752"/>
</g>
<!-- Node36 -->
<g id="node36" class="node"><title>Node36</title>
<g id="a_node36"><a xlink:href="../../db/d2d/OutputSpec_8h.html" target="_top" xlink:title="Framework/OutputSpec.h">
<polygon fill="none" stroke="black" points="655,-260.5 655,-279.5 783,-279.5 783,-260.5 655,-260.5"/>
<text text-anchor="middle" x="719" y="-267.5" font-family="Helvetica,sans-Serif" font-size="10.00">Framework/OutputSpec.h</text>
</a>
</g>
</g>
<!-- Node1&#45;&gt;Node36 -->
<g id="edge53" class="edge"><title>Node1&#45;&gt;Node36</title>
<path fill="none" stroke="midnightblue" d="M832.302,-316.968C804.357,-305.63 772.556,-292.728 749.773,-283.485"/>
<polygon fill="midnightblue" stroke="midnightblue" points="750.875,-280.155 740.293,-279.639 748.244,-286.642 750.875,-280.155"/>
</g>
<!-- Node37 -->
<g id="node37" class="node"><title>Node37</title>
<g id="a_node37"><a xlink:href="../../dd/dcf/DataSamplingCondition_8h.html" target="_top" xlink:title="A standarised data sampling condition, to decide if given data sample should be passed forward...">
<polygon fill="none" stroke="black" points="963.5,-260.5 963.5,-279.5 1142.5,-279.5 1142.5,-260.5 963.5,-260.5"/>
<text text-anchor="middle" x="1053" y="-267.5" font-family="Helvetica,sans-Serif" font-size="10.00">Framework/DataSamplingCondition.h</text>
</a>
</g>
</g>
<!-- Node1&#45;&gt;Node37 -->
<g id="edge56" class="edge"><title>Node1&#45;&gt;Node37</title>
<path fill="none" stroke="midnightblue" d="M950.057,-316.968C975.22,-305.732 1003.82,-292.96 1024.48,-283.735"/>
<polygon fill="midnightblue" stroke="midnightblue" points="1025.95,-286.912 1033.65,-279.639 1023.1,-280.52 1025.95,-286.912"/>
</g>
<!-- Node39 -->
<g id="node39" class="node"><title>Node39</title>
<polygon fill="none" stroke="#bfbfbf" points="1120.5,-193 1120.5,-223 1221.5,-223 1221.5,-193 1120.5,-193"/>
<text text-anchor="start" x="1128.5" y="-211" font-family="Helvetica,sans-Serif" font-size="10.00">boost/property_tree</text>
<text text-anchor="middle" x="1171" y="-200" font-family="Helvetica,sans-Serif" font-size="10.00">/ptree.hpp</text>
</g>
<!-- Node1&#45;&gt;Node39 -->
<g id="edge59" class="edge"><title>Node1&#45;&gt;Node39</title>
<path fill="none" stroke="midnightblue" d="M978.251,-330.99C1043.35,-320.829 1126.37,-303.717 1151,-280 1163.47,-267.992 1168.35,-248.867 1170.17,-233.49"/>
<polygon fill="midnightblue" stroke="midnightblue" points="1173.7,-233.365 1171.03,-223.111 1166.72,-232.79 1173.7,-233.365"/>
</g>
<!-- Node3 -->
<g id="node3" class="node"><title>Node3</title>
<polygon fill="none" stroke="#bfbfbf" points="89,-6.5 89,-25.5 135,-25.5 135,-6.5 89,-6.5"/>
<text text-anchor="middle" x="112" y="-13.5" font-family="Helvetica,sans-Serif" font-size="10.00">cstdint</text>
</g>
<!-- Node2&#45;&gt;Node3 -->
<g id="edge2" class="edge"><title>Node2&#45;&gt;Node3</title>
<path fill="none" stroke="midnightblue" d="M396.247,-73.4252C333.107,-68.4459 230.321,-57.0331 145,-32 142.656,-31.3123 140.265,-30.4884 137.894,-29.5853"/>
<polygon fill="midnightblue" stroke="midnightblue" points="139.01,-26.2571 128.437,-25.5738 136.276,-32.7012 139.01,-26.2571"/>
</g>
<!-- Node4 -->
<g id="node4" class="node"><title>Node4</title>
<polygon fill="none" stroke="#bfbfbf" points="154,-6.5 154,-25.5 206,-25.5 206,-6.5 154,-6.5"/>
<text text-anchor="middle" x="180" y="-13.5" font-family="Helvetica,sans-Serif" font-size="10.00">memory</text>
</g>
<!-- Node2&#45;&gt;Node4 -->
<g id="edge3" class="edge"><title>Node2&#45;&gt;Node4</title>
<path fill="none" stroke="midnightblue" d="M396.433,-69.6865C347.301,-62.684 275.637,-50.4335 215,-32 212.509,-31.2429 209.957,-30.3638 207.421,-29.4182"/>
<polygon fill="midnightblue" stroke="midnightblue" points="208.466,-26.0655 197.883,-25.5588 205.84,-32.5544 208.466,-26.0655"/>
</g>
<!-- Node5 -->
<g id="node5" class="node"><title>Node5</title>
<polygon fill="none" stroke="#bfbfbf" points="224.5,-6.5 224.5,-25.5 273.5,-25.5 273.5,-6.5 224.5,-6.5"/>
<text text-anchor="middle" x="249" y="-13.5" font-family="Helvetica,sans-Serif" font-size="10.00">cassert</text>
</g>
<!-- Node2&#45;&gt;Node5 -->
<g id="edge4" class="edge"><title>Node2&#45;&gt;Node5</title>
<path fill="none" stroke="midnightblue" d="M414.207,-68.4769C378.769,-60.5809 326.317,-47.7039 282,-32 279.879,-31.2485 277.707,-30.4144 275.54,-29.5354"/>
<polygon fill="midnightblue" stroke="midnightblue" points="276.806,-26.2697 266.238,-25.5113 274.027,-32.6943 276.806,-26.2697"/>
</g>
<!-- Node6 -->
<g id="node6" class="node"><title>Node6</title>
<polygon fill="none" stroke="#bfbfbf" points="658,-6.5 658,-25.5 704,-25.5 704,-6.5 658,-6.5"/>
<text text-anchor="middle" x="681" y="-13.5" font-family="Helvetica,sans-Serif" font-size="10.00">cstring</text>
</g>
<!-- Node2&#45;&gt;Node6 -->
<g id="edge5" class="edge"><title>Node2&#45;&gt;Node6</title>
<path fill="none" stroke="midnightblue" d="M503.327,-68.4853C542.818,-60.875 599.792,-48.3967 648,-32 650.13,-31.2755 652.309,-30.4609 654.481,-29.5954"/>
<polygon fill="midnightblue" stroke="midnightblue" points="655.984,-32.7591 663.791,-25.5972 653.222,-26.327 655.984,-32.7591"/>
</g>
<!-- Node7 -->
<g id="node7" class="node"><title>Node7</title>
<polygon fill="none" stroke="#bfbfbf" points="351,-6.5 351,-25.5 407,-25.5 407,-6.5 351,-6.5"/>
<text text-anchor="middle" x="379" y="-13.5" font-family="Helvetica,sans-Serif" font-size="10.00">algorithm</text>
</g>
<!-- Node2&#45;&gt;Node7 -->
<g id="edge6" class="edge"><title>Node2&#45;&gt;Node7</title>
<path fill="none" stroke="midnightblue" d="M444.111,-68.4035C432.034,-58.8688 412.333,-43.3154 397.76,-31.8106"/>
<polygon fill="midnightblue" stroke="midnightblue" points="399.886,-29.03 389.869,-25.5806 395.549,-34.5242 399.886,-29.03"/>
</g>
<!-- Node8 -->
<g id="node8" class="node"><title>Node8</title>
<polygon fill="none" stroke="#bfbfbf" points="425.5,-6.5 425.5,-25.5 484.5,-25.5 484.5,-6.5 425.5,-6.5"/>
<text text-anchor="middle" x="455" y="-13.5" font-family="Helvetica,sans-Serif" font-size="10.00">stdexcept</text>
</g>
<!-- Node2&#45;&gt;Node8 -->
<g id="edge7" class="edge"><title>Node2&#45;&gt;Node8</title>
<path fill="none" stroke="midnightblue" d="M455,-68.4035C455,-59.9381 455,-46.7283 455,-35.8199"/>
<polygon fill="midnightblue" stroke="midnightblue" points="458.5,-35.5806 455,-25.5806 451.5,-35.5806 458.5,-35.5806"/>
</g>
<!-- Node9 -->
<g id="node9" class="node"><title>Node9</title>
<polygon fill="none" stroke="#bfbfbf" points="291.5,-6.5 291.5,-25.5 332.5,-25.5 332.5,-6.5 291.5,-6.5"/>
<text text-anchor="middle" x="312" y="-13.5" font-family="Helvetica,sans-Serif" font-size="10.00">string</text>
</g>
<!-- Node2&#45;&gt;Node9 -->
<g id="edge8" class="edge"><title>Node2&#45;&gt;Node9</title>
<path fill="none" stroke="midnightblue" d="M431.821,-68.428C408.809,-59.7645 372.639,-45.7309 342,-32 340.605,-31.3749 339.181,-30.7202 337.748,-30.0487"/>
<polygon fill="midnightblue" stroke="midnightblue" points="338.91,-26.7222 328.385,-25.5059 335.854,-33.0201 338.91,-26.7222"/>
</g>
<!-- Node10 -->
<g id="node10" class="node"><title>Node10</title>
<g id="a_node10"><a xlink:href="../../d7/df8/Types_8h.html" target="_top" xlink:title="MemoryResources/Types.h">
<polygon fill="none" stroke="black" points="502.5,-6.5 502.5,-25.5 639.5,-25.5 639.5,-6.5 502.5,-6.5"/>
<text text-anchor="middle" x="571" y="-13.5" font-family="Helvetica,sans-Serif" font-size="10.00">MemoryResources/Types.h</text>
</a>
</g>
</g>
<!-- Node2&#45;&gt;Node10 -->
<g id="edge9" class="edge"><title>Node2&#45;&gt;Node10</title>
<path fill="none" stroke="midnightblue" d="M471.62,-68.4035C490.915,-58.4232 522.959,-41.8487 545.431,-30.2253"/>
<polygon fill="midnightblue" stroke="midnightblue" points="547.137,-33.2836 554.411,-25.5806 543.921,-27.0661 547.137,-33.2836"/>
</g>
<!-- Node11&#45;&gt;Node9 -->
<g id="edge46" class="edge"><title>Node11&#45;&gt;Node9</title>
<path fill="none" stroke="midnightblue" d="M369.623,-260.398C352.498,-253.471 331.719,-241.889 321,-224 284.652,-163.339 298.823,-73.7705 307.357,-35.4675"/>
<polygon fill="midnightblue" stroke="midnightblue" points="310.771,-36.2372 309.666,-25.7003 303.959,-34.6271 310.771,-36.2372"/>
</g>
<!-- Node12 -->
<g id="node12" class="node"><title>Node12</title>
<g id="a_node12"><a xlink:href="../../dc/dca/Lifetime_8h.html" target="_top" xlink:title="Framework/Lifetime.h">
<polygon fill="none" stroke="black" points="684.5,-198.5 684.5,-217.5 795.5,-217.5 795.5,-198.5 684.5,-198.5"/>
<text text-anchor="middle" x="740" y="-205.5" font-family="Helvetica,sans-Serif" font-size="10.00">Framework/Lifetime.h</text>
</a>
</g>
</g>
<!-- Node11&#45;&gt;Node12 -->
<g id="edge11" class="edge"><title>Node11&#45;&gt;Node12</title>
<path fill="none" stroke="midnightblue" d="M445.779,-260.467C507.88,-249.604 615.063,-230.855 681.492,-219.235"/>
<polygon fill="midnightblue" stroke="midnightblue" points="682.142,-222.674 691.389,-217.503 680.935,-215.779 682.142,-222.674"/>
</g>
<!-- Node13 -->
<g id="node13" class="node"><title>Node13</title>
<g id="a_node13"><a xlink:href="../../d0/d1b/ConcreteDataMatcher_8h.html" target="_top" xlink:title="Framework/ConcreteDataMatcher.h">
<polygon fill="none" stroke="black" points="511.5,-130.5 511.5,-149.5 684.5,-149.5 684.5,-130.5 511.5,-130.5"/>
<text text-anchor="middle" x="598" y="-137.5" font-family="Helvetica,sans-Serif" font-size="10.00">Framework/ConcreteDataMatcher.h</text>
</a>
</g>
</g>
<!-- Node11&#45;&gt;Node13 -->
<g id="edge12" class="edge"><title>Node11&#45;&gt;Node13</title>
<path fill="none" stroke="midnightblue" d="M411.991,-260.429C427.42,-251.537 452.088,-237.122 473,-224 509.98,-200.796 552.113,-172.402 576.803,-155.558"/>
<polygon fill="midnightblue" stroke="midnightblue" points="579.087,-158.237 585.365,-149.703 575.135,-152.459 579.087,-158.237"/>
</g>
<!-- Node14 -->
<g id="node14" class="node"><title>Node14</title>
<g id="a_node14"><a xlink:href="../../d3/da3/DataDescriptorMatcher_8h.html" target="_top" xlink:title="Framework/DataDescriptor\lMatcher.h">
<polygon fill="none" stroke="black" points="330,-193 330,-223 464,-223 464,-193 330,-193"/>
<text text-anchor="start" x="338" y="-211" font-family="Helvetica,sans-Serif" font-size="10.00">Framework/DataDescriptor</text>
<text text-anchor="middle" x="397" y="-200" font-family="Helvetica,sans-Serif" font-size="10.00">Matcher.h</text>
</a>
</g>
</g>
<!-- Node11&#45;&gt;Node14 -->
<g id="edge14" class="edge"><title>Node11&#45;&gt;Node14</title>
<path fill="none" stroke="midnightblue" d="M397,-260.403C397,-253.341 397,-242.975 397,-233.399"/>
<polygon fill="midnightblue" stroke="midnightblue" points="400.5,-233.141 397,-223.141 393.5,-233.141 400.5,-233.141"/>
</g>
<!-- Node33 -->
<g id="node33" class="node"><title>Node33</title>
<polygon fill="none" stroke="#bfbfbf" points="0,-130.5 0,-149.5 46,-149.5 46,-130.5 0,-130.5"/>
<text text-anchor="middle" x="23" y="-137.5" font-family="Helvetica,sans-Serif" font-size="10.00">variant</text>
</g>
<!-- Node11&#45;&gt;Node33 -->
<g id="edge48" class="edge"><title>Node11&#45;&gt;Node33</title>
<path fill="none" stroke="midnightblue" d="M345.279,-260.432C304.82,-252.971 247.489,-240.721 199,-224 142.899,-204.654 80.9213,-172.778 47.546,-154.677"/>
<polygon fill="midnightblue" stroke="midnightblue" points="48.9843,-151.474 38.5316,-149.744 45.6241,-157.615 48.9843,-151.474"/>
</g>
<!-- Node34 -->
<g id="node34" class="node"><title>Node34</title>
<polygon fill="none" stroke="#bfbfbf" points="208,-198.5 208,-217.5 260,-217.5 260,-198.5 208,-198.5"/>
<text text-anchor="middle" x="234" y="-205.5" font-family="Helvetica,sans-Serif" font-size="10.00">ostream</text>
</g>
<!-- Node11&#45;&gt;Node34 -->
<g id="edge47" class="edge"><title>Node11&#45;&gt;Node34</title>
<path fill="none" stroke="midnightblue" d="M373.399,-260.429C348.623,-251.417 308.543,-236.795 274,-224 271.479,-223.066 268.87,-222.096 266.248,-221.119"/>
<polygon fill="midnightblue" stroke="midnightblue" points="267.426,-217.822 256.833,-217.599 264.974,-224.379 267.426,-217.822"/>
</g>
<!-- Node13&#45;&gt;Node2 -->
<g id="edge13" class="edge"><title>Node13&#45;&gt;Node2</title>
<path fill="none" stroke="midnightblue" d="M577.512,-130.403C553.194,-120.2 512.451,-103.105 484.683,-91.4544"/>
<polygon fill="midnightblue" stroke="midnightblue" points="486.026,-88.2223 475.45,-87.5806 483.317,-94.6771 486.026,-88.2223"/>
</g>
<!-- Node14&#45;&gt;Node2 -->
<g id="edge22" class="edge"><title>Node14&#45;&gt;Node2</title>
<path fill="none" stroke="midnightblue" d="M389.388,-192.854C381.202,-175.547 370.886,-145.856 383,-124 391.089,-109.405 406.103,-98.9185 420.336,-91.7608"/>
<polygon fill="midnightblue" stroke="midnightblue" points="421.886,-94.9002 429.496,-87.5282 418.95,-88.5459 421.886,-94.9002"/>
</g>
<!-- Node14&#45;&gt;Node3 -->
<g id="edge41" class="edge"><title>Node14&#45;&gt;Node3</title>
<path fill="none" stroke="midnightblue" d="M329.818,-199.451C250.31,-189.833 126.879,-172.473 113,-156 84.321,-121.962 96.447,-64.8203 105.468,-35.5334"/>
<polygon fill="midnightblue" stroke="midnightblue" points="108.876,-36.3721 108.681,-25.779 102.228,-34.1817 108.876,-36.3721"/>
</g>
<!-- Node14&#45;&gt;Node9 -->
<g id="edge43" class="edge"><title>Node14&#45;&gt;Node9</title>
<path fill="none" stroke="midnightblue" d="M390.54,-192.718C385.922,-182.497 379.565,-168.407 374,-156 354.526,-112.58 331.768,-61.46 319.984,-34.9624"/>
<polygon fill="midnightblue" stroke="midnightblue" points="323.165,-33.5032 315.905,-25.7875 316.769,-36.347 323.165,-33.5032"/>
</g>
<!-- Node14&#45;&gt;Node13 -->
<g id="edge15" class="edge"><title>Node14&#45;&gt;Node13</title>
<path fill="none" stroke="midnightblue" d="M440.12,-192.841C476.551,-180.879 528.11,-163.949 562.272,-152.731"/>
<polygon fill="midnightblue" stroke="midnightblue" points="563.44,-156.032 571.849,-149.587 561.256,-149.381 563.44,-156.032"/>
</g>
<!-- Node15 -->
<g id="node15" class="node"><title>Node15</title>
<g id="a_node15"><a xlink:href="../../d6/dc9/DataProcessingHeader_8h.html" target="_top" xlink:title="Framework/DataProcessing\lHeader.h">
<polygon fill="none" stroke="black" points="122,-125 122,-155 260,-155 260,-125 122,-125"/>
<text text-anchor="start" x="130" y="-143" font-family="Helvetica,sans-Serif" font-size="10.00">Framework/DataProcessing</text>
<text text-anchor="middle" x="191" y="-132" font-family="Helvetica,sans-Serif" font-size="10.00">Header.h</text>
</a>
</g>
</g>
<!-- Node14&#45;&gt;Node15 -->
<g id="edge16" class="edge"><title>Node14&#45;&gt;Node15</title>
<path fill="none" stroke="midnightblue" d="M353.061,-192.922C321.334,-182.757 278.316,-168.975 244.573,-158.164"/>
<polygon fill="midnightblue" stroke="midnightblue" points="245.463,-154.774 234.872,-155.056 243.327,-161.44 245.463,-154.774"/>
</g>
<!-- Node17 -->
<g id="node17" class="node"><title>Node17</title>
<g id="a_node17"><a xlink:href="../../d4/d00/Headers_2include_2Headers_2Stack_8h.html" target="_top" xlink:title="Headers/Stack.h">
<polygon fill="none" stroke="black" points="817,-130.5 817,-149.5 907,-149.5 907,-130.5 817,-130.5"/>
<text text-anchor="middle" x="862" y="-137.5" font-family="Helvetica,sans-Serif" font-size="10.00">Headers/Stack.h</text>
</a>
</g>
</g>
<!-- Node14&#45;&gt;Node17 -->
<g id="edge23" class="edge"><title>Node14&#45;&gt;Node17</title>
<path fill="none" stroke="midnightblue" d="M464.118,-197.474C556.563,-184.352 721.331,-160.966 806.94,-148.815"/>
<polygon fill="midnightblue" stroke="midnightblue" points="807.569,-152.261 816.978,-147.39 806.585,-145.33 807.569,-152.261"/>
</g>
<!-- Node25 -->
<g id="node25" class="node"><title>Node25</title>
<polygon fill="none" stroke="#bfbfbf" points="722,-6.5 722,-25.5 766,-25.5 766,-6.5 722,-6.5"/>
<text text-anchor="middle" x="744" y="-13.5" font-family="Helvetica,sans-Serif" font-size="10.00">vector</text>
</g>
<!-- Node14&#45;&gt;Node25 -->
<g id="edge45" class="edge"><title>Node14&#45;&gt;Node25</title>
<path fill="none" stroke="midnightblue" d="M464.257,-203.134C540.647,-197.442 659.103,-184.255 693,-156 729.767,-125.352 740.03,-65.7462 742.893,-35.5252"/>
<polygon fill="midnightblue" stroke="midnightblue" points="746.387,-35.7432 743.668,-25.5032 739.408,-35.2036 746.387,-35.7432"/>
</g>
<!-- Node31 -->
<g id="node31" class="node"><title>Node31</title>
<polygon fill="none" stroke="#bfbfbf" points="392,-130.5 392,-149.5 430,-149.5 430,-130.5 392,-130.5"/>
<text text-anchor="middle" x="411" y="-137.5" font-family="Helvetica,sans-Serif" font-size="10.00">array</text>
</g>
<!-- Node14&#45;&gt;Node31 -->
<g id="edge40" class="edge"><title>Node14&#45;&gt;Node31</title>
<path fill="none" stroke="midnightblue" d="M400.038,-192.679C402.091,-182.999 404.822,-170.123 407.045,-159.645"/>
<polygon fill="midnightblue" stroke="midnightblue" points="410.476,-160.337 409.127,-149.828 403.628,-158.884 410.476,-160.337"/>
</g>
<!-- Node32 -->
<g id="node32" class="node"><title>Node32</title>
<polygon fill="none" stroke="#bfbfbf" points="448.5,-130.5 448.5,-149.5 493.5,-149.5 493.5,-130.5 448.5,-130.5"/>
<text text-anchor="middle" x="471" y="-137.5" font-family="Helvetica,sans-Serif" font-size="10.00">iosfwd</text>
</g>
<!-- Node14&#45;&gt;Node32 -->
<g id="edge42" class="edge"><title>Node14&#45;&gt;Node32</title>
<path fill="none" stroke="midnightblue" d="M413.057,-192.679C424.938,-182.082 441.115,-167.655 453.356,-156.736"/>
<polygon fill="midnightblue" stroke="midnightblue" points="455.968,-159.097 461.102,-149.828 451.309,-153.872 455.968,-159.097"/>
</g>
<!-- Node14&#45;&gt;Node33 -->
<g id="edge44" class="edge"><title>Node14&#45;&gt;Node33</title>
<path fill="none" stroke="midnightblue" d="M329.984,-198.754C246.699,-188.176 109.505,-169.577 60,-156 57.0212,-155.183 53.9583,-154.196 50.9308,-153.123"/>
<polygon fill="midnightblue" stroke="midnightblue" points="52.1171,-149.829 41.5273,-149.504 49.603,-156.362 52.1171,-149.829"/>
</g>
<!-- Node15&#45;&gt;Node2 -->
<g id="edge17" class="edge"><title>Node15&#45;&gt;Node2</title>
<path fill="none" stroke="midnightblue" d="M252.896,-124.933C300.162,-114.19 364.322,-99.6087 407.566,-89.7804"/>
<polygon fill="midnightblue" stroke="midnightblue" points="408.569,-93.1419 417.544,-87.5127 407.017,-86.316 408.569,-93.1419"/>
</g>
<!-- Node15&#45;&gt;Node3 -->
<g id="edge18" class="edge"><title>Node15&#45;&gt;Node3</title>
<path fill="none" stroke="midnightblue" d="M181.627,-124.526C166.978,-101.903 138.718,-58.2599 123.082,-34.1134"/>
<polygon fill="midnightblue" stroke="midnightblue" points="125.957,-32.1143 117.584,-25.6228 120.081,-35.9191 125.957,-32.1143"/>
</g>
<!-- Node15&#45;&gt;Node4 -->
<g id="edge20" class="edge"><title>Node15&#45;&gt;Node4</title>
<path fill="none" stroke="midnightblue" d="M183.002,-124.789C177.874,-114.834 171.691,-101.032 169,-88 165.342,-70.2834 169.359,-49.8529 173.529,-35.4698"/>
<polygon fill="midnightblue" stroke="midnightblue" points="176.911,-36.3858 176.623,-25.7948 170.243,-34.2534 176.911,-36.3858"/>
</g>
<!-- Node15&#45;&gt;Node5 -->
<g id="edge21" class="edge"><title>Node15&#45;&gt;Node5</title>
<path fill="none" stroke="midnightblue" d="M204.264,-124.854C212.72,-115.146 223.309,-101.602 230,-88 238.258,-71.2118 243.29,-50.3633 246.081,-35.6129"/>
<polygon fill="midnightblue" stroke="midnightblue" points="249.542,-36.14 247.796,-25.6901 242.644,-34.9481 249.542,-36.14"/>
</g>
<!-- Node16 -->
<g id="node16" class="node"><title>Node16</title>
<polygon fill="none" stroke="#bfbfbf" points="178.5,-68.5 178.5,-87.5 221.5,-87.5 221.5,-68.5 178.5,-68.5"/>
<text text-anchor="middle" x="200" y="-75.5" font-family="Helvetica,sans-Serif" font-size="10.00">cstdio</text>
</g>
<!-- Node15&#45;&gt;Node16 -->
<g id="edge19" class="edge"><title>Node15&#45;&gt;Node16</title>
<path fill="none" stroke="midnightblue" d="M193.133,-124.781C194.346,-116.691 195.881,-106.462 197.191,-97.725"/>
<polygon fill="midnightblue" stroke="midnightblue" points="200.668,-98.1391 198.69,-87.7305 193.746,-97.1007 200.668,-98.1391"/>
</g>
<!-- Node17&#45;&gt;Node2 -->
<g id="edge39" class="edge"><title>Node17&#45;&gt;Node2</title>
<path fill="none" stroke="midnightblue" d="M831.23,-130.432C822.185,-128.116 812.239,-125.765 803,-124 706.758,-105.612 594.081,-92.5668 523.612,-85.4089"/>
<polygon fill="midnightblue" stroke="midnightblue" points="523.828,-81.9131 513.528,-84.3956 523.128,-88.878 523.828,-81.9131"/>
</g>
<!-- Node18 -->
<g id="node18" class="node"><title>Node18</title>
<g id="a_node18"><a xlink:href="../../dc/d03/MemoryResources_8h.html" target="_top" xlink:title="MemoryResources/MemoryResources.h">
<polygon fill="none" stroke="black" points="1027.5,-68.5 1027.5,-87.5 1220.5,-87.5 1220.5,-68.5 1027.5,-68.5"/>
<text text-anchor="middle" x="1124" y="-75.5" font-family="Helvetica,sans-Serif" font-size="10.00">MemoryResources/MemoryResources.h</text>
</a>
</g>
</g>
<!-- Node17&#45;&gt;Node18 -->
<g id="edge24" class="edge"><title>Node17&#45;&gt;Node18</title>
<path fill="none" stroke="midnightblue" d="M899.26,-130.467C946.014,-119.76 1026.22,-101.392 1077.1,-89.74"/>
<polygon fill="midnightblue" stroke="midnightblue" points="1077.9,-93.1474 1086.87,-87.5034 1076.34,-86.3241 1077.9,-93.1474"/>
</g>
<!-- Node18&#45;&gt;Node6 -->
<g id="edge29" class="edge"><title>Node18&#45;&gt;Node6</title>
<path fill="none" stroke="midnightblue" d="M1027.21,-75.3378C942.831,-71.7913 817.873,-61.442 713,-32 710.657,-31.3423 708.273,-30.5285 705.915,-29.6226"/>
<polygon fill="midnightblue" stroke="midnightblue" points="707.12,-26.3298 696.554,-25.5452 704.325,-32.7475 707.12,-26.3298"/>
</g>
<!-- Node18&#45;&gt;Node9 -->
<g id="edge30" class="edge"><title>Node18&#45;&gt;Node9</title>
<path fill="none" stroke="midnightblue" d="M1027.22,-76.2957C847.402,-74.184 468.553,-65.7423 342,-32 339.806,-31.4149 337.584,-30.66 335.393,-29.8005"/>
<polygon fill="midnightblue" stroke="midnightblue" points="336.726,-26.5611 326.178,-25.5662 333.803,-32.9218 336.726,-26.5611"/>
</g>
<!-- Node19 -->
<g id="node19" class="node"><title>Node19</title>
<polygon fill="none" stroke="#bfbfbf" points="1537,-1 1537,-31 1637,-31 1637,-1 1537,-1"/>
<text text-anchor="start" x="1545" y="-19" font-family="Helvetica,sans-Serif" font-size="10.00">boost/container/flat</text>
<text text-anchor="middle" x="1587" y="-8" font-family="Helvetica,sans-Serif" font-size="10.00">_map.hpp</text>
</g>
<!-- Node18&#45;&gt;Node19 -->
<g id="edge25" class="edge"><title>Node18&#45;&gt;Node19</title>
<path fill="none" stroke="midnightblue" d="M1220.87,-69.9885C1300.64,-63.34 1416.81,-51.6561 1526.94,-32.0386"/>
<polygon fill="midnightblue" stroke="midnightblue" points="1527.67,-35.4624 1536.89,-30.2406 1526.43,-28.5739 1527.67,-35.4624"/>
</g>
<!-- Node20 -->
<g id="node20" class="node"><title>Node20</title>
<polygon fill="none" stroke="#bfbfbf" points="1655,-1 1655,-31 1771,-31 1771,-1 1655,-1"/>
<text text-anchor="start" x="1663" y="-19" font-family="Helvetica,sans-Serif" font-size="10.00">boost/container/pmr</text>
<text text-anchor="middle" x="1713" y="-8" font-family="Helvetica,sans-Serif" font-size="10.00">/memory_resource.hpp</text>
</g>
<!-- Node18&#45;&gt;Node20 -->
<g id="edge26" class="edge"><title>Node18&#45;&gt;Node20</title>
<path fill="none" stroke="midnightblue" d="M1220.67,-72.5576C1323.55,-66.9449 1491.18,-55.2686 1644.88,-32.0356"/>
<polygon fill="midnightblue" stroke="midnightblue" points="1645.63,-35.4619 1654.99,-30.4886 1644.57,-28.5426 1645.63,-35.4619"/>
</g>
<!-- Node21 -->
<g id="node21" class="node"><title>Node21</title>
<polygon fill="none" stroke="#bfbfbf" points="1789,-1 1789,-31 1945,-31 1945,-1 1789,-1"/>
<text text-anchor="start" x="1797" y="-19" font-family="Helvetica,sans-Serif" font-size="10.00">boost/container/pmr</text>
<text text-anchor="middle" x="1867" y="-8" font-family="Helvetica,sans-Serif" font-size="10.00">/monotonic_buffer_resource.hpp</text>
</g>
<!-- Node18&#45;&gt;Node21 -->
<g id="edge27" class="edge"><title>Node18&#45;&gt;Node21</title>
<path fill="none" stroke="midnightblue" d="M1220.56,-73.3958C1346.52,-68.0134 1573.88,-55.9699 1778.8,-31.9301"/>
<polygon fill="midnightblue" stroke="midnightblue" points="1779.33,-35.3918 1788.85,-30.7393 1778.51,-28.4404 1779.33,-35.3918"/>
</g>
<!-- Node22 -->
<g id="node22" class="node"><title>Node22</title>
<polygon fill="none" stroke="#bfbfbf" points="1963.5,-1 1963.5,-31 2096.5,-31 2096.5,-1 1963.5,-1"/>
<text text-anchor="start" x="1971.5" y="-19" font-family="Helvetica,sans-Serif" font-size="10.00">boost/container/pmr</text>
<text text-anchor="middle" x="2030" y="-8" font-family="Helvetica,sans-Serif" font-size="10.00">/polymorphic_allocator.hpp</text>
</g>
<!-- Node18&#45;&gt;Node22 -->
<g id="edge28" class="edge"><title>Node18&#45;&gt;Node22</title>
<path fill="none" stroke="midnightblue" d="M1220.56,-76.1634C1373.84,-73.8607 1682.34,-65.2574 1953.33,-31.95"/>
<polygon fill="midnightblue" stroke="midnightblue" points="1953.87,-35.4103 1963.36,-30.7038 1953,-28.4637 1953.87,-35.4103"/>
</g>
<!-- Node23 -->
<g id="node23" class="node"><title>Node23</title>
<polygon fill="none" stroke="#bfbfbf" points="2115,-6.5 2115,-25.5 2177,-25.5 2177,-6.5 2115,-6.5"/>
<text text-anchor="middle" x="2146" y="-13.5" font-family="Helvetica,sans-Serif" font-size="10.00">type_traits</text>
</g>
<!-- Node18&#45;&gt;Node23 -->
<g id="edge31" class="edge"><title>Node18&#45;&gt;Node23</title>
<path fill="none" stroke="midnightblue" d="M1220.69,-76.2993C1433.75,-74.1484 1937.95,-65.5636 2105,-32 2108.9,-31.2161 2112.93,-30.1229 2116.86,-28.8802"/>
<polygon fill="midnightblue" stroke="midnightblue" points="2118.04,-32.1744 2126.33,-25.5742 2115.74,-25.5654 2118.04,-32.1744"/>
</g>
<!-- Node24 -->
<g id="node24" class="node"><title>Node24</title>
<polygon fill="none" stroke="#bfbfbf" points="784,-6.5 784,-25.5 824,-25.5 824,-6.5 784,-6.5"/>
<text text-anchor="middle" x="804" y="-13.5" font-family="Helvetica,sans-Serif" font-size="10.00">utility</text>
</g>
<!-- Node18&#45;&gt;Node24 -->
<g id="edge32" class="edge"><title>Node18&#45;&gt;Node24</title>
<path fill="none" stroke="midnightblue" d="M1027.49,-69.9731C969.949,-63.8528 896.058,-52.5744 833,-32 831.141,-31.3934 829.256,-30.6779 827.386,-29.8938"/>
<polygon fill="midnightblue" stroke="midnightblue" points="828.885,-26.7309 818.352,-25.5891 825.874,-33.0503 828.885,-26.7309"/>
</g>
<!-- Node18&#45;&gt;Node25 -->
<g id="edge33" class="edge"><title>Node18&#45;&gt;Node25</title>
<path fill="none" stroke="midnightblue" d="M1027.48,-72.9069C956.428,-67.8978 858.142,-56.7605 775,-32 772.858,-31.3622 770.681,-30.5909 768.525,-29.7387"/>
<polygon fill="midnightblue" stroke="midnightblue" points="769.934,-26.5348 759.376,-25.6477 767.076,-32.925 769.934,-26.5348"/>
</g>
<!-- Node26 -->
<g id="node26" class="node"><title>Node26</title>
<polygon fill="none" stroke="#bfbfbf" points="842.5,-6.5 842.5,-25.5 925.5,-25.5 925.5,-6.5 842.5,-6.5"/>
<text text-anchor="middle" x="884" y="-13.5" font-family="Helvetica,sans-Serif" font-size="10.00">unordered_map</text>
</g>
<!-- Node18&#45;&gt;Node26 -->
<g id="edge34" class="edge"><title>Node18&#45;&gt;Node26</title>
<path fill="none" stroke="midnightblue" d="M1084.9,-68.4459C1046.36,-59.8509 985.896,-45.917 934,-32 929.864,-30.8908 925.551,-29.6801 921.268,-28.4431"/>
<polygon fill="midnightblue" stroke="midnightblue" points="922.007,-25.012 911.425,-25.5445 920.029,-31.7269 922.007,-25.012"/>
</g>
<!-- Node27 -->
<g id="node27" class="node"><title>Node27</title>
<polygon fill="none" stroke="#bfbfbf" points="943.5,-6.5 943.5,-25.5 1040.5,-25.5 1040.5,-6.5 943.5,-6.5"/>
<text text-anchor="middle" x="992" y="-13.5" font-family="Helvetica,sans-Serif" font-size="10.00">FairMQMessage.h</text>
</g>
<!-- Node18&#45;&gt;Node27 -->
<g id="edge35" class="edge"><title>Node18&#45;&gt;Node27</title>
<path fill="none" stroke="midnightblue" d="M1105.09,-68.4035C1082.84,-58.2896 1045.69,-41.4036 1020.07,-29.761"/>
<polygon fill="midnightblue" stroke="midnightblue" points="1021.43,-26.5324 1010.88,-25.5806 1018.53,-32.905 1021.43,-26.5324"/>
</g>
<!-- Node28 -->
<g id="node28" class="node"><title>Node28</title>
<polygon fill="none" stroke="#bfbfbf" points="1058.5,-6.5 1058.5,-25.5 1189.5,-25.5 1189.5,-6.5 1058.5,-6.5"/>
<text text-anchor="middle" x="1124" y="-13.5" font-family="Helvetica,sans-Serif" font-size="10.00">FairMQTransportFactory.h</text>
</g>
<!-- Node18&#45;&gt;Node28 -->
<g id="edge36" class="edge"><title>Node18&#45;&gt;Node28</title>
<path fill="none" stroke="midnightblue" d="M1124,-68.4035C1124,-59.9381 1124,-46.7283 1124,-35.8199"/>
<polygon fill="midnightblue" stroke="midnightblue" points="1127.5,-35.5806 1124,-25.5806 1120.5,-35.5806 1127.5,-35.5806"/>
</g>
<!-- Node29 -->
<g id="node29" class="node"><title>Node29</title>
<polygon fill="none" stroke="#bfbfbf" points="1207.5,-6.5 1207.5,-25.5 1344.5,-25.5 1344.5,-6.5 1207.5,-6.5"/>
<text text-anchor="middle" x="1276" y="-13.5" font-family="Helvetica,sans-Serif" font-size="10.00">fairmq/MemoryResources.h</text>
</g>
<!-- Node18&#45;&gt;Node29 -->
<g id="edge37" class="edge"><title>Node18&#45;&gt;Node29</title>
<path fill="none" stroke="midnightblue" d="M1145.78,-68.4035C1171.74,-58.1559 1215.31,-40.9561 1244.83,-29.3021"/>
<polygon fill="midnightblue" stroke="midnightblue" points="1246.25,-32.5079 1254.26,-25.5806 1243.68,-25.9968 1246.25,-32.5079"/>
</g>
<!-- Node30 -->
<g id="node30" class="node"><title>Node30</title>
<polygon fill="none" stroke="#bfbfbf" points="1363,-6.5 1363,-25.5 1519,-25.5 1519,-6.5 1363,-6.5"/>
<text text-anchor="middle" x="1441" y="-13.5" font-family="Helvetica,sans-Serif" font-size="10.00">fairmq/MemoryResourceTools.h</text>
</g>
<!-- Node18&#45;&gt;Node30 -->
<g id="edge38" class="edge"><title>Node18&#45;&gt;Node30</title>
<path fill="none" stroke="midnightblue" d="M1169.08,-68.4672C1226.24,-57.6487 1324.72,-39.0087 1386.17,-27.3781"/>
<polygon fill="midnightblue" stroke="midnightblue" points="1386.9,-30.8021 1396.07,-25.5034 1385.6,-23.9242 1386.9,-30.8021"/>
</g>
<!-- Node35&#45;&gt;Node2 -->
<g id="edge50" class="edge"><title>Node35&#45;&gt;Node2</title>
<path fill="none" stroke="midnightblue" d="M849.661,-260.184C841.935,-245.063 824.649,-213.715 804,-192 768.469,-154.633 757.483,-144.102 710,-124 650.135,-98.6564 576.535,-87.5859 523.82,-82.7503"/>
<polygon fill="midnightblue" stroke="midnightblue" points="523.83,-79.2382 513.565,-81.8639 523.227,-86.2122 523.83,-79.2382"/>
</g>
<!-- Node35&#45;&gt;Node12 -->
<g id="edge51" class="edge"><title>Node35&#45;&gt;Node12</title>
<path fill="none" stroke="midnightblue" d="M837.667,-260.403C818.789,-250.468 787.493,-233.997 765.424,-222.381"/>
<polygon fill="midnightblue" stroke="midnightblue" points="766.782,-219.141 756.303,-217.581 763.522,-225.335 766.782,-219.141"/>
</g>
<!-- Node35&#45;&gt;Node17 -->
<g id="edge52" class="edge"><title>Node35&#45;&gt;Node17</title>
<path fill="none" stroke="midnightblue" d="M854.55,-260.202C855.841,-239.551 859.087,-187.606 860.838,-159.594"/>
<polygon fill="midnightblue" stroke="midnightblue" points="864.337,-159.721 861.467,-149.522 857.35,-159.285 864.337,-159.721"/>
</g>
<!-- Node36&#45;&gt;Node2 -->
<g id="edge54" class="edge"><title>Node36&#45;&gt;Node2</title>
<path fill="none" stroke="midnightblue" d="M706.219,-260.369C695.606,-252.36 681.269,-239.379 675,-224 669.631,-210.83 671.732,-205.842 675,-192 679.11,-174.59 688.89,-173.41 693,-156 696.268,-142.158 702.074,-134.951 693,-124 671.841,-98.4656 586.416,-87.3137 523.944,-82.5144"/>
<polygon fill="midnightblue" stroke="midnightblue" points="523.967,-79.0069 513.739,-81.7706 523.458,-85.9884 523.967,-79.0069"/>
</g>
<!-- Node36&#45;&gt;Node12 -->
<g id="edge55" class="edge"><title>Node36&#45;&gt;Node12</title>
<path fill="none" stroke="midnightblue" d="M722.009,-260.403C725.034,-251.76 729.79,-238.17 733.653,-227.134"/>
<polygon fill="midnightblue" stroke="midnightblue" points="736.997,-228.175 736.997,-217.581 730.39,-225.863 736.997,-228.175"/>
</g>
<!-- Node38 -->
<g id="node38" class="node"><title>Node38</title>
<g id="a_node38"><a xlink:href="../../d5/dfb/DataRef_8h.html" target="_top" xlink:title="Framework/DataRef.h">
<polygon fill="none" stroke="black" points="989.5,-198.5 989.5,-217.5 1102.5,-217.5 1102.5,-198.5 989.5,-198.5"/>
<text text-anchor="middle" x="1046" y="-205.5" font-family="Helvetica,sans-Serif" font-size="10.00">Framework/DataRef.h</text>
</a>
</g>
</g>
<!-- Node37&#45;&gt;Node38 -->
<g id="edge57" class="edge"><title>Node37&#45;&gt;Node38</title>
<path fill="none" stroke="midnightblue" d="M1052,-260.403C1051.01,-251.938 1049.47,-238.728 1048.2,-227.82"/>
<polygon fill="midnightblue" stroke="midnightblue" points="1051.64,-227.108 1047,-217.581 1044.68,-227.919 1051.64,-227.108"/>
</g>
<!-- Node37&#45;&gt;Node39 -->
<g id="edge58" class="edge"><title>Node37&#45;&gt;Node39</title>
<path fill="none" stroke="midnightblue" d="M1069.91,-260.403C1086.56,-251.936 1112.55,-238.72 1134.01,-227.81"/>
<polygon fill="midnightblue" stroke="midnightblue" points="1135.86,-230.793 1143.19,-223.141 1132.69,-224.553 1135.86,-230.793"/>
</g>
</g>
</svg>
        <g id="navigator" transform="translate(0 0)" fill="#404254">
                <rect fill="#f2f5e9" fill-opacity="0.5" stroke="#606060" stroke-width=".5" x="0" y="0" width="60" height="60"/>
                <use id="zoomplus" xlink:href="#zoomPlus" x="17" y="9" onmousedown="handleZoom(evt,'in')"/>
                <use id="zoomminus" xlink:href="#zoomMin" x="42" y="9" onmousedown="handleZoom(evt,'out')"/>
                <use id="reset" xlink:href="#resetDef" x="30" y="36" onmousedown="handleReset()"/>
                <g id="arrowUp" xlink:href="#dirArrow" transform="translate(30 24)" onmousedown="handlePan(0,-1)">
                  <use xlink:href="#rim" fill="#404040">
                        <set attributeName="fill" to="#808080" begin="arrowUp.mouseover" end="arrowUp.mouseout"/>
                  </use>
                  <path fill="none" stroke="white" stroke-width="1.5" d="M0,-3.0v7 M-2.5,-0.5L0,-3.0L2.5,-0.5"/>
                </g>
                <g id="arrowRight" xlink:href="#dirArrow" transform="rotate(90) translate(36 -43)" onmousedown="handlePan(1,0)">
                  <use xlink:href="#rim" fill="#404040">
                        <set attributeName="fill" to="#808080" begin="arrowRight.mouseover" end="arrowRight.mouseout"/>
                  </use>
                  <path fill="none" stroke="white" stroke-width="1.5" d="M0,-3.0v7 M-2.5,-0.5L0,-3.0L2.5,-0.5"/>
                </g>
                <g id="arrowDown" xlink:href="#dirArrow" transform="rotate(180) translate(-30 -48)" onmousedown="handlePan(0,1)">
                  <use xlink:href="#rim" fill="#404040">
                        <set attributeName="fill" to="#808080" begin="arrowDown.mouseover" end="arrowDown.mouseout"/>
                  </use>
                  <path fill="none" stroke="white" stroke-width="1.5" d="M0,-3.0v7 M-2.5,-0.5L0,-3.0L2.5,-0.5"/>
                </g>
                <g id="arrowLeft" xlink:href="#dirArrow" transform="rotate(270) translate(-36 17)" onmousedown="handlePan(-1,0)">
                  <use xlink:href="#rim" fill="#404040">
                        <set attributeName="fill" to="#808080" begin="arrowLeft.mouseover" end="arrowLeft.mouseout"/>
                  </use>
                  <path fill="none" stroke="white" stroke-width="1.5" d="M0,-3.0v7 M-2.5,-0.5L0,-3.0L2.5,-0.5"/>
                </g>
        </g>
        <svg viewBox="0 0 15 15" width="100%" height="30px" preserveAspectRatio="xMaxYMin meet">
         <g id="arrow_out" transform="scale(0.3 0.3)">
          <a xlink:href="DataSamplingPolicy_8h__incl_org.svg" target="_base">
           <rect id="button" ry="5" rx="5" y="6" x="6" height="38" width="38"
                fill="#f2f5e9" fill-opacity="0.5" stroke="#606060" stroke-width="1.0"/>
           <path id="arrow"
             d="M 11.500037,31.436501 C 11.940474,20.09759 22.043105,11.32322 32.158766,21.979434 L 37.068811,17.246167 C 37.068811,17.246167 37.088388,32 37.088388,32 L 22.160133,31.978069 C 22.160133,31.978069 26.997745,27.140456 26.997745,27.140456 C 18.528582,18.264221 13.291696,25.230495 11.500037,31.436501 z"
             style="fill:#404040;"/>
          </a>
         </g>
        </svg>
</svg>
