<?xml version="1.0" encoding="UTF-8" standalone="no"?>
<!DOCTYPE svg PUBLIC "-//W3C//DTD SVG 1.1//EN"
 "http://www.w3.org/Graphics/SVG/1.1/DTD/svg11.dtd">
<!-- Generated by graphviz version 2.36.0 (20140111.2315)
 -->
<!-- Title: /home/travis/build/AliceO2Group/AliceO2/Framework/Core/include/Framework/RootTableBuilderHelpers.h Pages: 1 -->
<svg width="801pt" height="174pt"
 viewBox="0.00 0.00 801.00 174.00" xmlns="http://www.w3.org/2000/svg" xmlns:xlink="http://www.w3.org/1999/xlink">
<g id="graph0" class="graph" transform="scale(1 1) rotate(0) translate(4 170)">
<title>/home/travis/build/AliceO2Group/AliceO2/Framework/Core/include/Framework/RootTableBuilderHelpers.h</title>
<!-- Node1 -->
<g id="node1" class="node"><title>Node1</title>
<polygon fill="#bfbfbf" stroke="black" points="350,-113 350,-165 538,-165 538,-113 350,-113"/>
<text text-anchor="start" x="358" y="-153" font-family="Helvetica,sans-Serif" font-size="10.00">/home/travis/build</text>
<text text-anchor="start" x="358" y="-142" font-family="Helvetica,sans-Serif" font-size="10.00">/AliceO2Group/AliceO2</text>
<text text-anchor="start" x="358" y="-131" font-family="Helvetica,sans-Serif" font-size="10.00">/Framework/Core/include</text>
<text text-anchor="middle" x="444" y="-120" font-family="Helvetica,sans-Serif" font-size="10.00">/Framework/RootTableBuilderHelpers.h</text>
</g>
<!-- Node2 -->
<g id="node2" class="node"><title>Node2</title>
<g id="a_node2"><a xlink:href="../../d5/d98/TableBuilder_8h.html" target="_top" xlink:title="Framework/TableBuilder.h">
<polygon fill="none" stroke="black" points="284.5,-56.5 284.5,-75.5 415.5,-75.5 415.5,-56.5 284.5,-56.5"/>
<text text-anchor="middle" x="350" y="-63.5" font-family="Helvetica,sans-Serif" font-size="10.00">Framework/TableBuilder.h</text>
</a>
</g>
</g>
<!-- Node1&#45;&gt;Node2 -->
<g id="edge1" class="edge"><title>Node1&#45;&gt;Node2</title>
<path fill="none" stroke="midnightblue" d="M410.859,-112.968C397.212,-102.66 381.853,-91.0589 369.978,-82.09"/>
<polygon fill="midnightblue" stroke="midnightblue" points="371.752,-79.0439 361.663,-75.8095 367.533,-84.6296 371.752,-79.0439"/>
</g>
<!-- Node3 -->
<g id="node3" class="node"><title>Node3</title>
<polygon fill="none" stroke="#bfbfbf" points="0,-0.5 0,-19.5 62,-19.5 62,-0.5 0,-0.5"/>
<text text-anchor="middle" x="31" y="-7.5" font-family="Helvetica,sans-Serif" font-size="10.00">arrow/stl.h</text>
</g>
<!-- Node1&#45;&gt;Node3 -->
<g id="edge10" class="edge"><title>Node1&#45;&gt;Node3</title>
<path fill="none" stroke="midnightblue" d="M349.717,-115.937C305.477,-104.975 252.216,-90.8991 205,-76 153.779,-59.837 95.5536,-37.1911 61.1203,-23.3399"/>
<polygon fill="midnightblue" stroke="midnightblue" points="62.2313,-20.0139 51.6484,-19.5099 59.6071,-26.5034 62.2313,-20.0139"/>
</g>
<!-- Node4 -->
<g id="node4" class="node"><title>Node4</title>
<polygon fill="none" stroke="#bfbfbf" points="80,-0.5 80,-19.5 178,-19.5 178,-0.5 80,-0.5"/>
<text text-anchor="middle" x="129" y="-7.5" font-family="Helvetica,sans-Serif" font-size="10.00">arrow/type_traits.h</text>
</g>
<!-- Node1&#45;&gt;Node4 -->
<g id="edge11" class="edge"><title>Node1&#45;&gt;Node4</title>
<path fill="none" stroke="midnightblue" d="M352.911,-112.931C319.704,-102.78 282.181,-90.112 249,-76 213.776,-61.0189 175.219,-39.0596 151.565,-24.896"/>
<polygon fill="midnightblue" stroke="midnightblue" points="153.343,-21.8814 142.975,-19.7023 149.721,-27.8716 153.343,-21.8814"/>
</g>
<!-- Node5 -->
<g id="node5" class="node"><title>Node5</title>
<polygon fill="none" stroke="#bfbfbf" points="196.5,-0.5 196.5,-19.5 269.5,-19.5 269.5,-0.5 196.5,-0.5"/>
<text text-anchor="middle" x="233" y="-7.5" font-family="Helvetica,sans-Serif" font-size="10.00">arrow/table.h</text>
</g>
<!-- Node1&#45;&gt;Node5 -->
<g id="edge12" class="edge"><title>Node1&#45;&gt;Node5</title>
<path fill="none" stroke="midnightblue" d="M349.559,-118.724C321.013,-109.417 291.138,-95.7984 268,-76 253.721,-63.7822 244.317,-44.2369 238.888,-29.7658"/>
<polygon fill="midnightblue" stroke="midnightblue" points="242.056,-28.2142 235.496,-19.8943 235.436,-30.4889 242.056,-28.2142"/>
</g>
<!-- Node6 -->
<g id="node6" class="node"><title>Node6</title>
<polygon fill="none" stroke="#bfbfbf" points="288,-0.5 288,-19.5 368,-19.5 368,-0.5 288,-0.5"/>
<text text-anchor="middle" x="328" y="-7.5" font-family="Helvetica,sans-Serif" font-size="10.00">arrow/builder.h</text>
</g>
<!-- Node1&#45;&gt;Node6 -->
<g id="edge13" class="edge"><title>Node1&#45;&gt;Node6</title>
<path fill="none" stroke="midnightblue" d="M349.932,-124.86C321.117,-115.929 292.446,-100.983 275,-76 262.132,-57.5726 284.051,-37.7355 303.485,-24.8883"/>
<polygon fill="midnightblue" stroke="midnightblue" points="305.475,-27.7717 312.105,-19.5075 301.769,-21.8336 305.475,-27.7717"/>
</g>
<!-- Node7 -->
<g id="node7" class="node"><title>Node7</title>
<polygon fill="none" stroke="#bfbfbf" points="386,-0.5 386,-19.5 430,-19.5 430,-0.5 386,-0.5"/>
<text text-anchor="middle" x="408" y="-7.5" font-family="Helvetica,sans-Serif" font-size="10.00">vector</text>
</g>
<!-- Node1&#45;&gt;Node7 -->
<g id="edge16" class="edge"><title>Node1&#45;&gt;Node7</title>
<path fill="none" stroke="midnightblue" d="M438.534,-112.699C434.839,-96.3984 429.623,-74.8133 424,-56 421.325,-47.0514 417.907,-37.2655 414.917,-29.1116"/>
<polygon fill="midnightblue" stroke="midnightblue" points="418.117,-27.6772 411.332,-19.5404 411.562,-30.1327 418.117,-27.6772"/>
</g>
<!-- Node8 -->
<g id="node8" class="node"><title>Node8</title>
<polygon fill="none" stroke="#bfbfbf" points="448.5,-0.5 448.5,-19.5 489.5,-19.5 489.5,-0.5 448.5,-0.5"/>
<text text-anchor="middle" x="469" y="-7.5" font-family="Helvetica,sans-Serif" font-size="10.00">string</text>
</g>
<!-- Node1&#45;&gt;Node8 -->
<g id="edge17" class="edge"><title>Node1&#45;&gt;Node8</title>
<path fill="none" stroke="midnightblue" d="M450.034,-112.727C452.628,-101.508 455.607,-88.1252 458,-76 461.051,-60.5414 464.002,-42.911 466.078,-29.9154"/>
<polygon fill="midnightblue" stroke="midnightblue" points="469.563,-30.2812 467.657,-19.8592 462.648,-29.1949 469.563,-30.2812"/>
</g>
<!-- Node9 -->
<g id="node9" class="node"><title>Node9</title>
<polygon fill="none" stroke="#bfbfbf" points="508,-0.5 508,-19.5 560,-19.5 560,-0.5 508,-0.5"/>
<text text-anchor="middle" x="534" y="-7.5" font-family="Helvetica,sans-Serif" font-size="10.00">memory</text>
</g>
<!-- Node1&#45;&gt;Node9 -->
<g id="edge18" class="edge"><title>Node1&#45;&gt;Node9</title>
<path fill="none" stroke="midnightblue" d="M461.781,-112.909C479.621,-87.7344 506.604,-49.6591 522.038,-27.8792"/>
<polygon fill="midnightblue" stroke="midnightblue" points="524.959,-29.8105 527.886,-19.6278 519.248,-25.7631 524.959,-29.8105"/>
</g>
<!-- Node10 -->
<g id="node10" class="node"><title>Node10</title>
<polygon fill="none" stroke="#bfbfbf" points="578,-0.5 578,-19.5 616,-19.5 616,-0.5 578,-0.5"/>
<text text-anchor="middle" x="597" y="-7.5" font-family="Helvetica,sans-Serif" font-size="10.00">tuple</text>
</g>
<!-- Node1&#45;&gt;Node10 -->
<g id="edge19" class="edge"><title>Node1&#45;&gt;Node10</title>
<path fill="none" stroke="midnightblue" d="M474.228,-112.909C505.369,-87.0601 552.895,-47.61 578.731,-26.1647"/>
<polygon fill="midnightblue" stroke="midnightblue" points="581.147,-28.708 586.606,-19.6278 576.676,-23.3217 581.147,-28.708"/>
</g>
<!-- Node11 -->
<g id="node11" class="node"><title>Node11</title>
<polygon fill="none" stroke="#bfbfbf" points="586,-56.5 586,-75.5 668,-75.5 668,-56.5 586,-56.5"/>
<text text-anchor="middle" x="627" y="-63.5" font-family="Helvetica,sans-Serif" font-size="10.00">TTreeReader.h</text>
</g>
<!-- Node1&#45;&gt;Node11 -->
<g id="edge14" class="edge"><title>Node1&#45;&gt;Node11</title>
<path fill="none" stroke="midnightblue" d="M508.519,-112.968C537.872,-101.58 571.294,-88.6127 595.14,-79.361"/>
<polygon fill="midnightblue" stroke="midnightblue" points="596.677,-82.5191 604.734,-75.6389 594.145,-75.993 596.677,-82.5191"/>
</g>
<!-- Node12 -->
<g id="node12" class="node"><title>Node12</title>
<polygon fill="none" stroke="#bfbfbf" points="686.5,-56.5 686.5,-75.5 793.5,-75.5 793.5,-56.5 686.5,-56.5"/>
<text text-anchor="middle" x="740" y="-63.5" font-family="Helvetica,sans-Serif" font-size="10.00">TTreeReaderValue.h</text>
</g>
<!-- Node1&#45;&gt;Node12 -->
<g id="edge15" class="edge"><title>Node1&#45;&gt;Node12</title>
<path fill="none" stroke="midnightblue" d="M538.063,-115.438C590.297,-102.909 652.915,-87.8887 694.43,-77.9307"/>
<polygon fill="midnightblue" stroke="midnightblue" points="695.343,-81.311 704.251,-75.575 693.71,-74.5041 695.343,-81.311"/>
</g>
<!-- Node2&#45;&gt;Node3 -->
<g id="edge2" class="edge"><title>Node2&#45;&gt;Node3</title>
<path fill="none" stroke="midnightblue" d="M290.489,-56.4834C236.087,-48.4525 153.181,-35.6005 72.2611,-20.1538"/>
<polygon fill="midnightblue" stroke="midnightblue" points="72.8859,-16.7099 62.4047,-18.2574 71.5632,-23.5839 72.8859,-16.7099"/>
</g>
<!-- Node2&#45;&gt;Node4 -->
<g id="edge3" class="edge"><title>Node2&#45;&gt;Node4</title>
<path fill="none" stroke="midnightblue" d="M314.982,-56.4435C276.752,-47.1024 215.433,-32.1194 173.743,-21.9326"/>
<polygon fill="midnightblue" stroke="midnightblue" points="174.399,-18.4901 163.854,-19.5164 172.738,-25.2901 174.399,-18.4901"/>
</g>
<!-- Node2&#45;&gt;Node5 -->
<g id="edge4" class="edge"><title>Node2&#45;&gt;Node5</title>
<path fill="none" stroke="midnightblue" d="M331.461,-56.4435C312.377,-47.6356 282.425,-33.8116 260.564,-23.722"/>
<polygon fill="midnightblue" stroke="midnightblue" points="261.999,-20.5292 251.452,-19.5164 259.065,-26.8849 261.999,-20.5292"/>
</g>
<!-- Node2&#45;&gt;Node6 -->
<g id="edge5" class="edge"><title>Node2&#45;&gt;Node6</title>
<path fill="none" stroke="midnightblue" d="M346.367,-56.083C343.388,-48.77 339.074,-38.1814 335.375,-29.1034"/>
<polygon fill="midnightblue" stroke="midnightblue" points="338.58,-27.6914 331.565,-19.7511 332.097,-30.3326 338.58,-27.6914"/>
</g>
<!-- Node2&#45;&gt;Node7 -->
<g id="edge6" class="edge"><title>Node2&#45;&gt;Node7</title>
<path fill="none" stroke="midnightblue" d="M359.319,-56.324C367.893,-48.3414 380.812,-36.3128 391.188,-26.6529"/>
<polygon fill="midnightblue" stroke="midnightblue" points="393.578,-29.2098 398.512,-19.8339 388.808,-24.0865 393.578,-29.2098"/>
</g>
<!-- Node2&#45;&gt;Node8 -->
<g id="edge7" class="edge"><title>Node2&#45;&gt;Node8</title>
<path fill="none" stroke="midnightblue" d="M368.856,-56.4435C388.266,-47.6356 418.73,-33.8116 440.965,-23.722"/>
<polygon fill="midnightblue" stroke="midnightblue" points="442.572,-26.836 450.232,-19.5164 439.68,-20.4615 442.572,-26.836"/>
</g>
<!-- Node2&#45;&gt;Node9 -->
<g id="edge8" class="edge"><title>Node2&#45;&gt;Node9</title>
<path fill="none" stroke="midnightblue" d="M379.155,-56.4435C411.436,-46.9699 463.489,-31.6935 498.215,-21.5022"/>
<polygon fill="midnightblue" stroke="midnightblue" points="499.346,-24.8178 507.956,-18.6433 497.375,-18.1011 499.346,-24.8178"/>
</g>
<!-- Node2&#45;&gt;Node10 -->
<g id="edge9" class="edge"><title>Node2&#45;&gt;Node10</title>
<path fill="none" stroke="midnightblue" d="M399.061,-56.4926C441.499,-48.78 504.647,-36.4608 568.039,-20.0354"/>
<polygon fill="midnightblue" stroke="midnightblue" points="569.017,-23.3973 577.801,-17.4734 567.24,-16.6266 569.017,-23.3973"/>
</g>
</g>
</svg>
