<?xml version="1.0" encoding="UTF-8" standalone="no"?>
<!DOCTYPE svg PUBLIC "-//W3C//DTD SVG 1.1//EN"
 "http://www.w3.org/Graphics/SVG/1.1/DTD/svg11.dtd">
<!-- Generated by graphviz version 2.36.0 (20140111.2315)
 -->
<!-- Title: o2::TPC::HitGroup Pages: 1 -->
<svg width="280pt" height="328pt"
 viewBox="0.00 0.00 280.00 328.00" xmlns="http://www.w3.org/2000/svg" xmlns:xlink="http://www.w3.org/1999/xlink">
<g id="graph0" class="graph" transform="scale(1 1) rotate(0) translate(4 324)">
<title>o2::TPC::HitGroup</title>
<!-- Node1 -->
<g id="node1" class="node"><title>Node1</title>
<polygon fill="#bfbfbf" stroke="black" points="69,-1 69,-135 167,-135 167,-1 69,-1"/>
<text text-anchor="middle" x="118" y="-123" font-family="Helvetica,sans-Serif" font-size="10.00">o2::TPC::HitGroup</text>
<polyline fill="none" stroke="black" points="69,-116 167,-116 "/>
<text text-anchor="middle" x="118" y="-104" font-family="Helvetica,sans-Serif" font-size="10.00"> </text>
<polyline fill="none" stroke="black" points="69,-97 167,-97 "/>
<text text-anchor="start" x="77" y="-85" font-family="Helvetica,sans-Serif" font-size="10.00">+ HitGroup()</text>
<text text-anchor="start" x="77" y="-74" font-family="Helvetica,sans-Serif" font-size="10.00">+ HitGroup()</text>
<text text-anchor="start" x="77" y="-63" font-family="Helvetica,sans-Serif" font-size="10.00">+ ~HitGroup()</text>
<text text-anchor="start" x="77" y="-52" font-family="Helvetica,sans-Serif" font-size="10.00">+ addHit()</text>
<text text-anchor="start" x="77" y="-41" font-family="Helvetica,sans-Serif" font-size="10.00">+ getSize()</text>
<text text-anchor="start" x="77" y="-30" font-family="Helvetica,sans-Serif" font-size="10.00">+ getHit()</text>
<text text-anchor="start" x="77" y="-19" font-family="Helvetica,sans-Serif" font-size="10.00">+ shrinkToFit()</text>
<text text-anchor="start" x="77" y="-8" font-family="Helvetica,sans-Serif" font-size="10.00">+ ClassDefNV()</text>
</g>
<!-- Node2 -->
<g id="node2" class="node"><title>Node2</title>
<g id="a_node2"><a xlink:href="../../db/dfe/classo2_1_1BaseHit.html" target="_top" xlink:title="{o2::BaseHit\n||+ BaseHit()\l+ BaseHit()\l+ GetTrackID()\l+ SetTrackID()\l}">
<polygon fill="none" stroke="black" points="-0.5,-229 -0.5,-319 82.5,-319 82.5,-229 -0.5,-229"/>
<text text-anchor="middle" x="41" y="-307" font-family="Helvetica,sans-Serif" font-size="10.00">o2::BaseHit</text>
<polyline fill="none" stroke="black" points="-0.5,-300 82.5,-300 "/>
<text text-anchor="middle" x="41" y="-288" font-family="Helvetica,sans-Serif" font-size="10.00"> </text>
<polyline fill="none" stroke="black" points="-0.5,-281 82.5,-281 "/>
<text text-anchor="start" x="7.5" y="-269" font-family="Helvetica,sans-Serif" font-size="10.00">+ BaseHit()</text>
<text text-anchor="start" x="7.5" y="-258" font-family="Helvetica,sans-Serif" font-size="10.00">+ BaseHit()</text>
<text text-anchor="start" x="7.5" y="-247" font-family="Helvetica,sans-Serif" font-size="10.00">+ GetTrackID()</text>
<text text-anchor="start" x="7.5" y="-236" font-family="Helvetica,sans-Serif" font-size="10.00">+ SetTrackID()</text>
</a>
</g>
</g>
<!-- Node2&#45;&gt;Node1 -->
<g id="edge1" class="edge"><title>Node2&#45;&gt;Node1</title>
<path fill="none" stroke="midnightblue" d="M61.2431,-219.369C70.9933,-193.537 82.7764,-162.32 93.0738,-135.038"/>
<polygon fill="none" stroke="midnightblue" points="57.8699,-218.394 57.6131,-228.986 64.419,-220.866 57.8699,-218.394"/>
</g>
<!-- Node3 -->
<g id="node3" class="node"><title>Node3</title>
<g id="a_node3"><a xlink:href="../../d4/dc3/classfloat.html" target="_top" xlink:title="{float\n||}">
<polygon fill="none" stroke="black" points="100.5,-245.5 100.5,-302.5 135.5,-302.5 135.5,-245.5 100.5,-245.5"/>
<text text-anchor="middle" x="118" y="-290.5" font-family="Helvetica,sans-Serif" font-size="10.00">float</text>
<polyline fill="none" stroke="black" points="100.5,-283.5 135.5,-283.5 "/>
<text text-anchor="middle" x="118" y="-271.5" font-family="Helvetica,sans-Serif" font-size="10.00"> </text>
<polyline fill="none" stroke="black" points="100.5,-264.5 135.5,-264.5 "/>
<text text-anchor="middle" x="118" y="-252.5" font-family="Helvetica,sans-Serif" font-size="10.00"> </text>
</a>
</g>
</g>
<!-- Node3&#45;&gt;Node1 -->
<g id="edge2" class="edge"><title>Node3&#45;&gt;Node1</title>
<path fill="none" stroke="#404040" d="M118,-245.488C118,-220.291 118,-181.759 118,-147.121"/>
<polygon fill="none" stroke="#404040" points="118,-147.059 114,-141.059 118,-135.059 122,-141.059 118,-147.059"/>
<text text-anchor="middle" x="148" y="-185" font-family="Helvetica,sans-Serif" font-size="10.00"> +mZAbsMax</text>
<text text-anchor="middle" x="148" y="-174" font-family="Helvetica,sans-Serif" font-size="10.00">+mZAbsMin</text>
</g>
<!-- Node4 -->
<g id="node4" class="node"><title>Node4</title>
<polygon fill="none" stroke="#bfbfbf" points="154,-245.5 154,-302.5 272,-302.5 272,-245.5 154,-245.5"/>
<text text-anchor="middle" x="213" y="-290.5" font-family="Helvetica,sans-Serif" font-size="10.00">ShmAllocator&lt; float &gt;&gt;</text>
<polyline fill="none" stroke="#bfbfbf" points="154,-283.5 272,-283.5 "/>
<text text-anchor="middle" x="213" y="-271.5" font-family="Helvetica,sans-Serif" font-size="10.00"> </text>
<polyline fill="none" stroke="#bfbfbf" points="154,-264.5 272,-264.5 "/>
<text text-anchor="middle" x="213" y="-252.5" font-family="Helvetica,sans-Serif" font-size="10.00"> </text>
</g>
<!-- Node4&#45;&gt;Node1 -->
<g id="edge3" class="edge"><title>Node4&#45;&gt;Node1</title>
<path fill="none" stroke="#404040" d="M208.97,-245.478C204.617,-220.653 196.304,-183.603 182,-154 179.519,-148.865 176.705,-143.732 173.675,-138.675"/>
<polygon fill="none" stroke="#404040" points="173.607,-138.567 167.018,-135.636 167.19,-128.427 173.778,-131.358 173.607,-138.567"/>
<text text-anchor="middle" x="231" y="-201.5" font-family="Helvetica,sans-Serif" font-size="10.00"> +mHitsTVctr</text>
<text text-anchor="middle" x="231" y="-190.5" font-family="Helvetica,sans-Serif" font-size="10.00">+mHitsYVctr</text>
<text text-anchor="middle" x="231" y="-179.5" font-family="Helvetica,sans-Serif" font-size="10.00">+mHitsZVctr</text>
<text text-anchor="middle" x="231" y="-168.5" font-family="Helvetica,sans-Serif" font-size="10.00">+mHitsEVctr</text>
<text text-anchor="middle" x="231" y="-157.5" font-family="Helvetica,sans-Serif" font-size="10.00">+mHitsXVctr</text>
</g>
</g>
</svg>
