<?xml version="1.0" encoding="UTF-8" standalone="no"?>
<!DOCTYPE svg PUBLIC "-//W3C//DTD SVG 1.1//EN"
 "http://www.w3.org/Graphics/SVG/1.1/DTD/svg11.dtd">
<!-- Generated by graphviz version 2.36.0 (20140111.2315)
 -->
<!-- Title: /home/travis/build/AliceO2Group/AliceO2/Utilities/DataFlow/src/SubframeBuilderDevice.cxx Pages: 1 -->
<svg width="2266pt" height="422pt"
 viewBox="0.00 0.00 2266.00 422.00" xmlns="http://www.w3.org/2000/svg" xmlns:xlink="http://www.w3.org/1999/xlink">
<g id="graph0" class="graph" transform="scale(1 1) rotate(0) translate(4 418)">
<title>/home/travis/build/AliceO2Group/AliceO2/Utilities/DataFlow/src/SubframeBuilderDevice.cxx</title>
<!-- Node1 -->
<g id="node1" class="node"><title>Node1</title>
<polygon fill="#bfbfbf" stroke="black" points="294.5,-361 294.5,-413 435.5,-413 435.5,-361 294.5,-361"/>
<text text-anchor="start" x="302.5" y="-401" font-family="Helvetica,sans-Serif" font-size="10.00">/home/travis/build</text>
<text text-anchor="start" x="302.5" y="-390" font-family="Helvetica,sans-Serif" font-size="10.00">/AliceO2Group/AliceO2</text>
<text text-anchor="start" x="302.5" y="-379" font-family="Helvetica,sans-Serif" font-size="10.00">/Utilities/DataFlow/src</text>
<text text-anchor="middle" x="365" y="-368" font-family="Helvetica,sans-Serif" font-size="10.00">/SubframeBuilderDevice.cxx</text>
</g>
<!-- Node2 -->
<g id="node2" class="node"><title>Node2</title>
<polygon fill="none" stroke="#bfbfbf" points="0,-298.5 0,-317.5 44,-317.5 44,-298.5 0,-298.5"/>
<text text-anchor="middle" x="22" y="-305.5" font-family="Helvetica,sans-Serif" font-size="10.00">thread</text>
</g>
<!-- Node1&#45;&gt;Node2 -->
<g id="edge1" class="edge"><title>Node1&#45;&gt;Node2</title>
<path fill="none" stroke="midnightblue" d="M294.282,-377.188C230.165,-367.975 133.639,-351.028 53,-324 51.0867,-323.359 49.1392,-322.626 47.1995,-321.837"/>
<polygon fill="midnightblue" stroke="midnightblue" points="48.3188,-318.502 37.7638,-317.585 45.4429,-324.884 48.3188,-318.502"/>
</g>
<!-- Node3 -->
<g id="node3" class="node"><title>Node3</title>
<polygon fill="none" stroke="#bfbfbf" points="62,-298.5 62,-317.5 108,-317.5 108,-298.5 62,-298.5"/>
<text text-anchor="middle" x="85" y="-305.5" font-family="Helvetica,sans-Serif" font-size="10.00">chrono</text>
</g>
<!-- Node1&#45;&gt;Node3 -->
<g id="edge2" class="edge"><title>Node1&#45;&gt;Node3</title>
<path fill="none" stroke="midnightblue" d="M294.358,-370.642C245.474,-359.368 179.184,-342.791 122,-324 119.434,-323.157 116.792,-322.223 114.156,-321.245"/>
<polygon fill="midnightblue" stroke="midnightblue" points="115.375,-317.964 104.787,-317.597 112.835,-324.487 115.375,-317.964"/>
</g>
<!-- Node4 -->
<g id="node4" class="node"><title>Node4</title>
<polygon fill="none" stroke="#bfbfbf" points="325.5,-124.5 325.5,-143.5 384.5,-143.5 384.5,-124.5 325.5,-124.5"/>
<text text-anchor="middle" x="355" y="-131.5" font-family="Helvetica,sans-Serif" font-size="10.00">functional</text>
</g>
<!-- Node1&#45;&gt;Node4 -->
<g id="edge3" class="edge"><title>Node1&#45;&gt;Node4</title>
<path fill="none" stroke="midnightblue" d="M304.608,-360.985C224.019,-324.061 97.7325,-251.584 155,-180 174.697,-155.379 262.939,-143.283 315.405,-138.168"/>
<polygon fill="midnightblue" stroke="midnightblue" points="315.758,-141.651 325.39,-137.237 315.108,-134.681 315.758,-141.651"/>
</g>
<!-- Node5 -->
<g id="node5" class="node"><title>Node5</title>
<g id="a_node5"><a xlink:href="../../d0/d82/SubframeBuilderDevice_8h.html" target="_top" xlink:title="Demonstrator device for a subframe builder. ">
<polygon fill="none" stroke="black" points="479,-293 479,-323 613,-323 613,-293 479,-293"/>
<text text-anchor="start" x="487" y="-311" font-family="Helvetica,sans-Serif" font-size="10.00">DataFlow/SubframeBuilder</text>
<text text-anchor="middle" x="546" y="-300" font-family="Helvetica,sans-Serif" font-size="10.00">Device.h</text>
</a>
</g>
</g>
<!-- Node1&#45;&gt;Node5 -->
<g id="edge4" class="edge"><title>Node1&#45;&gt;Node5</title>
<path fill="none" stroke="midnightblue" d="M424.266,-360.787C450.182,-349.762 479.993,-337.08 503.628,-327.026"/>
<polygon fill="midnightblue" stroke="midnightblue" points="505.187,-330.166 513.019,-323.031 502.447,-323.725 505.187,-330.166"/>
</g>
<!-- Node6 -->
<g id="node6" class="node"><title>Node6</title>
<g id="a_node6"><a xlink:href="../../dc/dcd/DataHeader_8h.html" target="_top" xlink:title="Headers/DataHeader.h">
<polygon fill="none" stroke="black" points="432.5,-68.5 432.5,-87.5 549.5,-87.5 549.5,-68.5 432.5,-68.5"/>
<text text-anchor="middle" x="491" y="-75.5" font-family="Helvetica,sans-Serif" font-size="10.00">Headers/DataHeader.h</text>
</a>
</g>
</g>
<!-- Node1&#45;&gt;Node6 -->
<g id="edge63" class="edge"><title>Node1&#45;&gt;Node6</title>
<path fill="none" stroke="midnightblue" d="M392.684,-360.688C417.825,-334.813 451,-292.12 451,-247 451,-247 451,-247 451,-189 451,-154.617 468.474,-117.631 480.323,-96.503"/>
<polygon fill="midnightblue" stroke="midnightblue" points="483.424,-98.1332 485.438,-87.7315 477.377,-94.6071 483.424,-98.1332"/>
</g>
<!-- Node15 -->
<g id="node15" class="node"><title>Node15</title>
<g id="a_node15"><a xlink:href="../../d2/d09/HeartbeatFrame_8h.html" target="_top" xlink:title="Headers/HeartbeatFrame.h">
<polygon fill="none" stroke="black" points="287.5,-180.5 287.5,-199.5 422.5,-199.5 422.5,-180.5 287.5,-180.5"/>
<text text-anchor="middle" x="355" y="-187.5" font-family="Helvetica,sans-Serif" font-size="10.00">Headers/HeartbeatFrame.h</text>
</a>
</g>
</g>
<!-- Node1&#45;&gt;Node15 -->
<g id="edge62" class="edge"><title>Node1&#45;&gt;Node15</title>
<path fill="none" stroke="midnightblue" d="M363.713,-360.906C361.685,-321.352 357.788,-245.374 355.974,-209.995"/>
<polygon fill="midnightblue" stroke="midnightblue" points="359.452,-209.472 355.444,-199.664 352.461,-209.83 359.452,-209.472"/>
</g>
<!-- Node20 -->
<g id="node20" class="node"><title>Node20</title>
<polygon fill="none" stroke="#bfbfbf" points="1267,-180.5 1267,-199.5 1413,-199.5 1413,-180.5 1267,-180.5"/>
<text text-anchor="middle" x="1340" y="-187.5" font-family="Helvetica,sans-Serif" font-size="10.00">options/FairMQProgOptions.h</text>
</g>
<!-- Node1&#45;&gt;Node20 -->
<g id="edge64" class="edge"><title>Node1&#45;&gt;Node20</title>
<path fill="none" stroke="midnightblue" d="M435.7,-373.595C560.845,-351.434 829.445,-302.951 1055,-256 1139.89,-238.329 1238.43,-215.29 1294.57,-201.922"/>
<polygon fill="midnightblue" stroke="midnightblue" points="1295.63,-205.266 1304.55,-199.541 1294.01,-198.457 1295.63,-205.266"/>
</g>
<!-- Node39 -->
<g id="node39" class="node"><title>Node39</title>
<g id="a_node39"><a xlink:href="../../d2/de2/SubframeUtils_8h.html" target="_top" xlink:title="DataFlow/SubframeUtils.h">
<polygon fill="none" stroke="black" points="205,-236.5 205,-255.5 337,-255.5 337,-236.5 205,-236.5"/>
<text text-anchor="middle" x="271" y="-243.5" font-family="Helvetica,sans-Serif" font-size="10.00">DataFlow/SubframeUtils.h</text>
</a>
</g>
</g>
<!-- Node1&#45;&gt;Node39 -->
<g id="edge59" class="edge"><title>Node1&#45;&gt;Node39</title>
<path fill="none" stroke="midnightblue" d="M347.977,-360.828C329.014,-332.787 298.878,-288.223 282.504,-264.012"/>
<polygon fill="midnightblue" stroke="midnightblue" points="285.271,-261.855 276.77,-255.532 279.473,-265.777 285.271,-261.855"/>
</g>
<!-- Node42 -->
<g id="node42" class="node"><title>Node42</title>
<g id="a_node42"><a xlink:href="../../d2/d1b/SubframeMetadata_8h.html" target="_top" xlink:title="Headers/SubframeMetadata.h">
<polygon fill="none" stroke="black" points="1301.5,-236.5 1301.5,-255.5 1448.5,-255.5 1448.5,-236.5 1301.5,-236.5"/>
<text text-anchor="middle" x="1375" y="-243.5" font-family="Helvetica,sans-Serif" font-size="10.00">Headers/SubframeMetadata.h</text>
</a>
</g>
</g>
<!-- Node1&#45;&gt;Node42 -->
<g id="edge60" class="edge"><title>Node1&#45;&gt;Node42</title>
<path fill="none" stroke="midnightblue" d="M435.523,-384.422C612.848,-379.889 1073.64,-364.463 1221,-324 1271.46,-310.145 1324.92,-279.234 1353.68,-261.071"/>
<polygon fill="midnightblue" stroke="midnightblue" points="1355.59,-264.005 1362.12,-255.66 1351.81,-258.113 1355.59,-264.005"/>
</g>
<!-- Node5&#45;&gt;Node6 -->
<g id="edge5" class="edge"><title>Node5&#45;&gt;Node6</title>
<path fill="none" stroke="midnightblue" d="M542.56,-292.738C533.02,-253.193 506.235,-142.156 495.517,-97.7238"/>
<polygon fill="midnightblue" stroke="midnightblue" points="498.906,-96.847 493.158,-87.9466 492.101,-98.4886 498.906,-96.847"/>
</g>
<!-- Node10 -->
<g id="node10" class="node"><title>Node10</title>
<polygon fill="none" stroke="#bfbfbf" points="679,-6.5 679,-25.5 725,-25.5 725,-6.5 679,-6.5"/>
<text text-anchor="middle" x="702" y="-13.5" font-family="Helvetica,sans-Serif" font-size="10.00">cstring</text>
</g>
<!-- Node5&#45;&gt;Node10 -->
<g id="edge57" class="edge"><title>Node5&#45;&gt;Node10</title>
<path fill="none" stroke="midnightblue" d="M586.603,-292.92C642.654,-271.015 741.508,-222.894 783,-144 805.269,-101.657 754.346,-54.9762 723.467,-31.7808"/>
<polygon fill="midnightblue" stroke="midnightblue" points="725.145,-28.6736 714.998,-25.6251 721.029,-34.3359 725.145,-28.6736"/>
</g>
<!-- Node5&#45;&gt;Node15 -->
<g id="edge14" class="edge"><title>Node5&#45;&gt;Node15</title>
<path fill="none" stroke="midnightblue" d="M522.58,-292.776C485.82,-270.451 414.995,-227.437 378.306,-205.154"/>
<polygon fill="midnightblue" stroke="midnightblue" points="379.701,-201.906 369.336,-199.707 376.067,-207.889 379.701,-201.906"/>
</g>
<!-- Node16 -->
<g id="node16" class="node"><title>Node16</title>
<polygon fill="none" stroke="#bfbfbf" points="517.5,-124.5 517.5,-143.5 552.5,-143.5 552.5,-124.5 517.5,-124.5"/>
<text text-anchor="middle" x="535" y="-131.5" font-family="Helvetica,sans-Serif" font-size="10.00">map</text>
</g>
<!-- Node5&#45;&gt;Node16 -->
<g id="edge58" class="edge"><title>Node5&#45;&gt;Node16</title>
<path fill="none" stroke="midnightblue" d="M545.1,-292.925C543.127,-262.073 538.421,-188.484 536.199,-153.755"/>
<polygon fill="midnightblue" stroke="midnightblue" points="539.68,-153.341 535.549,-143.585 532.694,-153.788 539.68,-153.341"/>
</g>
<!-- Node18 -->
<g id="node18" class="node"><title>Node18</title>
<g id="a_node18"><a xlink:href="../../d2/dee/O2Device_8h.html" target="_top" xlink:title="O2Device/O2Device.h">
<polygon fill="none" stroke="black" points="931.5,-236.5 931.5,-255.5 1046.5,-255.5 1046.5,-236.5 931.5,-236.5"/>
<text text-anchor="middle" x="989" y="-243.5" font-family="Helvetica,sans-Serif" font-size="10.00">O2Device/O2Device.h</text>
</a>
</g>
</g>
<!-- Node5&#45;&gt;Node18 -->
<g id="edge19" class="edge"><title>Node5&#45;&gt;Node18</title>
<path fill="none" stroke="midnightblue" d="M613.282,-297.887C696.582,-286.605 837.649,-267.499 921.191,-256.184"/>
<polygon fill="midnightblue" stroke="midnightblue" points="921.896,-259.621 931.336,-254.81 920.956,-252.684 921.896,-259.621"/>
</g>
<!-- Node37 -->
<g id="node37" class="node"><title>Node37</title>
<g id="a_node37"><a xlink:href="../../d3/d95/PayloadMerger_8h.html" target="_top" xlink:title="DataFlow/PayloadMerger.h">
<polygon fill="none" stroke="black" points="555.5,-180.5 555.5,-199.5 690.5,-199.5 690.5,-180.5 555.5,-180.5"/>
<text text-anchor="middle" x="623" y="-187.5" font-family="Helvetica,sans-Serif" font-size="10.00">DataFlow/PayloadMerger.h</text>
</a>
</g>
</g>
<!-- Node5&#45;&gt;Node37 -->
<g id="edge46" class="edge"><title>Node5&#45;&gt;Node37</title>
<path fill="none" stroke="midnightblue" d="M555.442,-292.776C569.631,-271.401 596.408,-231.06 611.644,-208.108"/>
<polygon fill="midnightblue" stroke="midnightblue" points="614.606,-209.974 617.22,-199.707 608.774,-206.103 614.606,-209.974"/>
</g>
<!-- Node5&#45;&gt;Node39 -->
<g id="edge53" class="edge"><title>Node5&#45;&gt;Node39</title>
<path fill="none" stroke="midnightblue" d="M481.525,-292.933C432.082,-282.145 364.892,-267.486 319.841,-257.656"/>
<polygon fill="midnightblue" stroke="midnightblue" points="320.533,-254.225 310.017,-255.513 319.041,-261.064 320.533,-254.225"/>
</g>
<!-- Node7 -->
<g id="node7" class="node"><title>Node7</title>
<polygon fill="none" stroke="#bfbfbf" points="537,-6.5 537,-25.5 583,-25.5 583,-6.5 537,-6.5"/>
<text text-anchor="middle" x="560" y="-13.5" font-family="Helvetica,sans-Serif" font-size="10.00">cstdint</text>
</g>
<!-- Node6&#45;&gt;Node7 -->
<g id="edge6" class="edge"><title>Node6&#45;&gt;Node7</title>
<path fill="none" stroke="midnightblue" d="M500.886,-68.4035C511.646,-59.047 529.071,-43.8948 542.221,-32.4599"/>
<polygon fill="midnightblue" stroke="midnightblue" points="544.883,-34.7835 550.132,-25.5806 540.29,-29.5013 544.883,-34.7835"/>
</g>
<!-- Node8 -->
<g id="node8" class="node"><title>Node8</title>
<polygon fill="none" stroke="#bfbfbf" points="325,-6.5 325,-25.5 377,-25.5 377,-6.5 325,-6.5"/>
<text text-anchor="middle" x="351" y="-13.5" font-family="Helvetica,sans-Serif" font-size="10.00">memory</text>
</g>
<!-- Node6&#45;&gt;Node8 -->
<g id="edge7" class="edge"><title>Node6&#45;&gt;Node8</title>
<path fill="none" stroke="midnightblue" d="M470.941,-68.4035C447.238,-58.245 407.594,-41.2547 380.417,-29.6074"/>
<polygon fill="midnightblue" stroke="midnightblue" points="381.592,-26.3028 371.021,-25.5806 378.834,-32.7369 381.592,-26.3028"/>
</g>
<!-- Node9 -->
<g id="node9" class="node"><title>Node9</title>
<polygon fill="none" stroke="#bfbfbf" points="395.5,-6.5 395.5,-25.5 444.5,-25.5 444.5,-6.5 395.5,-6.5"/>
<text text-anchor="middle" x="420" y="-13.5" font-family="Helvetica,sans-Serif" font-size="10.00">cassert</text>
</g>
<!-- Node6&#45;&gt;Node9 -->
<g id="edge8" class="edge"><title>Node6&#45;&gt;Node9</title>
<path fill="none" stroke="midnightblue" d="M480.827,-68.4035C469.65,-58.9579 451.483,-43.6056 437.909,-32.1342"/>
<polygon fill="midnightblue" stroke="midnightblue" points="440.051,-29.3619 430.154,-25.5806 435.533,-34.7085 440.051,-29.3619"/>
</g>
<!-- Node6&#45;&gt;Node10 -->
<g id="edge9" class="edge"><title>Node6&#45;&gt;Node10</title>
<path fill="none" stroke="midnightblue" d="M533.709,-68.4562C570.167,-60.6313 623.728,-47.8679 669,-32 671.123,-31.2558 673.297,-30.4269 675.466,-29.5516"/>
<polygon fill="midnightblue" stroke="midnightblue" points="676.976,-32.7117 684.77,-25.5344 674.202,-26.2851 676.976,-32.7117"/>
</g>
<!-- Node11 -->
<g id="node11" class="node"><title>Node11</title>
<polygon fill="none" stroke="#bfbfbf" points="463,-6.5 463,-25.5 519,-25.5 519,-6.5 463,-6.5"/>
<text text-anchor="middle" x="491" y="-13.5" font-family="Helvetica,sans-Serif" font-size="10.00">algorithm</text>
</g>
<!-- Node6&#45;&gt;Node11 -->
<g id="edge10" class="edge"><title>Node6&#45;&gt;Node11</title>
<path fill="none" stroke="midnightblue" d="M491,-68.4035C491,-59.9381 491,-46.7283 491,-35.8199"/>
<polygon fill="midnightblue" stroke="midnightblue" points="494.5,-35.5806 491,-25.5806 487.5,-35.5806 494.5,-35.5806"/>
</g>
<!-- Node12 -->
<g id="node12" class="node"><title>Node12</title>
<polygon fill="none" stroke="#bfbfbf" points="601.5,-6.5 601.5,-25.5 660.5,-25.5 660.5,-6.5 601.5,-6.5"/>
<text text-anchor="middle" x="631" y="-13.5" font-family="Helvetica,sans-Serif" font-size="10.00">stdexcept</text>
</g>
<!-- Node6&#45;&gt;Node12 -->
<g id="edge11" class="edge"><title>Node6&#45;&gt;Node12</title>
<path fill="none" stroke="midnightblue" d="M511.059,-68.4035C534.762,-58.245 574.406,-41.2547 601.583,-29.6074"/>
<polygon fill="midnightblue" stroke="midnightblue" points="603.166,-32.7369 610.979,-25.5806 600.408,-26.3028 603.166,-32.7369"/>
</g>
<!-- Node13 -->
<g id="node13" class="node"><title>Node13</title>
<polygon fill="none" stroke="#bfbfbf" points="743.5,-6.5 743.5,-25.5 784.5,-25.5 784.5,-6.5 743.5,-6.5"/>
<text text-anchor="middle" x="764" y="-13.5" font-family="Helvetica,sans-Serif" font-size="10.00">string</text>
</g>
<!-- Node6&#45;&gt;Node13 -->
<g id="edge12" class="edge"><title>Node6&#45;&gt;Node13</title>
<path fill="none" stroke="midnightblue" d="M549.6,-70.826C599.553,-64.4649 672.775,-52.5191 734,-32 735.863,-31.3755 737.757,-30.6549 739.64,-29.8745"/>
<polygon fill="midnightblue" stroke="midnightblue" points="741.18,-33.0184 748.785,-25.641 738.24,-26.6661 741.18,-33.0184"/>
</g>
<!-- Node14 -->
<g id="node14" class="node"><title>Node14</title>
<g id="a_node14"><a xlink:href="../../d7/df8/Types_8h.html" target="_top" xlink:title="MemoryResources/Types.h">
<polygon fill="none" stroke="black" points="169.5,-6.5 169.5,-25.5 306.5,-25.5 306.5,-6.5 169.5,-6.5"/>
<text text-anchor="middle" x="238" y="-13.5" font-family="Helvetica,sans-Serif" font-size="10.00">MemoryResources/Types.h</text>
</a>
</g>
</g>
<!-- Node6&#45;&gt;Node14 -->
<g id="edge13" class="edge"><title>Node6&#45;&gt;Node14</title>
<path fill="none" stroke="midnightblue" d="M455.02,-68.4672C409.966,-57.7825 332.743,-39.4687 283.595,-27.8129"/>
<polygon fill="midnightblue" stroke="midnightblue" points="284.394,-24.4055 273.856,-25.5034 282.778,-31.2165 284.394,-24.4055"/>
</g>
<!-- Node15&#45;&gt;Node4 -->
<g id="edge16" class="edge"><title>Node15&#45;&gt;Node4</title>
<path fill="none" stroke="midnightblue" d="M355,-180.083C355,-173.006 355,-162.861 355,-153.986"/>
<polygon fill="midnightblue" stroke="midnightblue" points="358.5,-153.751 355,-143.751 351.5,-153.751 358.5,-153.751"/>
</g>
<!-- Node15&#45;&gt;Node6 -->
<g id="edge15" class="edge"><title>Node15&#45;&gt;Node6</title>
<path fill="none" stroke="midnightblue" d="M343.161,-180.379C326.944,-167.523 301.404,-142.824 316,-124 329.286,-106.865 379.248,-95.1146 422.405,-87.9293"/>
<polygon fill="midnightblue" stroke="midnightblue" points="423.027,-91.3744 432.345,-86.333 421.917,-84.4629 423.027,-91.3744"/>
</g>
<!-- Node15&#45;&gt;Node16 -->
<g id="edge17" class="edge"><title>Node15&#45;&gt;Node16</title>
<path fill="none" stroke="midnightblue" d="M383.522,-180.444C417.66,-170.202 474.404,-153.179 507.9,-143.13"/>
<polygon fill="midnightblue" stroke="midnightblue" points="508.925,-146.477 517.498,-140.251 506.914,-139.772 508.925,-146.477"/>
</g>
<!-- Node17 -->
<g id="node17" class="node"><title>Node17</title>
<polygon fill="none" stroke="#bfbfbf" points="803,-6.5 803,-25.5 847,-25.5 847,-6.5 803,-6.5"/>
<text text-anchor="middle" x="825" y="-13.5" font-family="Helvetica,sans-Serif" font-size="10.00">vector</text>
</g>
<!-- Node15&#45;&gt;Node17 -->
<g id="edge18" class="edge"><title>Node15&#45;&gt;Node17</title>
<path fill="none" stroke="midnightblue" d="M373.756,-180.465C402.547,-167.505 459.501,-142.425 509,-124 633.345,-77.7158 669.58,-80.6965 793,-32 794.648,-31.3498 796.331,-30.6554 798.021,-29.9351"/>
<polygon fill="midnightblue" stroke="midnightblue" points="799.876,-32.9392 807.568,-25.6532 797.011,-26.5523 799.876,-32.9392"/>
</g>
<!-- Node18&#45;&gt;Node12 -->
<g id="edge45" class="edge"><title>Node18&#45;&gt;Node12</title>
<path fill="none" stroke="midnightblue" d="M950.904,-236.472C924.121,-229.374 888.183,-217.562 860,-200 819.19,-174.57 819.897,-154.834 783,-124 739.463,-87.6175 684.035,-50.7411 653.583,-31.209"/>
<polygon fill="midnightblue" stroke="midnightblue" points="655.289,-28.1461 644.975,-25.7239 651.527,-34.0495 655.289,-28.1461"/>
</g>
<!-- Node19 -->
<g id="node19" class="node"><title>Node19</title>
<polygon fill="none" stroke="#bfbfbf" points="869,-180.5 869,-199.5 957,-199.5 957,-180.5 869,-180.5"/>
<text text-anchor="middle" x="913" y="-187.5" font-family="Helvetica,sans-Serif" font-size="10.00">FairMQDevice.h</text>
</g>
<!-- Node18&#45;&gt;Node19 -->
<g id="edge20" class="edge"><title>Node18&#45;&gt;Node19</title>
<path fill="none" stroke="midnightblue" d="M976.789,-236.324C965.224,-228.107 947.625,-215.602 933.839,-205.807"/>
<polygon fill="midnightblue" stroke="midnightblue" points="935.612,-202.773 925.433,-199.834 931.557,-208.479 935.612,-202.773"/>
</g>
<!-- Node18&#45;&gt;Node20 -->
<g id="edge21" class="edge"><title>Node18&#45;&gt;Node20</title>
<path fill="none" stroke="midnightblue" d="M1044.62,-236.444C1107.13,-226.826 1208.52,-211.228 1274.73,-201.041"/>
<polygon fill="midnightblue" stroke="midnightblue" points="1275.29,-204.496 1284.64,-199.516 1274.23,-197.578 1275.29,-204.496"/>
</g>
<!-- Node21 -->
<g id="node21" class="node"><title>Node21</title>
<g id="a_node21"><a xlink:href="../../d7/db2/Utilities_8h.html" target="_top" xlink:title="O2Device/Utilities.h">
<polygon fill="none" stroke="black" points="1145,-180.5 1145,-199.5 1249,-199.5 1249,-180.5 1145,-180.5"/>
<text text-anchor="middle" x="1197" y="-187.5" font-family="Helvetica,sans-Serif" font-size="10.00">O2Device/Utilities.h</text>
</a>
</g>
</g>
<!-- Node18&#45;&gt;Node21 -->
<g id="edge22" class="edge"><title>Node18&#45;&gt;Node21</title>
<path fill="none" stroke="midnightblue" d="M1021.96,-236.444C1057.79,-227.142 1115.16,-212.246 1154.39,-202.062"/>
<polygon fill="midnightblue" stroke="midnightblue" points="1155.4,-205.417 1164.2,-199.516 1153.64,-198.642 1155.4,-205.417"/>
</g>
<!-- Node36 -->
<g id="node36" class="node"><title>Node36</title>
<polygon fill="none" stroke="#bfbfbf" points="975.5,-180.5 975.5,-199.5 1126.5,-199.5 1126.5,-180.5 975.5,-180.5"/>
<text text-anchor="middle" x="1051" y="-187.5" font-family="Helvetica,sans-Serif" font-size="10.00">Monitoring/MonitoringFactory.h</text>
</g>
<!-- Node18&#45;&gt;Node36 -->
<g id="edge44" class="edge"><title>Node18&#45;&gt;Node36</title>
<path fill="none" stroke="midnightblue" d="M998.961,-236.324C1008.13,-228.341 1021.94,-216.313 1033.03,-206.653"/>
<polygon fill="midnightblue" stroke="midnightblue" points="1035.62,-209.041 1040.86,-199.834 1031.02,-203.762 1035.62,-209.041"/>
</g>
<!-- Node21&#45;&gt;Node6 -->
<g id="edge38" class="edge"><title>Node21&#45;&gt;Node6</title>
<path fill="none" stroke="midnightblue" d="M1144.72,-180.744C1066.2,-168.353 913.122,-144.241 783,-124 705.263,-111.908 615.86,-98.152 556.674,-89.0668"/>
<polygon fill="midnightblue" stroke="midnightblue" points="557.129,-85.5957 546.714,-87.5381 556.067,-92.5147 557.129,-85.5957"/>
</g>
<!-- Node22 -->
<g id="node22" class="node"><title>Node22</title>
<g id="a_node22"><a xlink:href="../../dc/d03/MemoryResources_8h.html" target="_top" xlink:title="MemoryResources/MemoryResources.h">
<polygon fill="none" stroke="black" points="1377.5,-68.5 1377.5,-87.5 1570.5,-87.5 1570.5,-68.5 1377.5,-68.5"/>
<text text-anchor="middle" x="1474" y="-75.5" font-family="Helvetica,sans-Serif" font-size="10.00">MemoryResources/MemoryResources.h</text>
</a>
</g>
</g>
<!-- Node21&#45;&gt;Node22 -->
<g id="edge23" class="edge"><title>Node21&#45;&gt;Node22</title>
<path fill="none" stroke="midnightblue" d="M1201.91,-180.221C1210.37,-165.976 1229.1,-138.012 1253,-124 1287.34,-103.867 1329.26,-92.628 1367.32,-86.3938"/>
<polygon fill="midnightblue" stroke="midnightblue" points="1368.08,-89.8194 1377.43,-84.8397 1367.01,-82.9008 1368.08,-89.8194"/>
</g>
<!-- Node28 -->
<g id="node28" class="node"><title>Node28</title>
<polygon fill="none" stroke="#bfbfbf" points="2218,-6.5 2218,-25.5 2258,-25.5 2258,-6.5 2218,-6.5"/>
<text text-anchor="middle" x="2238" y="-13.5" font-family="Helvetica,sans-Serif" font-size="10.00">utility</text>
</g>
<!-- Node21&#45;&gt;Node28 -->
<g id="edge42" class="edge"><title>Node21&#45;&gt;Node28</title>
<path fill="none" stroke="midnightblue" d="M1249.33,-181.114C1453.41,-150.334 2185.73,-39.5973 2209,-32 2210.86,-31.393 2212.74,-30.6771 2214.61,-29.8928"/>
<polygon fill="midnightblue" stroke="midnightblue" points="2216.13,-33.0491 2223.65,-25.5876 2213.11,-26.73 2216.13,-33.0491"/>
</g>
<!-- Node34 -->
<g id="node34" class="node"><title>Node34</title>
<g id="a_node34"><a xlink:href="../../d4/d00/Headers_2include_2Headers_2Stack_8h.html" target="_top" xlink:title="Headers/Stack.h">
<polygon fill="none" stroke="black" points="1115,-124.5 1115,-143.5 1205,-143.5 1205,-124.5 1115,-124.5"/>
<text text-anchor="middle" x="1160" y="-131.5" font-family="Helvetica,sans-Serif" font-size="10.00">Headers/Stack.h</text>
</a>
</g>
</g>
<!-- Node21&#45;&gt;Node34 -->
<g id="edge39" class="edge"><title>Node21&#45;&gt;Node34</title>
<path fill="none" stroke="midnightblue" d="M1190.89,-180.083C1185.72,-172.534 1178.15,-161.495 1171.81,-152.23"/>
<polygon fill="midnightblue" stroke="midnightblue" points="1174.54,-150.022 1166,-143.751 1168.76,-153.979 1174.54,-150.022"/>
</g>
<!-- Node35 -->
<g id="node35" class="node"><title>Node35</title>
<polygon fill="none" stroke="#bfbfbf" points="1261.5,-124.5 1261.5,-143.5 1306.5,-143.5 1306.5,-124.5 1261.5,-124.5"/>
<text text-anchor="middle" x="1284" y="-131.5" font-family="Helvetica,sans-Serif" font-size="10.00">gsl/gsl</text>
</g>
<!-- Node21&#45;&gt;Node35 -->
<g id="edge43" class="edge"><title>Node21&#45;&gt;Node35</title>
<path fill="none" stroke="midnightblue" d="M1210.98,-180.324C1224.55,-171.9 1245.38,-158.971 1261.32,-149.074"/>
<polygon fill="midnightblue" stroke="midnightblue" points="1263.41,-151.902 1270.06,-143.655 1259.71,-145.954 1263.41,-151.902"/>
</g>
<!-- Node22&#45;&gt;Node10 -->
<g id="edge28" class="edge"><title>Node22&#45;&gt;Node10</title>
<path fill="none" stroke="midnightblue" d="M1377.29,-75.4789C1205.48,-72.0508 853.89,-61.564 735,-32 732.343,-31.3394 729.637,-30.4702 726.974,-29.4823"/>
<polygon fill="midnightblue" stroke="midnightblue" points="728.261,-26.2265 717.688,-25.5454 725.528,-32.6712 728.261,-26.2265"/>
</g>
<!-- Node22&#45;&gt;Node13 -->
<g id="edge29" class="edge"><title>Node22&#45;&gt;Node13</title>
<path fill="none" stroke="midnightblue" d="M1377.31,-75.3025C1216.49,-71.693 901.123,-61.0555 794,-32 791.808,-31.4055 789.588,-30.644 787.399,-29.7802"/>
<polygon fill="midnightblue" stroke="midnightblue" points="788.733,-26.5412 778.185,-25.539 785.806,-32.8999 788.733,-26.5412"/>
</g>
<!-- Node22&#45;&gt;Node17 -->
<g id="edge32" class="edge"><title>Node22&#45;&gt;Node17</title>
<path fill="none" stroke="midnightblue" d="M1377.44,-69.1126C1372.56,-68.732 1367.72,-68.3592 1363,-68 1137.75,-50.8716 1074.26,-90.2437 856,-32 853.66,-31.3757 851.285,-30.5735 848.944,-29.6653"/>
<polygon fill="midnightblue" stroke="midnightblue" points="850.25,-26.4149 839.693,-25.5197 847.387,-32.8029 850.25,-26.4149"/>
</g>
<!-- Node23 -->
<g id="node23" class="node"><title>Node23</title>
<polygon fill="none" stroke="#bfbfbf" points="865,-1 865,-31 965,-31 965,-1 865,-1"/>
<text text-anchor="start" x="873" y="-19" font-family="Helvetica,sans-Serif" font-size="10.00">boost/container/flat</text>
<text text-anchor="middle" x="915" y="-8" font-family="Helvetica,sans-Serif" font-size="10.00">_map.hpp</text>
</g>
<!-- Node22&#45;&gt;Node23 -->
<g id="edge24" class="edge"><title>Node22&#45;&gt;Node23</title>
<path fill="none" stroke="midnightblue" d="M1377.35,-69.1355C1251.04,-58.7381 1039.27,-40.8524 975.272,-31.8815"/>
<polygon fill="midnightblue" stroke="midnightblue" points="975.512,-28.3772 965.096,-30.314 974.446,-35.2956 975.512,-28.3772"/>
</g>
<!-- Node24 -->
<g id="node24" class="node"><title>Node24</title>
<polygon fill="none" stroke="#bfbfbf" points="983,-1 983,-31 1099,-31 1099,-1 983,-1"/>
<text text-anchor="start" x="991" y="-19" font-family="Helvetica,sans-Serif" font-size="10.00">boost/container/pmr</text>
<text text-anchor="middle" x="1041" y="-8" font-family="Helvetica,sans-Serif" font-size="10.00">/memory_resource.hpp</text>
</g>
<!-- Node22&#45;&gt;Node24 -->
<g id="edge25" class="edge"><title>Node22&#45;&gt;Node24</title>
<path fill="none" stroke="midnightblue" d="M1384.52,-68.4704C1312.59,-61.0416 1208.79,-49.0371 1108.99,-32.0696"/>
<polygon fill="midnightblue" stroke="midnightblue" points="1109.48,-28.6032 1099.04,-30.358 1108.3,-35.502 1109.48,-28.6032"/>
</g>
<!-- Node25 -->
<g id="node25" class="node"><title>Node25</title>
<polygon fill="none" stroke="#bfbfbf" points="1117,-1 1117,-31 1273,-31 1273,-1 1117,-1"/>
<text text-anchor="start" x="1125" y="-19" font-family="Helvetica,sans-Serif" font-size="10.00">boost/container/pmr</text>
<text text-anchor="middle" x="1195" y="-8" font-family="Helvetica,sans-Serif" font-size="10.00">/monotonic_buffer_resource.hpp</text>
</g>
<!-- Node22&#45;&gt;Node25 -->
<g id="edge26" class="edge"><title>Node22&#45;&gt;Node25</title>
<path fill="none" stroke="midnightblue" d="M1434.32,-68.4672C1391.78,-59.3184 1323.23,-44.5763 1270.38,-33.2097"/>
<polygon fill="midnightblue" stroke="midnightblue" points="1270.88,-29.7373 1260.36,-31.0565 1269.4,-36.5808 1270.88,-29.7373"/>
</g>
<!-- Node26 -->
<g id="node26" class="node"><title>Node26</title>
<polygon fill="none" stroke="#bfbfbf" points="1291.5,-1 1291.5,-31 1424.5,-31 1424.5,-1 1291.5,-1"/>
<text text-anchor="start" x="1299.5" y="-19" font-family="Helvetica,sans-Serif" font-size="10.00">boost/container/pmr</text>
<text text-anchor="middle" x="1358" y="-8" font-family="Helvetica,sans-Serif" font-size="10.00">/polymorphic_allocator.hpp</text>
</g>
<!-- Node22&#45;&gt;Node26 -->
<g id="edge27" class="edge"><title>Node22&#45;&gt;Node26</title>
<path fill="none" stroke="midnightblue" d="M1457.38,-68.4035C1441.01,-59.9355 1415.46,-46.7204 1394.37,-35.8101"/>
<polygon fill="midnightblue" stroke="midnightblue" points="1395.83,-32.6263 1385.34,-31.1408 1392.61,-38.8439 1395.83,-32.6263"/>
</g>
<!-- Node27 -->
<g id="node27" class="node"><title>Node27</title>
<polygon fill="none" stroke="#bfbfbf" points="1443,-6.5 1443,-25.5 1505,-25.5 1505,-6.5 1443,-6.5"/>
<text text-anchor="middle" x="1474" y="-13.5" font-family="Helvetica,sans-Serif" font-size="10.00">type_traits</text>
</g>
<!-- Node22&#45;&gt;Node27 -->
<g id="edge30" class="edge"><title>Node22&#45;&gt;Node27</title>
<path fill="none" stroke="midnightblue" d="M1474,-68.4035C1474,-59.9381 1474,-46.7283 1474,-35.8199"/>
<polygon fill="midnightblue" stroke="midnightblue" points="1477.5,-35.5806 1474,-25.5806 1470.5,-35.5806 1477.5,-35.5806"/>
</g>
<!-- Node22&#45;&gt;Node28 -->
<g id="edge31" class="edge"><title>Node22&#45;&gt;Node28</title>
<path fill="none" stroke="midnightblue" d="M1570.67,-76.0313C1741.93,-73.4939 2091.62,-64.3916 2209,-32 2210.97,-31.4572 2212.95,-30.7704 2214.92,-29.9909"/>
<polygon fill="midnightblue" stroke="midnightblue" points="2216.77,-32.9872 2224.32,-25.5576 2213.79,-26.6553 2216.77,-32.9872"/>
</g>
<!-- Node29 -->
<g id="node29" class="node"><title>Node29</title>
<polygon fill="none" stroke="#bfbfbf" points="1523.5,-6.5 1523.5,-25.5 1606.5,-25.5 1606.5,-6.5 1523.5,-6.5"/>
<text text-anchor="middle" x="1565" y="-13.5" font-family="Helvetica,sans-Serif" font-size="10.00">unordered_map</text>
</g>
<!-- Node22&#45;&gt;Node29 -->
<g id="edge33" class="edge"><title>Node22&#45;&gt;Node29</title>
<path fill="none" stroke="midnightblue" d="M1487.04,-68.4035C1501.77,-58.6905 1525.97,-42.7319 1543.51,-31.1697"/>
<polygon fill="midnightblue" stroke="midnightblue" points="1545.56,-34.0072 1551.99,-25.5806 1541.71,-28.1632 1545.56,-34.0072"/>
</g>
<!-- Node30 -->
<g id="node30" class="node"><title>Node30</title>
<polygon fill="none" stroke="#bfbfbf" points="1624.5,-6.5 1624.5,-25.5 1721.5,-25.5 1721.5,-6.5 1624.5,-6.5"/>
<text text-anchor="middle" x="1673" y="-13.5" font-family="Helvetica,sans-Serif" font-size="10.00">FairMQMessage.h</text>
</g>
<!-- Node22&#45;&gt;Node30 -->
<g id="edge34" class="edge"><title>Node22&#45;&gt;Node30</title>
<path fill="none" stroke="midnightblue" d="M1502.51,-68.4035C1537.24,-57.9331 1596.04,-40.2049 1634.69,-28.5501"/>
<polygon fill="midnightblue" stroke="midnightblue" points="1635.98,-31.8184 1644.54,-25.5806 1633.96,-25.1164 1635.98,-31.8184"/>
</g>
<!-- Node31 -->
<g id="node31" class="node"><title>Node31</title>
<polygon fill="none" stroke="#bfbfbf" points="1739.5,-6.5 1739.5,-25.5 1870.5,-25.5 1870.5,-6.5 1739.5,-6.5"/>
<text text-anchor="middle" x="1805" y="-13.5" font-family="Helvetica,sans-Serif" font-size="10.00">FairMQTransportFactory.h</text>
</g>
<!-- Node22&#45;&gt;Node31 -->
<g id="edge35" class="edge"><title>Node22&#45;&gt;Node31</title>
<path fill="none" stroke="midnightblue" d="M1524.58,-68.4681C1576.27,-59.6653 1658.82,-45.3725 1730,-32 1737.62,-30.5692 1745.66,-29.0112 1753.53,-27.4584"/>
<polygon fill="midnightblue" stroke="midnightblue" points="1754.25,-30.8843 1763.38,-25.5042 1752.89,-24.0182 1754.25,-30.8843"/>
</g>
<!-- Node32 -->
<g id="node32" class="node"><title>Node32</title>
<polygon fill="none" stroke="#bfbfbf" points="1888.5,-6.5 1888.5,-25.5 2025.5,-25.5 2025.5,-6.5 1888.5,-6.5"/>
<text text-anchor="middle" x="1957" y="-13.5" font-family="Helvetica,sans-Serif" font-size="10.00">fairmq/MemoryResources.h</text>
</g>
<!-- Node22&#45;&gt;Node32 -->
<g id="edge36" class="edge"><title>Node22&#45;&gt;Node32</title>
<path fill="none" stroke="midnightblue" d="M1570.02,-68.4955C1652.26,-60.6948 1773.73,-47.9449 1879,-32 1887.72,-30.6796 1896.95,-29.0831 1905.89,-27.4308"/>
<polygon fill="midnightblue" stroke="midnightblue" points="1906.64,-30.8504 1915.82,-25.5532 1905.34,-23.9723 1906.64,-30.8504"/>
</g>
<!-- Node33 -->
<g id="node33" class="node"><title>Node33</title>
<polygon fill="none" stroke="#bfbfbf" points="2044,-6.5 2044,-25.5 2200,-25.5 2200,-6.5 2044,-6.5"/>
<text text-anchor="middle" x="2122" y="-13.5" font-family="Helvetica,sans-Serif" font-size="10.00">fairmq/MemoryResourceTools.h</text>
</g>
<!-- Node22&#45;&gt;Node33 -->
<g id="edge37" class="edge"><title>Node22&#45;&gt;Node33</title>
<path fill="none" stroke="midnightblue" d="M1570.63,-71.8439C1682.46,-65.273 1872.01,-52.2735 2034,-32 2044.49,-30.6873 2055.63,-29.0094 2066.34,-27.254"/>
<polygon fill="midnightblue" stroke="midnightblue" points="2067.16,-30.6661 2076.44,-25.5567 2066,-23.7629 2067.16,-30.6661"/>
</g>
<!-- Node34&#45;&gt;Node6 -->
<g id="edge41" class="edge"><title>Node34&#45;&gt;Node6</title>
<path fill="none" stroke="midnightblue" d="M1114.8,-129.352C1000.09,-120.092 697.04,-95.6311 560.014,-84.5706"/>
<polygon fill="midnightblue" stroke="midnightblue" points="559.898,-81.05 549.649,-83.734 559.335,-88.0273 559.898,-81.05"/>
</g>
<!-- Node34&#45;&gt;Node22 -->
<g id="edge40" class="edge"><title>Node34&#45;&gt;Node22</title>
<path fill="none" stroke="midnightblue" d="M1205.32,-125.206C1260.39,-115.735 1353.46,-99.729 1414.32,-89.2631"/>
<polygon fill="midnightblue" stroke="midnightblue" points="1415.28,-92.649 1424.55,-87.5047 1414.1,-85.7503 1415.28,-92.649"/>
</g>
<!-- Node37&#45;&gt;Node4 -->
<g id="edge50" class="edge"><title>Node37&#45;&gt;Node4</title>
<path fill="none" stroke="midnightblue" d="M580.535,-180.444C529.551,-170.171 444.703,-153.075 394.892,-143.038"/>
<polygon fill="midnightblue" stroke="midnightblue" points="395.314,-139.553 384.82,-141.008 393.931,-146.415 395.314,-139.553"/>
</g>
<!-- Node37&#45;&gt;Node7 -->
<g id="edge48" class="edge"><title>Node37&#45;&gt;Node7</title>
<path fill="none" stroke="midnightblue" d="M619.447,-180.413C615.739,-171.387 609.809,-156.755 605,-144 590.48,-105.486 574.661,-59.916 566.188,-35.186"/>
<polygon fill="midnightblue" stroke="midnightblue" points="569.481,-33.999 562.937,-25.6667 562.857,-36.2612 569.481,-33.999"/>
</g>
<!-- Node37&#45;&gt;Node10 -->
<g id="edge51" class="edge"><title>Node37&#45;&gt;Node10</title>
<path fill="none" stroke="midnightblue" d="M624.307,-180.338C626.405,-167.638 631.11,-143.374 639,-124 652.749,-90.2389 675.823,-54.3924 689.904,-33.9466"/>
<polygon fill="midnightblue" stroke="midnightblue" points="692.809,-35.8992 695.674,-25.6991 687.074,-31.8861 692.809,-35.8992"/>
</g>
<!-- Node37&#45;&gt;Node16 -->
<g id="edge47" class="edge"><title>Node37&#45;&gt;Node16</title>
<path fill="none" stroke="midnightblue" d="M608.861,-180.324C595.134,-171.9 574.064,-158.971 557.936,-149.074"/>
<polygon fill="midnightblue" stroke="midnightblue" points="559.457,-145.902 549.104,-143.655 555.796,-151.868 559.457,-145.902"/>
</g>
<!-- Node37&#45;&gt;Node17 -->
<g id="edge49" class="edge"><title>Node37&#45;&gt;Node17</title>
<path fill="none" stroke="midnightblue" d="M690.898,-184.378C722.468,-178.925 758.385,-167.526 783,-144 813.408,-114.937 821.812,-63.4252 824.127,-35.7789"/>
<polygon fill="midnightblue" stroke="midnightblue" points="827.637,-35.7325 824.792,-25.5267 820.652,-35.2789 827.637,-35.7325"/>
</g>
<!-- Node38 -->
<g id="node38" class="node"><title>Node38</title>
<polygon fill="none" stroke="#bfbfbf" points="647.5,-124.5 647.5,-143.5 774.5,-143.5 774.5,-124.5 647.5,-124.5"/>
<text text-anchor="middle" x="711" y="-131.5" font-family="Helvetica,sans-Serif" font-size="10.00">fairmq/FairMQMessage.h</text>
</g>
<!-- Node37&#45;&gt;Node38 -->
<g id="edge52" class="edge"><title>Node37&#45;&gt;Node38</title>
<path fill="none" stroke="midnightblue" d="M637.139,-180.324C650.866,-171.9 671.936,-158.971 688.064,-149.074"/>
<polygon fill="midnightblue" stroke="midnightblue" points="690.204,-151.868 696.896,-143.655 686.543,-145.902 690.204,-151.868"/>
</g>
<!-- Node39&#45;&gt;Node15 -->
<g id="edge56" class="edge"><title>Node39&#45;&gt;Node15</title>
<path fill="none" stroke="midnightblue" d="M284.496,-236.324C297.6,-227.9 317.712,-214.971 333.107,-205.074"/>
<polygon fill="midnightblue" stroke="midnightblue" points="335.018,-208.006 341.537,-199.655 331.233,-202.118 335.018,-208.006"/>
</g>
<!-- Node40 -->
<g id="node40" class="node"><title>Node40</title>
<polygon fill="none" stroke="#bfbfbf" points="164,-180.5 164,-199.5 202,-199.5 202,-180.5 164,-180.5"/>
<text text-anchor="middle" x="183" y="-187.5" font-family="Helvetica,sans-Serif" font-size="10.00">tuple</text>
</g>
<!-- Node39&#45;&gt;Node40 -->
<g id="edge54" class="edge"><title>Node39&#45;&gt;Node40</title>
<path fill="none" stroke="midnightblue" d="M256.861,-236.324C243.134,-227.9 222.064,-214.971 205.936,-205.074"/>
<polygon fill="midnightblue" stroke="midnightblue" points="207.457,-201.902 197.104,-199.655 203.796,-207.868 207.457,-201.902"/>
</g>
<!-- Node41 -->
<g id="node41" class="node"><title>Node41</title>
<polygon fill="none" stroke="#bfbfbf" points="220.5,-180.5 220.5,-199.5 269.5,-199.5 269.5,-180.5 220.5,-180.5"/>
<text text-anchor="middle" x="245" y="-187.5" font-family="Helvetica,sans-Serif" font-size="10.00">cstddef</text>
</g>
<!-- Node39&#45;&gt;Node41 -->
<g id="edge55" class="edge"><title>Node39&#45;&gt;Node41</title>
<path fill="none" stroke="midnightblue" d="M266.707,-236.083C263.148,-228.691 257.978,-217.953 253.576,-208.811"/>
<polygon fill="midnightblue" stroke="midnightblue" points="256.705,-207.243 249.213,-199.751 250.398,-210.279 256.705,-207.243"/>
</g>
<!-- Node42&#45;&gt;Node17 -->
<g id="edge61" class="edge"><title>Node42&#45;&gt;Node17</title>
<path fill="none" stroke="midnightblue" d="M1389.01,-236.48C1407.1,-224.347 1434.84,-201.206 1422,-180 1394.21,-134.082 1365.6,-141.899 1315,-124 1118.85,-54.6176 1053.22,-98.2843 856,-32 854.087,-31.3571 852.14,-30.6231 850.201,-29.833"/>
<polygon fill="midnightblue" stroke="midnightblue" points="851.32,-26.4986 840.766,-25.5793 848.443,-32.8801 851.32,-26.4986"/>
</g>
</g>
</svg>
