<?xml version="1.0" encoding="UTF-8" standalone="no"?>
<!DOCTYPE svg PUBLIC "-//W3C//DTD SVG 1.1//EN"
 "http://www.w3.org/Graphics/SVG/1.1/DTD/svg11.dtd">
<!-- Generated by graphviz version 2.36.0 (20140111.2315)
 -->
<!-- Title: /home/travis/build/AliceO2Group/AliceO2/Framework/Core/include/Framework/ForwardRoute.h Pages: 1 -->
<svg width="2095pt" height="378pt"
 viewBox="0.00 0.00 2095.00 378.00" xmlns="http://www.w3.org/2000/svg" xmlns:xlink="http://www.w3.org/1999/xlink">
<g id="graph0" class="graph" transform="scale(1 1) rotate(0) translate(4 374)">
<title>/home/travis/build/AliceO2Group/AliceO2/Framework/Core/include/Framework/ForwardRoute.h</title>
<!-- Node1 -->
<g id="node1" class="node"><title>Node1</title>
<polygon fill="#bfbfbf" stroke="black" points="727.5,-317 727.5,-369 868.5,-369 868.5,-317 727.5,-317"/>
<text text-anchor="start" x="735.5" y="-357" font-family="Helvetica,sans-Serif" font-size="10.00">/home/travis/build</text>
<text text-anchor="start" x="735.5" y="-346" font-family="Helvetica,sans-Serif" font-size="10.00">/AliceO2Group/AliceO2</text>
<text text-anchor="start" x="735.5" y="-335" font-family="Helvetica,sans-Serif" font-size="10.00">/Framework/Core/include</text>
<text text-anchor="middle" x="798" y="-324" font-family="Helvetica,sans-Serif" font-size="10.00">/Framework/ForwardRoute.h</text>
</g>
<!-- Node2 -->
<g id="node2" class="node"><title>Node2</title>
<g id="a_node2"><a xlink:href="../../d5/d3f/InputSpec_8h.html" target="_top" xlink:title="Framework/InputSpec.h">
<polygon fill="none" stroke="black" points="737.5,-260.5 737.5,-279.5 858.5,-279.5 858.5,-260.5 737.5,-260.5"/>
<text text-anchor="middle" x="798" y="-267.5" font-family="Helvetica,sans-Serif" font-size="10.00">Framework/InputSpec.h</text>
</a>
</g>
</g>
<!-- Node1&#45;&gt;Node2 -->
<g id="edge1" class="edge"><title>Node1&#45;&gt;Node2</title>
<path fill="none" stroke="midnightblue" d="M798,-316.768C798,-307.89 798,-298.074 798,-289.816"/>
<polygon fill="midnightblue" stroke="midnightblue" points="801.5,-289.757 798,-279.757 794.5,-289.757 801.5,-289.757"/>
</g>
<!-- Node12 -->
<g id="node12" class="node"><title>Node12</title>
<polygon fill="none" stroke="#bfbfbf" points="508.5,-6.5 508.5,-25.5 549.5,-25.5 549.5,-6.5 508.5,-6.5"/>
<text text-anchor="middle" x="529" y="-13.5" font-family="Helvetica,sans-Serif" font-size="10.00">string</text>
</g>
<!-- Node1&#45;&gt;Node12 -->
<g id="edge49" class="edge"><title>Node1&#45;&gt;Node12</title>
<path fill="none" stroke="midnightblue" d="M761.936,-316.975C749.589,-306.788 736.707,-294.085 728,-280 710.823,-252.215 709,-241.666 709,-209 709,-209 709,-209 709,-139 709,-57.11 632.443,-68.2237 559,-32 557.825,-31.4204 556.625,-30.8269 555.413,-30.2263"/>
<polygon fill="midnightblue" stroke="midnightblue" points="556.63,-26.9224 546.118,-25.599 553.51,-33.1888 556.63,-26.9224"/>
</g>
<!-- Node35 -->
<g id="node35" class="node"><title>Node35</title>
<polygon fill="none" stroke="#bfbfbf" points="876.5,-260.5 876.5,-279.5 925.5,-279.5 925.5,-260.5 876.5,-260.5"/>
<text text-anchor="middle" x="901" y="-267.5" font-family="Helvetica,sans-Serif" font-size="10.00">cstddef</text>
</g>
<!-- Node1&#45;&gt;Node35 -->
<g id="edge48" class="edge"><title>Node1&#45;&gt;Node35</title>
<path fill="none" stroke="midnightblue" d="M834.314,-316.968C849.561,-306.458 866.758,-294.603 879.87,-285.565"/>
<polygon fill="midnightblue" stroke="midnightblue" points="881.973,-288.367 888.22,-279.81 878,-282.603 881.973,-288.367"/>
</g>
<!-- Node3 -->
<g id="node3" class="node"><title>Node3</title>
<g id="a_node3"><a xlink:href="../../dc/dca/Lifetime_8h.html" target="_top" xlink:title="Framework/Lifetime.h">
<polygon fill="none" stroke="black" points="807.5,-198.5 807.5,-217.5 918.5,-217.5 918.5,-198.5 807.5,-198.5"/>
<text text-anchor="middle" x="863" y="-205.5" font-family="Helvetica,sans-Serif" font-size="10.00">Framework/Lifetime.h</text>
</a>
</g>
</g>
<!-- Node2&#45;&gt;Node3 -->
<g id="edge2" class="edge"><title>Node2&#45;&gt;Node3</title>
<path fill="none" stroke="midnightblue" d="M807.313,-260.403C817.449,-251.047 833.864,-235.895 846.252,-224.46"/>
<polygon fill="midnightblue" stroke="midnightblue" points="848.73,-226.935 853.704,-217.581 843.982,-221.792 848.73,-226.935"/>
</g>
<!-- Node4 -->
<g id="node4" class="node"><title>Node4</title>
<g id="a_node4"><a xlink:href="../../d0/d1b/ConcreteDataMatcher_8h.html" target="_top" xlink:title="Framework/ConcreteDataMatcher.h">
<polygon fill="none" stroke="black" points="361.5,-130.5 361.5,-149.5 534.5,-149.5 534.5,-130.5 361.5,-130.5"/>
<text text-anchor="middle" x="448" y="-137.5" font-family="Helvetica,sans-Serif" font-size="10.00">Framework/ConcreteDataMatcher.h</text>
</a>
</g>
</g>
<!-- Node2&#45;&gt;Node4 -->
<g id="edge3" class="edge"><title>Node2&#45;&gt;Node4</title>
<path fill="none" stroke="midnightblue" d="M774.492,-260.403C713.72,-238.178 551.271,-178.768 481.071,-153.094"/>
<polygon fill="midnightblue" stroke="midnightblue" points="481.999,-149.707 471.406,-149.56 479.595,-156.282 481.999,-149.707"/>
</g>
<!-- Node2&#45;&gt;Node12 -->
<g id="edge45" class="edge"><title>Node2&#45;&gt;Node12</title>
<path fill="none" stroke="midnightblue" d="M840.684,-260.467C879.409,-251.994 932.84,-238.244 949,-224 983.809,-193.318 1008.09,-160.151 979,-124 859.203,24.879 739.176,-95.6629 559,-32 557.147,-31.3453 555.261,-30.6024 553.383,-29.8062"/>
<polygon fill="midnightblue" stroke="midnightblue" points="554.792,-26.6011 544.25,-25.5393 551.829,-32.9431 554.792,-26.6011"/>
</g>
<!-- Node14 -->
<g id="node14" class="node"><title>Node14</title>
<g id="a_node14"><a xlink:href="../../d3/da3/DataDescriptorMatcher_8h.html" target="_top" xlink:title="Framework/DataDescriptor\lMatcher.h">
<polygon fill="none" stroke="black" points="381,-193 381,-223 515,-223 515,-193 381,-193"/>
<text text-anchor="start" x="389" y="-211" font-family="Helvetica,sans-Serif" font-size="10.00">Framework/DataDescriptor</text>
<text text-anchor="middle" x="448" y="-200" font-family="Helvetica,sans-Serif" font-size="10.00">Matcher.h</text>
</a>
</g>
</g>
<!-- Node2&#45;&gt;Node14 -->
<g id="edge13" class="edge"><title>Node2&#45;&gt;Node14</title>
<path fill="none" stroke="midnightblue" d="M748.225,-260.467C690.153,-250.512 593.446,-233.934 525.516,-222.288"/>
<polygon fill="midnightblue" stroke="midnightblue" points="525.739,-218.776 515.291,-220.536 524.556,-225.675 525.739,-218.776"/>
</g>
<!-- Node33 -->
<g id="node33" class="node"><title>Node33</title>
<polygon fill="none" stroke="#bfbfbf" points="924,-130.5 924,-149.5 970,-149.5 970,-130.5 924,-130.5"/>
<text text-anchor="middle" x="947" y="-137.5" font-family="Helvetica,sans-Serif" font-size="10.00">variant</text>
</g>
<!-- Node2&#45;&gt;Node33 -->
<g id="edge47" class="edge"><title>Node2&#45;&gt;Node33</title>
<path fill="none" stroke="midnightblue" d="M858.597,-260.743C882.969,-254.47 909.408,-243.429 927,-224 942.9,-206.439 946.742,-178.453 947.385,-159.905"/>
<polygon fill="midnightblue" stroke="midnightblue" points="950.886,-159.776 947.451,-149.753 943.886,-159.73 950.886,-159.776"/>
</g>
<!-- Node34 -->
<g id="node34" class="node"><title>Node34</title>
<polygon fill="none" stroke="#bfbfbf" points="737,-198.5 737,-217.5 789,-217.5 789,-198.5 737,-198.5"/>
<text text-anchor="middle" x="763" y="-205.5" font-family="Helvetica,sans-Serif" font-size="10.00">ostream</text>
</g>
<!-- Node2&#45;&gt;Node34 -->
<g id="edge46" class="edge"><title>Node2&#45;&gt;Node34</title>
<path fill="none" stroke="midnightblue" d="M792.985,-260.403C787.839,-251.582 779.688,-237.608 773.182,-226.455"/>
<polygon fill="midnightblue" stroke="midnightblue" points="776.067,-224.455 768.005,-217.581 770.021,-227.982 776.067,-224.455"/>
</g>
<!-- Node5 -->
<g id="node5" class="node"><title>Node5</title>
<g id="a_node5"><a xlink:href="../../dc/dcd/DataHeader_8h.html" target="_top" xlink:title="Headers/DataHeader.h">
<polygon fill="none" stroke="black" points="262.5,-68.5 262.5,-87.5 379.5,-87.5 379.5,-68.5 262.5,-68.5"/>
<text text-anchor="middle" x="321" y="-75.5" font-family="Helvetica,sans-Serif" font-size="10.00">Headers/DataHeader.h</text>
</a>
</g>
</g>
<!-- Node4&#45;&gt;Node5 -->
<g id="edge4" class="edge"><title>Node4&#45;&gt;Node5</title>
<path fill="none" stroke="midnightblue" d="M429.804,-130.403C408.491,-120.334 372.969,-103.552 348.337,-91.9151"/>
<polygon fill="midnightblue" stroke="midnightblue" points="349.699,-88.6877 339.162,-87.5806 346.709,-95.0169 349.699,-88.6877"/>
</g>
<!-- Node6 -->
<g id="node6" class="node"><title>Node6</title>
<polygon fill="none" stroke="#bfbfbf" points="0,-6.5 0,-25.5 46,-25.5 46,-6.5 0,-6.5"/>
<text text-anchor="middle" x="23" y="-13.5" font-family="Helvetica,sans-Serif" font-size="10.00">cstdint</text>
</g>
<!-- Node5&#45;&gt;Node6 -->
<g id="edge5" class="edge"><title>Node5&#45;&gt;Node6</title>
<path fill="none" stroke="midnightblue" d="M262.342,-71.6859C207.723,-65.6639 124.514,-53.729 55,-32 52.7271,-31.2895 50.4078,-30.4497 48.1085,-29.536"/>
<polygon fill="midnightblue" stroke="midnightblue" points="49.5019,-26.3254 38.9387,-25.5072 46.6861,-32.7341 49.5019,-26.3254"/>
</g>
<!-- Node7 -->
<g id="node7" class="node"><title>Node7</title>
<polygon fill="none" stroke="#bfbfbf" points="64,-6.5 64,-25.5 116,-25.5 116,-6.5 64,-6.5"/>
<text text-anchor="middle" x="90" y="-13.5" font-family="Helvetica,sans-Serif" font-size="10.00">memory</text>
</g>
<!-- Node5&#45;&gt;Node7 -->
<g id="edge6" class="edge"><title>Node5&#45;&gt;Node7</title>
<path fill="none" stroke="midnightblue" d="M272.821,-68.4416C232.739,-60.7287 174.456,-48.131 125,-32 122.58,-31.2108 120.097,-30.3197 117.623,-29.3752"/>
<polygon fill="midnightblue" stroke="midnightblue" points="118.872,-26.1045 108.29,-25.5705 116.229,-32.5865 118.872,-26.1045"/>
</g>
<!-- Node8 -->
<g id="node8" class="node"><title>Node8</title>
<polygon fill="none" stroke="#bfbfbf" points="134.5,-6.5 134.5,-25.5 183.5,-25.5 183.5,-6.5 134.5,-6.5"/>
<text text-anchor="middle" x="159" y="-13.5" font-family="Helvetica,sans-Serif" font-size="10.00">cassert</text>
</g>
<!-- Node5&#45;&gt;Node8 -->
<g id="edge7" class="edge"><title>Node5&#45;&gt;Node8</title>
<path fill="none" stroke="midnightblue" d="M294.795,-68.4492C268.769,-59.8018 227.826,-45.7801 193,-32 191.11,-31.2523 189.171,-30.4614 187.222,-29.6494"/>
<polygon fill="midnightblue" stroke="midnightblue" points="188.166,-26.2453 177.596,-25.5146 185.403,-32.6771 188.166,-26.2453"/>
</g>
<!-- Node9 -->
<g id="node9" class="node"><title>Node9</title>
<polygon fill="none" stroke="#bfbfbf" points="568,-6.5 568,-25.5 614,-25.5 614,-6.5 568,-6.5"/>
<text text-anchor="middle" x="591" y="-13.5" font-family="Helvetica,sans-Serif" font-size="10.00">cstring</text>
</g>
<!-- Node5&#45;&gt;Node9 -->
<g id="edge8" class="edge"><title>Node5&#45;&gt;Node9</title>
<path fill="none" stroke="midnightblue" d="M379.915,-69.8058C428.463,-62.9334 498.717,-50.8027 558,-32 560.278,-31.2776 562.606,-30.4395 564.919,-29.536"/>
<polygon fill="midnightblue" stroke="midnightblue" points="566.356,-32.7279 574.178,-25.5817 563.607,-26.2903 566.356,-32.7279"/>
</g>
<!-- Node10 -->
<g id="node10" class="node"><title>Node10</title>
<polygon fill="none" stroke="#bfbfbf" points="202,-6.5 202,-25.5 258,-25.5 258,-6.5 202,-6.5"/>
<text text-anchor="middle" x="230" y="-13.5" font-family="Helvetica,sans-Serif" font-size="10.00">algorithm</text>
</g>
<!-- Node5&#45;&gt;Node10 -->
<g id="edge9" class="edge"><title>Node5&#45;&gt;Node10</title>
<path fill="none" stroke="midnightblue" d="M307.962,-68.4035C293.231,-58.6905 269.027,-42.7319 251.491,-31.1697"/>
<polygon fill="midnightblue" stroke="midnightblue" points="253.289,-28.1632 243.014,-25.5806 249.436,-34.0072 253.289,-28.1632"/>
</g>
<!-- Node11 -->
<g id="node11" class="node"><title>Node11</title>
<polygon fill="none" stroke="#bfbfbf" points="276.5,-6.5 276.5,-25.5 335.5,-25.5 335.5,-6.5 276.5,-6.5"/>
<text text-anchor="middle" x="306" y="-13.5" font-family="Helvetica,sans-Serif" font-size="10.00">stdexcept</text>
</g>
<!-- Node5&#45;&gt;Node11 -->
<g id="edge10" class="edge"><title>Node5&#45;&gt;Node11</title>
<path fill="none" stroke="midnightblue" d="M318.851,-68.4035C316.712,-59.849 313.362,-46.4497 310.619,-35.4762"/>
<polygon fill="midnightblue" stroke="midnightblue" points="313.966,-34.4331 308.145,-25.5806 307.175,-36.1309 313.966,-34.4331"/>
</g>
<!-- Node5&#45;&gt;Node12 -->
<g id="edge11" class="edge"><title>Node5&#45;&gt;Node12</title>
<path fill="none" stroke="midnightblue" d="M366.069,-68.4235C402.549,-60.8151 454.926,-48.3701 499,-32 500.651,-31.3867 502.331,-30.7089 504.01,-29.9904"/>
<polygon fill="midnightblue" stroke="midnightblue" points="505.829,-33.0035 513.404,-25.596 502.863,-26.6629 505.829,-33.0035"/>
</g>
<!-- Node13 -->
<g id="node13" class="node"><title>Node13</title>
<g id="a_node13"><a xlink:href="../../d7/df8/Types_8h.html" target="_top" xlink:title="MemoryResources/Types.h">
<polygon fill="none" stroke="black" points="353.5,-6.5 353.5,-25.5 490.5,-25.5 490.5,-6.5 353.5,-6.5"/>
<text text-anchor="middle" x="422" y="-13.5" font-family="Helvetica,sans-Serif" font-size="10.00">MemoryResources/Types.h</text>
</a>
</g>
</g>
<!-- Node5&#45;&gt;Node13 -->
<g id="edge12" class="edge"><title>Node5&#45;&gt;Node13</title>
<path fill="none" stroke="midnightblue" d="M335.471,-68.4035C352.046,-58.5569 379.426,-42.2915 398.947,-30.6949"/>
<polygon fill="midnightblue" stroke="midnightblue" points="400.746,-33.6971 407.556,-25.5806 397.171,-27.6789 400.746,-33.6971"/>
</g>
<!-- Node14&#45;&gt;Node4 -->
<g id="edge14" class="edge"><title>Node14&#45;&gt;Node4</title>
<path fill="none" stroke="midnightblue" d="M448,-192.679C448,-183.101 448,-170.394 448,-159.977"/>
<polygon fill="midnightblue" stroke="midnightblue" points="451.5,-159.828 448,-149.828 444.5,-159.828 451.5,-159.828"/>
</g>
<!-- Node14&#45;&gt;Node5 -->
<g id="edge21" class="edge"><title>Node14&#45;&gt;Node5</title>
<path fill="none" stroke="midnightblue" d="M407.371,-192.951C388.454,-184.685 366.894,-172.556 352,-156 336.978,-139.302 328.757,-114.395 324.624,-97.4639"/>
<polygon fill="midnightblue" stroke="midnightblue" points="328.033,-96.6713 322.468,-87.656 321.196,-98.1743 328.033,-96.6713"/>
</g>
<!-- Node14&#45;&gt;Node6 -->
<g id="edge40" class="edge"><title>Node14&#45;&gt;Node6</title>
<path fill="none" stroke="midnightblue" d="M380.709,-203.148C270.561,-196.185 61.581,-179.968 38,-156 6.45252,-123.935 12.72,-65.4505 18.5851,-35.6017"/>
<polygon fill="midnightblue" stroke="midnightblue" points="22.0381,-36.1929 20.7335,-25.6787 15.1966,-34.7116 22.0381,-36.1929"/>
</g>
<!-- Node14&#45;&gt;Node12 -->
<g id="edge42" class="edge"><title>Node14&#45;&gt;Node12</title>
<path fill="none" stroke="midnightblue" d="M515.032,-199.148C567.784,-191.427 635.122,-177.617 652,-156 660.753,-144.79 657.896,-136.943 652,-124 632.203,-80.5379 585.065,-47.8835 555.23,-30.6718"/>
<polygon fill="midnightblue" stroke="midnightblue" points="556.645,-27.4533 546.208,-25.6321 553.232,-33.5645 556.645,-27.4533"/>
</g>
<!-- Node15 -->
<g id="node15" class="node"><title>Node15</title>
<g id="a_node15"><a xlink:href="../../d6/dc9/DataProcessingHeader_8h.html" target="_top" xlink:title="Framework/DataProcessing\lHeader.h">
<polygon fill="none" stroke="black" points="47,-125 47,-155 185,-155 185,-125 47,-125"/>
<text text-anchor="start" x="55" y="-143" font-family="Helvetica,sans-Serif" font-size="10.00">Framework/DataProcessing</text>
<text text-anchor="middle" x="116" y="-132" font-family="Helvetica,sans-Serif" font-size="10.00">Header.h</text>
</a>
</g>
</g>
<!-- Node14&#45;&gt;Node15 -->
<g id="edge15" class="edge"><title>Node14&#45;&gt;Node15</title>
<path fill="none" stroke="midnightblue" d="M380.815,-193.644C327.102,-182.966 251.689,-167.974 195.07,-156.719"/>
<polygon fill="midnightblue" stroke="midnightblue" points="195.574,-153.251 185.084,-154.733 194.209,-160.116 195.574,-153.251"/>
</g>
<!-- Node17 -->
<g id="node17" class="node"><title>Node17</title>
<g id="a_node17"><a xlink:href="../../d4/d00/Headers_2include_2Headers_2Stack_8h.html" target="_top" xlink:title="Headers/Stack.h">
<polygon fill="none" stroke="black" points="553,-130.5 553,-149.5 643,-149.5 643,-130.5 553,-130.5"/>
<text text-anchor="middle" x="598" y="-137.5" font-family="Helvetica,sans-Serif" font-size="10.00">Headers/Stack.h</text>
</a>
</g>
</g>
<!-- Node14&#45;&gt;Node17 -->
<g id="edge22" class="edge"><title>Node14&#45;&gt;Node17</title>
<path fill="none" stroke="midnightblue" d="M480.179,-192.841C506.473,-181.272 543.328,-165.055 568.785,-153.855"/>
<polygon fill="midnightblue" stroke="midnightblue" points="570.525,-156.913 578.268,-149.682 567.706,-150.506 570.525,-156.913"/>
</g>
<!-- Node25 -->
<g id="node25" class="node"><title>Node25</title>
<polygon fill="none" stroke="#bfbfbf" points="2043,-6.5 2043,-25.5 2087,-25.5 2087,-6.5 2043,-6.5"/>
<text text-anchor="middle" x="2065" y="-13.5" font-family="Helvetica,sans-Serif" font-size="10.00">vector</text>
</g>
<!-- Node14&#45;&gt;Node25 -->
<g id="edge44" class="edge"><title>Node14&#45;&gt;Node25</title>
<path fill="none" stroke="midnightblue" d="M515.363,-192.977C605.862,-174.609 771.886,-142.565 915,-124 1409.43,-59.8633 1551.22,-160.279 2033,-32 2035.35,-31.374 2037.74,-30.5819 2040.1,-29.6904"/>
<polygon fill="midnightblue" stroke="midnightblue" points="2041.68,-32.8201 2049.47,-25.6353 2038.9,-26.3962 2041.68,-32.8201"/>
</g>
<!-- Node31 -->
<g id="node31" class="node"><title>Node31</title>
<polygon fill="none" stroke="#bfbfbf" points="203,-130.5 203,-149.5 241,-149.5 241,-130.5 203,-130.5"/>
<text text-anchor="middle" x="222" y="-137.5" font-family="Helvetica,sans-Serif" font-size="10.00">array</text>
</g>
<!-- Node14&#45;&gt;Node31 -->
<g id="edge39" class="edge"><title>Node14&#45;&gt;Node31</title>
<path fill="none" stroke="midnightblue" d="M380.747,-193.885C341.829,-185.263 292.329,-172.513 250,-156 248.587,-155.449 247.155,-154.843 245.723,-154.201"/>
<polygon fill="midnightblue" stroke="midnightblue" points="247.021,-150.937 236.508,-149.622 243.906,-157.206 247.021,-150.937"/>
</g>
<!-- Node32 -->
<g id="node32" class="node"><title>Node32</title>
<polygon fill="none" stroke="#bfbfbf" points="259.5,-130.5 259.5,-149.5 304.5,-149.5 304.5,-130.5 259.5,-130.5"/>
<text text-anchor="middle" x="282" y="-137.5" font-family="Helvetica,sans-Serif" font-size="10.00">iosfwd</text>
</g>
<!-- Node14&#45;&gt;Node32 -->
<g id="edge41" class="edge"><title>Node14&#45;&gt;Node32</title>
<path fill="none" stroke="midnightblue" d="M412.1,-192.903C386.201,-182.71 350.412,-168.576 319,-156 316.909,-155.163 314.752,-154.296 312.58,-153.422"/>
<polygon fill="midnightblue" stroke="midnightblue" points="313.702,-150.1 303.119,-149.599 311.079,-156.59 313.702,-150.1"/>
</g>
<!-- Node14&#45;&gt;Node33 -->
<g id="edge43" class="edge"><title>Node14&#45;&gt;Node33</title>
<path fill="none" stroke="midnightblue" d="M515.2,-205.352C606.047,-201.824 772.501,-190.751 910,-156 913.06,-155.227 916.202,-154.254 919.299,-153.177"/>
<polygon fill="midnightblue" stroke="midnightblue" points="920.807,-156.348 928.891,-149.5 918.301,-149.812 920.807,-156.348"/>
</g>
<!-- Node15&#45;&gt;Node5 -->
<g id="edge16" class="edge"><title>Node15&#45;&gt;Node5</title>
<path fill="none" stroke="midnightblue" d="M164.063,-124.933C199.992,-114.417 248.491,-100.222 282.02,-90.4087"/>
<polygon fill="midnightblue" stroke="midnightblue" points="283.301,-93.6808 291.915,-87.5127 281.334,-86.9627 283.301,-93.6808"/>
</g>
<!-- Node15&#45;&gt;Node6 -->
<g id="edge17" class="edge"><title>Node15&#45;&gt;Node6</title>
<path fill="none" stroke="midnightblue" d="M104.966,-124.526C87.6448,-101.803 54.1575,-57.8733 35.802,-33.794"/>
<polygon fill="midnightblue" stroke="midnightblue" points="38.4191,-31.4538 29.5732,-25.6228 32.8521,-35.6975 38.4191,-31.4538"/>
</g>
<!-- Node15&#45;&gt;Node7 -->
<g id="edge19" class="edge"><title>Node15&#45;&gt;Node7</title>
<path fill="none" stroke="midnightblue" d="M112.915,-124.526C108.179,-102.303 99.1209,-59.7982 93.9242,-35.4136"/>
<polygon fill="midnightblue" stroke="midnightblue" points="97.3452,-34.6737 91.8377,-25.6228 90.4989,-36.1328 97.3452,-34.6737"/>
</g>
<!-- Node15&#45;&gt;Node8 -->
<g id="edge20" class="edge"><title>Node15&#45;&gt;Node8</title>
<path fill="none" stroke="midnightblue" d="M121.102,-124.526C128.969,-102.203 144.05,-59.4149 152.626,-35.0852"/>
<polygon fill="midnightblue" stroke="midnightblue" points="155.938,-36.2177 155.961,-25.6228 149.336,-33.8907 155.938,-36.2177"/>
</g>
<!-- Node16 -->
<g id="node16" class="node"><title>Node16</title>
<polygon fill="none" stroke="#bfbfbf" points="161.5,-68.5 161.5,-87.5 204.5,-87.5 204.5,-68.5 161.5,-68.5"/>
<text text-anchor="middle" x="183" y="-75.5" font-family="Helvetica,sans-Serif" font-size="10.00">cstdio</text>
</g>
<!-- Node15&#45;&gt;Node16 -->
<g id="edge18" class="edge"><title>Node15&#45;&gt;Node16</title>
<path fill="none" stroke="midnightblue" d="M131.878,-124.781C142.015,-115.703 155.162,-103.929 165.585,-94.5951"/>
<polygon fill="midnightblue" stroke="midnightblue" points="168.136,-97.0091 173.251,-87.7305 163.466,-91.7944 168.136,-97.0091"/>
</g>
<!-- Node17&#45;&gt;Node5 -->
<g id="edge38" class="edge"><title>Node17&#45;&gt;Node5</title>
<path fill="none" stroke="midnightblue" d="M568.12,-130.464C559.998,-128.25 551.185,-125.943 543,-124 486.975,-110.697 422.411,-97.8903 377.405,-89.3639"/>
<polygon fill="midnightblue" stroke="midnightblue" points="378.017,-85.9177 367.542,-87.5044 376.72,-92.7965 378.017,-85.9177"/>
</g>
<!-- Node18 -->
<g id="node18" class="node"><title>Node18</title>
<g id="a_node18"><a xlink:href="../../dc/d03/MemoryResources_8h.html" target="_top" xlink:title="MemoryResources/MemoryResources.h">
<polygon fill="none" stroke="black" points="1030.5,-68.5 1030.5,-87.5 1223.5,-87.5 1223.5,-68.5 1030.5,-68.5"/>
<text text-anchor="middle" x="1127" y="-75.5" font-family="Helvetica,sans-Serif" font-size="10.00">MemoryResources/MemoryResources.h</text>
</a>
</g>
</g>
<!-- Node17&#45;&gt;Node18 -->
<g id="edge23" class="edge"><title>Node17&#45;&gt;Node18</title>
<path fill="none" stroke="midnightblue" d="M643.102,-133.884C731.386,-123.871 928.275,-101.54 1041.83,-88.6606"/>
<polygon fill="midnightblue" stroke="midnightblue" points="1042.33,-92.1257 1051.87,-87.5209 1041.54,-85.1703 1042.33,-92.1257"/>
</g>
<!-- Node18&#45;&gt;Node9 -->
<g id="edge28" class="edge"><title>Node18&#45;&gt;Node9</title>
<path fill="none" stroke="midnightblue" d="M1030.42,-69.2465C889.57,-57.8125 642.321,-37.2163 623,-32 620.651,-31.3658 618.262,-30.5681 615.901,-29.6729"/>
<polygon fill="midnightblue" stroke="midnightblue" points="617.103,-26.3791 606.536,-25.612 614.318,-32.8013 617.103,-26.3791"/>
</g>
<!-- Node18&#45;&gt;Node12 -->
<g id="edge29" class="edge"><title>Node18&#45;&gt;Node12</title>
<path fill="none" stroke="midnightblue" d="M1030.29,-69.3963C868.513,-56.6682 560.405,-32.391 559,-32 557.022,-31.4498 555.021,-30.7668 553.039,-29.9978"/>
<polygon fill="midnightblue" stroke="midnightblue" points="554.052,-26.6135 543.501,-25.6554 551.152,-32.9844 554.052,-26.6135"/>
</g>
<!-- Node19 -->
<g id="node19" class="node"><title>Node19</title>
<polygon fill="none" stroke="#bfbfbf" points="806,-1 806,-31 906,-31 906,-1 806,-1"/>
<text text-anchor="start" x="814" y="-19" font-family="Helvetica,sans-Serif" font-size="10.00">boost/container/flat</text>
<text text-anchor="middle" x="856" y="-8" font-family="Helvetica,sans-Serif" font-size="10.00">_map.hpp</text>
</g>
<!-- Node18&#45;&gt;Node19 -->
<g id="edge24" class="edge"><title>Node18&#45;&gt;Node19</title>
<path fill="none" stroke="midnightblue" d="M1084.25,-68.4468C1043.45,-60.1667 980.018,-46.9922 916.034,-32.1934"/>
<polygon fill="midnightblue" stroke="midnightblue" points="916.712,-28.7577 906.179,-29.9019 915.126,-35.5758 916.712,-28.7577"/>
</g>
<!-- Node20 -->
<g id="node20" class="node"><title>Node20</title>
<polygon fill="none" stroke="#bfbfbf" points="924,-1 924,-31 1040,-31 1040,-1 924,-1"/>
<text text-anchor="start" x="932" y="-19" font-family="Helvetica,sans-Serif" font-size="10.00">boost/container/pmr</text>
<text text-anchor="middle" x="982" y="-8" font-family="Helvetica,sans-Serif" font-size="10.00">/memory_resource.hpp</text>
</g>
<!-- Node18&#45;&gt;Node20 -->
<g id="edge25" class="edge"><title>Node18&#45;&gt;Node20</title>
<path fill="none" stroke="midnightblue" d="M1106.23,-68.4035C1085.23,-59.7168 1052.17,-46.0346 1025.43,-34.9694"/>
<polygon fill="midnightblue" stroke="midnightblue" points="1026.47,-31.6148 1015.89,-31.0253 1023.8,-38.083 1026.47,-31.6148"/>
</g>
<!-- Node21 -->
<g id="node21" class="node"><title>Node21</title>
<polygon fill="none" stroke="#bfbfbf" points="1058,-1 1058,-31 1214,-31 1214,-1 1058,-1"/>
<text text-anchor="start" x="1066" y="-19" font-family="Helvetica,sans-Serif" font-size="10.00">boost/container/pmr</text>
<text text-anchor="middle" x="1136" y="-8" font-family="Helvetica,sans-Serif" font-size="10.00">/monotonic_buffer_resource.hpp</text>
</g>
<!-- Node18&#45;&gt;Node21 -->
<g id="edge26" class="edge"><title>Node18&#45;&gt;Node21</title>
<path fill="none" stroke="midnightblue" d="M1128.29,-68.4035C1129.36,-61.2646 1130.94,-50.7517 1132.39,-41.0903"/>
<polygon fill="midnightblue" stroke="midnightblue" points="1135.86,-41.5494 1133.88,-31.1408 1128.93,-40.511 1135.86,-41.5494"/>
</g>
<!-- Node22 -->
<g id="node22" class="node"><title>Node22</title>
<polygon fill="none" stroke="#bfbfbf" points="1232.5,-1 1232.5,-31 1365.5,-31 1365.5,-1 1232.5,-1"/>
<text text-anchor="start" x="1240.5" y="-19" font-family="Helvetica,sans-Serif" font-size="10.00">boost/container/pmr</text>
<text text-anchor="middle" x="1299" y="-8" font-family="Helvetica,sans-Serif" font-size="10.00">/polymorphic_allocator.hpp</text>
</g>
<!-- Node18&#45;&gt;Node22 -->
<g id="edge27" class="edge"><title>Node18&#45;&gt;Node22</title>
<path fill="none" stroke="midnightblue" d="M1151.64,-68.4035C1176.98,-59.5644 1217.15,-45.553 1249.15,-34.3895"/>
<polygon fill="midnightblue" stroke="midnightblue" points="1250.5,-37.6238 1258.79,-31.0253 1248.2,-31.0144 1250.5,-37.6238"/>
</g>
<!-- Node23 -->
<g id="node23" class="node"><title>Node23</title>
<polygon fill="none" stroke="#bfbfbf" points="1384,-6.5 1384,-25.5 1446,-25.5 1446,-6.5 1384,-6.5"/>
<text text-anchor="middle" x="1415" y="-13.5" font-family="Helvetica,sans-Serif" font-size="10.00">type_traits</text>
</g>
<!-- Node18&#45;&gt;Node23 -->
<g id="edge30" class="edge"><title>Node18&#45;&gt;Node23</title>
<path fill="none" stroke="midnightblue" d="M1190.61,-68.4627C1240.89,-60.9849 1312.59,-48.6962 1374,-32 1377.22,-31.125 1380.54,-30.1077 1383.84,-29.0228"/>
<polygon fill="midnightblue" stroke="midnightblue" points="1385.23,-32.243 1393.52,-25.6403 1382.92,-25.6347 1385.23,-32.243"/>
</g>
<!-- Node24 -->
<g id="node24" class="node"><title>Node24</title>
<polygon fill="none" stroke="#bfbfbf" points="1464,-6.5 1464,-25.5 1504,-25.5 1504,-6.5 1464,-6.5"/>
<text text-anchor="middle" x="1484" y="-13.5" font-family="Helvetica,sans-Serif" font-size="10.00">utility</text>
</g>
<!-- Node18&#45;&gt;Node24 -->
<g id="edge31" class="edge"><title>Node18&#45;&gt;Node24</title>
<path fill="none" stroke="midnightblue" d="M1211.99,-68.481C1293.42,-59.7458 1410.21,-45.5569 1454,-32 1455.92,-31.4059 1457.87,-30.6995 1459.8,-29.9219"/>
<polygon fill="midnightblue" stroke="midnightblue" points="1461.51,-32.9853 1469.14,-25.6302 1458.59,-26.6245 1461.51,-32.9853"/>
</g>
<!-- Node18&#45;&gt;Node25 -->
<g id="edge32" class="edge"><title>Node18&#45;&gt;Node25</title>
<path fill="none" stroke="midnightblue" d="M1223.55,-68.964C1228.43,-68.6225 1233.27,-68.2986 1238,-68 1414.5,-56.8522 1861.3,-74.3453 2033,-32 2035.5,-31.383 2038.04,-30.5646 2040.55,-29.6277"/>
<polygon fill="midnightblue" stroke="midnightblue" points="2042.05,-32.7923 2049.83,-25.6011 2039.26,-26.3707 2042.05,-32.7923"/>
</g>
<!-- Node26 -->
<g id="node26" class="node"><title>Node26</title>
<polygon fill="none" stroke="#bfbfbf" points="1522.5,-6.5 1522.5,-25.5 1605.5,-25.5 1605.5,-6.5 1522.5,-6.5"/>
<text text-anchor="middle" x="1564" y="-13.5" font-family="Helvetica,sans-Serif" font-size="10.00">unordered_map</text>
</g>
<!-- Node18&#45;&gt;Node26 -->
<g id="edge33" class="edge"><title>Node18&#45;&gt;Node26</title>
<path fill="none" stroke="midnightblue" d="M1215.37,-68.4582C1311.24,-58.8783 1457.96,-43.2166 1513,-32 1518.01,-30.9779 1523.25,-29.6949 1528.37,-28.3118"/>
<polygon fill="midnightblue" stroke="midnightblue" points="1529.35,-31.6742 1538.01,-25.5711 1527.43,-24.9414 1529.35,-31.6742"/>
</g>
<!-- Node27 -->
<g id="node27" class="node"><title>Node27</title>
<polygon fill="none" stroke="#bfbfbf" points="1623.5,-6.5 1623.5,-25.5 1720.5,-25.5 1720.5,-6.5 1623.5,-6.5"/>
<text text-anchor="middle" x="1672" y="-13.5" font-family="Helvetica,sans-Serif" font-size="10.00">FairMQMessage.h</text>
</g>
<!-- Node18&#45;&gt;Node27 -->
<g id="edge34" class="edge"><title>Node18&#45;&gt;Node27</title>
<path fill="none" stroke="midnightblue" d="M1223.61,-68.9138C1354.63,-57.8183 1576.67,-38.5078 1614,-32 1620.19,-30.9215 1626.68,-29.5174 1632.99,-28.0012"/>
<polygon fill="midnightblue" stroke="midnightblue" points="1633.85,-31.3943 1642.69,-25.5572 1632.14,-24.6064 1633.85,-31.3943"/>
</g>
<!-- Node28 -->
<g id="node28" class="node"><title>Node28</title>
<polygon fill="none" stroke="#bfbfbf" points="1738.5,-6.5 1738.5,-25.5 1869.5,-25.5 1869.5,-6.5 1738.5,-6.5"/>
<text text-anchor="middle" x="1804" y="-13.5" font-family="Helvetica,sans-Serif" font-size="10.00">FairMQTransportFactory.h</text>
</g>
<!-- Node18&#45;&gt;Node28 -->
<g id="edge35" class="edge"><title>Node18&#45;&gt;Node28</title>
<path fill="none" stroke="midnightblue" d="M1223.56,-69.126C1228.44,-68.7418 1233.28,-68.3646 1238,-68 1456.16,-51.1583 1512.19,-61.5128 1729,-32 1737.79,-30.8028 1747.11,-29.2081 1756.07,-27.5052"/>
<polygon fill="midnightblue" stroke="midnightblue" points="1756.86,-30.917 1766,-25.5519 1755.51,-24.0488 1756.86,-30.917"/>
</g>
<!-- Node29 -->
<g id="node29" class="node"><title>Node29</title>
<polygon fill="none" stroke="#bfbfbf" points="1887.5,-6.5 1887.5,-25.5 2024.5,-25.5 2024.5,-6.5 1887.5,-6.5"/>
<text text-anchor="middle" x="1956" y="-13.5" font-family="Helvetica,sans-Serif" font-size="10.00">fairmq/MemoryResources.h</text>
</g>
<!-- Node18&#45;&gt;Node29 -->
<g id="edge36" class="edge"><title>Node18&#45;&gt;Node29</title>
<path fill="none" stroke="midnightblue" d="M1223.55,-69.0275C1228.44,-68.6692 1233.27,-68.3244 1238,-68 1522.23,-48.4865 1595.26,-66.979 1878,-32 1887.55,-30.8188 1897.68,-29.1674 1907.38,-27.3898"/>
<polygon fill="midnightblue" stroke="midnightblue" points="1908.11,-30.8135 1917.28,-25.506 1906.8,-23.9368 1908.11,-30.8135"/>
</g>
<!-- Node30 -->
<g id="node30" class="node"><title>Node30</title>
<polygon fill="none" stroke="#bfbfbf" points="632,-6.5 632,-25.5 788,-25.5 788,-6.5 632,-6.5"/>
<text text-anchor="middle" x="710" y="-13.5" font-family="Helvetica,sans-Serif" font-size="10.00">fairmq/MemoryResourceTools.h</text>
</g>
<!-- Node18&#45;&gt;Node30 -->
<g id="edge37" class="edge"><title>Node18&#45;&gt;Node30</title>
<path fill="none" stroke="midnightblue" d="M1059.27,-68.4731C992.493,-59.8984 887.575,-45.9794 797,-32 787.556,-30.5425 777.553,-28.9052 767.822,-27.2623"/>
<polygon fill="midnightblue" stroke="midnightblue" points="768.261,-23.7867 757.815,-25.5554 767.084,-30.6871 768.261,-23.7867"/>
</g>
</g>
</svg>
