<?xml version="1.0" encoding="UTF-8" standalone="no"?>
<!DOCTYPE svg PUBLIC "-//W3C//DTD SVG 1.1//EN"
 "http://www.w3.org/Graphics/SVG/1.1/DTD/svg11.dtd">
<!-- Generated by graphviz version 2.36.0 (20140111.2315)
 -->
<!-- Title: /home/travis/build/AliceO2Group/AliceO2/Detectors/PHOS/simulation/include/PHOSSimulation/Digitizer.h Pages: 1 -->
<svg width="1683pt" height="434pt"
 viewBox="0.00 0.00 1683.00 434.00" xmlns="http://www.w3.org/2000/svg" xmlns:xlink="http://www.w3.org/1999/xlink">
<g id="graph0" class="graph" transform="scale(1 1) rotate(0) translate(4 430)">
<title>/home/travis/build/AliceO2Group/AliceO2/Detectors/PHOS/simulation/include/PHOSSimulation/Digitizer.h</title>
<!-- Node1 -->
<g id="node1" class="node"><title>Node1</title>
<polygon fill="#bfbfbf" stroke="black" points="463.5,-373 463.5,-425 638.5,-425 638.5,-373 463.5,-373"/>
<text text-anchor="start" x="471.5" y="-413" font-family="Helvetica,sans-Serif" font-size="10.00">/home/travis/build</text>
<text text-anchor="start" x="471.5" y="-402" font-family="Helvetica,sans-Serif" font-size="10.00">/AliceO2Group/AliceO2</text>
<text text-anchor="start" x="471.5" y="-391" font-family="Helvetica,sans-Serif" font-size="10.00">/Detectors/PHOS/simulation</text>
<text text-anchor="middle" x="551" y="-380" font-family="Helvetica,sans-Serif" font-size="10.00">/include/PHOSSimulation/Digitizer.h</text>
</g>
<!-- Node2 -->
<g id="node2" class="node"><title>Node2</title>
<g id="a_node2"><a xlink:href="../../d8/de9/PHOS_2base_2include_2PHOSBase_2Digit_8h.html" target="_top" xlink:title="PHOSBase/Digit.h">
<polygon fill="none" stroke="black" points="300.5,-316.5 300.5,-335.5 399.5,-335.5 399.5,-316.5 300.5,-316.5"/>
<text text-anchor="middle" x="350" y="-323.5" font-family="Helvetica,sans-Serif" font-size="10.00">PHOSBase/Digit.h</text>
</a>
</g>
</g>
<!-- Node1&#45;&gt;Node2 -->
<g id="edge1" class="edge"><title>Node1&#45;&gt;Node2</title>
<path fill="none" stroke="midnightblue" d="M480.135,-372.968C447.463,-361.427 410.201,-348.265 383.947,-338.991"/>
<polygon fill="midnightblue" stroke="midnightblue" points="385.051,-335.669 374.457,-335.639 382.72,-342.27 385.051,-335.669"/>
</g>
<!-- Node6 -->
<g id="node6" class="node"><title>Node6</title>
<g id="a_node6"><a xlink:href="../../d1/def/PHOS_2base_2include_2PHOSBase_2Hit_8h.html" target="_top" xlink:title="PHOSBase/Hit.h">
<polygon fill="none" stroke="black" points="505,-260.5 505,-279.5 597,-279.5 597,-260.5 505,-260.5"/>
<text text-anchor="middle" x="551" y="-267.5" font-family="Helvetica,sans-Serif" font-size="10.00">PHOSBase/Hit.h</text>
</a>
</g>
</g>
<!-- Node1&#45;&gt;Node6 -->
<g id="edge31" class="edge"><title>Node1&#45;&gt;Node6</title>
<path fill="none" stroke="midnightblue" d="M551,-372.909C551,-348.409 551,-311.69 551,-289.664"/>
<polygon fill="midnightblue" stroke="midnightblue" points="554.5,-289.628 551,-279.628 547.5,-289.628 554.5,-289.628"/>
</g>
<!-- Node26 -->
<g id="node26" class="node"><title>Node26</title>
<g id="a_node26"><a xlink:href="../../d7/d7f/PHOS_2base_2include_2PHOSBase_2Geometry_8h.html" target="_top" xlink:title="PHOSBase/Geometry.h">
<polygon fill="none" stroke="black" points="616,-316.5 616,-335.5 738,-335.5 738,-316.5 616,-316.5"/>
<text text-anchor="middle" x="677" y="-323.5" font-family="Helvetica,sans-Serif" font-size="10.00">PHOSBase/Geometry.h</text>
</a>
</g>
</g>
<!-- Node1&#45;&gt;Node26 -->
<g id="edge27" class="edge"><title>Node1&#45;&gt;Node26</title>
<path fill="none" stroke="midnightblue" d="M595.423,-372.968C614.731,-362.088 636.596,-349.767 652.826,-340.622"/>
<polygon fill="midnightblue" stroke="midnightblue" points="654.675,-343.597 661.669,-335.639 651.239,-337.499 654.675,-343.597"/>
</g>
<!-- Node3 -->
<g id="node3" class="node"><title>Node3</title>
<g id="a_node3"><a xlink:href="../../df/d5d/common_2include_2CommonDataFormat_2TimeStamp_8h.html" target="_top" xlink:title="CommonDataFormat/TimeStamp.h">
<polygon fill="none" stroke="black" points="0,-198.5 0,-217.5 170,-217.5 170,-198.5 0,-198.5"/>
<text text-anchor="middle" x="85" y="-205.5" font-family="Helvetica,sans-Serif" font-size="10.00">CommonDataFormat/TimeStamp.h</text>
</a>
</g>
</g>
<!-- Node2&#45;&gt;Node3 -->
<g id="edge2" class="edge"><title>Node2&#45;&gt;Node3</title>
<path fill="none" stroke="midnightblue" d="M330.514,-316.47C284.379,-296.275 168.276,-245.453 113.916,-221.657"/>
<polygon fill="midnightblue" stroke="midnightblue" points="115.079,-218.346 104.515,-217.542 112.272,-224.759 115.079,-218.346"/>
</g>
<!-- Node5 -->
<g id="node5" class="node"><title>Node5</title>
<g id="a_node5"><a xlink:href="../../d7/dcd/MCCompLabel_8h.html" target="_top" xlink:title="SimulationDataFormat\l/MCCompLabel.h">
<polygon fill="none" stroke="black" points="219,-193 219,-223 333,-223 333,-193 219,-193"/>
<text text-anchor="start" x="227" y="-211" font-family="Helvetica,sans-Serif" font-size="10.00">SimulationDataFormat</text>
<text text-anchor="middle" x="276" y="-200" font-family="Helvetica,sans-Serif" font-size="10.00">/MCCompLabel.h</text>
</a>
</g>
</g>
<!-- Node2&#45;&gt;Node5 -->
<g id="edge4" class="edge"><title>Node2&#45;&gt;Node5</title>
<path fill="none" stroke="midnightblue" d="M344.438,-316.281C333.073,-298.465 306.87,-257.39 290.384,-231.548"/>
<polygon fill="midnightblue" stroke="midnightblue" points="293.328,-229.654 284.999,-223.106 287.426,-233.419 293.328,-229.654"/>
</g>
<!-- Node2&#45;&gt;Node6 -->
<g id="edge6" class="edge"><title>Node2&#45;&gt;Node6</title>
<path fill="none" stroke="midnightblue" d="M381.849,-316.444C416.398,-307.162 471.682,-292.309 509.583,-282.127"/>
<polygon fill="midnightblue" stroke="midnightblue" points="510.551,-285.491 519.3,-279.516 508.734,-278.731 510.551,-285.491"/>
</g>
<!-- Node4 -->
<g id="node4" class="node"><title>Node4</title>
<polygon fill="none" stroke="#bfbfbf" points="17,-74.5 17,-93.5 73,-93.5 73,-74.5 17,-74.5"/>
<text text-anchor="middle" x="45" y="-81.5" font-family="Helvetica,sans-Serif" font-size="10.00">Rtypes.h</text>
</g>
<!-- Node3&#45;&gt;Node4 -->
<g id="edge3" class="edge"><title>Node3&#45;&gt;Node4</title>
<path fill="none" stroke="midnightblue" d="M82.1233,-198.226C75.6367,-178.442 59.7564,-130.007 51.0143,-103.344"/>
<polygon fill="midnightblue" stroke="midnightblue" points="54.292,-102.106 47.8506,-93.6944 47.6404,-104.287 54.292,-102.106"/>
</g>
<!-- Node5&#45;&gt;Node4 -->
<g id="edge5" class="edge"><title>Node5&#45;&gt;Node4</title>
<path fill="none" stroke="midnightblue" d="M249.049,-192.766C203.922,-168.933 113.722,-121.295 69.9606,-98.1827"/>
<polygon fill="midnightblue" stroke="midnightblue" points="71.5908,-95.0855 61.1137,-93.5103 68.3217,-101.275 71.5908,-95.0855"/>
</g>
<!-- Node7 -->
<g id="node7" class="node"><title>Node7</title>
<g id="a_node7"><a xlink:href="../../d4/d25/BaseHits_8h.html" target="_top" xlink:title="SimulationDataFormat\l/BaseHits.h">
<polygon fill="none" stroke="black" points="507,-193 507,-223 621,-223 621,-193 507,-193"/>
<text text-anchor="start" x="515" y="-211" font-family="Helvetica,sans-Serif" font-size="10.00">SimulationDataFormat</text>
<text text-anchor="middle" x="564" y="-200" font-family="Helvetica,sans-Serif" font-size="10.00">/BaseHits.h</text>
</a>
</g>
</g>
<!-- Node6&#45;&gt;Node7 -->
<g id="edge7" class="edge"><title>Node6&#45;&gt;Node7</title>
<path fill="none" stroke="midnightblue" d="M552.863,-260.403C554.409,-253.265 556.687,-242.752 558.78,-233.09"/>
<polygon fill="midnightblue" stroke="midnightblue" points="562.239,-233.655 560.936,-223.141 555.398,-232.173 562.239,-233.655"/>
</g>
<!-- Node19 -->
<g id="node19" class="node"><title>Node19</title>
<g id="a_node19"><a xlink:href="../../d0/d91/ShmAllocator_8h.html" target="_top" xlink:title="CommonUtils/ShmAllocator.h">
<polygon fill="none" stroke="black" points="1273,-198.5 1273,-217.5 1419,-217.5 1419,-198.5 1273,-198.5"/>
<text text-anchor="middle" x="1346" y="-205.5" font-family="Helvetica,sans-Serif" font-size="10.00">CommonUtils/ShmAllocator.h</text>
</a>
</g>
</g>
<!-- Node6&#45;&gt;Node19 -->
<g id="edge20" class="edge"><title>Node6&#45;&gt;Node19</title>
<path fill="none" stroke="midnightblue" d="M597.17,-261.124C600.154,-260.714 603.117,-260.335 606,-260 843.424,-232.454 1125.56,-218.042 1262.77,-212.199"/>
<polygon fill="midnightblue" stroke="midnightblue" points="1262.95,-215.695 1272.79,-211.777 1262.65,-208.701 1262.95,-215.695"/>
</g>
<!-- Node8 -->
<g id="node8" class="node"><title>Node8</title>
<g id="a_node8"><a xlink:href="../../dd/d76/Cartesian3D_8h.html" target="_top" xlink:title="MathUtils/Cartesian3D.h">
<polygon fill="none" stroke="black" points="551.5,-136.5 551.5,-155.5 676.5,-155.5 676.5,-136.5 551.5,-136.5"/>
<text text-anchor="middle" x="614" y="-143.5" font-family="Helvetica,sans-Serif" font-size="10.00">MathUtils/Cartesian3D.h</text>
</a>
</g>
</g>
<!-- Node7&#45;&gt;Node8 -->
<g id="edge8" class="edge"><title>Node7&#45;&gt;Node8</title>
<path fill="none" stroke="midnightblue" d="M575.849,-192.781C583.19,-183.972 592.645,-172.626 600.306,-163.433"/>
<polygon fill="midnightblue" stroke="midnightblue" points="603.011,-165.653 606.725,-155.731 597.634,-161.172 603.011,-165.653"/>
</g>
<!-- Node8&#45;&gt;Node4 -->
<g id="edge14" class="edge"><title>Node8&#45;&gt;Node4</title>
<path fill="none" stroke="midnightblue" d="M551.197,-145.739C450.685,-145.58 248.098,-139.728 82,-100 78.9306,-99.2659 75.7826,-98.3184 72.6811,-97.2566"/>
<polygon fill="midnightblue" stroke="midnightblue" points="73.6758,-93.8901 63.085,-93.5972 71.1815,-100.431 73.6758,-93.8901"/>
</g>
<!-- Node9 -->
<g id="node9" class="node"><title>Node9</title>
<polygon fill="none" stroke="#bfbfbf" points="91.5,-69 91.5,-99 242.5,-99 242.5,-69 91.5,-69"/>
<text text-anchor="start" x="99.5" y="-87" font-family="Helvetica,sans-Serif" font-size="10.00">Math/GenVector/Displacement</text>
<text text-anchor="middle" x="167" y="-76" font-family="Helvetica,sans-Serif" font-size="10.00">Vector3D.h</text>
</g>
<!-- Node8&#45;&gt;Node9 -->
<g id="edge9" class="edge"><title>Node8&#45;&gt;Node9</title>
<path fill="none" stroke="midnightblue" d="M551.41,-138.201C481.255,-130.359 363.873,-116.579 252.571,-100.037"/>
<polygon fill="midnightblue" stroke="midnightblue" points="252.919,-96.5499 242.511,-98.5314 251.883,-103.473 252.919,-96.5499"/>
</g>
<!-- Node10 -->
<g id="node10" class="node"><title>Node10</title>
<polygon fill="none" stroke="#bfbfbf" points="261,-74.5 261,-93.5 437,-93.5 437,-74.5 261,-74.5"/>
<text text-anchor="middle" x="349" y="-81.5" font-family="Helvetica,sans-Serif" font-size="10.00">Math/GenVector/PositionVector3D.h</text>
</g>
<!-- Node8&#45;&gt;Node10 -->
<g id="edge10" class="edge"><title>Node8&#45;&gt;Node10</title>
<path fill="none" stroke="midnightblue" d="M576.313,-136.467C529.024,-125.76 447.899,-107.392 396.435,-95.74"/>
<polygon fill="midnightblue" stroke="midnightblue" points="397.083,-92.2981 386.557,-93.5034 395.537,-99.1253 397.083,-92.2981"/>
</g>
<!-- Node11 -->
<g id="node11" class="node"><title>Node11</title>
<polygon fill="none" stroke="#bfbfbf" points="454.5,-74.5 454.5,-93.5 603.5,-93.5 603.5,-74.5 454.5,-74.5"/>
<text text-anchor="middle" x="529" y="-81.5" font-family="Helvetica,sans-Serif" font-size="10.00">Math/GenVector/Rotation3D.h</text>
</g>
<!-- Node8&#45;&gt;Node11 -->
<g id="edge11" class="edge"><title>Node8&#45;&gt;Node11</title>
<path fill="none" stroke="midnightblue" d="M601.822,-136.403C588.188,-126.78 565.868,-111.024 549.526,-99.4891"/>
<polygon fill="midnightblue" stroke="midnightblue" points="551.344,-96.4881 541.156,-93.5806 547.307,-102.207 551.344,-96.4881"/>
</g>
<!-- Node12 -->
<g id="node12" class="node"><title>Node12</title>
<polygon fill="none" stroke="#bfbfbf" points="622,-74.5 622,-93.5 778,-93.5 778,-74.5 622,-74.5"/>
<text text-anchor="middle" x="700" y="-81.5" font-family="Helvetica,sans-Serif" font-size="10.00">Math/GenVector/Transform3D.h</text>
</g>
<!-- Node8&#45;&gt;Node12 -->
<g id="edge12" class="edge"><title>Node8&#45;&gt;Node12</title>
<path fill="none" stroke="midnightblue" d="M626.322,-136.403C640.116,-126.78 662.699,-111.024 679.232,-99.4891"/>
<polygon fill="midnightblue" stroke="midnightblue" points="681.503,-102.173 687.701,-93.5806 677.497,-96.432 681.503,-102.173"/>
</g>
<!-- Node13 -->
<g id="node13" class="node"><title>Node13</title>
<polygon fill="none" stroke="#bfbfbf" points="796,-74.5 796,-93.5 956,-93.5 956,-74.5 796,-74.5"/>
<text text-anchor="middle" x="876" y="-81.5" font-family="Helvetica,sans-Serif" font-size="10.00">Math/GenVector/Translation3D.h</text>
</g>
<!-- Node8&#45;&gt;Node13 -->
<g id="edge13" class="edge"><title>Node8&#45;&gt;Node13</title>
<path fill="none" stroke="midnightblue" d="M651.26,-136.467C698.014,-125.76 778.221,-107.392 829.102,-95.74"/>
<polygon fill="midnightblue" stroke="midnightblue" points="829.902,-99.1474 838.869,-93.5034 828.34,-92.3241 829.902,-99.1474"/>
</g>
<!-- Node14 -->
<g id="node14" class="node"><title>Node14</title>
<polygon fill="none" stroke="#bfbfbf" points="974,-74.5 974,-93.5 1050,-93.5 1050,-74.5 974,-74.5"/>
<text text-anchor="middle" x="1012" y="-81.5" font-family="Helvetica,sans-Serif" font-size="10.00">TGeoMatrix.h</text>
</g>
<!-- Node8&#45;&gt;Node14 -->
<g id="edge15" class="edge"><title>Node8&#45;&gt;Node14</title>
<path fill="none" stroke="midnightblue" d="M676.726,-140.412C747.408,-134.445 865.434,-122.079 965,-100 969.233,-99.0613 973.63,-97.9072 977.961,-96.6597"/>
<polygon fill="midnightblue" stroke="midnightblue" points="979.298,-99.9106 987.836,-93.6366 977.249,-93.2172 979.298,-99.9106"/>
</g>
<!-- Node15 -->
<g id="node15" class="node"><title>Node15</title>
<polygon fill="none" stroke="#bfbfbf" points="1068.5,-74.5 1068.5,-93.5 1113.5,-93.5 1113.5,-74.5 1068.5,-74.5"/>
<text text-anchor="middle" x="1091" y="-81.5" font-family="Helvetica,sans-Serif" font-size="10.00">iosfwd</text>
</g>
<!-- Node8&#45;&gt;Node15 -->
<g id="edge16" class="edge"><title>Node8&#45;&gt;Node15</title>
<path fill="none" stroke="midnightblue" d="M676.76,-145.25C764.049,-144.123 926.334,-136.653 1059,-100 1061.35,-99.352 1063.73,-98.5449 1066.09,-97.6434"/>
<polygon fill="midnightblue" stroke="midnightblue" points="1067.68,-100.77 1075.45,-93.5728 1064.89,-94.3502 1067.68,-100.77"/>
</g>
<!-- Node16 -->
<g id="node16" class="node"><title>Node16</title>
<g id="a_node16"><a xlink:href="../../d2/dd0/Cartesian2D_8h.html" target="_top" xlink:title="MathUtils/Cartesian2D.h">
<polygon fill="none" stroke="black" points="1131.5,-74.5 1131.5,-93.5 1256.5,-93.5 1256.5,-74.5 1131.5,-74.5"/>
<text text-anchor="middle" x="1194" y="-81.5" font-family="Helvetica,sans-Serif" font-size="10.00">MathUtils/Cartesian2D.h</text>
</a>
</g>
</g>
<!-- Node8&#45;&gt;Node16 -->
<g id="edge17" class="edge"><title>Node8&#45;&gt;Node16</title>
<path fill="none" stroke="midnightblue" d="M676.842,-141.805C773.083,-136.378 962.593,-123.583 1122,-100 1130.17,-98.7911 1138.81,-97.2352 1147.16,-95.585"/>
<polygon fill="midnightblue" stroke="midnightblue" points="1148.05,-98.9748 1157.15,-93.5422 1146.65,-92.1167 1148.05,-98.9748"/>
</g>
<!-- Node17 -->
<g id="node17" class="node"><title>Node17</title>
<polygon fill="none" stroke="#bfbfbf" points="1027.5,-1 1027.5,-31 1178.5,-31 1178.5,-1 1027.5,-1"/>
<text text-anchor="start" x="1035.5" y="-19" font-family="Helvetica,sans-Serif" font-size="10.00">Math/GenVector/Displacement</text>
<text text-anchor="middle" x="1103" y="-8" font-family="Helvetica,sans-Serif" font-size="10.00">Vector2D.h</text>
</g>
<!-- Node16&#45;&gt;Node17 -->
<g id="edge18" class="edge"><title>Node16&#45;&gt;Node17</title>
<path fill="none" stroke="midnightblue" d="M1182.1,-74.3717C1169.22,-65.0286 1148.22,-49.7966 1131.09,-37.375"/>
<polygon fill="midnightblue" stroke="midnightblue" points="1132.7,-34.2194 1122.55,-31.1815 1128.59,-39.8859 1132.7,-34.2194"/>
</g>
<!-- Node18 -->
<g id="node18" class="node"><title>Node18</title>
<polygon fill="none" stroke="#bfbfbf" points="1197,-6.5 1197,-25.5 1373,-25.5 1373,-6.5 1197,-6.5"/>
<text text-anchor="middle" x="1285" y="-13.5" font-family="Helvetica,sans-Serif" font-size="10.00">Math/GenVector/PositionVector2D.h</text>
</g>
<!-- Node16&#45;&gt;Node18 -->
<g id="edge19" class="edge"><title>Node16&#45;&gt;Node18</title>
<path fill="none" stroke="midnightblue" d="M1205.9,-74.3717C1220.88,-63.5015 1246.86,-44.6602 1264.94,-31.5474"/>
<polygon fill="midnightblue" stroke="midnightblue" points="1267.06,-34.3349 1273.1,-25.6305 1262.95,-28.6684 1267.06,-34.3349"/>
</g>
<!-- Node20 -->
<g id="node20" class="node"><title>Node20</title>
<g id="a_node20"><a xlink:href="../../de/d61/ShmManager_8h.html" target="_top" xlink:title="CommonUtils/ShmManager.h">
<polygon fill="none" stroke="black" points="1273,-136.5 1273,-155.5 1419,-155.5 1419,-136.5 1273,-136.5"/>
<text text-anchor="middle" x="1346" y="-143.5" font-family="Helvetica,sans-Serif" font-size="10.00">CommonUtils/ShmManager.h</text>
</a>
</g>
</g>
<!-- Node19&#45;&gt;Node20 -->
<g id="edge21" class="edge"><title>Node19&#45;&gt;Node20</title>
<path fill="none" stroke="midnightblue" d="M1346,-198.403C1346,-189.938 1346,-176.728 1346,-165.82"/>
<polygon fill="midnightblue" stroke="midnightblue" points="1349.5,-165.581 1346,-155.581 1342.5,-165.581 1349.5,-165.581"/>
</g>
<!-- Node25 -->
<g id="node25" class="node"><title>Node25</title>
<polygon fill="none" stroke="#bfbfbf" points="1437.5,-136.5 1437.5,-155.5 1486.5,-155.5 1486.5,-136.5 1437.5,-136.5"/>
<text text-anchor="middle" x="1462" y="-143.5" font-family="Helvetica,sans-Serif" font-size="10.00">cassert</text>
</g>
<!-- Node19&#45;&gt;Node25 -->
<g id="edge26" class="edge"><title>Node19&#45;&gt;Node25</title>
<path fill="none" stroke="midnightblue" d="M1362.62,-198.403C1381.92,-188.423 1413.96,-171.849 1436.43,-160.225"/>
<polygon fill="midnightblue" stroke="midnightblue" points="1438.14,-163.284 1445.41,-155.581 1434.92,-157.066 1438.14,-163.284"/>
</g>
<!-- Node21 -->
<g id="node21" class="node"><title>Node21</title>
<polygon fill="none" stroke="#bfbfbf" points="1274.5,-74.5 1274.5,-93.5 1303.5,-93.5 1303.5,-74.5 1274.5,-74.5"/>
<text text-anchor="middle" x="1289" y="-81.5" font-family="Helvetica,sans-Serif" font-size="10.00">list</text>
</g>
<!-- Node20&#45;&gt;Node21 -->
<g id="edge22" class="edge"><title>Node20&#45;&gt;Node21</title>
<path fill="none" stroke="midnightblue" d="M1337.83,-136.403C1329.11,-127.225 1315.1,-112.47 1304.31,-101.117"/>
<polygon fill="midnightblue" stroke="midnightblue" points="1306.58,-98.42 1297.15,-93.5806 1301.5,-103.241 1306.58,-98.42"/>
</g>
<!-- Node22 -->
<g id="node22" class="node"><title>Node22</title>
<polygon fill="none" stroke="#bfbfbf" points="1321.5,-74.5 1321.5,-93.5 1370.5,-93.5 1370.5,-74.5 1321.5,-74.5"/>
<text text-anchor="middle" x="1346" y="-81.5" font-family="Helvetica,sans-Serif" font-size="10.00">cstddef</text>
</g>
<!-- Node20&#45;&gt;Node22 -->
<g id="edge23" class="edge"><title>Node20&#45;&gt;Node22</title>
<path fill="none" stroke="midnightblue" d="M1346,-136.403C1346,-127.938 1346,-114.728 1346,-103.82"/>
<polygon fill="midnightblue" stroke="midnightblue" points="1349.5,-103.581 1346,-93.5806 1342.5,-103.581 1349.5,-103.581"/>
</g>
<!-- Node23 -->
<g id="node23" class="node"><title>Node23</title>
<polygon fill="none" stroke="#bfbfbf" points="1389,-69 1389,-99 1537,-99 1537,-69 1389,-69"/>
<text text-anchor="start" x="1397" y="-87" font-family="Helvetica,sans-Serif" font-size="10.00">boost/interprocess</text>
<text text-anchor="middle" x="1463" y="-76" font-family="Helvetica,sans-Serif" font-size="10.00">/managed_external_buffer.hpp</text>
</g>
<!-- Node20&#45;&gt;Node23 -->
<g id="edge24" class="edge"><title>Node20&#45;&gt;Node23</title>
<path fill="none" stroke="midnightblue" d="M1362.76,-136.403C1379.28,-127.936 1405.05,-114.72 1426.32,-103.81"/>
<polygon fill="midnightblue" stroke="midnightblue" points="1428.12,-106.818 1435.43,-99.1408 1424.93,-100.59 1428.12,-106.818"/>
</g>
<!-- Node24 -->
<g id="node24" class="node"><title>Node24</title>
<polygon fill="none" stroke="#bfbfbf" points="1555,-69 1555,-99 1675,-99 1675,-69 1555,-69"/>
<text text-anchor="start" x="1563" y="-87" font-family="Helvetica,sans-Serif" font-size="10.00">boost/interprocess</text>
<text text-anchor="middle" x="1615" y="-76" font-family="Helvetica,sans-Serif" font-size="10.00">/allocators/allocator.hpp</text>
</g>
<!-- Node20&#45;&gt;Node24 -->
<g id="edge25" class="edge"><title>Node20&#45;&gt;Node24</title>
<path fill="none" stroke="midnightblue" d="M1384.26,-136.467C1425.93,-127.171 1493.51,-112.098 1544.78,-100.662"/>
<polygon fill="midnightblue" stroke="midnightblue" points="1545.81,-104.019 1554.81,-98.4254 1544.29,-97.1864 1545.81,-104.019"/>
</g>
<!-- Node27 -->
<g id="node27" class="node"><title>Node27</title>
<polygon fill="none" stroke="#bfbfbf" points="615.5,-260.5 615.5,-279.5 656.5,-279.5 656.5,-260.5 615.5,-260.5"/>
<text text-anchor="middle" x="636" y="-267.5" font-family="Helvetica,sans-Serif" font-size="10.00">string</text>
</g>
<!-- Node26&#45;&gt;Node27 -->
<g id="edge28" class="edge"><title>Node26&#45;&gt;Node27</title>
<path fill="none" stroke="midnightblue" d="M670.23,-316.083C664.438,-308.455 655.942,-297.264 648.862,-287.941"/>
<polygon fill="midnightblue" stroke="midnightblue" points="651.479,-285.599 642.644,-279.751 645.904,-289.832 651.479,-285.599"/>
</g>
<!-- Node28 -->
<g id="node28" class="node"><title>Node28</title>
<polygon fill="none" stroke="#bfbfbf" points="675,-260.5 675,-279.5 755,-279.5 755,-260.5 675,-260.5"/>
<text text-anchor="middle" x="715" y="-267.5" font-family="Helvetica,sans-Serif" font-size="10.00">RStringView.h</text>
</g>
<!-- Node26&#45;&gt;Node28 -->
<g id="edge29" class="edge"><title>Node26&#45;&gt;Node28</title>
<path fill="none" stroke="midnightblue" d="M683.275,-316.083C688.642,-308.455 696.518,-297.264 703.079,-287.941"/>
<polygon fill="midnightblue" stroke="midnightblue" points="705.949,-289.943 708.842,-279.751 700.225,-285.915 705.949,-289.943"/>
</g>
<!-- Node29 -->
<g id="node29" class="node"><title>Node29</title>
<polygon fill="none" stroke="#bfbfbf" points="773.5,-260.5 773.5,-279.5 826.5,-279.5 826.5,-260.5 773.5,-260.5"/>
<text text-anchor="middle" x="800" y="-267.5" font-family="Helvetica,sans-Serif" font-size="10.00">TMath.h</text>
</g>
<!-- Node26&#45;&gt;Node29 -->
<g id="edge30" class="edge"><title>Node26&#45;&gt;Node29</title>
<path fill="none" stroke="midnightblue" d="M696.49,-316.444C716.642,-307.596 748.323,-293.687 771.331,-283.586"/>
<polygon fill="midnightblue" stroke="midnightblue" points="772.852,-286.741 780.601,-279.516 770.038,-280.332 772.852,-286.741"/>
</g>
</g>
</svg>
