<?xml version="1.0" encoding="UTF-8" standalone="no"?>
<!DOCTYPE svg PUBLIC "-//W3C//DTD SVG 1.1//EN"
 "http://www.w3.org/Graphics/SVG/1.1/DTD/svg11.dtd">
<!-- Generated by graphviz version 2.36.0 (20140111.2315)
 -->
<!-- Title: /home/travis/build/AliceO2Group/AliceO2/Detectors/PHOS/testsimulation/plot_hit_phos.C Pages: 1 -->
<!--zoomable 570 -->
<svg id="main" version="1.1" xmlns="http://www.w3.org/2000/svg" xmlns:xlink="http://www.w3.org/1999/xlink" xml:space="preserve" onload="init(evt)">
<style type="text/css"><![CDATA[
.edge:hover path { stroke: red; }
.edge:hover polygon { stroke: red; fill: red; }
]]></style>
<script type="text/javascript"><![CDATA[
var edges = document.getElementsByTagName('g');
if (edges && edges.length) {
  for (var i=0;i<edges.length;i++) {
    if (edges[i].id.substr(0,4)=='edge') {
      edges[i].setAttribute('class','edge');
    }
  }
}
]]></script>
        <defs>
                <circle id="rim" cx="0" cy="0" r="7"/>
                <circle id="rim2" cx="0" cy="0" r="3.5"/>
                <g id="zoomPlus">
                        <use xlink:href="#rim" fill="#404040">
                                <set attributeName="fill" to="#808080" begin="zoomplus.mouseover" end="zoomplus.mouseout"/>
                        </use>
                        <path d="M-4,0h8M0,-4v8" fill="none" stroke="white" stroke-width="1.5" pointer-events="none"/>
                </g>
                <g id="zoomMin">
                        <use xlink:href="#rim" fill="#404040">
                                <set attributeName="fill" to="#808080" begin="zoomminus.mouseover" end="zoomminus.mouseout"/>
                        </use>
                        <path d="M-4,0h8" fill="none" stroke="white" stroke-width="1.5" pointer-events="none"/>
                </g>
                <g id="dirArrow">
                        <path fill="none" stroke="white" stroke-width="1.5" d="M0,-3.0v7 M-2.5,-0.5L0,-3.0L2.5,-0.5"/>
                </g>
               <g id="resetDef">
                       <use xlink:href="#rim2" fill="#404040">
                               <set attributeName="fill" to="#808080" begin="reset.mouseover" end="reset.mouseout"/>
                       </use>
               </g>
        </defs>

<script type="text/javascript">
var viewWidth = 2370;
var viewHeight = 570;
var sectionId = 'dynsection-0';
</script>
<script xlink:href="../../svgpan.js"/>
<svg id="graph" class="graph">
<g id="viewport">
<title>/home/travis/build/AliceO2Group/AliceO2/Detectors/PHOS/testsimulation/plot_hit_phos.C</title>
<!-- Node1 -->
<g id="node1" class="node"><title>Node1</title>
<polygon fill="#bfbfbf" stroke="black" points="466,-509 466,-561 624,-561 624,-509 466,-509"/>
<text text-anchor="start" x="474" y="-549" font-family="Helvetica,sans-Serif" font-size="10.00">/home/travis/build</text>
<text text-anchor="start" x="474" y="-538" font-family="Helvetica,sans-Serif" font-size="10.00">/AliceO2Group/AliceO2</text>
<text text-anchor="start" x="474" y="-527" font-family="Helvetica,sans-Serif" font-size="10.00">/Detectors/PHOS/testsimulation</text>
<text text-anchor="middle" x="545" y="-516" font-family="Helvetica,sans-Serif" font-size="10.00">/plot_hit_phos.C</text>
</g>
<!-- Node2 -->
<g id="node2" class="node"><title>Node2</title>
<polygon fill="none" stroke="#bfbfbf" points="0,-446.5 0,-465.5 52,-465.5 52,-446.5 0,-446.5"/>
<text text-anchor="middle" x="26" y="-453.5" font-family="Helvetica,sans-Serif" font-size="10.00">sstream</text>
</g>
<!-- Node1&#45;&gt;Node2 -->
<g id="edge1" class="edge"><title>Node1&#45;&gt;Node2</title>
<path fill="none" stroke="midnightblue" d="M465.731,-530.585C368.774,-524.878 200.353,-509.99 61,-472 58.3411,-471.275 55.6201,-470.389 52.9276,-469.412"/>
<polygon fill="midnightblue" stroke="midnightblue" points="54.0476,-466.09 43.4636,-465.611 51.4386,-472.586 54.0476,-466.09"/>
</g>
<!-- Node3 -->
<g id="node3" class="node"><title>Node3</title>
<polygon fill="none" stroke="#bfbfbf" points="70.5,-446.5 70.5,-465.5 147.5,-465.5 147.5,-446.5 70.5,-446.5"/>
<text text-anchor="middle" x="109" y="-453.5" font-family="Helvetica,sans-Serif" font-size="10.00">TStopwatch.h</text>
</g>
<!-- Node1&#45;&gt;Node3 -->
<g id="edge2" class="edge"><title>Node1&#45;&gt;Node3</title>
<path fill="none" stroke="midnightblue" d="M465.712,-524.924C386.616,-515.039 261.951,-497.198 156,-472 151.875,-471.019 147.588,-469.857 143.356,-468.62"/>
<polygon fill="midnightblue" stroke="midnightblue" points="144.27,-465.239 133.683,-465.648 142.214,-471.93 144.27,-465.239"/>
</g>
<!-- Node4 -->
<g id="node4" class="node"><title>Node4</title>
<polygon fill="none" stroke="#bfbfbf" points="165.5,-446.5 165.5,-465.5 230.5,-465.5 230.5,-446.5 165.5,-446.5"/>
<text text-anchor="middle" x="198" y="-453.5" font-family="Helvetica,sans-Serif" font-size="10.00">TCanvas.h</text>
</g>
<!-- Node1&#45;&gt;Node4 -->
<g id="edge3" class="edge"><title>Node1&#45;&gt;Node4</title>
<path fill="none" stroke="midnightblue" d="M465.91,-521.115C403.905,-510.248 315.734,-493.106 240,-472 236.616,-471.057 233.112,-469.977 229.637,-468.838"/>
<polygon fill="midnightblue" stroke="midnightblue" points="230.638,-465.481 220.043,-465.538 228.361,-472.101 230.638,-465.481"/>
</g>
<!-- Node5 -->
<g id="node5" class="node"><title>Node5</title>
<polygon fill="none" stroke="#bfbfbf" points="249,-446.5 249,-465.5 293,-465.5 293,-446.5 249,-446.5"/>
<text text-anchor="middle" x="271" y="-453.5" font-family="Helvetica,sans-Serif" font-size="10.00">TH2.h</text>
</g>
<!-- Node1&#45;&gt;Node5 -->
<g id="edge4" class="edge"><title>Node1&#45;&gt;Node5</title>
<path fill="none" stroke="midnightblue" d="M465.814,-518.026C417.711,-507.286 355.471,-491.533 302,-472 300.147,-471.323 298.256,-470.571 296.369,-469.775"/>
<polygon fill="midnightblue" stroke="midnightblue" points="297.695,-466.533 287.144,-465.569 294.79,-472.903 297.695,-466.533"/>
</g>
<!-- Node6 -->
<g id="node6" class="node"><title>Node6</title>
<polygon fill="none" stroke="#bfbfbf" points="311,-446.5 311,-465.5 399,-465.5 399,-446.5 311,-446.5"/>
<text text-anchor="middle" x="355" y="-453.5" font-family="Helvetica,sans-Serif" font-size="10.00">FairFileSource.h</text>
</g>
<!-- Node1&#45;&gt;Node6 -->
<g id="edge5" class="edge"><title>Node1&#45;&gt;Node6</title>
<path fill="none" stroke="midnightblue" d="M483.05,-508.894C450.401,-495.663 411.804,-480.02 385.583,-469.394"/>
<polygon fill="midnightblue" stroke="midnightblue" points="386.76,-466.095 376.178,-465.583 384.131,-472.582 386.76,-466.095"/>
</g>
<!-- Node7 -->
<g id="node7" class="node"><title>Node7</title>
<polygon fill="none" stroke="#bfbfbf" points="417.5,-446.5 417.5,-465.5 488.5,-465.5 488.5,-446.5 417.5,-446.5"/>
<text text-anchor="middle" x="453" y="-453.5" font-family="Helvetica,sans-Serif" font-size="10.00">FairLogger.h</text>
</g>
<!-- Node1&#45;&gt;Node7 -->
<g id="edge6" class="edge"><title>Node1&#45;&gt;Node7</title>
<path fill="none" stroke="midnightblue" d="M514.876,-508.787C500.399,-496.671 483.531,-482.553 471.067,-472.121"/>
<polygon fill="midnightblue" stroke="midnightblue" points="473.14,-469.292 463.225,-465.558 468.647,-474.66 473.14,-469.292"/>
</g>
<!-- Node8 -->
<g id="node8" class="node"><title>Node8</title>
<polygon fill="none" stroke="#bfbfbf" points="506.5,-446.5 506.5,-465.5 583.5,-465.5 583.5,-446.5 506.5,-446.5"/>
<text text-anchor="middle" x="545" y="-453.5" font-family="Helvetica,sans-Serif" font-size="10.00">FairRunAna.h</text>
</g>
<!-- Node1&#45;&gt;Node8 -->
<g id="edge7" class="edge"><title>Node1&#45;&gt;Node8</title>
<path fill="none" stroke="midnightblue" d="M545,-508.787C545,-498.069 545,-485.785 545,-475.871"/>
<polygon fill="midnightblue" stroke="midnightblue" points="548.5,-475.558 545,-465.558 541.5,-475.558 548.5,-475.558"/>
</g>
<!-- Node9 -->
<g id="node9" class="node"><title>Node9</title>
<polygon fill="none" stroke="#bfbfbf" points="601.5,-446.5 601.5,-465.5 702.5,-465.5 702.5,-446.5 601.5,-446.5"/>
<text text-anchor="middle" x="652" y="-453.5" font-family="Helvetica,sans-Serif" font-size="10.00">FairParRootFileIo.h</text>
</g>
<!-- Node1&#45;&gt;Node9 -->
<g id="edge8" class="edge"><title>Node1&#45;&gt;Node9</title>
<path fill="none" stroke="midnightblue" d="M580.036,-508.787C597.197,-496.438 617.246,-482.01 631.818,-471.523"/>
<polygon fill="midnightblue" stroke="midnightblue" points="634.036,-474.24 640.108,-465.558 629.947,-468.558 634.036,-474.24"/>
</g>
<!-- Node10 -->
<g id="node10" class="node"><title>Node10</title>
<polygon fill="none" stroke="#bfbfbf" points="721,-446.5 721,-465.5 813,-465.5 813,-446.5 721,-446.5"/>
<text text-anchor="middle" x="767" y="-453.5" font-family="Helvetica,sans-Serif" font-size="10.00">FairSystemInfo.h</text>
</g>
<!-- Node1&#45;&gt;Node10 -->
<g id="edge9" class="edge"><title>Node1&#45;&gt;Node10</title>
<path fill="none" stroke="midnightblue" d="M617.384,-508.894C656.035,-495.488 701.823,-479.607 732.473,-468.975"/>
<polygon fill="midnightblue" stroke="midnightblue" points="733.954,-472.166 742.255,-465.583 731.66,-465.553 733.954,-472.166"/>
</g>
<!-- Node11 -->
<g id="node11" class="node"><title>Node11</title>
<g id="a_node11"><a xlink:href="../../d7/dcd/MCCompLabel_8h.html" target="_top" xlink:title="SimulationDataFormat\l/MCCompLabel.h">
<polygon fill="none" stroke="black" points="991,-261 991,-291 1105,-291 1105,-261 991,-261"/>
<text text-anchor="start" x="999" y="-279" font-family="Helvetica,sans-Serif" font-size="10.00">SimulationDataFormat</text>
<text text-anchor="middle" x="1048" y="-268" font-family="Helvetica,sans-Serif" font-size="10.00">/MCCompLabel.h</text>
</a>
</g>
</g>
<!-- Node1&#45;&gt;Node11 -->
<g id="edge10" class="edge"><title>Node1&#45;&gt;Node11</title>
<path fill="none" stroke="midnightblue" d="M624.255,-529.529C686.961,-523.252 775.125,-508.177 844,-472 846.753,-470.554 973.508,-348.695 1025.8,-298.372"/>
<polygon fill="midnightblue" stroke="midnightblue" points="1028.46,-300.669 1033.24,-291.213 1023.61,-295.626 1028.46,-300.669"/>
</g>
<!-- Node13 -->
<g id="node13" class="node"><title>Node13</title>
<g id="a_node13"><a xlink:href="../../d7/d7f/PHOS_2base_2include_2PHOSBase_2Geometry_8h.html" target="_top" xlink:title="PHOSBase/Geometry.h">
<polygon fill="none" stroke="black" points="776,-328.5 776,-347.5 898,-347.5 898,-328.5 776,-328.5"/>
<text text-anchor="middle" x="837" y="-335.5" font-family="Helvetica,sans-Serif" font-size="10.00">PHOSBase/Geometry.h</text>
</a>
</g>
</g>
<!-- Node1&#45;&gt;Node13 -->
<g id="edge12" class="edge"><title>Node1&#45;&gt;Node13</title>
<path fill="none" stroke="midnightblue" d="M624.268,-526.436C696.576,-517.799 795.996,-500.973 822,-472 850.363,-440.399 845.877,-386.142 840.986,-357.677"/>
<polygon fill="midnightblue" stroke="midnightblue" points="844.416,-356.979 839.093,-347.818 837.542,-358.299 844.416,-356.979"/>
</g>
<!-- Node17 -->
<g id="node17" class="node"><title>Node17</title>
<g id="a_node17"><a xlink:href="../../d2/d43/PHOS_2simulation_2include_2PHOSSimulation_2DigitizerTask_8h.html" target="_top" xlink:title="PHOSSimulation/Digitizer\lTask.h">
<polygon fill="none" stroke="black" points="910,-441 910,-471 1040,-471 1040,-441 910,-441"/>
<text text-anchor="start" x="918" y="-459" font-family="Helvetica,sans-Serif" font-size="10.00">PHOSSimulation/Digitizer</text>
<text text-anchor="middle" x="975" y="-448" font-family="Helvetica,sans-Serif" font-size="10.00">Task.h</text>
</a>
</g>
</g>
<!-- Node1&#45;&gt;Node17 -->
<g id="edge16" class="edge"><title>Node1&#45;&gt;Node17</title>
<path fill="none" stroke="midnightblue" d="M624.145,-520.007C694.692,-507.508 800.752,-488.655 893,-472 895.199,-471.603 897.43,-471.199 899.683,-470.791"/>
<polygon fill="midnightblue" stroke="midnightblue" points="900.443,-474.211 909.658,-468.981 899.193,-467.323 900.443,-474.211"/>
</g>
<!-- Node42 -->
<g id="node42" class="node"><title>Node42</title>
<polygon fill="none" stroke="#bfbfbf" points="1058.5,-446.5 1058.5,-465.5 1173.5,-465.5 1173.5,-446.5 1058.5,-446.5"/>
<text text-anchor="middle" x="1116" y="-453.5" font-family="Helvetica,sans-Serif" font-size="10.00">PHOSSimulation/Hit.h</text>
</g>
<!-- Node1&#45;&gt;Node42 -->
<g id="edge48" class="edge"><title>Node1&#45;&gt;Node42</title>
<path fill="none" stroke="midnightblue" d="M624.354,-526.662C723.945,-516.898 899.803,-497.814 1049,-472 1056.19,-470.757 1063.77,-469.251 1071.14,-467.679"/>
<polygon fill="midnightblue" stroke="midnightblue" points="1071.99,-471.075 1081.01,-465.513 1070.49,-464.238 1071.99,-471.075"/>
</g>
<!-- Node12 -->
<g id="node12" class="node"><title>Node12</title>
<polygon fill="none" stroke="#bfbfbf" points="706,-74.5 706,-93.5 762,-93.5 762,-74.5 706,-74.5"/>
<text text-anchor="middle" x="734" y="-81.5" font-family="Helvetica,sans-Serif" font-size="10.00">Rtypes.h</text>
</g>
<!-- Node11&#45;&gt;Node12 -->
<g id="edge11" class="edge"><title>Node11&#45;&gt;Node12</title>
<path fill="none" stroke="midnightblue" d="M998.068,-260.958C970.816,-252.254 937.02,-239.726 909,-224 844.672,-187.895 779.369,-128.751 750.021,-100.703"/>
<polygon fill="midnightblue" stroke="midnightblue" points="752.353,-98.0892 742.727,-93.6617 747.491,-103.125 752.353,-98.0892"/>
</g>
<!-- Node14 -->
<g id="node14" class="node"><title>Node14</title>
<polygon fill="none" stroke="#bfbfbf" points="931.5,-266.5 931.5,-285.5 972.5,-285.5 972.5,-266.5 931.5,-266.5"/>
<text text-anchor="middle" x="952" y="-273.5" font-family="Helvetica,sans-Serif" font-size="10.00">string</text>
</g>
<!-- Node13&#45;&gt;Node14 -->
<g id="edge13" class="edge"><title>Node13&#45;&gt;Node14</title>
<path fill="none" stroke="midnightblue" d="M853.477,-328.403C872.605,-318.423 904.373,-301.849 926.652,-290.225"/>
<polygon fill="midnightblue" stroke="midnightblue" points="928.307,-293.309 935.554,-285.581 925.069,-287.103 928.307,-293.309"/>
</g>
<!-- Node15 -->
<g id="node15" class="node"><title>Node15</title>
<polygon fill="none" stroke="#bfbfbf" points="762,-266.5 762,-285.5 842,-285.5 842,-266.5 762,-266.5"/>
<text text-anchor="middle" x="802" y="-273.5" font-family="Helvetica,sans-Serif" font-size="10.00">RStringView.h</text>
</g>
<!-- Node13&#45;&gt;Node15 -->
<g id="edge14" class="edge"><title>Node13&#45;&gt;Node15</title>
<path fill="none" stroke="midnightblue" d="M831.985,-328.403C826.839,-319.582 818.688,-305.608 812.182,-294.455"/>
<polygon fill="midnightblue" stroke="midnightblue" points="815.067,-292.455 807.005,-285.581 809.021,-295.982 815.067,-292.455"/>
</g>
<!-- Node16 -->
<g id="node16" class="node"><title>Node16</title>
<polygon fill="none" stroke="#bfbfbf" points="860.5,-266.5 860.5,-285.5 913.5,-285.5 913.5,-266.5 860.5,-266.5"/>
<text text-anchor="middle" x="887" y="-273.5" font-family="Helvetica,sans-Serif" font-size="10.00">TMath.h</text>
</g>
<!-- Node13&#45;&gt;Node16 -->
<g id="edge15" class="edge"><title>Node13&#45;&gt;Node16</title>
<path fill="none" stroke="midnightblue" d="M844.164,-328.403C851.738,-319.314 863.87,-304.756 873.293,-293.449"/>
<polygon fill="midnightblue" stroke="midnightblue" points="876.136,-295.503 879.85,-285.581 870.759,-291.022 876.136,-295.503"/>
</g>
<!-- Node17&#45;&gt;Node12 -->
<g id="edge18" class="edge"><title>Node17&#45;&gt;Node12</title>
<path fill="none" stroke="midnightblue" d="M920.755,-440.916C873.23,-425.772 805.851,-397.006 767,-348 708.633,-274.377 722.375,-150.907 730.332,-103.925"/>
<polygon fill="midnightblue" stroke="midnightblue" points="733.803,-104.398 732.139,-93.9349 726.915,-103.152 733.803,-104.398"/>
</g>
<!-- Node18 -->
<g id="node18" class="node"><title>Node18</title>
<polygon fill="none" stroke="#bfbfbf" points="945.5,-384.5 945.5,-403.5 1008.5,-403.5 1008.5,-384.5 945.5,-384.5"/>
<text text-anchor="middle" x="977" y="-391.5" font-family="Helvetica,sans-Serif" font-size="10.00">FairTask.h</text>
</g>
<!-- Node17&#45;&gt;Node18 -->
<g id="edge17" class="edge"><title>Node17&#45;&gt;Node18</title>
<path fill="none" stroke="midnightblue" d="M975.474,-440.781C975.744,-432.691 976.085,-422.462 976.376,-413.725"/>
<polygon fill="midnightblue" stroke="midnightblue" points="979.874,-413.842 976.709,-403.731 972.878,-413.608 979.874,-413.842"/>
</g>
<!-- Node19 -->
<g id="node19" class="node"><title>Node19</title>
<g id="a_node19"><a xlink:href="../../d1/def/PHOS_2base_2include_2PHOSBase_2Hit_8h.html" target="_top" xlink:title="PHOSBase/Hit.h">
<polygon fill="none" stroke="black" points="1166,-266.5 1166,-285.5 1258,-285.5 1258,-266.5 1166,-266.5"/>
<text text-anchor="middle" x="1212" y="-273.5" font-family="Helvetica,sans-Serif" font-size="10.00">PHOSBase/Hit.h</text>
</a>
</g>
</g>
<!-- Node17&#45;&gt;Node19 -->
<g id="edge19" class="edge"><title>Node17&#45;&gt;Node19</title>
<path fill="none" stroke="midnightblue" d="M1040.15,-441.637C1094.32,-429.984 1164.12,-413.499 1174,-404 1204.06,-375.117 1210.6,-323.531 1211.86,-295.825"/>
<polygon fill="midnightblue" stroke="midnightblue" points="1215.37,-295.637 1212.13,-285.549 1208.37,-295.454 1215.37,-295.637"/>
</g>
<!-- Node39 -->
<g id="node39" class="node"><title>Node39</title>
<g id="a_node39"><a xlink:href="../../d6/d4b/PHOS_2simulation_2include_2PHOSSimulation_2Digitizer_8h.html" target="_top" xlink:title="PHOSSimulation/Digitizer.h">
<polygon fill="none" stroke="black" points="1027,-384.5 1027,-403.5 1165,-403.5 1165,-384.5 1027,-384.5"/>
<text text-anchor="middle" x="1096" y="-391.5" font-family="Helvetica,sans-Serif" font-size="10.00">PHOSSimulation/Digitizer.h</text>
</a>
</g>
</g>
<!-- Node17&#45;&gt;Node39 -->
<g id="edge40" class="edge"><title>Node17&#45;&gt;Node39</title>
<path fill="none" stroke="midnightblue" d="M1003.37,-440.933C1023.42,-430.991 1050.1,-417.76 1069.68,-408.053"/>
<polygon fill="midnightblue" stroke="midnightblue" points="1071.25,-411.178 1078.66,-403.6 1068.14,-404.907 1071.25,-411.178"/>
</g>
<!-- Node20 -->
<g id="node20" class="node"><title>Node20</title>
<g id="a_node20"><a xlink:href="../../d4/d25/BaseHits_8h.html" target="_top" xlink:title="SimulationDataFormat\l/BaseHits.h">
<polygon fill="none" stroke="black" points="1165,-193 1165,-223 1279,-223 1279,-193 1165,-193"/>
<text text-anchor="start" x="1173" y="-211" font-family="Helvetica,sans-Serif" font-size="10.00">SimulationDataFormat</text>
<text text-anchor="middle" x="1222" y="-200" font-family="Helvetica,sans-Serif" font-size="10.00">/BaseHits.h</text>
</a>
</g>
</g>
<!-- Node19&#45;&gt;Node20 -->
<g id="edge20" class="edge"><title>Node19&#45;&gt;Node20</title>
<path fill="none" stroke="midnightblue" d="M1213.31,-266.372C1214.58,-257.971 1216.57,-244.811 1218.33,-233.213"/>
<polygon fill="midnightblue" stroke="midnightblue" points="1221.81,-233.593 1219.85,-223.181 1214.89,-232.544 1221.81,-233.593"/>
</g>
<!-- Node32 -->
<g id="node32" class="node"><title>Node32</title>
<g id="a_node32"><a xlink:href="../../d0/d91/ShmAllocator_8h.html" target="_top" xlink:title="CommonUtils/ShmAllocator.h">
<polygon fill="none" stroke="black" points="2116,-198.5 2116,-217.5 2262,-217.5 2262,-198.5 2116,-198.5"/>
<text text-anchor="middle" x="2189" y="-205.5" font-family="Helvetica,sans-Serif" font-size="10.00">CommonUtils/ShmAllocator.h</text>
</a>
</g>
</g>
<!-- Node19&#45;&gt;Node32 -->
<g id="edge33" class="edge"><title>Node19&#45;&gt;Node32</title>
<path fill="none" stroke="midnightblue" d="M1258.14,-271.883C1411.78,-261.504 1907.51,-228.016 2105.85,-214.617"/>
<polygon fill="midnightblue" stroke="midnightblue" points="2106.18,-218.103 2115.92,-213.937 2105.71,-211.119 2106.18,-218.103"/>
</g>
<!-- Node21 -->
<g id="node21" class="node"><title>Node21</title>
<g id="a_node21"><a xlink:href="../../dd/d76/Cartesian3D_8h.html" target="_top" xlink:title="MathUtils/Cartesian3D.h">
<polygon fill="none" stroke="black" points="1180.5,-136.5 1180.5,-155.5 1305.5,-155.5 1305.5,-136.5 1180.5,-136.5"/>
<text text-anchor="middle" x="1243" y="-143.5" font-family="Helvetica,sans-Serif" font-size="10.00">MathUtils/Cartesian3D.h</text>
</a>
</g>
</g>
<!-- Node20&#45;&gt;Node21 -->
<g id="edge21" class="edge"><title>Node20&#45;&gt;Node21</title>
<path fill="none" stroke="midnightblue" d="M1226.98,-192.781C1229.84,-184.601 1233.47,-174.234 1236.55,-165.434"/>
<polygon fill="midnightblue" stroke="midnightblue" points="1239.94,-166.325 1239.94,-155.731 1233.34,-164.013 1239.94,-166.325"/>
</g>
<!-- Node21&#45;&gt;Node12 -->
<g id="edge27" class="edge"><title>Node21&#45;&gt;Node12</title>
<path fill="none" stroke="midnightblue" d="M1180.19,-144.759C1088.83,-143.124 914.519,-135.137 771,-100 767.935,-99.2495 764.789,-98.2915 761.689,-97.2235"/>
<polygon fill="midnightblue" stroke="midnightblue" points="762.685,-93.8574 752.095,-93.5566 760.186,-100.396 762.685,-93.8574"/>
</g>
<!-- Node22 -->
<g id="node22" class="node"><title>Node22</title>
<polygon fill="none" stroke="#bfbfbf" points="1432.5,-69 1432.5,-99 1583.5,-99 1583.5,-69 1432.5,-69"/>
<text text-anchor="start" x="1440.5" y="-87" font-family="Helvetica,sans-Serif" font-size="10.00">Math/GenVector/Displacement</text>
<text text-anchor="middle" x="1508" y="-76" font-family="Helvetica,sans-Serif" font-size="10.00">Vector3D.h</text>
</g>
<!-- Node21&#45;&gt;Node22 -->
<g id="edge22" class="edge"><title>Node21&#45;&gt;Node22</title>
<path fill="none" stroke="midnightblue" d="M1280.69,-136.467C1321.01,-127.337 1385.93,-112.638 1436.09,-101.281"/>
<polygon fill="midnightblue" stroke="midnightblue" points="1436.94,-104.678 1445.92,-99.0565 1435.39,-97.8513 1436.94,-104.678"/>
</g>
<!-- Node23 -->
<g id="node23" class="node"><title>Node23</title>
<polygon fill="none" stroke="#bfbfbf" points="1602,-74.5 1602,-93.5 1778,-93.5 1778,-74.5 1602,-74.5"/>
<text text-anchor="middle" x="1690" y="-81.5" font-family="Helvetica,sans-Serif" font-size="10.00">Math/GenVector/PositionVector3D.h</text>
</g>
<!-- Node21&#45;&gt;Node23 -->
<g id="edge23" class="edge"><title>Node21&#45;&gt;Node23</title>
<path fill="none" stroke="midnightblue" d="M1305.79,-137.358C1375.7,-128.742 1492.03,-114.093 1592,-100 1602.9,-98.4639 1614.46,-96.7596 1625.68,-95.0668"/>
<polygon fill="midnightblue" stroke="midnightblue" points="1626.5,-98.4828 1635.86,-93.5207 1625.45,-91.5621 1626.5,-98.4828"/>
</g>
<!-- Node24 -->
<g id="node24" class="node"><title>Node24</title>
<polygon fill="none" stroke="#bfbfbf" points="1795.5,-74.5 1795.5,-93.5 1944.5,-93.5 1944.5,-74.5 1795.5,-74.5"/>
<text text-anchor="middle" x="1870" y="-81.5" font-family="Helvetica,sans-Serif" font-size="10.00">Math/GenVector/Rotation3D.h</text>
</g>
<!-- Node21&#45;&gt;Node24 -->
<g id="edge24" class="edge"><title>Node21&#45;&gt;Node24</title>
<path fill="none" stroke="midnightblue" d="M1305.5,-141.735C1406.73,-136.018 1612.71,-122.603 1786,-100 1795.92,-98.7067 1806.44,-97.0526 1816.57,-95.3179"/>
<polygon fill="midnightblue" stroke="midnightblue" points="1817.28,-98.7463 1826.52,-93.5666 1816.07,-91.8522 1817.28,-98.7463"/>
</g>
<!-- Node25 -->
<g id="node25" class="node"><title>Node25</title>
<polygon fill="none" stroke="#bfbfbf" points="780,-74.5 780,-93.5 936,-93.5 936,-74.5 780,-74.5"/>
<text text-anchor="middle" x="858" y="-81.5" font-family="Helvetica,sans-Serif" font-size="10.00">Math/GenVector/Transform3D.h</text>
</g>
<!-- Node21&#45;&gt;Node25 -->
<g id="edge25" class="edge"><title>Node21&#45;&gt;Node25</title>
<path fill="none" stroke="midnightblue" d="M1184.14,-136.481C1123.99,-127.689 1027.9,-113.404 945,-100 935.679,-98.4929 925.807,-96.8426 916.188,-95.2052"/>
<polygon fill="midnightblue" stroke="midnightblue" points="916.736,-91.7483 906.289,-93.5102 915.555,-98.6479 916.736,-91.7483"/>
</g>
<!-- Node26 -->
<g id="node26" class="node"><title>Node26</title>
<polygon fill="none" stroke="#bfbfbf" points="954,-74.5 954,-93.5 1114,-93.5 1114,-74.5 954,-74.5"/>
<text text-anchor="middle" x="1034" y="-81.5" font-family="Helvetica,sans-Serif" font-size="10.00">Math/GenVector/Translation3D.h</text>
</g>
<!-- Node21&#45;&gt;Node26 -->
<g id="edge26" class="edge"><title>Node21&#45;&gt;Node26</title>
<path fill="none" stroke="midnightblue" d="M1213.06,-136.403C1176.43,-125.889 1114.3,-108.054 1073.72,-96.4016"/>
<polygon fill="midnightblue" stroke="midnightblue" points="1074.47,-92.9759 1063.89,-93.5806 1072.54,-99.7041 1074.47,-92.9759"/>
</g>
<!-- Node27 -->
<g id="node27" class="node"><title>Node27</title>
<polygon fill="none" stroke="#bfbfbf" points="1132,-74.5 1132,-93.5 1208,-93.5 1208,-74.5 1132,-74.5"/>
<text text-anchor="middle" x="1170" y="-81.5" font-family="Helvetica,sans-Serif" font-size="10.00">TGeoMatrix.h</text>
</g>
<!-- Node21&#45;&gt;Node27 -->
<g id="edge28" class="edge"><title>Node21&#45;&gt;Node27</title>
<path fill="none" stroke="midnightblue" d="M1232.54,-136.403C1221.05,-126.958 1202.37,-111.606 1188.41,-100.134"/>
<polygon fill="midnightblue" stroke="midnightblue" points="1190.39,-97.2264 1180.44,-93.5806 1185.94,-102.634 1190.39,-97.2264"/>
</g>
<!-- Node28 -->
<g id="node28" class="node"><title>Node28</title>
<polygon fill="none" stroke="#bfbfbf" points="1226.5,-74.5 1226.5,-93.5 1271.5,-93.5 1271.5,-74.5 1226.5,-74.5"/>
<text text-anchor="middle" x="1249" y="-81.5" font-family="Helvetica,sans-Serif" font-size="10.00">iosfwd</text>
</g>
<!-- Node21&#45;&gt;Node28 -->
<g id="edge29" class="edge"><title>Node21&#45;&gt;Node28</title>
<path fill="none" stroke="midnightblue" d="M1243.86,-136.403C1244.71,-127.938 1246.03,-114.728 1247.12,-103.82"/>
<polygon fill="midnightblue" stroke="midnightblue" points="1250.63,-103.879 1248.14,-93.5806 1243.66,-103.183 1250.63,-103.879"/>
</g>
<!-- Node29 -->
<g id="node29" class="node"><title>Node29</title>
<g id="a_node29"><a xlink:href="../../d2/dd0/Cartesian2D_8h.html" target="_top" xlink:title="MathUtils/Cartesian2D.h">
<polygon fill="none" stroke="black" points="1289.5,-74.5 1289.5,-93.5 1414.5,-93.5 1414.5,-74.5 1289.5,-74.5"/>
<text text-anchor="middle" x="1352" y="-81.5" font-family="Helvetica,sans-Serif" font-size="10.00">MathUtils/Cartesian2D.h</text>
</a>
</g>
</g>
<!-- Node21&#45;&gt;Node29 -->
<g id="edge30" class="edge"><title>Node21&#45;&gt;Node29</title>
<path fill="none" stroke="midnightblue" d="M1258.62,-136.403C1276.59,-126.512 1306.32,-110.144 1327.41,-98.5378"/>
<polygon fill="midnightblue" stroke="midnightblue" points="1329.34,-101.469 1336.41,-93.5806 1325.96,-95.3367 1329.34,-101.469"/>
</g>
<!-- Node30 -->
<g id="node30" class="node"><title>Node30</title>
<polygon fill="none" stroke="#bfbfbf" points="1185.5,-1 1185.5,-31 1336.5,-31 1336.5,-1 1185.5,-1"/>
<text text-anchor="start" x="1193.5" y="-19" font-family="Helvetica,sans-Serif" font-size="10.00">Math/GenVector/Displacement</text>
<text text-anchor="middle" x="1261" y="-8" font-family="Helvetica,sans-Serif" font-size="10.00">Vector2D.h</text>
</g>
<!-- Node29&#45;&gt;Node30 -->
<g id="edge31" class="edge"><title>Node29&#45;&gt;Node30</title>
<path fill="none" stroke="midnightblue" d="M1340.1,-74.3717C1327.22,-65.0286 1306.22,-49.7966 1289.09,-37.375"/>
<polygon fill="midnightblue" stroke="midnightblue" points="1290.7,-34.2194 1280.55,-31.1815 1286.59,-39.8859 1290.7,-34.2194"/>
</g>
<!-- Node31 -->
<g id="node31" class="node"><title>Node31</title>
<polygon fill="none" stroke="#bfbfbf" points="1355,-6.5 1355,-25.5 1531,-25.5 1531,-6.5 1355,-6.5"/>
<text text-anchor="middle" x="1443" y="-13.5" font-family="Helvetica,sans-Serif" font-size="10.00">Math/GenVector/PositionVector2D.h</text>
</g>
<!-- Node29&#45;&gt;Node31 -->
<g id="edge32" class="edge"><title>Node29&#45;&gt;Node31</title>
<path fill="none" stroke="midnightblue" d="M1363.9,-74.3717C1378.88,-63.5015 1404.86,-44.6602 1422.94,-31.5474"/>
<polygon fill="midnightblue" stroke="midnightblue" points="1425.06,-34.3349 1431.1,-25.6305 1420.95,-28.6684 1425.06,-34.3349"/>
</g>
<!-- Node33 -->
<g id="node33" class="node"><title>Node33</title>
<g id="a_node33"><a xlink:href="../../de/d61/ShmManager_8h.html" target="_top" xlink:title="CommonUtils/ShmManager.h">
<polygon fill="none" stroke="black" points="2116,-136.5 2116,-155.5 2262,-155.5 2262,-136.5 2116,-136.5"/>
<text text-anchor="middle" x="2189" y="-143.5" font-family="Helvetica,sans-Serif" font-size="10.00">CommonUtils/ShmManager.h</text>
</a>
</g>
</g>
<!-- Node32&#45;&gt;Node33 -->
<g id="edge34" class="edge"><title>Node32&#45;&gt;Node33</title>
<path fill="none" stroke="midnightblue" d="M2189,-198.403C2189,-189.938 2189,-176.728 2189,-165.82"/>
<polygon fill="midnightblue" stroke="midnightblue" points="2192.5,-165.581 2189,-155.581 2185.5,-165.581 2192.5,-165.581"/>
</g>
<!-- Node38 -->
<g id="node38" class="node"><title>Node38</title>
<polygon fill="none" stroke="#bfbfbf" points="2280.5,-136.5 2280.5,-155.5 2329.5,-155.5 2329.5,-136.5 2280.5,-136.5"/>
<text text-anchor="middle" x="2305" y="-143.5" font-family="Helvetica,sans-Serif" font-size="10.00">cassert</text>
</g>
<!-- Node32&#45;&gt;Node38 -->
<g id="edge39" class="edge"><title>Node32&#45;&gt;Node38</title>
<path fill="none" stroke="midnightblue" d="M2205.62,-198.403C2224.92,-188.423 2256.96,-171.849 2279.43,-160.225"/>
<polygon fill="midnightblue" stroke="midnightblue" points="2281.14,-163.284 2288.41,-155.581 2277.92,-157.066 2281.14,-163.284"/>
</g>
<!-- Node34 -->
<g id="node34" class="node"><title>Node34</title>
<polygon fill="none" stroke="#bfbfbf" points="2266.5,-74.5 2266.5,-93.5 2295.5,-93.5 2295.5,-74.5 2266.5,-74.5"/>
<text text-anchor="middle" x="2281" y="-81.5" font-family="Helvetica,sans-Serif" font-size="10.00">list</text>
</g>
<!-- Node33&#45;&gt;Node34 -->
<g id="edge35" class="edge"><title>Node33&#45;&gt;Node34</title>
<path fill="none" stroke="midnightblue" d="M2202.18,-136.403C2217.07,-126.691 2241.54,-110.732 2259.27,-99.1697"/>
<polygon fill="midnightblue" stroke="midnightblue" points="2261.38,-101.975 2267.84,-93.5806 2257.56,-96.1117 2261.38,-101.975"/>
</g>
<!-- Node35 -->
<g id="node35" class="node"><title>Node35</title>
<polygon fill="none" stroke="#bfbfbf" points="2313.5,-74.5 2313.5,-93.5 2362.5,-93.5 2362.5,-74.5 2313.5,-74.5"/>
<text text-anchor="middle" x="2338" y="-81.5" font-family="Helvetica,sans-Serif" font-size="10.00">cstddef</text>
</g>
<!-- Node33&#45;&gt;Node35 -->
<g id="edge36" class="edge"><title>Node33&#45;&gt;Node35</title>
<path fill="none" stroke="midnightblue" d="M2211.59,-136.486C2234.86,-127.639 2272.13,-113.258 2304,-100 2305.83,-99.238 2307.71,-98.4426 2309.61,-97.6329"/>
<polygon fill="midnightblue" stroke="midnightblue" points="2311.22,-100.747 2319,-93.5526 2308.43,-94.3271 2311.22,-100.747"/>
</g>
<!-- Node36 -->
<g id="node36" class="node"><title>Node36</title>
<polygon fill="none" stroke="#bfbfbf" points="1963,-69 1963,-99 2111,-99 2111,-69 1963,-69"/>
<text text-anchor="start" x="1971" y="-87" font-family="Helvetica,sans-Serif" font-size="10.00">boost/interprocess</text>
<text text-anchor="middle" x="2037" y="-76" font-family="Helvetica,sans-Serif" font-size="10.00">/managed_external_buffer.hpp</text>
</g>
<!-- Node33&#45;&gt;Node36 -->
<g id="edge37" class="edge"><title>Node33&#45;&gt;Node36</title>
<path fill="none" stroke="midnightblue" d="M2167.22,-136.403C2145.12,-127.679 2110.25,-113.914 2082.15,-102.824"/>
<polygon fill="midnightblue" stroke="midnightblue" points="2083.12,-99.4415 2072.53,-99.0253 2080.55,-105.953 2083.12,-99.4415"/>
</g>
<!-- Node37 -->
<g id="node37" class="node"><title>Node37</title>
<polygon fill="none" stroke="#bfbfbf" points="2129,-69 2129,-99 2249,-99 2249,-69 2129,-69"/>
<text text-anchor="start" x="2137" y="-87" font-family="Helvetica,sans-Serif" font-size="10.00">boost/interprocess</text>
<text text-anchor="middle" x="2189" y="-76" font-family="Helvetica,sans-Serif" font-size="10.00">/allocators/allocator.hpp</text>
</g>
<!-- Node33&#45;&gt;Node37 -->
<g id="edge38" class="edge"><title>Node33&#45;&gt;Node37</title>
<path fill="none" stroke="midnightblue" d="M2189,-136.403C2189,-129.341 2189,-118.975 2189,-109.399"/>
<polygon fill="midnightblue" stroke="midnightblue" points="2192.5,-109.141 2189,-99.1408 2185.5,-109.141 2192.5,-109.141"/>
</g>
<!-- Node39&#45;&gt;Node13 -->
<g id="edge46" class="edge"><title>Node39&#45;&gt;Node13</title>
<path fill="none" stroke="midnightblue" d="M1054.96,-384.444C1009.68,-375.004 936.773,-359.802 887.894,-349.611"/>
<polygon fill="midnightblue" stroke="midnightblue" points="888.351,-346.131 877.847,-347.516 886.922,-352.984 888.351,-346.131"/>
</g>
<!-- Node39&#45;&gt;Node19 -->
<g id="edge47" class="edge"><title>Node39&#45;&gt;Node19</title>
<path fill="none" stroke="midnightblue" d="M1108.65,-384.446C1120.87,-375.905 1139.58,-362.059 1154,-348 1171.36,-331.067 1188.61,-309.138 1199.72,-294.159"/>
<polygon fill="midnightblue" stroke="midnightblue" points="1202.72,-295.978 1205.79,-285.837 1197.07,-291.851 1202.72,-295.978"/>
</g>
<!-- Node40 -->
<g id="node40" class="node"><title>Node40</title>
<g id="a_node40"><a xlink:href="../../d8/de9/PHOS_2base_2include_2PHOSBase_2Digit_8h.html" target="_top" xlink:title="PHOSBase/Digit.h">
<polygon fill="none" stroke="black" points="1046.5,-328.5 1046.5,-347.5 1145.5,-347.5 1145.5,-328.5 1046.5,-328.5"/>
<text text-anchor="middle" x="1096" y="-335.5" font-family="Helvetica,sans-Serif" font-size="10.00">PHOSBase/Digit.h</text>
</a>
</g>
</g>
<!-- Node39&#45;&gt;Node40 -->
<g id="edge41" class="edge"><title>Node39&#45;&gt;Node40</title>
<path fill="none" stroke="midnightblue" d="M1096,-384.083C1096,-377.006 1096,-366.861 1096,-357.986"/>
<polygon fill="midnightblue" stroke="midnightblue" points="1099.5,-357.751 1096,-347.751 1092.5,-357.751 1099.5,-357.751"/>
</g>
<!-- Node40&#45;&gt;Node11 -->
<g id="edge44" class="edge"><title>Node40&#45;&gt;Node11</title>
<path fill="none" stroke="midnightblue" d="M1089.12,-328.403C1083.05,-320.809 1073.92,-309.396 1065.8,-299.252"/>
<polygon fill="midnightblue" stroke="midnightblue" points="1068.29,-296.763 1059.31,-291.141 1062.83,-301.136 1068.29,-296.763"/>
</g>
<!-- Node40&#45;&gt;Node19 -->
<g id="edge45" class="edge"><title>Node40&#45;&gt;Node19</title>
<path fill="none" stroke="midnightblue" d="M1112.62,-328.403C1131.92,-318.423 1163.96,-301.849 1186.43,-290.225"/>
<polygon fill="midnightblue" stroke="midnightblue" points="1188.14,-293.284 1195.41,-285.581 1184.92,-287.066 1188.14,-293.284"/>
</g>
<!-- Node41 -->
<g id="node41" class="node"><title>Node41</title>
<g id="a_node41"><a xlink:href="../../df/d5d/common_2include_2CommonDataFormat_2TimeStamp_8h.html" target="_top" xlink:title="CommonDataFormat/TimeStamp.h">
<polygon fill="none" stroke="black" points="918,-198.5 918,-217.5 1088,-217.5 1088,-198.5 918,-198.5"/>
<text text-anchor="middle" x="1003" y="-205.5" font-family="Helvetica,sans-Serif" font-size="10.00">CommonDataFormat/TimeStamp.h</text>
</a>
</g>
</g>
<!-- Node40&#45;&gt;Node41 -->
<g id="edge42" class="edge"><title>Node40&#45;&gt;Node41</title>
<path fill="none" stroke="midnightblue" d="M1102.08,-328.187C1111.69,-313.07 1127.93,-281.728 1114,-260 1101.4,-240.337 1079.09,-228.153 1057.77,-220.653"/>
<polygon fill="midnightblue" stroke="midnightblue" points="1058.67,-217.266 1048.08,-217.526 1056.52,-223.928 1058.67,-217.266"/>
</g>
<!-- Node41&#45;&gt;Node12 -->
<g id="edge43" class="edge"><title>Node41&#45;&gt;Node12</title>
<path fill="none" stroke="midnightblue" d="M984.084,-198.421C937.491,-177.29 816.998,-122.642 762.053,-97.7227"/>
<polygon fill="midnightblue" stroke="midnightblue" points="763.447,-94.5123 752.895,-93.5693 760.556,-100.887 763.447,-94.5123"/>
</g>
</g>
</svg>
        <g id="navigator" transform="translate(0 0)" fill="#404254">
                <rect fill="#f2f5e9" fill-opacity="0.5" stroke="#606060" stroke-width=".5" x="0" y="0" width="60" height="60"/>
                <use id="zoomplus" xlink:href="#zoomPlus" x="17" y="9" onmousedown="handleZoom(evt,'in')"/>
                <use id="zoomminus" xlink:href="#zoomMin" x="42" y="9" onmousedown="handleZoom(evt,'out')"/>
                <use id="reset" xlink:href="#resetDef" x="30" y="36" onmousedown="handleReset()"/>
                <g id="arrowUp" xlink:href="#dirArrow" transform="translate(30 24)" onmousedown="handlePan(0,-1)">
                  <use xlink:href="#rim" fill="#404040">
                        <set attributeName="fill" to="#808080" begin="arrowUp.mouseover" end="arrowUp.mouseout"/>
                  </use>
                  <path fill="none" stroke="white" stroke-width="1.5" d="M0,-3.0v7 M-2.5,-0.5L0,-3.0L2.5,-0.5"/>
                </g>
                <g id="arrowRight" xlink:href="#dirArrow" transform="rotate(90) translate(36 -43)" onmousedown="handlePan(1,0)">
                  <use xlink:href="#rim" fill="#404040">
                        <set attributeName="fill" to="#808080" begin="arrowRight.mouseover" end="arrowRight.mouseout"/>
                  </use>
                  <path fill="none" stroke="white" stroke-width="1.5" d="M0,-3.0v7 M-2.5,-0.5L0,-3.0L2.5,-0.5"/>
                </g>
                <g id="arrowDown" xlink:href="#dirArrow" transform="rotate(180) translate(-30 -48)" onmousedown="handlePan(0,1)">
                  <use xlink:href="#rim" fill="#404040">
                        <set attributeName="fill" to="#808080" begin="arrowDown.mouseover" end="arrowDown.mouseout"/>
                  </use>
                  <path fill="none" stroke="white" stroke-width="1.5" d="M0,-3.0v7 M-2.5,-0.5L0,-3.0L2.5,-0.5"/>
                </g>
                <g id="arrowLeft" xlink:href="#dirArrow" transform="rotate(270) translate(-36 17)" onmousedown="handlePan(-1,0)">
                  <use xlink:href="#rim" fill="#404040">
                        <set attributeName="fill" to="#808080" begin="arrowLeft.mouseover" end="arrowLeft.mouseout"/>
                  </use>
                  <path fill="none" stroke="white" stroke-width="1.5" d="M0,-3.0v7 M-2.5,-0.5L0,-3.0L2.5,-0.5"/>
                </g>
        </g>
        <svg viewBox="0 0 15 15" width="100%" height="30px" preserveAspectRatio="xMaxYMin meet">
         <g id="arrow_out" transform="scale(0.3 0.3)">
          <a xlink:href="plot__hit__phos_8C__incl_org.svg" target="_base">
           <rect id="button" ry="5" rx="5" y="6" x="6" height="38" width="38"
                fill="#f2f5e9" fill-opacity="0.5" stroke="#606060" stroke-width="1.0"/>
           <path id="arrow"
             d="M 11.500037,31.436501 C 11.940474,20.09759 22.043105,11.32322 32.158766,21.979434 L 37.068811,17.246167 C 37.068811,17.246167 37.088388,32 37.088388,32 L 22.160133,31.978069 C 22.160133,31.978069 26.997745,27.140456 26.997745,27.140456 C 18.528582,18.264221 13.291696,25.230495 11.500037,31.436501 z"
             style="fill:#404040;"/>
          </a>
         </g>
        </svg>
</svg>
