<?xml version="1.0" encoding="UTF-8" standalone="no"?>
<!DOCTYPE svg PUBLIC "-//W3C//DTD SVG 1.1//EN"
 "http://www.w3.org/Graphics/SVG/1.1/DTD/svg11.dtd">
<!-- Generated by graphviz version 2.36.0 (20140111.2315)
 -->
<!-- Title: Param Pages: 1 -->
<svg width="120pt" height="172pt"
 viewBox="0.00 0.00 120.00 172.00" xmlns="http://www.w3.org/2000/svg" xmlns:xlink="http://www.w3.org/1999/xlink">
<g id="graph0" class="graph" transform="scale(1 1) rotate(0) translate(4 168)">
<title>Param</title>
<!-- Node1 -->
<g id="node1" class="node"><title>Node1</title>
<polygon fill="#bfbfbf" stroke="black" points="33.5,-106.5 33.5,-163.5 78.5,-163.5 78.5,-106.5 33.5,-106.5"/>
<text text-anchor="middle" x="56" y="-151.5" font-family="Helvetica,sans-Serif" font-size="10.00">Param</text>
<polyline fill="none" stroke="black" points="33.5,-144.5 78.5,-144.5 "/>
<text text-anchor="middle" x="56" y="-132.5" font-family="Helvetica,sans-Serif" font-size="10.00"> </text>
<polyline fill="none" stroke="black" points="33.5,-125.5 78.5,-125.5 "/>
<text text-anchor="middle" x="56" y="-113.5" font-family="Helvetica,sans-Serif" font-size="10.00"> </text>
</g>
<!-- Node2 -->
<g id="node2" class="node"><title>Node2</title>
<g id="a_node2"><a xlink:href="../../df/d63/classo2_1_1ITS_1_1Configuration.html" target="_top" xlink:title="{o2::ITS::Configuration\l\&lt; Param \&gt;\n||+ getInstance()\l}">
<polygon fill="none" stroke="black" points="-0.5,-1 -0.5,-69 112.5,-69 112.5,-1 -0.5,-1"/>
<text text-anchor="start" x="7.5" y="-57" font-family="Helvetica,sans-Serif" font-size="10.00">o2::ITS::Configuration</text>
<text text-anchor="middle" x="56" y="-46" font-family="Helvetica,sans-Serif" font-size="10.00">&lt; Param &gt;</text>
<polyline fill="none" stroke="black" points="-0.5,-39 112.5,-39 "/>
<text text-anchor="middle" x="56" y="-27" font-family="Helvetica,sans-Serif" font-size="10.00"> </text>
<polyline fill="none" stroke="black" points="-0.5,-20 112.5,-20 "/>
<text text-anchor="start" x="7.5" y="-8" font-family="Helvetica,sans-Serif" font-size="10.00">+ getInstance()</text>
</a>
</g>
</g>
<!-- Node1&#45;&gt;Node2 -->
<g id="edge1" class="edge"><title>Node1&#45;&gt;Node2</title>
<path fill="none" stroke="midnightblue" d="M56,-96.3023C56,-87.3951 56,-77.9608 56,-69.2659"/>
<polygon fill="none" stroke="midnightblue" points="52.5001,-96.4407 56,-106.441 59.5001,-96.4408 52.5001,-96.4407"/>
</g>
</g>
</svg>
