<?xml version="1.0" encoding="UTF-8" standalone="no"?>
<!DOCTYPE svg PUBLIC "-//W3C//DTD SVG 1.1//EN"
 "http://www.w3.org/Graphics/SVG/1.1/DTD/svg11.dtd">
<!-- Generated by graphviz version 2.36.0 (20140111.2315)
 -->
<!-- Title: o2::dataformats::TimeStamp&lt; T &gt; Pages: 1 -->
<!--zoomable 838 -->
<svg id="main" version="1.1" xmlns="http://www.w3.org/2000/svg" xmlns:xlink="http://www.w3.org/1999/xlink" xml:space="preserve" onload="init(evt)">
<style type="text/css"><![CDATA[
.edge:hover path { stroke: red; }
.edge:hover polygon { stroke: red; fill: red; }
]]></style>
<script type="text/javascript"><![CDATA[
var edges = document.getElementsByTagName('g');
if (edges && edges.length) {
  for (var i=0;i<edges.length;i++) {
    if (edges[i].id.substr(0,4)=='edge') {
      edges[i].setAttribute('class','edge');
    }
  }
}
]]></script>
        <defs>
                <circle id="rim" cx="0" cy="0" r="7"/>
                <circle id="rim2" cx="0" cy="0" r="3.5"/>
                <g id="zoomPlus">
                        <use xlink:href="#rim" fill="#404040">
                                <set attributeName="fill" to="#808080" begin="zoomplus.mouseover" end="zoomplus.mouseout"/>
                        </use>
                        <path d="M-4,0h8M0,-4v8" fill="none" stroke="white" stroke-width="1.5" pointer-events="none"/>
                </g>
                <g id="zoomMin">
                        <use xlink:href="#rim" fill="#404040">
                                <set attributeName="fill" to="#808080" begin="zoomminus.mouseover" end="zoomminus.mouseout"/>
                        </use>
                        <path d="M-4,0h8" fill="none" stroke="white" stroke-width="1.5" pointer-events="none"/>
                </g>
                <g id="dirArrow">
                        <path fill="none" stroke="white" stroke-width="1.5" d="M0,-3.0v7 M-2.5,-0.5L0,-3.0L2.5,-0.5"/>
                </g>
               <g id="resetDef">
                       <use xlink:href="#rim2" fill="#404040">
                               <set attributeName="fill" to="#808080" begin="reset.mouseover" end="reset.mouseout"/>
                       </use>
               </g>
        </defs>

<script type="text/javascript">
var viewWidth = 1020;
var viewHeight = 838;
var sectionId = 'dynsection-0';
</script>
<script xlink:href="../../svgpan.js"/>
<svg id="graph" class="graph">
<g id="viewport">
<title>o2::dataformats::TimeStamp&lt; T &gt;</title>
<!-- Node1 -->
<g id="node1" class="node"><title>Node1</title>
<polygon fill="#bfbfbf" stroke="black" points="432.5,-728.5 432.5,-829.5 597.5,-829.5 597.5,-728.5 432.5,-728.5"/>
<text text-anchor="middle" x="515" y="-817.5" font-family="Helvetica,sans-Serif" font-size="10.00">o2::dataformats::TimeStamp&lt; T &gt;</text>
<polyline fill="none" stroke="black" points="432.5,-810.5 597.5,-810.5 "/>
<text text-anchor="middle" x="515" y="-798.5" font-family="Helvetica,sans-Serif" font-size="10.00"> </text>
<polyline fill="none" stroke="black" points="432.5,-791.5 597.5,-791.5 "/>
<text text-anchor="start" x="440.5" y="-779.5" font-family="Helvetica,sans-Serif" font-size="10.00">+ TimeStamp()</text>
<text text-anchor="start" x="440.5" y="-768.5" font-family="Helvetica,sans-Serif" font-size="10.00">+ TimeStamp()</text>
<text text-anchor="start" x="440.5" y="-757.5" font-family="Helvetica,sans-Serif" font-size="10.00">+ getTimeStamp()</text>
<text text-anchor="start" x="440.5" y="-746.5" font-family="Helvetica,sans-Serif" font-size="10.00">+ setTimeStamp()</text>
<text text-anchor="start" x="440.5" y="-735.5" font-family="Helvetica,sans-Serif" font-size="10.00">+ operator==()</text>
</g>
<!-- Node2 -->
<g id="node2" class="node"><title>Node2</title>
<g id="a_node2"><a xlink:href="../../d3/dbf/classo2_1_1dataformats_1_1TimeStampWithError.html" target="_top" xlink:title="{o2::dataformats::TimeStamp\lWithError\&lt; T \&gt;\n||+ TimeStampWithError()\l+ TimeStampWithError()\l+ getTimeStampError()\l+ setTimeStampError()\l}">
<polygon fill="none" stroke="black" points="-0.5,-484.5 -0.5,-585.5 140.5,-585.5 140.5,-484.5 -0.5,-484.5"/>
<text text-anchor="start" x="7.5" y="-573.5" font-family="Helvetica,sans-Serif" font-size="10.00">o2::dataformats::TimeStamp</text>
<text text-anchor="middle" x="70" y="-562.5" font-family="Helvetica,sans-Serif" font-size="10.00">WithError&lt; T &gt;</text>
<polyline fill="none" stroke="black" points="-0.5,-555.5 140.5,-555.5 "/>
<text text-anchor="middle" x="70" y="-543.5" font-family="Helvetica,sans-Serif" font-size="10.00"> </text>
<polyline fill="none" stroke="black" points="-0.5,-536.5 140.5,-536.5 "/>
<text text-anchor="start" x="7.5" y="-524.5" font-family="Helvetica,sans-Serif" font-size="10.00">+ TimeStampWithError()</text>
<text text-anchor="start" x="7.5" y="-513.5" font-family="Helvetica,sans-Serif" font-size="10.00">+ TimeStampWithError()</text>
<text text-anchor="start" x="7.5" y="-502.5" font-family="Helvetica,sans-Serif" font-size="10.00">+ getTimeStampError()</text>
<text text-anchor="start" x="7.5" y="-491.5" font-family="Helvetica,sans-Serif" font-size="10.00">+ setTimeStampError()</text>
</a>
</g>
</g>
<!-- Node1&#45;&gt;Node2 -->
<g id="edge1" class="edge"><title>Node1&#45;&gt;Node2</title>
<path fill="none" stroke="midnightblue" d="M422.143,-773.011C342.54,-764.422 228.602,-741.383 150,-680 119.458,-656.149 98.8352,-617.204 86.1876,-585.826"/>
<polygon fill="none" stroke="midnightblue" points="421.858,-776.5 432.163,-774.036 422.57,-769.537 421.858,-776.5"/>
</g>
<!-- Node5 -->
<g id="node5" class="node"><title>Node5</title>
<g id="a_node5"><a xlink:href="../../d5/d5a/classo2_1_1EMCAL_1_1Digit.html" target="_top" xlink:title="EMCAL digit implementation. ">
<polygon fill="none" stroke="black" points="159,-429.5 159,-640.5 299,-640.5 299,-429.5 159,-429.5"/>
<text text-anchor="middle" x="229" y="-628.5" font-family="Helvetica,sans-Serif" font-size="10.00">o2::EMCAL::Digit&lt; double &gt;</text>
<polyline fill="none" stroke="black" points="159,-621.5 299,-621.5 "/>
<text text-anchor="middle" x="229" y="-609.5" font-family="Helvetica,sans-Serif" font-size="10.00"> </text>
<polyline fill="none" stroke="black" points="159,-602.5 299,-602.5 "/>
<text text-anchor="start" x="167" y="-590.5" font-family="Helvetica,sans-Serif" font-size="10.00">+ Digit()</text>
<text text-anchor="start" x="167" y="-579.5" font-family="Helvetica,sans-Serif" font-size="10.00">+ Digit()</text>
<text text-anchor="start" x="167" y="-568.5" font-family="Helvetica,sans-Serif" font-size="10.00">+ ~Digit()</text>
<text text-anchor="start" x="167" y="-557.5" font-family="Helvetica,sans-Serif" font-size="10.00">+ operator&lt;()</text>
<text text-anchor="start" x="167" y="-546.5" font-family="Helvetica,sans-Serif" font-size="10.00">+ operator&gt;()</text>
<text text-anchor="start" x="167" y="-535.5" font-family="Helvetica,sans-Serif" font-size="10.00">+ operator==()</text>
<text text-anchor="start" x="167" y="-524.5" font-family="Helvetica,sans-Serif" font-size="10.00">+ canAdd()</text>
<text text-anchor="start" x="167" y="-513.5" font-family="Helvetica,sans-Serif" font-size="10.00">+ operator+=()</text>
<text text-anchor="start" x="167" y="-502.5" font-family="Helvetica,sans-Serif" font-size="10.00">+ GetTower()</text>
<text text-anchor="start" x="167" y="-491.5" font-family="Helvetica,sans-Serif" font-size="10.00">+ SetTower()</text>
<text text-anchor="start" x="167" y="-480.5" font-family="Helvetica,sans-Serif" font-size="10.00">+ GetAmplitude()</text>
<text text-anchor="start" x="167" y="-469.5" font-family="Helvetica,sans-Serif" font-size="10.00">+ SetAmplitude()</text>
<text text-anchor="start" x="167" y="-458.5" font-family="Helvetica,sans-Serif" font-size="10.00">+ GetLabel()</text>
<text text-anchor="start" x="167" y="-447.5" font-family="Helvetica,sans-Serif" font-size="10.00">+ SetLabel()</text>
<text text-anchor="start" x="167" y="-436.5" font-family="Helvetica,sans-Serif" font-size="10.00">+ PrintStream()</text>
</a>
</g>
</g>
<!-- Node1&#45;&gt;Node5 -->
<g id="edge4" class="edge"><title>Node1&#45;&gt;Node5</title>
<path fill="none" stroke="midnightblue" d="M422.731,-748.753C383.913,-733.022 340.349,-710.476 308,-680 295.962,-668.659 285.324,-655.065 276.069,-640.822"/>
<polygon fill="none" stroke="midnightblue" points="421.901,-752.188 432.488,-752.606 424.472,-745.677 421.901,-752.188"/>
</g>
<!-- Node6 -->
<g id="node6" class="node"><title>Node6</title>
<g id="a_node6"><a xlink:href="../../db/df9/classo2_1_1fit_1_1Digit.html" target="_top" xlink:title="FIT digit implementation. ">
<polygon fill="none" stroke="black" points="317,-418.5 317,-651.5 431,-651.5 431,-418.5 317,-418.5"/>
<text text-anchor="middle" x="374" y="-639.5" font-family="Helvetica,sans-Serif" font-size="10.00">o2::fit::Digit&lt; double &gt;</text>
<polyline fill="none" stroke="black" points="317,-632.5 431,-632.5 "/>
<text text-anchor="middle" x="374" y="-620.5" font-family="Helvetica,sans-Serif" font-size="10.00"> </text>
<polyline fill="none" stroke="black" points="317,-613.5 431,-613.5 "/>
<text text-anchor="start" x="325" y="-601.5" font-family="Helvetica,sans-Serif" font-size="10.00">+ Digit()</text>
<text text-anchor="start" x="325" y="-590.5" font-family="Helvetica,sans-Serif" font-size="10.00">+ Digit()</text>
<text text-anchor="start" x="325" y="-579.5" font-family="Helvetica,sans-Serif" font-size="10.00">+ ~Digit()</text>
<text text-anchor="start" x="325" y="-568.5" font-family="Helvetica,sans-Serif" font-size="10.00">+ getTime()</text>
<text text-anchor="start" x="325" y="-557.5" font-family="Helvetica,sans-Serif" font-size="10.00">+ setTime()</text>
<text text-anchor="start" x="325" y="-546.5" font-family="Helvetica,sans-Serif" font-size="10.00">+ getBC()</text>
<text text-anchor="start" x="325" y="-535.5" font-family="Helvetica,sans-Serif" font-size="10.00">+ setBC()</text>
<text text-anchor="start" x="325" y="-524.5" font-family="Helvetica,sans-Serif" font-size="10.00">+ getisA()</text>
<text text-anchor="start" x="325" y="-513.5" font-family="Helvetica,sans-Serif" font-size="10.00">+ getisC()</text>
<text text-anchor="start" x="325" y="-502.5" font-family="Helvetica,sans-Serif" font-size="10.00">+ getisCnt()</text>
<text text-anchor="start" x="325" y="-491.5" font-family="Helvetica,sans-Serif" font-size="10.00">+ getisSCnt()</text>
<text text-anchor="start" x="325" y="-480.5" font-family="Helvetica,sans-Serif" font-size="10.00">+ getisVrtx()</text>
<text text-anchor="start" x="325" y="-469.5" font-family="Helvetica,sans-Serif" font-size="10.00">+ setTriggers()</text>
<text text-anchor="start" x="325" y="-458.5" font-family="Helvetica,sans-Serif" font-size="10.00">+ getChDgData()</text>
<text text-anchor="start" x="325" y="-447.5" font-family="Helvetica,sans-Serif" font-size="10.00">+ setChDgData()</text>
<text text-anchor="start" x="325" y="-436.5" font-family="Helvetica,sans-Serif" font-size="10.00">+ setChDgData()</text>
<text text-anchor="start" x="325" y="-425.5" font-family="Helvetica,sans-Serif" font-size="10.00">+ printStream()</text>
</a>
</g>
</g>
<!-- Node1&#45;&gt;Node6 -->
<g id="edge5" class="edge"><title>Node1&#45;&gt;Node6</title>
<path fill="none" stroke="midnightblue" d="M467.339,-720.127C457.733,-707.287 448.107,-693.479 440,-680 434.543,-670.927 429.234,-661.326 424.153,-651.561"/>
<polygon fill="none" stroke="midnightblue" points="464.797,-722.566 473.633,-728.412 470.371,-718.332 464.797,-722.566"/>
</g>
<!-- Node7 -->
<g id="node7" class="node"><title>Node7</title>
<g id="a_node7"><a xlink:href="../../d3/d03/classo2_1_1hmpid_1_1Digit.html" target="_top" xlink:title="HMPID digit implementation. ">
<polygon fill="none" stroke="black" points="449,-484.5 449,-585.5 581,-585.5 581,-484.5 449,-484.5"/>
<text text-anchor="middle" x="515" y="-573.5" font-family="Helvetica,sans-Serif" font-size="10.00">o2::hmpid::Digit&lt; double &gt;</text>
<polyline fill="none" stroke="black" points="449,-566.5 581,-566.5 "/>
<text text-anchor="middle" x="515" y="-554.5" font-family="Helvetica,sans-Serif" font-size="10.00"> </text>
<polyline fill="none" stroke="black" points="449,-547.5 581,-547.5 "/>
<text text-anchor="start" x="457" y="-535.5" font-family="Helvetica,sans-Serif" font-size="10.00">+ Digit()</text>
<text text-anchor="start" x="457" y="-524.5" font-family="Helvetica,sans-Serif" font-size="10.00">+ Digit()</text>
<text text-anchor="start" x="457" y="-513.5" font-family="Helvetica,sans-Serif" font-size="10.00">+ getCharge()</text>
<text text-anchor="start" x="457" y="-502.5" font-family="Helvetica,sans-Serif" font-size="10.00">+ getPadID()</text>
<text text-anchor="start" x="457" y="-491.5" font-family="Helvetica,sans-Serif" font-size="10.00">+ Digit()</text>
</a>
</g>
</g>
<!-- Node1&#45;&gt;Node7 -->
<g id="edge6" class="edge"><title>Node1&#45;&gt;Node7</title>
<path fill="none" stroke="midnightblue" d="M515,-718.383C515,-677.678 515,-624.366 515,-585.905"/>
<polygon fill="none" stroke="midnightblue" points="511.5,-718.444 515,-728.444 518.5,-718.444 511.5,-718.444"/>
</g>
<!-- Node8 -->
<g id="node8" class="node"><title>Node8</title>
<g id="a_node8"><a xlink:href="../../df/dbc/classo2_1_1phos_1_1Digit.html" target="_top" xlink:title="{o2::phos::Digit\&lt; double \&gt;\n|+ kMaxLabels\l+ kTimeGate\l|+ Digit()\l+ Digit()\l+ Digit()\l+ ~Digit()\l+ FillFromHit()\l+ operator\&lt;()\l+ operator\&gt;()\l+ canAdd()\l+ operator+=()\l+ getAbsId()\l+ setAbsId()\l+ getAmplitude()\l+ setAmplitude()\l+ getTime()\l+ setTime()\l+ isHighGain()\l+ setHighGain()\l+ getLabel()\l+ getLabelEProp()\l+ getNLabels()\l+ PrintStream()\l}">
<polygon fill="none" stroke="black" points="599.5,-391 599.5,-679 726.5,-679 726.5,-391 599.5,-391"/>
<text text-anchor="middle" x="663" y="-667" font-family="Helvetica,sans-Serif" font-size="10.00">o2::phos::Digit&lt; double &gt;</text>
<polyline fill="none" stroke="black" points="599.5,-660 726.5,-660 "/>
<text text-anchor="start" x="607.5" y="-648" font-family="Helvetica,sans-Serif" font-size="10.00">+ kMaxLabels</text>
<text text-anchor="start" x="607.5" y="-637" font-family="Helvetica,sans-Serif" font-size="10.00">+ kTimeGate</text>
<polyline fill="none" stroke="black" points="599.5,-630 726.5,-630 "/>
<text text-anchor="start" x="607.5" y="-618" font-family="Helvetica,sans-Serif" font-size="10.00">+ Digit()</text>
<text text-anchor="start" x="607.5" y="-607" font-family="Helvetica,sans-Serif" font-size="10.00">+ Digit()</text>
<text text-anchor="start" x="607.5" y="-596" font-family="Helvetica,sans-Serif" font-size="10.00">+ Digit()</text>
<text text-anchor="start" x="607.5" y="-585" font-family="Helvetica,sans-Serif" font-size="10.00">+ ~Digit()</text>
<text text-anchor="start" x="607.5" y="-574" font-family="Helvetica,sans-Serif" font-size="10.00">+ FillFromHit()</text>
<text text-anchor="start" x="607.5" y="-563" font-family="Helvetica,sans-Serif" font-size="10.00">+ operator&lt;()</text>
<text text-anchor="start" x="607.5" y="-552" font-family="Helvetica,sans-Serif" font-size="10.00">+ operator&gt;()</text>
<text text-anchor="start" x="607.5" y="-541" font-family="Helvetica,sans-Serif" font-size="10.00">+ canAdd()</text>
<text text-anchor="start" x="607.5" y="-530" font-family="Helvetica,sans-Serif" font-size="10.00">+ operator+=()</text>
<text text-anchor="start" x="607.5" y="-519" font-family="Helvetica,sans-Serif" font-size="10.00">+ getAbsId()</text>
<text text-anchor="start" x="607.5" y="-508" font-family="Helvetica,sans-Serif" font-size="10.00">+ setAbsId()</text>
<text text-anchor="start" x="607.5" y="-497" font-family="Helvetica,sans-Serif" font-size="10.00">+ getAmplitude()</text>
<text text-anchor="start" x="607.5" y="-486" font-family="Helvetica,sans-Serif" font-size="10.00">+ setAmplitude()</text>
<text text-anchor="start" x="607.5" y="-475" font-family="Helvetica,sans-Serif" font-size="10.00">+ getTime()</text>
<text text-anchor="start" x="607.5" y="-464" font-family="Helvetica,sans-Serif" font-size="10.00">+ setTime()</text>
<text text-anchor="start" x="607.5" y="-453" font-family="Helvetica,sans-Serif" font-size="10.00">+ isHighGain()</text>
<text text-anchor="start" x="607.5" y="-442" font-family="Helvetica,sans-Serif" font-size="10.00">+ setHighGain()</text>
<text text-anchor="start" x="607.5" y="-431" font-family="Helvetica,sans-Serif" font-size="10.00">+ getLabel()</text>
<text text-anchor="start" x="607.5" y="-420" font-family="Helvetica,sans-Serif" font-size="10.00">+ getLabelEProp()</text>
<text text-anchor="start" x="607.5" y="-409" font-family="Helvetica,sans-Serif" font-size="10.00">+ getNLabels()</text>
<text text-anchor="start" x="607.5" y="-398" font-family="Helvetica,sans-Serif" font-size="10.00">+ PrintStream()</text>
</a>
</g>
</g>
<!-- Node1&#45;&gt;Node8 -->
<g id="edge7" class="edge"><title>Node1&#45;&gt;Node8</title>
<path fill="none" stroke="midnightblue" d="M562.096,-720.094C571.781,-707.209 581.582,-693.391 590,-680 593.133,-675.017 596.243,-669.882 599.312,-664.654"/>
<polygon fill="none" stroke="midnightblue" points="559.036,-718.336 555.764,-728.413 564.606,-722.576 559.036,-718.336"/>
</g>
<!-- Node9 -->
<g id="node9" class="node"><title>Node9</title>
<g id="a_node9"><a xlink:href="../../dd/def/classo2_1_1TPC_1_1Digit.html" target="_top" xlink:title="{o2::TPC::Digit\&lt; int \&gt;\n|# mCharge\l# mCRU\l# mRow\l# mPad\l|+ Digit()\l+ Digit()\l+ ~Digit()\l+ getCharge()\l+ getChargeFloat()\l+ getCRU()\l+ getRow()\l+ getPad()\l# ClassDefNV()\l}">
<polygon fill="none" stroke="black" points="745,-446 745,-624 853,-624 853,-446 745,-446"/>
<text text-anchor="middle" x="799" y="-612" font-family="Helvetica,sans-Serif" font-size="10.00">o2::TPC::Digit&lt; int &gt;</text>
<polyline fill="none" stroke="black" points="745,-605 853,-605 "/>
<text text-anchor="start" x="753" y="-593" font-family="Helvetica,sans-Serif" font-size="10.00"># mCharge</text>
<text text-anchor="start" x="753" y="-582" font-family="Helvetica,sans-Serif" font-size="10.00"># mCRU</text>
<text text-anchor="start" x="753" y="-571" font-family="Helvetica,sans-Serif" font-size="10.00"># mRow</text>
<text text-anchor="start" x="753" y="-560" font-family="Helvetica,sans-Serif" font-size="10.00"># mPad</text>
<polyline fill="none" stroke="black" points="745,-553 853,-553 "/>
<text text-anchor="start" x="753" y="-541" font-family="Helvetica,sans-Serif" font-size="10.00">+ Digit()</text>
<text text-anchor="start" x="753" y="-530" font-family="Helvetica,sans-Serif" font-size="10.00">+ Digit()</text>
<text text-anchor="start" x="753" y="-519" font-family="Helvetica,sans-Serif" font-size="10.00">+ ~Digit()</text>
<text text-anchor="start" x="753" y="-508" font-family="Helvetica,sans-Serif" font-size="10.00">+ getCharge()</text>
<text text-anchor="start" x="753" y="-497" font-family="Helvetica,sans-Serif" font-size="10.00">+ getChargeFloat()</text>
<text text-anchor="start" x="753" y="-486" font-family="Helvetica,sans-Serif" font-size="10.00">+ getCRU()</text>
<text text-anchor="start" x="753" y="-475" font-family="Helvetica,sans-Serif" font-size="10.00">+ getRow()</text>
<text text-anchor="start" x="753" y="-464" font-family="Helvetica,sans-Serif" font-size="10.00">+ getPad()</text>
<text text-anchor="start" x="753" y="-453" font-family="Helvetica,sans-Serif" font-size="10.00"># ClassDefNV()</text>
</a>
</g>
</g>
<!-- Node1&#45;&gt;Node9 -->
<g id="edge8" class="edge"><title>Node1&#45;&gt;Node9</title>
<path fill="none" stroke="midnightblue" d="M607.386,-753.724C650.602,-738.479 700.106,-714.923 735,-680 750.566,-664.421 762.671,-644.401 771.952,-624.273"/>
<polygon fill="none" stroke="midnightblue" points="606.025,-750.49 597.698,-757.041 608.292,-757.113 606.025,-750.49"/>
</g>
<!-- Node10 -->
<g id="node10" class="node"><title>Node10</title>
<g id="a_node10"><a xlink:href="../../d0/d94/classo2_1_1dataformats_1_1TimeStamp.html" target="_top" xlink:title="{o2::dataformats::TimeStamp\l\&lt; float \&gt;\n||+ TimeStamp()\l+ TimeStamp()\l+ getTimeStamp()\l+ setTimeStamp()\l+ operator==()\l}">
<polygon fill="none" stroke="black" points="871.5,-479 871.5,-591 1012.5,-591 1012.5,-479 871.5,-479"/>
<text text-anchor="start" x="879.5" y="-579" font-family="Helvetica,sans-Serif" font-size="10.00">o2::dataformats::TimeStamp</text>
<text text-anchor="middle" x="942" y="-568" font-family="Helvetica,sans-Serif" font-size="10.00">&lt; float &gt;</text>
<polyline fill="none" stroke="black" points="871.5,-561 1012.5,-561 "/>
<text text-anchor="middle" x="942" y="-549" font-family="Helvetica,sans-Serif" font-size="10.00"> </text>
<polyline fill="none" stroke="black" points="871.5,-542 1012.5,-542 "/>
<text text-anchor="start" x="879.5" y="-530" font-family="Helvetica,sans-Serif" font-size="10.00">+ TimeStamp()</text>
<text text-anchor="start" x="879.5" y="-519" font-family="Helvetica,sans-Serif" font-size="10.00">+ TimeStamp()</text>
<text text-anchor="start" x="879.5" y="-508" font-family="Helvetica,sans-Serif" font-size="10.00">+ getTimeStamp()</text>
<text text-anchor="start" x="879.5" y="-497" font-family="Helvetica,sans-Serif" font-size="10.00">+ setTimeStamp()</text>
<text text-anchor="start" x="879.5" y="-486" font-family="Helvetica,sans-Serif" font-size="10.00">+ operator==()</text>
</a>
</g>
</g>
<!-- Node1&#45;&gt;Node10 -->
<g id="edge9" class="edge"><title>Node1&#45;&gt;Node10</title>
<path fill="none" stroke="orange" d="M607.766,-771.298C683.228,-761.603 788.832,-737.905 862,-680 890.593,-657.372 910.549,-621.564 923.378,-591.318"/>
<polygon fill="orange" stroke="orange" points="607.29,-767.83 597.79,-772.521 608.141,-774.778 607.29,-767.83"/>
<text text-anchor="middle" x="851" y="-701.5" font-family="Helvetica,sans-Serif" font-size="10.00"> &lt; float &gt;</text>
</g>
<!-- Node3 -->
<g id="node3" class="node"><title>Node3</title>
<g id="a_node3"><a xlink:href="../../d3/dbf/classo2_1_1dataformats_1_1TimeStampWithError.html" target="_top" xlink:title="{o2::dataformats::TimeStamp\lWithError\&lt; float, float \&gt;\n||+ TimeStampWithError()\l+ TimeStampWithError()\l+ getTimeStampError()\l+ setTimeStampError()\l}">
<polygon fill="none" stroke="black" points="534.5,-240.5 534.5,-341.5 675.5,-341.5 675.5,-240.5 534.5,-240.5"/>
<text text-anchor="start" x="542.5" y="-329.5" font-family="Helvetica,sans-Serif" font-size="10.00">o2::dataformats::TimeStamp</text>
<text text-anchor="middle" x="605" y="-318.5" font-family="Helvetica,sans-Serif" font-size="10.00">WithError&lt; float, float &gt;</text>
<polyline fill="none" stroke="black" points="534.5,-311.5 675.5,-311.5 "/>
<text text-anchor="middle" x="605" y="-299.5" font-family="Helvetica,sans-Serif" font-size="10.00"> </text>
<polyline fill="none" stroke="black" points="534.5,-292.5 675.5,-292.5 "/>
<text text-anchor="start" x="542.5" y="-280.5" font-family="Helvetica,sans-Serif" font-size="10.00">+ TimeStampWithError()</text>
<text text-anchor="start" x="542.5" y="-269.5" font-family="Helvetica,sans-Serif" font-size="10.00">+ TimeStampWithError()</text>
<text text-anchor="start" x="542.5" y="-258.5" font-family="Helvetica,sans-Serif" font-size="10.00">+ getTimeStampError()</text>
<text text-anchor="start" x="542.5" y="-247.5" font-family="Helvetica,sans-Serif" font-size="10.00">+ setTimeStampError()</text>
</a>
</g>
</g>
<!-- Node2&#45;&gt;Node3 -->
<g id="edge2" class="edge"><title>Node2&#45;&gt;Node3</title>
<path fill="none" stroke="orange" d="M89.4078,-474.87C102.115,-445.104 121.702,-410.978 150,-390 210.207,-345.368 422.063,-313.962 534.183,-300.049"/>
<polygon fill="orange" stroke="orange" points="86.0727,-473.778 85.5213,-484.358 92.5504,-476.431 86.0727,-473.778"/>
<text text-anchor="middle" x="242.5" y="-363.5" font-family="Helvetica,sans-Serif" font-size="10.00"> &lt; float, float &gt;</text>
</g>
<!-- Node4 -->
<g id="node4" class="node"><title>Node4</title>
<g id="a_node4"><a xlink:href="../../de/dd5/classo2_1_1TPC_1_1Cluster.html" target="_top" xlink:title="Cluster class for the TPC. ">
<polygon fill="none" stroke="black" points="557.5,-1 557.5,-201 652.5,-201 652.5,-1 557.5,-1"/>
<text text-anchor="middle" x="605" y="-189" font-family="Helvetica,sans-Serif" font-size="10.00">o2::TPC::Cluster</text>
<polyline fill="none" stroke="black" points="557.5,-182 652.5,-182 "/>
<text text-anchor="middle" x="605" y="-170" font-family="Helvetica,sans-Serif" font-size="10.00"> </text>
<polyline fill="none" stroke="black" points="557.5,-163 652.5,-163 "/>
<text text-anchor="start" x="565.5" y="-151" font-family="Helvetica,sans-Serif" font-size="10.00">+ Cluster()</text>
<text text-anchor="start" x="565.5" y="-140" font-family="Helvetica,sans-Serif" font-size="10.00">+ Cluster()</text>
<text text-anchor="start" x="565.5" y="-129" font-family="Helvetica,sans-Serif" font-size="10.00">+ ~Cluster()</text>
<text text-anchor="start" x="565.5" y="-118" font-family="Helvetica,sans-Serif" font-size="10.00">+ Cluster()</text>
<text text-anchor="start" x="565.5" y="-107" font-family="Helvetica,sans-Serif" font-size="10.00">+ setParameters()</text>
<text text-anchor="start" x="565.5" y="-96" font-family="Helvetica,sans-Serif" font-size="10.00">+ getCRU()</text>
<text text-anchor="start" x="565.5" y="-85" font-family="Helvetica,sans-Serif" font-size="10.00">+ getRow()</text>
<text text-anchor="start" x="565.5" y="-74" font-family="Helvetica,sans-Serif" font-size="10.00">+ getQ()</text>
<text text-anchor="start" x="565.5" y="-63" font-family="Helvetica,sans-Serif" font-size="10.00">+ getQmax()</text>
<text text-anchor="start" x="565.5" y="-52" font-family="Helvetica,sans-Serif" font-size="10.00">+ getPadMean()</text>
<text text-anchor="start" x="565.5" y="-41" font-family="Helvetica,sans-Serif" font-size="10.00">+ getTimeMean()</text>
<text text-anchor="start" x="565.5" y="-30" font-family="Helvetica,sans-Serif" font-size="10.00">+ getPadSigma()</text>
<text text-anchor="start" x="565.5" y="-19" font-family="Helvetica,sans-Serif" font-size="10.00">+ getTimeSigma()</text>
<text text-anchor="start" x="565.5" y="-8" font-family="Helvetica,sans-Serif" font-size="10.00"># print()</text>
</a>
</g>
</g>
<!-- Node3&#45;&gt;Node4 -->
<g id="edge3" class="edge"><title>Node3&#45;&gt;Node4</title>
<path fill="none" stroke="midnightblue" d="M605,-229.949C605,-220.737 605,-211.023 605,-201.233"/>
<polygon fill="none" stroke="midnightblue" points="601.5,-230.113 605,-240.113 608.5,-230.113 601.5,-230.113"/>
</g>
<!-- Node10&#45;&gt;Node3 -->
<g id="edge10" class="edge"><title>Node10&#45;&gt;Node3</title>
<path fill="none" stroke="midnightblue" d="M918.088,-469.688C905.085,-442.053 886.564,-411.285 862,-390 808.77,-343.875 731.562,-318.369 675.678,-305.033"/>
<polygon fill="none" stroke="midnightblue" points="914.961,-471.268 922.286,-478.922 921.333,-468.37 914.961,-471.268"/>
</g>
</g>
</svg>
        <g id="navigator" transform="translate(0 0)" fill="#404254">
                <rect fill="#f2f5e9" fill-opacity="0.5" stroke="#606060" stroke-width=".5" x="0" y="0" width="60" height="60"/>
                <use id="zoomplus" xlink:href="#zoomPlus" x="17" y="9" onmousedown="handleZoom(evt,'in')"/>
                <use id="zoomminus" xlink:href="#zoomMin" x="42" y="9" onmousedown="handleZoom(evt,'out')"/>
                <use id="reset" xlink:href="#resetDef" x="30" y="36" onmousedown="handleReset()"/>
                <g id="arrowUp" xlink:href="#dirArrow" transform="translate(30 24)" onmousedown="handlePan(0,-1)">
                  <use xlink:href="#rim" fill="#404040">
                        <set attributeName="fill" to="#808080" begin="arrowUp.mouseover" end="arrowUp.mouseout"/>
                  </use>
                  <path fill="none" stroke="white" stroke-width="1.5" d="M0,-3.0v7 M-2.5,-0.5L0,-3.0L2.5,-0.5"/>
                </g>
                <g id="arrowRight" xlink:href="#dirArrow" transform="rotate(90) translate(36 -43)" onmousedown="handlePan(1,0)">
                  <use xlink:href="#rim" fill="#404040">
                        <set attributeName="fill" to="#808080" begin="arrowRight.mouseover" end="arrowRight.mouseout"/>
                  </use>
                  <path fill="none" stroke="white" stroke-width="1.5" d="M0,-3.0v7 M-2.5,-0.5L0,-3.0L2.5,-0.5"/>
                </g>
                <g id="arrowDown" xlink:href="#dirArrow" transform="rotate(180) translate(-30 -48)" onmousedown="handlePan(0,1)">
                  <use xlink:href="#rim" fill="#404040">
                        <set attributeName="fill" to="#808080" begin="arrowDown.mouseover" end="arrowDown.mouseout"/>
                  </use>
                  <path fill="none" stroke="white" stroke-width="1.5" d="M0,-3.0v7 M-2.5,-0.5L0,-3.0L2.5,-0.5"/>
                </g>
                <g id="arrowLeft" xlink:href="#dirArrow" transform="rotate(270) translate(-36 17)" onmousedown="handlePan(-1,0)">
                  <use xlink:href="#rim" fill="#404040">
                        <set attributeName="fill" to="#808080" begin="arrowLeft.mouseover" end="arrowLeft.mouseout"/>
                  </use>
                  <path fill="none" stroke="white" stroke-width="1.5" d="M0,-3.0v7 M-2.5,-0.5L0,-3.0L2.5,-0.5"/>
                </g>
        </g>
        <svg viewBox="0 0 15 15" width="100%" height="30px" preserveAspectRatio="xMaxYMin meet">
         <g id="arrow_out" transform="scale(0.3 0.3)">
          <a xlink:href="classo2_1_1dataformats_1_1TimeStamp__inherit__graph_org.svg" target="_base">
           <rect id="button" ry="5" rx="5" y="6" x="6" height="38" width="38"
                fill="#f2f5e9" fill-opacity="0.5" stroke="#606060" stroke-width="1.0"/>
           <path id="arrow"
             d="M 11.500037,31.436501 C 11.940474,20.09759 22.043105,11.32322 32.158766,21.979434 L 37.068811,17.246167 C 37.068811,17.246167 37.088388,32 37.088388,32 L 22.160133,31.978069 C 22.160133,31.978069 26.997745,27.140456 26.997745,27.140456 C 18.528582,18.264221 13.291696,25.230495 11.500037,31.436501 z"
             style="fill:#404040;"/>
          </a>
         </g>
        </svg>
</svg>
