<?xml version="1.0" encoding="UTF-8" standalone="no"?>
<!DOCTYPE svg PUBLIC "-//W3C//DTD SVG 1.1//EN"
 "http://www.w3.org/Graphics/SVG/1.1/DTD/svg11.dtd">
<!-- Generated by graphviz version 2.36.0 (20140111.2315)
 -->
<!-- Title: /home/travis/build/AliceO2Group/AliceO2/Utilities/aliceHLTwrapper/src/MessageFormat.cxx Pages: 1 -->
<!--zoomable 298 -->
<svg id="main" version="1.1" xmlns="http://www.w3.org/2000/svg" xmlns:xlink="http://www.w3.org/1999/xlink" xml:space="preserve" onload="init(evt)">
<style type="text/css"><![CDATA[
.edge:hover path { stroke: red; }
.edge:hover polygon { stroke: red; fill: red; }
]]></style>
<script type="text/javascript"><![CDATA[
var edges = document.getElementsByTagName('g');
if (edges && edges.length) {
  for (var i=0;i<edges.length;i++) {
    if (edges[i].id.substr(0,4)=='edge') {
      edges[i].setAttribute('class','edge');
    }
  }
}
]]></script>
        <defs>
                <circle id="rim" cx="0" cy="0" r="7"/>
                <circle id="rim2" cx="0" cy="0" r="3.5"/>
                <g id="zoomPlus">
                        <use xlink:href="#rim" fill="#404040">
                                <set attributeName="fill" to="#808080" begin="zoomplus.mouseover" end="zoomplus.mouseout"/>
                        </use>
                        <path d="M-4,0h8M0,-4v8" fill="none" stroke="white" stroke-width="1.5" pointer-events="none"/>
                </g>
                <g id="zoomMin">
                        <use xlink:href="#rim" fill="#404040">
                                <set attributeName="fill" to="#808080" begin="zoomminus.mouseover" end="zoomminus.mouseout"/>
                        </use>
                        <path d="M-4,0h8" fill="none" stroke="white" stroke-width="1.5" pointer-events="none"/>
                </g>
                <g id="dirArrow">
                        <path fill="none" stroke="white" stroke-width="1.5" d="M0,-3.0v7 M-2.5,-0.5L0,-3.0L2.5,-0.5"/>
                </g>
               <g id="resetDef">
                       <use xlink:href="#rim2" fill="#404040">
                               <set attributeName="fill" to="#808080" begin="reset.mouseover" end="reset.mouseout"/>
                       </use>
               </g>
        </defs>

<script type="text/javascript">
var viewWidth = 2626;
var viewHeight = 298;
var sectionId = 'dynsection-0';
</script>
<script xlink:href="../../svgpan.js"/>
<svg id="graph" class="graph">
<g id="viewport">
<title>/home/travis/build/AliceO2Group/AliceO2/Utilities/aliceHLTwrapper/src/MessageFormat.cxx</title>
<!-- Node1 -->
<g id="node1" class="node"><title>Node1</title>
<polygon fill="#bfbfbf" stroke="black" points="2019.5,-237 2019.5,-289 2148.5,-289 2148.5,-237 2019.5,-237"/>
<text text-anchor="start" x="2027.5" y="-277" font-family="Helvetica,sans-Serif" font-size="10.00">/home/travis/build</text>
<text text-anchor="start" x="2027.5" y="-266" font-family="Helvetica,sans-Serif" font-size="10.00">/AliceO2Group/AliceO2</text>
<text text-anchor="start" x="2027.5" y="-255" font-family="Helvetica,sans-Serif" font-size="10.00">/Utilities/aliceHLTwrapper</text>
<text text-anchor="middle" x="2084" y="-244" font-family="Helvetica,sans-Serif" font-size="10.00">/src/MessageFormat.cxx</text>
</g>
<!-- Node2 -->
<g id="node2" class="node"><title>Node2</title>
<g id="a_node2"><a xlink:href="../../d2/dda/MessageFormat_8h.html" target="_top" xlink:title="aliceHLTwrapper/MessageFormat.h">
<polygon fill="none" stroke="black" points="225,-180.5 225,-199.5 397,-199.5 397,-180.5 225,-180.5"/>
<text text-anchor="middle" x="311" y="-187.5" font-family="Helvetica,sans-Serif" font-size="10.00">aliceHLTwrapper/MessageFormat.h</text>
</a>
</g>
</g>
<!-- Node1&#45;&gt;Node2 -->
<g id="edge1" class="edge"><title>Node1&#45;&gt;Node2</title>
<path fill="none" stroke="midnightblue" d="M2019.32,-259.41C1751.4,-248.681 727.631,-207.684 407.358,-194.859"/>
<polygon fill="midnightblue" stroke="midnightblue" points="407.307,-191.354 397.175,-194.451 407.027,-198.348 407.307,-191.354"/>
</g>
<!-- Node4 -->
<g id="node4" class="node"><title>Node4</title>
<g id="a_node4"><a xlink:href="../../d2/de6/HOMERFactory_8h.html" target="_top" xlink:title="HOMERFactory.h">
<polygon fill="none" stroke="black" points="-0.5,-124.5 -0.5,-143.5 94.5,-143.5 94.5,-124.5 -0.5,-124.5"/>
<text text-anchor="middle" x="47" y="-131.5" font-family="Helvetica,sans-Serif" font-size="10.00">HOMERFactory.h</text>
</a>
</g>
</g>
<!-- Node1&#45;&gt;Node4 -->
<g id="edge22" class="edge"><title>Node1&#45;&gt;Node4</title>
<path fill="none" stroke="midnightblue" d="M2019.43,-261.133C1711.04,-256.819 395.474,-236.414 216,-200 163.232,-189.294 105.422,-163.817 72.9379,-148.127"/>
<polygon fill="midnightblue" stroke="midnightblue" points="74.2231,-144.859 63.7035,-143.599 71.1413,-151.144 74.2231,-144.859"/>
</g>
<!-- Node9 -->
<g id="node9" class="node"><title>Node9</title>
<polygon fill="none" stroke="#bfbfbf" points="1044,-0.5 1044,-19.5 1096,-19.5 1096,-0.5 1044,-0.5"/>
<text text-anchor="middle" x="1070" y="-7.5" font-family="Helvetica,sans-Serif" font-size="10.00">memory</text>
</g>
<!-- Node1&#45;&gt;Node9 -->
<g id="edge54" class="edge"><title>Node1&#45;&gt;Node9</title>
<path fill="none" stroke="midnightblue" d="M2076.13,-236.769C2060.45,-191.325 2020.61,-96.6731 1950,-56 1876.06,-13.4088 1262.52,-10.8765 1106.15,-10.9286"/>
<polygon fill="midnightblue" stroke="midnightblue" points="1106.11,-7.42849 1096.11,-10.9358 1106.11,-14.4285 1106.11,-7.42849"/>
</g>
<!-- Node10 -->
<g id="node10" class="node"><title>Node10</title>
<polygon fill="none" stroke="#bfbfbf" points="1722.5,-0.5 1722.5,-19.5 1771.5,-19.5 1771.5,-0.5 1722.5,-0.5"/>
<text text-anchor="middle" x="1747" y="-7.5" font-family="Helvetica,sans-Serif" font-size="10.00">cassert</text>
</g>
<!-- Node1&#45;&gt;Node10 -->
<g id="edge55" class="edge"><title>Node1&#45;&gt;Node10</title>
<path fill="none" stroke="midnightblue" d="M2084.39,-236.971C2083.61,-193.132 2075.19,-102.686 2022,-56 1986.87,-25.1667 1848.08,-15.2415 1782.14,-12.2282"/>
<polygon fill="midnightblue" stroke="midnightblue" points="1781.98,-8.71808 1771.84,-11.7868 1781.68,-15.7117 1781.98,-8.71808"/>
</g>
<!-- Node11 -->
<g id="node11" class="node"><title>Node11</title>
<polygon fill="none" stroke="#bfbfbf" points="1947,-0.5 1947,-19.5 1993,-19.5 1993,-0.5 1947,-0.5"/>
<text text-anchor="middle" x="1970" y="-7.5" font-family="Helvetica,sans-Serif" font-size="10.00">cstring</text>
</g>
<!-- Node1&#45;&gt;Node11 -->
<g id="edge52" class="edge"><title>Node1&#45;&gt;Node11</title>
<path fill="none" stroke="midnightblue" d="M2088.18,-236.852C2093.67,-195.184 2098.55,-110.98 2060,-56 2046.61,-36.9122 2022.73,-25.4964 2002.92,-18.941"/>
<polygon fill="midnightblue" stroke="midnightblue" points="2003.89,-15.5774 1993.31,-16.021 2001.86,-22.2755 2003.89,-15.5774"/>
</g>
<!-- Node19 -->
<g id="node19" class="node"><title>Node19</title>
<g id="a_node19"><a xlink:href="../../d8/d1e/AliHLTHOMERData_8h.html" target="_top" xlink:title="aliceHLTwrapper/AliHLTHOMERData.h">
<polygon fill="none" stroke="black" points="2112,-124.5 2112,-143.5 2302,-143.5 2302,-124.5 2112,-124.5"/>
<text text-anchor="middle" x="2207" y="-131.5" font-family="Helvetica,sans-Serif" font-size="10.00">aliceHLTwrapper/AliHLTHOMERData.h</text>
</a>
</g>
</g>
<!-- Node1&#45;&gt;Node19 -->
<g id="edge23" class="edge"><title>Node1&#45;&gt;Node19</title>
<path fill="none" stroke="midnightblue" d="M2098.11,-236.902C2108.55,-219.681 2123.88,-196.964 2141,-180 2153.21,-167.903 2169.06,-156.973 2182.17,-148.915"/>
<polygon fill="midnightblue" stroke="midnightblue" points="2184.34,-151.699 2191.14,-143.579 2180.76,-145.683 2184.34,-151.699"/>
</g>
<!-- Node21 -->
<g id="node21" class="node"><title>Node21</title>
<g id="a_node21"><a xlink:href="../../d0/d3f/AliHLTHOMERWriter_8h.html" target="_top" xlink:title="HLT Online Monitoring Environment including ROOT &#45; Writer. ">
<polygon fill="none" stroke="black" points="1785.5,-180.5 1785.5,-199.5 1980.5,-199.5 1980.5,-180.5 1785.5,-180.5"/>
<text text-anchor="middle" x="1883" y="-187.5" font-family="Helvetica,sans-Serif" font-size="10.00">aliceHLTwrapper/AliHLTHOMERWriter.h</text>
</a>
</g>
</g>
<!-- Node1&#45;&gt;Node21 -->
<g id="edge25" class="edge"><title>Node1&#45;&gt;Node21</title>
<path fill="none" stroke="midnightblue" d="M2019.3,-239.144C1985.16,-227.085 1944.68,-212.788 1916.75,-202.923"/>
<polygon fill="midnightblue" stroke="midnightblue" points="1917.66,-199.532 1907.07,-199.501 1915.33,-206.132 1917.66,-199.532"/>
</g>
<!-- Node22 -->
<g id="node22" class="node"><title>Node22</title>
<g id="a_node22"><a xlink:href="../../d6/de3/AliHLTHOMERReader_8h.html" target="_top" xlink:title="HLT Online Monitoring Environment including ROOT &#45; Reader. ">
<polygon fill="none" stroke="black" points="2150,-180.5 2150,-199.5 2350,-199.5 2350,-180.5 2150,-180.5"/>
<text text-anchor="middle" x="2250" y="-187.5" font-family="Helvetica,sans-Serif" font-size="10.00">aliceHLTwrapper/AliHLTHOMERReader.h</text>
</a>
</g>
</g>
<!-- Node1&#45;&gt;Node22 -->
<g id="edge28" class="edge"><title>Node1&#45;&gt;Node22</title>
<path fill="none" stroke="midnightblue" d="M2142.53,-236.968C2168.91,-225.681 2198.93,-212.844 2220.52,-203.61"/>
<polygon fill="midnightblue" stroke="midnightblue" points="2221.98,-206.789 2229.8,-199.639 2219.23,-200.353 2221.98,-206.789"/>
</g>
<!-- Node25 -->
<g id="node25" class="node"><title>Node25</title>
<g id="a_node25"><a xlink:href="../../d4/d00/Headers_2include_2Headers_2Stack_8h.html" target="_top" xlink:title="Headers/Stack.h">
<polygon fill="none" stroke="black" points="1245,-180.5 1245,-199.5 1335,-199.5 1335,-180.5 1245,-180.5"/>
<text text-anchor="middle" x="1290" y="-187.5" font-family="Helvetica,sans-Serif" font-size="10.00">Headers/Stack.h</text>
</a>
</g>
</g>
<!-- Node1&#45;&gt;Node25 -->
<g id="edge33" class="edge"><title>Node1&#45;&gt;Node25</title>
<path fill="none" stroke="midnightblue" d="M2019.36,-256.22C1867.12,-242.607 1488.13,-208.717 1345.48,-195.961"/>
<polygon fill="midnightblue" stroke="midnightblue" points="1345.49,-192.448 1335.22,-195.044 1344.87,-199.421 1345.49,-192.448"/>
</g>
<!-- Node38 -->
<g id="node38" class="node"><title>Node38</title>
<polygon fill="none" stroke="#bfbfbf" points="2368.5,-180.5 2368.5,-199.5 2413.5,-199.5 2413.5,-180.5 2368.5,-180.5"/>
<text text-anchor="middle" x="2391" y="-187.5" font-family="Helvetica,sans-Serif" font-size="10.00">cstdlib</text>
</g>
<!-- Node1&#45;&gt;Node38 -->
<g id="edge50" class="edge"><title>Node1&#45;&gt;Node38</title>
<path fill="none" stroke="midnightblue" d="M2148.68,-248.419C2202.26,-236.94 2280.61,-219.629 2358.35,-200.062"/>
<polygon fill="midnightblue" stroke="midnightblue" points="2359.48,-203.385 2368.31,-197.539 2357.76,-196.599 2359.48,-203.385"/>
</g>
<!-- Node39 -->
<g id="node39" class="node"><title>Node39</title>
<polygon fill="none" stroke="#bfbfbf" points="2432,-180.5 2432,-199.5 2476,-199.5 2476,-180.5 2432,-180.5"/>
<text text-anchor="middle" x="2454" y="-187.5" font-family="Helvetica,sans-Serif" font-size="10.00">cerrno</text>
</g>
<!-- Node1&#45;&gt;Node39 -->
<g id="edge51" class="edge"><title>Node1&#45;&gt;Node39</title>
<path fill="none" stroke="midnightblue" d="M2148.53,-251.991C2214.69,-241.318 2320.68,-223.078 2421.91,-199.826"/>
<polygon fill="midnightblue" stroke="midnightblue" points="2422.74,-203.227 2431.69,-197.56 2421.16,-196.407 2422.74,-203.227"/>
</g>
<!-- Node40 -->
<g id="node40" class="node"><title>Node40</title>
<polygon fill="none" stroke="#bfbfbf" points="2494,-180.5 2494,-199.5 2548,-199.5 2548,-180.5 2494,-180.5"/>
<text text-anchor="middle" x="2521" y="-187.5" font-family="Helvetica,sans-Serif" font-size="10.00">iostream</text>
</g>
<!-- Node1&#45;&gt;Node40 -->
<g id="edge53" class="edge"><title>Node1&#45;&gt;Node40</title>
<path fill="none" stroke="midnightblue" d="M2148.73,-253.688C2228.07,-243.103 2366.48,-223.357 2484,-200 2484.1,-199.98 2484.2,-199.96 2484.3,-199.939"/>
<polygon fill="midnightblue" stroke="midnightblue" points="2484.94,-203.382 2493.98,-197.852 2483.47,-196.539 2484.94,-203.382"/>
</g>
<!-- Node41 -->
<g id="node41" class="node"><title>Node41</title>
<polygon fill="none" stroke="#bfbfbf" points="2566,-180.5 2566,-199.5 2618,-199.5 2618,-180.5 2566,-180.5"/>
<text text-anchor="middle" x="2592" y="-187.5" font-family="Helvetica,sans-Serif" font-size="10.00">sstream</text>
</g>
<!-- Node1&#45;&gt;Node41 -->
<g id="edge56" class="edge"><title>Node1&#45;&gt;Node41</title>
<path fill="none" stroke="midnightblue" d="M2148.66,-256.035C2238.16,-247.223 2404.9,-228.802 2555.79,-200.036"/>
<polygon fill="midnightblue" stroke="midnightblue" points="2556.55,-203.455 2565.7,-198.127 2555.22,-196.581 2556.55,-203.455"/>
</g>
<!-- Node3 -->
<g id="node3" class="node"><title>Node3</title>
<g id="a_node3"><a xlink:href="../../d6/d34/AliHLTDataTypes_8h.html" target="_top" xlink:title="Data type declaration for the HLT module. ">
<polygon fill="none" stroke="black" points="18.5,-62.5 18.5,-81.5 121.5,-81.5 121.5,-62.5 18.5,-62.5"/>
<text text-anchor="middle" x="70" y="-69.5" font-family="Helvetica,sans-Serif" font-size="10.00">AliHLTDataTypes.h</text>
</a>
</g>
</g>
<!-- Node2&#45;&gt;Node3 -->
<g id="edge2" class="edge"><title>Node2&#45;&gt;Node3</title>
<path fill="none" stroke="midnightblue" d="M254.935,-180.479C222.012,-173.841 180.437,-162.543 147,-144 121.542,-129.882 97.8116,-105.655 83.6044,-89.4838"/>
<polygon fill="midnightblue" stroke="midnightblue" points="86.2431,-87.1841 77.0843,-81.858 80.9226,-91.7331 86.2431,-87.1841"/>
</g>
<!-- Node2&#45;&gt;Node4 -->
<g id="edge3" class="edge"><title>Node2&#45;&gt;Node4</title>
<path fill="none" stroke="midnightblue" d="M269.168,-180.444C222.921,-170.984 148.388,-155.738 98.5643,-145.547"/>
<polygon fill="midnightblue" stroke="midnightblue" points="99.1344,-142.091 88.6359,-143.516 97.7316,-148.949 99.1344,-142.091"/>
</g>
<!-- Node5 -->
<g id="node5" class="node"><title>Node5</title>
<polygon fill="none" stroke="#bfbfbf" points="448,-62.5 448,-81.5 492,-81.5 492,-62.5 448,-62.5"/>
<text text-anchor="middle" x="470" y="-69.5" font-family="Helvetica,sans-Serif" font-size="10.00">vector</text>
</g>
<!-- Node2&#45;&gt;Node5 -->
<g id="edge5" class="edge"><title>Node2&#45;&gt;Node5</title>
<path fill="none" stroke="midnightblue" d="M382.047,-180.479C426.974,-173.464 479.106,-161.748 493,-144 505.419,-128.137 494.268,-105.352 483.597,-89.9051"/>
<polygon fill="midnightblue" stroke="midnightblue" points="486.324,-87.7066 477.551,-81.766 480.704,-91.8807 486.324,-87.7066"/>
</g>
<!-- Node6 -->
<g id="node6" class="node"><title>Node6</title>
<polygon fill="none" stroke="#bfbfbf" points="146,-0.5 146,-19.5 192,-19.5 192,-0.5 146,-0.5"/>
<text text-anchor="middle" x="169" y="-7.5" font-family="Helvetica,sans-Serif" font-size="10.00">cstdint</text>
</g>
<!-- Node2&#45;&gt;Node6 -->
<g id="edge6" class="edge"><title>Node2&#45;&gt;Node6</title>
<path fill="none" stroke="midnightblue" d="M252.493,-180.46C228.769,-174.136 203.01,-163.135 186,-144 157.863,-112.347 161.132,-58.511 165.38,-30.0085"/>
<polygon fill="midnightblue" stroke="midnightblue" points="168.891,-30.2388 167.111,-19.7944 161.989,-29.0687 168.891,-30.2388"/>
</g>
<!-- Node7 -->
<g id="node7" class="node"><title>Node7</title>
<polygon fill="none" stroke="#bfbfbf" points="387,-124.5 387,-143.5 485,-143.5 485,-124.5 387,-124.5"/>
<text text-anchor="middle" x="436" y="-131.5" font-family="Helvetica,sans-Serif" font-size="10.00">boost/signals2.hpp</text>
</g>
<!-- Node2&#45;&gt;Node7 -->
<g id="edge7" class="edge"><title>Node2&#45;&gt;Node7</title>
<path fill="none" stroke="midnightblue" d="M330.807,-180.444C351.287,-171.596 383.483,-157.687 406.865,-147.586"/>
<polygon fill="midnightblue" stroke="midnightblue" points="408.494,-150.695 416.286,-143.516 405.718,-144.269 408.494,-150.695"/>
</g>
<!-- Node8 -->
<g id="node8" class="node"><title>Node8</title>
<g id="a_node8"><a xlink:href="../../dc/dcd/DataHeader_8h.html" target="_top" xlink:title="Headers/DataHeader.h">
<polygon fill="none" stroke="black" points="312.5,-62.5 312.5,-81.5 429.5,-81.5 429.5,-62.5 312.5,-62.5"/>
<text text-anchor="middle" x="371" y="-69.5" font-family="Helvetica,sans-Serif" font-size="10.00">Headers/DataHeader.h</text>
</a>
</g>
</g>
<!-- Node2&#45;&gt;Node8 -->
<g id="edge8" class="edge"><title>Node2&#45;&gt;Node8</title>
<path fill="none" stroke="midnightblue" d="M316.936,-180.242C322.866,-171.32 332.071,-156.99 339,-144 348.319,-126.529 357.449,-105.811 363.555,-91.2788"/>
<polygon fill="midnightblue" stroke="midnightblue" points="366.836,-92.5038 367.427,-81.9254 360.369,-89.8263 366.836,-92.5038"/>
</g>
<!-- Node16 -->
<g id="node16" class="node"><title>Node16</title>
<g id="a_node16"><a xlink:href="../../d2/d09/HeartbeatFrame_8h.html" target="_top" xlink:title="Headers/HeartbeatFrame.h">
<polygon fill="none" stroke="black" points="195.5,-124.5 195.5,-143.5 330.5,-143.5 330.5,-124.5 195.5,-124.5"/>
<text text-anchor="middle" x="263" y="-131.5" font-family="Helvetica,sans-Serif" font-size="10.00">Headers/HeartbeatFrame.h</text>
</a>
</g>
</g>
<!-- Node2&#45;&gt;Node16 -->
<g id="edge17" class="edge"><title>Node2&#45;&gt;Node16</title>
<path fill="none" stroke="midnightblue" d="M303.074,-180.083C296.154,-172.298 285.935,-160.801 277.548,-151.367"/>
<polygon fill="midnightblue" stroke="midnightblue" points="280.038,-148.9 270.779,-143.751 274.806,-153.55 280.038,-148.9"/>
</g>
<!-- Node4&#45;&gt;Node3 -->
<g id="edge4" class="edge"><title>Node4&#45;&gt;Node3</title>
<path fill="none" stroke="midnightblue" d="M50.2953,-124.403C53.6087,-115.76 58.8182,-102.17 63.0486,-91.1341"/>
<polygon fill="midnightblue" stroke="midnightblue" points="66.3995,-92.1709 66.7108,-81.5806 59.8632,-89.6653 66.3995,-92.1709"/>
</g>
<!-- Node8&#45;&gt;Node6 -->
<g id="edge9" class="edge"><title>Node8&#45;&gt;Node6</title>
<path fill="none" stroke="midnightblue" d="M342.058,-62.4035C305.006,-51.3977 240.955,-32.3729 202.032,-20.8115"/>
<polygon fill="midnightblue" stroke="midnightblue" points="202.819,-17.3943 192.237,-17.902 200.826,-24.1045 202.819,-17.3943"/>
</g>
<!-- Node8&#45;&gt;Node9 -->
<g id="edge10" class="edge"><title>Node8&#45;&gt;Node9</title>
<path fill="none" stroke="midnightblue" d="M405.065,-62.4649C415.857,-60.0364 427.874,-57.6151 439,-56 663.449,-23.4189 936.39,-14.1199 1033.53,-11.7422"/>
<polygon fill="midnightblue" stroke="midnightblue" points="1033.79,-15.2372 1043.71,-11.5031 1033.63,-8.23912 1033.79,-15.2372"/>
</g>
<!-- Node8&#45;&gt;Node10 -->
<g id="edge11" class="edge"><title>Node8&#45;&gt;Node10</title>
<path fill="none" stroke="midnightblue" d="M403.991,-62.4519C415.045,-59.9289 427.486,-57.4556 439,-56 695.798,-23.5361 1531.54,-13.2137 1712.31,-11.3353"/>
<polygon fill="midnightblue" stroke="midnightblue" points="1712.37,-14.8351 1722.33,-11.233 1712.29,-7.83547 1712.37,-14.8351"/>
</g>
<!-- Node8&#45;&gt;Node11 -->
<g id="edge12" class="edge"><title>Node8&#45;&gt;Node11</title>
<path fill="none" stroke="midnightblue" d="M403.64,-62.4799C414.779,-59.9259 427.36,-57.4268 439,-56 734.892,-19.7284 1482.1,-31.0531 1780,-20 1834.81,-17.9662 1898.49,-14.7827 1936.44,-12.7976"/>
<polygon fill="midnightblue" stroke="midnightblue" points="1937.1,-16.2681 1946.9,-12.2471 1936.73,-9.27781 1937.1,-16.2681"/>
</g>
<!-- Node12 -->
<g id="node12" class="node"><title>Node12</title>
<polygon fill="none" stroke="#bfbfbf" points="458,-0.5 458,-19.5 514,-19.5 514,-0.5 458,-0.5"/>
<text text-anchor="middle" x="486" y="-7.5" font-family="Helvetica,sans-Serif" font-size="10.00">algorithm</text>
</g>
<!-- Node8&#45;&gt;Node12 -->
<g id="edge13" class="edge"><title>Node8&#45;&gt;Node12</title>
<path fill="none" stroke="midnightblue" d="M387.477,-62.4035C406.605,-52.4232 438.373,-35.8487 460.652,-24.2253"/>
<polygon fill="midnightblue" stroke="midnightblue" points="462.307,-27.3094 469.554,-19.5806 459.069,-21.1033 462.307,-27.3094"/>
</g>
<!-- Node13 -->
<g id="node13" class="node"><title>Node13</title>
<polygon fill="none" stroke="#bfbfbf" points="225.5,-0.5 225.5,-19.5 284.5,-19.5 284.5,-0.5 225.5,-0.5"/>
<text text-anchor="middle" x="255" y="-7.5" font-family="Helvetica,sans-Serif" font-size="10.00">stdexcept</text>
</g>
<!-- Node8&#45;&gt;Node13 -->
<g id="edge14" class="edge"><title>Node8&#45;&gt;Node13</title>
<path fill="none" stroke="midnightblue" d="M354.38,-62.4035C335.085,-52.4232 303.041,-35.8487 280.569,-24.2253"/>
<polygon fill="midnightblue" stroke="midnightblue" points="282.079,-21.0661 271.589,-19.5806 278.863,-27.2836 282.079,-21.0661"/>
</g>
<!-- Node14 -->
<g id="node14" class="node"><title>Node14</title>
<polygon fill="none" stroke="#bfbfbf" points="680.5,-0.5 680.5,-19.5 721.5,-19.5 721.5,-0.5 680.5,-0.5"/>
<text text-anchor="middle" x="701" y="-7.5" font-family="Helvetica,sans-Serif" font-size="10.00">string</text>
</g>
<!-- Node8&#45;&gt;Node14 -->
<g id="edge15" class="edge"><title>Node8&#45;&gt;Node14</title>
<path fill="none" stroke="midnightblue" d="M408.345,-62.4311C418.288,-60.2404 429.035,-57.9538 439,-56 522.333,-39.6618 621.224,-23.5628 670.258,-15.7994"/>
<polygon fill="midnightblue" stroke="midnightblue" points="670.888,-19.2434 680.221,-14.2283 669.798,-12.3289 670.888,-19.2434"/>
</g>
<!-- Node15 -->
<g id="node15" class="node"><title>Node15</title>
<g id="a_node15"><a xlink:href="../../d7/df8/Types_8h.html" target="_top" xlink:title="MemoryResources/Types.h">
<polygon fill="none" stroke="black" points="302.5,-0.5 302.5,-19.5 439.5,-19.5 439.5,-0.5 302.5,-0.5"/>
<text text-anchor="middle" x="371" y="-7.5" font-family="Helvetica,sans-Serif" font-size="10.00">MemoryResources/Types.h</text>
</a>
</g>
</g>
<!-- Node8&#45;&gt;Node15 -->
<g id="edge16" class="edge"><title>Node8&#45;&gt;Node15</title>
<path fill="none" stroke="midnightblue" d="M371,-62.4035C371,-53.9381 371,-40.7283 371,-29.8199"/>
<polygon fill="midnightblue" stroke="midnightblue" points="374.5,-29.5806 371,-19.5806 367.5,-29.5806 374.5,-29.5806"/>
</g>
<!-- Node16&#45;&gt;Node5 -->
<g id="edge21" class="edge"><title>Node16&#45;&gt;Node5</title>
<path fill="none" stroke="midnightblue" d="M305.387,-124.429C341.247,-116.629 393.717,-103.915 438,-88 439.905,-87.3152 441.851,-86.5577 443.796,-85.7576"/>
<polygon fill="midnightblue" stroke="midnightblue" points="445.584,-88.7933 453.309,-81.5419 442.748,-82.3935 445.584,-88.7933"/>
</g>
<!-- Node16&#45;&gt;Node8 -->
<g id="edge18" class="edge"><title>Node16&#45;&gt;Node8</title>
<path fill="none" stroke="midnightblue" d="M278.474,-124.403C296.278,-114.512 325.741,-98.1442 346.632,-86.5378"/>
<polygon fill="midnightblue" stroke="midnightblue" points="348.513,-89.4966 355.555,-81.5806 345.114,-83.3775 348.513,-89.4966"/>
</g>
<!-- Node17 -->
<g id="node17" class="node"><title>Node17</title>
<polygon fill="none" stroke="#bfbfbf" points="182.5,-62.5 182.5,-81.5 241.5,-81.5 241.5,-62.5 182.5,-62.5"/>
<text text-anchor="middle" x="212" y="-69.5" font-family="Helvetica,sans-Serif" font-size="10.00">functional</text>
</g>
<!-- Node16&#45;&gt;Node17 -->
<g id="edge19" class="edge"><title>Node16&#45;&gt;Node17</title>
<path fill="none" stroke="midnightblue" d="M255.693,-124.403C247.967,-115.314 235.592,-100.756 225.982,-89.4489"/>
<polygon fill="midnightblue" stroke="midnightblue" points="228.437,-86.9332 219.294,-81.5806 223.103,-91.4668 228.437,-86.9332"/>
</g>
<!-- Node18 -->
<g id="node18" class="node"><title>Node18</title>
<polygon fill="none" stroke="#bfbfbf" points="259.5,-62.5 259.5,-81.5 294.5,-81.5 294.5,-62.5 259.5,-62.5"/>
<text text-anchor="middle" x="277" y="-69.5" font-family="Helvetica,sans-Serif" font-size="10.00">map</text>
</g>
<!-- Node16&#45;&gt;Node18 -->
<g id="edge20" class="edge"><title>Node16&#45;&gt;Node18</title>
<path fill="none" stroke="midnightblue" d="M265.006,-124.403C267.002,-115.849 270.128,-102.45 272.689,-91.4762"/>
<polygon fill="midnightblue" stroke="midnightblue" points="276.134,-92.1143 274.998,-81.5806 269.317,-90.5237 276.134,-92.1143"/>
</g>
<!-- Node20 -->
<g id="node20" class="node"><title>Node20</title>
<polygon fill="none" stroke="#bfbfbf" points="2245.5,-62.5 2245.5,-81.5 2290.5,-81.5 2290.5,-62.5 2245.5,-62.5"/>
<text text-anchor="middle" x="2268" y="-69.5" font-family="Helvetica,sans-Serif" font-size="10.00">climits</text>
</g>
<!-- Node19&#45;&gt;Node20 -->
<g id="edge24" class="edge"><title>Node19&#45;&gt;Node20</title>
<path fill="none" stroke="midnightblue" d="M2215.74,-124.403C2225.16,-115.136 2240.36,-100.183 2251.95,-88.7876"/>
<polygon fill="midnightblue" stroke="midnightblue" points="2254.6,-91.0883 2259.28,-81.5806 2249.69,-86.0978 2254.6,-91.0883"/>
</g>
<!-- Node21&#45;&gt;Node5 -->
<g id="edge27" class="edge"><title>Node21&#45;&gt;Node5</title>
<path fill="none" stroke="midnightblue" d="M1785.37,-186.738C1512.11,-179.636 743.684,-154.182 501,-88 498.797,-87.3993 496.562,-86.644 494.353,-85.7937"/>
<polygon fill="midnightblue" stroke="midnightblue" points="495.576,-82.5073 485.017,-81.6416 492.731,-88.9033 495.576,-82.5073"/>
</g>
<!-- Node21&#45;&gt;Node19 -->
<g id="edge26" class="edge"><title>Node21&#45;&gt;Node19</title>
<path fill="none" stroke="midnightblue" d="M1934.34,-180.444C1991.81,-170.865 2084.87,-155.356 2146,-145.167"/>
<polygon fill="midnightblue" stroke="midnightblue" points="2146.61,-148.613 2155.9,-143.516 2145.46,-141.708 2146.61,-148.613"/>
</g>
<!-- Node22&#45;&gt;Node19 -->
<g id="edge32" class="edge"><title>Node22&#45;&gt;Node19</title>
<path fill="none" stroke="midnightblue" d="M2242.9,-180.083C2236.76,-172.377 2227.73,-161.033 2220.26,-151.653"/>
<polygon fill="midnightblue" stroke="midnightblue" points="2222.94,-149.394 2213.97,-143.751 2217.46,-153.754 2222.94,-149.394"/>
</g>
<!-- Node22&#45;&gt;Node20 -->
<g id="edge29" class="edge"><title>Node22&#45;&gt;Node20</title>
<path fill="none" stroke="midnightblue" d="M2269.91,-180.41C2284.22,-173.04 2302.46,-160.916 2311,-144 2321.01,-124.173 2303.38,-102.483 2287.76,-88.3611"/>
<polygon fill="midnightblue" stroke="midnightblue" points="2289.83,-85.5205 2279.94,-81.7159 2285.29,-90.8565 2289.83,-85.5205"/>
</g>
<!-- Node23 -->
<g id="node23" class="node"><title>Node23</title>
<polygon fill="none" stroke="#bfbfbf" points="2438,-124.5 2438,-143.5 2494,-143.5 2494,-124.5 2438,-124.5"/>
<text text-anchor="middle" x="2466" y="-131.5" font-family="Helvetica,sans-Serif" font-size="10.00">sys/ipc.h</text>
</g>
<!-- Node22&#45;&gt;Node23 -->
<g id="edge30" class="edge"><title>Node22&#45;&gt;Node23</title>
<path fill="none" stroke="midnightblue" d="M2284.23,-180.444C2323.38,-170.656 2387.3,-154.675 2427.97,-144.506"/>
<polygon fill="midnightblue" stroke="midnightblue" points="2428.93,-147.875 2437.79,-142.054 2427.23,-141.084 2428.93,-147.875"/>
</g>
<!-- Node24 -->
<g id="node24" class="node"><title>Node24</title>
<polygon fill="none" stroke="#bfbfbf" points="2358,-124.5 2358,-143.5 2420,-143.5 2420,-124.5 2358,-124.5"/>
<text text-anchor="middle" x="2389" y="-131.5" font-family="Helvetica,sans-Serif" font-size="10.00">sys/shm.h</text>
</g>
<!-- Node22&#45;&gt;Node24 -->
<g id="edge31" class="edge"><title>Node22&#45;&gt;Node24</title>
<path fill="none" stroke="midnightblue" d="M2272.02,-180.444C2295.1,-171.478 2331.56,-157.314 2357.64,-147.183"/>
<polygon fill="midnightblue" stroke="midnightblue" points="2359.02,-150.4 2367.08,-143.516 2356.49,-143.875 2359.02,-150.4"/>
</g>
<!-- Node25&#45;&gt;Node8 -->
<g id="edge49" class="edge"><title>Node25&#45;&gt;Node8</title>
<path fill="none" stroke="midnightblue" d="M1244.96,-185.626C1117.65,-175.667 744.568,-143.561 439,-88 431.886,-86.7064 424.384,-85.1985 417.064,-83.647"/>
<polygon fill="midnightblue" stroke="midnightblue" points="417.762,-80.2172 407.248,-81.5203 416.28,-87.0585 417.762,-80.2172"/>
</g>
<!-- Node26 -->
<g id="node26" class="node"><title>Node26</title>
<g id="a_node26"><a xlink:href="../../dc/d03/MemoryResources_8h.html" target="_top" xlink:title="MemoryResources/MemoryResources.h">
<polygon fill="none" stroke="black" points="1193.5,-124.5 1193.5,-143.5 1386.5,-143.5 1386.5,-124.5 1193.5,-124.5"/>
<text text-anchor="middle" x="1290" y="-131.5" font-family="Helvetica,sans-Serif" font-size="10.00">MemoryResources/MemoryResources.h</text>
</a>
</g>
</g>
<!-- Node25&#45;&gt;Node26 -->
<g id="edge34" class="edge"><title>Node25&#45;&gt;Node26</title>
<path fill="none" stroke="midnightblue" d="M1290,-180.083C1290,-173.006 1290,-162.861 1290,-153.986"/>
<polygon fill="midnightblue" stroke="midnightblue" points="1293.5,-153.751 1290,-143.751 1286.5,-153.751 1293.5,-153.751"/>
</g>
<!-- Node26&#45;&gt;Node5 -->
<g id="edge43" class="edge"><title>Node26&#45;&gt;Node5</title>
<path fill="none" stroke="midnightblue" d="M1193.45,-132.206C1012.53,-129.94 629.158,-121.246 501,-88 498.656,-87.392 496.278,-86.6009 493.935,-85.6999"/>
<polygon fill="midnightblue" stroke="midnightblue" points="495.239,-82.4489 484.681,-81.5649 492.383,-88.84 495.239,-82.4489"/>
</g>
<!-- Node26&#45;&gt;Node11 -->
<g id="edge39" class="edge"><title>Node26&#45;&gt;Node11</title>
<path fill="none" stroke="midnightblue" d="M1386.52,-132.554C1559.35,-130.868 1907.68,-123.1 1950,-88 1966.82,-74.0473 1970.49,-47.9209 1970.84,-30.0033"/>
<polygon fill="midnightblue" stroke="midnightblue" points="1974.34,-29.8095 1970.7,-19.8572 1967.34,-29.903 1974.34,-29.8095"/>
</g>
<!-- Node26&#45;&gt;Node14 -->
<g id="edge40" class="edge"><title>Node26&#45;&gt;Node14</title>
<path fill="none" stroke="midnightblue" d="M1193.2,-129.197C1087.41,-123.894 925.456,-112.082 869,-88 848.691,-79.337 850.199,-66.9051 831,-56 799.143,-37.9047 758.785,-25.3375 731.554,-18.1707"/>
<polygon fill="midnightblue" stroke="midnightblue" points="732.36,-14.7642 721.805,-15.6882 730.632,-21.5477 732.36,-14.7642"/>
</g>
<!-- Node27 -->
<g id="node27" class="node"><title>Node27</title>
<polygon fill="none" stroke="#bfbfbf" points="878,-57 878,-87 978,-87 978,-57 878,-57"/>
<text text-anchor="start" x="886" y="-75" font-family="Helvetica,sans-Serif" font-size="10.00">boost/container/flat</text>
<text text-anchor="middle" x="928" y="-64" font-family="Helvetica,sans-Serif" font-size="10.00">_map.hpp</text>
</g>
<!-- Node26&#45;&gt;Node27 -->
<g id="edge35" class="edge"><title>Node26&#45;&gt;Node27</title>
<path fill="none" stroke="midnightblue" d="M1218.63,-124.479C1159.35,-116.926 1072.64,-104.781 988.156,-88.1152"/>
<polygon fill="midnightblue" stroke="midnightblue" points="988.624,-84.6398 978.133,-86.1143 987.254,-91.5043 988.624,-84.6398"/>
</g>
<!-- Node28 -->
<g id="node28" class="node"><title>Node28</title>
<polygon fill="none" stroke="#bfbfbf" points="996,-57 996,-87 1112,-87 1112,-57 996,-57"/>
<text text-anchor="start" x="1004" y="-75" font-family="Helvetica,sans-Serif" font-size="10.00">boost/container/pmr</text>
<text text-anchor="middle" x="1054" y="-64" font-family="Helvetica,sans-Serif" font-size="10.00">/memory_resource.hpp</text>
</g>
<!-- Node26&#45;&gt;Node28 -->
<g id="edge36" class="edge"><title>Node26&#45;&gt;Node28</title>
<path fill="none" stroke="midnightblue" d="M1256.44,-124.467C1220.83,-115.414 1163.67,-100.882 1119.16,-89.5653"/>
<polygon fill="midnightblue" stroke="midnightblue" points="1119.84,-86.1285 1109.29,-87.0565 1118.12,-92.9127 1119.84,-86.1285"/>
</g>
<!-- Node29 -->
<g id="node29" class="node"><title>Node29</title>
<polygon fill="none" stroke="#bfbfbf" points="1130,-57 1130,-87 1286,-87 1286,-57 1130,-57"/>
<text text-anchor="start" x="1138" y="-75" font-family="Helvetica,sans-Serif" font-size="10.00">boost/container/pmr</text>
<text text-anchor="middle" x="1208" y="-64" font-family="Helvetica,sans-Serif" font-size="10.00">/monotonic_buffer_resource.hpp</text>
</g>
<!-- Node26&#45;&gt;Node29 -->
<g id="edge37" class="edge"><title>Node26&#45;&gt;Node29</title>
<path fill="none" stroke="midnightblue" d="M1278.25,-124.403C1267.15,-116.277 1250.07,-103.779 1235.53,-93.1419"/>
<polygon fill="midnightblue" stroke="midnightblue" points="1237.46,-90.2213 1227.33,-87.1408 1233.33,-95.8706 1237.46,-90.2213"/>
</g>
<!-- Node30 -->
<g id="node30" class="node"><title>Node30</title>
<polygon fill="none" stroke="#bfbfbf" points="1304.5,-57 1304.5,-87 1437.5,-87 1437.5,-57 1304.5,-57"/>
<text text-anchor="start" x="1312.5" y="-75" font-family="Helvetica,sans-Serif" font-size="10.00">boost/container/pmr</text>
<text text-anchor="middle" x="1371" y="-64" font-family="Helvetica,sans-Serif" font-size="10.00">/polymorphic_allocator.hpp</text>
</g>
<!-- Node26&#45;&gt;Node30 -->
<g id="edge38" class="edge"><title>Node26&#45;&gt;Node30</title>
<path fill="none" stroke="midnightblue" d="M1301.61,-124.403C1312.58,-116.277 1329.45,-103.779 1343.81,-93.1419"/>
<polygon fill="midnightblue" stroke="midnightblue" points="1345.96,-95.9056 1351.91,-87.1408 1341.79,-90.2807 1345.96,-95.9056"/>
</g>
<!-- Node31 -->
<g id="node31" class="node"><title>Node31</title>
<polygon fill="none" stroke="#bfbfbf" points="1456,-62.5 1456,-81.5 1518,-81.5 1518,-62.5 1456,-62.5"/>
<text text-anchor="middle" x="1487" y="-69.5" font-family="Helvetica,sans-Serif" font-size="10.00">type_traits</text>
</g>
<!-- Node26&#45;&gt;Node31 -->
<g id="edge41" class="edge"><title>Node26&#45;&gt;Node31</title>
<path fill="none" stroke="midnightblue" d="M1322.17,-124.428C1353.85,-115.819 1403.53,-101.875 1446,-88 1448.93,-87.0423 1451.97,-86.0101 1455,-84.9512"/>
<polygon fill="midnightblue" stroke="midnightblue" points="1456.31,-88.2012 1464.54,-81.5372 1453.95,-81.6102 1456.31,-88.2012"/>
</g>
<!-- Node32 -->
<g id="node32" class="node"><title>Node32</title>
<polygon fill="none" stroke="#bfbfbf" points="1536,-62.5 1536,-81.5 1576,-81.5 1576,-62.5 1536,-62.5"/>
<text text-anchor="middle" x="1556" y="-69.5" font-family="Helvetica,sans-Serif" font-size="10.00">utility</text>
</g>
<!-- Node26&#45;&gt;Node32 -->
<g id="edge42" class="edge"><title>Node26&#45;&gt;Node32</title>
<path fill="none" stroke="midnightblue" d="M1362.32,-124.469C1409.71,-117.606 1472.56,-106.068 1526,-88 1527.86,-87.3705 1529.75,-86.6463 1531.64,-85.8633"/>
<polygon fill="midnightblue" stroke="midnightblue" points="1533.18,-89.0061 1540.78,-81.6244 1530.23,-82.6555 1533.18,-89.0061"/>
</g>
<!-- Node33 -->
<g id="node33" class="node"><title>Node33</title>
<polygon fill="none" stroke="#bfbfbf" points="1594.5,-62.5 1594.5,-81.5 1677.5,-81.5 1677.5,-62.5 1594.5,-62.5"/>
<text text-anchor="middle" x="1636" y="-69.5" font-family="Helvetica,sans-Serif" font-size="10.00">unordered_map</text>
</g>
<!-- Node26&#45;&gt;Node33 -->
<g id="edge44" class="edge"><title>Node26&#45;&gt;Node33</title>
<path fill="none" stroke="midnightblue" d="M1364.16,-124.498C1424.13,-116.951 1510.53,-104.552 1585,-88 1589.76,-86.9418 1594.73,-85.6813 1599.62,-84.3472"/>
<polygon fill="midnightblue" stroke="midnightblue" points="1600.79,-87.6536 1609.44,-81.5464 1598.87,-80.9217 1600.79,-87.6536"/>
</g>
<!-- Node34 -->
<g id="node34" class="node"><title>Node34</title>
<polygon fill="none" stroke="#bfbfbf" points="1695.5,-62.5 1695.5,-81.5 1792.5,-81.5 1792.5,-62.5 1695.5,-62.5"/>
<text text-anchor="middle" x="1744" y="-69.5" font-family="Helvetica,sans-Serif" font-size="10.00">FairMQMessage.h</text>
</g>
<!-- Node26&#45;&gt;Node34 -->
<g id="edge45" class="edge"><title>Node26&#45;&gt;Node34</title>
<path fill="none" stroke="midnightblue" d="M1386.58,-125.826C1467.11,-118.937 1584.63,-106.773 1686,-88 1691.96,-86.8959 1698.22,-85.5168 1704.32,-84.0452"/>
<polygon fill="midnightblue" stroke="midnightblue" points="1705.53,-87.3496 1714.37,-81.5135 1703.82,-80.5615 1705.53,-87.3496"/>
</g>
<!-- Node35 -->
<g id="node35" class="node"><title>Node35</title>
<polygon fill="none" stroke="#bfbfbf" points="1810.5,-62.5 1810.5,-81.5 1941.5,-81.5 1941.5,-62.5 1810.5,-62.5"/>
<text text-anchor="middle" x="1876" y="-69.5" font-family="Helvetica,sans-Serif" font-size="10.00">FairMQTransportFactory.h</text>
</g>
<!-- Node26&#45;&gt;Node35 -->
<g id="edge46" class="edge"><title>Node26&#45;&gt;Node35</title>
<path fill="none" stroke="midnightblue" d="M1386.9,-127.638C1489.95,-121.196 1657.53,-108.601 1801,-88 1809.69,-86.7521 1818.89,-85.1483 1827.77,-83.4556"/>
<polygon fill="midnightblue" stroke="midnightblue" points="1828.46,-86.8859 1837.6,-81.521 1827.11,-80.0176 1828.46,-86.8859"/>
</g>
<!-- Node36 -->
<g id="node36" class="node"><title>Node36</title>
<polygon fill="none" stroke="#bfbfbf" points="510.5,-62.5 510.5,-81.5 647.5,-81.5 647.5,-62.5 510.5,-62.5"/>
<text text-anchor="middle" x="579" y="-69.5" font-family="Helvetica,sans-Serif" font-size="10.00">fairmq/MemoryResources.h</text>
</g>
<!-- Node26&#45;&gt;Node36 -->
<g id="edge47" class="edge"><title>Node26&#45;&gt;Node36</title>
<path fill="none" stroke="midnightblue" d="M1193.39,-129.708C1068.94,-124.648 846.116,-112.817 657,-88 647.762,-86.7878 637.968,-85.1707 628.554,-83.4468"/>
<polygon fill="midnightblue" stroke="midnightblue" points="629.009,-79.9708 618.532,-81.5484 627.706,-86.8485 629.009,-79.9708"/>
</g>
<!-- Node37 -->
<g id="node37" class="node"><title>Node37</title>
<polygon fill="none" stroke="#bfbfbf" points="666,-62.5 666,-81.5 822,-81.5 822,-62.5 666,-62.5"/>
<text text-anchor="middle" x="744" y="-69.5" font-family="Helvetica,sans-Serif" font-size="10.00">fairmq/MemoryResourceTools.h</text>
</g>
<!-- Node26&#45;&gt;Node37 -->
<g id="edge48" class="edge"><title>Node26&#45;&gt;Node37</title>
<path fill="none" stroke="midnightblue" d="M1193.26,-125.185C1101.21,-117.329 958.908,-104.095 836,-88 825.189,-86.5843 813.696,-84.8748 802.629,-83.1242"/>
<polygon fill="midnightblue" stroke="midnightblue" points="803.046,-79.6463 792.617,-81.5122 801.933,-86.5573 803.046,-79.6463"/>
</g>
</g>
</svg>
        <g id="navigator" transform="translate(0 0)" fill="#404254">
                <rect fill="#f2f5e9" fill-opacity="0.5" stroke="#606060" stroke-width=".5" x="0" y="0" width="60" height="60"/>
                <use id="zoomplus" xlink:href="#zoomPlus" x="17" y="9" onmousedown="handleZoom(evt,'in')"/>
                <use id="zoomminus" xlink:href="#zoomMin" x="42" y="9" onmousedown="handleZoom(evt,'out')"/>
                <use id="reset" xlink:href="#resetDef" x="30" y="36" onmousedown="handleReset()"/>
                <g id="arrowUp" xlink:href="#dirArrow" transform="translate(30 24)" onmousedown="handlePan(0,-1)">
                  <use xlink:href="#rim" fill="#404040">
                        <set attributeName="fill" to="#808080" begin="arrowUp.mouseover" end="arrowUp.mouseout"/>
                  </use>
                  <path fill="none" stroke="white" stroke-width="1.5" d="M0,-3.0v7 M-2.5,-0.5L0,-3.0L2.5,-0.5"/>
                </g>
                <g id="arrowRight" xlink:href="#dirArrow" transform="rotate(90) translate(36 -43)" onmousedown="handlePan(1,0)">
                  <use xlink:href="#rim" fill="#404040">
                        <set attributeName="fill" to="#808080" begin="arrowRight.mouseover" end="arrowRight.mouseout"/>
                  </use>
                  <path fill="none" stroke="white" stroke-width="1.5" d="M0,-3.0v7 M-2.5,-0.5L0,-3.0L2.5,-0.5"/>
                </g>
                <g id="arrowDown" xlink:href="#dirArrow" transform="rotate(180) translate(-30 -48)" onmousedown="handlePan(0,1)">
                  <use xlink:href="#rim" fill="#404040">
                        <set attributeName="fill" to="#808080" begin="arrowDown.mouseover" end="arrowDown.mouseout"/>
                  </use>
                  <path fill="none" stroke="white" stroke-width="1.5" d="M0,-3.0v7 M-2.5,-0.5L0,-3.0L2.5,-0.5"/>
                </g>
                <g id="arrowLeft" xlink:href="#dirArrow" transform="rotate(270) translate(-36 17)" onmousedown="handlePan(-1,0)">
                  <use xlink:href="#rim" fill="#404040">
                        <set attributeName="fill" to="#808080" begin="arrowLeft.mouseover" end="arrowLeft.mouseout"/>
                  </use>
                  <path fill="none" stroke="white" stroke-width="1.5" d="M0,-3.0v7 M-2.5,-0.5L0,-3.0L2.5,-0.5"/>
                </g>
        </g>
        <svg viewBox="0 0 15 15" width="100%" height="30px" preserveAspectRatio="xMaxYMin meet">
         <g id="arrow_out" transform="scale(0.3 0.3)">
          <a xlink:href="MessageFormat_8cxx__incl_org.svg" target="_base">
           <rect id="button" ry="5" rx="5" y="6" x="6" height="38" width="38"
                fill="#f2f5e9" fill-opacity="0.5" stroke="#606060" stroke-width="1.0"/>
           <path id="arrow"
             d="M 11.500037,31.436501 C 11.940474,20.09759 22.043105,11.32322 32.158766,21.979434 L 37.068811,17.246167 C 37.068811,17.246167 37.088388,32 37.088388,32 L 22.160133,31.978069 C 22.160133,31.978069 26.997745,27.140456 26.997745,27.140456 C 18.528582,18.264221 13.291696,25.230495 11.500037,31.436501 z"
             style="fill:#404040;"/>
          </a>
         </g>
        </svg>
</svg>
