<?xml version="1.0" encoding="UTF-8" standalone="no"?>
<!DOCTYPE svg PUBLIC "-//W3C//DTD SVG 1.1//EN"
 "http://www.w3.org/Graphics/SVG/1.1/DTD/svg11.dtd">
<!-- Generated by graphviz version 2.36.0 (20140111.2315)
 -->
<!-- Title: o2::framework::ArrowContext::MessageRef Pages: 1 -->
<svg width="364pt" height="196pt"
 viewBox="0.00 0.00 364.00 196.00" xmlns="http://www.w3.org/2000/svg" xmlns:xlink="http://www.w3.org/1999/xlink">
<g id="graph0" class="graph" transform="scale(1 1) rotate(0) translate(4 192)">
<title>o2::framework::ArrowContext::MessageRef</title>
<!-- Node1 -->
<g id="node1" class="node"><title>Node1</title>
<polygon fill="#bfbfbf" stroke="black" points="56.5,-1 56.5,-69 201.5,-69 201.5,-1 56.5,-1"/>
<text text-anchor="start" x="64.5" y="-57" font-family="Helvetica,sans-Serif" font-size="10.00">o2::framework::ArrowContext</text>
<text text-anchor="middle" x="129" y="-46" font-family="Helvetica,sans-Serif" font-size="10.00">::MessageRef</text>
<polyline fill="none" stroke="black" points="56.5,-39 201.5,-39 "/>
<text text-anchor="middle" x="129" y="-27" font-family="Helvetica,sans-Serif" font-size="10.00"> </text>
<polyline fill="none" stroke="black" points="56.5,-20 201.5,-20 "/>
<text text-anchor="middle" x="129" y="-8" font-family="Helvetica,sans-Serif" font-size="10.00"> </text>
</g>
<!-- Node2 -->
<g id="node2" class="node"><title>Node2</title>
<polygon fill="none" stroke="#bfbfbf" points="-0.5,-124.5 -0.5,-181.5 34.5,-181.5 34.5,-124.5 -0.5,-124.5"/>
<text text-anchor="middle" x="17" y="-169.5" font-family="Helvetica,sans-Serif" font-size="10.00">char</text>
<polyline fill="none" stroke="#bfbfbf" points="-0.5,-162.5 34.5,-162.5 "/>
<text text-anchor="middle" x="17" y="-150.5" font-family="Helvetica,sans-Serif" font-size="10.00"> </text>
<polyline fill="none" stroke="#bfbfbf" points="-0.5,-143.5 34.5,-143.5 "/>
<text text-anchor="middle" x="17" y="-131.5" font-family="Helvetica,sans-Serif" font-size="10.00"> </text>
</g>
<!-- Node2&#45;&gt;Node1 -->
<g id="edge1" class="edge"><title>Node2&#45;&gt;Node1</title>
<path fill="none" stroke="#404040" d="M34.6035,-128.977C37.6547,-125.238 40.8583,-121.46 44,-118 56.3197,-104.433 70.3975,-90.3444 83.5043,-77.7521"/>
<polygon fill="none" stroke="#404040" points="83.6958,-77.5699 85.2855,-70.5361 92.3895,-69.2982 90.7999,-76.3319 83.6958,-77.5699"/>
<text text-anchor="middle" x="93.5" y="-91.5" font-family="Helvetica,sans-Serif" font-size="10.00"> +channel</text>
</g>
<!-- Node3 -->
<g id="node3" class="node"><title>Node3</title>
<polygon fill="none" stroke="#bfbfbf" points="53,-124.5 53,-181.5 205,-181.5 205,-124.5 53,-124.5"/>
<text text-anchor="middle" x="129" y="-169.5" font-family="Helvetica,sans-Serif" font-size="10.00">unique_ptr&lt; FairMQMessage &gt;</text>
<polyline fill="none" stroke="#bfbfbf" points="53,-162.5 205,-162.5 "/>
<text text-anchor="middle" x="129" y="-150.5" font-family="Helvetica,sans-Serif" font-size="10.00"> </text>
<polyline fill="none" stroke="#bfbfbf" points="53,-143.5 205,-143.5 "/>
<text text-anchor="middle" x="129" y="-131.5" font-family="Helvetica,sans-Serif" font-size="10.00"> </text>
</g>
<!-- Node3&#45;&gt;Node1 -->
<g id="edge2" class="edge"><title>Node3&#45;&gt;Node1</title>
<path fill="none" stroke="#404040" d="M129,-124.215C129,-111.462 129,-96.0055 129,-81.6156"/>
<polygon fill="none" stroke="#404040" points="129,-81.3393 125,-75.3393 129,-69.3393 133,-75.3393 129,-81.3393"/>
<text text-anchor="middle" x="148.5" y="-91.5" font-family="Helvetica,sans-Serif" font-size="10.00"> +header</text>
</g>
<!-- Node4 -->
<g id="node4" class="node"><title>Node4</title>
<polygon fill="none" stroke="#bfbfbf" points="223.5,-119 223.5,-187 356.5,-187 356.5,-119 223.5,-119"/>
<text text-anchor="start" x="231.5" y="-175" font-family="Helvetica,sans-Serif" font-size="10.00">unique_ptr&lt; o2::framework</text>
<text text-anchor="middle" x="290" y="-164" font-family="Helvetica,sans-Serif" font-size="10.00">::TableBuilder &gt;</text>
<polyline fill="none" stroke="#bfbfbf" points="223.5,-157 356.5,-157 "/>
<text text-anchor="middle" x="290" y="-145" font-family="Helvetica,sans-Serif" font-size="10.00"> </text>
<polyline fill="none" stroke="#bfbfbf" points="223.5,-138 356.5,-138 "/>
<text text-anchor="middle" x="290" y="-126" font-family="Helvetica,sans-Serif" font-size="10.00"> </text>
</g>
<!-- Node4&#45;&gt;Node1 -->
<g id="edge3" class="edge"><title>Node4&#45;&gt;Node1</title>
<path fill="none" stroke="#404040" d="M243.864,-118.759C225.427,-105.475 204.03,-90.0588 184.736,-76.1573"/>
<polygon fill="none" stroke="#404040" points="184.6,-76.06 177.394,-75.7979 174.864,-69.0451 182.071,-69.3072 184.6,-76.06"/>
<text text-anchor="middle" x="236.5" y="-91.5" font-family="Helvetica,sans-Serif" font-size="10.00"> +payload</text>
</g>
</g>
</svg>
