<?xml version="1.0" encoding="UTF-8" standalone="no"?>
<!DOCTYPE svg PUBLIC "-//W3C//DTD SVG 1.1//EN"
 "http://www.w3.org/Graphics/SVG/1.1/DTD/svg11.dtd">
<!-- Generated by graphviz version 2.36.0 (20140111.2315)
 -->
<!-- Title: /home/travis/build/AliceO2Group/AliceO2/Detectors/ITSMFT/MFT/base/src/Flex.cxx Pages: 1 -->
<!--zoomable 286 -->
<svg id="main" version="1.1" xmlns="http://www.w3.org/2000/svg" xmlns:xlink="http://www.w3.org/1999/xlink" xml:space="preserve" onload="init(evt)">
<style type="text/css"><![CDATA[
.edge:hover path { stroke: red; }
.edge:hover polygon { stroke: red; fill: red; }
]]></style>
<script type="text/javascript"><![CDATA[
var edges = document.getElementsByTagName('g');
if (edges && edges.length) {
  for (var i=0;i<edges.length;i++) {
    if (edges[i].id.substr(0,4)=='edge') {
      edges[i].setAttribute('class','edge');
    }
  }
}
]]></script>
        <defs>
                <circle id="rim" cx="0" cy="0" r="7"/>
                <circle id="rim2" cx="0" cy="0" r="3.5"/>
                <g id="zoomPlus">
                        <use xlink:href="#rim" fill="#404040">
                                <set attributeName="fill" to="#808080" begin="zoomplus.mouseover" end="zoomplus.mouseout"/>
                        </use>
                        <path d="M-4,0h8M0,-4v8" fill="none" stroke="white" stroke-width="1.5" pointer-events="none"/>
                </g>
                <g id="zoomMin">
                        <use xlink:href="#rim" fill="#404040">
                                <set attributeName="fill" to="#808080" begin="zoomminus.mouseover" end="zoomminus.mouseout"/>
                        </use>
                        <path d="M-4,0h8" fill="none" stroke="white" stroke-width="1.5" pointer-events="none"/>
                </g>
                <g id="dirArrow">
                        <path fill="none" stroke="white" stroke-width="1.5" d="M0,-3.0v7 M-2.5,-0.5L0,-3.0L2.5,-0.5"/>
                </g>
               <g id="resetDef">
                       <use xlink:href="#rim2" fill="#404040">
                               <set attributeName="fill" to="#808080" begin="reset.mouseover" end="reset.mouseout"/>
                       </use>
               </g>
        </defs>

<script type="text/javascript">
var viewWidth = 1546;
var viewHeight = 286;
var sectionId = 'dynsection-0';
</script>
<script xlink:href="../../svgpan.js"/>
<svg id="graph" class="graph">
<g id="viewport">
<title>/home/travis/build/AliceO2Group/AliceO2/Detectors/ITSMFT/MFT/base/src/Flex.cxx</title>
<!-- Node1 -->
<g id="node1" class="node"><title>Node1</title>
<polygon fill="#bfbfbf" stroke="black" points="626.5,-225 626.5,-277 751.5,-277 751.5,-225 626.5,-225"/>
<text text-anchor="start" x="634.5" y="-265" font-family="Helvetica,sans-Serif" font-size="10.00">/home/travis/build</text>
<text text-anchor="start" x="634.5" y="-254" font-family="Helvetica,sans-Serif" font-size="10.00">/AliceO2Group/AliceO2</text>
<text text-anchor="start" x="634.5" y="-243" font-family="Helvetica,sans-Serif" font-size="10.00">/Detectors/ITSMFT/MFT</text>
<text text-anchor="middle" x="689" y="-232" font-family="Helvetica,sans-Serif" font-size="10.00">/base/src/Flex.cxx</text>
</g>
<!-- Node2 -->
<g id="node2" class="node"><title>Node2</title>
<polygon fill="none" stroke="#bfbfbf" points="0,-168.5 0,-187.5 86,-187.5 86,-168.5 0,-168.5"/>
<text text-anchor="middle" x="43" y="-175.5" font-family="Helvetica,sans-Serif" font-size="10.00">TGeoManager.h</text>
</g>
<!-- Node1&#45;&gt;Node2 -->
<g id="edge1" class="edge"><title>Node1&#45;&gt;Node2</title>
<path fill="none" stroke="midnightblue" d="M626.111,-244.457C518.257,-234.71 291.146,-213.134 100,-188 98.7429,-187.835 97.4707,-187.664 96.1881,-187.488"/>
<polygon fill="midnightblue" stroke="midnightblue" points="96.6203,-184.014 86.2259,-186.066 95.6308,-190.944 96.6203,-184.014"/>
</g>
<!-- Node3 -->
<g id="node3" class="node"><title>Node3</title>
<polygon fill="none" stroke="#bfbfbf" points="80,-112.5 80,-131.5 162,-131.5 162,-112.5 80,-112.5"/>
<text text-anchor="middle" x="121" y="-119.5" font-family="Helvetica,sans-Serif" font-size="10.00">TGeoVolume.h</text>
</g>
<!-- Node1&#45;&gt;Node3 -->
<g id="edge2" class="edge"><title>Node1&#45;&gt;Node3</title>
<path fill="none" stroke="midnightblue" d="M626.443,-247.173C488.705,-240.367 168.589,-221.131 133,-188 120.551,-176.411 118.495,-156.452 118.97,-141.701"/>
<polygon fill="midnightblue" stroke="midnightblue" points="122.466,-141.886 119.697,-131.66 115.484,-141.381 122.466,-141.886"/>
</g>
<!-- Node4 -->
<g id="node4" class="node"><title>Node4</title>
<polygon fill="none" stroke="#bfbfbf" points="686,-168.5 686,-187.5 754,-187.5 754,-168.5 686,-168.5"/>
<text text-anchor="middle" x="720" y="-175.5" font-family="Helvetica,sans-Serif" font-size="10.00">TGeoTrd2.h</text>
</g>
<!-- Node1&#45;&gt;Node4 -->
<g id="edge3" class="edge"><title>Node1&#45;&gt;Node4</title>
<path fill="none" stroke="midnightblue" d="M700.017,-224.768C704.025,-215.587 708.472,-205.403 712.151,-196.978"/>
<polygon fill="midnightblue" stroke="midnightblue" points="715.383,-198.322 716.176,-187.757 708.967,-195.521 715.383,-198.322"/>
</g>
<!-- Node5 -->
<g id="node5" class="node"><title>Node5</title>
<polygon fill="none" stroke="#bfbfbf" points="641,-0.5 641,-19.5 717,-19.5 717,-0.5 641,-0.5"/>
<text text-anchor="middle" x="679" y="-7.5" font-family="Helvetica,sans-Serif" font-size="10.00">TGeoMatrix.h</text>
</g>
<!-- Node1&#45;&gt;Node5 -->
<g id="edge4" class="edge"><title>Node1&#45;&gt;Node5</title>
<path fill="none" stroke="midnightblue" d="M677.466,-224.808C671.469,-207.756 667.217,-185.278 677,-168 692.322,-140.938 721.678,-159.062 737,-132 741.38,-124.265 739.291,-120.589 737,-112 728.363,-79.6168 706.596,-46.8276 692.323,-27.7333"/>
<polygon fill="midnightblue" stroke="midnightblue" points="695.055,-25.5447 686.187,-19.7478 689.504,-29.8098 695.055,-25.5447"/>
</g>
<!-- Node6 -->
<g id="node6" class="node"><title>Node6</title>
<polygon fill="none" stroke="#bfbfbf" points="772.5,-168.5 772.5,-187.5 845.5,-187.5 845.5,-168.5 772.5,-168.5"/>
<text text-anchor="middle" x="809" y="-175.5" font-family="Helvetica,sans-Serif" font-size="10.00">TGeoBBox.h</text>
</g>
<!-- Node1&#45;&gt;Node6 -->
<g id="edge5" class="edge"><title>Node1&#45;&gt;Node6</title>
<path fill="none" stroke="midnightblue" d="M731.308,-224.968C749.524,-214.19 770.131,-201.997 785.542,-192.879"/>
<polygon fill="midnightblue" stroke="midnightblue" points="787.575,-195.743 794.399,-187.639 784.01,-189.719 787.575,-195.743"/>
</g>
<!-- Node7 -->
<g id="node7" class="node"><title>Node7</title>
<polygon fill="none" stroke="#bfbfbf" points="863.5,-168.5 863.5,-187.5 934.5,-187.5 934.5,-168.5 863.5,-168.5"/>
<text text-anchor="middle" x="899" y="-175.5" font-family="Helvetica,sans-Serif" font-size="10.00">TGeoTube.h</text>
</g>
<!-- Node1&#45;&gt;Node7 -->
<g id="edge6" class="edge"><title>Node1&#45;&gt;Node7</title>
<path fill="none" stroke="midnightblue" d="M751.722,-228.794C788.424,-216.385 833.399,-201.18 863.922,-190.86"/>
<polygon fill="midnightblue" stroke="midnightblue" points="865.334,-194.077 873.686,-187.558 863.092,-187.446 865.334,-194.077"/>
</g>
<!-- Node8 -->
<g id="node8" class="node"><title>Node8</title>
<polygon fill="none" stroke="#bfbfbf" points="953,-168.5 953,-187.5 1077,-187.5 1077,-168.5 953,-168.5"/>
<text text-anchor="middle" x="1015" y="-175.5" font-family="Helvetica,sans-Serif" font-size="10.00">TGeoCompositeShape.h</text>
</g>
<!-- Node1&#45;&gt;Node8 -->
<g id="edge7" class="edge"><title>Node1&#45;&gt;Node8</title>
<path fill="none" stroke="midnightblue" d="M751.856,-236.31C814.343,-222.701 908.887,-202.111 966.01,-189.67"/>
<polygon fill="midnightblue" stroke="midnightblue" points="966.853,-193.068 975.879,-187.52 965.363,-186.228 966.853,-193.068"/>
</g>
<!-- Node9 -->
<g id="node9" class="node"><title>Node9</title>
<polygon fill="none" stroke="#bfbfbf" points="1095,-168.5 1095,-187.5 1187,-187.5 1187,-168.5 1095,-168.5"/>
<text text-anchor="middle" x="1141" y="-175.5" font-family="Helvetica,sans-Serif" font-size="10.00">TGeoBoolNode.h</text>
</g>
<!-- Node1&#45;&gt;Node9 -->
<g id="edge8" class="edge"><title>Node1&#45;&gt;Node9</title>
<path fill="none" stroke="midnightblue" d="M751.768,-240.253C827.807,-228.427 960.097,-207.795 1084.75,-188.034"/>
<polygon fill="midnightblue" stroke="midnightblue" points="1085.53,-191.454 1094.86,-186.431 1084.43,-184.541 1085.53,-191.454"/>
</g>
<!-- Node10 -->
<g id="node10" class="node"><title>Node10</title>
<polygon fill="none" stroke="#bfbfbf" points="1205.5,-168.5 1205.5,-187.5 1258.5,-187.5 1258.5,-168.5 1205.5,-168.5"/>
<text text-anchor="middle" x="1232" y="-175.5" font-family="Helvetica,sans-Serif" font-size="10.00">TMath.h</text>
</g>
<!-- Node1&#45;&gt;Node10 -->
<g id="edge9" class="edge"><title>Node1&#45;&gt;Node10</title>
<path fill="none" stroke="midnightblue" d="M751.821,-244.829C846.127,-236.512 1029.95,-218.158 1195.47,-187.877"/>
<polygon fill="midnightblue" stroke="midnightblue" points="1196.15,-191.312 1205.34,-186.053 1194.87,-184.429 1196.15,-191.312"/>
</g>
<!-- Node11 -->
<g id="node11" class="node"><title>Node11</title>
<polygon fill="none" stroke="#bfbfbf" points="1276.5,-168.5 1276.5,-187.5 1347.5,-187.5 1347.5,-168.5 1276.5,-168.5"/>
<text text-anchor="middle" x="1312" y="-175.5" font-family="Helvetica,sans-Serif" font-size="10.00">FairLogger.h</text>
</g>
<!-- Node1&#45;&gt;Node11 -->
<g id="edge10" class="edge"><title>Node1&#45;&gt;Node11</title>
<path fill="none" stroke="midnightblue" d="M751.679,-245.149C856.211,-236.647 1072.89,-217.276 1266.13,-188.002"/>
<polygon fill="midnightblue" stroke="midnightblue" points="1266.83,-191.435 1276.19,-186.466 1265.78,-184.516 1266.83,-191.435"/>
</g>
<!-- Node12 -->
<g id="node12" class="node"><title>Node12</title>
<g id="a_node12"><a xlink:href="../../d9/de7/LadderSegmentation_8h.html" target="_top" xlink:title="Description of the virtual segmentation of a ladder. ">
<polygon fill="none" stroke="black" points="432,-168.5 432,-187.5 592,-187.5 592,-168.5 432,-168.5"/>
<text text-anchor="middle" x="512" y="-175.5" font-family="Helvetica,sans-Serif" font-size="10.00">MFTBase/LadderSegmentation.h</text>
</a>
</g>
</g>
<!-- Node1&#45;&gt;Node12 -->
<g id="edge11" class="edge"><title>Node1&#45;&gt;Node12</title>
<path fill="none" stroke="midnightblue" d="M626.596,-224.968C598.332,-213.63 566.168,-200.728 543.125,-191.485"/>
<polygon fill="midnightblue" stroke="midnightblue" points="544.121,-188.113 533.536,-187.639 541.514,-194.61 544.121,-188.113"/>
</g>
<!-- Node17 -->
<g id="node17" class="node"><title>Node17</title>
<g id="a_node17"><a xlink:href="../../d3/dbd/ChipSegmentation_8h.html" target="_top" xlink:title="Chip (sensor) segmentation description. ">
<polygon fill="none" stroke="black" points="577.5,-112.5 577.5,-131.5 728.5,-131.5 728.5,-112.5 577.5,-112.5"/>
<text text-anchor="middle" x="653" y="-119.5" font-family="Helvetica,sans-Serif" font-size="10.00">MFTBase/ChipSegmentation.h</text>
</a>
</g>
</g>
<!-- Node1&#45;&gt;Node17 -->
<g id="edge19" class="edge"><title>Node1&#45;&gt;Node17</title>
<path fill="none" stroke="midnightblue" d="M665.24,-224.898C656.817,-214.344 648.353,-201.409 644,-188 639.053,-172.762 642.257,-154.652 646.149,-141.422"/>
<polygon fill="midnightblue" stroke="midnightblue" points="649.572,-142.222 649.417,-131.628 642.932,-140.006 649.572,-142.222"/>
</g>
<!-- Node18 -->
<g id="node18" class="node"><title>Node18</title>
<g id="a_node18"><a xlink:href="../../d2/d8d/Flex_8h.html" target="_top" xlink:title="Flex (Printed Cabled Board) class for ALICE MFT upgrade. ">
<polygon fill="none" stroke="black" points="224.5,-56.5 224.5,-75.5 313.5,-75.5 313.5,-56.5 224.5,-56.5"/>
<text text-anchor="middle" x="269" y="-63.5" font-family="Helvetica,sans-Serif" font-size="10.00">MFTBase/Flex.h</text>
</a>
</g>
</g>
<!-- Node1&#45;&gt;Node18 -->
<g id="edge20" class="edge"><title>Node1&#45;&gt;Node18</title>
<path fill="none" stroke="midnightblue" d="M626.435,-249.043C559.53,-245.547 452.241,-232.65 372,-188 327.558,-163.27 293.708,-111.406 278.243,-84.3142"/>
<polygon fill="midnightblue" stroke="midnightblue" points="281.297,-82.6041 273.392,-75.5501 275.173,-85.9942 281.297,-82.6041"/>
</g>
<!-- Node19 -->
<g id="node19" class="node"><title>Node19</title>
<g id="a_node19"><a xlink:href="../../d0/d12/Ladder_8h.html" target="_top" xlink:title="Class building the Ladder geometry. ">
<polygon fill="none" stroke="black" points="142,-168.5 142,-187.5 242,-187.5 242,-168.5 142,-168.5"/>
<text text-anchor="middle" x="192" y="-175.5" font-family="Helvetica,sans-Serif" font-size="10.00">MFTBase/Ladder.h</text>
</a>
</g>
</g>
<!-- Node1&#45;&gt;Node19 -->
<g id="edge22" class="edge"><title>Node1&#45;&gt;Node19</title>
<path fill="none" stroke="midnightblue" d="M626.306,-241.044C529.999,-227.286 346.881,-201.126 252.137,-187.591"/>
<polygon fill="midnightblue" stroke="midnightblue" points="252.535,-184.112 242.141,-186.163 251.545,-191.042 252.535,-184.112"/>
</g>
<!-- Node20 -->
<g id="node20" class="node"><title>Node20</title>
<g id="a_node20"><a xlink:href="../../d6/d2e/ITSMFT_2MFT_2base_2include_2MFTBase_2Geometry_8h.html" target="_top" xlink:title="MFTBase/Geometry.h">
<polygon fill="none" stroke="black" points="331.5,-56.5 331.5,-75.5 444.5,-75.5 444.5,-56.5 331.5,-56.5"/>
<text text-anchor="middle" x="388" y="-63.5" font-family="Helvetica,sans-Serif" font-size="10.00">MFTBase/Geometry.h</text>
</a>
</g>
</g>
<!-- Node1&#45;&gt;Node20 -->
<g id="edge25" class="edge"><title>Node1&#45;&gt;Node20</title>
<path fill="none" stroke="midnightblue" d="M626.39,-239.762C531.047,-222.622 357.289,-184.734 327,-132 315.265,-111.569 339.064,-92.4489 360.281,-80.3073"/>
<polygon fill="midnightblue" stroke="midnightblue" points="361.966,-83.3754 369.105,-75.5475 358.643,-77.2145 361.966,-83.3754"/>
</g>
<!-- Node21 -->
<g id="node21" class="node"><title>Node21</title>
<g id="a_node21"><a xlink:href="../../d3/dba/SegmentationAlpide_8h.html" target="_top" xlink:title="Definition of the SegmentationAlpide class. ">
<polygon fill="none" stroke="black" points="1365.5,-168.5 1365.5,-187.5 1538.5,-187.5 1538.5,-168.5 1365.5,-168.5"/>
<text text-anchor="middle" x="1452" y="-175.5" font-family="Helvetica,sans-Serif" font-size="10.00">ITSMFTBase/SegmentationAlpide.h</text>
</a>
</g>
</g>
<!-- Node1&#45;&gt;Node21 -->
<g id="edge27" class="edge"><title>Node1&#45;&gt;Node21</title>
<path fill="none" stroke="midnightblue" d="M751.533,-244.204C867.92,-233.413 1125.97,-209.469 1355.19,-188.075"/>
<polygon fill="midnightblue" stroke="midnightblue" points="1355.76,-191.537 1365.39,-187.123 1355.11,-184.567 1355.76,-191.537"/>
</g>
<!-- Node13 -->
<g id="node13" class="node"><title>Node13</title>
<polygon fill="none" stroke="#bfbfbf" points="336.5,-112.5 336.5,-131.5 421.5,-131.5 421.5,-112.5 336.5,-112.5"/>
<text text-anchor="middle" x="379" y="-119.5" font-family="Helvetica,sans-Serif" font-size="10.00">TClonesArray.h</text>
</g>
<!-- Node12&#45;&gt;Node13 -->
<g id="edge12" class="edge"><title>Node12&#45;&gt;Node13</title>
<path fill="none" stroke="midnightblue" d="M490.926,-168.444C468.94,-159.517 434.266,-145.439 409.336,-135.317"/>
<polygon fill="midnightblue" stroke="midnightblue" points="410.558,-132.035 399.976,-131.516 407.924,-138.521 410.558,-132.035"/>
</g>
<!-- Node14 -->
<g id="node14" class="node"><title>Node14</title>
<polygon fill="none" stroke="#bfbfbf" points="439.5,-112.5 439.5,-131.5 520.5,-131.5 520.5,-112.5 439.5,-112.5"/>
<text text-anchor="middle" x="480" y="-119.5" font-family="Helvetica,sans-Serif" font-size="10.00">TXMLEngine.h</text>
</g>
<!-- Node12&#45;&gt;Node14 -->
<g id="edge13" class="edge"><title>Node12&#45;&gt;Node14</title>
<path fill="none" stroke="midnightblue" d="M506.716,-168.083C502.289,-160.613 495.837,-149.724 490.382,-140.52"/>
<polygon fill="midnightblue" stroke="midnightblue" points="493.295,-138.57 485.186,-131.751 487.273,-142.138 493.295,-138.57"/>
</g>
<!-- Node15 -->
<g id="node15" class="node"><title>Node15</title>
<g id="a_node15"><a xlink:href="../../d3/de7/VSegmentation_8h.html" target="_top" xlink:title="Abstract base class for MFT Segmentation description. ">
<polygon fill="none" stroke="black" points="532.5,-56.5 532.5,-75.5 669.5,-75.5 669.5,-56.5 532.5,-56.5"/>
<text text-anchor="middle" x="601" y="-63.5" font-family="Helvetica,sans-Serif" font-size="10.00">MFTBase/VSegmentation.h</text>
</a>
</g>
</g>
<!-- Node12&#45;&gt;Node15 -->
<g id="edge14" class="edge"><title>Node12&#45;&gt;Node15</title>
<path fill="none" stroke="midnightblue" d="M518.984,-168.368C533.736,-150.135 568.292,-107.426 587.508,-83.6752"/>
<polygon fill="midnightblue" stroke="midnightblue" points="590.48,-85.567 594.049,-75.5914 585.038,-81.164 590.48,-85.567"/>
</g>
<!-- Node12&#45;&gt;Node17 -->
<g id="edge17" class="edge"><title>Node12&#45;&gt;Node17</title>
<path fill="none" stroke="midnightblue" d="M534.342,-168.444C557.753,-159.478 594.736,-145.314 621.19,-135.183"/>
<polygon fill="midnightblue" stroke="midnightblue" points="622.676,-138.361 630.763,-131.516 620.172,-131.824 622.676,-138.361"/>
</g>
<!-- Node15&#45;&gt;Node5 -->
<g id="edge16" class="edge"><title>Node15&#45;&gt;Node5</title>
<path fill="none" stroke="midnightblue" d="M613.532,-56.324C625.586,-47.979 644.027,-35.2122 658.269,-25.3524"/>
<polygon fill="midnightblue" stroke="midnightblue" points="660.269,-28.2243 666.499,-19.6545 656.285,-22.469 660.269,-28.2243"/>
</g>
<!-- Node16 -->
<g id="node16" class="node"><title>Node16</title>
<polygon fill="none" stroke="#bfbfbf" points="297,-0.5 297,-19.5 359,-19.5 359,-0.5 297,-0.5"/>
<text text-anchor="middle" x="328" y="-7.5" font-family="Helvetica,sans-Serif" font-size="10.00">TNamed.h</text>
</g>
<!-- Node15&#45;&gt;Node16 -->
<g id="edge15" class="edge"><title>Node15&#45;&gt;Node16</title>
<path fill="none" stroke="midnightblue" d="M557.742,-56.4435C505.98,-46.2048 419.951,-29.1881 369.144,-19.1383"/>
<polygon fill="midnightblue" stroke="midnightblue" points="369.656,-15.6719 359.167,-17.1649 368.298,-22.5389 369.656,-15.6719"/>
</g>
<!-- Node17&#45;&gt;Node15 -->
<g id="edge18" class="edge"><title>Node17&#45;&gt;Node15</title>
<path fill="none" stroke="midnightblue" d="M644.413,-112.083C636.841,-104.22 625.622,-92.5688 616.486,-83.0813"/>
<polygon fill="midnightblue" stroke="midnightblue" points="618.885,-80.5266 609.427,-75.7511 613.842,-85.3821 618.885,-80.5266"/>
</g>
<!-- Node18&#45;&gt;Node16 -->
<g id="edge21" class="edge"><title>Node18&#45;&gt;Node16</title>
<path fill="none" stroke="midnightblue" d="M278.479,-56.324C287.201,-48.3414 300.343,-36.3128 310.898,-26.6529"/>
<polygon fill="midnightblue" stroke="midnightblue" points="313.334,-29.1674 318.348,-19.8339 308.608,-24.0036 313.334,-29.1674"/>
</g>
<!-- Node19&#45;&gt;Node3 -->
<g id="edge24" class="edge"><title>Node19&#45;&gt;Node3</title>
<path fill="none" stroke="midnightblue" d="M180.593,-168.324C169.891,-160.185 153.659,-147.839 140.837,-138.087"/>
<polygon fill="midnightblue" stroke="midnightblue" points="142.693,-135.102 132.615,-131.834 138.456,-140.673 142.693,-135.102"/>
</g>
<!-- Node19&#45;&gt;Node16 -->
<g id="edge23" class="edge"><title>Node19&#45;&gt;Node16</title>
<path fill="none" stroke="midnightblue" d="M191.025,-168.216C189.117,-146.506 187.239,-89.6476 215,-56 232.835,-34.3831 262.548,-23.0853 287.029,-17.2171"/>
<polygon fill="midnightblue" stroke="midnightblue" points="287.78,-20.6358 296.806,-15.088 286.29,-13.7961 287.78,-20.6358"/>
</g>
<!-- Node20&#45;&gt;Node16 -->
<g id="edge26" class="edge"><title>Node20&#45;&gt;Node16</title>
<path fill="none" stroke="midnightblue" d="M378.36,-56.324C369.49,-48.3414 356.125,-36.3128 345.392,-26.6529"/>
<polygon fill="midnightblue" stroke="midnightblue" points="347.59,-23.922 337.815,-19.8339 342.907,-29.1251 347.59,-23.922"/>
</g>
<!-- Node22 -->
<g id="node22" class="node"><title>Node22</title>
<polygon fill="none" stroke="#bfbfbf" points="1424,-112.5 1424,-131.5 1480,-131.5 1480,-112.5 1424,-112.5"/>
<text text-anchor="middle" x="1452" y="-119.5" font-family="Helvetica,sans-Serif" font-size="10.00">Rtypes.h</text>
</g>
<!-- Node21&#45;&gt;Node22 -->
<g id="edge28" class="edge"><title>Node21&#45;&gt;Node22</title>
<path fill="none" stroke="midnightblue" d="M1452,-168.083C1452,-161.006 1452,-150.861 1452,-141.986"/>
<polygon fill="midnightblue" stroke="midnightblue" points="1455.5,-141.751 1452,-131.751 1448.5,-141.751 1455.5,-141.751"/>
</g>
</g>
</svg>
        <g id="navigator" transform="translate(0 0)" fill="#404254">
                <rect fill="#f2f5e9" fill-opacity="0.5" stroke="#606060" stroke-width=".5" x="0" y="0" width="60" height="60"/>
                <use id="zoomplus" xlink:href="#zoomPlus" x="17" y="9" onmousedown="handleZoom(evt,'in')"/>
                <use id="zoomminus" xlink:href="#zoomMin" x="42" y="9" onmousedown="handleZoom(evt,'out')"/>
                <use id="reset" xlink:href="#resetDef" x="30" y="36" onmousedown="handleReset()"/>
                <g id="arrowUp" xlink:href="#dirArrow" transform="translate(30 24)" onmousedown="handlePan(0,-1)">
                  <use xlink:href="#rim" fill="#404040">
                        <set attributeName="fill" to="#808080" begin="arrowUp.mouseover" end="arrowUp.mouseout"/>
                  </use>
                  <path fill="none" stroke="white" stroke-width="1.5" d="M0,-3.0v7 M-2.5,-0.5L0,-3.0L2.5,-0.5"/>
                </g>
                <g id="arrowRight" xlink:href="#dirArrow" transform="rotate(90) translate(36 -43)" onmousedown="handlePan(1,0)">
                  <use xlink:href="#rim" fill="#404040">
                        <set attributeName="fill" to="#808080" begin="arrowRight.mouseover" end="arrowRight.mouseout"/>
                  </use>
                  <path fill="none" stroke="white" stroke-width="1.5" d="M0,-3.0v7 M-2.5,-0.5L0,-3.0L2.5,-0.5"/>
                </g>
                <g id="arrowDown" xlink:href="#dirArrow" transform="rotate(180) translate(-30 -48)" onmousedown="handlePan(0,1)">
                  <use xlink:href="#rim" fill="#404040">
                        <set attributeName="fill" to="#808080" begin="arrowDown.mouseover" end="arrowDown.mouseout"/>
                  </use>
                  <path fill="none" stroke="white" stroke-width="1.5" d="M0,-3.0v7 M-2.5,-0.5L0,-3.0L2.5,-0.5"/>
                </g>
                <g id="arrowLeft" xlink:href="#dirArrow" transform="rotate(270) translate(-36 17)" onmousedown="handlePan(-1,0)">
                  <use xlink:href="#rim" fill="#404040">
                        <set attributeName="fill" to="#808080" begin="arrowLeft.mouseover" end="arrowLeft.mouseout"/>
                  </use>
                  <path fill="none" stroke="white" stroke-width="1.5" d="M0,-3.0v7 M-2.5,-0.5L0,-3.0L2.5,-0.5"/>
                </g>
        </g>
        <svg viewBox="0 0 15 15" width="100%" height="30px" preserveAspectRatio="xMaxYMin meet">
         <g id="arrow_out" transform="scale(0.3 0.3)">
          <a xlink:href="Flex_8cxx__incl_org.svg" target="_base">
           <rect id="button" ry="5" rx="5" y="6" x="6" height="38" width="38"
                fill="#f2f5e9" fill-opacity="0.5" stroke="#606060" stroke-width="1.0"/>
           <path id="arrow"
             d="M 11.500037,31.436501 C 11.940474,20.09759 22.043105,11.32322 32.158766,21.979434 L 37.068811,17.246167 C 37.068811,17.246167 37.088388,32 37.088388,32 L 22.160133,31.978069 C 22.160133,31.978069 26.997745,27.140456 26.997745,27.140456 C 18.528582,18.264221 13.291696,25.230495 11.500037,31.436501 z"
             style="fill:#404040;"/>
          </a>
         </g>
        </svg>
</svg>
