<?xml version="1.0" encoding="UTF-8" standalone="no"?>
<!DOCTYPE svg PUBLIC "-//W3C//DTD SVG 1.1//EN"
 "http://www.w3.org/Graphics/SVG/1.1/DTD/svg11.dtd">
<!-- Generated by graphviz version 2.36.0 (20140111.2315)
 -->
<!-- Title: /home/travis/build/AliceO2Group/AliceO2/Framework/Core/include/Framework/InputRoute.h Pages: 1 -->
<svg width="2095pt" height="378pt"
 viewBox="0.00 0.00 2095.00 378.00" xmlns="http://www.w3.org/2000/svg" xmlns:xlink="http://www.w3.org/1999/xlink">
<g id="graph0" class="graph" transform="scale(1 1) rotate(0) translate(4 374)">
<title>/home/travis/build/AliceO2Group/AliceO2/Framework/Core/include/Framework/InputRoute.h</title>
<!-- Node1 -->
<g id="node1" class="node"><title>Node1</title>
<polygon fill="#bfbfbf" stroke="black" points="889,-317 889,-369 1017,-369 1017,-317 889,-317"/>
<text text-anchor="start" x="897" y="-357" font-family="Helvetica,sans-Serif" font-size="10.00">/home/travis/build</text>
<text text-anchor="start" x="897" y="-346" font-family="Helvetica,sans-Serif" font-size="10.00">/AliceO2Group/AliceO2</text>
<text text-anchor="start" x="897" y="-335" font-family="Helvetica,sans-Serif" font-size="10.00">/Framework/Core/include</text>
<text text-anchor="middle" x="953" y="-324" font-family="Helvetica,sans-Serif" font-size="10.00">/Framework/InputRoute.h</text>
</g>
<!-- Node2 -->
<g id="node2" class="node"><title>Node2</title>
<g id="a_node2"><a xlink:href="../../d2/dd9/ExpirationHandler_8h.html" target="_top" xlink:title="Framework/ExpirationHandler.h">
<polygon fill="none" stroke="black" points="601,-260.5 601,-279.5 755,-279.5 755,-260.5 601,-260.5"/>
<text text-anchor="middle" x="678" y="-267.5" font-family="Helvetica,sans-Serif" font-size="10.00">Framework/ExpirationHandler.h</text>
</a>
</g>
</g>
<!-- Node1&#45;&gt;Node2 -->
<g id="edge1" class="edge"><title>Node1&#45;&gt;Node2</title>
<path fill="none" stroke="midnightblue" d="M888.872,-325.443C837.229,-312.11 766.056,-293.735 721.036,-282.111"/>
<polygon fill="midnightblue" stroke="midnightblue" points="721.848,-278.706 711.29,-279.595 720.098,-285.484 721.848,-278.706"/>
</g>
<!-- Node4 -->
<g id="node4" class="node"><title>Node4</title>
<polygon fill="none" stroke="#bfbfbf" points="648.5,-198.5 648.5,-217.5 707.5,-217.5 707.5,-198.5 648.5,-198.5"/>
<text text-anchor="middle" x="678" y="-205.5" font-family="Helvetica,sans-Serif" font-size="10.00">functional</text>
</g>
<!-- Node1&#45;&gt;Node4 -->
<g id="edge53" class="edge"><title>Node1&#45;&gt;Node4</title>
<path fill="none" stroke="midnightblue" d="M901.275,-316.984C843.004,-288.802 750.514,-244.071 705.046,-222.08"/>
<polygon fill="midnightblue" stroke="midnightblue" points="706.355,-218.826 695.828,-217.622 703.307,-225.127 706.355,-218.826"/>
</g>
<!-- Node5 -->
<g id="node5" class="node"><title>Node5</title>
<g id="a_node5"><a xlink:href="../../d5/d3f/InputSpec_8h.html" target="_top" xlink:title="Framework/InputSpec.h">
<polygon fill="none" stroke="black" points="892.5,-260.5 892.5,-279.5 1013.5,-279.5 1013.5,-260.5 892.5,-260.5"/>
<text text-anchor="middle" x="953" y="-267.5" font-family="Helvetica,sans-Serif" font-size="10.00">Framework/InputSpec.h</text>
</a>
</g>
</g>
<!-- Node1&#45;&gt;Node5 -->
<g id="edge4" class="edge"><title>Node1&#45;&gt;Node5</title>
<path fill="none" stroke="midnightblue" d="M953,-316.768C953,-307.89 953,-298.074 953,-289.816"/>
<polygon fill="midnightblue" stroke="midnightblue" points="956.5,-289.757 953,-279.757 949.5,-289.757 956.5,-289.757"/>
</g>
<!-- Node14 -->
<g id="node14" class="node"><title>Node14</title>
<polygon fill="none" stroke="#bfbfbf" points="2046.5,-6.5 2046.5,-25.5 2087.5,-25.5 2087.5,-6.5 2046.5,-6.5"/>
<text text-anchor="middle" x="2067" y="-13.5" font-family="Helvetica,sans-Serif" font-size="10.00">string</text>
</g>
<!-- Node1&#45;&gt;Node14 -->
<g id="edge52" class="edge"><title>Node1&#45;&gt;Node14</title>
<path fill="none" stroke="midnightblue" d="M1017.24,-339.823C1161.57,-333.187 1499,-307.173 1499,-209 1499,-209 1499,-209 1499,-139 1499,-17.3208 1920.64,-70.6999 2036,-32 2037.91,-31.3582 2039.86,-30.6249 2041.8,-29.8355"/>
<polygon fill="midnightblue" stroke="midnightblue" points="2043.56,-32.8828 2051.24,-25.5829 2040.68,-26.501 2043.56,-32.8828"/>
</g>
<!-- Node37 -->
<g id="node37" class="node"><title>Node37</title>
<polygon fill="none" stroke="#bfbfbf" points="1527.5,-260.5 1527.5,-279.5 1576.5,-279.5 1576.5,-260.5 1527.5,-260.5"/>
<text text-anchor="middle" x="1552" y="-267.5" font-family="Helvetica,sans-Serif" font-size="10.00">cstddef</text>
</g>
<!-- Node1&#45;&gt;Node37 -->
<g id="edge51" class="edge"><title>Node1&#45;&gt;Node37</title>
<path fill="none" stroke="midnightblue" d="M1017.17,-337.343C1121.6,-329.215 1334.6,-310.353 1513,-280 1514.46,-279.752 1515.94,-279.484 1517.43,-279.199"/>
<polygon fill="midnightblue" stroke="midnightblue" points="1518.25,-282.605 1527.33,-277.15 1516.83,-275.751 1518.25,-282.605"/>
</g>
<!-- Node3 -->
<g id="node3" class="node"><title>Node3</title>
<polygon fill="none" stroke="#bfbfbf" points="0,-6.5 0,-25.5 46,-25.5 46,-6.5 0,-6.5"/>
<text text-anchor="middle" x="23" y="-13.5" font-family="Helvetica,sans-Serif" font-size="10.00">cstdint</text>
</g>
<!-- Node2&#45;&gt;Node3 -->
<g id="edge2" class="edge"><title>Node2&#45;&gt;Node3</title>
<path fill="none" stroke="midnightblue" d="M600.762,-263.708C456.995,-252.403 155.766,-221.413 77,-156 40.09,-125.347 28.3205,-66.2299 24.6352,-35.9245"/>
<polygon fill="midnightblue" stroke="midnightblue" points="28.1019,-35.4225 23.583,-25.8397 21.1397,-36.149 28.1019,-35.4225"/>
</g>
<!-- Node2&#45;&gt;Node4 -->
<g id="edge3" class="edge"><title>Node2&#45;&gt;Node4</title>
<path fill="none" stroke="midnightblue" d="M678,-260.403C678,-251.938 678,-238.728 678,-227.82"/>
<polygon fill="midnightblue" stroke="midnightblue" points="681.5,-227.581 678,-217.581 674.5,-227.581 681.5,-227.581"/>
</g>
<!-- Node6 -->
<g id="node6" class="node"><title>Node6</title>
<g id="a_node6"><a xlink:href="../../dc/dca/Lifetime_8h.html" target="_top" xlink:title="Framework/Lifetime.h">
<polygon fill="none" stroke="black" points="1359.5,-198.5 1359.5,-217.5 1470.5,-217.5 1470.5,-198.5 1359.5,-198.5"/>
<text text-anchor="middle" x="1415" y="-205.5" font-family="Helvetica,sans-Serif" font-size="10.00">Framework/Lifetime.h</text>
</a>
</g>
</g>
<!-- Node5&#45;&gt;Node6 -->
<g id="edge5" class="edge"><title>Node5&#45;&gt;Node6</title>
<path fill="none" stroke="midnightblue" d="M1013.69,-263.87C1090.95,-256.918 1228.39,-243.14 1345,-224 1352.67,-222.74 1360.78,-221.2 1368.65,-219.592"/>
<polygon fill="midnightblue" stroke="midnightblue" points="1369.37,-223.017 1378.43,-217.534 1367.93,-216.167 1369.37,-223.017"/>
</g>
<!-- Node7 -->
<g id="node7" class="node"><title>Node7</title>
<g id="a_node7"><a xlink:href="../../d0/d1b/ConcreteDataMatcher_8h.html" target="_top" xlink:title="Framework/ConcreteDataMatcher.h">
<polygon fill="none" stroke="black" points="620.5,-130.5 620.5,-149.5 793.5,-149.5 793.5,-130.5 620.5,-130.5"/>
<text text-anchor="middle" x="707" y="-137.5" font-family="Helvetica,sans-Serif" font-size="10.00">Framework/ConcreteDataMatcher.h</text>
</a>
</g>
</g>
<!-- Node5&#45;&gt;Node7 -->
<g id="edge6" class="edge"><title>Node5&#45;&gt;Node7</title>
<path fill="none" stroke="midnightblue" d="M897.776,-260.441C865.662,-253.807 825.287,-242.525 793,-224 762.858,-206.705 735.347,-176.516 719.926,-157.706"/>
<polygon fill="midnightblue" stroke="midnightblue" points="722.522,-155.349 713.546,-149.722 717.054,-159.719 722.522,-155.349"/>
</g>
<!-- Node5&#45;&gt;Node14 -->
<g id="edge48" class="edge"><title>Node5&#45;&gt;Node14</title>
<path fill="none" stroke="midnightblue" d="M983.343,-260.373C1043.82,-242.887 1183.35,-201.077 1297,-156 1382.76,-121.987 1395.65,-90.9601 1485,-68 1722.69,-6.92366 1798.71,-94.6046 2036,-32 2038.34,-31.3823 2040.72,-30.5846 2043.06,-29.6793"/>
<polygon fill="midnightblue" stroke="midnightblue" points="2044.61,-32.8179 2052.31,-25.538 2041.75,-26.4287 2044.61,-32.8179"/>
</g>
<!-- Node16 -->
<g id="node16" class="node"><title>Node16</title>
<g id="a_node16"><a xlink:href="../../d3/da3/DataDescriptorMatcher_8h.html" target="_top" xlink:title="Framework/DataDescriptor\lMatcher.h">
<polygon fill="none" stroke="black" points="802,-193 802,-223 936,-223 936,-193 802,-193"/>
<text text-anchor="start" x="810" y="-211" font-family="Helvetica,sans-Serif" font-size="10.00">Framework/DataDescriptor</text>
<text text-anchor="middle" x="869" y="-200" font-family="Helvetica,sans-Serif" font-size="10.00">Matcher.h</text>
</a>
</g>
</g>
<!-- Node5&#45;&gt;Node16 -->
<g id="edge16" class="edge"><title>Node5&#45;&gt;Node16</title>
<path fill="none" stroke="midnightblue" d="M940.965,-260.403C929.588,-252.277 912.091,-239.779 897.199,-229.142"/>
<polygon fill="midnightblue" stroke="midnightblue" points="898.969,-226.105 888.797,-223.141 894.9,-231.801 898.969,-226.105"/>
</g>
<!-- Node35 -->
<g id="node35" class="node"><title>Node35</title>
<polygon fill="none" stroke="#bfbfbf" points="86,-130.5 86,-149.5 132,-149.5 132,-130.5 86,-130.5"/>
<text text-anchor="middle" x="109" y="-137.5" font-family="Helvetica,sans-Serif" font-size="10.00">variant</text>
</g>
<!-- Node5&#45;&gt;Node35 -->
<g id="edge50" class="edge"><title>Node5&#45;&gt;Node35</title>
<path fill="none" stroke="midnightblue" d="M892.344,-264.097C850.388,-258.715 794.352,-247.465 750,-224 731.658,-214.296 735.039,-200.254 716,-192 599.554,-141.515 269.745,-184.207 146,-156 142.756,-155.261 139.428,-154.271 136.161,-153.151"/>
<polygon fill="midnightblue" stroke="midnightblue" points="137.28,-149.832 126.69,-149.521 134.775,-156.368 137.28,-149.832"/>
</g>
<!-- Node36 -->
<g id="node36" class="node"><title>Node36</title>
<polygon fill="none" stroke="#bfbfbf" points="954,-198.5 954,-217.5 1006,-217.5 1006,-198.5 954,-198.5"/>
<text text-anchor="middle" x="980" y="-205.5" font-family="Helvetica,sans-Serif" font-size="10.00">ostream</text>
</g>
<!-- Node5&#45;&gt;Node36 -->
<g id="edge49" class="edge"><title>Node5&#45;&gt;Node36</title>
<path fill="none" stroke="midnightblue" d="M956.868,-260.403C960.798,-251.671 967,-237.889 971.993,-226.794"/>
<polygon fill="midnightblue" stroke="midnightblue" points="975.227,-228.136 976.139,-217.581 968.843,-225.264 975.227,-228.136"/>
</g>
<!-- Node8 -->
<g id="node8" class="node"><title>Node8</title>
<g id="a_node8"><a xlink:href="../../dc/dcd/DataHeader_8h.html" target="_top" xlink:title="Headers/DataHeader.h">
<polygon fill="none" stroke="black" points="363.5,-68.5 363.5,-87.5 480.5,-87.5 480.5,-68.5 363.5,-68.5"/>
<text text-anchor="middle" x="422" y="-75.5" font-family="Helvetica,sans-Serif" font-size="10.00">Headers/DataHeader.h</text>
</a>
</g>
</g>
<!-- Node7&#45;&gt;Node8 -->
<g id="edge7" class="edge"><title>Node7&#45;&gt;Node8</title>
<path fill="none" stroke="midnightblue" d="M666.469,-130.467C615.399,-119.716 527.635,-101.239 472.325,-89.5947"/>
<polygon fill="midnightblue" stroke="midnightblue" points="472.898,-86.1386 462.391,-87.5034 471.456,-92.9885 472.898,-86.1386"/>
</g>
<!-- Node8&#45;&gt;Node3 -->
<g id="edge8" class="edge"><title>Node8&#45;&gt;Node3</title>
<path fill="none" stroke="midnightblue" d="M363.4,-69.1997C360.221,-68.7904 357.072,-68.3882 354,-68 221.208,-51.2187 183.67,-68.8715 55,-32 52.661,-31.3297 50.2787,-30.5072 47.9228,-29.5956"/>
<polygon fill="midnightblue" stroke="midnightblue" points="49.1294,-26.3034 38.5643,-25.5093 46.3282,-32.7185 49.1294,-26.3034"/>
</g>
<!-- Node9 -->
<g id="node9" class="node"><title>Node9</title>
<polygon fill="none" stroke="#bfbfbf" points="64,-6.5 64,-25.5 116,-25.5 116,-6.5 64,-6.5"/>
<text text-anchor="middle" x="90" y="-13.5" font-family="Helvetica,sans-Serif" font-size="10.00">memory</text>
</g>
<!-- Node8&#45;&gt;Node9 -->
<g id="edge9" class="edge"><title>Node8&#45;&gt;Node9</title>
<path fill="none" stroke="midnightblue" d="M363.312,-68.925C283.326,-57.7943 147.413,-38.3874 125,-32 122.35,-31.2447 119.634,-30.3376 116.945,-29.3482"/>
<polygon fill="midnightblue" stroke="midnightblue" points="118.07,-26.0276 107.487,-25.5283 115.448,-32.5183 118.07,-26.0276"/>
</g>
<!-- Node10 -->
<g id="node10" class="node"><title>Node10</title>
<polygon fill="none" stroke="#bfbfbf" points="134.5,-6.5 134.5,-25.5 183.5,-25.5 183.5,-6.5 134.5,-6.5"/>
<text text-anchor="middle" x="159" y="-13.5" font-family="Helvetica,sans-Serif" font-size="10.00">cassert</text>
</g>
<!-- Node8&#45;&gt;Node10 -->
<g id="edge10" class="edge"><title>Node8&#45;&gt;Node10</title>
<path fill="none" stroke="midnightblue" d="M363.229,-69.1201C316.434,-61.974 249.622,-49.8113 193,-32 190.577,-31.2377 188.095,-30.3551 185.629,-29.4071"/>
<polygon fill="midnightblue" stroke="midnightblue" points="186.938,-26.1609 176.361,-25.5439 184.245,-32.6221 186.938,-26.1609"/>
</g>
<!-- Node11 -->
<g id="node11" class="node"><title>Node11</title>
<polygon fill="none" stroke="#bfbfbf" points="509,-6.5 509,-25.5 555,-25.5 555,-6.5 509,-6.5"/>
<text text-anchor="middle" x="532" y="-13.5" font-family="Helvetica,sans-Serif" font-size="10.00">cstring</text>
</g>
<!-- Node8&#45;&gt;Node11 -->
<g id="edge11" class="edge"><title>Node8&#45;&gt;Node11</title>
<path fill="none" stroke="midnightblue" d="M437.76,-68.4035C455.976,-58.4678 486.173,-41.9966 507.468,-30.3812"/>
<polygon fill="midnightblue" stroke="midnightblue" points="509.166,-33.4418 516.269,-25.5806 505.814,-27.2965 509.166,-33.4418"/>
</g>
<!-- Node12 -->
<g id="node12" class="node"><title>Node12</title>
<polygon fill="none" stroke="#bfbfbf" points="202,-6.5 202,-25.5 258,-25.5 258,-6.5 202,-6.5"/>
<text text-anchor="middle" x="230" y="-13.5" font-family="Helvetica,sans-Serif" font-size="10.00">algorithm</text>
</g>
<!-- Node8&#45;&gt;Node12 -->
<g id="edge12" class="edge"><title>Node8&#45;&gt;Node12</title>
<path fill="none" stroke="midnightblue" d="M389.035,-68.4834C357.445,-60.0749 308.564,-46.4159 267,-32 264.593,-31.1653 262.115,-30.2611 259.636,-29.3246"/>
<polygon fill="midnightblue" stroke="midnightblue" points="260.801,-26.0223 250.214,-25.6311 258.246,-32.5394 260.801,-26.0223"/>
</g>
<!-- Node13 -->
<g id="node13" class="node"><title>Node13</title>
<polygon fill="none" stroke="#bfbfbf" points="276.5,-6.5 276.5,-25.5 335.5,-25.5 335.5,-6.5 276.5,-6.5"/>
<text text-anchor="middle" x="306" y="-13.5" font-family="Helvetica,sans-Serif" font-size="10.00">stdexcept</text>
</g>
<!-- Node8&#45;&gt;Node13 -->
<g id="edge13" class="edge"><title>Node8&#45;&gt;Node13</title>
<path fill="none" stroke="midnightblue" d="M405.38,-68.4035C386.085,-58.4232 354.041,-41.8487 331.569,-30.2253"/>
<polygon fill="midnightblue" stroke="midnightblue" points="333.079,-27.0661 322.589,-25.5806 329.863,-33.2836 333.079,-27.0661"/>
</g>
<!-- Node8&#45;&gt;Node14 -->
<g id="edge14" class="edge"><title>Node8&#45;&gt;Node14</title>
<path fill="none" stroke="midnightblue" d="M480.596,-76.0564C761.411,-71.4468 1959.11,-50.7569 2036,-32 2038.49,-31.3925 2041.02,-30.5677 2043.5,-29.6155"/>
<polygon fill="midnightblue" stroke="midnightblue" points="2044.97,-32.7914 2052.66,-25.5016 2042.1,-26.4058 2044.97,-32.7914"/>
</g>
<!-- Node15 -->
<g id="node15" class="node"><title>Node15</title>
<g id="a_node15"><a xlink:href="../../d7/df8/Types_8h.html" target="_top" xlink:title="MemoryResources/Types.h">
<polygon fill="none" stroke="black" points="353.5,-6.5 353.5,-25.5 490.5,-25.5 490.5,-6.5 353.5,-6.5"/>
<text text-anchor="middle" x="422" y="-13.5" font-family="Helvetica,sans-Serif" font-size="10.00">MemoryResources/Types.h</text>
</a>
</g>
</g>
<!-- Node8&#45;&gt;Node15 -->
<g id="edge15" class="edge"><title>Node8&#45;&gt;Node15</title>
<path fill="none" stroke="midnightblue" d="M422,-68.4035C422,-59.9381 422,-46.7283 422,-35.8199"/>
<polygon fill="midnightblue" stroke="midnightblue" points="425.5,-35.5806 422,-25.5806 418.5,-35.5806 425.5,-35.5806"/>
</g>
<!-- Node16&#45;&gt;Node3 -->
<g id="edge43" class="edge"><title>Node16&#45;&gt;Node3</title>
<path fill="none" stroke="midnightblue" d="M801.951,-198.096C784.113,-195.908 764.844,-193.706 747,-192 630.37,-180.847 331.447,-195.095 221,-156 144.312,-128.855 70.3236,-63.215 38.8499,-32.8705"/>
<polygon fill="midnightblue" stroke="midnightblue" points="41.053,-30.1293 31.4592,-25.6338 36.1557,-35.1309 41.053,-30.1293"/>
</g>
<!-- Node16&#45;&gt;Node7 -->
<g id="edge17" class="edge"><title>Node16&#45;&gt;Node7</title>
<path fill="none" stroke="midnightblue" d="M834.247,-192.841C805.597,-181.169 765.34,-164.768 737.825,-153.558"/>
<polygon fill="midnightblue" stroke="midnightblue" points="738.892,-150.214 728.31,-149.682 736.25,-156.696 738.892,-150.214"/>
</g>
<!-- Node16&#45;&gt;Node8 -->
<g id="edge24" class="edge"><title>Node16&#45;&gt;Node8</title>
<path fill="none" stroke="midnightblue" d="M861.993,-192.695C851.736,-173.461 830.69,-139.852 802,-124 750.034,-95.2882 585.393,-84.7329 490.746,-80.9768"/>
<polygon fill="midnightblue" stroke="midnightblue" points="490.814,-77.4769 480.688,-80.5927 490.547,-84.4718 490.814,-77.4769"/>
</g>
<!-- Node16&#45;&gt;Node14 -->
<g id="edge45" class="edge"><title>Node16&#45;&gt;Node14</title>
<path fill="none" stroke="midnightblue" d="M936.082,-193.437C939.092,-192.93 942.075,-192.448 945,-192 1017.48,-180.891 1212.82,-197.9 1273,-156 1308.89,-131.013 1280.39,-91.9121 1317,-68 1383.97,-24.2586 1958.5,-51.8163 2036,-32 2038.35,-31.4001 2040.73,-30.6146 2043.07,-29.7172"/>
<polygon fill="midnightblue" stroke="midnightblue" points="2044.62,-32.8585 2052.33,-25.5876 2041.77,-26.4659 2044.62,-32.8585"/>
</g>
<!-- Node17 -->
<g id="node17" class="node"><title>Node17</title>
<g id="a_node17"><a xlink:href="../../d6/dc9/DataProcessingHeader_8h.html" target="_top" xlink:title="Framework/DataProcessing\lHeader.h">
<polygon fill="none" stroke="black" points="230,-125 230,-155 368,-155 368,-125 230,-125"/>
<text text-anchor="start" x="238" y="-143" font-family="Helvetica,sans-Serif" font-size="10.00">Framework/DataProcessing</text>
<text text-anchor="middle" x="299" y="-132" font-family="Helvetica,sans-Serif" font-size="10.00">Header.h</text>
</a>
</g>
</g>
<!-- Node16&#45;&gt;Node17 -->
<g id="edge18" class="edge"><title>Node16&#45;&gt;Node17</title>
<path fill="none" stroke="midnightblue" d="M801.992,-198.401C785.033,-196.267 766.851,-194.015 750,-192 619.855,-176.44 468.428,-159.569 378.322,-149.66"/>
<polygon fill="midnightblue" stroke="midnightblue" points="378.505,-146.159 368.182,-148.545 377.74,-153.117 378.505,-146.159"/>
</g>
<!-- Node19 -->
<g id="node19" class="node"><title>Node19</title>
<g id="a_node19"><a xlink:href="../../d4/d00/Headers_2include_2Headers_2Stack_8h.html" target="_top" xlink:title="Headers/Stack.h">
<polygon fill="none" stroke="black" points="906,-130.5 906,-149.5 996,-149.5 996,-130.5 906,-130.5"/>
<text text-anchor="middle" x="951" y="-137.5" font-family="Helvetica,sans-Serif" font-size="10.00">Headers/Stack.h</text>
</a>
</g>
</g>
<!-- Node16&#45;&gt;Node19 -->
<g id="edge25" class="edge"><title>Node16&#45;&gt;Node19</title>
<path fill="none" stroke="midnightblue" d="M886.793,-192.679C900.211,-181.879 918.575,-167.098 932.227,-156.11"/>
<polygon fill="midnightblue" stroke="midnightblue" points="934.436,-158.825 940.032,-149.828 930.047,-153.372 934.436,-158.825"/>
</g>
<!-- Node27 -->
<g id="node27" class="node"><title>Node27</title>
<polygon fill="none" stroke="#bfbfbf" points="1984,-6.5 1984,-25.5 2028,-25.5 2028,-6.5 1984,-6.5"/>
<text text-anchor="middle" x="2006" y="-13.5" font-family="Helvetica,sans-Serif" font-size="10.00">vector</text>
</g>
<!-- Node16&#45;&gt;Node27 -->
<g id="edge47" class="edge"><title>Node16&#45;&gt;Node27</title>
<path fill="none" stroke="midnightblue" d="M906.08,-192.961C992.273,-160.569 1204.44,-82.2822 1279,-68 1583.22,-9.72334 1674.97,-108.984 1975,-32 1977.35,-31.3982 1979.72,-30.6114 1982.07,-29.7131"/>
<polygon fill="midnightblue" stroke="midnightblue" points="1983.62,-32.8541 1991.32,-25.5822 1980.77,-26.4618 1983.62,-32.8541"/>
</g>
<!-- Node33 -->
<g id="node33" class="node"><title>Node33</title>
<polygon fill="none" stroke="#bfbfbf" points="850,-130.5 850,-149.5 888,-149.5 888,-130.5 850,-130.5"/>
<text text-anchor="middle" x="869" y="-137.5" font-family="Helvetica,sans-Serif" font-size="10.00">array</text>
</g>
<!-- Node16&#45;&gt;Node33 -->
<g id="edge42" class="edge"><title>Node16&#45;&gt;Node33</title>
<path fill="none" stroke="midnightblue" d="M869,-192.679C869,-183.101 869,-170.394 869,-159.977"/>
<polygon fill="midnightblue" stroke="midnightblue" points="872.5,-159.828 869,-149.828 865.5,-159.828 872.5,-159.828"/>
</g>
<!-- Node34 -->
<g id="node34" class="node"><title>Node34</title>
<polygon fill="none" stroke="#bfbfbf" points="1219.5,-130.5 1219.5,-149.5 1264.5,-149.5 1264.5,-130.5 1219.5,-130.5"/>
<text text-anchor="middle" x="1242" y="-137.5" font-family="Helvetica,sans-Serif" font-size="10.00">iosfwd</text>
</g>
<!-- Node16&#45;&gt;Node34 -->
<g id="edge44" class="edge"><title>Node16&#45;&gt;Node34</title>
<path fill="none" stroke="midnightblue" d="M936.099,-193.54C939.104,-193.006 942.082,-192.49 945,-192 1060.05,-172.698 1092.3,-186.145 1205,-156 1207.98,-155.202 1211.05,-154.227 1214.08,-153.161"/>
<polygon fill="midnightblue" stroke="midnightblue" points="1215.4,-156.402 1223.49,-149.552 1212.9,-149.867 1215.4,-156.402"/>
</g>
<!-- Node16&#45;&gt;Node35 -->
<g id="edge46" class="edge"><title>Node16&#45;&gt;Node35</title>
<path fill="none" stroke="midnightblue" d="M801.746,-197.738C784.875,-195.631 766.795,-193.557 750,-192 482.228,-167.171 408.301,-215.302 146,-156 142.755,-155.266 139.426,-154.28 136.158,-153.163"/>
<polygon fill="midnightblue" stroke="midnightblue" points="137.277,-149.843 126.687,-149.534 134.773,-156.38 137.277,-149.843"/>
</g>
<!-- Node17&#45;&gt;Node3 -->
<g id="edge20" class="edge"><title>Node17&#45;&gt;Node3</title>
<path fill="none" stroke="midnightblue" d="M274.942,-124.951C241.607,-105.545 184.293,-72.4146 174,-68 123.218,-46.2198 106.595,-51.7779 55,-32 53.1524,-31.2917 51.2624,-30.5239 49.3701,-29.7227"/>
<polygon fill="midnightblue" stroke="midnightblue" points="50.6314,-26.4527 40.0742,-25.5603 47.7707,-32.8414 50.6314,-26.4527"/>
</g>
<!-- Node17&#45;&gt;Node8 -->
<g id="edge19" class="edge"><title>Node17&#45;&gt;Node8</title>
<path fill="none" stroke="midnightblue" d="M327.838,-124.933C348.219,-114.991 375.342,-101.76 395.242,-92.0526"/>
<polygon fill="midnightblue" stroke="midnightblue" points="396.917,-95.13 404.37,-87.6 393.848,-88.8386 396.917,-95.13"/>
</g>
<!-- Node17&#45;&gt;Node9 -->
<g id="edge22" class="edge"><title>Node17&#45;&gt;Node9</title>
<path fill="none" stroke="midnightblue" d="M284.604,-124.997C268.117,-109.522 239.784,-84.5946 212,-68 176.074,-46.5425 163.565,-48.2423 125,-32 123.172,-31.2302 121.292,-30.4348 119.397,-29.6305"/>
<polygon fill="midnightblue" stroke="midnightblue" points="120.542,-26.3139 109.971,-25.6102 117.796,-32.7528 120.542,-26.3139"/>
</g>
<!-- Node17&#45;&gt;Node10 -->
<g id="edge23" class="edge"><title>Node17&#45;&gt;Node10</title>
<path fill="none" stroke="midnightblue" d="M291.753,-124.772C283.344,-109.325 268.269,-84.6405 250,-68 239.644,-58.5677 208.578,-41.9134 185.611,-30.2087"/>
<polygon fill="midnightblue" stroke="midnightblue" points="187.158,-27.0692 176.654,-25.6845 184.002,-33.3174 187.158,-27.0692"/>
</g>
<!-- Node18 -->
<g id="node18" class="node"><title>Node18</title>
<polygon fill="none" stroke="#bfbfbf" points="302.5,-68.5 302.5,-87.5 345.5,-87.5 345.5,-68.5 302.5,-68.5"/>
<text text-anchor="middle" x="324" y="-75.5" font-family="Helvetica,sans-Serif" font-size="10.00">cstdio</text>
</g>
<!-- Node17&#45;&gt;Node18 -->
<g id="edge21" class="edge"><title>Node17&#45;&gt;Node18</title>
<path fill="none" stroke="midnightblue" d="M304.925,-124.781C308.37,-116.512 312.748,-106.006 316.44,-97.1448"/>
<polygon fill="midnightblue" stroke="midnightblue" points="319.747,-98.3075 320.362,-87.7305 313.285,-95.6151 319.747,-98.3075"/>
</g>
<!-- Node19&#45;&gt;Node8 -->
<g id="edge41" class="edge"><title>Node19&#45;&gt;Node8</title>
<path fill="none" stroke="midnightblue" d="M923.747,-130.422C915.252,-128.021 905.803,-125.626 897,-124 753.911,-97.5626 583.537,-86.2188 490.698,-81.7027"/>
<polygon fill="midnightblue" stroke="midnightblue" points="490.745,-78.201 480.59,-81.2231 490.413,-85.1932 490.745,-78.201"/>
</g>
<!-- Node20 -->
<g id="node20" class="node"><title>Node20</title>
<g id="a_node20"><a xlink:href="../../dc/d03/MemoryResources_8h.html" target="_top" xlink:title="MemoryResources/MemoryResources.h">
<polygon fill="none" stroke="black" points="1001.5,-68.5 1001.5,-87.5 1194.5,-87.5 1194.5,-68.5 1001.5,-68.5"/>
<text text-anchor="middle" x="1098" y="-75.5" font-family="Helvetica,sans-Serif" font-size="10.00">MemoryResources/MemoryResources.h</text>
</a>
</g>
</g>
<!-- Node19&#45;&gt;Node20 -->
<g id="edge26" class="edge"><title>Node19&#45;&gt;Node20</title>
<path fill="none" stroke="midnightblue" d="M972.062,-130.403C997.059,-120.2 1038.94,-103.105 1067.49,-91.4544"/>
<polygon fill="midnightblue" stroke="midnightblue" points="1069.04,-94.6001 1076.98,-87.5806 1066.4,-88.1192 1069.04,-94.6001"/>
</g>
<!-- Node20&#45;&gt;Node11 -->
<g id="edge31" class="edge"><title>Node20&#45;&gt;Node11</title>
<path fill="none" stroke="midnightblue" d="M1001.49,-72.9553C870.595,-66.7673 643.938,-53.3683 564,-32 561.649,-31.3717 559.259,-30.578 556.898,-29.6854"/>
<polygon fill="midnightblue" stroke="midnightblue" points="558.099,-26.3913 547.531,-25.6287 555.317,-32.8148 558.099,-26.3913"/>
</g>
<!-- Node20&#45;&gt;Node14 -->
<g id="edge32" class="edge"><title>Node20&#45;&gt;Node14</title>
<path fill="none" stroke="midnightblue" d="M1194.75,-72.1505C1222,-70.7952 1251.66,-69.3298 1279,-68 1447.21,-59.8181 1872.79,-73.5175 2036,-32 2038.35,-31.4031 2040.73,-30.6196 2043.07,-29.7235"/>
<polygon fill="midnightblue" stroke="midnightblue" points="2044.62,-32.8651 2052.33,-25.5957 2041.77,-26.472 2044.62,-32.8651"/>
</g>
<!-- Node21 -->
<g id="node21" class="node"><title>Node21</title>
<polygon fill="none" stroke="#bfbfbf" points="1866,-1 1866,-31 1966,-31 1966,-1 1866,-1"/>
<text text-anchor="start" x="1874" y="-19" font-family="Helvetica,sans-Serif" font-size="10.00">boost/container/flat</text>
<text text-anchor="middle" x="1916" y="-8" font-family="Helvetica,sans-Serif" font-size="10.00">_map.hpp</text>
</g>
<!-- Node20&#45;&gt;Node21 -->
<g id="edge27" class="edge"><title>Node20&#45;&gt;Node21</title>
<path fill="none" stroke="midnightblue" d="M1194.55,-69.0235C1199.44,-68.6663 1204.27,-68.3228 1209,-68 1493.4,-48.5733 1570.1,-75.105 1855.68,-31.9961"/>
<polygon fill="midnightblue" stroke="midnightblue" points="1856.57,-35.401 1865.92,-30.433 1855.51,-28.481 1856.57,-35.401"/>
</g>
<!-- Node22 -->
<g id="node22" class="node"><title>Node22</title>
<polygon fill="none" stroke="#bfbfbf" points="573,-1 573,-31 689,-31 689,-1 573,-1"/>
<text text-anchor="start" x="581" y="-19" font-family="Helvetica,sans-Serif" font-size="10.00">boost/container/pmr</text>
<text text-anchor="middle" x="631" y="-8" font-family="Helvetica,sans-Serif" font-size="10.00">/memory_resource.hpp</text>
</g>
<!-- Node20&#45;&gt;Node22 -->
<g id="edge28" class="edge"><title>Node20&#45;&gt;Node22</title>
<path fill="none" stroke="midnightblue" d="M1001.41,-69.0862C922.604,-61.9451 808.213,-50.0263 699.22,-32.0923"/>
<polygon fill="midnightblue" stroke="midnightblue" points="699.468,-28.5855 689.029,-30.395 698.318,-35.4904 699.468,-28.5855"/>
</g>
<!-- Node23 -->
<g id="node23" class="node"><title>Node23</title>
<polygon fill="none" stroke="#bfbfbf" points="707,-1 707,-31 863,-31 863,-1 707,-1"/>
<text text-anchor="start" x="715" y="-19" font-family="Helvetica,sans-Serif" font-size="10.00">boost/container/pmr</text>
<text text-anchor="middle" x="785" y="-8" font-family="Helvetica,sans-Serif" font-size="10.00">/monotonic_buffer_resource.hpp</text>
</g>
<!-- Node20&#45;&gt;Node23 -->
<g id="edge29" class="edge"><title>Node20&#45;&gt;Node23</title>
<path fill="none" stroke="midnightblue" d="M1053.49,-68.4672C1005.46,-59.2614 927.896,-44.3921 868.453,-32.9975"/>
<polygon fill="midnightblue" stroke="midnightblue" points="868.808,-29.5018 858.328,-31.0565 867.49,-36.3767 868.808,-29.5018"/>
</g>
<!-- Node24 -->
<g id="node24" class="node"><title>Node24</title>
<polygon fill="none" stroke="#bfbfbf" points="881.5,-1 881.5,-31 1014.5,-31 1014.5,-1 881.5,-1"/>
<text text-anchor="start" x="889.5" y="-19" font-family="Helvetica,sans-Serif" font-size="10.00">boost/container/pmr</text>
<text text-anchor="middle" x="948" y="-8" font-family="Helvetica,sans-Serif" font-size="10.00">/polymorphic_allocator.hpp</text>
</g>
<!-- Node20&#45;&gt;Node24 -->
<g id="edge30" class="edge"><title>Node20&#45;&gt;Node24</title>
<path fill="none" stroke="midnightblue" d="M1076.51,-68.4035C1054.7,-59.6787 1020.29,-45.9145 992.56,-34.824"/>
<polygon fill="midnightblue" stroke="midnightblue" points="993.648,-31.4896 983.063,-31.0253 991.048,-37.989 993.648,-31.4896"/>
</g>
<!-- Node25 -->
<g id="node25" class="node"><title>Node25</title>
<polygon fill="none" stroke="#bfbfbf" points="1033,-6.5 1033,-25.5 1095,-25.5 1095,-6.5 1033,-6.5"/>
<text text-anchor="middle" x="1064" y="-13.5" font-family="Helvetica,sans-Serif" font-size="10.00">type_traits</text>
</g>
<!-- Node20&#45;&gt;Node25 -->
<g id="edge33" class="edge"><title>Node20&#45;&gt;Node25</title>
<path fill="none" stroke="midnightblue" d="M1093.13,-68.4035C1088.13,-59.5816 1080.21,-45.6075 1073.89,-34.4548"/>
<polygon fill="midnightblue" stroke="midnightblue" points="1076.84,-32.5553 1068.86,-25.5806 1070.75,-36.0064 1076.84,-32.5553"/>
</g>
<!-- Node26 -->
<g id="node26" class="node"><title>Node26</title>
<polygon fill="none" stroke="#bfbfbf" points="1113,-6.5 1113,-25.5 1153,-25.5 1153,-6.5 1113,-6.5"/>
<text text-anchor="middle" x="1133" y="-13.5" font-family="Helvetica,sans-Serif" font-size="10.00">utility</text>
</g>
<!-- Node20&#45;&gt;Node26 -->
<g id="edge34" class="edge"><title>Node20&#45;&gt;Node26</title>
<path fill="none" stroke="midnightblue" d="M1103.01,-68.4035C1108.16,-59.5816 1116.31,-45.6075 1122.82,-34.4548"/>
<polygon fill="midnightblue" stroke="midnightblue" points="1125.98,-35.982 1127.99,-25.5806 1119.93,-32.4548 1125.98,-35.982"/>
</g>
<!-- Node20&#45;&gt;Node27 -->
<g id="edge35" class="edge"><title>Node20&#45;&gt;Node27</title>
<path fill="none" stroke="midnightblue" d="M1194.55,-68.974C1199.43,-68.6298 1204.27,-68.3026 1209,-68 1379.06,-57.1125 1809.84,-73.964 1975,-32 1977.35,-31.4037 1979.73,-30.6207 1982.07,-29.7249"/>
<polygon fill="midnightblue" stroke="midnightblue" points="1983.62,-32.8666 1991.33,-25.5976 1980.77,-26.4734 1983.62,-32.8666"/>
</g>
<!-- Node28 -->
<g id="node28" class="node"><title>Node28</title>
<polygon fill="none" stroke="#bfbfbf" points="1171.5,-6.5 1171.5,-25.5 1254.5,-25.5 1254.5,-6.5 1171.5,-6.5"/>
<text text-anchor="middle" x="1213" y="-13.5" font-family="Helvetica,sans-Serif" font-size="10.00">unordered_map</text>
</g>
<!-- Node20&#45;&gt;Node28 -->
<g id="edge36" class="edge"><title>Node20&#45;&gt;Node28</title>
<path fill="none" stroke="midnightblue" d="M1114.48,-68.4035C1133.61,-58.4232 1165.37,-41.8487 1187.65,-30.2253"/>
<polygon fill="midnightblue" stroke="midnightblue" points="1189.31,-33.3094 1196.55,-25.5806 1186.07,-27.1033 1189.31,-33.3094"/>
</g>
<!-- Node29 -->
<g id="node29" class="node"><title>Node29</title>
<polygon fill="none" stroke="#bfbfbf" points="1272.5,-6.5 1272.5,-25.5 1369.5,-25.5 1369.5,-6.5 1272.5,-6.5"/>
<text text-anchor="middle" x="1321" y="-13.5" font-family="Helvetica,sans-Serif" font-size="10.00">FairMQMessage.h</text>
</g>
<!-- Node20&#45;&gt;Node29 -->
<g id="edge37" class="edge"><title>Node20&#45;&gt;Node29</title>
<path fill="none" stroke="midnightblue" d="M1129.95,-68.4035C1169.28,-57.8217 1236.16,-39.8269 1279.45,-28.1802"/>
<polygon fill="midnightblue" stroke="midnightblue" points="1280.36,-31.5586 1289.11,-25.5806 1278.54,-24.799 1280.36,-31.5586"/>
</g>
<!-- Node30 -->
<g id="node30" class="node"><title>Node30</title>
<polygon fill="none" stroke="#bfbfbf" points="1387.5,-6.5 1387.5,-25.5 1518.5,-25.5 1518.5,-6.5 1387.5,-6.5"/>
<text text-anchor="middle" x="1453" y="-13.5" font-family="Helvetica,sans-Serif" font-size="10.00">FairMQTransportFactory.h</text>
</g>
<!-- Node20&#45;&gt;Node30 -->
<g id="edge38" class="edge"><title>Node20&#45;&gt;Node30</title>
<path fill="none" stroke="midnightblue" d="M1154.95,-68.4965C1211.6,-59.8849 1300.96,-45.8898 1378,-32 1385.72,-30.6085 1393.87,-29.0606 1401.84,-27.5026"/>
<polygon fill="midnightblue" stroke="midnightblue" points="1402.66,-30.9078 1411.79,-25.5347 1401.3,-24.0407 1402.66,-30.9078"/>
</g>
<!-- Node31 -->
<g id="node31" class="node"><title>Node31</title>
<polygon fill="none" stroke="#bfbfbf" points="1536.5,-6.5 1536.5,-25.5 1673.5,-25.5 1673.5,-6.5 1536.5,-6.5"/>
<text text-anchor="middle" x="1605" y="-13.5" font-family="Helvetica,sans-Serif" font-size="10.00">fairmq/MemoryResources.h</text>
</g>
<!-- Node20&#45;&gt;Node31 -->
<g id="edge39" class="edge"><title>Node20&#45;&gt;Node31</title>
<path fill="none" stroke="midnightblue" d="M1194.56,-69.2461C1281.71,-61.6847 1413.29,-48.8658 1527,-32 1535.82,-30.6917 1545.16,-29.0873 1554.2,-27.4198"/>
<polygon fill="midnightblue" stroke="midnightblue" points="1555.05,-30.8206 1564.23,-25.5228 1553.75,-23.9426 1555.05,-30.8206"/>
</g>
<!-- Node32 -->
<g id="node32" class="node"><title>Node32</title>
<polygon fill="none" stroke="#bfbfbf" points="1692,-6.5 1692,-25.5 1848,-25.5 1848,-6.5 1692,-6.5"/>
<text text-anchor="middle" x="1770" y="-13.5" font-family="Helvetica,sans-Serif" font-size="10.00">fairmq/MemoryResourceTools.h</text>
</g>
<!-- Node20&#45;&gt;Node32 -->
<g id="edge40" class="edge"><title>Node20&#45;&gt;Node32</title>
<path fill="none" stroke="midnightblue" d="M1194.56,-69.142C1199.44,-68.7537 1204.28,-68.3711 1209,-68 1419.18,-51.4807 1472.75,-57.7407 1682,-32 1692.61,-30.6951 1703.89,-29.0048 1714.7,-27.2313"/>
<polygon fill="midnightblue" stroke="midnightblue" points="1715.62,-30.6269 1724.9,-25.5154 1714.46,-23.724 1715.62,-30.6269"/>
</g>
</g>
</svg>
