<?xml version="1.0" encoding="UTF-8" standalone="no"?>
<!DOCTYPE svg PUBLIC "-//W3C//DTD SVG 1.1//EN"
 "http://www.w3.org/Graphics/SVG/1.1/DTD/svg11.dtd">
<!-- Generated by graphviz version 2.36.0 (20140111.2315)
 -->
<!-- Title: /home/travis/build/AliceO2Group/AliceO2/Detectors/Base/include/DetectorsBase/Propagator.h Pages: 1 -->
<svg width="2218pt" height="470pt"
 viewBox="0.00 0.00 2218.00 470.00" xmlns="http://www.w3.org/2000/svg" xmlns:xlink="http://www.w3.org/1999/xlink">
<g id="graph0" class="graph" transform="scale(1 1) rotate(0) translate(4 466)">
<title>/home/travis/build/AliceO2Group/AliceO2/Detectors/Base/include/DetectorsBase/Propagator.h</title>
<!-- Node1 -->
<g id="node1" class="node"><title>Node1</title>
<polygon fill="#bfbfbf" stroke="black" points="1503.5,-409 1503.5,-461 1646.5,-461 1646.5,-409 1503.5,-409"/>
<text text-anchor="start" x="1511.5" y="-449" font-family="Helvetica,sans-Serif" font-size="10.00">/home/travis/build</text>
<text text-anchor="start" x="1511.5" y="-438" font-family="Helvetica,sans-Serif" font-size="10.00">/AliceO2Group/AliceO2</text>
<text text-anchor="start" x="1511.5" y="-427" font-family="Helvetica,sans-Serif" font-size="10.00">/Detectors/Base/include</text>
<text text-anchor="middle" x="1575" y="-416" font-family="Helvetica,sans-Serif" font-size="10.00">/DetectorsBase/Propagator.h</text>
</g>
<!-- Node2 -->
<g id="node2" class="node"><title>Node2</title>
<polygon fill="none" stroke="#bfbfbf" points="1419.5,-346.5 1419.5,-365.5 1460.5,-365.5 1460.5,-346.5 1419.5,-346.5"/>
<text text-anchor="middle" x="1440" y="-353.5" font-family="Helvetica,sans-Serif" font-size="10.00">string</text>
</g>
<!-- Node1&#45;&gt;Node2 -->
<g id="edge1" class="edge"><title>Node1&#45;&gt;Node2</title>
<path fill="none" stroke="midnightblue" d="M1530.8,-408.787C1508.53,-396.088 1482.41,-381.191 1463.92,-370.643"/>
<polygon fill="midnightblue" stroke="midnightblue" points="1465.42,-367.472 1455,-365.558 1461.96,-373.552 1465.42,-367.472"/>
</g>
<!-- Node3 -->
<g id="node3" class="node"><title>Node3</title>
<g id="a_node3"><a xlink:href="../../d3/d9d/PhysicsConstants_8h.html" target="_top" xlink:title="Header to collect physics constants. ">
<polygon fill="none" stroke="black" points="1478.5,-346.5 1478.5,-365.5 1671.5,-365.5 1671.5,-346.5 1478.5,-346.5"/>
<text text-anchor="middle" x="1575" y="-353.5" font-family="Helvetica,sans-Serif" font-size="10.00">CommonConstants/PhysicsConstants.h</text>
</a>
</g>
</g>
<!-- Node1&#45;&gt;Node3 -->
<g id="edge2" class="edge"><title>Node1&#45;&gt;Node3</title>
<path fill="none" stroke="midnightblue" d="M1575,-408.787C1575,-398.069 1575,-385.785 1575,-375.871"/>
<polygon fill="midnightblue" stroke="midnightblue" points="1578.5,-375.558 1575,-365.558 1571.5,-375.558 1578.5,-375.558"/>
</g>
<!-- Node4 -->
<g id="node4" class="node"><title>Node4</title>
<g id="a_node4"><a xlink:href="../../d7/d8b/DataFormats_2Reconstruction_2include_2ReconstructionDataFormats_2Track_8h.html" target="_top" xlink:title="ReconstructionDataFormats\l/Track.h">
<polygon fill="none" stroke="black" points="1690,-341 1690,-371 1830,-371 1830,-341 1690,-341"/>
<text text-anchor="start" x="1698" y="-359" font-family="Helvetica,sans-Serif" font-size="10.00">ReconstructionDataFormats</text>
<text text-anchor="middle" x="1760" y="-348" font-family="Helvetica,sans-Serif" font-size="10.00">/Track.h</text>
</a>
</g>
</g>
<!-- Node1&#45;&gt;Node4 -->
<g id="edge3" class="edge"><title>Node1&#45;&gt;Node4</title>
<path fill="none" stroke="midnightblue" d="M1635.32,-408.894C1661.94,-397.813 1692.63,-385.041 1716.9,-374.941"/>
<polygon fill="midnightblue" stroke="midnightblue" points="1718.31,-378.144 1726.2,-371.07 1715.62,-371.682 1718.31,-378.144"/>
</g>
<!-- Node5 -->
<g id="node5" class="node"><title>Node5</title>
<polygon fill="none" stroke="#bfbfbf" points="1182,-74.5 1182,-93.5 1238,-93.5 1238,-74.5 1182,-74.5"/>
<text text-anchor="middle" x="1210" y="-81.5" font-family="Helvetica,sans-Serif" font-size="10.00">Rtypes.h</text>
</g>
<!-- Node4&#45;&gt;Node5 -->
<g id="edge4" class="edge"><title>Node4&#45;&gt;Node5</title>
<path fill="none" stroke="midnightblue" d="M1689.82,-341.493C1686.5,-340.965 1683.22,-340.463 1680,-340 1388.05,-297.945 1185.15,-424.212 1039,-168 1031.95,-155.646 1030.35,-147.286 1039,-136 1076.52,-87.0636 1114.54,-119.621 1173,-100 1175.56,-99.1406 1178.2,-98.1952 1180.83,-97.21"/>
<polygon fill="midnightblue" stroke="midnightblue" points="1182.16,-100.45 1190.2,-93.5497 1179.61,-93.9302 1182.16,-100.45"/>
</g>
<!-- Node6 -->
<g id="node6" class="node"><title>Node6</title>
<polygon fill="none" stroke="#bfbfbf" points="1826,-278.5 1826,-297.5 1882,-297.5 1882,-278.5 1826,-278.5"/>
<text text-anchor="middle" x="1854" y="-285.5" font-family="Helvetica,sans-Serif" font-size="10.00">algorithm</text>
</g>
<!-- Node4&#45;&gt;Node6 -->
<g id="edge5" class="edge"><title>Node4&#45;&gt;Node6</title>
<path fill="none" stroke="midnightblue" d="M1780.4,-340.679C1796.01,-329.713 1817.48,-314.645 1833.19,-303.609"/>
<polygon fill="midnightblue" stroke="midnightblue" points="1835.52,-306.249 1841.7,-297.638 1831.5,-300.52 1835.52,-306.249"/>
</g>
<!-- Node7 -->
<g id="node7" class="node"><title>Node7</title>
<polygon fill="none" stroke="#bfbfbf" points="1546,-6.5 1546,-25.5 1584,-25.5 1584,-6.5 1546,-6.5"/>
<text text-anchor="middle" x="1565" y="-13.5" font-family="Helvetica,sans-Serif" font-size="10.00">array</text>
</g>
<!-- Node4&#45;&gt;Node7 -->
<g id="edge6" class="edge"><title>Node4&#45;&gt;Node7</title>
<path fill="none" stroke="midnightblue" d="M1752.02,-340.872C1732.31,-306.002 1679.67,-213.082 1635,-136 1613.97,-99.7073 1588.98,-57.4248 1575.27,-34.3012"/>
<polygon fill="midnightblue" stroke="midnightblue" points="1578.25,-32.4522 1570.13,-25.6375 1572.23,-36.0237 1578.25,-32.4522"/>
</g>
<!-- Node8 -->
<g id="node8" class="node"><title>Node8</title>
<polygon fill="none" stroke="#bfbfbf" points="1900.5,-278.5 1900.5,-297.5 1941.5,-297.5 1941.5,-278.5 1900.5,-278.5"/>
<text text-anchor="middle" x="1921" y="-285.5" font-family="Helvetica,sans-Serif" font-size="10.00">cfloat</text>
</g>
<!-- Node4&#45;&gt;Node8 -->
<g id="edge7" class="edge"><title>Node4&#45;&gt;Node8</title>
<path fill="none" stroke="midnightblue" d="M1798.14,-340.92C1824.22,-331.078 1859.46,-317.357 1890,-304 1891.4,-303.386 1892.84,-302.745 1894.28,-302.088"/>
<polygon fill="midnightblue" stroke="midnightblue" points="1896.17,-305.068 1903.73,-297.646 1893.19,-298.733 1896.17,-305.068"/>
</g>
<!-- Node9 -->
<g id="node9" class="node"><title>Node9</title>
<polygon fill="none" stroke="#bfbfbf" points="1655,-6.5 1655,-25.5 1699,-25.5 1699,-6.5 1655,-6.5"/>
<text text-anchor="middle" x="1677" y="-13.5" font-family="Helvetica,sans-Serif" font-size="10.00">cmath</text>
</g>
<!-- Node4&#45;&gt;Node9 -->
<g id="edge8" class="edge"><title>Node4&#45;&gt;Node9</title>
<path fill="none" stroke="midnightblue" d="M1760,-340.917C1760,-316.502 1760,-264.736 1760,-221 1760,-221 1760,-221 1760,-151 1760,-113.157 1761.15,-100.033 1741,-68 1731.26,-52.5118 1715.12,-39.6996 1701.49,-30.7908"/>
<polygon fill="midnightblue" stroke="midnightblue" points="1703.32,-27.812 1692.98,-25.5113 1699.63,-33.7592 1703.32,-27.812"/>
</g>
<!-- Node10 -->
<g id="node10" class="node"><title>Node10</title>
<polygon fill="none" stroke="#bfbfbf" points="1960,-278.5 1960,-297.5 2006,-297.5 2006,-278.5 1960,-278.5"/>
<text text-anchor="middle" x="1983" y="-285.5" font-family="Helvetica,sans-Serif" font-size="10.00">cstring</text>
</g>
<!-- Node4&#45;&gt;Node10 -->
<g id="edge9" class="edge"><title>Node4&#45;&gt;Node10</title>
<path fill="none" stroke="midnightblue" d="M1822.4,-340.993C1859.86,-331.91 1908.21,-318.992 1950,-304 1951.91,-303.315 1953.86,-302.564 1955.82,-301.775"/>
<polygon fill="midnightblue" stroke="midnightblue" points="1957.61,-304.813 1965.41,-297.641 1954.84,-298.385 1957.61,-304.813"/>
</g>
<!-- Node11 -->
<g id="node11" class="node"><title>Node11</title>
<polygon fill="none" stroke="#bfbfbf" points="-0.5,-74.5 -0.5,-93.5 44.5,-93.5 44.5,-74.5 -0.5,-74.5"/>
<text text-anchor="middle" x="22" y="-81.5" font-family="Helvetica,sans-Serif" font-size="10.00">iosfwd</text>
</g>
<!-- Node4&#45;&gt;Node11 -->
<g id="edge10" class="edge"><title>Node4&#45;&gt;Node11</title>
<path fill="none" stroke="midnightblue" d="M1689.84,-341.285C1686.52,-340.813 1683.23,-340.38 1680,-340 1355.18,-301.775 1268.99,-348.67 945,-304 542.56,-248.515 438.101,-232.297 54,-100 52.0856,-99.3406 50.133,-98.602 48.1839,-97.8155"/>
<polygon fill="midnightblue" stroke="midnightblue" points="49.2233,-94.4492 38.6602,-93.6294 46.4066,-100.857 49.2233,-94.4492"/>
</g>
<!-- Node12 -->
<g id="node12" class="node"><title>Node12</title>
<polygon fill="none" stroke="#bfbfbf" points="2024.5,-278.5 2024.5,-297.5 2107.5,-297.5 2107.5,-278.5 2024.5,-278.5"/>
<text text-anchor="middle" x="2066" y="-285.5" font-family="Helvetica,sans-Serif" font-size="10.00">Math/SMatrix.h</text>
</g>
<!-- Node4&#45;&gt;Node12 -->
<g id="edge11" class="edge"><title>Node4&#45;&gt;Node12</title>
<path fill="none" stroke="midnightblue" d="M1830.18,-342.697C1881.61,-333.261 1952.97,-319.292 2015,-304 2019.46,-302.902 2024.1,-301.664 2028.7,-300.383"/>
<polygon fill="midnightblue" stroke="midnightblue" points="2029.95,-303.667 2038.59,-297.545 2028.02,-296.938 2029.95,-303.667"/>
</g>
<!-- Node13 -->
<g id="node13" class="node"><title>Node13</title>
<polygon fill="none" stroke="#bfbfbf" points="2125.5,-278.5 2125.5,-297.5 2210.5,-297.5 2210.5,-278.5 2125.5,-278.5"/>
<text text-anchor="middle" x="2168" y="-285.5" font-family="Helvetica,sans-Serif" font-size="10.00">Math/SVector.h</text>
</g>
<!-- Node4&#45;&gt;Node13 -->
<g id="edge12" class="edge"><title>Node4&#45;&gt;Node13</title>
<path fill="none" stroke="midnightblue" d="M1830.09,-347.864C1902.25,-339.838 2017.72,-325.109 2116,-304 2121.04,-302.918 2126.3,-301.611 2131.47,-300.225"/>
<polygon fill="midnightblue" stroke="midnightblue" points="2132.51,-303.57 2141.19,-297.502 2130.62,-296.829 2132.51,-303.57"/>
</g>
<!-- Node14 -->
<g id="node14" class="node"><title>Node14</title>
<g id="a_node14"><a xlink:href="../../d6/d84/MathConstants_8h.html" target="_top" xlink:title="useful math constants ">
<polygon fill="none" stroke="black" points="1717.5,-6.5 1717.5,-25.5 1896.5,-25.5 1896.5,-6.5 1717.5,-6.5"/>
<text text-anchor="middle" x="1807" y="-13.5" font-family="Helvetica,sans-Serif" font-size="10.00">CommonConstants/MathConstants.h</text>
</a>
</g>
</g>
<!-- Node4&#45;&gt;Node14 -->
<g id="edge13" class="edge"><title>Node4&#45;&gt;Node14</title>
<path fill="none" stroke="midnightblue" d="M1766.79,-340.899C1777.72,-316.876 1798,-266.219 1798,-221 1798,-221 1798,-221 1798,-151 1798,-109.954 1802.26,-61.9948 1804.91,-36.0394"/>
<polygon fill="midnightblue" stroke="midnightblue" points="1808.43,-36.0791 1806,-25.7661 1801.47,-35.3418 1808.43,-36.0791"/>
</g>
<!-- Node15 -->
<g id="node15" class="node"><title>Node15</title>
<g id="a_node15"><a xlink:href="../../dd/d76/Cartesian3D_8h.html" target="_top" xlink:title="MathUtils/Cartesian3D.h">
<polygon fill="none" stroke="black" points="756.5,-142.5 756.5,-161.5 881.5,-161.5 881.5,-142.5 756.5,-142.5"/>
<text text-anchor="middle" x="819" y="-149.5" font-family="Helvetica,sans-Serif" font-size="10.00">MathUtils/Cartesian3D.h</text>
</a>
</g>
</g>
<!-- Node4&#45;&gt;Node15 -->
<g id="edge14" class="edge"><title>Node4&#45;&gt;Node15</title>
<path fill="none" stroke="midnightblue" d="M1689.84,-341.303C1686.52,-340.826 1683.23,-340.387 1680,-340 1531.08,-322.14 1146.04,-357.725 1006,-304 929.824,-274.776 860.923,-202.106 832.622,-169.405"/>
<polygon fill="midnightblue" stroke="midnightblue" points="835.176,-167.005 826.032,-161.655 829.844,-171.54 835.176,-167.005"/>
</g>
<!-- Node25 -->
<g id="node25" class="node"><title>Node25</title>
<g id="a_node25"><a xlink:href="../../d9/d52/Common_2MathUtils_2include_2MathUtils_2Utils_8h.html" target="_top" xlink:title="MathUtils/Utils.h">
<polygon fill="none" stroke="black" points="1642,-74.5 1642,-93.5 1732,-93.5 1732,-74.5 1642,-74.5"/>
<text text-anchor="middle" x="1687" y="-81.5" font-family="Helvetica,sans-Serif" font-size="10.00">MathUtils/Utils.h</text>
</a>
</g>
</g>
<!-- Node4&#45;&gt;Node25 -->
<g id="edge26" class="edge"><title>Node4&#45;&gt;Node25</title>
<path fill="none" stroke="midnightblue" d="M1756.06,-340.716C1753.24,-330.494 1749.37,-316.404 1746,-304 1725.87,-229.966 1702.2,-141.764 1692.05,-103.848"/>
<polygon fill="midnightblue" stroke="midnightblue" points="1695.31,-102.521 1689.35,-93.7665 1688.55,-104.332 1695.31,-102.521"/>
</g>
<!-- Node26 -->
<g id="node26" class="node"><title>Node26</title>
<g id="a_node26"><a xlink:href="../../d4/de2/BaseCluster_8h.html" target="_top" xlink:title="ReconstructionDataFormats\l/BaseCluster.h">
<polygon fill="none" stroke="black" points="1333,-273 1333,-303 1473,-303 1473,-273 1333,-273"/>
<text text-anchor="start" x="1341" y="-291" font-family="Helvetica,sans-Serif" font-size="10.00">ReconstructionDataFormats</text>
<text text-anchor="middle" x="1403" y="-280" font-family="Helvetica,sans-Serif" font-size="10.00">/BaseCluster.h</text>
</a>
</g>
</g>
<!-- Node4&#45;&gt;Node26 -->
<g id="edge30" class="edge"><title>Node4&#45;&gt;Node26</title>
<path fill="none" stroke="midnightblue" d="M1689.76,-341.817C1686.46,-341.202 1683.2,-340.594 1680,-340 1613.7,-327.68 1538.44,-313.833 1483.12,-303.679"/>
<polygon fill="midnightblue" stroke="midnightblue" points="1483.49,-300.19 1473.03,-301.827 1482.23,-307.075 1483.49,-300.19"/>
</g>
<!-- Node15&#45;&gt;Node5 -->
<g id="edge20" class="edge"><title>Node15&#45;&gt;Node5</title>
<path fill="none" stroke="midnightblue" d="M881.634,-146.582C953.114,-140.485 1073.05,-127.03 1173,-100 1175.98,-99.1936 1179.05,-98.2135 1182.08,-97.1445"/>
<polygon fill="midnightblue" stroke="midnightblue" points="1183.4,-100.385 1191.48,-93.531 1180.89,-93.8504 1183.4,-100.385"/>
</g>
<!-- Node15&#45;&gt;Node11 -->
<g id="edge22" class="edge"><title>Node15&#45;&gt;Node11</title>
<path fill="none" stroke="midnightblue" d="M780.786,-142.459C768.463,-140 754.707,-137.562 742,-136 438.092,-98.6343 351.029,-174.361 54,-100 51.5002,-99.3742 48.9593,-98.5499 46.4581,-97.6093"/>
<polygon fill="midnightblue" stroke="midnightblue" points="47.7455,-94.3526 37.1791,-93.5776 44.956,-100.773 47.7455,-94.3526"/>
</g>
<!-- Node16 -->
<g id="node16" class="node"><title>Node16</title>
<polygon fill="none" stroke="#bfbfbf" points="652.5,-69 652.5,-99 803.5,-99 803.5,-69 652.5,-69"/>
<text text-anchor="start" x="660.5" y="-87" font-family="Helvetica,sans-Serif" font-size="10.00">Math/GenVector/Displacement</text>
<text text-anchor="middle" x="728" y="-76" font-family="Helvetica,sans-Serif" font-size="10.00">Vector3D.h</text>
</g>
<!-- Node15&#45;&gt;Node16 -->
<g id="edge15" class="edge"><title>Node15&#45;&gt;Node16</title>
<path fill="none" stroke="midnightblue" d="M807.103,-142.372C794.221,-133.029 773.22,-117.797 756.093,-105.375"/>
<polygon fill="midnightblue" stroke="midnightblue" points="757.703,-102.219 747.553,-99.1815 753.593,-107.886 757.703,-102.219"/>
</g>
<!-- Node17 -->
<g id="node17" class="node"><title>Node17</title>
<polygon fill="none" stroke="#bfbfbf" points="822,-74.5 822,-93.5 998,-93.5 998,-74.5 822,-74.5"/>
<text text-anchor="middle" x="910" y="-81.5" font-family="Helvetica,sans-Serif" font-size="10.00">Math/GenVector/PositionVector3D.h</text>
</g>
<!-- Node15&#45;&gt;Node17 -->
<g id="edge16" class="edge"><title>Node15&#45;&gt;Node17</title>
<path fill="none" stroke="midnightblue" d="M830.897,-142.372C845.884,-131.502 871.862,-112.66 889.942,-99.5474"/>
<polygon fill="midnightblue" stroke="midnightblue" points="892.06,-102.335 898.1,-93.6305 887.95,-96.6684 892.06,-102.335"/>
</g>
<!-- Node18 -->
<g id="node18" class="node"><title>Node18</title>
<polygon fill="none" stroke="#bfbfbf" points="1015.5,-74.5 1015.5,-93.5 1164.5,-93.5 1164.5,-74.5 1015.5,-74.5"/>
<text text-anchor="middle" x="1090" y="-81.5" font-family="Helvetica,sans-Serif" font-size="10.00">Math/GenVector/Rotation3D.h</text>
</g>
<!-- Node15&#45;&gt;Node18 -->
<g id="edge17" class="edge"><title>Node15&#45;&gt;Node18</title>
<path fill="none" stroke="midnightblue" d="M854.151,-142.439C902.99,-130.545 991.4,-109.013 1045,-95.959"/>
<polygon fill="midnightblue" stroke="midnightblue" points="1046.02,-99.3125 1054.91,-93.5455 1044.37,-92.5112 1046.02,-99.3125"/>
</g>
<!-- Node19 -->
<g id="node19" class="node"><title>Node19</title>
<polygon fill="none" stroke="#bfbfbf" points="63,-74.5 63,-93.5 219,-93.5 219,-74.5 63,-74.5"/>
<text text-anchor="middle" x="141" y="-81.5" font-family="Helvetica,sans-Serif" font-size="10.00">Math/GenVector/Transform3D.h</text>
</g>
<!-- Node15&#45;&gt;Node19 -->
<g id="edge18" class="edge"><title>Node15&#45;&gt;Node19</title>
<path fill="none" stroke="midnightblue" d="M779.98,-142.437C767.86,-140.037 754.422,-137.639 742,-136 514.963,-106.05 455.348,-127.49 228,-100 217.507,-98.7312 206.354,-97.0575 195.658,-95.2892"/>
<polygon fill="midnightblue" stroke="midnightblue" points="196.025,-91.8014 185.579,-93.5748 194.851,-98.7023 196.025,-91.8014"/>
</g>
<!-- Node20 -->
<g id="node20" class="node"><title>Node20</title>
<polygon fill="none" stroke="#bfbfbf" points="237,-74.5 237,-93.5 397,-93.5 397,-74.5 237,-74.5"/>
<text text-anchor="middle" x="317" y="-81.5" font-family="Helvetica,sans-Serif" font-size="10.00">Math/GenVector/Translation3D.h</text>
</g>
<!-- Node15&#45;&gt;Node20 -->
<g id="edge19" class="edge"><title>Node15&#45;&gt;Node20</title>
<path fill="none" stroke="midnightblue" d="M778.751,-142.484C766.944,-140.169 753.986,-137.806 742,-136 593.489,-113.621 554.784,-120.49 406,-100 395.766,-98.5906 384.9,-96.9123 374.407,-95.197"/>
<polygon fill="midnightblue" stroke="midnightblue" points="374.932,-91.7363 364.493,-93.5487 373.784,-98.6415 374.932,-91.7363"/>
</g>
<!-- Node21 -->
<g id="node21" class="node"><title>Node21</title>
<polygon fill="none" stroke="#bfbfbf" points="415,-74.5 415,-93.5 491,-93.5 491,-74.5 415,-74.5"/>
<text text-anchor="middle" x="453" y="-81.5" font-family="Helvetica,sans-Serif" font-size="10.00">TGeoMatrix.h</text>
</g>
<!-- Node15&#45;&gt;Node21 -->
<g id="edge21" class="edge"><title>Node15&#45;&gt;Node21</title>
<path fill="none" stroke="midnightblue" d="M777.102,-142.485C765.731,-140.271 753.409,-137.959 742,-136 634.829,-117.599 605.918,-124.61 500,-100 495.776,-99.0186 491.385,-97.8388 487.058,-96.5774"/>
<polygon fill="midnightblue" stroke="midnightblue" points="487.773,-93.1355 477.186,-93.541 485.715,-99.8262 487.773,-93.1355"/>
</g>
<!-- Node22 -->
<g id="node22" class="node"><title>Node22</title>
<g id="a_node22"><a xlink:href="../../d2/dd0/Cartesian2D_8h.html" target="_top" xlink:title="MathUtils/Cartesian2D.h">
<polygon fill="none" stroke="black" points="509.5,-74.5 509.5,-93.5 634.5,-93.5 634.5,-74.5 509.5,-74.5"/>
<text text-anchor="middle" x="572" y="-81.5" font-family="Helvetica,sans-Serif" font-size="10.00">MathUtils/Cartesian2D.h</text>
</a>
</g>
</g>
<!-- Node15&#45;&gt;Node22 -->
<g id="edge23" class="edge"><title>Node15&#45;&gt;Node22</title>
<path fill="none" stroke="midnightblue" d="M786.962,-142.439C742.726,-130.619 662.871,-109.281 613.931,-96.2043"/>
<polygon fill="midnightblue" stroke="midnightblue" points="614.546,-92.7457 603.981,-93.5455 612.738,-99.5085 614.546,-92.7457"/>
</g>
<!-- Node23 -->
<g id="node23" class="node"><title>Node23</title>
<polygon fill="none" stroke="#bfbfbf" points="587.5,-1 587.5,-31 738.5,-31 738.5,-1 587.5,-1"/>
<text text-anchor="start" x="595.5" y="-19" font-family="Helvetica,sans-Serif" font-size="10.00">Math/GenVector/Displacement</text>
<text text-anchor="middle" x="663" y="-8" font-family="Helvetica,sans-Serif" font-size="10.00">Vector2D.h</text>
</g>
<!-- Node22&#45;&gt;Node23 -->
<g id="edge24" class="edge"><title>Node22&#45;&gt;Node23</title>
<path fill="none" stroke="midnightblue" d="M583.897,-74.3717C596.779,-65.0286 617.78,-49.7966 634.907,-37.375"/>
<polygon fill="midnightblue" stroke="midnightblue" points="637.407,-39.8859 643.447,-31.1815 633.297,-34.2194 637.407,-39.8859"/>
</g>
<!-- Node24 -->
<g id="node24" class="node"><title>Node24</title>
<polygon fill="none" stroke="#bfbfbf" points="393,-6.5 393,-25.5 569,-25.5 569,-6.5 393,-6.5"/>
<text text-anchor="middle" x="481" y="-13.5" font-family="Helvetica,sans-Serif" font-size="10.00">Math/GenVector/PositionVector2D.h</text>
</g>
<!-- Node22&#45;&gt;Node24 -->
<g id="edge25" class="edge"><title>Node22&#45;&gt;Node24</title>
<path fill="none" stroke="midnightblue" d="M560.103,-74.3717C545.116,-63.5015 519.138,-44.6602 501.058,-31.5474"/>
<polygon fill="midnightblue" stroke="midnightblue" points="503.05,-28.6684 492.9,-25.6305 498.94,-34.3349 503.05,-28.6684"/>
</g>
<!-- Node25&#45;&gt;Node7 -->
<g id="edge27" class="edge"><title>Node25&#45;&gt;Node7</title>
<path fill="none" stroke="midnightblue" d="M1671.05,-74.3717C1650.41,-63.2051 1614.22,-43.6266 1589.93,-30.4876"/>
<polygon fill="midnightblue" stroke="midnightblue" points="1591.41,-27.3103 1580.95,-25.6305 1588.08,-33.4671 1591.41,-27.3103"/>
</g>
<!-- Node25&#45;&gt;Node9 -->
<g id="edge28" class="edge"><title>Node25&#45;&gt;Node9</title>
<path fill="none" stroke="midnightblue" d="M1685.69,-74.3717C1684.22,-64.6426 1681.78,-48.528 1679.86,-35.8504"/>
<polygon fill="midnightblue" stroke="midnightblue" points="1683.3,-35.2039 1678.34,-25.8411 1676.38,-36.2526 1683.3,-35.2039"/>
</g>
<!-- Node25&#45;&gt;Node14 -->
<g id="edge29" class="edge"><title>Node25&#45;&gt;Node14</title>
<path fill="none" stroke="midnightblue" d="M1702.69,-74.3717C1722.99,-63.2051 1758.59,-43.6266 1782.48,-30.4876"/>
<polygon fill="midnightblue" stroke="midnightblue" points="1784.23,-33.5165 1791.31,-25.6305 1780.86,-27.3829 1784.23,-33.5165"/>
</g>
<!-- Node26&#45;&gt;Node11 -->
<g id="edge35" class="edge"><title>Node26&#45;&gt;Node11</title>
<path fill="none" stroke="midnightblue" d="M1332.87,-278.196C1256.19,-268.44 1129.73,-251.968 1021,-236 743.109,-195.19 675.438,-172.895 397,-136 245.046,-115.865 201.669,-141.1 54,-100 51.6559,-99.3476 49.2702,-98.5374 46.912,-97.6339"/>
<polygon fill="midnightblue" stroke="midnightblue" points="48.116,-94.3408 37.55,-93.5602 45.323,-100.76 48.116,-94.3408"/>
</g>
<!-- Node26&#45;&gt;Node15 -->
<g id="edge50" class="edge"><title>Node26&#45;&gt;Node15</title>
<path fill="none" stroke="midnightblue" d="M1332.8,-273.418C1282.83,-263.554 1214.15,-249.605 1154,-236 1048.54,-212.146 925.301,-180.68 861.75,-164.186"/>
<polygon fill="midnightblue" stroke="midnightblue" points="862.263,-160.703 851.704,-161.575 860.502,-167.478 862.263,-160.703"/>
</g>
<!-- Node27 -->
<g id="node27" class="node"><title>Node27</title>
<polygon fill="none" stroke="#bfbfbf" points="1337.5,-210.5 1337.5,-229.5 1396.5,-229.5 1396.5,-210.5 1337.5,-210.5"/>
<text text-anchor="middle" x="1367" y="-217.5" font-family="Helvetica,sans-Serif" font-size="10.00">TObject.h</text>
</g>
<!-- Node26&#45;&gt;Node27 -->
<g id="edge31" class="edge"><title>Node26&#45;&gt;Node27</title>
<path fill="none" stroke="midnightblue" d="M1395.19,-272.679C1389.74,-262.694 1382.44,-249.307 1376.63,-238.66"/>
<polygon fill="midnightblue" stroke="midnightblue" points="1379.68,-236.931 1371.82,-229.828 1373.53,-240.283 1379.68,-236.931"/>
</g>
<!-- Node28 -->
<g id="node28" class="node"><title>Node28</title>
<polygon fill="none" stroke="#bfbfbf" points="1544.5,-74.5 1544.5,-93.5 1585.5,-93.5 1585.5,-74.5 1544.5,-74.5"/>
<text text-anchor="middle" x="1565" y="-81.5" font-family="Helvetica,sans-Serif" font-size="10.00">bitset</text>
</g>
<!-- Node26&#45;&gt;Node28 -->
<g id="edge32" class="edge"><title>Node26&#45;&gt;Node28</title>
<path fill="none" stroke="midnightblue" d="M1464.76,-272.973C1517.17,-257.312 1588.58,-226.135 1619,-168 1625.59,-155.399 1624.63,-149.061 1619,-136 1612.55,-121.039 1599.32,-108.424 1587.56,-99.4831"/>
<polygon fill="midnightblue" stroke="midnightblue" points="1589.56,-96.6061 1579.39,-93.6409 1585.49,-102.302 1589.56,-96.6061"/>
</g>
<!-- Node29 -->
<g id="node29" class="node"><title>Node29</title>
<polygon fill="none" stroke="#bfbfbf" points="1415,-210.5 1415,-229.5 1465,-229.5 1465,-210.5 1415,-210.5"/>
<text text-anchor="middle" x="1440" y="-217.5" font-family="Helvetica,sans-Serif" font-size="10.00">iomanip</text>
</g>
<!-- Node26&#45;&gt;Node29 -->
<g id="edge33" class="edge"><title>Node26&#45;&gt;Node29</title>
<path fill="none" stroke="midnightblue" d="M1411.03,-272.679C1416.63,-262.694 1424.13,-249.307 1430.1,-238.66"/>
<polygon fill="midnightblue" stroke="midnightblue" points="1433.21,-240.263 1435.05,-229.828 1427.11,-236.84 1433.21,-240.263"/>
</g>
<!-- Node30 -->
<g id="node30" class="node"><title>Node30</title>
<polygon fill="none" stroke="#bfbfbf" points="1483.5,-210.5 1483.5,-229.5 1512.5,-229.5 1512.5,-210.5 1483.5,-210.5"/>
<text text-anchor="middle" x="1498" y="-217.5" font-family="Helvetica,sans-Serif" font-size="10.00">ios</text>
</g>
<!-- Node26&#45;&gt;Node30 -->
<g id="edge34" class="edge"><title>Node26&#45;&gt;Node30</title>
<path fill="none" stroke="midnightblue" d="M1423.61,-272.679C1439.4,-261.713 1461.09,-246.645 1476.97,-235.609"/>
<polygon fill="midnightblue" stroke="midnightblue" points="1479.35,-238.218 1485.57,-229.638 1475.36,-232.469 1479.35,-238.218"/>
</g>
<!-- Node31 -->
<g id="node31" class="node"><title>Node31</title>
<g id="a_node31"><a xlink:href="../../d4/d20/DetMatrixCache_8h.html" target="_top" xlink:title="DetectorsCommonDataFormats\l/DetMatrixCache.h">
<polygon fill="none" stroke="black" points="1163,-205 1163,-235 1319,-235 1319,-205 1163,-205"/>
<text text-anchor="start" x="1171" y="-223" font-family="Helvetica,sans-Serif" font-size="10.00">DetectorsCommonDataFormats</text>
<text text-anchor="middle" x="1241" y="-212" font-family="Helvetica,sans-Serif" font-size="10.00">/DetMatrixCache.h</text>
</a>
</g>
</g>
<!-- Node26&#45;&gt;Node31 -->
<g id="edge36" class="edge"><title>Node26&#45;&gt;Node31</title>
<path fill="none" stroke="midnightblue" d="M1368.25,-272.841C1343.82,-262.89 1310.96,-249.5 1284.74,-238.822"/>
<polygon fill="midnightblue" stroke="midnightblue" points="1286,-235.554 1275.42,-235.022 1283.36,-242.036 1286,-235.554"/>
</g>
<!-- Node31&#45;&gt;Node7 -->
<g id="edge39" class="edge"><title>Node31&#45;&gt;Node7</title>
<path fill="none" stroke="midnightblue" d="M1243.29,-204.897C1249.07,-171.038 1265.28,-86.5816 1286,-68 1322.56,-35.2159 1471.52,-22.5585 1535.53,-18.5667"/>
<polygon fill="midnightblue" stroke="midnightblue" points="1535.98,-22.0466 1545.75,-17.9587 1535.56,-15.0589 1535.98,-22.0466"/>
</g>
<!-- Node31&#45;&gt;Node15 -->
<g id="edge49" class="edge"><title>Node31&#45;&gt;Node15</title>
<path fill="none" stroke="midnightblue" d="M1162.61,-206.741C1082.25,-194.172 958.734,-174.854 883.739,-163.125"/>
<polygon fill="midnightblue" stroke="midnightblue" points="883.909,-159.609 873.489,-161.522 882.828,-166.525 883.909,-159.609"/>
</g>
<!-- Node32 -->
<g id="node32" class="node"><title>Node32</title>
<polygon fill="none" stroke="#bfbfbf" points="1468,-142.5 1468,-161.5 1610,-161.5 1610,-142.5 1468,-142.5"/>
<text text-anchor="middle" x="1539" y="-149.5" font-family="Helvetica,sans-Serif" font-size="10.00">AliTPCCommonFairLogger.h</text>
</g>
<!-- Node31&#45;&gt;Node32 -->
<g id="edge37" class="edge"><title>Node31&#45;&gt;Node32</title>
<path fill="none" stroke="midnightblue" d="M1304.56,-204.922C1360.21,-192.597 1439.88,-174.952 1490.52,-163.736"/>
<polygon fill="midnightblue" stroke="midnightblue" points="1491.55,-167.093 1500.56,-161.514 1490.04,-160.259 1491.55,-167.093"/>
</g>
<!-- Node33 -->
<g id="node33" class="node"><title>Node33</title>
<polygon fill="none" stroke="#bfbfbf" points="1048,-142.5 1048,-161.5 1176,-161.5 1176,-142.5 1048,-142.5"/>
<text text-anchor="middle" x="1112" y="-149.5" font-family="Helvetica,sans-Serif" font-size="10.00">AliTPCCommonRtypes.h</text>
</g>
<!-- Node31&#45;&gt;Node33 -->
<g id="edge38" class="edge"><title>Node31&#45;&gt;Node33</title>
<path fill="none" stroke="midnightblue" d="M1213.33,-204.841C1191.01,-193.425 1159.86,-177.485 1138,-166.303"/>
<polygon fill="midnightblue" stroke="midnightblue" points="1139.47,-163.121 1128.97,-161.682 1136.28,-169.353 1139.47,-163.121"/>
</g>
<!-- Node34 -->
<g id="node34" class="node"><title>Node34</title>
<polygon fill="none" stroke="#bfbfbf" points="1194,-142.5 1194,-161.5 1238,-161.5 1238,-142.5 1194,-142.5"/>
<text text-anchor="middle" x="1216" y="-149.5" font-family="Helvetica,sans-Serif" font-size="10.00">vector</text>
</g>
<!-- Node31&#45;&gt;Node34 -->
<g id="edge40" class="edge"><title>Node31&#45;&gt;Node34</title>
<path fill="none" stroke="midnightblue" d="M1235.58,-204.679C1231.87,-194.898 1226.93,-181.852 1222.94,-171.315"/>
<polygon fill="midnightblue" stroke="midnightblue" points="1226.16,-169.94 1219.34,-161.828 1219.61,-172.42 1226.16,-169.94"/>
</g>
<!-- Node35 -->
<g id="node35" class="node"><title>Node35</title>
<g id="a_node35"><a xlink:href="../../d6/d31/DetID_8h.html" target="_top" xlink:title="DetectorsCommonDataFormats\l/DetID.h">
<polygon fill="none" stroke="black" points="1294,-137 1294,-167 1450,-167 1450,-137 1294,-137"/>
<text text-anchor="start" x="1302" y="-155" font-family="Helvetica,sans-Serif" font-size="10.00">DetectorsCommonDataFormats</text>
<text text-anchor="middle" x="1372" y="-144" font-family="Helvetica,sans-Serif" font-size="10.00">/DetID.h</text>
</a>
</g>
</g>
<!-- Node31&#45;&gt;Node35 -->
<g id="edge41" class="edge"><title>Node31&#45;&gt;Node35</title>
<path fill="none" stroke="midnightblue" d="M1269.1,-204.841C1288.36,-195.141 1314.09,-182.174 1335.01,-171.636"/>
<polygon fill="midnightblue" stroke="midnightblue" points="1336.59,-174.76 1343.94,-167.135 1333.44,-168.509 1336.59,-174.76"/>
</g>
<!-- Node35&#45;&gt;Node5 -->
<g id="edge42" class="edge"><title>Node35&#45;&gt;Node5</title>
<path fill="none" stroke="midnightblue" d="M1337.25,-136.841C1308.6,-125.169 1268.34,-108.768 1240.83,-97.5585"/>
<polygon fill="midnightblue" stroke="midnightblue" points="1241.89,-94.2136 1231.31,-93.6819 1239.25,-100.696 1241.89,-94.2136"/>
</g>
<!-- Node35&#45;&gt;Node7 -->
<g id="edge43" class="edge"><title>Node35&#45;&gt;Node7</title>
<path fill="none" stroke="midnightblue" d="M1421.35,-136.908C1445.32,-128.576 1473.68,-116.403 1496,-100 1520.82,-81.7633 1542.21,-52.7331 1554.34,-34.2846"/>
<polygon fill="midnightblue" stroke="midnightblue" points="1557.38,-36.0271 1559.82,-25.715 1551.48,-32.2601 1557.38,-36.0271"/>
</g>
<!-- Node35&#45;&gt;Node25 -->
<g id="edge48" class="edge"><title>Node35&#45;&gt;Node25</title>
<path fill="none" stroke="midnightblue" d="M1439.19,-136.922C1498.26,-124.545 1582.93,-106.804 1636.43,-95.5963"/>
<polygon fill="midnightblue" stroke="midnightblue" points="1637.3,-98.9902 1646.37,-93.5138 1635.86,-92.1389 1637.3,-98.9902"/>
</g>
<!-- Node35&#45;&gt;Node28 -->
<g id="edge44" class="edge"><title>Node35&#45;&gt;Node28</title>
<path fill="none" stroke="midnightblue" d="M1419.41,-136.956C1450.99,-127.29 1493.29,-113.757 1530,-100 1532.11,-99.2083 1534.28,-98.3612 1536.46,-97.4874"/>
<polygon fill="midnightblue" stroke="midnightblue" points="1537.98,-100.645 1545.87,-93.5758 1535.3,-94.181 1537.98,-100.645"/>
</g>
<!-- Node36 -->
<g id="node36" class="node"><title>Node36</title>
<polygon fill="none" stroke="#bfbfbf" points="1294.5,-74.5 1294.5,-93.5 1343.5,-93.5 1343.5,-74.5 1294.5,-74.5"/>
<text text-anchor="middle" x="1319" y="-81.5" font-family="Helvetica,sans-Serif" font-size="10.00">cassert</text>
</g>
<!-- Node35&#45;&gt;Node36 -->
<g id="edge45" class="edge"><title>Node35&#45;&gt;Node36</title>
<path fill="none" stroke="midnightblue" d="M1360.5,-136.679C1352.24,-126.388 1341.07,-112.484 1332.4,-101.69"/>
<polygon fill="midnightblue" stroke="midnightblue" points="1335.08,-99.434 1326.09,-93.8283 1329.62,-103.817 1335.08,-99.434"/>
</g>
<!-- Node37 -->
<g id="node37" class="node"><title>Node37</title>
<polygon fill="none" stroke="#bfbfbf" points="1362,-74.5 1362,-93.5 1408,-93.5 1408,-74.5 1362,-74.5"/>
<text text-anchor="middle" x="1385" y="-81.5" font-family="Helvetica,sans-Serif" font-size="10.00">cstdint</text>
</g>
<!-- Node35&#45;&gt;Node37 -->
<g id="edge46" class="edge"><title>Node35&#45;&gt;Node37</title>
<path fill="none" stroke="midnightblue" d="M1374.82,-136.679C1376.73,-126.999 1379.26,-114.123 1381.33,-103.645"/>
<polygon fill="midnightblue" stroke="midnightblue" points="1384.76,-104.316 1383.26,-93.8283 1377.89,-102.963 1384.76,-104.316"/>
</g>
<!-- Node38 -->
<g id="node38" class="node"><title>Node38</title>
<polygon fill="none" stroke="#bfbfbf" points="1426,-74.5 1426,-93.5 1488,-93.5 1488,-74.5 1426,-74.5"/>
<text text-anchor="middle" x="1457" y="-81.5" font-family="Helvetica,sans-Serif" font-size="10.00">type_traits</text>
</g>
<!-- Node35&#45;&gt;Node38 -->
<g id="edge47" class="edge"><title>Node35&#45;&gt;Node38</title>
<path fill="none" stroke="midnightblue" d="M1390.44,-136.679C1404.35,-125.879 1423.39,-111.098 1437.54,-100.11"/>
<polygon fill="midnightblue" stroke="midnightblue" points="1439.88,-102.726 1445.63,-93.8283 1435.59,-97.1968 1439.88,-102.726"/>
</g>
</g>
</svg>
