<?xml version="1.0" encoding="UTF-8" standalone="no"?>
<!DOCTYPE svg PUBLIC "-//W3C//DTD SVG 1.1//EN"
 "http://www.w3.org/Graphics/SVG/1.1/DTD/svg11.dtd">
<!-- Generated by graphviz version 2.36.0 (20140111.2315)
 -->
<!-- Title: /home/travis/build/AliceO2Group/AliceO2/Detectors/TOF/reconstruction/src/Clusterer.cxx Pages: 1 -->
<!--zoomable 526 -->
<svg id="main" version="1.1" xmlns="http://www.w3.org/2000/svg" xmlns:xlink="http://www.w3.org/1999/xlink" xml:space="preserve" onload="init(evt)">
<style type="text/css"><![CDATA[
.edge:hover path { stroke: red; }
.edge:hover polygon { stroke: red; fill: red; }
]]></style>
<script type="text/javascript"><![CDATA[
var edges = document.getElementsByTagName('g');
if (edges && edges.length) {
  for (var i=0;i<edges.length;i++) {
    if (edges[i].id.substr(0,4)=='edge') {
      edges[i].setAttribute('class','edge');
    }
  }
}
]]></script>
        <defs>
                <circle id="rim" cx="0" cy="0" r="7"/>
                <circle id="rim2" cx="0" cy="0" r="3.5"/>
                <g id="zoomPlus">
                        <use xlink:href="#rim" fill="#404040">
                                <set attributeName="fill" to="#808080" begin="zoomplus.mouseover" end="zoomplus.mouseout"/>
                        </use>
                        <path d="M-4,0h8M0,-4v8" fill="none" stroke="white" stroke-width="1.5" pointer-events="none"/>
                </g>
                <g id="zoomMin">
                        <use xlink:href="#rim" fill="#404040">
                                <set attributeName="fill" to="#808080" begin="zoomminus.mouseover" end="zoomminus.mouseout"/>
                        </use>
                        <path d="M-4,0h8" fill="none" stroke="white" stroke-width="1.5" pointer-events="none"/>
                </g>
                <g id="dirArrow">
                        <path fill="none" stroke="white" stroke-width="1.5" d="M0,-3.0v7 M-2.5,-0.5L0,-3.0L2.5,-0.5"/>
                </g>
               <g id="resetDef">
                       <use xlink:href="#rim2" fill="#404040">
                               <set attributeName="fill" to="#808080" begin="reset.mouseover" end="reset.mouseout"/>
                       </use>
               </g>
        </defs>

<script type="text/javascript">
var viewWidth = 1911;
var viewHeight = 526;
var sectionId = 'dynsection-0';
</script>
<script xlink:href="../../svgpan.js"/>
<svg id="graph" class="graph">
<g id="viewport">
<title>/home/travis/build/AliceO2Group/AliceO2/Detectors/TOF/reconstruction/src/Clusterer.cxx</title>
<!-- Node1 -->
<g id="node1" class="node"><title>Node1</title>
<polygon fill="#bfbfbf" stroke="black" points="1378.5,-465 1378.5,-517 1527.5,-517 1527.5,-465 1378.5,-465"/>
<text text-anchor="start" x="1386.5" y="-505" font-family="Helvetica,sans-Serif" font-size="10.00">/home/travis/build</text>
<text text-anchor="start" x="1386.5" y="-494" font-family="Helvetica,sans-Serif" font-size="10.00">/AliceO2Group/AliceO2</text>
<text text-anchor="start" x="1386.5" y="-483" font-family="Helvetica,sans-Serif" font-size="10.00">/Detectors/TOF/reconstruction</text>
<text text-anchor="middle" x="1453" y="-472" font-family="Helvetica,sans-Serif" font-size="10.00">/src/Clusterer.cxx</text>
</g>
<!-- Node2 -->
<g id="node2" class="node"><title>Node2</title>
<polygon fill="none" stroke="#bfbfbf" points="1227,-408.5 1227,-427.5 1283,-427.5 1283,-408.5 1227,-408.5"/>
<text text-anchor="middle" x="1255" y="-415.5" font-family="Helvetica,sans-Serif" font-size="10.00">algorithm</text>
</g>
<!-- Node1&#45;&gt;Node2 -->
<g id="edge1" class="edge"><title>Node1&#45;&gt;Node2</title>
<path fill="none" stroke="midnightblue" d="M1383.19,-464.968C1351.15,-453.478 1314.63,-440.381 1288.78,-431.114"/>
<polygon fill="midnightblue" stroke="midnightblue" points="1289.69,-427.72 1279.09,-427.639 1287.32,-434.309 1289.69,-427.72"/>
</g>
<!-- Node3 -->
<g id="node3" class="node"><title>Node3</title>
<polygon fill="none" stroke="#bfbfbf" points="1301.5,-408.5 1301.5,-427.5 1372.5,-427.5 1372.5,-408.5 1301.5,-408.5"/>
<text text-anchor="middle" x="1337" y="-415.5" font-family="Helvetica,sans-Serif" font-size="10.00">FairLogger.h</text>
</g>
<!-- Node1&#45;&gt;Node3 -->
<g id="edge2" class="edge"><title>Node1&#45;&gt;Node3</title>
<path fill="none" stroke="midnightblue" d="M1412.1,-464.968C1394.49,-454.19 1374.57,-441.997 1359.68,-432.879"/>
<polygon fill="midnightblue" stroke="midnightblue" points="1361.47,-429.874 1351.11,-427.639 1357.82,-435.845 1361.47,-429.874"/>
</g>
<!-- Node4 -->
<g id="node4" class="node"><title>Node4</title>
<g id="a_node4"><a xlink:href="../../d1/d50/DataFormats_2Detectors_2TOF_2include_2DataFormatsTOF_2Cluster_8h.html" target="_top" xlink:title="DataFormatsTOF/Cluster.h">
<polygon fill="none" stroke="black" points="1088,-346.5 1088,-365.5 1224,-365.5 1224,-346.5 1088,-346.5"/>
<text text-anchor="middle" x="1156" y="-353.5" font-family="Helvetica,sans-Serif" font-size="10.00">DataFormatsTOF/Cluster.h</text>
</a>
</g>
</g>
<!-- Node1&#45;&gt;Node4 -->
<g id="edge3" class="edge"><title>Node1&#45;&gt;Node4</title>
<path fill="none" stroke="midnightblue" d="M1437.18,-464.655C1424.3,-446.148 1404.45,-421.946 1381,-408 1366.39,-399.309 1272.17,-379.71 1210.38,-367.497"/>
<polygon fill="midnightblue" stroke="midnightblue" points="1210.87,-364.026 1200.38,-365.529 1209.52,-370.895 1210.87,-364.026"/>
</g>
<!-- Node37 -->
<g id="node37" class="node"><title>Node37</title>
<g id="a_node37"><a xlink:href="../../dc/d24/TOF_2reconstruction_2include_2TOFReconstruction_2Clusterer_8h.html" target="_top" xlink:title="TOFReconstruction/Clusterer.h">
<polygon fill="none" stroke="black" points="1429.5,-408.5 1429.5,-427.5 1582.5,-427.5 1582.5,-408.5 1429.5,-408.5"/>
<text text-anchor="middle" x="1506" y="-415.5" font-family="Helvetica,sans-Serif" font-size="10.00">TOFReconstruction/Clusterer.h</text>
</a>
</g>
</g>
<!-- Node1&#45;&gt;Node37 -->
<g id="edge42" class="edge"><title>Node1&#45;&gt;Node37</title>
<path fill="none" stroke="midnightblue" d="M1471.84,-464.768C1478.99,-455.183 1486.96,-444.506 1493.4,-435.877"/>
<polygon fill="midnightblue" stroke="midnightblue" points="1496.29,-437.864 1499.46,-427.757 1490.68,-433.677 1496.29,-437.864"/>
</g>
<!-- Node42 -->
<g id="node42" class="node"><title>Node42</title>
<g id="a_node42"><a xlink:href="../../db/d14/MCTruthContainer_8h.html" target="_top" xlink:title="Definition of a container to keep Monte Carlo truth external to simulation objects. ">
<polygon fill="none" stroke="black" points="1715,-341 1715,-371 1829,-371 1829,-341 1715,-341"/>
<text text-anchor="start" x="1723" y="-359" font-family="Helvetica,sans-Serif" font-size="10.00">SimulationDataFormat</text>
<text text-anchor="middle" x="1772" y="-348" font-family="Helvetica,sans-Serif" font-size="10.00">/MCTruthContainer.h</text>
</a>
</g>
</g>
<!-- Node1&#45;&gt;Node42 -->
<g id="edge62" class="edge"><title>Node1&#45;&gt;Node42</title>
<path fill="none" stroke="midnightblue" d="M1519.86,-464.953C1548.65,-453.945 1582.61,-440.662 1613,-428 1653.97,-410.928 1700.24,-390.086 1732.26,-375.413"/>
<polygon fill="midnightblue" stroke="midnightblue" points="1734.09,-378.423 1741.72,-371.068 1731.17,-372.063 1734.09,-378.423"/>
</g>
<!-- Node46 -->
<g id="node46" class="node"><title>Node46</title>
<g id="a_node46"><a xlink:href="../../d7/dcd/MCCompLabel_8h.html" target="_top" xlink:title="SimulationDataFormat\l/MCCompLabel.h">
<polygon fill="none" stroke="black" points="1583,-341 1583,-371 1697,-371 1697,-341 1583,-341"/>
<text text-anchor="start" x="1591" y="-359" font-family="Helvetica,sans-Serif" font-size="10.00">SimulationDataFormat</text>
<text text-anchor="middle" x="1640" y="-348" font-family="Helvetica,sans-Serif" font-size="10.00">/MCCompLabel.h</text>
</a>
</g>
</g>
<!-- Node1&#45;&gt;Node46 -->
<g id="edge61" class="edge"><title>Node1&#45;&gt;Node46</title>
<path fill="none" stroke="midnightblue" d="M1527.84,-465.152C1549.64,-455.687 1572.53,-443.381 1591,-428 1606.82,-414.824 1619.78,-395.325 1628.39,-380.094"/>
<polygon fill="midnightblue" stroke="midnightblue" points="1631.49,-381.716 1633.17,-371.256 1625.33,-378.384 1631.49,-381.716"/>
</g>
<!-- Node5 -->
<g id="node5" class="node"><title>Node5</title>
<g id="a_node5"><a xlink:href="../../d4/de2/BaseCluster_8h.html" target="_top" xlink:title="ReconstructionDataFormats\l/BaseCluster.h">
<polygon fill="none" stroke="black" points="835,-273 835,-303 975,-303 975,-273 835,-273"/>
<text text-anchor="start" x="843" y="-291" font-family="Helvetica,sans-Serif" font-size="10.00">ReconstructionDataFormats</text>
<text text-anchor="middle" x="905" y="-280" font-family="Helvetica,sans-Serif" font-size="10.00">/BaseCluster.h</text>
</a>
</g>
</g>
<!-- Node4&#45;&gt;Node5 -->
<g id="edge4" class="edge"><title>Node4&#45;&gt;Node5</title>
<path fill="none" stroke="midnightblue" d="M1123.44,-346.439C1084.35,-336.161 1017.89,-318.685 968.521,-305.703"/>
<polygon fill="midnightblue" stroke="midnightblue" points="969.136,-302.246 958.575,-303.087 967.356,-309.015 969.136,-302.246"/>
</g>
<!-- Node34 -->
<g id="node34" class="node"><title>Node34</title>
<polygon fill="none" stroke="#bfbfbf" points="1155.5,-205 1155.5,-235 1250.5,-235 1250.5,-205 1155.5,-205"/>
<text text-anchor="start" x="1163.5" y="-223" font-family="Helvetica,sans-Serif" font-size="10.00">boost/serialization</text>
<text text-anchor="middle" x="1203" y="-212" font-family="Helvetica,sans-Serif" font-size="10.00">/base_object.hpp</text>
</g>
<!-- Node4&#45;&gt;Node34 -->
<g id="edge39" class="edge"><title>Node4&#45;&gt;Node34</title>
<path fill="none" stroke="midnightblue" d="M1161.48,-346.289C1167.51,-336.381 1177.12,-319.555 1183,-304 1190.27,-284.781 1195.53,-262.037 1198.83,-245.222"/>
<polygon fill="midnightblue" stroke="midnightblue" points="1202.32,-245.597 1200.71,-235.125 1195.44,-244.313 1202.32,-245.597"/>
</g>
<!-- Node35 -->
<g id="node35" class="node"><title>Node35</title>
<polygon fill="none" stroke="#bfbfbf" points="1121.5,-278.5 1121.5,-297.5 1174.5,-297.5 1174.5,-278.5 1121.5,-278.5"/>
<text text-anchor="middle" x="1148" y="-285.5" font-family="Helvetica,sans-Serif" font-size="10.00">TMath.h</text>
</g>
<!-- Node4&#45;&gt;Node35 -->
<g id="edge40" class="edge"><title>Node4&#45;&gt;Node35</title>
<path fill="none" stroke="midnightblue" d="M1154.95,-346.372C1153.77,-336.643 1151.82,-320.528 1150.28,-307.85"/>
<polygon fill="midnightblue" stroke="midnightblue" points="1153.75,-307.347 1149.07,-297.841 1146.8,-308.19 1153.75,-307.347"/>
</g>
<!-- Node36 -->
<g id="node36" class="node"><title>Node36</title>
<polygon fill="none" stroke="#bfbfbf" points="771.5,-278.5 771.5,-297.5 816.5,-297.5 816.5,-278.5 771.5,-278.5"/>
<text text-anchor="middle" x="794" y="-285.5" font-family="Helvetica,sans-Serif" font-size="10.00">cstdlib</text>
</g>
<!-- Node4&#45;&gt;Node36 -->
<g id="edge41" class="edge"><title>Node4&#45;&gt;Node36</title>
<path fill="none" stroke="midnightblue" d="M1087.75,-350.157C1020.12,-344.038 914.171,-330.873 826,-304 823.722,-303.306 821.399,-302.477 819.098,-301.571"/>
<polygon fill="midnightblue" stroke="midnightblue" points="820.488,-298.359 809.924,-297.554 817.681,-304.772 820.488,-298.359"/>
</g>
<!-- Node6 -->
<g id="node6" class="node"><title>Node6</title>
<polygon fill="none" stroke="#bfbfbf" points="711.5,-210.5 711.5,-229.5 770.5,-229.5 770.5,-210.5 711.5,-210.5"/>
<text text-anchor="middle" x="741" y="-217.5" font-family="Helvetica,sans-Serif" font-size="10.00">TObject.h</text>
</g>
<!-- Node5&#45;&gt;Node6 -->
<g id="edge5" class="edge"><title>Node5&#45;&gt;Node6</title>
<path fill="none" stroke="midnightblue" d="M869.818,-272.841C840.815,-261.169 800.06,-244.768 772.206,-233.558"/>
<polygon fill="midnightblue" stroke="midnightblue" points="773.157,-230.168 762.573,-229.682 770.543,-236.662 773.157,-230.168"/>
</g>
<!-- Node7 -->
<g id="node7" class="node"><title>Node7</title>
<polygon fill="none" stroke="#bfbfbf" points="1183.5,-74.5 1183.5,-93.5 1224.5,-93.5 1224.5,-74.5 1183.5,-74.5"/>
<text text-anchor="middle" x="1204" y="-81.5" font-family="Helvetica,sans-Serif" font-size="10.00">bitset</text>
</g>
<!-- Node5&#45;&gt;Node7 -->
<g id="edge6" class="edge"><title>Node5&#45;&gt;Node7</title>
<path fill="none" stroke="midnightblue" d="M901.064,-272.843C892.112,-239.255 872.321,-156.061 890,-136 932.06,-88.2719 1113.13,-118.488 1174,-100 1175.96,-99.4035 1177.96,-98.6868 1179.93,-97.8944"/>
<polygon fill="midnightblue" stroke="midnightblue" points="1181.84,-100.87 1189.46,-93.507 1178.91,-94.5118 1181.84,-100.87"/>
</g>
<!-- Node8 -->
<g id="node8" class="node"><title>Node8</title>
<polygon fill="none" stroke="#bfbfbf" points="827,-210.5 827,-229.5 877,-229.5 877,-210.5 827,-210.5"/>
<text text-anchor="middle" x="852" y="-217.5" font-family="Helvetica,sans-Serif" font-size="10.00">iomanip</text>
</g>
<!-- Node5&#45;&gt;Node8 -->
<g id="edge7" class="edge"><title>Node5&#45;&gt;Node8</title>
<path fill="none" stroke="midnightblue" d="M893.5,-272.679C885.236,-262.388 874.07,-248.484 865.402,-237.69"/>
<polygon fill="midnightblue" stroke="midnightblue" points="868.08,-235.434 859.089,-229.828 862.622,-239.817 868.08,-235.434"/>
</g>
<!-- Node9 -->
<g id="node9" class="node"><title>Node9</title>
<polygon fill="none" stroke="#bfbfbf" points="933.5,-210.5 933.5,-229.5 962.5,-229.5 962.5,-210.5 933.5,-210.5"/>
<text text-anchor="middle" x="948" y="-217.5" font-family="Helvetica,sans-Serif" font-size="10.00">ios</text>
</g>
<!-- Node5&#45;&gt;Node9 -->
<g id="edge8" class="edge"><title>Node5&#45;&gt;Node9</title>
<path fill="none" stroke="midnightblue" d="M914.33,-272.679C920.902,-262.592 929.736,-249.033 936.706,-238.335"/>
<polygon fill="midnightblue" stroke="midnightblue" points="939.722,-240.118 942.248,-229.828 933.857,-236.296 939.722,-240.118"/>
</g>
<!-- Node10 -->
<g id="node10" class="node"><title>Node10</title>
<polygon fill="none" stroke="#bfbfbf" points="1120.5,-74.5 1120.5,-93.5 1165.5,-93.5 1165.5,-74.5 1120.5,-74.5"/>
<text text-anchor="middle" x="1143" y="-81.5" font-family="Helvetica,sans-Serif" font-size="10.00">iosfwd</text>
</g>
<!-- Node5&#45;&gt;Node10 -->
<g id="edge9" class="edge"><title>Node5&#45;&gt;Node10</title>
<path fill="none" stroke="midnightblue" d="M862.639,-272.894C845.619,-264.903 827.748,-253.014 818,-236 794.284,-194.608 817.505,-162.756 857,-136 951.396,-72.0517 1001.73,-132.556 1111,-100 1113.28,-99.32 1115.61,-98.5014 1117.91,-97.6019"/>
<polygon fill="midnightblue" stroke="midnightblue" points="1119.32,-100.805 1127.09,-93.5962 1116.52,-94.3891 1119.32,-100.805"/>
</g>
<!-- Node11 -->
<g id="node11" class="node"><title>Node11</title>
<g id="a_node11"><a xlink:href="../../d4/d20/DetMatrixCache_8h.html" target="_top" xlink:title="DetectorsCommonDataFormats\l/DetMatrixCache.h">
<polygon fill="none" stroke="black" points="981,-205 981,-235 1137,-235 1137,-205 981,-205"/>
<text text-anchor="start" x="989" y="-223" font-family="Helvetica,sans-Serif" font-size="10.00">DetectorsCommonDataFormats</text>
<text text-anchor="middle" x="1059" y="-212" font-family="Helvetica,sans-Serif" font-size="10.00">/DetMatrixCache.h</text>
</a>
</g>
</g>
<!-- Node5&#45;&gt;Node11 -->
<g id="edge10" class="edge"><title>Node5&#45;&gt;Node11</title>
<path fill="none" stroke="midnightblue" d="M938.037,-272.841C961.155,-262.933 992.225,-249.618 1017.09,-238.963"/>
<polygon fill="midnightblue" stroke="midnightblue" points="1018.47,-242.178 1026.28,-235.022 1015.71,-235.744 1018.47,-242.178"/>
</g>
<!-- Node24 -->
<g id="node24" class="node"><title>Node24</title>
<g id="a_node24"><a xlink:href="../../dd/d76/Cartesian3D_8h.html" target="_top" xlink:title="MathUtils/Cartesian3D.h">
<polygon fill="none" stroke="black" points="633.5,-142.5 633.5,-161.5 758.5,-161.5 758.5,-142.5 633.5,-142.5"/>
<text text-anchor="middle" x="696" y="-149.5" font-family="Helvetica,sans-Serif" font-size="10.00">MathUtils/Cartesian3D.h</text>
</a>
</g>
</g>
<!-- Node5&#45;&gt;Node24 -->
<g id="edge38" class="edge"><title>Node5&#45;&gt;Node24</title>
<path fill="none" stroke="midnightblue" d="M834.741,-273.545C779.634,-262.309 710.806,-246.489 702,-236 687.082,-218.232 688.519,-190.097 691.662,-171.591"/>
<polygon fill="midnightblue" stroke="midnightblue" points="695.105,-172.221 693.654,-161.726 688.244,-170.836 695.105,-172.221"/>
</g>
<!-- Node12 -->
<g id="node12" class="node"><title>Node12</title>
<polygon fill="none" stroke="#bfbfbf" points="899,-142.5 899,-161.5 1041,-161.5 1041,-142.5 899,-142.5"/>
<text text-anchor="middle" x="970" y="-149.5" font-family="Helvetica,sans-Serif" font-size="10.00">AliTPCCommonFairLogger.h</text>
</g>
<!-- Node11&#45;&gt;Node12 -->
<g id="edge11" class="edge"><title>Node11&#45;&gt;Node12</title>
<path fill="none" stroke="midnightblue" d="M1039.69,-204.679C1024.9,-193.713 1004.58,-178.645 989.699,-167.609"/>
<polygon fill="midnightblue" stroke="midnightblue" points="991.765,-164.783 981.648,-161.638 987.596,-170.406 991.765,-164.783"/>
</g>
<!-- Node13 -->
<g id="node13" class="node"><title>Node13</title>
<polygon fill="none" stroke="#bfbfbf" points="1059,-142.5 1059,-161.5 1187,-161.5 1187,-142.5 1059,-142.5"/>
<text text-anchor="middle" x="1123" y="-149.5" font-family="Helvetica,sans-Serif" font-size="10.00">AliTPCCommonRtypes.h</text>
</g>
<!-- Node11&#45;&gt;Node13 -->
<g id="edge12" class="edge"><title>Node11&#45;&gt;Node13</title>
<path fill="none" stroke="midnightblue" d="M1072.89,-204.679C1083.06,-194.184 1096.88,-179.932 1107.43,-169.052"/>
<polygon fill="midnightblue" stroke="midnightblue" points="1109.99,-171.444 1114.44,-161.828 1104.97,-166.571 1109.99,-171.444"/>
</g>
<!-- Node14 -->
<g id="node14" class="node"><title>Node14</title>
<polygon fill="none" stroke="#bfbfbf" points="1336,-6.5 1336,-25.5 1374,-25.5 1374,-6.5 1336,-6.5"/>
<text text-anchor="middle" x="1355" y="-13.5" font-family="Helvetica,sans-Serif" font-size="10.00">array</text>
</g>
<!-- Node11&#45;&gt;Node14 -->
<g id="edge13" class="edge"><title>Node11&#45;&gt;Node14</title>
<path fill="none" stroke="midnightblue" d="M1118.27,-204.934C1143.84,-196.93 1173.08,-185.02 1196,-168 1240.82,-134.723 1230.62,-105.474 1272,-68 1288.82,-52.7688 1310.8,-39.4954 1327.92,-30.3108"/>
<polygon fill="midnightblue" stroke="midnightblue" points="1329.62,-33.3718 1336.87,-25.6424 1326.38,-27.166 1329.62,-33.3718"/>
</g>
<!-- Node15 -->
<g id="node15" class="node"><title>Node15</title>
<polygon fill="none" stroke="#bfbfbf" points="1493,-142.5 1493,-161.5 1537,-161.5 1537,-142.5 1493,-142.5"/>
<text text-anchor="middle" x="1515" y="-149.5" font-family="Helvetica,sans-Serif" font-size="10.00">vector</text>
</g>
<!-- Node11&#45;&gt;Node15 -->
<g id="edge14" class="edge"><title>Node11&#45;&gt;Node15</title>
<path fill="none" stroke="midnightblue" d="M1137.22,-205.318C1140.19,-204.862 1143.12,-204.421 1146,-204 1278.88,-184.585 1313.57,-190.289 1446,-168 1458.03,-165.975 1471.14,-163.257 1482.66,-160.691"/>
<polygon fill="midnightblue" stroke="midnightblue" points="1483.76,-164.033 1492.73,-158.402 1482.2,-157.207 1483.76,-164.033"/>
</g>
<!-- Node16 -->
<g id="node16" class="node"><title>Node16</title>
<g id="a_node16"><a xlink:href="../../d6/d31/DetID_8h.html" target="_top" xlink:title="DetectorsCommonDataFormats\l/DetID.h">
<polygon fill="none" stroke="black" points="1281,-137 1281,-167 1437,-167 1437,-137 1281,-137"/>
<text text-anchor="start" x="1289" y="-155" font-family="Helvetica,sans-Serif" font-size="10.00">DetectorsCommonDataFormats</text>
<text text-anchor="middle" x="1359" y="-144" font-family="Helvetica,sans-Serif" font-size="10.00">/DetID.h</text>
</a>
</g>
</g>
<!-- Node11&#45;&gt;Node16 -->
<g id="edge15" class="edge"><title>Node11&#45;&gt;Node16</title>
<path fill="none" stroke="midnightblue" d="M1122.99,-204.922C1170.48,-194.474 1235.35,-180.203 1285.06,-169.267"/>
<polygon fill="midnightblue" stroke="midnightblue" points="1286.09,-172.623 1295.11,-167.056 1284.59,-165.787 1286.09,-172.623"/>
</g>
<!-- Node11&#45;&gt;Node24 -->
<g id="edge26" class="edge"><title>Node11&#45;&gt;Node24</title>
<path fill="none" stroke="midnightblue" d="M981.573,-204.922C912.933,-192.442 814.3,-174.509 752.749,-163.318"/>
<polygon fill="midnightblue" stroke="midnightblue" points="753.291,-159.859 742.826,-161.514 752.038,-166.746 753.291,-159.859"/>
</g>
<!-- Node16&#45;&gt;Node7 -->
<g id="edge18" class="edge"><title>Node16&#45;&gt;Node7</title>
<path fill="none" stroke="midnightblue" d="M1325.75,-136.841C1298.46,-125.221 1260.16,-108.912 1233.84,-97.7063"/>
<polygon fill="midnightblue" stroke="midnightblue" points="1234.96,-94.3794 1224.39,-93.6819 1232.22,-100.82 1234.96,-94.3794"/>
</g>
<!-- Node16&#45;&gt;Node14 -->
<g id="edge17" class="edge"><title>Node16&#45;&gt;Node14</title>
<path fill="none" stroke="midnightblue" d="M1358.57,-136.66C1357.85,-112.32 1356.37,-62.9332 1355.56,-35.8373"/>
<polygon fill="midnightblue" stroke="midnightblue" points="1359.06,-35.6186 1355.26,-25.7275 1352.06,-35.8275 1359.06,-35.6186"/>
</g>
<!-- Node17 -->
<g id="node17" class="node"><title>Node17</title>
<polygon fill="none" stroke="#bfbfbf" points="1491,-74.5 1491,-93.5 1547,-93.5 1547,-74.5 1491,-74.5"/>
<text text-anchor="middle" x="1519" y="-81.5" font-family="Helvetica,sans-Serif" font-size="10.00">Rtypes.h</text>
</g>
<!-- Node16&#45;&gt;Node17 -->
<g id="edge16" class="edge"><title>Node16&#45;&gt;Node17</title>
<path fill="none" stroke="midnightblue" d="M1393.32,-136.841C1421.62,-125.169 1461.38,-108.768 1488.56,-97.5585"/>
<polygon fill="midnightblue" stroke="midnightblue" points="1490.04,-100.731 1497.95,-93.6819 1487.37,-94.2597 1490.04,-100.731"/>
</g>
<!-- Node18 -->
<g id="node18" class="node"><title>Node18</title>
<polygon fill="none" stroke="#bfbfbf" points="1853.5,-74.5 1853.5,-93.5 1902.5,-93.5 1902.5,-74.5 1853.5,-74.5"/>
<text text-anchor="middle" x="1878" y="-81.5" font-family="Helvetica,sans-Serif" font-size="10.00">cassert</text>
</g>
<!-- Node16&#45;&gt;Node18 -->
<g id="edge19" class="edge"><title>Node16&#45;&gt;Node18</title>
<path fill="none" stroke="midnightblue" d="M1437.26,-141.048C1551.88,-126.472 1760.72,-99.9142 1843.18,-89.4283"/>
<polygon fill="midnightblue" stroke="midnightblue" points="1843.79,-92.878 1853.27,-88.1444 1842.91,-85.934 1843.79,-92.878"/>
</g>
<!-- Node19 -->
<g id="node19" class="node"><title>Node19</title>
<polygon fill="none" stroke="#bfbfbf" points="1281,-74.5 1281,-93.5 1327,-93.5 1327,-74.5 1281,-74.5"/>
<text text-anchor="middle" x="1304" y="-81.5" font-family="Helvetica,sans-Serif" font-size="10.00">cstdint</text>
</g>
<!-- Node16&#45;&gt;Node19 -->
<g id="edge20" class="edge"><title>Node16&#45;&gt;Node19</title>
<path fill="none" stroke="midnightblue" d="M1347.07,-136.679C1338.49,-126.388 1326.9,-112.484 1317.91,-101.69"/>
<polygon fill="midnightblue" stroke="midnightblue" points="1320.45,-99.2699 1311.36,-93.8283 1315.07,-103.751 1320.45,-99.2699"/>
</g>
<!-- Node20 -->
<g id="node20" class="node"><title>Node20</title>
<polygon fill="none" stroke="#bfbfbf" points="1658,-74.5 1658,-93.5 1720,-93.5 1720,-74.5 1658,-74.5"/>
<text text-anchor="middle" x="1689" y="-81.5" font-family="Helvetica,sans-Serif" font-size="10.00">type_traits</text>
</g>
<!-- Node16&#45;&gt;Node20 -->
<g id="edge21" class="edge"><title>Node16&#45;&gt;Node20</title>
<path fill="none" stroke="midnightblue" d="M1429.39,-136.922C1495.72,-123.656 1592.86,-104.228 1647.57,-93.2862"/>
<polygon fill="midnightblue" stroke="midnightblue" points="1648.48,-96.6737 1657.6,-91.2804 1647.11,-89.8096 1648.48,-96.6737"/>
</g>
<!-- Node21 -->
<g id="node21" class="node"><title>Node21</title>
<g id="a_node21"><a xlink:href="../../d9/d52/Common_2MathUtils_2include_2MathUtils_2Utils_8h.html" target="_top" xlink:title="MathUtils/Utils.h">
<polygon fill="none" stroke="black" points="1383,-74.5 1383,-93.5 1473,-93.5 1473,-74.5 1383,-74.5"/>
<text text-anchor="middle" x="1428" y="-81.5" font-family="Helvetica,sans-Serif" font-size="10.00">MathUtils/Utils.h</text>
</a>
</g>
</g>
<!-- Node16&#45;&gt;Node21 -->
<g id="edge22" class="edge"><title>Node16&#45;&gt;Node21</title>
<path fill="none" stroke="midnightblue" d="M1373.97,-136.679C1384.94,-126.184 1399.84,-111.932 1411.22,-101.052"/>
<polygon fill="midnightblue" stroke="midnightblue" points="1413.96,-103.27 1418.77,-93.8283 1409.12,-98.2113 1413.96,-103.27"/>
</g>
<!-- Node21&#45;&gt;Node14 -->
<g id="edge23" class="edge"><title>Node21&#45;&gt;Node14</title>
<path fill="none" stroke="midnightblue" d="M1418.46,-74.3717C1406.83,-63.8564 1386.95,-45.8819 1372.53,-32.8496"/>
<polygon fill="midnightblue" stroke="midnightblue" points="1374.54,-29.9514 1364.78,-25.8411 1369.85,-35.1438 1374.54,-29.9514"/>
</g>
<!-- Node22 -->
<g id="node22" class="node"><title>Node22</title>
<polygon fill="none" stroke="#bfbfbf" points="1399,-6.5 1399,-25.5 1443,-25.5 1443,-6.5 1399,-6.5"/>
<text text-anchor="middle" x="1421" y="-13.5" font-family="Helvetica,sans-Serif" font-size="10.00">cmath</text>
</g>
<!-- Node21&#45;&gt;Node22 -->
<g id="edge24" class="edge"><title>Node21&#45;&gt;Node22</title>
<path fill="none" stroke="midnightblue" d="M1427.08,-74.3717C1426.05,-64.6426 1424.34,-48.528 1423,-35.8504"/>
<polygon fill="midnightblue" stroke="midnightblue" points="1426.47,-35.4162 1421.94,-25.8411 1419.51,-36.1545 1426.47,-35.4162"/>
</g>
<!-- Node23 -->
<g id="node23" class="node"><title>Node23</title>
<g id="a_node23"><a xlink:href="../../d6/d84/MathConstants_8h.html" target="_top" xlink:title="useful math constants ">
<polygon fill="none" stroke="black" points="1461.5,-6.5 1461.5,-25.5 1640.5,-25.5 1640.5,-6.5 1461.5,-6.5"/>
<text text-anchor="middle" x="1551" y="-13.5" font-family="Helvetica,sans-Serif" font-size="10.00">CommonConstants/MathConstants.h</text>
</a>
</g>
</g>
<!-- Node21&#45;&gt;Node23 -->
<g id="edge25" class="edge"><title>Node21&#45;&gt;Node23</title>
<path fill="none" stroke="midnightblue" d="M1444.08,-74.3717C1464.89,-63.2051 1501.38,-43.6266 1525.86,-30.4876"/>
<polygon fill="midnightblue" stroke="midnightblue" points="1527.76,-33.4428 1534.92,-25.6305 1524.45,-27.2746 1527.76,-33.4428"/>
</g>
<!-- Node24&#45;&gt;Node10 -->
<g id="edge34" class="edge"><title>Node24&#45;&gt;Node10</title>
<path fill="none" stroke="midnightblue" d="M743.497,-142.48C756.894,-140.217 771.498,-137.882 785,-136 929.374,-115.879 970.674,-139.465 1111,-100 1113.34,-99.3413 1115.73,-98.5266 1118.08,-97.6203"/>
<polygon fill="midnightblue" stroke="midnightblue" points="1119.68,-100.745 1127.44,-93.5421 1116.88,-94.3275 1119.68,-100.745"/>
</g>
<!-- Node24&#45;&gt;Node17 -->
<g id="edge32" class="edge"><title>Node24&#45;&gt;Node17</title>
<path fill="none" stroke="midnightblue" d="M758.887,-145.875C796.846,-142.846 846.189,-139.026 890,-136 1152.97,-117.839 1224.93,-158.282 1482,-100 1485.24,-99.2644 1488.57,-98.2773 1491.84,-97.1588"/>
<polygon fill="midnightblue" stroke="midnightblue" points="1493.23,-100.376 1501.31,-93.5298 1490.72,-93.8395 1493.23,-100.376"/>
</g>
<!-- Node25 -->
<g id="node25" class="node"><title>Node25</title>
<polygon fill="none" stroke="#bfbfbf" points="776.5,-69 776.5,-99 927.5,-99 927.5,-69 776.5,-69"/>
<text text-anchor="start" x="784.5" y="-87" font-family="Helvetica,sans-Serif" font-size="10.00">Math/GenVector/Displacement</text>
<text text-anchor="middle" x="852" y="-76" font-family="Helvetica,sans-Serif" font-size="10.00">Vector3D.h</text>
</g>
<!-- Node24&#45;&gt;Node25 -->
<g id="edge27" class="edge"><title>Node24&#45;&gt;Node25</title>
<path fill="none" stroke="midnightblue" d="M716.394,-142.372C739.869,-132.44 779.073,-115.854 809.307,-103.063"/>
<polygon fill="midnightblue" stroke="midnightblue" points="810.93,-106.176 818.776,-99.0562 808.203,-99.7293 810.93,-106.176"/>
</g>
<!-- Node26 -->
<g id="node26" class="node"><title>Node26</title>
<polygon fill="none" stroke="#bfbfbf" points="0,-74.5 0,-93.5 176,-93.5 176,-74.5 0,-74.5"/>
<text text-anchor="middle" x="88" y="-81.5" font-family="Helvetica,sans-Serif" font-size="10.00">Math/GenVector/PositionVector3D.h</text>
</g>
<!-- Node24&#45;&gt;Node26 -->
<g id="edge28" class="edge"><title>Node24&#45;&gt;Node26</title>
<path fill="none" stroke="midnightblue" d="M633.212,-145.88C536.537,-137.742 345.488,-120.643 184,-100 172.741,-98.5607 160.768,-96.8418 149.234,-95.0895"/>
<polygon fill="midnightblue" stroke="midnightblue" points="149.658,-91.6135 139.241,-93.5473 148.59,-98.5316 149.658,-91.6135"/>
</g>
<!-- Node27 -->
<g id="node27" class="node"><title>Node27</title>
<polygon fill="none" stroke="#bfbfbf" points="193.5,-74.5 193.5,-93.5 342.5,-93.5 342.5,-74.5 193.5,-74.5"/>
<text text-anchor="middle" x="268" y="-81.5" font-family="Helvetica,sans-Serif" font-size="10.00">Math/GenVector/Rotation3D.h</text>
</g>
<!-- Node24&#45;&gt;Node27 -->
<g id="edge29" class="edge"><title>Node24&#45;&gt;Node27</title>
<path fill="none" stroke="midnightblue" d="M634.707,-142.47C565.842,-132.756 450.762,-116.135 352,-100 343.089,-98.5441 333.659,-96.9311 324.462,-95.3184"/>
<polygon fill="midnightblue" stroke="midnightblue" points="325.068,-91.8712 314.611,-93.576 323.848,-98.7642 325.068,-91.8712"/>
</g>
<!-- Node28 -->
<g id="node28" class="node"><title>Node28</title>
<polygon fill="none" stroke="#bfbfbf" points="946,-74.5 946,-93.5 1102,-93.5 1102,-74.5 946,-74.5"/>
<text text-anchor="middle" x="1024" y="-81.5" font-family="Helvetica,sans-Serif" font-size="10.00">Math/GenVector/Transform3D.h</text>
</g>
<!-- Node24&#45;&gt;Node28 -->
<g id="edge30" class="edge"><title>Node24&#45;&gt;Node28</title>
<path fill="none" stroke="midnightblue" d="M738.544,-142.439C798.27,-130.421 906.891,-108.565 971.546,-95.5547"/>
<polygon fill="midnightblue" stroke="midnightblue" points="972.418,-98.9495 981.531,-93.5455 971.037,-92.087 972.418,-98.9495"/>
</g>
<!-- Node29 -->
<g id="node29" class="node"><title>Node29</title>
<polygon fill="none" stroke="#bfbfbf" points="361,-74.5 361,-93.5 521,-93.5 521,-74.5 361,-74.5"/>
<text text-anchor="middle" x="441" y="-81.5" font-family="Helvetica,sans-Serif" font-size="10.00">Math/GenVector/Translation3D.h</text>
</g>
<!-- Node24&#45;&gt;Node29 -->
<g id="edge31" class="edge"><title>Node24&#45;&gt;Node29</title>
<path fill="none" stroke="midnightblue" d="M662.925,-142.439C617.16,-130.594 534.47,-109.192 483.973,-96.1223"/>
<polygon fill="midnightblue" stroke="midnightblue" points="484.575,-92.6629 474.017,-93.5455 482.821,-99.4396 484.575,-92.6629"/>
</g>
<!-- Node30 -->
<g id="node30" class="node"><title>Node30</title>
<polygon fill="none" stroke="#bfbfbf" points="539,-74.5 539,-93.5 615,-93.5 615,-74.5 539,-74.5"/>
<text text-anchor="middle" x="577" y="-81.5" font-family="Helvetica,sans-Serif" font-size="10.00">TGeoMatrix.h</text>
</g>
<!-- Node24&#45;&gt;Node30 -->
<g id="edge33" class="edge"><title>Node24&#45;&gt;Node30</title>
<path fill="none" stroke="midnightblue" d="M680.443,-142.372C660.309,-131.205 625.009,-111.627 601.319,-98.4876"/>
<polygon fill="midnightblue" stroke="midnightblue" points="603.004,-95.4199 592.561,-93.6305 599.608,-101.541 603.004,-95.4199"/>
</g>
<!-- Node31 -->
<g id="node31" class="node"><title>Node31</title>
<g id="a_node31"><a xlink:href="../../d2/dd0/Cartesian2D_8h.html" target="_top" xlink:title="MathUtils/Cartesian2D.h">
<polygon fill="none" stroke="black" points="633.5,-74.5 633.5,-93.5 758.5,-93.5 758.5,-74.5 633.5,-74.5"/>
<text text-anchor="middle" x="696" y="-81.5" font-family="Helvetica,sans-Serif" font-size="10.00">MathUtils/Cartesian2D.h</text>
</a>
</g>
</g>
<!-- Node24&#45;&gt;Node31 -->
<g id="edge35" class="edge"><title>Node24&#45;&gt;Node31</title>
<path fill="none" stroke="midnightblue" d="M696,-142.372C696,-132.643 696,-116.528 696,-103.85"/>
<polygon fill="midnightblue" stroke="midnightblue" points="699.5,-103.841 696,-93.8411 692.5,-103.841 699.5,-103.841"/>
</g>
<!-- Node32 -->
<g id="node32" class="node"><title>Node32</title>
<polygon fill="none" stroke="#bfbfbf" points="711.5,-1 711.5,-31 862.5,-31 862.5,-1 711.5,-1"/>
<text text-anchor="start" x="719.5" y="-19" font-family="Helvetica,sans-Serif" font-size="10.00">Math/GenVector/Displacement</text>
<text text-anchor="middle" x="787" y="-8" font-family="Helvetica,sans-Serif" font-size="10.00">Vector2D.h</text>
</g>
<!-- Node31&#45;&gt;Node32 -->
<g id="edge36" class="edge"><title>Node31&#45;&gt;Node32</title>
<path fill="none" stroke="midnightblue" d="M707.897,-74.3717C720.779,-65.0286 741.78,-49.7966 758.907,-37.375"/>
<polygon fill="midnightblue" stroke="midnightblue" points="761.407,-39.8859 767.447,-31.1815 757.297,-34.2194 761.407,-39.8859"/>
</g>
<!-- Node33 -->
<g id="node33" class="node"><title>Node33</title>
<polygon fill="none" stroke="#bfbfbf" points="517,-6.5 517,-25.5 693,-25.5 693,-6.5 517,-6.5"/>
<text text-anchor="middle" x="605" y="-13.5" font-family="Helvetica,sans-Serif" font-size="10.00">Math/GenVector/PositionVector2D.h</text>
</g>
<!-- Node31&#45;&gt;Node33 -->
<g id="edge37" class="edge"><title>Node31&#45;&gt;Node33</title>
<path fill="none" stroke="midnightblue" d="M684.103,-74.3717C669.116,-63.5015 643.138,-44.6602 625.058,-31.5474"/>
<polygon fill="midnightblue" stroke="midnightblue" points="627.05,-28.6684 616.9,-25.6305 622.94,-34.3349 627.05,-28.6684"/>
</g>
<!-- Node37&#45;&gt;Node4 -->
<g id="edge45" class="edge"><title>Node37&#45;&gt;Node4</title>
<path fill="none" stroke="midnightblue" d="M1455.18,-408.471C1401.82,-399.492 1315.49,-384.897 1241,-372 1232.31,-370.495 1223.12,-368.89 1214.13,-367.309"/>
<polygon fill="midnightblue" stroke="midnightblue" points="1214.55,-363.829 1204.09,-365.542 1213.33,-370.723 1214.55,-363.829"/>
</g>
<!-- Node37&#45;&gt;Node15 -->
<g id="edge44" class="edge"><title>Node37&#45;&gt;Node15</title>
<path fill="none" stroke="midnightblue" d="M1502.17,-408.229C1489.82,-378.668 1453.25,-280.273 1478,-204 1482.19,-191.095 1491,-178.723 1498.98,-169.397"/>
<polygon fill="midnightblue" stroke="midnightblue" points="1501.78,-171.518 1505.91,-161.761 1496.6,-166.813 1501.78,-171.518"/>
</g>
<!-- Node38 -->
<g id="node38" class="node"><title>Node38</title>
<polygon fill="none" stroke="#bfbfbf" points="1525,-346.5 1525,-365.5 1565,-365.5 1565,-346.5 1525,-346.5"/>
<text text-anchor="middle" x="1545" y="-353.5" font-family="Helvetica,sans-Serif" font-size="10.00">utility</text>
</g>
<!-- Node37&#45;&gt;Node38 -->
<g id="edge43" class="edge"><title>Node37&#45;&gt;Node38</title>
<path fill="none" stroke="midnightblue" d="M1511.59,-408.403C1517.38,-399.493 1526.59,-385.325 1533.87,-374.118"/>
<polygon fill="midnightblue" stroke="midnightblue" points="1536.91,-375.873 1539.42,-365.581 1531.04,-372.058 1536.91,-375.873"/>
</g>
<!-- Node39 -->
<g id="node39" class="node"><title>Node39</title>
<g id="a_node39"><a xlink:href="../../d4/d54/Geo_8h.html" target="_top" xlink:title="TOFBase/Geo.h">
<polygon fill="none" stroke="black" points="1487,-210.5 1487,-229.5 1575,-229.5 1575,-210.5 1487,-210.5"/>
<text text-anchor="middle" x="1531" y="-217.5" font-family="Helvetica,sans-Serif" font-size="10.00">TOFBase/Geo.h</text>
</a>
</g>
</g>
<!-- Node37&#45;&gt;Node39 -->
<g id="edge46" class="edge"><title>Node37&#45;&gt;Node39</title>
<path fill="none" stroke="midnightblue" d="M1507.11,-408.325C1510.89,-378.664 1523.37,-280.85 1528.63,-239.604"/>
<polygon fill="midnightblue" stroke="midnightblue" points="1532.11,-239.937 1529.91,-229.575 1525.17,-239.051 1532.11,-239.937"/>
</g>
<!-- Node40 -->
<g id="node40" class="node"><title>Node40</title>
<g id="a_node40"><a xlink:href="../../d0/d1a/DataReader_8h.html" target="_top" xlink:title="Definition of the TOF hit reader. ">
<polygon fill="none" stroke="black" points="1250,-346.5 1250,-365.5 1416,-365.5 1416,-346.5 1250,-346.5"/>
<text text-anchor="middle" x="1333" y="-353.5" font-family="Helvetica,sans-Serif" font-size="10.00">TOFReconstruction/DataReader.h</text>
</a>
</g>
</g>
<!-- Node37&#45;&gt;Node40 -->
<g id="edge48" class="edge"><title>Node37&#45;&gt;Node40</title>
<path fill="none" stroke="midnightblue" d="M1481.21,-408.403C1451.41,-398.067 1401.21,-380.656 1367.6,-368.999"/>
<polygon fill="midnightblue" stroke="midnightblue" points="1368.34,-365.551 1357.74,-365.581 1366.04,-372.164 1368.34,-365.551"/>
</g>
<!-- Node37&#45;&gt;Node42 -->
<g id="edge53" class="edge"><title>Node37&#45;&gt;Node42</title>
<path fill="none" stroke="midnightblue" d="M1543.97,-408.481C1582.17,-399.908 1643.01,-386.234 1704.84,-372.261"/>
<polygon fill="midnightblue" stroke="midnightblue" points="1705.78,-375.635 1714.76,-370.016 1704.24,-368.808 1705.78,-375.635"/>
</g>
<!-- Node37&#45;&gt;Node46 -->
<g id="edge59" class="edge"><title>Node37&#45;&gt;Node46</title>
<path fill="none" stroke="midnightblue" d="M1525.2,-408.403C1544.51,-399.755 1574.89,-386.155 1599.54,-375.115"/>
<polygon fill="midnightblue" stroke="midnightblue" points="1600.98,-378.306 1608.68,-371.025 1598.12,-371.918 1600.98,-378.306"/>
</g>
<!-- Node39&#45;&gt;Node17 -->
<g id="edge47" class="edge"><title>Node39&#45;&gt;Node17</title>
<path fill="none" stroke="midnightblue" d="M1534.8,-210.197C1540.86,-194.954 1551.42,-162.713 1545,-136 1542.11,-123.969 1535.88,-111.578 1530.25,-102.022"/>
<polygon fill="midnightblue" stroke="midnightblue" points="1533.21,-100.165 1524.95,-93.5301 1527.27,-103.868 1533.21,-100.165"/>
</g>
<!-- Node41 -->
<g id="node41" class="node"><title>Node41</title>
<g id="a_node41"><a xlink:href="../../df/d9c/TOF_2base_2include_2TOFBase_2Digit_8h.html" target="_top" xlink:title="TOFBase/Digit.h">
<polygon fill="none" stroke="black" points="1261,-278.5 1261,-297.5 1351,-297.5 1351,-278.5 1261,-278.5"/>
<text text-anchor="middle" x="1306" y="-285.5" font-family="Helvetica,sans-Serif" font-size="10.00">TOFBase/Digit.h</text>
</a>
</g>
</g>
<!-- Node40&#45;&gt;Node41 -->
<g id="edge49" class="edge"><title>Node40&#45;&gt;Node41</title>
<path fill="none" stroke="midnightblue" d="M1329.47,-346.372C1325.45,-336.544 1318.76,-320.202 1313.55,-307.467"/>
<polygon fill="midnightblue" stroke="midnightblue" points="1316.64,-305.771 1309.62,-297.841 1310.16,-308.422 1316.64,-305.771"/>
</g>
<!-- Node41&#45;&gt;Node10 -->
<g id="edge50" class="edge"><title>Node41&#45;&gt;Node10</title>
<path fill="none" stroke="midnightblue" d="M1301.94,-278.359C1294.46,-262.817 1277.57,-229.4 1259,-204 1234.69,-170.74 1224.86,-165.407 1196,-136 1184.03,-123.798 1170.08,-110.411 1159.5,-100.415"/>
<polygon fill="midnightblue" stroke="midnightblue" points="1161.84,-97.808 1152.16,-93.5079 1157.04,-102.908 1161.84,-97.808"/>
</g>
<!-- Node41&#45;&gt;Node17 -->
<g id="edge51" class="edge"><title>Node41&#45;&gt;Node17</title>
<path fill="none" stroke="midnightblue" d="M1317.37,-278.262C1341.84,-259.252 1400.96,-212.283 1446,-168 1468.14,-146.231 1491.45,-118.825 1505.61,-101.602"/>
<polygon fill="midnightblue" stroke="midnightblue" points="1508.52,-103.571 1512.13,-93.6084 1503.1,-99.1484 1508.52,-103.571"/>
</g>
<!-- Node41&#45;&gt;Node34 -->
<g id="edge52" class="edge"><title>Node41&#45;&gt;Node34</title>
<path fill="none" stroke="midnightblue" d="M1292.53,-278.372C1277.69,-268.857 1253.31,-253.236 1233.73,-240.694"/>
<polygon fill="midnightblue" stroke="midnightblue" points="1235.44,-237.63 1225.13,-235.181 1231.66,-243.524 1235.44,-237.63"/>
</g>
<!-- Node42&#45;&gt;Node18 -->
<g id="edge55" class="edge"><title>Node42&#45;&gt;Node18</title>
<path fill="none" stroke="midnightblue" d="M1829.09,-341.567C1848.66,-333.934 1868.51,-322.128 1880,-304 1920.45,-240.159 1896.88,-143.424 1884.32,-103.366"/>
<polygon fill="midnightblue" stroke="midnightblue" points="1887.64,-102.26 1881.2,-93.8469 1880.99,-104.44 1887.64,-102.26"/>
</g>
<!-- Node42&#45;&gt;Node20 -->
<g id="edge58" class="edge"><title>Node42&#45;&gt;Node20</title>
<path fill="none" stroke="midnightblue" d="M1771.37,-340.703C1770.39,-324.004 1767.94,-295.649 1762,-272 1745.84,-207.643 1713.34,-135.579 1697.74,-102.869"/>
<polygon fill="midnightblue" stroke="midnightblue" points="1700.81,-101.177 1693.31,-93.6917 1694.51,-104.219 1700.81,-101.177"/>
</g>
<!-- Node43 -->
<g id="node43" class="node"><title>Node43</title>
<polygon fill="none" stroke="#bfbfbf" points="1810,-278.5 1810,-297.5 1872,-297.5 1872,-278.5 1810,-278.5"/>
<text text-anchor="middle" x="1841" y="-285.5" font-family="Helvetica,sans-Serif" font-size="10.00">TNamed.h</text>
</g>
<!-- Node42&#45;&gt;Node43 -->
<g id="edge54" class="edge"><title>Node42&#45;&gt;Node43</title>
<path fill="none" stroke="midnightblue" d="M1786.97,-340.679C1797.94,-330.184 1812.84,-315.932 1824.22,-305.052"/>
<polygon fill="midnightblue" stroke="midnightblue" points="1826.96,-307.27 1831.77,-297.828 1822.12,-302.211 1826.96,-307.27"/>
</g>
<!-- Node44 -->
<g id="node44" class="node"><title>Node44</title>
<polygon fill="none" stroke="#bfbfbf" points="1631.5,-278.5 1631.5,-297.5 1690.5,-297.5 1690.5,-278.5 1631.5,-278.5"/>
<text text-anchor="middle" x="1661" y="-285.5" font-family="Helvetica,sans-Serif" font-size="10.00">stdexcept</text>
</g>
<!-- Node42&#45;&gt;Node44 -->
<g id="edge56" class="edge"><title>Node42&#45;&gt;Node44</title>
<path fill="none" stroke="midnightblue" d="M1748.19,-340.841C1729.33,-329.63 1703.14,-314.056 1684.39,-302.91"/>
<polygon fill="midnightblue" stroke="midnightblue" points="1685.99,-299.784 1675.6,-297.682 1682.41,-305.801 1685.99,-299.784"/>
</g>
<!-- Node45 -->
<g id="node45" class="node"><title>Node45</title>
<polygon fill="none" stroke="#bfbfbf" points="1708.5,-278.5 1708.5,-297.5 1753.5,-297.5 1753.5,-278.5 1708.5,-278.5"/>
<text text-anchor="middle" x="1731" y="-285.5" font-family="Helvetica,sans-Serif" font-size="10.00">gsl/gsl</text>
</g>
<!-- Node42&#45;&gt;Node45 -->
<g id="edge57" class="edge"><title>Node42&#45;&gt;Node45</title>
<path fill="none" stroke="midnightblue" d="M1763.1,-340.679C1756.84,-330.592 1748.41,-317.033 1741.77,-306.335"/>
<polygon fill="midnightblue" stroke="midnightblue" points="1744.73,-304.476 1736.48,-297.828 1738.79,-308.17 1744.73,-304.476"/>
</g>
<!-- Node46&#45;&gt;Node17 -->
<g id="edge60" class="edge"><title>Node46&#45;&gt;Node17</title>
<path fill="none" stroke="midnightblue" d="M1635.03,-340.779C1619.07,-295.247 1569.58,-154.931 1559,-136 1552.04,-123.541 1542.15,-110.908 1533.95,-101.332"/>
<polygon fill="midnightblue" stroke="midnightblue" points="1536.54,-98.9688 1527.3,-93.7845 1531.29,-103.599 1536.54,-98.9688"/>
</g>
</g>
</svg>
        <g id="navigator" transform="translate(0 0)" fill="#404254">
                <rect fill="#f2f5e9" fill-opacity="0.5" stroke="#606060" stroke-width=".5" x="0" y="0" width="60" height="60"/>
                <use id="zoomplus" xlink:href="#zoomPlus" x="17" y="9" onmousedown="handleZoom(evt,'in')"/>
                <use id="zoomminus" xlink:href="#zoomMin" x="42" y="9" onmousedown="handleZoom(evt,'out')"/>
                <use id="reset" xlink:href="#resetDef" x="30" y="36" onmousedown="handleReset()"/>
                <g id="arrowUp" xlink:href="#dirArrow" transform="translate(30 24)" onmousedown="handlePan(0,-1)">
                  <use xlink:href="#rim" fill="#404040">
                        <set attributeName="fill" to="#808080" begin="arrowUp.mouseover" end="arrowUp.mouseout"/>
                  </use>
                  <path fill="none" stroke="white" stroke-width="1.5" d="M0,-3.0v7 M-2.5,-0.5L0,-3.0L2.5,-0.5"/>
                </g>
                <g id="arrowRight" xlink:href="#dirArrow" transform="rotate(90) translate(36 -43)" onmousedown="handlePan(1,0)">
                  <use xlink:href="#rim" fill="#404040">
                        <set attributeName="fill" to="#808080" begin="arrowRight.mouseover" end="arrowRight.mouseout"/>
                  </use>
                  <path fill="none" stroke="white" stroke-width="1.5" d="M0,-3.0v7 M-2.5,-0.5L0,-3.0L2.5,-0.5"/>
                </g>
                <g id="arrowDown" xlink:href="#dirArrow" transform="rotate(180) translate(-30 -48)" onmousedown="handlePan(0,1)">
                  <use xlink:href="#rim" fill="#404040">
                        <set attributeName="fill" to="#808080" begin="arrowDown.mouseover" end="arrowDown.mouseout"/>
                  </use>
                  <path fill="none" stroke="white" stroke-width="1.5" d="M0,-3.0v7 M-2.5,-0.5L0,-3.0L2.5,-0.5"/>
                </g>
                <g id="arrowLeft" xlink:href="#dirArrow" transform="rotate(270) translate(-36 17)" onmousedown="handlePan(-1,0)">
                  <use xlink:href="#rim" fill="#404040">
                        <set attributeName="fill" to="#808080" begin="arrowLeft.mouseover" end="arrowLeft.mouseout"/>
                  </use>
                  <path fill="none" stroke="white" stroke-width="1.5" d="M0,-3.0v7 M-2.5,-0.5L0,-3.0L2.5,-0.5"/>
                </g>
        </g>
        <svg viewBox="0 0 15 15" width="100%" height="30px" preserveAspectRatio="xMaxYMin meet">
         <g id="arrow_out" transform="scale(0.3 0.3)">
          <a xlink:href="TOF_2reconstruction_2src_2Clusterer_8cxx__incl_org.svg" target="_base">
           <rect id="button" ry="5" rx="5" y="6" x="6" height="38" width="38"
                fill="#f2f5e9" fill-opacity="0.5" stroke="#606060" stroke-width="1.0"/>
           <path id="arrow"
             d="M 11.500037,31.436501 C 11.940474,20.09759 22.043105,11.32322 32.158766,21.979434 L 37.068811,17.246167 C 37.068811,17.246167 37.088388,32 37.088388,32 L 22.160133,31.978069 C 22.160133,31.978069 26.997745,27.140456 26.997745,27.140456 C 18.528582,18.264221 13.291696,25.230495 11.500037,31.436501 z"
             style="fill:#404040;"/>
          </a>
         </g>
        </svg>
</svg>
