<?xml version="1.0" encoding="UTF-8" standalone="no"?>
<!DOCTYPE svg PUBLIC "-//W3C//DTD SVG 1.1//EN"
 "http://www.w3.org/Graphics/SVG/1.1/DTD/svg11.dtd">
<!-- Generated by graphviz version 2.36.0 (20140111.2315)
 -->
<!-- Title: /home/travis/build/AliceO2Group/AliceO2/Detectors/ITSMFT/ITS/base/src/GeometryTGeo.cxx Pages: 1 -->
<svg width="2330pt" height="446pt"
 viewBox="0.00 0.00 2330.00 446.00" xmlns="http://www.w3.org/2000/svg" xmlns:xlink="http://www.w3.org/1999/xlink">
<g id="graph0" class="graph" transform="scale(1 1) rotate(0) translate(4 442)">
<title>/home/travis/build/AliceO2Group/AliceO2/Detectors/ITSMFT/ITS/base/src/GeometryTGeo.cxx</title>
<!-- Node1 -->
<g id="node1" class="node"><title>Node1</title>
<polygon fill="#bfbfbf" stroke="black" points="1487,-385 1487,-437 1633,-437 1633,-385 1487,-385"/>
<text text-anchor="start" x="1495" y="-425" font-family="Helvetica,sans-Serif" font-size="10.00">/home/travis/build</text>
<text text-anchor="start" x="1495" y="-414" font-family="Helvetica,sans-Serif" font-size="10.00">/AliceO2Group/AliceO2</text>
<text text-anchor="start" x="1495" y="-403" font-family="Helvetica,sans-Serif" font-size="10.00">/Detectors/ITSMFT/ITS</text>
<text text-anchor="middle" x="1560" y="-392" font-family="Helvetica,sans-Serif" font-size="10.00">/base/src/GeometryTGeo.cxx</text>
</g>
<!-- Node2 -->
<g id="node2" class="node"><title>Node2</title>
<g id="a_node2"><a xlink:href="../../df/d9a/ITS_2base_2include_2ITSBase_2GeometryTGeo_8h.html" target="_top" xlink:title="ITSBase/GeometryTGeo.h">
<polygon fill="none" stroke="black" points="707.5,-328.5 707.5,-347.5 840.5,-347.5 840.5,-328.5 707.5,-328.5"/>
<text text-anchor="middle" x="774" y="-335.5" font-family="Helvetica,sans-Serif" font-size="10.00">ITSBase/GeometryTGeo.h</text>
</a>
</g>
</g>
<!-- Node1&#45;&gt;Node2 -->
<g id="edge1" class="edge"><title>Node1&#45;&gt;Node2</title>
<path fill="none" stroke="midnightblue" d="M1486.76,-403.384C1338.12,-389.957 1002.31,-359.623 850.76,-345.934"/>
<polygon fill="midnightblue" stroke="midnightblue" points="850.884,-342.431 840.61,-345.017 850.255,-349.402 850.884,-342.431"/>
</g>
<!-- Node3 -->
<g id="node3" class="node"><title>Node3</title>
<polygon fill="none" stroke="#bfbfbf" points="1861,-74.5 1861,-93.5 1937,-93.5 1937,-74.5 1861,-74.5"/>
<text text-anchor="middle" x="1899" y="-81.5" font-family="Helvetica,sans-Serif" font-size="10.00">TGeoMatrix.h</text>
</g>
<!-- Node1&#45;&gt;Node3 -->
<g id="edge64" class="edge"><title>Node1&#45;&gt;Node3</title>
<path fill="none" stroke="midnightblue" d="M1573.89,-384.673C1584.22,-367.347 1599.53,-344.598 1617,-328 1673.15,-274.656 1705.79,-285.929 1765,-236 1815.53,-193.389 1864.33,-131.612 1886.53,-102.032"/>
<polygon fill="midnightblue" stroke="midnightblue" points="1889.62,-103.741 1892.77,-93.6251 1884,-99.5686 1889.62,-103.741"/>
</g>
<!-- Node4 -->
<g id="node4" class="node"><title>Node4</title>
<polygon fill="none" stroke="#bfbfbf" points="993.5,-210.5 993.5,-229.5 1052.5,-229.5 1052.5,-210.5 993.5,-210.5"/>
<text text-anchor="middle" x="1023" y="-217.5" font-family="Helvetica,sans-Serif" font-size="10.00">TObject.h</text>
</g>
<!-- Node1&#45;&gt;Node4 -->
<g id="edge69" class="edge"><title>Node1&#45;&gt;Node4</title>
<path fill="none" stroke="midnightblue" d="M1486.96,-389.544C1411.5,-367.767 1290.73,-331.109 1189,-292 1139.95,-273.142 1083.95,-248.533 1051.14,-233.793"/>
<polygon fill="midnightblue" stroke="midnightblue" points="1052.29,-230.472 1041.73,-229.553 1049.41,-236.854 1052.29,-230.472"/>
</g>
<!-- Node8 -->
<g id="node8" class="node"><title>Node8</title>
<g id="a_node8"><a xlink:href="../../db/dcc/Detectors_2Base_2include_2DetectorsBase_2GeometryManager_8h.html" target="_top" xlink:title="DetectorsBase/GeometryManager.h">
<polygon fill="none" stroke="black" points="1198.5,-272.5 1198.5,-291.5 1371.5,-291.5 1371.5,-272.5 1198.5,-272.5"/>
<text text-anchor="middle" x="1285" y="-279.5" font-family="Helvetica,sans-Serif" font-size="10.00">DetectorsBase/GeometryManager.h</text>
</a>
</g>
</g>
<!-- Node1&#45;&gt;Node8 -->
<g id="edge52" class="edge"><title>Node1&#45;&gt;Node8</title>
<path fill="none" stroke="midnightblue" d="M1486.74,-386.686C1456.53,-376.163 1421.52,-362.775 1391,-348 1360.03,-333.006 1326.53,-311.481 1305.65,-297.374"/>
<polygon fill="midnightblue" stroke="midnightblue" points="1307.5,-294.395 1297.27,-291.643 1303.55,-300.175 1307.5,-294.395"/>
</g>
<!-- Node9 -->
<g id="node9" class="node"><title>Node9</title>
<polygon fill="none" stroke="#bfbfbf" points="1287,-210.5 1287,-229.5 1373,-229.5 1373,-210.5 1287,-210.5"/>
<text text-anchor="middle" x="1330" y="-217.5" font-family="Helvetica,sans-Serif" font-size="10.00">TGeoManager.h</text>
</g>
<!-- Node1&#45;&gt;Node9 -->
<g id="edge58" class="edge"><title>Node1&#45;&gt;Node9</title>
<path fill="none" stroke="midnightblue" d="M1529.28,-384.998C1515.43,-373.713 1498.88,-360.203 1484,-348 1434.95,-307.767 1377.3,-260.133 1348.43,-236.256"/>
<polygon fill="midnightblue" stroke="midnightblue" points="1350.38,-233.32 1340.44,-229.643 1345.91,-238.714 1350.38,-233.32"/>
</g>
<!-- Node11 -->
<g id="node11" class="node"><title>Node11</title>
<polygon fill="none" stroke="#bfbfbf" points="1391,-210.5 1391,-229.5 1501,-229.5 1501,-210.5 1391,-210.5"/>
<text text-anchor="middle" x="1446" y="-217.5" font-family="Helvetica,sans-Serif" font-size="10.00">TGeoPhysicalNode.h</text>
</g>
<!-- Node1&#45;&gt;Node11 -->
<g id="edge59" class="edge"><title>Node1&#45;&gt;Node11</title>
<path fill="none" stroke="midnightblue" d="M1530.29,-384.924C1519.1,-374.373 1506.94,-361.435 1498,-348 1474.55,-312.749 1458.6,-265.243 1451.04,-239.48"/>
<polygon fill="midnightblue" stroke="midnightblue" points="1454.33,-238.25 1448.23,-229.582 1447.59,-240.158 1454.33,-238.25"/>
</g>
<!-- Node12 -->
<g id="node12" class="node"><title>Node12</title>
<polygon fill="none" stroke="#bfbfbf" points="1519.5,-210.5 1519.5,-229.5 1596.5,-229.5 1596.5,-210.5 1519.5,-210.5"/>
<text text-anchor="middle" x="1558" y="-217.5" font-family="Helvetica,sans-Serif" font-size="10.00">TGeoShape.h</text>
</g>
<!-- Node1&#45;&gt;Node12 -->
<g id="edge60" class="edge"><title>Node1&#45;&gt;Node12</title>
<path fill="none" stroke="midnightblue" d="M1532.06,-384.904C1522.51,-374.537 1513,-361.73 1508,-348 1496.45,-316.258 1495.23,-303.27 1508,-272 1513.9,-257.547 1526.09,-244.974 1536.96,-235.928"/>
<polygon fill="midnightblue" stroke="midnightblue" points="1539.17,-238.645 1544.88,-229.726 1534.85,-233.133 1539.17,-238.645"/>
</g>
<!-- Node13 -->
<g id="node13" class="node"><title>Node13</title>
<polygon fill="none" stroke="#bfbfbf" points="1614.5,-210.5 1614.5,-229.5 1667.5,-229.5 1667.5,-210.5 1614.5,-210.5"/>
<text text-anchor="middle" x="1641" y="-217.5" font-family="Helvetica,sans-Serif" font-size="10.00">TMath.h</text>
</g>
<!-- Node1&#45;&gt;Node13 -->
<g id="edge61" class="edge"><title>Node1&#45;&gt;Node13</title>
<path fill="none" stroke="midnightblue" d="M1548.91,-384.86C1537.83,-355.591 1525.17,-306.823 1546,-272 1549.87,-265.526 1586.54,-246.983 1613.16,-234.137"/>
<polygon fill="midnightblue" stroke="midnightblue" points="1614.93,-237.171 1622.44,-229.695 1611.9,-230.858 1614.93,-237.171"/>
</g>
<!-- Node23 -->
<g id="node23" class="node"><title>Node23</title>
<polygon fill="none" stroke="#bfbfbf" points="1685.5,-210.5 1685.5,-229.5 1756.5,-229.5 1756.5,-210.5 1685.5,-210.5"/>
<text text-anchor="middle" x="1721" y="-217.5" font-family="Helvetica,sans-Serif" font-size="10.00">FairLogger.h</text>
</g>
<!-- Node1&#45;&gt;Node23 -->
<g id="edge56" class="edge"><title>Node1&#45;&gt;Node23</title>
<path fill="none" stroke="midnightblue" d="M1563.2,-384.963C1566.34,-367.769 1572.42,-345.061 1584,-328 1612.87,-285.454 1664,-252.146 1694.96,-234.624"/>
<polygon fill="midnightblue" stroke="midnightblue" points="1696.82,-237.598 1703.88,-229.701 1693.43,-231.47 1696.82,-237.598"/>
</g>
<!-- Node24 -->
<g id="node24" class="node"><title>Node24</title>
<g id="a_node24"><a xlink:href="../../dd/d76/Cartesian3D_8h.html" target="_top" xlink:title="MathUtils/Cartesian3D.h">
<polygon fill="none" stroke="black" points="966.5,-142.5 966.5,-161.5 1091.5,-161.5 1091.5,-142.5 966.5,-142.5"/>
<text text-anchor="middle" x="1029" y="-149.5" font-family="Helvetica,sans-Serif" font-size="10.00">MathUtils/Cartesian3D.h</text>
</a>
</g>
</g>
<!-- Node1&#45;&gt;Node24 -->
<g id="edge55" class="edge"><title>Node1&#45;&gt;Node24</title>
<path fill="none" stroke="midnightblue" d="M1486.92,-396.211C1431.33,-385.062 1353.21,-367.97 1286,-348 1268.85,-342.903 994.219,-250.689 984,-236 968.577,-213.83 991.647,-185.816 1010.05,-168.664"/>
<polygon fill="midnightblue" stroke="midnightblue" points="1012.85,-170.857 1018.02,-161.608 1008.21,-165.615 1012.85,-170.857"/>
</g>
<!-- Node35 -->
<g id="node35" class="node"><title>Node35</title>
<polygon fill="none" stroke="#bfbfbf" points="271.5,-210.5 271.5,-229.5 340.5,-229.5 340.5,-210.5 271.5,-210.5"/>
<text text-anchor="middle" x="306" y="-217.5" font-family="Helvetica,sans-Serif" font-size="10.00">TObjArray.h</text>
</g>
<!-- Node1&#45;&gt;Node35 -->
<g id="edge68" class="edge"><title>Node1&#45;&gt;Node35</title>
<path fill="none" stroke="midnightblue" d="M1486.88,-408.851C1337.69,-405.605 987.796,-393.376 698,-348 594.058,-331.725 567.669,-325.688 468,-292 418.7,-275.337 363.679,-249.621 332.116,-234.14"/>
<polygon fill="midnightblue" stroke="midnightblue" points="333.622,-230.98 323.106,-229.686 330.52,-237.255 333.622,-230.98"/>
</g>
<!-- Node39 -->
<g id="node39" class="node"><title>Node39</title>
<g id="a_node39"><a xlink:href="../../d3/dba/SegmentationAlpide_8h.html" target="_top" xlink:title="Definition of the SegmentationAlpide class. ">
<polygon fill="none" stroke="black" points="879.5,-272.5 879.5,-291.5 1052.5,-291.5 1052.5,-272.5 879.5,-272.5"/>
<text text-anchor="middle" x="966" y="-279.5" font-family="Helvetica,sans-Serif" font-size="10.00">ITSMFTBase/SegmentationAlpide.h</text>
</a>
</g>
</g>
<!-- Node1&#45;&gt;Node39 -->
<g id="edge53" class="edge"><title>Node1&#45;&gt;Node39</title>
<path fill="none" stroke="midnightblue" d="M1486.62,-410.799C1388.19,-409.65 1209.29,-399.695 1067,-348 1035.22,-336.454 1003.17,-313.453 983.951,-298.143"/>
<polygon fill="midnightblue" stroke="midnightblue" points="986.032,-295.324 976.069,-291.719 981.609,-300.75 986.032,-295.324"/>
</g>
<!-- Node40 -->
<g id="node40" class="node"><title>Node40</title>
<polygon fill="none" stroke="#bfbfbf" points="1626.5,-328.5 1626.5,-347.5 1699.5,-347.5 1699.5,-328.5 1626.5,-328.5"/>
<text text-anchor="middle" x="1663" y="-335.5" font-family="Helvetica,sans-Serif" font-size="10.00">TGeoBBox.h</text>
</g>
<!-- Node1&#45;&gt;Node40 -->
<g id="edge57" class="edge"><title>Node1&#45;&gt;Node40</title>
<path fill="none" stroke="midnightblue" d="M1596.31,-384.968C1611.56,-374.458 1628.76,-362.603 1641.87,-353.565"/>
<polygon fill="midnightblue" stroke="midnightblue" points="1643.97,-356.367 1650.22,-347.81 1640,-350.603 1643.97,-356.367"/>
</g>
<!-- Node41 -->
<g id="node41" class="node"><title>Node41</title>
<polygon fill="none" stroke="#bfbfbf" points="1718,-328.5 1718,-347.5 1774,-347.5 1774,-328.5 1718,-328.5"/>
<text text-anchor="middle" x="1746" y="-335.5" font-family="Helvetica,sans-Serif" font-size="10.00">TString.h</text>
</g>
<!-- Node1&#45;&gt;Node41 -->
<g id="edge62" class="edge"><title>Node1&#45;&gt;Node41</title>
<path fill="none" stroke="midnightblue" d="M1625.58,-384.968C1655.54,-373.529 1689.68,-360.497 1713.94,-351.237"/>
<polygon fill="midnightblue" stroke="midnightblue" points="1715.27,-354.475 1723.37,-347.639 1712.78,-347.935 1715.27,-354.475"/>
</g>
<!-- Node42 -->
<g id="node42" class="node"><title>Node42</title>
<polygon fill="none" stroke="#bfbfbf" points="1792,-328.5 1792,-347.5 1848,-347.5 1848,-328.5 1792,-328.5"/>
<text text-anchor="middle" x="1820" y="-335.5" font-family="Helvetica,sans-Serif" font-size="10.00">TClass.h</text>
</g>
<!-- Node1&#45;&gt;Node42 -->
<g id="edge63" class="edge"><title>Node1&#45;&gt;Node42</title>
<path fill="none" stroke="midnightblue" d="M1633.12,-390.034C1681.51,-376.818 1743.01,-360.025 1781.95,-349.391"/>
<polygon fill="midnightblue" stroke="midnightblue" points="1783.1,-352.705 1791.82,-346.694 1781.25,-345.953 1783.1,-352.705"/>
</g>
<!-- Node43 -->
<g id="node43" class="node"><title>Node43</title>
<polygon fill="none" stroke="#bfbfbf" points="1866,-328.5 1866,-347.5 1938,-347.5 1938,-328.5 1866,-328.5"/>
<text text-anchor="middle" x="1902" y="-335.5" font-family="Helvetica,sans-Serif" font-size="10.00">TGeoNode.h</text>
</g>
<!-- Node1&#45;&gt;Node43 -->
<g id="edge65" class="edge"><title>Node1&#45;&gt;Node43</title>
<path fill="none" stroke="midnightblue" d="M1633.37,-394.769C1700.95,-380.739 1799.13,-360.357 1856.18,-348.512"/>
<polygon fill="midnightblue" stroke="midnightblue" points="1856.92,-351.933 1866,-346.474 1855.5,-345.08 1856.92,-351.933"/>
</g>
<!-- Node44 -->
<g id="node44" class="node"><title>Node44</title>
<polygon fill="none" stroke="#bfbfbf" points="1956,-328.5 1956,-347.5 2038,-347.5 2038,-328.5 1956,-328.5"/>
<text text-anchor="middle" x="1997" y="-335.5" font-family="Helvetica,sans-Serif" font-size="10.00">TGeoVolume.h</text>
</g>
<!-- Node1&#45;&gt;Node44 -->
<g id="edge66" class="edge"><title>Node1&#45;&gt;Node44</title>
<path fill="none" stroke="midnightblue" d="M1633.18,-398.705C1708.85,-386.93 1830.68,-367.697 1945.77,-348.185"/>
<polygon fill="midnightblue" stroke="midnightblue" points="1946.54,-351.605 1955.81,-346.479 1945.37,-344.703 1946.54,-351.605"/>
</g>
<!-- Node45 -->
<g id="node45" class="node"><title>Node45</title>
<polygon fill="none" stroke="#bfbfbf" points="2056.5,-328.5 2056.5,-347.5 2131.5,-347.5 2131.5,-328.5 2056.5,-328.5"/>
<text text-anchor="middle" x="2094" y="-335.5" font-family="Helvetica,sans-Serif" font-size="10.00">TMathBase.h</text>
</g>
<!-- Node1&#45;&gt;Node45 -->
<g id="edge67" class="edge"><title>Node1&#45;&gt;Node45</title>
<path fill="none" stroke="midnightblue" d="M1633.22,-402.124C1726.64,-391.752 1893.4,-372.153 2046.28,-348.025"/>
<polygon fill="midnightblue" stroke="midnightblue" points="2047,-351.454 2056.33,-346.429 2045.9,-344.541 2047,-351.454"/>
</g>
<!-- Node46 -->
<g id="node46" class="node"><title>Node46</title>
<polygon fill="none" stroke="#bfbfbf" points="2150,-328.5 2150,-347.5 2196,-347.5 2196,-328.5 2150,-328.5"/>
<text text-anchor="middle" x="2173" y="-335.5" font-family="Helvetica,sans-Serif" font-size="10.00">cctype</text>
</g>
<!-- Node1&#45;&gt;Node46 -->
<g id="edge70" class="edge"><title>Node1&#45;&gt;Node46</title>
<path fill="none" stroke="midnightblue" d="M1633.34,-405.928C1741.98,-399.064 1952.08,-382.603 2139.63,-347.746"/>
<polygon fill="midnightblue" stroke="midnightblue" points="2140.49,-351.145 2149.67,-345.858 2139.2,-344.266 2140.49,-351.145"/>
</g>
<!-- Node47 -->
<g id="node47" class="node"><title>Node47</title>
<polygon fill="none" stroke="#bfbfbf" points="2214.5,-328.5 2214.5,-347.5 2257.5,-347.5 2257.5,-328.5 2214.5,-328.5"/>
<text text-anchor="middle" x="2236" y="-335.5" font-family="Helvetica,sans-Serif" font-size="10.00">cstdio</text>
</g>
<!-- Node1&#45;&gt;Node47 -->
<g id="edge71" class="edge"><title>Node1&#45;&gt;Node47</title>
<path fill="none" stroke="midnightblue" d="M1633.18,-407.413C1751.57,-402.251 1992.37,-387.709 2204.37,-347.738"/>
<polygon fill="midnightblue" stroke="midnightblue" points="2205.28,-351.129 2214.45,-345.816 2203.97,-344.253 2205.28,-351.129"/>
</g>
<!-- Node48 -->
<g id="node48" class="node"><title>Node48</title>
<polygon fill="none" stroke="#bfbfbf" points="2276,-328.5 2276,-347.5 2322,-347.5 2322,-328.5 2276,-328.5"/>
<text text-anchor="middle" x="2299" y="-335.5" font-family="Helvetica,sans-Serif" font-size="10.00">cstring</text>
</g>
<!-- Node1&#45;&gt;Node48 -->
<g id="edge72" class="edge"><title>Node1&#45;&gt;Node48</title>
<path fill="none" stroke="midnightblue" d="M1633.23,-407.874C1760.27,-403.246 2029.62,-389.278 2265.54,-347.721"/>
<polygon fill="midnightblue" stroke="midnightblue" points="2266.45,-351.114 2275.68,-345.913 2265.22,-344.222 2266.45,-351.114"/>
</g>
<!-- Node2&#45;&gt;Node3 -->
<g id="edge2" class="edge"><title>Node2&#45;&gt;Node3</title>
<path fill="none" stroke="midnightblue" d="M840.662,-335.799C900.529,-332.602 989.709,-322.507 1061,-292 1120.17,-266.68 1116.8,-229.241 1176,-204 1455.22,-84.952 1555.31,-168.573 1851,-100 1855.43,-98.9737 1860.03,-97.745 1864.57,-96.4385"/>
<polygon fill="midnightblue" stroke="midnightblue" points="1865.72,-99.7466 1874.28,-93.5025 1863.7,-93.0461 1865.72,-99.7466"/>
</g>
<!-- Node2&#45;&gt;Node4 -->
<g id="edge3" class="edge"><title>Node2&#45;&gt;Node4</title>
<path fill="none" stroke="midnightblue" d="M784.629,-328.357C801.725,-314.799 836.79,-288.391 870,-272 906.929,-253.774 951.928,-239.656 983.534,-230.942"/>
<polygon fill="midnightblue" stroke="midnightblue" points="984.557,-234.292 993.298,-228.305 982.732,-227.534 984.557,-234.292"/>
</g>
<!-- Node5 -->
<g id="node5" class="node"><title>Node5</title>
<polygon fill="none" stroke="#bfbfbf" points="271,-6.5 271,-25.5 309,-25.5 309,-6.5 271,-6.5"/>
<text text-anchor="middle" x="290" y="-13.5" font-family="Helvetica,sans-Serif" font-size="10.00">array</text>
</g>
<!-- Node2&#45;&gt;Node5 -->
<g id="edge4" class="edge"><title>Node2&#45;&gt;Node5</title>
<path fill="none" stroke="midnightblue" d="M707.325,-331.937C584.299,-321.32 328.112,-292.867 262,-236 226.822,-205.741 221.568,-181.214 232,-136 240.912,-97.3745 264.143,-56.7792 278.353,-34.4013"/>
<polygon fill="midnightblue" stroke="midnightblue" points="281.475,-36.0202 283.993,-25.729 275.607,-32.2038 281.475,-36.0202"/>
</g>
<!-- Node6 -->
<g id="node6" class="node"><title>Node6</title>
<polygon fill="none" stroke="#bfbfbf" points="753.5,-210.5 753.5,-229.5 794.5,-229.5 794.5,-210.5 753.5,-210.5"/>
<text text-anchor="middle" x="774" y="-217.5" font-family="Helvetica,sans-Serif" font-size="10.00">string</text>
</g>
<!-- Node2&#45;&gt;Node6 -->
<g id="edge5" class="edge"><title>Node2&#45;&gt;Node6</title>
<path fill="none" stroke="midnightblue" d="M774,-328.281C774,-309.547 774,-265.098 774,-239.682"/>
<polygon fill="midnightblue" stroke="midnightblue" points="777.5,-239.505 774,-229.505 770.5,-239.505 777.5,-239.505"/>
</g>
<!-- Node7 -->
<g id="node7" class="node"><title>Node7</title>
<polygon fill="none" stroke="#bfbfbf" points="241,-142.5 241,-161.5 285,-161.5 285,-142.5 241,-142.5"/>
<text text-anchor="middle" x="263" y="-149.5" font-family="Helvetica,sans-Serif" font-size="10.00">vector</text>
</g>
<!-- Node2&#45;&gt;Node7 -->
<g id="edge6" class="edge"><title>Node2&#45;&gt;Node7</title>
<path fill="none" stroke="midnightblue" d="M707.377,-332.377C652.129,-327.006 572.203,-315.64 506,-292 494.266,-287.81 345.382,-201.127 286.622,-166.812"/>
<polygon fill="midnightblue" stroke="midnightblue" points="288.086,-163.613 277.686,-161.591 284.555,-169.657 288.086,-163.613"/>
</g>
<!-- Node2&#45;&gt;Node8 -->
<g id="edge7" class="edge"><title>Node2&#45;&gt;Node8</title>
<path fill="none" stroke="midnightblue" d="M840.542,-329.968C930.827,-320.427 1092.48,-303.345 1193.95,-292.621"/>
<polygon fill="midnightblue" stroke="midnightblue" points="1194.61,-296.071 1204.19,-291.54 1193.88,-289.11 1194.61,-296.071"/>
</g>
<!-- Node14 -->
<g id="node14" class="node"><title>Node14</title>
<g id="a_node14"><a xlink:href="../../d6/d31/DetID_8h.html" target="_top" xlink:title="DetectorsCommonDataFormats\l/DetID.h">
<polygon fill="none" stroke="black" points="647,-137 647,-167 803,-167 803,-137 647,-137"/>
<text text-anchor="start" x="655" y="-155" font-family="Helvetica,sans-Serif" font-size="10.00">DetectorsCommonDataFormats</text>
<text text-anchor="middle" x="725" y="-144" font-family="Helvetica,sans-Serif" font-size="10.00">/DetID.h</text>
</a>
</g>
</g>
<!-- Node2&#45;&gt;Node14 -->
<g id="edge39" class="edge"><title>Node2&#45;&gt;Node14</title>
<path fill="none" stroke="midnightblue" d="M771.245,-328.405C765.725,-311.043 753.062,-270.499 744,-236 738.824,-216.296 733.715,-193.754 730.1,-177.138"/>
<polygon fill="midnightblue" stroke="midnightblue" points="733.48,-176.206 727.955,-167.165 726.636,-177.678 733.48,-176.206"/>
</g>
<!-- Node15 -->
<g id="node15" class="node"><title>Node15</title>
<polygon fill="none" stroke="#bfbfbf" points="697,-74.5 697,-93.5 753,-93.5 753,-74.5 697,-74.5"/>
<text text-anchor="middle" x="725" y="-81.5" font-family="Helvetica,sans-Serif" font-size="10.00">Rtypes.h</text>
</g>
<!-- Node2&#45;&gt;Node15 -->
<g id="edge51" class="edge"><title>Node2&#45;&gt;Node15</title>
<path fill="none" stroke="midnightblue" d="M779.533,-328.283C797.356,-298.994 849.959,-202.251 812,-136 805.45,-124.569 776.533,-108.952 753.811,-98.0213"/>
<polygon fill="midnightblue" stroke="midnightblue" points="755.074,-94.7471 744.536,-93.6496 752.089,-101.079 755.074,-94.7471"/>
</g>
<!-- Node20 -->
<g id="node20" class="node"><title>Node20</title>
<g id="a_node20"><a xlink:href="../../d9/d52/Common_2MathUtils_2include_2MathUtils_2Utils_8h.html" target="_top" xlink:title="MathUtils/Utils.h">
<polygon fill="none" stroke="black" points="95,-74.5 95,-93.5 185,-93.5 185,-74.5 95,-74.5"/>
<text text-anchor="middle" x="140" y="-81.5" font-family="Helvetica,sans-Serif" font-size="10.00">MathUtils/Utils.h</text>
</a>
</g>
</g>
<!-- Node2&#45;&gt;Node20 -->
<g id="edge50" class="edge"><title>Node2&#45;&gt;Node20</title>
<path fill="none" stroke="midnightblue" d="M707.291,-335.93C564.81,-333.054 240.561,-323.128 202,-292 143.833,-245.045 138.654,-145.771 139.215,-104.075"/>
<polygon fill="midnightblue" stroke="midnightblue" points="142.718,-104.023 139.486,-93.9333 135.72,-103.836 142.718,-104.023"/>
</g>
<!-- Node34 -->
<g id="node34" class="node"><title>Node34</title>
<g id="a_node34"><a xlink:href="../../d0/d2d/common_2base_2include_2ITSMFTBase_2GeometryTGeo_8h.html" target="_top" xlink:title="ITSMFTBase/GeometryTGeo.h">
<polygon fill="none" stroke="black" points="515.5,-272.5 515.5,-291.5 668.5,-291.5 668.5,-272.5 515.5,-272.5"/>
<text text-anchor="middle" x="592" y="-279.5" font-family="Helvetica,sans-Serif" font-size="10.00">ITSMFTBase/GeometryTGeo.h</text>
</a>
</g>
</g>
<!-- Node2&#45;&gt;Node34 -->
<g id="edge40" class="edge"><title>Node2&#45;&gt;Node34</title>
<path fill="none" stroke="midnightblue" d="M745.162,-328.444C714.144,-319.241 664.671,-304.562 630.382,-294.388"/>
<polygon fill="midnightblue" stroke="midnightblue" points="631.286,-291.006 620.704,-291.516 629.295,-297.716 631.286,-291.006"/>
</g>
<!-- Node8&#45;&gt;Node4 -->
<g id="edge13" class="edge"><title>Node8&#45;&gt;Node4</title>
<path fill="none" stroke="midnightblue" d="M1234.8,-272.48C1190.34,-264.498 1123.86,-251.495 1067,-236 1063.44,-235.031 1059.75,-233.929 1056.09,-232.774"/>
<polygon fill="midnightblue" stroke="midnightblue" points="1057.17,-229.445 1046.58,-229.645 1054.99,-236.095 1057.17,-229.445"/>
</g>
<!-- Node8&#45;&gt;Node6 -->
<g id="edge14" class="edge"><title>Node8&#45;&gt;Node6</title>
<path fill="none" stroke="midnightblue" d="M1212.6,-272.499C1099.26,-259.191 884.663,-233.994 804.886,-224.627"/>
<polygon fill="midnightblue" stroke="midnightblue" points="804.889,-221.103 794.549,-223.413 804.072,-228.055 804.889,-221.103"/>
</g>
<!-- Node8&#45;&gt;Node9 -->
<g id="edge8" class="edge"><title>Node8&#45;&gt;Node9</title>
<path fill="none" stroke="midnightblue" d="M1291.45,-272.403C1298.2,-263.403 1308.97,-249.041 1317.41,-237.782"/>
<polygon fill="midnightblue" stroke="midnightblue" points="1320.36,-239.681 1323.56,-229.581 1314.76,-235.481 1320.36,-239.681"/>
</g>
<!-- Node10 -->
<g id="node10" class="node"><title>Node10</title>
<polygon fill="none" stroke="#bfbfbf" points="1185.5,-210.5 1185.5,-229.5 1268.5,-229.5 1268.5,-210.5 1185.5,-210.5"/>
<text text-anchor="middle" x="1227" y="-217.5" font-family="Helvetica,sans-Serif" font-size="10.00">TGeoMaterial.h</text>
</g>
<!-- Node8&#45;&gt;Node10 -->
<g id="edge9" class="edge"><title>Node8&#45;&gt;Node10</title>
<path fill="none" stroke="midnightblue" d="M1276.69,-272.403C1267.73,-263.136 1253.28,-248.183 1242.26,-236.788"/>
<polygon fill="midnightblue" stroke="midnightblue" points="1244.76,-234.338 1235.29,-229.581 1239.73,-239.203 1244.76,-234.338"/>
</g>
<!-- Node8&#45;&gt;Node11 -->
<g id="edge10" class="edge"><title>Node8&#45;&gt;Node11</title>
<path fill="none" stroke="midnightblue" d="M1308.07,-272.403C1335.68,-262.111 1382.12,-244.806 1413.4,-233.15"/>
<polygon fill="midnightblue" stroke="midnightblue" points="1414.83,-236.352 1422.98,-229.581 1412.38,-229.793 1414.83,-236.352"/>
</g>
<!-- Node8&#45;&gt;Node12 -->
<g id="edge11" class="edge"><title>Node8&#45;&gt;Node12</title>
<path fill="none" stroke="midnightblue" d="M1335.39,-272.494C1381.21,-264.386 1450.56,-251.186 1510,-236 1514.14,-234.942 1518.45,-233.741 1522.72,-232.489"/>
<polygon fill="midnightblue" stroke="midnightblue" points="1523.93,-235.777 1532.48,-229.522 1521.9,-229.08 1523.93,-235.777"/>
</g>
<!-- Node8&#45;&gt;Node13 -->
<g id="edge12" class="edge"><title>Node8&#45;&gt;Node13</title>
<path fill="none" stroke="midnightblue" d="M1371.77,-274.821C1436.84,-268.745 1527.62,-257.186 1605,-236 1607.82,-235.229 1610.71,-234.292 1613.56,-233.267"/>
<polygon fill="midnightblue" stroke="midnightblue" points="1614.98,-236.471 1623,-229.555 1612.42,-229.957 1614.98,-236.471"/>
</g>
<!-- Node8&#45;&gt;Node14 -->
<g id="edge15" class="edge"><title>Node8&#45;&gt;Node14</title>
<path fill="none" stroke="midnightblue" d="M1239.14,-272.455C1204.27,-265.107 1155.55,-252.993 1115,-236 1089.27,-225.217 1087.27,-213.377 1061,-204 979.965,-175.08 882.223,-162.559 813.103,-157.138"/>
<polygon fill="midnightblue" stroke="midnightblue" points="813.352,-153.647 803.118,-156.389 812.828,-160.627 813.352,-153.647"/>
</g>
<!-- Node8&#45;&gt;Node23 -->
<g id="edge26" class="edge"><title>Node8&#45;&gt;Node23</title>
<path fill="none" stroke="midnightblue" d="M1371.66,-276.191C1451.46,-270.547 1572.77,-258.887 1676,-236 1680.16,-235.078 1684.48,-233.915 1688.72,-232.647"/>
<polygon fill="midnightblue" stroke="midnightblue" points="1689.91,-235.942 1698.36,-229.562 1687.77,-229.275 1689.91,-235.942"/>
</g>
<!-- Node8&#45;&gt;Node24 -->
<g id="edge27" class="edge"><title>Node8&#45;&gt;Node24</title>
<path fill="none" stroke="midnightblue" d="M1262.1,-272.486C1239.79,-263.975 1205.09,-250.15 1176,-236 1130.77,-213.999 1080.13,-184.199 1051.65,-166.942"/>
<polygon fill="midnightblue" stroke="midnightblue" points="1053.24,-163.814 1042.88,-161.599 1049.6,-169.791 1053.24,-163.814"/>
</g>
<!-- Node14&#45;&gt;Node5 -->
<g id="edge17" class="edge"><title>Node14&#45;&gt;Node5</title>
<path fill="none" stroke="midnightblue" d="M714.12,-136.986C697.205,-115.594 664.9,-76.3841 649,-68 591.68,-37.7744 394.375,-23.18 319.308,-18.6237"/>
<polygon fill="midnightblue" stroke="midnightblue" points="319.339,-15.1195 309.15,-18.0236 318.926,-22.1073 319.339,-15.1195"/>
</g>
<!-- Node14&#45;&gt;Node15 -->
<g id="edge16" class="edge"><title>Node14&#45;&gt;Node15</title>
<path fill="none" stroke="midnightblue" d="M725,-136.679C725,-127.101 725,-114.394 725,-103.977"/>
<polygon fill="midnightblue" stroke="midnightblue" points="728.5,-103.828 725,-93.8283 721.5,-103.828 728.5,-103.828"/>
</g>
<!-- Node16 -->
<g id="node16" class="node"><title>Node16</title>
<polygon fill="none" stroke="#bfbfbf" points="388.5,-74.5 388.5,-93.5 429.5,-93.5 429.5,-74.5 388.5,-74.5"/>
<text text-anchor="middle" x="409" y="-81.5" font-family="Helvetica,sans-Serif" font-size="10.00">bitset</text>
</g>
<!-- Node14&#45;&gt;Node16 -->
<g id="edge18" class="edge"><title>Node14&#45;&gt;Node16</title>
<path fill="none" stroke="midnightblue" d="M646.869,-137.408C563.612,-122.881 443.003,-101.695 438,-100 436.148,-99.3726 434.268,-98.6419 432.402,-97.8471"/>
<polygon fill="midnightblue" stroke="midnightblue" points="433.905,-94.6863 423.375,-93.5207 430.88,-100.999 433.905,-94.6863"/>
</g>
<!-- Node17 -->
<g id="node17" class="node"><title>Node17</title>
<polygon fill="none" stroke="#bfbfbf" points="447.5,-74.5 447.5,-93.5 496.5,-93.5 496.5,-74.5 447.5,-74.5"/>
<text text-anchor="middle" x="472" y="-81.5" font-family="Helvetica,sans-Serif" font-size="10.00">cassert</text>
</g>
<!-- Node14&#45;&gt;Node17 -->
<g id="edge19" class="edge"><title>Node14&#45;&gt;Node17</title>
<path fill="none" stroke="midnightblue" d="M649.029,-136.95C606.439,-128.171 552.658,-115.573 506,-100 503.728,-99.2417 501.4,-98.3878 499.08,-97.4821"/>
<polygon fill="midnightblue" stroke="midnightblue" points="500.327,-94.2101 489.751,-93.5788 497.625,-100.668 500.327,-94.2101"/>
</g>
<!-- Node18 -->
<g id="node18" class="node"><title>Node18</title>
<polygon fill="none" stroke="#bfbfbf" points="515,-74.5 515,-93.5 561,-93.5 561,-74.5 515,-74.5"/>
<text text-anchor="middle" x="538" y="-81.5" font-family="Helvetica,sans-Serif" font-size="10.00">cstdint</text>
</g>
<!-- Node14&#45;&gt;Node18 -->
<g id="edge20" class="edge"><title>Node14&#45;&gt;Node18</title>
<path fill="none" stroke="midnightblue" d="M677.328,-136.946C646.398,-127.429 605.411,-114.066 570,-100 568.353,-99.346 566.671,-98.6487 564.982,-97.9261"/>
<polygon fill="midnightblue" stroke="midnightblue" points="565.994,-94.5438 555.438,-93.6382 563.126,-100.929 565.994,-94.5438"/>
</g>
<!-- Node19 -->
<g id="node19" class="node"><title>Node19</title>
<polygon fill="none" stroke="#bfbfbf" points="579,-74.5 579,-93.5 641,-93.5 641,-74.5 579,-74.5"/>
<text text-anchor="middle" x="610" y="-81.5" font-family="Helvetica,sans-Serif" font-size="10.00">type_traits</text>
</g>
<!-- Node14&#45;&gt;Node19 -->
<g id="edge21" class="edge"><title>Node14&#45;&gt;Node19</title>
<path fill="none" stroke="midnightblue" d="M700.33,-136.841C680.706,-125.579 653.409,-109.913 633.971,-98.7572"/>
<polygon fill="midnightblue" stroke="midnightblue" points="635.543,-95.624 625.128,-93.6819 632.058,-101.695 635.543,-95.624"/>
</g>
<!-- Node14&#45;&gt;Node20 -->
<g id="edge22" class="edge"><title>Node14&#45;&gt;Node20</title>
<path fill="none" stroke="midnightblue" d="M646.785,-137.254C643.821,-136.816 640.885,-136.396 638,-136 477.78,-114.01 287.365,-97.0426 195.301,-89.4142"/>
<polygon fill="midnightblue" stroke="midnightblue" points="195.356,-85.907 185.103,-88.5741 194.781,-92.8834 195.356,-85.907"/>
</g>
<!-- Node20&#45;&gt;Node5 -->
<g id="edge23" class="edge"><title>Node20&#45;&gt;Node5</title>
<path fill="none" stroke="midnightblue" d="M159.61,-74.3717C185.58,-62.9447 231.571,-42.7088 261.411,-29.5791"/>
<polygon fill="midnightblue" stroke="midnightblue" points="263.116,-32.6528 270.86,-25.4218 260.297,-26.2456 263.116,-32.6528"/>
</g>
<!-- Node21 -->
<g id="node21" class="node"><title>Node21</title>
<polygon fill="none" stroke="#bfbfbf" points="0,-6.5 0,-25.5 44,-25.5 44,-6.5 0,-6.5"/>
<text text-anchor="middle" x="22" y="-13.5" font-family="Helvetica,sans-Serif" font-size="10.00">cmath</text>
</g>
<!-- Node20&#45;&gt;Node21 -->
<g id="edge24" class="edge"><title>Node20&#45;&gt;Node21</title>
<path fill="none" stroke="midnightblue" d="M124.574,-74.3717C104.697,-63.2545 69.9146,-43.7997 46.4268,-30.6624"/>
<polygon fill="midnightblue" stroke="midnightblue" points="47.8664,-27.4574 37.4302,-25.6305 44.4493,-33.5667 47.8664,-27.4574"/>
</g>
<!-- Node22 -->
<g id="node22" class="node"><title>Node22</title>
<g id="a_node22"><a xlink:href="../../d6/d84/MathConstants_8h.html" target="_top" xlink:title="useful math constants ">
<polygon fill="none" stroke="black" points="62.5,-6.5 62.5,-25.5 241.5,-25.5 241.5,-6.5 62.5,-6.5"/>
<text text-anchor="middle" x="152" y="-13.5" font-family="Helvetica,sans-Serif" font-size="10.00">CommonConstants/MathConstants.h</text>
</a>
</g>
</g>
<!-- Node20&#45;&gt;Node22 -->
<g id="edge25" class="edge"><title>Node20&#45;&gt;Node22</title>
<path fill="none" stroke="midnightblue" d="M141.569,-74.3717C143.338,-64.6426 146.268,-48.528 148.573,-35.8504"/>
<polygon fill="midnightblue" stroke="midnightblue" points="152.047,-36.3059 150.393,-25.8411 145.16,-35.0537 152.047,-36.3059"/>
</g>
<!-- Node24&#45;&gt;Node3 -->
<g id="edge34" class="edge"><title>Node24&#45;&gt;Node3</title>
<path fill="none" stroke="midnightblue" d="M1067.21,-142.428C1079.53,-139.968 1093.29,-137.537 1106,-136 1435.1,-96.2038 1524.6,-157.907 1851,-100 1855.9,-99.1307 1861,-97.9048 1865.96,-96.5243"/>
<polygon fill="midnightblue" stroke="midnightblue" points="1867.3,-99.7777 1875.86,-93.5381 1865.27,-93.0762 1867.3,-99.7777"/>
</g>
<!-- Node24&#45;&gt;Node15 -->
<g id="edge33" class="edge"><title>Node24&#45;&gt;Node15</title>
<path fill="none" stroke="midnightblue" d="M966.401,-142.599C911.76,-134.428 830.686,-120.269 762,-100 759.195,-99.1724 756.31,-98.2102 753.447,-97.1802"/>
<polygon fill="midnightblue" stroke="midnightblue" points="754.539,-93.8497 743.949,-93.5146 752.018,-100.38 754.539,-93.8497"/>
</g>
<!-- Node25 -->
<g id="node25" class="node"><title>Node25</title>
<polygon fill="none" stroke="#bfbfbf" points="771.5,-69 771.5,-99 922.5,-99 922.5,-69 771.5,-69"/>
<text text-anchor="start" x="779.5" y="-87" font-family="Helvetica,sans-Serif" font-size="10.00">Math/GenVector/Displacement</text>
<text text-anchor="middle" x="847" y="-76" font-family="Helvetica,sans-Serif" font-size="10.00">Vector3D.h</text>
</g>
<!-- Node24&#45;&gt;Node25 -->
<g id="edge28" class="edge"><title>Node24&#45;&gt;Node25</title>
<path fill="none" stroke="midnightblue" d="M1005.21,-142.372C977.463,-132.311 930.891,-115.422 895.44,-102.566"/>
<polygon fill="midnightblue" stroke="midnightblue" points="896.355,-99.1751 885.761,-99.0562 893.969,-105.756 896.355,-99.1751"/>
</g>
<!-- Node26 -->
<g id="node26" class="node"><title>Node26</title>
<polygon fill="none" stroke="#bfbfbf" points="941,-74.5 941,-93.5 1117,-93.5 1117,-74.5 941,-74.5"/>
<text text-anchor="middle" x="1029" y="-81.5" font-family="Helvetica,sans-Serif" font-size="10.00">Math/GenVector/PositionVector3D.h</text>
</g>
<!-- Node24&#45;&gt;Node26 -->
<g id="edge29" class="edge"><title>Node24&#45;&gt;Node26</title>
<path fill="none" stroke="midnightblue" d="M1029,-142.372C1029,-132.643 1029,-116.528 1029,-103.85"/>
<polygon fill="midnightblue" stroke="midnightblue" points="1032.5,-103.841 1029,-93.8411 1025.5,-103.841 1032.5,-103.841"/>
</g>
<!-- Node27 -->
<g id="node27" class="node"><title>Node27</title>
<polygon fill="none" stroke="#bfbfbf" points="1134.5,-74.5 1134.5,-93.5 1283.5,-93.5 1283.5,-74.5 1134.5,-74.5"/>
<text text-anchor="middle" x="1209" y="-81.5" font-family="Helvetica,sans-Serif" font-size="10.00">Math/GenVector/Rotation3D.h</text>
</g>
<!-- Node24&#45;&gt;Node27 -->
<g id="edge30" class="edge"><title>Node24&#45;&gt;Node27</title>
<path fill="none" stroke="midnightblue" d="M1052.53,-142.372C1084.15,-130.778 1140.5,-110.116 1176.25,-97.0087"/>
<polygon fill="midnightblue" stroke="midnightblue" points="1177.56,-100.255 1185.75,-93.5259 1175.15,-93.6824 1177.56,-100.255"/>
</g>
<!-- Node28 -->
<g id="node28" class="node"><title>Node28</title>
<polygon fill="none" stroke="#bfbfbf" points="1302,-74.5 1302,-93.5 1458,-93.5 1458,-74.5 1302,-74.5"/>
<text text-anchor="middle" x="1380" y="-81.5" font-family="Helvetica,sans-Serif" font-size="10.00">Math/GenVector/Transform3D.h</text>
</g>
<!-- Node24&#45;&gt;Node28 -->
<g id="edge31" class="edge"><title>Node24&#45;&gt;Node28</title>
<path fill="none" stroke="midnightblue" d="M1072.56,-142.448C1083.48,-140.324 1095.16,-138.064 1106,-136 1181.17,-121.682 1268.04,-105.59 1323.46,-95.3805"/>
<polygon fill="midnightblue" stroke="midnightblue" points="1324.23,-98.7973 1333.44,-93.5444 1322.97,-91.9131 1324.23,-98.7973"/>
</g>
<!-- Node29 -->
<g id="node29" class="node"><title>Node29</title>
<polygon fill="none" stroke="#bfbfbf" points="1476,-74.5 1476,-93.5 1636,-93.5 1636,-74.5 1476,-74.5"/>
<text text-anchor="middle" x="1556" y="-81.5" font-family="Helvetica,sans-Serif" font-size="10.00">Math/GenVector/Translation3D.h</text>
</g>
<!-- Node24&#45;&gt;Node29 -->
<g id="edge32" class="edge"><title>Node24&#45;&gt;Node29</title>
<path fill="none" stroke="midnightblue" d="M1069.24,-142.428C1081.05,-140.112 1094.01,-137.762 1106,-136 1265.53,-112.559 1307.19,-121.411 1467,-100 1477.36,-98.6124 1488.36,-96.9299 1498.96,-95.2002"/>
<polygon fill="midnightblue" stroke="midnightblue" points="1499.69,-98.6281 1508.98,-93.5355 1498.54,-91.7229 1499.69,-98.6281"/>
</g>
<!-- Node30 -->
<g id="node30" class="node"><title>Node30</title>
<polygon fill="none" stroke="#bfbfbf" points="1654.5,-74.5 1654.5,-93.5 1699.5,-93.5 1699.5,-74.5 1654.5,-74.5"/>
<text text-anchor="middle" x="1677" y="-81.5" font-family="Helvetica,sans-Serif" font-size="10.00">iosfwd</text>
</g>
<!-- Node24&#45;&gt;Node30 -->
<g id="edge35" class="edge"><title>Node24&#45;&gt;Node30</title>
<path fill="none" stroke="midnightblue" d="M1067.62,-142.491C1079.84,-140.063 1093.44,-137.636 1106,-136 1344.08,-104.985 1412.52,-159.984 1645,-100 1647.5,-99.3562 1650.03,-98.5199 1652.53,-97.5715"/>
<polygon fill="midnightblue" stroke="midnightblue" points="1654.04,-100.733 1661.81,-93.5294 1651.24,-94.3155 1654.04,-100.733"/>
</g>
<!-- Node31 -->
<g id="node31" class="node"><title>Node31</title>
<g id="a_node31"><a xlink:href="../../d2/dd0/Cartesian2D_8h.html" target="_top" xlink:title="MathUtils/Cartesian2D.h">
<polygon fill="none" stroke="black" points="1717.5,-74.5 1717.5,-93.5 1842.5,-93.5 1842.5,-74.5 1717.5,-74.5"/>
<text text-anchor="middle" x="1780" y="-81.5" font-family="Helvetica,sans-Serif" font-size="10.00">MathUtils/Cartesian2D.h</text>
</a>
</g>
</g>
<!-- Node24&#45;&gt;Node31 -->
<g id="edge36" class="edge"><title>Node24&#45;&gt;Node31</title>
<path fill="none" stroke="midnightblue" d="M1067.61,-142.437C1079.84,-140.008 1093.43,-137.592 1106,-136 1371.91,-102.3 1442.32,-135.427 1708,-100 1716.55,-98.8598 1725.6,-97.2766 1734.3,-95.5638"/>
<polygon fill="midnightblue" stroke="midnightblue" points="1735.19,-98.9525 1744.29,-93.5122 1733.79,-92.0956 1735.19,-98.9525"/>
</g>
<!-- Node32 -->
<g id="node32" class="node"><title>Node32</title>
<polygon fill="none" stroke="#bfbfbf" points="1795.5,-1 1795.5,-31 1946.5,-31 1946.5,-1 1795.5,-1"/>
<text text-anchor="start" x="1803.5" y="-19" font-family="Helvetica,sans-Serif" font-size="10.00">Math/GenVector/Displacement</text>
<text text-anchor="middle" x="1871" y="-8" font-family="Helvetica,sans-Serif" font-size="10.00">Vector2D.h</text>
</g>
<!-- Node31&#45;&gt;Node32 -->
<g id="edge37" class="edge"><title>Node31&#45;&gt;Node32</title>
<path fill="none" stroke="midnightblue" d="M1791.9,-74.3717C1804.78,-65.0286 1825.78,-49.7966 1842.91,-37.375"/>
<polygon fill="midnightblue" stroke="midnightblue" points="1845.41,-39.8859 1851.45,-31.1815 1841.3,-34.2194 1845.41,-39.8859"/>
</g>
<!-- Node33 -->
<g id="node33" class="node"><title>Node33</title>
<polygon fill="none" stroke="#bfbfbf" points="1601,-6.5 1601,-25.5 1777,-25.5 1777,-6.5 1601,-6.5"/>
<text text-anchor="middle" x="1689" y="-13.5" font-family="Helvetica,sans-Serif" font-size="10.00">Math/GenVector/PositionVector2D.h</text>
</g>
<!-- Node31&#45;&gt;Node33 -->
<g id="edge38" class="edge"><title>Node31&#45;&gt;Node33</title>
<path fill="none" stroke="midnightblue" d="M1768.1,-74.3717C1753.12,-63.5015 1727.14,-44.6602 1709.06,-31.5474"/>
<polygon fill="midnightblue" stroke="midnightblue" points="1711.05,-28.6684 1700.9,-25.6305 1706.94,-34.3349 1711.05,-28.6684"/>
</g>
<!-- Node34&#45;&gt;Node6 -->
<g id="edge42" class="edge"><title>Node34&#45;&gt;Node6</title>
<path fill="none" stroke="midnightblue" d="M618.076,-272.403C651.266,-261.462 708.497,-242.594 743.623,-231.015"/>
<polygon fill="midnightblue" stroke="midnightblue" points="744.933,-234.268 753.334,-227.813 742.741,-227.62 744.933,-234.268"/>
</g>
<!-- Node34&#45;&gt;Node35 -->
<g id="edge41" class="edge"><title>Node34&#45;&gt;Node35</title>
<path fill="none" stroke="midnightblue" d="M551.327,-272.467C498.19,-261.32 405.469,-241.868 350.505,-230.337"/>
<polygon fill="midnightblue" stroke="midnightblue" points="351.205,-226.908 340.7,-228.28 349.768,-233.758 351.205,-226.908"/>
</g>
<!-- Node36 -->
<g id="node36" class="node"><title>Node36</title>
<g id="a_node36"><a xlink:href="../../d4/d20/DetMatrixCache_8h.html" target="_top" xlink:title="DetectorsCommonDataFormats\l/DetMatrixCache.h">
<polygon fill="none" stroke="black" points="487,-205 487,-235 643,-235 643,-205 487,-205"/>
<text text-anchor="start" x="495" y="-223" font-family="Helvetica,sans-Serif" font-size="10.00">DetectorsCommonDataFormats</text>
<text text-anchor="middle" x="565" y="-212" font-family="Helvetica,sans-Serif" font-size="10.00">/DetMatrixCache.h</text>
</a>
</g>
</g>
<!-- Node34&#45;&gt;Node36 -->
<g id="edge43" class="edge"><title>Node34&#45;&gt;Node36</title>
<path fill="none" stroke="midnightblue" d="M588.132,-272.403C584.851,-265.113 579.986,-254.303 575.564,-244.475"/>
<polygon fill="midnightblue" stroke="midnightblue" points="578.659,-242.824 571.363,-235.141 572.275,-245.696 578.659,-242.824"/>
</g>
<!-- Node36&#45;&gt;Node5 -->
<g id="edge46" class="edge"><title>Node36&#45;&gt;Node5</title>
<path fill="none" stroke="midnightblue" d="M486.873,-210.59C428.158,-202.718 354.188,-188.984 332,-168 294.848,-132.865 289.608,-67.9456 289.449,-35.9021"/>
<polygon fill="midnightblue" stroke="midnightblue" points="292.951,-35.7411 289.57,-25.7001 285.951,-35.6577 292.951,-35.7411"/>
</g>
<!-- Node36&#45;&gt;Node7 -->
<g id="edge47" class="edge"><title>Node36&#45;&gt;Node7</title>
<path fill="none" stroke="midnightblue" d="M486.871,-208.347C433.32,-199.998 361.029,-186.653 299,-168 296.356,-167.205 293.64,-166.282 290.944,-165.293"/>
<polygon fill="midnightblue" stroke="midnightblue" points="292.005,-161.95 281.419,-161.528 289.432,-168.459 292.005,-161.95"/>
</g>
<!-- Node36&#45;&gt;Node14 -->
<g id="edge48" class="edge"><title>Node36&#45;&gt;Node14</title>
<path fill="none" stroke="midnightblue" d="M599.324,-204.841C623.343,-194.933 655.624,-181.618 681.454,-170.963"/>
<polygon fill="midnightblue" stroke="midnightblue" points="683.098,-174.071 691.008,-167.022 680.429,-167.6 683.098,-174.071"/>
</g>
<!-- Node36&#45;&gt;Node24 -->
<g id="edge49" class="edge"><title>Node36&#45;&gt;Node24</title>
<path fill="none" stroke="midnightblue" d="M643.187,-207.879C731.541,-195.311 874.064,-175.038 958.927,-162.967"/>
<polygon fill="midnightblue" stroke="midnightblue" points="959.575,-166.41 968.983,-161.537 958.589,-159.48 959.575,-166.41"/>
</g>
<!-- Node37 -->
<g id="node37" class="node"><title>Node37</title>
<polygon fill="none" stroke="#bfbfbf" points="341,-142.5 341,-161.5 483,-161.5 483,-142.5 341,-142.5"/>
<text text-anchor="middle" x="412" y="-149.5" font-family="Helvetica,sans-Serif" font-size="10.00">AliTPCCommonFairLogger.h</text>
</g>
<!-- Node36&#45;&gt;Node37 -->
<g id="edge44" class="edge"><title>Node36&#45;&gt;Node37</title>
<path fill="none" stroke="midnightblue" d="M532.178,-204.841C505.239,-193.221 467.432,-176.912 441.455,-165.706"/>
<polygon fill="midnightblue" stroke="midnightblue" points="442.695,-162.429 432.126,-161.682 439.922,-168.857 442.695,-162.429"/>
</g>
<!-- Node38 -->
<g id="node38" class="node"><title>Node38</title>
<polygon fill="none" stroke="#bfbfbf" points="501,-142.5 501,-161.5 629,-161.5 629,-142.5 501,-142.5"/>
<text text-anchor="middle" x="565" y="-149.5" font-family="Helvetica,sans-Serif" font-size="10.00">AliTPCCommonRtypes.h</text>
</g>
<!-- Node36&#45;&gt;Node38 -->
<g id="edge45" class="edge"><title>Node36&#45;&gt;Node38</title>
<path fill="none" stroke="midnightblue" d="M565,-204.679C565,-195.101 565,-182.394 565,-171.977"/>
<polygon fill="midnightblue" stroke="midnightblue" points="568.5,-171.828 565,-161.828 561.5,-171.828 568.5,-171.828"/>
</g>
<!-- Node39&#45;&gt;Node15 -->
<g id="edge54" class="edge"><title>Node39&#45;&gt;Node15</title>
<path fill="none" stroke="midnightblue" d="M960.826,-272.263C945.851,-247.644 900.02,-176.847 845,-136 841.144,-133.137 789.643,-111.648 755.376,-97.4928"/>
<polygon fill="midnightblue" stroke="midnightblue" points="756.373,-94.1182 745.794,-93.5402 753.704,-100.589 756.373,-94.1182"/>
</g>
</g>
</svg>
