<?xml version="1.0" encoding="UTF-8" standalone="no"?>
<!DOCTYPE svg PUBLIC "-//W3C//DTD SVG 1.1//EN"
 "http://www.w3.org/Graphics/SVG/1.1/DTD/svg11.dtd">
<!-- Generated by graphviz version 2.36.0 (20140111.2315)
 -->
<!-- Title: o2::DataFlow::TimeframeValidatorDevice Pages: 1 -->
<svg width="324pt" height="366pt"
 viewBox="0.00 0.00 324.00 366.00" xmlns="http://www.w3.org/2000/svg" xmlns:xlink="http://www.w3.org/1999/xlink">
<g id="graph0" class="graph" transform="scale(1 1) rotate(0) translate(4 362)">
<title>o2::DataFlow::TimeframeValidatorDevice</title>
<!-- Node1 -->
<g id="node1" class="node"><title>Node1</title>
<polygon fill="#bfbfbf" stroke="black" points="85,-0.5 85,-101.5 251,-101.5 251,-0.5 85,-0.5"/>
<text text-anchor="start" x="93" y="-89.5" font-family="Helvetica,sans-Serif" font-size="10.00">o2::DataFlow::TimeframeValidator</text>
<text text-anchor="middle" x="168" y="-78.5" font-family="Helvetica,sans-Serif" font-size="10.00">Device</text>
<polyline fill="none" stroke="black" points="85,-71.5 251,-71.5 "/>
<text text-anchor="middle" x="168" y="-59.5" font-family="Helvetica,sans-Serif" font-size="10.00"> </text>
<polyline fill="none" stroke="black" points="85,-52.5 251,-52.5 "/>
<text text-anchor="start" x="93" y="-40.5" font-family="Helvetica,sans-Serif" font-size="10.00">+ TimeframeValidatorDevice()</text>
<text text-anchor="start" x="93" y="-29.5" font-family="Helvetica,sans-Serif" font-size="10.00">+ ~TimeframeValidatorDevice()</text>
<text text-anchor="start" x="93" y="-18.5" font-family="Helvetica,sans-Serif" font-size="10.00">+ InitTask()</text>
<text text-anchor="start" x="93" y="-7.5" font-family="Helvetica,sans-Serif" font-size="10.00"># Run()</text>
</g>
<!-- Node2 -->
<g id="node2" class="node"><title>Node2</title>
<g id="a_node2"><a xlink:href="../../da/df6/classo2_1_1Base_1_1O2Device.html" target="_top" xlink:title="{o2::Base::O2Device\n||+ ~O2Device()\l+ GetMonitoring()\l+ Init()\l}">
<polygon fill="none" stroke="black" points="49.5,-160.5 49.5,-239.5 154.5,-239.5 154.5,-160.5 49.5,-160.5"/>
<text text-anchor="middle" x="102" y="-227.5" font-family="Helvetica,sans-Serif" font-size="10.00">o2::Base::O2Device</text>
<polyline fill="none" stroke="black" points="49.5,-220.5 154.5,-220.5 "/>
<text text-anchor="middle" x="102" y="-208.5" font-family="Helvetica,sans-Serif" font-size="10.00"> </text>
<polyline fill="none" stroke="black" points="49.5,-201.5 154.5,-201.5 "/>
<text text-anchor="start" x="57.5" y="-189.5" font-family="Helvetica,sans-Serif" font-size="10.00">+ ~O2Device()</text>
<text text-anchor="start" x="57.5" y="-178.5" font-family="Helvetica,sans-Serif" font-size="10.00">+ GetMonitoring()</text>
<text text-anchor="start" x="57.5" y="-167.5" font-family="Helvetica,sans-Serif" font-size="10.00">+ Init()</text>
</a>
</g>
</g>
<!-- Node2&#45;&gt;Node1 -->
<g id="edge1" class="edge"><title>Node2&#45;&gt;Node1</title>
<path fill="none" stroke="midnightblue" d="M123.626,-150.833C130.695,-135.088 138.558,-117.576 145.677,-101.719"/>
<polygon fill="none" stroke="midnightblue" points="120.244,-149.821 119.341,-160.377 126.63,-152.688 120.244,-149.821"/>
</g>
<!-- Node3 -->
<g id="node3" class="node"><title>Node3</title>
<g id="a_node3"><a xlink:href="../../db/dfe/classFairMQDevice.html" target="_top" xlink:title="{FairMQDevice\n||}">
<polygon fill="none" stroke="black" points="0,-294.5 0,-351.5 80,-351.5 80,-294.5 0,-294.5"/>
<text text-anchor="middle" x="40" y="-339.5" font-family="Helvetica,sans-Serif" font-size="10.00">FairMQDevice</text>
<polyline fill="none" stroke="black" points="0,-332.5 80,-332.5 "/>
<text text-anchor="middle" x="40" y="-320.5" font-family="Helvetica,sans-Serif" font-size="10.00"> </text>
<polyline fill="none" stroke="black" points="0,-313.5 80,-313.5 "/>
<text text-anchor="middle" x="40" y="-301.5" font-family="Helvetica,sans-Serif" font-size="10.00"> </text>
</a>
</g>
</g>
<!-- Node3&#45;&gt;Node2 -->
<g id="edge2" class="edge"><title>Node3&#45;&gt;Node2</title>
<path fill="none" stroke="midnightblue" d="M58.8953,-285.124C66.275,-270.721 74.7403,-254.2 82.2043,-239.633"/>
<polygon fill="none" stroke="midnightblue" points="55.6694,-283.744 54.2241,-294.24 61.8992,-286.937 55.6694,-283.744"/>
</g>
<!-- Node4 -->
<g id="node4" class="node"><title>Node4</title>
<polygon fill="none" stroke="#bfbfbf" points="98,-289 98,-357 230,-357 230,-289 98,-289"/>
<text text-anchor="start" x="106" y="-345" font-family="Helvetica,sans-Serif" font-size="10.00">unique_ptr&lt; o2::monitoring</text>
<text text-anchor="middle" x="164" y="-334" font-family="Helvetica,sans-Serif" font-size="10.00">::Monitoring &gt;</text>
<polyline fill="none" stroke="#bfbfbf" points="98,-327 230,-327 "/>
<text text-anchor="middle" x="164" y="-315" font-family="Helvetica,sans-Serif" font-size="10.00"> </text>
<polyline fill="none" stroke="#bfbfbf" points="98,-308 230,-308 "/>
<text text-anchor="middle" x="164" y="-296" font-family="Helvetica,sans-Serif" font-size="10.00"> </text>
</g>
<!-- Node4&#45;&gt;Node2 -->
<g id="edge3" class="edge"><title>Node4&#45;&gt;Node2</title>
<path fill="none" stroke="#404040" d="M147.058,-288.936C140.952,-277.019 133.922,-263.3 127.259,-250.296"/>
<polygon fill="none" stroke="#404040" points="127.249,-250.277 120.953,-246.761 121.777,-239.597 128.073,-243.113 127.249,-250.277"/>
<text text-anchor="middle" x="164.5" y="-261.5" font-family="Helvetica,sans-Serif" font-size="10.00"> +monitoring</text>
</g>
<!-- Node5 -->
<g id="node5" class="node"><title>Node5</title>
<polygon fill="none" stroke="#bfbfbf" points="172.5,-171.5 172.5,-228.5 207.5,-228.5 207.5,-171.5 172.5,-171.5"/>
<text text-anchor="middle" x="190" y="-216.5" font-family="Helvetica,sans-Serif" font-size="10.00">char</text>
<polyline fill="none" stroke="#bfbfbf" points="172.5,-209.5 207.5,-209.5 "/>
<text text-anchor="middle" x="190" y="-197.5" font-family="Helvetica,sans-Serif" font-size="10.00"> </text>
<polyline fill="none" stroke="#bfbfbf" points="172.5,-190.5 207.5,-190.5 "/>
<text text-anchor="middle" x="190" y="-178.5" font-family="Helvetica,sans-Serif" font-size="10.00"> </text>
</g>
<!-- Node5&#45;&gt;Node1 -->
<g id="edge4" class="edge"><title>Node5&#45;&gt;Node1</title>
<path fill="none" stroke="#404040" d="M185.862,-171.35C183.418,-155.019 180.221,-133.66 177.209,-113.532"/>
<polygon fill="none" stroke="#404040" points="177.191,-113.411 172.347,-108.069 175.415,-101.543 180.259,-106.885 177.191,-113.411"/>
<text text-anchor="middle" x="248" y="-134" font-family="Helvetica,sans-Serif" font-size="10.00"> #mInChannelName</text>
<text text-anchor="middle" x="248" y="-123" font-family="Helvetica,sans-Serif" font-size="10.00">+OptionKeyInputChannelName</text>
</g>
</g>
</svg>
