<?xml version="1.0" encoding="UTF-8" standalone="no"?>
<!DOCTYPE svg PUBLIC "-//W3C//DTD SVG 1.1//EN"
 "http://www.w3.org/Graphics/SVG/1.1/DTD/svg11.dtd">
<!-- Generated by graphviz version 2.36.0 (20140111.2315)
 -->
<!-- Title: /home/travis/build/AliceO2Group/AliceO2/macro/CheckDigits_mft.C Pages: 1 -->
<svg width="1993pt" height="390pt"
 viewBox="0.00 0.00 1993.00 390.00" xmlns="http://www.w3.org/2000/svg" xmlns:xlink="http://www.w3.org/1999/xlink">
<g id="graph0" class="graph" transform="scale(1 1) rotate(0) translate(4 386)">
<title>/home/travis/build/AliceO2Group/AliceO2/macro/CheckDigits_mft.C</title>
<!-- Node1 -->
<g id="node1" class="node"><title>Node1</title>
<polygon fill="#bfbfbf" stroke="black" points="464,-340.5 464,-381.5 598,-381.5 598,-340.5 464,-340.5"/>
<text text-anchor="start" x="472" y="-369.5" font-family="Helvetica,sans-Serif" font-size="10.00">/home/travis/build</text>
<text text-anchor="start" x="472" y="-358.5" font-family="Helvetica,sans-Serif" font-size="10.00">/AliceO2Group/AliceO2</text>
<text text-anchor="middle" x="531" y="-347.5" font-family="Helvetica,sans-Serif" font-size="10.00">/macro/CheckDigits_mft.C</text>
</g>
<!-- Node2 -->
<g id="node2" class="node"><title>Node2</title>
<polygon fill="none" stroke="#bfbfbf" points="-0.5,-278.5 -0.5,-297.5 64.5,-297.5 64.5,-278.5 -0.5,-278.5"/>
<text text-anchor="middle" x="32" y="-285.5" font-family="Helvetica,sans-Serif" font-size="10.00">TCanvas.h</text>
</g>
<!-- Node1&#45;&gt;Node2 -->
<g id="edge1" class="edge"><title>Node1&#45;&gt;Node2</title>
<path fill="none" stroke="midnightblue" d="M463.78,-356.605C373.74,-350.968 209.488,-336.851 73,-304 69.5043,-303.159 65.8963,-302.114 62.3377,-300.97"/>
<polygon fill="midnightblue" stroke="midnightblue" points="63.1683,-297.554 52.5735,-297.572 60.8671,-304.165 63.1683,-297.554"/>
</g>
<!-- Node3 -->
<g id="node3" class="node"><title>Node3</title>
<polygon fill="none" stroke="#bfbfbf" points="82.5,-278.5 82.5,-297.5 129.5,-297.5 129.5,-278.5 82.5,-278.5"/>
<text text-anchor="middle" x="106" y="-285.5" font-family="Helvetica,sans-Serif" font-size="10.00">TFile.h</text>
</g>
<!-- Node1&#45;&gt;Node3 -->
<g id="edge2" class="edge"><title>Node1&#45;&gt;Node3</title>
<path fill="none" stroke="midnightblue" d="M463.888,-356.231C384.835,-350.469 250.189,-336.487 139,-304 136.655,-303.315 134.263,-302.493 131.892,-301.591"/>
<polygon fill="midnightblue" stroke="midnightblue" points="133.008,-298.263 122.435,-297.581 130.275,-304.707 133.008,-298.263"/>
</g>
<!-- Node4 -->
<g id="node4" class="node"><title>Node4</title>
<polygon fill="none" stroke="#bfbfbf" points="148,-278.5 148,-297.5 198,-297.5 198,-278.5 148,-278.5"/>
<text text-anchor="middle" x="173" y="-285.5" font-family="Helvetica,sans-Serif" font-size="10.00">TH2F.h</text>
</g>
<!-- Node1&#45;&gt;Node4 -->
<g id="edge3" class="edge"><title>Node1&#45;&gt;Node4</title>
<path fill="none" stroke="midnightblue" d="M463.811,-353.239C397.503,-345.441 293.75,-330.201 207,-304 204.568,-303.266 202.08,-302.402 199.61,-301.467"/>
<polygon fill="midnightblue" stroke="midnightblue" points="200.914,-298.219 190.336,-297.624 198.235,-304.685 200.914,-298.219"/>
</g>
<!-- Node5 -->
<g id="node5" class="node"><title>Node5</title>
<polygon fill="none" stroke="#bfbfbf" points="216.5,-278.5 216.5,-297.5 275.5,-297.5 275.5,-278.5 216.5,-278.5"/>
<text text-anchor="middle" x="246" y="-285.5" font-family="Helvetica,sans-Serif" font-size="10.00">TNtuple.h</text>
</g>
<!-- Node1&#45;&gt;Node5 -->
<g id="edge4" class="edge"><title>Node1&#45;&gt;Node5</title>
<path fill="none" stroke="midnightblue" d="M463.76,-347.404C413.926,-337.416 344.606,-322.145 285,-304 282.202,-303.148 279.319,-302.193 276.446,-301.188"/>
<polygon fill="midnightblue" stroke="midnightblue" points="277.451,-297.828 266.857,-297.655 275.031,-304.397 277.451,-297.828"/>
</g>
<!-- Node6 -->
<g id="node6" class="node"><title>Node6</title>
<polygon fill="none" stroke="#bfbfbf" points="294,-278.5 294,-297.5 350,-297.5 350,-278.5 294,-278.5"/>
<text text-anchor="middle" x="322" y="-285.5" font-family="Helvetica,sans-Serif" font-size="10.00">TString.h</text>
</g>
<!-- Node1&#45;&gt;Node6 -->
<g id="edge5" class="edge"><title>Node1&#45;&gt;Node6</title>
<path fill="none" stroke="midnightblue" d="M467.327,-340.446C434.74,-330.142 394.548,-316.974 359,-304 356.607,-303.127 354.139,-302.195 351.666,-301.24"/>
<polygon fill="midnightblue" stroke="midnightblue" points="352.842,-297.941 342.256,-297.511 350.264,-304.449 352.842,-297.941"/>
</g>
<!-- Node7 -->
<g id="node7" class="node"><title>Node7</title>
<polygon fill="none" stroke="#bfbfbf" points="368,-278.5 368,-297.5 418,-297.5 418,-278.5 368,-278.5"/>
<text text-anchor="middle" x="393" y="-285.5" font-family="Helvetica,sans-Serif" font-size="10.00">TTree.h</text>
</g>
<!-- Node1&#45;&gt;Node7 -->
<g id="edge6" class="edge"><title>Node1&#45;&gt;Node7</title>
<path fill="none" stroke="midnightblue" d="M492.926,-340.411C469.265,-328.238 439.487,-312.917 418.617,-302.18"/>
<polygon fill="midnightblue" stroke="midnightblue" points="420.203,-299.06 409.709,-297.597 417,-305.284 420.203,-299.06"/>
</g>
<!-- Node8 -->
<g id="node8" class="node"><title>Node8</title>
<g id="a_node8"><a xlink:href="../../d0/d06/ITSMFT_2common_2base_2include_2ITSMFTBase_2Digit_8h.html" target="_top" xlink:title="ITSMFTBase/Digit.h">
<polygon fill="none" stroke="black" points="436.5,-278.5 436.5,-297.5 543.5,-297.5 543.5,-278.5 436.5,-278.5"/>
<text text-anchor="middle" x="490" y="-285.5" font-family="Helvetica,sans-Serif" font-size="10.00">ITSMFTBase/Digit.h</text>
</a>
</g>
</g>
<!-- Node1&#45;&gt;Node8 -->
<g id="edge7" class="edge"><title>Node1&#45;&gt;Node8</title>
<path fill="none" stroke="midnightblue" d="M519.579,-340.223C513.474,-329.65 506.023,-316.747 500.126,-306.536"/>
<polygon fill="midnightblue" stroke="midnightblue" points="503.076,-304.644 495.044,-297.735 497.014,-308.145 503.076,-304.644"/>
</g>
<!-- Node11 -->
<g id="node11" class="node"><title>Node11</title>
<g id="a_node11"><a xlink:href="../../d3/dba/SegmentationAlpide_8h.html" target="_top" xlink:title="Definition of the SegmentationAlpide class. ">
<polygon fill="none" stroke="black" points="446.5,-142.5 446.5,-161.5 619.5,-161.5 619.5,-142.5 446.5,-142.5"/>
<text text-anchor="middle" x="533" y="-149.5" font-family="Helvetica,sans-Serif" font-size="10.00">ITSMFTBase/SegmentationAlpide.h</text>
</a>
</g>
</g>
<!-- Node1&#45;&gt;Node11 -->
<g id="edge10" class="edge"><title>Node1&#45;&gt;Node11</title>
<path fill="none" stroke="midnightblue" d="M557.856,-340.442C568.772,-330.834 580.171,-318.253 586,-304 602.823,-262.862 603.402,-244.896 586,-204 579.705,-189.206 566.782,-176.628 555.273,-167.664"/>
<polygon fill="midnightblue" stroke="midnightblue" points="557.022,-164.607 546.881,-161.537 552.894,-170.261 557.022,-164.607"/>
</g>
<!-- Node12 -->
<g id="node12" class="node"><title>Node12</title>
<g id="a_node12"><a xlink:href="../../d0/dae/ITSMFT_2common_2simulation_2include_2ITSMFTSimulation_2Hit_8h.html" target="_top" xlink:title="ITSMFTSimulation/Hit.h">
<polygon fill="none" stroke="black" points="674,-278.5 674,-297.5 796,-297.5 796,-278.5 674,-278.5"/>
<text text-anchor="middle" x="735" y="-285.5" font-family="Helvetica,sans-Serif" font-size="10.00">ITSMFTSimulation/Hit.h</text>
</a>
</g>
</g>
<!-- Node1&#45;&gt;Node12 -->
<g id="edge12" class="edge"><title>Node1&#45;&gt;Node12</title>
<path fill="none" stroke="midnightblue" d="M587.284,-340.411C623.785,-327.707 670.135,-311.576 701.088,-300.803"/>
<polygon fill="midnightblue" stroke="midnightblue" points="702.271,-304.097 710.565,-297.504 699.97,-297.486 702.271,-304.097"/>
</g>
<!-- Node33 -->
<g id="node33" class="node"><title>Node33</title>
<polygon fill="none" stroke="#bfbfbf" points="1259.5,-278.5 1259.5,-297.5 1396.5,-297.5 1396.5,-278.5 1259.5,-278.5"/>
<text text-anchor="middle" x="1328" y="-285.5" font-family="Helvetica,sans-Serif" font-size="10.00">MFTBase/GeometryTGeo.h</text>
</g>
<!-- Node1&#45;&gt;Node33 -->
<g id="edge36" class="edge"><title>Node1&#45;&gt;Node33</title>
<path fill="none" stroke="midnightblue" d="M598.175,-357.288C725.698,-351.582 1011.45,-336.124 1250,-304 1259.13,-302.77 1268.81,-301.16 1278.13,-299.452"/>
<polygon fill="midnightblue" stroke="midnightblue" points="1278.88,-302.872 1288.06,-297.574 1277.58,-295.994 1278.88,-302.872"/>
</g>
<!-- Node34 -->
<g id="node34" class="node"><title>Node34</title>
<g id="a_node34"><a xlink:href="../../d9/d52/Common_2MathUtils_2include_2MathUtils_2Utils_8h.html" target="_top" xlink:title="MathUtils/Utils.h">
<polygon fill="none" stroke="black" points="1415,-278.5 1415,-297.5 1505,-297.5 1505,-278.5 1415,-278.5"/>
<text text-anchor="middle" x="1460" y="-285.5" font-family="Helvetica,sans-Serif" font-size="10.00">MathUtils/Utils.h</text>
</a>
</g>
</g>
<!-- Node1&#45;&gt;Node34 -->
<g id="edge37" class="edge"><title>Node1&#45;&gt;Node34</title>
<path fill="none" stroke="midnightblue" d="M598.135,-360.303C745.333,-359.962 1107.1,-353.64 1405,-304 1410.94,-303.01 1417.17,-301.643 1423.2,-300.134"/>
<polygon fill="midnightblue" stroke="midnightblue" points="1424.34,-303.454 1433.11,-297.502 1422.54,-296.688 1424.34,-303.454"/>
</g>
<!-- Node38 -->
<g id="node38" class="node"><title>Node38</title>
<g id="a_node38"><a xlink:href="../../db/d14/MCTruthContainer_8h.html" target="_top" xlink:title="Definition of a container to keep Monte Carlo truth external to simulation objects. ">
<polygon fill="none" stroke="black" points="1127,-273 1127,-303 1241,-303 1241,-273 1127,-273"/>
<text text-anchor="start" x="1135" y="-291" font-family="Helvetica,sans-Serif" font-size="10.00">SimulationDataFormat</text>
<text text-anchor="middle" x="1184" y="-280" font-family="Helvetica,sans-Serif" font-size="10.00">/MCTruthContainer.h</text>
</a>
</g>
</g>
<!-- Node1&#45;&gt;Node38 -->
<g id="edge41" class="edge"><title>Node1&#45;&gt;Node38</title>
<path fill="none" stroke="midnightblue" d="M598.118,-352.702C723.317,-339.09 991.119,-309.972 1116.56,-296.333"/>
<polygon fill="midnightblue" stroke="midnightblue" points="1117.23,-299.78 1126.8,-295.22 1116.48,-292.821 1117.23,-299.78"/>
</g>
<!-- Node43 -->
<g id="node43" class="node"><title>Node43</title>
<g id="a_node43"><a xlink:href="../../d7/dcd/MCCompLabel_8h.html" target="_top" xlink:title="SimulationDataFormat\l/MCCompLabel.h">
<polygon fill="none" stroke="black" points="314,-137 314,-167 428,-167 428,-137 314,-137"/>
<text text-anchor="start" x="322" y="-155" font-family="Helvetica,sans-Serif" font-size="10.00">SimulationDataFormat</text>
<text text-anchor="middle" x="371" y="-144" font-family="Helvetica,sans-Serif" font-size="10.00">/MCCompLabel.h</text>
</a>
</g>
</g>
<!-- Node1&#45;&gt;Node43 -->
<g id="edge47" class="edge"><title>Node1&#45;&gt;Node43</title>
<path fill="none" stroke="midnightblue" d="M540.38,-340.278C544.864,-329.767 549.74,-316.464 552,-304 560.302,-258.216 555.506,-235.217 521,-204 508.051,-192.285 471.05,-179.646 437.039,-169.88"/>
<polygon fill="midnightblue" stroke="midnightblue" points="437.655,-166.418 427.081,-167.076 435.758,-173.156 437.655,-166.418"/>
</g>
<!-- Node44 -->
<g id="node44" class="node"><title>Node44</title>
<polygon fill="none" stroke="#bfbfbf" points="1523,-278.5 1523,-297.5 1567,-297.5 1567,-278.5 1523,-278.5"/>
<text text-anchor="middle" x="1545" y="-285.5" font-family="Helvetica,sans-Serif" font-size="10.00">vector</text>
</g>
<!-- Node1&#45;&gt;Node44 -->
<g id="edge49" class="edge"><title>Node1&#45;&gt;Node44</title>
<path fill="none" stroke="midnightblue" d="M598.325,-359.587C790.746,-357.867 1340.37,-349.036 1514,-304 1516.34,-303.392 1518.72,-302.601 1521.06,-301.7"/>
<polygon fill="midnightblue" stroke="midnightblue" points="1522.62,-304.84 1530.32,-297.565 1519.76,-298.449 1522.62,-304.84"/>
</g>
<!-- Node9 -->
<g id="node9" class="node"><title>Node9</title>
<polygon fill="none" stroke="#bfbfbf" points="326,-74.5 326,-93.5 382,-93.5 382,-74.5 326,-74.5"/>
<text text-anchor="middle" x="354" y="-81.5" font-family="Helvetica,sans-Serif" font-size="10.00">Rtypes.h</text>
</g>
<!-- Node8&#45;&gt;Node9 -->
<g id="edge8" class="edge"><title>Node8&#45;&gt;Node9</title>
<path fill="none" stroke="midnightblue" d="M461.617,-278.454C418.629,-263.795 338.48,-229.344 305,-168 298.187,-155.516 299.689,-149.193 305,-136 310.716,-121.799 322.486,-109.335 333.058,-100.283"/>
<polygon fill="midnightblue" stroke="midnightblue" points="335.538,-102.78 341.141,-93.7873 331.153,-97.3233 335.538,-102.78"/>
</g>
<!-- Node10 -->
<g id="node10" class="node"><title>Node10</title>
<polygon fill="none" stroke="#bfbfbf" points="467.5,-210.5 467.5,-229.5 512.5,-229.5 512.5,-210.5 467.5,-210.5"/>
<text text-anchor="middle" x="490" y="-217.5" font-family="Helvetica,sans-Serif" font-size="10.00">climits</text>
</g>
<!-- Node8&#45;&gt;Node10 -->
<g id="edge9" class="edge"><title>Node8&#45;&gt;Node10</title>
<path fill="none" stroke="midnightblue" d="M490,-278.372C490,-268.643 490,-252.528 490,-239.85"/>
<polygon fill="midnightblue" stroke="midnightblue" points="493.5,-239.841 490,-229.841 486.5,-239.841 493.5,-239.841"/>
</g>
<!-- Node11&#45;&gt;Node9 -->
<g id="edge11" class="edge"><title>Node11&#45;&gt;Node9</title>
<path fill="none" stroke="midnightblue" d="M508.262,-142.455C479.841,-132.56 431.863,-115.614 391,-100 388.76,-99.1441 386.45,-98.2457 384.129,-97.3317"/>
<polygon fill="midnightblue" stroke="midnightblue" points="385.27,-94.0184 374.685,-93.5573 382.672,-100.519 385.27,-94.0184"/>
</g>
<!-- Node12&#45;&gt;Node9 -->
<g id="edge26" class="edge"><title>Node12&#45;&gt;Node9</title>
<path fill="none" stroke="midnightblue" d="M726.329,-278.405C716.662,-268.6 700.833,-251.866 689,-236 657.875,-194.268 671.349,-164.83 628,-136 539.287,-76.999 493.74,-128.208 391,-100 388.021,-99.1822 384.959,-98.1946 381.931,-97.1211"/>
<polygon fill="midnightblue" stroke="midnightblue" points="383.118,-93.8275 372.528,-93.502 380.603,-100.36 383.118,-93.8275"/>
</g>
<!-- Node13 -->
<g id="node13" class="node"><title>Node13</title>
<g id="a_node13"><a xlink:href="../../d4/d25/BaseHits_8h.html" target="_top" xlink:title="SimulationDataFormat\l/BaseHits.h">
<polygon fill="none" stroke="black" points="714,-205 714,-235 828,-235 828,-205 714,-205"/>
<text text-anchor="start" x="722" y="-223" font-family="Helvetica,sans-Serif" font-size="10.00">SimulationDataFormat</text>
<text text-anchor="middle" x="771" y="-212" font-family="Helvetica,sans-Serif" font-size="10.00">/BaseHits.h</text>
</a>
</g>
</g>
<!-- Node12&#45;&gt;Node13 -->
<g id="edge13" class="edge"><title>Node12&#45;&gt;Node13</title>
<path fill="none" stroke="midnightblue" d="M739.706,-278.372C744.429,-269.714 751.909,-256.001 758.372,-244.152"/>
<polygon fill="midnightblue" stroke="midnightblue" points="761.549,-245.636 763.265,-235.181 755.403,-242.284 761.549,-245.636"/>
</g>
<!-- Node21 -->
<g id="node21" class="node"><title>Node21</title>
<polygon fill="none" stroke="#bfbfbf" points="400.5,-74.5 400.5,-93.5 445.5,-93.5 445.5,-74.5 400.5,-74.5"/>
<text text-anchor="middle" x="423" y="-81.5" font-family="Helvetica,sans-Serif" font-size="10.00">iosfwd</text>
</g>
<!-- Node12&#45;&gt;Node21 -->
<g id="edge28" class="edge"><title>Node12&#45;&gt;Node21</title>
<path fill="none" stroke="midnightblue" d="M729.341,-278.162C723.033,-268.14 712.706,-251.212 705,-236 683.137,-192.843 699.967,-165.984 662,-136 588.716,-78.1257 544.064,-128.065 455,-100 452.86,-99.3258 450.679,-98.5382 448.512,-97.6833"/>
<polygon fill="midnightblue" stroke="midnightblue" points="449.837,-94.4429 439.272,-93.6482 447.036,-100.858 449.837,-94.4429"/>
</g>
<!-- Node25 -->
<g id="node25" class="node"><title>Node25</title>
<polygon fill="none" stroke="#bfbfbf" points="1010.5,-210.5 1010.5,-229.5 1075.5,-229.5 1075.5,-210.5 1010.5,-210.5"/>
<text text-anchor="middle" x="1043" y="-217.5" font-family="Helvetica,sans-Serif" font-size="10.00">TVector3.h</text>
</g>
<!-- Node12&#45;&gt;Node25 -->
<g id="edge27" class="edge"><title>Node12&#45;&gt;Node25</title>
<path fill="none" stroke="midnightblue" d="M793.182,-278.486C847.469,-269.921 930.457,-255.237 1001,-236 1004.39,-235.076 1007.9,-234.008 1011.37,-232.876"/>
<polygon fill="midnightblue" stroke="midnightblue" points="1012.65,-236.14 1020.97,-229.585 1010.38,-229.519 1012.65,-236.14"/>
</g>
<!-- Node26 -->
<g id="node26" class="node"><title>Node26</title>
<g id="a_node26"><a xlink:href="../../d0/d91/ShmAllocator_8h.html" target="_top" xlink:title="CommonUtils/ShmAllocator.h">
<polygon fill="none" stroke="black" points="846,-210.5 846,-229.5 992,-229.5 992,-210.5 846,-210.5"/>
<text text-anchor="middle" x="919" y="-217.5" font-family="Helvetica,sans-Serif" font-size="10.00">CommonUtils/ShmAllocator.h</text>
</a>
</g>
</g>
<!-- Node12&#45;&gt;Node26 -->
<g id="edge29" class="edge"><title>Node12&#45;&gt;Node26</title>
<path fill="none" stroke="midnightblue" d="M759.055,-278.372C791.377,-266.778 848.979,-246.116 885.521,-233.009"/>
<polygon fill="midnightblue" stroke="midnightblue" points="887,-236.197 895.231,-229.526 884.636,-229.608 887,-236.197"/>
</g>
<!-- Node14 -->
<g id="node14" class="node"><title>Node14</title>
<g id="a_node14"><a xlink:href="../../dd/d76/Cartesian3D_8h.html" target="_top" xlink:title="MathUtils/Cartesian3D.h">
<polygon fill="none" stroke="black" points="714.5,-142.5 714.5,-161.5 839.5,-161.5 839.5,-142.5 714.5,-142.5"/>
<text text-anchor="middle" x="777" y="-149.5" font-family="Helvetica,sans-Serif" font-size="10.00">MathUtils/Cartesian3D.h</text>
</a>
</g>
</g>
<!-- Node13&#45;&gt;Node14 -->
<g id="edge14" class="edge"><title>Node13&#45;&gt;Node14</title>
<path fill="none" stroke="midnightblue" d="M772.302,-204.679C773.173,-195.101 774.328,-182.394 775.275,-171.977"/>
<polygon fill="midnightblue" stroke="midnightblue" points="778.778,-172.104 776.197,-161.828 771.806,-171.47 778.778,-172.104"/>
</g>
<!-- Node14&#45;&gt;Node9 -->
<g id="edge20" class="edge"><title>Node14&#45;&gt;Node9</title>
<path fill="none" stroke="midnightblue" d="M714.461,-142.839C606.181,-128.694 394.886,-101.026 391,-100 388.014,-99.2111 384.946,-98.2424 381.915,-97.1803"/>
<polygon fill="midnightblue" stroke="midnightblue" points="383.098,-93.8855 372.508,-93.5754 380.594,-100.422 383.098,-93.8855"/>
</g>
<!-- Node15 -->
<g id="node15" class="node"><title>Node15</title>
<polygon fill="none" stroke="#bfbfbf" points="701.5,-69 701.5,-99 852.5,-99 852.5,-69 701.5,-69"/>
<text text-anchor="start" x="709.5" y="-87" font-family="Helvetica,sans-Serif" font-size="10.00">Math/GenVector/Displacement</text>
<text text-anchor="middle" x="777" y="-76" font-family="Helvetica,sans-Serif" font-size="10.00">Vector3D.h</text>
</g>
<!-- Node14&#45;&gt;Node15 -->
<g id="edge15" class="edge"><title>Node14&#45;&gt;Node15</title>
<path fill="none" stroke="midnightblue" d="M777,-142.372C777,-133.971 777,-120.811 777,-109.213"/>
<polygon fill="midnightblue" stroke="midnightblue" points="780.5,-109.181 777,-99.1815 773.5,-109.181 780.5,-109.181"/>
</g>
<!-- Node16 -->
<g id="node16" class="node"><title>Node16</title>
<polygon fill="none" stroke="#bfbfbf" points="871,-74.5 871,-93.5 1047,-93.5 1047,-74.5 871,-74.5"/>
<text text-anchor="middle" x="959" y="-81.5" font-family="Helvetica,sans-Serif" font-size="10.00">Math/GenVector/PositionVector3D.h</text>
</g>
<!-- Node14&#45;&gt;Node16 -->
<g id="edge16" class="edge"><title>Node14&#45;&gt;Node16</title>
<path fill="none" stroke="midnightblue" d="M800.793,-142.372C832.764,-130.778 889.74,-110.116 925.885,-97.0087"/>
<polygon fill="midnightblue" stroke="midnightblue" points="927.282,-100.225 935.489,-93.5259 924.895,-93.6447 927.282,-100.225"/>
</g>
<!-- Node17 -->
<g id="node17" class="node"><title>Node17</title>
<polygon fill="none" stroke="#bfbfbf" points="1064.5,-74.5 1064.5,-93.5 1213.5,-93.5 1213.5,-74.5 1064.5,-74.5"/>
<text text-anchor="middle" x="1139" y="-81.5" font-family="Helvetica,sans-Serif" font-size="10.00">Math/GenVector/Rotation3D.h</text>
</g>
<!-- Node14&#45;&gt;Node17 -->
<g id="edge17" class="edge"><title>Node14&#45;&gt;Node17</title>
<path fill="none" stroke="midnightblue" d="M823.954,-142.439C890.143,-130.372 1010.74,-108.384 1081.99,-95.3945"/>
<polygon fill="midnightblue" stroke="midnightblue" points="1082.92,-98.7825 1092.13,-93.5455 1081.66,-91.896 1082.92,-98.7825"/>
</g>
<!-- Node18 -->
<g id="node18" class="node"><title>Node18</title>
<polygon fill="none" stroke="#bfbfbf" points="1232,-74.5 1232,-93.5 1388,-93.5 1388,-74.5 1232,-74.5"/>
<text text-anchor="middle" x="1310" y="-81.5" font-family="Helvetica,sans-Serif" font-size="10.00">Math/GenVector/Transform3D.h</text>
</g>
<!-- Node14&#45;&gt;Node18 -->
<g id="edge18" class="edge"><title>Node14&#45;&gt;Node18</title>
<path fill="none" stroke="midnightblue" d="M839.779,-144.899C926.077,-136.262 1086.12,-119.352 1222,-100 1231.9,-98.5905 1242.39,-96.9391 1252.56,-95.2571"/>
<polygon fill="midnightblue" stroke="midnightblue" points="1253.3,-98.6821 1262.58,-93.5727 1252.14,-91.779 1253.3,-98.6821"/>
</g>
<!-- Node19 -->
<g id="node19" class="node"><title>Node19</title>
<polygon fill="none" stroke="#bfbfbf" points="1406,-74.5 1406,-93.5 1566,-93.5 1566,-74.5 1406,-74.5"/>
<text text-anchor="middle" x="1486" y="-81.5" font-family="Helvetica,sans-Serif" font-size="10.00">Math/GenVector/Translation3D.h</text>
</g>
<!-- Node14&#45;&gt;Node19 -->
<g id="edge19" class="edge"><title>Node14&#45;&gt;Node19</title>
<path fill="none" stroke="midnightblue" d="M839.664,-147.61C951.767,-141.151 1193.92,-125.419 1397,-100 1407.71,-98.659 1419.11,-96.9531 1430.04,-95.176"/>
<polygon fill="midnightblue" stroke="midnightblue" points="1430.63,-98.6265 1439.92,-93.5323 1429.48,-91.7215 1430.63,-98.6265"/>
</g>
<!-- Node20 -->
<g id="node20" class="node"><title>Node20</title>
<polygon fill="none" stroke="#bfbfbf" points="464,-74.5 464,-93.5 540,-93.5 540,-74.5 464,-74.5"/>
<text text-anchor="middle" x="502" y="-81.5" font-family="Helvetica,sans-Serif" font-size="10.00">TGeoMatrix.h</text>
</g>
<!-- Node14&#45;&gt;Node20 -->
<g id="edge21" class="edge"><title>Node14&#45;&gt;Node20</title>
<path fill="none" stroke="midnightblue" d="M734.07,-142.449C688.233,-133.063 613.593,-117.05 550,-100 546.08,-98.949 542.001,-97.7852 537.95,-96.5841"/>
<polygon fill="midnightblue" stroke="midnightblue" points="538.63,-93.1325 528.044,-93.5648 536.589,-99.8284 538.63,-93.1325"/>
</g>
<!-- Node14&#45;&gt;Node21 -->
<g id="edge22" class="edge"><title>Node14&#45;&gt;Node21</title>
<path fill="none" stroke="midnightblue" d="M735.104,-142.471C723.734,-140.257 711.411,-137.949 700,-136 591.513,-117.473 560.396,-131.694 455,-100 452.719,-99.3142 450.395,-98.4916 448.092,-97.5894"/>
<polygon fill="midnightblue" stroke="midnightblue" points="449.481,-94.3769 438.917,-93.5792 446.678,-100.791 449.481,-94.3769"/>
</g>
<!-- Node22 -->
<g id="node22" class="node"><title>Node22</title>
<g id="a_node22"><a xlink:href="../../d2/dd0/Cartesian2D_8h.html" target="_top" xlink:title="MathUtils/Cartesian2D.h">
<polygon fill="none" stroke="black" points="558.5,-74.5 558.5,-93.5 683.5,-93.5 683.5,-74.5 558.5,-74.5"/>
<text text-anchor="middle" x="621" y="-81.5" font-family="Helvetica,sans-Serif" font-size="10.00">MathUtils/Cartesian2D.h</text>
</a>
</g>
</g>
<!-- Node14&#45;&gt;Node22 -->
<g id="edge23" class="edge"><title>Node14&#45;&gt;Node22</title>
<path fill="none" stroke="midnightblue" d="M756.606,-142.372C729.628,-130.958 681.878,-110.756 650.841,-97.6252"/>
<polygon fill="midnightblue" stroke="midnightblue" points="651.973,-94.3035 641.399,-93.6305 649.245,-100.75 651.973,-94.3035"/>
</g>
<!-- Node23 -->
<g id="node23" class="node"><title>Node23</title>
<polygon fill="none" stroke="#bfbfbf" points="454.5,-1 454.5,-31 605.5,-31 605.5,-1 454.5,-1"/>
<text text-anchor="start" x="462.5" y="-19" font-family="Helvetica,sans-Serif" font-size="10.00">Math/GenVector/Displacement</text>
<text text-anchor="middle" x="530" y="-8" font-family="Helvetica,sans-Serif" font-size="10.00">Vector2D.h</text>
</g>
<!-- Node22&#45;&gt;Node23 -->
<g id="edge24" class="edge"><title>Node22&#45;&gt;Node23</title>
<path fill="none" stroke="midnightblue" d="M609.103,-74.3717C596.221,-65.0286 575.22,-49.7966 558.093,-37.375"/>
<polygon fill="midnightblue" stroke="midnightblue" points="559.703,-34.2194 549.553,-31.1815 555.593,-39.8859 559.703,-34.2194"/>
</g>
<!-- Node24 -->
<g id="node24" class="node"><title>Node24</title>
<polygon fill="none" stroke="#bfbfbf" points="624,-6.5 624,-25.5 800,-25.5 800,-6.5 624,-6.5"/>
<text text-anchor="middle" x="712" y="-13.5" font-family="Helvetica,sans-Serif" font-size="10.00">Math/GenVector/PositionVector2D.h</text>
</g>
<!-- Node22&#45;&gt;Node24 -->
<g id="edge25" class="edge"><title>Node22&#45;&gt;Node24</title>
<path fill="none" stroke="midnightblue" d="M632.897,-74.3717C647.884,-63.5015 673.862,-44.6602 691.942,-31.5474"/>
<polygon fill="midnightblue" stroke="midnightblue" points="694.06,-34.3349 700.1,-25.6305 689.95,-28.6684 694.06,-34.3349"/>
</g>
<!-- Node27 -->
<g id="node27" class="node"><title>Node27</title>
<g id="a_node27"><a xlink:href="../../de/d61/ShmManager_8h.html" target="_top" xlink:title="CommonUtils/ShmManager.h">
<polygon fill="none" stroke="black" points="1526,-142.5 1526,-161.5 1672,-161.5 1672,-142.5 1526,-142.5"/>
<text text-anchor="middle" x="1599" y="-149.5" font-family="Helvetica,sans-Serif" font-size="10.00">CommonUtils/ShmManager.h</text>
</a>
</g>
</g>
<!-- Node26&#45;&gt;Node27 -->
<g id="edge30" class="edge"><title>Node26&#45;&gt;Node27</title>
<path fill="none" stroke="midnightblue" d="M961.958,-210.446C974.799,-208.104 988.936,-205.735 1002,-204 1184.43,-179.778 1399.82,-164.678 1515.5,-157.66"/>
<polygon fill="midnightblue" stroke="midnightblue" points="1515.93,-161.14 1525.7,-157.046 1515.51,-154.153 1515.93,-161.14"/>
</g>
<!-- Node32 -->
<g id="node32" class="node"><title>Node32</title>
<polygon fill="none" stroke="#bfbfbf" points="1690.5,-142.5 1690.5,-161.5 1739.5,-161.5 1739.5,-142.5 1690.5,-142.5"/>
<text text-anchor="middle" x="1715" y="-149.5" font-family="Helvetica,sans-Serif" font-size="10.00">cassert</text>
</g>
<!-- Node26&#45;&gt;Node32 -->
<g id="edge35" class="edge"><title>Node26&#45;&gt;Node32</title>
<path fill="none" stroke="midnightblue" d="M960.221,-210.494C973.505,-208.037 988.328,-205.591 1002,-204 1302.17,-169.059 1387.05,-238.139 1681,-168 1683.82,-167.326 1686.71,-166.426 1689.54,-165.399"/>
<polygon fill="midnightblue" stroke="midnightblue" points="1690.91,-168.62 1698.82,-161.569 1688.24,-162.149 1690.91,-168.62"/>
</g>
<!-- Node28 -->
<g id="node28" class="node"><title>Node28</title>
<polygon fill="none" stroke="#bfbfbf" points="1584.5,-74.5 1584.5,-93.5 1613.5,-93.5 1613.5,-74.5 1584.5,-74.5"/>
<text text-anchor="middle" x="1599" y="-81.5" font-family="Helvetica,sans-Serif" font-size="10.00">list</text>
</g>
<!-- Node27&#45;&gt;Node28 -->
<g id="edge31" class="edge"><title>Node27&#45;&gt;Node28</title>
<path fill="none" stroke="midnightblue" d="M1599,-142.372C1599,-132.643 1599,-116.528 1599,-103.85"/>
<polygon fill="midnightblue" stroke="midnightblue" points="1602.5,-103.841 1599,-93.8411 1595.5,-103.841 1602.5,-103.841"/>
</g>
<!-- Node29 -->
<g id="node29" class="node"><title>Node29</title>
<polygon fill="none" stroke="#bfbfbf" points="1631.5,-74.5 1631.5,-93.5 1680.5,-93.5 1680.5,-74.5 1631.5,-74.5"/>
<text text-anchor="middle" x="1656" y="-81.5" font-family="Helvetica,sans-Serif" font-size="10.00">cstddef</text>
</g>
<!-- Node27&#45;&gt;Node29 -->
<g id="edge32" class="edge"><title>Node27&#45;&gt;Node29</title>
<path fill="none" stroke="midnightblue" d="M1606.45,-142.372C1615.36,-132.053 1630.48,-114.551 1641.68,-101.585"/>
<polygon fill="midnightblue" stroke="midnightblue" points="1644.48,-103.697 1648.36,-93.8411 1639.18,-99.1217 1644.48,-103.697"/>
</g>
<!-- Node30 -->
<g id="node30" class="node"><title>Node30</title>
<polygon fill="none" stroke="#bfbfbf" points="1699,-69 1699,-99 1847,-99 1847,-69 1699,-69"/>
<text text-anchor="start" x="1707" y="-87" font-family="Helvetica,sans-Serif" font-size="10.00">boost/interprocess</text>
<text text-anchor="middle" x="1773" y="-76" font-family="Helvetica,sans-Serif" font-size="10.00">/managed_external_buffer.hpp</text>
</g>
<!-- Node27&#45;&gt;Node30 -->
<g id="edge33" class="edge"><title>Node27&#45;&gt;Node30</title>
<path fill="none" stroke="midnightblue" d="M1621.75,-142.372C1648.16,-132.354 1692.42,-115.566 1726.25,-102.731"/>
<polygon fill="midnightblue" stroke="midnightblue" points="1727.83,-105.875 1735.94,-99.0562 1725.35,-99.3303 1727.83,-105.875"/>
</g>
<!-- Node31 -->
<g id="node31" class="node"><title>Node31</title>
<polygon fill="none" stroke="#bfbfbf" points="1865,-69 1865,-99 1985,-99 1985,-69 1865,-69"/>
<text text-anchor="start" x="1873" y="-87" font-family="Helvetica,sans-Serif" font-size="10.00">boost/interprocess</text>
<text text-anchor="middle" x="1925" y="-76" font-family="Helvetica,sans-Serif" font-size="10.00">/allocators/allocator.hpp</text>
</g>
<!-- Node27&#45;&gt;Node31 -->
<g id="edge34" class="edge"><title>Node27&#45;&gt;Node31</title>
<path fill="none" stroke="midnightblue" d="M1643.16,-142.489C1692.3,-132.964 1774.33,-116.895 1854.53,-100.287"/>
<polygon fill="midnightblue" stroke="midnightblue" points="1855.72,-103.613 1864.8,-98.1537 1854.3,-96.7593 1855.72,-103.613"/>
</g>
<!-- Node35 -->
<g id="node35" class="node"><title>Node35</title>
<polygon fill="none" stroke="#bfbfbf" points="1693,-210.5 1693,-229.5 1731,-229.5 1731,-210.5 1693,-210.5"/>
<text text-anchor="middle" x="1712" y="-217.5" font-family="Helvetica,sans-Serif" font-size="10.00">array</text>
</g>
<!-- Node34&#45;&gt;Node35 -->
<g id="edge38" class="edge"><title>Node34&#45;&gt;Node35</title>
<path fill="none" stroke="midnightblue" d="M1489.34,-278.499C1497.32,-276.284 1505.97,-273.969 1514,-272 1588.59,-253.714 1610.69,-261.872 1683,-236 1684.65,-235.409 1686.33,-234.742 1688,-234.026"/>
<polygon fill="midnightblue" stroke="midnightblue" points="1689.78,-237.05 1697.29,-229.574 1686.76,-230.737 1689.78,-237.05"/>
</g>
<!-- Node36 -->
<g id="node36" class="node"><title>Node36</title>
<polygon fill="none" stroke="#bfbfbf" points="1433,-210.5 1433,-229.5 1477,-229.5 1477,-210.5 1433,-210.5"/>
<text text-anchor="middle" x="1455" y="-217.5" font-family="Helvetica,sans-Serif" font-size="10.00">cmath</text>
</g>
<!-- Node34&#45;&gt;Node36 -->
<g id="edge39" class="edge"><title>Node34&#45;&gt;Node36</title>
<path fill="none" stroke="midnightblue" d="M1459.35,-278.372C1458.61,-268.643 1457.39,-252.528 1456.43,-239.85"/>
<polygon fill="midnightblue" stroke="midnightblue" points="1459.92,-239.548 1455.67,-229.841 1452.94,-240.077 1459.92,-239.548"/>
</g>
<!-- Node37 -->
<g id="node37" class="node"><title>Node37</title>
<g id="a_node37"><a xlink:href="../../d6/d84/MathConstants_8h.html" target="_top" xlink:title="useful math constants ">
<polygon fill="none" stroke="black" points="1495.5,-210.5 1495.5,-229.5 1674.5,-229.5 1674.5,-210.5 1495.5,-210.5"/>
<text text-anchor="middle" x="1585" y="-217.5" font-family="Helvetica,sans-Serif" font-size="10.00">CommonConstants/MathConstants.h</text>
</a>
</g>
</g>
<!-- Node34&#45;&gt;Node37 -->
<g id="edge40" class="edge"><title>Node34&#45;&gt;Node37</title>
<path fill="none" stroke="midnightblue" d="M1476.34,-278.372C1497.58,-267.156 1534.9,-247.453 1559.78,-234.314"/>
<polygon fill="midnightblue" stroke="midnightblue" points="1561.45,-237.395 1568.65,-229.63 1558.18,-231.205 1561.45,-237.395"/>
</g>
<!-- Node38&#45;&gt;Node32 -->
<g id="edge43" class="edge"><title>Node38&#45;&gt;Node32</title>
<path fill="none" stroke="midnightblue" d="M1226.11,-272.899C1250.54,-263.908 1281.43,-251.117 1307,-236 1326.6,-224.414 1325.95,-212.678 1347,-204 1485.03,-147.091 1536.77,-206.59 1681,-168 1683.65,-167.29 1686.37,-166.401 1689.04,-165.412"/>
<polygon fill="midnightblue" stroke="midnightblue" points="1690.52,-168.589 1698.42,-161.535 1687.85,-162.12 1690.52,-168.589"/>
</g>
<!-- Node39 -->
<g id="node39" class="node"><title>Node39</title>
<polygon fill="none" stroke="#bfbfbf" points="1237,-210.5 1237,-229.5 1299,-229.5 1299,-210.5 1237,-210.5"/>
<text text-anchor="middle" x="1268" y="-217.5" font-family="Helvetica,sans-Serif" font-size="10.00">TNamed.h</text>
</g>
<!-- Node38&#45;&gt;Node39 -->
<g id="edge42" class="edge"><title>Node38&#45;&gt;Node39</title>
<path fill="none" stroke="midnightblue" d="M1202.23,-272.679C1215.97,-261.879 1234.78,-247.098 1248.77,-236.11"/>
<polygon fill="midnightblue" stroke="midnightblue" points="1251.06,-238.759 1256.76,-229.828 1246.74,-233.254 1251.06,-238.759"/>
</g>
<!-- Node40 -->
<g id="node40" class="node"><title>Node40</title>
<polygon fill="none" stroke="#bfbfbf" points="1355.5,-210.5 1355.5,-229.5 1414.5,-229.5 1414.5,-210.5 1355.5,-210.5"/>
<text text-anchor="middle" x="1385" y="-217.5" font-family="Helvetica,sans-Serif" font-size="10.00">stdexcept</text>
</g>
<!-- Node38&#45;&gt;Node40 -->
<g id="edge44" class="edge"><title>Node38&#45;&gt;Node40</title>
<path fill="none" stroke="midnightblue" d="M1227.71,-272.989C1259.24,-262.837 1302.79,-248.717 1341,-236 1343.97,-235.012 1347.04,-233.98 1350.13,-232.939"/>
<polygon fill="midnightblue" stroke="midnightblue" points="1351.54,-236.155 1359.89,-229.63 1349.3,-229.526 1351.54,-236.155"/>
</g>
<!-- Node41 -->
<g id="node41" class="node"><title>Node41</title>
<polygon fill="none" stroke="#bfbfbf" points="1093.5,-210.5 1093.5,-229.5 1138.5,-229.5 1138.5,-210.5 1093.5,-210.5"/>
<text text-anchor="middle" x="1116" y="-217.5" font-family="Helvetica,sans-Serif" font-size="10.00">gsl/gsl</text>
</g>
<!-- Node38&#45;&gt;Node41 -->
<g id="edge45" class="edge"><title>Node38&#45;&gt;Node41</title>
<path fill="none" stroke="midnightblue" d="M1169.25,-272.679C1158.43,-262.184 1143.75,-247.932 1132.54,-237.052"/>
<polygon fill="midnightblue" stroke="midnightblue" points="1134.71,-234.282 1125.1,-229.828 1129.83,-239.305 1134.71,-234.282"/>
</g>
<!-- Node42 -->
<g id="node42" class="node"><title>Node42</title>
<polygon fill="none" stroke="#bfbfbf" points="1157,-210.5 1157,-229.5 1219,-229.5 1219,-210.5 1157,-210.5"/>
<text text-anchor="middle" x="1188" y="-217.5" font-family="Helvetica,sans-Serif" font-size="10.00">type_traits</text>
</g>
<!-- Node38&#45;&gt;Node42 -->
<g id="edge46" class="edge"><title>Node38&#45;&gt;Node42</title>
<path fill="none" stroke="midnightblue" d="M1184.87,-272.679C1185.45,-263.101 1186.22,-250.394 1186.85,-239.977"/>
<polygon fill="midnightblue" stroke="midnightblue" points="1190.35,-240.022 1187.46,-229.828 1183.37,-239.598 1190.35,-240.022"/>
</g>
<!-- Node43&#45;&gt;Node9 -->
<g id="edge48" class="edge"><title>Node43&#45;&gt;Node9</title>
<path fill="none" stroke="midnightblue" d="M367.311,-136.679C364.818,-126.999 361.501,-114.123 358.802,-103.645"/>
<polygon fill="midnightblue" stroke="midnightblue" points="362.158,-102.639 356.274,-93.8283 355.379,-104.385 362.158,-102.639"/>
</g>
</g>
</svg>
