<?xml version="1.0" encoding="UTF-8" standalone="no"?>
<!DOCTYPE svg PUBLIC "-//W3C//DTD SVG 1.1//EN"
 "http://www.w3.org/Graphics/SVG/1.1/DTD/svg11.dtd">
<!-- Generated by graphviz version 2.36.0 (20140111.2315)
 -->
<!-- Title: /home/travis/build/AliceO2Group/AliceO2/Framework/Core/test/benchmark_DataDescriptorMatcher.cxx Pages: 1 -->
<!--zoomable 322 -->
<svg id="main" version="1.1" xmlns="http://www.w3.org/2000/svg" xmlns:xlink="http://www.w3.org/1999/xlink" xml:space="preserve" onload="init(evt)">
<style type="text/css"><![CDATA[
.edge:hover path { stroke: red; }
.edge:hover polygon { stroke: red; fill: red; }
]]></style>
<script type="text/javascript"><![CDATA[
var edges = document.getElementsByTagName('g');
if (edges && edges.length) {
  for (var i=0;i<edges.length;i++) {
    if (edges[i].id.substr(0,4)=='edge') {
      edges[i].setAttribute('class','edge');
    }
  }
}
]]></script>
        <defs>
                <circle id="rim" cx="0" cy="0" r="7"/>
                <circle id="rim2" cx="0" cy="0" r="3.5"/>
                <g id="zoomPlus">
                        <use xlink:href="#rim" fill="#404040">
                                <set attributeName="fill" to="#808080" begin="zoomplus.mouseover" end="zoomplus.mouseout"/>
                        </use>
                        <path d="M-4,0h8M0,-4v8" fill="none" stroke="white" stroke-width="1.5" pointer-events="none"/>
                </g>
                <g id="zoomMin">
                        <use xlink:href="#rim" fill="#404040">
                                <set attributeName="fill" to="#808080" begin="zoomminus.mouseover" end="zoomminus.mouseout"/>
                        </use>
                        <path d="M-4,0h8" fill="none" stroke="white" stroke-width="1.5" pointer-events="none"/>
                </g>
                <g id="dirArrow">
                        <path fill="none" stroke="white" stroke-width="1.5" d="M0,-3.0v7 M-2.5,-0.5L0,-3.0L2.5,-0.5"/>
                </g>
               <g id="resetDef">
                       <use xlink:href="#rim2" fill="#404040">
                               <set attributeName="fill" to="#808080" begin="reset.mouseover" end="reset.mouseout"/>
                       </use>
               </g>
        </defs>

<script type="text/javascript">
var viewWidth = 2201;
var viewHeight = 322;
var sectionId = 'dynsection-0';
</script>
<script xlink:href="../../svgpan.js"/>
<svg id="graph" class="graph">
<g id="viewport">
<title>/home/travis/build/AliceO2Group/AliceO2/Framework/Core/test/benchmark_DataDescriptorMatcher.cxx</title>
<!-- Node1 -->
<g id="node1" class="node"><title>Node1</title>
<polygon fill="#bfbfbf" stroke="black" points="70.5,-261 70.5,-313 233.5,-313 233.5,-261 70.5,-261"/>
<text text-anchor="start" x="78.5" y="-301" font-family="Helvetica,sans-Serif" font-size="10.00">/home/travis/build</text>
<text text-anchor="start" x="78.5" y="-290" font-family="Helvetica,sans-Serif" font-size="10.00">/AliceO2Group/AliceO2</text>
<text text-anchor="start" x="78.5" y="-279" font-family="Helvetica,sans-Serif" font-size="10.00">/Framework/Core/test/benchmark</text>
<text text-anchor="middle" x="152" y="-268" font-family="Helvetica,sans-Serif" font-size="10.00">_DataDescriptorMatcher.cxx</text>
</g>
<!-- Node2 -->
<g id="node2" class="node"><title>Node2</title>
<polygon fill="none" stroke="#bfbfbf" points="0,-198.5 0,-217.5 124,-217.5 124,-198.5 0,-198.5"/>
<text text-anchor="middle" x="62" y="-205.5" font-family="Helvetica,sans-Serif" font-size="10.00">benchmark/benchmark.h</text>
</g>
<!-- Node1&#45;&gt;Node2 -->
<g id="edge1" class="edge"><title>Node1&#45;&gt;Node2</title>
<path fill="none" stroke="midnightblue" d="M122.531,-260.787C108.369,-248.671 91.8675,-234.553 79.6741,-224.121"/>
<polygon fill="midnightblue" stroke="midnightblue" points="81.8764,-221.399 72.0025,-217.558 77.3257,-226.718 81.8764,-221.399"/>
</g>
<!-- Node3 -->
<g id="node3" class="node"><title>Node3</title>
<g id="a_node3"><a xlink:href="../../dc/dcd/DataHeader_8h.html" target="_top" xlink:title="Headers/DataHeader.h">
<polygon fill="none" stroke="black" points="372.5,-68.5 372.5,-87.5 489.5,-87.5 489.5,-68.5 372.5,-68.5"/>
<text text-anchor="middle" x="431" y="-75.5" font-family="Helvetica,sans-Serif" font-size="10.00">Headers/DataHeader.h</text>
</a>
</g>
</g>
<!-- Node1&#45;&gt;Node3 -->
<g id="edge2" class="edge"><title>Node1&#45;&gt;Node3</title>
<path fill="none" stroke="midnightblue" d="M146.664,-260.838C140.746,-225.345 136.15,-160.808 171,-124 196.539,-97.0262 294.063,-86.1687 362.118,-81.8333"/>
<polygon fill="midnightblue" stroke="midnightblue" points="362.581,-85.3119 372.352,-81.2159 362.159,-78.3246 362.581,-85.3119"/>
</g>
<!-- Node12 -->
<g id="node12" class="node"><title>Node12</title>
<g id="a_node12"><a xlink:href="../../d3/da3/DataDescriptorMatcher_8h.html" target="_top" xlink:title="Framework/DataDescriptor\lMatcher.h">
<polygon fill="none" stroke="black" points="422,-193 422,-223 556,-223 556,-193 422,-193"/>
<text text-anchor="start" x="430" y="-211" font-family="Helvetica,sans-Serif" font-size="10.00">Framework/DataDescriptor</text>
<text text-anchor="middle" x="489" y="-200" font-family="Helvetica,sans-Serif" font-size="10.00">Matcher.h</text>
</a>
</g>
</g>
<!-- Node1&#45;&gt;Node12 -->
<g id="edge11" class="edge"><title>Node1&#45;&gt;Node12</title>
<path fill="none" stroke="midnightblue" d="M233.578,-267.36C289.877,-254.497 364.003,-237.56 417.891,-225.247"/>
<polygon fill="midnightblue" stroke="midnightblue" points="418.74,-228.644 427.709,-223.004 417.181,-221.82 418.74,-228.644"/>
</g>
<!-- Node4 -->
<g id="node4" class="node"><title>Node4</title>
<polygon fill="none" stroke="#bfbfbf" points="106,-6.5 106,-25.5 152,-25.5 152,-6.5 106,-6.5"/>
<text text-anchor="middle" x="129" y="-13.5" font-family="Helvetica,sans-Serif" font-size="10.00">cstdint</text>
</g>
<!-- Node3&#45;&gt;Node4 -->
<g id="edge3" class="edge"><title>Node3&#45;&gt;Node4</title>
<path fill="none" stroke="midnightblue" d="M372.259,-71.8787C316.833,-65.9603 231.898,-54.0667 161,-32 158.726,-31.2923 156.406,-30.4544 154.107,-29.542"/>
<polygon fill="midnightblue" stroke="midnightblue" points="155.5,-26.3312 144.936,-25.5152 152.685,-32.7405 155.5,-26.3312"/>
</g>
<!-- Node5 -->
<g id="node5" class="node"><title>Node5</title>
<polygon fill="none" stroke="#bfbfbf" points="477,-6.5 477,-25.5 529,-25.5 529,-6.5 477,-6.5"/>
<text text-anchor="middle" x="503" y="-13.5" font-family="Helvetica,sans-Serif" font-size="10.00">memory</text>
</g>
<!-- Node3&#45;&gt;Node5 -->
<g id="edge4" class="edge"><title>Node3&#45;&gt;Node5</title>
<path fill="none" stroke="midnightblue" d="M441.316,-68.4035C452.651,-58.9579 471.073,-43.6056 484.839,-32.1342"/>
<polygon fill="midnightblue" stroke="midnightblue" points="487.262,-34.6713 492.703,-25.5806 482.78,-29.2937 487.262,-34.6713"/>
</g>
<!-- Node6 -->
<g id="node6" class="node"><title>Node6</title>
<polygon fill="none" stroke="#bfbfbf" points="547.5,-6.5 547.5,-25.5 596.5,-25.5 596.5,-6.5 547.5,-6.5"/>
<text text-anchor="middle" x="572" y="-13.5" font-family="Helvetica,sans-Serif" font-size="10.00">cassert</text>
</g>
<!-- Node3&#45;&gt;Node6 -->
<g id="edge5" class="edge"><title>Node3&#45;&gt;Node6</title>
<path fill="none" stroke="midnightblue" d="M451.558,-68.4788C473.133,-59.5065 508.017,-44.9174 538,-32 539.778,-31.2342 541.605,-30.4418 543.447,-29.6397"/>
<polygon fill="midnightblue" stroke="midnightblue" points="544.853,-32.8451 552.607,-25.6252 542.043,-26.4338 544.853,-32.8451"/>
</g>
<!-- Node7 -->
<g id="node7" class="node"><title>Node7</title>
<polygon fill="none" stroke="#bfbfbf" points="615,-6.5 615,-25.5 661,-25.5 661,-6.5 615,-6.5"/>
<text text-anchor="middle" x="638" y="-13.5" font-family="Helvetica,sans-Serif" font-size="10.00">cstring</text>
</g>
<!-- Node3&#45;&gt;Node7 -->
<g id="edge6" class="edge"><title>Node3&#45;&gt;Node7</title>
<path fill="none" stroke="midnightblue" d="M472.385,-68.4256C508.024,-60.5398 560.579,-47.7058 605,-32 607.121,-31.25 609.293,-30.417 611.461,-29.5387"/>
<polygon fill="midnightblue" stroke="midnightblue" points="612.974,-32.6978 620.763,-25.516 610.196,-26.2729 612.974,-32.6978"/>
</g>
<!-- Node8 -->
<g id="node8" class="node"><title>Node8</title>
<polygon fill="none" stroke="#bfbfbf" points="403,-6.5 403,-25.5 459,-25.5 459,-6.5 403,-6.5"/>
<text text-anchor="middle" x="431" y="-13.5" font-family="Helvetica,sans-Serif" font-size="10.00">algorithm</text>
</g>
<!-- Node3&#45;&gt;Node8 -->
<g id="edge7" class="edge"><title>Node3&#45;&gt;Node8</title>
<path fill="none" stroke="midnightblue" d="M431,-68.4035C431,-59.9381 431,-46.7283 431,-35.8199"/>
<polygon fill="midnightblue" stroke="midnightblue" points="434.5,-35.5806 431,-25.5806 427.5,-35.5806 434.5,-35.5806"/>
</g>
<!-- Node9 -->
<g id="node9" class="node"><title>Node9</title>
<polygon fill="none" stroke="#bfbfbf" points="170.5,-6.5 170.5,-25.5 229.5,-25.5 229.5,-6.5 170.5,-6.5"/>
<text text-anchor="middle" x="200" y="-13.5" font-family="Helvetica,sans-Serif" font-size="10.00">stdexcept</text>
</g>
<!-- Node3&#45;&gt;Node9 -->
<g id="edge8" class="edge"><title>Node3&#45;&gt;Node9</title>
<path fill="none" stroke="midnightblue" d="M386.04,-68.468C346.602,-60.5232 287.922,-47.5803 238,-32 235.362,-31.1766 232.646,-30.2563 229.938,-29.2876"/>
<polygon fill="midnightblue" stroke="midnightblue" points="230.905,-25.9117 220.313,-25.6549 228.433,-32.4607 230.905,-25.9117"/>
</g>
<!-- Node10 -->
<g id="node10" class="node"><title>Node10</title>
<polygon fill="none" stroke="#bfbfbf" points="679.5,-6.5 679.5,-25.5 720.5,-25.5 720.5,-6.5 679.5,-6.5"/>
<text text-anchor="middle" x="700" y="-13.5" font-family="Helvetica,sans-Serif" font-size="10.00">string</text>
</g>
<!-- Node3&#45;&gt;Node10 -->
<g id="edge9" class="edge"><title>Node3&#45;&gt;Node10</title>
<path fill="none" stroke="midnightblue" d="M489.616,-70.5766C538.72,-64.1105 610.18,-52.1481 670,-32 671.862,-31.3727 673.755,-30.6501 675.638,-29.8682"/>
<polygon fill="midnightblue" stroke="midnightblue" points="677.18,-33.0114 684.782,-25.6316 674.237,-26.6601 677.18,-33.0114"/>
</g>
<!-- Node11 -->
<g id="node11" class="node"><title>Node11</title>
<g id="a_node11"><a xlink:href="../../d7/df8/Types_8h.html" target="_top" xlink:title="MemoryResources/Types.h">
<polygon fill="none" stroke="black" points="247.5,-6.5 247.5,-25.5 384.5,-25.5 384.5,-6.5 247.5,-6.5"/>
<text text-anchor="middle" x="316" y="-13.5" font-family="Helvetica,sans-Serif" font-size="10.00">MemoryResources/Types.h</text>
</a>
</g>
</g>
<!-- Node3&#45;&gt;Node11 -->
<g id="edge10" class="edge"><title>Node3&#45;&gt;Node11</title>
<path fill="none" stroke="midnightblue" d="M414.523,-68.4035C395.395,-58.4232 363.627,-41.8487 341.348,-30.2253"/>
<polygon fill="midnightblue" stroke="midnightblue" points="342.931,-27.1033 332.446,-25.5806 339.693,-33.3094 342.931,-27.1033"/>
</g>
<!-- Node12&#45;&gt;Node3 -->
<g id="edge20" class="edge"><title>Node12&#45;&gt;Node3</title>
<path fill="none" stroke="midnightblue" d="M445.705,-192.795C428.63,-184.826 410.786,-172.983 401,-156 389.758,-136.492 403.574,-111.964 415.95,-95.9031"/>
<polygon fill="midnightblue" stroke="midnightblue" points="418.855,-97.8816 422.509,-87.9369 413.451,-93.4322 418.855,-97.8816"/>
</g>
<!-- Node12&#45;&gt;Node4 -->
<g id="edge39" class="edge"><title>Node12&#45;&gt;Node4</title>
<path fill="none" stroke="midnightblue" d="M421.878,-204.43C339.84,-199.928 207.419,-187.826 171,-156 135.821,-125.258 129.565,-66.1805 128.792,-35.904"/>
<polygon fill="midnightblue" stroke="midnightblue" points="132.291,-35.8026 128.715,-25.8295 125.292,-35.8559 132.291,-35.8026"/>
</g>
<!-- Node12&#45;&gt;Node10 -->
<g id="edge41" class="edge"><title>Node12&#45;&gt;Node10</title>
<path fill="none" stroke="midnightblue" d="M556.278,-207.519C649.809,-206.64 811.855,-198.778 849,-156 858.325,-145.261 855.492,-136.654 849,-124 835.498,-97.682 763.139,-53.22 724.448,-30.8021"/>
<polygon fill="midnightblue" stroke="midnightblue" points="725.807,-27.5468 715.392,-25.602 722.321,-33.6171 725.807,-27.5468"/>
</g>
<!-- Node13 -->
<g id="node13" class="node"><title>Node13</title>
<g id="a_node13"><a xlink:href="../../d0/d1b/ConcreteDataMatcher_8h.html" target="_top" xlink:title="Framework/ConcreteDataMatcher.h">
<polygon fill="none" stroke="black" points="180.5,-130.5 180.5,-149.5 353.5,-149.5 353.5,-130.5 180.5,-130.5"/>
<text text-anchor="middle" x="267" y="-137.5" font-family="Helvetica,sans-Serif" font-size="10.00">Framework/ConcreteDataMatcher.h</text>
</a>
</g>
</g>
<!-- Node12&#45;&gt;Node13 -->
<g id="edge12" class="edge"><title>Node12&#45;&gt;Node13</title>
<path fill="none" stroke="midnightblue" d="M441.648,-192.922C400.968,-180.828 343.062,-163.613 305.262,-152.375"/>
<polygon fill="midnightblue" stroke="midnightblue" points="306.22,-149.009 295.637,-149.514 304.225,-155.718 306.22,-149.009"/>
</g>
<!-- Node14 -->
<g id="node14" class="node"><title>Node14</title>
<g id="a_node14"><a xlink:href="../../d6/dc9/DataProcessingHeader_8h.html" target="_top" xlink:title="Framework/DataProcessing\lHeader.h">
<polygon fill="none" stroke="black" points="594,-125 594,-155 732,-155 732,-125 594,-125"/>
<text text-anchor="start" x="602" y="-143" font-family="Helvetica,sans-Serif" font-size="10.00">Framework/DataProcessing</text>
<text text-anchor="middle" x="663" y="-132" font-family="Helvetica,sans-Serif" font-size="10.00">Header.h</text>
</a>
</g>
</g>
<!-- Node12&#45;&gt;Node14 -->
<g id="edge14" class="edge"><title>Node12&#45;&gt;Node14</title>
<path fill="none" stroke="midnightblue" d="M526.327,-192.841C552.678,-182.846 588.172,-169.383 616.385,-158.682"/>
<polygon fill="midnightblue" stroke="midnightblue" points="617.925,-161.841 626.033,-155.022 615.442,-155.296 617.925,-161.841"/>
</g>
<!-- Node16 -->
<g id="node16" class="node"><title>Node16</title>
<g id="a_node16"><a xlink:href="../../d4/d00/Headers_2include_2Headers_2Stack_8h.html" target="_top" xlink:title="Headers/Stack.h">
<polygon fill="none" stroke="black" points="750,-130.5 750,-149.5 840,-149.5 840,-130.5 750,-130.5"/>
<text text-anchor="middle" x="795" y="-137.5" font-family="Helvetica,sans-Serif" font-size="10.00">Headers/Stack.h</text>
</a>
</g>
</g>
<!-- Node12&#45;&gt;Node16 -->
<g id="edge21" class="edge"><title>Node12&#45;&gt;Node16</title>
<path fill="none" stroke="midnightblue" d="M556.138,-194.761C607.072,-185.151 678.711,-170.934 741,-156 745.775,-154.855 750.766,-153.579 755.703,-152.267"/>
<polygon fill="midnightblue" stroke="midnightblue" points="756.941,-155.558 765.672,-149.556 755.104,-148.803 756.941,-155.558"/>
</g>
<!-- Node24 -->
<g id="node24" class="node"><title>Node24</title>
<polygon fill="none" stroke="#bfbfbf" points="2149,-6.5 2149,-25.5 2193,-25.5 2193,-6.5 2149,-6.5"/>
<text text-anchor="middle" x="2171" y="-13.5" font-family="Helvetica,sans-Serif" font-size="10.00">vector</text>
</g>
<!-- Node12&#45;&gt;Node24 -->
<g id="edge43" class="edge"><title>Node12&#45;&gt;Node24</title>
<path fill="none" stroke="midnightblue" d="M556.428,-202.957C826.981,-186.255 1833.91,-119.398 2140,-32 2142.2,-31.3731 2144.43,-30.5995 2146.63,-29.7369"/>
<polygon fill="midnightblue" stroke="midnightblue" points="2148.26,-32.8418 2155.96,-25.5642 2145.4,-26.4517 2148.26,-32.8418"/>
</g>
<!-- Node30 -->
<g id="node30" class="node"><title>Node30</title>
<polygon fill="none" stroke="#bfbfbf" points="410,-130.5 410,-149.5 448,-149.5 448,-130.5 410,-130.5"/>
<text text-anchor="middle" x="429" y="-137.5" font-family="Helvetica,sans-Serif" font-size="10.00">array</text>
</g>
<!-- Node12&#45;&gt;Node30 -->
<g id="edge38" class="edge"><title>Node12&#45;&gt;Node30</title>
<path fill="none" stroke="midnightblue" d="M475.981,-192.679C466.533,-182.286 453.735,-168.208 443.882,-157.37"/>
<polygon fill="midnightblue" stroke="midnightblue" points="446.342,-154.873 437.026,-149.828 441.163,-159.582 446.342,-154.873"/>
</g>
<!-- Node31 -->
<g id="node31" class="node"><title>Node31</title>
<polygon fill="none" stroke="#bfbfbf" points="466.5,-130.5 466.5,-149.5 511.5,-149.5 511.5,-130.5 466.5,-130.5"/>
<text text-anchor="middle" x="489" y="-137.5" font-family="Helvetica,sans-Serif" font-size="10.00">iosfwd</text>
</g>
<!-- Node12&#45;&gt;Node31 -->
<g id="edge40" class="edge"><title>Node12&#45;&gt;Node31</title>
<path fill="none" stroke="midnightblue" d="M489,-192.679C489,-183.101 489,-170.394 489,-159.977"/>
<polygon fill="midnightblue" stroke="midnightblue" points="492.5,-159.828 489,-149.828 485.5,-159.828 492.5,-159.828"/>
</g>
<!-- Node32 -->
<g id="node32" class="node"><title>Node32</title>
<polygon fill="none" stroke="#bfbfbf" points="530,-130.5 530,-149.5 576,-149.5 576,-130.5 530,-130.5"/>
<text text-anchor="middle" x="553" y="-137.5" font-family="Helvetica,sans-Serif" font-size="10.00">variant</text>
</g>
<!-- Node12&#45;&gt;Node32 -->
<g id="edge42" class="edge"><title>Node12&#45;&gt;Node32</title>
<path fill="none" stroke="midnightblue" d="M502.887,-192.679C513.064,-182.184 526.884,-167.932 537.434,-157.052"/>
<polygon fill="midnightblue" stroke="midnightblue" points="539.99,-159.444 544.439,-149.828 534.965,-154.571 539.99,-159.444"/>
</g>
<!-- Node13&#45;&gt;Node3 -->
<g id="edge13" class="edge"><title>Node13&#45;&gt;Node3</title>
<path fill="none" stroke="midnightblue" d="M290.497,-130.403C318.629,-120.111 365.929,-102.806 397.789,-91.1504"/>
<polygon fill="midnightblue" stroke="midnightblue" points="399.358,-94.3034 407.546,-87.5806 396.953,-87.7295 399.358,-94.3034"/>
</g>
<!-- Node14&#45;&gt;Node3 -->
<g id="edge15" class="edge"><title>Node14&#45;&gt;Node3</title>
<path fill="none" stroke="midnightblue" d="M608.606,-124.933C567.42,-114.281 511.637,-99.8545 473.65,-90.0302"/>
<polygon fill="midnightblue" stroke="midnightblue" points="474.474,-86.6281 463.916,-87.5127 472.721,-93.4051 474.474,-86.6281"/>
</g>
<!-- Node14&#45;&gt;Node4 -->
<g id="edge16" class="edge"><title>Node14&#45;&gt;Node4</title>
<path fill="none" stroke="midnightblue" d="M593.697,-125.564C590.76,-125.029 587.851,-124.505 585,-124 395.128,-90.3555 341.847,-98.9147 161,-32 159.144,-31.3133 157.248,-30.5616 155.351,-29.7722"/>
<polygon fill="midnightblue" stroke="midnightblue" points="156.605,-26.4993 146.045,-25.6365 153.762,-32.8961 156.605,-26.4993"/>
</g>
<!-- Node14&#45;&gt;Node5 -->
<g id="edge18" class="edge"><title>Node14&#45;&gt;Node5</title>
<path fill="none" stroke="midnightblue" d="M638.178,-124.868C621.766,-115.166 600.032,-101.624 582,-88 558.946,-70.5825 534.518,-47.8883 519.035,-32.9015"/>
<polygon fill="midnightblue" stroke="midnightblue" points="521.405,-30.324 511.808,-25.8358 516.511,-35.3293 521.405,-30.324"/>
</g>
<!-- Node14&#45;&gt;Node6 -->
<g id="edge19" class="edge"><title>Node14&#45;&gt;Node6</title>
<path fill="none" stroke="midnightblue" d="M661.777,-124.746C659.871,-109.501 655.053,-85.1994 643,-68 631.82,-52.0463 614.002,-39.2694 599.013,-30.4944"/>
<polygon fill="midnightblue" stroke="midnightblue" points="600.571,-27.3561 590.13,-25.5553 597.169,-33.474 600.571,-27.3561"/>
</g>
<!-- Node15 -->
<g id="node15" class="node"><title>Node15</title>
<polygon fill="none" stroke="#bfbfbf" points="591.5,-68.5 591.5,-87.5 634.5,-87.5 634.5,-68.5 591.5,-68.5"/>
<text text-anchor="middle" x="613" y="-75.5" font-family="Helvetica,sans-Serif" font-size="10.00">cstdio</text>
</g>
<!-- Node14&#45;&gt;Node15 -->
<g id="edge17" class="edge"><title>Node14&#45;&gt;Node15</title>
<path fill="none" stroke="midnightblue" d="M651.151,-124.781C643.81,-115.972 634.355,-104.626 626.694,-95.4332"/>
<polygon fill="midnightblue" stroke="midnightblue" points="629.366,-93.1721 620.275,-87.7305 623.989,-97.6534 629.366,-93.1721"/>
</g>
<!-- Node16&#45;&gt;Node3 -->
<g id="edge37" class="edge"><title>Node16&#45;&gt;Node3</title>
<path fill="none" stroke="midnightblue" d="M766.86,-130.456C758.582,-128.141 749.474,-125.784 741,-124 658.832,-106.697 563.01,-93.896 499.896,-86.4611"/>
<polygon fill="midnightblue" stroke="midnightblue" points="500.005,-82.9502 489.667,-85.2694 499.195,-89.9032 500.005,-82.9502"/>
</g>
<!-- Node17 -->
<g id="node17" class="node"><title>Node17</title>
<g id="a_node17"><a xlink:href="../../dc/d03/MemoryResources_8h.html" target="_top" xlink:title="MemoryResources/MemoryResources.h">
<polygon fill="none" stroke="black" points="1296.5,-68.5 1296.5,-87.5 1489.5,-87.5 1489.5,-68.5 1296.5,-68.5"/>
<text text-anchor="middle" x="1393" y="-75.5" font-family="Helvetica,sans-Serif" font-size="10.00">MemoryResources/MemoryResources.h</text>
</a>
</g>
</g>
<!-- Node16&#45;&gt;Node17 -->
<g id="edge22" class="edge"><title>Node16&#45;&gt;Node17</title>
<path fill="none" stroke="midnightblue" d="M840.438,-134.441C937.663,-124.686 1167.62,-101.613 1298.17,-88.5147"/>
<polygon fill="midnightblue" stroke="midnightblue" points="1298.57,-91.9926 1308.17,-87.5117 1297.87,-85.0276 1298.57,-91.9926"/>
</g>
<!-- Node17&#45;&gt;Node7 -->
<g id="edge27" class="edge"><title>Node17&#45;&gt;Node7</title>
<path fill="none" stroke="midnightblue" d="M1296.36,-75.4622C1127.49,-72.0302 785.678,-61.568 670,-32 667.503,-31.3618 664.965,-30.5293 662.465,-29.5834"/>
<polygon fill="midnightblue" stroke="midnightblue" points="663.753,-26.3272 653.187,-25.5445 660.959,-32.7453 663.753,-26.3272"/>
</g>
<!-- Node17&#45;&gt;Node10 -->
<g id="edge28" class="edge"><title>Node17&#45;&gt;Node10</title>
<path fill="none" stroke="midnightblue" d="M1296.33,-75.2773C1138.57,-71.6569 832.906,-61.0375 729,-32 727.035,-31.4508 725.049,-30.7594 723.087,-29.9767"/>
<polygon fill="midnightblue" stroke="midnightblue" points="724.22,-26.6413 713.683,-25.5376 721.232,-32.9715 724.22,-26.6413"/>
</g>
<!-- Node18 -->
<g id="node18" class="node"><title>Node18</title>
<polygon fill="none" stroke="#bfbfbf" points="1217,-1 1217,-31 1317,-31 1317,-1 1217,-1"/>
<text text-anchor="start" x="1225" y="-19" font-family="Helvetica,sans-Serif" font-size="10.00">boost/container/flat</text>
<text text-anchor="middle" x="1267" y="-8" font-family="Helvetica,sans-Serif" font-size="10.00">_map.hpp</text>
</g>
<!-- Node17&#45;&gt;Node18 -->
<g id="edge23" class="edge"><title>Node17&#45;&gt;Node18</title>
<path fill="none" stroke="midnightblue" d="M1374.95,-68.4035C1357.01,-59.8596 1328.91,-46.483 1305.89,-35.5171"/>
<polygon fill="midnightblue" stroke="midnightblue" points="1307.23,-32.2802 1296.7,-31.1408 1304.22,-38.6002 1307.23,-32.2802"/>
</g>
<!-- Node19 -->
<g id="node19" class="node"><title>Node19</title>
<polygon fill="none" stroke="#bfbfbf" points="1335,-1 1335,-31 1451,-31 1451,-1 1335,-1"/>
<text text-anchor="start" x="1343" y="-19" font-family="Helvetica,sans-Serif" font-size="10.00">boost/container/pmr</text>
<text text-anchor="middle" x="1393" y="-8" font-family="Helvetica,sans-Serif" font-size="10.00">/memory_resource.hpp</text>
</g>
<!-- Node17&#45;&gt;Node19 -->
<g id="edge24" class="edge"><title>Node17&#45;&gt;Node19</title>
<path fill="none" stroke="midnightblue" d="M1393,-68.4035C1393,-61.3405 1393,-50.975 1393,-41.399"/>
<polygon fill="midnightblue" stroke="midnightblue" points="1396.5,-41.1408 1393,-31.1408 1389.5,-41.1408 1396.5,-41.1408"/>
</g>
<!-- Node20 -->
<g id="node20" class="node"><title>Node20</title>
<polygon fill="none" stroke="#bfbfbf" points="1469,-1 1469,-31 1625,-31 1625,-1 1469,-1"/>
<text text-anchor="start" x="1477" y="-19" font-family="Helvetica,sans-Serif" font-size="10.00">boost/container/pmr</text>
<text text-anchor="middle" x="1547" y="-8" font-family="Helvetica,sans-Serif" font-size="10.00">/monotonic_buffer_resource.hpp</text>
</g>
<!-- Node17&#45;&gt;Node20 -->
<g id="edge25" class="edge"><title>Node17&#45;&gt;Node20</title>
<path fill="none" stroke="midnightblue" d="M1415.06,-68.4035C1437.56,-59.6406 1473.1,-45.7942 1501.62,-34.6789"/>
<polygon fill="midnightblue" stroke="midnightblue" points="1502.95,-37.9169 1511,-31.0253 1500.41,-31.3945 1502.95,-37.9169"/>
</g>
<!-- Node21 -->
<g id="node21" class="node"><title>Node21</title>
<polygon fill="none" stroke="#bfbfbf" points="1643.5,-1 1643.5,-31 1776.5,-31 1776.5,-1 1643.5,-1"/>
<text text-anchor="start" x="1651.5" y="-19" font-family="Helvetica,sans-Serif" font-size="10.00">boost/container/pmr</text>
<text text-anchor="middle" x="1710" y="-8" font-family="Helvetica,sans-Serif" font-size="10.00">/polymorphic_allocator.hpp</text>
</g>
<!-- Node17&#45;&gt;Node21 -->
<g id="edge26" class="edge"><title>Node17&#45;&gt;Node21</title>
<path fill="none" stroke="midnightblue" d="M1439.68,-68.4309C1486.16,-59.8649 1559.82,-46.2011 1633.38,-32.109"/>
<polygon fill="midnightblue" stroke="midnightblue" points="1634.12,-35.5305 1643.28,-30.2088 1632.8,-28.6559 1634.12,-35.5305"/>
</g>
<!-- Node22 -->
<g id="node22" class="node"><title>Node22</title>
<polygon fill="none" stroke="#bfbfbf" points="1795,-6.5 1795,-25.5 1857,-25.5 1857,-6.5 1795,-6.5"/>
<text text-anchor="middle" x="1826" y="-13.5" font-family="Helvetica,sans-Serif" font-size="10.00">type_traits</text>
</g>
<!-- Node17&#45;&gt;Node22 -->
<g id="edge29" class="edge"><title>Node17&#45;&gt;Node22</title>
<path fill="none" stroke="midnightblue" d="M1489.55,-72.2863C1569.57,-66.8663 1685.84,-55.4795 1785,-32 1788.5,-31.1715 1792.11,-30.135 1795.67,-28.996"/>
<polygon fill="midnightblue" stroke="midnightblue" points="1797.14,-32.1911 1805.43,-25.6024 1794.84,-25.579 1797.14,-32.1911"/>
</g>
<!-- Node23 -->
<g id="node23" class="node"><title>Node23</title>
<polygon fill="none" stroke="#bfbfbf" points="1875,-6.5 1875,-25.5 1915,-25.5 1915,-6.5 1875,-6.5"/>
<text text-anchor="middle" x="1895" y="-13.5" font-family="Helvetica,sans-Serif" font-size="10.00">utility</text>
</g>
<!-- Node17&#45;&gt;Node23 -->
<g id="edge30" class="edge"><title>Node17&#45;&gt;Node23</title>
<path fill="none" stroke="midnightblue" d="M1489.62,-71.9791C1606.72,-65.1629 1796.85,-51.5478 1865,-32 1866.97,-31.434 1868.97,-30.7395 1870.95,-29.9626"/>
<polygon fill="midnightblue" stroke="midnightblue" points="1872.85,-32.9453 1880.48,-25.6048 1869.93,-26.5788 1872.85,-32.9453"/>
</g>
<!-- Node17&#45;&gt;Node24 -->
<g id="edge31" class="edge"><title>Node17&#45;&gt;Node24</title>
<path fill="none" stroke="midnightblue" d="M1489.8,-75.8327C1663.21,-72.9681 2019.95,-63.3474 2140,-32 2142.34,-31.3882 2144.72,-30.5946 2147.06,-29.692"/>
<polygon fill="midnightblue" stroke="midnightblue" points="2148.62,-32.8314 2156.32,-25.5545 2145.76,-26.4411 2148.62,-32.8314"/>
</g>
<!-- Node25 -->
<g id="node25" class="node"><title>Node25</title>
<polygon fill="none" stroke="#bfbfbf" points="1933.5,-6.5 1933.5,-25.5 2016.5,-25.5 2016.5,-6.5 1933.5,-6.5"/>
<text text-anchor="middle" x="1975" y="-13.5" font-family="Helvetica,sans-Serif" font-size="10.00">unordered_map</text>
</g>
<!-- Node17&#45;&gt;Node25 -->
<g id="edge32" class="edge"><title>Node17&#45;&gt;Node25</title>
<path fill="none" stroke="midnightblue" d="M1489.71,-74.6456C1596.74,-70.689 1773.96,-60.1249 1924,-32 1929.14,-31.0364 1934.5,-29.7643 1939.74,-28.3675"/>
<polygon fill="midnightblue" stroke="midnightblue" points="1940.9,-31.6769 1949.56,-25.5762 1938.99,-24.9436 1940.9,-31.6769"/>
</g>
<!-- Node26 -->
<g id="node26" class="node"><title>Node26</title>
<polygon fill="none" stroke="#bfbfbf" points="2034.5,-6.5 2034.5,-25.5 2131.5,-25.5 2131.5,-6.5 2034.5,-6.5"/>
<text text-anchor="middle" x="2083" y="-13.5" font-family="Helvetica,sans-Serif" font-size="10.00">FairMQMessage.h</text>
</g>
<!-- Node17&#45;&gt;Node26 -->
<g id="edge33" class="edge"><title>Node17&#45;&gt;Node26</title>
<path fill="none" stroke="midnightblue" d="M1489.73,-75.5672C1614.28,-72.4774 1837.06,-62.731 2025,-32 2031.33,-30.9647 2037.98,-29.5573 2044.42,-28.0173"/>
<polygon fill="midnightblue" stroke="midnightblue" points="2045.47,-31.3635 2054.31,-25.5227 2043.76,-24.5763 2045.47,-31.3635"/>
</g>
<!-- Node27 -->
<g id="node27" class="node"><title>Node27</title>
<polygon fill="none" stroke="#bfbfbf" points="738.5,-6.5 738.5,-25.5 869.5,-25.5 869.5,-6.5 738.5,-6.5"/>
<text text-anchor="middle" x="804" y="-13.5" font-family="Helvetica,sans-Serif" font-size="10.00">FairMQTransportFactory.h</text>
</g>
<!-- Node17&#45;&gt;Node27 -->
<g id="edge34" class="edge"><title>Node17&#45;&gt;Node27</title>
<path fill="none" stroke="midnightblue" d="M1296.48,-71.7299C1192.91,-65.3336 1023.76,-52.7479 879,-32 870.309,-30.7544 861.105,-29.1516 852.232,-27.4593"/>
<polygon fill="midnightblue" stroke="midnightblue" points="852.887,-24.0212 842.4,-25.5248 851.536,-30.8895 852.887,-24.0212"/>
</g>
<!-- Node28 -->
<g id="node28" class="node"><title>Node28</title>
<polygon fill="none" stroke="#bfbfbf" points="887.5,-6.5 887.5,-25.5 1024.5,-25.5 1024.5,-6.5 887.5,-6.5"/>
<text text-anchor="middle" x="956" y="-13.5" font-family="Helvetica,sans-Serif" font-size="10.00">fairmq/MemoryResources.h</text>
</g>
<!-- Node17&#45;&gt;Node28 -->
<g id="edge35" class="edge"><title>Node17&#45;&gt;Node28</title>
<path fill="none" stroke="midnightblue" d="M1312.94,-68.4801C1240.05,-60.3632 1129.54,-47.1577 1034,-32 1025.39,-30.6341 1016.28,-29.0283 1007.43,-27.3842"/>
<polygon fill="midnightblue" stroke="midnightblue" points="1008.08,-23.9448 997.606,-25.5225 1006.78,-30.8225 1008.08,-23.9448"/>
</g>
<!-- Node29 -->
<g id="node29" class="node"><title>Node29</title>
<polygon fill="none" stroke="#bfbfbf" points="1043,-6.5 1043,-25.5 1199,-25.5 1199,-6.5 1043,-6.5"/>
<text text-anchor="middle" x="1121" y="-13.5" font-family="Helvetica,sans-Serif" font-size="10.00">fairmq/MemoryResourceTools.h</text>
</g>
<!-- Node17&#45;&gt;Node29 -->
<g id="edge36" class="edge"><title>Node17&#45;&gt;Node29</title>
<path fill="none" stroke="midnightblue" d="M1354.32,-68.4672C1305.68,-57.7379 1222.16,-39.3157 1169.36,-27.6673"/>
<polygon fill="midnightblue" stroke="midnightblue" points="1170.07,-24.2397 1159.55,-25.5034 1168.56,-31.0754 1170.07,-24.2397"/>
</g>
</g>
</svg>
        <g id="navigator" transform="translate(0 0)" fill="#404254">
                <rect fill="#f2f5e9" fill-opacity="0.5" stroke="#606060" stroke-width=".5" x="0" y="0" width="60" height="60"/>
                <use id="zoomplus" xlink:href="#zoomPlus" x="17" y="9" onmousedown="handleZoom(evt,'in')"/>
                <use id="zoomminus" xlink:href="#zoomMin" x="42" y="9" onmousedown="handleZoom(evt,'out')"/>
                <use id="reset" xlink:href="#resetDef" x="30" y="36" onmousedown="handleReset()"/>
                <g id="arrowUp" xlink:href="#dirArrow" transform="translate(30 24)" onmousedown="handlePan(0,-1)">
                  <use xlink:href="#rim" fill="#404040">
                        <set attributeName="fill" to="#808080" begin="arrowUp.mouseover" end="arrowUp.mouseout"/>
                  </use>
                  <path fill="none" stroke="white" stroke-width="1.5" d="M0,-3.0v7 M-2.5,-0.5L0,-3.0L2.5,-0.5"/>
                </g>
                <g id="arrowRight" xlink:href="#dirArrow" transform="rotate(90) translate(36 -43)" onmousedown="handlePan(1,0)">
                  <use xlink:href="#rim" fill="#404040">
                        <set attributeName="fill" to="#808080" begin="arrowRight.mouseover" end="arrowRight.mouseout"/>
                  </use>
                  <path fill="none" stroke="white" stroke-width="1.5" d="M0,-3.0v7 M-2.5,-0.5L0,-3.0L2.5,-0.5"/>
                </g>
                <g id="arrowDown" xlink:href="#dirArrow" transform="rotate(180) translate(-30 -48)" onmousedown="handlePan(0,1)">
                  <use xlink:href="#rim" fill="#404040">
                        <set attributeName="fill" to="#808080" begin="arrowDown.mouseover" end="arrowDown.mouseout"/>
                  </use>
                  <path fill="none" stroke="white" stroke-width="1.5" d="M0,-3.0v7 M-2.5,-0.5L0,-3.0L2.5,-0.5"/>
                </g>
                <g id="arrowLeft" xlink:href="#dirArrow" transform="rotate(270) translate(-36 17)" onmousedown="handlePan(-1,0)">
                  <use xlink:href="#rim" fill="#404040">
                        <set attributeName="fill" to="#808080" begin="arrowLeft.mouseover" end="arrowLeft.mouseout"/>
                  </use>
                  <path fill="none" stroke="white" stroke-width="1.5" d="M0,-3.0v7 M-2.5,-0.5L0,-3.0L2.5,-0.5"/>
                </g>
        </g>
        <svg viewBox="0 0 15 15" width="100%" height="30px" preserveAspectRatio="xMaxYMin meet">
         <g id="arrow_out" transform="scale(0.3 0.3)">
          <a xlink:href="benchmark__DataDescriptorMatcher_8cxx__incl_org.svg" target="_base">
           <rect id="button" ry="5" rx="5" y="6" x="6" height="38" width="38"
                fill="#f2f5e9" fill-opacity="0.5" stroke="#606060" stroke-width="1.0"/>
           <path id="arrow"
             d="M 11.500037,31.436501 C 11.940474,20.09759 22.043105,11.32322 32.158766,21.979434 L 37.068811,17.246167 C 37.068811,17.246167 37.088388,32 37.088388,32 L 22.160133,31.978069 C 22.160133,31.978069 26.997745,27.140456 26.997745,27.140456 C 18.528582,18.264221 13.291696,25.230495 11.500037,31.436501 z"
             style="fill:#404040;"/>
          </a>
         </g>
        </svg>
</svg>
